<?xml version="1.0" encoding="UTF-8"?>
<svg id="_레이어_1" data-name="레이어 1" xmlns="http://www.w3.org/2000/svg" viewBox="0 0 80 70">
  <defs>
    <style>
      .cls-1 {
        fill: #eee;
      }
    </style>
  </defs>
  <path class="cls-1" d="M34.66,62.73s-.03,0-.05,0c-.02,0-.04,0-.04,0-.03.04-.02.19,0,.38.04.39.15.97.2,1.17,0,.02.01.04.02.05,0,.01.13.2.15.22,0,0,0-.02,0-.02.01-.03.02-.07.03-.11.01-.07.02-.14.02-.22,0-.48-.22-1.01-.28-1.47-.01,0-.03,0-.06,0Z"/>
  <path class="cls-1" d="M42.78,53.33s-.05,0-.08.03c-.01.01-.03.03-.04.04-.02.02-.03.03-.05.05,0,0,0,0,0,0,0,0,0,0,0,0-.02.02-.04.05-.06.07,0,0,0,0,0,0-.05.06-.11.11-.17.14-.03.01-.05.02-.08.02-.15.03-.29,0-.42,0,0,0,0,0,0,0-.06,0-.11.03-.17.07,0,.01-.02.02-.02.04-.01.02-.02.04-.03.07,0,.01,0,.02-.01.04-.03.08-.07.15-.16.17h0c-.04.13.04.22.16.27.1.03.22.04.32.04.12,0,.24-.04.29-.1,0,0,0,0,0,0,0-.03.01-.06.02-.1,0-.04.02-.09.03-.11,0,0,0,0,.01,0,0-.01,0-.02.01-.03.09-.08.67-.04.81,0,.1.03.12.12.12.13,0,.02,0,.03,0,.04.12.03.34-.01.5,0,.02,0,.05,0,.07,0,0,0,.02,0,.03.01.04.02.1.05.19.06,0-.01,0-.02,0-.03-.02-.04-.04-.08-.06-.09,0-.05-.02-.09-.05-.13-.09-.04-.22-.03-.19-.2,0,0,0,0,0,0,0,0,0,0,0,0-.01-.04-.01-.08,0-.13,0,0,0,0,0,0-.02,0-.05,0-.08,0-.06,0-.11,0-.15.02t0,0s-.07.05-.1.07c0,0,0,0,0,0-.01.02-.02.05-.04.06,0,0-.04,0-.07,0-.04.02-.08.03-.12.02,0-.02,0-.04,0-.05,0,0,0,0,0,0-.07-.04-.13-.12-.2-.2h0s-.05-.03-.06-.05c-.02-.02-.03-.05-.03-.09,0,0,0,0,0,0-.04-.06-.08-.11-.11-.14Z"/>
  <path class="cls-1" d="M67.2,8.99h.22c.02-.09-.04-.2-.12-.21-.2-.04-.98.52-1.16.21-.06-.1.02-.26-.14-.22-.12.05-.75.28-.77.33-.03.15.17.14.21.19.13.19-.18.44-.2.61-.06.35-.02.86-.08,1.23-.01.09-.12.6-.14.63-.08.12-.13-.02-.16-.09-.11-.23-.09-.63-.2-.81-.06-.11-.43-.23-.46-.47-.29.06-.88-.12-1.1-.08-.29.06-.68.44-.9.57-.16.09-.34.05-.46.19.47.29.86.76.04.84l-2.01.07c-.14.47.53,0,.58.26.02.11-.34.4-.44.47-.21.15-.64.25-.73.55.25.04.54-.26.73-.4.01.05.12.1,0,.22-.04.01-.4.33-.29.44.19.19.4-.32.44-.36.1-.13.56-.12.73-.19.2-.08.39-.36.66-.44.65-.19.26.22.29.5.01.12.55.03.08.67-.54.75-1.42,1.5-1.86,2.3-.1.19-.18.39-.25.59-.11.03-.17-.02-.22.18-.06.25.32.01.29-.18.04-.01.21-.06.22-.07l.07.07s-.31.92-.43,1.06c.02.25.22.48.29.69.02.05-.02.16.01.24.09.26.27-.02.21-.24.17.05.22.33.29.48.03.06.03.24.15.1.03-.03-.02-.59.01-.75.05-.22.34-.44.34-.74,0-.2-.48-1.07-.17-1.13.06-.01.34.14.4.19.31.27.38.86.64,1.18l.24.67c.01-.94-.32-1.86-.51-2.77.15-.03.16.08.23.17.27.35.35.78.55,1.13.05.08,0,.13.16.09.13-.44.15-1,.29-1.42.13-.4.4-.01.43.22.14.97-.28,2.05-.07,2.99.13.57.43-.34.49-.53.29-.9.3-1.86.46-2.79l.13.2.16,1.11c-.01-.79.06-1.58.15-2.36.21-.05.12-.54.36-.38.22.14.33.66.36.91.11.01.13-.19.14-.26.03-.24-.01-.48,0-.72,0-.09.06-.53.07-.55.09-.11.13.02.16.09.07.15.09.36.13.53.03.13-.07.21.15.18v-1.5s-.07-.31-.08-.32c-.04-.04-.2.03-.21-.05-.12-.59.78-2.38,1.24-2.77.24-.2.55-.16.37-.54Z"/>
  <path class="cls-1" d="M59.39,19.86c.09-.54.09-1.09.07-1.64,0-.09.05-.27-.07-.25-.1.37-.31.72-.41,1.09-.05.19-.09.34-.12.47.06.08.11.11.16.19l.36.15Z"/>
  <path class="cls-1" d="M66.73,11.69c-.12.2-.43.8-.46,1-.03.18.07.67.22.36.08-.17.47-1.45.42-1.51-.19-.04-.12.05-.18.14Z"/>
  <path class="cls-1" d="M61.11,9.94c.32.01.65-.05.96.07l.54-.14-1.29-.35c-.16-.01-.5.41-.21.43Z"/>
  <path class="cls-1" d="M18.76,20.59c.05.09.01.26.22.22l.07-.44c.06-.03.1-.12.22-.07.02.1.05.2.07.29.08.28.09.09.15.15,0,0,.07.21.07.22.02.11-.02.26,0,.39.03.17.12.89.32.85.26-.06.3-.61.36-.8.06-.19.24-.34.18-.58-.22-.04-.36.09-.55.15l-.04-.15c.07-.06.06-.27.07-.29.04-.04.14.11.15-.15,0-.05,0-.1,0-.15.17-.21.06-.45,0-.66-.21-.7-1.2-1.07-1.75-1.5-.06-.05-.36-.3-.37-.32,0-.01,0-.13,0-.15.08-.18.47-.02.62-.01.09,0,.19-.07.25-.06.08,0,.29.02.37.03.25.04.45.28.73.26.04-.19-.05-.13-.14-.19-.22-.16-.52-.33-.81-.25-.05-.21-.27-.37-.36-.51-.02-.02.02-.12,0-.15-.05-.05-.14.07-.15.07-.16.02-.96-.17-1.01-.34-.16-.56.77-.32.87-.46.17-.24-.51-.53-.62-.66-.12-.14-.21-.35.03-.4.19-.04.47.14.44-.07-.05-.34-.77-1.46-1.02-1.75-.33-.37-1.09-.92-1.6-.66-.39.19.17.45.25.62.02.05.11.44.11.47-.02.1-.23.16-.28.11-.03-.02-.19-.7-.22-.73-.22-.18-.11.53-.33.44-.26-.12-.41-.94-.69-1.09-.02.39-.6-.08-.77-.22-.29-.24-.94-1.22-1.17-1.24-.27-.03-.53.4-.47.66l.29.11v1.28c.31-.28.55-.72,1.02-.73.07.45-.69,1.27.07,1.31,0-.18.02-.75.28-.58.07.04.38,1.13.46,1.33.11.26.27.42.38.78.58,1.86.52,4.02,1.86,5.58.08.1.08.33.25.1.07-.09.11-.26.19-.38.04-.06.15-.08.21-.18.16-.29.04-.78.16-1.12.11-.02.16.02.2.13.11.27.31,1.32.45,1.44.05.05.08.04.15.04.02-.36-.23-.79-.08-1.12.12-.26.5.4.57.52.12.19.2.41.31.61Z"/>
  <path class="cls-1" d="M12.85,13.51c0,.34-.02.65.07.98.03.09.08.04.14.04,0-.15.17-.23.21-.34.1-.32-.05-.7-.42-.68Z"/>
  <path class="cls-1" d="M44.77,62.86c-.12-.25-.23-1.25-.28-1.29-.23-.22-.28.41-.4.44-.19.04-.24-.43-.47-.29-.05.03-.17.87-.15,1.02-.09,0-.16.04-.22-.05-.16-.2-.34-.79-.43-1.05-.94.19-.71.72-.74,1.49l-.43.41s-.05.04-.03.07c.09.14.26.25.25.44l-.36.07c.02-.23-.01-.43-.07-.66-.13-.49-.86-.94-1.24-1.35-.12-.12-.3-.48-.46-.47-.09,0-.2.15-.3.13-.08-.02-.33-.69-.77-.51l.29.65c-.54.43-.7-.44-1.12-.37-.05,0-.29.69-.48.73.13.15.37.78.07.55-.05-.04-.78-.89-.8-.95-.15-.34.37.16.4.19.06.05.17.06.18.07-.07-.35.24-1.29-.27-1.38-.14-.03-.22.26-.39.21-.04-.27.07-.7-.04-.95-.03-.06-.88-.99-.94-1.03-.79-.46-.27.76-.41.95l-.36-.22.15.87-.58-.22c.01.2-.03.41.01.6.05.24.76,1.13.57,1.36l-.07.15c0,.07-.01.15,0,.22.12.69.36,1.36.78,1.93,0,.01.02.02.03.04.16.21.23.26.29.25.06,0,.08-.09.14-.07,0,0,0,0,0,0,.16.07.38.51.62.55.02,0,.04,0,.05,0,.19-.03-.09-.55.02-.66,0,0,0,.02.01.02.13.24.36.37.53.56.01,0,.02,0,.03,0,.14.03.21.01.24-.02.01-.01.01-.03.01-.05,0-.07-.07-.17-.07-.21,0,0,0,0,0-.01.22.05.34.06.39.02.02-.01.03-.03.03-.06,0-.07-.06-.19-.12-.33-.03-.07-.06-.14-.08-.22,0,0,0,0,.02,0,.02,0,.04.01.08.03.03.01.06.03.1.05.08.04.17.09.26.15.05.03.09.06.13.08.15.09.28.18.31.21.07.05.04.14.05.15,0,0,0,0,0,0,.31.24.55.45.98.43,0,0,0,0,0,0,.21-.01.07-.29.11-.44.01,0,.02,0,.03,0h0s.02,0,.03,0c.13.03.18.21.33.22,0,0,0,0,.02,0,.13-.02.67-.26.84-.31.52-.15,1.02-.28,1.55-.29.17,0,.33,0,.51.03.48.06.54.23.84.23.12,0,.29-.02.54-.09.15-.04-.06-.03.3-.07.27-.03.58-.45.76-.69-.1-.07-.08-.26.07-.26,0,0,0,0,0,0,0,0,0,0,0,0-.18-.35-.75-.74-.89-1.04Z"/>
  <path class="cls-1" d="M52.3,60.88s-.09-.08-.15-.14c-.03-.03-.07-.07-.1-.11-.17-.17-.38-.4-.6-.62-.05-.05-.1-.1-.15-.14-.02-.02-.05-.05-.07-.07-.1-.09-.2-.17-.29-.24-.02-.02-.05-.03-.07-.05-.04-.03-.09-.06-.13-.08-.14-.08-.26-.1-.34-.04,0,.14.11.25.19.36.07.09.15.2.24.3.05.05.09.11.14.16.24.27.5.55.63.78.01.02.03.05.04.08,0,.01,0,.03.01.04,0,.01,0,.03,0,.04,0,.05-.03.08-.12.06l-1.17-1.09-1.38-1.68s-.02.02-.03.03c-.02.02-.03.03-.04.05-.02.02-.02.05-.02.08,0,.01,0,.02,0,.04,0,.01,0,.03,0,.04.06.67.54,1.52.72,2.17-.07.08-1.69-.88-1.53-1.31-.15.05-.23.12-.26.19-.02.04-.02.08-.02.12.02.2.27.44.38.65.05.09.04.22.08.35,0,.02.02.04.03.05.06.1,1.16,1.1,1.24,1.13.04.01.11,0,.18,0,.04,0,.08,0,.11,0,0,0,.02,0,.02,0,.02,0,.04,0,.06,0h0s.04,0,.06,0c0-.02,0-.03,0-.04,0-.13.12-.09.19-.12.01,0,.03-.02.03-.03,0-.01.01-.03,0-.06,0-.01,0-.03,0-.04-.04-.02-.07-.07-.13-.07h0s-.01,0-.02,0c.02-.17.07-.21.15-.2.12.01.28.16.41.19.09.02.15.02.21.03.31,0,.19-.24.25-.3,0,0,.02,0,.04,0,.1.02.35.14.52.14h0s.01,0,.02,0c.03,0,.05,0,.07-.02.12-.06.15-.24.22-.33l.07-.07s-.01-.06,0-.07c.12-.12.2-.03.29-.11Z"/>
  <path class="cls-1" d="M34.57,64.34s-.02-.07-.03-.11c-.03-.08-.06-.17-.1-.27s-.08-.21-.13-.33c-.08-.21-.18-.44-.26-.67-.02-.05-.04-.1-.06-.16-.01-.03-.02-.06-.03-.09-.04-.11-.07-.21-.1-.3-.01-.04-.02-.07-.03-.11-.02-.07-.03-.13-.05-.19-.02-.09-.02-.16-.02-.22.02-.23.31-.19.53-.18.05,0,.09,0,.13,0,.02-.03.03-.07.03-.1,0-.24-.35-.55-.53-.62-.01,0-.03,0-.04-.01-.08-.01-.12.05-.15.13-.04.1-.07.23-.18.23.02-.4.1-.91.1-1.36,0-.15,0-.29-.03-.42-.06-.33-.58-.7-.65-1.06-.06-.01-.1,0-.12,0-.02.02-.03.05-.03.09,0,.06.01.13.01.2,0,.02,0,.05,0,.07l-.36-.07c0,.31-.12.59-.07.91.01.06.29.79.33.84.07.11.25.14.26.19.02.15-.16.31-.14.42,0,.05.06.1.13.16.11.09.25.2.28.3.05.16.07.35.1.56.03.21.06.42.11.61.02.05.09.25.18.47.04.11.09.23.14.34.03.08.06.15.09.21.07.16.12.29.13.3,0,.01.12,0,.22.15,0,0,0,0,0,0,.13.19.21.42.4.58,0,0,0-.01,0-.02.01-.03.02-.07.02-.11,0-.11-.02-.24-.05-.33,0-.02,0-.04-.01-.05Z"/>
  <path class="cls-1" d="M54.24,59.34c-.04-.07-.19-.12-.28-.19,0,0-.01,0-.02-.01-.17-.14-.48-.38-.76-.54.03.03-.01.07.02.11.03.03,0,.08,0,.13-.36-.2-.66-.36-.76-.47-.34-.05-.89-.02-1.26-.13-.01.11,0,.19.04.3.03.06.08.14.14.22.24.32.66.76.86.9,0,0,.01,0,.02.01.26.17.81.53,1.13.52,0,0,.02,0,.02,0,.02,0,.04,0,.06,0,.07-.02.01-.15.09-.23.02-.02.08-.07.15-.12-.02-.02.13-.1.25-.17.08-.05.15-.09.15-.11,0,0,0,0,0,0h0c.06-.05.11-.08.13-.1,0,0,0,0,.01-.01.01-.02.02-.04.02-.05,0,0,0,0,0,0,0-.01,0-.02-.01-.03Z"/>
  <path class="cls-1" d="M57.02,53.4s-.02,0-.03,0c-.01,0-.02,0-.04,0-.02,0-.04.01-.07.02-.1.03-.26.09-.42.17-.05.02-.09.05-.13.07-.07.04-.13.07-.18.11-.02.01-.03.03-.05.04-.05.04-.08.08-.1.11-.02.03-.03.07-.04.12,0,.01,0,.03,0,.04,0,.06,0,.1-.01.11-.03.02-.64-.12-.73-.15v.07s.02.08.04.12.05.07.08.1c.03.03.06.06.1.08.18.12.44.19.61.3.03.02.05.04.08.05.12.1.22.23.36.31.06.03.12.05.19.06,0,0,0,0,.01-.01.06-.05.25-.03.28-.4,0-.02,0-.05,0-.08,0-.04-.02-.08-.04-.13-.01-.04-.03-.08-.05-.13,0-.02-.02-.05-.03-.07-.03-.06-.05-.13-.07-.19-.02-.08-.03-.15-.03-.23,0-.11.04-.21.14-.3.02-.02.05-.04.08-.06,0,0,0,0,0,0,0,0,0,0,0,0,0,0,0,0,0,0,0,0,0,0,0,0,.01-.02.03-.04.04-.06,0,0,0,0,0-.01,0,0,0-.01,0-.02,0,0,0,0,0,0,0,0,0-.01,0-.02,0,0,0,0,0,0s0,0-.02,0Z"/>
  <path class="cls-1" d="M45.66,61.42s0,.06,0,.09c0,.47.38.96.37,1.4,0,.16-.17.11-.28.11-.07,0-.11.02-.08.11.02.05.05.12.09.18.07.11.16.22.2.3.05,0,.1,0,.15,0,0,0,.02,0,.02,0,.03,0,.07,0,.1,0,0,0,.02,0,.03,0l.07-.07s0,0,0-.02c0-.01,0-.03,0-.04,0,0,0-.01,0-.02.05-.17.02-.42.22-.36,0-.01,0-.03,0-.04,0,0,0-.01,0-.02,0,0,0,0,0-.01,0-.04,0-.07,0-.09,0-.06.03-.07.1-.06.02,0,.03,0,.05,0,0,0,0,0,0-.01.04-.06.1-.17.13-.2,0,0,0,0,0,0l-.13-.27-1.03-.97Z"/>
  <path class="cls-1" d="M54.71,58.29h-.07s-.04.01-.06.01c-.23.05-.24-.12-.33-.23-.01-.02-.03-.03-.05-.04-.12-.07-.32-.06-.46-.13-.17-.08-.99-.58-1.07-.49-.01.07,0,.12.01.17.03.07.1.13.17.2.07.07.25.22.43.37.11.08.22.17.32.24.05.04.1.07.14.1.07.04.12.08.16.09,0,0,.02,0,.03.01.14.06.4.1.55.13,0,0,.02,0,.02,0,.17,0,.31.06.27-.15-.05-.11-.07-.17-.07-.29Z"/>
  <path class="cls-1" d="M55.92,55.51c-.07-.02-.14-.04-.21-.06-.06-.02-.12-.03-.17-.04-.04,0-.08-.01-.11-.02-.05,0-.09,0-.12,0-.03,0-.06,0-.08.02-.05.04-.18.57-.19.67,0,.02,0,.03,0,.05,0,.1.06.21.06.32,0,.02,0,.03,0,.05-.02.07-.14.02-.15.08-.04.18.13.09.15.11.22-.14.43-.32.63-.51s.4-.37.61-.51h0c-.07-.04-.22-.1-.39-.16Z"/>
  <path class="cls-1" d="M33.08,63.32c-.09-.08-.12-.1-.25-.08,0,.36,0,.73,0,1.09v.07c.1,0,.19,0,.29,0,0,0,.02,0,.02,0,.03,0,.07,0,.1,0,.03,0,.06,0,.1,0,0-.02,0-.03,0-.04,0-.16.2-.11.39-.1.05,0,.09,0,.13,0-.23-.26-.52-.73-.77-.94Z"/>
  <path class="cls-1" d="M48.09,61.36c-.42-.04-.09.54-.1.72.03-.02.07-.02.11-.02.12,0,.24.09.26.09,0,0,.02,0,.02,0h0s.09,0,.14,0c.1,0,.2,0,.3,0,.04,0,.08,0,.12,0h0v-.07c-.12-.15-.71-.71-.85-.72Z"/>
  <path class="cls-1" d="M52.59,60.4l-.15-.07s0,0,0,0c0,0-.02,0-.04,0-.01,0-.02,0-.03,0l-.15-.07s-.01,0-.02,0c0,0-.02,0-.03,0,0,0-.02,0-.02,0-.04,0-.06.04-.07.07.12.15.28.47.36.66.57-.04.58-.22.15-.58Z"/>
  <path class="cls-1" d="M68.02,19.36s0,0-.01,0c-.04,0-.07,0-.1,0-.02,0-.04,0-.06,0,0,.01,0,.02-.02.03-.02.02-.06.03-.08.03h0s-.02.06-.04.1c0,.01-.02.03-.03.04-.17.26-.34.59-.44.87,0,0,0,.01,0,.02.28-.36.86-.64.79-1.1Z"/>
  <path class="cls-1" d="M25.94,56.4s-.03,0-.05,0c-.05,0-.11.02-.15,0-.02.1-.03.22-.05.36,0,.04-.01.09-.02.14-.01.13-.02.27-.03.4,0,.09,0,.18,0,.26,0,.12,0,.24.03.34,0,.01,0,.02,0,.03,0,.07,0,.14,0,.21,0,.02,0,.04,0,.06,0,0,0,.01,0,.02.03.13.18.26.22.36,0,0,.01-.01.02-.02.2-.21-.03-.49-.08-.66.1-.31.18-.66.2-1,.04-.18.08-.34.08-.48h-.13s-.03-.02-.04-.03Z"/>
  <path class="cls-1" d="M32.68,55.88h0s-.01-.04-.02-.07c0-.03,0-.06,0-.09,0-.28.07-.76.08-1.13,0-.11,0-.2-.01-.28,0-.03,0-.05-.02-.08-.03-.09-.07-.15-.14-.16-.03,0-.05,0-.07.01-.05.03-.09.09-.12.12,0,0-.01.01-.02.01-.06.03,0-.13-.08-.15-.1-.03-.36.03-.39,0,0,0,0,0,0-.02,0-.02-.01-.05-.02-.09,0-.03-.01-.06-.02-.1-.01-.08-.03-.17-.04-.26,0-.05-.02-.09-.03-.14-.01-.06-.03-.12-.04-.18-.04-.14-.09-.26-.14-.29-.19-.12-.55.23-.68.2-.04,0-.06-.04-.09-.08-.02-.04-.05-.08-.07-.13-.03-.06-.06-.12-.1-.17,0-.01-.02-.02-.03-.03-.02-.01-.03-.02-.05-.03,0,.05.01.1.02.15.06.34.17.73.28,1.04.08.2.38.91.49,1.04.05.06.09.09.11.1.09.05.08-.08.15-.13.02-.01.05-.02.1-.01l.07.87c.3.06.07-.44.16-.57,0,0,.03-.02.06-.03.11-.05.32-.14.36-.27.03.25-.06.9.29.95Z"/>
  <path class="cls-1" d="M27.1,56.86s.02-.02.04-.03l.1-.26c.14-.31.3-.71.41-1.06l.51-1.3c-.24.12-.22.49-.36.68-.06.08-.19.1-.25.2-.03.04-.05.08-.08.12-.08.11-.15.21-.21.31-.03.04-.07.07-.1.1-.03.03-.06.07-.09.1-.05.07-.1.13-.12.19-.04.12,0,.92.04.95.06.06.09.04.11,0Z"/>
  <path class="cls-1" d="M30.32,60.03c.09.12.27.25.46.33.14.06.28.09.36.07v-.02s0,0,0,0c-.05-.15-.14-.78-.21-1.19-.03-.18-.06-.32-.08-.34-.08-.08-.11-.02-.14.04,0,0,0,.01,0,.02,0,.01-.01.03-.02.04-.01.02-.03.06-.06.11-.02.04-.04.08-.06.12-.1.2-.24.48-.28.59,0,.03-.01.04-.01.05,0,0,0,0,0,.01-.01.04-.02.07-.01.09,0,.03.02.05.04.08Z"/>
  <path class="cls-1" d="M26.69,57.55v-.21s0-.03,0-.04v-1.13c-.07,0-.15.02-.23.05-.1.04-.2.11-.25.2-.01.02-.02.04-.03.07-.01.03-.02.07-.02.11.11.31.07.79.11,1.17.01.13.04.24.08.33.03.06.04.09.06.09.02,0,.04-.05.07-.11.02-.03.05-.11.08-.19.06-.14.12-.3.12-.34Z"/>
  <path class="cls-1" d="M47.37,60.81s-.05-.07-.08-.09c-.03-.03-.06-.05-.09-.06-.15-.07-.31-.02-.34.15,0,.02,0,.03,0,.05,0,.08.02.17.08.28.01.03.03.06.05.09.04.06.08.12.14.19.03.03.06.07.09.1.06.07.07.16.21.12.09-.31.08-.54.02-.7-.02-.05-.04-.09-.06-.12Z"/>
  <path class="cls-1" d="M28.43,56.56s-.02.05-.03.09c-.04.03-.08.06-.11.09-.08.08-.12.19-.13.3,0,.02,0,.05,0,.07,0,.05,0,.09,0,.14.02.15.06.3.12.44.04.18.08.36.09.38.1.11.13,0,.15-.11.05-.41.01-.92.06-1.37,0-.01,0-.02,0-.03,0,0,0,0,0,0,0-.03,0-.07.01-.1-.15-.02-.12-.01-.16.09Z"/>
  <path class="cls-1" d="M28.27,58.57s-.04-.03-.06-.04c-.05-.01-.12-.02-.16-.03-.02,0-.04-.02-.04-.04,0-.03-.01-.06-.02-.09-.03-.2-.03-.5-.04-.71,0-.04,0-.07,0-.1,0,0,0,0,0,0,0-.01,0-.03,0-.05-.03.02-.05.04-.08.06-.1.07-.27.27-.41.47-.04.05-.07.1-.11.15-.03.05-.06.09-.09.13-.01.02-.03.04-.04.05-.04.05-.06.09-.07.1-.01.01-.02.03-.04.04-.03.03-.06.06-.09.09-.02.02-.04.03-.05.05-.12.11-.25.23-.29.3,0,0,0,.01,0,.03-.01.02-.02.06-.03.09,0,.04-.02.08-.02.13,0,.06-.01.13-.02.21,0,.11-.01.23-.02.35-.01.15-.02.27-.02.33,0,.05,0,.09.01.14,0,.09,0,.16-.01.22.03,0,.07,0,.1.01.33.06.6.29.85.5.03,0,.05,0,.07,0,.04,0,.06-.02.08-.04.03-.04.03-.1.05-.16.06-.16.16-.38.25-.63.02-.04.03-.08.05-.12.03-.08.06-.17.09-.25.1-.29.19-.56.21-.74.01-.12.01-.2,0-.27,0-.08,0-.13-.02-.16ZM27.35,59.48c0-.19.05-.36.07-.55.01-.1.03-.21.14-.11.14.12-.03.59-.22.66Z"/>
  <path class="cls-1" d="M31.2,62.66s-.02-.06-.04-.1c-.01-.03-.02-.05-.04-.08-.02-.05-.04-.09-.07-.14-.06-.11-.12-.23-.18-.34-.03-.05-.06-.11-.09-.15-.03-.05-.06-.09-.08-.12-.01-.03-.02-.07-.03-.1.1-.09,0-.22-.02-.32-.02-.09-.06-.31-.11-.54,0-.06-.01-.13-.02-.19,0-.05-.02-.09-.03-.13-.02-.06-.04-.12-.07-.16-.03-.04-.07-.07-.12-.09-.07-.06-.14-.07-.23-.01,0,0-.02.03-.03.07-.1.07-.17.23-.21.45-.05.25-.07.56-.07.86,0,.04,0,.07,0,.11,0,.21,0,.43.02.59,0,.05,0,.09,0,.12,0,.05,0,.06.04.07,0,.03.01.05.02.08,0,0,0,.01,0,.02.02-.02.11,0,.18-.07.03-.03.06-.09.09-.15,0,0,0,0,0,0,.03-.06.05-.12.08-.17,0-.02.01-.03.02-.05.09-.19.15-.39.22-.58l.02-.03s.02-.01.03-.02l.03.05s.02.02.03.05c.02.03.03.06.05.1.13.5.14,1,.21,1.5h.29c.03-.07.08-.18.12-.29.01-.04.02-.08.03-.11,0-.02,0-.03,0-.04,0-.02-.01-.04-.02-.07Z"/>
  <path class="cls-1" d="M29.5,59.57s-.02,0-.04,0c-.07,0-.15.08-.21.2-.01.02-.02.04-.03.06-.04.06-.07.13-.11.21-.06.14-.13.29-.18.42-.04.04-.07.06-.11.1h0s0,.23,0,.23c-.04.14-.09.3-.08.31.06.07.21-.12.3-.26,0-.01.02-.02.02-.04.02-.03.04-.06.04-.07,0,0,0,0,0-.01l.07-.09s0-.05,0-.09c.01-.03.03-.07.04-.1.04-.11.09-.23.13-.35.01-.03.03-.06.04-.09.05-.11.1-.22.13-.29.02-.06.03-.09.02-.1-.01-.01-.03-.02-.04-.03Z"/>
  <path class="cls-1" d="M22.46,55.1s0,0,0,.01c0,.02.02.05.03.08.03.11.07.28.19.41h.07s0-.06,0-.1h0s0-.05,0-.07c0-.25-.04-.55-.3-.34Z"/>
  <path class="cls-1" d="M36.14,56.49v.07s.05-.05,0-.07Z"/>
  <path class="cls-1" d="M45.22,54.15s-.03.04-.05.06c0,0,0,.01,0,.02,0,0,0,0-.01,0,0,.02-.02.04-.01.06.02,0,.13.12.22.07-.03-.12.09-.26-.15-.22Z"/>
  <path class="cls-1" d="M64.05,23.94c-.92.36-1.77,1.1-2.48,1.78-.15.14-.17.33-.34.47-.04.04-.55.36-.59.36-.1.01-.18-.14-.28-.14-.2,0-1.03,1.4-1.28,1.5-.16.07-.64-.17-.85-.18-.21,0-.28.14-.46.14-.02-.11-.02-.2-.02-.27.03-.52.49-.28.52-.31.02-.02.18-.3.19-.51,0-.02,0-.03,0-.05-.01-.1-.07-.18-.22-.18-.36,0-.48.64-.87-.21-.17-.37-.3-.9-.33-1.31l-.29.07c.02-.25-.19-.57-.2-.78,0-.11.25-.88.31-1.04.08-.22.3-.49.33-.69,0-.01,0-.03,0-.04-.01-.13-.21-.07-.34-.06-.02,0-.05,0-.06,0-.02,0-.03,0-.03-.01-.02-.04-.03-.1-.02-.18.03-.49.57-1.55.61-1.75,0-.02,0-.03,0-.03-.16-.23-.89.35-1.09.21-.17-.12-.16-1.91-.63-2.11-.36,0-.67,1.01-.73,1.02-.05.01-.1.02-.13.01s-.06-.01-.09-.03c-.04-.03-.06-.08-.07-.14,0-.25.26-.72.26-.84,0-.01,0-.02,0-.03-.73-.07-.92.91-1.6.87-.01-.05-.01-.08-.01-.11,0-.08.05-.07.1-.13.18-.2,1.26-.88,1.29-1.04,0-.04-.01-.07-.03-.1-.01-.02-.03-.03-.05-.05-.06-.04-.16-.04-.25-.04-.06,0-.13,0-.19.01-.1,0-.18.02-.2,0,0,0,0,0,0-.01,0-.03.05-.13.05-.2,0-.12-.07-.2-.49,0-.01-.01-.02-.03-.01-.04,0-.26.99-1.18.98-1.44,0-.02,0-.03-.02-.04-.33,0-.72-.02-1.04.09-.13.05-.66.48-.71.42-.02-.02-.02-.04-.02-.07.02-.18.44-.53.53-.63.16-.19.74-.86.8-1.02,0-.02.01-.04.01-.05,0-.04-.02-.06-.05-.06-.03,0-.06,0-.1.02-.05.01-.1.03-.16.06-.16.07-.34.16-.36.15-.02-.02-.02-.05-.02-.09.01-.4.72-1.8.82-2.1l.07-.15h0s0-.05,0-.07c0-.4-.38.12-.48.2,0,0-.02.01-.03.02v-.73s-.04,0-.05,0c-.12,0-.15.16-.18.25-.04.13-.1.23-.16.36-.03.06-.06.13-.1.19-.04.07-.07.14-.11.21-.08.16-.3.41-.28.6,0,0,0,0,0,.01.01.1,0,.09-.06.14-.01.01-.07,0-.09.02-.05.04-.05.12-.08.17-.04.06-.1.11-.14.17,0,0-.07.07-.07.07-.03.03.02.11,0,.16-.04.07-.14.05-.2.11-.03.03-.05.09-.09.1-.02,0-.04,0-.06,0-.04.01-.05.06-.09.07-.02,0-.04,0-.05,0-.03,0-.04.04-.06.05-.02.01-.03.02-.06.02-.02,0-.03,0-.05,0,0,0,0,0-.01,0,.02,0,.04,0,.06,0-.02,0-.04,0-.07,0-.19,0-.22.2-.27-.05-.03-.14-.16-.48-.17-.5-.02-.07-.45.32-.49.47-.06.19-.03.39-.17.55-.03.03-.14.14-.19.11-.04-.03.03-.24.04-.29.02-.08,0-.47-.15-.66-.02-.02-.03.09-.05.11-.03.03-.06.06-.1.07-.03.01-.04.02-.07.03-.08.05-.16.07-.24.12-.03.02-.06.06-.08.09-.04.04-.06.04-.11.04,0,0-.11,0-.11,0,0,.12.03.17-.11.15-.11-.03.04-.14.04-.15,0-.22-.07-.28-.15-.44l-.15-.15s.02-.11,0-.15c-.25.04-.12-.35-.44-.36h-.05s-.13.02-.15,0c-.02-.02.01-.16,0-.22,0-.04,0-.1,0-.15.18-.31.23-.53-.07-.73,0-.04,0-.08,0-.12,0-.02,0-.03.02-.05.02-.03.05-.07.06-.12,0,0,.06-.02.07-.07.06-.4-.19-.42-.22-.62-.01-.11.04-.3.07-.44.02-.05.04-.09.05-.14.03-.08.05-.16.05-.23,0,0,0,0,0-.01,0,0,0,0,0,0,0-.17-.19-.35-.2-.54,0-.06.02-.13.07-.2.14-.09.15-.25.15-.4,0-.12-.07-.88-.09-1-.03-.16-.2-.31-.2-.46,0-.15.17-.27.14-.5-.02-.18-.19-.28-.22-.45-.14-.75-.03-1.22-.37-2,0,0,0-.01,0-.02,0,0,0,0,0,0-.08-.19-.1-.21-.22-.36,0,0,0-.02,0-.02,0-.01,0-.03,0-.04,0,0,0-.02,0-.02,0-.04-.04-.08-.19-.11-.51-.1-.86.08-1.06.51-.06.08-.12.17-.17.25-.28.3-.48.71-.67,1.1-.09.17-.19.34-.28.52-.09.12-.23.21-.3.35-.16.33-.28.73-.4,1.15-.22.53-.39,1.03-.44,1.39-.03.07-.07.14-.1.21-.3.09-.29.5-.3.72-.01.04-.03.08-.05.13,0,.02-.02.03-.03.05-.07.04-.16.06-.19.15,0,.02-.01.04-.01.06,0,0,0,.01,0,.01,0,0,0,0,0,0-.02.05-.03.11-.03.2,0,.06.02.09.04.1,0,.04,0,.07-.02.11-.01.04-.05.07-.09.09-.08.03-.16.04-.19.09-.03.05-.04.11-.04.19,0,.04,0,.07,0,.11-.02.18-.02.34-.25.29,0,0,0,0,0,0h-.03c0-.27,0-.53-.23-.54-.06,0-.14,0-.23.04-.16.06-.24.62-.31.79-.03.09-.07.13-.1.15-.09.03-.18-.22-.3-.33-.15-.13-.29-.17-.4-.17-.14,0-.24.05-.3.06-.01,0-.02,0-.03,0-.03-.02-.1-.41-.2-.44-.04,0-.07-.01-.09-.02-.23-.01-.12.26-.3.35-.03.02-.06.02-.08.02-.1,0-.2-.06-.29-.07,0,0-.02,0-.02,0-.02,0-.03.14-.16.16,0,0-.01,0-.02,0-.06,0-.14-.02-.26-.09-.14-.08-.16-.22-.23-.28-.06-.05-.11-.08-.15-.08-.22-.01-.18.64-.18.87,0,0,0,0,0,0-.16-.01-.11-.23-.16-.28-.05-.05-.52-.08-.68-.21-.01,0-.02-.02-.03-.03.09.45-.16.19-.37.4-.17.17-.15.64-.3.76,0,0-.01.01-.02.01,0,0-.36-.59-.36-.59h-.32s0,0,0,0h0s0,0,0,0c-.03,0-.08,0-.1-.02-.06-.08.03-.31-.12-.43-.02-.02-.05-.03-.09-.04-.09-.04-.19-.03-.24-.03-.02-.03-.04-.4-.11-.58-.07-.16-.3-.34-.31-.41-.02-.09.09-.26.06-.32,0,0-.02,0-.03-.01-.05-.06-.16.03-.29-.17-.04-.06-.07-.14-.11-.27-.15-.49-.46-1.57-.54-2.02,0-.02,0-.04,0-.06,0-.14.08-.27.07-.41,0,0,0,0,0-.01,0-.02,0-.04-.01-.07,0-.03-.03-.06-.06-.09-.03-.05-.06-.09-.12-.1,0,0,0,0-.01,0-.07-.05-.15-.1-.2-.16-.02-.02-.04-.05-.05-.08-.03-.08-.04-.16-.05-.23,0-.03,0-.06,0-.09,0-.08-.01-.14-.06-.19-.05-.04-.13-.06-.29-.07,0,0-.01,0-.02,0,0,0,.01,0,.02.01,0,0,0,0-.01,0-.02-.02-.11-.16-.15-.22,0,0,0-.02-.01-.02,0,0,.01,0,.01,0-.23-.33-.44-.8-.66-1.17.02.03.03.06.04.08-.01-.02-.03-.05-.04-.07-.42-.7-1.01-1.95-1.74-1.49-.03.02-.07.05-.11.08,0,0,0,0,0,0-.03.03-.07.06-.1.1-.01.01-.03.03-.04.05-.02.02-.04.04-.06.07-.02.02-.04.04-.05.07-.01.02-.03.04-.04.06-.02.03-.04.05-.06.08-.12.18-.19.35-.25.52,0,0,0,0,0,0-.02.05-.03.11-.05.16,0,0,0,0,0,0-.01.06-.03.11-.04.17,0,0,0,0,0,.01,0,.03-.01.06-.02.09-.04.06-.04.16-.04.26,0,.07-.02.13-.02.2,0,0,0,0,0,0-.02.21-.07.52-.08.75,0,.04,0,.07,0,.1,0,.2.05.4.08.6,0,.02,0,.03,0,.05,0,.06.01.12,0,.18,0,.04,0,.07-.01.11-.04.18-.25.27-.27.52,0,0,0,0,0,0,0,0,0,0,0,0-.01.2.12.48.13.72,0,.1,0,.2,0,.31,0,.01,0,.03,0,.04,0,.1,0,.2-.01.3,0,0,0,.01,0,.02-.02.15-.03.3-.03.45,0,.07,0,.15-.01.22,0,.02,0,.05,0,.07,0,.05,0,.1,0,.15,0,.07,0,.14,0,.21,0,0,0,.02,0,.02,0,.08,0,.16,0,.24,0,0,0,0,0,0,0,0,0,0,0,0,0,.19.11.49.13.71,0,.03,0,.05,0,.08,0,.09-.08.18-.13.28-.03.06-.06.12-.07.19,0,.01,0,.02,0,.03,0,0,0,.02,0,.03,0,0,0,0,0,0,0,0,0,0,0,.01,0,.23.22.28.22.43,0,0,0,.02,0,.03,0,0,0,.01,0,.02-.02.08-.09.17-.16.25-.04.05-.08.11-.11.16-.02.03-.03.07-.03.1,0,0,0,.01,0,.02,0,0,0,0,0,0,0,0,0,0,0,0,0,0,0,0,0,.01,0,.01,0,.02.01.04,0,0,0,0,0,.01,0,.01.01.03.03.04,0,0,0,0,0,.01.01.01.03.03.05.04,0,0,0,0,.01,0,.02.02.05.03.08.05,0,0,0,0,0,0,.03.01.06.03.1.04-.04.05-.09.11-.14.14,0,0,0,0,0,0-.02.02-.03.04-.04.07h0s-.02.01-.03.01c0,0,0,0,0,0,0,0,0,0-.01,0,0,0,0,0-.01,0-.02,0-.04,0-.05,0h-.03s-.22.12-.22.12l-.05.02c-.09.1-.21.3-.29.44-.02.02-.04.1-.09.11-.1.02-.24-.05-.25-.05-.17-.01-.28-.1-.44-.13,0,0-.01,0-.02,0-.03.06-.11.18-.15.22-.18.17-.32.16-.56.14,0,0-.02,0-.03,0,.02.08.07.31.07.36v.07s0,.06,0,.07c0,0,0,0,0,0-.06.1-.2.13-.34.16-.07.01-.15.03-.21.04-.03,0-.06.02-.09.03s-.05.03-.08.05c.08.09.21.22.22.34,0,.02,0,.03,0,.05-.01.05-.6.65-.65.67-.26.12-.38-.22-.65-.18l.22.87c-.33-.32-.52-.79-.77-1.16-.04-.06-.1-.1-.16-.14-.03-.02-.06-.04-.09-.06-.01-.01-.03-.03-.04-.04s-.02-.03-.03-.05h0c-.29-.54-.77-1.26-.86-1.88,0-.03,0-.08,0-.12,0-.14.03-.3.18-.26.11.03.69,1.18.77,1.39.12.04.14,0,.15-.06,0-.04-.01-.1,0-.13,0-.01,0-.02,0-.03-.01-.13-.08-.26-.15-.37-.04.02-.09-.04-.11-.06-.01-.01-.03-.04-.03-.05,0,0,0-.02,0-.02,0-.02-.02-.04-.03-.06,0-.02-.01-.05-.02-.07,0-.02,0-.05-.02-.07-.02-.02-.05-.02-.07-.04-.02-.02-.03-.06-.05-.08-.01-.02-.02-.03-.03-.05,0-.02,0-.04-.02-.05-.01-.03-.04-.04-.06-.07-.03-.03-.04-.07-.06-.1-.04-.08-.09-.15-.15-.22-.02-.03-.05-.05-.08-.08l-.07-.07c-.43-.34-.54-.19-.87-.33-.51-.22-.47-1.38-.7-1.49-.01,0-.02,0-.03,0-.09-.02-.07.13-.11.15,0,0,0,0,0,0-.17,0-.25-.25-.37-.28,0,0-.01,0-.02,0-.11,0-.24.1-.35.12-.02,0-.03,0-.05,0-.03,0-.39-.4-.41-.42,0,0,0,0,0,0-.21-.03-.15.1-.12.24.02.12.11.5.16.57.07.1.21-.03.33.03.21.11.21.63.58.26-.01.27.03.58.16.83.11.22.69.97.87,1.17.3.32,1.27,1.01,1.37,1.4,0,.01,0,.02,0,.03,0,.02,0,.03-.01.05-.02.04-.05.08-.05.09,0,.02,0,.05,0,.07,0,.05,0,.1,0,.15h-.1c-.07-.13-.1-.18-.27-.15,0,.02,0,.05,0,.07,0,.07,0,.15,0,.22,0,.13,0,.25,0,.38,0,.26,0,.51,0,.77,0,.13,0,.26,0,.38.12.02.15,0,.15-.06,0-.04-.01-.09-.01-.14,0-.02,0-.03,0-.05.03-.19.02-.55.29-.55.1,1.03-.03,2.06.43,3.02l-.28.69c-.16-.56-.16-1.47-.38-1.99-.08-.18-.14-.08-.28-.05,0,.02,0,.05,0,.07s0,.05,0,.07c0,0,0,.01,0,.03,0,.02,0,.06,0,.08,0,.01,0,.03,0,.04,0,.02,0,.05,0,.08s0,.05,0,.07c0,.02,0,.03,0,.05,0,.04,0,.08,0,.11,0,.02,0,.04,0,.05-.14,0-.11-.16-.15-.22-.05-.08-.5-.74-.51-.33l.44,3.32c-.6-.23-.9-.68-1.53-.18-.06.22,1.01,1.33.95,1.81,0,.05-.12.05-.15.1-.05.08-.07.23-.15.28-.16.1-.3-.09-.48.02-.18.12-.91.97-.97,1.15,0,.03-.01.08-.01.14,0,.18.03.43.07.47.2.14.3-.49.44-.51,0,.03,0,.05,0,.08,0,.39-.32.7-.3,1.09.15,0,.3-.09.36-.22.13-.25.08-.82.4-.95,0,.04.01.08.01.12,0,.1-.03.21-.07.32-.02.07-.05.14-.08.21-.04.1-.09.21-.12.3-.04.14-.06.23-.07.28,0,.16.13.02.2.09.05.05.07.16.07.3,0,.08-.01.17-.03.27-.01.09-.03.18-.05.27-.01.06-.03.11-.05.16,0,.02-.02.05-.02.07-.02.04-.03.08-.05.1.28,0,.37.07.38.18,0,.05,0,.1-.03.15,0,.02-.01.04-.02.06-.04.1-.1.2-.14.3-.02.06-.04.11-.05.15,0,.02,0,.03,0,.05,0,.1.05.2.05.3,0,.02,0,.03,0,.05-.06.25-.48.53-.54.78-.01.02-.02.04-.02.06,0,.02,0,.04,0,.06,0,.14.07.3.13.45.01.04.02.09.02.13,0,.12-.03.41-.06.62,0,.07-.02.13-.03.17-.02.12-.07.26-.17.34l-.11-.36c-.06.02-.12.03-.17.04-.07-.01-.16-.03-.25-.05-.2-.1-.35-.31-.5-.5-.02-.02-.03-.04-.05-.06,0,0,0,0-.01-.01h0s0,0,0,0l-.1.21c-.05,0-.11-.02-.16-.03-.06-.04-.14-.07-.21-.09-.2-.11-.38-.26-.56-.37-.02-.01-.06-.03-.13-.06-.13-.06-.31-.15-.44-.24-.06-.05-.11-.09-.13-.13,0,0,0,0,0-.01.2-.04.82.26.95.15,0,0,0-.02,0-.04.07-.01.11-.04.12-.08,0-.03-.01-.06-.04-.1-.03-.05-.89-.29-1.08-.46-.03-.04-.05-.08-.07-.12-.03-.1-.03-.23-.13-.3-.19-.09,0,.29-.4.15-.06-.02-.12-.06-.2-.07,0,0-.02,0-.02,0-.01.02-.03.06-.04.09-.04.04-.06.09-.08.11,0,0,0,0,0,0-.05-.01-.12-.05-.18-.05-.04,0-.09.01-.11.07-.07.02-.08.09-.02.37.12.51.99.88,1.01.97.02.1-.05.18-.15.23,0,0,0,0-.01,0-.05.03-.12.05-.18.07-.05.02-.11.03-.15.04-.04,0-.07.02-.09.03-.02,0-.04.02-.05.03-.04.05,0,.21.02.31.01.03.02.06.03.06.01,0,.08,0,.18-.03.15-.03.38-.07.55-.01.05.02.1.04.14.07.02.01.04.02.06.04.1.09.17.22.24.34,0,0,0,.02,0,.03,0,0,0,0,0,0,0,.02.02.03.03.05.02.03.03.06.05.08.03.03.11.02.12.02,0,0,0,0,0,0,0,0,0,.02,0,.03,0,.03-.02.07-.05.11-.02.03-.04.05-.07.08,0,0-.02.02-.02.03-.01.01-.02.03-.03.04-.03.03-.05.06-.07.09-.03.05-.05.1-.04.15,0,.02.02.04.04.07.01.02.03.03.05.05.08.07.18.16.23.23.06.09.1.19.15.29.01.05.03.1.05.14,0,0,.02,0,.02,0,0,0,0,0,.01,0,.04.05.14.06.16.09.05.07,0,.23,0,.31,0,.02,0,.03.01.04,0,0,.02.01.05.02.04.01.1.02.16.03.04,0,.07.01.11.02.06,0,.12.01.14.01.11-.01.27-.21.33-.15.13.13-.09.24-.26.34-.01,0-.03.01-.04.02-.04.03-.08.05-.1.07,0,0,0,0,0,0,0,0-.01.02-.02.03-.13.19-.1.4.03.54.1.12.27.19.47.16.03.02.01.07-.02.14-.06.13-.18.31-.29.47-.04.05-.07.1-.1.14-.05.07-.09.13-.1.15,0,0,0,.02-.01.03-.06.11-.13.21-.17.3,0,0,0,.01,0,.02-.02.04-.03.08-.03.11,0,0,0,.01,0,.01,0,.06.05.1.14.12.05.02.13.03.22.03,0,.02,0,.05,0,.08-.01.02-.03.03-.05.04,0,0-.01.01-.02.02-.02.04-.03.07-.03.09-.05.06-.1.11-.15.17-.11.12-.2.23-.06.26.3.07.29.21.23.51,0,0,0,.01,0,.02-.02.08-.04.16-.08.24-.02.04-.04.09-.07.14-.01.03-.03.06-.04.08-.02.03-.04.07-.06.1-.02,0-.04,0-.07,0,0,0-.01,0-.02,0-.04.12-.09.24-.15.35-.06.11-.13.21-.21.31l-.07.07c-.11.12-.31.24-.44.36,0,.02-.02.04-.03.06-.03.04-.08.09-.13.13-.02.01-.03.03-.05.04-.2.16-.46.32-.45.61,0,.01,0,.02,0,.04,0,.01,0,.02,0,.04,0,.03,0,.06.01.08.03.11.09.15.16.14h0c.28-.03.82-.68,1.02-.77.08-.04.1,0,.1.07,0,.02,0,.03,0,.05,0,.06-.03.12-.04.17v.07s.06.27.06.27c0,.03-.02.04-.04.04-.03,0-.07,0-.09,0,0,0-.01,0-.01,0-.15.12-.31.34-.46.53-.01.01-.03.03-.04.04h0s0,.01,0,.01c-.05.07-.1.13-.15.18.03.06.24.05.29.04l.07-.07s.02,0,.02,0c.03-.01.06-.03.09-.04.02,0,.03-.01.05-.02.06-.03.13-.05.2-.08.03-.01.06-.02.08-.04.08-.04.16-.07.21-.1,0,0,.01-.01.02-.02.01-.02.02-.04.04-.06s.04-.04.06-.05l.83-.45s0,.03,0,.05c0,.04-.02.08-.04.11-.04.04-.08.08-.1.09-.04.04-.08.07-.12.1-.04.03-.08.07-.12.1,0,0,0,0,0,0-.08.06-.17.12-.25.18-.08.06-.17.12-.24.17,0,0,0,0,0,0-.07.05-.22.15-.39.27-.23.15-.5.33-.63.48-.04.04-.06.07-.07.09,0,.01,0,.03,0,.04,0,.02,0,.04,0,.06,0,0,.01,0,.03,0,.05.04.14.06.18.1.03.17-.42.42-.41.54-.03.07,0,.13.18.14.21,0,.45-.07.67-.17,0,0,0,0,0,0,.05-.03.11-.06.16-.09.04-.02.08-.05.12-.08.04-.03.07-.05.1-.08,0,0-.01-.02-.02-.06,0-.03-.02-.07-.03-.12-.01-.07-.02-.13-.02-.18,0-.02,0-.03,0-.04.01-.03.06-.08.11-.11.04-.02.08-.05.12-.06.06-.02.11-.03.13-.02l-.15.51s.01,0,.02,0c0,0,.02,0,.02,0h0s.04,0,.05,0c0,0,.01,0,.02,0,.06-.02.1-.04.11.18,0,.12.05.26-.1.26,0,0-.01,0-.02,0,0,0-.01,0-.02,0-.02.14-.06.27-.11.38,0,0,0,.01,0,.02-.06.12-.13.23-.25.33-.06.05-.09.05-.15.07-.04.02-.09.04-.13.06-.27.07-.59.1-.81.15,0,0,0,0,0,.01,0,0,0,0,0,0,0,0,0,0,0,0,.02.38.57.55.51.99h-.29s0,0,0,.01h0c.02.18.13.27.15.47.03.28-.13.67-.07.87.05.14.28.15.4.18.08.02.14,0,.17.02-.05.08-.26.08-.34.09-.08.01-.16.02-.24.02,0,0,0,0,0,0-.04,0-.07,0-.11,0-.04,0-.07,0-.11,0,0,0-.02,0-.02,0v.05c-.1.02-.15.06-.12.18.25.14.44.25.7.36.02,0,.05,0,.07.01.03.03.05.05.04.08,0,0,0,0,0,.01,0,.01-.02.03-.04.06-.04.05-.09.13-.15.21-.14.18-.31.38-.34.39,0,0,0,0-.01,0-.13.04-.56.5-.53.73.07.03.14.05.2.05.4,0,.74-.5.92-.53.02,0,.04,0,.06,0,.09,0,.1.08.08.15-.01.07-.05.14-.04.14.01,0,.06.02.14.03.2.08.46.03.66,0,0,.02,0,.05,0,.07-.07.14-.25.32-.32.44-.09.1-.1.16.25.14-.02.33-.07.63-.17.91-.11.27-.28.52-.55.72,0,0,0,.01,0,.02,0,0,0,0,0,0,0,0,0,0,0,.01,0,.03.03.05.05.08.2.27.45.46.51.81,0,.2-.05.39-.12.59-.05.09-.11.18-.14.27-.03.08-.09.48-.09.57,0,.04,0,.06,0,.08,0,0,0,0,0,0,.03.06.1-.01.2.05-.15.16-.35.3-.4.51,0,.01,0,.03-.01.04,0,.04,0,.08,0,.12h.02s.15-.06.15-.06l.27-.09.22-.07s0,0,0,0c.03.05-.02.12-.1.2-.03.01-.05.03-.06.03-.03.03-.07.08-.12.14-.04.04-.08.08-.1.1,0,0,.02,0,.03,0-.02.04-.04.07-.04.09.09.14.21-.03.22-.04l.07-.07h0s.01,0,.02,0c.02,0,.04,0,.05,0,0,0,0-.01,0-.02,0,0,0,0,0-.01.11-.05.22-.11.33-.17.01,0,.03,0,.04,0,.14-.02.3-.02.36-.02l.08-.04s.04.01.07.02c0,0,.02,0,.03,0,.23.1.29.23.32.37,0,.04.02.09.02.14h0s0,.04.01.06c0,0,0,.01,0,.02.01.07.03.13.06.2l.02.02.05.05h.07s0-.04.02-.06c.02-.04.05-.09.09-.13.02-.02.03-.04.05-.05.02-.02.05-.04.07-.05l.87-.55c-.03.17-.06.35-.09.52-.03.17-.06.35-.08.52-.02.09-.03.19-.04.28s-.01.19-.01.29c0,.03,0,.06,0,.09,0,.03,0,.06,0,.09,0,.04,0,.07,0,.11.08.05.35.24.54.37.05.05.1.09.13.12,0,0,0,0,.01,0h0s0,0,0,0c0,0,0,0,.02.01.02.01.03.02.03.03.02-.02.04-.04.05-.06.03-.04.05-.08.06-.12,0-.02,0-.04.01-.06,0-.02.01-.04.01-.06,0-.02,0-.04,0-.06,0-.02,0-.04,0-.06,0-.02,0-.04,0-.06,0-.08-.02-.17-.02-.26,0,0,0-.02.01-.02s0-.01.01-.02l.65-.68s0,0,0,0c0,0,0,0,0,0,0,0,0,0,0,.01,0,0,0,0,0,.01,0,.04,0,.07,0,.11,0,.07,0,.15-.02.23s-.03.15-.04.23c-.08.35-.22.71-.28,1.03-.01.07-.02.14-.03.21,0,.01,0,.02,0,.04,0,.04,0,.07,0,.1,0,.06.03.11.05.16,0,.04.02.08.02.11,0,.03,0,.06,0,.09.01,0,.02,0,.03,0,.11-.02.13.05.13.15,0,.03,0,.05,0,.08,0,.05-.02.12-.04.2-.02.01-.03,0-.03.01,0,.02,0,.05,0,.07s0,.05,0,.07c0,0,0,0,0,0,0,.03,0,.06,0,.09.01.19.1.08.15.12,0,0,.01-.01.02-.02.02,0,.04,0,.06,0,.01-.02.05-.06.07-.07.03-.02.05-.03.08-.04.14-.03.29,0,.43,0,0,0,0-.02,0-.03,0,0,0,0,0,0,0-.04,0-.08,0-.12,0-.08.01-.17.01-.26,0-.04,0-.08-.01-.12,0,0,0-.02,0-.02,0,0,0,0,0,0,0,0,0-.01,0-.02h0c-.03-.1-.19-.09-.21-.17,0-.02,0-.03,0-.05,0-.05,0-.11,0-.17,0-.05,0-.09.01-.14,0-.05,0-.09-.02-.13-.03-.1-.2-.1-.21-.16,0-.04,0-.11.03-.18.06-.18.16-.38.24-.57.05-.12.1-.24.14-.34.05.02.1.05.14.09.16.15.23.45.25.63,0,.04.03.07.07.07v-.07s.05-.07.07-.11c.05-.09.1-.19.15-.3.07-.15.14-.3.22-.41.04-.06.13-.1.2-.16.04-.03.07-.08.08-.13,0-.02.01-.05.01-.08l-.8-.04c-.04-.25-.07-.48-.06-.7s.04-.44.13-.69l-1.1.76c-.07.05-.15.03-.21.04-.06.01-.14-.03-.2.01-.11.07-.35.62-.56.72-.03,0-.04-.01-.04-.03,0-.02,0-.05,0-.07.01-.07.41-.93.63-1.38,0-.02.02-.03.02-.04.06-.11.1-.2.12-.22.03-.04.09-.1.11-.07,0,.02,0,.04,0,.06,0,.07-.01.14-.03.21-.02.07-.04.14-.04.2,0,.06.07.1.07.11.14-.28.29-.56.45-.83.02-.03.05-.06.07-.09.07-.08.16-.16.14-.28,0-.02,0-.04-.01-.06,0-.01,0-.02,0-.03-.03-.09-.17-.15-.2-.25.07-.19.29-.47.31-.74,0-.04,0-.08,0-.11,0-.03-.01-.07-.03-.1-.09.01-.19.03-.28.04-.27.04-.54.1-.78.25-.05.1-.15.22-.28.35-.03.02-.06.04-.09.07-.02.02-.07.08-.14.16-.28.27-.56.54-.55.77,0,.08.07.18.07.27-.27.07-.49-.18-.78-.18,0,0,0-.02,0-.02,0-.02.06-.13.13-.25.31-.4,1.06-1.08,1.41-1.34.09-.05.19-.06.27-.13,0,0,.02-.01.02-.02.09-.1.11-.32.22-.46l.05-.15c-.03-.08-.1-.08-.17-.06-.04,0-.08.02-.12.03-.04,0-.08,0-.12-.02.03-.03.05-.06.08-.09.22-.22.5-.43.6-.71.03-.08.05-.16.04-.26-.25.07-.46.2-.67.34-.18.14-.35.28-.46.34-.04.09-.1.21-.18.12-.02-.02-.03-.04-.03-.06,0-.05.07-.09.14-.12.1-.26.33-.46.44-.72.1-.23.21-.51.22-.7,0-.03,0-.05,0-.08-.06-.11-.2-.15-.34-.15-.1,0-.21.03-.28.08,0,0-.02.02-.04.03-.12.12-.48.51-.55.59-.06.07-.11.14-.17.21-.03.03-.05.07-.08.1h0c-.08.11-.15.21-.23.31-.03.04-.08.27-.19.14,0,0,0,0,0,0,0,0,0,0,0,0h0s-.01-.02-.01-.03h0s0-.04,0-.07c.03-.18.29-.48.57-.76.22-.22.45-.42.56-.53.02-.02.05-.05.06-.06.08-.1.45-.62.44-.69,0-.01,0-.02-.01-.03-.01-.03-.03-.05-.06-.06-.01,0-.02,0-.04,0-.03,0-.07.01-.11.03-.02,0-.03.02-.05.02-.03.01-.05.03-.08.04-.1.06-.2.13-.28.19-.02,0-.03.02-.04.03-.03.02-.06.04-.08.04,0,0-.02,0-.02,0,0,0-.02,0-.02,0,0,0,0-.01,0-.02.12-.27.08-.64.15-.88.07-.22.67-.69.79-.96.03-.06.05-.1.06-.15.02-.04.03-.08.04-.11,0-.03,0-.06-.03-.08-.09-.09-.33.07-.59.28-.28.21-.56.46-.65.54-.03.03-.06.06-.09.09-.05.03-.08.05-.1.05,0,0-.01,0-.02,0l.09-.12s.05,0,.05-.01c0,0,.01-.05.02-.09l.13-.18c.17-.17.39-.33.42-.58l.09-.12h0l-.55.44c-.2.08-.04-.3-.18-.41-.01-.01-.03-.02-.04-.02-.11-.04-.23.03-.33.06h0s0-.02,0-.03c0-.03,0-.06.03-.1.11-.14.32-.21.4-.33.08-.12.07-.29.13-.43.09-.13.18-.27.24-.39.01-.03.02-.05.03-.07.02-.05.04-.11.04-.17,0-.02,0-.04,0-.06-.46-.05-1.07,1.01-1.35,1.02h0c-.15,0-.42-.26-.19-.47h0s0,0,0,0c-.14.04-.28.08-.28.08.08-.36.12-.53.12-.53.44-.74.76-.98,1.22-1.67.05-.08.18-.23.34-.42.03-.1.06-.19.11-.28.03-.05.08-.11.14-.18.2-.24.65-.6.94-.91.12-.13.19-.25.19-.34,0-.02,0-.04,0-.06-.04-.15-.2-.22-.36-.17-.07.02-.38.23-.6.38-.09.06-.16.11-.2.14-.02.02-.07.05-.13.1,0,0,0,0,0,0-.2.19-.47.45-.48.47l-.02-.03s0-.01,0-.03c-.02.01-.03.02-.03.03,0,0,0,0,0,.02-.02.02-.04.03-.06.04l-1.28,1.17c-.07.06-.13.1-.17.13-.02,0-.04.01-.06,0-.04,0-.07-.02-.1-.04-.05-.04-.07-.1-.08-.17,0-.01,0-.03,0-.04,0-.04.02-.08.05-.11.11-.03.37-.09.49-.15.42-.21.71-.63,1.1-.84.01,0,.03-.02.04-.02,0-.05.01-.09.01-.13s0-.08,0-.12c0-.01,0-.03,0-.04,0-.05-.02-.1-.04-.14-.01-.05-.02-.09-.04-.14-.01,0-.02,0-.03,0-.02-.04-.03-.07-.02-.1,0,0,0-.02,0-.03.02,0,.04,0,.05-.01,0,0,.14-.13.15-.15,0,0,.01-.02.02-.03.03-.02.05-.04.06-.05v.02s.09-.06.12-.04c.01,0,.01.05.01.07,0,.03,0,.06,0,.08,0,.04,0,.08,0,.13,0,.02,0,.04,0,.05,0,.01-.02.02-.02.03-.01.01-.02.02-.03.04,0,0,0,0,0,0h.07s.04-.04.06-.06c0,0,0-.01,0-.01.06-.08.29-.24.42-.36.01-.02.02-.03.02-.05,0-.01,0-.03,0-.04,0-.02-.02-.04-.03-.06-.04-.05-.09-.1-.1-.15,0,0,0-.02,0-.03,0-.03.04-.06.08-.1.02-.03.06-.06.1-.1.04-.05.08-.11.09-.18,0-.05.01-.1.01-.15.01-.08.02-.15.02-.23,0-.07,0-.14-.01-.19-.02-.09-.11-.18-.12-.29.03-.1.13-.19.12-.29,0,0,0,0,0,0,0-.01,0-.03.01-.04s0-.03,0-.04c-.01-.07-.12-.12-.17-.2-.01-.02-.02-.04-.03-.06,0-.01,0-.03,0-.04,0-.06.02-.11.06-.16,0,0,0-.01,0-.02l-.08-.06h0l-.74.71-.95.73s-.04-.02-.04-.04c.12-.17.25-.48.39-.78.21-.37.43-.75.46-.78.04-.03.08-.05.13-.05.01,0,.03,0,.04,0,.1.03.23.09.29.04,0,0,0,0,0,0h0s0,0,0,0c.03-.03.27-.73.28-.78,0-.01,0-.03,0-.05,0-.02,0-.04,0-.07,0,0,0,0,0-.01,0-.02,0-.04,0-.06,0-.04,0-.09,0-.14,0-.08-.02-.17-.03-.26-.01-.06-.02-.12-.03-.19,0-.03-.01-.06-.02-.09-.02-.15-.05-.28-.07-.35-.02-.06-.05-.14-.08-.22-.02-.05-.05-.11-.07-.16-.05-.05-.09-.09-.13-.15-.07-.12-.14-.36-.18-.6-.04-.15-.07-.29-.07-.41,0-.1.03-.19.08-.27.16-.35.42-.06.55-.04.02-.18.04-.37.08-.55.03-.2.07-.4.14-.59.02-.06.03-.12.05-.18,0,0,0,0,0,0,0,0,.02,0,.02,0,.02-.05.05-.1.07-.14.08-.14.22-.23.3-.32.09-.12.02-.33.32-.27.06.18-.21.19-.22.25-.05.23.05.19.22.18,0,0,.1.02.15-.05,0,0,0-.01.01-.02,0,0,0,0,0,0,0-.01,0-.02,0-.04.07-.13.09-.22.09-.32.02-.07.04-.14.05-.2,0-.02,0-.04,0-.05,0-.07-.01-.14-.01-.22,0-.03,0-.05.01-.08,0-.05,0-.1,0-.15,0-.02,0-.04,0-.06,0,0,0-.02,0-.02,0-.07-.01-.13-.02-.2,0-.04-.01-.08-.02-.12-.04-.08-.07-.17-.09-.26-.02-.14-.02-.33,0-.53,0-.03,0-.05,0-.08,0-.14,0-.29.03-.46,0-.03.01-.06.02-.09.01-.06.03-.12.04-.18,0-.03.01-.06.02-.09,0,0,0,0,0,0s0,0,0,0c0-.02,0-.04.02-.07,0,0,0-.02,0-.03.01-.04.03-.09.04-.15.03-.09.07-.2.12-.29,0-.02.02-.03.03-.05.06-.09.13-.15.2-.1,0,.02,0,.04-.01.05h0s-.01.1-.03.17h0c-.02.12-.03.26-.03.41,0,.05,0,.1,0,.15,0,.05,0,.1,0,.16.04.27.11.52.1.75,0,.02,0,.03,0,.05.01.06.02.12.04.17.06.23.13.44.22.6.02.03.04.07.07.09,0,0,0,0,0,0h0c.12.04.24.06.36.06-.47.37-.38.61.14.25.06-.04.06-.16.13-.18.1-.02.24.02.35,0,.12-.01.27-.09.36-.08.08,0-.02.19.15.15.05-.01.02-.25.18-.15,0,0-.02.09.05.14.17.13.21.1.23.03,0-.03,0-.05,0-.07,0-.02,0-.04.01-.06.01-.03.04-.06.06-.08.02-.02.04-.03.06-.04,0-.02.02-.03.02-.05,0-.01,0-.02,0-.04,0-.02,0-.03,0-.05,0-.02,0-.04,0-.05,0-.02,0-.03,0-.05,0-.03.03-.05.06-.06.02,0,.04,0,.07,0,0,0,0,0,0,0,.02,0,.03-.01.05,0,.05.02.07.05.09.09,0,0,0,0,0,0,0,0,0,0,0,0,0,0,0,.01,0,.02,0,.01,0,.03,0,.05,0,.14-.08.31-.06.44.07.47.94.69,1.28.99.18.16.03.2.03.22h-.02s.03.04.04.07l-.08-.03-.3-.11c-.06-.04-.12-.09-.18-.12l-.03.18c-.05,0-.11,0-.16,0v.07s-.01,0-.02,0c-.05-.1-.16-.14-.25-.17,0,0,0,0,0,0,0,0-.02-.01-.02-.02-.07-.06-.14-.13-.22-.19-.08-.07-.16-.13-.24-.18,0,0-.02-.01-.02-.02-.26-.23-.53-.42-.97-.34-.13.02-.2.05-.26.09-.06.09-.09.19-.18.3,0,0-.02.02-.02.03-.07.07-.26.19-.44.3,0,0,0,0,0,0,0,0,0,0,0,0-.09.09-.18.17-.26.23-.03.02-.05.04-.08.05,0,.01,0,.03,0,.05,0,.04-.02.09-.03.14-.03.14-.08.29-.21.37,0,0,0,0,0,0,0,0-.01.01-.02.02,0,0,0,0-.01,0h0s0,0,0,0c-.07-.35-.38-.28-.66-.36,0,.03,0,.08.02.13.01.08.03.17.05.25.02.07.04.12.07.15,0,0,0,.01.01.02,0,0,.01,0,.02.01.01,0,.03.01.06.02.03,0,.07.02.11.03s.08.02.11.03c.07.02.13.03.13.02,0,0,.04-.12.06-.18,0-.01,0-.02,0-.03,0,0,0-.01,0-.01.01,0,.03,0,.04,0,.03,0,.06-.01.08-.02.21-.04.38-.03.61.03,0,0,0,0,0,0,0,.02,0,.03-.01.05-.15.62-.04,1.11.35,1.62.12.16.33.29.43.45.05.08.08.19.12.29.03.08.07.15.13.18.24.12.93-.03,1.4-.09.07,0,.14-.02.2-.02,0,0,0,0,0,0,0,0,.01,0,.02,0,0,0,0,0,0,0,.01,0,.03,0,.04,0,.01,0,.02,0,.04,0,.02-.02.03-.04.05-.05.04-.04.09-.07.14-.09.14-.07.31-.11.46-.1.08,0,.16.02.23.04.06.02.06.12.11.14.02,0,.05.01.09,0,.02-.02.05-.02.09-.03.06-.06.11-.14.2-.17,0-.02,0-.05,0-.08.77-.19,2.02-.24,1.71.84,0,.05-.01.11-.02.17-.45.08-1.82.15-2.12.39-.07.06-.13.12-.19.19-.03.04-.05.07-.08.11-.02.04-.05.08-.07.12h0c-.02.14-.03.28-.08.43-.03.08-.09.16-.15.24h0s0,0,0,0c-.01.07-.03.13-.04.2-.02.13-.04.26-.06.38,0,.03,0,.07,0,.12,0,.1,0,.22,0,.29,0,.04,0,.06,0,.07,0,0-.04,0-.1.01-.06,0-.13,0-.21.01-.04,0-.08,0-.12,0-.03,0-.07,0-.1,0-.03,0-.05,0-.07,0-.03,0-.05,0-.07.01-.01,0-.02,0-.03,0,0,0,0,0,0,0,0,0-.01,0-.02.02-.07.1.11.38-.04.57h0s0,0,0,0c0,0,0,0,0,0-.12.17-.39,0-.52,0-.03,0-.06.01-.09.03h0c-.03.05-.06.11-.1.15-.09.08-.18.15-.25.22,0,0,0,0,0,0-.02.02-.03.05-.05.07,0,.01-.02.03-.03.04-.08.13-.15.27-.19.38-.02.06-.04.12-.05.16,0,.02,0,.05,0,.06,0,.06,0,.12.02.17.18.15.23.26.36.3.09.02.18.02.29.02,0,0,.01,0,.02,0,.1,0,.28-.03.48-.05.16-.02.3-.04.41-.04.02,0,.05,0,.08,0,.33-.02.64-.02.75.05.03.02.05.08.07.12.03.03.06.06.09.09.15.08.27.02.28.37,0,.12-.02.22-.07.32-.04,0-.07,0-.11.01-.04.11-.1.22-.15.31-.05.08-.09.15-.12.22-.03.06-.05.11-.05.15,0,.11.15.19.15.29,0,.02,0,.05-.02.07-.03.04-.07.09-.1.14-.01.03-.02.05-.03.08,0,.02,0,.04,0,.06.01.05.5.89.54.93.11.11.39.11.4.19,0,.01,0,.03,0,.05,0,.02,0,.05-.02.07,0,.02-.02.05-.03.08-.02.06-.05.12-.08.19,0,0,0,.01,0,.02-.03.07-.07.15-.11.23-.05.09-.09.18-.14.27-.01.02-.02.04-.03.06-.03.05-.05.1-.07.15-.02.06-.04.1-.04.13,0,.01,0,.02,0,.03.19,0,.72-.3.8-.03,0,.01,0,.03,0,.05,0,.05-.02.11-.04.19,0,.02-.01.04-.02.05-.07.22-.21.52-.3.75-.06.15-.1.28-.09.34,0,.01,0,.02.01.03.28,0,1.03-.78,1.24-.51,0,0,0,.02,0,.04,0,.03-.01.08-.04.13-.04.11-.12.25-.22.41-.02.04-.05.08-.07.12-.05.08-.1.16-.15.24-.07.12-.14.24-.2.34-.08.13-.13.24-.14.29-.03.22.58.07.73.11.08-.73.33-1.6.74-2.21.06-.09.7-.83.75-.86.11-.07.33-.05.34-.11,0-.02,0-.04,0-.08,0-.01,0-.03,0-.05,0-.22-.05-.64-.1-.8,0-.02-.01-.04-.02-.05-.08-.14-.39-.11-.41-.18,0-.02,0-.04,0-.06,0-.27.32-.46.36-.69,0-.03,0-.06,0-.09,0-.05,0-.1-.02-.15-.03-.16-.08-.33-.07-.49,0-.03,0-.07.02-.1-.15.05-.28.14-.42.21-.1.05-.21.09-.33.1-.04,0-.08,0-.13-.01.12-.13.15-.21.15-.27,0-.09-.13-.1-.14-.15-.06-.2-.1-.41-.11-.63,0-.07,0-.14,0-.21,0-.48.12-.96.38-1.36.13-.21.88-.82.9-.93,0-.02,0-.04,0-.06-.01-.04-.04-.06-.07-.09-.02-.01-.04-.02-.05-.03-.04-.02-.08-.04-.11-.06-.03-.02-.05-.03-.06-.05,0-.01,0-.02,0-.04.01-.2.33-.6.37-.83.02-.13.03-.45.03-.76,0-.03,0-.06,0-.09,0-.06,0-.11,0-.16,0-.13,0-.24-.02-.29,0-.04-.44-.01-.64-.46-.49-1.12-.25-2.25-.9-3.3-.07-.12-.11-.22-.17-.34-.64-.55-1.26-1.36-1.95-1.84h-.51c-.01.33-.13.08-.22,0-.03-.02-.05-.05-.07-.07-.11-.1-.21-.22-.29-.29-.06-.05-.1-.1-.15-.15-.02-.02-.19-.02-.29-.11-.02-.02-.04-.04-.06-.06-.05-.05-.11-.12-.18-.21-.05-.06-.11-.14-.18-.21-.06-.08-.13-.16-.2-.25-.06-.07-.11-.15-.17-.22-.07-.09-.13-.18-.2-.27-.1-.13-.19-.27-.27-.39-.03-.04-.05-.08-.08-.12-.1-.15-.17-.28-.2-.37-.01-.04-.02-.07-.02-.09,0-.05.15-.04.15-.08,0-.04,0-.08,0-.13,0-.17-.05-.37-.11-.58-.01-.05-.03-.11-.05-.16-.03-.11-.07-.22-.1-.33s-.07-.22-.11-.33c-.07-.21-.13-.41-.17-.59-.01-.06-.03-.12-.04-.18-.02-.09-.02-.17-.02-.25v-2.01l.36,2.09.15.1.37-3.86c.17.09.1.29.36.22l.29-2.33c.19.06.1.49.32.21.24-.3.44-1.44.64-1.65.06-.06.96-.53,1.07-.57.22-.07.51-.1.73-.03,0,.12-.05.22-.13.31-.13.15-.32.27-.45.38-.05.04-.08.08-.1.13-.02.04-.02.09-.02.13,0,.06.02.12.03.18s0,.11-.06.15c-.21.14-.73-.19-.81.07,0,.03,0,.05,0,.07.02.16.24.25.28.38.03.1.04.18.03.25,0,.04,0,.07-.02.1-.03.09-.09.16-.16.23-.09.09-.19.18-.24.32-.01.04-.03.08-.04.13-.02.07-.04.16-.05.24,0,.03,0,.06-.01.09,0,.06,0,.12,0,.17,0,.13.04.25.11.32l.55.33s-.04.06-.07.1c-.18.25-.63.8-.73,1.09-.02.05-.03.09-.02.12,0,.02,0,.03.02.04.37.07.64.18,1.02.07,0,.08,0,.16,0,.24.02,1.2.53,2.43,1.03,3.5.47,1,.99,1.6,1.16,2.74.18-.04.15.09.21.19.11.2.43.77.45.94.02.13-.19.19-.25.17-.23-.04.05-.55-.34-.43.05.83.01,1.35.55,2.11.26.37,1.04.84,1.06,1.32,0,.03,0,.06,0,.1-.01.06-.03.11-.06.15-.02.03-.03.05-.05.08-.02.04-.04.08-.04.12,0,.07.03.16.14.31.08.1.53.4.62.4.12,0,.21-.15.32-.18.53-.16,1.06.1,1.46.44,0,.02,0,.04,0,.05,0,.01,0,.02-.01.03-.02.02-.05.03-.08.04-.02,0-.04.02-.05.03-.01.02-.02.04-.01.07.02.14.3.35.31.48,0,.02,0,.04-.02.06,0,0-.01.01-.02.02-.01.01-.03.02-.05.03-.04.02-.1.03-.17.03-.02,0-.05,0-.08,0-.02,0-.05,0-.07,0-.26,0-.65-.17-.87-.01,0,0,0,0,0,.01-.01.02-.02.06-.04.11-.04.14-.09.37-.12.55-.01.09-.02.17-.03.22,0,.03,0,.05,0,.05.28.1.65-.11.66.25,0,.1-.01.21-.03.32-.02.12-.05.24-.09.36-.04.13-.08.25-.13.39-.1.26-.21.53-.3.79-.12.33-.22.64-.25.9,0,.05,0,.1,0,.15,0,.05,0,.1.01.15.06.33.28.09.4.12.17.04.11.65.15.87.09.5.66,1.42.62,1.84,0,.03,0,.05-.02.08-.03.08-.58.45-.71.59,0,0-.02.02-.04.04,0,0-.02.02-.03.03-.03.04-.07.08-.11.13-.03.03-.06.07-.09.11-.01.02-.03.04-.04.06-.04.06-.08.12-.11.17-.01.02-.02.04-.03.05-.02.03-.03.06-.04.09,0,.01,0,.02,0,.04,0,.06.04.08.15.04.11-.04.58-.41.64-.35.05.16.07.31.08.45,0,.19-.01.37-.06.55-.06.23-.16.46-.28.68-.06.11-.12.22-.19.33-.03.05-.07.11-.1.16-.07.11-.14.22-.2.33-.13.22-.25.44-.34.68-.05.13-.11.31-.16.52-.02.08-.04.17-.06.25s-.04.18-.06.27c-.02.09-.03.18-.05.27-.02.14-.04.27-.04.39,0,.08,0,.16,0,.24,0,.14.02.26.05.35.18.52.75,1.02,1.22,1.26.57.29.34.08.67.06.11,0,.57.22.81.21.18,0,.21-.24.39-.21,0,.07,0,.15,0,.22.06.01.13.01.19,0,.25-.02.5-.15.73-.16.11,0,.16.07.18.08.03,0,.05,0,.07,0,.15.04.34.02.29.22.02,0,.05,0,.07,0,.17.01.34,0,.51,0,0-.02,0-.12,0-.15,0-.01-.05-.05-.07-.07-.02-.02-.05-.05-.07-.07.02-.02.04-.03.06-.04.03,0,.06,0,.1,0,.18.04.42.22.49.3.01.01.04.05.08.1.02.1.08.15.14.22h0c.05.06.09.11.13.15.05.07.09.12.09.13.07.12.06.34,0,.57-.07.3-.2.62-.31.77,0,.01-.02.02-.03.04,0,0,0,0,0,0-.02.02-.04.04-.05.06,0,0,0,0,0,0-.05.06-.1.09-.15.11h0s0,0,0,0c0,0-.01,0-.02,0h0s-.05.01-.07.02c-.05,0-.08-.03-.11-.08-.12-.09-.25-.24-.45-.23-.17,0-.23.13-.36.15-.34.06-.72-.02-1.02,0-.08,0-.15.03-.22.06-.1.05-.22.1-.34.13-.21.06-.12.08-.29.22l.07-.29s-.02-.01-.02-.02c0,0,0,0,0,0-.02-.03-.04-.07-.08-.1h0s-.06-.07-.13-.06c-.06,0-.11.03-.14.07h0s-.07.07-.09.11c0,0,0,0,0,0-.05.06-.11.11-.24.11h0c-.11-.05-.22-.09-.33-.13h0c-.12-.04-.24-.08-.36-.13-.06-.01-.1,0-.12.01-.01.01-.02.03-.02.04,0,.02,0,.04,0,.06,0,.06,0,.12.01.19,0,.04,0,.09,0,.12.1.06.21.18.31.25.02.02.04.03.06.04.08.04.44.15.53.13.25-.04.65-.47.89-.43.05,0,.09.16.11.24,0,.03,0,.05,0,.06h.15l.04-.07.11.07s.05,0,.07,0c.03,0,.06.02.09.03.13.04.24.11.42.12,0,0,.01,0,.02,0,.1,0,.18,0,.25-.01.19-.03.29-.11.39-.18.08-.05.15-.1.26-.11.06,0,.67.08.72.09.1.03.09.19.17.21.12.03.69.12.86.14.05,0,.19.01.35.01.24,0,.55,0,.71,0,.07,0,.11,0,.12-.01,0,0,.02-.04.04-.08.02-.06.04-.13.05-.17,0-.02,0-.03,0-.03-.46.05-.8-.49-1.24-.37.17-.39-.11-.82-.08-1.2,0,0,0,0,0,0,.02-.17.16-.29.16-.47.02-.03.04-.05.06-.07l.07-.03c.06-.02.11-.05.16-.08l.07-.03s0,0,0,0c.08-.04.22-.13.29-.15-.03,0-.05,0-.07,0,0,0,0,0,0,0,0,0,0,0,0,0,0,0,0,0,0,0,.15-.05.86-.05,1.09-.07l.22-.07c.1,0,.2,0,.29,0,.14-.14.41-.06.61-.07.01,0,.03,0,.04,0,0-.02.24-.28.26-.28.21-.05,1.35.5,1.71.32.05-.04.07-.12.07-.22,0-.06,0-.14,0-.2,0-.1,0-.21.04-.28.01-.02.32-.3.35-.31.1-.04.33-.04.35-.05.03-.03.08-.72.08-.83.01-.92-.42-2.55-.89-3.34-.1-.17-.53-.69-.56-.76-.02-.06-.02-.11-.02-.16.01-.13.07-.24.07-.34,0-.02,0-.04,0-.05-.01-.04-.05-.09-.11-.14-.02-.02-.04-.05-.07-.07-.02-.03-.04-.05-.06-.08s-.04-.06-.05-.09c-.01-.03-.02-.06-.02-.1,0-.08.02-.16.09-.25.06-.09.24.04.24-.2,0-.05-.01-.13-.03-.23-.08-.34-.65-.92-.65-1.18,0-.25.47-.8.56-1.05.11-.31.1-.77.11-1.1.11-.02.14,0,.15.03,0,.03,0,.06,0,.1,0,.01,0,.03,0,.04.03.08.4,1.27.58,1.06-.02-.18-.03-.37-.02-.56.01-.56.11-1.14.1-1.67,0-.03,0-.06,0-.1-.01-.11-.04-.23-.06-.36-.03-.17-.07-.34-.08-.46,0-.04,0-.07,0-.09.01-.11.12-.17.14-.29,0-.02,0-.04,0-.06-.01-.08-.48-.73-.57-.82-.21-.22-.6-.41-.83-.61-.07-.06-.02-.18-.1-.22-.1-.05-.34-.06-.46-.07,0-.03-.01-.05-.01-.07,0-.17.19-.3.22-.42,0-.01,0-.03,0-.04,0-.03,0-.06-.02-.08-.01-.04-.02-.08-.03-.12,0-.03,0-.05.01-.07.25-.52,1.26-.13,1.62-.15.19-.01.26-.35.54-.14,0-.02,0-.04,0-.06,0-.01,0-.03,0-.04,0-.03-.02-.05-.03-.07,0,0-.02-.02-.02-.03-.11-.1-.32-.13-.32-.29,0-.05.03-.12.09-.2.18-.25.47.06.64-.05.11-.07.26-1.05.3-1.09.04-.04.3.13.42.06.07-.04.38-.64.44-.76.28-.57,1.2-2.6,1.25-3.12,0-.01,0-.04,0-.07,0-.21-.05-.75-.08-.77-.2-.19-.62.46-.73.36-.02-.08-.03-.16-.05-.24-.01-.06-.02-.12-.03-.18-.03-.18-.06-.35-.06-.53,0-.19.01-.38.07-.58.04-.04.55.66.77.37.13-1.21.15-2.26.88-3.28.28-.39.62-.51.61-.73,0-.02,0-.03,0-.05,0-.02-.01-.04-.02-.06-.02-.04-.05-.08-.08-.13-.02-.02-.04-.05-.06-.07-.07-.08-.17-.17-.3-.28-.01-.01-.04-.03-.07-.05-.02-.01-.04-.02-.06-.04-.06-.04-.14-.09-.21-.14-.07-.04-.14-.09-.2-.14s-.13-.1-.19-.15c-.03-.02-.05-.05-.08-.07-.03-.03-.06-.07-.08-.1-.02-.03-.03-.06-.03-.08,0-.01,0-.02.01-.04.24-.07.97-.12,1.01-.41,0-.02,0-.04-.02-.07-.02-.04-.05-.08-.08-.12-.03-.04-.05-.09-.05-.14,0-.02,0-.04.01-.06.27-.05.65-.16.84-.36.07-.07.52-.79.53-.86,0-.03,0-.06,0-.08,0-.15-.13-.24-.14-.35,0-.02,0-.03,0-.05.06-.21.5-.06.49-.46,0-.21-.6-.68-.71-.86-.07-.11-.07-.32-.14-.37-.06-.04-.81-.13-.9-.11-.07.02-.18.38-.41.26-.03-.02-.49-.42-.5-.45-.02-.05-.02-.11-.02-.18,0-.2.1-.45.23-.54.82-.56,1.99,1.11,2.63,1.52.14.09.66.31.69.33.05.05.43,1.15.46,1.29.08.37,0,.85.35,1.18.13.12.38.16.4.39,0,.05,0,.12-.03.2-.04-.06-.08-.09-.13-.12-.02-.01-.05-.02-.07-.02-.02,0-.03,0-.05,0-.11,0-.22.09-.29.21.2.09.71.06.73.24,0,.04-.02.09-.08.16-.06.07-.63.55-.68.54-.09-.01-.13-.18-.27-.14,0,.05,0,.08,0,.12,0,.24.13.22.38.29.03.9.08,1.79.07,2.7,0,.08,0,.16-.01.23-.02.15-.04.31-.06.47,0,.08-.01.16-.01.24,0,.05,0,.1,0,.15.02.3.23.67.22.86,0,.31-.63,1.22-.87,1.43,0,.03,0,.05,0,.07,0,.04,0,.08-.02.11-.03.08-.08.12-.15.15-.11.05-.25.05-.37.09-.01,0-.03,0-.04.01-.17.07-.35.13-.51.22-.1.05-.2.1-.29.15-.03.02-.13.13-.29.22,0,.07-.03.16-.06.25-.02.04-.03.09-.06.13-.02.04-.04.09-.07.13-.08.12-.17.23-.27.28,0,0,0,0,0,0-.02,0-.03.01-.05.02-.04.12-.09.23-.16.33t0,0s-.06.07-.09.11l-.06-.06s0,0,0,0l-.02-.02s0,0,0,0l-.07-.07c-.25.18-.37.5-.64.63h0s-.02.01-.04.02h0s-.01,0-.02,0c-.25.61-.17.27-.47.58-.13.13-.21.59-.33.77-.19.3-.58.59-.79.96,0,.02-.02.04-.04.07-.02.03-.04.07-.06.12-.05.11-.11.25-.17.39-.02.05-.04.11-.06.16-.03.08-.05.14-.06.2,0,.04-.01.06,0,.08,0,.01,0,.02,0,.02.23.03.44-.1.63-.2.13-.07.77-.66.82-.6,0,0,0,.02,0,.03,0,.02,0,.03,0,.05,0,.05-.01.12,0,.16,0,.02,0,.04.01.05.05.05,1.18.25,1.41.43.04.03.06.08.06.14,0,.05,0,.11-.03.15-.04.07-1.24.81-1.34.82-.06,0-.11,0-.16-.02-.11-.05-.15-.15-.17-.28,0-.02,0-.05,0-.08,0-.07,0-.14,0-.21-.25.09-.71-.11-.9-.06-.13.03-.71.67-.89.79-.12.08-.37.06-.4.19,0,.03-.01.06-.01.09,0,.44.92.64,1.23.8.31.16.97.59,1.19.85.05.06.43.62.44.66,0,.02,0,.03,0,.04,0,.02,0,.04-.01.05,0,0-.01.01-.02.01-.04.01-.1,0-.16-.03-.03,0-.06-.02-.09-.02-.01,0-.03,0-.04,0,0,0,0,0,0,0,0,0-.02,0-.02,0-.01,0-.02.01-.03.02.11.43.34.82.42,1.26.03.17.1.75.09,1.05,0,.02,0,.03,0,.05,0,.05,0,.08-.01.11-.11.35-.6-.35-.86-.24v1.02s-.18.04-.29.11c-.16.12-.63.47-.7.62-.03.07-.05.17-.05.27,0,.2.03.44.03.65,0,.1,0,.2-.02.27-.02.1-.29.06-.3.38,0,.05.06.46.08.48.17.16.27-.24.39-.21.35.07,1.54,1.48,1.74,1.84.13.24.36.85.42,1.11.04.19.17,1.03.16,1.27,0,.02,0,.03,0,.04-.07.4-.36-.04-.44.04.06.2.08.41.09.62,0,.18,0,.36-.02.54-.02.18-.05.36-.08.53-.06.3-.27.77-.46,1.23-.07-.02.05.02-.18.49,0,0,0-.01-.01-.02-.03.07-.06.15-.08.21-.07.21-.12.38-.12.51,0,.02,0,.05,0,.07.02.17.18.3.14.48-.1.03-.18.02-.24-.02-.19-.1-.24-.38-.28-.41-.02-.01-.05-.02-.09-.02-.07,0-.15.01-.21,0-.09-.03-.1-.16-.14-.19-.05-.03-.1-.05-.14-.06-.03-.01-.07-.02-.09-.02-.03,0-.05-.02-.07-.03-.02-.01-.03-.04-.05-.07-.01-.03-.02-.07-.02-.13,0-.07,0-.16.02-.29-.02,0-.04-.02-.06-.02-.11-.01-.07.15-.13.17-.06.01-.14,0-.22-.02-.03,0-.05-.01-.08-.02-.05-.01-.1-.03-.14-.03-.04,0-.07,0-.09,0-.02.02-.04.04-.05.07-.01.03-.02.06-.03.1,0,.03-.02.07-.02.11-.04.14-.1.26-.34.18-.06-.02-.14-.05-.22-.1,0,0,0,0-.02,0,0,0-.01,0-.02-.02-.11-.07-.39-.26-.52-.35-.02-.01-.04-.03-.05-.03-.02-.01-.03-.02-.03-.02-.02.02-.03.05-.03.07,0,.05.02.09.02.12,0,.03-.02.05-.14.03,0,.01,0,.02,0,.04.03,0,.06,0,.09,0,.02.06.18.4.24.49.09-.03.14-.17.2-.24.04-.05.08-.07.15-.03.01,0,.02,0,.04,0,.09.03.11.21.15.31,0,0,0,.01.01.02,0,0,.09-.02.15.05.05.06.22.39.26.39.11,0,.28-.07.46-.14.18-.07.37-.13.51-.08h0c-.06.08-.16.13-.27.18-.11.05-.22.09-.31.15-.67.5.08.42-.12.83-.16.34-.55.26-.76.41-.14.1-.23.41-.45.57-.06.04-.43.24-.73.38-.06.03-.11.06-.16.08-.02.01-.05.02-.07.03-.06.03-.1.04-.11.05-.17,0-.54-.42-.7-.41-.05,0-.2.08-.38.17-.07.04-.15.08-.22.12-.08.04-.16.09-.23.13-.08.04-.15.08-.22.11-.02.01-.04.02-.06.03-.03.01-.06.03-.08.04-.04.02-.07.03-.1.04-.03,0-.05.01-.06,0,0,0-.01,0-.01,0-.02-.04-.02-.07-.02-.11,0-.04.01-.07.03-.1.02-.06.06-.12.06-.16,0-.01,0-.03,0-.05l-.13-.17c-.02.13-.09.24-.17.31,0,0,0,0,0,0,0,0,0,0,0,0,0,.02-.02.03-.03.04-.03.04-.07.05-.12.04,0,0,0,0,0,0-.08.02-.16-.02-.18-.15,0-.01-.02-.02-.03-.03-.02-.03-.05-.05-.07-.08-.02-.02-.03-.03-.05-.05h0s-.02.04-.03.06h0c-.02.07-.04.1-.07.1-.03.03-.07.04-.11,0,0,0-.04-.1-.08-.17-.07-.06-.14-.09-.22-.01-.02.1.08.3,0,.38-.02.07-.06.11-.15.06-.02-.01-.05-.04-.08-.06-.19-.09-.24-.38-.35-.46h0s-.04,0-.06,0c0,0,0,0-.01,0-.04,0-.07.04-.09.09-.02.05-.03.11-.03.17,0,.08-.01.15-.03.2,0,0,0,0,0,0,0,0-.02.01-.04.02-.03.02-.07.04-.09.07,0,0,0,.02,0,.02-.05.24.08.56-.19.75-.46-.4-1.32-.52-1.76-.78-.15-.09-.19-.26-.28-.3-.05-.02-.09-.01-.13.01-.03.02-.05.05-.07.08-.02.03-.04.07-.06.12-.06.13-.11.29-.17.4-.03.05-.07.1-.11.11,0-.05,0-.09,0-.14-.03-.16-.11-.29-.2-.41-.03-.04-.07-.08-.1-.12-.05-.07-.11-.13-.16-.2l-.04.29c-.06,0-.12,0-.18,0-.03,0-.05-.02-.08-.03-.18-.11-.31-.44-.4-.33,0,0,0,0,0,.02,0,.05.07.18.07.24-.01.17-.06.35-.08.53,0,.04,0,.07,0,.11,0,.07,0,.14.03.22.14.33.36.62.62.87.09.08.18.16.27.24.37.31.79.57,1.17.83.11-.03.13-.3.3-.29.01,0,.02,0,.03,0l.48.8s0-.06,0-.1c0-.1-.02-.25-.02-.38,0-.24.05-.44.29-.29.11.07.33.58.55,1.04.17.36.35.69.49.77.04.02.16.07.3.12.12.04.25.09.36.13.04.02.09.03.12.04.06.02.1.03.12.03.21.04.42-.01.62.03.23.05.41.36.71.28.02-.03.02-.09.01-.16,0-.04-.01-.09-.02-.15-.03-.16-.08-.34-.11-.48,0-.02-.01-.05-.01-.07-.01-.06-.02-.11-.02-.14,0,0,0-.02,0-.02.01-.02.12-.04.24-.08.16-.04.35-.1.41-.14.05.49.18.69.58.29.06.09-.35.71.03.65.08-.01.95-.73,1.23-1.01.04-.04.07-.07.08-.09.14-.19.42-.79.45-1.01,0-.06,0-.11,0-.16,0-.03,0-.06-.01-.09-.01-.06-.02-.11-.03-.16,0-.02,0-.05,0-.07,0-.02,0-.03,0-.05,0-.05.15-.04.15-.09.01-.1-.1-.24-.07-.35,0-.03.03-.06.06-.09.18-.14.64-.21.65-.42,0-.06-.03-.12-.11-.21-.06.04-.12.07-.17.09-.12.04-.23.01-.32-.01-.01,0-.03,0-.04-.01-.04-.01-.07-.02-.11-.03-.02,0-.05,0-.07,0,0,0-.02,0-.05.01-.02,0-.04.01-.06.02-.05.01-.1.03-.16.04-.02,0-.04,0-.05.01-.04,0-.07.01-.1.01,0,0,0,0,0,0-.08,0-.15-.01-.16-.07,0-.03,0-.06.02-.11.01-.02.02-.05.04-.08.13-.21,1.75-.49,2.08-.62.21-.08.69-.51.85-.25,0,.01.01.03.01.04s0,.03,0,.05c0,.02,0,.04-.01.06,0,.03-.01.06-.01.09,0,.06.03.12.15.12.58-.16,1.2-.23,1.79-.34.07-.01.13-.03.2-.04.4-.08.78-.19,1.14-.36,0,0,0,0,0,0,.21-.34.09.06.38-.22.1-.17-.09-.27.32-.13,0-.07,0-.13,0-.2,0-.41-.08-.82-.13-1.22,0-.06-.01-.12-.02-.18.85-.06,1.83-.27,2.62.07,0-.02,0-.05,0-.07,0-.04-.01-.07-.03-.1-.04-.08-.11-.15-.15-.22,0-.01-.01-.03-.02-.04,0-.01,0-.03,0-.04,0-.06.03-.14.03-.19,0-.02,0-.04-.01-.06-.06-.1-.45-.18-.47-.34-.04-.21.51-.37.49-.57,0-.01,0-.03-.01-.04-.18-.33-1.38-.23-1.74-.38-.08-.03-.12-.06-.13-.13,0-.02,0-.05,0-.07.17.02.34-.22.46-.21.13.01.45.26.63.31.78.25.99.19,1,.03,0-.05-.01-.1-.04-.15-.02-.06-.06-.12-.09-.17-.07-.12-.14-.22-.15-.29,0-.02,0-.03,0-.04.76-.46.83.67,1.49.8.09-.03.12-.14.13-.3,0-.04,0-.08,0-.12,0-.09-.01-.18-.02-.27-.03-.23-.07-.47-.07-.59,0-.02,0-.04,0-.05.03-.15.2-.29.29-.4.19-.12.36,0,.51,0,.05,0,.1,0,.15,0l.15.07s.37.06.44.07c0,0,.03.06.09.05.26,0,.67-.23,1-.13.02.04.02.07.02.1,0,.07-.05.11-.12.14-.06.03-.14.05-.2.08-.04.02-.07.04-.07.08-.04.17.61.46.65.67,0,.01,0,.03,0,.04,0,.03,0,.06-.02.09-.04.09-.12.2-.21.28-.05.04-.1.08-.15.1s-.11.04-.16.04c-.03,0-.07,0-.1-.02-.01.03-.02.06-.02.09,0,.2.22.31.24.46,0,.01,0,.03,0,.04-.01.22-.29.46,0,.57,0,0,0,0,0,0h0c.22,0,.37.05.5.05h0s0,0,.01,0h0s0,0,.01,0c.14,0,.28-.08.49-.31.33-.36.17-.59.24-1,.08-.51.55-.83.05-1.47-.09-.12-.2-.1-.21-.12-.46.12-.93-.13-1.37-.27-.1-.03-.24,0-.31-.02-.15-.05-1.33-.75-1.39-.84l-.51-1.86s.32.19.36.22c.14.11,1,.78,1.07.8.15.03.2-.07.2-.22,0-.06,0-.13-.02-.19-.02-.1-.05-.21-.07-.3-.02-.07-.04-.13-.05-.17,0-.01,0-.03-.01-.04-.14-.5-.38-.98-.53-1.48.12-.02.05.12.16.17.09.04.18.05.28.05,0,0,.01-.03.01-.07,0-.03,0-.06,0-.1,0-.02,0-.04,0-.06,0-.04,0-.09,0-.14,0-.07,0-.14,0-.2,0-.07,0-.14.02-.18.05-.15.27-.1.28-.12.02-.02.02-.04.02-.06,0-.03-.02-.07-.04-.11s-.06-.08-.09-.13c-.03-.04-.06-.07-.09-.11-.02-.03-.04-.05-.06-.08,0-.01-.02-.03-.03-.04-.03-.05-.05-.09-.05-.13.09.13.57.19.61.23.02.02.02.04.02.07,0,.04-.01.09-.01.11,0,0,0,.01,0,.02,0,0,.1-.02.15.05.11.18.03.25-.15.1,0,0,0,0,0,0,0,.24.02.51.11.73.04.09.22.18.2.26,0,.01,0,.02-.02.03,0,0-.01,0-.03.01-.02,0-.06.02-.1.03-.02,0-.04.01-.07.02-.12.04-.26.1-.33.18-.03.03-.04.06-.04.1,0,.03.02.06.05.1.04.05.94.3,1.16.48.09.08.88.95.88,1.02,0,.05-.01.09-.04.12-.01.01-.02.03-.04.04-.01.01-.03.02-.04.03-.08.05-.19.07-.3.1-.04,0-.08.02-.11.03-.07.02-.15.04-.21.06s-.11.06-.14.11c-.02.03-.03.06-.03.09,0,.05,0,.11.04.19-.32.07-.66-.59-.93-.42,0,0,0,0-.01.01-.02.03-.07.12-.1.19-.03.05-.05.1-.04.11.02.11.58.23.72.3.2.1.44.33.66.47.01,0,.02.01.03.02.43.26.82.61,1.35.63.05-.32-.22-.52-.29-.8-.58-.14-.21-.55.21,0,0,0,0,0,0,0,0,0,.02,0,.02,0h0s.02,0,.02,0c0,0,0,0,0,0,0,0,.02,0,.02,0l.07.07s.02,0,.02,0h0s.03,0,.05,0h0l.15.07s.03,0,.05,0c0,0,.02,0,.02,0h.29c.17-.17-.03-.21-.06-.35-.03-.12.07-.22.03-.38-.11-.42-.97-1.13-.98-1.57,0-.11.05-.26.06-.4.01-.22,0-.44,0-.66-.04-.05-.09-.28-.12-.45-.06-.01-.13-.05-.17-.07-.76-.35-1.77-1.31-2.08-2.1.32-.15.47-.17.69-.01-.06-.09-.14-.19-.21-.29-.03-.04-.06-.08-.08-.11-.03-.04-.05-.07-.07-.09,0,0-.01-.01-.02-.01-.17-.11-.77-.26-1.03-.39-.21-.11-.3-.19-.28-.36,0-.06.02-.13.05-.21.27.04.77.58,1.01.51.11-.07.16-.19.16-.32,0-.03,0-.06,0-.09-.01-.08-.04-.17-.07-.25-.03-.07-.06-.15-.1-.22,0,0,0,0,0,0-.03-.06-.06-.12-.09-.18,0,0,0-.01,0-.02-.03-.06-.07-.12-.1-.17-.09-.16-.17-.28-.17-.33,0,0,0,0,0-.01.01-.02.13.02.13-.12,0-.02,0-.04,0-.07-.01-.11-.22-.48-.29-.55l.07-.07c.05.03.41.06.51.07.08.25.73.84.91,1.09,0-.01,0-.03,0-.04,0-.01,0-.03,0-.05,0-.03,0-.07-.02-.12,0-.02,0-.04-.02-.07-.02-.09-.06-.19-.09-.29,0-.02-.02-.05-.03-.07-.02-.05-.04-.09-.06-.14-.05-.11-.1-.19-.14-.23-.15-.16-.41-.15-.56-.24-.37-.24-1.1-.88-1.53-1.21-.14-.1-.39-.43-.5-.46-.29-.07-.34.28-.49.29-.39.03-.34-.32-.52-.36-.18-.04-.72.36-.98.17-.03-.02-.05-.07-.06-.14,0-.03,0-.07-.01-.11,0-.04,0-.08,0-.13,0-.13,0-.27,0-.39,0-.05,0-.09,0-.14s0-.08-.02-.11c-.01-.05-.48-.81-.53-.86-.24-.25-.87-.36-1.22-.53-.13-.06-.99-.54-1.01-.6,0-.01,0-.04,0-.07,0-.04,0-.09.03-.1.02,0,.03,0,.05,0,.24.03.47.08.7.12.14.05.28.1.53.14.31.05,1.19-.06,1.46-.35.09-.06.17-.12.26-.2,0,.02,0,.03,0,.05,0,.07-.03.14-.06.21-.02.04-.04.07-.06.11-.05.08-.08.16-.08.26,0,.03,0,.07.02.11.03.03.82-.21.88-.25.07-.05.08-.4.08-.81,0-.41-.02-.9-.02-1.24,0-.16,0-.28.01-.36.08-.63.58-.78.71-.14.08.4.01.85.09,1.32,0,0,0,.01,0,.02.03-.03.05-.05.08-.08,0,0,0,0,0,0,.07-.08.12-.16.13-.27,0-.02,0-.04,0-.06.08-.78.1-.45.49-1.08.39-.62.55-1.45.59-2.18,0-.03,0-.07,0-.1,0-.05-.02-.11-.04-.16s-.03-.11-.03-.16c0-.05,0-.1.02-.14.05-.14.33-.13.36-.23,0-.01,0-.02,0-.04,0-.02,0-.03-.02-.05,0-.01-.02-.02-.03-.03-.02-.02-.05-.03-.08-.04-.03-.01-.07-.02-.1-.04-.03-.01-.06-.03-.07-.04-.01-.01-.02-.02-.01-.04,0-.02.01-.03.03-.06.02-.02.25-.03.28-.08.01-.02.02-.07.02-.11,0-.03,0-.07,0-.11,0-.05,0-.11.01-.15.03-.11.11-.19.13-.31,0-.03,0-.08,0-.13,0-.11,0-.25,0-.33,0-.04,0-.07,0-.08.01-.01.21.01.31-.02.08-.03.37-.26.42-.02,0,0,0,.01,0,.02,0,.02-.02.04-.03.07,0,0,0,0,0,.01-.04.07-.1.18-.17.28-.04.07-.09.14-.13.21,0,0,0,0,0,.01-.04.08-.08.15-.09.21,0,.02,0,.04,0,.05,0,.06.25.08.28.23,0,0,0,.02,0,.03,0,.17-.23.57-.28.76,0,.03,0,.05,0,.07,0,.05.23.04.24.31,0,.04,0,.08-.01.13-.03.17-.22.23-.22.37,0,.15.2.22.26.33.06.12.02.26.11.4.08.13.33.22.35.27.05.1.05.43.09.57,0,0-.02,0-.05,0-.1,0-.33-.05-.53-.09-.03,0-.05-.01-.07-.02-.05,0-.09-.02-.13-.03-.06-.01-.11-.02-.13-.02-.09,0-.11-.01-.11.04,0,.02,0,.04,0,.07.14,1.15.5.68,1.19,1.08.09.05.13.1.12.14,0,.02-.01.04-.03.06-.03.03-.07.06-.1.09-.03.03-.07.07-.08.11,0,.01,0,.03,0,.04,0,.02,0,.04.01.07.01.05.03.1.05.14,0,.02.01.04.01.05,0,0,0,.01,0,.02-.01.02-.4.05-.43.08-.01.01-.02.04-.02.07,0,.06.02.15.02.21,0,.03,0,.06-.02.07-.03.03-.2-.04-.22.04,0,.02,0,.05,0,.07,0,.17.09.33.09.43,0,.04-.14.03-.15.09,0,.03-.01.06-.01.09,0,.22.17.44.16.66,0,0-.01,0-.02.01-.02,0-.04,0-.07,0-.02,0-.04,0-.06-.02-.02,0-.05-.02-.08-.03-.03-.01-.06-.02-.09-.03-.11-.04-.22-.08-.28-.07,0,0,0,0,0,0-.03,0-.06.02-.06.05,0,.01,0,.03,0,.04.15.68.59.66.83,1.07.11.19.13.55.26.69.09.1.26.11.37.21.07.06.56.7.57.74,0,.02,0,.03,0,.05,0,.01,0,.02,0,.03-.04.15-.33-.01-.43.06.29.29.57.55.95.69.22.08.47.16.72.15,0,0,0,0,.01,0,.03-.08,0-.46,0-.58-.25.04-.07-.15-.09-.32,0,0,0,0,0,0,0-.01,0-.02,0-.04,0,0,0,0,0,0,0-.01,0-.02-.01-.03,0,0,0,0,0,0,0-.01-.02-.03-.03-.04-.21-.37-.54-.79-.8-1.13-.12-.14-.64-.51-.31-.61.03,0,.07,0,.11,0,.02,0,.05,0,.07,0,.09,0,.17-.01.13-.11-.05-.13-.42-.46-.43-.52-.02-.12.17-.19.2-.3.1-.36-.77-1.09-.72-1.55,0,0,.02,0,.03.01.19.09.38.19.59.21.05,0,.1,0,.14,0,.59-.01-.13-.46-.11-.69,0-.06.84-.59.87-.63.11-.19-.3-.4-.21-.5,0,0,.01,0,.02.01.34.22.77.35,1.09.34.46,0,.69-.3.02-1.01-.41-.44-1.44-1.17-1.72-1.64-.06-.1-.07-.14-.07-.26,0,0,0,0,0-.01h0c0-.17.04-.14.09-.13,0,0,.02,0,.02,0,0,0,0,0,0,0,0,0,.02,0,.03,0,.18-.09.3-.09.45-.15.1-.04.04-.22.42-.07-.01-.11-.02-.22-.01-.32.02-.74.39-1.34.97-1.82.25-.21,1.04-.6,1.16-.73,0,0,.02-.02.02-.03,0,0,0,0,0-.01,0,0,0-.02.01-.03,0-.01.01-.02.02-.04,0,0,0,0,0,0,.11-.28.17-.87.45-1.04.04-.02.08-.04.13-.05,0,0,0,0,0,0,0,0,0,0,0,0,.23-.33.62-.61.88-.95.06-.08.04-.31.29-.29.07-.1.14-.2.22-.29-.02-.14,0-.17.15-.15.02-.03.05-.05.07-.07l.07-.07c.04-.06.09-.14.14-.22,0,0,0,0,0,0,.04-.14.05-.21.05-.25,0-.08-.07,0-.13-.04ZM23.92,25.93s-.01.07-.01.1,0,.06,0,.08c0,.03,0,.05-.02.07,0,.01-.02.02-.05.02-.03,0-.08,0-.16,0l.33-.77c.01.18-.05.34-.1.51ZM24.51,26.13s-.04.07-.08.1c-.01.01-.02.02-.04.03-.1.09-.24.17-.31.16,0,0-.02,0-.02,0-.01-.01-.02-.03-.02-.05.01-.08.13-.19.25-.26.07-.04.14-.07.18-.07,0,0,.01,0,.02,0,.01.01.02.03.02.05,0,0,0,.02,0,.03ZM26.21,19.48s-.03.08-.06.11c-.01.02-.02.04-.04.06s-.03.04-.05.05c-.08.02-.13-.03-.16-.12-.05-.15-.03-.41-.02-.54,0-.02,0-.03,0-.04,0-.01,0-.02,0-.03.05,0,.1.02.14.04.2.09.26.28.19.47ZM56.5,50.72s.07-.07.12-.09c.01,0,.02-.01.03-.02,0,0,0,0,0,0-.06.04-.13.09-.18.16h0s.02-.03.03-.04ZM53.95,27.7s.03,0,.05,0c.01,0,.03.02.04.04,0,.01.01.02.02.03,0,.01.01.03.02.04s.01.03.02.05.01.03.02.05c.02.05.03.11.05.18,0,.04.02.09.03.13,0,.02,0,.04,0,.07s0,.04,0,.07c0,.07.01.13.01.19,0,0,0,.02,0,.03s0,.02,0,.03c0,.04,0,.07,0,.1-.01.12-.06.19-.13.14-.01,0-.02-.02-.04-.03l-.07-.55-.07-.55s.03-.03.05-.03ZM49.56,34.03c0-.07.02-.14.03-.2,0-.03,0-.06.01-.08,0-.06,0-.09.01-.11,0,0,0,0,.02,0,.01,0,.03,0,.06,0,.02,0,.03,0,.06,0l.07.47c0,.14-.01.3,0,.44.02.23.14.23.07.48,0,0,0,0,0,0,0,0-.02,0-.03,0-.39-.02-.35-.58-.3-1ZM54.28,29.53c0,.2-.03.4-.07.59-.04.2-.08.39-.14.59-.04.14-.26.77-.31.84-.02.02-.04.04-.07.06-.11.06-.3.06-.24.18,0,0,.01.02.02.03,0,0,.01,0,.03,0,.02,0,.05,0,.08.01.03,0,.06.02.07.05,0,0,0,.01,0,.02,0,.02-.01.04-.04.07-.12.13-.53,0-.62,0-.05,0-.03.15-.08.15-.04,0-.07-.02-.11-.04-.05-.03-.11-.08-.19-.1-.02,0-.04,0-.06-.01-.15-.02-.84.06-1.01.1-.35.07-.7.44-1.07.49,0,0,0-.01,0-.02-.01-.14.32-.77.39-.83.03-.03.06-.05.1-.08.12-.08.29-.18.47-.27.06-.03.12-.07.17-.1.06-.03.11-.07.16-.1.1-.07.19-.15.25-.22l.51.09.51.09c.03-.09.07-.19.11-.3.06-.16.12-.32.19-.48.07-.16.15-.32.23-.48.02-.04.05-.08.07-.12.05-.08.1-.15.15-.22.03-.03.06-.07.08-.1.06-.06.12-.12.18-.17.05-.04.08-.1.14-.11.01,0,.02,0,.03,0s.03,0,.04,0c0,.07,0,.14.01.21,0,.07,0,.14,0,.2Z"/>
  <path class="cls-1" d="M59.48,43.48c.03-.15-.13-.19-.14-.33-.05-.45.09-.35-.22-.84-.02-.03.03-.13-.02-.14,0,0-.01,0-.02,0,0,0,0,0,0,0l-.18.14c-.01-.2-.26-.45-.16-.63.03.17.16.23.31.23,0,0,.02,0,.03,0,.02,0,.04,0,.06,0,.06,0,.12-.02.18-.04,0,0,0,0,0,0,0,0,0,0,0,0-.07-.11-.2-.2-.34-.24,0,0,0,0-.01,0-.02,0-.05-.01-.07-.02-.01,0-.02,0-.04,0-.02,0-.03,0-.05,0-.03,0-.05,0-.08,0h0s-.15.07-.15.07c0,0,0,0,0,0h0c-.23.03-.47-.12-.49.2-.03.31.25.55.28.79.02.15-.16.06-.15.2.02.28.29.59.28.87,0,.04,0,.08-.02.12l-.18-.15.15.8c-.06.01-.1.02-.14.02h0c-.29.02-.21-.16-.31-.29-.04-.05-.14-.06-.23-.11.18.26.77.95,1.15,1.44h0s-.18-.44-.18-.44c0-.08.16-.02.22-.04.2-.06.14-.28.15-.44-.11-.15-.2-.41-.22-.58,0-.05,0-.1,0-.15,0,0,0,0,0,0,0,0,0,0,0,0-.01,0-.02-.02-.03-.04,0,0,0,0,0,0-.02-.03-.04-.08-.05-.13-.04-.15-.07-.37-.06-.53,0,0,0,0,0,0,0-.02,0-.04,0-.06,0,0,0-.01,0-.02,0-.01,0-.02,0-.04,0,0,0-.02,0-.03,0,0,0-.02,0-.02,0-.01,0-.02,0-.03,0,0,0,0,0,0,0,0,0,0,0,0,0,0,0,0,0,0,0,0,0,.02,0,.03,0,0,0,.01,0,.02,0,0,0,.02,0,.03,0,.01,0,.02,0,.04,0,0,0,.01,0,.02,0,.02,0,.04,0,.06,0,0,0,0,0,0,0,.16.02.38.06.53.01.05.03.1.05.13,0,0,0,0,0,0,.01.02.02.03.03.04,0,0,0,0,0,0,.01,0,.02,0,.03,0,0,0,0,0,0,0,.01-.01.04-.04.04-.09,0-.15-.09-.32-.05-.49.19.12.36.17.58.15Z"/>
</svg>