<?xml version="1.0" encoding="UTF-8"?>
<svg id="_레이어_1" data-name="레이어 1" xmlns="http://www.w3.org/2000/svg" viewBox="0 0 80 70">
  <defs>
    <style>
      .cls-1 {
        fill: #eee;
      }
    </style>
  </defs>
  <path class="cls-1" d="M74.14,8.05c.12-.14.19-.33.19-.51h0s0,0,0,0l-.24-.18c-.05-.06-.1-.13-.16-.19-.57-.49-2.8-.79-3.01-1.26,0,0,0-.02-.01-.03-.06-.25.64-.52.4-1.03,0,0,0-.01,0-.02-.2-.4-.82.06-1.09.15-.55.18-1.12.14-1.7.14-.03,0-.06,0-.1,0,.36-.38.91-.57,1.28-.94.11-.11.37-.42.3-.57-.02-.04-.07-.08-.16-.09-.45-.06-1.63.47-2.09.68-.06.03-.2.13-.31.18-.05.03-.1.04-.11.02,0-.02,0-.06-.01-.11,0-.04-.02-.09-.06-.14-.56-.65-2.25.03-2.87.41l-1.33.93c.04-.16.1-.48.12-.5.01-.01.07-.13.07-.15,0-.08.05-.2.07-.29.02-.09.2-.31-.07-.36-.47-.1-1.22.99-1.53,1.28-1.21,1.12-2.47,2.17-3.58,3.43-.13.15-.5.75-.59.8-.13.08-.32,0-.48.1-.17.12-.32.91-.48,1.2-.24.42-.82,1.04-1.15,1.43-.15.18-.47.33-.44.66-.1.04-.2.06-.29.14,0,0,0,0,0,0,0,0-.02.02-.03.02,0,.02,0,.04,0,.06,0-.02,0-.05,0-.07,0-.4-.38.12-.48.2,0,0-.02.01-.03.02v-.73s-.04,0-.05,0c-.12,0-.15.16-.18.25-.04.13-.1.23-.16.36-.03.06-.06.13-.1.19-.04.07-.07.14-.11.21-.08.16-.3.41-.28.6,0,0,0,0,0,.01.01.1,0,.09-.06.14-.01.01-.07,0-.09.02-.05.04-.05.12-.08.17-.04.06-.1.11-.14.17,0,0-.07.07-.07.07-.03.03.02.11,0,.16-.04.07-.14.05-.2.11-.03.03-.05.09-.09.1-.02,0-.04,0-.06,0-.04.01-.05.06-.09.07-.02,0-.04,0-.05,0-.03,0-.04.04-.06.05-.02.01-.03.02-.06.02-.02,0-.03,0-.05,0,0,0,0,0-.01,0,.02,0,.04,0,.06,0-.02,0-.04,0-.07,0-.19,0-.22.2-.27-.05-.03-.14-.16-.48-.17-.5-.02-.07-.45.32-.49.47-.06.19-.03.39-.17.55-.03.03-.14.14-.19.11-.04-.03.03-.24.04-.29.02-.08,0-.47-.15-.66-.02-.02-.03.09-.05.11-.03.03-.06.06-.1.07-.03.01-.04.02-.07.03-.08.05-.16.07-.24.12-.03.02-.06.06-.08.09-.04.04-.06.04-.11.04,0,0-.11,0-.11,0,0,.12.03.17-.11.15-.11-.03.04-.14.04-.15,0-.22-.07-.28-.15-.44l-.15-.15s.02-.11,0-.15c-.25.04-.12-.35-.44-.36h-.05s-.13.02-.15,0c-.02-.02.01-.16,0-.22,0-.04,0-.1,0-.15.18-.31.23-.53-.07-.73,0-.04,0-.08,0-.12,0-.02,0-.03.02-.05.02-.03.05-.07.06-.12,0,0,.06-.02.07-.07.06-.4-.19-.42-.22-.62-.01-.11.04-.3.07-.44.02-.05.04-.09.05-.14.03-.08.05-.16.05-.23,0,0,0,0,0-.01,0,0,0,0,0,0,0-.17-.19-.35-.2-.54,0-.06.02-.13.07-.2.14-.09.15-.25.15-.4,0-.12-.07-.88-.09-1-.03-.16-.2-.31-.2-.46,0-.15.17-.27.14-.5-.02-.18-.19-.28-.22-.45-.14-.75-.03-1.22-.37-2,0,0,0-.01,0-.02,0,0,0,0,0,0-.08-.19-.1-.21-.22-.36,0,0,0-.02,0-.02,0-.01,0-.03,0-.04,0,0,0-.02,0-.02,0-.04-.04-.08-.19-.11-.51-.1-.86.08-1.06.51-.06.08-.12.17-.17.25-.28.3-.48.71-.67,1.1-.09.17-.19.34-.28.52-.09.12-.23.21-.3.35-.16.33-.28.73-.4,1.15-.22.53-.39,1.03-.44,1.39-.03.07-.07.14-.1.21-.3.09-.29.5-.3.72-.01.04-.03.08-.05.13,0,.02-.02.03-.03.05-.07.04-.16.06-.19.15,0,.02-.01.04-.01.06,0,0,0,.01,0,.01,0,0,0,0,0,0-.02.05-.03.11-.02.2,0,.06.02.09.04.1,0,.04,0,.07-.02.11-.01.04-.05.07-.09.09-.08.03-.16.04-.19.09-.03.05-.04.11-.04.19,0,.04,0,.07,0,.11-.02.18-.02.34-.25.29,0,0,0,0,0,0h-.03c0-.27,0-.53-.23-.54-.06,0-.14,0-.23.04-.16.06-.24.62-.31.79-.03.09-.07.13-.1.15-.09.03-.18-.22-.3-.33-.15-.13-.29-.17-.4-.17-.14,0-.24.05-.3.06-.01,0-.02,0-.03,0-.03-.02-.1-.41-.2-.44-.04,0-.07-.01-.09-.02-.23-.01-.12.26-.3.35-.03.02-.06.02-.08.02-.1,0-.2-.06-.29-.07,0,0-.02,0-.02,0-.02,0-.03.14-.16.16,0,0-.01,0-.02,0-.06,0-.14-.02-.26-.09-.14-.08-.16-.22-.23-.28-.06-.05-.11-.08-.15-.08-.22-.01-.18.64-.18.87,0,0,0,0,0,0-.16-.01-.11-.23-.16-.28-.05-.05-.52-.08-.68-.21-.01,0-.02-.02-.03-.03.09.45-.16.19-.37.4-.17.17-.15.64-.3.76,0,0-.01.01-.02.01,0,0-.36-.59-.36-.59h-.32s0,0,0,0h0s0,0,0,0c-.03,0-.08,0-.1-.02-.06-.08.03-.31-.12-.43-.02-.02-.05-.03-.09-.04-.09-.04-.19-.03-.24-.03-.02-.03-.04-.4-.11-.58-.07-.16-.3-.34-.31-.41-.02-.09.09-.26.06-.32,0,0-.02,0-.03-.01-.05-.06-.16.03-.29-.17-.04-.06-.07-.14-.11-.27-.15-.49-.46-1.57-.54-2.02,0-.02,0-.04,0-.06,0-.14.08-.27.07-.41,0,0,0,0,0-.01,0-.02,0-.04-.01-.07,0-.03-.03-.06-.06-.09-.03-.05-.06-.09-.12-.1,0,0,0,0-.01,0-.07-.05-.15-.1-.2-.16-.02-.02-.04-.05-.05-.08-.03-.08-.04-.16-.05-.23,0-.03,0-.06,0-.09,0-.08-.01-.14-.06-.19-.05-.04-.13-.06-.29-.07,0,0-.01,0-.02,0,0,0,.01,0,.02.01,0,0,0,0-.01,0-.02-.02-.11-.16-.15-.22,0,0,0-.02-.01-.02,0,0,.01,0,.01,0-.23-.33-.44-.8-.66-1.17.02.03.03.06.04.08-.01-.02-.03-.05-.04-.07-.42-.7-1.01-1.95-1.74-1.49-.04.02-.07.05-.11.08,0,0,0,0,0,0-.03.03-.07.06-.1.1-.01.01-.03.03-.04.05-.02.02-.04.04-.06.07-.02.02-.04.04-.05.07-.01.02-.03.04-.04.06-.02.03-.04.05-.06.08-.12.18-.19.35-.25.52,0,0,0,0,0,0-.02.05-.03.11-.05.16,0,0,0,0,0,0-.01.06-.03.11-.04.17,0,0,0,0,0,.01,0,.03-.01.06-.02.09-.04.06-.04.16-.04.26,0,.07-.02.13-.02.2,0,0,0,0,0,0-.02.21-.07.52-.08.75,0,.04,0,.07,0,.1,0,.2.05.4.08.6,0,.02,0,.03,0,.05,0,.06.01.12,0,.18,0,.04,0,.07-.01.11-.04.18-.25.27-.27.52,0,0,0,0,0,0,0,0,0,0,0,0-.01.2.12.48.13.72,0,.1,0,.2,0,.31,0,.01,0,.03,0,.04,0,.1,0,.2-.01.3,0,0,0,.01,0,.02-.02.15-.03.3-.03.45,0,.07,0,.15-.01.22,0,.02,0,.05,0,.07,0,.05,0,.1,0,.15,0,.07,0,.14,0,.21,0,0,0,.02,0,.02,0,.08,0,.16,0,.24,0,0,0,0,0,0,0,0,0,0,0,0,0,.19.11.49.13.71,0,.03,0,.05,0,.08,0,.09-.08.18-.13.28-.03.06-.06.12-.07.19,0,.01,0,.02,0,.03,0,0,0,.02,0,.03,0,0,0,0,0,0,0,0,0,0,0,.01,0,.23.22.28.22.43,0,0,0,.02,0,.03,0,0,0,.01,0,.02-.02.08-.09.17-.16.25-.04.05-.08.11-.11.16-.02.03-.03.07-.03.1,0,0,0,.01,0,.02,0,0,0,0,0,0,0,0,0,0,0,0,0,0,0,0,0,.01,0,.01,0,.02.01.04,0,0,0,0,0,.01,0,.01.01.03.03.04,0,0,0,0,0,.01.01.01.03.03.05.04,0,0,0,0,.01,0,.02.02.05.03.08.05,0,0,0,0,0,0,.03.01.06.03.1.04-.04.05-.09.11-.14.14,0,0,0,0,0,0-.02.02-.03.04-.04.07h0s-.02.01-.03.01c0,0,0,0,0,0,0,0,0,0-.01,0,0,0,0,0-.01,0-.02,0-.04,0-.05,0h-.03s-.22.12-.22.12l-.05.02c-.09.1-.21.3-.29.44-.02.02-.04.1-.09.11-.1.02-.24-.05-.25-.05-.17-.01-.28-.1-.44-.13,0,0-.01,0-.02,0-.03.06-.11.18-.15.22-.18.17-.32.16-.56.14,0,0-.02,0-.03,0,.02.08.07.31.07.36v.07s0,.06,0,.07c0,0,0,0,0,0l-.77.14s-.4,0-.29-.29l.15-.07c.07-.02.27.02.29,0,.21-.23-.36-.31-.59-.26-.13.03-.31.19-.39.18-.07-.01-.21-.22-.41-.26-.08-.02-.41.03-.44.04,0,0,0,0,0,0,0,0-.02,0-.03,0,0,0,0,0,0,0-.01-.13-.08-.26-.15-.37-.04.02-.09-.04-.11-.06-.01-.01-.03-.04-.03-.05,0,0,0-.02,0-.02,0-.02-.02-.04-.03-.06,0-.02-.01-.05-.02-.07,0-.02,0-.05-.02-.07-.02-.02-.05-.02-.07-.04-.02-.02-.03-.06-.05-.08-.01-.02-.02-.03-.03-.05,0-.02,0-.04-.02-.05-.01-.03-.04-.04-.06-.07-.03-.03-.04-.07-.06-.1-.04-.08-.09-.15-.15-.22-.02-.03-.05-.05-.08-.08l-.07-.07c-.43-.34-.54-.19-.87-.33-.51-.22-.47-1.38-.7-1.49-.01,0-.02,0-.03,0-.09-.02-.07.13-.11.15,0,0,0,0,0,0-.17,0-.25-.25-.37-.28,0,0-.01,0-.02,0-.11,0-.24.1-.35.12-.02,0-.03,0-.05,0-.03,0-.39-.4-.41-.42,0,0,0,0,0,0,0,0,0,0,0,0,0,0,.01-.01.02-.02-.12-.22-.21-.82-.39-.85-.22-.05-.17.35-.18.36-.25.26-.58-.57-.64-.71-.1-.26-.33-1.37-.45-1.45-.19-.12-.26.13-.44.11,0-.83-.34-.44-.58-.54-.14-.06-.69-.67-.94-.82-.66-.38-1.17-.49-1.8-1.04-.22-.19-.51-.73-.77-.55-.09.06-.05.23-.07.26-.03.04-.04.07-.06.09,0-.01-.01-.02-.02-.03-.08.17-.63.79-.81.8-.28-.16-.71-1.33-.89-1.37,0,0-.01,0-.02,0,0,0,0,0,0,0-.28-.08-.21.22-.28.35-.11.21-.91.24-1.17.22-.94-.06-1.62-.58-2.41-1.02-.03.03-.05.05-.06.07,0,0,0,0,0,0-.02,0-.03,0-.03.01-.01.02-.01.08,0,.14,0,0,0,0,0,0,0,.05.02.11.04.14.01.02.25.27.39.46,0,0,0,0,0,0,.02.11,0,.13-.11.11l-1.71-.84c-.48-.1-.53,0-.5.21-.01.14.03.38.07.64,0,.29,0,.67-.05.79-.15.34-.71.21-.95.42-.3-.2-.59-.73-.95-.78-.81-.12-.32.6-.4.65-.02.01-.19-.01-.29.04-.17.08-.17.33-.13.49v.03c.06.21.19.51.34.84l.44,1.13c.01.1-.33.38-.39.6-.13.46-.07,1.13.06,1.8.1.56.28,1.11.45,1.53,0,.02.02.04.03.06,0,0,0,.01,0,.02,0,.01.01.03.02.04.01.03.03.07.04.1.12.26.54.85.58,1.02.01.05.02.1.03.16.01.19-.03.38,0,.56.01.08.03.17.04.25,0,.15.02.29.06.44.15.71.48,1.54.93,2.34.43.81.95,1.57,1.54,2.14.24.24.48.41.71.56.07.05.13.09.2.13.06.04.13.07.2.11.28.16.56.32.84.53.49.37.91.88,1.45,1.19.14.08.37.08.44.19,0,.02,0,.04,0,.04,0,0,0,0,.01,0,0,.02,0,.04,0,.06,0,.03-.09.07-.08.18.03.33,1.28.77,1.54,1.03-1.19.79.75,1,1.14,1.34.1.09.11.26.21.37.08.09.32.19.33.25.02.1-.22.22-.11.33.57.09.54.43.84.76.08.08.34.28.44.36.24.17,1.07.51,1.14.57.02.02.11.25.17.35-.04.05-.12.1-.15.15,0,0,0,0,0,0,0,0-.02,0-.02,0-.01.02-.03.06-.04.09-.04.04-.06.09-.08.11,0,0,0,0,0,0-.05-.01-.12-.05-.18-.05-.04,0-.09.01-.11.07-.07.02-.08.09-.02.37.12.51.99.88,1.01.97.02.1-.05.18-.15.23,0,0,0,0-.01,0-.05.03-.12.05-.18.07-.05.02-.11.03-.15.04-.04,0-.07.02-.09.03-.02,0-.04.02-.05.03-.04.05,0,.21.02.31.01.03.02.06.03.06.01,0,.08,0,.18-.03.15-.03.38-.07.55-.01.05.02.1.04.14.07.02.01.04.02.06.04.1.09.17.22.24.34,0,0,0,.02,0,.03,0,0,0,0,0,0,0,.02.02.03.03.05.02.03.03.06.05.08.03.03.11.02.12.02,0,0,0,0,0,0,0,0,0,.02,0,.03,0,.03-.02.07-.05.11-.02.03-.04.05-.07.08,0,0-.02.02-.02.03-.01.01-.02.03-.03.04-.03.03-.05.06-.07.09-.03.05-.05.1-.04.15,0,.02.02.04.04.07.01.02.03.03.05.05.08.07.18.16.23.23.06.09.1.19.15.29.01.05.03.1.05.14,0,0,.02,0,.02,0,0,0,0,0,.01,0,.04.05.14.06.16.09.05.07,0,.23,0,.31,0,.02,0,.03.01.04,0,0,.02.01.05.02.04.01.1.02.16.03.04,0,.07.01.11.02.06,0,.12.01.14.01.11-.01.27-.21.33-.15.13.13-.09.24-.26.34-.01,0-.03.01-.04.02-.04.03-.08.05-.1.07,0,0,0,0,0,0,0,0-.01.02-.02.03-.13.19-.1.4.03.54.1.12.27.19.46.16.03.02.01.07-.02.14-.06.13-.18.31-.29.47-.04.05-.07.1-.1.14-.05.07-.09.13-.1.15,0,0,0,.02-.01.03-.06.11-.13.21-.17.3,0,0,0,.01,0,.02-.02.04-.03.08-.03.11,0,0,0,.01,0,.01,0,.06.05.1.14.12.05.02.13.03.22.03,0,.02,0,.05,0,.08-.01.02-.03.03-.05.04,0,0-.01.01-.02.02-.02.04-.03.07-.03.09-.05.06-.1.11-.15.17-.11.12-.2.23-.06.26.3.07.29.21.23.51,0,0,0,.01,0,.02-.02.08-.04.16-.08.24-.02.04-.04.09-.07.14-.01.03-.03.06-.04.08-.02.03-.04.07-.06.1-.02,0-.04,0-.07,0,0,0-.01,0-.02,0-.04.12-.09.24-.15.35-.06.11-.13.21-.21.31l-.07.07c-.11.12-.31.24-.44.36,0,.02-.02.04-.03.06-.03.04-.08.09-.13.13-.02.01-.03.03-.05.04-.2.16-.46.32-.45.61,0,.01,0,.02,0,.04,0,.01,0,.02,0,.04,0,.03,0,.06.01.08.03.11.09.15.16.14h0s.01,0,.02,0c0,0,.02,0,.02,0,0,0,0,0,0,0,.23-.04.75-.36,1.02-.4,0,0,0,0,.01,0l.04.27s-.02.04-.04.04c-.03,0-.07,0-.09,0,0,0-.01,0-.01,0-.15.12-.31.34-.46.53-.01.01-.03.03-.04.04h0s0,.01,0,.01c-.05.07-.1.13-.15.18.03.06.24.05.29.04l.07-.07s.02,0,.02,0c.03-.01.06-.03.09-.04.02,0,.03-.01.05-.02.06-.03.13-.05.2-.08.08-.03.15-.06.18-.07,0,0,0,0,0,0,.21-.02.27,0,.18.16-.07.05-.22.15-.39.27-.23.15-.5.33-.63.48-.04.04-.06.07-.07.09,0,.01,0,.03,0,.04,0,.02,0,.04,0,.06,0,0,.01,0,.03,0,.05.04.14.06.18.1.03.17-.42.42-.41.54-.03.07,0,.13.18.14.21,0,.45-.07.67-.17h0c.2-.08.38-.19.56-.3h0s.04,0,.05,0c0,0,.01,0,.02,0,.06-.02.1-.04.11.18,0,.12.05.26-.1.26,0,0-.01,0-.02,0,0,0-.01,0-.02,0-.02.14-.06.27-.11.38,0,0,0,.01,0,.02-.06.12-.13.23-.25.33-.06.05-.09.05-.15.07-.04.02-.09.04-.13.06-.27.07-.59.1-.81.15,0,0,0,0,0,.01,0,0,0,0,0,0,0,0,0,0,0,0,.02.38.57.55.51.99h-.29s0,0,0,.01h0c.02.18.13.27.15.47.03.28-.13.67-.07.87.05.14.28.15.4.18.08.02.14,0,.17.02-.05.08-.26.08-.34.09-.08.01-.16.02-.24.02,0,0,0,0,0,0-.07,0-.14,0-.21,0h0s0,0,0,0h0s-.02,0-.02,0v.05c-.1.02-.15.06-.12.18.25.14.44.25.7.36.02,0,.05,0,.07.01.03.03.05.05.04.08,0,0,0,0,0,.01,0,.01-.02.03-.04.06-.04.05-.09.13-.15.21-.14.18-.31.38-.34.39,0,0,0,0-.01,0-.13.04-.56.5-.53.73.07.03.14.05.2.05.4,0,.74-.5.92-.53.02,0,.04,0,.06,0,.09,0,.1.08.08.15-.01.07-.05.14-.04.14.01,0,.06.02.14.03.2.08.46.03.66,0,0,.02,0,.05,0,.07-.07.14-.25.32-.32.44-.09.1-.1.16.25.14-.02.33-.07.63-.17.91-.11.27-.28.52-.55.72,0,0,0,.01,0,.02,0,0,0,0,0,0,0,0,0,0,0,.01,0,.03.03.05.05.08.2.27.45.46.51.81,0,.2-.05.39-.12.59-.05.09-.11.18-.14.27-.03.08-.09.48-.09.57,0,.04,0,.06,0,.08,0,0,0,0,0,0,.03.06.1-.01.2.05-.15.16-.35.3-.4.51,0,.01,0,.03-.01.04,0,.04,0,.08,0,.12h.02s.15-.06.15-.06l.27-.09.22-.07s0,0,0,0c.03.05-.02.12-.1.2-.03.01-.05.03-.06.03-.03.03-.07.08-.12.14-.04.04-.08.08-.1.1,0,0,.02,0,.03,0-.02.04-.04.07-.04.09.09.14.21-.03.22-.04l.07-.07h0s.01,0,.02,0c.02,0,.04,0,.05,0,0,0,0-.01,0-.02,0,0,0,0,0-.01.11-.05.22-.11.33-.17.01,0,.03,0,.04,0,.14-.02.3-.02.36-.02l.08-.04s.04.01.07.02c0,0,.02,0,.03,0,.23.1.29.23.32.37,0,.04.02.09.02.14h0s0,.04.01.06c0,0,0,.01,0,.02.01.07.03.13.06.2l.02.02.05.05h.1c-.01.14.07.19.12.25,0,.02.02.05.03.08.03.11.07.28.19.41h.06s.02.03.04.05c.11.1.32.11.41.13,0,.04,0,.07,0,.11.08.05.35.24.54.37.05.05.1.09.13.12,0,0,0,0,.01,0h0s0,0,0,0c.14.13.25.4.48.43,0,.04,0,.07,0,.1,0,.06.03.11.05.16,0,.04.02.08.02.11,0,.03,0,.06,0,.09.01,0,.02,0,.03,0,0,.37-.09.9.01,1.24.03.1.11.14.21.12,0-.21-.03-.39.07-.58,0,0,0,0,0,0,.01-.02.05-.06.07-.07.16.02.36-.03.51,0,.16.03.22.12.34.2,0,0,0,.01,0,.02.03.13.18.26.22.36,0,0,.01-.01.02-.02,0,0,0,.01,0,.02.11.3.39,1.02.43,1.28.03.19-.11.8-.07.83.14.13.34-.06.36-.25.33.06.6.29.85.5.03,0,.05,0,.07,0,.12.12.22.23.32.38.11.17.15.42.3.53.11-.37.2-.97.48-1.24.05-.05.12-.06.15-.07v.22c-.04.14-.09.3-.08.31.06.07.21-.12.3-.26l.17-.21c.3.33-.15,1.9-.08,1.97.02.02.19-.02.21,0,.08.08-.09.47-.07.51.01.01.33.1.36.07.06-.04.11-.51.15-.6,0-.02.02-.03.04-.04,0,0,0,.01,0,.02.02-.02.11,0,.18-.07.03-.03.06-.09.09-.15,0,0,0,0,0,0,.05-.08.08-.15.13-.24.17.09.19.51.21.7.04.48-.15,1.21.52,1.27.03-.03-.05-.62-.07-.73.3.04.18-.04.22-.15h0c.04-.11.16-.35.15-.44,0,0,0,0,0,0,.47-.41.59.44.64.78.08.45-.17.52.37.68-.08.17.43.27.58.29.09.01.25.03.29-.07.03,0,.07,0,.1,0,0,0,0,0,.01,0,.04,0,.07,0,.11,0,0,0,0,0,0,0,.31-.02.56-.04.85-.14h0c.13.19.21.42.4.58,0,0,0-.01,0-.02,0,0,.01.01.02.02,0,0,0,0,0,0,0,0,0,0,0,0,.06-.12,0-.38-.04-.51h.19s.13.2.15.22c0,0,0-.02,0-.02,0,.01.02.02.02.02,0,0-.01.05.04.07.16.05.09-.09.12-.13.11-.1.38.06.52.16,0,.01.02.02.03.04.16.21.23.26.29.25.06,0,.08-.09.14-.07,0,0,0,0,0,0,.16.07.38.51.62.55.02,0,.04,0,.05,0,.19-.03-.09-.55.02-.66,0,0,0,.02.01.02.13.24.36.37.53.56.01,0,.02,0,.03,0,.11.13.55.82.73.65l-.07-.87c.24.02.48.15.71,0,.31.24.55.45.98.43,0,0,0,0,0,0,.21-.01.07-.29.11-.44.01,0,.02,0,.03,0h0s.02,0,.03,0c.13.03.18.21.33.22,0,0,0,0,.02,0,.13-.02.67-.26.84-.31.52-.15,1.02-.28,1.55-.29.17,0,.33,0,.51.03.48.06.54.23.84.23.12,0,.29-.02.54-.09.15-.04-.06-.03.3-.07.27-.03.58-.45.76-.69-.1-.07-.08-.26.07-.26,0,0,0,0,0,0,.01,0,.02,0,.03,0,0,0,0,0,0,0,0,0,0,0,0,0,.02-.02.2-.09.29-.14.04-.03.19.06.15-.15.03,0,.07,0,.1,0,0,0,.01,0,.02,0,.01,0,.03,0,.03,0h0s.05-.03.06-.07h0s0-.06,0-.08c.21.05.15-.21.21-.37,0,0,0,0,0,0,0,0,0,0,0,0,0-.02-.01-.06,0-.07,0,0,0,0,0,0,.02,0,.1.02.13,0,.02-.02.01-.07,0-.1,0-.01-.01-.03-.01-.05.04-.06.1-.17.13-.2,0,0,.03,0,.03,0h0s.09-.03.14-.07c.17-.13.08-.08.15-.15.02-.02.23-.05.29-.07.12-.04.27-.03.36-.15.05,0,.1,0,.15,0,.15,0,.31.04.44-.07h0s.09,0,.14,0c.1,0,.2,0,.3,0,.04,0,.08,0,.12,0h0s.02,0,.02,0c.23.01.17.06.44,0,.07-.01.11-.06.15-.07.08-.02.24.05.29-.07.02,0,.04,0,.06,0h0s0,0,.01,0c.03,0,.05,0,.07,0,0,0,0,0,0,0,.08,0,.42-.06.43-.07.13-.12-.14-.17-.21-.22,0,0,0,0,0,0-.04-.03-.08-.08-.14-.07,0,0,0,0,0,0,0,0,0,0-.01,0,0,0-.01,0-.02,0,.02-.17.07-.21.15-.2.12.01.28.16.41.19.09.02.15.02.21.03.31,0,.19-.24.25-.3,0,0,.02,0,.04,0,.1.02.35.14.52.14h0s.01,0,.02,0c.03,0,.05,0,.07-.02.12-.06.15-.24.22-.33l.07-.07s-.01-.06,0-.07c0,0,.03,0,.03,0,.14,0,.28,0,.42,0,0,0,0,0,0,0,0,0,0,0-.01,0,.57-.04.58-.22.15-.58l-.15-.07s0,0,0,0c0,0-.02,0-.04,0-.01,0-.02,0-.03,0l-.15-.07s-.01,0-.02,0c0,0-.02,0-.03,0-.13-.14-.16-.27-.22-.44l.22.07.07-.21s-.01,0-.02-.01c-.2-.14-.65-.6-.87-.91.24.32.66.76.86.9,0,0,.01,0,.02.01.26.17.81.53,1.13.52,0,0,.02,0,.02,0,.02,0,.04,0,.06,0,.07-.02.01-.15.09-.23.02-.02.08-.07.15-.12-.02-.02.13-.1.25-.17.08-.05.15-.09.15-.11,0,0,0,0,0,0h0c.06-.05.11-.08.13-.1,0,0,0,0,.01-.01.01-.02.02-.04.02-.05,0,0,0,0,0,0h0s0-.03-.01-.04l-.09-.29-.21-.46c.14.06.4.1.55.13,0,0,.02,0,.02,0,.12.03.25.13.44.07.06-.15-.11-.17-.14-.21,0,0,0,0,0,0-.05-.11-.07-.17-.07-.29h0s0-.05,0-.07c0-.08.1-.42.14-.47.06-.08.19-.03.22-.05.09-.09-.16-.45.23-.36-.03-.09-.18-.57-.21-.65,0,0-.01-.01-.02-.02,0,0,0,0-.01,0,.22-.14.43-.32.63-.51s.4-.37.61-.51h0s.03,0,.03,0c.03-.02.17.03.25-.07.09-.11.07-.4.09-.45,0,0,0,0,0,0,0,0,0,0,.01-.01.06-.05.25-.03.28-.4,0-.02,0-.05,0-.08,0-.04-.02-.08-.04-.13-.01-.04-.03-.08-.05-.13,0-.02-.02-.05-.03-.07-.03-.06-.05-.13-.07-.19-.02-.08-.03-.15-.03-.23,0-.11.04-.21.14-.3.02-.02.05-.04.08-.06,0,0,.04,0,.04,0,.08-.05.29-.07.41-.07h0c.22,0,.37.05.5.05h0s0,0,0,0c0,0,0,0,.01,0h0s0,0,.01,0c.14,0,.28-.08.49-.31.33-.36.17-.59.24-1,.08-.51.55-.83.05-1.47-.09-.12-.2-.1-.21-.12,0,0,0,0,.02,0,0,0,0,0,0-.01-.23-.23-.23-.4-.35-.7.43.26.82.61,1.35.63.05-.32-.22-.52-.29-.8-.58-.14-.21-.55.21,0,0,0,0,0,0,0,0,0,.02,0,.02,0h0s0,0,0,0c0,0,0,0,0,0,0,0,0,0,0,0,0,0,.01,0,.02,0,0,0,0,0,0,0,0,0,.02,0,.02,0l.07.07s.02,0,.02,0h0s0,0,0,0c0,0,0,0,0,0h0s.03,0,.04,0h0l.15.07s.03,0,.05,0c0,0,.02,0,.02,0h.29c.17-.17-.03-.21-.06-.35-.03-.12.07-.22.03-.38-.11-.42-.97-1.13-.98-1.57,0-.11.05-.26.06-.4.01-.22,0-.44,0-.66-.04-.05-.09-.28-.12-.45.02,0,.03,0,.05,0,0,0,0,0,.01,0,0,0,0,0,0,0,.02,0,.03,0,.05,0,0,0,0-.02,0-.03,0-.03-.03-.09-.09-.17-.04-.07-.1-.14-.15-.21,0,0,0,0,0,0-.01-.02-.03-.03-.04-.05,0-.01-.02-.02-.03-.03,0,0-.02-.02-.02-.03l-.18-.44c0-.08.16-.02.22-.04.2-.06.14-.28.15-.44-.11-.15-.2-.41-.22-.58,0-.05,0-.1,0-.15,0,0,0,0,0,0,0,0,0,0,0,0-.01,0-.02-.02-.03-.04,0,0,0,0,0,0-.02-.03-.04-.08-.05-.13-.04-.15-.07-.37-.06-.53,0,0,0,0,0,0,0-.02,0-.04,0-.06,0,0,0-.01,0-.02,0-.01,0-.02,0-.04,0,0,0-.02,0-.03,0,0,0-.02,0-.02,0-.01,0-.02,0-.03,0,0,0,0,0,0,0,0,0,0,0,0,0,0,0,0,0,0,0,0,0,.02,0,.03,0,0,0,.01,0,.02,0,0,0,.02,0,.03,0,.01,0,.02,0,.04,0,0,0,.01,0,.02,0,.02,0,.04,0,.06,0,0,0,0,0,0,0,.16.02.38.06.53.01.05.03.1.05.13,0,0,0,0,0,0,.01.02.02.03.03.04,0,0,0,0,0,0,.01,0,.02,0,.03,0,0,0,0,0,0,0,.01-.01.04-.04.04-.09,0-.15-.09-.32-.05-.49.18.12.36.17.58.15.03-.15-.13-.19-.14-.33-.05-.45.09-.35-.22-.84-.02-.03.03-.13-.02-.14,0,0-.01,0-.02,0,0,0,0,0,0,0l-.18.14c-.01-.2-.26-.45-.16-.63.03.17.16.23.31.23,0,0,.02,0,.03,0,.02,0,.04,0,.06,0,.06,0,.12-.02.18-.04,0,0,0,0,0,0,.03,0,.05-.01.07-.02.03-.01.07-.03.1-.03,0-.03,0-.06,0-.09,0,0,0,0,0,0h0c-.01-.06-.07-.06-.07-.07h0s0,0,0,0c-.13-.4-.27-.71-.51-1.06l.36-.04c.02-.17-.07-.3-.15-.44.12.04.52.14.63.04,0-.01,0-.03-.01-.04,0,0,0,0,.01,0,.03-.08,0-.46,0-.58-.25.04-.07-.15-.09-.32.02.17-.15.36.08.32.01,0,.02,0,.03,0-.02-.28-.03-.24-.1-.35,0-.03-.02-.06-.05-.08,0-.02-.02-.03-.03-.05,0,0-.02,0-.03,0,0,.01.02.03.02.04-.21-.37-.54-.79-.8-1.13-.12-.14-.64-.51-.31-.61.03,0,.07,0,.11,0,.02,0,.05,0,.07,0,.09,0,.17-.01.13-.11-.05-.13-.42-.46-.43-.52-.02-.12.17-.19.2-.3.1-.36-.77-1.09-.72-1.55,0,0,.02,0,.03.01.19.09.38.19.59.21.05,0,.1,0,.14,0,.59-.01-.13-.46-.11-.69,0-.06.84-.59.87-.63.11-.19-.3-.4-.21-.5,0,0,.01,0,.02.01.34.22.77.35,1.09.34.46,0,.69-.3.02-1.01-.41-.44-1.44-1.17-1.72-1.64-.06-.1-.07-.14-.07-.26,0,0,0,0,0-.01.02,0,.03,0,.04.02.11.03.83.24.82.21-.04-.11.08-.35.13-.42.05-.07.26-.06.28-.09.03-.04-.07-.33-.07-.46.03-.52.36-1.11.72-1.47.24-.24,1.35-.89,1.39-.96.17-.29.2-.85.48-1.26,0,0,0,0,0,0,.23-.33.62-.61.88-.95.06-.08.04-.31.29-.29.07-.1.14-.2.22-.29-.02-.14,0-.17.15-.15.02-.03.05-.05.07-.07l.07-.07c.04-.06.09-.14.14-.22,0,0,0,0,0,0,.02-.01.06-.07.08-.08.16-.19.26-.4-.05-.43,1.35-1.22,1.99-1.91,3.09-3.28,0,0,0,.01,0,.02.28-.36.86-.64.79-1.1,0,0,0,0-.01,0h0s0,0,0,0c0,0,0,0,0,0,.01,0,.03,0,.05-.01.54-.13,1.29-.2,1.4-.76.04-.11.03-.25-.02-.42-.03-.09-.11-.13-.18-.18-.06-.05-.1-.11-.08-.24,0,0,0,0,0,0,0,0,0,0,0,0,.56-.3.31-.54.44-1.02,0,0,0,0,0,0,0,0,0,0,0,0,0,0-.02-.07-.01-.07,0,0,0,0,0-.01,0,0,0,0,0-.01.12-.39.36-.46.57-.74.78-1.01,1.11-1.83,1.1-3.14-.01-.78.1-1.31.33-2.08.08-.27.3-1.06.53-1.15.23-.1.53-.1.8-.22.3-.14.78-.57.75-.92-.01-.22-.29-.34-.21-.57l.17-.19Z"/>
</svg>