<?xml version="1.0" encoding="UTF-8"?>
<svg id="_레이어_1" data-name="레이어 1" xmlns="http://www.w3.org/2000/svg" viewBox="0 0 80 70">
  <defs>
    <style>
      .cls-1 {
        fill: #eee;
      }
    </style>
  </defs>
  <path class="cls-1" d="M74.14,12.49c.12-.14.19-.33.19-.51,0,0,0,0,0,0,0,0,0,0,0,0-.11,0-.18-.08-.24-.18-.05-.06-.1-.13-.16-.19-.57-.49-2.8-.79-3.01-1.26,0,0,0-.02-.01-.03-.06-.25.64-.52.4-1.03,0,0,0-.01,0-.02-.2-.4-.82.06-1.09.15-.55.18-1.12.14-1.7.14-.03,0-.06,0-.1,0,.36-.38.91-.57,1.28-.94.11-.11.37-.42.3-.57-.02-.04-.07-.08-.16-.09-.45-.06-1.63.47-2.09.68-.06.03-.2.13-.31.18-.05.03-.1.04-.11.02,0-.02,0-.06-.01-.11,0-.04-.02-.09-.06-.14-.56-.65-2.25.03-2.87.41l-1.33.93-.11.08c-.25.45-1.08,1.43-1.46,1.79-.18.18-1.03.37-.22.62,0,.56-.54.26-.73.4-.13.08-.02.35-.1.48-.08.13-.23-.02-.35,0-.06.01-.2.13-.27.18-.74.55-1.67,2.38-2.06,3.26-.17.37-.23.73-.46,1.15-.12.22-.57.8-.61.93-.02.09-.1.78-.08.84.03.1.21.27.31.27.1,0,.3-.18.26.04-.07.43-.86,1.04-.78,1.5.08.43.42.45.73.21.19-.15.32-.81.52-1.08.08-.1.25-.33.36-.15.16.27-.1,1.5-.04,1.94.04.36.13.09.02.52-.13.48.21.56.2.71,0,.12-.19.2-.14.35.05.19.27.11.29.56,0,0,.16.15,0,.15-.03.41.18.85.51,1.09.38-.82.39-.95.62-1.83.1-.37.3-.72.41-1.09.13-.02.07.17.07.25.02.55.01,1.1-.07,1.64l-.36-.15-.29,2.04c-.16.06-.33-.06-.44-.07-.05,0-.1,0-.15,0-.12-.02-.25.02-.39-.01-.13-.03-.2-.15-.34-.13-.05.35-.05.61.07.95.12.03.18-.1.27-.13.37-.11.27.08.42.21.16.15.33.22.48.4.38.44.09.35.02.75-.14.78.35.87.95.59.73-.35,1.84-.82,2.48-1.31.19-.15.39-.43.56-.53.24-.14.69-.19.99-.32.36-.16.64-.44.97-.6.1-.05.28-.06.29-.07,0,0-.02-.09.05-.15.65-.47,1.05-.63,1.63-1.28.11-.12.22-.41.32-.48.16-.11.57-.13.77-.14,0,0,.02,0,.04,0h0s.06,0,.08-.03c0,0,.01-.02.02-.03.01-.04.01-.09.05-.09.05,0,.09.08.1.08,0,0,0,0,.01,0,.01,0,.03,0,.05-.01.22-.06.88-.31.98-.36.21-.11.36-.23.41-.4.04-.11.03-.25-.02-.42-.03-.09-.11-.13-.18-.18-.09-.05-.17-.11-.17-.24-.2.09-.67.12-.91.15-.08,0-.25.02-.18-.11.04-.08.55-.57.66-.65.24-.19.64-.44.94-.48.12-.41.36-.48.58-.77.78-1.01,1.11-1.83,1.1-3.14-.01-.78.1-1.31.33-2.08.08-.27.3-1.06.53-1.15.23-.1.53-.1.8-.22.3-.14.78-.57.75-.92-.01-.22-.29-.34-.21-.57l.17-.19ZM67.03,8.98c.13.12-.1.16-.14.18-.43.25-.97.51-1.46.62.08-.23,1.54-.86,1.6-.8ZM61.8,14.4l1.29.35-.54.14c-.31-.11-.64-.05-.96-.07-.29-.01.05-.44.21-.43ZM66.98,17.94c-.15.3-.26-.18-.22-.36.04-.2.35-.8.46-1,.06-.09-.01-.18.18-.14.05.06-.34,1.34-.42,1.51ZM67.91,13.87h-.22c.18.39-.13.34-.37.55-.47.4-1.36,2.18-1.24,2.77.02.08.17,0,.21.05.01.01.08.3.08.32v1.5c-.22.03-.12-.05-.15-.18-.04-.17-.06-.38-.13-.53-.03-.07-.08-.2-.16-.09-.02.02-.07.46-.07.55-.02.24.02.48,0,.72,0,.07-.03.27-.14.26-.03-.25-.14-.78-.36-.91-.25-.15-.16.33-.36.38-.09.78-.16,1.57-.15,2.36l-.16-1.11-.13-.2c-.15.93-.16,1.89-.46,2.79-.06.18-.36,1.1-.49.53-.21-.94.21-2.02.07-2.99-.04-.24-.3-.62-.43-.22-.14.43-.16.98-.29,1.42-.17.03-.12-.01-.16-.09-.2-.35-.28-.78-.55-1.13-.07-.09-.08-.2-.23-.17.19.92.52,1.83.51,2.77l-.24-.67c-.27-.32-.33-.91-.64-1.18-.06-.05-.34-.2-.4-.19-.31.06.17.94.17,1.13,0,.3-.29.52-.34.74-.04.16.01.72-.01.75-.12.13-.12-.04-.15-.1-.06-.15-.11-.43-.29-.48.06.22-.12.5-.21.24-.03-.08,0-.19-.01-.24-.07-.22-.27-.44-.29-.69.12-.14.39-1.02.43-1.06l-.07-.07s-.18.06-.22.07c.03.2-.35.44-.29.18.05-.2.11-.15.22-.18.08-.2.15-.4.25-.59.44-.8,1.32-1.55,1.86-2.3.47-.64-.07-.54-.08-.67-.02-.28.36-.69-.29-.5-.26.08-.45.36-.66.44-.17.06-.62.06-.73.19-.03.04-.25.55-.44.36-.11-.11.25-.42.29-.44.12-.12.01-.17,0-.22-.19.14-.48.44-.73.4.09-.3.52-.4.73-.55.1-.07.46-.36.44-.47-.05-.25-.72.21-.58-.26l2.01-.07c.83-.08.44-.55-.04-.84.12-.14.31-.1.46-.19.22-.12.61-.51.9-.57.22-.04.81.14,1.1.08.02.24.39.36.46.47.1.17.09.58.2.81.03.07.08.21.16.09.02-.03.13-.54.14-.63.06-.38.02-.88.08-1.23.03-.17.33-.43.2-.61-.03-.05-.24-.04-.21-.19.01-.06.64-.28.77-.33.17-.04.08.12.14.22.19.31.97-.26,1.16-.21.08.02.14.13.12.21Z"/>
  <path class="cls-1" d="M23.92,20.66c-.38-.49-.91-.99-1.39-1.39-.07-.06-.3-.16-.43-.26-.13-.11-.15-.29-.37-.36-.43-.14-.63.39-.99-.18-.17-.27-.11-1.06.15-1.16.09-.03.48.06.39-.12-.1-.19-.47-.39-.62-.54-.04-.04-.32-.38-.32-.41-.04-.16.22-.15.22-.22,0-.09-.14-.3-.19-.39-.21-.34-1.14-1.53-1.42-1.79-.32-.3-.91-.55-1.24-.88-.26-.26-.34-.39-.65-.66-.38-.34-.8-.66-1.08-1.1,0-.01-.01-.02-.02-.03-.08.17-.63.79-.81.8,0,0-.01,0-.02,0-.28-.06-.64-1.3-.89-1.37,0,0,0,0,0,0-.28-.08-.21.22-.28.35-.11.21-.91.24-1.17.22-.94-.06-1.62-.58-2.41-1.02-.03.03-.05.05-.06.07-.03.05-.05.1-.04.15,0,0,0,0,0,0,.04.22.39.41.43.6,0,0,0,0,0,0,.02.11,0,.13-.11.11l-1.71-.84c-.48-.1-.53,0-.5.21.01.1.05.23.06.38,0,.06,0,.16.01.26,0,.29,0,.67-.05.79-.15.34-.71.21-.95.42-.3-.2-.59-.73-.95-.78-.81-.12-.32.6-.4.65-.02.01-.19-.01-.29.04-.17.08-.17.33-.13.49v.03s.34.84.34.84l.44,1.13c.01.1-.33.38-.39.6-.13.46-.07,1.13.06,1.8.11.56.28,1.11.45,1.53,0,.02.02.04.03.06,0,.02.02.04.03.06.01.03.03.07.04.1.12.26.54.85.58,1.02.01.05.02.1.03.16.03.25.02.53.04.81,0,.15.02.29.06.44.15.71.48,1.54.93,2.34.6,1.08,1.41,2.11,2.25,2.7.07.05.13.09.2.13.06.04.13.07.2.11.21.1.44.19.62.31.6.43.97.98,1.7,1.36.1.05.4.12.42.13.01.01,0,.07,0,.1,0,.02,0,.04,0,.04,0,0,0,0,.01,0,.1.03.66-.05.82,0,.04.01.44.5.56.61.21.18.62.47.88.58.28.12.68.14.9.26.04.02.57.47.59.51.09.12.07.28.22.44.08.09,1.07.95,1.14.99.1.04.21-.05.36-.01.11.03.6.33.75.41.06.04.06.14.1.14.16.02.24-.15.36-.15.15,0,.57.3.82.35.6.1.9-.01.9-.68,0-.34-.32-.66-.35-.88-.02-.17.16-.4.12-.56-.03-.11-.34-.33-.44-.51-.29-.52-.46-1.36-.73-1.83-.06-.1-.19-.1-.21-.17-.01-.05-.06-.46-.06-.49,0-.04.56-.53.65-.59.2-.15.49-.25.69-.41.52-.4.95-1.1,1.22-1.7l.57-1.73c-.08-.18-.32-.66-.29-.8l.04-.07h.07s.03.07.04.07c.08.1.11.23.29.22,0-.17.13-.34.15-.44.1-.65-.42-.87-.37-1.46.14.01.3-.02.44,0ZM20.53,22.7s.05.05,0,.07v-.07ZM13.76,19.08c-.03.11-.21.19-.21.34-.06,0-.12.04-.14-.04-.1-.33-.08-.64-.07-.98.37-.02.52.36.42.68ZM20.74,26.28c-.06.19-.1.75-.36.8-.2.04-.29-.68-.32-.85-.02-.13.01-.28,0-.39,0-.01-.07-.21-.07-.22-.06-.06-.06.13-.15-.15-.03-.1-.05-.19-.07-.29-.12-.04-.16.05-.22.07l-.07.44c-.2.04-.17-.13-.22-.22-.1-.2-.19-.41-.31-.61-.07-.12-.46-.78-.57-.52-.15.34.09.77.08,1.12-.07,0-.09.01-.15-.04-.15-.13-.34-1.17-.45-1.44-.04-.1-.09-.15-.2-.13-.12.34,0,.83-.16,1.12-.06.1-.16.11-.21.18-.08.12-.12.29-.19.38-.17.22-.17,0-.25-.1-1.35-1.56-1.28-3.73-1.86-5.58-.11-.37-.28-.53-.38-.78-.08-.19-.39-1.28-.46-1.33-.27-.17-.29.39-.28.58-.76-.04,0-.87-.07-1.31-.47.01-.71.45-1.02.73v-1.28l-.29-.11c-.07-.26.2-.68.47-.66.23.02.88,1,1.17,1.24.17.14.74.61.77.22.28.16.43.98.69,1.09.22.1.11-.62.33-.44.04.03.19.71.22.73.06.04.26-.01.28-.11,0-.03-.08-.41-.11-.47-.08-.18-.64-.43-.25-.62.52-.26,1.27.28,1.6.66.26.29.97,1.41,1.02,1.75.03.21-.25.03-.44.07-.25.05-.15.26-.03.4.11.13.78.42.62.66-.1.14-1.02-.1-.87.46.05.17.85.37,1.01.34,0,0,.1-.13.15-.07.02.02-.02.12,0,.15.1.14.31.3.36.51.29-.08.59.09.81.25.09.06.18,0,.14.19-.27.02-.48-.22-.73-.26-.08-.01-.28-.03-.37-.03-.07,0-.17.06-.25.06-.15,0-.54-.17-.62.01,0,.01,0,.13,0,.15.01.02.31.28.37.32.54.43,1.53.81,1.75,1.5.06.21.17.45,0,.66,0,.04,0,.1,0,.15,0,.26-.11.1-.15.15-.02.02,0,.23-.07.29l.04.15c.19-.06.33-.19.55-.15.06.24-.13.39-.18.58Z"/>
  <path class="cls-1" d="M51.96,32.77c.18-.27.51-.89.48-1.2-.03-.35-.31-.09-.43-.06-.27.07-.53.1-.8.23-.7.34-1.85,1.65-1.85,2.46,0,.2.16.48.14.57-.02.09-.3.3-.38.42-.4.54-1.04,1.7-1.07,2.36,0,.11-.04.21.11.18.48-.49.76-1.29,1.42-1.53-.2.41-.63.69-.65,1.07h0s.02-.01.04-.02h0s.66-.69.66-.69c.04-.02.02.08.05.13,0,0,0,0,0,0l.02.02s0,0,0,0c.02,0,.04.01.07,0,.03-.01.05-.03.08-.05t0,0c.07-.1.12-.21.16-.33.02,0,.03-.01.05-.02,0,0,0,0,0,0,.07-.22.1-.47.19-.62.12-.21.46-.34.58-.51.13-.17.1-.1.15-.15.15-.15,1.06-1.07,1.08-1.15.07-.24-.05-.47-.31-.47-.07,0-.43.17-.33-.03.06-.12.42-.44.54-.63Z"/>
  <path class="cls-1" d="M56.31,39.89c0-.23.18-.55,0-.73-.27-.27-.31.03-.34.04-.15.04-.37-.01-.55,0,0,.02,0,.04,0,.06-.01.11-.06.2-.13.27,0,0,0,0,0,0-.03.03-.05.06-.08.08,0,0,0-.01,0-.02-.02.01-.03.02-.05.03.13-.01.03.19.09.27.02.03.12.01.13.06,0,.05-.1.6-.13.67-.01.03-.31.47-.37.58-.24.39-.24.29-.55.47-.55.32-.14.83.39.57v.29c.19,0,.27-.21.47-.21.24,0,.5.28.77.21l-.22-.58c.26,0,.42.09.36-.22.73.2.16-.42.15-.62,0-.32.05-.87.06-1.25Z"/>
  <path class="cls-1" d="M58.08,39.32s-.01-.12-.02-.13c-.18-.14-.5-.25-.73-.22-.07.38.04.57.44.58.09,0,.32-.01.41-.08-.01-.04-.03-.09-.05-.14-.02,0-.04,0-.05-.02Z"/>
  <path class="cls-1" d="M29.46,32.01c-.41-.56-.65-.16-.97-.27-.27-.09-.6-.41-.82-.57-.49-.37-.9.04-.75.6.07.27.46.5.6.71.09.14.1.29.17.41.28.48.7.74,1.07,1.12.46.46.54.68,1.12.99.14.07.87.85,1.03.69.21-.22-.75-1.36-.84-1.6-.2-.54-.31-1.67-.62-2.08Z"/>
  <path class="cls-1" d="M34.92,58.53s-.05-.05-.06-.06c-.21-.13-.47-.06-.66.07.02.12-.03.23.04.36.13.26.86.36.98,0-.09-.07-.2-.19-.31-.25,0-.04,0-.08,0-.12Z"/>
  <path class="cls-1" d="M27.08,42.63c-.05-.04-.11-.07-.17-.11s-.11-.07-.14-.13c-.08-.11-.08-.26-.15-.36-.08-.12-.18-.24-.28-.37-.05-.06-.1-.12-.15-.18-.02-.02-.03-.04-.05-.06-.11-.14-.21-.28-.29-.42-.03-.05-.05-.11-.08-.16-.11-.28-.17-.6-.22-.92s-.07-.65-.13-.95c-.03,0-.05,0-.07,0-.02,0-.03,0-.05.01h0s-.03.03-.03.05c0,.03,0,.07,0,.11,0,.01,0,.03,0,.04,0,.03-.01.06-.02.08-.02.03-.05.06-.08.1s-.07.06-.09.1c-.03.04-.04.09-.06.13-.04.11-.03.21,0,.3,0,.02.01.04.02.07.01.04.02.07.03.11.01.05.02.09.02.15,0,.02,0,.03,0,.05,0,.03-.01.05-.03.08-.04.07-.11.13-.1.21,0,.04.01.13.03.24,0,.05.02.11.03.17,0,.01,0,.02,0,.03,0,.05.02.11.03.16.05.27.11.54.15.62.06.14.13.24.2.34.1.12.21.22.33.34.03.03.06.06.09.09.03.03.06.07.09.11.05.07.09.14.15.21.07.09.16.16.29.16.02,0,.04,0,.06,0v-.29c.07-.02.14,0,.21.02.04.02.08.03.11.06.04.02.08.05.12.07.02.01.05.03.07.04.12.05.22.05.28-.15h0s-.06-.07-.09-.09Z"/>
  <path class="cls-1" d="M29.87,40.65h0s-.07.01-.09,0c-.06-.03-.06-.12-.11-.14-.07-.03-.15-.04-.23-.04-.15,0-.32.03-.46.1-.05.03-.1.06-.14.09-.02.02-.04.03-.05.05-.01,0-.02,0-.04,0,0,0,0,0-.01.01.01,0,.02,0,.03,0,.07,0,.13.01.2.03.09.02.18.05.27.08.02,0,.04.01.07.02.04.01.09.02.13.03.04,0,.09,0,.13,0,.09,0,.17-.02.25-.08.04-.02.04-.06.05-.09,0-.02,0-.03,0-.04,0-.01,0-.02,0-.02Z"/>
  <path class="cls-1" d="M45.62,58.47s-.02,0-.04,0c-.29-.06.01.4-.33.3,0,0,0,0-.02-.02-.06-.09-.21-.42-.24-.49-.03.01-.06,0-.09,0-.12-.03-.23-.16-.3-.14-.08.02-.25.32-.41.21-.02-.01-.07-.33-.25-.44-.24-.15-.49.07-.48-.4,0-.19.12-.36.08-.58-.03-.15-.16-.19-.2-.31-.03-.08,0-.21-.01-.24,0-.01-.03-.02-.06-.03-.2.01-.47-.07-.61.07-.1,0-.2,0-.29,0l-.22.07c-.23.02-.94.02-1.09.07,0,0,0,0,0,0,.02,0,.04,0,.07,0-.07.02-.21.1-.29.15,0,0,0,0,0,0l-.07.03s-.1.06-.16.08l-.07.03s-.04.05-.06.07c0,.17-.14.3-.16.47,0,0,0,0,0,0-.03.38.25.82.08,1.2.44-.12.78.42,1.24.37,0,0,0,.02,0,.03,0,0,0,0,.01,0,.01.07-.02.13-.06.17-.02.04-.03.07-.04.08,0,0-.05.01-.12.01-.04.01-.08.02-.11.03-.11.02-.34,0-.6-.02-.17,0-.31,0-.35-.01-.17-.02-.75-.11-.86-.14-.08-.02-.07-.18-.17-.21-.05-.02-.66-.09-.72-.09-.11,0-.18.05-.26.11-.04.07-.06.15-.1.16-.08.02-.18.02-.29.03-.07.01-.15.02-.25.01-.07,0-.15.02-.22.03-.03,0-.1.12-.22.07v-.23s-.06-.02-.09-.03c-.02,0-.05,0-.07,0l-.11-.07-.04.07h-.15s0-.03,0-.06c-.02,0-.03,0-.05.02-.03.71-.07,1,.35,1.66.09.15.3.3.34.39.07.14,0,.33.15.44,0-.26.18-.22.3-.36.11-.12.05-.29.18-.3.04.11.1.44.16.49.04.04.15.02.23.09.09.08.11.24.26.32.09.04.21.03.29.08.13.08.15.36.48.33.32-.03.22-.54.26-.59.11-.15.12.04.15.11.02.05.07.23.07.25.22-.05.09-.47.26-.51.03,0,.06,0,.09.02h0c.11.08.16.37.35.46.02.01.05.02.07.03.08.01.13,0,.16-.02.09-.08,0-.28,0-.38,0-.01,0-.03.02-.04.09-.09.16-.03.21.05.05.07.08.16.08.17.05.04.08.03.11,0,.03-.03.05-.07.07-.1h0s.02-.04.03-.04h0s.25-.51.25-.51c.09.18-.1.29-.11.51,0,.06,0,.1.01.14.03.13.1.17.18.15,0,0,0,0,0,0,.05-.01.1-.04.15-.08,0,0,0,0,0,0,.08-.07.15-.19.17-.31l.13.17h.01s.14,0,.22-.09c.16-.18.35-.52.51-.73.13-.17.35-.24.3-.51-.3-.13-.08-.08-.03-.13.07-.08.05-.31.24-.46.24-.19.36,0,.3-.5,0-.01,0-.03,0-.04,0,0-.03-.1-.12-.13-.15-.04-.72-.09-.81,0,0,0,0,.02-.01.03,0,.05-.01.14-.06.21,0,0,0,0,0,0-.05.06-.17.09-.29.1-.11,0-.22,0-.32-.04-.12-.05-.2-.13-.16-.27h0s.02-.05.04-.08c.07-.11.13-.18.19-.23.06-.04.11-.06.17-.07,0,0,0,0,0,0,.16-.02.33.04.57-.09.04-.02.07-.05.1-.08,0,0,0,0,0,0,.02-.02.04-.04.06-.07,0,0,0,0,0,0,0,0,0,0,0,0,.07-.08.1-.16.12-.16.14,0,.15.1.17.19,0,0,0,0,0,0,0,.03.02.06.03.09.01.02.04.03.06.05h0c.08.04.18.09.21.21,0,.02,0,.03,0,.05.05,0,.09,0,.12-.02.04-.02.08-.04.12-.07.03-.02.07-.05.1-.07t0,0c.07-.04.14-.07.23-.06,0,.02,0,.03-.01.04,0,0,0,0,0,0-.01.06,0,.1,0,.13.03.1.12.13.18.21.03.03.05.07.05.13.02,0,.04.05.06.09.02.03.04.05.07.06.09.02.48.06.57.06.15,0,.32-.14.46-.14,0,0,0,0,.01,0,0,0,0-.01,0-.02,0-.06.06-.09.07-.12.02-.04,0-.12.07-.15-.01-.01-.02-.03-.03-.05-.04-.1-.06-.28-.15-.31Z"/>
  <path class="cls-1" d="M37.23,58.24c.3-.02.68.07,1.02,0,.13-.02.2-.15.36-.15.2,0,.33.14.45.23.06.04.12.07.19.06h0s.01,0,.02,0c0,0,0,0,0,0h0s.12-.1.2-.18c0,0,0,0,0,0,0-.01.02-.02.03-.04.1-.15.24-.47.31-.77.05-.23.07-.45,0-.57,0-.01-.04-.07-.09-.13-.04-.05-.09-.09-.13-.15h0c-.06-.08-.12-.13-.14-.22-.04-.05-.07-.09-.08-.1-.07-.07-.31-.26-.49-.3-.04,0-.07,0-.1,0-.03,0-.05.02-.06.04.03.02.05.05.07.07.02.02.07.06.07.07,0,.03,0,.12,0,.15-.17,0-.34.01-.51,0-.02,0-.05,0-.07,0,.04-.19-.14-.17-.29-.22-.02,0-.05,0-.07,0-.02,0-.07-.08-.18-.08-.23,0-.47.14-.73.16-.06.01-.12.02-.18.02-.01.1-.08.54-.11.59-.06.12-.26.14-.37.22-.48.35-.14.8-.19.87-.01.02-.3.19-.34.21-.36.16-.58-.11-.97.02-.03.08.07.14.07.15.21-.12.35.04.49.17h0c.11.04.22.08.33.13h0c.13,0,.19-.05.24-.11,0,0,0,0,0,0,.02-.04.05-.09.09-.11h0s.08-.06.14-.07c.07,0,.1.02.13.06h0s.06.07.08.1c0,0,0,0,0,0,.04.02.11.05.11.06.2.04.33-.03.47-.09.07-.03.14-.06.22-.06Z"/>
</svg>