<?xml version="1.0" encoding="UTF-8"?>
<svg id="_레이어_1" data-name="레이어 1" xmlns="http://www.w3.org/2000/svg" viewBox="0 0 1900 200">
  <defs>
    <style>
      .cls-1 {
        fill: #bfbebe;
      }
    </style>
  </defs>
  <g>
    <path class="cls-1" d="M1649.88,135.8c.57,0,1.08.11,1.53.32.45.22.8.51,1.05.9s.38.83.38,1.33-.13.93-.38,1.31c-.26.38-.61.68-1.05.89-.45.22-.96.32-1.53.32s-1.08-.11-1.52-.32c-.45-.21-.8-.51-1.06-.89-.26-.38-.39-.82-.39-1.31s.13-.95.39-1.33.61-.68,1.06-.9c.45-.21.96-.32,1.52-.32ZM1649.88,136.86c-.33,0-.62.06-.88.19-.26.12-.46.3-.61.52s-.22.48-.22.78.07.57.22.79c.15.22.35.39.61.51.26.12.55.18.88.18s.62-.06.88-.18c.26-.12.46-.29.61-.51.15-.22.22-.49.22-.79s-.07-.56-.22-.78-.35-.4-.61-.52c-.26-.12-.55-.19-.87-.19ZM1648.6,141.68h7.43v2.91h-6.12v1.55h-1.28v-2.5h6.12v-.94h-6.15v-1.02ZM1648.63,145.6h7.75v1.02h-7.75v-1.02ZM1654.72,135.43h1.3v5.74h-1.3v-5.74Z"/>
    <path class="cls-1" d="M1658.48,136.44h5.07v4.1h-3.77v2.8h-1.28v-3.84h3.77v-2.02h-3.79v-1.04ZM1658.5,143.02h.89c.64,0,1.24,0,1.79-.03.55-.02,1.09-.05,1.61-.1.52-.05,1.06-.12,1.62-.21l.11,1.07c-.56.09-1.11.16-1.65.21-.54.05-1.09.08-1.65.11s-1.17.03-1.83.03h-.89v-1.08ZM1664.2,139.65h2.28v1.07h-2.28v-1.07ZM1666.19,135.42h1.29v11.36h-1.29v-11.36Z"/>
    <path class="cls-1" d="M1669.5,144.22h10.26v1.08h-10.26v-1.08ZM1673.89,136.15h1.13v.84c0,.5-.08.97-.23,1.42-.15.45-.37.87-.65,1.26s-.61.75-1,1.06c-.38.31-.81.58-1.27.8-.46.22-.95.38-1.45.49l-.57-1.08c.45-.08.87-.21,1.28-.39.4-.18.78-.4,1.12-.66.34-.26.63-.55.87-.86.24-.31.43-.64.57-.99.14-.35.2-.7.2-1.06v-.84ZM1674.14,136.15h1.13v.84c0,.36.07.72.21,1.07.14.35.33.68.58.99s.54.6.88.86c.34.26.71.47,1.12.65.4.18.83.31,1.28.39l-.57,1.08c-.5-.11-.99-.27-1.45-.49-.46-.22-.89-.49-1.27-.8s-.72-.67-1-1.06c-.28-.39-.5-.81-.66-1.26-.16-.45-.24-.92-.24-1.42v-.84Z"/>
    <path class="cls-1" d="M1680.91,144.31h10.26v1.07h-10.26v-1.07ZM1682.17,136.34h7.76v1.04h-6.45v4.34h-1.31v-5.38ZM1682.17,141.41h7.86v1.04h-7.86v-1.04ZM1683.09,138.84h6.59v1.03h-6.59v-1.03Z"/>
    <path class="cls-1" d="M1696.36,136.14h5.37v4.7h-5.37v-4.7ZM1700.76,143.29h1.12v.19c0,.41-.11.79-.32,1.15-.21.36-.52.68-.91.97-.39.29-.86.53-1.39.72-.53.19-1.12.33-1.75.4l-.43-.99c.44-.04.85-.11,1.23-.22.38-.1.72-.23,1.02-.38.3-.15.56-.31.78-.5.21-.18.38-.37.5-.57s.17-.4.17-.6v-.19ZM1697.52,142.59h7.82v.99h-7.82v-.99ZM1700.47,137.17h-2.84v2.64h2.84v-2.64ZM1700.78,141.57h1.31v1.48h-1.31v-1.48ZM1700.97,143.29h1.13v.19c0,.23.09.47.26.71.17.24.42.47.74.68.32.21.71.39,1.15.55.45.15.94.26,1.49.32l-.42.99c-.64-.08-1.23-.22-1.76-.42s-.99-.44-1.38-.73c-.39-.29-.69-.62-.9-.98-.21-.36-.32-.73-.32-1.12v-.19ZM1703.81,135.43h1.3v6.46h-1.3v-6.46Z"/>
    <path class="cls-1" d="M1710.72,140.73l-.14-.99c.38,0,.81,0,1.3,0s.99-.02,1.51-.04,1.05-.05,1.57-.1,1.01-.11,1.48-.18l.1.88c-.64.13-1.31.23-2.01.29-.71.06-1.39.1-2.05.12-.66.02-1.24.03-1.75.03ZM1713.59,135.82c.74,0,1.33.15,1.78.45.45.3.68.71.68,1.23s-.22.92-.68,1.23-1.04.46-1.78.46-1.34-.15-1.8-.46c-.46-.31-.68-.71-.68-1.23s.23-.93.68-1.23c.45-.3,1.05-.45,1.8-.45ZM1713.59,136.72c-.4,0-.71.07-.95.2-.24.14-.36.33-.36.58s.12.44.36.58c.24.14.56.2.95.2s.7-.07.94-.2c.24-.14.35-.33.35-.58s-.12-.44-.35-.58c-.24-.14-.55-.2-.94-.2ZM1712.49,142.81h1.29v.92h5.24v-.92h1.29v3.81h-7.82v-3.81ZM1713,140.19h1.24v2.18h-1.24v-2.18ZM1713.78,144.72v.88h5.24v-.88h-5.24ZM1715.13,141h2.38v.89h-2.38v-.89ZM1716.98,135.63h1.21v6.76h-1.21v-6.76ZM1719.07,135.43h1.24v6.99h-1.24v-6.99Z"/>
    <path class="cls-1" d="M1725.68,136.86h1.24c0,.76-.07,1.49-.2,2.19s-.36,1.37-.68,2.01c-.32.64-.75,1.24-1.28,1.79-.54.55-1.2,1.06-2,1.52l-.76-.9c.91-.53,1.63-1.12,2.17-1.76.54-.64.92-1.35,1.16-2.11s.35-1.59.35-2.49v-.25ZM1722.49,136.86h3.58v1.05h-3.58v-1.05ZM1727.95,135.72h1.21v10.51h-1.21v-10.51ZM1728.8,139.86h2.05v1.04h-2.05v-1.04ZM1730.45,135.42h1.25v11.33h-1.25v-11.33Z"/>
    <path class="cls-1" d="M1733.86,135.9h1.29v1.5h2.76v-1.5h1.29v4.95h-5.34v-4.95ZM1734.99,141.73h7.31v2.9h-6.01v1.54h-1.28v-2.49h6.01v-.94h-6.04v-1ZM1735.01,145.64h7.66v1.02h-7.66v-1.02ZM1735.15,138.4v1.44h2.76v-1.44h-2.76ZM1741.01,135.43h1.29v5.8h-1.29v-5.8ZM1741.77,137.75h2.13v1.07h-2.13v-1.07Z"/>
    <path class="cls-1" d="M1746.15,141.02c-.26,0-.49-.09-.68-.28-.19-.19-.28-.42-.28-.71s.09-.54.28-.73c.19-.19.41-.29.68-.29s.5.1.69.29c.19.19.28.43.28.73s-.09.53-.28.71-.42.28-.69.28ZM1746.15,145.91c-.26,0-.49-.1-.68-.29-.19-.19-.28-.44-.28-.72s.09-.54.28-.73c.19-.19.41-.28.68-.28s.5.09.69.28.28.43.28.73-.09.53-.28.72c-.19.19-.42.29-.69.29Z"/>
    <path class="cls-1" d="M1754.12,136.87h1.07v.83c0,.69-.13,1.35-.38,1.98-.25.62-.61,1.17-1.08,1.63-.47.46-1.04.81-1.71,1.05l-.67-1.03c.45-.16.84-.36,1.18-.61.34-.25.63-.53.87-.86.24-.32.42-.67.54-1.04.12-.37.18-.75.18-1.13v-.83ZM1751.72,136.29h6.06v1.04h-6.06v-1.04ZM1753.4,142.99h1.3v3.06h-1.3v-3.06ZM1753.4,145.47h7.64v1.05h-7.64v-1.05ZM1754.38,136.87h1.05v.82c0,.47.1.93.31,1.38.21.45.51.85.9,1.2.4.36.88.63,1.45.83l-.64,1.02c-.65-.23-1.21-.57-1.67-1.01-.46-.44-.81-.96-1.05-1.55-.24-.59-.36-1.21-.36-1.87v-.82ZM1757.39,138.47h2.75v1.05h-2.75v-1.05ZM1759.44,135.43h1.3v8.28h-1.3v-8.28Z"/>
    <path class="cls-1" d="M1762.74,141.17h10.26v1.04h-10.26v-1.04ZM1767.01,136.55h1.15v.32c0,.46-.11.89-.32,1.3-.21.4-.52.76-.9,1.08-.39.32-.85.58-1.39.79-.54.21-1.13.36-1.77.45l-.47-1.04c.44-.05.85-.13,1.23-.25s.72-.26,1.02-.43c.3-.17.56-.35.78-.55s.39-.42.5-.64c.12-.23.17-.46.17-.7v-.32ZM1763.69,135.95h8.38v1.04h-8.38v-1.04ZM1764,143.29h1.3v2.57h-1.3v-2.57ZM1764,145.47h7.87v1.05h-7.87v-1.05ZM1767.33,141.83h1.3v2.52h-1.3v-2.52ZM1767.59,136.55h1.15v.32c0,.23.06.46.17.69.12.23.28.45.5.65s.48.39.78.55c.31.17.65.31,1.03.43s.79.2,1.23.25l-.48,1.04c-.64-.09-1.22-.24-1.75-.45s-1-.47-1.39-.79c-.39-.32-.7-.68-.91-1.08-.21-.4-.32-.83-.32-1.3v-.32Z"/>
    <path class="cls-1" d="M1774.16,144.3h10.26v1.07h-10.26v-1.07ZM1775.3,136.33h7.93v5.43h-7.93v-5.43ZM1781.96,137.35h-5.38v3.37h5.38v-3.37ZM1778.62,141.56h1.3v3.01h-1.3v-3.01Z"/>
    <path class="cls-1" d="M1687.85,166.67h10.26v1.07h-10.26v-1.07ZM1689.06,158.53h7.83v3.59h-6.53v2.1h-1.28v-3.12h6.52v-1.51h-6.55v-1.05ZM1689.09,163.7h8.07v1.04h-8.07v-1.04ZM1692.31,164.37h1.3v2.74h-1.3v-2.74Z"/>
    <path class="cls-1" d="M1699.25,166.52h10.24v1.07h-10.24v-1.07ZM1700.32,158.8h7.24v1.05h-7.24v-1.05ZM1703.07,162.54h1.3v4.5h-1.3v-4.5ZM1707.09,158.8h1.29v1.1c0,.47,0,.97-.01,1.49s-.04,1.1-.1,1.72c-.06.63-.16,1.33-.31,2.12l-1.3-.15c.21-1.11.34-2.08.38-2.91.04-.83.06-1.59.06-2.27v-1.1Z"/>
    <path class="cls-1" d="M1711.36,158.79h5.4v1.07h-4.12v5.8h-1.29v-6.87ZM1711.36,165.25h.94c.77,0,1.45-.01,2.05-.03.6-.02,1.16-.06,1.69-.11.52-.05,1.06-.13,1.59-.23l.12,1.09c-.55.1-1.09.18-1.62.23-.54.05-1.11.09-1.73.11-.62.02-1.32.03-2.1.03h-.94v-1.08ZM1718.68,157.73h1.3v11.36h-1.3v-11.36Z"/>
    <path class="cls-1" d="M1724.74,159.43h1.04v1.59c0,.61-.08,1.22-.23,1.82s-.37,1.17-.65,1.7c-.28.53-.62,1-1.01,1.41-.39.41-.82.73-1.3.97l-.74-1.03c.43-.21.82-.5,1.17-.85.35-.35.66-.75.92-1.19.26-.44.46-.9.6-1.39s.2-.96.2-1.44v-1.59ZM1722.26,158.86h6.16v1.08h-6.16v-1.08ZM1725,159.43h1.03v1.59c0,.45.07.89.2,1.35.13.45.32.88.57,1.3.25.42.55.79.9,1.13.35.33.74.61,1.17.81l-.72,1.03c-.48-.23-.91-.54-1.3-.94-.38-.39-.71-.84-.99-1.35s-.49-1.04-.64-1.61c-.15-.57-.22-1.14-.22-1.72v-1.59ZM1729.54,157.75h1.3v11.33h-1.3v-11.33ZM1730.55,162.21h2.05v1.08h-2.05v-1.08Z"/>
    <path class="cls-1" d="M1736.69,158.5c.57,0,1.08.12,1.54.36.45.24.81.57,1.08,1,.26.43.4.92.4,1.47s-.13,1.03-.4,1.46c-.26.43-.62.76-1.08,1-.46.24-.97.36-1.54.36s-1.08-.12-1.54-.36c-.45-.24-.81-.57-1.08-1-.26-.43-.4-.92-.4-1.46s.13-1.04.4-1.47c.26-.43.62-.76,1.08-1,.45-.24.97-.36,1.54-.36ZM1736.69,159.63c-.33,0-.63.07-.89.21-.26.14-.47.34-.62.59-.15.25-.22.55-.22.9s.07.65.22.9c.15.25.36.45.62.59.26.14.56.21.89.21s.63-.07.89-.21c.26-.14.47-.34.63-.59.15-.25.23-.55.23-.9s-.08-.65-.23-.9-.36-.45-.63-.59c-.26-.14-.56-.21-.89-.21ZM1735.41,165.14h1.29v3.06h-1.29v-3.06ZM1735.41,167.79h7.71v1.05h-7.71v-1.05ZM1741.5,157.75h1.3v8.22h-1.3v-8.22Z"/>
    <path class="cls-1" d="M1746.15,163.34c-.26,0-.49-.09-.68-.28-.19-.19-.28-.42-.28-.71s.09-.54.28-.73c.19-.19.41-.29.68-.29s.5.1.69.29c.19.19.28.43.28.73s-.09.53-.28.71-.42.28-.69.28ZM1746.15,168.22c-.26,0-.49-.1-.68-.29-.19-.19-.28-.44-.28-.72s.09-.54.28-.73c.19-.19.41-.28.68-.28s.5.09.69.28.28.43.28.73-.09.53-.28.72c-.19.19-.42.29-.69.29Z"/>
    <path class="cls-1" d="M1754.12,158.89h1.07v.82c0,.71-.13,1.38-.38,2-.25.62-.61,1.17-1.08,1.65-.47.48-1.04.83-1.71,1.07l-.66-1.03c.44-.16.83-.36,1.17-.62.34-.26.63-.55.87-.88.24-.33.42-.68.54-1.05.12-.37.18-.75.18-1.14v-.82ZM1751.73,158.5h6.06v1.05h-6.06v-1.05ZM1756.97,164.79c.79,0,1.47.08,2.04.25.57.17,1,.41,1.31.73s.46.7.46,1.16c0,.68-.34,1.2-1.02,1.57-.68.37-1.61.56-2.79.56s-2.12-.19-2.8-.56c-.69-.37-1.03-.9-1.03-1.57,0-.45.15-.84.46-1.16s.75-.56,1.33-.73c.57-.17,1.25-.25,2.04-.25ZM1754.38,158.89h1.05v.82c0,.46.1.92.31,1.36.21.45.51.85.9,1.2.4.35.88.63,1.45.84l-.64,1.02c-.65-.23-1.21-.57-1.67-1.01s-.81-.96-1.05-1.55c-.24-.59-.36-1.21-.36-1.85v-.82ZM1756.97,165.78c-.54,0-.99.05-1.37.14-.38.09-.66.22-.86.38-.2.17-.3.38-.3.63,0,.24.1.45.3.62s.49.3.86.39c.38.09.83.13,1.37.13s.99-.04,1.36-.13c.37-.09.66-.22.86-.39.2-.17.3-.38.3-.62,0-.26-.1-.47-.3-.63-.2-.17-.49-.29-.86-.38-.37-.09-.83-.14-1.36-.14ZM1757.44,160.59h2.38v1.07h-2.38v-1.07ZM1759.44,157.75h1.3v6.74h-1.3v-6.74Z"/>
    <path class="cls-1" d="M1763.37,158.52h5.13v1.05h-3.84v3.78h-1.29v-4.83ZM1763.37,163.04h.87c.74,0,1.39,0,1.94-.03.55-.02,1.05-.05,1.51-.1.45-.05.91-.12,1.38-.21l.14,1.03c-.47.1-.94.17-1.41.22-.47.05-.99.08-1.56.11-.57.02-1.23.03-1.99.03h-.87v-1.05ZM1764.52,165.09h7.62v3.99h-1.3v-2.94h-6.32v-1.05ZM1767.89,160.62h3.3v1.04h-3.3v-1.04ZM1770.84,157.73h1.3v6.82h-1.3v-6.82Z"/>
    <path class="cls-1" d="M1774.16,163.24h10.24v1.03h-10.24v-1.03ZM1779.28,157.93c.83,0,1.54.08,2.14.25.6.17,1.07.41,1.4.73.33.32.49.7.49,1.15s-.16.83-.49,1.15c-.33.32-.79.56-1.4.73-.6.17-1.32.25-2.14.25s-1.54-.08-2.15-.25c-.61-.17-1.07-.41-1.4-.73s-.49-.7-.49-1.15.16-.83.49-1.15.79-.56,1.4-.73c.61-.17,1.32-.25,2.15-.25ZM1779.26,165.01c1.22,0,2.18.17,2.87.52.69.35,1.04.85,1.04,1.5s-.35,1.14-1.04,1.5c-.69.36-1.65.53-2.87.53s-2.17-.18-2.86-.53c-.69-.36-1.04-.86-1.04-1.5s.35-1.15,1.04-1.5c.69-.35,1.64-.52,2.86-.52ZM1779.28,158.92c-.56,0-1.05.05-1.45.14s-.71.22-.93.38c-.21.17-.32.37-.32.62s.11.44.32.61c.21.17.52.3.93.39s.89.14,1.45.14,1.04-.05,1.44-.14c.4-.09.71-.22.92-.39.21-.17.32-.37.32-.61s-.11-.45-.32-.62c-.22-.17-.52-.29-.92-.38-.4-.09-.88-.14-1.44-.14ZM1776.59,161.55h1.29v2.12h-1.29v-2.12ZM1779.26,165.99c-.55,0-1.01.04-1.4.12s-.68.19-.89.35c-.2.15-.3.35-.3.58s.1.42.3.58c.2.15.5.27.89.35s.86.12,1.4.12,1.04-.04,1.42-.12c.38-.08.68-.19.87-.35.2-.15.3-.35.3-.58s-.1-.42-.3-.58c-.2-.15-.49-.27-.87-.35-.38-.08-.86-.12-1.42-.12ZM1780.67,161.55h1.29v2.12h-1.29v-2.12Z"/>
    <path class="cls-1" d="M1656.2,190.36v-9.14h2.84c.62,0,1.17.07,1.65.22.48.15.86.39,1.14.71.28.33.42.76.42,1.31,0,.3-.05.58-.15.84-.1.26-.25.5-.44.7s-.43.35-.71.44v.06c.52.11.95.34,1.29.7.34.36.51.85.51,1.47s-.15,1.1-.45,1.5-.71.69-1.24.89c-.53.19-1.13.29-1.8.29h-3.05ZM1657.64,185.04h1.23c.69,0,1.2-.12,1.51-.37.31-.25.46-.58.46-1,0-.47-.16-.81-.48-1.01s-.81-.3-1.45-.3h-1.26v2.69ZM1657.64,189.23h1.45c.71,0,1.26-.13,1.65-.4.39-.26.59-.67.59-1.23,0-.51-.19-.89-.58-1.12-.38-.24-.94-.35-1.67-.35h-1.45v3.1Z"/>
    <path class="cls-1" d="M1668.2,190.54c-.81,0-1.54-.19-2.18-.56s-1.14-.91-1.51-1.61c-.37-.7-.55-1.55-.55-2.55,0-.74.11-1.41.33-2,.22-.59.52-1.08.9-1.49.38-.41.84-.72,1.35-.94s1.08-.32,1.69-.32c.64,0,1.19.12,1.63.36.44.24.8.5,1.07.79l-.77.92c-.23-.22-.5-.42-.79-.58-.3-.16-.67-.24-1.1-.24-.56,0-1.06.14-1.48.42-.43.28-.76.68-.99,1.19-.24.51-.35,1.13-.35,1.85s.11,1.34.33,1.87c.22.53.55.93.98,1.21.43.28.96.42,1.59.42.28,0,.55-.04.8-.12.25-.08.46-.19.61-.33v-2.13h-1.8v-1.19h3.11v3.95c-.31.31-.71.56-1.2.77-.5.21-1.05.31-1.67.31Z"/>
    <path class="cls-1" d="M1673.16,190.36v-9.14h1.66l1.66,4.62c.11.3.21.6.31.91.1.31.2.62.3.92h.06c.11-.31.21-.61.3-.92s.19-.61.29-.91l1.64-4.62h1.67v9.14h-1.34v-4.51c0-.27.01-.57.03-.91.02-.33.05-.67.07-1,.03-.34.06-.64.09-.92h-.06l-.73,2.11-1.59,4.35h-.89l-1.6-4.35-.73-2.11h-.05c.03.27.06.58.09.92.03.34.05.67.07,1,.02.33.03.63.03.91v4.51h-1.3Z"/>
    <path class="cls-1" d="M1686.46,184.69l-.29-2.47-.04-1.46h1.48l-.04,1.46-.27,2.47h-.84Z"/>
    <path class="cls-1" d="M1689.3,184.7h10.24v1.03h-10.24v-1.03ZM1693.75,180.14h1.1v.32c0,.39-.07.75-.22,1.09-.15.34-.36.65-.63.93s-.6.53-.99.75c-.38.22-.81.4-1.27.55-.46.15-.96.26-1.48.32l-.43-.99c.45-.05.88-.13,1.28-.24.4-.11.76-.25,1.08-.42.32-.17.6-.36.83-.57s.41-.44.53-.68c.12-.24.19-.49.19-.74v-.32ZM1690.5,186.59h7.75v2.75h-6.45v1.19h-1.28v-2.11h6.45v-.86h-6.47v-.98ZM1690.53,190.29h8.05v.99h-8.05v-.99ZM1693.98,180.14h1.09v.32c0,.26.06.5.19.74.12.24.3.46.53.68.23.21.51.4.84.57.33.17.69.31,1.08.42s.82.19,1.28.24l-.43.99c-.52-.07-1.01-.17-1.48-.32-.46-.15-.88-.33-1.26-.55-.38-.22-.71-.47-.98-.75-.27-.28-.48-.59-.63-.93-.15-.34-.22-.7-.22-1.09v-.32Z"/>
    <path class="cls-1" d="M1700.7,186h10.24v1.05h-10.24v-1.05ZM1701.62,180.58h8.38v1.04h-8.38v-1.04ZM1701.68,183.9h8.24v1.03h-8.24v-1.03ZM1701.98,187.96h1.3v2.47h-1.3v-2.47ZM1701.98,190.1h7.82v1.05h-7.82v-1.05ZM1703.22,181.03h1.29v3.37h-1.29v-3.37ZM1707.11,181.03h1.29v3.37h-1.29v-3.37Z"/>
    <path class="cls-1" d="M1720.3,181.25h1.29c0,.84-.09,1.65-.27,2.42-.18.77-.48,1.5-.89,2.19-.41.69-.95,1.33-1.61,1.92s-1.49,1.12-2.46,1.59l-.69-1.03c1.1-.53,1.99-1.13,2.67-1.81.68-.68,1.18-1.44,1.49-2.27.32-.84.48-1.76.48-2.77v-.22ZM1716.22,181.25h4.66v1.04h-4.66v-1.04ZM1723.64,180.05h1.3v11.33h-1.3v-11.33Z"/>
    <path class="cls-1" d="M1730.09,180.67c.55,0,1.05.12,1.5.35.45.24.8.56,1.05.98.26.42.38.89.38,1.43s-.13,1.01-.38,1.43c-.26.42-.61.74-1.05.98s-.95.35-1.5.35-1.07-.12-1.51-.35c-.45-.24-.8-.56-1.05-.98-.26-.42-.38-.89-.38-1.43s.13-1.01.38-1.43c.26-.42.61-.74,1.05-.98.45-.24.95-.35,1.51-.35ZM1730.09,181.77c-.32,0-.61.07-.87.21-.26.14-.46.33-.61.58-.15.25-.22.54-.22.87s.07.62.22.87c.15.25.35.44.61.58.26.14.55.2.88.2s.61-.07.87-.2c.26-.14.46-.33.61-.58.15-.25.22-.54.22-.87s-.07-.62-.22-.87c-.15-.25-.35-.44-.61-.58-.26-.14-.54-.21-.87-.21ZM1728.74,187.33h7.62v4.07h-1.3v-3.02h-6.32v-1.04ZM1732.55,182.89h2.91v1.07h-2.91v-1.07ZM1735.07,180.06h1.3v6.68h-1.3v-6.68Z"/>
    <path class="cls-1" d="M1739.24,184.69l-.29-2.47-.04-1.46h1.48l-.04,1.46-.27,2.47h-.84Z"/>
    <path class="cls-1" d="M1746.15,185.65c-.26,0-.49-.09-.68-.28-.19-.19-.28-.42-.28-.71s.09-.54.28-.73c.19-.19.41-.29.68-.29s.5.1.69.29c.19.19.28.43.28.73s-.09.53-.28.71-.42.28-.69.28ZM1746.15,190.54c-.26,0-.49-.1-.68-.29-.19-.19-.28-.44-.28-.72s.09-.54.28-.73c.19-.19.41-.28.68-.28s.5.09.69.28.28.43.28.73-.09.53-.28.72c-.19.19-.42.29-.69.29Z"/>
    <path class="cls-1" d="M1755.93,180.74h1.36c0,.98-.21,1.86-.64,2.63-.43.77-1.04,1.43-1.83,1.97-.8.54-1.75.96-2.87,1.26l-.5-1.03c.96-.25,1.77-.58,2.44-.99s1.17-.89,1.52-1.44.52-1.14.52-1.78v-.62ZM1752.07,180.74h4.66v1.04h-4.66v-1.04ZM1753.3,186.93h7.39v4.31h-7.39v-4.31ZM1759.41,187.96h-4.83v2.24h4.83v-2.24ZM1759.39,180.06h1.3v6.35h-1.3v-6.35Z"/>
    <path class="cls-1" d="M1765.74,182.86h1.03v.79c0,.6-.07,1.19-.22,1.77s-.36,1.11-.64,1.61c-.28.5-.62.93-1,1.31s-.83.68-1.31.9l-.71-1c.45-.21.84-.47,1.19-.79.35-.32.64-.69.89-1.1.25-.41.44-.84.57-1.3.13-.46.2-.92.2-1.39v-.79ZM1763.24,181.97h6.26v1.03h-6.26v-1.03ZM1765.73,180.28h1.3v2.24h-1.3v-2.24ZM1766.01,182.86h1.03v.79c0,.45.07.89.2,1.33.13.44.32.85.58,1.25s.56.75.91,1.06c.36.31.75.57,1.19.76l-.71,1c-.48-.21-.92-.51-1.31-.87-.4-.37-.74-.79-1.02-1.26-.28-.48-.5-.99-.65-1.54-.15-.55-.22-1.12-.22-1.71v-.79ZM1770.79,180.05h1.3v11.33h-1.3v-11.33Z"/>
    <path class="cls-1" d="M1774.19,181.2h6.29v1.03h-6.29v-1.03ZM1777.37,182.73c.52,0,.97.09,1.36.27.39.18.69.42.92.74.22.31.33.68.33,1.1s-.11.79-.33,1.11-.53.57-.92.74-.84.27-1.36.27-.95-.09-1.35-.27c-.39-.18-.7-.43-.92-.74-.22-.32-.34-.69-.34-1.11s.11-.79.34-1.1c.22-.31.53-.56.92-.74.39-.18.84-.27,1.35-.27ZM1779.79,187.46c.79,0,1.46.08,2.03.23.57.15,1.01.38,1.32.67.31.29.46.65.46,1.06s-.15.75-.46,1.05c-.31.29-.75.52-1.32.67-.57.15-1.25.23-2.03.23s-1.48-.08-2.05-.23c-.57-.15-1.01-.38-1.32-.67-.31-.29-.46-.64-.46-1.05s.15-.77.46-1.06c.31-.29.75-.52,1.32-.67.57-.15,1.25-.23,2.05-.23ZM1777.37,183.72c-.41,0-.75.1-1,.3s-.38.48-.38.83.13.62.38.82c.25.2.58.3,1,.3s.76-.1,1.02-.3c.26-.2.38-.48.38-.82s-.13-.63-.38-.83c-.26-.2-.6-.3-1.02-.3ZM1776.74,179.96h1.3v1.96h-1.3v-1.96ZM1779.79,188.47c-.78,0-1.38.08-1.82.24-.43.16-.65.4-.65.72,0,.31.22.54.65.71.43.17,1.04.25,1.82.25s1.37-.08,1.8-.25.65-.4.65-.71c0-.32-.22-.56-.65-.72-.43-.16-1.04-.24-1.8-.24ZM1780.52,184.91h2.21v1.04h-2.21v-1.04ZM1780.55,182.68h2.21v1.04h-2.21v-1.04ZM1782.25,180.05h1.3v7.28h-1.3v-7.28Z"/>
  </g>
  <path class="cls-1" d="M1692.56,81.68l3.83-5.1-3.59-4.79h2.34l1.62,2.32c.17.23.33.47.48.7.15.23.34.5.55.81h.07c.17-.3.33-.57.47-.81.15-.23.3-.46.45-.7l1.56-2.32h2.21l-3.58,4.86,3.83,5.03h-2.34l-1.76-2.46c-.17-.25-.34-.51-.53-.77-.18-.26-.38-.54-.58-.84h-.07c-.18.3-.36.57-.53.84-.17.26-.34.52-.51.77l-1.71,2.46h-2.23Z"/>
  <g>
    <path class="cls-1" d="M1727.43,110.71l-.15-1.05c.67,0,1.41,0,2.19-.01.79,0,1.59-.04,2.39-.09.81-.05,1.59-.12,2.33-.21l.09.91c-.76.12-1.55.22-2.35.28-.8.07-1.59.11-2.36.13-.77.02-1.49.03-2.14.03ZM1727.95,105.11h4.86v1.04h-4.86v-1.04ZM1732.49,111.47c.78,0,1.45.08,2.02.24.56.16,1,.4,1.3.7.3.3.46.67.46,1.1s-.15.8-.46,1.1c-.3.3-.74.54-1.3.71-.56.17-1.24.25-2.02.25s-1.43-.08-1.99-.25c-.56-.17-1-.4-1.3-.71-.3-.3-.46-.67-.46-1.1s.15-.8.46-1.1c.3-.3.74-.54,1.3-.7.56-.16,1.23-.24,1.99-.24ZM1729.5,107.56h1.25v2.7h-1.25v-2.7ZM1732.49,112.46c-.77,0-1.37.09-1.81.27-.43.18-.65.44-.65.79s.22.6.65.78c.43.18,1.04.27,1.81.27s1.38-.09,1.82-.27c.43-.18.65-.44.65-.78s-.22-.6-.65-.79c-.43-.18-1.04-.27-1.82-.27ZM1732.3,105.11h1.25v.66c0,.36-.01.78-.03,1.28-.02.5-.1,1.06-.25,1.69l-1.24-.1c.14-.63.22-1.17.24-1.64.02-.47.03-.88.03-1.24v-.66ZM1734.88,104.45h1.28v6.88h-1.28v-6.88ZM1735.63,107.35h2.01v1.07h-2.01v-1.07Z"/>
    <path class="cls-1" d="M1738.61,110.71h10.06v1.04h-10.06v-1.04ZM1742.92,105.62h1.11v.4c0,.4-.07.77-.21,1.13s-.35.68-.62.99-.58.57-.94.81c-.36.24-.76.43-1.21.6-.44.16-.92.28-1.42.37l-.48-1.01c.44-.06.85-.15,1.22-.28.38-.13.72-.29,1.04-.48.31-.19.58-.39.8-.62s.4-.47.52-.72c.12-.25.18-.51.18-.78v-.4ZM1739.54,105.1h8.2v1.01h-8.2v-1.01ZM1742.98,111.42h1.27v4.17h-1.27v-4.17ZM1743.26,105.62h1.11v.4c0,.27.06.53.18.78.12.25.29.49.52.72s.5.43.8.62c.31.19.65.35,1.04.48.38.13.79.22,1.23.28l-.48,1.01c-.5-.08-.98-.2-1.42-.37s-.85-.36-1.21-.6c-.37-.24-.68-.51-.94-.81s-.47-.63-.61-.99-.21-.73-.21-1.13v-.4Z"/>
    <path class="cls-1" d="M1752.32,105.32c.49,0,.91.16,1.27.48.36.32.64.78.83,1.36.19.59.29,1.29.29,2.11s-.1,1.51-.29,2.11c-.19.59-.47,1.05-.83,1.36-.36.32-.79.48-1.27.48s-.9-.16-1.25-.48c-.36-.32-.63-.77-.83-1.36-.19-.59-.29-1.3-.29-2.11s.1-1.52.29-2.11c.19-.59.47-1.04.83-1.36.36-.32.78-.48,1.25-.48ZM1752.32,106.52c-.25,0-.47.11-.65.32-.18.21-.32.52-.43.93-.1.41-.15.91-.15,1.5s.05,1.07.15,1.49c.1.41.24.73.43.94.18.22.4.32.65.32s.48-.11.67-.32c.19-.21.33-.53.43-.94.1-.41.15-.91.15-1.49s-.05-1.09-.15-1.5c-.1-.41-.24-.72-.43-.93-.19-.21-.41-.32-.67-.32ZM1754.24,107.05h2.03v1.04h-2.03v-1.04ZM1754.24,110.46h2.03v1.04h-2.03v-1.04ZM1755.9,104.67h1.21v10.39h-1.21v-10.39ZM1758.1,104.45h1.22v11.14h-1.22v-11.14Z"/>
    <path class="cls-1" d="M1761.03,108.97h10.06v1.02h-10.06v-1.02ZM1765.4,104.51h1.08v.32c0,.38-.07.74-.22,1.07-.15.33-.36.63-.63.91-.27.28-.6.52-.97.73-.37.21-.79.39-1.24.53s-.94.24-1.45.3l-.43-.96c.45-.05.86-.13,1.25-.24.39-.11.75-.25,1.07-.41.32-.16.59-.35.82-.55.23-.2.4-.42.52-.65.12-.23.18-.47.18-.72v-.32ZM1762.21,110.92h7.61v2.69h-6.34v1.17h-1.25v-2.07h6.34v-.83h-6.36v-.96ZM1762.23,114.52h7.91v.97h-7.91v-.97ZM1765.41,109.75h1.27v1.63h-1.27v-1.63ZM1765.63,104.51h1.07v.32c0,.25.06.49.18.72.12.23.3.45.53.65.23.2.51.39.82.55.32.16.67.3,1.07.41.39.11.81.19,1.26.24l-.44.96c-.51-.06-.99-.16-1.44-.3s-.86-.32-1.24-.53c-.38-.21-.7-.45-.97-.73s-.47-.58-.62-.91c-.15-.33-.22-.68-.22-1.07v-.32Z"/>
    <path class="cls-1" d="M1772.24,113.24h10.09v1.05h-10.09v-1.05ZM1773.43,105.23h7.7v3.53h-6.42v2.06h-1.25v-3.07h6.41v-1.49h-6.43v-1.04ZM1773.46,110.31h7.93v1.02h-7.93v-1.02ZM1776.62,110.97h1.28v2.69h-1.28v-2.69Z"/>
  </g>
  <g>
    <path class="cls-1" d="M1585.2,105.37h1.27v2.84h2.77v-2.84h1.25v7.6h-5.29v-7.6ZM1586.47,109.2v2.73h2.77v-2.73h-2.77ZM1592.16,104.46h1.28v11.14h-1.28v-11.14ZM1593.16,108.73h2.01v1.07h-2.01v-1.07Z"/>
    <path class="cls-1" d="M1596.18,111.47l-.16-1.05c.67,0,1.42,0,2.23-.02.81-.02,1.65-.05,2.5-.11.86-.06,1.68-.15,2.48-.27l.09.95c-.81.15-1.64.27-2.49.34-.85.07-1.67.12-2.46.13-.79.02-1.52.02-2.19.02ZM1599.64,104.94c.56,0,1.06.1,1.49.3.43.2.78.47,1.02.82.25.35.37.76.37,1.22s-.12.86-.37,1.21c-.25.35-.59.62-1.02.82-.43.2-.93.3-1.49.3s-1.04-.1-1.47-.3c-.43-.2-.77-.47-1.02-.82-.25-.35-.37-.75-.37-1.21s.12-.87.37-1.22c.25-.35.59-.62,1.02-.82.43-.2.92-.3,1.47-.3ZM1599.64,105.99c-.32,0-.6.05-.85.16-.25.11-.44.25-.58.44-.14.19-.21.42-.21.69s.07.49.21.68c.14.19.34.34.58.44.25.11.53.16.85.16s.61-.05.86-.16c.25-.11.44-.25.58-.44.14-.19.21-.42.21-.68s-.07-.5-.21-.69-.34-.34-.58-.44c-.25-.11-.53-.16-.86-.16ZM1599.06,110.79h1.29v4.46h-1.29v-4.46ZM1603.97,104.46h1.27v11.14h-1.27v-11.14Z"/>
    <path class="cls-1" d="M1607.24,108.9h10.04v1.01h-10.04v-1.01ZM1615.19,106.79v.89l-6.83.29-.16-.99,6.99-.19ZM1608.38,110.78h7.77v2.77h-6.48v1.36h-1.27v-2.3h6.48v-.84h-6.51v-.99ZM1608.4,114.48h8.13v.97h-8.13v-.97ZM1608.5,104.93h7.12v1h-7.12v-1ZM1614.81,104.93h1.25v.9c0,.48-.01.99-.04,1.55-.02.55-.11,1.18-.27,1.88l-1.25-.12c.15-.69.24-1.3.27-1.82.02-.52.04-1.02.04-1.49v-.9Z"/>
    <path class="cls-1" d="M1618.87,105.45h5.08v4.13h-3.79v2.74h-1.27v-3.76h3.79v-2.07h-3.81v-1.04ZM1618.89,111.91h.91c.67,0,1.28,0,1.85-.02.56-.02,1.11-.05,1.65-.11.54-.06,1.08-.13,1.63-.23l.12,1.05c-.58.1-1.14.17-1.68.23-.54.06-1.1.1-1.68.12-.58.02-1.21.03-1.89.03h-.91v-1.06ZM1625.8,104.45h1.28v11.16h-1.28v-11.16ZM1626.78,108.78h2.01v1.06h-2.01v-1.06Z"/>
    <path class="cls-1" d="M1632.89,105.27c.55,0,1.05.16,1.48.49.43.33.77.78,1.02,1.36.24.58.37,1.28.37,2.07s-.12,1.5-.37,2.09c-.24.59-.58,1.04-1.02,1.36-.43.32-.93.48-1.48.48s-1.05-.16-1.48-.48c-.43-.32-.78-.78-1.02-1.36-.25-.59-.37-1.29-.37-2.09s.12-1.49.37-2.07c.25-.58.59-1.04,1.02-1.36.43-.32.93-.49,1.48-.49ZM1632.89,106.43c-.32,0-.61.11-.86.33s-.44.54-.58.95c-.14.41-.21.91-.21,1.49s.07,1.08.21,1.5.33.73.58.96.53.33.86.33.61-.11.85-.33.43-.54.57-.96.21-.91.21-1.5-.07-1.07-.21-1.49c-.14-.41-.33-.73-.57-.95s-.53-.33-.85-.33ZM1637.53,104.45h1.28v11.16h-1.28v-11.16Z"/>
    <path class="cls-1" d="M1641.43,105.26h5.28v4.92h-5.28v-4.92ZM1646.33,111.26c.77,0,1.44.09,2,.26.56.17,1,.42,1.3.74.3.32.46.71.46,1.16s-.15.84-.46,1.17-.74.57-1.3.74c-.56.17-1.23.25-2,.25s-1.44-.08-2-.25c-.56-.17-1-.41-1.3-.74-.3-.32-.46-.71-.46-1.17s.15-.84.46-1.16c.3-.32.74-.56,1.3-.74.56-.17,1.23-.26,2-.26ZM1645.46,106.28h-2.79v2.88h2.79v-2.88ZM1646.33,112.26c-.53,0-.98.04-1.35.13-.37.09-.66.22-.85.39s-.29.38-.29.63.1.47.29.64.48.31.85.4c.37.09.82.13,1.35.13s.98-.04,1.35-.13c.37-.09.65-.22.85-.4s.3-.39.3-.64-.1-.46-.3-.63-.48-.3-.85-.39c-.37-.09-.82-.13-1.35-.13ZM1648.75,104.46h1.28v6.6h-1.28v-6.6Z"/>
    <path class="cls-1" d="M1654.22,105.23h1v1.54c0,.62-.09,1.22-.27,1.81-.18.59-.46,1.12-.83,1.6-.37.48-.84.85-1.4,1.11l-.71-.99c.5-.24.91-.56,1.24-.94.33-.38.57-.8.74-1.25.16-.45.24-.9.24-1.35v-1.54ZM1654.12,111.8h1.28v3.16h-1.28v-3.16ZM1654.12,114.33h7.68v1.04h-7.68v-1.04ZM1654.47,105.23h.99v1.54c0,.44.08.86.23,1.28.15.41.38.79.69,1.14s.69.63,1.15.85l-.69.96c-.54-.24-.98-.58-1.33-1.02-.35-.43-.61-.93-.77-1.49-.17-.56-.25-1.13-.25-1.72v-1.54ZM1656.54,107.14h1.95v1.05h-1.95v-1.05ZM1658.08,104.66h1.19v7.82h-1.19v-7.82ZM1660.28,104.46h1.22v8.33h-1.22v-8.33Z"/>
    <path class="cls-1" d="M1663.79,105.43h5.14v1.05h-3.87v5.82h-1.27v-6.87ZM1663.79,111.97h.86c.67,0,1.27,0,1.81-.02.54-.02,1.06-.05,1.55-.09.5-.04,1-.11,1.52-.2l.12,1.02c-.54.09-1.06.16-1.57.21s-1.04.08-1.6.1c-.56.02-1.17.02-1.85.02h-.86v-1.04ZM1664.74,108.55h3.75v1.01h-3.75v-1.01ZM1669.11,108.52h2.3v1.05h-2.3v-1.05ZM1671.24,104.45h1.28v11.16h-1.28v-11.16Z"/>
  </g>
  <g>
    <path class="cls-1" d="M1665.54,74.59c-.02-.13.02-.29.06-.43.27-.64.25-1.5.02-2.19-.22-.51-.29-1.11-.36-1.64-.02-.15-.05-.31-.02-.46.05-.24.29-.42.42-.64.27-.38.45-.92.32-1.39-.21-.91-.64-1.05-1.25-1.56-.37-.35-.65-.82-.87-1.28-.19-.35-.53-.64-.79-.92-.17-.17-.15-.43-.24-.64-.07-.2-.21-.37-.26-.58-.05-.27.07-.56.02-.85-.09-.84-.74-1.56-1.58-1.67-.23-.02-.5.02-.74.02-.17,0-.3-.11-.41-.23-.16-.16-.38-.28-.58-.39-.33-.18-.78-.16-1.14-.11-.2.04-.38.14-.57.21-.49.21-.73-.39-1.14-.54-.48-.26-.97-.1-1.49-.14-.37-.06-.79-.2-1.18-.15-.29,0-.59-.15-.9-.15-.3,0-.61.14-.9.03-.28-.09-.41-.35-.65-.53-.32-.25-.72-.38-1.12-.38-.52-.03-1,.24-1.43.52-.23.12-.45-.04-.63-.19-.36-.26-.83-.35-1.27-.31-.36.03-.54-.31-.81-.49-.72-.45-1.51-.31-2.24.04-.4.09-.85-.03-1.21.19-.21.1-.38.09-.57.03-.19-.06-.4-.05-.61-.03-.29.02-.59.25-.88.25-.18,0-.28-.18-.4-.29-.42-.4-1.16-.57-1.73-.44-.4.09-.77.31-1.07.62-.14.17-.26.35-.51.35-.54.03-1.08-.1-1.56-.36-.21-.12-.45-.13-.66-.24-.37-.29-.75-.57-1.21-.68-.51-.12-.99.1-1.41.35-.2.13-.36.33-.55.39-.13.04-.26.04-.39.08-.13.04-.26.1-.39.13-.34.1-.69-.05-1.04-.04-.25,0-.49.06-.73.09-.36.05-.77-.03-1.13.05-.19.04-.37.11-.56.09-.42-.07-.74-.42-1.17-.41-.45-.05-.8.06-1.17.3-.14.07-.29.09-.41-.03-.71-.83-2.08-.81-2.85-.08-.16.1-.35.06-.53.03-.16-.03-.35-.02-.49-.08-.71-.58-1.43-1.03-2.37-.6-.23.1-.45.29-.7.31-.37,0-.72.03-1.11.05-.47.09-.74-.36-1.09-.57-.54-.32-1.29-.28-1.88-.06-.3,0-.57-.19-.87-.23h-.02c-.16-.03-.31.01-.46.06-.18.06-.42.07-.59.17-.32.19-.62.5-.82.8-.11.14-.29.13-.42.03-.67-.68-1.75-.9-2.56-.33-.24.15-.41.51-.71.55-.21.03-.47-.09-.67-.16-.39-.16-.89-.17-1.3-.06-.34.12-.66.31-.91.58-.45.35-.92-.23-1.89.27-.62.31-1.25.52-1.8.92-.41.26-.88.4-1.21.73-.24.24-.48.48-.79.61-.33.16-.65.22-.93.46-.64.54-1.1,1.2-1.65,1.82-.38.45-.81.89-1.2,1.34-.55.58-1.1,1.19-1.63,1.79-.75.74-1.02,1.11-.81,2.17.01.18-.08.31-.2.43-.32.36-.47.93-.39,1.39.08.46.31.77.47,1.16.09.26-.1.45-.24.64-.29.51-.35,1.17-.09,1.75.1.23.27.43.29.68.01.46,0,.93.08,1.39-.03.34-.17.75-.04,1.1.07.42.61.87.29,1.28-.62.84-.35,2.17.55,2.68.25.19.64.18.79.42.11.27.2.56.36.8.13.25.15.5.19.81.04.3.13.59.31.83.14.2.34.39.38.64.01.84.24,1.32.92,1.79.17.12.37.18.49.35.1.13.13.31.19.46.1.32.3.62.54.84.25.22.54.35.7.64.28.45.8.69,1.29.79.36.05.69.02,1.06.16.43.08.73.36,1.14.51.36.17.73.36,1.15.3.28-.01.6-.08.86.05.18.08.32.22.49.3.16.08.33.12.5.17.45.18.85.57,1.34.63.29.05.6.04.9-.06.18-.06.35-.18.55-.18.14,0,.28.06.41.1.45.14.91.11,1.35.01.34-.08.74.05,1.1-.08.18-.04.39-.18.56-.04.23.26.43.55.75.71.27.15.56.26.87.29.3.02.58-.15.83-.11.26.06.53.1.78,0,.18-.05.4-.07.6-.2.14-.09.29-.21.46-.23.15-.02.29.03.43.07.42.12.81-.22,1.23-.2.18.02.31.15.48.23.28.15.6.26.91.24.87-.04,1.06-.63,1.99-.15.69.2,1.4.28,2-.11.49-.31,1.04-.38,1.45.09.26.22.55.37.79.62.64.72,1.58,1.02,2.45.53.4-.11.56-.56.94-.69.28-.06.57.08.85.08.4,0,.86-.03,1.2-.26.16-.1.29-.29.49-.3.23.02.46.15.7.17.27.04.52-.07.74-.08.21,0,.43.05.64.03.4-.04.66-.3,1.05-.3.39-.01.67.31,1.06.36.45.08.81-.04,1.18-.23.15-.08.31-.22.49-.15.66.38,1.39.16,2.1.15,1.08.16,1.1.28,2.15-.19.19-.05.36.03.55.05.33.04.66-.01.97-.07.12,0,.26.02.38.01.21,0,.4-.09.61-.08.31,0,.62.15.91.14.32.02.59-.18.91-.12.19.02.38.12.56.19.26.12.57.12.86.09.33-.06.61-.26.92-.39.27-.14.63-.2.88-.34.2-.13.41-.27.67-.22.31.02.54.05.66.34.14.25.39.47.63.65.48.34,1.23.3,1.79.12.25-.09.46-.26.68-.41.42-.33.94-.39,1.45-.44.27-.06.5-.19.73-.34.21-.16.4-.32.68-.31.98,0,1.15.82,2.41.38.36-.14.74-.23,1.1-.36.26-.07.46-.14.66-.31.31-.25.58-.49.7-.91.07-.18.06-.43.2-.57.12-.11.33-.09.48-.14.44-.05.72-.44,1.05-.68.4-.26.89-.46,1.1-.92.22-.33.26-.69.27-1.07.02-.23.13-.47.24-.67.24-.45.29-1.02.35-1.53.03-.3.07-.54.26-.78.23-.36.32-.88.26-1.32-.01-.2.12-.32.27-.43.63-.52.99-1.36.7-2.17-.16-.44-.4-.46.05-.86.24-.29.48-.69.74-.97.5-.65.45-1.5,0-2.17-.09-.14-.22-.27-.24-.44ZM1662.05,75.6c-.06.23-.15.51-.31.7-.13.16-.29.32-.38.5-.15.3-.19.72-.29.99-.09.28-.28.51-.35.8-.05.33,0,.81.08,1.1.05.21.28.32.28.55-.03.24-.27.31-.38.53-.17.24-.26.48-.34.73-.07.23-.27.38-.39.58-.13.22-.21.5-.24.75-.03.22,0,.44.02.66.02.21-.11.34-.25.49-.15.15-.31.35-.38.54-.08.18-.12.38-.21.55-.11.21-.39.11-.63.18-.08.02-.16.05-.24.09-1.44.79-.78,1.67-1.41,1.57-.48-.11-1.05-.23-1.53-.18-.47.18-1.02.07-1.5.22-.19.06-.34.18-.49.29-.3.17-.71.41-1.08.48-.28.02-.44-.24-.66-.38-.32-.21-.73-.34-1.12-.33-.23,0-.45.1-.67.12-.24.02-.48-.08-.73-.1-.5-.03-1.01.24-1.42.51-.26.15-.59.05-.9.07-.36.02-.7.18-1.07.1-.29-.04-.55-.04-.77-.16-.21-.11-.41-.24-.63-.32-.59-.2-1.35-.03-1.82.4-.2.21-.43.26-.71.26-.27.01-.58.02-.77,0-.24-.03-.41-.22-.63-.29-.59-.2-1.32-.19-1.85.18-.17.14-.35.26-.57.27-.22.03-.33.09-.55,0-.09-.03-.18-.07-.27-.11-.4-.15-.83-.15-1.22-.02-.24.08-.46.24-.68.3-.2.05-.42.04-.62.04-.26-.02-.49.07-.74.09-.22,0-.42-.16-.62-.25-.29-.13-.68-.1-.98-.08-.18.02-.32.12-.48.19-.16.07-.39.07-.59.05-.23-.03-.39-.19-.61-.26-.62-.16-1.38-.1-1.88.38-.15.13-.33.24-.53.15-.41-.2-.81-.43-1.28-.48-.33,0-.61.17-.9.29-.16.08-.34.24-.53.23-.38-.05-.76-.3-1.15-.23-.27.09-.53-.02-.73-.21-.36-.27-.8-.3-1.22-.27-.45.02-1.03.08-1.36.16-.36.09-.69.2-1.07.23-.22.03-.39-.09-.58-.18-.26-.1-.65-.08-.95-.04-.27.05-.56.17-.84.26-.13.05-.27.06-.4,0-.32-.21-.65-.33-1-.45-.41-.22-.87-.43-1.34-.43-.34-.01-.68.07-.99.28-.14.09-.25.24-.42.25-.21-.02-.41-.18-.62-.25-.32-.11-.66-.08-.98-.19-.28-.09-.58-.14-.88-.06-.2.05-.39.15-.59.18-.32.05-.68-.06-1.03,0-.12.02-.24.06-.37.08-.41.08-.78-.26-1.04-.48-.58-.42-1.27-.48-1.92-.16-.15.07-.3.19-.47.18-.22-.03-.32-.41-.44-.57-.29-.4-.7-.68-1.21-.77-.4-.07-.96,0-1.3.21-.15.1-.32.21-.51.18-.21-.04-.37-.2-.58-.27-.2-.09-.44-.08-.62-.21-.13-.1-.16-.3-.2-.46-.06-.22-.16-.44-.3-.64-.59-.95-1.51-.48-1.73-1.78-.01-.2.13-.35.24-.55.12-.22.22-.46.24-.7.01-.31-.02-.73-.16-1.03-.28-.5-.73-.96-1.34-1.02-.11-.01-.22-.02-.31-.07-.11-.06-.17-.17-.22-.28-.09-.19-.23-.36-.39-.52-.12-.11-.25-.22-.19-.41.47-1.08.07-1.24-.05-2.23-.02-.45.03-.69-.2-1.09-.16-.26-.34-.53-.3-.85.02-.24-.07-.53-.15-.78-.1-.31.12-.58.23-.85.07-.28.07-.62.01-.93-.08-.4-.34-.84-.15-1.24.08-.12.19-.23.28-.36.29-.39.21-.84.36-1.26.1-.17.25-.22.37-.34.5-.4.62-1.06.73-1.66.07-.28.34-.43.53-.62.24-.29.51-.43.77-.66.29-.28.5-.66.72-.99.14-.19.39-.19.59-.26.33-.13.69-.39,1.01-.56.39-.2.73-.64,1.09-.95.12-.1.27-.15.42-.21.29-.11.56-.29.88-.39.62-.23,1.22.18,1.84-.07.34-.09.61-.42.97-.42.32-.01.56.23.81.38.53.33,1.03.5,1.65.32.23-.05.43-.23.66-.24.2,0,.37.12.56.15.52.08,1.12-.03,1.55-.35.19-.15.33-.38.49-.56.28-.34.69.06,1.07.05.44.03.87-.19,1.3-.14.25.02.48.13.73.13.18,0,.35-.04.53-.05.27-.03.53.03.82.03.21,0,.41-.07.62-.09.26-.02.48.02.74-.06.18-.05.37-.12.56-.11.25.01.51.17.76.23.21.06.45.05.65.12h.02c.61.22,1.38.21,1.93-.12.16-.1.34-.29.54-.21.21.1.34.32.52.46.32.24.72.46,1.14.47.22,0,.44-.04.66-.02.37.02.82.1,1.16-.01.2-.05.36-.21.55-.26.21-.02.39.13.61.16.38.06.81,0,1.18-.11.3-.06.53-.06.81-.16.55-.2,1.08.23,1.62.26.35-.05.66-.19.98-.3.23-.09.45-.19.7-.21.26-.01.53.04.79,0,.15-.02.29-.05.44-.02.45.09.84.38,1.3.4.39-.03.74.17,1.12.17,1.12.12,1.67.21,2.57-.61.46-.26.71.94,1.99.89.36-.02.72-.1,1.02-.34.23-.21.49-.41.8-.41.19,0,.35.11.54.15.34.08.66.14.93.36.64.47,1.65.47,2.26-.05.2-.18.33-.1.49.08.14.18.35.3.53.4.4.26.95.22,1.43.15.41-.12.75-.33,1.22-.36.27-.02.58-.11.82.03.3.19.58.35.96.39.4.05.79-.02,1.17.09.12.02.23.02.35-.02.24-.07.52-.11.74-.04.25.11.51.13.78.04.28-.07.55.08.83.12.1.02.2.03.28.07.19.11.34.43.52.61.47.53,1.23.66,1.9.47.28-.12.58-.08.81.12.16.12.31.18.4.31.16.32.12.75.3,1.07.2.41.58.7.86,1.06.17.21.32.46.5.66.15.17.4.31.48.47.12.2.16.47.29.69.07.13.17.22.2.32.05.18-.1.33-.2.48-.19.31-.29.66-.3,1.01-.04.43.19.8.34,1.18.04.13.05.28.07.42.04.33.2.63.27.98.2.58-.2,1.18-.16,1.75.03.22.08.45.16.67.06.15.11.28.08.44Z"/>
    <path class="cls-1" d="M1645.71,67.45h-.02c-.2-.05-.44-.06-.66-.05-.43.01-.72.22-1.07.42-.72.52-.76,1.57-.51,2.36.09.48-.07,1.03-.1,1.49-.05.39.17.76.12,1.15-.06.31-.24.67-.22,1.01,0,.25.09.51,0,.63-.14.16-.41.16-.62.3-.41.27-.72.75-.85,1.2-.06.33-.04.72.07,1.01.03.1.07.21.06.31-.03.17-.2.38-.38.41-.19.03-.38-.24-.59-.37-.13-.09-.29-.15-.39-.28-.09-.1-.13-.23-.19-.36-.08-.25-.27-.42-.42-.62-.21-.32.32-.66.38-.98.08-.24.15-.58.13-.82-.02-.25-.11-.49-.11-.74,0-.37.2-.74.15-1.11,0-.54-.33-1-.6-1.45-.27-.75-1.08-1.21-1.82-1.35-.52-.06-1.11.01-1.51.37-.21.21-.44.35-.54.63-.09.31-.21.64-.19.94.01.22.12.46.16.67.07.35-.14.69-.12,1.06.03.34-.1.56-.38.76-.27.18-.42.48-.53.78-.19.39-.06.76-.15,1.14-.05.14-.33.39-.42.2-.02-.06-.02-.17-.01-.25,0-.45-.14-.93-.46-1.24-.2-.21-.4-.43-.65-.5-.12-.04-.28-.05-.35-.16-.06-.14.02-.38.04-.55.06-.35.04-.69-.12-1.01-.23-.4-.49-.84-.37-1.32.05-.16.22-.26.38-.39.27-.25.52-.57.61-.91.08-.47.02-1.04-.3-1.43-.89-1.12-2.2-.82-3.04.18-.32.23-.79.39-1.01.76-.3.43-.39.92-.24,1.45.04.16.11.34.1.51-.03.28-.12.56-.07.87.03.17.08.33.09.5,0,.1,0,.21-.02.31-.06.35.07.68.2,1.02.15.28.23.58.1.88-.11.37-.14.76,0,1.12.11.31.32.62.56.83.16.14.29.31.21.53-.19.47-.24.99-.1,1.49.06.23.17.48.18.72-.04,1.07.28,1.87,1.33,2.26.34.12.72.02,1.08.08.33.09.61.31.97.32.82.06,1.65-.08,2.34-.54.35-.21.52-.57.84-.81.36-.26.69-.47,1-.79.15-.15.37-.23.56-.09.22.15.42.34.5.58.06.19.07.4.12.59.15.6.65,1.05,1.2,1.26.32.07.75.06,1.07.01.21-.04.4-.14.62-.15,1.1.07,1.88-.43,2.21-1.49.09-.23.23-.37.42-.51.21-.16.37-.43.58-.6.14-.1.31-.15.47-.23.4-.19.63-.56.79-.95.11-.32.15-.64.1-.98-.03-.24-.08-.47.12-.64.23-.21.51-.42.61-.73.14-.37.2-.91.11-1.24-.05-.17-.12-.33-.1-.5.01-.14.08-.27.12-.4.11-.3.14-.72.08-1.06-.04-.19-.12-.36-.12-.55.02-.41,0-.83.1-1.23.11-.44.36-.85.42-1.3.07-.53-.2-1.22-.62-1.59-.38-.31-.82-.71-1.31-.84Z"/>
    <path class="cls-1" d="M1612.24,76.31c-.09-.4-.05-.82-.26-1.2-.21-.46-.69-.9-1.21-1.02h-.02c-.21-.06-.58.03-.72-.09-.11-.1-.08-.32,0-.46.08-.14.24-.19.38-.27.3-.16.52-.39.71-.69.17-.27.28-.55.51-.76.18-.18.39-.36.52-.59.36-.65.18-1.48-.17-2.1-.08-.18-.08-.38-.15-.59-.08-.23-.21-.46-.25-.7-.07-.67-.65-1.37-1.15-1.78-.37-.3-.85-.32-1.29-.39-.31-.08-.57-.23-.79-.51-.18-.26-.4-.46-.68-.62-.73-.46-1.79-.1-2.27.53-.25.41-.2.51-.72.61-.59.17-.77.72-1.08,1.16-.33.35-.81.58-1.12.95-.37.36-.75.64-.98,1.14-.15.3-.29.62-.35.94-.04.25,0,.5-.14.73-.44.67-.17,1.56-.19,2.28,0,.61-.4,1.27-.23,1.9.04.18.11.34.14.53.05.34,0,.69.15,1.01.07.17.2.33.25.51.05.16.03.33.03.5,0,.38.06.7.25,1.02.07.13.16.27.17.42.02.23-.15.43-.18.66-.1.59-.01,1.27.45,1.71.12.11.24.19.36.32.22.28.18.78.17,1.15-.03.34.02.67.17,1.02.2.5.64.84,1.13,1.04.49.2,1.03.07,1.49-.13.34-.16.64-.2.96.02.44.24.99.32,1.49.16.21-.08.37-.22.57-.31.34-.11.7-.27,1.06-.29.63.05,1.31-.12,1.74-.61.32-.37.69-.79.86-1.22.08-.17.22-.3.35-.44.58-.65.55-1.65.07-2.35-.12-.16-.14-.34,0-.5.16-.23.35-.42.42-.7.08-.39.09-.9-.01-1.24-.08-.28-.35-.48-.44-.76ZM1605.02,71.36c-.03-.23-.11-.54-.04-.71.15-.25.43-.43.58-.69.14-.2.17-.44.31-.64.15-.21.42-.22.65-.36.13-.08.25-.19.4-.21.2-.02.38.1.57.14.23.06.49.1.62.24h.01c.15.21.19.7.03.88-.28.24-.53.58-.66.94-.09.21-.06.48-.23.64-.2.15-.48.23-.71.32-.24.09-.47.11-.71.23-.17.07-.36.33-.55.19-.24-.24-.22-.65-.27-.97ZM1608.61,78.12c-.15.16-.21.37-.29.55-.08.17-.14.36-.15.55-.02.3.07.56.19.83.04.14.31.43.14.53-.13.06-.3.03-.45.04-.29.01-.48.1-.72.04-.26-.08-.51-.16-.79-.14-.37.02-.73.04-.98-.29-.09-.11-.25-.19-.26-.34,0-.07.03-.11.06-.17.24-.34.32-.75.26-1.16-.08-.63,0-1.25.05-1.89,0-.32,0-.71.45-.55h.02c.13.06.24.16.36.25.2.15.46.26.61.44.16.24.36.45.61.6.31.23.6.3.95.34.32.05.04.24-.06.36Z"/>
    <path class="cls-1" d="M1627.21,78.18c.09-.4.4-.67.39-1.11.05-.56-.16-1.1-.56-1.51-.11-.13-.4-.27-.41-.42.01-.15.22-.25.31-.37.46-.55.54-1.37.27-2.02-.09-.23-.29-.39-.43-.59-.16-.23-.2-.53-.27-.81-.13-.46-.03-.85-.12-1.27-.04-.17-.13-.34-.22-.49-.15-.27-.41-.44-.56-.7-.1-.17-.11-.37-.16-.56-.09-.37-.36-.67-.66-.89-.2-.13-.38-.31-.36-.57.01-.35.06-.75-.1-1.06-.12-.2-.25-.42-.41-.6-.17-.17-.39-.26-.62-.37-.42-.12-.71-.48-1.12-.6h-.02c-.41-.1-.8-.02-1.15.16-.23.1-.44.28-.58.49-.05.06-.1.12-.16.16-.11.07-.24.09-.37.1-.36.03-.78.18-1.03.45-.48.47-.63,1.25-.39,1.86.06.17.27.34.21.53-.04.1-.15.15-.24.2-.67.32-.93.85-1.04,1.56-.1.37-.35.69-.49,1.05-.15.29-.42.54-.54.84-.12.25-.12.62-.11.91,0,.32.14.56.32.82.21.33-.14.42-.34.59-.37.3-.61.77-.68,1.25-.02.23,0,.52.06.76.04.17.14.32.14.49,0,.19-.14.35-.21.52-.21.49-.13,1.07.14,1.52.32.46-.1.92-.27,1.35-.15.31-.18.64-.35.93-.11.18-.26.36-.35.55-.18.37-.19.88-.09,1.29.07.3.31.55.43.83.11.24.16.52.32.73.18.23.37.44.62.6.52.29,1.43.27,1.91,0,.29-.19.58-.5.75-.81.18-.37.18-.99.07-1.45-.04-.15-.12-.28-.13-.43,0-.18.11-.31.18-.47.22-.47.39-1.02.6-1.49.08-.2.2-.37.29-.56.15-.3.17-.68.13-1.04-.02-.29-.18-.55-.19-.82,0-.19.1-.37.11-.56.04-.34-.07-.71.18-.96.17-.15.47-.21.67-.38.17-.13.31-.38.55-.3.27.09.52.15.83.12.33-.03.54-.06.68.3.12.29.36.53.49.8.07.16.06.36.04.57-.01.22-.02.45.04.64.04.13.08.26.06.39-.01.1-.06.2-.1.29-.27.63-.23,1.45.22,1.98.15.22.11.86.27,1.24.21.49.69.88,1.18,1.03.34.09.72.06,1.08,0,.44-.09.82-.46,1.07-.82.23-.39.37-1.11.21-1.58-.08-.26-.35-.51-.36-.76,0-.22.17-.41.24-.61.14-.29.11-.62.16-.93ZM1622.35,71.63c-.09.29-.4.11-.6.05-.34-.13-.73-.06-1.09-.06-.06,0-.1-.04-.11-.1-.01-.19.17-.31.3-.41.18-.12.29-.34.41-.49.08-.1.15-.21.19-.33.06-.17.07-.41.17-.57.25-.38.61.2.77.39h0c.07.12.07.38.07.56.01.33,0,.69-.13.96Z"/>
    <path class="cls-1" d="M1655.45,68.04c-.14-.25-.41-.36-.57-.59-.07-.09-.11-.2-.15-.3-.12-.31-.33-.61-.57-.83h-.01c-.35-.31-1.01-.38-1.47-.26-.3.08-.54.29-.76.5-.46.44-.34,1.03-.43,1.6-.1.36-.03.73-.14,1.09-.19.38-.39.75-.37,1.19-.03.4.18.73.33,1.08.15.4,0,.83.1,1.24.04.17.13.33.18.5.06.22-.13.39-.27.54-.36.4-.53.96-.46,1.48.03.21.1.41.12.63.03.31-.02.66.03.94.06.58.68,1.12.37,1.71-.5.96.08,2.35,1.13,2.64.35.1.68.16,1.04.02.39-.07.79-.27,1.01-.59.09-.11.17-.21.25-.32.18-.29.23-.7.41-1.01.31-.53.34-1.21.05-1.75-.08-.16-.17-.31-.21-.49-.04-.16-.05-.34-.1-.5-.06-.24-.2-.42-.25-.65-.05-.63,1.01-.54,1.09-2.13.06-.66-.01-1.4-.43-1.94-.25-.28-.35-.64-.39-1-.03-.21.19-.36.32-.51.64-.73.71-1.5.17-2.31Z"/>
  </g>
  <rect class="cls-1" x="117.64" y="123.7" width="1667.77" height="1.4"/>
  <g>
    <path class="cls-1" d="M1739.07,73.29c.22,0,.4-.18.4-.4v-11.61c0-9.06,7.37-16.43,16.43-16.43,3.75,0,7.42,1.3,10.32,3.65.17.14.43.11.56-.06.14-.17.11-.43-.06-.56-3.05-2.47-6.9-3.83-10.83-3.83-9.5,0-17.23,7.73-17.23,17.23v11.61c0,.22.18.4.4.4Z"/>
    <path class="cls-1" d="M1770.12,87.4h-25.43c-.71,0-1.3-.58-1.3-1.3s.58-1.3,1.3-1.3h7.73c1.45,0,2.63-1.18,2.63-2.63s-1.18-2.63-2.63-2.63h-3.25c-.14-.89-.55-1.7-1.15-2.32h9.45c.37,0,.67-.3.67-.67s-.3-.67-.67-.67h-18.4c-.37,0-.67.3-.67.67s.3.67.67.67h5.83c1.42,0,2.61.99,2.91,2.32h-5.08c-.37,0-.67.3-.67.67s.3.67.67.67h9.7c.71,0,1.3.58,1.3,1.3s-.58,1.3-1.3,1.3h-7.73c-1.45,0-2.63,1.18-2.63,2.63s1.18,2.63,2.63,2.63h25.43c.37,0,.67-.3.67-.67s-.3-.67-.67-.67Z"/>
    <path class="cls-1" d="M1748.5,64.87c-.29-.23-.71-.19-.94.1l-6.09,7.5c-.23.29-.19.71.1.94.07.05.14.09.22.12.03,0,.05,0,.08.01.04,0,.08.02.12.02.02,0,.03,0,.05,0,.01,0,.03,0,.04,0,.07-.01.14-.03.21-.06.01,0,.02-.01.03-.02.07-.04.13-.09.19-.15,1.37-1.69,3.4-2.65,5.57-2.65s4.2.97,5.57,2.65c.13.16.33.25.52.25.15,0,.3-.05.42-.15.29-.23.33-.65.1-.94-1.62-2-4.03-3.15-6.61-3.15-.93,0-1.83.15-2.68.44l3.2-3.95c.23-.29.19-.71-.1-.94Z"/>
    <path class="cls-1" d="M1777.16,61.29c0-11.72-9.54-21.26-21.26-21.26s-21.26,9.54-21.26,21.26v35.84c0,.16.1.31.25.37.05.02.1.03.16.03,0,0,.02,0,.03,0h41.68s.1-.01.14-.03c0,0,.01,0,.01,0,.01,0,.02-.01.03-.02.02,0,.04-.02.05-.03.02-.01.03-.03.04-.04.01-.01.03-.03.04-.04.01-.02.02-.03.03-.05,0-.01.01-.02.02-.03,0,0,0-.01,0-.02,0-.02.01-.04.01-.06,0-.02,0-.04,0-.06,0,0,0-.01,0-.02v-35.84ZM1739.35,93.41s.07-.08.09-.13c0,0,0,0,0,0,.01-.02.01-.05.02-.08,0-.02.01-.05.01-.07,0,0,0,0,0,0v-12.34c0-.22-.18-.4-.4-.4s-.4.18-.4.4v12.18l-3.22,3.2v-34.88c0-11.28,9.18-20.46,20.45-20.46s20.46,9.18,20.46,20.46v34.87l-3.32-3.32c-.16-.16-.41-.16-.57,0,0,0,0,0,0,0,0,0,0,0,0,0-.16.16-.16.41,0,.57l3.33,3.31h-39.74l3.31-3.31Z"/>
    <path class="cls-1" d="M1770.08,77.54c.37,0,.67-.3.67-.67v-15.58c0-4.15-1.76-8.14-4.83-10.95-.27-.25-.7-.23-.95.04-.25.27-.23.7.04.95,2.63,2.41,4.2,5.76,4.38,9.3h-2.76c-.37,0-.67.3-.67.67,0,3.7-3.01,6.7-6.7,6.7s-6.7-3.01-6.7-6.7,3.01-6.7,6.7-6.7c1.79,0,3.47.7,4.74,1.96.26.26.68.26.95,0s.26-.68,0-.95c-1.52-1.52-3.54-2.36-5.69-2.36-4.43,0-8.04,3.61-8.04,8.04s3.61,8.04,8.04,8.04c3.12,0,5.82-1.78,7.15-4.38h3v11.92c0,.37.3.67.67.67ZM1766.95,63.61c.16-.53.26-1.08.31-1.65h2.14v1.65h-2.46Z"/>
    <path class="cls-1" d="M1773.4,90.45v-29.17c0-3.99-1.31-7.76-3.79-10.88-.23-.29-.65-.34-.94-.11-.29.23-.34.65-.11.94,2.29,2.88,3.5,6.36,3.5,10.05v29.17c0,.37.3.67.67.67s.67-.3.67-.67Z"/>
    <path class="cls-1" d="M1770.12,92.45h-18.56c-1.29-.02-2.34-1.08-2.34-2.38,0-.37-.3-.67-.67-.67s-.67.3-.67.67c0,.91.33,1.74.87,2.39h-7.06s-.05.02-.07.02c-.16.02-.3.08-.4.18,0,0,0,.01-.01.01-.05.06-.1.12-.13.2-.02.04-.02.09-.03.14,0,.04-.02.08-.02.12,0,0,0,0,0,0s0,0,0,0c0,.03.01.05.02.08.03.24.18.44.39.54.08.03.17.05.26.05h28.42c.19,0,.36-.08.48-.21.12-.12.2-.29.2-.48,0-.37-.3-.67-.67-.67Z"/>
  </g>
  <g>
    <path class="cls-1" d="M132.17,83.65s-.03-.05,0,0c0,0,0,0,0,0,0,0,0,0,0,0Z"/>
    <path class="cls-1" d="M151.88,85.55c-.15.05-.32.41-.47.5-.02,0-.02-.02-.01-.04.03-.18.22-.55.29-.76.34-1.06.56-2.16.87-3.24,0-.09-.1-.1-.16-.19-.18-.3.12-.72.08-1.04-.48.37-.44-.4-.49-.68-.08-.43-.26-.78-.46-1.16-.07-.02-.14.16-.18.2-.11.13-.33.3-.5.2-.18-.1.05-.18.06-.31,0-.06,0-.17-.07-.2-.15-.04-.28.09-.41.12-.28.06-.16-.06-.28-.18-.31-.29-1.3.04-1.63.23-.18.1-.24.25-.36.32-.13.07-.35.12-.51.2-.3.14-.62.33-.91.5-.58.34-1.13.73-1.67,1.14-.11,0,.03-.1.05-.14.06-.09.15-.19.09-.29-.03-.02-.24.06-.28.08-.3.15-.81.79-1,1.08-.07.11-.07.23-.19.29v-.59s-.03,0-.05.03c-.29.29-.35,1.08-.45,1.46-.12.43-.46.83-.74,1.18-.01-.04-.02-.08-.04-.11-.02.02-.07.08-.08.08,0,0,0,.02-.01.03,0-.04,0-.07,0-.09-.02-.09-.07-.18-.05-.29-.07-.02-.12.06-.17.07,0-.1-.01-.19-.1-.25-.02-.01-.04-.02-.07-.02-.03-.09-.06-.17-.09-.26-.17,0-.38.08-.43.02-.04-.28-.15-.16-.3-.22-.11-.04-.2-.23-.22-.36,0-.06.01-.19,0-.22,0-.02-.07-.02-.09-.05-.05-.06-.02-.56-.02-.69-.02-.35-.09-.89-.18-1.22-.05-.17-.2-.38-.16-.54,0-.03.05,0,.05-.06,0-.1-.06-.53-.08-.62-.04-.15-.19-.37-.26-.55-.16-.43-.23-1.1-.53-1.44-.06-.06-.14-.06-.21-.13-.06-.05-.08-.13-.14-.17-.19.02-.44.09-.54.31-.07.13-.23.46-.27.59-.05.15-.04.31-.08.44-.02.08-.08.13-.11.2-.2.54-.24,1.14-.41,1.65-.09.28-.17.27-.13.64,0,.07.05.11.05.21,0,.09-.08.16-.09.22-.02.08,0,.18-.01.26-.02.07-.09.07-.09.1-.01.06.01.15,0,.23-.01.06-.09.14-.09.22,0,.05.08.14.09.22.05.29-.1.54-.33.58-.04.21-.01-.09-.18.08-.02.02-.04.04-.06.05v.22c-.15.07-.3-.04-.36-.19-.03-.08-.09-.47-.21-.47-.13,0-.1.11-.12.18-.08.27-.25.48-.56.38-.13-.04-.17-.16-.31-.14l-.05-.31c-.28,0-.57-.06-.77-.28-.08-.09-.15-.31-.29-.29-.17.02-.33.49-.38.64-.02.06-.1.34-.12.36-.04.04-.04-.01-.05-.03-.06-.12-.1-.29-.28-.28-.04,0-.08.04-.1.04-.06,0-.36-.05-.38-.04-.02.13.15.17.15.29-.19,0-.16-.18-.39-.08-.25.11-.23.51-.31.72-.09.01-.26-.16-.33-.26,0,0-.01.01-.02.02,0,0,0,0,0,.01,0,0,0,0,0-.01,0,0,0,0,0,0,0,0,0,0,0,0,0,0,0,0,0,0-.03-.03-.05-.06-.06-.11-.02-.1.02-.21,0-.27-.02-.08-.1-.1-.14-.16-.23-.32-.04-.29-.09-.58-.02-.14-.11-.16-.15-.24-.04-.09-.03-.25-.05-.35-.03-.1-.14-.41-.19-.52-.03-.08-.09-.15-.13-.23l-.04.09c-.16-.11,0-.37,0-.55,0-.22-.22-.64-.3-.86-.05-.15-.24-.66-.24-.78,0-.09.04-.15.02-.26-.02-.09-.07-.04-.09-.08-.1-.3-.1-.75-.34-.98-.17-.16-.24-.09-.4-.14-.08-.03-.07-.12-.21-.06-.08.03-.32.28-.36.37-.07.15-.07.38-.13.53-.05.12-.16.15-.22.27-.14.26-.33,1.13-.34,1.43,0,.27.04.18-.05.47-.16.52-.24.9-.24,1.47,0,.3,0,.55.05.84.04.23-.19.35-.34.31.03.16-.05.26-.08.39-.02.07-.06.24-.06.31,0,0,0,0,0,0-.02.17.03.29-.07.47-.01.02-.11.16-.14.1-.03-.2-.12-.84-.43-.75-.27.08.1.75-.08.8l-.06-.04.02-.16c-.26-.04-.33.27-.36.46-.08.01-.19-.12-.27-.21,0,.03,0,.05,0,.07-.02-.1-.03-.19-.05-.28-.04-.05-.08-.09-.09-.09-.09-.02-.19.18-.24.18-.02,0-.08-.04-.14-.05-.12-.01-.2.06-.3-.03-.17-.14-.46-.79-.51-.81-.03-.02-.08.03-.14,0-.09-.04-.27-.33-.33-.36-.06-.03-.11.03-.16,0-.05-.03-.05-.13-.09-.16-.05-.04-.12,0-.18-.06-.05-.05-.13-.33-.17-.43-.09-.19-.34-.5-.52-.6-.11-.06-.27-.06-.37-.1-.1-.04-.38-.4-.52-.47-.1-.05-.14.08-.33-.08-.22-.18-.69-1.09-.84-1.13-.21-.06-.07.27-.03.36.05.12.21.34.23.43.04.18-.14-.02-.19-.09-.09-.14-.27-.72-.34-.76-.12-.08-.18.06-.24.05-.04,0-.23-.14-.27-.1v.08c-.17-.12-.13-.51-.4-.47-.05,0-.08.06-.13.05-.07-.02-.16-.14-.28-.13-.08,0-.1.13-.18.1-.39-.45-.99-.87-1.61-.83-.07.04.05.15-.04.12-.29-.09-.46-.42-.75-.44l.03.41c-.3-.04-.82.1-.71.49-.21,0-.41-.05-.58-.16l-.24.31-.43-.05s.02.23.04.26c.05.07.31.12.26.31-.09.09-.25.05-.35.1-.05.03-.2.26-.23.32-.03.06-.02.14-.04.18-.03.05-.17.02-.23.13-.1.17.04.45.02.47-.28.07-.24.41-.33.62l.13.76s-.08-.02-.13-.03c.06.21.17.5.17.61,0,.13-.06.27-.07.39-.08,1.01.2,2.29.7,3.13.25.42.55.59.83.94.21.26.36.58.6.81.08.07.24.09.19.21.07.04.17.03.25.03.15.39.29.83.54,1.14.31.38.7.56,1.08.74.1.16.2.32.31.43.13.13.4.24.5.36.04.05.03.12.04.13.03.03.13-.06.21-.04.01,0,.02,0,.04.01.02.04.04.08.06.13.06.14.24.16.28.27-.04.01-.07.02-.11.03-.02.07-.07.12-.16.14.04.05.08,0,.14.03.03.01.17.09.18.12l-.1.07c0,.11.05.21.13.28.04.03.13.08.13.08.04.2-.39-.06-.42.17-.05.37.36.32.61.31.02.11-.15,0-.21.05-.07.11.01.19.02.28,0,.09-.15.3-.2.4-.04.08-.07.19-.13.26-.13.16-.37.16-.33.45.05.32.57.03.61.06-.05.23-.07.43.2.49l.38.28c-.04.09-.51.07-.41.41.01.05.17.15.14.19-.16.03-.59.17-.65.34-.07.21.1.27.28.25l.03.14c.29-.14.21-.04.36.11.03.03.14.11.19.13.15.07.33.04.42.17.02.03.19.32.19.34.05.2-.08.24-.11.37,0,.05.03.1,0,.15,0,.01-.18.15-.22.19-.15.16-.21.26-.32.45-.06.11-.2.27-.23.38-.02.08-.06.38-.02.44.1.15.31-.09.33-.08.06.01,0,.1.01.13,0,.04.06.07.05.12-.02.07-.19.25-.21.38-.02.14.05.26.03.39-.18.28-.76.74-.57,1.1.1.19.35.19.52.08.14-.09.21-.31.38-.29.01.06,0,.05-.03.08-.11.12-.34.18-.27.38l-.14.08s.05.04.06.04c.16.02.38-.02.55,0-.15.19-.52.15-.54.45-.02.32.29.2.32.23,0,0,0,.06.01.09.07.12.39.34.27.48-.06.07-.43.16-.35.32.05.1.27,0,.28.12-.05,0-.28.05-.27.11.15.15.21.35.27.54.06.05.44-.13.37.08-.07-.02-.26.02-.28.09,0,.02.02.06.02.1,0,.04-.02.08-.02.12,0,.05.05.12.04.17,0,.05-.09.12-.12.17-.13.24-.14.71.23.69.04,0,.35-.08.35-.06-.07.15-.11.44-.18.57-.08.15-.58.37-.4.62.18.26.74-.3.78-.26,0,.1-.08.23-.14.31-.04.06-.35.33-.33.37.24.09.37.34.41.58.31-.08.37.05.25.32-.1.23-.34.43-.5.62-.01.05.02.04.06.04.15-.03.25-.28.39-.27.05.05-.03.05-.06.08-.09.08-.64.55-.53.67l.17-.02c0,.06.05.1.06.14.01.04-.05.1.02.1.11,0,.21-.13.31-.18.13-.06.4-.12.48.02-.02.07-.55.35-.13.38.18.01.25-.12.32-.12.05,0,.06.06.1.06.05,0,.19-.02.27-.02.43.03.64.33.95.58-.03.07-.05.09-.01.17l.19-.02c0,.08-.09.06-.12.14-.03.09,0,.27-.03.37.06.01.09-.03.13-.05.18-.11.43-.4.58-.47.03-.01.06-.02.09-.01,0,.06.06.11.07.16.04.19-.45.43-.56.57.1-.02.22-.1.31,0,.11.12-.07.26-.09.39.12,0,.15-.16.27-.15,0,.05-.02.32.04.32.14-.17.07-.53.35-.56-.02.21-.09.46-.1.67,0,.16.07.31.07.44,0,.08-.07.13,0,.18l.18-.05c-.09-.42.24-.62.56-.3.23.22.25.44.36.71,0,.02-.01.04.04.03.07-.04.11-.14.16-.18.04-.03.11-.03.13-.06,0-.01-.01-.05,0-.07.09-.16.23-.26.41-.27l.04.06c-.1.11-.2.22-.29.35-.04.06-.17.22-.15.28,0,0,.13.13.14.13.03.01.07,0,.11,0,.03-.01.27-.41.34-.49.02-.02.06-.08.08-.04.04.27-.06.51-.04.79,0,.06.06.32.11.33.14-.07.18-.54.39-.28-.03.11-.18.29-.1.4.06.09.26-.1.28-.07,0,.08-.04.22.07.22,0-.12.12-.15.18-.22.15-.16.39-.51.65-.43.05.02.07.07.07.12h.04c.62-.35.58.18.15.44v.06c.56.11,1.1.28,1.66.35.1.01.21.04.31.03.09,0,.15-.06.23-.04.06.01.13.2.17.27.07.11.2.26.35.24.07,0,.09-.1.14-.09.15.01.16.13.23.2.19.18.58-.07.59-.27,0-.08-.05-.17-.03-.26l.35.07.06.18h.24c-.01.43.23.2.39.02.11-.12.29-.45.45-.45.1,0,.39.07.46.05.06-.02.13-.14.19-.17.09-.04.26-.05.39-.1.09-.03.36-.18.42-.19.21-.01-.06.23-.11.28-.06.05-.31.22-.33.25-.05.08.2.14.25.14.41.05.57-.61,1.02-.34.17.1.17.27.26.42l.31.07v-.35s.09-.15.11-.16c.19-.11.23.13.26.15.01,0,.07-.04.12-.01.07.03.21.27.26.26.1-.18.24-.35.24-.56l.17-.09s.03,0,.04.03c.03.06.02.11.07.18.14.2.58.13.7-.08.06-.02.15.14.31.04.13-.07.07-.29.09-.31h.07c-.04-.2-.08-.52-.05-.72.01-.07.06-.07.12-.06.07.09.06.18.05.29.28-.15.36.11.39.34.62-.22,1.25-.46,1.92-.47.04-.03.02-.2.02-.27.04-.33.12-.64.19-.96.05-.01.15.03.15.09v.7s.03.06.04.06c.16-.12.24-.19.21-.41.11.12.16.02.23.02.03,0,.06.05.09.04.03,0,.45-.22.47-.24.08-.12-.16-.45,0-.56.11.12.06.29.11.42.06.18.18-.17.22-.24.07-.11.24-.3.38-.33.08-.02.19.01.25-.02.06-.03.21-.34.27-.41.04-.06.14-.06.12-.18.14.1.23.1.22-.1h.11c0-.15.21-.24.23-.36.01-.07-.1-.23-.09-.31,0-.08.12-.17.12-.26.09.02.14.28.18.29.2-.08.04-.31.06-.47.01-.1.15-.23.17-.34,0-.07-.15-.12-.15-.22,0-.09.3-.4.33-.52.11-.11.15.22.29.2.06-.01.06-.34.13-.38.04-.02.16.07.2.1.02.01.06.06.07,0,.01-.08-.2-.09-.19-.17.11-.12.2-.23.2-.4.03-.06.11.07.16.05.02-.17-.48-.45-.46-.57,0-.03.04-.04.07-.03.16.07.38.27.56.37.03.02.38.19.33.06-.05-.13-.38-.34-.5-.42-.03-.02-.06,0-.05-.06.14-.01.25.12.39.1,0-.04-.03-.07-.01-.12.03-.06.28-.26.35-.28.07-.02.2.01.22,0,.17-.11-.08-.41-.07-.56l.08-.03v-.28s.12.01.12.01c-.35-.32-.47-.84-.86-1.13-.06-.04-.12-.06-.18-.09-.02-.02-.04,0-.03-.05.18,0,.34-.05.52,0l.07.17c.14-.01.02-.25.02-.35,0-.05.05-.08.05-.14,0-.13-.13-.29-.12-.44.07-.08.48-.23.46-.34-.06-.07-.21-.12-.25-.21-.02-.05,0-.1-.02-.15-.06-.17-.14-.32-.11-.51.03-.03.26.15.31-.07.05-.21-.2-.34-.09-.54.11.04.21.12.32.16.07.03.4.15.41.02-.03-.17-.48-.39-.52-.48-.03-.07.03-.1.03-.15,0-.08-.08-.12-.09-.17,0-.05.01-.03.04-.04.06-.02.5-.15.5-.18-.04-.11-.19-.07-.23-.11-.06-.07-.05-.22-.07-.29-.03-.1-.16-.19-.17-.32l-.26-.07c0-.06.03-.11.02-.18-.02-.08-.11-.11-.12-.19.22-.03.38.06.57.15.08-.06-.03-.1-.01-.17.66-.09.19-.24-.02-.5,0-.06.44-.09.51-.11.02-.14-.08-.04-.16-.05-.03,0-.43-.19-.45-.21-.02-.02-.02-.06-.03-.08-.02-.03-.09-.03-.11-.07,0-.04.02-.04.04-.06.12-.12.32-.26.49-.27-.09-.16.16-.32.12-.47-.02-.1-.35.05-.37-.03,0-.05.13-.09.09-.26-.02-.08-.19-.27-.25-.36-.04-.07-.26-.4-.22-.45.03,0,.11.06.1-.01-.02-.08-.19-.15-.11-.23.04,0,.21.24.32.14.14-.13-.2-.5-.21-.62-.01-.09.21-.12.14-.35-.05-.16-.58-.42-.57-.49l.14-.15-.05-.13c.08.02.64-.2.66-.23,0,0,0-.06-.01-.06-.08,0-.16,0-.24,0-.02,0-.25.1-.21.01.11-.1.64-.39.63-.54,0-.04-.06-.06-.05-.11.13.02.25.09.39.02.02-.05-.02-.11-.02-.16,0-.05.05-.08.04-.12-.02-.1-.52-.45-.63-.53-.03-.02-.07-.04-.12-.04-.04-.03,0-.04.04-.05.04,0,.22.01.23-.04,0-.11,0-.23,0-.34,0-.06.04-.13.03-.19,0,0,0,0,0,0,.05.02.11.04.16.06.17-.12.6-.34.63-.4.03-.06-.03-.27,0-.39.02-.14.17-.37.32-.41.15-.04.26.03.38-.16l-.04-.07-.66.19s0-.06.03-.1c.1-.19.37-.46.51-.65.13-.18.42-.51.2-.71l-.28.13s.14-.7.18-.78c.09-.2.65-.33.85-.5.07-.06.26-.36.29-.44.04-.13.03-.37.08-.49.03-.06.18-.23.23-.31.12-.19.49-.76.42-.97-.05-.16-.28.04-.37.02.26-.32.54-.66.69-1.04.06-.17.22-.64-.12-.53ZM121.24,102.71v-.05h.1s-.05.05-.1.05ZM121.36,102.66c0-.05,0-.04.03-.05.04-.02.34-.13.36-.12,0,.19-.25.17-.39.17ZM147.68,105.99l.07.22h-.1s-.05-.18-.05-.18l.07-.04ZM148.12,101.2l.15.06c-.05.1-.18-.03-.15-.06ZM147.24,107.18l-.49-.21-.03-.05c-.04-.21.2-.03.28.02.03.02.27.21.23.24ZM147.51,104.43s-.06-.08-.07-.1c.06,0,.08.04.07.1ZM147.63,103.48c-.05,0-.15.07-.18.07-.19,0-.39,0-.58,0-.04,0-.12.07-.16-.02.25-.03.51-.09.76-.1.03,0,.22-.01.16.05Z"/>
  </g>
  <g>
    <path class="cls-1" d="M161.94,91.59h2.06v2.54c0,1.44-.24,2.78-.71,4.02-.47,1.24-1.16,2.32-2.08,3.23s-2.02,1.61-3.31,2.09l-1.37-1.97c1.18-.4,2.18-.97,2.98-1.72.8-.74,1.4-1.6,1.81-2.58.41-.98.61-2,.61-3.07v-2.54ZM160.05,104.84h2.52v5.93h-2.52v-5.93ZM160.05,109.71h14.71v2.04h-14.71v-2.04ZM162.42,91.59h2.04v2.62c0,.72.12,1.42.35,2.11.23.69.57,1.34,1.01,1.94.44.61.98,1.14,1.63,1.61.65.46,1.4.84,2.24,1.13l-1.27,1.99c-1.28-.46-2.37-1.13-3.26-1.99-.9-.86-1.58-1.88-2.04-3.06-.46-1.18-.7-2.42-.7-3.73v-2.62ZM171.37,90.24h2.5v16.13h-2.5v-16.13ZM173.13,96.82h3.84v2.09h-3.84v-2.09Z"/>
    <path class="cls-1" d="M184.93,91.52c1.12,0,2.12.22,3,.67.88.45,1.57,1.06,2.08,1.85.5.78.76,1.69.76,2.71s-.25,1.93-.76,2.71-1.2,1.4-2.08,1.85c-.88.45-1.88.67-3,.67s-2.1-.22-2.98-.67c-.88-.45-1.57-1.06-2.08-1.85s-.76-1.69-.76-2.71.25-1.93.76-2.71c.5-.78,1.2-1.4,2.08-1.85.88-.45,1.87-.67,2.98-.67ZM184.93,93.63c-.64,0-1.21.13-1.72.38s-.9.62-1.2,1.09c-.3.47-.44,1.02-.44,1.64s.15,1.19.44,1.66c.3.46.7.82,1.2,1.08.5.26,1.08.38,1.72.38s1.24-.13,1.75-.38c.51-.26.91-.62,1.2-1.08.29-.46.43-1.02.43-1.66s-.14-1.17-.43-1.64c-.29-.47-.69-.84-1.2-1.09-.51-.26-1.1-.38-1.75-.38ZM188.89,103.76c1.5,0,2.8.17,3.89.5s1.93.82,2.52,1.44.89,1.38.89,2.26-.3,1.63-.89,2.26-1.43,1.1-2.52,1.44-2.38.5-3.89.5-2.8-.17-3.89-.5c-1.09-.34-1.93-.82-2.52-1.44-.59-.62-.89-1.38-.89-2.26s.3-1.63.89-2.26c.59-.62,1.43-1.1,2.52-1.44,1.09-.34,2.38-.5,3.89-.5ZM188.89,105.75c-1.01,0-1.87.08-2.59.25-.72.17-1.27.42-1.66.74-.38.33-.58.73-.58,1.21s.19.89.58,1.22c.38.34.94.59,1.66.76.72.17,1.58.25,2.59.25s1.89-.08,2.6-.25c.71-.17,1.26-.42,1.64-.76.38-.34.58-.74.58-1.22s-.19-.88-.58-1.21c-.38-.33-.93-.58-1.64-.74-.71-.17-1.58-.25-2.6-.25ZM193.45,90.27h2.5v12.89h-2.5v-12.89ZM195.21,93.27h3.77v2.06h-3.77v-2.06ZM195.21,97.97h3.77v2.09h-3.77v-2.09Z"/>
    <path class="cls-1" d="M207.54,110.21v-17.69h2.86l5.86,10.39,1.85,3.72h.12c-.08-.9-.16-1.86-.25-2.88s-.13-2.02-.13-2.98v-8.26h2.66v17.69h-2.86l-5.86-10.42-1.85-3.7h-.1c.06.91.14,1.86.22,2.86.08.99.12,1.98.12,2.95v8.3h-2.64Z"/>
    <path class="cls-1" d="M228.04,110.55c-.75,0-1.42-.16-2-.48-.58-.32-1.04-.77-1.38-1.34-.34-.58-.5-1.25-.5-2.02,0-1.42.63-2.52,1.88-3.3,1.26-.78,3.26-1.32,6.01-1.62-.02-.51-.1-.98-.24-1.42-.14-.43-.4-.78-.76-1.04-.36-.26-.87-.4-1.52-.4s-1.35.14-1.99.41c-.64.27-1.25.58-1.82.94l-1.03-1.87c.46-.29.98-.56,1.54-.83.56-.26,1.16-.48,1.8-.65.64-.17,1.3-.25,1.99-.25,1.1,0,2.01.22,2.71.66.7.44,1.23,1.08,1.57,1.91.34.83.52,1.84.52,3.02v7.94h-2.26l-.22-1.51h-.1c-.59.51-1.24.95-1.94,1.31-.7.36-1.46.54-2.26.54ZM228.88,108.34c.58,0,1.11-.13,1.61-.4.5-.26,1.02-.65,1.56-1.16v-3.22c-1.3.14-2.33.36-3.1.64-.77.28-1.32.61-1.64.98-.33.38-.49.81-.49,1.31,0,.66.2,1.13.6,1.42.4.29.89.43,1.46.43Z"/>
    <path class="cls-1" d="M244.24,110.55c-1.2,0-2.29-.28-3.26-.83-.98-.55-1.75-1.34-2.33-2.38-.58-1.03-.86-2.28-.86-3.73,0-1.07.17-2.04.5-2.89.34-.86.79-1.58,1.37-2.18.58-.6,1.22-1.06,1.94-1.38.72-.32,1.46-.48,2.21-.48,1.17,0,2.15.26,2.95.78.8.52,1.41,1.25,1.82,2.18.42.94.62,2.03.62,3.28,0,.27-.01.53-.04.78-.02.25-.06.46-.11.64h-8.57c.08.83.3,1.55.66,2.15.36.6.83,1.06,1.42,1.39s1.25.49,2,.49c.59,0,1.14-.09,1.66-.26.51-.18,1.01-.42,1.49-.72l.96,1.75c-.61.4-1.28.74-2.03,1.01s-1.55.41-2.41.41ZM240.47,102.41h6.34c0-1.12-.25-1.99-.76-2.62s-1.24-.94-2.2-.94c-.54,0-1.06.14-1.54.41-.48.27-.88.67-1.21,1.2-.33.53-.54,1.18-.64,1.94Z"/>
    <path class="cls-1" d="M252.3,110.21v-13.22h2.26l.24,1.87h.05c.58-.61,1.2-1.12,1.86-1.55.66-.42,1.41-.64,2.24-.64.98,0,1.75.21,2.33.64s1.01,1.02,1.3,1.79c.66-.7,1.33-1.28,2.03-1.74.7-.46,1.45-.68,2.27-.68,1.38,0,2.4.45,3.06,1.36.66.9,1,2.2,1,3.88v8.3h-2.78v-7.97c0-1.14-.18-1.95-.53-2.44s-.9-.73-1.66-.73c-.45,0-.92.14-1.4.43-.49.29-1.01.74-1.57,1.34v9.36h-2.76v-7.97c0-1.14-.18-1.95-.53-2.44-.35-.49-.91-.73-1.68-.73-.43,0-.9.14-1.39.43-.5.29-1.02.74-1.56,1.34v9.36h-2.76Z"/>
    <path class="cls-1" d="M280.24,110.55c-1.09,0-2.11-.28-3.06-.83-.95-.55-1.72-1.34-2.3-2.38s-.88-2.28-.88-3.73.29-2.72.88-3.76,1.35-1.82,2.3-2.36c.95-.54,1.97-.82,3.06-.82.8,0,1.58.16,2.33.47.75.31,1.42.76,1.99,1.36.58.59,1.03,1.32,1.37,2.17s.5,1.84.5,2.94c0,1.46-.29,2.7-.88,3.73-.58,1.03-1.34,1.82-2.28,2.38-.94.55-1.95.83-3.04.83ZM280.24,108.24c.69,0,1.28-.19,1.79-.58.5-.38.89-.92,1.16-1.62.27-.7.41-1.51.41-2.44s-.14-1.74-.41-2.44c-.27-.7-.66-1.24-1.16-1.63-.5-.39-1.1-.59-1.79-.59s-1.31.2-1.81.59c-.5.39-.89.94-1.16,1.63-.27.7-.41,1.51-.41,2.44s.14,1.74.41,2.44c.27.7.66,1.24,1.16,1.62.5.38,1.11.58,1.81.58Z"/>
    <path class="cls-1" d="M289.69,110.21v-13.22h2.26l.24,2.38h.05c.48-.85,1.05-1.51,1.7-1.98.66-.47,1.34-.71,2.06-.71.32,0,.59.02.82.07.22.05.44.11.65.19l-.48,2.42c-.24-.08-.46-.14-.65-.17-.19-.03-.42-.05-.7-.05-.53,0-1.09.21-1.68.64-.59.42-1.1,1.16-1.51,2.22v8.21h-2.76Z"/>
    <path class="cls-1" d="M299.51,110.21v-19.13h2.76v5.06l-.12,2.62c.58-.58,1.21-1.07,1.9-1.48.69-.41,1.48-.61,2.38-.61,1.41,0,2.44.45,3.08,1.36.65.9.97,2.2.97,3.88v8.3h-2.76v-7.97c0-1.14-.18-1.95-.53-2.44-.35-.49-.92-.73-1.7-.73-.61,0-1.15.15-1.62.44-.47.3-1,.74-1.6,1.33v9.36h-2.76Z"/>
    <path class="cls-1" d="M319.93,110.55c-1.2,0-2.29-.28-3.26-.83-.98-.55-1.75-1.34-2.33-2.38-.58-1.03-.86-2.28-.86-3.73,0-1.07.17-2.04.5-2.89.34-.86.79-1.58,1.37-2.18.58-.6,1.22-1.06,1.94-1.38.72-.32,1.46-.48,2.21-.48,1.17,0,2.15.26,2.95.78.8.52,1.41,1.25,1.82,2.18.42.94.62,2.03.62,3.28,0,.27-.01.53-.04.78-.02.25-.06.46-.11.64h-8.57c.08.83.3,1.55.66,2.15.36.6.83,1.06,1.42,1.39s1.25.49,2,.49c.59,0,1.14-.09,1.66-.26.51-.18,1.01-.42,1.49-.72l.96,1.75c-.61.4-1.28.74-2.03,1.01s-1.55.41-2.41.41ZM316.16,102.41h6.34c0-1.12-.25-1.99-.76-2.62s-1.24-.94-2.2-.94c-.54,0-1.06.14-1.54.41-.48.27-.88.67-1.21,1.2-.33.53-.54,1.18-.64,1.94Z"/>
    <path class="cls-1" d="M332.53,110.55c-1.09,0-2.04-.27-2.86-.82s-1.45-1.34-1.9-2.38c-.45-1.04-.67-2.29-.67-3.74s.27-2.66.8-3.7,1.23-1.84,2.09-2.4c.86-.56,1.77-.84,2.75-.84.77,0,1.42.13,1.96.4.54.26,1.07.63,1.6,1.09l-.1-2.18v-4.9h2.76v19.13h-2.26l-.24-1.49h-.07c-.5.51-1.07.94-1.73,1.3s-1.37.53-2.14.53ZM333.2,108.22c.56,0,1.08-.13,1.56-.38s.96-.66,1.44-1.22v-6.43c-.48-.43-.96-.74-1.44-.92s-.97-.28-1.46-.28c-.61,0-1.16.19-1.67.56s-.91.9-1.21,1.58c-.3.68-.46,1.5-.46,2.46s.13,1.84.38,2.53c.26.7.63,1.22,1.12,1.57.49.35,1.07.53,1.74.53Z"/>
    <path class="cls-1" d="M347,110.55c-1.41,0-2.44-.46-3.1-1.37-.66-.91-.98-2.2-.98-3.86v-8.33h2.78v7.99c0,1.12.18,1.93.53,2.42.35.5.91.74,1.68.74.61,0,1.15-.16,1.63-.47.48-.31.99-.81,1.54-1.5v-9.19h2.78v13.22h-2.28l-.22-1.99h-.07c-.61.69-1.25,1.25-1.92,1.68-.67.43-1.46.65-2.38.65Z"/>
    <path class="cls-1" d="M361.57,110.55c-.9,0-1.79-.18-2.68-.53-.89-.35-1.65-.79-2.29-1.32l1.32-1.8c.58.46,1.16.84,1.76,1.12.6.28,1.25.42,1.96.42.78,0,1.36-.17,1.74-.52.38-.34.56-.76.56-1.26,0-.4-.14-.74-.42-1.01-.28-.27-.64-.51-1.09-.71-.45-.2-.91-.39-1.39-.56-.59-.22-1.17-.49-1.74-.8-.57-.31-1.04-.71-1.4-1.2-.37-.49-.55-1.1-.55-1.84s.19-1.42.56-1.99.92-1.03,1.62-1.37c.7-.34,1.54-.5,2.52-.5.88,0,1.68.15,2.41.46.73.3,1.35.67,1.86,1.1l-1.27,1.7c-.46-.34-.94-.61-1.42-.83-.48-.22-.98-.32-1.51-.32-.74,0-1.28.16-1.63.47-.35.31-.53.7-.53,1.16,0,.37.13.67.38.91.26.24.6.45,1.02.62.42.18.88.36,1.36.55.46.16.92.35,1.38.56.46.22.87.47,1.24.77.37.3.67.66.9,1.08s.35.95.35,1.57c0,.74-.19,1.42-.58,2.04s-.94,1.12-1.68,1.48c-.74.36-1.66.54-2.76.54Z"/>
    <path class="cls-1" d="M380.29,110.55c-1.2,0-2.27-.28-3.22-.83-.94-.55-1.7-1.34-2.26-2.38-.56-1.03-.84-2.28-.84-3.73s.3-2.72.91-3.76c.61-1.03,1.41-1.82,2.4-2.36.99-.54,2.06-.82,3.22-.82.85,0,1.58.14,2.21.43s1.18.65,1.66,1.08l-1.37,1.8c-.35-.32-.72-.57-1.1-.76-.38-.18-.8-.28-1.25-.28-.74,0-1.39.2-1.97.59-.58.39-1.03.94-1.36,1.63-.33.7-.49,1.51-.49,2.44s.16,1.74.48,2.44c.32.7.76,1.24,1.32,1.62.56.38,1.2.58,1.92.58.56,0,1.08-.12,1.56-.35.48-.23.92-.52,1.32-.85l1.15,1.85c-.61.54-1.29.96-2.04,1.24-.75.28-1.5.42-2.26.42Z"/>
    <path class="cls-1" d="M390.08,110.55c-.75,0-1.42-.16-2-.48-.58-.32-1.04-.77-1.38-1.34-.34-.58-.5-1.25-.5-2.02,0-1.42.63-2.52,1.88-3.3,1.26-.78,3.26-1.32,6.01-1.62-.02-.51-.1-.98-.24-1.42-.14-.43-.4-.78-.76-1.04-.36-.26-.87-.4-1.52-.4s-1.35.14-1.99.41c-.64.27-1.25.58-1.82.94l-1.03-1.87c.46-.29.98-.56,1.54-.83.56-.26,1.16-.48,1.8-.65.64-.17,1.3-.25,1.99-.25,1.1,0,2.01.22,2.71.66.7.44,1.23,1.08,1.57,1.91.34.83.52,1.84.52,3.02v7.94h-2.26l-.22-1.51h-.1c-.59.51-1.24.95-1.94,1.31-.7.36-1.46.54-2.26.54ZM390.92,108.34c.58,0,1.11-.13,1.61-.4.5-.26,1.02-.65,1.56-1.16v-3.22c-1.3.14-2.33.36-3.1.64-.77.28-1.32.61-1.64.98-.33.38-.49.81-.49,1.31,0,.66.2,1.13.6,1.42.4.29.89.43,1.46.43Z"/>
    <path class="cls-1" d="M404.65,110.55c-1.41,0-2.44-.46-3.1-1.37-.66-.91-.98-2.2-.98-3.86v-8.33h2.78v7.99c0,1.12.18,1.93.53,2.42.35.5.91.74,1.68.74.61,0,1.15-.16,1.63-.47.48-.31.99-.81,1.54-1.5v-9.19h2.78v13.22h-2.28l-.22-1.99h-.07c-.61.69-1.25,1.25-1.92,1.68-.67.43-1.46.65-2.38.65Z"/>
    <path class="cls-1" d="M420.18,110.55c-1.09,0-2.04-.27-2.86-.82s-1.45-1.34-1.9-2.38c-.45-1.04-.67-2.29-.67-3.74s.27-2.66.8-3.7,1.23-1.84,2.09-2.4c.86-.56,1.77-.84,2.75-.84.77,0,1.42.13,1.96.4.54.26,1.07.63,1.6,1.09l-.1-2.18v-4.9h2.76v19.13h-2.26l-.24-1.49h-.07c-.5.51-1.07.94-1.73,1.3s-1.37.53-2.14.53ZM420.85,108.22c.56,0,1.08-.13,1.56-.38s.96-.66,1.44-1.22v-6.43c-.48-.43-.96-.74-1.44-.92s-.97-.28-1.46-.28c-.61,0-1.16.19-1.67.56s-.91.9-1.21,1.58c-.3.68-.46,1.5-.46,2.46s.13,1.84.38,2.53c.26.7.63,1.22,1.12,1.57.49.35,1.07.53,1.74.53Z"/>
    <path class="cls-1" d="M433.88,110.55c-.75,0-1.42-.16-2-.48-.58-.32-1.04-.77-1.38-1.34-.34-.58-.5-1.25-.5-2.02,0-1.42.63-2.52,1.88-3.3,1.26-.78,3.26-1.32,6.01-1.62-.02-.51-.1-.98-.24-1.42-.14-.43-.4-.78-.76-1.04-.36-.26-.87-.4-1.52-.4s-1.35.14-1.99.41c-.64.27-1.25.58-1.82.94l-1.03-1.87c.46-.29.98-.56,1.54-.83.56-.26,1.16-.48,1.8-.65.64-.17,1.3-.25,1.99-.25,1.1,0,2.01.22,2.71.66.7.44,1.23,1.08,1.57,1.91.34.83.52,1.84.52,3.02v7.94h-2.26l-.22-1.51h-.1c-.59.51-1.24.95-1.94,1.31-.7.36-1.46.54-2.26.54ZM434.72,108.34c.58,0,1.11-.13,1.61-.4.5-.26,1.02-.65,1.56-1.16v-3.22c-1.3.14-2.33.36-3.1.64-.77.28-1.32.61-1.64.98-.33.38-.49.81-.49,1.31,0,.66.2,1.13.6,1.42.4.29.89.43,1.46.43Z"/>
    <path class="cls-1" d="M448.5,110.55c-.99,0-1.78-.2-2.36-.59-.58-.39-1-.94-1.26-1.63-.26-.7-.38-1.51-.38-2.44v-6.67h-1.92v-2.06l2.06-.17.31-3.65h2.3v3.65h3.43v2.23h-3.43v6.7c0,.78.15,1.38.46,1.79.3.41.8.61,1.49.61.22,0,.46-.03.72-.1.26-.06.48-.14.67-.22l.5,2.04c-.35.11-.75.22-1.19.34-.44.11-.91.17-1.4.17Z"/>
    <path class="cls-1" d="M457.45,110.55c-1.41,0-2.44-.46-3.1-1.37-.66-.91-.98-2.2-.98-3.86v-8.33h2.78v7.99c0,1.12.18,1.93.53,2.42.35.5.91.74,1.68.74.61,0,1.15-.16,1.63-.47.48-.31.99-.81,1.54-1.5v-9.19h2.78v13.22h-2.28l-.22-1.99h-.07c-.61.69-1.25,1.25-1.92,1.68-.67.43-1.46.65-2.38.65Z"/>
    <path class="cls-1" d="M472.02,110.55c-.9,0-1.79-.18-2.68-.53-.89-.35-1.65-.79-2.29-1.32l1.32-1.8c.58.46,1.16.84,1.76,1.12.6.28,1.25.42,1.96.42.78,0,1.36-.17,1.74-.52.38-.34.56-.76.56-1.26,0-.4-.14-.74-.42-1.01-.28-.27-.64-.51-1.09-.71-.45-.2-.91-.39-1.39-.56-.59-.22-1.17-.49-1.74-.8-.57-.31-1.04-.71-1.4-1.2-.37-.49-.55-1.1-.55-1.84s.19-1.42.56-1.99.92-1.03,1.62-1.37c.7-.34,1.54-.5,2.52-.5.88,0,1.68.15,2.41.46.73.3,1.35.67,1.86,1.1l-1.27,1.7c-.46-.34-.94-.61-1.42-.83-.48-.22-.98-.32-1.51-.32-.74,0-1.28.16-1.63.47-.35.31-.53.7-.53,1.16,0,.37.13.67.38.91.26.24.6.45,1.02.62.42.18.88.36,1.36.55.46.16.92.35,1.38.56.46.22.87.47,1.24.77.37.3.67.66.9,1.08s.35.95.35,1.57c0,.74-.19,1.42-.58,2.04s-.94,1.12-1.68,1.48c-.74.36-1.66.54-2.76.54Z"/>
  </g>
</svg>