<?xml version="1.0" encoding="UTF-8"?>
<svg class="a1" xmlns="http://www.w3.org/2000/svg" viewBox="0 0 600 500">
  <defs>
    <style>
      .cls-1 {
        fill: #9b9288;
      }

      .cls-2 {
        fill: #4c473f;
      }

      .cls-3 {
        fill: #656156;
      }

      .cls-4 {
        fill: #7e7669;
      }

      .cls-5 {
        fill: #c9caca;
      }

      .cls-6 {
        fill: #928a7d;
      }

      .cls-7 {
        fill: #45413a;
      }

      .cls-8 {
        fill: #6a6358;
      }

      .cls-9 {
        fill: #82796d;
      }

      .cls-10 {
        fill: #867b6f;
      }
    </style>
  </defs>
  <g>
    <path class="cls-10" d="M204.24,71.94v.96s1.2,0,1.2,0l.24-.48c2.75.65,9.19,3.19,9.6,6.24.08.62-.25,1.35.24,1.44.23.04.48-.02.72,0v-1.44c2.37.01,3.98-1,5.52-1,.73,0,1.87.64,2.16.52l.7.48.26-.48c.73.12,1.69-.14,2.4,0l.48.48c1.05.21,2.88.21,3.84.48-.08.38.47.45.48.48.07.24-.04.65,0,.96h-1.44s.48,1.92.48,1.92c-1.19-.08-2.44.11-3.62.02-1.42-.11-5.75-1.67-3.59,1.19.92,1.21,3.77,2.37,5.27,3.37,3.22,2.15,6.92,5.27,10.57,6.71,3.96,1.56,2.51-1.02,4.31-1.94,2.39-1.23,3.44,1.59,5.3,2.41,2.94,1.3,5.97,2.46,8.79,4.16,2.75,1.66,12.91,9.3,13.29,12.16.22,1.66-1.95,4.23,1.42,4.08v-1.92c3.02-.5,1.3.91,2.4,2.88-.03,0-.09.35-.33.4-.6.13-1.24,0-1.76.15-1.05.3-2.33,3.11-2.22,4.26h-.25c-1.58-.96-3.72-.1-5.21-.54-.5-.15-.96-.97-1.56-1.32-.68-.4-1.5-.43-2.1-.78s-1.01-1.15-1.75-1.61c-2.75-1.67-2.89.97-3.05,3.05-.04.55.33,1.32-.48,1.2-.6-3.58-2.95-6.73-4.87-9.77-1.54-2.43-3.64-5.85-5.46-7.97-1.17-1.36-2.38-1.18-2.06.62.44,2.55,3.33,5.53,4.65,7.84.46.81,1.77,3.14,1.93,3.84.27,1.2-.62,2.02-.41,2.78.25.92,1.76.64,1.91.74.4.29-1.45,3.31.29,3.79.66.18,1.36-.11,2.12.27,1.24.62,2.68,5.49,4.13,5.95.52.17,1.08.03,1.61.06l-.07.65c-.2.46-.8.78-.89,1.27-.64-.46-2.78,1.2-2.88,1.44-1.59-1.57-1.62.58-1.92.96-.61.78-1.88-2.5-3.84-.96-.34.27-1.22,2.16-1.36,2.71-.27,1.06-.03,3.87-1.28,4.48-.95.47-.71-.78-.72-1.2-.03-1.77.18-3.34-.48-5.04-1.26-.13-.76,0-.97.7-.25.87-.45,2.8-.69,3.17-.27.41-1.58.83-2.17,1.19-.45.27-.86,1.08-1.26,1.16-1.83.4-4.87-5.14-6.74-5.69-1.02-.3-2.77,1.21-4,.92.22-.97,2.71-1.53,2.4-2.64s-2.28-.41-2.88-.96c.97-1.31,3.78-1.17,3.84-3.12-1.26-.88-6.28,1.89-6.71,1.43-.11-.11-1.08-2.77-.97-2.87,1.35.25,3.8-1.58,4.32-2.64.57-1.16-1.66-.47-1.44-.96.24-.53,2.84-2.22,1.92-3.12-.3-.29-5.1.5-6.89-.55-2.93-1.72.4-3.24.66-5.46.1-.82-.27-2.44-.94-2.9-1.02-.71-2.09.3-3.14.3-.76,0-1.31-.44-1.93-.51-1.69-.18-3.57.16-5.03-1.2-1.33-1.23.51-2.24.49-3.36,0-.2-.86-3-.97-3.12-.89-1.04-.94.85-1,.92-.98,1.25-3.18-2.9-3.79-3.57-1.64-1.79-1.93-1.12-3.59-3.6-.07-.1-1.86-1.33-1.99-1.37-1.84-.54-2,1.08-2.88,1.32-.63.18-1.32-.06-1.89.05s-.65.48-.69.49c-.94.19-3.2-.47-4.17-.86-3.11-1.27-4.07-5-8.3-3.94.06-1.02.19-4.73-.21-5.31-.43-.62-2.36-.68-3.15-1.17s-.9-1.39-1.42-1.94-1.29-.7-1.7-1.18c-.91-1.04-.81-2.88-1.2-3.84,1.55-.27,1.94-3.1,2.68-3.32.71-.2,3.41-.14,4.27-.03,1.15.15,6.02,2.36,6.48,1.91l-.47-1.9c.93.05,1.29-.89,2.14-1,1.03-.14,1.85.43,2.86.52,1.34.12,2.37-.15,3.62-.5l-.48-1.44c.82.28,1.73-.9,1.92-.96.51-.15,2.64-.07,3.36,0ZM202.32,80.1c-.32-1.24-1.62-.78-2.41-1.19-.5-.26-3.61-3.35-4.31-.97-.32,1.1-.12.95.62,1.28s2.04,1.21,2.57,1.29c.62.1,2.47-.85,3.53-.41Z"/>
    <path class="cls-3" d="M468.59,310.02c.89,1.42,1.68,2.94,2.66,4.3,4.87,6.75,5.97,6.78,7.42,15.61.19,1.14.94,3.36.95,4.33,0,.54-2.5,7-2.94,7.62-.81,1.14-2.06,1.03-2.31,1.29-.11.11-.1,2.58-.03,3.09.19,1.41-2.11,2.48-.7,5.81.42,1,.5,2.12.17,3.16l-.43,1.35c-.04-.65-.49-1.18-.47-1.67s.51-.96.42-1.39c-.04-.19-1.95-3.11-2.16-3.15-.39-.07-.86.43-1.32.38s-1.01-.68-1.59-.81c-2.31-.54-2.79.45-4.32.8-3.75.85-9.55,1.28-13.26.47-2.16-.47-5.63-1.94-6.35-4.2-.26-.81-.56-2.69-.69-3.63-1.09-7.96,2.08-13.77,6.97-19.89,1.27-1.59,3.49-3.9,5.02-1.46-1.58-.27-.78.82-.94,1.7-.1.56-.87,2.54-.26,2.62,2.79.37,1.19-3.25,1.68-4.32.02-.05.54-.13.73-.45.89-1.47-.47-3.17-.22-4.05,1.77-1.46,2.81-4.8,4.51-6.08,1.78-1.34,3.76.26,4.74-.02.32-.09.94-.74,1.41-1.03.47-.29,1.26-.31,1.3-.37ZM465.05,317.76c-1.01.29-2.47,2.59-2.63,3.64-.13.82.76,3.53,1.13,4.46,1,2.54,4.63,7.55,6.97,8.87.5.28,2.07.83,2.57.69,1.03-.29,1.83-3.07,1.76-4.02-.19-2.44-2.19-8.32-3.63-10.33-.32-.45-2.78-2.99-3.09-3.14-.69-.35-2.35-.38-3.07-.17ZM456.12,332.1h-.95c-.06,2.02-1.4,3.85,1.43,4.32,0,.02.32-.01.41.3.47,1.52,1.4,4.09,2.69,5,.81.58,1.81.63,2.65,1.19,1.14.77,2.41,2.26,3.67,3.04,1.89,1.17,5.47,2.15,4.99-1.15-.21-1.44-2.39-2.41-3.38-3.34-2.61-2.41-6.8-6.69-8.56-9.68-.59-1.01-1.66-4.81-2.23-4.97-.26-.07-1.2-.17-1.2.24.05,1.67.26,3.39.48,5.04ZM457.08,347.46c-.8.13-1.17-.65-1.77-.87-.76-.28-1.86-.26-2.7-.66-1.92-.93-1.09-2.33-1.3-3.98-.07-.51-.42-.97-.46-1.46-.12-1.54.53-6.39-1.24-6.92-2.13-.63-2.94,1.84-3.1,3.55-.2,2.08-.23,7.74.74,9.38,1.29,2.16,5.77,2.62,8.05,2.3.76-.11,2.19-.27,1.78-1.34Z"/>
    <path class="cls-6" d="M236.39,81.06v.96s.67-.05.67-.05l.29-.43c2.2.66,7.83,2.8,9.58,4.09.97.72,1.44,2.07,1.92,2.4.7.49,2.31.69,3.36,1.44,4.73,3.36,10.51,8.32,14.41,12.46.51.54,1.34,1.61,1.43,1.69l-.48.24c.01.67,1.14,1.86,1.76,2.09.41.15.95-.01,1.12.06,1.87.86,4.44,4.75,5.06,6.7.31.99.07,2.02.7,2.9-.08-.04-.78-.04-.96,0-1.1-1.98.62-3.38-2.4-2.88v1.92c-3.37.14-1.2-2.42-1.42-4.08-.38-2.86-10.54-10.5-13.29-12.16-2.82-1.71-5.86-2.87-8.79-4.16-1.85-.82-2.9-3.64-5.3-2.41-1.8.93-.36,3.5-4.31,1.94-3.65-1.44-7.35-4.56-10.57-6.71-1.49-1-4.35-2.16-5.27-3.37-2.16-2.86,2.17-1.3,3.59-1.19,1.18.09,2.43-.1,3.62-.02l-.48-1.92h1.44c-.04-.31.07-.72,0-.96,1.81.81,2.42.96,4.32,1.44Z"/>
    <path class="cls-6" d="M200.88,71.94c-.19.06-1.1,1.24-1.92.96l.48,1.44c-1.25.35-2.28.62-3.62.5-1.01-.09-1.83-.66-2.86-.52-.86.11-1.22,1.05-2.14,1l.47,1.9c-.47.45-5.34-1.76-6.48-1.91-.85-.11-3.56-.17-4.27.03-.74.21-1.13,3.05-2.68,3.32-1.11-2.77-2.83-4.12-3.84-6.72,1.93-1.97,3.73-1.2,6.02-1.42,4.81-.46,5.67.05,10.06.45,2.78.25,5.9-.27,8.65,0,.78.07,1.74.18,2.14.98Z"/>
    <path class="cls-9" d="M268.05,103.62c.08.06.59-.16.85.08.29.27,1,1.85,1.54,2.32-.17-.08-.7.09-1.12-.06-.62-.23-1.75-1.42-1.76-2.09l.48-.24Z"/>
    <path class="cls-6" d="M205.68,72.42l-.24.48h-1.2s0-.96,0-.96c1.04.09,1.25.44,1.44.48Z"/>
    <path class="cls-6" d="M216.24,78.66v1.44c-.24-.01-.49.05-.72,0-.49-.09-.16-.82-.24-1.44.32,0,.64,0,.96,0Z"/>
    <path class="cls-1" d="M224.87,78.18l-.26.48-.7-.48c1.22-.52.55-.07.96,0Z"/>
    <path class="cls-1" d="M237.35,81.54l-.29.43-.67.05v-.96c.86.22.9.46.96.48Z"/>
    <path class="cls-1" d="M227.75,78.66l-.48-.48c.61.12.45.47.48.48Z"/>
    <path class="cls-1" d="M232.07,79.62s-.56-.1-.48-.48c.66.19.45.47.48.48Z"/>
    <path class="cls-9" d="M212.4,118.98c1.82-.58,2.56-.91,3.86.71.34.42.42,1.07.51,1.16.14.14,1.92-.02,2.83.77.97.84,1.63,4.89,1.35,6.16-.34,1.54-1.22,1.34-1.74,1.86-.8.8-.38,2.42-2.28.39-.74-.79-1.21-1.66-2.14-2.41,1.02-.27-.02-1.4-.24-1.92-1.03-2.36-1.35-4.47-2.16-6.72Z"/>
    <path class="cls-4" d="M455.64,322.02h.48c-.49,1.07,1.11,4.69-1.68,4.32-.6-.08.16-2.06.26-2.62.16-.88-.65-1.97.94-1.7Z"/>
    <path class="cls-8" d="M465.05,317.76c.72-.21,2.38-.18,3.07.17.31.16,2.78,2.7,3.09,3.14,1.43,2.01,3.44,7.9,3.63,10.33.07.96-.73,3.73-1.76,4.02-.5.14-2.07-.41-2.57-.69-2.34-1.32-5.97-6.33-6.97-8.87-.36-.93-1.25-3.64-1.13-4.46.16-1.06,1.62-3.35,2.63-3.64Z"/>
    <path class="cls-8" d="M457.08,347.46c.41,1.07-1.02,1.23-1.78,1.34-2.28.32-6.76-.15-8.05-2.3-.98-1.63-.94-7.3-.74-9.38.17-1.71.98-4.17,3.1-3.55,1.77.52,1.12,5.37,1.24,6.92.04.49.4.95.46,1.46.21,1.65-.63,3.05,1.3,3.98.84.4,1.94.38,2.7.66.6.22.97,1,1.77.87Z"/>
    <path class="cls-4" d="M456.12,332.1c.17,1.25.27,3.41.48,4.32-2.84-.47-1.5-2.3-1.43-4.32h.95Z"/>
    <path class="cls-7" d="M314.59,233.86c.97.56,3.7,2.08,4.09,2.87s.9,4.27,1.17,5.55c.12.56-.09,1.22.08,1.84.18.65,1.37,1.41,1.39,2.46,0,.29-1.23.42-1.69,1.21s-.71,2.04-1.28,3.04c-.99,1.74-2.48,3.12-3.76,4.64-1.49,1.75-2.33.94-3.84,1.44-.08-.58.09-1.54.48-1.92,1.03-1.01,5.03-2.13,5.23-3.18.07-.37-.38-.82-.33-1.29.16-1.41,1.16-3.11,1.33-4.42.14-1.08.17-4.74-.22-5.52-.44-.87-1.7-1.15-2.07-1.53-.24-.24-.29-.88-.79-1.36-.99-.93-2.32-1.05-3.62-.94.74,3.19-2.58,3.55-4.07,5.77-1.19,1.79-1.52,4.87-1.22,6.96.1.74,1.74,2.4,2.42,2.86.84.56,1.85.58,2.41.96s.33.9.46,1.22c-2.12.35-4.79.82-6.93.5-.43-.06-.17-.64-.36-.86l-4.94-3.01c-1.21,1.47,2.19,2.45.72,3.36l-3.36-1.44c-.45-2.36-2.82-4.44-3.29-6.07-.36-1.24.11-3.14-.07-4.49.3-.14.41-1.51.71-1.93.62-.9,4.85-3.97,6.02-4.55.36-.18.43-.7.47-.71.22-.09.8.12,1.16-.02,2.79-1.04,5.82-3.03,8.68-3.33,2.64-.28,2.51.76,4.08,1.68.4.24.84.16.95.23Z"/>
    <path class="cls-2" d="M310.75,254.5c-.12-.31.11-.84-.46-1.22s-1.57-.39-2.41-.96c-.68-.46-2.32-2.12-2.42-2.86-.29-2.09.03-5.17,1.22-6.96,1.48-2.22,4.81-2.58,4.07-5.77,1.3-.11,2.63,0,3.62.94.51.48.55,1.12.79,1.36.38.38,1.63.66,2.07,1.53.4.78.36,4.45.22,5.52-.17,1.31-1.17,3.01-1.33,4.42-.05.47.4.92.33,1.29-.2,1.05-4.2,2.17-5.23,3.18-.01-.28-.45-.42-.48-.48Z"/>
    <path class="cls-6" d="M292.52,242.5c.18,1.35-.29,3.26.07,4.49.47,1.63,2.84,3.71,3.29,6.07l3.36,1.44c-.32.14-3.14-.2-3.43-.37-1.24-.72-1.16-1.33-1.91-2.17-1.27-1.42-2.67-2.13-2.89-4.32-.06-.62.61-4.06.86-4.31.16-.16.47-.74.66-.83Z"/>
  </g>
  <g>
    <path class="cls-5" d="M4.39,13.73v-3.46H1.23v-1.34h3.16v-3.47h1.39v3.47h3.17v1.34h-3.17v3.46h-1.39Z"/>
    <path class="cls-5" d="M14.02,15.76c-.77,0-1.44-.23-1.99-.7-.56-.46-.99-1.14-1.29-2.03-.3-.89-.45-1.98-.45-3.27s.15-2.37.45-3.25c.3-.88.73-1.54,1.29-1.98.56-.45,1.22-.67,1.99-.67s1.42.22,1.97.67c.55.45.98,1.11,1.28,1.98.3.88.45,1.96.45,3.25s-.15,2.38-.45,3.27c-.3.89-.73,1.57-1.28,2.03-.55.46-1.21.7-1.97.7ZM14.02,14.29c.39,0,.73-.15,1.03-.45.3-.3.54-.78.7-1.44.17-.66.25-1.54.25-2.64s-.08-1.97-.25-2.62c-.17-.65-.4-1.11-.7-1.4-.3-.29-.65-.43-1.03-.43s-.73.14-1.03.43c-.3.29-.54.75-.71,1.4s-.26,1.52-.26,2.62.09,1.98.26,2.64.41,1.14.71,1.44c.3.3.65.45,1.03.45Z"/>
    <path class="cls-5" d="M22.64,15.76c-.59,0-1.12-.08-1.59-.22-.47-.15-.88-.35-1.24-.59-.35-.25-.67-.5-.94-.77l.86-1.2c.22.22.46.43.72.62.26.19.55.34.88.46s.7.18,1.1.18c.43,0,.81-.09,1.16-.28.34-.19.62-.46.81-.81.2-.35.3-.77.3-1.25,0-.73-.2-1.29-.6-1.7-.4-.41-.93-.61-1.59-.61-.37,0-.68.06-.94.17-.26.11-.56.28-.89.5l-.89-.58.34-5.6h5.83v1.57h-4.27l-.27,3.01c.25-.13.5-.23.75-.3.25-.07.53-.1.83-.1.65,0,1.24.12,1.77.38s.95.64,1.27,1.17.47,1.2.47,2.02-.18,1.54-.55,2.13c-.37.59-.84,1.04-1.43,1.34-.59.31-1.22.46-1.9.46Z"/>
  </g>
</svg>