<?xml version="1.0" encoding="UTF-8"?>
<svg id="a1" xmlns="http://www.w3.org/2000/svg" viewBox="0 0 600 500">
  <defs>
    <style>
      .cls-1 {
        fill: #4c473f;
      }

      .cls-2 {
        fill: #736c60;
      }

      .cls-3 {
        fill: none;
      }

      .cls-4 {
        fill: #8b8074;
      }

      .cls-5 {
        fill: #656156;
      }

      .cls-6 {
        fill: #7e7669;
      }

      .cls-7 {
        fill: #c9caca;
      }

      .cls-8 {
        fill: #45413a;
      }

      .cls-9 {
        fill: #6a6358;
      }

      .cls-10 {
        fill: #867b6f;
      }

      .cls-11 {
        fill: #988f83;
      }

      .cls-12 {
        fill: #f6f4f1;
      }
    </style>
  </defs>
  <g>
    <path class="cls-3" d="M357.13,58.04c0-.16.02-.3-.02-.36h0c.04.06.02.21.02.36Z"/>
    <path class="cls-3" d="M349.33,65.48c-.68.49-1.47,1.01-2.2,1.37.74-.35,1.52-.88,2.2-1.37Z"/>
    <path class="cls-3" d="M357.13,58.04c0,.16,0,.33.1.44-.1-.12-.11-.29-.1-.44Z"/>
    <path class="cls-3" d="M359.06,63.64c.02.16.09.26.2.31-.11-.05-.18-.15-.2-.31-.18-1.44.41-3.36-.72-4.57-.08-.09-.18-.16-.29-.21.1.05.2.12.29.21,1.12,1.21.54,3.13.72,4.57Z"/>
    <path class="cls-3" d="M345.15,107.04c-.1-.94-.15-1.57-.16-2.03,0,.46.06,1.09.16,2.03.63-.11,2.62.19,2.83-.04.11-.12.06-.61.29-.89.65-.81,1.8-1.97,2.15-2.9,1.44-.26.95.74.96,1.67.02,1.86.24,2.66-1.45,3.83-1.61,1.11-2.05.19-3.83.25l.48,4.31c-.5-.09-1.18.31-1.44-.28-.89-2.04.24-3.64,0-5.95Z"/>
    <path class="cls-3" d="M345.91,102.32c.13-.28.28-.62.44-1.02.06-.16.14-.37.24-.63-.1.26-.18.48-.24.63-.16.41-.31.74-.44,1.02Z"/>
    <path class="cls-3" d="M365.1,76.09c-1.19.35-.88,1.15-1.23,3.06.36-1.92.04-2.71,1.23-3.06Z"/>
    <path class="cls-3" d="M318.75,102.72c.66.01,1.46.08,2.18.08-.72,0-1.51-.07-2.18-.08Z"/>
    <path class="cls-3" d="M332.68,95.05c.16.04.31.06.45.07-.14,0-.29-.03-.45-.07-.08-.76-.08-2.18.72-2.4-.8.22-.8,1.64-.72,2.4Z"/>
    <path class="cls-3" d="M314.93,109.43l-.02-1.41c-.1-.04-.23-.05-.36-.05.13,0,.25.01.36.05l.02,1.41Z"/>
    <path class="cls-3" d="M336.99,84.02c.68-.53,1.39-1.12,2.14-1.74-.75.62-1.47,1.21-2.14,1.74Z"/>
    <path class="cls-3" d="M332.86,97.7c-.09-.13-.14-.24-.18-.25h0s.1.12.18.25Z"/>
    <path class="cls-3" d="M333.24,91.24c.73.15,1.31.52,1.57.45-.26.07-.84-.3-1.57-.45Z"/>
    <path class="cls-3" d="M324.2,103.27c-.21.11-.31.35-.16.89.22.12.54.22.92.31-.37-.08-.7-.19-.92-.31-.14-.54-.05-.78.16-.89Z"/>
    <path class="cls-3" d="M205.56,353.03c-.24-1.98-1.03-2.9.25-4.78.99-1.45,2.22-1.84,3.57-2.66,1.61-.98,2.97-1.59,4.63-2.56,3.77-2.22,8.75-4.18,12.99-5.23.61-.15,1.25-.01,1.76-.15.86-.23.64-1.31.99-1.88.62-1,1.98-.25,2.9.01.33.1,1.11-.12.71.72-.41.85-1.96,2.57-2.66,3.6-.25.37-.68.44-.7.48-1-.25-1.29-.51-2.41-.26-1.18.26-4.45,2.45-5.29,3.36-.61.66-.76,1.85-1.01,2.1-.64.64-4.67,2.32-5.85,3.03-.98.59-1.61,1.43-2.23,1.84-.15.1-.87-.09-1.22.45-.36.56-.2,1.31-.22,1.95l-2.59-.46c-.76.17-1.83,3.42-2.98,3.75l-4.5.06c.34-2.37,1.19-3.83,3.84-3.36Z"/>
    <path class="cls-10" d="M246.81,115.19c.2-.08.71.14.9-.04.51-.48.41-2.21.53-2.84.8-.04,1.14.27.93-.69l-.45-.27c.08-.41.07-1.5,0-1.92,0-.04-.59-.18-.44-.64.09-.28.43-.29.44-.32.14-.35-.03-.68.45-1.22.53-.59,1.71-.8,1.9-1.47.32-1.14.33-2.95.61-4.19,1.1-.98.87-2.69,1.84-3.67h.72s.24-.48.24-.48c1.25-.29,1.39,1.34,1.44,2.4.13.14,3.14-1.24,2.4.24-.59,1.17-3.86,2.01-3.31,3.78.12.39.72.65.85,1.08.62,2.04-.61,8.31-3.77,7.37-.14.11,1.46,1.73,1.45,2.64,0,1.25-1.82,2.13-1.45,3.6,1.64.08,3.71.28,4.57-1.43.5-.98-.06-2.18.44-2.91.28-.41,2.84-.84,3.57-1.47-.43-2.51,1.45-2.48,2.43-3.33.37-.32-.55-1.9-.49-2.61.08-1.14,1.85-1.51,1.47-2.88-.31-1.13-2.7-.56-2.86-.74l-.49-2.38c.99-.13,3.05.39,3.62-.46.49-.73.04-1.78.28-2.6.18-.62,1.41-1.36,1.87-1.97,1.24-1.67,2.82-4.55,2.32-6.65-.25-1.02-1.08-1.37-.9-2.94.23-1.96,6.21-8.34,7.98-8.82.38-.1.76-.06,1.14-.06l-.96,4.79c.26.27,1.58-.5,1.91-.73,2.85-1.99,4.94-5.57,7.44-7.91.38-.35,2.93-2.55,3.11-2.64.8-.39,1.63-.06,2.42-.45.16-.08,2.29-2.23,2.38-2.41.46-.9-.62-.73-1.11-.63-3.59.73-9.01,5.44-8.48-1.53.15-.04.32.03.48,0l.48-.48c.15-.05.34.05.48,0l.48-.48c.25-.08.7.08.96,0l.68-.05.28-.43c5.24-1.48,13.93-4.53,18.95-6.73.94-.41,2.42-1.83,3.46-1.83,1.04,0,1.82,1.2,2.46,1.39,1.64.47,2.75-.87,3.05,1.75.58,5.16-10.57,15.02-14.24,18.39-.95.87-2.77,1.7-3.63,2.61-3.23,3.43-6.82,7.93-9.32,11.79-.37.56-.94.33-1.21.46-.04-.87.51-1.72.43-2.1-.11-.5-1.05-.71-.94-1.98.09-.96,1.18-1.14.99-2.16-2.2-.33-3.43.62-4.81,2.15-2.28,2.53-7.2,10.06-8.39,13.19-.35.91-1.42,3.44.02,3.84,1.13.31,2.29-1.32,3.58-.95.5,1.29-2.91,3.17-1.45,4.08,1.81,1.12,3.37-.66,4.33-.73.8-.06,1.51.88,2.4,0-.07.24.03.65,0,.96-.03.31,0,.64,0,.96-.01.49.13,1.71-.07,1.87-.13.1-.56-.03-.76.17-.19.19-.07.62-.2.76-.25.25-1.04-.07-1.3.14-.17.13-.26,1.25-1.01,1.64-1.6.82-2.92-.4-4-.2-.81.15-1.59.97-2.25,1.39-.13.08-.46-.06-.66.08-.98.7-1.66,1.52-1.74,2.8-1.72.7-1.92,2.3-4.8,2.88-.21.04-.46-.06-.68.05l-.28.43c-.54-.12-1.35.11-1.92,0-.08-.02-.53-.84-1.44-.48.05.56-.1,1.17,0,1.7.1.6.48.65.49.69.04.31-.04.65,0,.96-2.73.19-1.59.03-1.9-1.69-.24-1.32-1.46-1.48-2.62-1.15-.92.26-1.07,2.56-1.33,3.47-.13.45-.72.76-.73,1.03-.04.61,1.22,1.98-.61,1.7v-1.92c-1-.16-1.72.98-2.64.97-1.21,0-2.21-1.8-3.6-1.45-.43-1.94.91-1.51,1.44-1.92,1.08-.82-.83-.94-.89-1.01-.23-.25-.03-.98-.07-1.39-1.9,0-2.55,3.59-4.8,1.92.09-.19.33-3.18.47-4.08.23-1.49-.52-2.81,1.45-3.59Z"/>
    <path class="cls-11" d="M292.23,67.33c.49-.1,1.57-.27,1.11.63-.09.18-2.22,2.33-2.38,2.41-.8.39-1.63.06-2.42.45-.18.09-2.74,2.29-3.11,2.64-2.5,2.34-4.59,5.92-7.44,7.91-.32.23-1.64,1.01-1.91.73l.96-4.79c-.38,0-.76-.04-1.14.06-1.78.48-7.75,6.85-7.98,8.82-.19,1.58.65,1.93.9,2.94.51,2.1-1.08,4.98-2.32,6.65-.45.61-1.69,1.35-1.87,1.97-.24.82.21,1.87-.28,2.6-.57.85-2.62.33-3.62.46l.49,2.38c.16.18,2.55-.39,2.86.74.37,1.37-1.39,1.74-1.47,2.88-.05.71.86,2.3.49,2.61-.98.85-2.86.81-2.43,3.33-.73.63-3.28,1.06-3.57,1.47-.51.73.05,1.93-.44,2.91-.86,1.71-2.92,1.51-4.57,1.43-.36-1.46,1.45-2.35,1.45-3.6,0-.91-1.59-2.52-1.45-2.64,3.17.94,4.39-5.32,3.77-7.37-.13-.44-.73-.7-.85-1.08-.55-1.77,2.73-2.61,3.31-3.78.74-1.48-2.27-.09-2.4-.24-.05-1.06-.19-2.69-1.44-2.4.56-1.15.24-2.92.71-3.85.38-.76,2.64-2.9,3.35-3.84,2.54-3.37,4.66-7.12,7.45-10.3,3.24-3.7,6.89-5.24,10.1-8.61,1.23-1.29,1.04-.94,2.37-1.94,2.76-2.08,1.38-2.13,5.29-3.11-.53,6.97,4.9,2.25,8.48,1.53Z"/>
    <path class="cls-11" d="M345.88,67.26c.13-.01.26-.05.4-.09.27-.07.56-.19.85-.33.74-.35,1.52-.88,2.2-1.37.14-.1.27-.19.4-.29.16-.12.32-.23.46-.34.51-.37,1.37-1.21,2.22-1.95.38-.33.75-.64,1.08-.89.09-.07.17-.12.25-.17.29-.19.55-.34.73-.36.24-.04.46-.05.66-.05,2.67.02,1.22,3.27-.02,5.07-.13.19-.26.36-.37.51-.26.33-.54.67-.83,1.02-.58.69-1.22,1.41-1.9,2.15-.34.37-.69.74-1.05,1.12-.72.75-1.47,1.52-2.25,2.29-1.56,1.54-3.2,3.09-4.83,4.56-1.22,1.11-2.44,2.17-3.6,3.16-.39.33-.77.65-1.14.96-.75.62-1.47,1.21-2.14,1.74-.56-1.98,1.49-2.62,1.84-4.15.75-3.33-2.29-4.88-3.99-2.55-.67.92-3.14,4.84-3.39,5.72-.24.84-.28,1.56-.22,2.42.63.11,2.62-.2,2.83.05.27.3.05.64,1,1.39.08.07.09.27.48.48h0c0,.48,0,.96,0,1.44h0c0,.32.03.77.02,1.22,0,.15-.01.3-.03.44-.02.15-.04.29-.07.42-.1.39-.3.7-.67.79-.26.07-.84-.3-1.57-.45-.24-.05-.5-.08-.77-.06-.15.01-.31.04-.47.09-.8.25-2.49,2.74-2.69,2.82-.84.34-2.79-.57-3.36,1.44,1.08.1,2.31-.14,3.36,0,.04,0,.12.37.33.4.68.1,1.15.12,1.65.19.4.06.81.15,1.37.37h0v.96h0c-.42-.18-1.75-.05-2.85.19-.44.1-.85.21-1.14.33-.15.06-.27.12-.35.18-.04.03-.08.08-.13.15-.09.14-.19.35-.3.6-.28.62-.61,1.45-.99,1.92h0c-.16.19-.91.36-.96.48-.72-.39-1.24-.52-1.63-.48-.2.02-.37.07-.51.16-.22.13-.38.31-.52.52-.09.14-.18.28-.26.42-.04.07-.08.14-.12.21-.17.27-.34.49-.59.56-.15.04-.32.07-.5.09-.26.03-.55.04-.87.04,0,0,0,0-.01,0-.72,0-1.51-.07-2.18-.08-.17,0-.32,0-.47,0-.61.03-1.39-.1-1.92,0-.6-2.22,2.32-3.41,2.81-5.1.32-1.11-.19-2.61.13-3.71.3-1.03,2.2-1.49,2.34-1.74.74.48,1.76.69,2.6.44.16-.05,2.13-2.46,2.19-2.62.27-.76-1.48-2-2.39-1.65,2.45-5.89,3.71-6.49,8.17-10.78,3.04-2.93,5.61-6.71,8.85-9.37.68-.56,2.89-1.61,3.13-1.91-.04.17-.05.31-.05.43.03.85,1,.63,1.75.55Z"/>
    <path class="cls-8" d="M209.86,246.8c-.37,1.74-.59,3.71-.95,5.29-.43,1.84-1.99,3.06-3.83,3.12l.47,2.35-.64-.02-7.02-4.25h0c.01-.99-.4-1.39-.48-1.92-.44-3.11-.78-3.92-.16-7.06.35-1.73,1.81-2.6,2.56-3.25l1.91-3.12c-1.89,1.13-3.49,1.75-5.76,1.44-.27-.26.62-2.9-.71-2.39-1.57.6-3.02,1.93-4.89,2.3-.34.07-3.14.54-2.54-.63.24-.47,2.78-2.86,3.38-3.34l7.65-4.58c.17.14.67-.35.96.3.86,1.91,3.12,1.85,4.32,3.77l6.65,9.18v1.1c-1.44-.14-.71.74-.91,1.69Z"/>
    <path class="cls-4" d="M381.69,48.07s-.01,0-.02,0c-.6-.01-1.22-.06-1.81-.06-.3,0-.59.02-.88.05-1.05.13-3.17.69-5.16,1.27-.44.13-.88.26-1.3.39-.27.08-.54.17-.79.25-.23.07-.45.14-.66.21-.43.14-.82.27-1.12.38-.1.04-.21.09-.31.13-.05.02-.09.04-.14.06-.04.02-.07.04-.11.06-.17.09-.35.2-.53.32-.18.12-.36.25-.54.38-.25.19-.5.4-.73.61-.23.21-.43.42-.62.63-.15.17-.28.33-.4.49-.02.03-.05.07-.07.1-.27.4-.41.82-.54,1.22-.13.41-.24.8-.45,1.14-.83,1.38-1.75,3.08-2.67,4.64-.55.94-1.11,1.82-1.64,2.56-.12.17-.31.35-.52.52-.18.14-.38.26-.57.35-.16.08-.31.15-.46.18-.16.04-.3.04-.4-.01-.11-.05-.18-.15-.2-.31-.18-1.44.41-3.36-.72-4.57-.08-.09-.18-.16-.29-.21-.1-.05-.21-.09-.32-.13-.21-.07-.4-.13-.5-.24-.1-.12-.11-.29-.1-.44,0,0,0,0,0,0,0-.16.02-.3-.02-.36h0s-.05-.01-.07-.02c-.02,0-.02-.01-.05-.01-.13,0-.34.05-.59.12-.25.07-.53.16-.79.25-.22.08-.42.16-.59.22-.12.05-.23.1-.28.13-.8.49-2.02,2.42-2.71,2.6-.09.02-.18.03-.28.02-.2-.01-.44-.07-.7-.13s-.53-.13-.81-.15c-.14-.01-.28-.02-.42,0s-.28.04-.43.09-.28.12-.42.21c.05-.06-.1-.68.47-1.2.67-.61,2.47-1.74,3.39-2.38,6.72-4.72,11.73-5.73,19.31-8.03,3.44-1.05,6.61-2.89,10.39-2.27.12.29-.06.71.02.93h0c-.29.02-.58.02-.88.02Z"/>
    <path class="cls-11" d="M317.8,103.68c-.11.33-.12.6-.13.83,0,.11-.02.21-.04.31-.01.06-.03.12-.05.17-.04.09-.09.18-.17.26,0,0-.01.01-.02.02,0,0,0,0-.01.01-.19.19-.5.38-1.05.58l.02,3.56h-1.44s0,0,0,0l-.02-1.41c-.1-.04-.23-.05-.36-.05-.13,0-.27.01-.4.03-.27.03-.52.06-.66,0-.04-.02-.12-.47-.48-.72-.62-.43-1.32.07-.9-1.37.08-.28.81-1.7.9-1.74.11-.05,2.27-.49,2.4-.48.69.07,1.23.67,2.4,0Z"/>
    <path class="cls-10" d="M326.43,89.99c-.06.16-2.02,2.57-2.19,2.62-.83.25-1.86.04-2.6-.44.84-1.49,1-1.06,1.37-1.51.08-.1.89-1.98,1.03-2.33.91-.35,2.66.89,2.39,1.65Z"/>
    <path class="cls-4" d="M370.55,72.49c-.14.14-.74-.08-.94.02v-.95s.96-.01.96-.01c-.08.24.13.79-.01.94Z"/>
    <path class="cls-10" d="M312.52,115.9c-.31,2.28-2.94,6.14-2.36,8.13.77,2.63,3.78-2.15,4.76-1.17l-.47,2.86c.4.08,1.74.4,1.85.55.33.44.1,2.52,1.97,2.34.04-.08.96-1.31,1.03-1.37.12-.1,1.88-.46,2.33-.55,0-.32,0-.64,0-.96-.01-2.06-.33-4.13,2.59-3.3.6.17.61.77.77.9.84.73,1.92,1.3,2.4,2.4.77.33,1.1,1.23,2.1.92.26-.08.27-.43.3-.44v-1.92c1.52-.3,1.66.56,2.4,1.44.57.68.5.24.96,1.44,1.51-.48,2.08,1.48,3.12,1.47,1.01-.01,2.17-2.16,3.63-1.24.3.19.38.7.45.73.1.06.71.02.96,0,.92-.08,1.55-.32,1.44-1.44-.7.13-1.27-.07-1.93-.24-.84-.22-1.14-.19-.95-1.2l2.4.48c-.33-1.66-1.1-2.77-.98-4.57.12-1.79,1.51-6.49,3.86-5.98-.37,1.72.62,2.78.96,4.32.44.1.45-.47.48-.48-.53-2.33.83-3.93,1.92-5.75.11-.18,0-.64.46-1.21.57-.7,1.03-.82,1.94-.71.02.64-.03,1.28,0,1.92.01.28-.09.81.02.93.52.5,2.68.74,3.33.03.03-.2.34-.76.48-.96,0-.64,0-1.28,0-1.92-.01-2.31.41-4.37.48-6.71.02-.54-.08-1.09.05-1.63l.43-.29c-.51-3.58,3.19-10.67,4.58-14.37.77-2.05,3.32-7.76,3.58-9.13,1.5-.11,2.72-1.88,2.88-3.36.27-.02.63.13.85-.08.38-.5,1.85-3.19,2.02-3.27v-.95s.96-.01.96-.01c.73-2.07,5.04-5.8,6.73-7.42,1.07-1.02,1.65-2.4,2.56-3.54.7-.88,1.56-1.52,2.26-2.43.97-1.25,3.44-4.72,1.88-6.28h0s-.47-.48-.47-.48c-.63-1.24-.32-1.89-.55-3.04-.05-.25-.39-.28-.41-.32h0c-.29.02-.58.02-.88.02,0,0-.01,0-.02,0-.6-.01-1.22-.06-1.81-.06-.3,0-.59.02-.88.05-1.05.13-3.17.69-5.16,1.27-.44.13-.88.26-1.3.39-.27.08-.54.17-.79.25-.23.07-.45.14-.66.21-.43.14-.82.27-1.12.38-.1.04-.21.09-.31.13-.05.02-.09.04-.14.06-.04.02-.07.04-.11.06-.17.09-.35.2-.53.32-.18.12-.36.25-.54.38-.25.19-.5.4-.73.61-.23.21-.43.42-.62.63-.15.17-.28.33-.4.49-.02.03-.05.07-.07.1-.27.4-.41.82-.54,1.22-.13.41-.24.8-.45,1.14-.83,1.38-1.75,3.08-2.67,4.64-.55.94-1.11,1.82-1.64,2.56-.12.17-.31.35-.52.52-.18.14-.38.26-.57.35-.16.08-.31.15-.46.18-.16.04-.3.04-.4-.01-.11-.05-.18-.15-.2-.31-.18-1.44.41-3.36-.72-4.57-.08-.09-.18-.16-.29-.21-.1-.05-.21-.09-.32-.13-.21-.07-.4-.13-.5-.24-.1-.12-.11-.29-.1-.44,0,0,0,0,0,0,0-.16.02-.3-.02-.36,0-.01-.05-.01-.07-.02-.02,0-.02-.01-.05-.01-.13,0-.34.05-.59.12-.25.07-.53.16-.79.25-.22.08-.42.16-.59.22-.12.05-.23.1-.28.13-.8.49-2.02,2.42-2.71,2.6-.09.02-.18.03-.28.02-.2-.01-.44-.07-.7-.13s-.53-.13-.81-.15c-.14-.01-.28-.02-.42,0s-.28.04-.43.09-.28.12-.42.21c-.56.6-1.26,1.21-1.92,1.92l-.24.24-.24.24c-.15.16-.32.31-.48.48l-.48.48c-.16.16-.32.32-.48.48l-.48.48c-.56.54-.43.89-.48.96-.04.17-.05.31-.05.43.03.85,1,.63,1.75.55.13-.01.26-.05.4-.09.27-.07.56-.19.85-.33.74-.35,1.52-.88,2.2-1.37.14-.1.27-.19.4-.29.16-.12.32-.23.46-.34.51-.37,1.37-1.21,2.22-1.95.38-.33.75-.64,1.08-.89.09-.07.17-.12.25-.17.29-.19.55-.34.73-.36.24-.04.46-.05.66-.05,2.67.02,1.22,3.27-.02,5.07-.13.19-.26.36-.37.51-.26.33-.54.67-.83,1.02-.58.69-1.22,1.41-1.9,2.15-.34.37-.69.74-1.05,1.12-.72.75-1.47,1.52-2.25,2.29-1.56,1.54-3.2,3.09-4.83,4.56-1.22,1.11-2.44,2.17-3.6,3.16-.39.33-.77.65-1.14.96-.75.62-1.47,1.21-2.14,1.74-.56-1.98,1.49-2.62,1.84-4.15.75-3.33-2.29-4.88-3.99-2.55-.67.92-3.14,4.84-3.39,5.72-.24.84-.28,1.56-.22,2.42.63.11,2.62-.2,2.83.05.27.3.05.64,1,1.39.08.07.09.27.48.48h0c0,.48,0,.96,0,1.44h0c0,.32.03.77.02,1.22,0,.15-.01.3-.03.44-.02.15-.04.29-.07.42-.1.39-.3.7-.67.79-.26.07-.84-.3-1.57-.45-.24-.05-.5-.08-.77-.06-.15.01-.31.04-.47.09-.8.25-2.49,2.74-2.69,2.82-.84.34-2.79-.57-3.36,1.44,1.08.1,2.31-.14,3.36,0,.04,0,.12.37.33.4.68.1,1.15.12,1.65.19.4.06.81.15,1.37.37h0v.96s.1.12.18.25c-.09-.13-.14-.24-.18-.25-.42-.18-1.75-.05-2.85.19-.44.1-.85.21-1.14.33-.15.06-.27.12-.35.18-.04.03-.08.08-.13.15-.09.14-.19.35-.3.6-.28.62-.61,1.45-.99,1.92h0c-.16.19-.91.36-.96.48-.72-.39-1.24-.52-1.63-.48-.2.02-.37.07-.51.16-.22.13-.38.31-.52.52-.09.14-.18.28-.26.42-.04.07-.08.14-.12.21-.17.27-.34.49-.59.56-.15.04-.32.07-.5.09-.26.03-.55.04-.87.04,0,0,0,0-.01,0-.72,0-1.51-.07-2.18-.08-.17,0-.32,0-.47,0-.61.03-1.39-.1-1.92,0-.49.1-.85.47-.96.96.69.07,1.23.67,2.4,0-.11.33-.12.6-.13.83,0,.11-.02.21-.04.31-.01.06-.03.12-.05.17-.04.09-.09.18-.17.26,0,0-.01.01-.02.02,0,0,0,0-.01.01-.19.19-.5.38-1.05.58l.02,3.56h-1.44s0,0,0,0l-.02-1.41c-.1-.04-.23-.05-.36-.05-.13,0-.27.01-.4.03-.27.03-.52.06-.66,0-.56.7-.66,1.71-.96,2.4h0c-.44,1-.58,1.13-.96,2.4h.96c-.19.86.13,2.13,0,3.11ZM363.87,79.16c.36-1.92.04-2.71,1.23-3.06-1.19.35-.88,1.15-1.23,3.06ZM345.15,107.04c-.1-.94-.15-1.57-.16-2.03,0,0,0,0,0-.01,0-.12,0-.22,0-.32,0-.19.03-.36.07-.5s.08-.28.14-.42c.09-.21.21-.43.37-.73.1-.2.22-.43.35-.71.13-.28.28-.62.44-1.02.06-.16.14-.37.24-.63.1-.26.21-.56.33-.89.05-.14.11-.28.16-.43.09-.24.19-.49.29-.74.84-2.16,1.98-4.73,2.81-4.98.18-.05.32-.07.45-.07.03,0,.06-.01.09-.01.91.02.82,1.13.7,2.19-.02.18-.04.35-.06.52-.05.44-.09,1.01-.15,1.63s-.12,1.31-.19,1.98c-.15,1.35-.34,2.65-.6,3.35,1.44-.26.95.74.96,1.67.02,1.86.24,2.66-1.45,3.83-1.61,1.11-2.05.19-3.83.25l.48,4.31c-.5-.09-1.18.31-1.44-.28-.89-2.04.24-3.64,0-5.95Z"/>
    <path class="cls-11" d="M286.62,64.84c.06-.02.19-.26.96-.48l-.28.43-.68.05Z"/>
    <path class="cls-11" d="M284.71,65.32l-.48.48s-.1-.3.48-.48Z"/>
    <path class="cls-11" d="M285.67,64.84l-.48.48s-.13-.28.48-.48Z"/>
    <path class="cls-4" d="M383.52,51.42s.24,0,.48.48h0s0,0,0,0l-.47-.47Z"/>
    <path class="cls-9" d="M182.57,342.89c-.07-.97-2.58-4.24-2.24-4.81.67-1.14,1.77.43,2.15.98.27.4.5.9.76,1.27.57.83.68,1.51,1.62,2.14.3.27.65.44,1.03.5-.17-.41-1.67-3.3-1.48-3.49,4.36-.91,5.73,8.85,6.82,9.67.19.14.88.03,1.38.29,1.51.79,4.36,7.7,6.22,9.62.74.76,1.49,1.68,1.94,2.14.08.08,1.71.47,1.92.96,1.86-.45,1.92-2.16,3.49-2.98.55-.28,7.06-2.68,7.54-2.77.98-.19,1.28-.12,2.4-.48.29-.09,4.48,1.32,5.53,1.43,4.79.48,7.87-.97,12.08-2.29,1.54-.48,4.93-1.34,6.37-1.06-.19-1.13.55-1.92.96-2.88-1.3.26-.91-.56-1.19-1.44-.43-1.37-.41-2.08-2.16-1.93-.29-1.9,1.2-3.75,1.43-5.51.37-2.86-.49-7.77-1.91-10.3-.35-.62-1.81-2.22-2.41-2.63-.83-.55-1.93-.6-2.41-.95-.59-.42-.32-1.54-.91-1.97-.6-.44-2.1-.46-2.9-.94-.52-.31-.89-1.04-1.46-1.41-2.3-1.49-4.84-2.9-7.65-3.14-.07,1.4,1.34,1.04,2.02,2.54.98,2.16.09,2.13-.49,3.54-.55,1.36-.97,2.93-2.23,4.02-.51.45-1.18.4-1.22.45-.07.09.16.59-.08.85-.96,1.03-4.21,2.99-5.67,3.46.29.89-1.17,1.56-1.75,1.85-2.78,1.37-6.32,2.03-9.28,1.03-.37,1.87.51,1.28,1.62,1.97,1.85,1.15.22,2.6-1.38,2.82-4.5.63-11.16-1.32-12.62-6.08-.1-.33-.58-2.58-.58-2.8,0-.74.76-1,.91-1.49.32-1.07-.29-2.6.3-3.54.94-1.5,2.38,1.32,3.11,1.7,1.85.95,5.45-1.53,7.67-1.23.37-1.71.58-4.81,1.94-5.97.51-.44,1.45-.52,1.94-.95.54-.47.42-1.16.46-1.2l-.43-.28-.05-2.11c-1.97.2-4.04.77-6.01.49-1.18-.17-1.56-1.4-1.67-1.45-.47-.2-1.43.66-1.92.48l-.29.43-.67.05c-.69-.06-4.19-.78-4.32-.96l-.54,2.34c-1.38-.11-1.78.91-2.82,1.49-2.05,3.87-4.67,8.08-6.5,12.08-.2.14-.36.33-.43.56-.1.32-.17.64-.22.97-.2,1.29.06,4.93.91,5.98.28.34,3.3,3.97,3.31,2.89,0-.02.09-1.92.09-1.94ZM201.72,356.39c.34-2.37,1.19-3.83,3.84-3.36-.24-1.98-1.03-2.9.25-4.78.99-1.45,2.22-1.84,3.57-2.66,1.61-.98,2.97-1.59,4.63-2.56,3.77-2.22,8.75-4.18,12.99-5.23.61-.15,1.25-.01,1.76-.15.86-.23.64-1.31.99-1.88.62-1,1.98-.25,2.9.01.33.1,1.11-.12.71.72-.41.85-1.96,2.57-2.66,3.6-.25.37-.68.44-.7.48-.2.49.05,2.47-.48,3.36,2.57-.32,3.39,1.32,1.13,2.81-3.65,2.41-10.84,3.41-14.9,5.73-2.13.24-2.91.65-2.55-1.83-.15.1-.87-.09-1.22.45-.36.56-.2,1.31-.22,1.95l-2.59-.46c-.76.17-1.83,3.42-2.98,3.75l-4.5.06Z"/>
    <path class="cls-8" d="M322.6,242.26c-.46,2.61-2.11,6.73-1.37,9.28.06.22.9,1.41,1.15,1.73,2.64,3.44,6.94,2.63,10.77,2.9,1.47.16,2.79-1.14,4.18-1.37.9-.15,1.22.38,1.58.42,1.72.16,3.58-.52,3.84,1.92h.48c.16-.2,2.51-2.23,2.72-2.32,1.07-.43,2.83-.56,4-.56.04-.31-.06-.68,0-.96.34-1.68,2.11-3.37,2.39-5.52.32-2.46-.58-4.56-.47-6.95,1.27-.06,2.57.09,3.84,0-1-1.52.08-2.86,0-3.84-.02-.18-.43-.94-.48-.96-.78-.31-2.37.38-2.88-1.44-1.05-.35-2.03-1.06-3.36-1.44-.93-.27-1.88-.58-2.88-.49-.04-.31.04-.65,0-.95-3.18-.18-7.14-.16-10.33-.02-1.05.05-1.82.55-3.1.5-.44,1.11-1.74,3.24-3.06,2.83-.41-.13-.67-.75-1.08-.87-1.27-.39-2.68,1.71-3.06,2.83-.28.83-.24,2.69-.7,3.38-.25.37-.91.42-1.22.7-.39.37-.53,1-.97,1.19ZM333.15,251.37c-.03-1.51,1.87-1.65,2.63-2.88.72-1.17,1.14-1.77,1.91-2.88,1.98-2.86-.34-2.93-.67-4.13-.22-.77.87-2.43.45-3.54.29-.32,3.48.6,4.03.94.55.33.22.92.29.98.11.11,2.49.05,2.83,1.24.37,1.27.07,2.66-1.39,2.59.28,1.22.01,4.27-.57,5.42-.31.62-2.05,2.25-2.55,2.25h-6.96Z"/>
    <path class="cls-5" d="M221.49,323.44c.98,2.16.09,2.13-.49,3.54-.55,1.36-.97,2.93-2.23,4.02-.51.45-1.18.4-1.22.45.24-2.02-1.71-3.02-3.37-2.17-.32.16-3.45,3.34-3.83,3.84-2.05,2.67-2.27,3.84,1.45,2.65.29.89-1.17,1.56-1.75,1.85-2.78,1.37-6.32,2.03-9.28,1.03-.37,1.87.51,1.28,1.62,1.97,1.85,1.15.22,2.6-1.38,2.82-4.5.63-11.16-1.32-12.62-6.08-.1-.33-.58-2.58-.58-2.8,0-.74.76-1,.91-1.49.32-1.07-.29-2.6.3-3.54.94-1.5,2.38,1.32,3.11,1.7,1.85.95,5.45-1.53,7.67-1.23.37-1.71.58-4.81,1.94-5.97.51-.44,1.45-.52,1.94-.95.54-.47.42-1.16.46-1.2.09-.09,1.05.05,1.44,0,1.59-.19,3.07-.84,4.54-.98,2.49-.23,6.86-.19,9.37.02-.07,1.4,1.34,1.04,2.02,2.54Z"/>
    <path class="cls-11" d="M276.54,108.25c-1.47-.91,1.95-2.79,1.45-4.08-1.29-.37-2.45,1.26-3.58.95-1.44-.39-.37-2.93-.02-3.84,1.2-3.13,6.11-10.66,8.39-13.19,1.38-1.53,2.61-2.48,4.81-2.15.2,1.02-.9,1.2-.99,2.16-.12,1.28.83,1.48.94,1.98.08.38-.48,1.22-.43,2.1-.63.29-2.68,3.87-3.36,4.8-.49.67-2.21,2.27-2.34,2.7-.52,1.77.31,4.98-.06,6.89-.01.06-.34.13-.4.33l-.08.63c-.96.07-2.52,1.85-4.33.73Z"/>
    <path class="cls-11" d="M347.98,106.99c-.22.24-2.21-.06-2.83.04-.1-.94-.15-1.57-.16-2.03,0,0,0,0,0-.01,0-.12,0-.22,0-.32,0-.19.03-.36.07-.5s.08-.28.14-.42c.09-.21.21-.43.37-.73.1-.2.22-.43.35-.71.13-.28.28-.62.44-1.02.06-.16.14-.37.24-.63.1-.26.21-.56.33-.89.05-.14.11-.28.16-.43.09-.24.19-.49.29-.74.84-2.16,1.98-4.73,2.81-4.98.18-.05.32-.07.45-.07.03,0,.06-.01.09-.01.91.02.82,1.13.7,2.19-.02.18-.04.35-.06.52-.05.44-.09,1.01-.15,1.63s-.12,1.31-.19,1.98c-.15,1.35-.34,2.65-.6,3.35-.35.94-1.5,2.09-2.15,2.9-.23.28-.18.77-.29.89Z"/>
    <path class="cls-2" d="M184.4,339.46c4.36-.91,5.73,8.85,6.82,9.67.19.14.88.03,1.38.29,1.51.79,4.36,7.7,6.22,9.62.74.76,1.49,1.68,1.94,2.14l-.43.3-.05,1.14c-.84-.26-1.73-.54-2.63-.5-.31,1.43-1.27,1.06-2.65.98,0-.16.02-.33,0-.48-.11-.84-.8-3.16-1.2-3.83-.49-.83-1.44-1.35-2.02-2.12-.52-.69-.64-1.26-1.37-1.77-1.84-1.28-4.13-.21-6.11-.99-1.34-.53-3.76-3.87-3.23-5.41.02-.05.04-.09.06-.14,1.36-2.72,6.3,2.78,6.72,3.09.27.2,1.41.29,1.6.14-.08-1.49-1.75-4.91-2.27-6.39-.17-.47-1.07-1.73-1.28-2.23,0,0,0,0,0,0-.17-.41-1.67-3.3-1.48-3.49Z"/>
    <path class="cls-6" d="M221.31,345.76c.25-.25.4-1.44,1.01-2.1.83-.91,4.11-3.1,5.29-3.36,1.12-.25,1.4.02,2.41.26-.2.49.05,2.47-.48,3.36,2.57-.32,3.39,1.32,1.13,2.81-3.65,2.41-10.84,3.41-14.9,5.73-2.13.24-2.91.65-2.55-1.83.63-.42,1.26-1.26,2.23-1.84,1.18-.71,5.2-2.38,5.85-3.03Z"/>
    <path class="cls-6" d="M210.34,333.12c.38-.5,3.51-3.67,3.83-3.84,1.66-.85,3.61.15,3.37,2.17-.07.09.16.59-.08.85-.96,1.03-4.21,2.99-5.67,3.46-3.72,1.2-3.5.02-1.45-2.65Z"/>
    <path class="cls-1" d="M335.79,248.49c.72-1.17,1.14-1.77,1.91-2.88,1.98-2.86-.34-2.93-.67-4.13-.22-.77.87-2.43.45-3.54.29-.32,3.48.6,4.03.94.55.33.22.92.29.98-1.71,1.88,1.32,3.31,1.44,3.84.28,1.22.01,4.27-.57,5.42-.31.62-2.05,2.25-2.55,2.25h-6.96c-.03-1.51,1.87-1.65,2.63-2.88Z"/>
    <path class="cls-12" d="M341.79,239.86c.11.11,2.49.05,2.83,1.24.37,1.27.07,2.66-1.39,2.59-.12-.52-3.15-1.96-1.44-3.84Z"/>
  </g>
  <g>
    <path class="cls-7" d="M3.04,11.7v-1.36h4.13v1.36H3.04Z"/>
    <path class="cls-7" d="M12.35,15.76c-.77,0-1.44-.23-1.99-.7-.56-.46-.99-1.14-1.29-2.03-.3-.89-.45-1.98-.45-3.27s.15-2.37.45-3.25c.3-.87.73-1.54,1.29-1.98.56-.45,1.22-.67,1.99-.67s1.42.22,1.97.67c.55.45.98,1.11,1.28,1.98.3.88.45,1.96.45,3.25s-.15,2.38-.45,3.27c-.3.89-.73,1.57-1.28,2.03-.55.46-1.21.7-1.97.7ZM12.35,14.29c.39,0,.73-.15,1.03-.45.3-.3.54-.78.7-1.44.17-.66.25-1.54.25-2.64s-.08-1.97-.25-2.62c-.17-.65-.4-1.11-.7-1.4-.3-.29-.65-.43-1.03-.43s-.73.14-1.03.43c-.3.29-.54.75-.71,1.4s-.26,1.52-.26,2.62.09,1.98.26,2.64c.17.66.41,1.14.71,1.44.3.3.65.45,1.03.45Z"/>
    <path class="cls-7" d="M17.48,15.54v-1.07c1.07-1.08,1.99-2.03,2.76-2.87s1.35-1.59,1.76-2.27c.41-.68.61-1.31.61-1.91,0-.43-.07-.79-.21-1.1s-.35-.55-.64-.72c-.29-.17-.65-.26-1.09-.26s-.86.13-1.23.39c-.38.26-.72.57-1.03.92l-1.02-1.02c.49-.55,1.01-.99,1.56-1.3.55-.31,1.2-.46,1.96-.46.7,0,1.31.14,1.83.43.52.29.92.69,1.21,1.21.29.52.43,1.12.43,1.82s-.19,1.4-.57,2.11c-.38.71-.89,1.46-1.54,2.22-.65.77-1.37,1.58-2.17,2.43.3-.03.62-.06.96-.09s.65-.04.93-.04h2.94v1.58h-7.44Z"/>
  </g>
</svg>