<?xml version="1.0" encoding="UTF-8"?>
<svg class="a1" xmlns="http://www.w3.org/2000/svg" viewBox="0 0 600 500">
  <defs>
    <style>
      .cls-1 {
        fill: #3f3a33;
      }

      .cls-2 {
        fill: #c9caca;
      }

      .cls-3 {
        fill: #867b6f;
      }

      .cls-4 {
        fill: #988f83;
      }
    </style>
  </defs>
  <g>
    <path class="cls-2" d="M4.39,13.73v-3.46H1.23v-1.34h3.16v-3.47h1.39v3.47h3.17v1.34h-3.17v3.46h-1.39Z"/>
    <path class="cls-2" d="M14.02,15.76c-.77,0-1.44-.23-1.99-.7-.56-.46-.99-1.14-1.29-2.03-.3-.89-.45-1.98-.45-3.27s.15-2.37.45-3.25c.3-.87.73-1.54,1.29-1.98.56-.45,1.22-.67,1.99-.67s1.42.22,1.97.67c.55.45.98,1.11,1.28,1.98.3.88.45,1.96.45,3.25s-.15,2.38-.45,3.27c-.3.89-.73,1.57-1.28,2.03-.55.46-1.21.7-1.97.7ZM14.02,14.29c.39,0,.73-.15,1.03-.45.3-.3.54-.78.7-1.44.17-.66.25-1.54.25-2.64s-.08-1.97-.25-2.62c-.17-.65-.4-1.11-.7-1.4-.3-.29-.65-.43-1.03-.43s-.73.14-1.03.43c-.3.29-.54.75-.71,1.4s-.26,1.52-.26,2.62.09,1.98.26,2.64c.17.66.41,1.14.71,1.44.3.3.65.45,1.03.45Z"/>
    <path class="cls-2" d="M21.47,15.54c.05-1.04.14-1.99.27-2.86.13-.88.32-1.7.56-2.48.25-.78.56-1.54.94-2.28.38-.74.84-1.5,1.38-2.26h-5.39v-1.57h7.39v1.14c-.66.84-1.19,1.65-1.6,2.41-.41.76-.73,1.54-.97,2.34-.23.79-.41,1.64-.52,2.54s-.18,1.91-.23,3.03h-1.84Z"/>
  </g>
  <g>
    <path class="cls-1" d="M345.14,231.53c.11.37.16.65.24.97-.4.03-.91.57-1.22.84s-1.48,1.5-1.7,1.59c-.15.06-.53-.05-.79.05-.83.34-1.55.76-2.47.9-1.14,1.8.47,2.35,1.2,3.65.48.86,2.24,5.35,2.31,6.2.16,1.87-.14,3.95-.01,5.85.05.69.6.25.97.36-.24.93-.45,1.2-.73,1.94-.98.3-3.92,2.42-4.11,3.3-.14.66,1.32.72,1.68.58.49.24.61.54.49,1.09-.05.24-.51.03-.69.16-.15.11-.01.37-.05.44-.04.08-.19.15-.24.24-1.58.03-2.72,1.55-4.37,1.46-.1,0-.61-.43-.97-.24-.11-1,1.15-1.32.5-2.32-1.09-1.68-3.32-.58-4.77-.37-.55.08-1.11-.04-1.66.04-1.17.17-1.97.63-3.3.46-.85-.11-3.02-1.58-3.77-2.19-.91-.73-1.1-1.09-1.34-2.19-.36-1.63.27-2.01.24-3.16.37-.1.93.34.97-.36.06-.94-.1-1.98.02-2.91.4-3.03,3.91-6.92,5.58-9.48.24-.36.21-.84.46-1.24,1.01-1.6,5.67-4.22,7.54-4.73.86-.23,2.11-.34,2.99-.54.42-.1.7-.42,1.27-.45,1.28-.07,1.1.91,1.47.99s3.24-1.91,4.24-.97Z"/>
    <path class="cls-3" d="M335.18,232.51c-1.87.51-6.54,3.13-7.54,4.73-.25.4-.22.88-.46,1.24-1.68,2.56-5.19,6.45-5.58,9.48-.12.93.05,1.96-.02,2.91-.05.69-.6.25-.97.36-.01-.41-.37-.71-.47-1.11-1.26-4.84,3.23-10.19,5.14-14.28.88-1.89,1.21-4.29,3.13-5.62,2.37-1.65,6.66-1.18,6.79,2.29Z"/>
    <path class="cls-4" d="M342.46,234.94c1.08,1.4,1.78,3.46,1.94,5.22.05.47.09,3.03,0,3.28-.01.04-.4.1-.48.6-.11.71-.11,3.17,0,3.88.08.47.46.84.48,1.24.02.34-.38.99-.5,1.56-.09.42-.13.75-.24,1.21-.37-.1-.93.34-.97-.36-.13-1.9.17-3.98.01-5.85-.07-.85-1.83-5.34-2.31-6.2-.73-1.3-2.33-1.85-1.2-3.65.92-.13,1.64-.55,2.47-.9.26-.11.64,0,.79-.05Z"/>
    <path class="cls-3" d="M320.35,254.37c.24,1.1.42,1.45,1.34,2.19.75.6,2.92,2.08,3.77,2.19-.03,1.02-2.14,1.05-2.8.98-.42-.04-3.29-1.12-3.52-1.34-.5-.45.07-1.05.01-1.69-.07-.73-1-1.22-.71-2.07l1.93-.26Z"/>
    <path class="cls-3" d="M343.92,250.73c.12-.57.52-1.22.5-1.56-.03-.4-.41-.78-.48-1.24-.12-.71-.12-3.18,0-3.88.08-.5.47-.56.48-.6.75.09,1.33,1.44,1.45,2.07.11.61.09,3.78-.12,4.24-.24.52-1.18,1.17-1.82.97Z"/>
    <path class="cls-3" d="M342.95,253.89c-.11.3.06.75-.27,1.31-.33.55-.96.68-1.33,1.1-.26.3-.66,1.41-.83,1.47-.36.14-1.82.08-1.68-.58.19-.89,3.14-3,4.11-3.3Z"/>
    <path class="cls-3" d="M317.19,259.72c1.87.32,1.2.25,2.69,1.07.4.22,1.22.31,1.37.46.12.12.04.4.06.41-1.25-.13-2.32-.81-3.45-1.3-.37-.16-.81,0-.68-.65Z"/>
    <g>
      <path class="cls-3" d="M199.2,79.88c-.25.05-3.05-.96-3.68-1.11-7.48-1.79-16.14.03-23.74.91-2.63.3-10.67.64-12.44,2.26-.68.63-1.34,1.09-1.91,1.61-.26.24-.39.74-.59.86-.48.29-.21.49-.17.6.07.17.39.63.64.87,1.31,1.27,6.19,2.84,7.89,2.27.35-.12.31-.68.55-.72.41-.07.96.24,1.42.26,5.58.33,10.88,2.35,16.31,3.57.66-.24,1.52-.05,2.11-.22.31-.09.65-.63,1.07-.87.69-.4,1.85-.83,2.5-.18.82.81-.56,1.98-.25,2.31,1.06-.19,1.32-1.42,2.2-2.05.65-.46,1.8-1.02,2.43-.28.65.77-.69,1.73-.94,2.5-.36,1.11.55.82,1.34,1.23.47.24.85.94,1.39.78.47-.14,1.7-3.63,2.03-4.3.18-.38.62-.62.73-.97.58-1.81,1.01-7.08,1.75-9.06-.13-.13-.26-.26-.39-.4-.07.06-.15.1-.24.12Z"/>
      <path class="cls-3" d="M186.86,105.89c-.88-1.29-.45-.59-1.69-1.23-.65-.34-1.69-1.52-2.03-1.62-.48-.14-1.07.01-1.6-.1-.93-.2-2.07-.83-3.04-1.09-1.82-.5-7.54-2.21-8.92-.79-1.92,1.97,2.33,3.2,3.51,3.53,1.41.39,3.57.95,4.99,1.09.36.04.69.1.37.48-.06.08-1.53.53-1.87.69-.94.46-3.09,1.94-3.87,1.98-.8.04-1.07-.61-1.68-.72-.6-.1-1.27.11-1.88-.06-.41-.11-.69-.62-1.29-.68-.34-.03-2.17.18-2.66.24-1.08.14-.82,2.09.54,2.38,1.29.27,1.72-.44,2.44,1.2.33.75.15,1.79,1.21,2.19.85.32,4.91.9,5.76.78,1.34-.2,4.43-2.92,5.62-1.95.2.16.31.38.34.63.44.65-.71,2.63-.24,2.92,1.15.7,2.5-2.04,4.14-1.22.9.45.14,1.48.24,1.58,3.57.48,3.45-4.76,3.14-7.15-.17-1.32-.84-2.07-1.54-3.08Z"/>
      <path class="cls-3" d="M158.22,107.43c-2.04.36-1.71,2.03.06,2.5,1.44.38,5.63.43,4.84-1.92-.29-.86-4.06-.73-4.89-.58Z"/>
      <path class="cls-3" d="M257.43,132.03c-4.42-5.17-6.77-12.12-11.3-17.13-1.98-2.19-8.11-7.69-8.93-10.02-.58-1.66.33-1.51.54-2.85-.71.02-1.35-.29-2.07-.27-.87.03-1.22.72-2.06.27-.05.6-.12.32-.39.58-.14.13-.08.38-.1.39.79.95.46,2.43.49,3.64,1.31-.14.95,1.01.97,1.94,0,.32,0,.65,0,.97,0,.24.01.49,0,.73h-.49c0,.24,0,.49,0,.73,0,.02.22.14.22.35-.01,1.2-.92,2.04-.95,2.45-.06.69.39,2.76.49,3.52.35-.18.65-.64.72.13.23,2.54,1.2,4.96,1.44,7.31.11,1.07-.2,6.64.03,6.9.41.47.42-.19.5-.35.19-.35.66-1.4,1.21-.99.51.39.76,3.24,1.03,4.07.58,1.79,1.52,1.37,2.93,2.17.98.56,2.81,2.33,3.94,2.39.47.03,1.61-.14,1.31-.84-.11-.25-2.33-1.61-2.79-2.07-.43-.44-2.45-3.15-1.21-3.4.72-.15,3.97,3.36,6.27,2.63.52-.16.45-.78,1.48-.68.67.06,1.3.61,1.78.68.42.06.77-.2,1.17-.21,1.6-.03,2.67.95,4.1,1.45l.63-1.2c.6-.13.81.67,1.21.85.69.32,2.41.26,2.43-.72-1.77-.17-3.47-2.07-4.61-3.41Z"/>
      <path class="cls-3" d="M233.61,111.02c0-.22-.25-.68-.24-1.21l.2-.16c.07-.19.03-.38.04-.57.01-.16,0-.32,0-.49,0-.16,0-.32,0-.49h-.97c0,.73-.13,3.83.25,4.13.46.37.4-.11.49-.37.05-.15.24-.8.24-.85Z"/>
    </g>
  </g>
</svg>