<?xml version="1.0" encoding="UTF-8"?>
<svg class="a1" xmlns="http://www.w3.org/2000/svg" viewBox="0 0 600 500">
  <defs>
    <style>
      .cls-1 {
        fill: #4c473f;
      }

      .cls-2 {
        fill: #656156;
      }

      .cls-3 {
        fill: #7e7669;
      }

      .cls-4 {
        fill: #817668;
      }

      .cls-5 {
        fill: #c9caca;
      }

      .cls-6 {
        fill: #928a7d;
      }

      .cls-7 {
        fill: #5c4b38;
      }

      .cls-8 {
        fill: #45413a;
      }

      .cls-9 {
        fill: #6a6358;
      }

      .cls-10 {
        fill: #867b6f;
      }

      .cls-11 {
        fill: #f6f4f1;
      }
    </style>
  </defs>
  <g>
    <path class="cls-10" d="M213.38,56.73c2.09-.21,4.08.16,6.27.31,2.57.17,5.25.04,7.68.99.15.76,8.29,2.79,9.72,3.32,3.08,1.13,5.97,2.73,8.96,4.06,3.36,1.5,6.87,2.89,10.06,4.65l.06.66c.39.68.99,1.35,1.86,1.26.06.08.31.29.48.48.45,2.37-1.13.99-2.41,1.67-.94.5-1.56,2.31-1.44,3.37.3,2.5,2.85,2.7,4.51,3.66.8.47,1.22,1.37,2.07,1.77l8.33,2.71c.88,1.72,2.31,3,1.9,5.06l2.4-.48c.05.05.6-.05.97.22.56.42.42,1.17.47,1.21-.1.88.72,1.52.88,2.24.34,1.52-.31,3.21.58,4.69.01.34-.79.35-1.24.73-2.65,2.27-1.69,4.3-.47,7.23.45,1.09,1.91,3.02,2.1,3.66.29,1-.16,2.26.13,3.23.21.72,1.59,1.32,1.8,2.04.44,1.49-.48,3.22-.38,3.72.13.62,1.43.99,1.43,1.97,0,1.31-1.78,1.54-2.2,2.14-1.05,1.52.32,1.67,1.7,1.46.33.31-2.71,4.13,3.84,2.4-.02,1.12.03,2.24,0,3.36h-.96s0,3.84,0,3.84c-.99.18-2.4-.2-3.36,0v-3.36c-.87-.24-.9.46-.96.48-.38.1-1.26-.14-1.43,0-.14.12.12,1.28,0,1.43-.09.11-.85-.11-.96,0s.11.76,0,.96c-.04.08-.37-.07-.48,0l-.35-.4c-.51-.19-1.05-.05-1.57-.08-.21-1.54-.17-.63-.96-.96-.51-.21-.38-.92-.76-.99-.6-.1-2.21-.07-2.79.09s-.69.85-.77.9c-.52.29-2.29.39-2.88.48-.45.07-1.05-.1-1.44,0-.52-1.17-.56-1.77-1.92-1.92-.78-.09-1.62.08-2.4,0v-.96s-1.92,0-1.92,0v-1.44c.99-.2,4.98-.65,5.28-1.68.08-.26.18-1.23-.26-1.2l-5.97-.96c-.14-.79,1.2-.54,1.7-.5.68.05,1.32.45,1.81.41.39-.04,2.14-.31,1.76-1.1-.68-1.46-3.7-.2-4.82-.94-.93-.62-.22-2.91-.47-3.13-.14-.12-2.56-.18-2.86-1.22-.1-.33-.21-1.07.28-1.18,1.72-.4,3.14-1.36,5-.97.77-2.17-1.9-1.5-2.36-1.96-.09-.09-.14-1.66-.76-2.36-.56-.64-1.83-1.18-2.65-2.15-.69-.81-1.2-2.2-1.92-2.88s-2.16-1.1-2.89-1.91c-1.08-1.19-2.14-3.93-1.9-5.54-1.84,0-2.31,2.14-1.88,3.56.22.73,1.16.61,1.35.81.17.18.58,3.88,1.23,4.77.4.55,1.38.33,1.96.92.65.66.53,1.85.79,2.57.21.57,1.04.92.87,1.52-.21.77-3.24,1.13-3.76,3.45-.14.6,0,2.01-.08,2.08-.61.64-2.9-1.16-2.9-2.16,0-.5.47-.92.5-1.2,1.44.26.96-.74.96-1.68,0-2.09-.45-3.74-.96-5.52-.11-.38-.41-1.85-.48-1.92v-.96s-.96,0-.96,0c-.13-.46-.34-.85-.48-1.44l.43-.28c.4-1.74-.68-3.25-.43-5h-.96c-.05-.3.06-.67,0-.96l.45-.26.03-.7h-.96c-1.04-3.16-1.46-1.64-2.65-2.86-1.06-1.08-.19-2.23-.64-3.41-.49-1.27-1.61-3.21-2.94-3.81l-.96-.96c2.06-.83,2-1.56,1.93-2.65-.08-1.27.57-4.61-1.48-3.86-1.18.43-1.23.99-2.85.27-.28,1.77.22,1.17.95,1.67.77.52.55,1.82.45,2.59-1.68-.64-2.31-1.74-3.08-3.31,0-.02-.02-.03-.02-.05-.47-1.02-.8-2.21-2.11-2.34-.01,0-.02,0-.03,0-.3-.02-1.48-1.07-1.72-1.28-.27-.24-.05-.65-.35-.86-.49-.34-1.18-.16-1.69-.47-.93-.57-1.42-1.76-2.27-2.47-1.09-.84-2.26-1.56-3.35-2.4-3.64-2.84-10.44-4.2-12.25-8.95-.57-1.5-.28-3.28,1.17-4.15,1.31-.79,2.75-.1,4.16-.52.66-.19,1.3-.31,1.93-.37ZM247.43,96.92l-3.36.24c1.13,1.21,3.26,2.03,3.36-.24Z"/>
    <path class="cls-2" d="M433.11,319.54c.73-.05,3.8,3.79,4.25,4.63,1.47,2.74,3.8,7.11,2.48,10.01l-.49,4.07c-.94-1.53-.09-3.13-2.15-.95l-5,10.38c-.43.95.7,1.35.87,1.9.55,1.8-3.26,2.92-3.32,3.3-.07.5-.2.98.29,1.2,4.59,2,4.76-3.8,6.83-6.55.36-1.4-.24-3.36.14-4.66.15-.51.98-.95,1.32-1.56.4-.71.38-1.61,1.02-2.1,4.02,1.21,3.26,7.36,1.37,10.25-1.58,2.42-1.7,1.01-1.85,4.62-.02.54.08,1.09-.05,1.63l-.43.29c-.11-.08-2.33-.51-2.64-.52-2.01-.03-2.4,1.66-2.16,3.39-.51-.23-1.43-.3-2.06-.58-.71-.31-1.28-1.08-2.09-1.26-1.92-.44-3.03.26-4.48,1.36-.1-.95-.52-1.56-1.44-1.92.43,1.57-1.23,2.01-1.69,2.88-.27.51-.17,1.32-.26,1.41-.37.41-2.85-1.13-2.37,2.9-2.89.61-2.07-1.68-3.11-2.88-.26-.3-2.72-2.05-3.1-2.18-2.02-.67-2.83.89-3.58.72-.7-.16-1.08-1.72-2.69-1.89v-2.4c-2.07-.14-3.21-.27-3.84,1.92-.14-.03-.32,0-.48,0-.02-.27-.47-.43-.48-.48-.07-.26.12-.81-.01-.94-.34-.36-2.75.41-3.36.69-1.37.64-4,3.37-4.61,3.55-1.61.47-2.93-.26-4.27-.41-1.05-.12-2.36.2-3.29-.07-.38-.11-2.13-1.9-2.45-2.35-1.33-1.87-2.32-5.55-2.65-7.85-.19-1.33,1.51-.49,1.88,0,.18.25.27,1.29.37,1.62.3,1.03.55,2.48,1.33,3.27.34.35,2.24,1.45,2.66,1.06.39-.36-1.52-2.62-1.82-3.22-.59-1.17-.82-3.07-1.29-3.99-.6-1.17-2.59-2.04-3.05-4.15-.44-2,.58-9.95,1.6-11.67.47-.78,1.76-1.58,2.38-2.41.43-.57.59-1.53.96-1.92.43-.45,2.45-1.15,3.38-1.9,1.37-1.1,3.69-4.29,5.03-4.81.88-.34,2.8.09,2.4-1.44,1.94.39,8.57-2.05,9.12-1.44.14.15-.25,2.27.48,2.88-.07.1.16.69-.06.87-.16.14-2.18.59-2.99,1.11-.77.49-2.07,2.2-2.52,2.29-.36.07-2.46-.65-3.79-.45-.81.12-1.03.77-1.49.9-.98.29-2.06-.21-3.06.3-.42.21-2.19,2.53-2.32,2.96-.31,1.06.28,2.71-.29,3.55s-1.92.17-2.68.67c-1.12.74-2.24,4.79-1.83,6.2.29,1.02,1.6,1.09,1.81,1.31s-.29,1.33.76,2.36c2.27,2.23,4.43,1.99,6.95,3.12.82.37,3.8,2.23,4.36,2.84,1.35,1.49,1.24,4.05-.98,3.62-.03,2.09,2.33,1.35,3.83,1.43l.03-1.42,1.42-1.46c.54.61,4.14,1.26,4.97,1.5.65.19,1.04,1.23,1.56,1.34s1.85-.8,3.25-.38c.68.2.88,1.23,1.96,1.39,2,.3,2.03-.62,2.96-.9.62-.19,3.14.37,2.57-.79-.65-1.31-3.5-1-4.56-1.21-.51-.1-.89-.41-1.19-.47,1.37-3.05-.72-3.31-2.15-4.8-1.08-1.13-1.81-3.66-2.89-4.79s-2.92-2.35-3.83-3.85c-.2-.32-.74-1.85-.74-2.16,0-.77.79-1.02.94-1.49.37-1.19-1.09-2.36-2.36-2.1-.1-.29-1.2-1.06-.96-1.92l3.1.5c.83-1.9,1.8-2.23,3.86-1.94,2.3.33,3.3,3.11,4.88,3.75.75.3,4.63.87,4.96.56l-.97-3.83c-3.36.38-1.39-1.01-1.53-2.56-.05-.56-.46-1.1-.42-2.02.05-1.38,1.4-2.23-.44-3.11.04-.01.25-.37.68-.5,1.26-.36,4.31-.82,4.85-1.89.38-.76.02-2.1.99-2.37,1.37-.39,5.26.35,6.59,1.01.82.41,1.56,1.68,2.07,1.79.45.1.88-.43,1.14-.44Z"/>
    <path class="cls-10" d="M334.27,109.39l-2.88-.48c-.37.37.92,3.34.98,4.1.06.87-.6,1.53-.53,2.37.06.78.87,1.06,1,1.91.36,2.38-1.1,3.12-1,4.33.12,1.45,2.07,1.63,2.67,2.64.5.84.76,2.54,1.2,3.36-3.15-.24-2.61.25-2.89,2.63-.12.97-.58,1.42.02,2.65-.56-.1-2.13.19-2.35-.05-.16-.17-.06-.85-.5-1.17-.97-.69-2.52-.76-3.61-2.15-1.2-1.53-1.44-5.77-2.91-6.22-.84-.26-2.26,2.7-4.21,2.34-.57-.11-2.03-1.12-2.2-1.67-.54-1.83,1.1-2.03,1.36-2.89.29-.96-.43-1.07-.45-1.14-.05-.18-.05-.78,0-.96.15-.56.71-.36.91-.52.88-.69-1.96-3.25-2.58-3.82-1.03-.94-2.03-1.82-3.38-2.36l-2.15-3.85c-1.89-.27-.56,1.21-.48,2.17.13,1.54.59,5.2-1.19,5.52-1.65.3-1.01-.69-1.91-1.48-1.7-1.51-2.97-3.76-4.58-5.72v-.48c.73-4.03-1.27-6.57-2.64-10.07-.54-1.38-.9-3.8-1.43-4.81-.43-.83-2.78-2.62-3.62-3.58-.85-.97-1.72-2.82-2.61-3.63-.96-.88-2.9-1.38-4.09-2.15-1.94-1.27-9.24-6.47-10.31-7.92-.72-.97-1.59-2.69-.99-3.84,1.06-2.03,5.23-1.32,7.2-1.43.58-.03,1.16-.51,1.93-.51,1.34,0,9.43,1.67,10.81,2.18,2.53.94,6.03,3.39,8.76,4.67,5.05,2.35,10.93,3.58,14.74,7.81,1.65,1.84,3.18,4.31,4.78,6.26.82,1,2.11,1.86,2.9,2.86,1.5,1.91,5.43,12.32,6.23,15.12ZM306.92,86.37c-.09-.09-1.23.13-1.93-.23-.82-.42-2.73-3.99-3.83-4.8l-4.31-1.69c-.07,1.3,1.69,1.94,1.84,3.19.07.53-.59.95-.2,1.61.69,1.13,2.81,2,3.88,2.87.45.37,3.32,3.2,1.91,3.37-1.57.19-3.07-.06-4.56-.48.07,1.22,1.15,1.7,1.69,2.87.56,1.22,1.03,2.98,1.19,4.33.16.2,3.66-.83,3.82-.98.13-.13-.02-2.67.12-3.48.2-1.14,1.2-2.13,1.31-2.56.14-.57-.7-1.29-.85-1.93-.14-.59,0-2.01-.08-2.08ZM328.04,114.19h-.96c-1.53,3.92,1.91.95.96,0Z"/>
    <path class="cls-6" d="M275.26,91.64c.09.07.62-.16.86.07,1.44,1.34.77,4.69,1.13,6.33.36,1.65,4.29,8.78,5.45,10.38.43.6.91,1.07,1.67.97-.26.78-.32,1.61-.48,2.4,0,.04-.41.08-.49.69-.15,1.11-.28,3.06.78,3.59l.67.04c.02.15.02.33,0,.48-.08.69-.87,2.46-.44,2.84.16.14.9.07,1.19.48.66.94-.57,2.38,2.13,2.44.06.29-.05.66,0,.96-.89.4-1.46,1.28-2.15,1.94-.97.92-.56.05-1.21,1.42-.02.05-.76.43-.96.48-6.55,1.73-3.51-2.09-3.84-2.4-1.38.21-2.75.06-1.7-1.46.42-.61,2.21-.84,2.2-2.14,0-.99-1.3-1.36-1.43-1.97-.1-.5.82-2.23.38-3.72-.21-.72-1.59-1.32-1.8-2.04-.28-.97.16-2.23-.13-3.23-.19-.64-1.65-2.57-2.1-3.66-1.21-2.93-2.18-4.95.47-7.23.44-.38,1.25-.39,1.24-.73-.89-1.49-.24-3.17-.58-4.69-.16-.71-.99-1.36-.88-2.24Z"/>
    <path class="cls-6" d="M334.27,109.39c.44,1.55.26.54.85,1.04.29.25.37,1.35.82,1.86.47.53,1.16.42,1.2.46.09.09-.08,1.89.08,2.56.58,2.57,2.49,5.75,2.79,8.72.15,1.49-.5,2.56-.47,4.07,0,.3-.07.76,0,.96-1.91.84-2.86.38-3.84-1.44-.44-.82-.7-2.52-1.2-3.36-.6-1.01-2.54-1.19-2.67-2.64-.1-1.21,1.36-1.95,1-4.33-.13-.85-.94-1.13-1-1.91-.07-.84.59-1.5.53-2.37-.05-.76-1.35-3.74-.98-4.1l2.88.48Z"/>
    <path class="cls-6" d="M273.82,90.2l-2.4.48c.42-2.06-1.02-3.34-1.9-5.06l-8.33-2.71c-.85-.4-1.27-1.3-2.07-1.77-1.66-.97-4.21-1.16-4.51-3.66-.13-1.05.49-2.87,1.44-3.37,1.28-.68,2.86.7,2.41-1.67,1.45,1.62,1.8,1.33,3.34,3.62,1.64,2.44,5.81,5.12,7.71,7.65,1.22,1.62,2.93,5.19,4.31,6.49Z"/>
    <path class="cls-6" d="M234.96,85.88c-.22.09-.67-.06-.96,0-.2-.4-.83,0-.96-1.92-.06-.89.32-2.1-.49-2.65-.73-.5-1.23.1-.95-1.67,1.62.72,1.67.16,2.85-.27,2.05-.75,1.4,2.59,1.48,3.86.07,1.09,1.09,1.82-.97,2.65Z"/>
    <path class="cls-6" d="M244.55,108.43c.51,1.78.96,3.43.96,5.52,0,.94.48,1.94-.96,1.68.08-.71-.65-1.96-.48-3.36,0-.04.52-.12.49-.69-.04-.84-1.28-2.5-.01-3.15Z"/>
    <path class="cls-6" d="M241.67,98.84h.96c-.26,1.75.83,3.26.43,5l-.43.28c-.39-1.67-.65-3.47-.96-5.28Z"/>
    <path class="cls-6" d="M257.99,71.97c-.87.09-1.47-.59-1.86-1.26l-.06-.66c2.01,1.11,1.03.77,1.92,1.92Z"/>
    <path class="cls-8" d="M401.21,237.97c-2.27-1.87-5.4-3.3-7.71-5.24-.53-1.26-.34-2.37.75-3.16.39-.28.92-.19.96-.23,1.3.25,1.33-.29,1.92-.96,1.25-1.43.97-2.18,1.01-4.03.43-.25,1.76-1.68,1.87-1.73v-.96c-.29.07-.78-.09-.96,0-.04.02-.12.46-.48.7-3.8,2.55-6.63,6.52-11.03,7.94.51,3.24.92,7.02,1.22,10.32.23,2.45.59,1.12,1.17,1.67-.06-.46.09-1.02,0-1.44l.96-.96c.86.23,1.72-.56,2.62-.51,1.2.08,3.26,1.77,5.27,1.96,3.5.34,5.96-.48,2.43-3.39Z"/>
    <path class="cls-6" d="M243.11,105.56h.96s0,.96,0,.96c-.43-.38-.46.82-.96-.96Z"/>
    <path class="cls-6" d="M241.19,96.92h.96s-.03.7-.03.7l-.45.26c-.01-.06-.26-.28-.48-.96Z"/>
    <path class="cls-7" d="M302.61,108.91c-.09-.11-.48-.15-.48-.48h.48v.48Z"/>
    <path class="cls-8" d="M273.34,233.18c.2,1.45.11.57.93,1.21s5.58,4.38,5.72,4.86c.52,1.74.45,3.9.56,5.68.03.49.47.96.47,1.45,0,1.21-1.82,4.81.96,5.04.08.85,0,1.68-.48,2.4-.38-.13-1.2.13-1.69-.41-.48.12-.53.69-.71.88-1.84,2.04-7.55,3.59-10.34,3.38-1.5-.11-6.08-1.44-7.56-2.03-.7-.28-1.23-1-1.77-1.35.14-1.42-2.07-2.22-2.34-3.18-.58-2.06-.49-5.18-.54-7.38,2.19.24,4.95-.95,5.76-3.12.04-1.24-5.2.13-5.76,1.2-.05-.05-.4.08-.65-.06-.27-.15-.28-.41-.31-.42.94-1.01-1.37-1.85-.75-2.84.39-.62.99-2.17,1.67-2.5,1.45-.7,4.6-1.65,6.75-2.33.16-.02.32,0,.48,0,.32-.02.64,0,.96,0,2.87-.09,5.86.37,8.64-.48ZM273.81,239.91c-2.75-.26-4.44-2.28-6.71.22-2.58,2.84-.79,3.64-.92,6.25-.03.67-.8,2.35-.51,2.62.07.07,1.28.31,1.9.74.32.22,1.58,1.41,1.7,1.65.42.83.12,2.3.23,2.41s2.47-.01,3.04-.08c.86-.86,3.23-.68,3.67-1.61.54-1.13-1.57-.59-2.12-.76-1.42-.43-.33-2.09-.26-3.06.13-1.84-.41-2.98-.52-4.36-.08-1.06.96-2.69.49-4.04Z"/>
    <path class="cls-11" d="M258.79,235.1l1.46.47-1.3.48c-.68.33-3.09,1.76-3.48,2.38-.62,1,1.06,1.89.12,2.9-.37-.08-2.32-.09-2.4,0,0-.32.01-.64,0-.96-.02-.73-.02-1.3-.48-1.92,1.23-.6,2.71-1.9,4.31-2.66.56-.27,1.55-.6,1.77-.69Z"/>
    <path class="cls-9" d="M406.72,320.98c.09-.13,2.43.06,3.11,0,.46-.04,1.93-.81,2.16-.47.13.19-.25,1.59.76,1.88.93.27,3.01-.17,4.04-.44,1.84.88.5,1.73.44,3.11-.04.92.37,1.45.42,2.02.14,1.55-1.83,2.94,1.53,2.56l.97,3.83c-.32.31-4.2-.26-4.96-.56-1.58-.64-2.58-3.43-4.88-3.75-2.07-.29-3.03.04-3.86,1.94l-3.1-.5c-1.54-1.03-2.94-1.05-4.49-1.51-.54-.16-.86-1.07-1.51-.89-.56.16-1.31,3.03-1.17,3.54.31,1.1,4.38,3.63,5.5,3.69.97.05,1.84-.76,3.1-.03.1-.11-.35-2.54-.48-2.88,1.27-.26,2.72.91,2.36,2.1-.14.47-.94.72-.94,1.49,0,.32.55,1.84.74,2.16.91,1.5,2.77,2.74,3.83,3.85s1.81,3.66,2.89,4.79c1.44,1.5,3.53,1.75,2.15,4.8-1.54-.33-1.96-.5-3.36-.96.49-1.44-2.2-7.34-3.16-7.63-.7-.21-1.55-.06-2.26.04-.24.03-.29.38-.33.4-.83.29-1.46-.95-2.25-1.35-2.79-1.42-6.97-1.89-10.21-3.23-.62-.26-1.34-.14-1.95-.45-1.29-.67-1.34-3.37-2.15-3.6-.61-.18-1.46.13-1.64.75-.35,1.19,1.18,6.19,2.1,6.95,3.25,2.01,8.9,3.27,11.77,5.5,1.17.91,1.48,2.6,1.93,3.11l-1.42,1.46-.03,1.42c-1.5-.08-3.86.65-3.83-1.43,2.22.43,2.34-2.13.98-3.62-.55-.61-3.54-2.47-4.36-2.84-2.53-1.13-4.68-.89-6.95-3.12-1.05-1.03-.54-2.14-.76-2.36s-1.51-.29-1.81-1.31c-.41-1.41.71-5.46,1.83-6.2.76-.5,2.12.15,2.68-.67s-.02-2.49.29-3.55c.13-.43,1.9-2.75,2.32-2.96,1-.5,2.08,0,3.06-.3.46-.14.69-.78,1.49-.9,1.34-.2,3.44.53,3.79.45.45-.09,1.75-1.8,2.52-2.29.82-.52,2.83-.97,2.99-1.11.22-.18-.01-.78.06-.87Z"/>
    <path class="cls-4" d="M317.96,118.99c-.05.18-.05.78,0,.96-1.46-.26-.68.99-1.66,1.94-1.28,1.23-2.99,1.15-4.12-.24-1.58-1.94.68-4.75,3.09-4.04.75.22,1.26,1.85,2.69,1.38Z"/>
    <path class="cls-4" d="M287.73,123.31s.38.08.48.7c.21,1.26.31,2.81.48,4.1-2.17.61-2.59-1.03-4.32-1.44.65-1.37.24-.49,1.21-1.42.69-.66,1.26-1.54,2.15-1.94Z"/>
    <path class="cls-4" d="M287.73,122.35c-2.7-.06-1.48-1.5-2.13-2.44-.29-.41-1.03-.34-1.19-.48-.43-.38.37-2.15.44-2.84,2.61.35,2.45,3.68,2.88,5.76Z"/>
    <path class="cls-4" d="M284.86,116.11l-.67-.04c-1.06-.52-.93-2.47-.78-3.59.08-.61.48-.65.49-.69l.43.28c-.24,1.47.4,2.76.53,4.04Z"/>
    <path class="cls-4" d="M278.14,131.46c.06-.02.09-.72.96-.48v3.36c-.06.01-.09.72-.96.48v-3.36Z"/>
    <path class="cls-4" d="M268.06,132.42l-.48,1.92c-.32.34-2.05-.94-2.4-1.44.59-.09,2.36-.19,2.88-.48Z"/>
    <path class="cls-4" d="M283.42,130.5c-.03,1.15.46,3.57-.96,3.84v-3.84s.96,0,.96,0Z"/>
    <path class="cls-4" d="M257.51,128.59v1.44s1.92,0,1.92,0v.96c-.48-.05-2.77-.39-2.88-.48-.31-.24.02-1.73.96-1.92Z"/>
    <path class="cls-4" d="M263.74,132.9c-.06.01-.21.73-.95.48l-.97-2.4c1.36.15,1.4.75,1.92,1.92Z"/>
    <path class="cls-4" d="M272.38,132.42c.79.33.75-.58.96.96.52.03,1.06-.11,1.57.08l.35.4s.11.36-.27.44c-1.65.38-1.5.18-1.65-.92-.86-.05-1.11.21-.96-.96Z"/>
    <path class="cls-4" d="M276.7,132.9v.96s-.96,0-.96,0c.11-.2-.11-.85,0-.96s.87.11.96,0Z"/>
    <path class="cls-6" d="M247.43,96.92c-.1,2.27-2.23,1.45-3.36.24l3.36-.24Z"/>
    <path class="cls-3" d="M403.37,330.57c-.24.86.85,1.63.96,1.92.12.34.58,2.77.48,2.88-1.26-.73-2.13.08-3.1.03-1.12-.06-5.19-2.59-5.5-3.69-.14-.51.61-3.38,1.17-3.54.64-.18.97.73,1.51.89,1.54.46,2.94.48,4.49,1.51Z"/>
    <path class="cls-6" d="M306.92,86.37c.08.07-.06,1.49.08,2.08.15.64.98,1.36.85,1.93-.1.43-1.11,1.42-1.31,2.56-.14.81,0,3.35-.12,3.48-.15.15-3.65,1.18-3.82.98-.16-1.35-.63-3.11-1.19-4.33-.54-1.17-1.62-1.65-1.69-2.87,1.49.42,2.98.67,4.56.48,1.41-.17-1.46-3-1.91-3.37-1.07-.87-3.19-1.74-3.88-2.87-.4-.65.26-1.07.2-1.61-.16-1.25-1.91-1.89-1.84-3.19l4.31,1.69c1.11.82,3.01,4.39,3.83,4.8.7.36,1.84.14,1.93.23Z"/>
    <path class="cls-6" d="M328.04,114.19c.95.95-2.48,3.92-.96,0h.96Z"/>
    <path class="cls-1" d="M273.81,239.91c.47,1.36-.57,2.98-.49,4.04.11,1.39.65,2.52.52,4.36-.07.97-1.16,2.63.26,3.06.55.17,2.66-.37,2.12.76-.45.93-2.82.74-3.67,1.61-.58.06-2.93.19-3.04.08s.19-1.59-.23-2.41c-.13-.25-1.38-1.43-1.7-1.65-.62-.43-1.83-.67-1.9-.74-.29-.27.48-1.95.51-2.62.13-2.61-1.67-3.41.92-6.25,2.28-2.5,3.96-.48,6.71-.22Z"/>
    <path class="cls-11" d="M256.55,241.81c.56-1.07,5.8-2.44,5.76-1.2-.81,2.17-3.56,3.36-5.76,3.12,0-.44.07-1.85,0-1.92Z"/>
    <path class="cls-3" d="M412,350.72c-.33-.11-1.04.11-1.6-.07-.83-.27-4.27-5.73-4.16-7.13.05-.02.09-.36.33-.4.71-.1,1.56-.24,2.26-.04.97.29,3.65,6.19,3.16,7.63Z"/>
  </g>
  <g>
    <path class="cls-5" d="M4.39,13.73v-3.46H1.23v-1.34h3.16v-3.47h1.39v3.47h3.17v1.34h-3.17v3.46h-1.39Z"/>
    <path class="cls-5" d="M14.02,15.76c-.77,0-1.44-.23-1.99-.7-.56-.46-.99-1.14-1.29-2.03-.3-.89-.45-1.98-.45-3.27s.15-2.37.45-3.25c.3-.88.73-1.54,1.29-1.98.56-.45,1.22-.67,1.99-.67s1.42.22,1.97.67c.55.45.98,1.11,1.28,1.98.3.88.45,1.96.45,3.25s-.15,2.38-.45,3.27c-.3.89-.73,1.57-1.28,2.03-.55.46-1.21.7-1.97.7ZM14.02,14.29c.39,0,.73-.15,1.03-.45.3-.3.54-.78.7-1.44.17-.66.25-1.54.25-2.64s-.08-1.97-.25-2.62c-.17-.65-.4-1.11-.7-1.4-.3-.29-.65-.43-1.03-.43s-.73.14-1.03.43c-.3.29-.54.75-.71,1.4s-.26,1.52-.26,2.62.09,1.98.26,2.64.41,1.14.71,1.44c.3.3.65.45,1.03.45Z"/>
    <path class="cls-5" d="M22.64,15.76c-.6,0-1.14-.08-1.6-.22-.46-.15-.87-.35-1.23-.6-.35-.25-.66-.52-.92-.81l.88-1.18c.34.34.74.64,1.17.9s.95.38,1.55.38c.44,0,.82-.07,1.14-.22.32-.15.58-.36.76-.64.18-.28.27-.61.27-.99,0-.43-.1-.79-.3-1.1-.2-.3-.55-.54-1.05-.71s-1.17-.26-2.04-.26v-1.38c.76,0,1.36-.09,1.79-.26.43-.18.75-.41.94-.7.19-.29.29-.62.29-.98,0-.51-.16-.92-.47-1.21s-.75-.44-1.3-.44c-.44,0-.85.1-1.23.31-.38.21-.74.48-1.07.81l-.94-1.15c.46-.42.96-.76,1.5-1.03.54-.27,1.14-.41,1.8-.41s1.3.12,1.83.35c.53.23.95.57,1.25,1.02.3.44.45.98.45,1.61,0,.66-.18,1.21-.54,1.66-.36.44-.84.78-1.45,1.02v.08c.44.11.84.29,1.2.54.36.26.64.58.85.97.21.39.31.85.31,1.37,0,.69-.17,1.29-.52,1.78-.35.49-.82.87-1.4,1.13-.58.26-1.22.39-1.92.39Z"/>
  </g>
</svg>