<?xml version="1.0" encoding="UTF-8"?>
<svg id="a1" xmlns="http://www.w3.org/2000/svg" viewBox="0 0 600 500">
  <defs>
    <style>
      .cls-1 {
        fill: #9b9288;
      }

      .cls-2 {
        fill: #4c473f;
      }

      .cls-3 {
        fill: #656156;
      }

      .cls-4 {
        fill: #7e7669;
      }

      .cls-5 {
        fill: #c9caca;
      }

      .cls-6 {
        fill: #928a7d;
      }

      .cls-7 {
        fill: #45413a;
      }

      .cls-8 {
        fill: #6a6358;
      }

      .cls-9 {
        fill: #82796d;
      }

      .cls-10 {
        fill: #867b6f;
      }
    </style>
  </defs>
  <g>
    <path class="cls-10" d="M399.12,71.94c.19.06,1.1,1.24,1.92.96l-.48,1.44c1.25.35,2.28.62,3.62.5,1.01-.09,1.83-.66,2.86-.52.86.11,1.22,1.05,2.14,1l-.47,1.9c.47.45,5.34-1.76,6.48-1.91.85-.11,3.56-.17,4.27.03.74.21,1.13,3.05,2.68,3.32-.39.97-.29,2.8-1.2,3.84-.42.48-1.18.63-1.7,1.18s-.66,1.46-1.42,1.94-2.71.55-3.15,1.17c-.4.57-.28,4.29-.21,5.31-4.23-1.07-5.19,2.67-8.3,3.94-.97.4-3.23,1.05-4.17.86-.04,0-.1-.37-.69-.49s-1.26.12-1.89-.05c-.88-.25-1.04-1.86-2.88-1.32-.13.04-1.93,1.27-1.99,1.37-1.67,2.49-1.95,1.81-3.59,3.6-.61.67-2.81,4.82-3.79,3.57-.06-.07-.11-1.96-1-.92-.11.12-.97,2.92-.97,3.12-.01,1.12,1.82,2.13.49,3.36-1.47,1.36-3.35,1.02-5.03,1.2-.62.07-1.16.51-1.93.51-1.06,0-2.12-1.01-3.14-.3-.67.46-1.04,2.08-.94,2.9.26,2.22,3.59,3.74.66,5.46-1.78,1.05-6.59.25-6.89.55-.92.9,1.68,2.59,1.92,3.12.22.49-2.01-.2-1.44.96.52,1.06,2.97,2.89,4.32,2.64.11.1-.86,2.76-.97,2.87-.43.45-5.44-2.31-6.71-1.43.06,1.95,2.86,1.81,3.84,3.12-.59.55-2.55-.18-2.88.96s2.18,1.67,2.4,2.64c-1.23.29-2.98-1.22-4-.92-1.87.55-4.91,6.09-6.74,5.69-.4-.09-.81-.89-1.26-1.16-.59-.36-1.91-.77-2.17-1.19-.24-.37-.44-2.3-.69-3.17-.2-.7.29-.83-.97-.7-.66,1.7-.45,3.27-.48,5.04,0,.41.23,1.66-.72,1.2-1.25-.62-1.01-3.43-1.28-4.48-.14-.55-1.02-2.44-1.36-2.71-1.95-1.54-3.23,1.74-3.84.96-.3-.39-.33-2.53-1.92-.96-.1-.24-2.24-1.9-2.88-1.44-.09-.48-.69-.8-.89-1.27l-.07-.65c.53-.03,1.09.11,1.61-.06,1.46-.47,2.89-5.33,4.13-5.95.77-.38,1.46-.09,2.12-.27,1.73-.48-.11-3.5.29-3.79.15-.11,1.66.18,1.91-.74.21-.76-.68-1.58-.41-2.78.16-.71,1.47-3.04,1.93-3.84,1.32-2.31,4.2-5.29,4.65-7.84.31-1.8-.9-1.98-2.06-.62-1.82,2.12-3.92,5.54-5.46,7.97-1.92,3.03-4.27,6.19-4.87,9.77-.81.12-.44-.65-.48-1.2-.16-2.08-.3-4.72-3.05-3.05-.75.45-1.17,1.26-1.75,1.61s-1.41.38-2.1.78c-.6.35-1.06,1.17-1.56,1.32-1.49.44-3.63-.42-5.21.55h-.25c.1-1.15-1.17-3.96-2.22-4.26-.52-.15-1.16-.02-1.76-.15-.24-.05-.3-.39-.33-.4,1.1-1.98-.62-3.38,2.4-2.88v1.92c3.37.14,1.2-2.42,1.42-4.08.38-2.86,10.54-10.5,13.29-12.16s5.86-2.87,8.79-4.16c1.85-.82,2.9-3.64,5.3-2.41,1.8.93.36,3.5,4.31,1.94,3.65-1.44,7.35-4.56,10.57-6.71,1.49-1,4.35-2.16,5.27-3.37,2.16-2.86-2.17-1.3-3.59-1.19-1.18.09-2.43-.1-3.62-.02l.48-1.92h-1.44c.04-.31-.07-.72,0-.96,0-.03.56-.1.48-.48.96-.27,2.79-.27,3.84-.48l.48-.48c.71-.14,1.67.12,2.4,0l.26.48.7-.48c.29.12,1.43-.52,2.16-.52,1.54,0,3.15,1.01,5.52,1v1.44c.24-.01.49.05.72,0,.49-.09.16-.82.24-1.44.4-3.05,6.84-5.59,9.6-6.24l.24.48h1.2s0-.96,0-.96c.72-.07,2.84-.15,3.36,0ZM401.2,80.51c.52-.08,1.86-.98,2.57-1.29s.94-.18.62-1.28c-.69-2.38-3.81.71-4.31.97-.79.41-2.09-.05-2.41,1.19,1.05-.44,2.91.51,3.53.41Z"/>
    <path class="cls-3" d="M132.71,310.39c.47.29,1.1.94,1.41,1.03.98.29,2.97-1.31,4.74.02,1.7,1.28,2.74,4.62,4.51,6.08.25.87-1.11,2.58-.22,4.05.19.31.71.4.73.45.49,1.07-1.11,4.69,1.68,4.32.6-.08-.16-2.06-.26-2.62-.16-.88.65-1.97-.94-1.7,1.53-2.44,3.75-.13,5.02,1.46,4.89,6.12,8.06,11.93,6.97,19.89-.13.94-.43,2.83-.69,3.63-.72,2.27-4.19,3.73-6.35,4.2-3.71.81-9.51.38-13.26-.47-1.53-.35-2.01-1.34-4.32-.8-.57.13-1.11.75-1.59.81s-.93-.45-1.32-.38c-.21.04-2.12,2.96-2.16,3.15-.08.42.41.9.42,1.39s-.44,1.03-.47,1.67l-.43-1.35c-.33-1.04-.25-2.15.17-3.16,1.41-3.33-.89-4.4-.7-5.81.07-.52.08-2.98-.03-3.09-.26-.25-1.5-.15-2.31-1.29-.44-.62-2.94-7.08-2.94-7.62,0-.97.76-3.19.95-4.33,1.45-8.83,2.56-8.86,7.42-15.61.98-1.36,1.77-2.88,2.66-4.3.04.06.83.08,1.3.37ZM131.88,317.93c-.31.16-2.78,2.7-3.09,3.14-1.43,2.01-3.44,7.9-3.63,10.33-.07.96.73,3.73,1.76,4.02.5.14,2.07-.41,2.57-.69,2.34-1.32,5.97-6.33,6.97-8.87.36-.93,1.25-3.64,1.13-4.46-.16-1.06-1.62-3.35-2.63-3.64-.72-.21-2.38-.18-3.07.17ZM144.37,327.06c0-.41-.94-.31-1.2-.24-.57.16-1.63,3.96-2.23,4.97-1.76,2.99-5.95,7.27-8.56,9.68-1,.92-3.17,1.9-3.38,3.34-.48,3.3,3.09,2.32,4.99,1.15,1.26-.78,2.54-2.27,3.67-3.04.83-.57,1.83-.61,2.65-1.19,1.28-.91,2.21-3.49,2.69-5,.1-.31.41-.27.41-.3,2.84-.47,1.5-2.3,1.43-4.32h-.95c.22-1.65.43-3.37.48-5.04ZM144.71,348.8c2.28.32,6.76-.15,8.05-2.3.98-1.63.94-7.3.74-9.38-.17-1.71-.98-4.17-3.1-3.55-1.77.52-1.12,5.37-1.24,6.92-.04.49-.4.95-.46,1.46-.21,1.65.63,3.05-1.3,3.98-.84.4-1.94.38-2.7.66-.6.22-.97,1-1.77.87-.41,1.07,1.02,1.23,1.78,1.34Z"/>
    <path class="cls-6" d="M363.61,81.06v.96s-.67-.05-.67-.05l-.29-.43c-2.2.66-7.83,2.8-9.58,4.09-.97.72-1.44,2.07-1.92,2.4-.7.49-2.31.69-3.36,1.44-4.73,3.36-10.51,8.32-14.41,12.46-.51.54-1.34,1.61-1.43,1.69l.48.24c-.01.67-1.14,1.86-1.76,2.09-.41.15-.95-.01-1.12.06-1.87.86-4.44,4.75-5.06,6.7-.31.99-.07,2.02-.7,2.9.08-.04.78-.04.96,0,1.1-1.98-.62-3.38,2.4-2.88v1.92c3.37.14,1.2-2.42,1.42-4.08.38-2.86,10.54-10.5,13.29-12.16s5.86-2.87,8.79-4.16c1.85-.82,2.9-3.64,5.3-2.41,1.8.93.36,3.5,4.31,1.94,3.65-1.44,7.35-4.56,10.57-6.71,1.49-1,4.35-2.16,5.27-3.37,2.16-2.86-2.17-1.3-3.59-1.19-1.18.09-2.43-.1-3.62-.02l.48-1.92h-1.44c.04-.31-.07-.72,0-.96-1.81.81-2.42.96-4.32,1.44Z"/>
    <path class="cls-6" d="M399.12,71.94c.19.06,1.1,1.24,1.92.96l-.48,1.44c1.25.35,2.28.62,3.62.5,1.01-.09,1.83-.66,2.86-.52.86.11,1.22,1.05,2.14,1l-.47,1.9c.47.45,5.34-1.76,6.48-1.91.85-.11,3.56-.17,4.27.03.74.21,1.13,3.05,2.68,3.32,1.11-2.77,2.83-4.12,3.84-6.72-1.93-1.97-3.73-1.2-6.02-1.42-4.81-.46-5.67.05-10.06.45-2.78.25-5.9-.27-8.65,0-.78.07-1.74.18-2.14.98Z"/>
    <path class="cls-9" d="M331.95,103.62c-.08.06-.59-.16-.85.08-.29.27-1,1.85-1.54,2.32.17-.08.7.09,1.12-.06.62-.23,1.75-1.42,1.76-2.09l-.48-.24Z"/>
    <path class="cls-6" d="M394.32,72.42l.24.48h1.2s0-.96,0-.96c-1.04.09-1.25.44-1.44.48Z"/>
    <path class="cls-6" d="M383.76,78.66v1.44c.24-.01.49.05.72,0,.49-.09.16-.82.24-1.44-.32,0-.64,0-.96,0Z"/>
    <path class="cls-1" d="M375.13,78.18l.26.48.7-.48c-1.22-.52-.55-.07-.96,0Z"/>
    <path class="cls-1" d="M362.65,81.54l.29.43.67.05v-.96c-.86.22-.9.46-.96.48Z"/>
    <path class="cls-1" d="M372.25,78.66l.48-.48c-.61.12-.45.47-.48.48Z"/>
    <path class="cls-1" d="M367.93,79.62s.56-.1.48-.48c-.66.19-.45.47-.48.48Z"/>
    <path class="cls-9" d="M387.6,118.98c-1.82-.58-2.56-.91-3.86.71-.34.42-.42,1.07-.51,1.16-.14.14-1.92-.02-2.83.77-.97.84-1.63,4.89-1.35,6.16.34,1.54,1.22,1.34,1.74,1.86.8.8.38,2.42,2.28.39.74-.79,1.21-1.66,2.14-2.41-1.02-.27.02-1.4.24-1.92,1.03-2.36,1.35-4.47,2.16-6.72Z"/>
    <path class="cls-4" d="M144.36,322.02h-.48c.49,1.07-1.11,4.69,1.68,4.32.6-.08-.16-2.06-.26-2.62-.16-.88.65-1.97-.94-1.7Z"/>
    <path class="cls-8" d="M134.95,317.76c-.72-.21-2.38-.18-3.07.17-.31.16-2.78,2.7-3.09,3.14-1.43,2.01-3.44,7.9-3.63,10.33-.07.96.73,3.73,1.76,4.02.5.14,2.07-.41,2.57-.69,2.34-1.32,5.97-6.33,6.97-8.87.36-.93,1.25-3.64,1.13-4.46-.16-1.06-1.62-3.35-2.63-3.64Z"/>
    <path class="cls-8" d="M142.92,347.46c-.41,1.07,1.02,1.23,1.78,1.34,2.28.32,6.76-.15,8.05-2.3.98-1.63.94-7.3.74-9.38-.17-1.71-.98-4.17-3.1-3.55-1.77.52-1.12,5.37-1.24,6.92-.04.49-.4.95-.46,1.46-.21,1.65.63,3.05-1.3,3.98-.84.4-1.94.38-2.7.66-.6.22-.97,1-1.77.87Z"/>
    <path class="cls-4" d="M143.88,332.1c-.17,1.25-.27,3.41-.48,4.32,2.84-.47,1.5-2.3,1.43-4.32h-.95Z"/>
    <path class="cls-7" d="M285.41,233.86c-.97.56-3.7,2.08-4.09,2.87s-.9,4.27-1.17,5.55c-.12.56.09,1.22-.08,1.84-.18.65-1.37,1.41-1.39,2.46,0,.29,1.23.42,1.69,1.21s.71,2.04,1.28,3.04c.99,1.74,2.48,3.12,3.76,4.64,1.49,1.75,2.33.94,3.84,1.44.08-.58-.09-1.54-.48-1.92-1.03-1.01-5.03-2.13-5.23-3.18-.07-.37.38-.82.33-1.29-.16-1.41-1.16-3.11-1.33-4.42-.14-1.08-.17-4.74.22-5.52.44-.87,1.7-1.15,2.07-1.53.24-.24.29-.88.79-1.36.99-.93,2.32-1.05,3.62-.94-.74,3.19,2.58,3.55,4.07,5.77,1.19,1.79,1.52,4.87,1.22,6.96-.1.74-1.74,2.4-2.42,2.86-.84.56-1.85.58-2.41.96-.57.38-.33.9-.46,1.22,2.12.35,4.79.82,6.93.5.43-.06.17-.64.36-.86l4.94-3.01c1.21,1.47-2.19,2.45-.72,3.36l3.36-1.44c.45-2.36,2.82-4.44,3.29-6.07.36-1.24-.11-3.14.07-4.49-.3-.14-.41-1.51-.71-1.93-.62-.9-4.85-3.97-6.02-4.55-.36-.18-.43-.7-.47-.71-.22-.09-.8.12-1.16-.02-2.79-1.04-5.82-3.03-8.68-3.33-2.64-.28-2.51.76-4.08,1.68-.4.24-.84.16-.95.23Z"/>
    <path class="cls-2" d="M289.25,254.5c.12-.31-.11-.84.46-1.22.56-.38,1.57-.39,2.41-.96.68-.46,2.32-2.12,2.42-2.86.29-2.09-.03-5.17-1.22-6.96-1.48-2.22-4.81-2.58-4.07-5.77-1.3-.11-2.63,0-3.62.94-.51.48-.55,1.12-.79,1.36-.38.38-1.63.66-2.07,1.53-.4.78-.36,4.45-.22,5.52.17,1.31,1.17,3.01,1.33,4.42.05.47-.4.92-.33,1.29.2,1.05,4.2,2.17,5.23,3.18.01-.28.45-.42.48-.48Z"/>
    <path class="cls-6" d="M307.48,242.5c-.18,1.35.29,3.26-.07,4.49-.47,1.63-2.84,3.71-3.29,6.07l-3.36,1.44c.32.14,3.14-.2,3.43-.37,1.24-.72,1.16-1.33,1.91-2.17,1.27-1.42,2.67-2.13,2.89-4.32.06-.62-.61-4.06-.86-4.31-.16-.16-.47-.74-.66-.83Z"/>
  </g>
  <g>
    <path class="cls-5" d="M3.04,11.7v-1.36h4.13v1.36H3.04Z"/>
    <path class="cls-5" d="M12.35,15.76c-.77,0-1.44-.23-1.99-.7-.56-.46-.99-1.14-1.29-2.03-.3-.89-.45-1.98-.45-3.27s.15-2.37.45-3.25c.3-.87.73-1.54,1.29-1.98.56-.45,1.22-.67,1.99-.67s1.42.22,1.97.67c.55.45.98,1.11,1.28,1.98.3.88.45,1.96.45,3.25s-.15,2.38-.45,3.27c-.3.89-.73,1.57-1.28,2.03-.55.46-1.21.7-1.97.7ZM12.35,14.29c.39,0,.73-.15,1.03-.45.3-.3.54-.78.7-1.44.17-.66.25-1.54.25-2.64s-.08-1.97-.25-2.62c-.17-.65-.4-1.11-.7-1.4-.3-.29-.65-.43-1.03-.43s-.73.14-1.03.43c-.3.29-.54.75-.71,1.4s-.26,1.52-.26,2.62.09,1.98.26,2.64c.17.66.41,1.14.71,1.44.3.3.65.45,1.03.45Z"/>
    <path class="cls-5" d="M20.98,15.76c-.59,0-1.12-.08-1.59-.22s-.88-.35-1.24-.59c-.35-.25-.67-.5-.94-.77l.86-1.2c.22.22.46.43.72.62.26.19.55.34.88.46s.7.18,1.1.18c.43,0,.81-.09,1.16-.28.34-.19.62-.46.81-.81.2-.35.3-.77.3-1.25,0-.73-.2-1.29-.6-1.7-.4-.41-.93-.61-1.59-.61-.37,0-.68.06-.94.17-.26.11-.56.28-.89.5l-.89-.58.34-5.6h5.83v1.57h-4.27l-.27,3.01c.25-.13.5-.23.75-.3.25-.07.53-.1.83-.1.65,0,1.24.12,1.77.38.53.25.95.64,1.27,1.17.31.53.47,1.2.47,2.02s-.18,1.54-.55,2.13c-.37.59-.84,1.03-1.43,1.34-.59.31-1.22.46-1.9.46Z"/>
  </g>
</svg>