<?xml version="1.0" encoding="UTF-8"?>
<svg id="a1" xmlns="http://www.w3.org/2000/svg" viewBox="0 0 600 500">
  <defs>
    <style>
      .cls-1 {
        fill: #4c473f;
      }

      .cls-2 {
        fill: #656156;
      }

      .cls-3 {
        fill: #7e7669;
      }

      .cls-4 {
        fill: #817668;
      }

      .cls-5 {
        fill: #c9caca;
      }

      .cls-6 {
        fill: #928a7d;
      }

      .cls-7 {
        fill: #5c4b38;
      }

      .cls-8 {
        fill: #45413a;
      }

      .cls-9 {
        fill: #6a6358;
      }

      .cls-10 {
        fill: #867b6f;
      }

      .cls-11 {
        fill: #f6f4f1;
      }
    </style>
  </defs>
  <g>
    <path class="cls-10" d="M388.55,57.1c1.41.41,2.85-.27,4.16.52,1.45.87,1.74,2.65,1.17,4.15-1.81,4.75-8.61,6.11-12.25,8.95-1.08.85-2.26,1.57-3.35,2.4-.85.72-1.34,1.9-2.27,2.47-.51.31-1.2.14-1.69.47-.3.2-.08.62-.35.86-.24.21-1.42,1.27-1.72,1.28-.01,0-.02,0-.03,0-1.32.13-1.65,1.32-2.11,2.34,0,.02-.02.03-.02.05-.77,1.57-1.4,2.67-3.08,3.31-.1-.77-.32-2.07.45-2.59.73-.5,1.23.1.95-1.67-1.62.72-1.67.16-2.85-.27-2.05-.75-1.4,2.59-1.48,3.86-.07,1.09-.13,1.82,1.93,2.65l-.96.96c-1.33.6-2.45,2.53-2.94,3.81-.45,1.17.42,2.33-.64,3.41-1.2,1.22-1.61-.3-2.65,2.86h-.96s.03.7.03.7l.45.26c-.06.28.05.66,0,.96h-.96c.26,1.75-.83,3.26-.43,5l.43.28c-.14.59-.35.98-.48,1.44h-.96s0,.96,0,.96c-.07.07-.37,1.54-.48,1.92-.51,1.78-.96,3.43-.96,5.52,0,.94-.48,1.94.96,1.68.03.28.5.7.5,1.2,0,1-2.29,2.8-2.9,2.16-.07-.08.06-1.48-.08-2.08-.53-2.32-3.55-2.68-3.76-3.45-.16-.59.67-.95.87-1.52.26-.72.15-1.91.79-2.57.58-.59,1.56-.37,1.96-.92.65-.89,1.06-4.59,1.23-4.77.19-.2,1.13-.08,1.35-.81.43-1.42-.04-3.56-1.88-3.56.24,1.61-.82,4.35-1.9,5.54-.73.81-2.2,1.25-2.89,1.91s-1.23,2.07-1.92,2.88c-.83.97-2.09,1.51-2.65,2.15-.61.7-.67,2.28-.76,2.36-.46.46-3.13-.22-2.36,1.96,1.85-.39,3.27.57,5,.97.49.11.38.85.28,1.18-.31,1.03-2.72,1.09-2.86,1.22-.25.21.46,2.51-.47,3.13-1.11.74-4.14-.51-4.82.94-.37.8,1.38,1.07,1.76,1.1.49.05,1.14-.36,1.81-.41.5-.04,1.83-.29,1.7.5l-5.97.96c-.45-.03-.34.94-.26,1.2.3,1.03,4.29,1.48,5.28,1.68v1.44s-1.92,0-1.92,0v.96c-.78.08-1.62-.09-2.4,0-1.36.15-1.4.75-1.92,1.92-.39-.1-.99.07-1.44,0-.59-.09-2.36-.19-2.88-.48-.08-.05-.17-.74-.77-.9s-2.18-.19-2.79-.09c-.38.06-.26.78-.76.99-.79.33-.75-.58-.96.96-.52.03-1.06-.11-1.57.08l-.35.4c-.11-.07-.44.08-.48,0-.11-.2.11-.85,0-.96s-.87.11-.96,0c-.13-.15.14-1.31,0-1.43-.17-.15-1.05.09-1.43,0-.06-.02-.09-.72-.96-.48v3.36c-.95-.2-2.37.18-3.36,0v-3.84s-.96,0-.96,0c-.03-1.11.02-2.24,0-3.36,6.55,1.73,3.51-2.09,3.84-2.4,1.38.21,2.75.06,1.7-1.46-.42-.61-2.21-.84-2.2-2.14,0-.99,1.3-1.36,1.43-1.97.1-.5-.82-2.23-.38-3.72.21-.72,1.59-1.32,1.8-2.04.28-.97-.16-2.23.13-3.23.19-.64,1.65-2.57,2.1-3.66,1.21-2.93,2.18-4.95-.47-7.23-.44-.38-1.25-.39-1.24-.73.89-1.49.24-3.17.58-4.69.16-.71.99-1.36.88-2.24.05-.04-.09-.79.47-1.21.37-.27.92-.18.97-.22l2.4.48c-.42-2.06,1.02-3.34,1.9-5.06l8.33-2.71c.85-.4,1.27-1.3,2.07-1.77,1.66-.97,4.21-1.16,4.51-3.66.13-1.05-.49-2.87-1.44-3.37-1.28-.68-2.86.7-2.41-1.67.17-.19.42-.4.48-.48.87.09,1.47-.59,1.86-1.26l.06-.66c3.18-1.76,6.69-3.16,10.06-4.65,2.99-1.33,5.88-2.93,8.96-4.06,1.43-.52,9.57-2.56,9.72-3.32,2.43-.95,5.12-.82,7.68-.99,2.19-.14,4.18-.52,6.27-.31.63.06,1.27.18,1.93.37ZM355.93,97.16l-3.36-.24c.1,2.27,2.23,1.45,3.36.24Z"/>
    <path class="cls-2" d="M166.89,319.54c-.73-.05-3.8,3.79-4.25,4.63-1.47,2.74-3.8,7.11-2.48,10.01l.49,4.07c.94-1.53.09-3.13,2.15-.95l5,10.38c.43.95-.7,1.35-.87,1.9-.55,1.8,3.26,2.92,3.32,3.3.07.5.2.98-.29,1.2-4.59,2-4.76-3.8-6.83-6.55-.36-1.4.24-3.36-.14-4.66-.15-.51-.98-.95-1.32-1.56-.4-.71-.38-1.61-1.02-2.1-4.02,1.21-3.26,7.36-1.37,10.25,1.58,2.42,1.7,1.01,1.85,4.62.02.54-.08,1.09.05,1.63l.43.29c.11-.08,2.33-.51,2.64-.52,2.01-.03,2.4,1.66,2.16,3.39.51-.23,1.43-.3,2.06-.58.71-.31,1.28-1.08,2.09-1.26,1.92-.44,3.03.26,4.48,1.36.1-.95.52-1.56,1.44-1.92-.43,1.57,1.23,2.01,1.69,2.88.27.51.17,1.32.26,1.41.37.41,2.85-1.13,2.37,2.9,2.89.61,2.07-1.68,3.11-2.88.26-.3,2.72-2.05,3.1-2.18,2.02-.67,2.83.89,3.58.72.7-.16,1.08-1.72,2.69-1.89v-2.4c2.07-.14,3.21-.27,3.84,1.92.14-.03.32,0,.48,0,.02-.27.47-.43.48-.48.07-.26-.12-.81.01-.94.34-.36,2.75.41,3.36.69,1.37.64,4,3.37,4.61,3.55,1.61.47,2.93-.26,4.27-.41,1.05-.12,2.36.2,3.29-.07.38-.11,2.13-1.9,2.45-2.35,1.33-1.87,2.32-5.55,2.65-7.85.19-1.33-1.51-.49-1.88,0-.18.25-.27,1.29-.37,1.62-.3,1.03-.55,2.48-1.33,3.27-.34.35-2.24,1.45-2.66,1.06-.39-.36,1.52-2.62,1.82-3.22.59-1.17.82-3.07,1.29-3.99.6-1.17,2.59-2.04,3.05-4.15.44-2-.58-9.95-1.6-11.67-.47-.78-1.76-1.58-2.38-2.41-.43-.57-.59-1.53-.96-1.92-.43-.45-2.45-1.15-3.38-1.9-1.37-1.1-3.69-4.29-5.03-4.81-.88-.34-2.8.09-2.4-1.44-1.94.39-8.57-2.05-9.12-1.44-.14.15.25,2.27-.48,2.88.07.1-.16.69.06.87.16.14,2.18.59,2.99,1.11.77.49,2.07,2.2,2.52,2.29.36.07,2.46-.65,3.79-.45.81.12,1.03.77,1.49.9.98.29,2.06-.21,3.06.3.42.21,2.19,2.53,2.32,2.96.31,1.06-.28,2.71.29,3.55.56.83,1.92.17,2.68.67,1.12.74,2.24,4.79,1.83,6.2-.29,1.02-1.6,1.09-1.81,1.31s.29,1.33-.76,2.36c-2.27,2.23-4.43,1.99-6.95,3.12-.82.37-3.8,2.23-4.36,2.84-1.35,1.49-1.24,4.05.98,3.62.03,2.09-2.33,1.35-3.83,1.43l-.03-1.42-1.42-1.46c-.54.61-4.14,1.26-4.97,1.5-.65.19-1.04,1.23-1.56,1.34s-1.85-.8-3.25-.38c-.68.2-.88,1.23-1.96,1.39-2,.3-2.03-.62-2.96-.9-.62-.19-3.14.37-2.57-.79.65-1.31,3.5-1,4.56-1.21.51-.1.89-.41,1.19-.47-1.37-3.05.72-3.31,2.15-4.8,1.08-1.13,1.81-3.66,2.89-4.79s2.92-2.35,3.83-3.85c.2-.32.74-1.85.74-2.16,0-.77-.79-1.02-.94-1.49-.37-1.19,1.09-2.36,2.36-2.1.1-.29,1.2-1.06.96-1.92l-3.1.5c-.83-1.9-1.8-2.23-3.86-1.94-2.3.33-3.3,3.11-4.88,3.75-.75.3-4.63.87-4.96.56l.97-3.83c3.36.38,1.39-1.01,1.53-2.56.05-.56.46-1.1.42-2.02-.05-1.38-1.4-2.23.44-3.11-.04-.01-.25-.37-.68-.5-1.26-.36-4.31-.82-4.85-1.89-.38-.76-.02-2.1-.99-2.37-1.37-.39-5.26.35-6.59,1.01-.82.41-1.56,1.68-2.07,1.79-.45.1-.88-.43-1.14-.44Z"/>
    <path class="cls-10" d="M271.95,94.27c.79-1,2.07-1.86,2.9-2.86,1.6-1.94,3.13-4.42,4.78-6.26,3.81-4.24,9.69-5.46,14.74-7.81,2.74-1.28,6.24-3.73,8.76-4.67,1.38-.51,9.47-2.18,10.81-2.18.77,0,1.35.48,1.93.51,1.97.12,6.14-.59,7.2,1.43.6,1.15-.27,2.87-.99,3.84-1.07,1.45-8.37,6.65-10.31,7.92-1.19.78-3.12,1.27-4.09,2.15-.89.81-1.77,2.66-2.61,3.63s-3.18,2.75-3.62,3.58c-.53,1.01-.89,3.43-1.43,4.81-1.37,3.5-3.38,6.04-2.64,10.07v.48c-1.61,1.96-2.87,4.22-4.58,5.72-.9.79-.26,1.78-1.91,1.48-1.78-.32-1.31-3.98-1.19-5.52.08-.95,1.41-2.43-.48-2.17l-2.15,3.85c-1.35.54-2.35,1.42-3.38,2.36-.62.57-3.47,3.13-2.58,3.82.2.16.76-.03.91.52.05.18.05.78,0,.96-.02.07-.74.18-.45,1.14.26.86,1.91,1.06,1.36,2.89-.17.56-1.62,1.57-2.2,1.67-1.95.36-3.37-2.6-4.21-2.34-1.47.45-1.71,4.69-2.91,6.22-1.09,1.39-2.64,1.46-3.61,2.15-.44.31-.35,1-.5,1.17-.22.23-1.79-.05-2.35.05.59-1.23.13-1.68.02-2.65-.29-2.38.26-2.87-2.89-2.63.44-.82.7-2.52,1.2-3.36.6-1.01,2.54-1.19,2.67-2.64.1-1.21-1.36-1.95-1-4.33.13-.85.94-1.13,1-1.91.07-.84-.59-1.5-.53-2.37.05-.76,1.35-3.74.98-4.1l-2.88.48c.79-2.8,4.72-13.22,6.23-15.12ZM293,88.45c-.15.64-.98,1.36-.85,1.93.1.43,1.11,1.42,1.31,2.56.14.81,0,3.35.12,3.48.15.15,3.65,1.18,3.82.98.16-1.35.63-3.11,1.19-4.33s1.62-1.65,1.69-2.87c-1.49.42-2.98.67-4.56.48-1.41-.17,1.46-3,1.91-3.37,1.07-.87,3.19-1.74,3.88-2.87.4-.65-.26-1.07-.2-1.61.16-1.25,1.91-1.89,1.84-3.19l-4.31,1.69c-1.11.82-3.01,4.39-3.83,4.8-.7.36-1.84.14-1.93.23-.08.07.06,1.49-.08,2.08ZM272.92,114.19h-.96c-.95.95,2.48,3.92.96,0Z"/>
    <path class="cls-6" d="M324.74,91.64c-.09.07-.62-.16-.86.07-1.44,1.34-.77,4.69-1.13,6.33s-4.29,8.78-5.45,10.38c-.43.6-.91,1.07-1.67.97.26.78.32,1.61.48,2.4,0,.04.41.08.49.69.15,1.11.28,3.06-.78,3.59l-.67.04c-.02.15-.02.33,0,.48.08.69.87,2.46.44,2.84-.16.14-.9.07-1.19.48-.66.94.57,2.38-2.13,2.44-.06.29.05.66,0,.96.89.4,1.46,1.28,2.15,1.94.97.92.56.05,1.21,1.42.02.05.76.43.96.48,6.55,1.73,3.51-2.09,3.84-2.4,1.38.21,2.75.06,1.7-1.46-.42-.61-2.21-.84-2.2-2.14,0-.99,1.3-1.36,1.43-1.97.1-.5-.82-2.23-.38-3.72.21-.72,1.59-1.32,1.8-2.04.28-.97-.16-2.23.13-3.23.19-.64,1.65-2.57,2.1-3.66,1.21-2.93,2.18-4.95-.47-7.23-.44-.38-1.25-.39-1.24-.73.89-1.49.24-3.17.58-4.69.16-.71.99-1.36.88-2.24Z"/>
    <path class="cls-6" d="M265.73,109.39c-.44,1.55-.26.54-.85,1.04-.29.25-.37,1.35-.82,1.86-.47.53-1.16.42-1.2.46-.09.09.08,1.89-.08,2.56-.58,2.57-2.49,5.75-2.79,8.72-.15,1.49.5,2.56.47,4.07,0,.3.07.76,0,.96,1.91.84,2.86.38,3.84-1.44.44-.82.7-2.52,1.2-3.36.6-1.01,2.54-1.19,2.67-2.64.1-1.21-1.36-1.95-1-4.33.13-.85.94-1.13,1-1.91.07-.84-.59-1.5-.53-2.37.05-.76,1.35-3.74.98-4.1l-2.88.48Z"/>
    <path class="cls-6" d="M326.18,90.2l2.4.48c-.42-2.06,1.02-3.34,1.9-5.06l8.33-2.71c.85-.4,1.27-1.3,2.07-1.77,1.66-.97,4.21-1.16,4.51-3.66.13-1.05-.49-2.87-1.44-3.37-1.28-.68-2.86.7-2.41-1.67-1.45,1.62-1.8,1.33-3.34,3.62-1.64,2.44-5.81,5.12-7.71,7.65-1.22,1.62-2.93,5.19-4.31,6.49Z"/>
    <path class="cls-6" d="M365.04,85.88c.22.09.67-.06.96,0,.2-.4.83,0,.96-1.92.06-.89-.32-2.1.49-2.65.73-.5,1.23.1.95-1.67-1.62.72-1.67.16-2.85-.27-2.05-.75-1.4,2.59-1.48,3.86-.07,1.09-1.09,1.82.97,2.65Z"/>
    <path class="cls-6" d="M355.45,108.43c-.51,1.78-.96,3.43-.96,5.52,0,.94-.48,1.94.96,1.68-.08-.71.65-1.96.48-3.36,0-.04-.52-.12-.49-.69.04-.84,1.28-2.5.01-3.15Z"/>
    <path class="cls-6" d="M358.33,98.84h-.96c.26,1.75-.83,3.26-.43,5l.43.28c.39-1.67.65-3.47.96-5.28Z"/>
    <path class="cls-6" d="M342.01,71.97c.87.09,1.47-.59,1.86-1.26l.06-.66c-2.01,1.11-1.03.77-1.92,1.92Z"/>
    <path class="cls-8" d="M198.79,237.97c2.27-1.87,5.4-3.3,7.71-5.24.53-1.26.34-2.37-.75-3.16-.39-.28-.92-.19-.96-.23-1.3.25-1.33-.29-1.92-.96-1.25-1.43-.97-2.18-1.01-4.03-.43-.25-1.76-1.68-1.87-1.73v-.96c.29.07.78-.09.96,0,.04.02.12.46.48.7,3.8,2.55,6.63,6.52,11.03,7.94-.51,3.24-.92,7.02-1.22,10.32-.23,2.45-.59,1.12-1.17,1.67.06-.46-.09-1.02,0-1.44l-.96-.96c-.86.23-1.72-.56-2.62-.51-1.2.08-3.26,1.77-5.27,1.96-3.5.34-5.96-.48-2.43-3.39Z"/>
    <path class="cls-6" d="M356.89,105.56h-.96s0,.96,0,.96c.43-.38.46.82.96-.96Z"/>
    <path class="cls-6" d="M358.81,96.92h-.96s.03.7.03.7l.45.26c.01-.06.26-.28.48-.96Z"/>
    <path class="cls-7" d="M297.39,108.91c.09-.11.48-.15.48-.48h-.48s0,.48,0,.48Z"/>
    <path class="cls-8" d="M335.3,233.66c.32,0,.64-.02.96,0,.16,0,.32-.02.48,0,2.15.68,5.3,1.62,6.75,2.33.68.33,1.29,1.89,1.67,2.5.62,1-1.69,1.83-.75,2.84-.03,0-.04.27-.31.42-.25.14-.6,0-.65.06-.56-1.07-5.8-2.44-5.76-1.2.81,2.17,3.56,3.36,5.76,3.12-.05,2.19.04,5.32-.54,7.38-.27.96-2.48,1.75-2.34,3.18-.54.35-1.07,1.07-1.77,1.35-1.49.59-6.07,1.92-7.56,2.03-2.79.21-8.49-1.34-10.34-3.38-.18-.2-.23-.77-.71-.88-.49.54-1.31.27-1.69.41-.49-.72-.56-1.54-.48-2.4,2.79-.23.96-3.83.96-5.04,0-.49.44-.96.47-1.45.11-1.78.04-3.94.56-5.68.14-.47,4.87-4.19,5.72-4.86.82-.63.73.25.93-1.21,2.78.85,5.76.39,8.64.48ZM326.68,243.95c-.11,1.39-.65,2.52-.52,4.36.07.97,1.16,2.63-.26,3.06-.55.17-2.66-.37-2.12.76.45.93,2.82.74,3.67,1.61.58.06,2.93.19,3.04.08s-.19-1.59.23-2.41c.13-.25,1.38-1.43,1.7-1.65.62-.43,1.83-.67,1.9-.74.29-.27-.48-1.95-.51-2.62-.13-2.61,1.67-3.41-.92-6.25-2.28-2.5-3.96-.48-6.71-.22-.47,1.36.57,2.98.49,4.04Z"/>
    <path class="cls-11" d="M341.21,235.1l-1.46.47,1.3.48c.68.33,3.09,1.76,3.48,2.38.62,1-1.06,1.89-.12,2.9.37-.08,2.32-.09,2.4,0,0-.32-.01-.64,0-.96.02-.73.02-1.3.48-1.92-1.23-.6-2.71-1.9-4.31-2.66-.56-.27-1.55-.6-1.77-.69Z"/>
    <path class="cls-9" d="M193.28,320.98c-.09-.13-2.43.06-3.11,0-.46-.04-1.93-.81-2.16-.47-.13.19.25,1.59-.76,1.88-.93.27-3.01-.17-4.04-.44-1.84.88-.5,1.73-.44,3.11.04.92-.37,1.45-.42,2.02-.14,1.55,1.83,2.94-1.53,2.56l-.97,3.83c.32.31,4.2-.26,4.96-.56,1.58-.64,2.58-3.43,4.88-3.75,2.07-.29,3.03.04,3.86,1.94l3.1-.5c1.54-1.03,2.94-1.05,4.49-1.51.54-.16.86-1.07,1.51-.89.56.16,1.31,3.03,1.17,3.54-.31,1.1-4.38,3.63-5.5,3.69-.97.05-1.84-.76-3.1-.03-.1-.11.35-2.54.48-2.88-1.27-.26-2.72.91-2.36,2.1.14.47.94.72.94,1.49,0,.32-.55,1.84-.74,2.16-.91,1.5-2.77,2.74-3.83,3.85s-1.81,3.66-2.89,4.79c-1.44,1.5-3.53,1.75-2.15,4.8,1.54-.33,1.96-.5,3.36-.96-.49-1.44,2.2-7.34,3.16-7.63.7-.21,1.55-.06,2.26.04.24.03.29.38.33.4.83.29,1.46-.95,2.25-1.35,2.79-1.42,6.97-1.89,10.21-3.23.62-.26,1.34-.14,1.95-.45,1.29-.67,1.34-3.37,2.15-3.6.61-.18,1.46.13,1.64.75.35,1.19-1.18,6.19-2.1,6.95-3.25,2.01-8.9,3.27-11.77,5.5-1.17.91-1.48,2.6-1.93,3.11l1.42,1.46.03,1.42c1.5-.08,3.86.65,3.83-1.43-2.22.43-2.34-2.13-.98-3.62.55-.61,3.54-2.47,4.36-2.84,2.53-1.13,4.68-.89,6.95-3.12,1.05-1.03.54-2.14.76-2.36s1.51-.29,1.81-1.31c.41-1.41-.71-5.46-1.83-6.2-.76-.5-2.12.15-2.68-.67-.57-.84.02-2.49-.29-3.55-.13-.43-1.9-2.75-2.32-2.96-1-.5-2.08,0-3.06-.3-.46-.14-.69-.78-1.49-.9-1.34-.2-3.44.53-3.79.45-.45-.09-1.75-1.8-2.52-2.29-.82-.52-2.83-.97-2.99-1.11-.22-.18.01-.78-.06-.87Z"/>
    <path class="cls-4" d="M282.04,118.99c.05.18.05.78,0,.96,1.46-.26.68.99,1.66,1.94,1.28,1.23,2.99,1.15,4.12-.24,1.58-1.94-.68-4.75-3.09-4.04-.75.22-1.26,1.85-2.69,1.38Z"/>
    <path class="cls-4" d="M312.27,123.31s-.38.08-.48.7c-.21,1.26-.31,2.81-.48,4.1,2.17.61,2.59-1.03,4.32-1.44-.65-1.37-.24-.49-1.21-1.42-.69-.66-1.26-1.54-2.15-1.94Z"/>
    <path class="cls-4" d="M312.27,122.35c2.7-.06,1.48-1.5,2.13-2.44.29-.41,1.03-.34,1.19-.48.43-.38-.37-2.15-.44-2.84-2.61.35-2.45,3.68-2.88,5.76Z"/>
    <path class="cls-4" d="M315.14,116.11l.67-.04c1.06-.52.93-2.47.78-3.59-.08-.61-.48-.65-.49-.69l-.43.28c.24,1.47-.4,2.76-.53,4.04Z"/>
    <path class="cls-4" d="M321.86,131.46c-.06-.02-.09-.72-.96-.48v3.36c.06.01.09.72.96.48v-3.36Z"/>
    <path class="cls-4" d="M331.94,132.42l.48,1.92c.32.34,2.05-.94,2.4-1.44-.59-.09-2.36-.19-2.88-.48Z"/>
    <path class="cls-4" d="M316.58,130.5c.03,1.15-.46,3.57.96,3.84v-3.84s-.96,0-.96,0Z"/>
    <path class="cls-4" d="M342.49,128.59v1.44s-1.92,0-1.92,0v.96c.48-.05,2.77-.39,2.88-.48.31-.24-.02-1.73-.96-1.92Z"/>
    <path class="cls-4" d="M336.26,132.9c.06.01.21.73.95.48l.97-2.4c-1.36.15-1.4.75-1.92,1.92Z"/>
    <path class="cls-4" d="M327.62,132.42c-.79.33-.75-.58-.96.96-.52.03-1.06-.11-1.57.08l-.35.4s-.11.36.27.44c1.65.38,1.5.18,1.65-.92.86-.05,1.11.21.96-.96Z"/>
    <path class="cls-4" d="M323.3,132.9v.96s.96,0,.96,0c-.11-.2.11-.85,0-.96s-.87.11-.96,0Z"/>
    <path class="cls-6" d="M352.57,96.92c.1,2.27,2.23,1.45,3.36.24l-3.36-.24Z"/>
    <path class="cls-3" d="M196.63,330.57c.24.86-.85,1.63-.96,1.92-.12.34-.58,2.77-.48,2.88,1.26-.73,2.13.08,3.1.03,1.12-.06,5.19-2.59,5.5-3.69.14-.51-.61-3.38-1.17-3.54-.64-.18-.97.73-1.51.89-1.54.46-2.94.48-4.49,1.51Z"/>
    <path class="cls-6" d="M293.08,86.37c-.08.07.06,1.49-.08,2.08-.15.64-.98,1.36-.85,1.93.1.43,1.11,1.42,1.31,2.56.14.81,0,3.35.12,3.48.15.15,3.65,1.18,3.82.98.16-1.35.63-3.11,1.19-4.33s1.62-1.65,1.69-2.87c-1.49.42-2.98.67-4.56.48-1.41-.17,1.46-3,1.91-3.37,1.07-.87,3.19-1.74,3.88-2.87.4-.65-.26-1.07-.2-1.61.16-1.25,1.91-1.89,1.84-3.19l-4.31,1.69c-1.11.82-3.01,4.39-3.83,4.8-.7.36-1.84.14-1.93.23Z"/>
    <path class="cls-6" d="M271.96,114.19c-.95.95,2.48,3.92.96,0h-.96Z"/>
    <path class="cls-1" d="M326.19,239.91c-.47,1.36.57,2.98.49,4.04-.11,1.39-.65,2.52-.52,4.36.07.97,1.16,2.63-.26,3.06-.55.17-2.66-.37-2.12.76.45.93,2.82.74,3.67,1.61.58.06,2.93.19,3.04.08s-.19-1.59.23-2.41c.13-.25,1.38-1.43,1.7-1.65.62-.43,1.83-.67,1.9-.74.29-.27-.48-1.95-.51-2.62-.13-2.61,1.67-3.41-.92-6.25-2.28-2.5-3.96-.48-6.71-.22Z"/>
    <path class="cls-11" d="M343.45,241.81c-.56-1.07-5.8-2.44-5.76-1.2.81,2.17,3.56,3.36,5.76,3.12,0-.44-.07-1.85,0-1.92Z"/>
    <path class="cls-3" d="M188,350.72c.33-.11,1.04.11,1.6-.07.83-.27,4.27-5.73,4.16-7.13-.05-.02-.09-.36-.33-.4-.71-.1-1.56-.24-2.26-.04-.97.29-3.65,6.19-3.16,7.63Z"/>
  </g>
  <g>
    <path class="cls-5" d="M3.04,11.7v-1.36h4.13v1.36H3.04Z"/>
    <path class="cls-5" d="M12.35,15.76c-.77,0-1.44-.23-1.99-.7-.56-.46-.99-1.14-1.29-2.03-.3-.89-.45-1.98-.45-3.27s.15-2.37.45-3.25c.3-.87.73-1.54,1.29-1.98.56-.45,1.22-.67,1.99-.67s1.42.22,1.97.67c.55.45.98,1.11,1.28,1.98.3.88.45,1.96.45,3.25s-.15,2.38-.45,3.27c-.3.89-.73,1.57-1.28,2.03-.55.46-1.21.7-1.97.7ZM12.35,14.29c.39,0,.73-.15,1.03-.45.3-.3.54-.78.7-1.44.17-.66.25-1.54.25-2.64s-.08-1.97-.25-2.62c-.17-.65-.4-1.11-.7-1.4-.3-.29-.65-.43-1.03-.43s-.73.14-1.03.43c-.3.29-.54.75-.71,1.4-.17.65-.26,1.52-.26,2.62s.09,1.98.26,2.64.41,1.14.71,1.44c.3.3.65.45,1.03.45Z"/>
    <path class="cls-5" d="M20.98,15.76c-.6,0-1.14-.07-1.6-.22-.46-.15-.87-.35-1.23-.6-.35-.25-.66-.52-.92-.81l.88-1.18c.34.34.74.64,1.17.9s.95.38,1.55.38c.44,0,.82-.07,1.14-.22.32-.15.58-.36.76-.64.18-.28.27-.61.27-.99,0-.43-.1-.79-.3-1.1-.2-.3-.55-.54-1.05-.71-.5-.17-1.17-.26-2.04-.26v-1.38c.76,0,1.36-.09,1.79-.26.43-.18.75-.41.94-.7.19-.29.29-.62.29-.98,0-.51-.16-.91-.47-1.21-.31-.29-.75-.44-1.3-.44-.44,0-.85.1-1.23.31-.38.21-.74.48-1.07.81l-.94-1.15c.46-.42.96-.76,1.5-1.03.54-.27,1.14-.41,1.8-.41s1.3.12,1.83.35c.53.23.95.57,1.25,1.02.3.44.45.98.45,1.61,0,.66-.18,1.21-.54,1.66-.36.44-.84.78-1.45,1.02v.08c.44.11.84.29,1.2.54s.64.58.85.97c.21.39.31.85.31,1.37,0,.69-.17,1.29-.52,1.78-.35.49-.82.87-1.4,1.13-.58.26-1.22.39-1.92.39Z"/>
  </g>
</svg>