<?xml version="1.0" encoding="UTF-8"?>
<svg id="a1" xmlns="http://www.w3.org/2000/svg" viewBox="0 0 600 500">
  <defs>
    <style>
      .cls-1 {
        fill: #82786c;
      }

      .cls-2 {
        fill: #c9caca;
      }

      .cls-3 {
        fill: #928a7d;
      }

      .cls-4 {
        fill: #867b6f;
      }
    </style>
  </defs>
  <g>
    <path class="cls-3" d="M325.93,77.57s-.12-.37-.33-.4c-1.64-.26-2.93.23-4.49.63-1.87,1.81-4.08,3.29-5.78,5.3-2.44,2.88-7.78,9.23-9.23,12.43-.89,1.97-1.43,4.29-2.41,6.26-.61,1.22-2.21,3.06-2.58,4.17-.25.74-.34,3.02-.73,3.36-.29.26-1.55-.54-2.79,1.3-2.3,3.43-2.75,9.47-4.64,12.69-.88,1.49-1.89,9.8-2.68,11.76-.17.6.3.72.48.96.76-.09,2.17-.08,2.41.74.16.57-.48.66-.48.7-.12.75-.13,3.38.06,4.03.04.15,1.75,2.39,1.88,2.48.36.27.92.19.95.23l3.39-7.45c.08-.47,0-.95.02-1.42-1.42,0-2.04-1.13-.68-1.89l.68-.04c.06-1.68-.02-2.66.48-4.33-.88-.39-.48-1.81-.38-2.54.4-2.87.65-2.86.39-5.89-.09-1.07-.06-4.28,1.24-4.54.48-.1,2.11,1.23,2.56-.31.64-2.19-.78-3.2-.92-5.01,1.62.14,3.46-1.4,4.36-2.63.6-.82.33-1.49.69-2.2.34-.67,2.27-2.44,2.88-3.37,1.1-1.66.43-2.05,2.18-2.88.37-.17,1.56-3.86,2.03-4.95.87-2,1.72-5.72,2.84-7.27.73-1,2.61-1.85,3.56-2.7.8-.71,4.12-3.88,4.1-4.58,0-.45-.41-.93-.51-1.45-.25-1.28,1.22-.33,1.45-1.21Z"/>
    <path class="cls-3" d="M362.99,115.13c1.75.33,1.16-.3,1.69-.94.44-.53.95-.98,1.44-1.47.45.16.19.88.48,1.45.09.18.54.64.71.73,1.97.98,2.27-.55,2.95-2.13.88.21,1.82-.48,2.35-.54-.27-1.2.39-.82.96-1.21.37-.26.45-.7.49-.72l3.62-6.73,2.63-1.94c1.94-4.03,2.45-4.25,1.92-8.92-.21-1.82,2.29-6.14,3.87-7.2,1.89-1.27,6.48-1.31,8.91-1.68,1.07-.16,1.33-.36,2.15-.98-.04-.04.03-.59-.24-.94-.77-.97-2.07-2.07-3.36-1.97-.73.06-5.85,2.71-6.84,3.3-6.27,3.71-8.53,10.46-12.43,15.97-2.87,4.05-7.41,8.03-10.56,12.07-.35.44-1.22,1.69-1.26,2.15-.07.84.47,1.3.51,1.68Z"/>
    <path class="cls-4" d="M332.19,107.42l-2.41-1.44c.5,3.06-1.17,5.74-1.83,8.53-.59,2.5-.44,5.09-1.15,7.51-.15.51-.77.75-.88,1.52-.21,1.42-.13,4.76,0,6.29.09,1.08,2.03,8.18,3.34,8.13.56-1.29,1.05-9.05,1.17-10.79-1.61.23-1.4-4.46-1.12-6.01.82-4.57,2.04-9.15,2.88-13.73Z"/>
    <path class="cls-4" d="M362.99,120.91c1.75-.26,1.26,1.69,1.45,1.92.44.53,3.99-.93,4.32-1.68-.38-.72-2.16.49-1.93-.96.26-1.62,2.66-1.53,2.89-2.41.2-.79-1.27-1.18-.96-2.16,1.07-.19,1.97.78,3.06.43.4-.13.65-.69,1.11-.84.5-.16,1.35.06,1.55-.13.14-.13.11-.63.28-.9.69-1.03,7.18-.37,6.51-3.86-4.55-1.36-2.16.19-2.41,1.18-.33,1.29-4.87.59-6.26.74-.54.06-1.47.74-2.35.54-.68,1.58-.99,3.1-2.95,2.13-.17-.08-.62-.55-.71-.73-.29-.57-.03-1.29-.48-1.45-.48.49-.99.94-1.44,1.47-.53.63.06,1.27-1.69.94.03.29.03.67,0,.96-.13,1.46.21,4.11,0,4.82Z"/>
    <path class="cls-3" d="M361.06,116.57c.17,1.08,1,1.72-.29,2.37-.24.12-.55-.03-.68.04-.77.4-1.4,4.31-1.99,4.76-.23.17.95,6.45.48,6.74-.74.46-.43,1.84-.47,2.67-.06,1.43-.19.67-.95,1.19s-.45,1.38-.49,2.18c-.03.58-.09,2.71.05,2.84s.76.07,1.16.51c.8.88,1.01,3.11,2.88,3.39,1.58.24.22-1.5.31-2.1s.87-1.19.92-2.01c.06-.91-.73-1.75-.51-2.63-1.03.05-1.84.32-1.39-1.14.26-.83-.84-8.13-.59-9.03l2.01-.62c.03-.28.05-.72,0-.96-.02-.08-.85-.51-.48-1.44h.96c.26-1.58.78-1.82.96-2.41.21-.71-.13-3.35,0-4.82-.6-.07-1.46.66-1.93.48Z"/>
    <path class="cls-4" d="M392.35,127.17l-1.33,2.76c-.17,2.35.52,10.95.81,13.33.32.01.64-.02.96,0-.1-3.08-.36-13.04-.44-16.09Z"/>
    <path class="cls-4" d="M361.06,116.57c-.6.5-1.08,1.6-.96,2.41.13-.07.63.14.87.01.97-.49.77-1.79.09-2.42Z"/>
    <path class="cls-4" d="M392.83,124.76h-.96c-.37.93.46,1.36.48,1.44l.43-.3c.12-.38.04-.76.05-1.14Z"/>
    <path class="cls-4" d="M393.79,118.5s.3.14.43-.3l.05-1.15c-.79.24-1.4,1.03-.48,1.44Z"/>
    <path class="cls-4" d="M312.45,99.72c-1.75.83-1.08,1.21-2.18,2.88-.62.94-2.55,2.71-2.88,3.37-.36.71-.09,1.38-.69,2.2-.9,1.22-2.73,2.76-4.36,2.63.14,1.81,1.56,2.83.92,5.01-.45,1.53-2.08.21-2.56.31-1.3.26-1.33,3.47-1.24,4.54.26,3.03.02,3.02-.39,5.89-.1.73-.5,2.16.38,2.54.1-.34.54-1.58.71-1.94.67-1.34,4.46-3.07,3.39-4.82-.67-1.09-2.92-1.01-1.95-2.89,1.07-2.08,3.83-.23,4.78-.49.68-.19,1.32-1.83,1.19-2.54-.42-2.28-4.08-1.65-3.3-4.4.39-1.38,3.39-.07,3.79-1.5.69-2.41-1.26-4.08,3.41-3.57-.21-2.51-.18-4.68,2.89-4.34.12-1.63.25-3.15-1.92-2.88Z"/>
    <path class="cls-4" d="M374.06,110.31c1.12-.46.43.45,1.53-.85.55-.65,3.86-1.36,3.77-3.72-.08-1.98-.04-2.03.96-4.1l-2.63,1.94-3.62,6.73Z"/>
    <path class="cls-4" d="M361.55,125.72l-2.01.62c-.25.89.85,8.2.59,9.03-.46,1.47.36,1.2,1.39,1.14.32-1.25-.11-9.25.04-10.79Z"/>
    <path class="cls-1" d="M298.98,135.35c.02-.64-.02-1.29,0-1.93l-.68.04c-1.36.76-.75,1.9.68,1.89Z"/>
    <path class="cls-4" d="M362.03,123.31h-.96c-.37.93.46,1.36.48,1.44l.43-.3c.15-.37,0-.81.05-1.14Z"/>
    <path class="cls-3" d="M290.75,136.03c.52.71.82,1.56,1.93,1.44,0-.04.64-.13.48-.7-.24-.82-1.65-.83-2.41-.74Z"/>
  </g>
  <g>
    <path class="cls-2" d="M3.04,11.7v-1.36h4.13v1.36H3.04Z"/>
    <path class="cls-2" d="M12.35,15.76c-.77,0-1.44-.23-1.99-.7-.56-.46-.99-1.14-1.29-2.03-.3-.89-.45-1.98-.45-3.27s.15-2.37.45-3.25c.3-.87.73-1.54,1.29-1.98.56-.45,1.22-.67,1.99-.67s1.42.22,1.97.67c.55.45.98,1.11,1.28,1.98.3.87.45,1.96.45,3.25s-.15,2.38-.45,3.27c-.3.89-.73,1.57-1.28,2.03-.55.46-1.21.7-1.97.7ZM12.35,14.29c.39,0,.73-.15,1.03-.45.3-.3.54-.78.7-1.44.17-.66.25-1.54.25-2.64s-.08-1.97-.25-2.62c-.17-.65-.4-1.11-.7-1.4-.3-.29-.65-.43-1.03-.43s-.73.14-1.03.43c-.3.29-.54.75-.71,1.4-.17.65-.26,1.52-.26,2.62s.09,1.98.26,2.64.41,1.14.71,1.44c.3.3.65.45,1.03.45Z"/>
    <path class="cls-2" d="M20.54,15.76c-.66,0-1.22-.13-1.7-.38-.47-.25-.87-.55-1.2-.89l.98-1.15c.21.27.48.48.81.64s.66.24,1.01.24c.5,0,.96-.15,1.38-.45.42-.3.75-.8,1-1.5.25-.7.38-1.65.38-2.85,0-.95-.09-1.73-.28-2.34-.19-.61-.45-1.07-.79-1.36-.34-.29-.74-.44-1.21-.44-.33,0-.64.09-.91.27-.27.18-.48.44-.64.78-.16.34-.23.76-.23,1.25s.07.87.21,1.2c.14.33.35.58.64.75.29.17.63.26,1.04.26.33,0,.7-.12,1.09-.35s.76-.62,1.1-1.17l.08,1.36c-.22.31-.48.58-.77.8-.3.22-.6.39-.91.51-.31.12-.61.18-.91.18-.65,0-1.21-.13-1.7-.39-.49-.26-.87-.65-1.14-1.18s-.41-1.18-.41-1.97.16-1.41.48-1.97c.32-.55.74-.99,1.26-1.3.52-.31,1.09-.46,1.7-.46.55,0,1.07.11,1.55.34.49.22.91.57,1.27,1.03.36.46.64,1.04.85,1.74.21.69.31,1.51.31,2.46,0,1.12-.12,2.08-.35,2.89-.23.81-.56,1.46-.97,1.97-.41.51-.88.88-1.39,1.12-.52.24-1.05.36-1.62.36Z"/>
  </g>
</svg>