<?xml version="1.0" encoding="UTF-8"?>
<svg class="a1" xmlns="http://www.w3.org/2000/svg" viewBox="0 0 600 500">
  <defs>
    <style>
      .cls-1 {
        fill: #4c473f;
      }

      .cls-2 {
        fill: #67543f;
      }

      .cls-3 {
        fill: #736c60;
      }

      .cls-4 {
        fill: none;
      }

      .cls-5 {
        fill: #8b8074;
      }

      .cls-6 {
        fill: #656156;
      }

      .cls-7 {
        fill: #7e7669;
      }

      .cls-8 {
        fill: #c9caca;
      }

      .cls-9 {
        fill: #45413a;
      }

      .cls-10 {
        fill: #6a6358;
      }

      .cls-11 {
        fill: #867b6f;
      }

      .cls-12 {
        fill: #988f83;
      }

      .cls-13 {
        fill: #f6f4f1;
      }
    </style>
  </defs>
  <g>
    <path class="cls-4" d="M242.87,58.04c0-.16-.02-.3.02-.36h0c-.04.06-.02.21-.02.36Z"/>
    <path class="cls-4" d="M250.67,65.48c.68.49,1.47,1.01,2.2,1.37-.74-.35-1.52-.88-2.2-1.37Z"/>
    <path class="cls-4" d="M242.87,58.04c0,.16,0,.33-.1.44.1-.12.11-.29.1-.44Z"/>
    <path class="cls-4" d="M240.94,63.64c-.02.16-.09.26-.2.31.11-.05.18-.15.2-.31.18-1.44-.41-3.36.72-4.57.08-.09.18-.16.29-.21-.1.05-.2.12-.29.21-1.12,1.21-.54,3.13-.72,4.57Z"/>
    <path class="cls-4" d="M254.85,107.04c.1-.94.15-1.57.16-2.03,0,.46-.06,1.09-.16,2.03-.63-.11-2.62.19-2.83-.04-.11-.12-.06-.61-.29-.89-.65-.81-1.8-1.97-2.15-2.9-1.44-.26-.95.74-.96,1.67-.02,1.86-.24,2.66,1.45,3.83,1.61,1.11,2.05.19,3.83.25l-.48,4.31c.5-.09,1.18.31,1.44-.28.89-2.04-.24-3.64,0-5.95Z"/>
    <path class="cls-4" d="M254.09,102.32c-.13-.28-.28-.62-.44-1.02-.06-.16-.14-.37-.24-.63.1.26.18.48.24.63.16.41.31.74.44,1.02Z"/>
    <path class="cls-4" d="M234.9,76.09c1.19.35.88,1.15,1.23,3.06-.36-1.92-.04-2.71-1.23-3.06Z"/>
    <path class="cls-4" d="M281.25,102.72c-.66.01-1.46.08-2.18.08.72,0,1.51-.07,2.18-.08Z"/>
    <path class="cls-4" d="M267.32,95.05c-.16.04-.31.06-.45.07.14,0,.29-.03.45-.07.08-.76.08-2.18-.72-2.4.8.22.8,1.64.72,2.4Z"/>
    <path class="cls-4" d="M285.07,109.43l.02-1.41c.1-.04.23-.05.36-.05-.13,0-.25.01-.36.05l-.02,1.41Z"/>
    <path class="cls-4" d="M263.01,84.02c-.68-.53-1.39-1.12-2.14-1.74.75.62,1.47,1.21,2.14,1.74Z"/>
    <path class="cls-4" d="M267.14,97.7c.09-.13.14-.24.18-.25h0s-.1.12-.18.25Z"/>
    <path class="cls-4" d="M266.76,91.24c-.73.15-1.31.52-1.57.45.26.07.84-.3,1.57-.45Z"/>
    <path class="cls-4" d="M275.8,103.27c.21.11.31.35.16.89-.22.12-.54.22-.92.31.37-.08.7-.19.92-.31.14-.54.05-.78-.16-.89Z"/>
    <path class="cls-4" d="M394.44,353.03c.24-1.98,1.03-2.9-.25-4.78-.99-1.45-2.22-1.84-3.57-2.66-1.61-.98-2.97-1.59-4.63-2.56-3.77-2.22-8.75-4.18-12.99-5.23-.61-.15-1.25-.01-1.76-.15-.86-.23-.64-1.31-.99-1.88-.62-1-1.98-.25-2.9.01-.33.1-1.11-.12-.71.72.41.85,1.96,2.57,2.66,3.6.25.37.68.44.7.48,1-.25,1.29-.51,2.41-.26,1.18.26,4.45,2.45,5.29,3.36.61.66.76,1.85,1.01,2.1.64.64,4.67,2.32,5.85,3.03.98.59,1.61,1.43,2.23,1.84.15.1.87-.09,1.22.45.36.56.2,1.31.22,1.95l2.59-.46c.76.17,1.83,3.42,2.98,3.75l4.5.06c-.34-2.37-1.19-3.83-3.84-3.36Z"/>
    <path class="cls-11" d="M353.19,115.19c-.2-.08-.71.14-.9-.04-.51-.48-.41-2.21-.53-2.84-.8-.04-1.14.27-.93-.69l.45-.27c-.08-.41-.07-1.5,0-1.92,0-.04.59-.18.44-.64-.09-.28-.43-.29-.44-.32-.14-.35.03-.68-.45-1.22-.53-.59-1.71-.8-1.9-1.47-.32-1.14-.33-2.95-.61-4.19-1.1-.98-.87-2.69-1.84-3.67h-.72s-.24-.48-.24-.48c-1.25-.29-1.39,1.34-1.44,2.4-.13.14-3.14-1.24-2.4.24.59,1.17,3.86,2.01,3.31,3.78-.12.39-.72.65-.85,1.08-.62,2.04.61,8.31,3.77,7.37.14.11-1.46,1.73-1.45,2.64,0,1.25,1.82,2.13,1.45,3.6-1.64.08-3.71.28-4.57-1.43-.5-.98.06-2.18-.44-2.91-.28-.41-2.84-.84-3.57-1.47.43-2.51-1.45-2.48-2.43-3.33-.37-.32.55-1.9.49-2.61-.08-1.14-1.85-1.51-1.47-2.88.31-1.13,2.7-.56,2.86-.74l.49-2.38c-.99-.13-3.05.39-3.62-.46-.49-.73-.04-1.78-.28-2.6-.18-.62-1.41-1.36-1.87-1.97-1.24-1.67-2.82-4.55-2.32-6.65.25-1.02,1.08-1.37.9-2.94-.23-1.96-6.21-8.34-7.98-8.82-.38-.1-.76-.06-1.14-.06l.96,4.79c-.26.27-1.58-.5-1.91-.73-2.85-1.99-4.94-5.57-7.44-7.91-.38-.35-2.93-2.55-3.11-2.64-.8-.39-1.63-.06-2.42-.45-.16-.08-2.29-2.23-2.38-2.41-.46-.9.62-.73,1.11-.63,3.59.73,9.01,5.44,8.48-1.53-.15-.04-.32.03-.48,0l-.48-.48c-.15-.05-.34.05-.48,0l-.48-.48c-.25-.08-.7.08-.96,0l-.68-.05-.28-.43c-5.24-1.48-13.93-4.53-18.95-6.73-.94-.41-2.42-1.83-3.46-1.83-1.04,0-1.82,1.2-2.46,1.39-1.64.47-2.75-.87-3.05,1.75-.58,5.16,10.57,15.02,14.24,18.39.95.87,2.77,1.7,3.63,2.61,3.23,3.43,6.82,7.93,9.32,11.79.37.56.94.33,1.21.46.04-.87-.51-1.72-.43-2.1.11-.5,1.05-.71.94-1.98-.09-.96-1.18-1.14-.99-2.16,2.2-.33,3.43.62,4.81,2.15,2.28,2.53,7.2,10.06,8.39,13.19.35.91,1.42,3.44-.02,3.84-1.13.31-2.29-1.32-3.58-.95-.5,1.29,2.91,3.17,1.45,4.08-1.81,1.12-3.37-.66-4.33-.73-.8-.06-1.51.88-2.4,0,.07.24-.03.65,0,.96.03.31,0,.64,0,.96.01.49-.13,1.71.07,1.87.13.1.56-.03.76.17.19.19.07.62.2.76.25.25,1.04-.07,1.3.14.17.13.26,1.25,1.01,1.64,1.6.82,2.92-.4,4-.2.81.15,1.59.97,2.25,1.39.13.08.46-.06.66.08.98.7,1.66,1.52,1.74,2.8,1.72.7,1.92,2.3,4.8,2.88.21.04.46-.06.68.05l.28.43c.54-.12,1.35.11,1.92,0,.08-.02.53-.84,1.44-.48-.05.56.1,1.17,0,1.7-.1.6-.48.65-.49.69-.04.31.04.65,0,.96,2.73.19,1.59.03,1.9-1.69.24-1.32,1.46-1.48,2.62-1.15.92.26,1.07,2.56,1.33,3.47.13.45.72.76.73,1.03.04.61-1.22,1.98.61,1.7v-1.92c1-.16,1.72.98,2.64.97,1.21,0,2.21-1.8,3.6-1.45.43-1.94-.91-1.51-1.44-1.92-1.08-.82.83-.94.89-1.01.23-.25.03-.98.07-1.39,1.9,0,2.55,3.59,4.8,1.92-.09-.19-.33-3.18-.47-4.08-.23-1.49.52-2.81-1.45-3.59Z"/>
    <path class="cls-12" d="M307.77,67.33c-.49-.1-1.57-.27-1.11.63.09.18,2.22,2.33,2.38,2.41.8.39,1.63.06,2.42.45.18.09,2.74,2.29,3.11,2.64,2.5,2.34,4.59,5.92,7.44,7.91.32.23,1.64,1.01,1.91.73l-.96-4.79c.38,0,.76-.04,1.14.06,1.78.48,7.75,6.85,7.98,8.82.19,1.58-.65,1.93-.9,2.94-.51,2.1,1.08,4.98,2.32,6.65.45.61,1.69,1.35,1.87,1.97.24.82-.21,1.87.28,2.6.57.85,2.62.33,3.62.46l-.49,2.38c-.16.18-2.55-.39-2.86.74-.37,1.37,1.39,1.74,1.47,2.88.05.71-.86,2.3-.49,2.61.98.85,2.86.81,2.43,3.33.73.63,3.28,1.06,3.57,1.47.51.73-.05,1.93.44,2.91.86,1.71,2.92,1.51,4.57,1.43.36-1.46-1.45-2.35-1.45-3.6,0-.91,1.59-2.52,1.45-2.64-3.17.94-4.39-5.32-3.77-7.37.13-.44.73-.7.85-1.08.55-1.77-2.73-2.61-3.31-3.78-.74-1.48,2.27-.09,2.4-.24.05-1.06.19-2.69,1.44-2.4-.56-1.15-.24-2.92-.71-3.85-.38-.76-2.64-2.9-3.35-3.84-2.54-3.37-4.66-7.12-7.45-10.3-3.24-3.7-6.89-5.24-10.1-8.61-1.23-1.29-1.04-.94-2.37-1.94-2.76-2.08-1.38-2.13-5.29-3.11.53,6.97-4.9,2.25-8.48,1.53Z"/>
    <path class="cls-12" d="M254.12,67.26c-.13-.01-.26-.05-.4-.09-.27-.07-.56-.19-.85-.33-.74-.35-1.52-.88-2.2-1.37-.14-.1-.27-.19-.4-.29-.16-.12-.32-.23-.46-.34-.51-.37-1.37-1.21-2.22-1.95-.38-.33-.75-.64-1.08-.89-.09-.07-.17-.12-.25-.17-.29-.19-.55-.34-.73-.36-.24-.04-.46-.05-.66-.05-2.67.02-1.22,3.27.02,5.07.13.19.26.36.37.51.26.33.54.67.83,1.02.58.69,1.22,1.41,1.9,2.15.34.37.69.74,1.05,1.12.72.75,1.47,1.52,2.25,2.29,1.56,1.54,3.2,3.09,4.83,4.56,1.22,1.11,2.44,2.17,3.6,3.16.39.33.77.65,1.14.96.75.62,1.47,1.21,2.14,1.74.56-1.98-1.49-2.62-1.84-4.15-.75-3.33,2.29-4.88,3.99-2.55.67.92,3.14,4.84,3.39,5.72.24.84.28,1.56.22,2.42-.63.11-2.62-.2-2.83.05-.27.3-.05.64-1,1.39-.08.07-.09.27-.48.48h0c0,.48,0,.96,0,1.44h0c0,.32-.03.77-.02,1.22,0,.15.01.3.03.44.02.15.04.29.07.42.1.39.3.7.67.79.26.07.84-.3,1.57-.45.24-.05.5-.08.77-.06.15.01.31.04.47.09.8.25,2.49,2.74,2.69,2.82.84.34,2.79-.57,3.36,1.44-1.08.1-2.31-.14-3.36,0-.04,0-.12.37-.33.4-.68.1-1.15.12-1.65.19-.4.06-.81.15-1.38.37h0v.96h0c.42-.18,1.75-.05,2.85.19.44.1.85.21,1.14.33.15.06.27.12.35.18.04.03.08.08.13.15.09.14.19.35.3.6.28.62.61,1.45.99,1.92h0c.16.19.91.36.96.48.72-.39,1.24-.52,1.63-.48.2.02.37.07.51.16.22.13.38.31.52.52.09.14.18.28.26.42.04.07.08.14.12.21.17.27.34.49.59.56.15.04.32.07.5.09.26.03.55.04.87.04,0,0,0,0,.01,0,.72,0,1.51-.07,2.18-.08.17,0,.32,0,.47,0,.61.03,1.39-.1,1.92,0,.6-2.22-2.32-3.41-2.81-5.1-.32-1.11.19-2.61-.13-3.71-.3-1.03-2.2-1.49-2.34-1.74-.74.48-1.76.69-2.6.44-.16-.05-2.13-2.46-2.19-2.62-.27-.76,1.48-2,2.39-1.65-2.45-5.89-3.71-6.49-8.17-10.78-3.04-2.93-5.61-6.71-8.85-9.37-.68-.56-2.89-1.61-3.13-1.91.04.17.05.31.05.43-.03.85-1,.63-1.75.55Z"/>
    <path class="cls-9" d="M390.14,246.8c.37,1.74.59,3.71.95,5.29.43,1.84,1.99,3.06,3.83,3.12l-.47,2.35.64-.02,7.02-4.25h0c-.01-.99.4-1.39.48-1.92.44-3.11.78-3.92.16-7.06-.35-1.73-1.81-2.6-2.56-3.25l-1.91-3.12c1.89,1.13,3.49,1.75,5.76,1.44.27-.26-.62-2.9.71-2.39,1.57.6,3.02,1.93,4.89,2.3.34.07,3.14.54,2.54-.62-.24-.47-2.78-2.86-3.38-3.34l-7.65-4.58c-.17.14-.67-.35-.96.3-.86,1.91-3.12,1.85-4.32,3.77l-6.65,9.18v1.1c1.44-.14.71.74.91,1.69Z"/>
    <path class="cls-5" d="M218.31,48.07s.01,0,.02,0c.6-.01,1.22-.06,1.81-.06.3,0,.59.02.88.05,1.05.13,3.17.69,5.16,1.27.44.13.88.26,1.3.39.27.08.54.17.79.25.23.07.45.14.66.21.43.14.82.27,1.12.38.1.04.21.09.31.13.05.02.09.04.14.06.04.02.07.04.11.06.17.09.35.2.53.32.18.12.36.25.54.38.25.19.5.4.73.61.23.21.43.42.62.63.15.17.28.33.4.49.02.03.05.07.07.1.27.4.41.82.54,1.22.13.41.24.8.45,1.14.83,1.38,1.75,3.08,2.67,4.64.55.94,1.11,1.82,1.64,2.56.12.17.31.35.52.52.18.14.38.26.57.35.16.08.31.15.46.18.16.04.3.04.4-.01.11-.05.18-.15.2-.31.18-1.44-.41-3.36.72-4.57.08-.09.18-.16.29-.21.1-.05.21-.09.32-.13.21-.07.4-.13.5-.24.1-.12.11-.29.1-.44,0,0,0,0,0,0,0-.16-.02-.3.02-.36h0s.05-.01.07-.02c.02,0,.02-.01.05-.01.13,0,.34.05.59.12.25.07.53.16.79.25.22.08.42.16.59.22.12.05.23.1.28.13.8.49,2.02,2.42,2.71,2.6.09.02.18.03.28.02.2-.01.44-.07.7-.13s.53-.13.81-.15c.14-.01.28-.02.42,0s.28.04.43.09.28.12.42.21c-.05-.06.1-.68-.47-1.2-.67-.61-2.47-1.74-3.39-2.38-6.72-4.72-11.73-5.73-19.31-8.03-3.44-1.05-6.61-2.89-10.39-2.27-.12.29.06.71-.02.93h0c.29.02.58.02.88.02Z"/>
    <path class="cls-12" d="M282.2,103.68c.11.33.12.6.13.83,0,.11.02.21.04.31.01.06.03.12.05.17.04.09.09.18.17.26,0,0,.01.01.02.02,0,0,0,0,.01.01.19.19.5.38,1.05.58l-.02,3.56h1.44s0,0,0,0l.02-1.41c.1-.04.23-.05.36-.05.13,0,.27.01.4.03.27.03.52.06.66,0,.04-.02.12-.47.48-.72.62-.43,1.32.07.9-1.37-.08-.28-.81-1.7-.9-1.74-.11-.05-2.27-.49-2.4-.48-.69.07-1.23.67-2.4,0Z"/>
    <path class="cls-11" d="M273.57,89.99c.06.16,2.02,2.57,2.19,2.62.83.25,1.86.04,2.6-.44-.84-1.49-1-1.06-1.37-1.51-.08-.1-.89-1.98-1.03-2.33-.91-.35-2.66.89-2.39,1.65Z"/>
    <path class="cls-5" d="M229.45,72.49c.14.14.74-.08.94.02v-.95s-.96-.01-.96-.01c.08.24-.13.79.01.94Z"/>
    <path class="cls-11" d="M287.47,112.79h.96c-.38-1.27-.52-1.4-.96-2.4h0c-.3-.68-.4-1.7-.96-2.4-.15.06-.4.03-.66,0-.13-.02-.27-.03-.4-.03-.13,0-.25.01-.36.05l-.02,1.41h0s-1.44,0-1.44,0l.02-3.56c-.55-.2-.86-.39-1.05-.58,0,0,0,0-.01-.01,0,0-.01-.01-.02-.02-.08-.09-.13-.17-.17-.26-.02-.06-.04-.11-.05-.17-.02-.1-.03-.2-.04-.31-.02-.24-.03-.51-.13-.83,1.16.67,1.7.07,2.4,0-.11-.48-.47-.86-.96-.96-.53-.1-1.31.03-1.92,0-.15,0-.3,0-.47,0-.66.01-1.46.08-2.18.08,0,0,0,0-.01,0-.31,0-.6,0-.87-.04-.18-.02-.36-.05-.5-.09-.25-.08-.43-.3-.59-.56-.04-.07-.08-.14-.12-.21-.08-.14-.17-.29-.26-.42-.14-.21-.31-.4-.52-.52-.14-.08-.31-.14-.51-.16-.4-.03-.92.09-1.63.48-.05-.12-.8-.29-.96-.48h0c-.38-.47-.71-1.3-.99-1.92-.11-.25-.21-.46-.3-.6-.04-.07-.09-.12-.13-.15-.08-.06-.2-.12-.35-.18-.29-.12-.7-.23-1.14-.33-1.1-.24-2.44-.37-2.85-.19-.04.02-.1.12-.18.25.09-.13.14-.24.18-.25v-.96h0c.56-.21.98-.31,1.38-.37.5-.07.97-.09,1.65-.19.22-.03.29-.4.33-.4,1.04-.14,2.28.1,3.36,0-.57-2.01-2.52-1.1-3.36-1.44-.2-.08-1.89-2.58-2.69-2.82-.16-.05-.31-.08-.47-.09-.27-.02-.52,0-.77.06-.73.15-1.31.52-1.57.45-.37-.09-.57-.4-.67-.79-.03-.13-.06-.27-.07-.42-.02-.14-.02-.29-.03-.44,0-.45.02-.9.02-1.22h0c0-.48,0-.96,0-1.44h0c.39-.2.4-.41.48-.48.95-.75.74-1.1,1-1.39.22-.24,2.21.07,2.83-.05.06-.86.03-1.58-.22-2.42-.25-.88-2.72-4.8-3.39-5.72-1.69-2.33-4.73-.78-3.99,2.55.34,1.54,2.4,2.18,1.84,4.15-.68-.53-1.39-1.12-2.14-1.74-.37-.31-.76-.63-1.14-.96-1.16-.99-2.38-2.06-3.6-3.16-1.63-1.48-3.28-3.03-4.83-4.56-.78-.77-1.53-1.54-2.25-2.29-.36-.38-.71-.75-1.05-1.12-.68-.74-1.32-1.46-1.9-2.15-.29-.35-.57-.69-.83-1.02-.12-.15-.25-.33-.37-.51-1.24-1.81-2.69-5.05-.02-5.07.2,0,.41.01.66.05.19.03.45.17.73.36.08.06.16.11.25.17.34.25.71.56,1.08.89.85.75,1.72,1.58,2.22,1.95.14.11.3.22.46.34.13.09.26.19.4.29.68.49,1.47,1.01,2.2,1.37.29.14.58.26.85.33.14.04.27.07.4.09.75.09,1.72.3,1.75-.55,0-.12-.01-.26-.05-.43-.05-.06.08-.41-.48-.96l-.48-.48c-.16-.16-.32-.32-.48-.48l-.48-.48c-.16-.17-.33-.32-.48-.48l-.24-.24-.24-.24c-.66-.71-1.36-1.31-1.92-1.92-.14-.09-.28-.16-.42-.21s-.28-.08-.43-.09-.28,0-.42,0c-.28.03-.55.09-.81.15s-.49.12-.7.13c-.1,0-.2,0-.28-.02-.69-.19-1.9-2.11-2.71-2.6-.06-.03-.16-.08-.28-.13-.16-.07-.36-.15-.59-.22-.26-.09-.54-.18-.79-.25-.25-.07-.46-.11-.59-.12-.03,0-.03,0-.05.01-.03,0-.06,0-.07.02-.04.06-.02.21-.02.36,0,0,0,0,0,0,0,.16,0,.33-.1.44-.1.12-.29.17-.5.24-.1.04-.21.08-.32.13-.1.05-.2.12-.29.21-1.12,1.21-.54,3.13-.72,4.57-.02.16-.09.26-.2.31-.11.05-.25.05-.4.01-.14-.03-.3-.1-.46-.18-.19-.1-.39-.22-.57-.35-.22-.17-.4-.35-.52-.52-.53-.74-1.08-1.63-1.64-2.56-.92-1.56-1.84-3.25-2.67-4.64-.21-.35-.32-.74-.45-1.14-.13-.41-.27-.82-.54-1.22-.02-.03-.05-.07-.07-.1-.11-.16-.25-.32-.4-.49-.19-.21-.39-.42-.62-.63-.23-.21-.48-.42-.73-.61-.18-.14-.36-.26-.54-.38-.18-.12-.36-.22-.53-.32-.04-.02-.07-.04-.11-.06-.05-.02-.09-.04-.14-.06-.11-.05-.21-.1-.31-.13-.3-.11-.69-.24-1.12-.38-.21-.07-.43-.14-.66-.21-.25-.08-.52-.16-.79-.25-.42-.13-.85-.26-1.3-.39-1.99-.58-4.1-1.14-5.16-1.27-.29-.04-.58-.05-.88-.05-.6,0-1.21.04-1.81.06,0,0-.01,0-.02,0-.3,0-.59,0-.88-.02h0s-.35.07-.41.32c-.23,1.14.07,1.8-.55,3.04l-.47.47h0c-1.56,1.57.91,5.04,1.88,6.29.7.9,1.55,1.55,2.26,2.43.91,1.14,1.49,2.51,2.56,3.54,1.69,1.61,6,5.35,6.73,7.42h.95s0,.96,0,.96c.17.08,1.64,2.77,2.02,3.27.23.21.58.07.85.08.16,1.48,1.38,3.24,2.88,3.36.26,1.37,2.81,7.08,3.58,9.13,1.39,3.69,5.08,10.79,4.58,14.37l.43.29c.13.54.04,1.09.05,1.63.07,2.34.49,4.4.48,6.71,0,.64,0,1.28,0,1.92.14.2.45.76.48.96.65.71,2.82.47,3.33-.03.12-.11.01-.64.02-.93.03-.64-.02-1.28,0-1.92.91-.11,1.37,0,1.94.71.47.57.35,1.03.46,1.21,1.09,1.82,2.45,3.42,1.92,5.75.03,0,.04.59.48.48.34-1.54,1.34-2.6.96-4.32,2.35-.51,3.74,4.19,3.86,5.98.12,1.8-.65,2.91-.98,4.57l2.4-.48c.19,1.01-.1.98-.95,1.2-.66.17-1.23.37-1.93.24-.11,1.12.52,1.36,1.44,1.44.25.02.86.06.96,0,.07-.04.15-.54.45-.73,1.46-.92,2.62,1.23,3.63,1.24,1.04.01,1.61-1.95,3.12-1.47.46-1.2.39-.76.96-1.44.74-.88.88-1.74,2.4-1.44v1.92s.04.36.3.44c1,.31,1.33-.59,2.1-.92.48-1.1,1.56-1.66,2.4-2.4.16-.14.17-.73.77-.9,2.92-.83,2.6,1.24,2.59,3.3,0,.32,0,.64,0,.96.45.09,2.21.45,2.33.55.07.06.99,1.29,1.03,1.37,1.88.18,1.64-1.9,1.97-2.34.11-.15,1.45-.47,1.85-.55l-.47-2.86c.98-.98,4,3.8,4.76,1.17.58-1.99-2.05-5.85-2.36-8.13-.14-.98.18-2.25,0-3.11ZM234.9,76.09c1.19.35.88,1.15,1.23,3.06-.36-1.92-.04-2.71-1.23-3.06ZM254.85,112.99c-.26.6-.94.2-1.44.28l.48-4.31c-1.78-.07-2.22.86-3.83-.25-1.68-1.16-1.47-1.97-1.45-3.83,0-.94-.48-1.94.96-1.67-.26-.7-.46-2-.6-3.35-.07-.67-.14-1.36-.19-1.98s-.11-1.19-.15-1.63c-.02-.17-.04-.34-.06-.52-.12-1.06-.21-2.18.7-2.19.02,0,.06.01.09.01.13,0,.28.02.45.07.83.25,1.97,2.82,2.81,4.98.1.25.2.5.29.74.06.15.11.29.16.43.12.33.24.63.33.89.1.26.18.48.24.63.16.41.31.74.44,1.02.13.28.25.51.35.71.15.3.28.52.37.73.06.14.11.27.14.42s.06.31.07.5c0,.1,0,.2,0,.32,0,0,0,0,0,.01,0,.46-.06,1.09-.16,2.03-.24,2.3.89,3.91,0,5.95Z"/>
    <path class="cls-12" d="M313.38,64.84c-.06-.02-.19-.26-.96-.48l.28.43.68.05Z"/>
    <path class="cls-2" d="M418.91,320.42l.48.48c-.23-.35-.35-.34-.48-.48Z"/>
    <path class="cls-12" d="M315.29,65.32l.48.48s.1-.3-.48-.48Z"/>
    <path class="cls-12" d="M314.33,64.84l.48.48s.13-.28-.48-.48Z"/>
    <path class="cls-5" d="M216.48,51.42s-.24,0-.48.48h0s0,0,0,0l.47-.47Z"/>
    <path class="cls-10" d="M417.52,344.83c0,1.08,3.03-2.55,3.31-2.89.86-1.05,1.11-4.69.91-5.98-.05-.33-.11-.65-.22-.97-.07-.23-.23-.43-.43-.56-1.83-4-4.45-8.21-6.5-12.08-1.04-.58-1.44-1.6-2.82-1.49l-.54-2.34c-.13.18-3.63.9-4.32.96l-.67-.05-.29-.43c-.49.18-1.45-.68-1.92-.48-.11.05-.49,1.28-1.67,1.45-1.97.28-4.04-.29-6.01-.49l-.05,2.11-.43.28s-.07.73.46,1.2c.48.43,1.43.52,1.94.95,1.36,1.16,1.56,4.26,1.94,5.97,2.21-.3,5.81,2.19,7.67,1.23.73-.37,2.18-3.2,3.11-1.7.59.94-.03,2.47.3,3.54.15.5.92.76.91,1.49,0,.22-.48,2.47-.58,2.8-1.46,4.76-8.13,6.71-12.62,6.08-1.6-.23-3.24-1.67-1.38-2.82,1.12-.69,1.99-.1,1.62-1.97-2.97,1-6.5.34-9.28-1.03-.58-.29-2.04-.96-1.75-1.85-1.46-.47-4.71-2.43-5.67-3.46-.24-.26-.02-.77-.08-.85-.04-.05-.7,0-1.22-.45-1.26-1.09-1.68-2.66-2.23-4.02-.58-1.42-1.47-1.38-.49-3.54.68-1.5,2.09-1.13,2.02-2.54-2.81.23-5.35,1.65-7.65,3.14-.57.37-.94,1.1-1.46,1.41-.8.48-2.3.5-2.9.94-.59.43-.32,1.54-.91,1.97-.49.35-1.58.39-2.41.95-.6.4-2.06,2-2.41,2.63-1.42,2.53-2.28,7.44-1.91,10.3.23,1.76,1.72,3.61,1.43,5.51-1.76-.16-1.73.55-2.16,1.93-.28.88.11,1.7-1.19,1.44.41.96,1.15,1.75.96,2.88,1.44-.28,4.84.58,6.37,1.06,4.21,1.31,7.29,2.76,12.08,2.29,1.05-.1,5.24-1.52,5.53-1.43,1.11.36,1.42.29,2.4.48.48.1,6.99,2.49,7.54,2.77,1.58.82,1.63,2.53,3.49,2.98.21-.49,1.84-.88,1.92-.96.44-.45,1.2-1.38,1.94-2.14,1.86-1.91,4.72-8.82,6.22-9.62.49-.26,1.19-.15,1.38-.29,1.09-.82,2.45-10.59,6.82-9.67.19.19-1.31,3.08-1.48,3.49.38-.06.73-.23,1.03-.5.93-.63,1.05-1.31,1.62-2.14.25-.37.48-.87.76-1.27.38-.55,1.48-2.12,2.15-.98.34.57-2.17,3.85-2.24,4.81,0,.02.09,1.92.09,1.94ZM393.78,356.33c-1.16-.33-2.23-3.59-2.98-3.75l-2.59.46c-.01-.64.15-1.39-.22-1.95-.35-.54-1.07-.35-1.22-.45.37,2.48-.41,2.07-2.55,1.83-4.05-2.32-11.25-3.32-14.9-5.73-2.26-1.49-1.43-3.13,1.13-2.81-.53-.88-.28-2.86-.48-3.36-.02-.04-.45-.11-.7-.48-.7-1.03-2.25-2.74-2.66-3.6-.4-.84.38-.63.71-.72.92-.26,2.28-1.01,2.9-.01.36.58.13,1.65.99,1.88.52.14,1.16,0,1.76.15,4.25,1.06,9.22,3.02,12.99,5.23,1.66.98,3.03,1.58,4.63,2.56,1.35.83,2.59,1.21,3.57,2.66,1.29,1.89.49,2.8.25,4.78,2.65-.47,3.5.98,3.84,3.36l-4.5-.06Z"/>
    <path class="cls-9" d="M276.43,241.07c-.3-.28-.97-.34-1.22-.7-.46-.69-.42-2.55-.7-3.38-.38-1.13-1.79-3.22-3.06-2.83-.41.12-.67.75-1.08.87-1.32.41-2.62-1.73-3.06-2.83-1.28.05-2.05-.45-3.1-.5-3.2-.14-7.15-.16-10.33.02-.04.3.04.64,0,.95-1-.09-1.94.22-2.88.49-1.33.38-2.31,1.09-3.36,1.44-.51,1.81-2.1,1.13-2.88,1.44-.05.02-.46.78-.48.96-.08.98,1,2.32,0,3.84,1.26.09,2.57-.06,3.84,0,.11,2.39-.8,4.48-.47,6.95.28,2.15,2.05,3.84,2.39,5.52.06.28-.04.65,0,.96,1.17,0,2.92.13,4,.56.21.09,2.56,2.11,2.72,2.32h.48c.26-2.43,2.11-1.76,3.84-1.92.35-.03.68-.57,1.58-.42,1.39.24,2.71,1.54,4.18,1.37,3.83-.27,8.13.54,10.77-2.9.25-.32,1.09-1.51,1.15-1.73.73-2.55-.91-6.68-1.37-9.28-.44-.19-.57-.82-.97-1.19ZM259.89,251.37c-.5,0-2.24-1.63-2.55-2.25-.58-1.15-.85-4.2-.57-5.42-1.47.07-1.76-1.33-1.39-2.59.35-1.19,2.72-1.13,2.83-1.24.06-.06-.26-.65.29-.98.55-.34,3.73-1.26,4.03-.94-.42,1.11.67,2.76.45,3.54-.34,1.19-2.66,1.27-.67,4.13.77,1.12,1.19,1.71,1.91,2.88.76,1.24,2.66,1.37,2.63,2.88h-6.96Z"/>
    <path class="cls-6" d="M378.51,323.44c-.98,2.16-.09,2.13.49,3.54.55,1.36.97,2.93,2.23,4.02.51.45,1.18.4,1.22.45-.24-2.02,1.71-3.02,3.37-2.17.32.16,3.45,3.34,3.83,3.84,2.05,2.67,2.27,3.84-1.45,2.65-.29.89,1.17,1.56,1.75,1.85,2.78,1.37,6.32,2.03,9.28,1.03.37,1.87-.51,1.28-1.62,1.97-1.85,1.15-.22,2.6,1.38,2.82,4.5.63,11.16-1.32,12.62-6.08.1-.33.58-2.58.58-2.8,0-.74-.76-1-.91-1.49-.32-1.07.29-2.6-.3-3.54-.94-1.5-2.38,1.32-3.11,1.7-1.85.95-5.45-1.53-7.67-1.23-.37-1.71-.58-4.81-1.94-5.97-.51-.44-1.45-.52-1.94-.95-.54-.47-.42-1.16-.46-1.2-.09-.09-1.05.05-1.44,0-1.59-.19-3.07-.84-4.54-.98-2.49-.23-6.86-.19-9.37.02.07,1.4-1.34,1.04-2.02,2.54Z"/>
    <path class="cls-12" d="M323.46,108.25c1.47-.91-1.95-2.79-1.45-4.08,1.29-.37,2.45,1.26,3.58.95,1.44-.39.37-2.93.02-3.84-1.2-3.13-6.11-10.66-8.39-13.19-1.38-1.53-2.61-2.48-4.81-2.15-.2,1.02.9,1.2.99,2.16.12,1.28-.83,1.48-.94,1.98-.08.38.48,1.22.43,2.1.63.29,2.68,3.87,3.36,4.8.49.67,2.21,2.27,2.34,2.7.52,1.77-.31,4.98.06,6.89.01.06.34.13.4.33l.08.63c.96.07,2.52,1.85,4.33.73Z"/>
    <path class="cls-12" d="M252.02,106.99c.22.24,2.21-.06,2.83.04.1-.94.15-1.57.16-2.03,0,0,0,0,0-.01,0-.12,0-.22,0-.32,0-.19-.03-.36-.07-.5s-.08-.28-.14-.42c-.09-.21-.21-.43-.37-.73-.1-.2-.22-.43-.35-.71-.13-.28-.28-.62-.44-1.02-.06-.16-.14-.37-.24-.63-.1-.26-.21-.56-.33-.89-.05-.14-.11-.28-.16-.43-.09-.24-.19-.49-.29-.74-.84-2.16-1.98-4.73-2.81-4.98-.18-.05-.32-.07-.45-.07-.03,0-.06-.01-.09-.01-.91.02-.82,1.13-.7,2.19.02.18.04.35.06.52.05.44.09,1.01.15,1.63s.12,1.31.19,1.98c.15,1.35.34,2.65.6,3.35.35.94,1.5,2.09,2.15,2.9.23.28.18.77.29.89Z"/>
    <path class="cls-3" d="M415.6,339.46c-4.36-.91-5.73,8.85-6.82,9.67-.19.14-.88.03-1.38.29-1.51.79-4.36,7.7-6.22,9.62-.74.76-1.49,1.68-1.94,2.14l.43.3.05,1.14c.84-.26,1.73-.54,2.63-.5.31,1.43,1.27,1.06,2.65.98,0-.16-.02-.33,0-.48.11-.84.8-3.16,1.2-3.83.49-.83,1.44-1.35,2.02-2.12.52-.69.64-1.26,1.37-1.77,1.84-1.28,4.13-.21,6.11-.99,1.34-.53,3.76-3.87,3.23-5.41-.02-.05-.04-.09-.06-.14-1.36-2.72-6.3,2.78-6.72,3.09-.27.2-1.41.29-1.6.14.08-1.49,1.75-4.91,2.27-6.39.17-.47,1.07-1.73,1.28-2.23,0,0,0,0,0,0,.17-.41,1.67-3.3,1.48-3.49Z"/>
    <path class="cls-7" d="M378.69,345.76c-.25-.25-.4-1.44-1.01-2.1-.83-.91-4.11-3.1-5.29-3.36-1.12-.25-1.4.02-2.41.26.2.49-.05,2.47.48,3.36-2.57-.32-3.39,1.32-1.13,2.81,3.65,2.41,10.84,3.41,14.9,5.73,2.13.24,2.91.65,2.55-1.83-.63-.42-1.26-1.26-2.23-1.84-1.18-.71-5.2-2.38-5.85-3.03Z"/>
    <path class="cls-7" d="M389.66,333.12c-.38-.5-3.51-3.67-3.83-3.84-1.66-.85-3.61.15-3.37,2.17.07.09-.16.59.08.85.96,1.03,4.21,2.99,5.67,3.46,3.72,1.2,3.5.02,1.45-2.65Z"/>
    <path class="cls-1" d="M264.21,248.49c-.72-1.17-1.14-1.77-1.91-2.88-1.98-2.86.34-2.93.67-4.13.22-.77-.87-2.43-.45-3.54-.29-.32-3.48.6-4.03.94-.55.33-.22.92-.29.98,1.71,1.88-1.32,3.31-1.44,3.84-.28,1.22-.01,4.27.57,5.42.31.62,2.05,2.25,2.55,2.25h6.96c.03-1.51-1.87-1.65-2.63-2.88Z"/>
    <path class="cls-13" d="M258.21,239.86c-.11.11-2.49.05-2.83,1.24-.37,1.27-.07,2.66,1.39,2.59.12-.52,3.15-1.96,1.44-3.84Z"/>
  </g>
  <g>
    <path class="cls-8" d="M4.39,13.73v-3.46H1.23v-1.34h3.16v-3.47h1.39v3.47h3.17v1.34h-3.17v3.46h-1.39Z"/>
    <path class="cls-8" d="M14.02,15.76c-.77,0-1.44-.23-1.99-.7-.56-.46-.99-1.14-1.29-2.03-.3-.89-.45-1.98-.45-3.27s.15-2.37.45-3.25c.3-.88.73-1.54,1.29-1.98.56-.45,1.22-.67,1.99-.67s1.42.22,1.97.67c.55.45.98,1.11,1.28,1.98.3.88.45,1.96.45,3.25s-.15,2.38-.45,3.27c-.3.89-.73,1.57-1.28,2.03-.55.46-1.21.7-1.97.7ZM14.02,14.29c.39,0,.73-.15,1.03-.45.3-.3.54-.78.7-1.44.17-.66.25-1.54.25-2.64s-.08-1.97-.25-2.62c-.17-.65-.4-1.11-.7-1.4-.3-.29-.65-.43-1.03-.43s-.73.14-1.03.43c-.3.29-.54.75-.71,1.4s-.26,1.52-.26,2.62.09,1.98.26,2.64.41,1.14.71,1.44c.3.3.65.45,1.03.45Z"/>
    <path class="cls-8" d="M19.14,15.54v-1.07c1.07-1.08,1.99-2.03,2.76-2.87s1.35-1.59,1.76-2.27c.41-.68.61-1.31.61-1.91,0-.43-.07-.79-.21-1.1s-.35-.55-.64-.72c-.29-.17-.65-.26-1.09-.26s-.86.13-1.23.39c-.38.26-.72.57-1.03.92l-1.02-1.02c.49-.55,1.01-.99,1.56-1.3.55-.31,1.2-.46,1.96-.46.7,0,1.31.14,1.83.43.52.29.92.69,1.21,1.21.29.52.43,1.12.43,1.82s-.19,1.4-.57,2.11c-.38.71-.89,1.46-1.54,2.22-.65.77-1.37,1.58-2.17,2.43.3-.03.62-.06.96-.09.34-.03.65-.04.93-.04h2.94v1.58h-7.44Z"/>
  </g>
</svg>