<?xml version="1.0" encoding="UTF-8"?>
<svg id="a1" xmlns="http://www.w3.org/2000/svg" viewBox="0 0 600 500">
  <defs>
    <style>
      .cls-1 {
        fill: #4c473f;
      }

      .cls-2 {
        fill: #656156;
      }

      .cls-3 {
        fill: #7e7669;
      }

      .cls-4 {
        fill: #e1dad3;
      }

      .cls-5 {
        fill: #c9caca;
      }

      .cls-6 {
        fill: #928a7d;
      }

      .cls-7 {
        fill: #45413a;
      }

      .cls-8 {
        fill: #5f5950;
      }

      .cls-9 {
        fill: #6a6358;
      }

      .cls-10 {
        fill: #867b6f;
      }
    </style>
  </defs>
  <g>
    <path class="cls-6" d="M354.08,74.02c-.39.68-.75,1.4-1.1,2.11.35-.71.71-1.43,1.1-2.11Z"/>
    <path class="cls-6" d="M352.26,77.54c-.24.46-.48.92-.74,1.35.26-.43.5-.88.74-1.35Z"/>
    <path class="cls-6" d="M354.9,72.7c-.29.42-.57.86-.83,1.31.26-.46.53-.9.83-1.31Z"/>
    <path class="cls-6" d="M341.63,85.2c.47-.2,1-.27,1.53-.32-.53.06-1.06.13-1.53.32h0Z"/>
    <path class="cls-6" d="M347.4,70.13c0-.21-.02-.4-.02-.52,0,.13,0,.31.02.52Z"/>
    <path class="cls-6" d="M359.32,68.7c-.42.43-.9.83-1.44,1.24.55-.41,1.02-.82,1.44-1.24Z"/>
    <path class="cls-6" d="M346.14,83.76c-.56.38-1.03.68-1.3.81.27-.13.74-.43,1.3-.81Z"/>
    <path class="cls-6" d="M354.59,109.6s.03-.05.05-.07c-.02.02-.04.05-.05.07Z"/>
    <path class="cls-6" d="M354.48,109.92s-.01-.06,0-.09c0,.03,0,.06,0,.09Z"/>
    <path class="cls-6" d="M360.99,66.53c-.34.56-.69,1.06-1.07,1.51.38-.46.73-.95,1.07-1.51Z"/>
    <path class="cls-6" d="M354.5,109.76s.02-.05.03-.08c-.02.03-.02.05-.03.08Z"/>
    <path class="cls-6" d="M355.27,110.2c.12.03.23.1.28.24-.06-.14-.16-.2-.28-.24Z"/>
    <path class="cls-6" d="M355.06,109.17s-.13.11-.27.22c.14-.12.26-.2.27-.22Z"/>
    <path class="cls-6" d="M354.68,109.5s.07-.07.1-.1c-.04.03-.07.06-.1.1Z"/>
    <path class="cls-6" d="M347.86,90.47c.05.28.07.54.09.77-.01-.23-.04-.49-.09-.77h-8.4c-.08,0-1.08.44-1.62.72.54-.28,1.54-.72,1.62-.72h8.4Z"/>
    <path class="cls-6" d="M336.87,98.79c-.03-.18.01-.39.18-.65.12-.19.45-.55.88-1-.43.44-.76.81-.88,1-.17.26-.21.47-.18.65Z"/>
    <path class="cls-6" d="M328.78,105.11c-.1-.18-.14-.34-.1-.47h0c-.04.12,0,.29.1.47Z"/>
    <path class="cls-6" d="M329.87,106.3h6.96c.03.18.04.34.02.48.02-.14.01-.3-.02-.48h-6.96c-.08,0-.8-.65-1.09-1.19.29.53,1.01,1.19,1.09,1.19Z"/>
    <path class="cls-6" d="M249.83,112.05s.04.03.06.05c-.01-.02-.03-.03-.06-.05Z"/>
    <path class="cls-6" d="M346.57,72.16c-.61.3-1.41.68-1.83,1.04-.47.39-.95.82-1.41,1.29.46-.47.94-.9,1.41-1.29.43-.35,1.22-.73,1.83-1.04Z"/>
    <path class="cls-6" d="M340.89,83.16c.36.49.74.97.78,1.57-.04-.6-.42-1.08-.78-1.57Z"/>
    <path class="cls-6" d="M336.03,107.66c.48-.23.76-.47.82-.88-.06.41-.34.66-.82.88Z"/>
    <path class="cls-6" d="M347.42,71.13c0,.31-.03.55-.08.6-.11.1-.41.25-.77.44.37-.18.66-.33.77-.44.06-.05.08-.29.08-.6Z"/>
    <path class="cls-6" d="M354.9,72.7c.59-.83,1.26-1.57,2.08-2.13.32-.22.61-.43.89-.63-.27.21-.57.42-.89.63-.82.56-1.49,1.29-2.08,2.13Z"/>
    <path class="cls-6" d="M327.64,104.7c.03-.5.16-1,.38-1.49-.23.49-.35.99-.38,1.49Z"/>
    <path class="cls-6" d="M332.55,108.25c-.92,0-1.85-.06-2.74-.05.89-.01,1.82.05,2.74.05Z"/>
    <path class="cls-6" d="M351.62,128.09c-.02-.18.01-.34.07-.49-.06.15-.1.31-.07.49Z"/>
    <path class="cls-6" d="M355.22,111.65c-.18.37-.29.75-.37,1.12.08-.38.19-.75.37-1.12Z"/>
    <polygon class="cls-6" points="320.99 105.57 321.69 108.66 320.99 105.57 320.99 105.57"/>
    <path class="cls-6" d="M343.93,127.39c-.54.07-1.11.11-1.65.11.55,0,1.11-.05,1.65-.11Z"/>
    <path class="cls-6" d="M354.09,117.79c-.01-.23,0-.46.01-.69.01-.13.04-.25.09-.37-.04.12-.07.24-.09.37-.02.23-.03.46-.01.69Z"/>
    <path class="cls-6" d="M354.39,123.05c.06-.08.11-.16.14-.26.14-.47.17-.95.14-1.43.03.48,0,.96-.14,1.43-.03.09-.08.18-.14.26Z"/>
    <path class="cls-6" d="M328.99,121.39c.17.18.37.35.63.51.13.08.25.13.36.16-.12-.03-.24-.08-.36-.16-.26-.16-.46-.33-.63-.51Z"/>
    <path class="cls-6" d="M354.6,110.11c-.06-.04-.1-.09-.12-.14.02.05.06.09.12.14Z"/>
    <path class="cls-6" d="M355.27,110.2c-.12-.03-.26-.04-.38-.04.12,0,.26,0,.38.04Z"/>
    <path class="cls-6" d="M322.4,111.75c-.02.09-.1.21-.22.35.12-.14.2-.26.22-.35h0Z"/>
    <path class="cls-6" d="M323.39,99.1c.11,1.19-.33,2.25-.89,3.29.55-1.04,1-2.1.89-3.29h0Z"/>
    <path class="cls-6" d="M321.97,112.34c-.16.17-.35.35-.56.55.21-.2.4-.38.56-.55Z"/>
    <path class="cls-10" d="M246.15,121.64c-.1.81.26,2.73.71,3.37.35.5,1.44.53,1.65,1.22.5,1.67-.7,2.49-.92,3.8-.35,2.11.33,1.37,1.22,2.13.85.73.53,1.55.78,1.87.14.18.88.15,1.15.52.88,1.19-1.14,3.43,2.86,3.87,3.52.38,1.28-3.94,3.89-4.74,2.02-.62,1.97.88,2.12,2.58.08.9-.17.78.95.72.15-.81.69-2.31,1.2-2.88.57-.65,1.83-.94,2.4-1.92.85-1.47,1.22-3.62,2.88-4.79l2.41,1.9c.4,2.93,2.73,2.38,3.1-.23.29-2-.24-5.53-.49-7.66-.1-.81-.75-1.65-.47-2.64.92-.26,1.11.7,1.75.89.56.16,1.23-.02,1.76.16,1.24.41,2.26,1.58,3.67,1.35,1.07-2.53,1.67-3.84,1.45-6.71-.06-.73-.45-1.32-.5-2.14-.1-1.75-.08-3.86.25-5.53h.25c-.18-.48.07-.4-.48-.96h-.7s-.26-.48-.26-.48c-.07-.06,0-1.53,0-1.92-1.47.28-1.47-1.24,0-.96.2-2.11.54-4.22.99-6.29.19-.87.51-1.72.67-2.58.06-.31.07-.65.23-.93.2-.35.26-.77.49-1.1s.26-.78.36-1.18c.24-.94.56-1.86.87-2.77.1-.3.05-.61.12-.92.06-.24.25-.44.33-.69.04-.13.08-.26.14-.39.13-.3.29-.57.44-.86.42-.8.58-1.7.91-2.54.07-.19.15-.38.22-.57.48-1.23.99-2.45,1.48-3.68.22-.55.45-1.1.63-1.66.08-.25.26-.38.36-.62.07-.17.11-.36.2-.53.08-.15.21-.21.3-.34.1-.15.11-.36.23-.52.29-.39.25-1.11.16-1.57,0-.04-.35-.09-.42-.31-.32-1.04-.1-1.3.9-1.13.03-.75.08-1.67,0-2.4,0-.03-.35-.1-.38-.33-.06-.36.34-.76.17-1.11-.46-.92-1.71-.72-2.18-1.43-.2.05-.74.04-.96,0-.76,1.29-.94,4.89-1.89,5.54-.62.42-1.92.11-2.93.43-.61.19-2.36,1.66-2.63,2.17-.69,1.31.36,2.07.25,2.63-.14.69-2.14.87-3.04,1.3-1.64.78-3.24,2.42-4.65,3.5-.42.32-2.57,2.01-2.86,1.7-.08-2.3,1.57-3.84,2.88-5.52.71-.92.88-1.35-.48-1.2-.06.07-1.17-.13-1.44.96-.07.26.07.64,0,.95h-2.87c-1.99,1.28-2.07,3.07-2.4,3.37v.96s-.96,0-.96,0c-.03.31.05.67,0,.96l.43.28.05,2.12c-.28.05-.89-.08-.96,0-.12.13-1.86,2.71-1.92,2.88-.08.21.15.76-.03.91-.22.17-1.73.12-2.2.94l-.65.07c-.11.4-.01,1.7-.48,1.92.12,1,.04,1.08-.96.96-.79,1.67-1.66,1.91-2.4,4.32,1.74.33,1.16-.3,1.69-.93.54-.64,2.04-2.31,2.64-2.66.69-.41,2.22-.5,2.66-1.18.4-.62.09-1.44.3-2.1.15-.47.49-.83.66-1.27.32-.81.25-2.11,1.82-1.87.41.06.83.55,1.25.69,1.08.34,1.41.09,2.43.93,2.47,2.04-.4,1.94-1.79,2.54-2.26.97-5.62,4.42-5.44,7.04.06.79.76,1.35.91,2.01.22,1,.04,2.2.09,3.27.02.46.47.92.4,1.38-.15,1.03-2.16,2.75-2.71,4.01-1.09,2.49-.15,4.72-.66,7.01-.04.17-1.3,2.57-1.4,2.68-.09.1-1.28.1-1.62,0-1.28-.35-.52-3.12-.76-3.31-.07-.06-.95.02-1.69-.48-.84-.56-1.41-1.72-1.65-2.68-.02-.07-.03-.14-.04-.21-.02-.13-.03-.25-.03-.35,0-.15.01-.28.01-.37,0-.08-.01-.14-.05-.19-.01-.02-.03-.03-.06-.05-.08-.04-.21-.06-.43-.06-.2,0-.48.02-.85.06.13-.01-.23,1.12-.27,1.21-.12.35-.23.7-.34,1.05-.06.21-.1.43-.18.64-.08.2-.24.36-.3.57-.05.15-.05.23-.23.29-.05.02-.61.08-.61.08.06.29-.05.66,0,.96.4,2.15-.24,2.76-.48,4.8ZM276.84,115.42l.49,2.39-3.36.48c-.31-2.06.86-3.2,2.87-2.87ZM266.81,96.99c.31-1.08,3.37-2.88,2.37-5.08.41-.43,2.23,1.27,2.37,1.72.54,1.83-4.07,3.06-1.66,5.01.52.42,1.16.42,1.21.46.76.61-2.77,2.99-3.36,2.4-.07-.82.17-1.79-.07-2.57-.19-.61-1.18-.84-.86-1.94Z"/>
    <path class="cls-6" d="M347.38,69.61c0,.13,0,.31.02.52,0,.21.02.45.02.67,0,.11,0,.22,0,.32,0,.31-.03.55-.08.6-.11.1-.41.25-.77.44-.61.3-1.41.68-1.83,1.04-.47.39-.95.82-1.41,1.29-1.23,1.24-2.35,2.73-2.88,4.35-.13.41-.23.82-.28,1.24-.08.63-.05,1.27.09,1.93.1.42.36.79.63,1.16.36.49.74.97.78,1.57,0,.15,0,.31-.04.47.47-.2,1-.27,1.53-.32.53-.06,1.05-.1,1.52-.23.04-.01.09-.04.16-.07.27-.13.74-.43,1.3-.81.98-.66,2.22-1.56,3.1-2.24.38-.29.69-.55.88-.72.06-.06.12-.11.15-.15.46-.52.87-1.12,1.26-1.76.26-.43.5-.88.74-1.35s.47-.94.71-1.41c.35-.71.71-1.43,1.1-2.11.26-.46.53-.9.83-1.31.59-.83,1.26-1.57,2.08-2.13.32-.22.61-.43.89-.63.55-.41,1.02-.82,1.44-1.24.21-.21.41-.43.6-.66.38-.46.73-.95,1.07-1.51.34-.56.68-1.2,1.04-1.94l3.59-3.85c-.33-.68-.59-1.79-1.23-2.42-3.51-.48-9.81,2.51-12.66,4.6-1.92,1.41-3.64,3.35-5.3,5.01.54-.1.81-.02.93.17.21.31.02.92.02,1.51Z"/>
    <path class="cls-6" d="M249.89,112.1s.05.11.05.19c0,.1-.01.22-.01.37,0,.1,0,.22.03.35.01.07.02.14.04.21.24.97.81,2.12,1.65,2.68.73.49,1.61.42,1.69.48.24.19-.52,2.97.76,3.31.33.09,1.53.1,1.62,0,.1-.11,1.36-2.51,1.4-2.68.51-2.29-.44-4.53.66-7.01.55-1.25,2.56-2.98,2.71-4.01.07-.46-.38-.92-.4-1.38-.05-1.07.14-2.27-.09-3.27-.15-.66-.85-1.22-.91-2.01-.18-2.62,3.18-6.07,5.44-7.04,1.39-.6,4.26-.5,1.79-2.54-1.02-.84-1.35-.58-2.43-.93-.43-.14-.85-.63-1.25-.69-1.57-.24-1.5,1.06-1.82,1.87-.17.43-.52.8-.66,1.27-.2.66.11,1.48-.3,2.1-.44.68-1.97.77-2.66,1.18-.6.35-2.1,2.02-2.64,2.66-.53.63.06,1.26-1.69.93-1.15,3.73-3.08,8.2-3.84,11.99-.14.68-.41,1.27-.48,1.92.37-.03.65-.05.85-.06.23,0,.36.01.43.06.02.01.04.03.06.05Z"/>
    <path class="cls-6" d="M270.13,77.76c-1.3,1.67-2.95,3.21-2.88,5.52.29.32,2.44-1.38,2.86-1.7,1.41-1.09,3.01-2.72,4.65-3.5.9-.43,2.9-.61,3.04-1.3.11-.55-.94-1.32-.25-2.63.27-.51,2.02-1.97,2.63-2.17,1.01-.32,2.31-.01,2.93-.43.96-.65,1.13-4.25,1.89-5.54-.32-.06-.69-.44-1.2-.48-3.67-.31-9.1,4.16-11.28,6.95-1.02,1.3-2.02,3.02-2.87,4.09,1.36-.15,1.19.28.48,1.2Z"/>
    <path class="cls-6" d="M259.55,89.94c.18-.14-.04-.7.03-.91-1.65.03-2.45.32-2.88,1.92l.65-.07c.47-.82,1.98-.76,2.2-.94Z"/>
    <path class="cls-6" d="M262.46,86.16l-.05-2.12-.43-.28s-.38.09-.49.7c-.1.52.05,1.14,0,1.69.07-.08.68.05.96,0Z"/>
    <path class="cls-6" d="M268.22,77.52c-1.17-.11-2.02.41-2.88.96h2.87c.08-.31-.06-.7,0-.96Z"/>
    <path class="cls-6" d="M287.47,72.42c.07.22.41.27.42.31l.43-.3c.12-.38.04-.76.05-1.14-1-.17-1.22.1-.9,1.13Z"/>
    <path class="cls-10" d="M323.39,99.1h0c.11,1.19-.33,2.25-.89,3.29-.28.52-.58,1.03-.85,1.56-.27.52-.51,1.06-.67,1.62l.7,3.09.7,3.09h0c-.02.09-.1.21-.22.35-.06.07-.13.15-.21.23-.16.17-.35.35-.56.55-1.16,1.08-2.85,2.52-2.33,3,.15-.02.3-.02.45,0,.6.08,1.2.45,1.73.8.13.09.26.17.38.24.24.15.45.28.64.33.79.23,1.66.11,2.54.07.88-.04,1.77,0,2.61.54.67.43.71,1.12.83,1.86.02.09.03.19.05.28.04.19.09.38.17.56.11.28.27.56.52.83.17.18.37.35.63.51.13.08.25.13.36.16.59.15,1.08-.22,1.59-.37.2-.06.41-.08.62-.01.53.16.93.54,1.22.92s.5.73.63.84c.33.28.77.64,1.26,1.02,1.24.97,2.86,2.12,4.05,2.63.24.1.46.18.66.22.65.14,1.43.2,2.25.19.55,0,1.11-.05,1.65-.11s1.07-.16,1.55-.27c.24-.06.47-.12.68-.19l1.5,2.38,3.57-.47.48-.48c-.05-.09-.07-.18-.08-.27-.02-.18.01-.34.07-.49.15-.37.48-.63.49-.68.04-.18.04-.37.04-.56-.01-.29-.05-.58-.04-.89,0-.1.01-.21.03-.31.03-.21.09-.43.21-.65.15-.29.45-.49.79-.68.45-.25.95-.46,1.2-.77.06-.08.11-.16.14-.26.14-.47.17-.95.14-1.43-.06-.96-.36-1.92-.5-2.87-.04-.24-.07-.47-.08-.7s0-.46.01-.69c.01-.13.04-.25.09-.37.08-.24.2-.48.29-.72.04-.12.08-.24.09-.37.03-.19.04-.39.06-.58.06-.77.07-1.53.22-2.28.08-.38.19-.75.37-1.12.09-.19.19-.37.32-.56.08-.31.07-.52.01-.65s-.16-.2-.28-.24c-.12-.03-.26-.04-.38-.04-.12,0-.23,0-.29-.05-.06-.04-.1-.09-.12-.14,0-.02,0-.04,0-.06,0-.03-.01-.06,0-.09,0-.02.02-.05.03-.07.01-.03.02-.05.03-.08.02-.03.04-.05.06-.08.02-.02.03-.05.05-.07.01-.01.02-.02.03-.03.03-.03.07-.07.1-.1,0,0,0,0,0,0,.14-.12.26-.2.27-.22.17-.78.02-1.65.04-2.44,0-.29-.06-.59-.1-.87-.06-.4-.01-.81-.08-1.21-.09-.52-.02-1.11.02-1.64.04-.54.06-1.07.15-1.6.08-.49.19-.99.22-1.48.07-1.16.3-2.34.54-3.48.08-.36.14-.73.25-1.08.12-.38.3-.75.4-1.14.25-.94.33-1.92.56-2.86.1-.39.29-.71.46-1.06.14-.28.21-.55.4-.8.43-.6,1.03-1.1,1.4-1.74,1.61-2.82,2.16-4.87,2.94-7.85.35-1.31.5-2.76,1.08-3.98.26-.55.19-1.23.32-1.82.24-1.1.61-2.22,1.01-3.25.39-1.01.9-2,1.26-3.04.09-.26.02-.49-.02-.76-.02-.13-.04-.26-.05-.4-.01-.2,0-.4,0-.6.02-.45.15-.83.37-1.22.47-.82.47-1.88.2-2.77-.16-.51-.58-.87-.81-1.34l-3.59,3.85c-.36.74-.7,1.37-1.04,1.94-.34.56-.69,1.06-1.07,1.51-.19.23-.39.45-.6.66-.42.43-.9.83-1.44,1.24-.27.21-.57.42-.89.63-.82.56-1.49,1.29-2.08,2.13-.29.42-.57.86-.83,1.31-.39.68-.75,1.4-1.1,2.11-.24.48-.47.95-.71,1.41s-.48.92-.74,1.35c-.38.65-.79,1.25-1.26,1.76-.04.04-.09.09-.15.15-.19.18-.5.43-.88.72-.88.68-2.12,1.58-3.1,2.24-.56.38-1.03.68-1.3.81-.07.03-.12.06-.16.07-.46.14-.99.18-1.52.23-.53.06-1.06.13-1.53.32h0c.04-.17.05-.32.04-.47-.04-.6-.42-1.08-.78-1.57-.27-.36-.53-.73-.63-1.16-.15-.65-.17-1.3-.09-1.93.05-.42.15-.83.28-1.24.53-1.62,1.65-3.11,2.88-4.35.46-.47.94-.9,1.41-1.29.43-.35,1.22-.73,1.83-1.04.37-.18.66-.33.77-.44.06-.05.08-.29.08-.6,0-.1,0-.21,0-.32,0-.22-.01-.46-.02-.67,0-.21-.02-.4-.02-.52,0-.59.18-1.2-.02-1.51-.12-.19-.39-.27-.93-.17-2.68,2.7-5.07,4.28-7.93,6.7-4.05,3.43-6.85,7.31-10.05,11.54-.37.49-1.19,2.23-1.29,2.31-.29.23-1.22-.07-1.64.52-.39.56-.1,1.44-.29,2.1-.25.86-1.11,1.77-1.28,2.56-.23,1.07.13,2.28-.14,3.22-.2.68-1.47,1.26-1.86,2.22.24-.01.48,0,.72,0s.48,0,.72,0ZM328.02,103.21c.11-.25.25-.49.42-.73.6-.86.86-1.16,1.08-1.52.05-.09.11-.18.16-.29s.11-.23.17-.37.13-.31.21-.51c.08-.2.17-.43.27-.7.18-.47.49-.9.9-1.32.55-.55,1.25-1.06,1.98-1.54.37-.24.74-.47,1.1-.7,1.27-.79,2.43-1.49,2.76-2.17.08-.16.13-.34.16-.51s.05-.35.06-.53c.03-.35.06-.67.22-.92.02-.04.15-.11.33-.21.54-.28,1.54-.72,1.62-.72h8.4c.05.28.07.54.09.77.07,1.39-.45,1.91-1.25,2.08-.4.09-.88.09-1.39.07-.34-.01-.7-.03-1.06-.05-.18,0-.36,0-.55,0-.55,0-1.1.06-1.61.23-.19.06-.57.33-1.04.71-.94.76-2.24,1.97-3.1,2.86-.43.44-.76.81-.88,1-.17.26-.21.47-.18.65.05.26.28.45.52.64.25.19.51.37.64.62.04.08.08.18.12.29.11.32.18.72.17,1.12,0,.26-.04.52-.13.74-.08.22-.21.41-.4.53l-7.88.76-1.25,1.16c-.04.12,0,.29.1.47.29.53,1.01,1.19,1.09,1.19h6.96c.03.18.04.34.02.48-.06.41-.34.66-.82.88-1.05.5-2.25.6-3.48.59-.92,0-1.85-.06-2.74-.05-.3,0-.59.02-.87.04-.54-.64-.93-1.34-1.14-2.06-.14-.48-.2-.98-.17-1.48.03-.5.16-1,.38-1.49Z"/>
    <path class="cls-6" d="M278.77,103.42c0-.31-.03-.65,0-.96-1.47-.28-1.47,1.24,0,.96Z"/>
    <path class="cls-6" d="M256.22,92.87c-.19.09-.77-.13-.93.03-.17.16.06.74-.03.93,1,.12,1.08.04.96-.96Z"/>
    <path class="cls-6" d="M262.94,81.84c-.35.32-.77-.79-.96.96h.96s0-.96,0-.96Z"/>
    <path class="cls-6" d="M279.73,105.82c-.61-.61-.91-.44-.96-.48l.26.47h.7Z"/>
    <path class="cls-7" d="M336.86,245.15l.68,8.38c.85.67,1.54,1.81,2.5,2.3,1.08.54,2.26.37,3.19.64.59.18,1.2,1.09,2.07,1.29.99.22,2.03,0,3.03.09l.49,2.39c1.01-.03,2.01.09,3.03-.09.74-.13,7.59-2.71,8.02-3.01.26-.19,2.69-3.99,2.79-4.41.29-1.27.38-3.12.56-4.48l-2.86-.46c-.06.7-.35,1.32-.75,1.89-1.57,2.26-4.02,4.58-6.78,5.21-1.73.39-2.99.11-1.61-1.61,1.05-1.31,3.03-.42,3.34-.74.52-.53,1.07-3.19,1.01-4.06-.11-1.53-.77-1.68-1.2-2.64-.62-1.38-1.23-3.79-2.66-4.54-1.24-.65-1.73.46-1.44-2.15l3.84.48.33-.4,1.59-.08c.04.47-.06.98,0,1.44.25,1.96,1.28,1.43,1.92,1.92-.32-1.14.57-1.23,1.65-.93.97.27.67,1.81.75,1.89.07.07.69-.17.87.06.35.44-.06,2.19,1.52,1.86l.48-.96c-.04-.64-.12-4.14.03-4.3.15-.15.7.06.93-.02.18-.06.64-.83,1.44-.48-.08-.23.07-.61-.21-.97-.07-.09-1.15-.93-1.23-.95-.66-.18-1.73.17-2.57-.07-.56-.16-1.82-1.38-2.54-1.77-4.91-2.68-9.48-1.53-14.57.15-.86.29-4.09,1.39-4.31,1.93-.44,1.11,1.47.36.96,1.44-.46.96-3.18,1.49-3.36,1.68-.04.05.04.59-.24.94-.94,1.19-3.05,2.35-.69,3.16Z"/>
    <path class="cls-1" d="M361.21,243.51c-.18-.23-.81,0-.87-.06l-.25.48c-1.35.42-1.62-1.02-2.15-1.43-.64-.49-1.67.04-1.92-1.92-1.23-.06-2.21.48-1.92-.96l-3.84-.48c-.29,2.61.19,1.5,1.44,2.15,1.43.75,2.04,3.16,2.66,4.54.43.96,1.09,1.11,1.2,2.64.06.88-.49,3.54-1.01,4.06-.31.31-2.29-.57-3.34.74-1.38,1.72-.12,2,1.61,1.61,2.76-.63,5.21-2.94,6.78-5.21.4-.57.69-1.19.75-1.89l2.86.46c.26-1.98.12-2.14,0-3.84l-.48.96c-1.59.33-1.18-1.42-1.52-1.86Z"/>
    <path class="cls-8" d="M365.62,239.61c-.8-.35-1.26.42-1.44.48h1.44c-.07-.1.06-.32,0-.48Z"/>
    <path class="cls-3" d="M320.74,100.52c-.38.5-.59,2.1-.95,2.92-.15.35-.69.43-.71.47-.2.45.1,2.27,0,3.11-.56,4.17-4.82,5.13-5.26,8.65-.13,1.06.09,2.12-.1,3.25-.32,1.89-1.93,2.66-2.22,4.01-.22,1.01-.39,5.17.64,5.44.51.13,3.34-2.19,4.82-.03.45.67-.22,3.03.93,2.42,1.48-.78,2.76-6.61,5.74-5.74,1.94.57-1.16,5.31-.7,5.74h1.92c-.28,1.64-1.28,3.05-.96,4.8,2.15.73,3.61-1.04,5.12-1.36.77-.16,1.58.05,2.26-.14,1.07-.3,2.79-4.53,5.34-4.75,1.94-.16,1.77,1.31,1.68,2.89,1.74.01,2.05-1.27,4.09-.97,1.17.17,1.41,1.32,2.14,1.7.44.23,2.58.74,3.04.66,1.74-.31,2.91-3.29,3.69-4.74l-3.57.47-1.5-2.38c-.21.07-.44.13-.68.19-.48.12-1,.21-1.55.27s-1.11.11-1.65.11c-.82.01-1.61-.04-2.25-.19-.2-.04-.42-.12-.66-.22-1.2-.51-2.81-1.66-4.05-2.63-.5-.39-.93-.75-1.26-1.02-.13-.11-.33-.47-.63-.84s-.7-.76-1.22-.92c-.22-.07-.42-.04-.62.01-.51.14-1,.52-1.59.37-.12-.03-.24-.08-.36-.16-.26-.16-.46-.33-.63-.51-.25-.27-.41-.54-.52-.83-.07-.19-.13-.38-.17-.56-.02-.09-.04-.19-.05-.28-.13-.74-.16-1.43-.83-1.86-.84-.54-1.73-.58-2.61-.54-.88.04-1.75.16-2.54-.07-.18-.05-.4-.18-.64-.33-.12-.08-.25-.16-.38-.24-.52-.34-1.12-.72-1.73-.8-.15-.02-.3-.02-.45,0-.52-.47,1.18-1.92,2.33-3,.21-.2.4-.38.56-.55.08-.08.15-.16.21-.23.12-.14.2-.26.22-.35h0l-.7-3.09-.7-3.09h0c.16-.56.4-1.09.67-1.62.27-.52.57-1.04.85-1.56.55-1.04,1-2.1.89-3.29h0c-.24,0-.48,0-.72,0s-.48,0-.72,0c-.65,1.59-.72.75-1.22,1.41Z"/>
    <path class="cls-6" d="M351.62,128.09c.01.09.04.18.08.27,1.3.14,1.22-.92,1.92-1.68l-.24-.24-1.2.48s-.34.31-.49.68c-.06.15-.1.31-.07.49Z"/>
    <path class="cls-7" d="M227.66,247.27l2.17.49c.01-.16,0-.32,0-.48.05-1.23.16-1.23.01-2.65-.06-.57.1-1.98-.04-2.12-.12-.12-1.36-.27-1.9-.74-1.19-1.05-3.47-3.85-4.8-5.27-.6-.63-.82-1.49-1.66-2.18-1.8-1.46-3.65-.86-5.79-.93-.7-.02-1.39-.5-1.83-.43-.27.04-4.51,2.05-4.89,2.31-1.92,1.31-3.74,4.91-3.58,7.21,1.15.49,1.96-1.13,2.63-.96,1.65.42,2.28,7.61,2.73,9.27.15.55.59,1.04.8,1.62.15.41,0,.93.08,1.1.16.36,1.52,1.86,1.93,2.15.85.58,4.06,1.64,5.05,1.71.78.06,1.28-.43,1.9-.49.81-.08,2.04.16,2.63,0,.12-.04,1.98-1.24,2.18-1.42,2.42-2.18,2.01-5.27,2.37-8.19ZM210.64,240.09c-.12-1.21.76-1.61,1.92-1.44.12,1.21-.76,1.61-1.92,1.44Z"/>
    <path class="cls-6" d="M327.81,106.18c.21.73.6,1.42,1.14,2.06.28-.02.58-.04.87-.04.89-.01,1.82.05,2.74.05,1.22,0,2.42-.09,3.48-.59.48-.23.76-.47.82-.88.02-.14.01-.3-.02-.48h-6.96c-.08,0-.8-.65-1.09-1.19-.1-.18-.14-.34-.1-.47h0l1.25-1.16,7.88-.76c.18-.12.31-.31.4-.53.08-.22.12-.48.13-.74,0-.39-.06-.8-.17-1.12-.04-.11-.08-.2-.12-.29-.13-.25-.4-.44-.64-.62-.25-.19-.47-.38-.52-.64-.03-.18.01-.39.18-.65.12-.19.45-.55.88-1,.87-.89,2.17-2.1,3.1-2.86.47-.38.85-.65,1.04-.71.51-.17,1.06-.22,1.61-.23.18,0,.37,0,.55,0,.36.01.72.03,1.06.05.51.02.99.02,1.39-.07.81-.17,1.32-.69,1.25-2.08-.01-.23-.04-.49-.09-.77h-8.4c-.08,0-1.08.44-1.62.72-.18.09-.31.17-.33.21-.16.25-.19.58-.22.92-.01.17-.03.35-.06.53s-.08.35-.16.51c-.34.68-1.49,1.38-2.76,2.17-.36.22-.74.46-1.1.7-.73.48-1.43.99-1.98,1.54-.41.41-.73.85-.9,1.32-.1.27-.19.51-.27.7-.08.2-.14.36-.21.51s-.12.26-.17.37-.11.2-.16.29c-.22.36-.48.66-1.08,1.52-.17.24-.31.49-.42.73-.23.49-.35.99-.38,1.49-.03.5.03.99.17,1.48Z"/>
    <path class="cls-6" d="M267.74,101.5c.59.6,4.12-1.78,3.36-2.4-.05-.04-.69-.04-1.21-.46-2.41-1.95,2.2-3.18,1.66-5.01-.13-.45-1.96-2.16-2.37-1.72,1,2.2-2.06,3.99-2.37,5.08-.32,1.1.68,1.33.86,1.94.23.78,0,1.75.07,2.57Z"/>
    <path class="cls-6" d="M277.34,117.81l-.49-2.39c-2-.34-3.18.8-2.87,2.87l3.36-.48Z"/>
    <path class="cls-4" d="M360.09,243.92l.25-.48c-.08-.08.22-1.62-.75-1.89-1.08-.3-1.97-.21-1.65.93.54.41.81,1.86,2.15,1.43Z"/>
    <path class="cls-4" d="M356.02,240.57c-.06-.46.04-.97,0-1.44l-1.59.08-.33.4c-.29,1.44.69.9,1.92.96Z"/>
    <path class="cls-4" d="M210.64,240.09c1.15.18,2.03-.23,1.92-1.44-1.15-.18-2.03.23-1.92,1.44Z"/>
    <path class="cls-9" d="M256.22,319.98c3.4.17,3.15-1.25,4.55-1.45,9.2-1.29,21.73,1.39,28.31,8.19l1.69.94c.59,1,4.89,8.14,4.8,8.63,0,.04-.49.12-.4.61.43,2.43,1.92,3.56-.56,6.11-.04-.05-.73.07-1.2-.46s-.75-1.66-.72-2.42c-2.16-.29-1.11.36-1.5,1.61-.2.66-1.14.96-1.32,1.57-.37,1.32-.12,3.71-.76,4.99-.58,1.16-2.53,1.33-3.63,1.64-.43.12-.85.63-1.25.69-.89.15-1.77-1.14-2.4-1.32-.47-.14-.92-.04-1.36-.08-.93-.09-1.95.57-1.69-.95,1.27-.13,4.65-1.07,5.53-1.91,1.19-1.13.9-2.45-.73-2.41-.16-1.45,2.65-2.75,2.84-3.65.19-.91-.92-3.2.27-5.47.21-.41,2.03-1.68,1.19-2.37-.22-.18-2.29-.89-2.38-.98-.05-.05.05-.62-.24-.94-2.62-2.88-2.99-1.82-6.16-2.5-2.3-.49-3-3.69-6.06-1.59-.73.5-2.14,1.74-2.9,2.39-.39.33-.38.92-.57,1.09-.47.4-2.21.97-2.3,1.06.15-.49-.97-1.74-.22-1.91,1.31-.3,4.09-1.34,4.5-2.69.33-1.11-.49-1.8-1.57-1.58-.64.13-5.11,2.56-5.6,3.05-.58.58-.36,1.36-.94,1.94-1.35,1.34-4.31,1.84-5.29,3.59-1.05-.22-1.89.45-2.56.39-3.15-.25-2.36-2.13-.31-3.5,1.58-1.06,4.12-.96,4.81-1.42.1-.07,1.35-1.81,1.41-1.95.35-.72-.19-.7-.72-.72-1.6-.07-2.76.48-3.83-.97-1.25-1.7-1.54-3.29-.73-5.26Z"/>
    <path class="cls-2" d="M256.22,319.98c-.8,1.97-.52,3.57.73,5.26,1.07,1.45,2.23.91,3.83.97.53.02,1.06,0,.72.72-.07.14-1.31,1.88-1.41,1.95-.69.46-3.23.37-4.81,1.42-2.05,1.37-2.83,3.25.31,3.5.67.05,1.51-.61,2.56-.39,2.94.6,1.99-.2,3.67-.4.9-.11,1.6.27,3.17-.2,2.57-.76,1.54-1.02,2.28-1.8.09-.09,1.83-.66,2.3-1.06.2-.17.18-.76.57-1.09.77-.65,2.17-1.89,2.9-2.39,3.06-2.1,3.76,1.09,6.06,1.59,3.17.68,3.54-.39,6.16,2.5.29.32.19.89.24.94.01,1.11-1.13,4.54-1.9,5.06-.84.57-3.24,0-4.51.29-4.35.97-8.9,6.07-12.64,7.03-.85.22-1.73-.1-2.56.32-.98.49-3.32,5.98-5.26,6.73.48.51,1.84.3,2.41.01,1.11-.56,3.71-4.4,4.11-4.52,1.44-.43,2.84.42,3.7.34,3.51-.34,1.95.52,3.51.99.68.21,1.46-.05,2.1.06,1.52.25,2.5.66,4.32.48-.26,1.52.76.86,1.69.95.44.04.89-.06,1.36.08.62.18,1.51,1.47,2.4,1.32.4-.07.82-.57,1.25-.69,1.1-.31,3.05-.48,3.63-1.64.64-1.28.39-3.67.76-4.99.17-.61,1.11-.91,1.32-1.57.39-1.25-.66-1.9,1.5-1.61-.03.76.22,1.86.72,2.42s1.16.41,1.2.46c.08.11-.17.72.05.9.32.26,1.22-.06,1.39.06.14.1-.46,1.8-.54,1.86-.22.19-1.09-.12-1.64.52-1.51,1.75-1.86,4.16-4.55,6-.32.22-3.91,2.04-4.13,2.1-.89.26-1.93-.07-2.82.06-.8.12-1.03.76-1.5.9-3.38,1.01-9.2-2.48-12.33-1.77-.84.19-1.39,1-2.09,1.27-1.8.7-3.29.77-5.12,2.07-.86.61-3.02,3.16-3.48,3.25-.55.11-2-1.23-2.54.34-.13.38.02.82-.04,1.14-1.43-.09-2.95.24-4.34-.22-.48-.16-3.71-2.92-3.81-3.14-.22-.47.4-.81-.99-1.23l.03-1.65c-1.04-.27-1.97,1.16-2.71,1.37-.59.17-1.93.16-2.57.07-.03,0-.11-.35-.34-.39-.59-.11-1.25-.01-1.73-.17-.53-.18-3.42-1.38-3.7-1.58-.67-.46-.38-1.76-.68-2.68-.18-.55-1.22-1.9-1.69-2.15-1.46-.75-2.67.49-3.37.04-2.19-1.39-.91-3.22-1.97-4.77-.53-.78-1.17-.65-1.33-.83-.53-.56-.71-7.62-.54-8.82.23-1.66,2.28-3.97,2.36-4.37s-.47-1.14-.48-1.86c-.05-3.76,6.5-10.12,9.97-10.7.67-.11,4.87-.58,5.12-.52.36.08.64.69,1.1.84,2.65.84,9.43.87,12.64,1.03ZM230.31,340.12c-1.47-1.03-2.23.02-1.7,1.46.27.75,4.79,5.53,5.33,5.7.58.18,1.58.11,1.17-.69-.33-.64-2.02-2.33-2.62-3.14s-1.56-1.86-1.7-2.86c3.38,1.26,5.39,6.83,9.84,7.67.73.14,1.6-.15,2.33.06.81.24,1.25,1.88,2.7,1.38.31-.31-.87-3.75-1.42-4.1s-1.65-.22-2.6-.76c-.92-.53-4.87-3.69-5.59-4.48-2.27-2.51-2.92-4.49-4.05-7.46-.24-.63-.98-2.02-1.7-1.18,1.25,2.75-.53,5.51,0,8.39Z"/>
    <path class="cls-3" d="M240.87,356.91c.64.09,1.98.1,2.57-.07.74-.21,1.66-1.64,2.71-1.37l-.03,1.65c1.38.42.77.76.99,1.23-.33-.05-.45.17-.48.48-2.06-.66-4.02-.29-6.03-.47-.58-.05-.65-.48-.69-.49v-.96s.96,0,.96,0Z"/>
    <path class="cls-3" d="M258.14,333.41c.98-1.75,3.94-2.25,5.29-3.59.58-.58.36-1.36.94-1.94.49-.48,4.96-2.91,5.6-3.05,1.08-.23,1.9.46,1.57,1.58-.4,1.35-3.18,2.39-4.5,2.69-.75.17.36,1.42.22,1.91-.74.77.29,1.04-2.28,1.8-1.57.46-2.27.09-3.17.2-1.68.21-.73,1.01-3.67.4Z"/>
    <path class="cls-3" d="M283.57,343.96c1.63-.04,1.92,1.28.73,2.41-.88.84-4.26,1.78-5.53,1.91-1.82.19-2.8-.23-4.32-.48.49-1.16,1.79-1.69,2.87-2.16,1.38-.6,4.84-1.64,6.24-1.67Z"/>
    <path class="cls-3" d="M230.31,340.12c-.03.4.21.38.48.48.14.99,1.09,2.03,1.7,2.86s2.29,2.5,2.62,3.14c.41.8-.59.87-1.17.69-.54-.17-5.05-4.95-5.33-5.7-.53-1.45.23-2.49,1.7-1.46Z"/>
  </g>
  <g>
    <path class="cls-5" d="M3.04,11.7v-1.36h4.13v1.36H3.04Z"/>
    <path class="cls-5" d="M12.35,15.76c-.77,0-1.44-.23-1.99-.7-.56-.46-.99-1.14-1.29-2.03-.3-.89-.45-1.98-.45-3.27s.15-2.37.45-3.25c.3-.87.73-1.54,1.29-1.98.56-.45,1.22-.67,1.99-.67s1.42.22,1.97.67c.55.45.98,1.11,1.28,1.98.3.87.45,1.96.45,3.25s-.15,2.38-.45,3.27c-.3.89-.73,1.57-1.28,2.03-.55.46-1.21.7-1.97.7ZM12.35,14.29c.39,0,.73-.15,1.03-.45.3-.3.54-.78.7-1.44.17-.66.25-1.54.25-2.64s-.08-1.97-.25-2.62c-.17-.65-.4-1.11-.7-1.4-.3-.29-.65-.43-1.03-.43s-.73.14-1.03.43c-.3.29-.54.75-.71,1.4-.17.65-.26,1.52-.26,2.62s.09,1.98.26,2.64c.17.66.41,1.14.71,1.44.3.3.65.45,1.03.45Z"/>
    <path class="cls-5" d="M18.12,15.54v-1.52h2.53v-7.87h-2.06v-1.17c.54-.11,1.01-.23,1.42-.38.4-.14.77-.32,1.1-.52h1.36v9.94h2.24v1.52h-6.58Z"/>
  </g>
</svg>