<?xml version="1.0" encoding="UTF-8"?>
<svg id="a1" xmlns="http://www.w3.org/2000/svg" viewBox="0 0 600 500">
  <defs>
    <style>
      .cls-1 {
        fill: #646055;
      }

      .cls-2 {
        fill: #4c473f;
      }

      .cls-3 {
        fill: #857b6f;
      }

      .cls-4 {
        fill: #656156;
      }

      .cls-5 {
        fill: #5d4c39;
      }

      .cls-6 {
        fill: #7e7669;
      }

      .cls-7 {
        fill: #928a7c;
      }

      .cls-8 {
        fill: #c9caca;
      }

      .cls-9 {
        fill: #928a7d;
      }

      .cls-10 {
        fill: #45413a;
      }

      .cls-11 {
        fill: #6a6358;
      }

      .cls-12 {
        fill: #867b6f;
      }

      .cls-13 {
        fill: #f6f4f1;
      }

      .cls-14 {
        fill: #5e574e;
      }

      .cls-15 {
        fill: #524d45;
      }
    </style>
  </defs>
  <g>
    <path class="cls-5" d="M376.4,96.26c.19-.31.37-.69.55-1.09-.18.41-.36.79-.55,1.09Z"/>
    <path class="cls-5" d="M328.72,253.15l-.26.12c.08-.05.16-.1.26-.17v.05Z"/>
    <path class="cls-5" d="M386.53,81.74c-.03.18-.07.34-.1.54l-.05.1c.03-.07.05-.15.06-.22.02-.16.05-.28.08-.42Z"/>
    <path class="cls-5" d="M315.8,88.07s.22-.11.48-.21c-.17.1-.34.19-.51.28,0-.03.01-.06.03-.07Z"/>
    <path class="cls-5" d="M381.89,88.72s.02-.03.03-.04c-.06.1-.12.21-.16.31-.17.08-.31.14-.44.19.05-.02.1-.05.16-.07.18-.08.32-.22.42-.39Z"/>
    <path class="cls-5" d="M413.65,63.78s.07,0,.11.01c-.03,0-.06,0-.09,0,0,0-.01,0-.02-.02Z"/>
    <path class="cls-5" d="M329.29,239.21c.2.61.39,1.29.4,1.86-.02-.57-.2-1.25-.4-1.86Z"/>
    <path class="cls-7" d="M321.51,84.91c-.29.75-2.37,2.09-3.28,2.6-.78.44-1.63.84-2.49,1.11-.51.34-.06,1.85-.25,2.03-.06.05-.37.06-.58.25-.86.75-1.67,1.52-2.46,2.29.65-1.3,2.05-2.17,2.47-2.99.28-.54-.06-1.3.22-1.7.21-.11.42-.24.63-.35.17-.09.34-.19.51-.28,1.39-.8,2.73-1.69,4.11-2.51.26-.15.44-.35.7-.43.24-.19.48-.38.71-.57-.04.1-.06.2-.05.32-.01,0-.23.22-.24.24Z"/>
    <path class="cls-5" d="M388.56,65.7c2.48-.42,4.63-.42,7.14-.69,5.26-.57,9.68-1.49,14.32-1.46.23,0,.46.02.69.03-4.94.12-9.79.91-14.69,1.41-2.57.27-4.98.38-7.46.71Z"/>
    <path class="cls-5" d="M341.97,76.82c.67-.11,1.32-.19,1.9-.26-.23.07-.43.16-.65.18-.45.03-.86.05-1.25.08Z"/>
    <path class="cls-5" d="M368.3,75.54c.26,0,.53.03.8.04-.3,0-.63-.01-.96-.04.05,0,.11,0,.16,0Z"/>
    <path class="cls-5" d="M322.62,255.82c.5-.19,1.02-.42,1.53-.67-.52.25-1.04.47-1.53.67Z"/>
    <path class="cls-5" d="M324.15,255.15c1.29-.62,2.56-1.37,3.37-2.12-.81.75-2.08,1.5-3.37,2.12Z"/>
    <path class="cls-5" d="M339.81,113.23c.22-.05.22-.29.27-.56-.04.28-.04.51-.27.56Z"/>
    <path class="cls-5" d="M340.99,108.16c.27-.14.26-.67.23-1.18,0,0,0,0,0,0,.03.51.04,1.04-.23,1.17Z"/>
    <path class="cls-5" d="M341.56,108.89c.12.16.08.39-.04.65.12-.26.16-.49.04-.65l-.69-.58h0s.69.58.69.58Z"/>
    <path class="cls-5" d="M374.08,73.04c-.48.29-.88.6-1.26.92.38-.32.78-.63,1.26-.92Z"/>
    <path class="cls-5" d="M376.37,99.22c.04-.05.07-.11.1-.16,0,0,0,0,0,0,0,0,0,0-.01.02-.02.04-.06.09-.09.14Z"/>
    <path class="cls-5" d="M376.14,99.52c.07-.08.13-.16.18-.24-.05.07-.12.15-.18.24Z"/>
    <path class="cls-5" d="M380.98,69.49c-.21.17-.47.35-.77.53.3-.18.56-.36.77-.53Z"/>
    <path class="cls-5" d="M381.53,68.61s-.04.12-.08.24c.03-.11.05-.21.08-.24Z"/>
    <path class="cls-5" d="M142.63,326.19c.14-.12.27-.23.41-.35-.12.15-.26.26-.41.35Z"/>
    <path class="cls-5" d="M324.17,252.51c-.15.07-.3.12-.46.14.16-.01.31-.07.46-.14Z"/>
    <path class="cls-5" d="M376,72.08c-.42.2-.82.38-1.17.56.35-.18.75-.36,1.17-.56Z"/>
    <path class="cls-9" d="M382.24,100.19c.14-.04.27-.11.39-.19.78-.53,1.09-1.72,1.56-2.45,1.67-2.59,3.33-4.5,5.12-6.88,1.39-1.86,1.52-1.76,3.5-2.98,3.26-2.02,6.52-4.33,9.84-6.24,1.92-1.1,4.16-1.63,6.06-2.58,1.03-.52,1.94-1.31,3.05-1.87.16-.08.32-.16.48-.24-.11-.48.49-.69.84-.96,1.44-1.12,3.36-2.59,4.93-3.47.76-.42,1.65-.48,2.16-.72.85-.42,1.56-1.97,1.67-2.89.18-1.6.13-2.3-1.43-2.88-1.09-.41-2.02-.19-2.97-.39-.54-.12-1.38-.78-2.08-1.05-.43-.17-.86.08-.72-.59-.27-.02-.59-.02-.87,0-.03,0-.06,0-.09,0,0,0-.01,0-.02-.02-.21-.39-.92-.22-1.3-.22-.55,0-1.09,0-1.64.02-4.94.12-9.79.91-14.69,1.41-2.57.27-4.98.38-7.46.71-.94.12-1.89.28-2.86.48-2.01.43-2.97,1.3-4.68,2.28-1.74.99-3.17,1.65-4.96,2.48-1.57.73-3.64,2.08-5,3.16-.39.31-1.13,1.31-1.47,1.41-.15.04-.32.06-.5.06-.3,0-.63-.01-.96-.04-.33-.02-.65-.04-.92,0-.39.06-1.42.85-1.67,1.21-.39.56-.38,1.23-.84,1.8-.12.15-1.44,1.25-1.56,1.31,0,0,0,0,0,0-.48.22-.54-.89-.72-1.2-.15-.25-.41-.46-.71-.62-.32-.18-.67-.3-.97-.33-1.65-.2-3.14-.11-4.66-.04-.75.03-1.51.06-2.29.03-1.32-.04-2.75.08-4.09.02-1.61-.06-3.72-1.06-5.25-1.21-.01,0-.03,0-.04,0-.22-.02-.39.01-.55.06-.23.07-.43.16-.65.18-.45.03-.86.05-1.25.08-1.33.08-2.39.18-3.72.57-.26.08-.54.17-.83.27-.18.06-.35.14-.53.2-1.95.72-3.87,1.53-5.78,2.35-1.36.58-2.71,1.17-4.07,1.71-.79.32-1.71.52-2.59.79-.77.24-1.51.53-2.11,1-.21.17-.45.38-.55.65-.04.1-.06.2-.05.32.29-.18,1.27-.91,1.35-.93.31-.09.94.05,1.03-.06.08-.1-.07-.43.16-.46,2.9-.41,7.52-2.74,10.42-3.95.66-.28,1.36-.16,1.59-.84,2.13-.93,4.05-.71,6.21-.96,1.78-.21,1.13-.61,3.17-.03,4.03,1.13,8.25.98,12.43.51l.26.5c.93.14,3.37-.47,3.68.62.09.3.09,1.34,0,1.63-.15.49-2.1.96-1.9,2.06-.6-.21-.41.28-.54.42-.08.09-.3.04-.36.11-1.17,1.33-2.42,2.15-3.42,3.31,1.01-.11.36.9-.48.72-.13.21-.38.27-.48.48-.04.07.08.33-.03.45-.11.11-.39,0-.45.03-.02.03-.35,0-.61.22-.45.4-.15.95-1.07.74.38-.52-.03-.88,0-1.43-.05,0-.1,0-.15,0-.11,0-.22,0-.32.01l.24,1.3c-.21.55-1.04.27-1.18.39-.04.03-.03.1-.03.18.01.1.03.22.01.28h.05s1.62.01,1.62.01c.04.28.11.5.21.68.02.04.04.09.06.12.03.06.07.1.11.15.02.03.05.06.07.09.05.05.1.08.15.12.02.02.04.04.07.05.08.05.16.08.25.11.09.03.18.05.27.06.03,0,.07,0,.1.01.06,0,.13.02.19.02.04,0,.09,0,.13,0,.06,0,.12,0,.18,0,.05,0,.1,0,.16,0,.08,0,.16,0,.24,0,.07,0,.13,0,.2,0,.05,0,.1,0,.15,0,.06,0,.12,0,.18,0,.05,0,.09,0,.14.01.06,0,.12.01.17.02.04,0,.09.01.13.02.06.01.11.03.17.04.04.01.08.02.13.04.06.02.11.05.17.07.04.02.07.03.11.06.06.03.11.08.17.12.03.02.06.04.09.07.08.07.15.16.22.26,0,0,0,0,0,0h.24c.18-.14.31-.32.42-.52.05-.1.1-.21.15-.31.09-.22.16-.44.23-.66.04-.11.07-.22.12-.32.08-.21.17-.41.29-.57.03-.04.08-.1.15-.16.14-.13.35-.3.58-.48.59-.45,1.34-.96,1.61-1.09.51-.24,1.04-.47,1.59-.68,1.65-.65,3.41-1.23,4.98-2.1.4-.22.79-.44,1.14-.67.35-.23.67-.49.93-.77.39-.43.64-.95.68-1.61,0-.01,0-.02,0-.03.01-.21,0-.44-.03-.68-.02-.14-.07-.25-.13-.34-.1-.14-.22-.25-.34-.34-.08-.07-.14-.14-.19-.22-.02-.03-.05-.05-.05-.08-.03-.09-.02-.18,0-.26.02-.08.05-.16.08-.23.07-.15.15-.29.15-.43,0-.25-.24-.48-.25-.73-.02-.51.84-.84.95-1.22.15-.54-.39-.87-.44-1.2-.06-.34.46-.69.94-.98.15-.09.3-.18.43-.25.06-.04.11-.07.16-.1.04-.03.09-.06.12-.08.17-.14.33-.27.49-.41.22-.19.45-.38.67-.57.38-.32.78-.63,1.26-.92.21-.12.46-.26.74-.4.35-.18.75-.36,1.17-.56.55-.26,1.15-.52,1.74-.8.24-.11.48-.22.72-.34.27-.13.53-.26.78-.39.35-.18.68-.36.98-.54.3-.18.56-.36.77-.53.02-.02.05-.04.07-.06.09-.08.17-.15.23-.23.05-.05.08-.11.11-.17.03-.06.05-.12.06-.18.03-.11.05-.21.08-.24.07-.08.44-.02.75-.02.1,0,.2,0,.28-.03.29-.08.86-.63,1.53-.93.22-.1.46-.18.7-.2.18-.02.42.08.67.18.12.05.25.11.38.15.12.05.25.08.36.1.42.06.85.09,1.29.12.44.03.89.06,1.35.12.25.03.45.03.62.02.09,0,.17,0,.25-.01.15,0,.29,0,.43.04.07.02.14.05.22.1.15.09.32.23.52.46.1.11.17.26.24.4.03.07.07.14.11.2.04.06.08.11.12.14.1.07.21.1.34.11.12.01.25,0,.39,0,.27,0,.57,0,.86.23,1.08.82,1.03,2,.54,3.2-.39.98-3.03,3.99-3.91,4.73-.26.22-.5.41-.73.59-.15.12-.3.24-.44.35-.06.05-.11.1-.17.14-.11.09-.22.18-.32.28-.06.06-.11.12-.17.18-.08.09-.17.17-.25.26-.06.07-.1.14-.15.21-.07.09-.14.18-.2.28-.05.08-.09.18-.13.26-.05.11-.11.21-.16.33-.04.1-.07.22-.11.33-.04.13-.08.25-.12.39-.03.13-.05.28-.08.42-.03.18-.07.34-.1.54l-.05.1s0,0,0,0l-.06.14s-.04.08-.06.13l-.25.55c-.24.53-.56,1.24-.85,1.89l-.23.5c-.31.69-.55,1.23-.55,1.23-.07.02-.16-.02-.24,0,0,0,0,0,0,0,0,0,0,0,0,0-.11.03-.23.07-.34.12-.04.02-.08.04-.12.06-.08.04-.15.07-.23.12-.05.03-.09.06-.13.09-.07.04-.14.09-.2.14-.05.03-.09.07-.14.11-.06.05-.13.1-.19.16-.04.04-.09.08-.13.12-.06.06-.11.11-.17.17-.04.04-.08.09-.12.13-.05.06-.1.12-.15.19-.03.04-.07.09-.1.13-.05.07-.09.13-.13.2-.03.04-.06.08-.08.13-.06.1-.12.21-.16.31-.17.08-.31.14-.44.19,0,0-.02,0-.02,0,0,0,0,0,0,0-.06.03-.11.05-.16.08-.02,0-.03.02-.05.03-.03.02-.07.04-.1.06-.02.01-.03.03-.05.04-.03.02-.05.05-.07.07-.01.02-.03.04-.04.05-.02.03-.04.06-.06.1-.01.02-.02.04-.04.07-.02.04-.04.09-.06.14,0,.02-.02.05-.03.07-.03.08-.05.17-.08.27,0,.04,0,.08,0,.12s.01.08,0,.12l-2.03,1.93c-.26.25-.5.59-.71.97-.11.19-.21.39-.31.6-.2.41-.38.84-.56,1.25-.18.41-.36.79-.55,1.09-.09.15-.19.29-.29.41-.05.06-.11.11-.17.16-.38.28-.91.43-.71,1.13.03.12.08.25.16.4.04.07.17.18.33.29.16.11.35.22.51.3.05.03.1.05.14.07s.08.03.1.04c0,0,0,0,0,0,.03-.04.04-.04.04,0,.12.02.3-.03.44,0h0c.07-.14.18-.25.33-.26.05,0,.1,0,.15.02.01,0,.03.17.17.19.17.03.32.05.45.07s.26.01.38.01c.24,0,.45-.03.68-.03.24,0,.48-.01.72,0h0v.48h0,.48c.07.05,1.33.17,1.44.72.18,0,.34-.03.49-.08ZM369.27,77.47c-.8-.23-2.66.1-2.64-.96,1.05-.25,2.69-.58,2.64.96Z"/>
    <path class="cls-7" d="M354.87,87.79c-.04.07.08.33-.03.45-.11.11-.39,0-.45.03.08-.11-.23-.64.48-.48Z"/>
    <path class="cls-7" d="M413.07,75.79c1.44-1.12,3.36-2.59,4.93-3.47.76-.42,1.65-.48,2.16-.72.85-.42,1.56-1.97,1.67-2.89.18-1.6.13-2.3-1.43-2.88-1.09-.41-2.02-.19-2.97-.39-.54-.12-1.38-.78-2.08-1.05-.43-.17-.86.08-.72-.59.59.05,1,.21,1.39.39.38.18.72.39,1.18.52.58.18,1.39.18,2.03.28.09.01.19.02.28.04.17.04.33.08.49.13,1.02.31,1.95.82,2.38,1.79.07.17.14.35.18.55-.07.17-.12.35-.17.53-.24.89-.3,1.83-.73,2.64-.06.11-.12.21-.19.31-.13.18-.94,1.03-1.07,1.09-.37.18-.72.05-1.05.15-1.88.55-4.54,3.12-6.69,4.29-.14.08-.29.17-.42.23-.11-.48.49-.69.84-.96Z"/>
    <path class="cls-4" d="M145.94,320.44c.05.06.12.14.18.22.13.16.28.31.33.32.28.08,1.1.08,1.39,0,.12-.03.26-.15.42-.3.08-.08.16-.16.24-.26.25-.28.51-.6.74-.86.08-.08.15-.16.22-.22.07-.06.14-.11.2-.14.34-.17.69-.34,1.05-.5.37-.16.74-.32,1.13-.48,1.75-.71,3.68-1.36,5.46-1.99.59-.21,1.17-.42,1.72-.63.22-.08.42-.13.6-.17.27-.06.5-.11.68-.23.18-.12.32-.32.41-.68.37.25.87.31,1.31.25.07,0,.1-.04.13-.09s.02-.1.02-.15-.01-.11-.02-.16,0-.08,0-.09c0,0,.04,0,.06,0,.05,0,.09,0,.16-.02.03,0,.07,0,.1-.02.12-.07.14-.2.16-.21.12-.04.33.03.48,0-.02.1-.02.19,0,.26.1.51,1.03.35,1.53.5.26.08,2,.87,2.32,1.04.78.39,1.36,1.82,2.62,2.18.65.18,1.24.09,1.76.1.15,0,.3,0,.44.03.21.04.41.11.6.24.06.04.12.1.18.16.18.18.35.43.51.79.07.16.12.31.16.47.04.16.08.31.13.47.09.32.2.64.44.97.93,1.32,2.5,1.88,3.13.02.13-.37.07-.66.12-.83.03-.13.12-.19.38-.18.09,0,.19.02.32.04-.08,1.07,1.36,1.9,1.81,2.64.13.21.08.39.11.48h1.43c-.02.07-.03.14-.03.2,0,.06,0,.11.02.17.06.21.21.38.33.53.06.08.11.15.13.22.02.07.03.18.04.28,0,.16,0,.35,0,.49,0,.05,0,.09,0,.13,0,.08,0,.13.01.14.06.05.46-.13.49.14.21,1.73,1.87,8.15,2.75,9.45.18.27.42.45.63.68.1.11.2.23.28.38s.14.31.16.51c.01.08.02.18.02.29s0,.23,0,.37c-.09,1.6-.78,4.73-1.47,6.13-.11.23-.23.42-.34.54-.1.1-.22.15-.33.18-.06.02-.11.03-.15.04-.04.01-.07.03-.09.04-.04.05-.05.13-.04.22,0,.04,0,.09.01.14,0,.05,0,.09,0,.13,0,.17-.09.29-.48.2.24-.98.85-2.2,1.15-3.29.3-1.07,1.02-3.78,1.03-4.75,0-.43-.35-1.25-.73-1.45-1.99-1.02-2.71,2.19-3.31,3.42-.78,1.59-1.58,3.22-2.4,4.79-.7,1.34-1.9,3.99-3.04,4.88-.65.5-1.57.78-2.27,1.33-.64.5-1.65,1.36-1.45,2.27-1.25.12-2.57.54-3.86,1.01-.97.36-1.93.74-2.84,1.06-.3.11-.6.2-.89.29-.46.14-2.01.76-2.12.76h-3.6c-.23,0-.66.11-1.17.23-.38.09-.8.18-1.2.22-.13.01-.27.02-.39.03-.06-.44.36-.77.45-1.12.24-.99-.91-1.84-1.89-1.76.06-.76.18-.32.6-.71.41-.38.64-.99.94-1.22.33-.26.72-.17.82-.25.04-.03.21-.66.4-.93.8-1.12,2.52-1.64,3.84-1.92.35-.08.78.07,1.16-.04.23-.07.34-.39.75-.45,1.28-.19,1.76.08,3.23-.36,2.76-.83,7.35-2.45,9-4.91.42-.62.31-1.28.73-1.91.31-.46,1.41-1.21,1.52-1.6.11-.36-.02-.79.03-1.17.24-1.59.09-2.83.24-4.32.05-.48.39-1.25.43-1.73.04-.51-.64-1.33-.43-1.99-.96.02-.73,1.46-1.15,2.33-.39.82-1.36,1.49-1.62,1.98-.46.89-.44,2.3-.63,3.2-.1.46-.75,1.46-1.17,1.71-2.52,1.57-5.29,2.58-7.92,3.96-.4-.74.52-2.68.46-2.97-.03-.13-1.16-1.27-1.33-1.32-.87-.26-1.45.25-2.18.4-1.38.3-2.74.66-4.07.97-.63.14-1.37.1-2,.28.16-.62-.51-1.4-.13-1.93.12-.18.52-.27.74-.46,1.81-1.6,3.32-2.43,5.64-3.12.24-.07.58.09.96-.11.5-.26.71-.79.72-1.33l.32-.04c.55-.45,1.29-.55,1.12-1.4.46.01,1.14.08,1.55.01.23-.04.08-.36.15-.46.06-.08,1.32-.2,1.9-.51l.84,1.68c.25-.19.36-.44.48-.72.18-.41.74-1.76.81-2.09.06-.26-.21-.29-.21-.31-.03-.26-.04-.71,0-.96,0-.03.38-.11.24-.59l-.38-.35-.33-.02c-.02-.15,0-.32,0-.48.7.02,1.03-.59.33-.93-.12-.06-.27,0-.33-.03-.3-.16-1.39-.65-1.44-.72-.65-.89-1.12-1.05-1.92-1.8-.34-.32-.46-.82-.97-1.19-.41-.3-1.8-.85-2.27-.84-.25,0-.49.23-.73.23-1.38.04-2.5-.25-3.71.61-1.75,1.25-5.51,6.65-6.69,8.67-.98,1.68-1.51,3.09-2.01,4.95-.2.74-.7.7-.06,1.6.22.32.6.52.8.88.57.98.32,1.12,1.4,1.97.11.09.74.14.31.52-.07.06-1.4-.06-1.93.11-.78.26-1.6,1.33-1.68,2.16-.22,2.4.18,5.13.01,7.57-.47-.03-.98.05-1.44,0-.3-.03-.55-.2-.78-.44-.34-.37-.61-.92-.84-1.48-.23-.56-.42-1.12-.59-1.51-.36-.79-1.02-1.46-1.15-2.45-.02-.15-.03-.31-.02-.47,0-.32.03-.64.03-.97,0-.16,0-.32-.02-.48-.15-1.41-1.51-3.06-2.04-4.44-.53-1.38-1.69-6.3-1.78-7.96,0-.07,0-.15,0-.2,0-.1.22-.35.23-.6.03-.53-.09-1.18.14-1.67.11-.23.24-.44.32-.69.07-.22.12-.44.19-.65.07-.23.17-.42.19-.66.03-.26.15-.5.2-.76.09-.48.12-.96.28-1.43.14-.41.42-.73.73-1.03.47-.45,1.05-.75,1.51-1.21.36-.36.66-.76,1.02-1.12.01.02.05.07.1.13Z"/>
    <path class="cls-14" d="M150.1,353.1c.17.49.12,1.07.76,1.39,1.25.63,1.87-.74,2.41-1.57.44.4.74.04,1.2,0-.07.98-.37,1.89-.24,2.88.32,0,.64,0,.96,0,.02.08.03.16.02.22,0,.06-.01.11-.03.15-.09.2-.38.18-.66.13-.06,0-.11-.02-.17-.03-.13-.02-.24-.05-.35-.08-.22-.06-.42-.13-.67-.16-.13-.02-.27-.02-.43,0-.23.02-.55.09-.91.19-.36.09-.76.19-1.14.25-.57.09-1.1.08-1.41-.2-.1-.09-.18-.22-.23-.38-.02-.06-.03-.19-.04-.35,0-.08,0-.18-.01-.27,0-.19-.01-.4-.01-.59,0-.09,0-.18,0-.26,0-.15.01-.27.03-.3.03-.06.56-.31.56-.82,0-.07-.01-.15-.04-.23h0l.2-.15h0s.14.04.19.17Z"/>
    <path class="cls-10" d="M301.76,243.26h0c-.98,2.94-.53,6,1.41,8.45,1.33,1.69,3.7,3.71,5.95,4.46-.01,0-.02-.02-.03-.03.59-.02,1.39.37,1.98.33.06,0,.13-.02.19-.04.15-.06.3-.15.45-.18.03,0,.06-.02.09-.02.06,0,.17.05.3.12s.29.17.46.28c.25.16.53.33.75.44.08.04.15.07.21.09.65.21,1.5.32,2.35.31.43,0,.85-.03,1.25-.08.4-.05.78-.13,1.1-.23.18-.05.32-.1.46-.15.18-.06.34-.11.49-.16.38-.13.73-.23,1.38-.37h0s2.03-2.17,2.03-2.17c.38-.53.63-1.06.85-1.67.01-.04.02-.08.02-.13,0-.15-.03-.36.1-.59.41-.72,1.34-.75,2.21-.88.14-.02.27-.04.41-.07.14-.03.27-.07.4-.11.14-.05.31-.15.5-.27.18-.12.38-.26.56-.39.13-.09.24-.17.35-.24.22-.14.4-.23.5-.19.28-1.1,1.05-2.37,1.2-3.48.1-.79-.06-1.71,0-2.52,1.28.26,1.59-.51,2.16-1.44v-.24c-.06-.08-.11-.17-.15-.27-.04-.1-.08-.21-.12-.32-.22-.68-.38-1.53-1.17-1.57-.01.26-.02.52-.02.77,0,.78.05,1.56,0,2.33l-1.19.25c-.04-.1-.06-.2-.07-.29-.04-.43.18-.76.36-1.06.09-.15.17-.3.19-.45.02-.13.03-.26.02-.41-.02-.57-.2-1.25-.4-1.86-.15-.46-.32-.88-.43-1.18-.1-.27-.17-.46-.15-.51-.64.2-.37-.45-.64-.49-.92-.14-.37-.26-.7-.48-.51-.34-1.5-.39-1.79-.58-.02-.02-.18-.2-.35-.4-.04-.05-.08-.1-.12-.15-.12-.14-.22-.27-.24-.3-.11,0-.21,0-.32-.02-.52-.08-1.01-.35-1.47-.61-.18-.1-.36-.2-.54-.29-.05-.02-.11-.04-.17-.04-.06,0-.13-.01-.2-.02-.14-.01-.29-.03-.43-.1-.05-.03-.11-.07-.17-.12-.06-.05-.13-.12-.2-.19-.41-.44-.91-1.14-1.22-1.23-.19-.05-.35-.02-.5.05-.15.07-.29.17-.42.26-.09.06-.19.1-.28.13-.76.17-1.9-.51-2.65-.64-.9-.16-2.84.2-3.76.47-.18.05-.45.23-.75.45-.1.07-.2.15-.31.22-.42.3-.86.6-1.18.7-.07.02-.14.03-.22.03-.15,0-.3,0-.45,0-.07,0-.15.01-.22.03-.23.07-.52.23-.85.46-.49.34-1.04.82-1.53,1.28s-.92.92-1.16,1.23c-1.25,1.57-2.65,3.08-3.61,4.87-.2.38-.37.76-.5,1.14,0,.03-.01.05-.02.08ZM306.39,239.43c1.59.17,3.06-1,4.48-1.4,1.13-.31,2.42-.35,3.55-.53,1.69-.26,3.12-1.1,4.67.14.45.36.85.68.73,1.31-2.56-.27-5.15,2.09-6.12,4.32-.55,1.26-.62,2.4-.88,3.68-.1.48-.45.93-.45,1.48,0,.18.7,2.15.77,2.24.08.1.56.06.66.41.29.96-.4,2.39-1.42,2.5-.95.1-1.65-.05-2.53-.23-.25-.05-.71.07-.81-.03-.06-.06-.03-.31-.15-.44-.26-.3-.97-.86-1.05-1.12-.12-.44-.12-1.17-.27-1.77,0-.02-.2-.02-.24-.34-.24-1.66.54-1.39,1.08-2.3.57-.94,0-1.41.12-2.28.08-.6.58-.86.49-1.68-.07-.62-.84-1.41-1.32-1.81-.34-.28-1.16-.6-1.3-.74-.12-.11.03-1.1-.02-1.42Z"/>
    <path class="cls-9" d="M311.06,256.46c.06,0,.13-.02.19-.04.15-.06.3-.15.45-.18.03,0,.06-.02.09-.02.06,0,.17.05.3.12s.29.17.46.28c.25.16.53.33.75.44.08.04.15.07.21.09.65.21,1.5.32,2.35.31.43,0,.85-.03,1.25-.08.4-.05.78-.13,1.1-.23.18-.05.32-.1.46-.15.18-.06.34-.11.49-.16.38-.13.73-.23,1.38-.37h0c.13-.03.26-.06.4-.1.29-.08.6-.17.94-.29.23-.08.47-.17.72-.27.5-.19,1.02-.42,1.53-.67,1.29-.62,2.56-1.37,3.37-2.12.24-.22.43-.43.58-.65.03-.04.06-.1.1-.16.07-.13.15-.3.21-.47.06-.17.1-.34.1-.49,0-.21-.11-.36-.4-.31-.08.01-.16.04-.24.07-.15.07-.28.19-.41.31-.06.06-.12.13-.18.2-.17.2-.33.4-.48.52-.05.04-.11.07-.16.08-.09.03-.18.02-.28,0-.18-.04-.37-.14-.57-.2-.1-.03-.2-.05-.31-.04-.41.03-.84.4-1.31.61-.15.07-.3.12-.46.14-.09,0-.18,0-.28-.01.01-.04.02-.08.02-.13,0-.15-.03-.36.1-.59.41-.72,1.34-.75,2.21-.88.14-.02.27-.04.41-.07.14-.03.27-.07.4-.11.14-.05.31-.15.5-.27.18-.12.38-.26.56-.39.13-.09.24-.17.35-.24.22-.14.4-.23.5-.19,0,0,.01.02.02.05,0,.03.02.06.03.09.02.05.06.08.12.09.02,0,.03.01.05,0-.01-.07-.02-.13-.02-.18s.01-.09.03-.13c.08-.18.3-.2.49-.31.04-.02.08-.05.11-.08.17-.16.32-.31.47-.47.43-.47.78-.95,1.15-1.53.03-.04.05-.09.06-.13.1-.27.05-.55.4-.54.06,0,.12,0,.21.03-.07,1.03.08,1.91-.29,2.95-.66,1.87-1.77,2.94-2.59,3.52-.09.07-.17.12-.26.17-.37.24-.65.38-.72.43-1.79,1.25-4.03,2.53-6.17,3.11-.18.05-.36.1-.54.14,0,.14-.16.25-.38.33-.64.24-1.88.29-2.25.28-1.14-.04-2.85.51-3.97.35-.64-.09-1.59-.79-2.2-.92-.68-.15-1.63-.14-2.34-.2-.04-.03-.46-.36-.78-.62-.01,0-.02-.02-.03-.03.59-.02,1.39.37,1.98.33Z"/>
    <path class="cls-3" d="M333.98,104.02c-.09.31-.16.63-.24.94-.08.31-.17.63-.24.94-.09.39-.18.79-.27,1.19-.18.8-.36,1.62-.49,2.43-.07.41-.12.81-.15,1.22h0c-.03.3.21.82.24,1.3.01.16,0,.32-.05.46-.08,0-.16,0-.24,0-.15,0-.28.02-.41.09-.07.04-.13.08-.19.15-.32.32-1.1,1.67-1.42,2.18-.43.67-1.49,1.73-2.09,2.55-.2.27-.35.52-.4.72-.08.29-.15.56-.22.83-.07.27-.14.52-.22.78-.16.51-.37,1.02-.69,1.57-.42.71-1.25,2.08-1.91.97-.45-.76-.66-1.96-.67-3,0-.35.02-.68.06-.96.06-.38.42-.56.5-.94.01-.06.02-.13.01-.21,0-.08-.02-.16-.05-.25-.04-.11-.14-.2-.23-.3s-.19-.23-.22-.44c-.04-.25-.05-.52-.05-.8.02-.84.24-1.76.76-2.33.12-.14.29-.27.48-.4.28-.2.62-.39.94-.57.32-.19.64-.38.87-.57.39-.32,1.14-1.03,1.67-1.7.11-.13.2-.27.29-.39.17-.25.29-.49.31-.67.01-.07.01-.15.01-.24,0-.08,0-.17-.02-.26-.02-.18-.05-.36-.08-.54-.05-.26-.09-.5-.08-.65,0-.05.01-.09.03-.12.17-.27.49-.54.82-.83.17-.14.33-.28.48-.43.15-.14.29-.29.39-.43l3-2.16h0c-.06.19-.1.37-.16.56-.03.11-.06.21-.09.32Z"/>
    <path class="cls-1" d="M171.99,352.21c-.2-.91.81-1.77,1.45-2.27.7-.54,1.63-.82,2.27-1.33,1.14-.88,2.35-3.54,3.04-4.88.82-1.58,1.63-3.21,2.4-4.79.6-1.23,1.33-4.43,3.31-3.42.38.19.74,1.02.73,1.45-.01.97-.73,3.68-1.03,4.75-.3,1.08-.91,2.31-1.15,3.29-.07.28-.26.58-.49.88s-.5.61-.72.91c-.65.87-2.74,3.42-3.59,3.85-.11.05-.24.11-.39.18-.9.39-2.5.96-3.44,1.23-.16.04-.3.08-.41.11-.62.14-1.36-.02-2,.04Z"/>
    <path class="cls-13" d="M330.99,247.15s-.04.09-.06.13c-.37.58-.71,1.06-1.15,1.53-.14.16-.3.31-.47.47-.03.03-.07.06-.11.08-.19.11-.42.13-.49.31-.02.04-.03.08-.03.13s0,.11.02.18c-.02,0-.03,0-.05,0-.06,0-.1-.04-.12-.09-.01-.03-.02-.07-.03-.09,0-.03-.01-.05-.02-.05.28-1.1,1.05-2.37,1.2-3.48.1-.79-.06-1.71,0-2.52,1.28.26,1.59-.51,2.16-1.44h.48c.05.2.04.19.24.24-.03.39.05.82,0,1.2-.04.33-.16.86-.24,1.2-.55-.17-.66.46-.72.96-.03.23.02.48,0,.72-.08-.02-.15-.03-.21-.03-.34,0-.3.27-.4.54Z"/>
    <path class="cls-7" d="M339.98,110.58c.33-1.56.71-3.27.74-3.49.06-.43-.29-.93.42-.83-.02.18.03.44.08.72.03.51.04,1.04-.23,1.18-.07.04-.16.06-.29.03l.16.13.69.58c.12.16.08.39-.04.65-.04.09-.09.18-.14.27-.37.61-1.01,1.31-1.11,1.65-.04.14-.06.31-.08.49s-.04.37-.08.55c-.01.05-.02.11-.03.16-.04.28-.04.51-.27.56-.07.02-.17.02-.3-.01-.07-.01.18-1.27.47-2.64Z"/>
    <path class="cls-6" d="M154.23,355.81c-.13-.99.17-1.9.24-2.88.98-.08,2.12.77,1.89,1.76-.08.35-.5.68-.45,1.12-.24,0-.48,0-.72,0h0c-.32,0-.64,0-.96,0Z"/>
    <path class="cls-7" d="M339.44,114.29c-.04.16-.1.16-.17.13-.07-.02-.15-.07-.24,0v-.36s0-.36,0-.36h.24s.24,0,.24,0h0c-.02.3-.04.48-.07.58Z"/>
    <path class="cls-12" d="M339.51,113.22c0,.08,0,.16,0,.24,0,.08,0,.16,0,.24-.02.3-.04.48-.07.58-.04.16-.1.16-.17.13-.07-.02-.15-.07-.24,0h0s.01.29-.12.48c-.03.04-.06.08-.1.1-.08.06-.16.09-.21.11-.03.01-.04.02-.05.02-.18.35-.28.48-.37.53-.03.02-.06.03-.08.03-.06,0-.12,0-.19.01-.04,0-.08.02-.14.04s-.11.06-.18.1c-.13.09-1.42,2.52-1.56,2.88-.27.69-.68,2.04-.62,2.88,0,.12.03.23.05.33.04.15.19.27.33.39.07.06.14.12.2.18.06.06.11.13.13.21.03.1.04.27.04.47,0,.4-.03.93-.04,1.25,0,.08,0,.15,0,.2s0,.08.02.09h0l-.14.21h-.24q.03.1,0,.01c-.11-.37-.3-.48-.34-.95h-.96c-.07.16-.16.32-.24.48-.02.03-.02.1-.03.18-.01.08-.03.18-.09.28-.12.22-.26.44-.41.66-.04.06-.09.13-.13.2-.13.19-.26.37-.4.56-.16.22-.3.43-.43.64-.04.06-.07.12-.1.17-.13.23-.26.46-.35.71-.2.55.24,1.09.77,1.11.08,0,.16,0,.23-.03.04,0,.06-.02.07-.02.22-.07.43-.14.65-.21.23-.07.46-.14.69-.17.06,0,.12,0,.18,0,.02,0,.04,0,.06,0-.02-.1-.02-.18-.02-.24s.01-.11.03-.15c.04-.08.11-.1.19-.11.04,0,.09,0,.14,0,.1,0,.21.03.33.03.06,0,.11,0,.17,0,.04,0,.09-.01.15-.02.18-.02.43-.05.66-.09.08-.01.16-.02.23-.04.15-.03.28-.06.37-.09.05-.02.08-.03.1-.05.03-.02.09-.14.19-.31.05-.09.11-.19.18-.29.14-.21.3-.42.48-.56.48-.37.7-.45.91-.43.1,0,.2.04.32.08.12.04.27.08.48.1.29.03.56.03.78.05.11,0,.22.02.31.03.37.07.58.25.52.88,0,.02-.01.06-.01.08-.02.14-.04.29-.08.48-.03.13-.09.24-.16.35-.14.22-.33.41-.44.64-.05.11-.09.24-.08.37,0,0,.02.03.03.05.02.03.06.07.12.12.03.03.05.05.09.07.09.04.18.1.27.16.55.37,1.15.98,1.44,1.18.05.03.09.06.12.07.12.04.25.05.38.05.26,0,.52-.04.78-.01.13.01.26.05.38.11.09.04.18.15.27.29.09.14.19.32.27.51.09.19.17.38.24.56.03.09.07.17.09.25.03.08.05.14.07.2,0,0,.02.02.04.04.07.07.19.19.2.2.09.02.17.02.26,0,.02,0,.03,0,.05-.01.39-.06.73-.36,1.02-.68,0,0,.01-.01.02-.02.11-.12.22-.25.33-.36.2-.22.37-.36.49-.45.06-.05.11-.08.15-.11.04-.03.07-.05.08-.06,0,0,.04-.05.09-.1.05-.06.11-.13.18-.21.14-.17.3-.37.44-.54.07-.09.16-.16.27-.21s.21-.08.33-.1c.09-.01.18-.03.27-.06.18-.05.35-.12.49-.16.07-.02.14-.03.19-.02.61.09,1.08.75,1.28,1.39.03.11.06.21.07.32s.02.2.02.3h0c0,.09-.02.18-.05.27-.05.18-.14.35-.18.48-.02.07-.03.13-.02.18h0c.07.33,1.03.86,1.15,1.26.03.11.05.23.05.36.01.38-.06.81-.02,1.17l.36-.06.36-.06c.05-.14.18-.31.33-.49.16-.18.35-.38.53-.56.19-.19.37-.37.51-.53.14-.16.24-.29.27-.37.05-.17.07-.32.06-.46-.03-.41-.28-.7-.53-.99-.17-.2-.33-.39-.43-.64-.05-.12-.08-.25-.09-.4,0-.15.01-.31.06-.49.05-.06.11-.12.15-.16.05-.04.08-.07.09-.08.46-.13.81-.22,1.31-.25,1.29-.06,3.07.04,4.32.25.58.1,3.35,1.07,3.48.95.03-.13.03-.23,0-.31-.07-.24-.34-.29-.56-.45-.21-.16-.43-.3-.66-.42-.46-.25-.95-.44-1.43-.65-.24-.1-.48-.21-.71-.33-.11-.06-.21-.13-.29-.2-.25-.23-.4-.5-.43-.52h0l.24-.3.24-.3c.11.12.22.23.33.33.34.3.72.5,1.13.62.54.16,1.14.19,1.77.12.21-.02.46-.07.71-.14.12-.04.24-.08.35-.12.11-.05.21-.1.29-.15.12-.08.2-.17.22-.27.03-.16-.13-.34-.58-.52-1.1-.45-2.84-.35-2.77-1.91h0l1.19-.25c.02-.08.02-.16.01-.23s-.01-.16,0-.23c0-.08-.01-.16,0-.24h0c.72,0,.88-.91,1.68-.72.02-.06.03-.13.02-.19-.03-.2-.18-.43-.34-.64-.16-.21-.32-.42-.38-.57-.02-.05-.02-.1-.01-.14h0c.04-.14.14-.27.28-.38.14-.12.31-.23.48-.33.27-.16.54-.31.74-.46.07-.05.12-.1.17-.16.06.02.14.01.23,0,.09,0,.18-.02.25,0h.48s0-.48,0-.48h0c.16-.05.32-.19.48-.24.09-.03.19-.04.31-.05.11-.01.23-.03.34-.06s.22-.08.31-.16c.09-.08.17-.2.21-.36.07-.24.09-.58.08-.96-.01-.77-.12-1.73-.09-2.43.01-.35.05-.63.16-.79.36-.55,1.16,0,1.68.02.18.01.36,0,.53-.04.01,0,.03,0,.04,0,1.21-.27,2.04-1.56,1.43-2.77,0-.01,0-.03-.02-.04-.02-.03-.04-.05-.06-.08,0,0,0,0,0,0-.45-.72-1.53-1.21-1.49-2.16.05-.98.92-.91,1.4-1.56.23-.31-.1-.75.15-1.08.52-.68,1-.78,1.35-1.51.13-.28-.17-.72.07-1.18.32-.59,1.11-.73,1.46-1.28.53-.84-.03-2.07,1.1-2.44-.62-1.02.46-1.01.83-1.62.13-.22.32-.89.33-1.05,0-.04-.01-.04-.04,0,0,0,0,0-.01.02-.02.04-.06.09-.09.14.04-.05.07-.11.1-.16-.03,0-.06-.02-.1-.04s-.09-.04-.14-.07c-.16-.08-.35-.19-.51-.3-.16-.11-.29-.22-.33-.29-.08-.15-.13-.28-.16-.4-.19-.7.33-.85.71-1.13.06-.05.12-.1.17-.16.1-.11.2-.25.29-.41.19-.31.37-.69.55-1.09.18-.41.36-.84.56-1.25.1-.21.2-.41.31-.6.21-.38.45-.72.71-.97l2.03-1.93s0-.08,0-.12-.01-.08,0-.12c.03-.1.05-.19.08-.27,0-.03.02-.05.03-.07.02-.05.04-.1.06-.14.01-.02.02-.05.04-.07.02-.04.04-.07.06-.1.01-.02.03-.04.04-.05.02-.03.05-.05.07-.07.02-.01.03-.03.05-.04.03-.02.06-.04.1-.06.02,0,.03-.02.05-.03.05-.03.1-.05.16-.08,0,0,0,0,0,0,0,0,.02,0,.02,0,.05-.02.1-.05.16-.07.18-.08.32-.22.42-.39,0-.01.02-.03.03-.04.02-.04.05-.08.08-.13.04-.07.09-.13.13-.2.03-.04.07-.09.1-.13.05-.06.1-.13.15-.19.04-.04.08-.09.12-.13.06-.06.11-.12.17-.17.04-.04.08-.08.13-.12.06-.05.12-.11.19-.16.04-.04.09-.07.14-.11.07-.05.13-.09.2-.14.04-.03.09-.06.13-.09.08-.04.15-.08.23-.12.04-.02.08-.04.12-.06.11-.05.23-.09.34-.12,0,0,0,0,0,0,0,0,0,0,0,0,.08-.02.17.02.24,0,0,0,.24-.53.55-1.23.07-.16.15-.33.23-.5.29-.65.61-1.36.85-1.89.1-.22.19-.41.25-.55.02-.05.04-.09.06-.13.04-.08.06-.14.06-.14,0,0,0,0,0,0,.03-.07.05-.15.06-.22.02-.16.05-.28.08-.42.03-.14.05-.29.08-.42.03-.14.08-.27.12-.39.04-.11.07-.23.11-.33.05-.12.1-.22.16-.33.04-.09.08-.18.13-.26.06-.1.13-.19.2-.28.05-.07.1-.15.15-.21.08-.09.16-.17.25-.26.06-.06.11-.12.17-.18.1-.09.21-.18.32-.28.06-.05.11-.1.17-.14.14-.11.29-.23.44-.35.23-.18.47-.37.73-.59.88-.73,3.52-3.75,3.91-4.73.49-1.21.53-2.38-.54-3.2-.29-.22-.58-.23-.86-.23-.14,0-.27.01-.39,0-.12-.01-.24-.04-.34-.11-.04-.03-.08-.08-.12-.14-.04-.06-.07-.13-.11-.2-.07-.14-.14-.3-.24-.4-.2-.23-.37-.37-.52-.46-.08-.04-.15-.08-.22-.1-.14-.04-.28-.05-.43-.04-.08,0-.16,0-.25.01-.17,0-.37.01-.62-.02-.46-.06-.91-.09-1.35-.12-.44-.03-.87-.06-1.29-.12-.11-.01-.23-.05-.36-.1-.12-.05-.25-.1-.38-.15-.25-.11-.49-.2-.67-.18-.24.02-.47.1-.7.2-.67.3-1.24.85-1.53.93-.08.02-.17.03-.28.03-.31,0-.68-.06-.75.02-.03.03-.04.12-.08.24-.02.06-.04.12-.06.18-.03.06-.06.12-.11.17-.06.07-.14.15-.23.23-.02.02-.05.04-.07.06-.21.17-.47.35-.77.53-.29.18-.62.36-.98.54-.25.13-.51.26-.78.39-.24.11-.48.23-.72.34-.59.27-1.19.54-1.74.8-.42.2-.82.38-1.17.56-.28.14-.54.28-.74.4-.48.29-.88.6-1.26.92-.22.19-.44.38-.67.57-.16.14-.32.27-.49.41-.03.03-.08.06-.12.08-.05.03-.1.06-.16.1-.13.08-.27.16-.43.25-.48.29-1,.65-.94.98.06.34.6.67.44,1.2-.11.38-.97.71-.95,1.22,0,.25.25.48.25.73,0,.14-.08.28-.15.43-.03.07-.07.15-.08.23-.02.08-.02.17,0,.26,0,.03.04.05.05.08.05.08.11.15.19.22.11.1.24.2.34.34.06.09.11.2.13.34.03.24.04.47.03.68,0,.01,0,.02,0,.03-.04.66-.29,1.18-.68,1.61-.26.29-.57.54-.93.77-.35.23-.74.45-1.14.67-1.57.86-3.34,1.45-4.98,2.1-.55.22-1.08.44-1.59.68-.27.13-1.02.64-1.61,1.09-.24.18-.44.35-.58.48-.07.07-.12.12-.15.16-.12.16-.21.36-.29.57-.04.11-.08.21-.12.32-.07.22-.15.45-.23.66-.04.11-.09.21-.15.31-.11.2-.24.38-.42.52h-.24c-.07-.1-.15-.19-.23-.26-.03-.03-.06-.04-.09-.07-.05-.04-.11-.09-.17-.12-.04-.02-.07-.04-.11-.06-.05-.03-.11-.05-.17-.07-.04-.01-.08-.03-.13-.04-.06-.02-.11-.03-.17-.04-.04,0-.09-.02-.13-.02-.06,0-.12-.02-.17-.02-.05,0-.09,0-.14-.01-.06,0-.12,0-.18,0-.05,0-.1,0-.15,0-.07,0-.13,0-.2,0-.08,0-.16,0-.24,0-.05,0-.11,0-.16,0-.06,0-.12,0-.18,0-.04,0-.09,0-.13,0-.07,0-.13-.01-.19-.02-.03,0-.07,0-.1-.01-.09-.02-.18-.04-.27-.06-.09-.03-.17-.07-.25-.11-.02-.01-.05-.03-.07-.05-.05-.04-.1-.07-.15-.12-.03-.03-.05-.06-.07-.09-.04-.05-.08-.09-.11-.15-.02-.04-.04-.08-.06-.12-.09-.18-.16-.4-.21-.68h-1.62s-.05-.01-.05-.01c0,.02-.22.23-.24.24l-.04.32c-.09.06-.19.18-.28.33-.01.02-.02.04-.04.06-.24.4-.47.8-.7,1.2-.73,1.25-1.43,2.5-2.18,3.75-.42.7-.83,1.4-1.16,2.08-.02.04-.04.08-.05.12-.19.6-.65,1.3-.94,1.89-.02.04-.03.08-.05.12-.02.04-.03.08-.05.13-.37,1.06-.36.92-1.29,1.59,0,0,0,0,0,0-.56.41-.97.97-1.56,1.25-.1.05-.2.09-.31.11-.02.08.02.17,0,.24,0,.02-.01.04-.02.06-.31.96-1.04,1.77-1.22,2.76,0,.02,0,.04,0,.06-.02.18.03.44.08.72,0,0,0,0,0,0,.01.24,0,1.03-.23,1.17-.07.04-.16.06-.29.03l.16.13.69.58c.12.16.08.39-.04.65-.04.09-.09.18-.14.27-.37.61-1.01,1.31-1.11,1.65-.04.14-.06.31-.08.49s-.04.37-.08.55c-.01.05-.02.11-.03.16-.04.28-.04.51-.27.56-.07.02-.17.02-.3-.01ZM376.14,99.52c.07-.08.13-.16.18-.24-.05.07-.12.15-.18.24Z"/>
    <path class="cls-3" d="M372.11,129.29c-.04-.17-.06-.34-.06-.5,0-.33.07-.66.15-.98.04-.16.08-.32.12-.47,0-.03.02-.07.02-.1s.02-.07.02-.1c.1-.4.21-.8.32-1.19.22-.79.45-1.57.61-2.39.08-.41.14-.82.18-1.24h0c.06-.65-.34-1.12-.34-1.76h0c0-.4.49-.49.54-.86h0c.03-.22.02-.46,0-.69-.02-.23-.07-.47-.11-.69h0c.12-.08.25-.15.37-.22.37-.22.77-.41,1.22-.54,1.04-.3,1.68,1.44,1.62,2.95-.03.68-.2,1.32-.55,1.69-.05.06-.1.12-.14.19-.04.07-.07.14-.09.21-.02.07-.04.15-.04.22,0,.08,0,.15.02.23.05.19.07.34.09.48.03.35-.04.63-.18,1.15-.03.11-.06.22-.09.35-.01.04-.04.13-.08.24-.04.11-.08.25-.13.39-.07.21-.15.44-.21.61-.02.06-.04.11-.05.15-.03.09-.05.19-.05.28h0c0,.44.03.7.04.94.01.39-.04.69-.46,1.52-.81,1.61-2.01,2.51-2.74.16Z"/>
    <path class="cls-9" d="M315.15,92.35c.49-.14.65.92,1.24,1.16.12.05,1.06.28,1.16.28.94,0,5.59-2.31,6.68-2.91,1.93-1.08,4.43-3.44,6.32-4,.46-.14,1.05-.1,1.52-.28-.27,1.81-2.91,2.26-2.4,4.32l-1.93.11c-.34.49-1.21,2.19-1.66,2.42-.59.3-1.62,0-2.29.11-.39.06-1.22.36-1.91.49-.99.19-2.88.67-3.72,1.08-.77.37-2.18,1.54-.97,2.16.7.36,1.8-.04,1.41,1.16-.11.34-.93.74.02,1.24.86.44,1.52-.61,2.41-.37.3.3-1.32,2.8-1.67,3.01-.25.15-.45.13-.73.11.23-.95-.46-1.38-1.33-1.45-.67-.05-1.27.5-1.66.98-.55.67-2.3,3.14-2.64,3.84-.44.91-.73,2.47.34,3,.42.21,1.3-.02,1.45.47.13.44-1.36,1.44-1.8,1.56-.32-.09-.94-2.2-2.41-2.4-.4-.05-1.55-.07-1.89.03-.08.02-1.25.92-1.36,1.04-.45.49-1.34,2.7-1.43,3.37-.07.56.16,1.66-.11,2.05-.21.3-1.57.38-2.06.58-.58.23-1.07,1.1-1.56.14-.26-.51-.02-1.19-.15-1.77-.07-.32-.38-.57-.44-1-.17-1.15.21-1.37.44-2.2.32-1.16.42-1.68,1.04-2.8,2.25-4.05,5.5-8.62,8.6-12.04.42-.46,3.25-3.41,3.49-3.47Z"/>
    <path class="cls-9" d="M302.03,116.74c.02.21-.62,1.7-.81,1.76-.48.13-1.06-.38-1.09-.84-.05-.72.76-1.67.5-2.52.8-.28,1.35,1.02,1.4,1.6Z"/>
    <path class="cls-7" d="M355.35,87.31c.2-.32.14-.32.48-.72,1.01-.11.36.9-.48.72Z"/>
    <path class="cls-12" d="M314.9,90.9c-.86.75-1.67,1.52-2.46,2.29-1.12,1.09-2.2,2.19-3.34,3.32-1.26,1.25-2.58,2.46-3.76,3.79-1.57,1.77-3.02,3.69-4.26,5.68-.88,1.41-1.8,2.23-2.35,3.83-.63,1.85-1.07,3.76-1.5,5.66-.16.69-.26,1.66-.38,2.29h0c-.03.14-.05.27-.08.37-.09.32-.62.5-.69.87-.01.08-.02.17-.02.25s0,.18.02.27c0,.09.01.19.01.28s0,.18-.02.27c-.28,1.44-1.03,2.77-.95,4.21h0c.37.08.58-.07.89-.19.16-.06.5-.29.82-.49.16-.1.31-.19.44-.24.06-.03.12-.05.16-.05.04,0,.08,0,.1.02.04.04.05.08.06.12,0,.27-.58.66-.74,1.02-.03.06-.04.12-.04.17h0c0,.37.43.74.49,1.2.03.22.03.47.02.71s-.03.49-.02.73h0c0,.14,0,.26.03.34.02.04.05.06.1.07.05,0,.12,0,.22-.05.5-.19,1.31-.71,1.96-1.25.26-.21.5-.43.68-.63.09-.1.17-.19.23-.28.04-.06.08-.13.12-.2s.08-.16.12-.24c.24-.52.48-1.17.84-1.35.35-.18.72-.04,1.1-.34.02-.02.07-.07.15-.16.11-.13.28-.32.48-.56.26-.31.57-.68.87-1.04.15-.18.3-.36.43-.52.2-.25.38-.47.51-.63.09-.11.15-.19.18-.23.42-.57.47-1.72,1.45-.96.13.1.25.21.35.32.6.66.65,1.4.92,1.88.05.08.1.15.16.22.29.3.78.19,1.1.58.05.07.09.13.12.2.14.33.03.61.29.68.1.03.26.02.53-.03.03-.14.07-.28.12-.42.05-.14.12-.27.2-.4.23-.39.56-.74.95-.99.26-.16.54-.28.83-.33.15-.03.29-.04.44-.03.09,0,.18.03.27.05.28.08.55.22.67.2.12-.02.2-.14.27-.29s.12-.33.19-.5c.04-.11.09-.22.15-.3.15-.22.37-.41.64-.58.27-.17.58-.32.9-.45.65-.26,1.34-.43,1.83-.52v.72s.72,0,.72,0l.24-1.92h0c-.16-.02-.28.01-.39.07-.21.12-.35.34-.55.49-.1.08-.22.14-.37.16-.18.03-.38.03-.58.02-.2-.01-.4-.03-.59-.06l-.56-.28-.56-.28c0-.08,0-.15-.01-.22,0-.07,0-.14,0-.21.01-.14.05-.27.12-.41.54-1.07,3.04-2.43,3.69-3.51.1-.17.19-.33.24-.5.03-.08.04-.17.05-.26,0-.09,0-.19-.01-.29-.4-.21-1,.24-1.08.24h-3.6c-.08,0-.43-.37-.36-.6h0c.13-.45,2.5-1.92,3.05-2.01.74-.12.74.52,1.19.65.06.02.16.04.28.07.12.03.27.05.41.08s.29.05.42.07c.13.02.23.04.3.04.16.02.34.02.53.02.93-.02,2.09-.25,3.08-.52.4-.11.76-.22,1.08-.32.6-.2,1.21-.51,1.63-.92.12-.12.22-.24.3-.38.12-.2.19-.42.2-.66.01-.32-.09-.67-.35-1.05-1.32-1.95-4.12.23-5-.02-.03-.01-.08-.03-.12-.06-.15-.1-.35-.28-.58-.47-.31-.26-.67-.53-1.02-.65-.17-.06-.54-.08-.52-.25,0-.06.06-.13.17-.23.02-.02.15-.03.33-.03.09,0,.2,0,.31,0,.23,0,.49.01.74.02.25,0,.49.01.67,0,.09,0,.16,0,.22-.01.56-.06,1.2-.2,1.9-.42.69-.22,1.44-.5,2.19-.84.5-.22,1-.47,1.5-.73.49-.26.98-.54,1.44-.83.93-.58,1.78-1.19,2.44-1.8.33-.31.62-.61.85-.9.11-.14.27-.43.45-.75.06-.11.12-.21.18-.32.12-.21.24-.42.34-.57.1-.15.19-.26.24-.27l.54.24.54.24h0c0,.06-.02.12-.02.17-.06.4-.39.7-.45,1.14-.04.27-.06.51-.04.72.02.31.11.56.31.74.07.06.14.11.23.16.18.09.41.15.7.19,0-.02.12-.13.27-.26.05-.04.1-.09.16-.13.22-.18.46-.38.54-.44t0,0c.06-.05.18-.07.28-.12.08-.04.16-.09.2-.18h0c.57-1.53,1.64-2.13,2.32-4.06.28-.81.79-.87,1.19-1.46.42-.62.74-1.49,1.04-2.13.14-.1.3-.13.47-.1,0,0,0-.47,0-.47.38-.15.45-.59.53-.66.15-.15.63-.2.67-.3,1.3.11,1.93-.5,2.99-.91,1.16-.45,2.48-.52,3.67-.89,1.03-.33,2.1-1.19,3.18-1.31.11-.01.22-.02.32-.01.02,0,.04,0,.06,0,.03,0,.06,0,.09.01-.02.56.39.92,0,1.43.92.22.62-.34,1.07-.74.26-.22.59-.2.61-.22.08-.11-.23-.64.48-.48.1-.21.35-.27.48-.48.2-.32.14-.32.48-.72,1-1.16,2.26-1.98,3.42-3.31.06-.07.28-.02.36-.11.13-.14-.07-.63.54-.42-.2-1.11,1.75-1.57,1.9-2.06.09-.29.08-1.33,0-1.63-.31-1.09-2.75-.47-3.68-.62l-.26-.5c-4.18.47-8.4.63-12.43-.51-2.04-.57-1.38-.17-3.17.03-2.16.25-4.08.03-6.21.96-.22.69-.93.57-1.59.84-2.9,1.21-7.52,3.54-10.42,3.95-.23.03-.08.36-.16.46-.09.12-.72-.02-1.03.06-.08.02-1.06.75-1.35.93-.01,0-.23.22-.24.24-.29.75-2.37,2.09-3.28,2.6-.78.44-1.63.84-2.49,1.11-.51.34-.06,1.85-.25,2.03-.06.05-.37.06-.58.25ZM302.03,116.74c.02.21-.62,1.7-.81,1.76-.48.13-1.06-.38-1.09-.84-.05-.72.76-1.67.5-2.52.8-.28,1.35,1.02,1.4,1.6ZM311.66,95.82c.42-.46,3.25-3.41,3.49-3.47.49-.14.65.92,1.24,1.16.12.05,1.06.28,1.16.28.94,0,5.59-2.31,6.68-2.91,1.93-1.08,4.43-3.44,6.32-4,.46-.14,1.05-.1,1.52-.28-.27,1.81-2.91,2.26-2.4,4.32l-1.93.11c-.34.49-1.21,2.19-1.66,2.42-.59.3-1.62,0-2.29.11-.39.06-1.22.36-1.91.49-.99.19-2.88.67-3.72,1.08-.77.37-2.18,1.54-.97,2.16.7.36,1.8-.04,1.41,1.16-.11.34-.93.74.02,1.24.86.44,1.52-.61,2.41-.37.3.3-1.32,2.8-1.67,3.01-.25.15-.45.13-.73.11.23-.95-.46-1.38-1.33-1.45-.67-.05-1.27.5-1.66.98-.55.67-2.3,3.14-2.64,3.84-.44.91-.73,2.47.34,3,.42.21,1.3-.02,1.45.47.13.44-1.36,1.44-1.8,1.56-.32-.09-.94-2.2-2.41-2.4-.4-.05-1.55-.07-1.89.03-.08.02-1.25.92-1.36,1.04-.45.49-1.34,2.7-1.43,3.37-.07.56.16,1.66-.11,2.05-.21.3-1.57.38-2.06.58-.58.23-1.07,1.1-1.56.14-.26-.51-.02-1.19-.15-1.77-.07-.32-.38-.57-.44-1-.17-1.15.21-1.37.44-2.2.32-1.16.42-1.68,1.04-2.8,2.25-4.05,5.5-8.62,8.6-12.04Z"/>
    <path class="cls-3" d="M366.63,76.51c1.05-.25,2.69-.58,2.64.96-.8-.23-2.66.1-2.64-.96Z"/>
    <path class="cls-11" d="M149.67,350.53c.17-2.44-.23-5.16-.01-7.57.08-.83.89-1.91,1.68-2.16.53-.17,1.86-.04,1.93-.11.43-.38-.21-.43-.31-.52-1.07-.85-.83-.99-1.4-1.97-.21-.36-.58-.56-.8-.88-.64-.91-.13-.86.06-1.6.5-1.86,1.02-3.27,2.01-4.95,1.18-2.02,4.94-7.42,6.69-8.67,1.21-.86,2.32-.57,3.71-.61.24,0,.48-.23.73-.23.47,0,1.86.54,2.27.84.51.37.63.87.97,1.19.8.75,1.27.91,1.92,1.8-1.98-.3-1.25,3.14-1.46,3.34-.06.06-.3.03-.44.14-.49.4-2.25,1.73-2.38,2.19-.28.92.02.79.69.81.17.86-.57.96-1.12,1.4l-.32.04c0-.33.05-.82-.38-.94-1.65-.47-2.34,1.22-1.3,2.38-2.32.7-3.82,1.52-5.64,3.12-.21.19-.61.29-.74.46-.38.53.3,1.31.13,1.93.63-.18,1.38-.14,2-.28,1.33-.3,2.7-.67,4.07-.97.73-.16,1.31-.66,2.18-.4.17.05,1.3,1.18,1.33,1.32.06.29-.86,2.23-.46,2.97l-.89.43c-1.9.28-4.22,2.01-5.99,2.41-.54.12-1.39-.11-1.77.15-.33.23-.19.88-.34,1.34-.52,1.58-2.09,4.56-3.01,5.99-.53.83-1.16,2.2-2.41,1.57-.64-.33-.59-.9-.76-1.39-.05-.14-.19-.16-.19-.17,0-.02,0-.05,0-.09,0-.07.03-.16.02-.24,0-.04-.02-.08-.05-.11-.04-.05-.3-.19-.56-.32-.2-.09-.4-.18-.51-.2-.04,0-.07,0-.09,0,.04-.35-.13-.65-.48-.72.04-.21-.03-.49,0-.72.46.05.97-.03,1.44,0Z"/>
    <path class="cls-14" d="M148.71,351.97s-.02.03-.04.06c-.04.06-.11.16-.22.19-.06.02-.13.02-.21-.01h0c.02-.07.02-.13,0-.19-.04-.18-.18-.31-.22-.46h0c-.02-.06-.01-.11,0-.15.03-.08.11-.12.16-.14.02-.01.04-.02.04-.02.35.07.52.37.48.72Z"/>
    <path class="cls-6" d="M164.82,330.76c.14-.46,1.89-1.79,2.38-2.19.14-.11.39-.09.44-.14.21-.2-.52-3.64,1.46-3.34.05.07,1.14.56,1.44.72,0,.32-.01.64,0,.96,0,.16-.02.33,0,.48.05.35.12.8.48.96-.04.25-.03.7,0,.96-.43.15-.62.6-.96.84-.17.12-.84.54-.96.6-.57.32-1.83.43-1.9.51-.08.1.07.42-.15.46-.4.06-1.09,0-1.55-.01-.67-.02-.97.11-.69-.81Z"/>
    <path class="cls-6" d="M163.69,332.07c.43.12.38.61.38.94,0,.54-.21,1.06-.72,1.33-.39.2-.73.04-.96.11-1.04-1.15-.35-2.85,1.3-2.38Z"/>
    <path class="cls-1" d="M171.03,329.17s.27.05.21.31c-.07.33-.63,1.68-.81,2.09-.12.27-.23.53-.48.72l-.84-1.68c.12-.07.79-.49.96-.6.35-.24.54-.69.96-.84Z"/>
    <path class="cls-1" d="M170.88,325.84c.7.34.36.95-.33.93-.01-.32,0-.64,0-.96.06.03.21-.03.33.03Z"/>
    <path class="cls-1" d="M170.55,327.25l.33.02.38.35c.14.47-.23.55-.24.59-.36-.16-.43-.61-.48-.96Z"/>
    <path class="cls-2" d="M306.39,239.43c1.59.17,3.06-1,4.48-1.4,1.13-.31,2.42-.35,3.55-.53,1.69-.26,3.12-1.1,4.67.14.45.36.85.68.73,1.31-2.56-.27-5.15,2.09-6.12,4.32-.55,1.26-.62,2.4-.88,3.68-.1.48-.45.93-.45,1.48,0,.18.7,2.15.77,2.24.08.1.56.06.66.41.29.96-.4,2.39-1.42,2.5.23-.54-.56-1-.47-1.3.15-.52,1-.72,1.19-.87.52-.43-1.59-2.05-1.88-2.54-.37-.61-.14-1.87-.63-2.01-.55-.16-1.02,1.2-1.31,1.56-.47.59-1.28.81-1.68,1.56,0-.02-.2-.02-.24-.34-.24-1.66.54-1.39,1.08-2.3.57-.94,0-1.41.12-2.28.08-.6.58-.86.49-1.68-.07-.62-.84-1.41-1.32-1.81-.34-.28-1.16-.6-1.3-.74-.12-.11.03-1.1-.02-1.42Z"/>
    <path class="cls-15" d="M309.27,248.44c.29-.36.76-1.72,1.31-1.56.49.14.27,1.39.63,2.01.29.49,2.4,2.11,1.88,2.54-.18.15-1.04.35-1.19.87-.08.3.71.76.47,1.3-.95.1-1.65-.05-2.53-.23-.25-.05-.71.07-.81-.03-.06-.06-.03-.31-.15-.44-.26-.3-.97-.86-1.05-1.12-.12-.44-.12-1.17-.27-1.77.4-.75,1.21-.97,1.68-1.56Z"/>
    <path class="cls-12" d="M324.17,252.51c.47-.21.9-.59,1.31-.61.11,0,.21.01.31.04.2.06.39.16.57.2.09.02.18.02.28,0,.05-.02.11-.04.16-.08.16-.11.31-.32.48-.52.06-.07.12-.13.18-.2.12-.13.26-.24.41-.31.08-.04.15-.06.24-.07.29-.04.4.1.4.31,0,.14-.04.32-.1.49-.06.17-.14.34-.21.47-.04.07-.07.12-.1.16-.15.21-.34.43-.58.65-.81.75-2.08,1.5-3.37,2.12-.52.25-1.04.47-1.53.67-.25.1-.49.19-.72.27-.34.12-.66.21-.94.29-.14.04-.28.07-.4.1l2.03-2.17c.38-.53.63-1.06.85-1.67.09.02.19.02.28.01.16-.01.31-.07.46-.14Z"/>
    <path class="cls-13" d="M327.13,241.84s0,.03-.02.07c.03-.09.03-.18.06-.27.01-.05.03-.09.05-.14,0,0,0,0,.01-.03.03-.07.09-.13.13-.2.01-.01.03-.03.04-.04.04-.04.08-.07.12-.11.16-.14.2-.35.17-.54.53-.51,1.2-.81,2.04-.34.02.07.04.14.05.21.03.12,0-.02.02.11.03.38,0,.66-.06.95-.13.6-.36,1.17-.57,1.74-.04.03-.08.07-.13.09-.41.17-.83.25-1.23.25,0,0,0,0,0,0,0,0,0,0,0,0-.08-.07-.15-.14-.22-.22-.01-.02-.03-.04-.05-.06-.01-.02-.03-.04-.04-.06-.06-.09-.12-.18-.17-.28-.02-.04-.04-.07-.05-.11,0,0,0,0,0,0,0,0,0,0,0-.03-.04-.1-.07-.19-.09-.29-.01-.05-.02-.09-.03-.14,0-.03,0-.07,0-.1,0,.01,0,.03,0,.07,0-.09-.02-.19-.02-.28,0-.05,0-.11,0-.16,0-.03.01-.07.02-.09Z"/>
    <path class="cls-12" d="M330.38,243.02l-1.19.25c-.04-.1-.06-.2-.07-.29-.04-.43.18-.76.36-1.06.09-.15.17-.3.19-.45.02-.13.03-.26.02-.41-.02-.57-.2-1.25-.4-1.86-.15-.46-.32-.88-.43-1.18-.1-.27-.17-.46-.15-.51,0,0,.02-.02.03-.03.04-.02.09-.04.13-.07.02-.02.03-.04.04-.06h0c.01-.06,0-.13-.03-.2-.07-.18-.23-.4-.17-.59.46-.12.63.27.82.55h0c.04.06.09.12.14.17.28.26.5.49.73.72.08.08.15.15.23.23h0c0,.13-.01.25-.03.37-.02.12-.04.23-.07.35-.05.23-.11.46-.13.73h0c0,.08,0,.16,0,.24-.01.26-.02.52-.02.77,0,.78.05,1.56,0,2.33Z"/>
  </g>
  <g>
    <path class="cls-8" d="M3.04,11.7v-1.36h4.13v1.36H3.04Z"/>
    <path class="cls-8" d="M12.35,15.76c-.77,0-1.44-.23-1.99-.7-.56-.46-.99-1.14-1.29-2.03-.3-.89-.45-1.98-.45-3.27s.15-2.37.45-3.25c.3-.87.73-1.54,1.29-1.98.56-.45,1.22-.67,1.99-.67s1.42.22,1.97.67c.55.45.98,1.11,1.28,1.98.3.88.45,1.96.45,3.25s-.15,2.38-.45,3.27c-.3.89-.73,1.57-1.28,2.03-.55.46-1.21.7-1.97.7ZM12.35,14.29c.39,0,.73-.15,1.03-.45.3-.3.54-.78.7-1.44.17-.66.25-1.54.25-2.64s-.08-1.97-.25-2.62c-.17-.65-.4-1.11-.7-1.4-.3-.29-.65-.43-1.03-.43s-.73.14-1.03.43c-.3.29-.54.75-.71,1.4s-.26,1.52-.26,2.62.09,1.98.26,2.64c.17.66.41,1.14.71,1.44.3.3.65.45,1.03.45Z"/>
    <path class="cls-8" d="M22.09,15.54v-7.36c0-.32.01-.71.03-1.16.02-.45.04-.83.05-1.14h-.06c-.15.28-.29.56-.45.84-.15.28-.31.57-.48.87l-2.25,3.49h6.3v1.44h-8.13v-1.25l4.58-7.18h2.09v11.46h-1.69Z"/>
  </g>
</svg>