<?xml version="1.0" encoding="UTF-8"?>
<svg class="a1" xmlns="http://www.w3.org/2000/svg" viewBox="0 0 600 500">
  <defs>
    <style>
      .cls-1 {
        fill: #6d5d48;
      }

      .cls-2 {
        fill: #656156;
      }

      .cls-3 {
        fill: #5f4d3a;
      }

      .cls-4 {
        fill: #958b7d;
      }

      .cls-5 {
        fill: #c9caca;
      }

      .cls-6 {
        fill: #81786c;
      }

      .cls-7 {
        fill: #45413a;
      }
    </style>
  </defs>
  <g>
    <g>
      <path class="cls-4" d="M264.47,110.1s-.46.14-.51.71c-.07.98.81,2,.51,3.12l-2.56-.08-3.19-1.6v4.08c-.36-.49-1.51-1.97-1.91-2.17-.83-.41-2.18-.08-2.37-.27-.1-.11-.13-.74-.5-1.17-1.01-1.16-2.35-2.17-3.38-3.35l-.96,1.2c-.04-.05-.73.07-1.2-.46-.83-.94-2.27-4.47-3.19-5.94-1.62-2.57-3.62-4.91-5.2-7.51,1.44.27,3.52.22,4.96.56,1.36.32,9.15,4.72,11.04,5.75,1.43.79,5.06,2.65,6.07,3.52.35.3,2.46,3.36,2.4,3.6Z"/>
      <path class="cls-6" d="M264.95,110.1l.48.48c.39,1.48.6.44.96,1.92.3,1.27.93,2.11,1.92,2.88.06.05,0,.37.24.44l.24-.44h.48c.16.42.62.98.48,1.44-.02.05-.53.14-.43.62.25,1.16,3.53,6.33,4.35,8.17.2.45.95,1.28-.08,1.28l-4.32-5.75-.48,1.92c-.63.11-2.6-.2-2.83.04s-.22,1.68-1.24,1.39c-1.09-.31-5.05-6.83-6-8.15v-4.08s3.2,1.6,3.2,1.6l2.56.08c.3-1.12-.58-2.14-.51-3.12.04-.58.5-.67.51-.71h.48Z"/>
      <path class="cls-4" d="M239.52,96.67l-.68-.05-.28-.43c.49.2.9.47.96.48Z"/>
      <path class="cls-4" d="M238.08,96.19l-.48-.48c.34.24.45.47.48.48Z"/>
      <path class="cls-6" d="M212.66,101.46c1.43.55,2.24,2.8,3.59,3.85.65.5,2.51,1.16,2.65,1.68.16.61-1.41,1.59-.96,2.63l-1.92-.48c-.14.16.35,1.47.48,1.92-.93-.93-1.64-2.99-2.87-3.61-1.29-.65-2.17.26-2.8-2-.29-1.04-.35-3.94-.57-4.47.65.31,1.91.29,2.4.48Z"/>
      <path class="cls-6" d="M246.24,132.16l-.5,1.9-2.38.02c-.44-1.25,2.47-2.32,2.88-1.92Z"/>
      <path class="cls-6" d="M237.12,125.92c.12,1.21-.76,1.61-1.92,1.44-.12-1.21.76-1.61,1.92-1.44Z"/>
      <path class="cls-6" d="M240.48,122.56h.48c-.06.04-.3.68-.7.97-.66.47-1.42.77-1.94,1.43l1.19-2.18.97-.21Z"/>
      <path class="cls-4" d="M257.27,122.08s.74.16.48.72l-.48.24c-.19-.16-.84.28-.96-.24-.05-.23.02-.48,0-.72h.96Z"/>
      <path class="cls-1" d="M216.98,112.01s-.27.12-.48-.48l.48.48Z"/>
      <path class="cls-6" d="M193.95,77.48c.8,0,1.61-.04,2.4,0,.16,0,.32,0,.48,0,5.29.31,11.77,1.97,16.91,3.47,7.32,2.14,10.79,6.53,16.67,9.24.84.39,1.64.08,2.41.46.3.15,2.95,3.49,3.59,4.08.32.29.84.73,1.19.97l.48.48c.14.05.34-.06.48,0l.28.43.68.05c.16.03.33-.03.48,0,1.58,2.6,3.58,4.93,5.2,7.51.92,1.47,2.36,5,3.19,5.94.47.53,1.16.41,1.2.46.36.47,1.02,1.87,1.51,2.57,2.07,2.97,4.5,5.71,6.17,8.94h-.96c.02.23-.05.49,0,.72.12.53.77.09.96.24.21.17,1.88,4.56,1.93,5.05.1.96-.34,1.41-.39,1.99-.07.71.69,1.61.35,2.76-.41,1.39-3.42.43-3.81.75-.89.74.68,1.01.94,1.19,1.11.76.17,2.31-.77,2.58-2.26.66-4.76-.4-3.98-3.03.28-.93,2.66-.47.69-2.19-1.14-.36-1.04,2.55-3.34,1.9-.95-.27-.5-2.69-2.18-2.38.49-1.05,1.82-1.43,1.44-2.87-.63.11-1.1-.48-1.67-.49-1.07,0-3.25,1.45-4.32,1.44-.71,0-1.68-.8-2.64-.48.26-1.24,3.03-1.83,2.81-3.02-.08-.44-.56-.8-.38-1.47.12-.45,1.54-1.55,1.89-2.46.23-.61-.09-.89-.71-.71-.44.72-1.81.73-2.16.96h-.48c-.16-.55,1.87-2.59.24-2.88-.53-.09-2.3,1.05-2.88,1.44-.36-.52.62-1.24.69-1.71.28-1.86-2.85-.82-3.57.27l.72-2.4c-.82-.44-3.69.61-3.84.48-.9-.83,1.35-1.39,1.43-1.46.21-.18-.94-1.99-.24-3.35.32-.62,1.52-.89,1.21-1.9-1.57-.45-2.88-1.74-4.57-1.93-1.02-.11-1.94.53-2.33.45-1.6-.34-4.5-6.09-6.85-6.6-2.38-.51-2.83-.23-4.96-2-.02-1.78-1.08-4.1-2.4-1.92-.02.04-.35.02-.42.29-.17.67-.03,1.41-.06,2.1-.49-.19-1.75-.17-2.4-.48-.02-.04-.55-.12-.71-.47-.58-1.28-1.61-4.78-2.91-5.27-.24-.09-1.18-.2-1.18.22l-.24,3.6c-1.07-1.67-5.91-8.59-7.68-8.54-.4.01-.78,1.19-1.67.87-.3-2.79.44-5.42.48-8.15-1.82.4-3.31,1.3-5.28.96-.37-.38.5-5.77.96-6.72h1.92Z"/>
      <path class="cls-4" d="M197.79,94.27c-.27,1.12,2.02,4.61,1.44,5.28-.9,1.03-2.2-2.71-2.3-3.21-.2-.93-.56-2.44.87-2.07Z"/>
      <path class="cls-4" d="M268.31,115.37h.48l-.24.44c-.23-.07-.18-.39-.24-.44Z"/>
    </g>
    <g>
      <path class="cls-7" d="M327.79,233.83c1.91-.12,1.79,1.09,2.7,1.37,1.29.39,3.98.28,4.98.77,1.27.63,1.46,2.67-.49,2.65l-.28-.42c-.99.02-1.85-.48-2.82-.55-.8-.06-2.14.28-1.22.98.06.05.69.05,1.21.46,1.75,1.38,2.9,6.43,3.11,8.65.18,2-.13,4.21,0,6.23,2.42.58,2.57-3.87,2.42-5.53-.13-1.49-.75-1.56-.98-2.14-.06-.16-.01-.69,0-.96.01-.29.02-.11,0-.48-.08-1.27-.13-2.61-.48-3.84,1.05-.13,1.31.67,1.84,1.28,1.4,1.63,3.1,4.45,2.99,6.64-.04.76-.43,1.3-.5,1.92-.11.91.17,1.98-.07,2.81-.12.41-2.5,2.69-3.05,3.19-.43.38-1.23.57-1.47.92-.43.63-.16,1.67-.21,2.42-2.36-.62-3.53.67-5.26,1.22-.94.3-1.95.42-2.9.7-.13-1.73,1.21-2.76-.77-3.78-1.65.18-3.62.22-5.21.43-.75.1-3.49.33-3.61.47l-.65-.07c-.46-.26-.76-.69-1.27-.89v-.96c-.31-.05-.68.06-.96,0-1.19-.25-1.77-.54-1.92-1.92-.11-.98.05-2.1.02-3.11l.46-.25h.95c.12-1.17-.13-2.44.02-3.59.37-2.86,6.97-12.08,9.58-13.44,1.38-.02,2.65-1.12,3.85-1.19Z"/>
      <path class="cls-2" d="M472.56,326.25c-.03-.42-.06-.85-.1-1.29-.2-2.36-.5-4.85-.96-7.14-.74-3.68-2.28-5.41-4.12-8.72-.97-1.75-.74-.85-1.43-1.42-1.39-1.15-3.73-4.55-5.28-6.23-1.4-.4-.98,1.76-2.16,1.44-2.33-1.64-3.22-5.35-6.48-5.27-.52,1.32,1.25,2.51,1.39,3.18.08.39-.77,5.29-1.15,5.93-.36.6-1.17.76-1.23,1.68-.05.78.51,1.35.51,1.91,0,2.08-.6,4.69-.5,7.22.03.87.59,1.56.52,2.35-.05.61-.58,1.13-.52,1.93.03.52,1.72,7.13,2.02,8.09.13.4.61.66.79,1.12.18.45.04,1.04.32,1.6.77,1.51,5.48,4.08,7.21,4.3,1.94.24,3.2-.85,5.03.01.44,1.7-1.55,1.94-1.44,3.36.5-.04.99,0,1.44.23.97.51.57,1.99,1.92,1.69.04-.1.26-.24.68-1.26.08-.2.13-.43.15-.65.22-3.52-.52-5.42-.28-6.41.06-.26.41-.29.42-.32.04-.12.04-.84,0-.96,1,.18,1.08-.6,1.44-.96,1.39-1.38,1.94-3.52,1.81-5.41ZM467.65,332.63c-1.36.38-3.2.28-3.14,1.91-3.25-.55-1.99-3.28-2.47-5.44-.45-2-3.22-6.13-4.5-7.97-.51-.72-1.5-1.28-1.89-1.94-1.46-2.43.24-5.93.24-8.63,1.63-.34,1.58,1.99,1.92,2.4.03.04,1.33,4.12,1.33,4.12,2.38,3.46,6.78,7.71,8.06,11.71.29.92-.52,1.7-.28,2.64l1.44.24c.12,1.25.01.77-.7.97Z"/>
      <path class="cls-4" d="M336.43,246.3c.23.58.84.65.98,2.14.15,1.67,0,6.11-2.42,5.53-.13-2.03.18-4.24,0-6.23l1.44-1.44Z"/>
      <path class="cls-3" d="M336.43,245.34v-.48c.02.37.01.18,0,.48Z"/>
    </g>
  </g>
  <g>
    <path class="cls-5" d="M4.39,13.73v-3.46H1.23v-1.34h3.16v-3.47h1.39v3.47h3.17v1.34h-3.17v3.46h-1.39Z"/>
    <path class="cls-5" d="M14.02,15.76c-.77,0-1.44-.23-1.99-.7-.56-.46-.99-1.14-1.29-2.03-.3-.89-.45-1.98-.45-3.27s.15-2.37.45-3.25c.3-.87.73-1.54,1.29-1.98.56-.45,1.22-.67,1.99-.67s1.42.22,1.97.67c.55.45.98,1.11,1.28,1.98.3.88.45,1.96.45,3.25s-.15,2.38-.45,3.27c-.3.89-.73,1.57-1.28,2.03-.55.46-1.21.7-1.97.7ZM14.02,14.29c.39,0,.73-.15,1.03-.45.3-.3.54-.78.7-1.44.17-.66.25-1.54.25-2.64s-.08-1.97-.25-2.62c-.17-.65-.4-1.11-.7-1.4-.3-.29-.65-.43-1.03-.43s-.73.14-1.03.43c-.3.29-.54.75-.71,1.4s-.26,1.52-.26,2.62.09,1.98.26,2.64c.17.66.41,1.14.71,1.44.3.3.65.45,1.03.45Z"/>
    <path class="cls-5" d="M23.25,15.76c-.55,0-1.07-.12-1.55-.34-.48-.23-.91-.57-1.27-1.03-.36-.46-.64-1.04-.85-1.74-.21-.7-.31-1.52-.31-2.47,0-1.13.12-2.09.35-2.89.23-.79.55-1.45.96-1.96.41-.51.87-.88,1.39-1.12.52-.23,1.07-.35,1.64-.35.65,0,1.21.12,1.68.37.47.25.87.54,1.2.9l-.98,1.12c-.21-.26-.47-.46-.8-.62-.32-.16-.66-.24-1.02-.24-.5,0-.96.15-1.38.45-.42.3-.75.8-1,1.5-.25.7-.38,1.65-.38,2.86,0,.95.09,1.73.28,2.34s.45,1.07.8,1.37.75.45,1.2.45c.33,0,.64-.09.91-.28.27-.19.49-.45.65-.8.16-.35.24-.76.24-1.24s-.08-.87-.23-1.19c-.15-.33-.37-.57-.65-.74-.28-.17-.62-.26-1.03-.26-.33,0-.7.11-1.09.34-.39.22-.76.61-1.1,1.17l-.08-1.34c.23-.31.49-.58.78-.8.29-.22.6-.4.91-.52.32-.12.62-.18.9-.18.65,0,1.21.13,1.7.39.49.26.87.65,1.14,1.18.27.52.41,1.18.41,1.97s-.16,1.41-.48,1.97c-.32.55-.73.99-1.25,1.3s-1.09.47-1.71.47Z"/>
  </g>
</svg>