<?xml version="1.0" encoding="UTF-8"?>
<svg id="a1" xmlns="http://www.w3.org/2000/svg" viewBox="0 0 600 500">
  <defs>
    <style>
      .cls-1 {
        fill: #4c473f;
      }

      .cls-2 {
        fill: #736c60;
      }

      .cls-3 {
        fill: none;
      }

      .cls-4 {
        fill: #656056;
      }

      .cls-5 {
        fill: #656156;
      }

      .cls-6 {
        fill: #5d4c39;
      }

      .cls-7 {
        fill: #7e7669;
      }

      .cls-8 {
        fill: #a98e6a;
      }

      .cls-9 {
        fill: #aa9f90;
      }

      .cls-10 {
        fill: #e6e3df;
      }

      .cls-11 {
        fill: #c9caca;
      }

      .cls-12 {
        fill: #676259;
      }

      .cls-13 {
        fill: #928a7d;
      }

      .cls-14 {
        fill: #635849;
      }

      .cls-15 {
        fill: #45413a;
      }

      .cls-16 {
        fill: #6a6358;
      }

      .cls-17 {
        fill: #867b6f;
      }

      .cls-18 {
        fill: #968f80;
      }
    </style>
  </defs>
  <g>
    <path class="cls-3" d="M213.34,245.52c-.04-.4-.07-.81-.07-1.25-.02.34,0,.77.07,1.25Z"/>
    <path class="cls-3" d="M274.7,347.12v.48c0,.16,0,.32,0,.48,0-.16-.01-.32,0-.48v-.48c1.47,2.21,7.21,4.61,9.87,4.8,1.19.08,2.21-1.06,2.8-.93.98.22,2.56,6.35,5.56,4.53-2.54-2.27-1.52-7.63-4.31-8.64-2.76-1-5.93-1.39-8.75-2.77-1.88-.92-4-3.26-5.3-3.82-.88-.37-2.27-.23-2.78-.58-1.15-.78.32-5.09-1.18-5.53-3.67-1.08.31,6.3.72,7.19.85,1.84,1.93,3.51,2.88,5.28.14.17.36.3.48.48Z"/>
    <path class="cls-18" d="M345.12,58.43c-.39.54-.77,1.1-1.15,1.67.25-.27.5-.55.77-.8.11-.31.25-.59.38-.87Z"/>
    <path class="cls-8" d="M306.91,362.44s-.02,0-.03,0c-.02,0-.04.02-.06.03.01,0,.03,0,.04,0,.02-.01.03-.03.05-.04Z"/>
    <path class="cls-18" d="M347.14,55.95s0,.03,0,.05c.08-.06.15-.12.23-.17-.09.04-.17.07-.23.12Z"/>
    <path class="cls-13" d="M354.82,58.91s-.03-.07-.04-.1c.01,0,.03,0,.04.01-.52-1.23-.68-1.38-1.44-2.4-.01,0-.03-.02-.04-.02,0,.04.02.08.05.11-1.07-.69-5.46-1.11-6.24-.48-.12.09.75,1.03.26,1.95-.07.13-1.83.66-2.66,1.41.02-.05.04-.09.06-.14-.02.02-.05.03-.06.05-.27.24-.52.52-.77.8-1.82,2-3.15,4.68-4.4,7.24-.61,1.1-1.22,2.24-1.84,3.44-.6.82-1.53,1.36-2,2.3-1.08,2.16-1.86,4.81-2.61,7.54-1.45,3.51-2.55,6.77-2.91,9.17-.21.47-.43.92-.66,1.36-.05.1-.1.2-.15.29.02,0,.03,0,.05,0-.02.03-.03.06-.04.09,2.11-.02,1.28,2.41.91,3.46-.13.37-.75.35-.87.75-.47,1.45-.9,3.83-1,5.39l-2.4-.48s0,0,0,0c.04.72-.4,1.04-.92,1.24-.51.2-1.07.3-1.26.57-.21.3-.26.75-.27,1.27,0,.23-.01.47-.02.73-.11,1.19-.11,2.24-1.62,1.92,0,0,0,0,0,0h-.19c0,.49-.02.78-.02,1.13,0,.07,0,.14,0,.22,0,.03,0,.06,0,.09,0,0-.02,0-.03.01.06.96-.17,2.35-.07,3.24,0,.02,0,.04,0,.06,0,.29.02.53.07.69.14.49,1.07.26,1.45.55.07.05.12.11.17.17.24.3.27.64.29.84,0,.08.02.14.04.16v.96c0,.32-.05.79-.04,1.14,0,.12.02.22.04.3-.09.09-.22.24-.36.44-.07.1-.15.21-.23.33-.16.23-.32.5-.48.78-.24.42-.46.87-.62,1.27-.16.4-.25.77-.21,1.02.01.08.04.15.07.21.08.11.22.16.44.14.17-.02.39-.11.65-.23-.29-.14-.76-.17-.77-.35-.02-.66,1.54-3.22,1.95-4.06.62,5.35,1.76-.15,4.59.04,1.63.11,1.38,1.37,1.65,2.36,1.11,1.64,2.55.37,2.78-.78.38-1.91-3.85-4.33-.37-4.02-.67-1.81.73-3.21-.97-4.79,3.08.59,13.95-2.13,5.28-2.89-.09-.89,1.23-.3,1.72-.93.35-.46-.33-1.35-.27-1.43.3-.44,3.18.05,1.45-2.22-.71-.94-6.28-2.96-7.41-2.56-.84.3-.44,1.48-1.25,1.39-1.55-5,1.2-1.74,1.9-2.4.07-.07.03-1.82.73-1.9.15-.02,1.83.85,2.88.94,1.2.1,5.18.21,5.88-.6.4-.47,1.02-6.55,1.12-7.79.09-1.16-.55-2.26-.43-3.25.17-1.34,1.94-3.28,1.35-5.14l-1.92-.71c.92-2.47,6.01-.48,6.23-.73,1.57-1.86-3.59-1.7-4.1-2.37-2.55-3.43,5.41-.91,5.78-.93,4.13-.14,3.78-9.38,3.56-12.24-.07-.96-2.19-4.73.52-3.64Z"/>
    <path class="cls-9" d="M344.8,59.25s-.04.09-.06.14c.83-.75,2.58-1.28,2.66-1.41.5-.91-.37-1.85-.26-1.95.78-.63,5.17-.21,6.24.48-.03-.03-.04-.07-.05-.11.01,0,.03.02.04.02-.03-.05-.05-.1-.06-.16,0-.09,0-.18,0-.28,0-.05,0-.1-.01-.15-.05-.26-.27-.54-1.23-.73-3.37-.67-5.63.54-6.96,3.32-.13.28-.27.56-.38.87.02-.02.04-.03.06-.05ZM347.14,55.95c.06-.05.14-.08.23-.12-.08.05-.15.11-.23.17,0-.02,0-.04,0-.05Z"/>
    <path class="cls-6" d="M283.08,332.16c.42.04.82.09,1.15.13-.34-.04-.73-.09-1.15-.13Z"/>
    <path class="cls-6" d="M283.53,339.94c.15-.02.3-.05.44-.09.15-.04.26-.11.36-.2-.09.08-.21.16-.36.2-.14.04-.29.07-.44.09Z"/>
    <path class="cls-6" d="M285.57,332.61c-.11-.07-.21-.12-.3-.14-.05-.01-.12-.03-.2-.05.08.02.15.03.2.05.08.03.18.07.3.14Z"/>
    <path class="cls-6" d="M291.47,340.6c-.09.34-.23.55-.42.66.18-.11.33-.32.42-.66.23-.86-1.33-3.19-2.98-5.14,1.65,1.95,3.21,4.28,2.98,5.14Z"/>
    <path class="cls-6" d="M267.34,344.14c.26.46.54.89.93,1.18-.39-.29-.68-.72-.93-1.18Z"/>
    <path class="cls-6" d="M326.12,336.48c.05.03.1.06.15.06.08,0,.84-.73,1.2-.93-.36.2-1.12.93-1.2.93-.05,0-.1-.03-.15-.06Z"/>
    <path class="cls-6" d="M269.02,342.85c.13.45.28.93.4,1.39.07.25.13.49.21.73-.07-.24-.14-.48-.21-.73-.13-.46-.27-.94-.4-1.39Z"/>
    <path class="cls-6" d="M266.42,350.7c.11.11.23.2.35.27.19.11.37.22.54.32-.17-.1-.35-.2-.54-.32-.12-.07-.23-.16-.35-.27Z"/>
    <path class="cls-6" d="M310.68,327.93c.02-.14.03-.25.04-.35,0,.1-.02.22-.04.35h0Z"/>
    <path class="cls-6" d="M304.09,337.68c.11.04.23.07.35.09h0c-.12-.02-.24-.05-.35-.09Z"/>
    <path class="cls-6" d="M274.49,349.51c-.25-.53.17-.66.2-.95.01-.16,0-.32,0-.48,0,.16.01.32,0,.48-.03.3-.46.43-.2.95Z"/>
    <path class="cls-6" d="M297.33,332.38s-.06.09-.07.13c0,.02,0,.04-.01.06,0-.02,0-.04.01-.06.02-.04.04-.08.07-.13Z"/>
    <path class="cls-6" d="M303.95,329.85c-.13.13-.64-.02-1.23-.18.59.16,1.1.31,1.23.18Z"/>
    <path class="cls-6" d="M284.11,353.66c.5.13.96.26,1.36.39-.4-.13-.86-.26-1.36-.39Z"/>
    <path class="cls-6" d="M303.26,341.37c3.76-1.18,12.57-6.22,18.01-7.17-5.45.94-14.26,5.98-18.01,7.17h0Z"/>
    <path class="cls-6" d="M321.25,332.72s-.03-.05-.04-.11c.01.06.02.1.04.11h0Z"/>
    <path class="cls-6" d="M325.08,334.18c.04-.13.07-.24.09-.35-.02.11-.05.22-.09.35h0Z"/>
    <path class="cls-6" d="M265.57,342.09c-.07.06-.14.14-.22.23-.05.05-.09.13-.13.19.04-.07.08-.14.13-.19.08-.1.16-.17.22-.23Z"/>
    <polygon class="cls-6" points="326.19 327.26 328.43 330.82 328.43 330.82 326.19 327.26"/>
    <path class="cls-6" d="M304.97,363.64l-1.04.52c.37-.13.72-.32,1.04-.52Z"/>
    <path class="cls-2" d="M331.8,333.46l-1.93-.25c-1.09,1.52-.74,1.44-2.4,2.4-.35.2-1.12.93-1.2.93-.05,0-.1-.03-.15-.06-.53-.3-1.11-1.97-1.84-2.22-.54-.19-1.21-.24-1.96-.19-.33.02-.68.07-1.04.13-5.45.94-14.26,5.98-18.01,7.17h0s0,0,0,0c-.65-.5-.8-.98-.69-1.43.02-.09.05-.18.1-.27.04-.08.08-.15.13-.22.15-.22.34-.44.56-.65.07-.07.15-.14.22-.21.3-.28.61-.55.86-.81-.12-.02-.24-.05-.35-.09-.11-.04-.22-.09-.32-.16-.21-.12-.4-.29-.57-.48-.09-.09-.17-.2-.25-.3-.87-1.16-1.29-2.9-1.44-3-.32-.22-4.73.23-4.26-1.19,0-.02,0-.04.01-.06.02-.04.04-.08.07-.13.03-.05.08-.1.13-.16.08-.09.17-.19.28-.3.89-.9,2.72-2.33,3.23-2.45.12-.03.25-.04.39-.04.42,0,.91.13,1.35.24.59.16,1.1.31,1.23.18.09-.09-.04-.97.26-1.4.09-.12.29-.25.57-.38.12-.05.26-.11.41-.16,1.33-.48,3.57-.89,4.3-.92.37-.02.66-.06.86-.05h0c.1,0,.17.04.23.08.1.08.15.23.14.51,0,.01,0,.03,0,.04,0,.1-.02.22-.04.35h0c-.21-.05-.48-.05-.79,0-.15.02-.32.05-.49.09-.15.04-.31.08-.47.13-.13.04-.25.08-.38.13-.11.04-.22.08-.34.12-.73.28-1.52.66-2.27,1.11-.25.15-.5.3-.74.46-.76.5-1.44,1.05-1.95,1.6-.17.18-.32.37-.44.55-.12.18-.22.36-.3.54-.04.09-.06.17-.09.26-.04.17-.05.34-.03.5.01.08.03.16.06.23.06.15.15.3.28.43.22.22.55.42,1,.58.37.13.55.02.66-.2.19-.37.18-1.05.54-1.46.9-1.03,4.81-2.08,7.31-2.8.58-.17,1.08-.31,1.46-.44.12-.04.23-.08.35-.13,1.68-.7,2.78-2.08,5.27-.96.06.02.1.06.15.09.18.1.34.21.49.34.09.08.18.17.25.27.79.95.9,2.37.98,3.02.01.09.02.17.03.23.01.06.02.1.04.11.07.07.19.1.33.12.09.01.2.02.32.01.6-.02,1.47-.21,2.16-.19.46.01.84.12,1.02.43.1.17.13.41.07.73-.02.11-.05.22-.09.35,1-.07,1.67-.72,2.2-1.49.15-.21.29-.43.42-.65.1-.17.21-.34.3-.51.15-.25.29-.49.43-.71l-2.24-3.56,2.24,3.56c.41-.61.69-1.16,1.44-1.44-.09-.14.06-1.43-.12-2.02-.38-1.32-1.49-2.67.12-2.29-1.19-.61-3.18-.84-4.8-1.44l.85,3.22h0s-.85-3.22-.85-3.22c-2.49-.93-4.43-2.63-6.45-3.38-1.37-.51-6.4-1.42-7.73-1.36-1.34.06-8.41,4.32-11.04,4.71-2.44.37-4.92-.1-6.47-2.12-.44-.58-.32-1.53-.7-1.69-1.6-.66-.98.91-1.32,1.29-1.37,1.53-5.9.46-8.27.64-1.5.12-10.1,1.25-10.8,1.68-.69.42-.88,2.09-1.43,2.89-2.19,3.22-7.43,11.2-7.68,14.91-.05.77.57,2.49.47,2.58-.49.42-1.63-1.13-1.44,1.67.28,3.99,3.62,4.37,4.55,6.5.35.81.16,2.3.25,2.39.25.27,5.98-.1,7.2.96-1.2-1.07-2.13-1.69-2.97-2.14-.14-.07-.28-.14-.42-.21-.96-.47-1.86-.77-3.01-1.36-.16-.08-.33-.18-.51-.27-.17-.1-.35-.2-.54-.32-.12-.07-.23-.16-.35-.27-.22-.22-.42-.5-.6-.83-.27-.5-.5-1.11-.67-1.76-.11-.4-.19-.81-.26-1.23-.08-.5-.13-1-.15-1.49,0-.22-.01-.44,0-.65,0-.42.05-.82.11-1.17.03-.18.07-.34.12-.49.07-.21.15-.39.25-.54.04-.07.08-.14.13-.19.08-.1.16-.17.22-.23.13-.12.23-.17.31-.17.08,0,.15.05.21.14.1.13.21.34.38.57.14.18.26.38.38.59.08.15.16.29.24.45.08.16.16.31.25.47.26.46.54.89.93,1.18.07.05.14.09.21.14.03.02.05.03.08.05.26.13.56.2.92.2,0,0,.01,0,.02,0,.12,0,.25-.01.39-.03-.11-.23-.2-.47-.27-.7-.07-.24-.14-.48-.21-.73-.13-.46-.27-.94-.4-1.39-.09-.3-.17-.59-.23-.86-.06-.27-.1-.52-.11-.73-.02-.43.07-.73.37-.81.3-.08.81.06,1.62.52.2.11.42.25.66.4-.41-.89-4.39-8.27-.72-7.19,1.51.45.03,4.75,1.18,5.53.51.35,1.9.2,2.78.58,1.3.55,3.41,2.9,5.3,3.82,2.82,1.38,5.98,1.76,8.75,2.77,2.79,1.01,1.76,6.37,4.31,8.64-3,1.82-4.58-4.31-5.56-4.53-.59-.13-1.61,1.01-2.8.93-2.66-.19-8.4-2.58-9.87-4.8v.48c-.01.16,0,.32,0,.48s.01.32,0,.48c-.03.3-.46.43-.2.95.04.08.09.16.15.25.08.11.17.22.28.32.28.28.64.53,1.02.77.36.22.73.42,1.09.6.3.15.59.28.84.4.22.1.48.2.76.3.1.04.21.07.32.11.32.11.66.21,1.03.32.62.18,1.3.36,1.98.53.45.12.9.23,1.34.34.28.07.55.14.81.21.5.13.96.26,1.36.39.55.17.99.34,1.24.5.27.17.31.43.27.71-.06.48-.37,1.05-.29,1.44.2-.06.5-.99.71-.96.55.09,3.43,2.72,4.09,3.35-.33-2.18,3.84.34,4.8,1.44h0c.06.07.12.13.18.2.27.3.48.58.62.91.09.23.16.48.16.81h0c.3.4.59.71.86,1.01.52.57.94,1.08,1.08,2.08.01.07.01.14.02.21.16.01.31.03.47.05-.02-.45-.03-.92-.03-1.43h2.88c-.29.55-.5,1.11-.66,1.69.19.03.39.05.58.08.17-.49.39-.92.65-1.3.12-.17.24-.33.38-.48.22-.23.41-.38.58-.48.5-.31.83-.21,1.34-.48h0s0,0,0,0c.52-.27,1.44-.82,1.92-.96-.2.03-.35.02-.46.01-.01,0-.03,0-.04,0-1.06-.17,1.43-2,1.66-2.44.61-1.15,1.1-3.53.76-4.76-.06-.22-.99-.89-1.19-1.45-1.53-4.33,4.73-7.4,7.88-8.88,1.96-.93,6.72-2.12,7.95-3.08,1.4-1.09,2.58-5.12,3.58-5.77h0c.37-.24,2.65-.65,2.88-.47-.13.55-.71.9-.96,1.43,1.94-.46,1.99-1.91,2.41-3.59ZM291.47,340.6c-.09.34-.23.55-.42.66-.06.04-.14.05-.21.07-.03,0-.06.03-.09.03-.44.04-1.03-.27-1.67-.68-.16-.1-.33-.21-.49-.33-.33-.23-.68-.46-1.02-.68-.69-.44-1.37-.81-1.97-.87-.3-.03-.57.02-.82.17-.02.01-.05.05-.07.1-.07.14-.17.4-.37.59-.09.08-.21.16-.36.2-.14.04-.29.07-.44.09s-.3.02-.45.02c-.21,0-.42-.04-.63-.09-.2-.04-.4-.1-.61-.18-.4-.15-.81-.35-1.19-.59-.97-.6-1.87-1.43-2.52-2.24-.03-.04-.06-.07-.09-.11-.16-.2-.3-.4-.42-.59-.01-.02-.03-.05-.05-.07-.01-.02-.03-.05-.05-.08-.05-.08-.1-.16-.15-.25-.04-.06-.07-.13-.11-.2-.25-.45-.53-.99-.68-1.54-.06-.2-.09-.39-.11-.58-.02-.18-.01-.36.01-.53.02-.1.04-.19.07-.28.09-.25.25-.47.51-.65.23-.16,1.66-.14,3.27-.05.46.03.93.06,1.4.1.47.04.92.08,1.35.12s.82.09,1.15.13c.15.02.28.04.4.06.18.03.33.05.45.08.08.02.15.03.2.05.08.03.18.07.3.14.46.28,1.13.89,1.86,1.67.34.36.7.76,1.05,1.18,1.65,1.95,3.21,4.28,2.98,5.14Z"/>
    <path class="cls-15" d="M390.78,235.63c-.47-.63-.41-1.61-.47-1.68-.97-1.11-1.16,1.35-.47,1.91-2.09-.63-3.55.6-5.09.91-5.79,1.17-6.31.21-11,4.35-2.01,1.78-3.52,4.55-5.98,5.29.03.2.03.42.04.64.03.93-.09,1.95,0,2.92.14,1.5.93,1.49.44,3.16h0c-.61,2.1-1,1.17-2.88,1.68,1.36.62,3.01,3.13,4.32,3.12.07,0,.12,0,.19,0,.11,0,.22,0,.33,0,2.33.02,3.43.37,4.6.78.91.32,1.87.66,3.49.92,2.07.32,7.85-.36,9.62-2.3.23-.26.41-.54.48-.84.05-.19-.37-.81-.25-1.18.8-2.45,3.15-3.61,3.41-4.53.7-2.6.46-6.19.72-8.88.1-1.01.92-2.09.89-2.93-.05-1.16-1.72-2.46-2.38-3.34ZM374.49,244.5c-.34-2.38.77-2.61,2.87-2.39.58.5-1.83,3-2.87,2.39Z"/>
    <path class="cls-16" d="M331.41,329.04c-.48-1.68.63-2.87-1.54-3.97-1.61-.37-.5.97-.12,2.29.17.59.03,1.89.12,2.02.08.13,1.52-.19,1.49,1.68-.02,1.55-.96,1.41-1.49,2.15l1.93.25c-.42,1.68-.47,3.13-2.41,3.59-.38.82-.62,2.01-.96,2.88.34-.23.65-.78.96-.96,3.43-1.96,3.55.75,3.25,3.49-.08.72-.75,1.54-.76,2.12,0,.75.85,1.22.85,1.35,0,.29-2.07,1.19-2.52,2.3-.41,1.03.32,2.56.14,2.73-.07.07-1.26-.07-1.9.25-.72.37-1.38,1.87-2.18,1.67-.31-.08-1.62-2.71-1.69-3.18-.17-1.04.37-1.19.49-1.61.04-.15-.03-.33,0-.48v-.48c-1.19,1.71-1.84,1.46-3.15,2.39-.46.32-.55,1.21-.78,1.35-2.07,1.25-5.35-1.22-10.46,3.46,1.8.04,3.6-.14,5.39.12,2.34.34,6,2.35,7.73,2.25,3.05-.17,9.69-2.87,11.08-5.76,1.41-2.93,1.86-11.26,1.09-14.47-.94-3.95-3.98-5.41-4.56-7.43Z"/>
    <path class="cls-12" d="M286.71,354.56c-.25-.16-.69-.33-1.24-.5-.4-.13-.86-.26-1.36-.39-.26-.07-.53-.14-.81-.21-.44-.11-.89-.23-1.34-.34-.68-.17-1.35-.35-1.98-.53-.37-.1-.71-.21-1.03-.32-.11-.04-.22-.07-.32-.11-.28-.1-.54-.2-.76-.3-.25-.12-.54-.25-.84-.4-.36-.18-.74-.38-1.09-.6-.38-.24-.74-.49-1.02-.77-.11-.11-.2-.21-.28-.32-.07-.09-.12-.18-.15-.25-.25-.53.17-.66.2-.95-2.76.36-3.9-2.59-5.28-4.32.07.25.13.49.21.73.07.24.16.47.27.7-.14.02-.27.03-.39.03,0,0-.01,0-.02,0-.36,0-.66-.07-.92-.2-.03-.01-.05-.03-.08-.05-.07-.04-.14-.09-.21-.14-.39-.29-.68-.72-.93-1.18-.09-.15-.17-.31-.25-.47-.08-.15-.16-.3-.24-.45-.12-.21-.24-.41-.38-.59-.18-.23-.28-.44-.38-.57-.07-.09-.13-.14-.21-.14-.08,0-.18.05-.31.17-.07.06-.14.14-.22.23-.05.05-.09.13-.13.19-.1.15-.18.33-.25.54-.05.15-.09.32-.12.49-.07.35-.1.75-.11,1.17,0,.21,0,.43,0,.65.02.48.07.99.15,1.49.07.42.15.83.26,1.23.17.65.4,1.26.67,1.76.18.33.38.62.6.83.11.11.23.2.35.27.19.11.37.22.54.32.17.1.34.19.51.27,1.14.59,2.04.89,3.01,1.36.14.07.28.14.42.21.85.45,1.77,1.07,2.97,2.14,0,0,0,0,0,0,1.75,1.57,10.22,2.08,12.47,1.44-.07-.39.23-.96.29-1.44.04-.29,0-.55-.27-.71Z"/>
    <g>
      <path class="cls-17" d="M326.02,100.63s0,0,0,0l2.4.48c.1-1.56.53-3.94,1-5.39.13-.4.74-.37.87-.75.37-1.04,1.2-3.48-.91-3.46.02-.03.03-.06.04-.09-.02,0-.03,0-.05,0,.05-.09.1-.2.15-.29-1.99.61-1.91,3.3-1.96,4.76-.1.27-.21.55-.35.88-.05.12-.12.22-.18.3-.44.24-1.04.42-1.22.96-.05.13-.07.28-.09.43-.01.03-.02.07-.04.1,0,0,0,0,0,.01-.12.32-.19.73-.16,1.32.02.41.14.58.26.66,0,.25-.03.49-.11.7-.09.28-.32.46-.57.61.51-.2.96-.52.92-1.24Z"/>
      <path class="cls-17" d="M359.45,122.29c-.34-.63-.63-1.14-.66-1.35-.12-.77.88-1.86-.13-2.57.33,2.65-4.38,3.19-4.37.24,0-1.27,1.55-2.46,2.71-2.64.61-.1,1.61,1.73,1.67,1.93,0,0,0-.02,0-.03,0-.02,0-.04,0-.06,0,0,0,0,0-.01-.11-.96.26-2.16.97-2.78-1.41.26-1.03-.7-.91-1.61.18-1.39,1.08-3.04.93-4.38-.12-1.01-.86-1.01-.98-1.2-.37-.61-.44-1.39-.49-1.44-.09-.09-1.27.82-1.93.28-1.62-1.3-.73-6.26-.94-8.19-.42-3.76-2.53-11.07-.99-14.43.91-1.99,2.24-1.5,2.46.5.28,2.54.37,5.37.46,7.93l1.43-1.92c.89-.6.98-1.64,1-2.64.02-.8-.44-5.78-.61-6.58-.22-1.03-1.32-2.01-1.32-3.01,0-.98,1.09-1.75.93-3.31-.12-1.2-1.22-1.85-1.42-2.94-.93-4.95-.23-8.01-2.42-13.17-2.71-1.09-.59,2.67-.52,3.64.22,2.86.57,12.1-3.56,12.24-.37.01-8.33-2.5-5.78.93.5.68,5.67.52,4.1,2.37-.21.25-5.31-1.74-6.23.73l1.92.71c.6,1.86-1.18,3.8-1.35,5.14-.12.99.52,2.09.43,3.25-.1,1.24-.72,7.33-1.12,7.79-.7.81-4.68.7-5.88.6-1.05-.09-2.73-.96-2.88-.94-.7.08-.65,1.83-.73,1.9-.7.66-3.45-2.6-1.9,2.4.81.09.41-1.1,1.25-1.39,1.13-.4,6.7,1.63,7.41,2.56,1.72,2.27-1.16,1.78-1.45,2.22-.06.08.62.98.27,1.43-.49.63-1.81.04-1.72.93,8.67.76-2.2,3.48-5.28,2.89,1.7,1.58.3,2.98.97,4.79-3.48-.31.75,2.11.37,4.02-.23,1.15-1.67,2.42-2.78.78-.27-.99-.02-2.25-1.65-2.36-2.82-.19-3.97,5.31-4.59-.04-.41.84-1.97,3.4-1.95,4.06,0,.18.48.21.77.35h0c.11.05.19.12.22.22.03.14.05.27.06.41-.13.86-.57,2.2-.55,3.32,0,.18.02.35.04.52.06.33.17.62.37.86.1.12.22.22.36.31.9-2.76,2.04-5.79,3.95-8.03.16-.19.29-.37.42-.52.06-.08.12-.15.18-.21.19-.19.39-.33.69-.37.1-.02.21-.02.34-.02.12,0,.26.02.42.05.1.24.18.48.25.72.08.24.15.47.23.72.03.09.07.23.12.41.05.18.11.39.17.63.2.71.45,1.62.67,2.37.07.25.14.48.21.68.04.14.08.26.12.36.04.1.07.18.1.24h0s0,0,0,0c0,.04.02.09.02.13.13.13.49-.02.97-.25.19-.08.41-.18.63-.27.3-.12.62-.24.94-.33.16-.04.32-.08.47-.1.16-.02.31-.03.45-.03.34.01.65.12.9.36l.43,3.49s.06-.02.09-.04c0,0,0,0,0,0,.21-.07.41-.14.58-.19,2.31-.72,2.14-.09,2.77,1.36.16.36.37.78.68,1.23.19,0,.32-.21.44-.55s.23-.8.35-1.31c.08-.34.17-.7.28-1.05.21-.69.49-1.35.9-1.81.6-.17,1.32-.35,1.96-.46.17.08.3.23.39.44.07.17.12.38.16.61.04.23.06.49.08.76.01.13.02.27.03.41.09,1.12.24,2.36,1.15,3.02.11.08.27.13.48.16.21.03.45.04.71.04.68,0,1.44-.12,1.76-.21,0,0,0,0,.02,0,.05,0,.08,0,.13,0,0-.01,0-.03,0-.05,0,0,0,0,0,0,.05-.05.07-.24.07-.52,0-.09,0-.2,0-.31,0-.22,0-.48-.01-.76s0-.57.02-.87c0-.15.02-.3.03-.45.08-.84.28-1.63.75-2.08.12-.08.26-.15.42-.19.16-.04.29-.05.42-.06.34.11.59.43.78.78.25.5.38,1.04.46,1.11.24.2.4.26.52.23,0,0,.02,0,.02,0,.08-.02.14-.08.18-.17.09-.17.14-.45.19-.71.03-.13.05-.27.09-.39.02-.06.04-.11.07-.16.01-.03.02-.07.04-.1h0c.14-.08.27-.14.38-.19t0,0c.05,0,.11.02.17.05.24.11.4.28.52.51.09.19.15.4.19.63-.03.58-.13,1.16,0,1.28.02,0,.03,0,.05,0,0,.03,0,.07,0,.1,0,.13-.01.24-.01.35.08.1.25.09.48.02.17-.05.36-.14.57-.25.64-.33,1.42-.84,1.98-1.09h0c.45.24.95.7,1.43,1.12,0,0,0,0,0,0,.52.67,1.18,1.25,1.78.68.02-.02.04-.06.05-.11.53-.84-.48-2.75-1.21-4.1ZM357.22,124.61c-.51-.2-1.5.3-1.86-.78-1.1-3.3,3.23-3.24,3.73-1.3.34,1.32-.95,1.56-1.86,2.09Z"/>
    </g>
    <g>
      <path class="cls-13" d="M281.45,109.72c-.2.02-.54.06-.67-.1-.41-.51.22-2.06-.8-2.83-.16-.12-.36-.2-.57-.26-.59-.24-1.27-.19-1.61-.22-.13-.2-.23-2.66-.75-3.79-.49-1.07-1.97-2.2-2.06-2.69-.11-.59.62-1.73.37-2.09-.02-.03-.1-.06-.21-.08-.31-.42-1.05.23-1.89-1.13-.24-.39-.49-.94-.74-1.75-.99-3.19-3.06-10.31-3.52-13.31-.02-.13-.02-.26-.02-.39.03-.94.51-1.79.43-2.7,0-.03,0-.06,0-.08-.01-.14-.03-.29-.08-.43-.06-.22-.21-.4-.38-.58-.24-.24-.55-.45-.88-.67-.48-.31-.98-.63-1.34-1.08-.13-.16-.24-.33-.33-.53-.22-.53-.29-1.03-.32-1.49,0-.2-.01-.39-.02-.57-.02-.52-.07-.94-.39-1.23-.3-.27-.86-.43-1.88-.43-.05,0-.1,0-.15,0,.03.03.07.06.1.09-.04,0-.06,0-.1,0,.64.67,1.78.92,1.85,1.03.29.47-.11,1.8.32,2.8.46,1.06,3.78,2.49,3.11,3.36-1.22-1.3-2.85-1.16-3.6.5-.93,2.06,2.74,6.36,3.04,8.98.36,3.11.15,6.83.09,9.94-.05,2.68,1.59,2.68,1.84,3.42.42,1.28-.19,2.93.83,4.47,1.01,1.54,3.03.91,3.11,3.14.06,1.62-3.14.19-4.23.83-.36.21-2.28,2.55-3.82,3.22-.77.33-2.68-.44-2.51,1.47,1.78.31,4.17-1.86,5.78-.74,1.13.78-.06,2.53.08,3.33.54,3.01,5.43-.67,6.61-.66.02,0,.03,0,.05,0,.11,0,.23.03.34.07,0,0,0,0,0,0,.36.11.76.34,1.17.55.05.03.11.05.16.08.11.05.23.11.35.16,0,0,0,0,0,0,0,0,0,0,0,0,.47.18.95.27,1.43.08h0s0,0,0,0c.13-.05.26-.12.38-.2.02-.02.05-.02.07-.04.15-.11.29-.25.44-.43.01-.02.03-.06.05-.12.04-.12.08-.33.13-.6.15-.81.36-2.15.51-3.39.05-.41.1-.81.14-1.18.02-.18.04-.36.05-.52.03-.32.05-.6.05-.81,0-.2,0-.34-.03-.38Z"/>
      <path class="cls-13" d="M262.7,69.85c-1.51-2.17-2.87-5.28-4.32-7.67.13.22.21.39.27.54-.09-.15-.18-.31-.26-.45,1.12,1.88-.84,1-.4,2.53.14.5,2.14,4.95,2.37,5.12.41.28,1.71-.6,2.35.03-.03-.05-.06-.1-.1-.15.03.02.07.03.09.06Z"/>
      <path class="cls-13" d="M244.5,114.02c-1.36-2.16,3.66-1.74,4.29-2.37,1.31-1.3-2.3-.85-2.4-.95-.06-.07-.09-1.62.09-1.84.62-.73,6.26-1.7,7.59-2,1.25-1.36-5.74-3.26-7.23-2.19-.88.63.37,2.82-1.88,2.19l.96,2.39h-4.8c-1.45-2.6-1.03-2.29,1.48-4.03,2.74-1.89,5.68-1.4,8.92-3.08,5.27-2.72,1.38-2.48-.32-3.69-.6-.42-.51-1.66-1.16-2.2-.62-.51-1.79-.07-1.72-.91,1.38.02,3.81.38,4.25-1.31.21-.81-.71-3.48,1.75-3.5,1.8-.02,1.85,3.47,3.59,3.37-.68-3.01-2.39-5.68-1.94-8.89.25-1.78,1.22-1.69,1.82-2.98.98-2.11-.52-7.69-.87-10.42-.14-1.07.4-2.2.21-3.14-.11-.59-1.9-5.93-2.16-6.4-.96-1.7-2.5-1.54-2.74-1.81-.29-.33.39-7.73-3.57-6.59-3.3.95-.77,7.93-1.27,9.71-.06.21-2.77,1.07-3.62,2.23-.97,1.31-1.58,4.11-1.69,5.75-.91.04-.98.23-.97-.73.02-1.72,1.29-3.95.02-5.51,0-.02,0-.05,0-.07,0,0,0,0,0-.01,0,0,0,0,0,0-.16,1.4-.43,3.45-.5,4.94,0,.2-.02.39-.02.57,0,.03,0,.06,0,.09,0,0,0,0,0,0,0,1.29.33,2.64.5,3.95.01.1.02.21.04.31.02.15.04.29.05.44.01.25.01.5,0,.75-.01.24-.04.47-.08.7-.23,1.18-1.63,1.8-1.75,3.43,0,.02,0,.04,0,.06,0,.16,0,.32,0,.48.08,1.27.77,2.87.82,4.23.02.67,0,1.37-.01,2.08,0,.1,0,.2-.01.29-.02.64-.05,1.29-.09,1.95,0,.04,0,.07,0,.1-.06.97-.13,1.96-.2,2.94-.03.48-.06.97-.09,1.45,0,.16-.02.32-.03.48-.02.32-.04.64-.05.95-.02.46-.04.91-.04,1.35,0,.05,0,.11,0,.16,0,.54,0,1.08.01,1.6,0,.01,0,.03,0,.04,0,.02,0,.04,0,.05.04,1.26.75,3.24.84,4.64,0,.18,0,.36,0,.51-.06.59-.5,1.16-.86,1.81-.21.38-.38.79-.45,1.25,0,.07-.02.13-.02.2,0,.06-.02.11-.02.17,0,0,0,0,0,.01,0,.02,0,.03,0,.04,0,.01,0,.02,0,.03.02,1.52,1.39,1.85,1.47,2.81,0,0,0,.02,0,.03,0,.06,0,.11-.02.17,0,.04,0,.09-.02.13-.14.54-.59,1.11-1.02,1.67-.28.36-.54.72-.71,1.07-.11.23-.17.46-.18.68,0,.04,0,.08,0,.11,0,0,0,.01,0,.02,0,0,0,.01,0,.02,0,0,0,.01,0,.02,0,.03,0,.06,0,.09.01.08.03.16.07.25.01.03.02.06.04.09.04.08.1.17.17.25.02.02.04.05.06.07.08.09.18.17.3.26.02.02.04.04.07.05.15.1.32.2.52.3,0,0,0,0,0,0,.2.09.42.19.68.28,0,0,0,0,0,0-.25.3-.62.71-.9.89.02,0,.04,0,.06,0-.12.12-.22.27-.29.45.06-.03.13-.07.2-.11.07-.04.13-.08.2-.12.06-.04.12-.07.18-.1h0c.06,0,.12.01.18.03,0,.29,0,.58,0,.87,0,.65,0,1.21.02,1.71,0,.25.02.48.03.7.02.43.05.81.09,1.15.07.64.17,1.14.31,1.65.19-1.2.8-1.87.95-3.07.12-1-.48-1.73-.48-2.11,0-.06.4-.33.4-.73,0-1.07-1.02-1.47.56-2.15.32,0,.64,0,.96,0l.73.49c-1.66.29-1.74,3.63.24,2.87.65.63-4.58,5.49.21,5.29,4.07-.16,2.07-1.18,2.17-2.62,0-.1.42.02.77-1.45.14-.59.68-.92.68-.98.04-.74-2.31-.85-2.87-.72.62-1.73,2.27-.37,3.58-.45.86-.06,11.23-2.76,9.37-4.33-2.2-.63-12.41,2.97-13.4,1.4ZM248.05,82.42c1.09-1.78,3.45-1.04,5.06-1.45l.96,5.75c-2.14.61-2.64-.55-3.88-1.17-.58-.29-1.53-.14-1.78-.35-.26-.21-.68-2.25-.36-2.78ZM245.68,95.36l.24.95h-1.93c.24,1.99,1.22,5.6-1.91,4.79,1.82-2.31-.2-4.86,3.61-5.74Z"/>
      <path class="cls-13" d="M267.78,119.32c-1.37.93.53.88.98,1.15.28.17.08.82.87.83,1.01,0,6.61-1.36,5.07-2.91-1.71.55-5.71.12-6.92.94Z"/>
    </g>
    <g>
      <path class="cls-13" d="M359.34,114.52c-.12-.14.07-1.05,0-1.44-.05-.28.02-.64,0-.96,1.17-2.04,1.53-3.48-.48-4.8,0-.26-.03-.56,0-.82.03-.1.06-.21.1-.31.12-.18.32-.47.38-.79,0-.03.42-.12.48-.48.4-2.65-1.28-2.79-1.46-4.1-.1-.71.27-1.98.45-2.88.12-.31.23-.62.34-.92.19-.54.33-1.06.33-1.52,0-.02,0-.05,0-.07,0,0,0-.01,0-.02,0-1.14-1.24-2.28-1.31-3.54,0-.42.13-.86.49-1.31l-1.43,1.92c-.09-2.56-.18-5.39-.46-7.93-.22-2-1.55-2.48-2.46-.5-1.54,3.37.57,10.67.99,14.43.22,1.93-.68,6.89.94,8.19.66.53,1.84-.37,1.93-.28.05.05.13.83.49,1.44.11.19.86.19.98,1.2.16,1.34-.75,2.99-.93,4.38-.12.91-.5,1.88.91,1.61-.71.62-1.08,1.82-.97,2.78,0,0,0,0,0,.01,0,.02,0,.04,0,.06,0,0,0,.02,0,.03-.05-.2-1.05-2.02-1.67-1.93-1.15.18-2.7,1.37-2.71,2.64,0,2.95,4.7,2.41,4.37-.24,1.01.72.02,1.8.13,2.57.03.21.31.72.66,1.35,0-.02-.01-.04-.02-.06-.11-.34-.19-.62-.21-.8,0-.05-.01-.12-.02-.19-.01-.15-.02-.35-.03-.58,0-.11,0-.23-.01-.36-.02-.64-.03-1.42-.03-2.16,0-1.03.01-1.94.05-2.19.02-.1.17-.32.34-.56.12-.16.25-.32.36-.47.17-.22.29-.39.26-.41h.16c-.12-.11-.86.12-.96,0Z"/>
      <path class="cls-13" d="M355.36,123.83c.36,1.08,1.35.59,1.86.78.91-.52,2.2-.77,1.86-2.09-.5-1.94-4.83-2-3.73,1.3Z"/>
    </g>
    <g>
      <path class="cls-17" d="M238.67,113.84s0-.01,0-.02c0,0,0-.01,0-.02,0,.01,0,.02,0,.03Z"/>
      <path class="cls-17" d="M276.63,118.04c-.07-.54-.21-1.07-.44-1.58-.02,0-.03,0-.05,0-1.18,0-6.07,3.67-6.61.66-.14-.8,1.05-2.55-.08-3.33-1.61-1.12-4.01,1.05-5.78.74-.16-1.91,1.74-1.14,2.51-1.47,1.54-.67,3.46-3.01,3.82-3.22,1.09-.64,4.29.79,4.23-.83-.08-2.23-2.09-1.59-3.11-3.14-1.01-1.54-.4-3.18-.83-4.47-.24-.74-1.89-.75-1.84-3.42.06-3.11.27-6.84-.09-9.94-.3-2.62-3.97-6.92-3.04-8.98.75-1.66,2.38-1.79,3.6-.5.67-.87-2.65-2.3-3.11-3.36-.43-1-.03-2.33-.32-2.8-.07-.11-1.21-.36-1.85-1.03-.15-.16-.7-1.07-.96-1.44-.63-.63-1.94.25-2.35-.03-.23-.16-2.23-4.61-2.37-5.12-.43-1.52,1.52-.65.4-2.53-2.79-4.6-6.62-12.83-11.46-9.83-.23.14-.46.3-.7.5,0,0,0,0,0,0-.22.18-.44.4-.67.63-.09.09-.18.2-.27.3-.13.14-.25.29-.38.45-.12.15-.24.29-.36.46-.09.13-.19.27-.28.4-.12.17-.24.33-.36.52-.76,1.17-1.27,2.28-1.65,3.4,0,.02-.01.04-.02.05-.12.35-.22.71-.32,1.07,0,.02,0,.03-.01.05-.09.37-.18.74-.25,1.12,0,.02,0,.04-.01.07-.04.19-.07.39-.11.58-.29.42-.28,1.07-.25,1.69-.05.43-.11.88-.16,1.34,0,0,0,0,0,.01,0,.02,0,.05,0,.07,1.27,1.55,0,3.79-.02,5.51,0,.96.07.77.97.73.11-1.63.73-4.43,1.69-5.75.85-1.15,3.56-2.02,3.62-2.23.49-1.78-2.04-8.76,1.27-9.71,3.96-1.14,3.28,6.26,3.57,6.59.24.27,1.79.11,2.74,1.81.26.47,2.05,5.8,2.16,6.4.18.94-.35,2.07-.21,3.14.35,2.73,1.85,8.31.87,10.42-.59,1.28-1.57,1.19-1.82,2.98-.44,3.22,1.26,5.89,1.94,8.89-1.74.1-1.79-3.39-3.59-3.37-2.46.03-1.54,2.69-1.75,3.5-.44,1.69-2.87,1.33-4.25,1.31-.06.84,1.1.4,1.72.91.65.54.56,1.78,1.16,2.2,1.7,1.21,5.59.97.32,3.69-3.24,1.67-6.18,1.19-8.92,3.08-2.51,1.73-2.94,1.42-1.48,4.03h4.8s-.96-2.4-.96-2.4c2.26.62,1-1.56,1.88-2.19,1.49-1.07,8.48.83,7.23,2.19-1.32.29-6.97,1.27-7.59,2-.18.22-.15,1.77-.09,1.84.1.1,3.71-.35,2.4.95-.63.62-5.65.2-4.29,2.37.99,1.57,11.2-2.03,13.4-1.4,1.85,1.57-8.52,4.28-9.37,4.33-1.31.08-2.96-1.27-3.58.45.55-.13,2.9-.02,2.87.72,0,.06-.54.39-.68.98-.34,1.47-.76,1.36-.77,1.45-.1,1.44,1.91,2.45-2.17,2.62-4.8.19.43-4.66-.21-5.29-1.98.76-1.9-2.59-.24-2.87l-.73-.49c-.32,0-.64,0-.96,0-1.59.68-.57,1.08-.56,2.15,0,.4-.4.66-.4.73,0,.38.6,1.1.48,2.11-.15,1.2-.76,1.87-.95,3.07-.08.48-.09,1.03.02,1.74.2,1.26.71,1.69,1.15,1.9h0c.03.09.05.17.08.27.05.18.06.43.06.71,0,.18-.01.38-.02.57,0,.06,0,.11,0,.17-.21.39-.28.75.18.92,0,0,0,0,0,.01.22.22.7.04,1.68-.93.3-.29.57-.58.83-.87.38-.43.73-.86,1.04-1.3.31-.44.6-.88.87-1.34h0c.25-.22.47-.39.67-.45.2-.33.26-.89.33-1.45.1-.2.2-.41.3-.62.31-.66.57-1.05.78-1.25h0c.12.01.25.04.41.11.14.06.25.17.34.31h0c.1.34.17.82.22,1.35.07.8.1,1.72.11,2.57,0,.2,0,.4,0,.59-.06.97-.11,1.75.04,1.89.03.03.27.06.59.1,0,0,0,0,0,0h0c.06.01.13.02.19.04.06.01.12.02.19.04.02,0,.03,0,.05,0,.19.03.4.07.61.1.22.04.45.07.66.1,0,0,0,0,0,0,.25.03.47.06.66.08.13.01.25.02.32.02.06,0,.1,0,.11-.02.06-.05.13-.3.21-.63.06-.24.13-.51.21-.82,0,0,0,0,0,0,.41-1.1.63-2.53,1.49-2.83h0c.07-.02.14-.03.22-.02.29.03.53.08.74.14.51.17.79.46.93.81.03.07.05.15.07.22.11.41.09.89.08,1.38,0,.74,0,1.5.5,2.11.26.32.79.62,1.4.81.09.03.19.04.29.07.35.15.77.23,1.3.22.19,0,.35-.09.5-.23h0c.29-.1.55-.24.74-.47.17-.21.3-.44.4-.68.26-.6.35-1.25.5-1.79.03-.11.06-.21.1-.31.33-.47.74-.8,1.27-.84.19.02.42.07.68.15.53.3.98.89,1.36.58.15.07.29.14.45.23.05-.69.13-1.25.26-1.7.32-1.13.87-1.58,1.57-1.71.28-.05.58-.05.9-.02,1.12.11,2.46.6,3.78.5.14-.01.27-.06.39-.11.37-.17.68-.49.99-.65.14-.07.28-.11.43-.09.56.08.87,1.18,1.76.89-.02-.27-.03-.55-.03-.83,0-.28,0-.57.02-.85.04-1.14.14-2.31-.01-3.42ZM267.78,119.32c1.21-.82,5.21-.39,6.92-.94,1.54,1.55-4.05,2.92-5.07,2.91-.79,0-.6-.66-.87-.83-.45-.27-2.35-.22-.98-1.15Z"/>
      <path class="cls-17" d="M276.8,116.65s.04.02.06.03c.12.06.24.12.37.19.15.07.31.15.47.22-.42-.21-.81-.44-1.17-.55.09.03.18.08.28.12Z"/>
      <path class="cls-17" d="M277.86,117.16c.06.03.12.06.19.09.05.02.1.05.16.07-.12-.05-.23-.1-.35-.16Z"/>
      <path class="cls-17" d="M239.86,92.37c.07-.99.14-1.97.2-2.94-.11.97-.19,1.95-.2,2.94Z"/>
      <path class="cls-17" d="M240.57,115.48s0,0,0,0c-.25-.09-.48-.18-.68-.28.2.1.42.19.67.28Z"/>
      <path class="cls-17" d="M250.19,85.55c1.24.62,1.74,1.78,3.88,1.17l-.96-5.75c-1.61.42-3.97-.32-5.06,1.45-.32.53.1,2.57.36,2.78.26.21,1.2.06,1.78.35Z"/>
      <path class="cls-17" d="M245.68,95.36c-3.8.88-1.78,3.43-3.61,5.74,3.14.81,2.15-2.81,1.91-4.79h1.93s-.24-.96-.24-.96Z"/>
    </g>
    <path class="cls-12" d="M328.43,330.82s0,0,0,0c-.14.21-.29.46-.43.71-.1.17-.2.34-.3.51-.13.22-.27.44-.42.65-.54.77-1.2,1.42-2.2,1.49h0c.04-.13.07-.24.09-.35.06-.32.02-.56-.07-.73-.17-.31-.56-.42-1.02-.43-.69-.02-1.56.16-2.16.19-.12,0-.22,0-.32-.01-.15-.02-.26-.05-.33-.12h0s-.03-.05-.04-.11c-.01-.06-.02-.13-.03-.23-.08-.65-.19-2.07-.98-3.02-.08-.09-.16-.18-.25-.27-.14-.13-.31-.24-.49-.34-.05-.03-.1-.06-.15-.09-2.49-1.12-3.58.26-5.27.96-.11.05-.23.09-.35.13-.37.13-.88.27-1.46.44-2.5.72-6.42,1.77-7.31,2.8-.36.41-.35,1.09-.54,1.46-.11.22-.29.33-.66.2-.45-.16-.78-.36-1-.58-.13-.14-.23-.28-.28-.43-.03-.08-.05-.15-.06-.23-.02-.16,0-.33.03-.5.02-.09.05-.17.09-.26.07-.18.17-.35.3-.54.12-.18.27-.36.44-.55.5-.55,1.19-1.1,1.95-1.6.24-.16.49-.31.74-.46.75-.44,1.54-.82,2.27-1.11.11-.04.23-.09.34-.12.13-.05.26-.09.38-.13.16-.05.32-.09.47-.13.17-.04.34-.07.49-.09.31-.04.58-.04.79,0h0c.02-.14.03-.25.04-.35,0-.01,0-.03,0-.04.01-.28-.04-.43-.14-.51-.06-.05-.13-.08-.23-.08h0c-.2-.02-.49.03-.86.05-.73.03-2.97.44-4.3.92-.15.05-.29.11-.41.16-.28.12-.48.25-.57.38-.3.43-.17,1.31-.26,1.4-.13.13-.64-.02-1.23-.18-.44-.12-.93-.24-1.35-.24-.14,0-.27,0-.39.04-.52.12-2.34,1.55-3.23,2.45-.11.11-.21.21-.28.3-.05.06-.09.11-.13.16-.03.05-.06.09-.07.13,0,.02,0,.04-.01.06-.47,1.42,3.95.98,4.26,1.19.15.1.56,1.84,1.44,3,.08.11.16.21.25.3.17.19.36.35.57.48.1.06.21.11.32.16.11.04.23.07.35.09h0c-.25.26-.56.53-.86.81-.07.07-.15.14-.22.21-.21.21-.41.43-.56.65-.05.07-.09.15-.13.22-.04.09-.07.18-.1.27-.11.45.04.92.69,1.43h0c3.76-1.19,12.57-6.22,18.01-7.17.36-.06.71-.11,1.04-.13.76-.06,1.42,0,1.96.19.74.25,1.31,1.92,1.84,2.22.05.03.1.06.15.06.08,0,.84-.73,1.2-.93,1.66-.96,1.31-.88,2.4-2.4.54-.75,1.47-.61,1.49-2.15.03-1.88-1.41-1.55-1.49-1.68-.75.28-1.03.83-1.44,1.44Z"/>
    <path class="cls-12" d="M288.49,335.46c-.35-.42-.71-.81-1.05-1.18-.73-.77-1.4-1.39-1.86-1.67-.11-.07-.21-.12-.3-.14-.05-.01-.12-.03-.2-.05-.12-.03-.27-.05-.45-.08-.12-.02-.25-.04-.4-.06-.34-.04-.73-.09-1.15-.13s-.88-.08-1.35-.12c-.47-.04-.94-.07-1.4-.1-1.61-.1-3.04-.11-3.27.05-.25.18-.42.4-.51.65-.03.09-.06.19-.07.28-.03.17-.03.34-.01.53.02.19.06.39.11.58.15.55.43,1.09.68,1.54.04.07.08.13.11.2.05.09.1.18.15.25.02.02.03.05.05.08.15-7.4,7.96-2.13,7.2,2.88.24-.15.52-.2.82-.17.6.06,1.28.43,1.97.87.34.22.69.46,1.02.68.17.11.33.22.49.33.65.41,1.23.72,1.67.68.03,0,.06-.02.09-.03.07-.02.15-.03.21-.07.18-.11.33-.32.42-.66.23-.86-1.33-3.19-2.98-5.14Z"/>
    <path class="cls-7" d="M277.58,336.09s.03.05.05.07c.12.19.27.39.42.59.03.04.06.07.09.11.65.8,1.54,1.64,2.52,2.24.39.24.79.44,1.19.59.2.07.4.13.61.18.21.05.42.08.63.09.15,0,.3,0,.45-.02s.29-.05.44-.09c.15-.04.26-.11.36-.2.21-.19.3-.45.37-.59.02-.05.05-.08.07-.1.76-5.01-7.05-10.28-7.2-2.88Z"/>
    <path class="cls-7" d="M274.7,348.56c.01-.16,0-.32,0-.48s-.01-.32,0-.48c-.52-.17-.35-.73-.48-.96-.95-1.77-2.03-3.43-2.88-5.28-.24-.15-.46-.29-.66-.4-.81-.45-1.32-.59-1.62-.52-.3.08-.4.38-.37.81.01.22.05.46.11.73.06.27.14.56.23.86.13.45.28.93.4,1.39,1.38,1.72,2.51,4.67,5.28,4.32Z"/>
    <path class="cls-4" d="M274.22,346.64c.13.23-.05.79.48.96v-.48c-.12-.18-.34-.31-.48-.48Z"/>
    <path class="cls-7" d="M304.06,363.91c-.17.1-.36.26-.58.48l.45-.22,1.04-.52.43-.21h0c-.51.27-.84.16-1.34.48Z"/>
    <path class="cls-7" d="M297.09,361.66c-.14-.33-.36-.61-.62-.91-.06-.07-.11-.13-.18-.2h0c0,.17,0,.31.03.45.12.63.55.96.93,1.47h0c0-.33-.07-.58-.16-.81Z"/>
    <path class="cls-10" d="M374.49,244.5c1.05.61,3.45-1.89,2.87-2.39-2.11-.21-3.21.01-2.87,2.39Z"/>
    <path class="cls-12" d="M329,346.49c-.72,1.45-3.05,5.08-3.92,1.59-.12.42-.66.58-.49,1.61.08.48,1.39,3.1,1.69,3.18.79.2,1.46-1.3,2.18-1.67.64-.33,1.83-.19,1.9-.25.18-.17-.56-1.71-.14-2.73.45-1.11,2.52-2.01,2.52-2.3,0-.14-.86-.6-.85-1.35,0-.58.68-1.4.76-2.12.3-2.73.18-5.45-3.25-3.49,2.94.12.28,6.17-.39,7.52Z"/>
    <path class="cls-7" d="M325.07,347.6c-.03.15.04.33,0,.48.87,3.48,3.2-.14,3.92-1.59.67-1.35,3.33-7.4.39-7.52-.31.18-.62.73-.96.96-.75,1.93-1.67,3.83-2.4,5.75-.22.59.21,1.66-.96,1.92Z"/>
    <path class="cls-12" d="M326.03,345.68c-.6.31-.66,1.01-.96,1.44v.48c1.17-.25.74-1.33.96-1.92Z"/>
    <path class="cls-8" d="M225.79,258.39s-.02,0-.03.01c-.03,0-.08.02-.11.03.11,0,.21,0,.32-.01.02-.02.05-.05.07-.07-.08.01-.17.03-.25.04Z"/>
    <path class="cls-6" d="M225.05,237.26s-.03-.01-.04-.02c0,.02.02.03.03.05v-.04Z"/>
    <path class="cls-6" d="M226.28,258.32c.1-.12.22-.24.34-.35-.28.11-.56.34-.82.42.08-.01.17-.03.25-.04.08-.01.16-.02.24-.04Z"/>
    <path class="cls-6" d="M208.43,242.1c-.03.11-.04.22-.07.33.04-.11.08-.22.13-.33-.02,0-.04,0-.06,0Z"/>
    <path class="cls-14" d="M225.65,258.43s0,0,0,0c.03,0,.08-.02.11-.03-.04.01-.07.02-.11.03Z"/>
    <path class="cls-5" d="M217.6,258.4c-.46.27-2.7-.02-3.35-.47.22.54.48,1.01.88,1.21,1.59.81,6.13-.18,9.21-.58-2.13-.13-4.58-1.59-6.05-1.58-1.57,0-.6,1.37-.68,1.42Z"/>
    <path class="cls-15" d="M228.16,236.82c-.19-.14-.39-.29-.59-.45,0,0,0,0,0,0-.37-.29-.76-.57-1.19-.76l-.2,1.2c-.35,0-.73.05-1.07-.05l-.06.49v.04s-.03-.04-.04-.05h0c-.35-.69-1.07-.92-1.63-1.14,0,0,0,0,0,0-.2-.08-.37-.15-.5-.24-1.05-.74-1.96-1.63-2.87-2.43,0,0,0,0,0,0-1.72-1.51-3.49-2.75-6.36-2.25-.84.15-1.35.36-1.69.62-.37.56-.58,1.26-1.21,1.96-.09.14-.2.28-.33.43-.69.76-3.98,2.54-4.97,3.89-.05.27-.11.59-.18.93.12.09.3.13.34.2.73,1.45-.44,1.36-1.44,2.64l.25.06c1.37-.27,2.52-.21,4,.17,0,0,0,0,0,0,.02,0,.04,0,.06,0-.05.11-.09.22-.13.33-1.01,4.08-.29,7.32,2.27,10.67.81,1.06,2.16,1.93,2.82,2.94.33.5.54,1.24.8,1.9.66.45,2.9.74,3.35.47.09-.05-.88-1.42.68-1.42,1.47,0,3.92,1.45,6.05,1.58.48-.06.92-.11,1.31-.13.04-.01.07-.02.11-.03,0,0,.02,0,.03-.01.26-.08.55-.31.82-.42.26-.23.56-.43.9-.6,0,0-5.67-.66-10.89-4.76-1.25-.98-2.96-3.4-3.29-7.09-.06-.47-.09-.91-.07-1.25,0-1.25,1.66-4.54,2.42-5.53.8,0,1.6,0,2.4,0-.15,1.07-1.61,2.61-1.48,3.55.07.47,4.45,2.97,4.71,3.29.29.34,1.09,2.91,1.64,3.87,1.1,1.91,3.63,2.47-.08,4.39,2.5,1.6,5.93.92,7.88-1.23.64-.7.65-2.04,1.71-2.36.72,3.4-2.26,3.89-3.35,6.23.45-.12.96.02,1.43.23.55.02,1.07.11,1.51.29.37.15.37.77.75.94.88-.14,1.91-1.68,2.54-2.18-1.36-.61-1.64-1.07-1.44-2.63,1.78.88,3.18-.92,3.36-.96l.48-2.4c-.92-1.04-1.57-3.55-2.68-5.23-1.34-2.02-5.02-6.35-6.91-7.72ZM209.95,239.73c1.4-.2,3.28-1.27,3.33.93-2.42-.72-3.15,3.7-3.33-.93ZM222.4,240.18v-1.44c.49-.15,1.2.49,1.44.48-.17.61-.77,1.13-1.44.96Z"/>
    <path class="cls-10" d="M222.41,238.74v1.44c.67.17,1.26-.35,1.44-.96-.24.01-.95-.62-1.44-.48Z"/>
    <path class="cls-10" d="M209.95,239.73c.18,4.63.91.21,3.33.93-.05-2.2-1.93-1.13-3.33-.93Z"/>
    <path class="cls-1" d="M229.12,256.48c1.09-2.34,4.07-2.83,3.35-6.23-1.06.32-1.07,1.66-1.71,2.36-1.95,2.15-5.38,2.83-7.88,1.23,3.7-1.93,1.18-2.48.08-4.39-.55-.96-1.35-3.53-1.64-3.87-.27-.32-4.65-2.82-4.71-3.29-.13-.94,1.33-2.48,1.48-3.55-.8,0-1.6,0-2.4,0-.76,1-2.42,4.29-2.42,5.53,0,.44.03.84.07,1.25.33,3.69,2.04,6.11,3.29,7.09,5.22,4.1,10.89,4.76,10.89,4.76.91-.46,2.03-.69,3.04-.65-.48-.22-.98-.35-1.43-.23Z"/>
  </g>
  <g>
    <path class="cls-11" d="M9.56,15.76c-.77,0-1.44-.23-1.99-.7-.56-.46-.99-1.14-1.29-2.03-.3-.89-.45-1.98-.45-3.27s.15-2.37.45-3.25c.3-.87.73-1.54,1.29-1.98.56-.45,1.22-.67,1.99-.67s1.42.22,1.97.67c.55.45.98,1.11,1.28,1.98.3.88.45,1.96.45,3.25s-.15,2.38-.45,3.27c-.3.89-.73,1.57-1.28,2.03-.55.46-1.21.7-1.97.7ZM9.56,14.29c.39,0,.73-.15,1.03-.45.3-.3.54-.78.7-1.44.17-.66.25-1.54.25-2.64s-.08-1.97-.25-2.62c-.17-.65-.4-1.11-.7-1.4-.3-.29-.65-.43-1.03-.43s-.73.14-1.03.43c-.3.29-.54.75-.71,1.4s-.26,1.52-.26,2.62.09,1.98.26,2.64c.17.66.41,1.14.71,1.44.3.3.65.45,1.03.45Z"/>
    <path class="cls-11" d="M18.47,15.76c-.77,0-1.44-.23-1.99-.7-.56-.46-.99-1.14-1.29-2.03-.3-.89-.45-1.98-.45-3.27s.15-2.37.45-3.25c.3-.87.73-1.54,1.29-1.98.56-.45,1.22-.67,1.99-.67s1.42.22,1.97.67c.55.45.98,1.11,1.28,1.98.3.88.45,1.96.45,3.25s-.15,2.38-.45,3.27c-.3.89-.73,1.57-1.28,2.03-.55.46-1.21.7-1.97.7ZM18.47,14.29c.39,0,.73-.15,1.03-.45.3-.3.54-.78.7-1.44.17-.66.25-1.54.25-2.64s-.08-1.97-.25-2.62c-.17-.65-.4-1.11-.7-1.4-.3-.29-.65-.43-1.03-.43s-.73.14-1.03.43c-.3.29-.54.75-.71,1.4s-.26,1.52-.26,2.62.09,1.98.26,2.64c.17.66.41,1.14.71,1.44.3.3.65.45,1.03.45Z"/>
  </g>
</svg>