<?xml version="1.0" encoding="UTF-8"?>
<svg class="a1" xmlns="http://www.w3.org/2000/svg" viewBox="0 0 600 500">
  <defs>
    <style>
      .cls-1 {
        fill: #646055;
      }

      .cls-2 {
        fill: #4c473f;
      }

      .cls-3 {
        fill: #857b6f;
      }

      .cls-4 {
        fill: #656156;
      }

      .cls-5 {
        fill: #5d4c39;
      }

      .cls-6 {
        fill: #7e7669;
      }

      .cls-7 {
        fill: #928a7c;
      }

      .cls-8 {
        fill: #c9caca;
      }

      .cls-9 {
        fill: #928a7d;
      }

      .cls-10 {
        fill: #45413a;
      }

      .cls-11 {
        fill: #6a6358;
      }

      .cls-12 {
        fill: #867b6f;
      }

      .cls-13 {
        fill: #f6f4f1;
      }

      .cls-14 {
        fill: #5e574e;
      }

      .cls-15 {
        fill: #524d45;
      }
    </style>
  </defs>
  <g>
    <path class="cls-5" d="M223.6,96.26c-.19-.31-.37-.69-.55-1.09.18.41.36.79.55,1.09Z"/>
    <path class="cls-5" d="M271.28,253.15l.26.12c-.08-.05-.16-.1-.26-.17v.05Z"/>
    <path class="cls-5" d="M213.47,81.74c.03.18.07.34.1.54l.05.1c-.03-.07-.05-.15-.06-.22-.02-.16-.05-.28-.08-.42Z"/>
    <path class="cls-5" d="M284.2,88.07s-.22-.11-.48-.21c.17.1.34.19.51.28,0-.03-.01-.06-.03-.07Z"/>
    <path class="cls-5" d="M218.11,88.72s-.02-.03-.03-.04c.06.1.12.21.16.31.17.08.31.14.44.19-.05-.02-.1-.05-.16-.07-.18-.08-.32-.22-.42-.39Z"/>
    <path class="cls-5" d="M186.35,63.78s-.07,0-.11.01c.03,0,.06,0,.09,0,0,0,.01,0,.02-.02Z"/>
    <path class="cls-5" d="M270.71,239.21c-.2.61-.39,1.29-.4,1.86.02-.57.2-1.25.4-1.86Z"/>
    <path class="cls-7" d="M278.49,84.91c.29.75,2.37,2.09,3.28,2.6.78.44,1.63.84,2.49,1.11.51.34.06,1.85.25,2.03.06.05.37.06.58.25.86.75,1.67,1.52,2.46,2.29-.65-1.3-2.05-2.17-2.47-2.99-.28-.54.06-1.3-.22-1.7-.21-.11-.42-.24-.63-.35-.17-.09-.34-.19-.51-.28-1.39-.8-2.73-1.69-4.11-2.51-.26-.15-.44-.35-.7-.43-.24-.19-.48-.38-.71-.57.04.1.06.2.05.32.01,0,.23.22.24.24Z"/>
    <path class="cls-5" d="M211.44,65.7c-2.48-.42-4.63-.42-7.14-.69-5.26-.57-9.68-1.49-14.32-1.46-.23,0-.46.02-.69.03,4.94.12,9.79.91,14.69,1.41,2.57.27,4.98.38,7.46.71Z"/>
    <path class="cls-5" d="M258.03,76.82c-.67-.11-1.32-.19-1.9-.26.23.07.43.16.65.18.45.03.86.05,1.25.08Z"/>
    <path class="cls-5" d="M231.7,75.54c-.26,0-.53.03-.8.04.3,0,.63-.01.96-.04-.05,0-.11,0-.16,0Z"/>
    <path class="cls-5" d="M277.38,255.82c-.5-.19-1.02-.42-1.53-.67.52.25,1.04.47,1.53.67Z"/>
    <path class="cls-5" d="M275.85,255.15c-1.29-.62-2.56-1.37-3.37-2.12.81.75,2.08,1.5,3.37,2.12Z"/>
    <path class="cls-5" d="M260.19,113.23c-.22-.05-.22-.29-.27-.56.04.28.04.51.27.56Z"/>
    <path class="cls-5" d="M259.01,108.16c-.27-.14-.26-.67-.23-1.18,0,0,0,0,0,0-.03.51-.04,1.04.23,1.17Z"/>
    <path class="cls-5" d="M258.44,108.89c-.12.16-.08.39.04.65-.12-.26-.16-.49-.04-.65l.69-.58h0s-.69.58-.69.58Z"/>
    <path class="cls-5" d="M225.92,73.04c.48.29.88.6,1.26.92-.38-.32-.78-.63-1.26-.92Z"/>
    <path class="cls-5" d="M223.63,99.22c-.04-.05-.07-.11-.1-.16,0,0,0,0,0,0,0,0,0,0,.01.02.02.04.06.09.09.14Z"/>
    <path class="cls-5" d="M223.86,99.52c-.07-.08-.13-.16-.18-.24.05.07.12.15.18.24Z"/>
    <path class="cls-5" d="M219.02,69.49c.21.17.47.35.77.53-.3-.18-.56-.36-.77-.53Z"/>
    <path class="cls-5" d="M218.47,68.61s.04.12.08.24c-.03-.11-.05-.21-.08-.24Z"/>
    <path class="cls-5" d="M457.37,326.19c-.14-.12-.27-.23-.41-.35.12.15.26.26.41.35Z"/>
    <path class="cls-5" d="M275.83,252.51c.15.07.3.12.46.14-.16-.01-.31-.07-.46-.14Z"/>
    <path class="cls-5" d="M224,72.08c.42.2.82.38,1.17.56-.35-.18-.75-.36-1.17-.56Z"/>
    <path class="cls-9" d="M218.25,100.26c.11-.55,1.37-.67,1.44-.72h.48s0-.48,0-.48h0c.24-.01.48,0,.72,0,.23,0,.44.03.68.03.12,0,.24,0,.38-.01s.29-.03.45-.07c.14-.03.16-.19.17-.19.05-.02.1-.03.15-.02.14.01.26.12.33.26h0c.13-.02.32.02.44,0,0-.04.01-.04.04,0,0,0,0,0,0,0,.03,0,.06-.02.1-.04s.09-.04.14-.07c.16-.08.35-.19.51-.3.16-.11.29-.22.33-.29.08-.15.13-.28.16-.4.19-.7-.33-.85-.71-1.13-.06-.05-.12-.1-.17-.16-.1-.11-.2-.25-.29-.41-.19-.31-.37-.69-.55-1.09-.18-.41-.36-.84-.56-1.25-.1-.21-.2-.41-.31-.6-.21-.38-.45-.72-.71-.97l-2.03-1.93s0-.08,0-.12.01-.08,0-.12c-.03-.1-.05-.19-.08-.27,0-.03-.02-.05-.03-.07-.02-.05-.04-.1-.06-.14-.01-.02-.02-.05-.04-.07-.02-.04-.04-.07-.06-.1-.01-.02-.03-.04-.04-.05-.02-.03-.05-.05-.07-.07-.02-.01-.03-.03-.05-.04-.03-.02-.06-.04-.1-.06-.02,0-.03-.02-.05-.03-.05-.03-.1-.05-.16-.08,0,0,0,0,0,0,0,0-.02,0-.02,0-.12-.06-.27-.11-.44-.19-.05-.1-.1-.2-.16-.31-.02-.04-.05-.08-.08-.13-.04-.07-.09-.13-.13-.2-.03-.04-.07-.09-.1-.13-.05-.06-.1-.13-.15-.19-.04-.04-.08-.09-.12-.13-.06-.06-.11-.12-.17-.17-.04-.04-.08-.08-.13-.12-.06-.05-.12-.11-.19-.16-.04-.04-.09-.07-.14-.11-.07-.05-.13-.09-.2-.14-.04-.03-.09-.06-.13-.09-.08-.04-.15-.08-.23-.12-.04-.02-.08-.04-.12-.06-.11-.05-.23-.09-.34-.12,0,0,0,0,0,0,0,0,0,0,0,0-.08-.02-.17.02-.24,0,0,0-.24-.53-.55-1.23l-.23-.5c-.29-.65-.61-1.36-.85-1.89l-.25-.55c-.02-.05-.04-.09-.06-.13l-.06-.14s0,0,0,0l-.05-.1c-.03-.2-.06-.36-.1-.54-.03-.14-.05-.29-.08-.42-.03-.14-.08-.27-.12-.39-.04-.11-.07-.23-.11-.33-.05-.12-.1-.22-.16-.33-.04-.09-.08-.18-.13-.26-.06-.1-.13-.19-.2-.28-.05-.07-.1-.15-.15-.21-.08-.09-.16-.17-.25-.26-.06-.06-.11-.12-.17-.18-.1-.09-.21-.18-.32-.28-.06-.05-.11-.1-.17-.14-.14-.11-.29-.23-.44-.35-.23-.18-.47-.37-.73-.59-.88-.73-3.52-3.75-3.91-4.73-.49-1.21-.53-2.38.54-3.2.29-.22.58-.23.86-.23.14,0,.27.01.39,0,.12-.01.24-.04.34-.11.04-.03.08-.08.12-.14.04-.06.07-.13.11-.2.07-.14.14-.3.24-.4.2-.23.37-.37.52-.46.08-.04.15-.08.22-.1.14-.04.28-.05.43-.04.08,0,.16,0,.25.01.17,0,.37.01.62-.02.46-.06.91-.09,1.35-.12.44-.03.87-.06,1.29-.12.11-.01.23-.05.36-.1.12-.05.25-.1.38-.15.25-.11.49-.2.67-.18.24.02.47.1.7.2.67.3,1.24.85,1.53.93.08.02.17.03.28.03.31,0,.68-.06.75.02.03.03.04.12.08.24.02.06.04.12.06.18.03.06.06.12.11.17.06.07.14.15.23.23.02.02.05.04.07.06.21.17.47.35.77.53.29.18.62.36.98.54.25.13.51.26.78.39.24.11.48.23.72.34.59.27,1.19.54,1.74.8.42.2.82.38,1.17.56.28.14.54.28.74.4.48.29.88.6,1.26.92.22.19.44.38.67.57.16.14.32.27.49.41.03.03.08.06.12.08.05.03.1.06.16.1.13.08.27.16.43.25.48.29,1,.65.94.98-.06.34-.6.67-.44,1.2.11.38.97.71.95,1.22,0,.25-.25.48-.25.73,0,.14.08.28.15.43.03.07.07.15.08.23.02.08.02.17,0,.26,0,.03-.04.05-.05.08-.05.08-.11.15-.19.22-.11.1-.24.2-.34.34-.06.09-.11.2-.13.34-.03.24-.04.47-.03.68,0,.01,0,.02,0,.03.04.66.29,1.18.68,1.61.26.29.57.54.93.77.35.23.74.45,1.14.67,1.57.86,3.34,1.45,4.98,2.1.55.22,1.08.44,1.59.68.27.13,1.02.64,1.61,1.09.24.18.44.35.58.48.07.07.12.12.15.16.12.16.21.36.29.57.04.11.08.21.12.32.07.22.15.45.23.66.04.11.09.21.15.31.11.2.24.38.42.52h.24s0,0,0,0c.07-.1.14-.18.22-.26.03-.03.06-.04.09-.07.05-.04.11-.09.17-.12.04-.02.07-.04.11-.06.05-.03.11-.05.17-.07.04-.01.08-.03.13-.04.06-.02.11-.03.17-.04.04,0,.09-.02.13-.02.06,0,.12-.02.17-.02.05,0,.09,0,.14-.01.06,0,.12,0,.18,0,.05,0,.1,0,.15,0,.07,0,.13,0,.2,0,.08,0,.16,0,.24,0,.05,0,.11,0,.16,0,.06,0,.12,0,.18,0,.04,0,.09,0,.13,0,.07,0,.13-.01.19-.02.03,0,.07,0,.1-.01.09-.02.18-.04.27-.06.09-.03.17-.07.25-.11.02-.01.05-.03.07-.05.05-.04.1-.07.15-.12.03-.03.05-.06.07-.09.04-.05.08-.09.11-.15.02-.04.04-.08.06-.12.09-.18.16-.4.21-.68h1.62s.05-.01.05-.01c-.02-.06,0-.18.01-.28,0-.08,0-.15-.03-.18-.14-.12-.98.16-1.18-.39l.24-1.3c-.11-.01-.22-.02-.32-.01-.05,0-.1,0-.15,0,.02.56-.39.92,0,1.43-.92.22-.62-.34-1.07-.74-.26-.22-.59-.2-.61-.22-.06-.04-.33.08-.45-.03-.11-.11,0-.37-.03-.45-.1-.21-.35-.27-.48-.48-.84.18-1.49-.83-.48-.72-1-1.16-2.26-1.98-3.42-3.31-.06-.07-.28-.02-.36-.11-.13-.14.07-.63-.54-.42.2-1.11-1.75-1.57-1.9-2.06-.09-.29-.08-1.33,0-1.63.31-1.09,2.75-.47,3.68-.62l.26-.5c4.18.47,8.4.63,12.43-.51,2.04-.57,1.38-.17,3.17.03,2.16.25,4.08.03,6.21.96.22.69.93.57,1.59.84,2.9,1.21,7.52,3.54,10.42,3.95.23.03.08.36.16.46.09.12.72-.02,1.03.06.08.02,1.06.75,1.35.93.01-.11-.01-.22-.05-.32-.1-.26-.34-.48-.55-.65-.59-.47-1.33-.76-2.11-1-.88-.27-1.8-.47-2.59-.79-1.36-.54-2.72-1.12-4.07-1.71-1.91-.82-3.82-1.63-5.78-2.35-.18-.07-.35-.14-.53-.2-.29-.1-.57-.19-.83-.27-1.33-.39-2.39-.49-3.72-.57-.39-.02-.8-.05-1.25-.08-.22-.01-.41-.11-.65-.18-.16-.04-.32-.08-.55-.06-.01,0-.03,0-.04,0-1.53.16-3.64,1.15-5.25,1.21-1.34.05-2.77-.06-4.09-.02-.78.02-1.54,0-2.29-.03-1.52-.07-3.01-.16-4.66.04-.3.04-.66.16-.97.33-.3.16-.56.38-.71.62-.19.31-.24,1.42-.72,1.2,0,0,0,0,0,0-.12-.06-1.44-1.16-1.56-1.31-.46-.57-.46-1.23-.84-1.8-.25-.36-1.28-1.15-1.67-1.21-.27-.04-.59-.02-.92,0-.33.02-.66.05-.96.04-.18,0-.35-.02-.5-.06-.34-.1-1.08-1.11-1.47-1.41-1.36-1.08-3.42-2.43-5-3.16-1.79-.83-3.22-1.48-4.96-2.48-1.71-.98-2.67-1.85-4.68-2.28-.97-.21-1.92-.36-2.86-.48-2.48-.33-4.89-.45-7.46-.71-4.89-.51-9.74-1.3-14.69-1.41-.55-.01-1.09-.02-1.64-.02-.39,0-1.09-.16-1.3.22,0,0-.01,0-.02.02-.03,0-.06,0-.09,0-.28-.02-.6-.02-.87,0,.13.68-.3.43-.72.59-.69.27-1.54.93-2.08,1.05-.95.21-1.87-.02-2.97.39-1.56.58-1.61,1.28-1.43,2.88.11.92.82,2.47,1.67,2.89.51.25,1.4.31,2.16.72,1.58.87,3.5,2.34,4.93,3.47.35.27.95.48.84.96.16.08.32.16.48.24,1.11.56,2.02,1.35,3.05,1.87,1.9.95,4.14,1.48,6.06,2.58,3.32,1.91,6.58,4.22,9.84,6.24,1.98,1.22,2.11,1.13,3.5,2.98,1.79,2.38,3.45,4.29,5.12,6.88.47.73.77,1.93,1.56,2.45.12.08.25.15.39.19.15.05.31.07.49.08ZM233.37,76.51c.02,1.06-1.84.73-2.64.96-.05-1.54,1.59-1.21,2.64-.96Z"/>
    <path class="cls-7" d="M245.13,87.79c.04.07-.08.33.03.45.11.11.39,0,.45.03-.08-.11.23-.64-.48-.48Z"/>
    <path class="cls-7" d="M186.93,75.79c-1.44-1.12-3.36-2.59-4.93-3.47-.76-.42-1.65-.48-2.16-.72-.85-.42-1.56-1.97-1.67-2.89-.18-1.6-.13-2.3,1.43-2.88,1.09-.41,2.02-.19,2.97-.39.54-.12,1.38-.78,2.08-1.05.43-.17.86.08.72-.59-.59.05-1,.21-1.39.39-.38.18-.72.39-1.18.52-.58.18-1.39.18-2.03.28-.09.01-.19.02-.28.04-.17.04-.33.08-.49.13-1.02.31-1.95.82-2.38,1.79-.07.17-.14.35-.18.55.07.17.12.35.17.53.24.89.3,1.83.73,2.64.06.11.12.21.19.31.13.18.94,1.03,1.07,1.09.37.18.72.05,1.05.15,1.88.55,4.54,3.12,6.69,4.29.14.08.29.17.42.23.11-.48-.49-.69-.84-.96Z"/>
    <path class="cls-4" d="M454.06,320.44c-.05.06-.12.14-.18.22-.13.16-.28.31-.33.32-.28.08-1.1.08-1.39,0-.12-.03-.26-.15-.42-.3-.08-.08-.16-.16-.24-.26-.25-.28-.51-.6-.74-.86-.08-.08-.15-.16-.22-.22-.07-.06-.14-.11-.2-.14-.34-.17-.69-.34-1.05-.5-.37-.16-.74-.32-1.13-.48-1.75-.71-3.68-1.36-5.46-1.99-.59-.21-1.17-.42-1.72-.63-.22-.08-.42-.13-.6-.17-.27-.06-.5-.11-.68-.23-.18-.12-.32-.32-.41-.68-.37.25-.87.31-1.31.25-.07,0-.1-.04-.13-.09s-.02-.1-.02-.15.01-.11.02-.16,0-.08,0-.09c0,0-.04,0-.06,0-.05,0-.09,0-.16-.02-.03,0-.07,0-.1-.02-.12-.07-.14-.2-.16-.21-.12-.04-.33.03-.48,0,.02.1.02.19,0,.26-.1.51-1.03.35-1.53.5-.26.08-2,.87-2.32,1.04-.78.39-1.36,1.82-2.62,2.18-.65.18-1.24.09-1.76.1-.15,0-.3,0-.44.03-.21.04-.41.11-.6.24-.06.04-.12.1-.18.16-.18.18-.35.43-.51.79-.07.16-.12.31-.16.47-.04.16-.08.31-.13.47-.09.32-.2.64-.44.97-.93,1.32-2.5,1.88-3.13.02-.13-.37-.07-.66-.12-.83-.03-.13-.12-.19-.38-.18-.09,0-.19.02-.32.04.08,1.07-1.36,1.9-1.81,2.64-.13.21-.08.39-.11.48h-1.43c.02.07.03.14.03.2,0,.06,0,.11-.02.17-.06.21-.21.38-.33.53-.06.08-.11.15-.13.22-.02.07-.03.18-.04.28,0,.16,0,.35,0,.49,0,.05,0,.09,0,.13,0,.08,0,.13-.01.14-.06.05-.46-.13-.49.14-.21,1.73-1.87,8.15-2.75,9.45-.18.27-.42.45-.63.68-.1.11-.2.23-.28.38s-.14.31-.16.51c-.01.08-.02.18-.02.29s0,.23,0,.37c.09,1.6.78,4.73,1.47,6.13.11.23.23.42.34.54.1.1.22.15.33.18.06.02.11.03.15.04.04.01.07.03.09.04.04.05.05.13.04.22,0,.04,0,.09-.01.14,0,.05,0,.09,0,.13,0,.17.09.29.48.2-.24-.98-.85-2.2-1.15-3.29-.3-1.07-1.02-3.78-1.03-4.75,0-.43.35-1.25.73-1.45,1.99-1.02,2.71,2.19,3.31,3.42.78,1.59,1.58,3.22,2.4,4.79.7,1.34,1.9,3.99,3.04,4.88.65.5,1.57.78,2.27,1.33.64.5,1.65,1.36,1.45,2.27,1.25.12,2.57.54,3.86,1.01.97.36,1.93.74,2.84,1.06.3.11.6.2.89.29.46.14,2.01.76,2.12.76h3.6c.23,0,.66.11,1.17.23.38.09.8.18,1.2.22.13.01.27.02.39.03.06-.44-.36-.77-.45-1.12-.24-.99.91-1.84,1.89-1.76-.06-.76-.18-.32-.6-.71-.41-.38-.64-.99-.94-1.22-.33-.26-.72-.17-.82-.25-.04-.03-.21-.66-.4-.93-.8-1.12-2.52-1.64-3.84-1.92-.35-.08-.78.07-1.16-.04-.23-.07-.34-.39-.75-.45-1.28-.19-1.76.08-3.23-.36-2.76-.83-7.35-2.45-9-4.91-.42-.62-.31-1.28-.73-1.91-.31-.46-1.41-1.21-1.52-1.6-.11-.36.02-.79-.03-1.17-.24-1.59-.09-2.83-.24-4.32-.05-.48-.39-1.25-.43-1.73-.04-.51.64-1.33.43-1.99.96.02.73,1.46,1.15,2.33.39.82,1.36,1.49,1.62,1.98.46.89.44,2.3.63,3.2.1.46.75,1.46,1.17,1.71,2.52,1.57,5.29,2.58,7.92,3.96.4-.74-.52-2.68-.46-2.97.03-.13,1.16-1.27,1.33-1.32.87-.26,1.45.25,2.18.4,1.38.3,2.74.66,4.07.97.63.14,1.37.1,2,.28-.16-.62.51-1.4.13-1.93-.12-.18-.52-.27-.74-.46-1.81-1.6-3.32-2.43-5.64-3.12-.24-.07-.58.09-.96-.11-.5-.26-.71-.79-.72-1.33l-.32-.04c-.55-.45-1.29-.55-1.12-1.4-.46.01-1.14.08-1.55.01-.23-.04-.08-.36-.15-.46-.06-.08-1.32-.2-1.9-.51l-.84,1.68c-.25-.19-.36-.44-.48-.72-.18-.41-.74-1.76-.81-2.09-.06-.26.21-.29.21-.31.03-.26.04-.71,0-.96,0-.03-.38-.11-.24-.59l.38-.35.33-.02c.02-.15,0-.32,0-.48-.7.02-1.03-.59-.33-.93.12-.06.27,0,.33-.03.3-.16,1.39-.65,1.44-.72.65-.89,1.12-1.05,1.92-1.8.34-.32.46-.82.97-1.19.41-.3,1.8-.85,2.27-.84.25,0,.49.23.73.23,1.38.04,2.5-.25,3.71.61,1.75,1.25,5.51,6.65,6.69,8.67.98,1.68,1.51,3.09,2.01,4.95.2.74.7.7.06,1.6-.22.32-.6.52-.8.88-.57.98-.32,1.12-1.4,1.97-.11.09-.74.14-.31.52.07.06,1.4-.06,1.93.11.78.26,1.6,1.33,1.68,2.16.22,2.4-.18,5.13-.01,7.57.47-.03.98.05,1.44,0,.3-.03.55-.2.78-.44.34-.37.61-.92.84-1.48s.42-1.12.59-1.51c.36-.79,1.02-1.46,1.15-2.45.02-.15.03-.31.02-.47,0-.32-.03-.64-.03-.97,0-.16,0-.32.02-.48.15-1.41,1.51-3.06,2.04-4.44.53-1.38,1.69-6.3,1.78-7.96,0-.07,0-.15,0-.2,0-.1-.22-.35-.23-.6-.03-.53.09-1.18-.14-1.67-.11-.23-.24-.44-.32-.69-.07-.22-.12-.44-.19-.65-.07-.23-.17-.42-.19-.66-.03-.26-.15-.5-.2-.76-.09-.48-.12-.96-.28-1.43-.14-.41-.42-.73-.73-1.03-.47-.45-1.05-.75-1.51-1.21-.36-.36-.66-.76-1.02-1.12-.01.02-.05.07-.1.13Z"/>
    <path class="cls-14" d="M449.9,353.1c-.17.49-.12,1.07-.76,1.39-1.25.63-1.87-.74-2.41-1.57-.44.4-.74.04-1.2,0,.07.98.37,1.89.24,2.88-.32,0-.64,0-.96,0-.02.08-.03.16-.02.22,0,.06.01.11.03.15.09.2.38.18.66.13.06,0,.11-.02.17-.03.13-.02.24-.05.35-.08.22-.06.42-.13.67-.16.13-.02.27-.02.43,0,.23.02.55.09.91.19.36.09.76.19,1.14.25.57.09,1.1.08,1.41-.2.1-.09.18-.22.23-.38.02-.06.03-.19.04-.35,0-.08,0-.18.01-.27,0-.19.01-.4.01-.59,0-.09,0-.18,0-.26,0-.15-.01-.27-.03-.3-.03-.06-.56-.31-.56-.82,0-.07.01-.15.04-.23h0l-.2-.15h0s-.14.04-.19.17Z"/>
    <path class="cls-10" d="M298.22,243.17c-.13-.38-.29-.76-.5-1.14-.96-1.78-2.36-3.29-3.61-4.87-.24-.31-.67-.76-1.16-1.23s-1.04-.94-1.53-1.28c-.32-.23-.62-.4-.85-.46-.07-.02-.14-.03-.22-.03-.15,0-.3,0-.45,0-.07,0-.15-.01-.22-.03-.32-.09-.76-.4-1.18-.7-.1-.07-.21-.15-.31-.22-.3-.21-.57-.39-.75-.45-.91-.27-2.86-.63-3.76-.47-.75.13-1.89.81-2.65.64-.1-.02-.19-.07-.28-.13-.14-.08-.27-.19-.42-.26-.15-.07-.31-.1-.5-.05-.31.09-.81.79-1.22,1.23-.07.07-.13.14-.2.19-.06.05-.12.1-.17.12-.14.07-.29.09-.43.1-.07,0-.14,0-.2.02-.06,0-.12.02-.17.04-.18.08-.36.18-.54.29-.46.26-.94.53-1.47.61-.1.02-.21.02-.32.02-.03.04-.13.16-.24.3-.04.05-.08.1-.12.15-.16.2-.32.39-.35.4-.29.19-1.28.24-1.79.58-.33.22.22.34-.7.48-.27.04,0,.68-.64.49.02.05-.05.24-.15.51-.12.31-.28.73-.43,1.18-.2.61-.39,1.29-.4,1.86,0,.14,0,.28.02.41.02.15.1.29.19.45.18.3.41.63.36,1.06,0,.09-.03.19-.07.29l-1.19-.25c-.05-.77,0-1.56,0-2.33,0-.26,0-.52-.02-.77-.79.03-.94.89-1.17,1.57-.04.11-.08.22-.12.32-.04.1-.09.19-.15.27v.24c.57.93.88,1.7,2.16,1.44.07.81-.1,1.73,0,2.52.15,1.12.92,2.38,1.2,3.48.09-.04.28.05.5.19.11.07.23.15.35.24.19.13.38.27.56.39.18.12.36.22.5.27.13.05.26.08.4.11.13.03.27.05.41.07.87.13,1.8.16,2.21.88.13.23.1.44.1.59,0,.05,0,.09.02.13.22.61.47,1.14.85,1.67l2.03,2.17h0c.64.13,1,.24,1.38.37.15.05.31.1.49.16.14.05.28.09.46.15.33.1.7.18,1.1.23.4.05.83.08,1.25.08.85,0,1.7-.1,2.35-.31.06-.02.13-.05.21-.09.23-.11.5-.28.75-.44.17-.1.33-.2.46-.28s.24-.12.3-.12c.03,0,.06.01.09.02.15.03.3.12.45.18.06.02.12.04.19.04.6.04,1.39-.35,1.98-.33,0,0-.02.02-.03.03,2.25-.75,4.61-2.77,5.95-4.46,1.93-2.45,2.39-5.5,1.41-8.45h0s-.01-.05-.02-.08ZM293.59,240.85c-.14.13-.96.46-1.3.74-.48.39-1.25,1.18-1.32,1.81-.1.81.41,1.08.49,1.68.11.87-.45,1.34.12,2.28.55.9,1.32.64,1.08,2.3-.05.32-.24.32-.24.34-.15.6-.15,1.33-.27,1.77-.07.26-.79.82-1.05,1.12-.11.14-.09.39-.15.44-.09.1-.56-.02-.81.03-.89.19-1.58.34-2.53.23-1.02-.11-1.71-1.54-1.42-2.5.11-.36.58-.31.66-.41.07-.09.78-2.07.77-2.24,0-.55-.35-1-.45-1.48-.26-1.27-.33-2.42-.88-3.68-.98-2.23-3.57-4.59-6.12-4.32-.12-.63.28-.95.73-1.31,1.55-1.23,2.98-.4,4.67-.14,1.13.18,2.43.21,3.55.53,1.42.4,2.89,1.56,4.48,1.4-.06.31.1,1.31-.02,1.42Z"/>
    <path class="cls-9" d="M288.94,256.46c-.06,0-.12-.02-.19-.04-.15-.06-.3-.15-.45-.18-.03,0-.06-.02-.09-.02-.06,0-.17.05-.3.12s-.29.17-.46.28c-.25.16-.53.33-.75.44-.08.04-.15.07-.21.09-.65.21-1.5.32-2.35.31-.43,0-.85-.03-1.25-.08-.4-.05-.78-.13-1.1-.23-.18-.05-.32-.1-.46-.15-.18-.06-.34-.11-.49-.16-.38-.13-.73-.23-1.38-.37h0c-.13-.03-.26-.06-.4-.1-.29-.08-.6-.17-.94-.29-.23-.08-.47-.17-.72-.27-.5-.19-1.02-.42-1.53-.67-1.29-.62-2.56-1.37-3.37-2.12-.24-.22-.43-.43-.58-.65-.03-.04-.06-.1-.1-.16-.07-.13-.15-.3-.21-.47-.06-.17-.1-.34-.1-.49,0-.21.11-.36.4-.31.08.01.16.04.24.07.15.07.28.19.41.31.06.06.12.13.18.2.17.2.33.4.48.52.05.04.11.07.16.08.09.03.18.02.28,0,.18-.04.37-.14.57-.2.1-.03.2-.05.31-.04.41.03.84.4,1.31.61.15.07.3.12.46.14.09,0,.18,0,.28-.01-.01-.04-.02-.08-.02-.13,0-.15.03-.36-.1-.59-.41-.72-1.34-.75-2.21-.88-.14-.02-.27-.04-.41-.07-.14-.03-.27-.07-.4-.11-.14-.05-.31-.15-.5-.27-.18-.12-.38-.26-.56-.39-.13-.09-.24-.17-.35-.24-.22-.14-.4-.23-.5-.19,0,0-.01.02-.02.05,0,.03-.02.06-.03.09-.02.05-.06.08-.12.09-.02,0-.03.01-.05,0,.01-.07.02-.13.02-.18s-.01-.09-.03-.13c-.08-.18-.3-.2-.49-.31-.04-.02-.08-.05-.11-.08-.17-.16-.32-.31-.47-.47-.43-.47-.78-.95-1.15-1.53-.03-.04-.05-.09-.06-.13-.1-.27-.05-.55-.4-.54-.06,0-.12,0-.21.03.07,1.03-.08,1.91.29,2.95.66,1.87,1.77,2.94,2.59,3.52.09.07.17.12.26.17.37.24.65.38.72.43,1.79,1.25,4.03,2.53,6.17,3.11.18.05.36.1.54.14,0,.14.16.25.38.33.64.24,1.88.29,2.25.28,1.14-.04,2.85.51,3.97.35.64-.09,1.59-.79,2.2-.92.68-.15,1.63-.14,2.34-.2.04-.03.46-.36.78-.62.01,0,.02-.02.03-.03-.59-.02-1.39.37-1.98.33Z"/>
    <path class="cls-3" d="M266.02,104.02c.09.31.16.63.24.94.08.31.17.63.24.94.09.39.18.79.27,1.19.18.8.36,1.62.49,2.43.07.41.12.81.15,1.22h0c.03.3-.21.82-.24,1.3-.01.16,0,.32.05.46.08,0,.16,0,.24,0,.15,0,.28.02.41.09.07.04.13.08.19.15.32.32,1.1,1.67,1.42,2.18.43.67,1.49,1.73,2.09,2.55.2.27.35.52.4.72.08.29.15.56.22.83.07.27.14.52.22.78.16.51.37,1.02.69,1.57.42.71,1.25,2.08,1.91.97.45-.76.66-1.96.67-3,0-.35-.02-.68-.06-.96-.06-.38-.42-.56-.5-.94-.01-.06-.02-.13-.01-.21,0-.08.02-.16.05-.25.04-.11.14-.2.23-.3s.19-.23.22-.44c.04-.25.05-.52.05-.8-.02-.84-.24-1.76-.76-2.33-.12-.14-.29-.27-.48-.4-.28-.2-.62-.39-.94-.57-.32-.19-.64-.38-.87-.57-.39-.32-1.14-1.03-1.67-1.7-.11-.13-.2-.27-.29-.39-.17-.25-.29-.49-.31-.67-.01-.07-.01-.15-.01-.24,0-.08,0-.17.02-.26.02-.18.05-.36.08-.54.05-.26.09-.5.08-.65,0-.05-.01-.09-.03-.12-.17-.27-.49-.54-.82-.83-.17-.14-.33-.28-.48-.43-.15-.14-.29-.29-.39-.43l-3-2.16h0c.06.19.1.37.16.56.03.11.06.21.09.32Z"/>
    <path class="cls-1" d="M428.01,352.21c.2-.91-.81-1.77-1.45-2.27-.7-.54-1.63-.82-2.27-1.33-1.14-.88-2.35-3.54-3.04-4.88-.82-1.58-1.63-3.21-2.4-4.79-.6-1.23-1.33-4.43-3.31-3.42-.38.19-.74,1.02-.73,1.45.01.97.73,3.68,1.03,4.75.3,1.08.91,2.31,1.15,3.29.07.28.26.58.49.88s.5.61.72.91c.65.87,2.74,3.42,3.59,3.85.11.05.24.11.39.18.9.39,2.5.96,3.44,1.23.16.04.3.08.41.11.62.14,1.36-.02,2,.04Z"/>
    <path class="cls-13" d="M269.01,247.15s.04.09.06.13c.37.58.71,1.06,1.15,1.53.14.16.3.31.47.47.03.03.07.06.11.08.19.11.42.13.49.31.02.04.03.08.03.13s0,.11-.02.18c.02,0,.03,0,.05,0,.06,0,.1-.04.12-.09.01-.03.02-.07.03-.09,0-.03.01-.05.02-.05-.28-1.1-1.05-2.37-1.2-3.48-.1-.79.06-1.71,0-2.52-1.28.26-1.59-.51-2.16-1.44h-.48c-.05.2-.04.19-.24.24.03.39-.05.82,0,1.2.04.33.16.86.24,1.2.55-.17.66.46.72.96.03.23-.02.48,0,.72.08-.02.15-.03.21-.03.34,0,.3.27.4.54Z"/>
    <path class="cls-7" d="M260.02,110.58c-.33-1.56-.71-3.27-.74-3.49-.06-.43.29-.93-.42-.83.02.18-.03.44-.08.72-.03.51-.04,1.04.23,1.18.07.04.16.06.29.03l-.16.13-.69.58c-.12.16-.08.39.04.65.04.09.09.18.14.27.37.61,1.01,1.31,1.11,1.65.04.14.06.31.08.49s.04.37.08.55c.01.05.02.11.03.16.04.28.04.51.27.56.07.02.17.02.3-.01.07-.01-.18-1.27-.47-2.64Z"/>
    <path class="cls-6" d="M445.77,355.81c.13-.99-.17-1.9-.24-2.88-.98-.08-2.12.77-1.89,1.76.08.35.5.68.45,1.12.24,0,.48,0,.72,0h0c.32,0,.64,0,.96,0Z"/>
    <path class="cls-7" d="M260.56,114.29c.04.16.1.16.17.13.07-.02.15-.07.24,0v-.72h0-.24s-.24,0-.24,0h0c.02.3.04.48.07.58Z"/>
    <path class="cls-12" d="M260.19,113.23c-.22-.05-.22-.29-.27-.56,0-.05-.02-.11-.03-.16-.04-.19-.06-.38-.08-.55s-.03-.35-.08-.49c-.1-.34-.74-1.04-1.11-1.65-.05-.09-.1-.18-.14-.27-.12-.26-.16-.49-.04-.65l.69-.58.16-.13c-.12.03-.22.02-.29-.03-.22-.14-.24-.93-.23-1.17,0,0,0,0,0,0,.05-.28.09-.54.08-.72,0-.02,0-.04,0-.06-.19-.99-.91-1.8-1.22-2.76,0-.02-.01-.05-.02-.06-.02-.07.02-.16,0-.24-.11-.03-.21-.07-.31-.11-.59-.28-1-.85-1.56-1.25,0,0,0,0,0,0-.92-.67-.92-.53-1.29-1.59-.02-.05-.04-.09-.05-.13-.02-.04-.04-.08-.05-.12-.28-.59-.74-1.29-.94-1.89-.01-.04-.03-.08-.05-.12-.33-.69-.74-1.38-1.16-2.08-.74-1.25-1.45-2.5-2.18-3.75-.23-.4-.46-.8-.7-1.2-.01-.02-.02-.04-.04-.06-.09-.15-.19-.27-.28-.33l-.04-.32s-.23-.22-.24-.24h-.05s-1.62.01-1.62.01c-.04.28-.11.5-.21.68-.02.04-.04.09-.06.12-.03.06-.07.1-.11.15-.02.03-.05.06-.07.09-.05.05-.1.08-.15.12-.02.02-.04.04-.07.05-.08.05-.16.08-.25.11-.09.03-.18.05-.27.06-.03,0-.07,0-.1.01-.06,0-.13.02-.19.02-.04,0-.09,0-.13,0-.06,0-.12,0-.18,0-.05,0-.1,0-.16,0-.08,0-.16,0-.24,0-.07,0-.13,0-.2,0-.05,0-.1,0-.15,0-.06,0-.12,0-.18,0-.05,0-.09,0-.14.01-.06,0-.12.01-.17.02-.04,0-.09.01-.13.02-.06.01-.11.03-.17.04-.04.01-.08.02-.13.04-.06.02-.11.05-.17.07-.04.02-.07.03-.11.06-.06.03-.11.08-.17.12-.03.02-.06.04-.09.07-.08.07-.15.16-.23.26h-.24c-.18-.14-.31-.32-.42-.52-.05-.1-.1-.21-.15-.31-.09-.22-.16-.44-.23-.66-.04-.11-.07-.22-.12-.32-.08-.21-.17-.41-.29-.57-.03-.04-.08-.1-.15-.16-.14-.13-.35-.3-.58-.48-.59-.45-1.34-.96-1.61-1.09-.51-.24-1.04-.47-1.59-.68-1.65-.65-3.41-1.23-4.98-2.1-.4-.22-.79-.44-1.14-.67-.35-.23-.67-.49-.93-.77-.39-.43-.64-.95-.68-1.61,0-.01,0-.02,0-.03-.01-.21,0-.44.03-.68.02-.14.07-.25.13-.34.1-.14.22-.25.34-.34.08-.07.14-.14.19-.22.02-.03.05-.05.05-.08.03-.09.02-.18,0-.26-.02-.08-.05-.16-.08-.23-.07-.15-.15-.29-.15-.43,0-.25.24-.48.25-.73.02-.51-.84-.84-.95-1.22-.15-.54.39-.87.44-1.2.06-.34-.46-.69-.94-.98-.15-.09-.3-.18-.43-.25-.06-.04-.11-.07-.16-.1-.04-.03-.09-.06-.12-.08-.17-.14-.33-.27-.49-.41-.22-.19-.45-.38-.67-.57-.38-.32-.78-.63-1.26-.92-.21-.12-.46-.26-.74-.4-.35-.18-.75-.36-1.17-.56-.55-.26-1.15-.52-1.74-.8-.24-.11-.48-.22-.72-.34-.27-.13-.53-.26-.78-.39-.35-.18-.68-.36-.98-.54-.3-.18-.56-.36-.77-.53-.02-.02-.05-.04-.07-.06-.09-.08-.17-.15-.23-.23-.05-.05-.08-.11-.11-.17-.03-.06-.05-.12-.06-.18-.03-.11-.05-.21-.08-.24-.07-.08-.44-.02-.75-.02-.1,0-.2,0-.28-.03-.29-.08-.86-.63-1.53-.93-.22-.1-.46-.18-.7-.2-.18-.02-.42.08-.67.18-.12.05-.25.11-.38.15-.12.05-.25.08-.36.1-.42.06-.85.09-1.29.12-.44.03-.89.06-1.35.12-.25.03-.45.03-.62.02-.09,0-.17,0-.25-.01-.15,0-.29,0-.43.04-.07.02-.14.05-.22.1-.15.09-.32.23-.52.46-.1.11-.17.26-.24.4-.03.07-.07.14-.11.2-.04.06-.08.11-.12.14-.1.07-.21.1-.34.11-.12.01-.25,0-.39,0-.27,0-.57,0-.86.23-1.08.82-1.03,2-.54,3.2.39.98,3.03,3.99,3.91,4.73.26.22.5.41.73.59.15.12.3.24.44.35.06.05.11.1.17.14.11.09.22.18.32.28.06.06.11.12.17.18.08.09.17.17.25.26.06.07.1.14.15.21.07.09.14.18.2.28.05.08.09.18.13.26.05.11.11.21.16.33.04.1.07.22.11.33.04.13.08.25.12.39.03.13.05.28.08.42.03.14.06.26.08.42.01.07.03.15.06.22,0,0,0,0,0,0,0,0,.02.06.06.14.02.04.04.08.06.13.06.14.15.33.25.55.24.53.56,1.24.85,1.89.08.17.15.34.23.5.31.69.55,1.23.55,1.23.07.02.16-.02.24,0,0,0,0,0,0,0,0,0,0,0,0,0,.11.03.23.07.34.12.04.02.08.04.12.06.08.04.15.07.23.12.05.03.09.06.13.09.07.04.14.09.2.14.05.03.09.07.14.11.06.05.13.1.19.16.04.04.09.08.13.12.06.06.11.11.17.17.04.04.08.09.12.13.05.06.1.12.15.19.03.04.07.09.1.13.05.07.09.13.13.2.03.04.06.08.08.13,0,.01.02.03.03.04.1.17.24.31.42.39.06.02.11.05.16.07,0,0,.02,0,.02,0,0,0,0,0,0,0,.06.03.11.05.16.08.02,0,.03.02.05.03.03.02.07.04.1.06.02.01.03.03.05.04.03.02.05.05.07.07.01.02.03.04.04.05.02.03.04.06.06.1.01.02.02.04.04.07.02.04.04.09.06.14,0,.02.02.05.03.07.03.08.05.17.08.27,0,.04,0,.08,0,.12s-.01.08,0,.12l2.03,1.93c.26.25.5.59.71.97.11.19.21.39.31.6.2.41.38.84.56,1.25.18.41.36.79.55,1.09.09.15.19.29.29.41.05.06.11.11.17.16.38.28.91.43.71,1.13-.03.12-.08.25-.16.4-.04.07-.17.18-.33.29-.16.11-.35.22-.51.3-.05.03-.1.05-.14.07s-.08.03-.1.04c.03.05.06.1.1.16-.03-.05-.07-.1-.09-.14,0-.01,0-.01-.01-.02-.03-.04-.04-.04-.04,0,0,.16.19.83.33,1.05.37.61,1.45.6.83,1.62,1.12.37.56,1.59,1.1,2.44.35.55,1.14.68,1.46,1.28.24.45-.06.9.07,1.18.34.74.83.83,1.35,1.51.25.33-.08.77.15,1.08.49.64,1.36.58,1.4,1.56.05.95-1.04,1.44-1.49,2.16,0,0,0,0,0,0-.02.03-.04.05-.06.08,0,.01,0,.03-.02.04-.6,1.21.22,2.51,1.43,2.77.01,0,.03,0,.04,0,.17.03.35.05.53.04.53-.03,1.32-.58,1.68-.02.1.16.15.44.16.79.02.7-.08,1.66-.09,2.43,0,.39.01.73.08.96.05.17.12.28.21.36.09.08.2.13.31.16s.23.04.34.06c.11.01.22.02.31.05.16.05.32.19.48.24h0v.48h0,.48c.07-.01.16,0,.25,0,.09,0,.17.01.23,0,.04.05.1.1.17.16.2.15.48.3.74.46.18.11.35.22.48.33.14.12.24.24.28.38h0s0,.08-.01.14c-.05.15-.22.36-.38.57-.16.21-.31.44-.34.64,0,.07,0,.13.02.19.8-.19.96.71,1.68.72h0c.01.08,0,.16,0,.24,0,.08,0,.16,0,.23s0,.16.01.23l1.19.25h0c.06,1.55-1.67,1.46-2.77,1.91-.45.19-.61.36-.58.52.02.1.1.19.22.27.08.05.18.1.29.15.11.05.23.09.35.12.24.07.5.12.71.14.64.07,1.23.05,1.77-.12.41-.12.78-.32,1.13-.62.11-.1.23-.21.33-.33l.24.3.24.3h0s-.18.29-.43.52c-.08.08-.18.15-.29.2-.23.12-.47.22-.71.33-.48.21-.97.4-1.43.65-.23.12-.45.26-.66.42-.22.17-.48.22-.56.45-.02.08-.03.18,0,.31.14.12,2.91-.86,3.48-.95,1.26-.21,3.03-.32,4.32-.25.5.02.85.12,1.31.25,0,0,.04.04.09.08.05.04.1.1.15.16.05.18.07.34.06.49,0,.15-.04.28-.09.4-.1.24-.27.44-.43.64-.25.29-.5.58-.53.99,0,.14,0,.29.06.46.03.09.13.22.27.37.14.16.32.34.51.53.19.19.37.38.53.56.16.18.28.35.33.49l.36.06.36.06c.04-.36-.04-.79-.02-1.17,0-.13.02-.25.05-.36.12-.39,1.08-.92,1.15-1.26h0s0-.11-.02-.18c-.04-.14-.12-.31-.18-.48-.03-.09-.04-.18-.05-.27h0c0-.09,0-.19.02-.3s.04-.21.07-.32c.2-.64.67-1.3,1.28-1.39.05,0,.12,0,.19.02.14.03.31.11.49.16.09.03.18.05.27.06.12.01.23.05.33.1s.19.12.27.21c.14.17.3.38.44.54.07.08.13.16.18.21.05.06.08.09.09.1.01.01.04.03.08.06.04.03.09.06.15.11.12.09.28.23.49.45.11.11.21.24.33.36,0,0,.01.01.02.02.3.32.63.62,1.02.68.02,0,.03,0,.05.01.08,0,.17,0,.26,0,0-.01.13-.14.2-.2.02-.02.04-.04.04-.04.02-.06.04-.12.07-.2.03-.08.06-.16.09-.25.07-.18.15-.37.24-.56.09-.19.18-.36.27-.51.09-.14.19-.25.27-.29.12-.06.25-.1.38-.11.26-.03.52.01.78.01.13,0,.25-.01.38-.05.03,0,.07-.03.12-.07.29-.21.89-.82,1.44-1.18.09-.06.18-.12.27-.16.04-.02.06-.05.09-.07.06-.05.1-.09.12-.12.01-.02.03-.04.03-.05,0-.14-.03-.26-.08-.37-.11-.23-.3-.42-.44-.64-.07-.11-.13-.22-.16-.35-.04-.19-.06-.34-.08-.48,0-.02-.01-.06-.01-.08-.06-.63.14-.82.52-.88.09-.02.2-.03.31-.03.23-.01.49-.01.78-.05.2-.02.35-.06.48-.1.12-.04.22-.07.32-.08.2-.02.42.06.91.43.18.14.34.35.48.56.07.1.13.2.18.29.1.16.16.29.19.31.02.02.06.03.1.05.09.03.22.06.37.09.07.01.15.03.23.04.24.04.49.07.66.09.06,0,.11.01.15.02.06,0,.11,0,.17,0,.11,0,.23-.02.33-.03.05,0,.1,0,.14,0,.09,0,.15.04.19.11.02.04.03.09.03.15s0,.14-.02.24c.02,0,.04,0,.06,0,.06,0,.12,0,.18,0,.24.03.46.1.69.17.21.07.43.15.65.21.02,0,.04.01.07.02.08.02.16.03.23.03.54-.01.97-.56.77-1.11-.09-.25-.22-.48-.35-.71-.03-.06-.07-.12-.1-.17-.13-.21-.27-.42-.43-.64-.13-.19-.27-.37-.4-.56-.05-.06-.09-.13-.13-.2-.15-.22-.29-.44-.41-.66-.05-.1-.08-.2-.09-.28-.01-.08-.02-.15-.03-.18-.08-.16-.17-.32-.24-.48h-.96c-.05.46-.24.58-.34.95q-.03.09,0,0h-.24s-.14-.23-.14-.23h0s.02-.04.02-.09,0-.12,0-.2c0-.32-.04-.85-.04-1.25,0-.2.01-.37.04-.47.02-.08.07-.14.13-.21.06-.06.13-.12.2-.18.14-.12.29-.24.33-.39.03-.1.05-.21.05-.33.06-.85-.35-2.19-.62-2.88-.14-.36-1.43-2.78-1.56-2.88-.07-.05-.13-.08-.18-.1s-.1-.04-.14-.04c-.08-.01-.14,0-.19-.01-.03,0-.06-.01-.08-.03-.09-.05-.19-.18-.37-.53,0,0-.02-.01-.05-.02-.05-.02-.14-.05-.21-.11-.04-.03-.07-.06-.1-.1-.13-.19-.1-.47-.12-.48h0c-.09-.07-.17-.03-.24,0-.07.02-.13.03-.17-.13-.03-.11-.05-.29-.07-.58,0-.08,0-.16,0-.24,0-.08,0-.16,0-.24-.13.03-.23.03-.3.01ZM223.67,99.29c.05.07.12.15.18.24-.07-.08-.13-.16-.18-.24Z"/>
    <path class="cls-3" d="M227.89,129.29c.04-.17.06-.34.06-.5,0-.33-.07-.66-.15-.98-.04-.16-.08-.32-.12-.47,0-.03-.02-.07-.02-.1s-.02-.07-.02-.1c-.1-.4-.21-.8-.32-1.19-.22-.79-.45-1.57-.61-2.39-.08-.41-.14-.82-.18-1.24h0c-.06-.65.34-1.12.34-1.76h0c0-.4-.49-.49-.54-.86h0c-.03-.22-.02-.46,0-.69.02-.23.07-.47.11-.69h0c-.12-.08-.25-.15-.37-.22-.37-.22-.77-.41-1.22-.54-1.04-.3-1.68,1.44-1.62,2.95.03.68.2,1.32.55,1.69.05.06.1.12.14.19.04.07.07.14.09.21.02.07.04.15.04.22,0,.08,0,.15-.02.23-.05.19-.07.34-.09.48-.03.35.04.63.18,1.15.03.11.06.22.09.35.01.04.04.13.08.24.04.11.08.25.13.39.07.21.15.44.21.61.02.06.04.11.05.15.03.09.05.19.05.28h0c0,.44-.03.7-.04.94-.01.39.04.69.46,1.52.81,1.61,2.01,2.51,2.74.16Z"/>
    <path class="cls-9" d="M284.85,92.35c-.49-.14-.65.92-1.24,1.16-.12.05-1.06.28-1.16.28-.94,0-5.59-2.31-6.68-2.91-1.93-1.08-4.43-3.44-6.32-4-.46-.14-1.05-.1-1.52-.28.27,1.81,2.91,2.26,2.4,4.32l1.93.11c.34.49,1.21,2.19,1.66,2.42.59.3,1.62,0,2.29.11.39.06,1.22.36,1.91.49.99.19,2.88.67,3.72,1.08.77.37,2.18,1.54.97,2.16-.7.36-1.8-.04-1.41,1.16.11.34.93.74-.02,1.24-.86.44-1.52-.61-2.41-.37-.3.3,1.32,2.8,1.67,3.01.25.15.45.13.73.11-.23-.95.46-1.38,1.33-1.45.67-.05,1.27.5,1.66.98.55.67,2.3,3.14,2.64,3.84.44.91.73,2.47-.34,3-.42.21-1.3-.02-1.45.47-.13.44,1.36,1.44,1.8,1.56.32-.09.94-2.2,2.41-2.4.4-.05,1.55-.07,1.89.03.08.02,1.25.92,1.36,1.04.45.49,1.34,2.7,1.43,3.37.07.56-.16,1.66.11,2.05.21.3,1.57.38,2.06.58.58.23,1.07,1.1,1.56.14.26-.51.02-1.19.15-1.77.07-.32.38-.57.44-1,.17-1.15-.21-1.37-.44-2.2-.32-1.16-.42-1.68-1.04-2.8-2.25-4.05-5.5-8.62-8.6-12.04-.42-.46-3.25-3.41-3.49-3.47Z"/>
    <path class="cls-9" d="M297.97,116.74c-.02.21.62,1.7.81,1.76.48.13,1.06-.38,1.09-.84.05-.72-.76-1.67-.5-2.52-.8-.28-1.35,1.02-1.4,1.6Z"/>
    <path class="cls-7" d="M244.65,87.31c-.2-.32-.14-.32-.48-.72-1.01-.11-.36.9.48.72Z"/>
    <path class="cls-12" d="M284.51,90.64c-.19-.18.25-1.69-.25-2.03-.86-.27-1.71-.66-2.49-1.11-.91-.52-2.98-1.85-3.28-2.6,0-.02-.23-.23-.24-.24-.29-.18-1.27-.91-1.35-.93-.31-.09-.94.05-1.03-.06-.08-.1.07-.43-.16-.46-2.9-.41-7.52-2.74-10.42-3.95-.66-.28-1.36-.16-1.59-.84-2.13-.93-4.05-.71-6.21-.96-1.78-.21-1.13-.61-3.17-.03-4.03,1.13-8.25.98-12.43.51l-.26.5c-.93.14-3.37-.47-3.68.62-.09.3-.09,1.34,0,1.63.15.49,2.1.96,1.9,2.06.6-.21.41.28.54.42.08.09.3.04.36.11,1.17,1.33,2.42,2.15,3.42,3.31.34.4.28.4.48.72.13.21.38.27.48.48.71-.16.4.37.48.48.02.03.35,0,.61.22.45.4.15.95,1.07.74-.38-.52.03-.88,0-1.43.03,0,.06,0,.09-.01.02,0,.04,0,.06,0,.11,0,.22,0,.32.01,1.08.11,2.15.98,3.18,1.31,1.19.38,2.5.45,3.67.89,1.06.41,1.69,1.02,2.99.91.05.09.52.15.67.3.07.07.15.51.53.66,0,0,0,.47,0,.47.18-.03.34,0,.47.1.29.64.62,1.51,1.04,2.13.39.59.9.65,1.19,1.46.68,1.93,1.75,2.53,2.32,4.06h0c.04.1.12.15.2.18.11.05.22.07.28.12t0,0c.08.06.32.26.54.44.05.05.11.09.16.13.15.13.27.23.27.26.29-.03.52-.1.7-.19.09-.05.17-.1.23-.16.2-.18.29-.42.31-.74.01-.21,0-.45-.04-.72-.06-.44-.39-.73-.45-1.14,0-.06-.03-.11-.02-.17h0l.54-.24.54-.24c.05.01.14.12.24.27.1.15.22.36.34.57.06.11.12.22.18.32.18.32.35.61.45.75.23.3.52.6.85.9.67.61,1.51,1.23,2.44,1.8.46.29.95.57,1.44.83.49.26,1,.51,1.5.73.75.34,1.49.62,2.19.84.69.22,1.34.36,1.9.42.05,0,.13,0,.22.01.18,0,.42,0,.67,0,.25,0,.51-.01.74-.02.11,0,.22,0,.31,0,.18,0,.31,0,.33.03.12.1.17.17.17.23.02.17-.35.19-.52.25-.35.12-.71.39-1.02.65-.23.19-.43.37-.58.47-.05.03-.09.05-.12.06-.88.25-3.68-1.92-5,.02-.26.38-.36.73-.35,1.05,0,.24.08.46.2.66.08.13.18.26.3.38.41.41,1.03.72,1.63.92.31.1.68.22,1.08.32.99.27,2.15.5,3.08.52.19,0,.36,0,.53-.02.07,0,.17-.02.3-.04.13-.02.27-.05.42-.07s.29-.06.41-.08c.12-.03.22-.05.28-.07.44-.13.44-.78,1.19-.65.55.09,2.91,1.56,3.05,2.01h0c.07.23-.28.6-.36.6h-3.6c-.08,0-.68-.45-1.08-.24-.02.1-.02.2-.01.29,0,.09.02.18.05.26.05.17.13.32.24.5.65,1.08,3.15,2.44,3.69,3.51.07.14.11.28.12.41,0,.07,0,.14,0,.21,0,.07,0,.14-.01.22l-.56.28-.56.28c-.18.02-.39.04-.59.06-.2.01-.4.01-.58-.02-.15-.02-.27-.08-.37-.16-.2-.16-.34-.38-.55-.49-.11-.06-.23-.09-.39-.07h0l.24,1.92h.72s0-.72,0-.72c.49.09,1.18.26,1.83.52.32.13.63.28.9.45.27.17.49.37.64.58.06.08.1.19.15.3.06.17.12.35.19.5s.15.26.27.29c.12.02.39-.12.67-.2.09-.03.19-.05.27-.05.15,0,.3,0,.44.03.29.05.57.17.83.33.39.25.72.6.95.99.08.13.14.27.2.4.05.14.09.28.12.42.26.05.42.06.53.03.26-.07.15-.36.29-.68.03-.07.07-.13.12-.2.32-.39.81-.28,1.1-.58.06-.06.11-.14.16-.22.27-.48.32-1.22.92-1.88.1-.11.21-.22.35-.32.98-.76,1.03.39,1.45.96.03.04.1.12.18.23.13.16.31.38.51.63.14.17.28.34.43.52.3.36.61.73.87,1.04.2.23.36.43.48.56.08.09.13.14.15.16.38.3.75.16,1.1.34.35.18.6.84.84,1.35.04.09.08.17.12.24s.08.14.12.2c.06.09.14.18.23.28.18.2.42.42.68.63.65.54,1.46,1.06,1.96,1.25.1.04.17.05.22.05.05,0,.08-.03.1-.07.04-.07.03-.2.03-.34h0c.01-.24,0-.48-.02-.73s-.02-.49.02-.71c.06-.46.49-.84.49-1.2h0c0-.06-.02-.12-.04-.17-.17-.36-.75-.75-.74-1.02,0-.04.02-.09.06-.12.02-.02.05-.02.1-.02.04,0,.1.03.16.05.12.05.28.14.44.24.32.19.66.42.82.49.3.12.51.28.89.19h0c.07-1.44-.67-2.77-.95-4.21-.02-.09-.02-.18-.02-.27s0-.19.01-.28c0-.09.01-.18.02-.27s0-.17-.02-.25c-.07-.37-.6-.55-.69-.87-.03-.1-.06-.23-.08-.37h0c-.12-.63-.22-1.6-.38-2.29-.43-1.9-.87-3.81-1.5-5.66-.55-1.6-1.47-2.42-2.35-3.83-1.24-1.98-2.69-3.91-4.26-5.68-1.18-1.33-2.5-2.54-3.76-3.79-1.14-1.13-2.23-2.23-3.34-3.32-.79-.77-1.6-1.54-2.46-2.29-.22-.19-.53-.2-.58-.25ZM299.37,115.14c-.27.85.55,1.8.5,2.52-.03.46-.62.97-1.09.84-.19-.05-.83-1.55-.81-1.76.05-.58.6-1.89,1.4-1.6ZM296.93,107.86c.62,1.12.72,1.64,1.04,2.8.23.83.6,1.05.44,2.2-.06.42-.37.68-.44,1-.13.58.11,1.25-.15,1.77-.49.96-.98.09-1.56-.14-.49-.19-1.85-.28-2.06-.58-.27-.38-.04-1.49-.11-2.05-.09-.67-.98-2.88-1.43-3.37-.11-.12-1.28-1.02-1.36-1.04-.34-.1-1.49-.08-1.89-.03-1.46.2-2.08,2.31-2.41,2.4-.44-.12-1.93-1.12-1.8-1.56.15-.5,1.03-.27,1.45-.47,1.07-.53.78-2.09.34-3-.34-.7-2.09-3.17-2.64-3.84-.39-.48-.99-1.03-1.66-.98-.87.07-1.56.5-1.33,1.45-.27.01-.47.04-.73-.11-.35-.21-1.97-2.71-1.67-3.01.89-.24,1.55.81,2.41.37.95-.49.13-.9.02-1.24-.39-1.2.71-.8,1.41-1.16,1.21-.62-.2-1.79-.97-2.16-.84-.41-2.73-.89-3.72-1.08-.69-.13-1.53-.43-1.91-.49-.67-.1-1.71.19-2.29-.11-.45-.23-1.32-1.92-1.66-2.42l-1.93-.11c.51-2.06-2.13-2.51-2.4-4.32.47.19,1.06.14,1.52.28,1.88.56,4.38,2.92,6.32,4,1.09.61,5.75,2.91,6.68,2.91.1,0,1.04-.23,1.16-.28.58-.24.75-1.3,1.24-1.16.24.07,3.07,3.01,3.49,3.47,3.1,3.42,6.34,7.99,8.6,12.04Z"/>
    <path class="cls-3" d="M233.37,76.51c-1.05-.25-2.69-.58-2.64.96.8-.23,2.66.1,2.64-.96Z"/>
    <path class="cls-11" d="M450.33,350.53c-.17-2.44.23-5.16.01-7.57-.08-.83-.89-1.91-1.68-2.16-.53-.17-1.86-.04-1.93-.11-.43-.38.21-.43.31-.52,1.07-.85.83-.99,1.4-1.97.21-.36.58-.56.8-.88.64-.91.13-.86-.06-1.6-.5-1.86-1.02-3.27-2.01-4.95-1.18-2.02-4.94-7.42-6.69-8.67-1.21-.86-2.32-.57-3.71-.61-.24,0-.48-.23-.73-.23-.47,0-1.86.54-2.27.84-.51.37-.63.87-.97,1.19-.8.75-1.27.91-1.92,1.8,1.98-.3,1.25,3.14,1.46,3.34.06.06.3.03.44.14.49.4,2.25,1.73,2.38,2.19.28.92-.02.79-.69.81-.17.86.57.96,1.12,1.4l.32.04c0-.33-.05-.82.38-.94,1.65-.47,2.34,1.22,1.3,2.38,2.32.7,3.82,1.52,5.64,3.12.21.19.61.29.74.46.38.53-.3,1.31-.13,1.93-.63-.18-1.38-.14-2-.28-1.33-.3-2.7-.67-4.07-.97-.73-.16-1.31-.66-2.18-.4-.17.05-1.3,1.18-1.33,1.32-.06.29.86,2.23.46,2.97l.89.43c1.9.28,4.22,2.01,5.99,2.41.54.12,1.39-.11,1.77.15.33.23.19.88.34,1.34.52,1.58,2.09,4.56,3.01,5.99.53.83,1.16,2.2,2.41,1.57.64-.33.59-.9.76-1.39.05-.14.19-.16.19-.17,0-.02,0-.05,0-.09,0-.07-.03-.16-.02-.24,0-.04.02-.08.05-.11.04-.05.3-.19.56-.32.2-.09.4-.18.51-.2.04,0,.07,0,.09,0-.04-.35.13-.65.48-.72-.04-.21.03-.49,0-.72-.46.05-.97-.03-1.44,0Z"/>
    <path class="cls-14" d="M451.29,351.97s.02.03.04.06c.04.06.11.16.22.19.06.02.13.02.21-.01h0c-.02-.07-.02-.13,0-.19.04-.18.18-.31.22-.46h0c.02-.06.01-.11,0-.15-.03-.08-.11-.12-.16-.14-.02-.01-.04-.02-.04-.02-.35.07-.52.37-.48.72Z"/>
    <path class="cls-6" d="M435.18,330.76c-.14-.46-1.89-1.79-2.38-2.19-.14-.11-.39-.09-.44-.14-.21-.2.52-3.64-1.46-3.34-.05.07-1.14.56-1.44.72,0,.32.01.64,0,.96,0,.16.02.33,0,.48-.05.35-.12.8-.48.96.04.25.03.7,0,.96.43.15.62.6.96.84.17.12.84.54.96.6.57.32,1.83.43,1.9.51.08.1-.07.42.15.46.4.06,1.09,0,1.55-.01.67-.02.97.11.69-.81Z"/>
    <path class="cls-6" d="M436.31,332.07c-.43.12-.38.61-.38.94,0,.54.21,1.06.72,1.33.39.2.73.04.96.11,1.04-1.15.35-2.85-1.3-2.38Z"/>
    <path class="cls-1" d="M428.97,329.17s-.27.05-.21.31c.07.33.63,1.68.81,2.09.12.27.23.53.48.72l.84-1.68c-.12-.07-.79-.49-.96-.6-.35-.24-.54-.69-.96-.84Z"/>
    <path class="cls-1" d="M429.12,325.84c-.7.34-.36.95.33.93.01-.32,0-.64,0-.96-.06.03-.21-.03-.33.03Z"/>
    <path class="cls-1" d="M429.45,327.25l-.33.02-.38.35c-.14.47.23.55.24.59.36-.16.43-.61.48-.96Z"/>
    <path class="cls-2" d="M293.61,239.43c-1.59.17-3.06-1-4.48-1.4-1.13-.31-2.42-.35-3.55-.53-1.69-.26-3.12-1.1-4.67.14-.45.36-.85.68-.73,1.31,2.56-.27,5.15,2.09,6.12,4.32.55,1.26.62,2.4.88,3.68.1.48.45.93.45,1.48,0,.18-.7,2.15-.77,2.24-.08.1-.56.06-.66.41-.29.96.4,2.39,1.42,2.5-.23-.54.56-1,.47-1.3-.15-.52-1-.72-1.19-.87-.52-.43,1.59-2.05,1.88-2.54.37-.61.14-1.87.63-2.01.55-.16,1.02,1.2,1.31,1.56.47.59,1.28.81,1.68,1.56,0-.02.2-.02.24-.34.24-1.66-.54-1.39-1.08-2.3-.57-.94,0-1.41-.12-2.28-.08-.6-.58-.86-.49-1.68.07-.62.84-1.41,1.32-1.81.34-.28,1.16-.6,1.3-.74.12-.11-.03-1.1.02-1.42Z"/>
    <path class="cls-15" d="M290.73,248.44c-.29-.36-.76-1.72-1.31-1.56-.49.14-.27,1.39-.63,2.01-.29.49-2.4,2.11-1.88,2.54.18.15,1.04.35,1.19.87.08.3-.71.76-.47,1.3.95.1,1.65-.05,2.53-.23.25-.05.71.07.81-.03.06-.06.03-.31.15-.44.26-.3.97-.86,1.05-1.12.12-.44.12-1.17.27-1.77-.4-.75-1.21-.97-1.68-1.56Z"/>
    <path class="cls-12" d="M275.83,252.51c-.47-.21-.9-.59-1.31-.61-.11,0-.21.01-.31.04-.2.06-.39.16-.57.2-.09.02-.18.02-.28,0-.05-.02-.11-.04-.16-.08-.16-.11-.31-.32-.48-.52-.06-.07-.12-.13-.18-.2-.12-.13-.26-.24-.41-.31-.08-.04-.15-.06-.24-.07-.29-.04-.4.1-.4.31,0,.14.04.32.1.49.06.17.14.34.21.47.04.07.07.12.1.16.15.21.34.43.58.65.81.75,2.08,1.5,3.37,2.12.52.25,1.04.47,1.53.67.25.1.49.19.72.27.34.12.66.21.94.29.14.04.28.07.4.1l-2.03-2.17c-.38-.53-.63-1.06-.85-1.67-.09.02-.19.02-.28.01-.16-.01-.31-.07-.46-.14Z"/>
    <path class="cls-13" d="M272.87,241.84s0,.03.02.07c-.03-.09-.03-.18-.06-.27-.01-.05-.03-.09-.05-.14,0,0,0,0-.01-.03-.03-.07-.09-.13-.13-.2-.01-.01-.03-.03-.04-.04-.04-.04-.08-.07-.12-.11-.16-.14-.2-.35-.17-.54-.53-.51-1.2-.81-2.04-.34-.02.07-.04.14-.05.21-.03.12,0-.02-.02.11-.03.38,0,.66.06.95.13.6.36,1.17.57,1.74.04.03.08.07.13.09.41.17.83.25,1.23.25,0,0,0,0,0,0,0,0,0,0,0,0,.08-.07.15-.14.22-.22.01-.02.03-.04.05-.06.01-.02.03-.04.04-.06.06-.09.12-.18.17-.28.02-.04.04-.07.05-.11,0,0,0,0,0,0,0,0,0,0,0-.03.04-.1.07-.19.09-.29.01-.05.02-.09.03-.14,0-.03,0-.07,0-.1,0,.01,0,.03,0,.07,0-.09.02-.19.02-.28,0-.05,0-.11,0-.16,0-.03-.01-.07-.02-.09Z"/>
    <path class="cls-12" d="M269.62,243.02l1.19.25c.04-.1.06-.2.07-.29.04-.43-.18-.76-.36-1.06-.09-.15-.17-.3-.19-.45-.02-.13-.03-.26-.02-.41.02-.57.2-1.25.4-1.86.15-.46.32-.88.43-1.18.1-.27.17-.46.15-.51,0,0-.02-.02-.03-.03-.04-.02-.09-.04-.13-.07-.02-.02-.03-.04-.04-.06h0c-.01-.06,0-.13.03-.2.07-.18.23-.4.17-.59-.46-.12-.63.27-.82.55h0c-.04.06-.09.12-.14.17-.28.26-.5.49-.73.72-.08.08-.15.15-.23.23h0c0,.13.01.25.03.37.02.12.04.23.07.35.05.23.11.46.13.73h0c0,.08,0,.16,0,.24.01.26.02.52.02.77,0,.78-.05,1.56,0,2.33Z"/>
  </g>
  <g>
    <path class="cls-8" d="M4.39,13.73v-3.46H1.23v-1.34h3.16v-3.47h1.39v3.47h3.17v1.34h-3.17v3.46h-1.39Z"/>
    <path class="cls-8" d="M14.02,15.76c-.77,0-1.44-.23-1.99-.7-.56-.46-.99-1.14-1.29-2.03-.3-.89-.45-1.98-.45-3.27s.15-2.37.45-3.25c.3-.88.73-1.54,1.29-1.98.56-.45,1.22-.67,1.99-.67s1.42.22,1.97.67c.55.45.98,1.11,1.28,1.98.3.88.45,1.96.45,3.25s-.15,2.38-.45,3.27c-.3.89-.73,1.57-1.28,2.03-.55.46-1.21.7-1.97.7ZM14.02,14.29c.39,0,.73-.15,1.03-.45.3-.3.54-.78.7-1.44.17-.66.25-1.54.25-2.64s-.08-1.97-.25-2.62c-.17-.65-.4-1.11-.7-1.4-.3-.29-.65-.43-1.03-.43s-.73.14-1.03.43c-.3.29-.54.75-.71,1.4s-.26,1.52-.26,2.62.09,1.98.26,2.64.41,1.14.71,1.44c.3.3.65.45,1.03.45Z"/>
    <path class="cls-8" d="M23.75,15.54v-7.36c0-.32.01-.71.03-1.16.02-.45.04-.83.05-1.14h-.06c-.15.28-.29.56-.45.84s-.31.57-.48.87l-2.25,3.49h6.3v1.44h-8.13v-1.25l4.58-7.18h2.09v11.46h-1.69Z"/>
  </g>
</svg>