<?xml version="1.0" encoding="UTF-8"?>
<svg id="a1" xmlns="http://www.w3.org/2000/svg" viewBox="0 0 600 500">
  <defs>
    <style>
      .cls-1 {
        fill: #c9caca;
      }

      .cls-2 {
        fill: #45413a;
      }

      .cls-3 {
        fill: #867b6f;
      }
    </style>
  </defs>
  <g>
    <path class="cls-3" d="M330.49,120.54c-1.22,3.04.18,2.86.96,4.82,3.54-.88,2.87-.02,2.41,2.67-.15.9.58,1.94-.96,1.67,1.14,2.5,1.93,2.58,2.89,3.86,1.57.4,2.4-1.13,3.86-.96.01.32-.01.64,0,.96.78.11,1.45-.86,1.93-.96-.05-1.28.07-2.58,0-3.86-.08-1.41-.44-.88,0-2.89.5-2.31-.05-2.71,2.89-2.41-.05-.15.06-.36,0-.48-.14-.31-.29-.69-.48-.96s-1.24-.44-.97-1.2c-.02-.43.59-.23.97-.24,1.12-.04,2.25.03,3.38,0v-.48c-.51-.09-2.76-1.52-2.89-1.93-.66-.14-.51-.63-.48-1.2l.48-.24,3.38.48v-.48c-.48.11-2.44-1.81-.66-2.36,1.11-.34,4.08.89,4.52.43.05-.06-.16-.68.09-.86.42-.31,1.35.09,1.76-.2.26-.18.02-.79.08-.87-1.34-.82-2.9-.88-4.36-1.67-1.16-.62-3.37-2.35-.69-2.21,1.04.05,1.92.41,2.89.5.9.08,1.96.42,1.68-.97-1.08-.52-3.02-1.25-3.62-2.4-.89-1.69-.01-1.4,1.21-1.45.16,0,.32,0,.48,0,.29-2.51,3.54-.02,3.11-3.4,1.16,0,1.81-1.65,2.68-1.42l.48-.48c-.46-2.8.55-1.56,1.45-1.93.13-.05,1.64-1.63,1.93-1.93,1.74-1.84,2.81-3.74,4.82-5.79,1.42-1.45,2.08-1.81,3.38-2.89,1.65-1.38,6.4-6.52,8.69-5.08.72.46,1.22,2.82,2.89,2.67.04-.09.67-.34.9-.77.72-1.32.81-3.61.33-5.05-.16-.47-3.23-3.39-3.65-3.58-1.18-.54-2.65-.27-3.88-.03-4.37.86-20.16,8.8-23.38,11.83-1.65,1.55-2.09,2.86-3.35,4.36-3.14,3.73-6.99,5.7-9.82,10.44-1.77,2.97-1.1,3.65-1.64,6.56-.79,4.23-4.15,8.59-5.68,12.41Z"/>
    <path class="cls-3" d="M418.78,85.1c-.22.1-3.3,2.75-3.64,3.11-1.66,1.74-3.69,4.86-5.54,7.02-.3.35-.42,1.07-.54,1.16-.16.11-2.22-.84-3.55.52-1,1.04-.47,2.84-.78,3.3-.6.89-3.52-.2-3.8.07-1.12,1.1,2.14,2.6,2.34,3.2.89,2.63-1.7,1.3-3.54,1.63-.68.12-1.11.74-1.54.83-.59.11-2.24-.69-2.57-.35-.14.14.4,3.48.6,3.98.3.78,2.63,2.44,1.81,3.25-.9.89-5.36-3.2-6.27-2.41-.3,2.07,4.55,3.97,4.82,4.35.06.09.17,1.02-.24.96l-3.61-.48c-.6,1.23.95.78,1,1.25.13,1.2-1.11,4.27-.52,5.99-2.03-3.27-2.25.32-4.12.5-1.26.12-1.46-.57-2.16-.98v-3.37s-1.45.48-1.45.48c-.03-.06-.9-.94-.96-.96-1.11-2.46.3-4.68,0-7.23.17-.18,1.15.48,1.63.4.83-.15,6.96-10.04,8.1-11.64,3.6-5.07,7.53-9.88,11.04-15.01,4.45-3.14,8.39-5.42,13.84-6.42,1.24-.23,7.08-1.01,7.89-.84,2.04.42.93,1.55,1.01,2.4.39,4.01-.07,6.55-2.99,9.41.66-3.57-3.33-5.43-6.27-4.1ZM392,115.24v-.48c-.31.16-.31.32,0,.48Z"/>
    <path class="cls-2" d="M226.77,235.79l-.32.4c-.37.13-.75.07-1.13.08-.53.02-2.33-.09-2.41,0-.1.1.05,1.87,0,2.41,1.27-.95,2.46-2.48,3.81-.67,1.41,1.9-.68,2.06-1.6,3.12-1.32,1.51-2.94,5.22-3.17,7.19-.12.98.19,5.09,0,5.31h-.96c-.04,1.23-.63,2.65-.49,3.58.17,1.17,1.07,1.45.98,3.65,2.19-.53,3.2.98,4.82,1.71.52.23,1.15.1,1.45.22-.86-3.75,1.12-3.29,2.43-5.05,1.13-1.54,2.08-9.02,1.93-11.13-.25-3.71-1.78-9.23-5.32-10.83Z"/>
  </g>
  <g>
    <path class="cls-1" d="M3.04,11.7v-1.36h4.13v1.36H3.04Z"/>
    <path class="cls-1" d="M12.35,15.76c-.77,0-1.44-.23-1.99-.7-.56-.46-.99-1.14-1.29-2.03-.3-.89-.45-1.98-.45-3.27s.15-2.37.45-3.25c.3-.87.73-1.54,1.29-1.98.56-.45,1.22-.67,1.99-.67s1.42.22,1.97.67c.55.45.98,1.11,1.28,1.98.3.87.45,1.96.45,3.25s-.15,2.38-.45,3.27c-.3.89-.73,1.57-1.28,2.03-.55.46-1.21.7-1.97.7ZM12.35,14.29c.39,0,.73-.15,1.03-.45.3-.3.54-.78.7-1.44.17-.66.25-1.54.25-2.64s-.08-1.97-.25-2.62c-.17-.65-.4-1.11-.7-1.4-.3-.29-.65-.43-1.03-.43s-.73.14-1.03.43c-.3.29-.54.75-.71,1.4-.17.65-.26,1.52-.26,2.62s.09,1.98.26,2.64.41,1.14.71,1.44c.3.3.65.45,1.03.45Z"/>
    <path class="cls-1" d="M21.26,15.76c-.72,0-1.36-.14-1.92-.41s-1.01-.65-1.34-1.12-.49-1.02-.49-1.62c0-.49.1-.93.3-1.3s.45-.71.77-1c.31-.29.64-.52.99-.7v-.06c-.42-.31-.78-.68-1.08-1.12-.3-.44-.45-.95-.45-1.55s.14-1.14.43-1.59c.29-.45.68-.8,1.17-1.05.49-.25,1.06-.37,1.7-.37.67,0,1.24.13,1.72.39.48.26.85.62,1.12,1.08.27.46.4.99.4,1.6,0,.39-.08.76-.23,1.1s-.35.65-.58.91c-.23.27-.46.49-.7.67v.06c.34.2.66.44.96.7.3.27.53.58.71.95.18.37.27.81.27,1.32,0,.58-.15,1.1-.46,1.57-.31.47-.74.84-1.3,1.12-.56.28-1.21.42-1.96.42ZM21.3,14.42c.39,0,.73-.07,1.02-.22.3-.15.53-.36.7-.63.17-.27.25-.59.25-.97,0-.33-.07-.62-.22-.86-.15-.24-.35-.45-.61-.63-.26-.18-.56-.35-.9-.5-.34-.15-.71-.31-1.1-.46-.4.27-.72.59-.97.98s-.38.82-.38,1.3c0,.39.1.74.29,1.04.19.3.46.53.79.7.33.17.71.26,1.12.26ZM22.02,9.16c.33-.32.59-.66.76-1.01.17-.35.26-.72.26-1.1,0-.35-.07-.67-.2-.94-.14-.28-.34-.5-.6-.66-.27-.16-.59-.24-.96-.24-.47,0-.86.15-1.17.44-.31.29-.47.7-.47,1.22,0,.42.11.76.34,1.03.22.27.52.51.88.7.36.2.75.38,1.18.55Z"/>
  </g>
</svg>