<?xml version="1.0" encoding="UTF-8"?>
<svg class="a3" xmlns="http://www.w3.org/2000/svg" viewBox="0 0 600 500">
  <defs>
    <style>
      .cls-1 {
        fill: none;
      }

      .a3 {
        fill: #a98e6a;
      }

      .cls-3 {
        fill: #c9caca;
      }
    </style>
  </defs>
  <g>
    <path class="cls-3" d="M4.39,13.73v-3.46H1.23v-1.34h3.16v-3.47h1.39v3.47h3.17v1.34h-3.17v3.46h-1.39Z"/>
    <path class="cls-3" d="M14.02,15.76c-.77,0-1.44-.23-1.99-.7-.56-.46-.99-1.14-1.29-2.03-.3-.89-.45-1.98-.45-3.27s.15-2.37.45-3.25c.3-.88.73-1.54,1.29-1.98.56-.45,1.22-.67,1.99-.67s1.42.22,1.97.67c.55.45.98,1.11,1.28,1.98.3.88.45,1.96.45,3.25s-.15,2.38-.45,3.27c-.3.89-.73,1.57-1.28,2.03-.55.46-1.21.7-1.97.7ZM14.02,14.29c.39,0,.73-.15,1.03-.45.3-.3.54-.78.7-1.44.17-.66.25-1.54.25-2.64s-.08-1.97-.25-2.62c-.17-.65-.4-1.11-.7-1.4-.3-.29-.65-.43-1.03-.43s-.73.14-1.03.43c-.3.29-.54.75-.71,1.4s-.26,1.52-.26,2.62.09,1.98.26,2.64.41,1.14.71,1.44c.3.3.65.45,1.03.45Z"/>
    <path class="cls-3" d="M19.14,15.54v-1.07c1.07-1.08,1.99-2.03,2.76-2.87s1.35-1.59,1.76-2.27c.41-.68.61-1.31.61-1.91,0-.43-.07-.79-.21-1.1s-.35-.55-.64-.72c-.29-.17-.65-.26-1.09-.26s-.86.13-1.23.39c-.38.26-.72.57-1.03.92l-1.02-1.02c.49-.55,1.01-.99,1.56-1.3.55-.31,1.2-.46,1.96-.46.7,0,1.31.14,1.83.43.52.29.92.69,1.21,1.21.29.52.43,1.12.43,1.82s-.19,1.4-.57,2.11c-.38.71-.89,1.46-1.54,2.22-.65.77-1.37,1.58-2.17,2.43.3-.03.62-.06.96-.09.34-.03.65-.04.93-.04h2.94v1.58h-7.44Z"/>
  </g>
  <g>
    <path class="cls-1" d="M128.32,189.71s-.07.02-.11.04c.02-.01.05-.02.08-.03.01,0,.02,0,.03,0Z"/>
    <path class="a3" d="M197.77,106.56c1.83.52,4.92,2.04,4.8,4.32-1.85-1.7-3.52-2.2-4.8-4.32Z"/>
    <path class="a3" d="M195.37,103.68c.08,0,.17,0,.25,0-.08,0-.17.01-.25,0h0Z"/>
    <path class="a3" d="M211.2,119.51l-.12-.12.12.12c.06.02.13.02.22,0-.08,0-.16.01-.22,0Z"/>
    <path class="a3" d="M238.58,116.63c-.01.32,0,.64,0,.96h-.96c-.04-.31.06-.67,0-.96-.13-.65-.32-1.27-.48-1.92h1.44c-.02.64.03,1.28,0,1.92Z"/>
    <path class="a3" d="M237.12,113.98c0,.16-.03.34-.04.5,0-.16.03-.34.04-.5Z"/>
    <path class="a3" d="M368.06,434.07h-.48c.03-.21-.03-.44.08-.64l.4-.32c-.68-1.46,2.93-5.9,4.01-5.72.71.12,1.22.8,2.7.92v.48h0c-.04,1-.35,1.85-.48,2.88-.22,1.8-.68.64-.96.96-.19.22.43,1.39-.48,2.4-.05.06.02.31-.28.43-.24.09-.47.02-.68.05-.15.02-.32,0-.48,0l-.28.43c-1.17.12-1.79.31-2.6-.43-.39-.36-.47-.1-.48-.96h0c0-.16-.03-.35,0-.48Z"/>
    <path class="a3" d="M275.24,435.51c.49.61.21,1.84.24,2.64.04.94-.5,1.94.96,1.68.03-.01.07,0,.11,0-.04,0-.08,0-.11,0-1.05.39-2.44,2.87-2.64,2.87l-1.2-1.92h0c-.21-.64,1.97-4.5,2.64-5.27Z"/>
    <path class="a3" d="M246.7,426.87l3.3,3.66c-.2,1.54.3,2.73.54,4.02.15.8.16,1.09.48,1.92h-.96c.29.8-.35.82-.48.96-.03.03.07.47-.24.48-.26-.09-.19-.45-.24-.48-.16-.12-.49-.09-.73-.47-.25-.4-.15-.69-.23-.97-.05-.18.07-.45-.03-.69l-.45-.27h0c.22-2.76-.82-5.41-.96-8.15Z"/>
    <path class="a3" d="M405,400.99c-2.4.77-2.43-1.83-3.36-2.4l3.06-.03,1.98-2.37c1.59.14,1.2,1.76,1.2,2.88.11.13.63-.36.96-.48.29,1.21-.45.82-.93,1.21-.98.8-1.99,1.41-2.91,2.15-.04.03-.09.07-.15.11.05-.04.1-.08.15-.11v-.95Z"/>
    <path class="a3" d="M291.21,440.92c1.64-4.18,2.63-9.2,4.52-13.23,1.06-2.26,3.69-4.63,3.67-.65-3.32,5.77-5.38,12.29-9.04,17.81.46.76,1.58-.3,2.09-.18.22.06.28.41.31.42q.15.02,0,0l-.31.4c-1.2.28-2.36.69-3.53,1.04q-.07.02,0,0c.09-2.04,1.56-3.75,2.29-5.62Z"/>
    <path class="a3" d="M401.64,177.05h0s.35-.09.4-.32c.03-.14.05-2.58.03-2.71-.04-.23-1.2-2.84-1.45-3.4-.11-.24-.2-.24-.42-.28-.51-2,1.47-1.99,1.92-2.4.33.73,1.3.75,1.91,1.21.49.38,2.36,2.72,2.89,2.15-.26-2.31-.74-4.58-.47-6.94.3-2.57,1.98-5.88,2.33-8.25.1-.65-.79-.97-.92-1.82-.77-5.23,4.28-17.92,7.68-22.08,3.33-4.07,4.66-2.93,5.76-8.86.04-.19,1.59-2.78,1.92-3.36,2.09-3.7,2.92-2.01,5.91-3.45,2.68-1.29.68-4.18-1.43-4.63-.92-.2-2.34.22-2.82-.54-.09-.15-.65-2.72-.69-3.15-.1-1.02-.16-2.86-.02-3.84.28-2.02,6.32-3.63,6.65-6.3.08-.62-.87-1.24.06-1.86,1.08-.72,2.77-.02,2.43-1.91-.29-1.6-3.21-1.83-4.56-1.66-1.76.23-3.62,1.71-5.52,1.43v-7.43c0-.71,5.32-7.74,6.16-9.19.72-1.24,2.61-4.95,2.48-6.14-.06-.51-.48-.98-.49-1.46-.03-1.35,1.72-1.46.23-3.58-.8-1.14-2.17-2.03-3.59-1.93-.53-1.51,1.47-2.02,1.47-3.12,0-1.72-3.22-2.28-3.39-2.88v-.48c.82-.82,1.74-1.32,1.42-2.62-1.6-.4-4.46-2.42-5.98-2.42-.8,0-3.8,1.61-4.57,2.17-.33.24-.4.65-.47.71-.81.6-1.91,1.87-2.88,1.44-.12-.05-1.34-2.13-1.88-.2-.32,1.14-.22,3.3-.61,4.67-.63,2.23-1.89,1.67-3.27,2.49-.8.48-1.11,2.01-1.72,2.14-.4.09-.92-.42-1.41-.47-1.31-.14-3.78,2.48-4.06,3.85-.79.12-.46-.65-.48-1.2-.05-1.79-.02-3.27-.48-5.04-1.27-.38-1.8.64-2.3,1.78-1.09,2.52-1.59,6.67-2.73,8.78-.13.25-.78.83-.72.16-.01-1.57-1.43-.04-1.93.54-3.37,3.9-4.34,8.23-7.66,12.01-5.04,5.73-10.56,9.37-14.02,16.68-1.79,3.79-2.47,7.92-3.74,11.84h0c.73.37,2.2,3.83-.96,3.84t0,0s.02,0,.04,0c.08.64.48,1.22.48,1.67,0,.18-.39,2.54-.48,2.64,0,0-.02,0-.02,0,.84.24,1.07,1.19,1.43,1.91.17-.06.34-.07.51-.05,1.16.08,2.2,1.74,1.93,2.93.16.04.3.05.44.05.97-.03,1.38-1.01,2.4-1.01,0,0,.01,0,.02,0,0,0,0,0,.01,0,.56,0,.98.2,1.44.48-.09.44.09,1.02-.08,1.58-.43,1.46-1.69,2.91-1.36,4.64.84-.29,1.55-.45,2.08-.45,1.2-.02,1.58.77.8,2.85.02,0,.05,0,.07,0,.07-.02.14-.04.22-.05.08-.01.15-.02.24,0,1.42.07,3.58,2.06,4.04,2.95.5.96.86,3.08,1.42,4.33,1.84,4.1,3.67,7.77,5.31,11.96.45,1.17.89,2.68,1.18,3.85,1.61-.25,1.1.14,1.66.93.31.45,1.6,2.04,1.65,2.24.17.74-1.15,1.13-.94,1.87.31,1.13,2.63.53,2.83.79.11.14-.03.6.14.79.26.28.76.04.86.11.07.05.18,1.06.54,1.62.98,1.54,2.64,3.58,3.78,5.1.45.6.96,1.25,1.44,1.92.34.47,1.41.99,1.5,2.11l.42.28ZM400.68,127.66c-1.08,1.58-1.66,3.76-3.36,4.79-.27-1.01,2-6,3.36-4.79ZM398.27,137.97c.49-1.93,6.64-12.24,5.77-13.19l-3.36,1.92.48-3.36-1.44.24c.81-1.14.68-2.86,1.18-4.1.64-1.59,2.3-2.57,1.7-4.78l-1.92.96c-.58-.63,2.92-9.99,3.59-11.52,1.34-3.06,3.21-6.57,5.28-9.12.25-.31.19-.83.26-.92.29-.34,1.8.36,2.31.53-.06.95,1.65,2.49,1.5,3.01-.2.7-3.49,3.19-4.09,5.05-.31.95-.1,1.74-.29,2.59-.19.83-1.2,1.58-.88,2.71,1.49-.97,2.49-2.63,4.29-3.14,3.43-.96,6.58.64,2.51,2.75l-1.53,3.27,3.84-.48c-.05.68.13,1.45-.06,2.1-.39,1.37-6.22,5.4-6.19,6.76.01.69.84,1.67.5,2.65l-2.38.02c-.58,2.11-1.09,4.3-1.45,6.46-.46,2.75-.57,3.25-1.36,5.84-.35,1.14-.59,4.14-1.52,4.72-.49.31-1.3.13-1.44.24-.49.38,1.27,5.74-2.12,4.73-1.28-.38-3.38-4.49-3.18-5.94Z"/>
    <path class="a3" d="M393.47,230.5c1.07-1.27,3.78-4.09,5.04-5.04.8-.6,1.6-1.08,2.65-.95q.06-.28,0,0c-.21.92-.34,2.74-.48,3.84-1.18-.26-1.45.36-2.16.96-1.11.93-4.55,4.98-5.33,5.22-.51.15-1.09.03-1.62.06-.74-.74,1.35-3.42,1.91-4.08Z"/>
    <path class="a3" d="M399.72,230.27v-.48s.96,0,.96,0h0c.23.08.41.25.48.48,0,.02.01.06.01.1,0-.05,0-.08-.01-.11h-1.44Z"/>
    <path class="a3" d="M313.36,64.83s.01.01.02.01h0s-.01,0-.02-.01Z"/>
    <path class="a3" d="M315.75,65.67c.02.07,0,.13.02.13h0s0-.06-.02-.13Z"/>
    <path class="a3" d="M405,363.1c0-.16-.02-.33,0-.48h1.92c.4-.1.99.06,1.44,0,.3-.18.71-.29.96-.48.54-.41,1.9-1.85,2.17-2.38.67-1.29-.33-3.09,1.65-4.1.72-.37,2.95-.15,3.37.25.03-.03.06-.05.09-.08,0,0,0,0,0,0-.03.03-.06.05-.09.08.09.09.41,1.84.72,2.39.15.26.89,1.09,1.2,1.44h0l-.48.24c.83.82.83,1.61.96,2.64.16,1.32-.15,2.66.56,4.01l.4.31h0c-.42,2.71-1.65,6.31-.96,8.63-1.8.14-2.77,1.5-4.8.96.15-1.57.83-2.05-.48-3.36-.26.11-.92-.15-1.45.22-.81.57-1.23,3.04-2.62,3.14l.19-4.03-.91-.77c-.07.47.27,1.32-.26,1.45-.2.05-.46-.03-.7-.01-.15.01-.34.02-.48,0l-.24.48-.24-.48c-.34-.08-.44-.46-.48-.48-.34-.13-.91.29-.98-.27-.07-.51-.06-1.41.01-1.92.09-.59.48-.65.49-.69.19-.75-.37-1.6-.48-2.4-.08-.61.08-1.3,0-1.92-.09-.69-.49-1.2-.48-2.4Z"/>
    <path class="a3" d="M245.44,117.58c-.14.61-.33,1.23-.54,1.8.22-.57.4-1.19.54-1.8Z"/>
    <path class="a3" d="M395.1,257.54l7.02-4.25c-.16,1.05.34,3.04-.21,3.86-.32.48-1.56.75-2.17,1.19-1.35.96-3.4,3.27-5.31,1.93-.24-.17-1.67-2.43-1.41-2.66l2.09-.07Z"/>
    <path class="a3" d="M245.47,112.17c.06.59.12,1.17.16,1.75.06.12.1.24.11.31.22,1.39-.49,5.02-1.68,6.76,0,0,0,.02,0,.03-.29.42-.61.73-.95.86-.27.1-1.13.2-1.18-.22-.31-2.6.67-4.39.93-6.73v-.23s0,0,0,0c-1.13.02-2.15-.44-1.89.96h-.96s0-.96,0-.96c-.3.04-.64-.02-.96,0-.01,0-.02,0-.04,0h0c0-.84,1.2-.81,1.38-1.03.21-.26-.11-1.02.12-1.31.18-.23.82.01.89-.06.14-.14-.54-1.34,1.42-.98l.02-1.42h1.44s.96,1.44.96,1.44c0-.34-.02-.67-.04-1.01,0,0,0,0,0,0,.13.59.18,1.21.24,1.83Z"/>
    <path class="a3" d="M411.08,284.51s.03.01.04.02c.06.06.12.16.18.28-.06-.12-.12-.22-.18-.28-.01-.01-.03-.02-.04-.02Z"/>
    <path class="a3" d="M371.68,241.29c.85.02,1.62,1.67,3.26,1.59.39-.01.82-.12,1.32-.37,1.8-.9,1.57-3.23,1.98-4.72.07-.25.35-.29.39-.32.95.16,1.3.64,2.39.26.62-.22,2.03-1.02,1.18-1.71-1.09.73-1.51.09-2.15,0,0,0,0,0,0,0,.01,0,.02,0,.04,0,.1-.94-.84-1.26-.97-2.15-.28-1.85,1.16-4.52,1.83-6.34,1.6-4.35,3.81-8.67,5.63-13.08.19-.46.13-1.17.3-1.37.13-.16.78-.1,1.13-.56.21-.28.16-.77.29-.9.05-.06.22-.08.45-.09.46,0,1.16.06,1.76.05.31,0,.59-.02.8-.08,1.61-.47,2.86-2.75,3.45-4.24.23-.59.12-1.06.22-1.44h-.04s.64-.1.48-.69c-.17-.62-.88-.69-1.4-.75h0c-1.94-.22-3.86-.55-5.76-.96h0s-.02,0-.03,0c-.04,0-.1-.37-.71-.49-.51-.1-1.12.04-1.66,0h0s-.02,0-.04,0c-.18.08-.32.1-.44.1-.87-.07-.38-2.05.03-2.47.04-.04.11-.05.19-.06.07,0,.14,0,.22.02.17.02.33.05.42.04.04,0,.08,0,.09-.02h3.32c0-.61.18-1.3-.47-1.69-.74-.44-1.74.27-1.45-1.18.01,0,.03,0,.04,0,.04-.02.08-.29.35-.38,1.04-.34,2.38-.58,3.48-.58v-3.35s-.03,0-.03,0h-2.36s0-1.92,0-1.92h2.4c.21-3.46.25-2.4-1.92-3.36,0,0,0,0,0,.01-.01,0-.02,0-.03-.01-2.26-.99-3.95-2.88,0-2.88-.03-.38.07-.83-.03-1.17-.09-.29-2.6-3.19-3.08-3.63-.71-.65-1.86-1.19-2.62-1.88,0,0,0-.02,0-.03-1.13-1.06-2.87-2.83-2.88-4.31,1.31.09,2.76-.16,4.03,0,.71.09,2.89,1.2,3.13.95.52-1.3-.85-1.74-.95-1.91,0,0,.02,0,.03,0-.07-.15-.04-1.13,0-1.44-.01,0-.02,0-.04,0,0,0,0,0,0,0,.02-.16-.03-.32,0-.48,0,0,.01,0,.02-.01,0,0,.01,0,.02.01,0-.04.37-.1.41-.32.59-3.15-5.05-11.56-6.42-15.02-.21-.54-.17-1.39-.22-1.44,0,0-.02,0-.03,0l.28-.42.68-.05c.39.9.98,2.03,1.92,2.4.22,1.03.25,2.25,1.44,1.92.72,2.73.96,1.85,1.92,3.36,1.37,2.13,4.77,8.34,5.76,10.55,1.85,4.13,4.69,9.79,5.68,14.22.35,1.58-.06,3.74.08,5.44.21,2.63,1.84,3.79,2.97,5.9,1.65,3.07,3.03,6.22,4.22,9.44l.47,5.26c-2.64.54-4.72.74-6.44,2.91-1.2,1.51-2.47,2.88-3.62,4.29-5.35,6.59-8.71,12.64-11.61,20.76-.19.53-.76.77-.88,1.52-.52,3.52.73,9.79,5.29,9.36.27.22-1.14,5.02-.25,6.73.21.41,1.04.73,1.18,1.25.21.75-.55,1.42-.44,1.83.27,1.05,2.14.6,2.35.79.14.13,1.2,3.1,1.38,3.66.21.67.42,1.5.58,2.06.79.13,2.19-1.19,2.35-1.73.3-1-1.28-3.61.29-4.02.21-.06,2.78,1.32,3.09,1.71-.35,1.1-.26,4.43-.67,5.03-1.05,1.54-3.12.38-4.58.45.48,1.83,1.77,7.1,1.44,8.63l.43.28c.09.22.04.45.05.67.22,3.17-.35,6.5.23,9.6,1.48,1.34,3.4,1.94,5.03,3.12,8.9,6.48,14.9,16.59,16.33,27.55.1.11.2.19.3.28t0,0c-.1-.09-.2-.17-.3-.28v.48c-1.51-.41-3.4,1.25-3.36,2.88-1.04-.58-1.44-1.6-2.82-1.49l-.53-2.32s.03-.01.03-.02c.07-.09-.17-.58.1-.86.16-.16.63.03.88-.38,2.13-3.48.33-7.83-1.37-11.08-2.38-4.57-8.14-11.5-13.03-13.35-1.02-.39-2.4-.37-3.37-.95-.73-.43-2.33-2.74-2.66-3.57-1.2-3.01-3.26-9.24-3.97-12.34-.13-.59-.03-1.98-.09-2.06,0,0-.02,0-.04,0l-.05-.67-.42-.28s.02,0,.02,0c.17-.76-1.95-14.71-2.4-15.34,0,0-.02,0-.04,0l-.05-.67-.41-.27s.02,0,.02,0c.19-.68-1.66-6.34-2.16-7.19-.62-1.04-1.64-1.45-2.64-1.48-1.65-.05-3.26.97-2.91,1.95-2.08.63-1.33-1.64-2.64-2.4h-.24s-.08,1.13-.08,1.13l-.4.3s-.05,0-.1,0c-.07,0-.16.02-.26.03-.17.01-.35,0-.47-.1-.11-.1-1.2-2.43-1.32-2.79-.42-1.24-1.55-4.81.49-4.82Z"/>
    <path class="a3" d="M151.59,214.07c.23.2.71,1.4,1.09,1.82h-3.36q-.04.14,0,0c.42-1.46,1.29-1.67.48-3.36t0,0c1.36.6.56.48,1.79,1.54Z"/>
    <path class="a3" d="M124.7,186.06c1.68.97,2.5.65,1.6,2.97.07.02.16.03.25.02-.09,0-.17,0-.25-.02.91-2.31.09-1.99-1.6-2.97-.64-.37-1.35-.17-1.34-.95-.01.78.69.58,1.34.95Z"/>
    <path class="a3" d="M158.92,236.99c.06.05.2.95.48,1.44,1.11.03,1.62.3,2.3-.81.43-.71.07-.77,1.53-.63-.1,1.6,1.74,3.84.41,5.2-.46.47-5.51,2.09-6.64,2.47-.07.02-.07.02,0,0,2.18-2.34,6.77-1.59,4.8-5.76-1.43.26-1.55,1-2.4-.48-.28-.49-.42-1.39-.48-1.44-.42-.39-.42.83-.96-.96h.96s0,.96,0,.96Z"/>
    <path class="a3" d="M115.18,182.79s-.04-.02-.08-.02c.04,0,.05.01.08.02Z"/>
    <path class="a3" d="M114.3,182.8c.06.02.15.03.24.03-.09,0-.18,0-.24-.03-.71-.27-.8-.72-.91-.9.11.18.2.63.91.9Z"/>
    <path class="a3" d="M74.97,100.33c.92,1.15.34,4.33.49,5.98.36,4.09,2.31,9.88,4.21,13.53.43.82,1.78,2.27,1.94,2.85.18.64-.09,1.83.13,2.05.19.19.82-.04.9.04.05.05-.13.95.22,1.45.6.86,1.51.75,2.43,2.86,1.95,4.51,3.02,8.31,3.69,13.09.53,3.73,3.6,8.4,5.91,11.35,1.13,1.44,3.49,3.23,4.31,4.8.56,1.09.02,2.75.3,4.01.23,1.02,1.66,3.82,2.23,4.97,1.37,2.8,3.92,7.44,6.33,9.25,3.21,2.41,5.38,3.21,8.98,4.69.6.25,1.02.91,1.58,1.06.77.21,1.72-.55,1.44.96-.1,0-.19.02-.27.03.08-.01.17-.02.27-.03.3-.02.68-.04.96,0-.29,1.06.62,1.17,1.53,1.35-.91-.18-1.82-.29-1.53-1.35,1.01.14,2.26.34,1.92,1.44h0c.15.04.34-.04.48,0,.9.28,3.64,1.26,4.1,1.9.49.68-.53,1.61-.27,2.41-.05-.02-.11-.03-.19-.03.08,0,.14,0,.19.03.06.03.3.57.96.96.05.03,0,.41.69.49.78.09,1.85.02,2.67-.01v-.75c.16.17.17.38.03.64-.08-.04.14.53.27.62.35.22,1.35-.09,1.79-.01,2.13.38,4.09,2.24,5.85,3.41,1.76,1.18,3.62,2.21,4.53,4.23.15.33.34.63.48.96.95-.1,1.54.51,1.44,1.44.05.02-.03.32,0,.48h.96s0,.96,0,.96c-.3.06-.74-.08-.96,0-2,.76-1.68,1.91,0,2.88.13.07.82.42.96.48,1.24.55,3.59.79,4.56,1.92.31.36,1.18,2.19,1.22,2.65.12,1.53-2.11,1.99.2,4.08,1.89,1.71,4.53,1.82,6.66,2.46.9.27,1.99,1.86,3.18,1.86.4,1.6-1.2,1.99-1.81,3.19-.26.52-.84,2.76-.57,3.03.85-.03,1.72.11,2.56-.08.96-.21,3.61-2.47,4.14-1.82.07.09,0,.6.26.92,1.33,1.64,1.72,2.55,3.74,3.47,1.11.51,5.39,2.05,6.26,1.77.83-.27,1.1-1.4,2.9-.86.77.23.78,1.74,1.72,1.88.49-2.48.52-5.47,2.66-7.18,2.99.84.78,3.42.68,5.49-.05.96.11.77.97.73.83-2.67.9-6.41,1.9-8.89.18-.45.87-1.86,1.46-1.18.44.52-1.93,3.23-1.44,4.31,2.41,1.09,3.95-1.08,5.75-2.4-.29,2.33-.83,4.86-.96,7.19-.47.04-.99-.06-1.44,0-2.39.34-2.25,2.37-3.12,3.84-.46.77-1.49.89-2.1,1.73-1.8,2.5-.37,5.18-1.24,6.91-.71,1.4-4.03,2.59-5.53,2.87v-.96s-.24-.48-.24-.48h-.48s-.24.48-.24.48c-1.25.29-.74,1.42-1.05,2.07-.29.59-1.62,2.59-2.12,2.69-.42.08-.92-.43-1.4-.46-1.05-.05-1.56,1.51-1.67,2.41-1.82.58-1.37-1.16-2.19-1.41-1.12-.33-4.17.53-4.5,1.69-.31,1.1.68,1.33.87,1.94.23.78,0,1.75.07,2.57l4.8-1.92c-.07.46.3,1.29-.32,1.44-1.26.31-.73.63.08,1.44l.24-.48c.81.31.34,1.35.48,1.92l.48.48c1.07.29,1.93-.48,2.65-.5,1.22-.03,1.6,1.78,2.37,2.45.42.36,1.08.39,1.18.49.38.39-.68,1.91,1.03,2.13l-.02,1.66c-1.22-.22-4.91.51-5.53-.46-.44-.69-.59-2.64-2.31-2.36-2.65.42-4.25,6.96-5.84,9.05-.83,1.09-1.97.73-2.16,2.65-.24,2.48,1.86,3.2,4.02,2.57,1.16-.34,3.07-3.68,3.43-3.78.49-.13,1.02.58,1.54.86,1.25.67,1.23.71,2.7,1.11,2.83.77-1.03,6.87-.66,7.14h1.44c.39,1.94-.62,3.71-.5,5.53.11,1.57.94,3.39.98,5.02l2.42-1.7c-.57-2.74-1.05-4.79-.98-7.65.01-.58-.36-1.79.48-1.68.36.99.79,4.59,1.71,4.78l2.13-.47c.53,2.23-1.5,4.34.72,5.75l.72-1.92,1.42,2.17c.72.46,1.54,1.82,2.18,2.15,1.33.68.31-2.67.96-2.88,1.08.71,2.63,3.13,3.58,3.61.84.42,2.2.08,2.38.26.07.07.37,1.3.76,1.88.54.79,4.24,4.69,3.59,5.28-1.01-.27-3.58,1.89-2.87,2.39.13.09.63-.22.97.3.61.93.72,3.81,1.05,5.12,1.64,6.37,4.86,12.55,7.33,18.56.28.68.53,1.45.71,2.16-.44.77-1.08-.12-1.44-.47-3.86-3.74-7.65-11.18-10.07-16.07-.23-.46-.5-.9-.48-1.44-.58-.11-.57.08-.44.69.04.21.38.47.45.74.5,1.77-1.97.58-2.38.98-.15.15-.36,1.71-.55,1.86-.25.2-1.08-.12-1.34.08-.46.37-2,5.19-2.48,6.16l-2.35.05c-.57,2.3-1.7,4.45-2.81,6.54-.72,1.35-2.88,3.74-2.43,5.12.12.38.65.63.81,1.11.26.75.09,2.73,1.29,2.56,2.71-.39,3.65-4.21,5.51-5.77.09,1.37-.26,2.71-.51,4.04-.2,1.06-.91,3.02-.93,3.88-.02.75.76,1.34.9,1.99.18.82-.28,4.32-1.86,4-.19-1.72,1.77-4.57-.96-4.79.19.81-.4,1.48-.47,2.17-.14,1.3.26,3.13-.07,4.25-.33,1.13-5.58,4.04-5.22,5.33.22.76,1.38.82,2.09.65,1.33-.31,1.84-1.83,3.19-1.85l-.48,2.4c1.86,0,3.37-1.34,5.28-.96.82,1.72-3.34,3.82-3.38,4.1-.25,1.83.25,1.81,1.94,2.14-.09,2.14-1.88,3.89-1.44,6.23,2.26.53,3.02-3.09,4.55-3.37,2.02-.38,1.19,1.63,1.76,2.34.08.1,2.19,1.22,2.32,1.03.43-1.28,1.52-3.05,2.39-4.09.32-.38,1.96-2.15,2.41-1.67l-3.26,7.05c-.59,1.16-1.96,2.19-1.48,3.68.22.68,1.42,1.33.9,2.7,1-.61,2.79-3.23,3.14-4.29.39-1.16.39-2.74.8-4,.44-1.36,2.06-3.98,3.48-4.19,2.74-.4,4.35,1.42,4.09,4.07-.13,1.3-2.98,9.06-3.83,9.62-.4.26-1.01.21-1.45.47-.98.6-6.07,10.12-7.46,12.2-.31.47-.99.86-1.18,1.22-.41.81.6.87,1.18.7,1.46-.46,2.67-6.02,5.29-5.75.57.06,1.05.61,1.67.49.76-2.45,4.33-4.48,6.72-3.34.52,2.17-1.53,2.87-2.62,4.31-.54.71-2.38,3.86-2.59,4.61-.48,1.71,1.06.92,1.35,1.88.66,2.19-3.13,6.63-2.84,9.32,1.33-1.55,2.1-1.1,3.55-1.49,1.09-.29.61-1.72.84-2.52.05-.17,1.69-2.86,1.83-2.96.18-.13,3.94-1.57,4.16-1.6.52-.07,1.07.58,1.78.38.4-.11.66-.72,1.1-.86.94-.29,2.43.04,3.53-.55.11-.85-1.09-.45-1.68-.48-.72-.03-1.44.02-2.16,0-.15-.73.23-1.01.71-1.45,1.56-1.42,8.9-3.88,11.27-4.56.96-.28,5.81-1.59,6.25-1.19l-.71,1.45-6.01,3.35c3.8,1.02,4.71-3.24,8.15-2.87.2,2.47-1.74,4.41-2.99,6.37-.65,1.03-.17,1.9-2.49,1.26-1.12-.31-.33-2.4-1.48-1.88-1.1.5-.58,2.23-.72,2.4-.09.1-1.59-.07-2.15,0-4.16.62-6.33,1.44-10.19,2.78-.37.13-.99.02-1.08.1-.13.12.14,2.01-.75,3.33-.34.51-2.21,1.91-.47,2.41.94.27,1.66-1.62,2.15-2.17,1.84-2.05,3.95-3.66,6.88-3.02.5.11,1.56.66,1.71,1.16.86,2.95-2.06,4.01-3.54,5.96-.42.55-1.24,2.65-1.69,2.87l.3.43,1.14.05c.08-.48-.11-.85.23-1.44.31-.55,2.02-2.15,2.65-1.91.05.02.16.5.72.51.59,0,.68-.49.72-.51.22-.08.66.04.96,0l.51,2.37,1.4.03v2.39c1.19.3.78-.28,1.05-.63.48-.6.94-1,1.38-1.52.69-.81.18-1.71,2.11-1.18.79.22.59,1.02.75,1.41l-.48.24v.48s.48.24.48.24c-.25.95-.29,1.84-.71,2.88-.28.67-1.97,4.61-2.17,4.79,2.42-.07,4.88.3,7.19-.48-.39,2.17-1.41,3.82-.96,6.23,2.7.28,5.23-.82,7.15-2.69l.54-8.09c.52-2.03,1.67-7.11,4.05-7.45,1.95-.28,1.99-.04,2.89,1.45.58.14,1.6-1.17,2.47-1.36,1.32-.29,3.98-.34,4.43,1.17.59,1.98-.99,1.84-1.89,2.81-.45.48-1.92,4.7-1.92,5.3,0,1.03,1.42.94.4,3.73-.57,1.54-1.69,1.96-2.07,2.73-.54,1.1.37,1.83-1.21,2.19l.03,1.66c.64.28.5-2.02,1.44-.96.33.38-.57,1.81-.43,2.55.15.8,1.92,3.79,2.82,2.72.08-.09.88-2.11.9-2.23.06-.44-.41-1.13-.44-1.83-.29-8.41,1.42-11.44,5.23-18.31.93-1.67,1.45-3.86,2.37-5.3.24-.37,1-1.72,1.53-1.11.44.5-.8,2.52-.86,3.2-.04.44.35.86.28,1.26-.49,2.98-1.86,4.6.17,7.7,1.08,1.65,2.01,2.03,4.01,1.74,3.15-.45,2.26-2.94,2.73-4.94.29-1.27.93-3.09,1.35-4.4.72-2.22,2.56-1.09,2.8.55.11.73-.92,2.58-.89,3.52l2.15-2.89,2.17-1.43c.37,1.54-4.37,8.62-3.84,9.11,2.85.94,3.46-1.6,5.25-2.18,1.67-.54,3.68-.42,4.59,1.23.26.47.14,1.13.31,1.36.13.17.79.11,1.13.55.27.35.18.88.24.96.4.51,2.39-1.76,3.35-1.43-.71,4.07-3.34,7.72-2.88,11.99h2.4s-1.44,7.67-1.44,7.67c.93,1.06,2.62-3.73,2.78-4.17.28-.79.85-4.08,1.11-4.4.16-.2,1.66-.38,1.82-.58.3-.38.43-2.84,1.25-3.79.57-.67,2-1.17,2.84-.92l4.17,7.11c1.09-.03,3.35.39,3.32,1.71-.01.52-.67.9-.25,1.21l8.22-6.67c.44-.1,1.98.76,2.07,1.21.17.81-1.88,5.02-1.42,5.47,3.53.72,2.11-1.28,2.93-2.34.08-.1,1.51-.43,2.12-1,.92-.86.75-1.87,2.46-2.33.58-.16,1.23,0,1.77-.15.96-.29.81-1.61,2.94-1.38.22.02,1.61.43,1.68.49.97.74-1.35,1.32-1.63,1.49-1.07.68-1.08,1.63-.31,2.6,1.03,1.28,1.6.4,2.89.23l-1.92,6.71c1.59.25,2.34-.87,3.38-1.68.35-.28.91-.2.94-.24h.48c-1.12,1.93-2.94,3.63-2.88,5.99.01.56-.06,1.01.72.72.2-.08,2.44-1.43,2.54-1.54,2.73-2.76,5.14-4.92,8.02-7.56,1.14-1.05,2.34-3.42,4.3-3.37.47.01,1.44.74,1.66.48.1-.12,0-.75.49-1.19.19-.17,2.97-1.58,3.21-1.62,1.24-.24,1.3.68,1.9.87,1.05.32,2.93-2.09,4.74-2.35,3.1-.45,5.29,2.02,5.06,5.05-.13,1.7-.36,1.42-.03,3.36.22,1.27-.53,2.23,1.66,1.63,1.34-.36.57-5.42.75-6.92.07-.58.56-1.05.48-1.68l2.35,1.48.05,6.19c2.48-1.18,1.47-4.68,2.13-6.74.21-.63,1.89-2.6,2.42-2.85,1.66-.78-.35,2.5-.49,2.87-.25.66-1.48,4.03-1.19,4.32.76-.23,1.88-.31,2.55-.57.55-.21.72-.71,1.29-.87-.42-1.08-1.1-2.51-.97-3.59.26-2.18,2.84-3.26,4.67-3.98,1.49-.59,5.69-1.29,6.4-1.76.62-.41.3-2.75,1.68-3.14.75-.21,1.13.94,1.64,1.2,3.18,1.62,9.64-3.25,11.53-5.76.57-.76,1.35-2.96,1.49-3.07.3-.23,1.56.12,1.83-.81.48-1.65-.9-3.74-2.61-3.59-1.29.12-1.68,2.07-3.11,1.94-1.42-3.53.84-4.25,3.84-4.79.41-2.56-.57-1.63-.96-1.92-.05-.04.02-.68,0-.96-.04-.6.12-1.42,0-1.92.45-.33.9-.4,1.44-.48v-.48c.12-.05,1.23-2.13,1.92-1.44.41.41-.71,1.36-.96,1.92-.1.22.1.73,0,.96.97.71,1.2,1.99,1.45,3.07.11.49.86.38,1.19.28.41-.12.87-.92.72-1.44h-1.44c-.68-.49,1.82-3.7,2.4-4.32.05-.06-.03-.57.48-.48.71.07,1.16,3.2,4.09.97,2.15-1.64,3.64-4.63,3.03-7.37-.24-1.06-1.43-1.61-1.36-2.71.93.38,2.04.31,2.88.48.05.01.09.02.14.03h0s-.09-.02-.14-.03l.48-1.92c-.86.14-2.21.87-3.13.96-1.11.11-1.64-.4-2.62-.48l.48,2.16c-1.07,1.07-.9-.65-1.41-.98-.16-.1-1.92-.57-2.28-.63-.5-.08-2.19,1.57-3.51.9v-1.92c-.32-.01-.64.02-.96,0-.32-.02-.64,0-.96,0-.63,0-1.31-.06-1.92,0-.3.03-.53.15-.48.48-.47.03-.99-.06-1.44,0-.84.11-1.4.4-1.92.48-.9.14-1.63.34-2.4.48-.22.04-.76.05-.96,0-.08-.02-.53-.84-1.44-.48h-.96s0,.96,0,.96c-.16.02-.33-.03-.48,0-.31.06-.52.12-.48.48-.16,0-.32,0-.48,0h-3.36c-.4-.17-.38.06-.96-.48-.08-.07-.07-.52-.48-.48v-.48c.17-.02,1.1-.36,1.44-.48.27-.09.5-.12.48-.48.17-.02.38.05.48,0l.48-.48c.05-.14-.05-.33,0-.48,1.8-.9,2.98-.77,4.8-.96.37-.04.81-.57,1.66-.5.5.05.96.44,1.47.49,1.91.17,3.32.36,4.56-1.18,1.74-2.16,1.86-5.38.95-7.92-.18-.5-.67-.8-.87-1.29-.93-2.38-.59-3.59-3.31-4.86-.39-.18-.83,0-1.1-.08l-.26.48c-.52.21-.66-.47-.7-.48-2.62-.97-4.34-1.18-7.2-.96l-1.14.05-.3.43c-.15,0-.33.02-.48,0-1.99-.32-2.27-2.44-4.78-.71-1.7,1.17-2.52,3.03-2.91,5-.29.3-3.36-.33-3.96-.55-.17-.06-1.65-.85-1.73-.91-.26-.24.13-2.19-.05-2.35-.07-.06-1.28,0-1.94-.22-.95-.32-1.3-1.11-1.9-1.46-1.65-.95-5.24-.99-5.7-3.44-.15-.84.99-3.34,1.86-3.51.19-1.13-.55-1.92-.96-2.88-.23-.54-.31-.96-.48-1.44-.65-1.84-1.81-6.31-1.22-8.18.24-.76,1.08-1.54,1.22-1.89.99-2.44,1.99-5.27,2.88-7.67.27-.74.29-1.84.48-2.4.47-1.41.99-4.17,1.68-5.27.56-.91,1.63-.97,2.16-1.44,1.45-1.29,4.59-4.12,5.28-5.75.2-.48-.29-1.73.96-1.92-.57-2.74-.98-2.4-2.32-4.63-.47-.79-1.27-3.09-1.6-3.43-.18-.18-.77-.2-1.12-.54-3.07-3.04-5.23-4.89-9.05-5.02-.87-.03-1.83.03-2.91.19-.78.11-1.04.7-1.67.97-.01,0-.02,0-.04.01.11,1.7-1.12,1.19-1.88,1.42,0,0,0,0,0,0-.35.12-1.39.43-1.44.48h-.04c-.18.18-.46,2.33-1.92,1.92l-.48-4.32c-.19-.09-2.25-2-2.4-2.4l-.68-.05-.28-.42c-.23.06-.48.1-.74.1-3.98.06-11.27-6.87-13.66-9.21-.85-.84-1.57-1.49-2.4-2.4-2.46-2.71-8.24-9.16-9.38-12.45-.24-.69-.14-1.88-.22-1.94-.08-.07-.69.16-.87-.06-.41-.5-.98-3.43.16-3.78,1.06-.33,1.83,2.31,2.16,2.88h.04c.17.3.6.04.96,1.44,0,.02,0,.03.01.05,1.31,1.33,1.49.49,2.35.43.1-.72-.32-4.51-.54-4.74-.13-.14-.74-.1-1.14-.53-1.53-1.64-3.34-4.37-4.78-6.27-.37-.49-1.19-2.22-1.29-2.31-.23-.19-2.89-.71-3.29-1.04-.15-.12-.09-1.37.46-1.69.54-.31,1.12-.14,1.6-.32.28-.1.31-.38.34-.39v-2.4s1.44.48,1.44.48c.01-.01.04-.02.09-.02.1-.01.33.03.53.04.14,0,.25-.01.3-.08.1-.14-.04-.57.17-.78.2-.2.64-.06.77-.17.25-.19-.02-1.37.07-1.87.17-1.03.47-.9.48-.96.14-1.21-.17-2.65,0-3.84l-.4-.35c-.19-.51-.06-1.05-.08-1.57-.17-3.99-1.56-8.36-2.98-12.13-.56-1.48-4.62-10.61-5.45-10.86-.2-.06-.37-.08-.54-.08-1.02.01-1.53.95-2.32,1.02-.13.02-.27,0-.42-.04-.44-.13-3.77-3.58-4.87-3.42-.07.02-.13.05-.18.1-.18.98.05,1.37.47,2.17,1.92,3.71,4.96,4.63,6.73,9.82h-.02c.05.06.3.18.45.71.32,1.17.61,2.37.49,3.6-.65.72-2.55-2.08-2.88-2.4-5.93-5.7-11.53-11.69-16.8-17.97-1.55-1.84-5.51-6.19-6.47-7.93-.31-.56-.19-1.37-.23-1.43-.13-.17-2.02-.06-1.44-1.92h2.88c.46-.35,2.56.44,1.91-2.38-.78-.31-1.64-.33-2.39-.49-1.3-.29-2.57-.54-3.84-.96l3.36-.96c0-.94.56-1.09.87-1.79.16-.35,0-.94.12-1.06.04-.05.2-.05.41-.05.14,0,.31,0,.48,0,.24,0,.48-.01.66-.07.3-.1,2.57-1.29,2.69-1.4.22-.2.28-3.51-.68-3.79-.19-.06-.35-.09-.48-.1-.89-.07-.55.75-.74.96-.34.37-2.81.44-3.46.65-.51.16-.74.84-1.51.91-.07,0-.14,0-.23,0-1.25-.06-4.61-1.42-3.89-2.91-.94-.13-1.28.96-2.18.99-.13,0-.27,0-.43-.05-.42-.12-1.52-2.21-1.62-2.7-.54-2.53.6-2.49-2.47-3.77-.72-.3-2.77-.63-2.88-.72-.17-.13-.1-2.17.73-2.38.15-.04.29-.04.44-.03.87.07,1.73.96,2.68,1.03.15,0,.3,0,.46-.05.16-1.18-1.23-2.52-2.23-2.81-.17-.05-.35-.07-.54-.08-.02,0-.05,0-.07,0-.15,0-.31,0-.46,0-.19,0-.38,0-.57,0-.2,0-.41-.02-.61-.06-1.15-.26-1.39-.78-3.19-.89-.32-.02-.64.01-.96,0-.37-.92.46-1.36.48-1.44.07-.38.08-2.31,0-2.4-.04-.05-.77.15-1.22-.47-.3-.41-.18-.94-.22-.97-.03-.03-.14-.04-.29-.04-.34,0-.86.05-1.3.05-.22,0-.42,0-.56-.03-1.71-.31-3.63-1.04-5.53-1.43-.71-.15-1.36.23-1.92-.72.51-.71,1.06-.84,1.92-.72.31-.61.86-.94.97-1.67.15-1-.29-2.68-.48-3.79-.06-.39-.8-.41-1.24-.75-.39-.31-.64-.96-.69-.98-.29-.12-1.02.08-1.44,0v-.96s1.44,0,1.44,0c0-1.07.12-2.35,0-3.36-.02-.17.04-.35,0-.48-.02-.06-.73-.1-.48-.96.3-.05.74.08.96,0,1.29-.48,2.56-.99,3.84-1.44.77-.27,1.75-1.25,2.88-.96.19-.93,2.22-1.96,2.66-3.33.33-1,.22-1.89.22-2.9,0-.48,0-.96,0-1.44-2.04-.78-4.05-2.44-6.34-2.44-.32,0-.65.04-.99.12-.87.2-1.41.65-2.71.88h0s-.02,0-.04,0c-1.92.33-1.07.83-1.53,2.06-.21.58-.68,1.12-.79,1.61-.2.88.06,1.8-.08,2.56-.17.92-1.11,1.08-1.92.96-.02.05-.44.92-.48.96v.95s1.44.01,1.44.01c-.45,1.35-.53,2.01,0,3.36-.9-.09-1.95,0-2.88,0-.08-.76-.04-1.53.42-2.17l-.42-.22c-.34.9-.94,1.6-1.44,2.4-.65,1.03-2.13,2.58-2.4,3.83.01,0,.02,0,.03,0-.13.62.11,1.47.02,2.12-.06.46-1.19.24-1.42,1.04-1.44,5.06-2.36,12.7-1.96,17.94h-.02c.07.03.36,0,.46.96h.04c.18,1.69.05,3.74.53,5.46.22.78,1.96.98,2.28,2.04.7,2.34-.14,5.4,1.74,6.91.42.34,1.07.42,1.16.51.17.19-.03,1.04.13,1.54.38,1.25,1.75,3.05,2.23,4.98.12.5.05,1.51.1,1.57.03.03.13.04.27.03.31,0,.8-.05,1.23-.04.23,0,.44.02.6.07.36.11,2.24,1.81,3.01,2.26,1.33.78,5.65,2.41,6.31,3.04.33.31.96,1.91,1.52,2.56,2.34,2.69,6.25,5.96,9.14,8.12,1.06.8,5.07,2.96,5.52,3.59.66.93-.08,1.58-.2,2.28-.13.77,1.76,2.06,2.34,2.77,1.14,1.37,2.57,3.14,3.57,4.59,1.34,1.94,2.18,4.67,3.5,5.82,1.55,1.34.6,3.36.6,4.47,0,.5.84,1.8.47,2.15-.04.03-.11.04-.2.04-.15,0-.37-.04-.55-.06-.08,0-.15,0-.2.02h0s-.03,0-.03,0c-.4.19-.58,1.83-.48,2.4h-.96c-.1-.12-.33-2.41-.48-2.88-.19-.59-.64-1.34-.96-1.92l-1.44.48c-.1-.63-.28-1.31-.48-1.92-.21-.66-.35-1.59-.48-1.92-.02-.06-.41-.83-.48-.96-.17-.3-.5-.2-.96-1.44-.68-1.84-2.12-4.15-3.84-5.27.28.83.24,2.69.7,3.38.25.37.91.42,1.22.71.4.37.53,1,.97,1.19.46,2.61,2.1,6.73,1.37,9.28-.06.22-.9,1.41-1.15,1.73-2.64,3.44-6.94,2.63-10.77,2.9-1.47.16-2.79-1.14-4.18-1.38-.9-.15-1.22.38-1.58.42-1.72.16-3.58-.52-3.84,1.92.66,0,.36.73.48.96,1.11,2.15,2.29.86,3.57.94,2.79.17,6.2,2.33,9.61,1.92,2.35-.28,4.31-2.16,5.36-2.32.46-.07.92.37,1.38.4,1.86.12,3.66.35,5.51.49l-.48-1.44c1.32-.47.74.65.99.91.64.67,4.25-1.81,5.22-2.14.96-.32,2.1.02,2.67-.68.86-1.04.85-2.86,1.28-4,1.13-3.01,1.69-1.87.95-5.94-.33-1.8,1.95-1.93,2.28-1.55.19.22.08,1.17.78,1.38,1.07.33,2.03-.66,3.09-.46-.02.94-.09,3.12.55,3.77.33.34,1.81.4,2.35.77.75.51.31,1.58.54,2.34.18.58.66,1.04.8,1.6.25,1.04.36,2.42.56,3.51-2.3-.45-1.59.45-2.39,1.2-.76.71-2.09.99-2.88,1.45-.7.4-1.14,1.35-2.24,1.59-2.71.59-7.31-1.21-9.29-.17-.31.16-.55.72-.95.97-.43.27-1.08.2-1.46.47-.1.07-1.04,1.15-1.66,1.67-1.9,1.59-4.42,3.65-6,5.53-.57.68-3.04,3.89-2.39,4.56,2.85-.42,5.68-2.09,7.92-3.83,1.18-.91,1.96-2.46,3.59-2.89-.03.76.27,1.67-.49,2.17-.71.46-1.45.08-.89,1.86.58,1.87,3.61,1.07,3.77,1.27.11.14-.08.94.24,1.44.32.49,1.8.85,2.18,1.67l-2.4.72c-1,3.11,2.29,3.02,3.15,4.29.68,1-.44,1.92,1.67,3.6,2.24,1.79,7.94,4.64,7.19-.47-.21-1.44-3.06-2.59-2.89-4.54l2.14.03c.47-1.07.29-1.14,1.7-.99l.49,2.87c.49.13,1.66-.17,1.88.04.15.14,1.51,3.26,1.71,3.8,1.26,3.31.01,8.56-.94,12.02-.12.42-.61.83-.68,1.25-.07.47.38.92.4,1.38.05,1.35-.35,4,.48,4.79,1.81,1.74,3.88-.71,4.33-.25l-1.42,15.09.94.5.46-.5c.31-2.66.39-9.13,3.69-9.75,2.28-.43,2.29,2.57,2.66,3.92.18.66,1.25,2.86.81,3.18-.4.29-1.25-.46-.91,1.47.58.13,1.1-.48,1.6-.41.97.14,2.1,1.61,2.24,2.56.46,3.06-1.06,6.24-2.41,8.88-.01-.04-.52-.14-.49-.69.01-.31,1.25-3.41-.23-2.67-1.57.78-2.33,4.61-2.42,6.25-.05.85.13,1.12.27,1.9,1.13-.21.78-1.67,1.42-2.19.38-.31.93-.16.98-.21.78,2.32.22,4.68.48,6.95.19,1.71.62,2.04,1.94.91.65-2.66,1.22-5.36,2.01-7.99.14-.48.21-1.43.84-1.31.31,1.3-.44,2.41-.5,3.58-.15,2.65-.22,6.56,0,9.15.2,2.42,1.44,4.95,1.46,7.41l-2.4-3.36,1.44,4.79-1.44-.48c-.09,1.01.14,2.14,0,3.12-.13.9-.83,1.5-.96,2.4-.69,4.96.89,7.89,3.62,11.73.96,1.35,2.19,1.57,1.66,3.86-1.02,1.07-4.03-3.22-4.79-3.6-.61-.31-1.32-.15-1.94-.46-1.49-.75-4.32-5.04-4.31-6.73.01-2.23,1.64-1.48,1.93-1.67.4-.27-.43-2.14-.47-2.64-.18-2.25.51-4.05.51-5.74,0-1.84-1.28-5.88-1.47-8.16-.15-1.81.08-3.69-.01-5.5l-.96,2.59-1.44.29c-.43-2.22.73-4.38.47-6.47-.18-1.44-1.22-2.66-1.43-4.08l-1.67.98c-1.01-.53-2.49-.13-2.17-1.46h-.24c-1.18,1.86-1.91,2.71-4.22,1.98l-4.18,1.86c.06-1.66-.09-3.36,0-5.02.23-3.75.84-7.69.49-11.54-.32-3.61-3.78-9.05-7.07-10.67-.46-.23-1.94-.5-2.04-.6-.18-.18.12-1.83-.09-2.55-.12-.42-.68-.66-.82-1.1-.65-2.09-.73-4.78-2.45-6.66-.63-.69-1.41-.63-1.46-.7-1.47-.04-1.48-.35-1.45,1.21.06,2.65,1.66,4.23.75,7.45-.46,1.63-2.93,5.45-5.06,4.77-.93-.92,4.05-5.91,3.36-7.67l-1.92.24c.46-.9.35-1.93.58-2.77.35-1.25,1.2-2.52,1.34-3.7.29-2.54.58-6.84-.23-9.12l-1.2-1.91c.02,1.63.26,3.29-.94,4.58-.52.56-1.77.9-1.92,1.46-.18.66.41,1.2.37,1.78-.02.3-.35.67-.37,1.06-.07,1.26.19,4.13-.5,5.02-.62.81-.84-.19-1.04-.62-.31-.69-1.02-2.74-1.35-2.98-.61-.44-1.3.02-1.44.49-.23.8,1.39,1.56,1.69,2.14.49.97.18,2.85.24,4.08.02.48.46.96.47,1.45,0,.6-.95,2.95-1.43,3.36-.48.4-1.33.54-1.91.97-1.51,1.1-2.85,2.46-4.33,3.58.34-1.61.6-3.8,1.18-5.29.87-2.22,6.1-4.87,4.35-7.67-1.26-2.01-3.58,2.13-4.32,2.9-1.97,2.08-4.81,1.29-7.45,1.9-.72-.66,3.2-3.47,3.36-4.31-1.64-.05-2.97,1.19-4.56,1.43-3.14.47-1.02-.93-.78-1.74.25-.85-.14-3.27.1-3.5.39-.39,3.11-.69,3.33-1.95-2.11.34-7.11,1.12-8.82.02-.4-.26-.22-.68-.41-.86-.24-.23-.78,0-.84-.35-.06-.33-.18-1.2.26-1.2h4.06c.3-.6-2.08-.57-.96-1.44.11-.08,1.21.14,1.93-.23.2-.1,3.02-2.92,3.12-3.12.27-.51.27-.9.23-1.45h-3.36c-.34-1.17.95-1.19,1.82-1.55.14-.06.08-.37.1-.37.49-.14,1.34.1,1.92,0v-2.88s-4.08,1.92-4.08,1.92c-.36.07-.33-.51-.24-.72.63-1.43,3.83-2.83,4.73-4.38.68-1.18.75-3.18,1.12-4.63.26-1.01,1.21-1.62.81-2.92-2.11-1.63-4.55-6.19-6.99-6.93-.52-.16-1.49.01-1.6-.08-.16-.13.12-2.24,0-2.87-.01-.06-.44-.91-.48-.96-.16-.2-2.51-2.23-2.72-2.32-1.07-.43-2.83-.56-4-.56-.04-.31.06-.68,0-.96-.34-1.68-2.11-3.37-2.39-5.52-.32-2.46.58-4.56.47-6.95-1.27-.06-2.57.09-3.84,0-1.11-.08-1.63-.36-2.4-.48-.23-.04-.76-.05-.96,0-.18-.27-.88-1.41-.96-1.44.02-.87,1.16-.79,1.39-1.01.54-.5.13-4.18-1.87-3.31-.04-.1-1.08-.28-.93-1.14l1.65-3.17c1.04,2.39,4.2,3.84,2.63,6.46l1.45.25c.02-.18.43-.94.48-.96l-.43-.28c-.09-.22-.04-.45-.05-.67-.31-4.43-.65-7.19-1.92-11.51.18-.41.44-.56.7-.56.43-.02.91.4,1.2.86.85,1.36.97,4.7,1.5,6.42.39.04.67.06.88.06.64-.03.58-.35.52-1.49.01,0,.02,0,.04,0h0c.45.03.87.05,1.26.05,1.2,0,2.22-.18,3.49-.54-.32-.4-.99-.72-1.44-.96-.69-.37-1.35-.92-1.44-.96-.29-.12-1.12.21-1.37-.08-.14-.17,0-.66-.14-.78-.39-.33-2.3-.13-2.36-1.79-.02-.66.49-.66.51-.7.74-1.73,1.42-3.41,2.75-4.79.92.21.67-1.38.6-1.44-.11-.11-.26-.15-.41-.14-.5.04-1.13.55-1.47.86-.65.58-.95,1.57-1.02,1.63-.08.06-.19.09-.32.09-.22.02-.5-.03-.75-.05-.11,0-.22,0-.31.01h0s-.03,0-.04,0c-.04,0-.09.5-.7.5-.92,0-.69-.49-.74-.5-.09-.02-.19-.03-.31-.04-.35,0-.78.04-1.09.04h0s-.03,0-.04,0c.18,1.04.51,2.05.45,3.08l-.45.27c-.34-1.09-.57-2.29-.96-3.36h.96c-.06-.33.1-.77-.05-1.14l-.43-.3c.47-.83.72-3.95.96-5.27.05-.29-.04-.65,0-.96-.16-.08-1.08-1.75-1.74-1.87-.04,0-.09,0-.13,0-.34.05-.71.38-1.04.4-.05,0-.11,0-.16,0-.62-.12-1.89-2.49-.77-2.85v-.47c-.19.05-.36.07-.52.07-1.16,0-1.55-1.31-2.36-1.76-.3-.17-.57-.2-.8-.2-.11,0-.21,0-.31,0-.12,0-.23,0-.32-.03-.92,1.05.31,2-.02,3.09-.24.78-2.06.44-1.42,2.19-1.3-.15-.77-2.12-1.03-2.35-.24-.21-1.36.29-.88-1.25.27-.88,2.17-.25.96-1.67-.22.05-.4.06-.55.05-.09,0-.18-.01-.26-.01-.35-.01-.61.07-1.08.92-.01,0-.02,0-.04,0-.1.19.15.77-.47,1.22-.39.29-.78.17-.94.21,0,0,0,0,0,0-.04.02.02.32,0,.48-.01,0-.02,0-.04,0,0,0,0,0,0,0-.04.29,0,.65,0,.96h.96v.96c-.32.02-.64-.03-.96,0-.32.03-.64-.02-.96,0,0,.32,0,.64,0,.96h.04c0,1.68.16,3.18-.5,4.77-.43.03-.87.06-1.31.06-.73,0-1.44-.1-2.06-.51h-.48c.09.21-.09.76.02,1.16.86,3.1,1.4,6.88.94,10.11-.11.78-.79,2.62-1.92,1.92-1.08-.67-2.74-4.61-4.48-4.03-.25.08-.29.42-.31.43-1,.26-1.9-.04-2.4,1.44-1.58.34-.83-1.41-.97-2.63-.07-.63-.55-1.15-.5-1.91.16-2.34,2.88-2.27,2.89-2.89-.97-1.69-4.32-14.51-3.83-15.11.74-.89,1.01.64,1.18.96.3.56.81,1.93,1.19,2.18.61.4,1.44.1,2.1.3,2.76.81,4.39,3.52,5.12,6.15h1.44c-.02-1.74-1.55-6.38-1.44-6.71l-2.88.48c-.54-2.12,1.55-2.76,2.4-4.31-1.39-.38-1.9,1.26-3.07.93-.48-.14-1.87-1.6-1.73-2.37-1.45-.88-2.5-2.79-3.36-3.36-.25-.16-1.78-.36-1.92-.48-1.26-1.1,1.43-.9,1.92-.96,1.01-.12,3.24-.32,4.01-.54.5-.15.75-.92,1.5-.92,0,0,.01,0,.02,0,0,0,.01,0,.02,0,1.46-.01,2.08,3.27,3.86,3.36.11,0,.23,0,.35-.03.76-.15,1.94-1.3,2.23-1.39v-1.44c-1.36-.44-2.55-.52-3.84-.96-.23-.08-.66.05-.96,0-.25-.8.46-.9.48-.96.19-.77.08-1.33.48-2.4.16-.44-.04-1.1.75-1.43l2.13.47c.03-.75.08-1.68,0-2.4,0-.06-.36.12-.48-.96-.12-1.1-.53-5.11,0-5.75-2.48.19-2.43-1.74-.29-2.37l1.08.87.65.07c.93-2.65,1.7-5.22,2.46-7.85.26-.89,1.51-1.15,2.09-1.75,1.63-1.7,1.93-3.96,1.68-6.23,0-.06-.35.11-.48-.96-.05-.39-.06-1.07,0-1.44l-.41-.31c-.18-.35.02-.86-.06-1.13h.48c-.35-2.54-.24-3.11-.96-5.75l-.46.27c.24,1.39.5,2.87.93,4.25l-.46.27c-.71-1.75-1.98-3.37-2.4-5.27-.07,0-.15,0-.23,0-.08,0-.17,0-.25,0h-.44c.12.28-.09,1.12.01,1.65.47,2.48.98,6.6-.24,8.9-.17.33-.7.58-.96.96-.93,1.4-.73,3.16-1.44,4.79-.99,2.27-2.92,4.27-5.53,4.31,0,0,0,0,0,0-.01,0-.02,0-.04,0-.02-1.11,1.04-1.63,1.35-2.72.25-.88.15-2.08.57-3.03-.12.13-.24.19-.44.44v.04c-.89,1.16-1.28,2.74-3.02,2.87-.25.02-.52.01-.83-.03l-.03-.92c.36-3.08-.49-7.14,0-10.07l-.92.46s0,.01,0,.02c-.78,3.59.65,6.69,0,9.59-.07.33-.96,1.3-.96,2.16,0,.92.88,2.6.98,3.82.28,3.71-2.27,7.76-5.63,9.29-.2.09-.41.09-.61.08-.1,0-.2-.01-.29-.02-.08,0-.15,0-.21.02h0s-.02,0-.03,0c-.04.01-.08.36-.31.42-1.3.34-1.36-.33-1.6-.42-4.92-1.71-1.18-2.81-.56-5.59.19-.84.05-1.71.08-2.56-1.29-.09.05.18-1.03.37-.99.17-.84-.49-.73-1.2.03-.21,1.15-.57,1.76-.6.03-.02.09-.02.17,0,.14.01.35.05.52.04.08,0,.16-.03.2-.08.42-.46,3.43-10.01,4-11.61,1.2-3.36.46-4.16.87-7.28.17-1.26.69-3.05.95-4.56l.48-.48c.02-.16-.01-.32,0-.48.13-1.55-.1-3.23,0-4.79.73-.05,1.18.41,1.92.48.01,0,.02,0,.04,0t0,0c.2.02.41.02.63.01.45-.02.91-.06,1.35-.07.22,0,.44,0,.64.03.51.07.03.92.48,1,.06,0,.13,0,.23-.02l-.95-2.86c1.88-.08,1.61-2.45,2.13-3.87,1.09-3.01,2.44-5.55,1.7-9.09-.01-.06-.71-.13-.48-.96.31-.04.68.06.96,0,.43-.1.39-.07.48-.48h-1.92s0-1.92,0-1.92c.66-.19,1.02.39,1.44.48.3.07.77-.11,1.13.06l.31.42c.16-.02.32-.03.49-.03.32,0,.65.03.97.04.17,0,.33,0,.49-.01.42-3.2-.52-5.68-1.44-8.63l1.44-.48c.34.29,1.12.31,1.36.59.28.32-.15.73.32.85,1.05.27.69-.53.72-1.44.74.26,1.43-.4,1.92-.48.33-.05,1.16-.07,1.44,0,.16.04,1.16,1.43.96-.48h-.96c-.04-.15.05-.35,0-.48-.19-.49-.4-.85-.96-.96-.16-.32-.31-.65-.48-.96v-.48c.51-1.11,1.58-.16,2.25-.09.7.07,2.01-.72,3.01-.4.09-.82.25-1.85.5-2.62.31-.97.4-1.45,1.39-.76-.12-.43-.39-.64-.71-.92-1.55.56-1.71,1.7-1.7,3.33-1.83.55-2.95.46-4.77.02h-.48c.04.14-.03.32,0,.48.03.14-.02.32,0,.48.02.16-.03.33,0,.48.06.28.21.42.48.48.17.31.32.64.48.96.16.32.33.63.48.96l-3.84-.96v2.4s-1.44-.48-1.44-.48c-.33-.64-.67-.72-.48-1.92,0-.04.54-.11.43-.62-.37-1.66-1.05-1.6-2.35-1.78-.16-.02-.33.03-.48,0-.56-.1-.94-.14-1.44-.48-.12-.08-.17-.73-.77-.9-.51-.15-3.86-.17-4.01-.03-.16.15.07.73-.02.93-.01.03-.28.19-.48.48l-.48.48c-.29.2-.45.47-.48.48-.62.29-.94-.65-.96.96,0,.3-.06.74,0,.96-.78-.06-1.63.09-2.4,0h0v.96c.3-.04.72.07.96,0,1.39,1.8-.47,1.26-.51,1.7-.16,1.99.49,5.26-.68,6.94-.09.13-2.31,1.83-2.46,1.87-2.08.61-3.37-3.94-4.29-5.23-.48-.68-1.32-1.28-1.91-1.89l-1.41.91c-1.9-1.11-.65-1.79-.82-3-.55-3.98-5.27-14.64-7.61-18.09.79.04,1.61-.06,2.4,0l-.02-.94c-1.85.32-1.53-.97-1.95-1.41-.22-.24-1.79.05-2.35-.05-3.99-5.39-6.19-9.68-12.31-13.35-2.99-1.79-14.36-6.43-15.75-8.71-1.91-3.13-1.74-3.12-4.56-5.75-.15-.14-.28-.3-.48-.48-.79-.7-1.22-.9-1.92-1.44-.08-.06-.19-.27-.48-.48-.63-.46-.73-.53-1.44-.96-.03-.02.12-.24-.48-.48-.13-.05-.33.05-.48,0-.02,0,.12-.35-.28-.43-3.21-.59-1.83,1.06-2.62,1.84-.44.43-3.64-.63-4.29.5-.16,0-.32,0-.48,0h-.96c-.62-1.63-2.58-2.17-3.84-2.88-.03-.02-.02-.25-.48-.48-.3-.15-.51-.28-.96-.48.34-1.38-1.3-1.25-2.4-1.44-.16-.03-.33.03-.48,0-.22-.95-1.17-.95-1.92-1.19-4.99-1.63-7.29-1.13-12.24-.73-2.34.19-4.17-.52-6.44-.5-.99-1.52-1.66-7.15-3.15-7.64-.95-.31-1.62,2-1.68,2.65-.13,1.42.89,2.97.49,4.54-.79-.03-1.61.04-2.4,0-.53-.03-1.03.06-1.59-.08-1.2-.3-2.96-2.11-3.93-1.84-1.43.4.28,3.98-.24,5.28-1.35-.05-2.72.08-4.07-.01-.83-.06-1.53-1.11-2.1.34-.36.92.43,1.35-1.51,1.11-.35.84.54,2.1.44,2.58-.06.28-1.84,2.06-2.18,2.15-.6.18-2.15.17-2.75,0-.48-.14-.71-.83-1.5-.91-2.29-.24-2.18,2.99-2.73,4.5-.21.58-.7.71-.9,1.02-.52.79-.38,1.58-.46,1.7-.55.87-1.27-.81-1.35-1.29-.17-1.01-.08-2.02-.09-3.03-.77-.15-1.26.41-1.67.97-.52.73-1.07,2.7-1.22,2.86-.95,1.1-2.55-1.89-2.87-2.58-.28-.62-.96-.21-1.44-.3.03.87-.08,1.76,0,2.63.26,2.65,1.95,7,1.95,9.12,0,.77-.47,1.34-.51,1.93-.09,1.5.07,3.02-.03,4.52l-2.34.54c-.11,1.27-.79,2.49-.52,3.8h-1.44c-.4,1.47.57,1.43.96,1.92ZM209.89,133.26c.02-.63.12-1.07-.13-1.76,2.57-.43,1.65.62,1.92.96.05.07,1.22-.02,1.43.75.18.67-.94,3.7-.85,4.68.03.31.36.68.37,1.06.06,2.37.19,4.59.49,6.94-2.26-.02-1.27-3-1.45-4.54-.25-2.17-1.12-4.17-.95-6.48-1.58.23-.85-.71-.83-1.59ZM260.61,280.62c.53-.53,1.48.44.96.96-.52.52-1.49-.43-.96-.96ZM254.85,284.46l2.37.5c.12.11.03,1.23.02,1.65-.01.4.22,1.68-.72,1.2-1.06-.54-2.02-2.12-1.68-3.35ZM293.71,273.91c-.86.01-1.7.06-2.55-.09-.71-.12-1.59-.37-1.29-1.35,1.15.21,3.29.18,3.84,1.44ZM251.27,176.09c-1.88.57-3.7.56-3.62-1.92l4.32.96c.14,1.28-.02.76-.7.96ZM402.6,386.6h1.92c.37.37-.55,2.79-1.44,2.88l-.48-2.88ZM386.29,398.1c.21-.16.35-4.22.48-5.27h1.92c1.49-.28.76.68.96,1.44l-.41.31c-.18.35.01.86-.06,1.13-.1.33-.34,1.02-.48,1.44-.06.16-.83.65-.48,1.44-.54,0-1.09.07-1.63-.05l-.29-.43ZM374.3,375.09c-.96.39-1.59-.37-1.92-.48l.48-1.92c.99-.4,1.26.88,1.44.96v.48c-.04.31.05.67,0,.96ZM371.9,395.23c1.01-.18,1.18.86,2.15.98,1.17.15,2.28-.74,3.12-.5.07.02.26.74,1.18.47.77-.23.62-1.24.74-1.43.15-.22.89-1.37.96-1.44.07-.07.44.07.64-.08.74-.55,1.27-1.44,2.24-1.35l-.5,3.09,1.43,1.02.04,3.08c-.95-.4-2.3.4-3.13.47-1.97.17-3.05-.2-4.79-.46-.76-.11-1.6.14-2.33-.07-1.12-.31-1.78-2.67-1.74-3.78ZM376.69,382.28c.04-.31.14-.53.48-.48.16.46.52,1.54.48,1.92-.05.49-.5.84-.96.96.12-.73-.09-1.64,0-2.4ZM362.53,380.35c-.84.12-1.05.79-1.49.93-1.29.4-1.7-1.1-2.58-1.63-2.45-1.48-3.85-.01-6.08.14-.55.04-.98-.43-1.73-.32-.57.08-2.45,1.2-2.74.9v-3.36s1.9.47,1.9.47c.59-2.81,3.65-2.55,4.61.03l2.6-.03c-.58-2.08,2.08-2.13,3.39-1.21.51.36.37,1.11.45,1.22.77,1.01.97-.77,1.06-.86.26-.26.81-.05.86-.1h1.44c.35.13.71-.1,1.21.47.47.53.62,1.78.74,1.91.47.49,4.51-.75,5.39-1.03.44-.14.73-.67,1.13-.79.54-.16,1.16-.02,1.75-.16.24-.05.3-.39.34-.4.23-.04.77-.05.96,0,.7.19,1.28,1.31,2.4.96l-.48,2.4c-.11.01-1.22.88-2.11.54l-.29.42c-.7.02-1.41-.08-2.12.05l-.28.43c-.16-.02-.32.02-.48,0-.53-.07-.45-.48-.48-.48l-.24-.48h-.48s-.24.48-.24.48c-.93-.1-1.94.07-2.88,0-1.84-.15-3.53-.78-5.53-.49ZM323.93,399.54c.71-.24,1.3.35,1.76.39.57.05,1.09-.54,1.77-.36.79.21,1.32,1.78,1.96,2.39.56.53,3.24,2.15,3.93,2.3,1.93-.2,3.84.84,5.7.57,2.76-.4-.08-2.66-1.67-3.15-.85-.27-1.73-.09-2.44-.44-.62-.31-.94-1.41-1.42-1.94-1.98-2.19-4.37-3.42-3.85-6.94h1.42c.25.31.28,1.58,1.2,2.42,1.14,1.03,2.44.69,3.16,1.16.36.24.54,1.04.93,1.47,1.31,1.47,3.25,3.37,5.29,3.11.5-.49-1.41-2.76.2-2.36.77.19,2.21.44,2.69.67.51.25,1.26,1.45,1.92,1.92,2.53,1.8,8.5,3.16,7.66-1.67,1.43-.36,1.72.81,2.7,1.37,3.82,2.2,5.54.93,9.16,1.89.86.23,1.3-.26,1.09,1.06h-5.28s1.44,2.4,1.44,2.4c-1.84.61-3.21-.77-4.56-.96-1.76-.25-3.91.18-5.75-.01-1.79-.18-4.19-1.01-6.01-1.43-.36,1.39.61.75.9,1.01.11.09.11,1.34.05,1.38-.13.1-2.66.85-3.13.96-3.04.65-5.61.41-8.61,0-.89-.12-2.19-.8-2.98-.85-.6-.04-1.1.53-1.77.35-.85-.23-3.35-3.61-4.38-4.28l-.24,1.44c-2.15.13-3.26-1.83-2.88-3.84ZM237.99,233.39c-.88.31-.62,2.64-1.6,2.16-1.58-.77-1.6-3.89.71-3.84l.89,1.68ZM246.45,394.26c1.52-1.24,7.38-4.39,9.21-4.7.71-.12,1.88-.17,2.08.64.32,1.31-3.06,3.35-4.15,4-1.31.78-8.3,4.38-9.28,3.43-.75-.73,1.6-2.92,2.15-3.36ZM242.13,388.5c.6-.57,3.83-3.71,4.09-3.83-.04-2.2-.07-5.4,2.88-4.79l-.96,3.36c.19-.18.24-.53.77-.9.48-.34,3.16-1.88,3.55-1.5.48.48-.85,2.39-1.22,2.86-2.28,2.94-6.26,6.21-9.1,8.64-1.79,1.53-6.12,5.58-8.2,6.18-.68.2-1.34.31-1.14-.66,3.19-3.04,6.14-6.34,9.34-9.36ZM209.76,235.31c.02,1.04-.01,2.08,0,3.12-.55.65-.92.06-.96-.71-.08-1.47,0-2.69.48-4.08.84-.11.47,1.1.48,1.68ZM214.34,275.81l.46,1.93c-1.2-1.5-2.6-3.45-3.52-5.11-1.71-3.08-2.44-5.13-1.99-8.8.64-.12.7.83.84,1.31,1.1,3.67,2.45,7.23,4.21,10.66ZM221.29,239.64c-.12.79-.74,1.01-.9,1.5-.59,1.89-.56,4.42-.56,6.4-.98-.17-.78-1.01-1-1.64-.51-1.49-1.1-3-.92-4.59h-1.44c.16,1.84-.23,3.97,0,5.76.42,3.32,2.42,7.84,2.87,11.28.29,2.23-.24,4.9.02,7.17.22,1.89,1.47,3.85.92,5.98l-2.37.5c-.75-1.43-.7-2.69-.98-4.06-.54-2.62-1.4-6.63-1.44-9.14-.01-.79,1.01-1.1,1-1.9-.01-.88-.75-3.82-.98-5.05-.38-2.08-.2-1.54,0-3.36.03-.31-.02-.64,0-.96.12-2.08,0-2.71-1.94-3.63.13-1.24-.12-2.58.03-3.79.27-2.15,2.26-3.83,3.12-5.51.33-.64.11-1.42.44-1.96.34-.54,1.08-.35,1.22-.45v1.43c2.1-.32,2.02.44,2.88,1.92-.13,1.3.2,2.85.01,4.09ZM218.98,344.54c-1.26-3.32-2.74-7.18-2.98-10.69l1.68,2.39,4.55,14.39c-1.13.2-.89-.14-1.19-.96-.62-1.75-1.42-3.41-2.07-5.14ZM211.2,324.74c1.05.21.79,1.04.96,1.68.65,2.46,1.01,4.99,1.66,7.45.04,1.3,3.43,8.27,3.13,8.62-.76.87-1.02-.68-1.18-.96-2.76-5.02-4.14-11.1-4.57-16.78ZM200.65,311.55c.45-.74,1.12.04,1.36.56.28.61.28,1.53.79,2.1.35.39.91.35,1.12.55.27.26,2.25,5.64,2.72,6.64,1.61,3.39,3.43,6.68,5.05,10.06-1.68.41-2.17-2.6-2.46-2.82-.27-.2-1.09.11-1.64-.52-.34-.4-.99-1.92-1.28-2.56-2.08-4.5-3.64-9.46-5.66-14ZM189.14,280.14l-1.44,1.44c-1.51-.32-2.09-4.39-.72-4.79,1.07-.21,2.37,3.16,2.16,3.36ZM123.9,117.11c.04-.95-.03-1.92,0-2.88,1.46-.35,3.66.02,5.29.23.72.37,2.68,3.75,3.56,4.59.27.25,1.89,1.49,2.18,1.65.61.34,2.04.51,2.33.79.3.3.42,1.68.56,1.85.05.05,1.37.06,1.42,0,.75-.92-.15-4.04-.47-5.27,0-.03-.33.12-.48-.48-.03-.13,0-.32,0-.48l-2.4-5.27c.68-.74,2.56,2.76,2.8,3.19.13.23.01.53.08.65.64,1.12,2.69,4.82,3.6,5.27.85.42.79-.51.64-1.12-.25-1.03-.9-2.91-1.36-3.67l.05-.68.43-.28c.56,1.48.22.51,1.21,1.42,2.86,2.64,5.46,5.56,9.82,5.3-.13,1.4-1.34,2.28-.96,3.83l2.88-.24c-.93.53-4.22,3.55-2.14,4.07.65.16,1.23-.44,1.82-.38.41.04.84.45,1.51.41.93-.05,2.59-1.35,3.87-1.47,1.18-.11,1.98.53,3.1.49l-5.05,2.87c-.97,1.1-2.14,2.03-3.11,3.13-.47.54-1.15.79-.96,1.68.91.2,1.48-.14,2.25-.39,1.24-.4,8.88-3.82,9.26-3.45.17.91-.72,1.45-.88,2.23-.34,1.61-.44,3.03-1.12,4.63-.29.69-1.07.87-.87,1.77,5.33.82,10.82.54,15.96,2.5,3.88,1.48,4.62,3.71,4.18,7.8-.14,1.28-.56,2.03-1.92,1.68-.09-1.44.23-2.92-.22-4.34-.42-1.35-1.82-4.24-3.62-3.81v6.95c0,.14.56,2.25.69,2.66,1.36,4,5.22,8.48,9.86,7.65-.2,2.91,2.4,4.96,3.26,7.53.44,1.3.75,2.31.1,3.49-.25.46-.92.72-.99,1.69-.06.92.74,1.66.46,2.6l-.92.03c-.09-.57-1.23-3.34-1.68-3.35l-.96.94c-.67-.5-.82-1.37-1.42-1.93-.66-.61-1.85-.76-2.11-1.01-.62-.62-2.17-5.04-3.02-6.33-1.18-1.81-2.44-1.96-2.81.41-.39,2.49-1.07,4.53-.97,6.72.08,1.76.12,3.35-.47,5.02-.72.13-1.07-.16-1.36-.8-1.58-3.43-1.88-7.34-3.18-10.73-.82-2.14-3.02-3.09-4.83-1.44-1.5,1.37-1.1,2.82-1.18,4.58-.04.94.05.75-.96.72-.77-1.25-.04-2.22-.1-3.03-.22-3.02-1.44-10.88-3.96-12.82-1.25-.97-1.64-.19-2.77-2.51-1.02-2.09-1.46-4.57-3.98-5.57-2.49,1.62-.31,2.82.19,4.58.42,1.5-.38.93-1.16,1.58-1.63,1.37-1.4,5.45-2.2,6.2-.24.22-1.42.65-1.87.32-.52-.38-.59-1.64-1.01-2.35-1.17-2.03-2.64-3.33-3.55-6.04-1.34-3.96-1.02-8.87-3.82-12-.8,0-2,5.67-1.68,6.71l-3.04-1.51c-1.28-.92-2.65-1.46-3.11-3.13-.38-1.4-1.24-3.68-1.43-4.8-.2-1.22.14-2.69-.15-3.68-.31-1.07-2.05-1.53-2.36-2.04-1.48-2.37-2.8-6.06-3.33-8.81h-1.92c.11-.09.08-2.42,0-2.88-.05-.28-1.5-1.67.48-1.44Z"/>
    <path class="a3" d="M128.22,189.75s.05-.02.08-.03c.01,0,.02,0,.03,0-.04.01-.07.02-.11.04Z"/>
    <polygon class="a3" points="117.18 184 117.18 183.28 117.18 183.28 117.18 184"/>
    <path class="a3" d="M116.2,183.34c-.03.11-.07.32-.24.39-.13.06-.24.09-.33.1.09,0,.2-.04.33-.1.16-.07.21-.28.24-.39Z"/>
    <path class="a3" d="M116.94,183.29c-.17,0-.36-.04-.51-.04.16,0,.34.03.51.04Z"/>
    <path class="a3" d="M118.84,184.26h0s.06-.01.09-.02c-.02.01-.05.02-.09.02Z"/>
    <path class="a3" d="M110.29,179.58c.87.74,1.83,1.39,2.69,2-.86-.61-1.82-1.25-2.69-2Z"/>
    <path class="a3" d="M115.28,182.89c0,.09-.02.23-.03.37,0-.15.03-.28.03-.37Z"/>
    <path class="a3" d="M115.26,183.26c0,.15,0,.29.05.4-.05-.11-.06-.26-.05-.4Z"/>
    <path class="a3" d="M216,410.57c.16-.8.28-1.6.48-2.4h.48c-.14.32-.06,3.88.08,4.48.12.55.68,1.03.81,1.59.27,1.12-.51,2.41,1.03,2.08l.96-.48c-.43.53-.55.58-.96.96-.12.11-.36,0-.48.48h-.96s-.59.04-.94-.24c-1.99-1.59-1.34-2.19-.98-4.56.1-.66.35-1.26.48-1.92h0Z"/>
    <path class="a3" d="M400.69,229.44s0,0,0,0c0,0,0,0,0,0Z"/>
    <path class="a3" d="M401.66,186.77s0-.01,0-.02c0,0,0,.01,0,.02Z"/>
    <polygon class="a3" points="402.12 185.2 402.08 185.23 402.12 185.2 402.12 185.2"/>
    <path class="a3" d="M186,318.01c-.19.5-.18,1.38-.23,1.44-.18.19-1.64-.19-1.88.04-.1.09-.71,1.94-1.06,2.54-1.73,2.98-4.29,7.23-6.62,9.68-.52.55-1.17.7-1.7,1.18l.25-6.46.97-3.83c-1.54-.42-.78-.73-1-1.91-.1-.53-.48-1.04-.49-1.47-.01-.71,2.28-3.26,2.68-4.52.62-1.94.21-2.12-1.7-2.42.06.49-.21.86-.4,1.28-.23.52-.44,1.66-1.05,1.59v-2.63s-.96-2.17-.96-2.17c-.53,1.46-.35,4.24-2.4,4.31-.02-1.35.03-2.72,0-4.08,0-.4.21-1.68-.72-1.2-.54.28-2.43,3.35-3.11,4.08-1.72,1.86-2.12.95-2.89,4.07q-.13.51,0,0l-.89-.07s-.02-.05-.03-.07l-.06-.81-.2.1c-.14-.39-.29-.79-.43-1.18,1.33-2.73,4.48-5.54,5.46-8.51l2.38.47c-.65-1.95,1.22-2.4,1.69-3.34.51-1.03-.32-2.26,1.19-1.93l.24.48c.31,0,.22-.47.24-.48,1.35-.57,2.8-1.19,4.25-1.51l.79-1.37.48,1.44c1.5-1.05-.02-2.12.3-3.52.04-.19.84-2.13.92-2.22.13-.15,1.53-.07,1.92.2.25.17,1.26,2.11,1.34,2.5.36,1.67-.83,3.94-1.46,5.58-.21.54-.76.78-.87,1.52-.25,1.7.44,10.47,0,10.79-.4.09-1.14-.14-1.38.05-.14.11-1.28,3.03-1.01,3.31,1.2.3,1.94-1.73,2.7-1.87.52-.1.99.68,1.63.23.49-.35,1.74-3.38,1.91-4.11.09-.41-.06-.98,0-1.44.21-.26,1.21.89.96,1.44.27.95,2.16-.18,1.93,1.21-.19,1.17-1.27,2.44-1.71,3.58Z"/>
    <path class="a3" d="M180.98,368.37c-.06.02-.12.01-.18.02.06,0,.12,0,.18-.02h0Z"/>
  </g>
</svg>