<?xml version="1.0" encoding="UTF-8"?>
<svg class="a3" xmlns="http://www.w3.org/2000/svg" viewBox="0 0 600 500">
  <defs>
    <style>
      .a3 {
        fill: #a98e6a;
      }

      .cls-2 {
        fill: #c9caca;
      }
    </style>
  </defs>
  <g>
    <path class="a3" d="M319.31,448.1s-.01,0-.02,0c0,0,.01,0,.02,0Z"/>
    <path class="a3" d="M319.77,448.34s-.05-.03-.08-.04c.03.01.05.03.08.04Z"/>
    <path class="a3" d="M320.18,448.51s-.03-.01-.05-.02c.02,0,.03.01.05.02Z"/>
    <path class="a3" d="M414,347.66s0,.03,0,.05c0-.02,0-.03,0-.05Z"/>
    <path class="a3" d="M313.56,447.59s-.01,0-.02,0c0,0,.01,0,.02,0Z"/>
    <path class="a3" d="M184.74,356.37c-.51,1.05-1.45,1.51-1.05,3.02.84-.05,2.18.28,2.66-.46.43-.68.63-3.81.7-4.82-1.94,0-1.42.44-2.3,2.25Z"/>
    <path class="a3" d="M156.34,243.32s-5.85,2.83-6.42,3.16c-1.85,1.06-3.98,2.56-3.65,4.99,1.02.16,1.92-.26,2.88-.48.88-.2.9-.46.96-.48.13-.05.83-.04.96,0,.05.02.09.22.2.33-.1-.11-.14-.3-.19-.32h0s5.66-6.96,5.66-6.96c.01-.15-.32-.2-.37-.22,0,0-.02,0-.02,0h-.01Z"/>
    <path class="a3" d="M207.18,119.12c.2.08.88,1.58,2.39.96,0,0,0,0,0-.01-.37-1.46-.61-2.7-2.4-2.4v1.44s.01.01.01.01Z"/>
    <path class="a3" d="M219.16,127.26s-.35-.11-.4-.34c-.3-1.42.06-2.29-1.53-3.25-.5-.3-1.15-.24-1.7-.7-.53-.44-.55-1.16-.77-1.38-.97-.96-3.73-.76-4.71.39,0,0,0,.01,0,.02.45,4.1.46,7.32,2.39,11.28l.49,7.43c1.87.74,2.93-2.71,3.65-2.85.43-.08.97.52,1.35.43,1.13-.27.63-2.22.77-3.09.38-2.48.81-5.37.47-7.92h.03-.04Z"/>
    <path class="a3" d="M220.61,127.27c.23,1.64,1.58,3.99,2.66,5.26.47.55.82,1.14,1.66.98.31-.34-.83-3.3-.95-4.09-.37-2.44-.72-6.66-.48-9.09.08-.8.75-1.67.47-2.65.01,0,.02,0,.03,0,.04,0,.07-.01.11-.01-.05,0-.1,0-.15,0-.52-.05-1.02-.76-2.11-.43-1.08.32-1.65,2.49-1.75,3.53-.16,1.69.25,4.72.5,6.5h.01Z"/>
    <path class="a3" d="M403.82,317.19c-1.78,4.09-.54,4.01,1.67,6.74.41.5-.07,1.2,1.21.93-.11-3.11,1.19-7.2-2.88-7.67Z"/>
    <path class="a3" d="M228.67,125.59s-.04-.02-.06-.04c.02.01.04.03.06.04Z"/>
    <path class="a3" d="M312.44,440.43c1.29-1.54,3.33-4.84,4.36-6.67.25-.44,1.19-1.39.69-1.95-.43-.48-1.88,1.08-2.15,1.45-1.07,1.49-2.6,3.96-3.53,5.58-.25.43-1.29,2.29-1.03,2.56.84.16,1.19-.42,1.66-.98Z"/>
    <path class="a3" d="M311.82,433.11c.42-.92,1.07-1.65.87-2.73l-1.92-.48v3.84c1.1.16.76,0,1.04-.62Z"/>
    <path class="a3" d="M330.92,427.97l-.48-2.87c-.65-.11-1.08.27-1.6.56-1.11.63-4.08,2.48-4.89,3.26-.67.65-.85.95-.71,1.93l6.22-2.66,1.45-.23Z"/>
    <path class="a3" d="M358.26,422.22l1.44,2.88c2.1-.94.4-3.18-1.44-2.88Z"/>
    <path class="a3" d="M393.42,400.93s0,0,0,0c0,0,0,0,0,0Z"/>
    <path class="a3" d="M305.5,447.64c.92-4.65,3.66-8.86,4.42-13.58.06-.4.61-1.04-.34-1.29-1.26-.33-2.74,1.67-3.03,2.72-.83,2.98-1.62,6.93-2,10-.11.94-.45,2.55.95,2.15Z"/>
    <path class="a3" d="M417.72,277.61c-1.35-1.18-5.17-1.79-5.7-2.21-.08-.07-.85-1.54-1.01-1.85-1.46.04-5.14-.39-6.25-1.18-1.01-.72-.73-4.2-1.5-4.98-.57-.57-2.14-.85-2.31-2.48.07-.1-.06-.41.09-.64,1.06-1.67.65-1.5.87-3.2h.94c.06-1.29.71-2.28.51-3.62-.09-.58-.48-.65-.49-.69-.1-1.06.02-2.26,0-3.36.85-.4.29-1.57.71-2.41.31-.62,2.03-1.88,2.41-2.86.48.38.17,1.4.31,2.09.16.73.82,1.16.88,1.26,2.69-3.33,2.6-6.24-1.92-7.19,0,0,0,0,0,0-.7-.15-1.13.35-.96-.96l-1.67.96c-.45-.13-1.52-4.15-2.89-1.93-.36.58-.53,3.83-.81,4.95-.28,1.14-2.82,8.97-3.23,9.24l-2.9.69c-.32-1.49.78-2.76.95-4.08.18-1.36.58-5.97.52-7.19-.04-.81-.38-1.86-.51-2.83-.08-.61-2.09-.44-2.36.48-.32,1.12.05,3.36-.05,4.75-.15,2.07-.62,4.64-.94,6.73-.24,1.59.66,3.38-1.93,3.11-.35-1.63.91-2.55.97-4.07.03-.73.09-.85-.73-.73-1.48.22-2.81,2.98-3.89,3.3-1.01.3-2.59-.05-3.77.07-1.02.1-2.29.31-3.38.45-1.71.22-1.06,2.15-.25,3.16,2.47,3.09,8.89.71,10.6,1.87.86.58,1.22,3.46,1.44,4.56.98.09,3.53.33,4.07.97.97,1.15.97,3.83,2.12,5.1.18,1.03-1.45,1.15-1.89,1.87l1.46.98c.22,1.27-1.49,2.76-1.48,3.82,0,.59.6,1,.89,1.55.49.95-.22,1.16,1.78,1.56,2.1.42,4.66.92,6.62,2.01.45.25,2.15,1.77,2.25,2.07.38,1.16-2.89,1.67-3.7,2.05-.44.21-2.45,1.53-2.52,1.79-.11.35-.22.99.27,1.19.98.41,2.28.76,3.07,1.44.69,0,4.13,1.13,4.32,1.44.29-.05.36-.25.48-.48h.48c.36.38.48.8.56.87.41.37,1.4.37,1.84.57,0,0,0,0-.01-.01.23-2.45,1.68-4.69,1.44-7.2h3.36c-.35-1.22-2.04-1.04-2.87-1.43,0,0,0,0,0,0-.66-.31-2.66-1.63-2.83-2.21-.31-1.04.43-1.65.44-2.35.02-.92-1.14-1.63-.97-2.63,1.01.09,2.14-.14,3.12,0,.85.12,1.36.75,1.99.89,1.07.23,1.91.29,2.96.54.03,0,.04,0,.07,0,1.36.33,3.03,1.24,3.36-.72-1.07-.6-1.68-2.26-2.4-2.88Z"/>
    <path class="a3" d="M369.77,247.65c-1.97-.24-1.63,3.66-1.44,5.04.12.85.74,1.35.89,1.99.25,1.09,0,2.35.58,3.5l2.85.02c.69-.69-3.65-8.76-2.88-10.55Z"/>
    <path class="a3" d="M415.27,325.08c.02-.2-.42-.2-.43-.23-.91-2.18-2.3-3.58-1.92-6.23,0-.03.35-.11.39-.34.23-1.14.67-4,2-4.45-.17-.27-.29-.77-.48-.96-.46-.46-1.67-1.05-1.92-1.68-.44-1.13,1.51-.15.91-1.87-.68-1.96-5.57-5.67-.43-6.52.82-.57-1.59-2.92-2.15-3.37-.29-.23-2-1.36-2.16-1.42,0,0,0,0,0,0-.9-.27-2.88.13-4.07-.01-2.17-.26-4.72-1.18-6.96-1.43-.59,2.52.53,3.35,1.34,5.13.33.73.42,2.06.79,2.56.43.59,1.58.34,1.97.91.46.66-.04,1.78.42,2.45.24.35,1.02.48,1.46.94.27.28,2.98,4.35,3.06,4.61.31,1,.27,1.86-.88,1.63-.31.22,1.37,2.6,1.67,3.33.48,1.17,1.87,5.27.73,6.02-.25.16-1.58.63-1.94.7.03.85-.11,1.73.08,2.56.18.81,1.07,1.35.88,2.23-1.42-.09-2.79.79-3.58,1.93-1.38,1.97-.07,2.12.48,3.81.68,2.08,1.01,5.3.72,7.47-.18,1.34-2.14,2-1.93.22-1.95.48-.42,5.58-.96,6.24-.65.79-1.07-.54-1.19-.95-1.06-3.55-1.91-7.13-3.34-10.58-.45-.65-1.54-.43-2.34-.54-.31-.05-.45-.35-.58-.38-.45-.12.03.99-.46.95-1.53-1.6-1.83-4.01-2.72-5.92-.29-.64-.64-.93-1.36-.8v4.32s-1.92,0-1.92,0c.17,5.56,1.58,11.25-.98,16.53l.97.27v.7s-6.46,6.96-6.46,6.96c-.49.05-.1-.75-.25-.95-.26-.35-2.91,1.61-3.59,1.91l-.71-1.91c-.11.04-.31-.01-.48,0-.63.05-1.29,0-1.92,0-1.42,0-2.95.33-3.84-.48-.03-.03-.48.07-.48-.24.09-.28.26-.21.48-.24l.29-.43,1.14-.05c.52-.68.54-1.58.48-2.4-1.18-.27-1.91.64-2.88.96.06.29-.09.74,0,.96-1.09-.38-1.6.69-2.23.88-.67.21-2.75.53-3.52.55-.29,0-.74.06-.96,0-.19-.05-1.15-1.43-.96.48-.8.01-1.6-.02-2.4,0,.05-.39-.12-.46-.48-.48v.48c-.32,0-.64.02-.96,0-.47-.04-1,.07-1.44,0-2.19,2.61-2.24,6.55-1.94,9.85.16,1.72,1.12,2.04,1.38,2.93.18.62.16,2.63.59,3.01.21.19,1.31-.19,1.92.24.43.3.27,1.19.71,1.25,2.76.41,2.89-1.7,3.87-1.91.53-.11,3.25,1.24,4.27,1.4,1.01.15,2.82-.38,3.37.47.3.48.23,1.73.94,1.94,1.79.51,1.23-1.47,1.2-2.88-.01-.56.07-1.14.02-1.69-.05-.61-.64-1.98-.5-2.15.7-.82,1.05.58,1.18.96.5,1.37.38,2.86,2.17,2.4v-8.63c.53.17,1.1.77,1.45,1.19,1.32,1.6,2.22,2.54,1.82,4.71-.14.78-1.83,6.77-2.04,7.07-.52.75-1.74-.23-2.1,1.73-.43,2.38.92,4.96-2.32,5.83-.87.23-1.88.47-1.6-.88,0-.8,0-1.6,0-2.4,0-.32.02-.64,0-.96,1.11.34,1.3-.91,1.44-1.92-.87-.06-1.67-.04-2.4.48-.35-.11-1.25.16-1.42-.02-.31-.34.68-1.94-1.19-1.39-.44.13-.79.97-1.21,1.18-.61.31-1.33.15-1.94.46-.8.41-1.52,2.62-2.66,3.12-.61.18-3.6-2.39-4.34-2.8-1.65-.92-9.53-.68-11.95-.57-2.93.14-5.67.88-8.62,1.45-1.33.25-3.35.14-4.72.56-.58.17-1.87,1.78-2.46,2.34-1.06,1.02-.83.51-1.69,1.91-.82,1.34-2.29,2.75-2.87,4.02-.28.61-.97.21-1.45.29v-3.84s2.4.96,2.4.96c-.18-1.43.61-3.41-.77-4.26-.29-.18-3.18-1.4-3.37-1.43-1.89-.28-6.91,2.56-8.62.44-1.27.65-1.97,1.24-3.54.94v-2.88s-1.92.96-1.92.96c-.36-2.96.45-4.36,3.33-4.77l.26.93c2.46-1.73,2.4-.42,4.08.48.11.06.32-.05.48,0l2.11.91,2.69-2.83c2.09-.54,4.73-1.2,6.71-.48l-.72,2.4,2.46-2.82c.94-.02,2.18-.22,3.06-.06,1.63.29,4.73,2.7,6.51,3.32l-.27-1.4c.31-.02.65.03.96,0,.65-.07,4.05-.84,4.27-1.01.33-.26.44-2.23.76-2.84.48-.92,2.53-2.62,2.9-3.34.49-.95.16-2.48.24-3.6.03-.5.48-.99.49-1.46.01-.8-1.07-1.29-.98-1.67-2.7-2.47-6.84-6.05-10.55-6.71-.49-.09-1.38-.04-1.92,0-.31.03-.65-.04-.96,0-.06,0-.15.35-.96.48-.16.03-.33-.03-.48,0-.8.14-1.36.47-1.44.48-.3.05-.66-.06-.96,0-1.56.3-2.2.24-3.84,0-.16-.02-.32.02-.48,0l-1.92,1.44c.17.98,2.21,1.11,1.9,2.13-.04.12-1.17,1.66-1.41,1.95-1.05,1.29-2.73,2.61-4.09,3.58-.41.29-.44.68-1.2.48-.82-2.68-1.88-4.62.71-6.72,1.02-.83,2.61-1,3.13-2.39-1.35.05-2.72-.08-4.07,0-.6.04-1.15.64-1.87.44-.43-.12-.97-.99-1.57-1.34-1.08-.64-2.52-1.04-3.52-1.76-.69-.49-6.75-6.49-6.98-6.93-.51-1-.11-2.46-.24-3.6-.06-.5-.41-.96-.46-1.46-.35-3.85.91-5.4,2.5-8.27,1.83-3.32,3.62-10.22,6.3-12.52,1.78-1.52,11.09-1.19,6.91-4.92-.49-.44,2-.7,2.03-1.38.03-.63.03-1.29,0-1.92-.02-.47.05-.97,0-1.44-.02-.16.03-.33,0-.48-.01-.06-.26-.06-.48-.96-.04-.15.04-.33,0-.48-.02-.06-.25-.22-.48-.96-.08-.26.08-.7,0-.96l-.05-.67-.43-.28c-.29-.82-.55-1.81-1.18-2.42-.39-.38-5.88-3.78-6.24-3.83-1.3-.19-3.44.49-4.34-.46-.29-.3-1.2-2.71-1.21-3.13-.03-1.24,1.18-.98,1.45-1.21.46-.39-1.89-3.26-1.43-4.3.12-.14,3.21,2.74,2.88.72-.11-.68-2.26-4.04-2.87-4.8-.94-1.16-2.38-2.18-3.37-3.35v-.24c1.01.16,1.18-.1.9-1.14-.47-1.7-2.57-4.08-2.82-5.81-.1-.69-.02-.89.7-.7,1,.25,4.16,2.06,4.81,1.9.25-.06.88-.78.72-1.19-.95-.61-1.09-1.99-1.66-2.66-.39-.45-1.04-.54-1.45-.95-2.9-2.84-5.68-5.64-9.36-7.47-.3-1.72,1.02-3.67,1.02-5.25,0-1.25-1.56-5.92.25-6.42.5-.14,1.5.05,1.61-.06s-.29-2.08.73-2.39c.81-.24,1.3,1.4,2.4,1.47.73.05,1.27-.39,1.92-.5.78-.13,2.27.33,2.59-.77.57-2-1.28-5.84-2.42-7.57-.36-.55-1.46-1.91-2.06-1.73-.36.1-.79.9-1.24,1.18-.98.61-2.94,2.03-3.84,1.46-.92-.58-3.03-3.29-3.83-4.32-1.07-1.38-4.46-5.73-5.02-6.97-.63-1.42-.59-4.77-1.67-5.53-.86-.6-1.54.34-2.54.19-1.41-.21-5.05-.96-6.27-1.45-.8-.32-1.19-1.09-1.53-1.83-2.62-5.69-4.14-13.17-6.7-19.2-4.93-11.65-13.03-21.47-19.68-32.12-2.48-1.1-1.86-2.47-2.16-4.55-.21-1.46-.8-2.89-.47-4.57l-7.2.48c.03-.71-.07-1.44.01-2.15.27-2.4,1.14-5.14,1.43-7.2.13-.95-.21-4.75.04-4.99.31-.29,2-.44,1.79-1.63-.43-2.4,3.12-5.87,4.62-8.03.29-.41,1.53-2.09,1.22-2.38-2.43-.68-4.5,2.35-6.73,1.21-.83-.43-.79-2.1-1.66-1.69-.35.16-3.96,4.32-4.05,4.62-.22.79.64,1.47.41,2.26-.27.92-3.4,4.96-4.2,6.38-.86,1.52-3.69,6.73-3.91,8.08-.09.53.04,1.13,0,1.68.36.37,3.5-1.38,2.87.24-.61,1.58-2.14,2.83-1.92,4.78.07.62.58,1.05.43,1.85-.31,1.7-2.73,3.68-1.87,6.08,1.06,0,3.32-5.36,4.31-4.32.01,1.07-.96,2.66-.96,3.6,0,.5.45.96.49,1.46.17,1.83-2.51,5.25-2.35,6.14.13.73.47,1.6,1.38,1.27,0-.59,2.15-4.68,2.88-3.84l-.98,4.05,1.47,1c.17.67-1.93,3.19-1.42,3.56.15.11.62-.19.95.31,1.61,2.38-1.46,4.51-1.84,6.76-.3,1.77-.75,5.41-.56,7.09.07.64,1.25,5.31,1.45,5.5.22.22,2.52-.43,2.84.76.25.93-1.3,3.24-.95,3.57,1.48-.3,4.4.08,3.14,1.94-.44.64-4.6,2.25-5.71,2.92-2.61,1.6-4.91,5.49-6.79,8.08-.49.67-.96.51-1.67.49-.21-.21.21-3.54-.07-4.49-.42-1.42-2.35-3.16-2.72-4.47-.66-2.33-.25-4.51-.54-6.59-.06-.44-.91-.27-1.24-.73-.51-.69-.79-2.72-.69-3.62.04-.34,1.26-3.87-.25-3.13-.38.19-1.63,3.11-1.93,3.83-2.52,6.06-4.64,12.57-4.55,19.19-1.37.13-2.56-.02-3.62-.94-1.6-3.29-4.64-7.16-5.76-10.54-.77-2.33.04-1.57.99-2.4,1.03-.9,2.76-2.57,3.59-3.61,1.39-1.73,2.3-5.86,4.55-3.13.58,0,2.74-5.61,2.64-6.71-1.08.52-1.42,1.8-2.88,1.44.31-2.17-.77-4.1-.97-6.22h-1.91c.11-1.77,1.5-2.73.96-4.81-.62-.68-2.62,2.29-3.36,2.4-.12-1.99,1.84-3.21,1.44-5.28.92-.05,1.87.31,2.64-.48.82-.83,2.34-4.03,2.89-5.26,1.02-2.28,1.83-4.52,2.72-6.87.75-1.96,1.9-3.94,1.81-6.1-1.89.62-4.17,1.52-4.72,3.69-.15.58.01,1.17-.08,1.59-.97,4.28-2.37,7.36-4.41,11.18-.4.75-.12,1.55-1.34,1.29-.19-.5-.02-1.31-.96-1.44-1.09,2.58-1.55,6.1-4.8,6.71v-6.95c0-.05.39-.43.49-.95.13-.72-.32-2.35.71-2.64,1.6-.46,1.01.53,1.43,1.45.17.38.39,1.01.71,1.22.4.27,1.76.35,1.91.18.08-.1.05-.57.28-.9.84-1.19,3.46-5.17,3.59-6.26-3.61-.52-2.55-1.23-2.88-3.84,0-.04-.52-.12-.49-.69.03-.65.68-1.37.51-2.18h.94c.55-3.3,1.76-9.04,1.34-12.14-.06-.44-.3-2.18-1.1-1.78-1.02.52-3.3,6.6-3.98,8.01-1.27,2.63-3.3,5.74-3.94,8.48-.13.54-1.38.35-1.43.3-.35-.35.46-2.43.5-3.1.11-1.71-.38-4.84.02-6.21.21-.72,1.33-.76,1.66-1.22.75-1.06-.71-4.99-.78-6.49-.06-1.18.95-5.62,1.53-6.66.49-.87,2.57-2.86,2.76-3.48.37-1.26-.25-6.53.06-6.9,1.45,1.41,2.82,1.3,3.27-.8.44-2.03.21-5.37.55-7.59-1.51-2.47-.45-8.89-4.52-6.97l-.52-.45c-.84-2.36-1.97-4.71-3.18-6.89-1.96-3.56-4.42-6.37-6.64-9.66-.46-.68-.96-1.28-.96-2.16h-.01c-.56-.29-3.09-3.56-3.58-4.34-1.37-2.16-1.87-4.89-4.1-6.45-1.88-1.31-1.74-.23-3.18.15-1.97.53-1.33-.3-2.06-1.14-2.23-2.57-2.24-1.56-4.84-2.36-4.63-1.42-6.06-4.87-7.9-8.89-1.6-3.5-2.63-7.42-4.62-10.72-.74-1.23-2.26-3.79-2.71-.95-.55,3.45.72,6.45,1.35,9.74-.88.2-.94-.27-1.36-.79-5.35-6.53-12.73-14.67-22.28-13.02-1.64.28-2.65,1.8-3.45,1.86-1.2.09-2.54-1.04-3.84-1.03-.77,0-1.32.46-1.93.51-1.36.12-5.27-.25-6.63-.55-2.41-.52-5-3.64-7.99-2.8v3.36c-.85-.08-1.82.13-2.65,0-1.8-.26-5.61-4.81-7.18-6.24-.38-.35-.84-1.13-1.44-.96-1.37.4-.62,4.32-.14,5.42.33.75,1.97,2.46,1.82,2.97-.28.97-3.83.88-4.8.72-.12-.02-1.81-.68-2.26-.86-1.92-.79-4.84-3.24-6.62-3.46-.9-.11-1.86-.1-2.16.97-.05.08.03.31,0,.48l-.41.31c-.17.36,0,.83-.06,1.13,0,.04-.4.09-.49.69-.59,4.25,4.14,6.45,7.21,8.18.54.3,1.32.47,1.43,1.2-1.62.51-3.35.64-5.06.5-2.57-.22-6.6-1.75-9.09-1.46-4.09.47.54,3.59.24,3.84-1.27.26-2.28-.69-3.52-.42-1.3.29-1.85,1.83-3.2,1.86l-2.88-1.44c.05,2.86.44,5.49.46,8.38.04,5.02,2.25,12.22,4.89,16.72.58.99,2,2.31,2.32,2.95.42.83-.66.84-1.21.73-.99-.2-1.39-1.32-2.62-.97v8.87c0,.39,3.13,5.73,3.6,6.95.23.59,1.24,3.86,1.19,4.07-.38,1.61-2.58-.16-3.36-.71-.71.85,3.25,7.89,4.1,9.09,1.08,1.54,2.99,3.14,3.99,4.64,1.08,1.61,1.97,4.41,2.94,5.93-.65.14-2.16-.55-1.93.73.22,1.19,2.23,4.86,2.96,6.15.7,1.24,3.63,6.27,4.33,6.94.53.5,2.53.85,3.27,1.29.99.59,2.56,2.67,3.59,3.6.77.7,2,1.13,2.65,2.15l-2.88.24c-.47.46,1.25,2.04,1.67,2.41,1.3,1.11,10.18,5.77,11.51,5.75.5-.01.96-.47,1.45-.48.14,0,1.6.43,1.67.48.8.61-.16.84-.62,1.04-4.11,1.81-6.49,5.46-6.57,9.99.89.19,1.14-.48,1.68-.96,2.06-1.81,3.61-4.78,6.73-4.33,2.86.41-.57,2.56-1,3.82-.55,1.65-.29,2.32,1.45,2.44,1.71.12,3.89.12,5.53.46,0,0,0,0,.01,0,0,0,0,0,0,0,.47-1.25-1.39-5.59.68-5.24.12.02,2.09,1.04,2.21,1.15.66.62,1.38,3.63,1.98,4.74.82,1.52,4.63,6.31,5.91,7.52.62.59,7.68,5.2,8.16,5.27,1.25.18,2.79-.15,4.09-.01l-.48-2.63c1-.98.93.54,1.66,1.22,3.25,3.01,7.68,5.6,11.06,8.6,2.01,1.79,8.33,9.12,10.14,9.53,2.04.47,2.14-1.4,3.28-1.4,1.23,0,2.79,1.84,4.08,1.95.1.51.14,1.28-.71.95-.65-.25-3.58-3.06-4.08-1.19-.22.81,1.54,3.35,2.22,3.54.69.19,1.5-.04,2.26.13.65.14,1.28.94,1.92.83,1.58-.27,3.32-2.87,5.11-1.15l-1.44,1.68,4.55-1.44.48,1.44c.42-.43.99-.57,1.45-.95.73-.59,3.62-4.32,4.54-3.37.68,1.96-1.6,4.5-1.47,5.99.07.73,1.3,1.86,1.38,2.96.05.62-.62,1.31-.4,2.07l1.71.46c.22,1.67,1.59,3.47,1.66,5.06.07,1.61-1.17-.01-2.14.26-.78.22-.6,1.11-.75,1.43-.11.24-.26.26-.48.96-.04.14.03.32,0,.48-.35-.04-.42.17-.48.48-.03.16.04.34,0,.48l-.43.28-.05.68c-.03.16.03.33,0,.48-1.15-.18-1.31.82-1.8,1.31-.6.6-1,1.22-1.53,1.81-.78.87-1.88,1.56-2.42,2.63-.52-.02-1.09.11-1.6-.07-.53-.18-.89-1.05-1.48-.88-.62.18-2.95,3.58-3.63,2.87.86-1.75-.23-2.27-.48-3.83l4.77-1.46.04-.25c.29-2.2-.23-3.51-.76-5.47-.17-.64-.16-1.86-.22-1.94-.62-.78-.84.16-1.04.62-.51,1.16-1.01,1.93-1.36,3.21-1.95.13-1.21.09-1.42-1.21-.3-1.84-.95-3.63-.98-5.51-.48.09-1.17-.32-1.45.3-1.02,2.26-3.42,4.09-4.79,6.18l5.05,1.19h1.66s-.48,2.41-.48,2.41c-4.54,2.17-9.71,5.24-13.43,8.63-.13.12-.22.27-.48.48h0c-.56.45-.46.28-.96.48.42,1.56-.9,1.77-1.42,2.38,0,0-.01.01-.02.02h-.01c-.13.15-.22.35-.3.56-.2.55-.29,1.21-.56,1.69-1.11,1.98-2.87,4.42-3.44,6.63-.22.86.05.68.7.7,1.32.04,1.65-.19,2.64-.96,0,.03.47.19.48.48-1.66,1.66-2.91,4.1-4.32,5.76.01.27.47.44.48.48h.01s.02,0,.02,0c1.15-.12,2.12-1.74,2.86-2.62,1.17-1.39,2.27-3.12,3.35-3.61.07-.03.64-1.04.89-1.27l.07-.65c-.15.03-.33-.04-.48,0-.02-.42.33-.38.48-.48.38-.01.36.33.48.48.03.04.36-.01.44.27.36,1.21-.3,2.13-1.4,2.61.07.16-.06.46.06.67l.41.29c.62-.53,1.54-.91,2.17-1.43,1.92-1.59,3.75-3.3,5.75-4.81.74-.1.83-.03.72.72-.22,1.49-4.03,3.6-3.84,5.99.87.18.13-.78.79-.97,1.74-.49,1.74-1.24,3.53-1.43v-2.4s1.92,0,1.92,0c.18.9-.42,1.57-.48,2.4-.06.97.38,1.52.48,2.4,1.33-.03,2.1-1.35,3.54-.91.49.15,2.18,1.96,1.73,2.35-1.85-.43-3.78,1.94-3.32,3.53.16.58,1.26,1.07,1.39,1.54.05.17-1.38,2.67-1.68,3.07-.47.63-2.89,3.21-3.56,2.39-.09-.11-.45-2.25-1.23-.95-.25.42-1.68,4.72-1.62,4.98.08.37.71.65.85,1.09.28.92-.04,2.24.08,3.28.09.82.73,1.66.47,2.65,4.23-.08,1.32-4.47,1.92-7.19,1.26-.14,1.55.89,1.44,1.92.88.27.97-.49,1.43-.73,1.97-1.06,1.2.44,1.45,1.21-1.07,1.21-1.55,3.63-.01,4.57.8.49,1.72.57,1.45-.73.09.19,2.94,2.79,3.14,2.85.34.1.79,0,1.17.03l-.48-2.4c.38.03.83-.07,1.17.03.26.08,3.71,3.5,3.87,3.8.99,1.9,1.56,7.21,2.27,9.72,1.63,5.82,4,9.89,6.37,15.22,1.44,3.24,2.56,6.63,4.07,9.83.19.59-.15.99-.72.72-.23-.11-2.48-2.86-2.86-3.38-2.98-4.01-5.06-8.7-7.73-12.92-.73.42-2.1.33-2.63.69-.38.25-.42.95-.7,1.22-.46.44-1.07.55-1.44.96-1.51,1.71-2.85,6.68-4.94,9.44-.44.58-.49,1.33-1.53,1.11-.36-2.36,1.28-4.2,2.17-6.23.75-1.73,1.4-3.56,2.15-5.28.02-.06.74-.05.48-.96-.48-.02-.96.02-1.44,0-.16,0-.32,0-.48,0,.12-1.46-.18-3.12,0-4.55.11-.85.98-2.22.89-2.81-.07-.45-1-2.28-1.28-3.06-.28-.78.32-1.32-1.06-1.09l-.49,8.86c-.62,2.13-.88,4.34-1.43,6.49-.81,3.15-2.28,5.21-3.74,8.01-2,3.85-3.38,4.57-1.63,9.12.21.54.51,1.35,1.05.62.08-.1.31-1.86.59-2.53.6-1.5,2.39-3.86,4.21-3.7.17.18-.68,3.54-.83,4.18-.49,2.09-1.48,4.11-1.96,6.22-.36,1.57-.37,3.58-.58,5.18-.15,1.12-.81,2.26-.47,3.61l3.06-2.37c.29.6,1.54.85,1.68.99.18.19-.03,1.05.13,1.53.47,1.33,1.47,2.64,1.36,4.17l3.11-1.46,2.14.53c.16.43-.08,1.04.03,1.41l-.43.28c-.09.22-.04.45-.05.67h.96s.27.04.39.33c.18.46,0,1.07.31,1.6.76,1.28,2.29-.35,3.37-.5,1.6-.22,3.57.1,5.26,0,1.42-.09,2.24-1.35,3.1,1.24.34,1.02-.8.55-1.2,1.13.22,1.13-1.76,4.61-1.65,5.07.36,1.52,2.61.13,2.4-1.2,1.9-.21.53,1.06.23,1.91-.35.97-2.11,5.79-1.67,6.24.61,0,1.32.17,1.69-.46.57-.96.92-4,1.41-5.31.23-.6,1.87-3.89,2.15-4.08,1.09-.75,2.61.59,3.86.26-1.82,5.78-1.12,11.62-1.93,17.52.12.81.9,1.33,1.23,2.13.26.64.61,3.22.74,3.34.14.13.94-.03,1.41.26.74.45.69,2.22-.01,2.9l1.93-1.43c.77-.9,3.92-5.34,4.55-5.52.56-.17.85.4,1.19.73-.56,5.4-2.99,10.26-5.27,15.1.99.2,1.12-.46,1.53-1.1,1.04-1.63,2.21-3.8,2.8-5.61,1.78.91,2.38-1.28,4.3-.96v3.84s.72-.48.72-.48l4.56-9.59c.83-.11.54,1.69.47,2.15-.27,1.82-1.11,4.66-1.66,6.5-.75,2.52-2.41,4.91-2.17,7.66l1.21-1.91c1.6-3.77,1.93-5.84,5.26-8.65.35-.29,2.31-1.82,2.46-1.86,1.87-.56,2.43.72,1.9,2.38-.5,1.56-5.23,12.86-4.53,13.37.29.21,1.36-.37.88,1.2-.45,1.48-5.39,3.88-4.76,6.5.7.7,6.69-3.36,7.92-3.83.79-.3.69.17.71.71.01.31-.17,4.15.96,2.64.04-.05.11-.69.47-1.2,1.08-1.58,2.93-4.7,4.34-5.74.42-.31,3.61-2.06,2.86-.49-1.28,1.68-2.69,3.55-3.76,5.35-1.33,2.23-4.07,6.47.55,5.82,2.8-.39,2.27-.98,3.69-2.55.94-1.04,2.31-2.47,3.37-3.35.48-.4.62-.92,1.44-.72.29.32-.97,6.59-.96,7.91,0,.73-.33,1.39.72,1.2,1.62-2.4,3.88-4.62,5.06-7.19,1.48.75,2,.11,3.11-.01,2.92-.33,1.28,3.67,1.2,5.05-.41,6.5,1.55,12.8,1.93,19.16.09,1.53.75.54,1.42.25,0,.02.1.05.21.14-.11-.1-.22-.13-.22-.15-.28-.8,1.12-1.5.98-2.39l1.9.47c.05-1.11-.06-2.25,0-3.36,0,0,0,0,.01,0,.17-2.86,1.91-4.71,3.83-6.7l.99,6.96c-.26,2.77-.91,5.37-1.47,7.91-.03.15.03.33,0,.48,0,0,0,0,0,0,0,0,0,0-.01,0-.3,1.31-1.23,4.42-.93,5.48.3,1.04,3.3,1.02,4.28,1.23.02,0,.05.1.14.21-.09-.1-.11-.19-.13-.2.01,0,.02,0,.03,0,2.31.33,2.42-3.2,3.08-4.81.52-1.27,1.51-2.43,1.69-3.83,1.39-.25.9.47.96,1.44.07,1.12-.01,1.41.96.48.6-.58.32-.63.48-.96.47-.99.89-2.34,1.92-2.88.61,4.29,1.1,8.57,1.44,12.94.47.02.95-.04,1.42.01.36,1.82.94,4.08,1.69,5.75.3.67.52,1.43,1.44,1.44.51,0,.12-6.36.24-7.2,0,0,0,0,.01,0,0-6.04-1.17-12.01-1.91-17.98-.08-.63.11-2.5-.01-2.63-.66-.74-.83.15-1.04.62-.8,1.82-1.85,3.6-2.85,5.32-.69,1.18-.92.33-1.86.29.07-.45-.08-1,0-1.44l1.31-2.28c.28-1.44.72-2.88,1.01-4.31.1-.52-.4-.56-.4-.6-.04-.6.12-1.43,0-1.92l-.48-.48c-2.83-2.73-1.54-1.88-1.9-5.54-.07-.76-.45-1.35-.49-1.91-.15-1.82.14-3.28.47-5.03.82-.2.95.32,1.44.72,1.19.98,1.69,2.13,2.63,3.13.48.52.88,1.1,1.69.95.07-2.6-1.19-5-1.81-7.54-.46-1.92-.68-3.95-1.07-5.88,1.03-.29,1.16.52,1.34,1.29.7,3.08,1.25,6.2,2.02,9.26.86.14,2.58-.46,2.82-1.26.28-.91-.52-1.92,1.01-1.62.01.69.34,1.35.73,1.91.51.74,4.21,5.63,4.54,5.77l-4.31,4.55c1.73,1.61,3.27,3.47,5.02,5.05.43.39,1.02.56,1.46.94,1.4,1.22,5.18,4.99,6.69,5.3.63.13,1.54.14,1.21-.73-.84-2.2-3.47-5.95-4.87-8.08-.88-1.35-1.87-2.6-2.81-3.9-.2-.28-1.34-1.53-.47-1.69.24.52,3.64,2.84,4.57,3.83,1.76,1.87,3.29,4.65,5.01,6.5.48.51,3.3,2.97,3.65,3.07,1.96.58,2.36-2.85,2.12-4.28h1.44s-.96-4.8-.96-4.8c1.43.13,3.1-.22,4.48.08.73.16,3.91,1.72,3.67,2.56-.2.71-2.1.41-1.44,2.16.87-.03,1.76.08,2.63,0,1.52-.15,3.8-.92,5.28-.98,1.06-.04,1.78.51,2.4.51,1.32,0,3.5-1.2,5.04-.96.57-2.82-1.12-2.79-2.85-4.09-.55-.41-2.8-2.07-2.89-2.4-.22-.81,1.38-1.28,1.46-2.38.11-1.53-1.28-2.76-1.41-3.42-.08-.43.57-1.66-.06-2.57.52-.5,6.36,2.47,7.52,2.79.96.27,7.01,1.33,7.35,1.04.03-1.77-2.13-1.81-3.36-2.16-.42-.12-1.73-.55-.95-1.19.58-.48,7.04.95,8.86-1.45,1.35-1.79.21-2.14.21-3.58,0-.76.72-1.52.31-2.16-.84-1.32-1.17-.51-1.94-.49-1.12.02-2.24.02-3.36.02l.24-1.92c1.21.25,2.94.35,3.14-.99l4.53-.45v2.88c1.86.25,4.02-.98,4.32-2.88,1.33.06,1.98,1.57,3.59,1.47,1.76-.12.99-2.18,1.2-2.42.45-.52,3.02.48,3.59.48.63,0,1.26-.64,2.16-.48.39.07.81.67,1.44.48.04-.31-.06-.68,0-.96.36-1.69.73-.96,1.34-1.54,1.13-1.09,3.17-5.04,2.98-6.62.31-.16.68-.28.96-.48.81.59.58,2.69.4,3.52-.28,1.26-3.21,5.65-4.01,7.5-1.14,2.66-1.83,5.48-2.86,8.17-.55,1.43-1.81,2.71-1.69,4.31,1.79-.25,2.31-2.73,3.6-3.36,1.11-.54.46,1.64,1.44,1.92,1.24.35,2.19-1.53,2.73-2.54,2.47-4.64,3.15-9.24,4.45-14.25,1.27-1.22,1.02-.21,1.45.47.37.58,1.49.69,1.68.5.31-.32-.52-1.94-.52-2.64,0-.76.44-1.3.51-1.93.15-1.31-.47-2.75.73-3.59,1.56-.43,2.05,2.04,3.59,1.92l.48-2.88c-.86.04-3.25.02-3.81-.5-.08-.07-.09-1.74.03-1.84.15-.13.65-.07.89-.29.76-.68,1.17-2.28,2.41-2.64-.08,1.72,1.24,3.46,1.43,5.04.18,1.47-1.59,5.54.73,5.52,1.4-.01,2.82-3.1,3.36-4.32.81-1.84,1.7-4.3,2.41-6.23.28-.77.27-2.65,1.42-.95.42.62-.05,1.21,1.2.94l1.92-11.03c2.58,0,.64,3.83.49,5.52-.22,2.39.14,5.01,0,7.43h1.42c1.16-3.65,3.31-6.83,2.92-10.81-.2-2.04-1.46-4.02-1.94-5.98l-1.44.48c-.24-1.99.16-3.63.5-5.51.14-.79-.32-.82.94-.73.03,1.73,1.21,3.25,1.92,4.8.32,0,.64,0,.96,0l.24-1.92c1.27.69,1.56,2.87,3.12,2.88.7-.81-3.38-6.71-2.88-7.19.7-.67,3.49,2.23,4.79,1.44l-1.44-3.36s.07.02.11.03c0,0,0,0,0,0-.04-.01-.08-.02-.12-.03-.15-.02-.31,0-.46,0h0c-2.05-.1-1.01-.94.46-1.42v-.02c1.59-.52,3.64-1.04,5.28-.96,0,0,0,0,.01,0v-1.43c.22-.22,2.91,1.03,2.4,1.91.45.06.96-.04,1.42,0-.01.04-.02.09-.02.14,0,0,0,0,.01,0,0-.05,0-.09.02-.13,0,0,0,0,0,0,.02-.06.36-.1.4-.33.35-2.24-.71-5.69-.39-8.54.03-.31.43-2.05.51-2.13.51-.48,2.59.36,1.88-2.92h-.01c-.04-.05-.44-.88-.48-.96-1.48-.71-2.35-.16-3.83,0,.25-2.87-.67-6.07.73-8.64.19-.34.67-.41.71-.48,0,0,0,0,.02,0,0,0,0,0,0,0-.01,0-.02,0-.03,0,.04-.07.46-1.31.48-1.44,1.26,0,2-1.37,2.83-2.17ZM99.27,160.13c-2.7-1.84-2.67-1.02-3.83-4.56,3.38,1.42,5.73,4.54,8.15,7.19-2.29.86-2.45-1.35-4.32-2.63ZM172.49,155.04l-13.26-7.15c-.35.38,1.33,2.84,1.7,3.34,2.05,2.77,4.76,5.33,6.94,7.92.6.71,3.12,3.85,3.28,4.39.71,2.45-.46,6.95-.88,9.53-.13,1.25.13,2.6-.01,3.82-.16,1.39-.88,2.5-2.15,1.2-.76-.78-3.83-5.6-4.33-6.7-.66-1.44-2.29-6.08-2.54-7.54-.24-1.41.24-4.64-.31-5.45-.4-.59-1.83-.72-2.43-1.41-1.2-1.39-.12-3.58-3.59-2.88-.16-1.61.66-8.23-1.24-8.61-.47-.1-1.06.6-1.64.46l-1.45-8.15c-.38.04-1.35-.08-1.42,0-.12.14-.91,3.16-.96,3.61-.15,1.34-.26,5.79-.01,6.94.01.06.72.09.48.96h-1.44c-.06-.29.08-.74,0-.96-.52-1.39-1.82-1.33-1.92-1.44-.04-.04.03-.41-.48-.96-1.58-1.71-2.87-3.69-4.4-5.43-.53-.61-.78-1.42-1.83-1.28-2.13-5.04-3.48-8.84-7.42-12.96-2.58-2.7-6.03-1.53-8.11-2.84-.44-.28-.39-.84-.77-1.21-.33-.32-1.16-.42-1.45-.97-.68-1.29,2.62-.47,2.88-.72.13-.64-.42-1.1-.48-1.68-.15-1.54.12-5.18.54-6.65.14-.5,2.47-2.75,2.99-2.66,1.37.24,5.23,2.88,7.01,3.58.47.18.93.21,1.41.26l.52,2.36c.98,1.12,2.71-4.03,2.87-4.58.1-.35-.1-1.08.73-.7,1.27.59,4.24,5.31,5.75,6.72,2.02.92,4.35,4.07,6.25,4.78.61.23.89-.09.72-.72l-6.71-8.64c-.18-.62.1-.95.71-.71,1.37.53,2.92,1.8,4.23,2.49,6.85,3.6,11.58,5.96,16.38,12.4.67.89,4.45,6.47,4.54,6.99.14.84-1.14,1.21-1.35,1.92-.24.84.14,3.29-.08,3.52-.06.06-1.49.49-1.6.47-.38-.08-.84-.84-1.28-1.15-.47-.33-2.55-2.02-2.86-1.7-.12,1.03.92,1.68.98,2.65.05.79-.48,1.49-.53,2.36-.11,1.95-.43,4.5,1,5.76.52.46,5.69,3.93,6.04,4.03,1.35.39,3.49-.14,4.97.07.71.63-3.1,3.76-4,3.31ZM196.89,249.58c-1.47.73-3.15,3.25-4.57,3.34-.77-1.81-.29-3.63-.53-5.47-.05-.4-.42-.26-.43-.28-.09-.41.06-.99,0-1.44.41-.43,1.34-1.43,1.44-1.92l.65.07c.26.3,1.13.72,1.27.89.19.25.66,1.94,1.07,2.31.26.25.77.02.85.08.1.08.72,2.12.26,2.41ZM186.56,347.41c-.44.43-2.23-1.03-1.92-1.92.44-.43,2.23,1.03,1.92,1.92ZM210.78,337.81c-1.3-.64-1.47-5.53-1.69-5.74-.14-.14-1.29.19-1.94-.23-.51-.33-.79-1.79-1.39-2.44-.57-.62-1.32-.69-1.88-1.47-.77-1.09-2.82-5.99-3.2-7.35-.23-.83-.29-1.57-.21-2.42.99-.2,1.12.47,1.53,1.1,1.78,2.78,3.29,6.5,4.94,9.45.3.54.46,1.32,1.2,1.44l-.48-4.8c.5-.08.95.01,1.21.46.66,1.11.93,4.84,1.28,6.39.32,1.39,1.1,2.96,1.33,4.42.09.57.15,1.62-.71,1.19ZM217.25,387.69c-.74,0-1.11.27-.9-.66.27-1.23.71-2.53,1.03-3.77.15-.56.18-1.9.83-1.8.32,2.18-.79,4.11-.96,6.24ZM288.24,241.17c.04-.78.41-1.36.96-.71l-.24,4.32c-1.06-.85-.78-2.41-.72-3.6ZM225.4,358.67c-.12.96-.63,2.89-1.91,2.65-.51-1.86-2.15-8.56.3-9.08.1-.02,1.54.41,1.6.47.21.21.11,5.18.01,5.97ZM236.91,370.68c-.32-.38-2.28-3.63-2.34-3.92-.26-1.37,2.65-4.95,3.27-2.77l1,7.4c-.92.12-1.33,0-1.93-.71ZM246.03,388.17h-1.43s-2.43-13.4-2.43-13.4l-1.39-.04c.04-2.46-1.26-5.07-1.48-7.4-.12-1.26-.04-3.03.02-4.34.04-.79.43-1.37.96-.72.03,3.83,2.44,7.33,3.74,10.89.36,1.01,2.02,5.56,2.02,6.13v8.87ZM251.79,372.58c0,.13-.56.48-.72.72h-.48c-.25-.07-1.68-2.48-1.68-2.64v-6.95l2.88.48v8.39ZM270.89,420.95c-.42.52-.48.99-1.36.79.14-3.58-.19-7.23-.02-10.81.04-.77.45-1.34.49-1.91.18-2.68-1.13-6.22,2.41-6.46.11,2.47-.14,4.98-.02,7.45.04.85.48,1.5.52,2.36.2,3.69.36,5.66-2.01,8.58ZM268.1,279.07c-.86.51-4.11,5.82-4.25,6.78-.07.46.45,1.13.45,1.85,0,.41-.57,2.88-.74,3.14-.16.25-4.85,2.66-5.38,2.78-1.13.26-2.39.06-3.52.56-.32-1.74.68-3.15.96-4.79-1.39.19-2.25-1.01-3.6-1-1.42,0-2.62,1.15-4.07,1-.83-1.57,4.22-4.46,3.36-5.27-2.58-.05-7.01-.97-5.27-4.31-.87.1-1.55-.75-2.24-.9-1.02-.23-2.66.97-3.04-.3-.17-.57,2.33-2.88,2.87-3.37.63-.57,1.37-.81,1.93-1.43-.37-.71-2.16.48-1.92-.96.21-1.26,1.75-1.79,1.87-2.45.08-.43-.46-.9-.39-1.32.09-.53,1.2-.98,1.36-1.55.34-1.18-1.42-2.68-1.42-3.78,0-.16.91-2.51,1.01-2.61.18-.17,4.26-.4,5-.52,2.64-.43,5.2-1.3,7.92-.95v1.92c3.01-2.76,2.39,2.1,2.88,4.32,2.44-.12,3.71-1.57,5.59-2.8.65-.43,2.19-.84,2.48-1.12.18-.18.2-.77.54-1.12.67-.67,2.45-2.06,2.44-2.86-.01-.54-.54-1.14-.54-1.93,0-.85.7-1.7.52-2.39-.5-1.86-3.19.87-4.02.68l-4.6-4.29c.14.78-1.76,2.32-2.39,2.65-.71.37-1.63.25-2.58.77-1.89,1.04-4.52,3.95-6.52,4.52-1.88.53-4.9.33-6.97.7-1.28.23-2.41,1.19-3.77.89-1.21-.27-2.83-2.07-4.14-2.59-1.32-.53-5.45-.79-6.04-1.63-.34-1.99-.48-4.01-.7-6.01-.2-1.87-.59-3.13-.46-5.27.03-.58.51-1.15.51-1.93,0-1.19-.7-4.59-2.45-3.37-.26.18-1.93,3.89-1.92,4.56-3,1.06-6.02-5.3-5.04-7.2,1.66-2.04,3.83-3.94,5.13-6.13,2.14-.23,6.59-2.96,8.32-2.97,2.28-.01,2.59,2.99,2.63,4.8-3.59-.66-5.82,2.71-9.11,3.36,2.58,3.24,5.71-1.55,8.39-1.92,1.71-.24,5.91-.19,7.66.01,2.52.29,5.54,1.89,8.11,2.44,1.42.7,2.7,3.3,2.7,3.3l.96.96c.27-1.91,3.25-3.69,2.17-5.77-.31-.59-1.42-1.09-1.69-1.42-4.49-5.52-6.13-5.43-11.49-9.37-.59-.44-3.46-2.75-3.63-3.08-.4-.79-.39-5.82-.15-6.89.13-.61,1.27-2.97,2.08-2.71,1.16.37,2.22,4.9,2.87,6.24.94,1.96,4.87,4.19,6.73,5.74,1.37,1.13,2.72,2.44,4.07,3.61l-.96.48c2.91,4.69,6.98,9.1,9.52,13.98.56,1.07,1.12,2.21,1.42,3.39.12.49.03,1.46.12,1.55.1.09.91-.01,1.41.26.42.22,2.75,4.21,2.42.95-.15-1.51-.92-3.06-.44-4.72.21-.72,1.57-1.3,1.79-2.04.17-.59.31-4.51,2-3.3.62.45.09,1.58,1.43,1.21l-.27-1.93c.77-.64,1.67-1.08,2.67-.95-.36,1.75.44,1.2.83,1.54,1.6,1.36,3.68,6.1,5.18,8.04,1.05,1.35,4.67,3.67,4.95,4.63.47,1.58-.69,3.37-.42,5.22.2,1.37,1.23,1.85.96,3.83-.18,1.33-1.39,1.87-1.44,3.12.73-.19,2.21.32,1.92,1.2-.66,1.99-2.39-.9-3.09-.71-2.47,2.33-4.79,4.82-7.21,7.19-.41.4-1.06.5-1.45.95-.28.32-1.2,2.22-1.15,2.57.07.43.64.98.81,1.61.3,1.13.62,2.31.58,3.5-.31.32-3.61-1.44-4.47-1.36-.81.07-5.71,2.06-6.55,2.56ZM276.27,299.23c.52-.34,1.13-2.37,1.67-3.13.5-.71,3.67-3.89,4.22-3.79,3.31.55,2.48,4.05,3.42,6.68.31.86,2.94,6.82,3.23,7.09.38.36,1.31.07,1.38,1.29.03.54-.85,4.93-1.08,5.67-.46,1.52-2.4,5.9-4.19,5.64-1.19,4.96-2.18,9.95-2.44,15.07,0,.42-.94.31-1.18.22-.76-.29-3.19-4.8-3.09-5.42.13-.8,1.26-1.88,1.4-2.95.15-1.17-.91-.45-1-.98-.36-2.18,4.18-9.57,3.36-10.27-.26-.23-1.54-.22-1.84-1.28-.2-.71-.28-4.71-.54-4.98h-1.91s-.01-1.44-.01-1.44h-2.39c-.12-1.15.18-2.51.01-3.61-.12-.8-.76-1.03-.9-1.5-.89-3.01.86-1.64,1.88-2.3ZM275.05,354.6c2.55-.72,1.51,4.45,1.69,5.98.22,1.88,1.4,4.03,1.43,6.01-.92.21-1.88-1.31-2.15-1.93-.35-.81-.87-2.76-1.09-3.71-.28-1.23-1.41-5.92.12-6.36ZM296.87,379.54c-.6.49,2.45,7.43,1.89,9.32-.59,1.98-3.64-.86-4.28-.21v3.36c-.92,1.03-2.46-3.34-2.64-3.83-1.05-2.89-1.78-6.12-2.37-9.14-5.92-2.55-10.61-6.79-14.62-11.75-.18-.58-.12-1.57.69-1.17,1.09.54,1.49,2.89,2.88,2.9,1.2,0,2.37-3.37,3.57-4.16l-.93-5.45h1.43c.06.09-.01.86.26,1.42,2.31,4.77,6.6,10.03,11.09,12.9.96.62,2.79,1.09,3.53,1.74.16.14,1.84,2.29,1.88,2.44.43,1.49-1.06,1.84-2.36,1.64ZM410.05,323.91s-.47.05-.48-.24c.1-.22.44-.18.48-.24v.48Z"/>
    <path class="a3" d="M158.27,257.72h.93s.01,0,.02,0c1.42-.82,1.79-1.23,2.88-2.4l.03.03-.02-.02v-.48c-1.24,1.06-3.21,1.16-3.84,2.88Z"/>
    <path class="a3" d="M369.29,110.97v.02s.27.97.27.97l2.8-1.45c.51.32.87.73,1.16,1.27.49.91,1.75,3.87,1.92,4.8.53,2.87-2.99,6.7-2.79,9.74,3.35-1.54,3.64.34,3.36,3.36,1.62.39.7-1.11.96-1.44.11-.14,1.48-.05,1.69.47.22,1.94.85,3.82.71,5.77,2.75-1.93,1.99,3.82,2.4,4.32.73.88.82-.17.97-.69.43-1.5,2.45-5.54,4.06-5.56,2.43-.02.24,4.45.73,5.77.82-.19,1.28-1.34,1.91-1.69.62-.35,1.11-.12,1.44-.23-.36,1.7-2.13,2.93-1.92,4.79l3.36-.48c1.02,1.03-4.28,8.53-3.36,10.55,1.9-.31,3.71.26,2.64,2.4-1.11,2.22-.12,1.5-.22,3.1-.09,1.41-1.86,3.87-1.46,5.29.04.14.71.96.95.48,1.17-.15,1.19-1.34,1.92-2.15,1.39.94-.23,3.19,0,4.07.06.22.51.74.96.48.74-.43,3.93-5.62,3.81-6.19-.1-.46-1.24-1.4-1.9-1.25.09-.36-.02-.99,0-1.44h.96c.01-.32-.01-.64,0-.96.11-2.97.07-2.98,1.92-5.28.12-.15.68-.3.97-.69,1.09-1.45,1.01-2.55,1.43-4.1.18-.66.3-1.64.48-2.4.82-3.47.68-4.62.96-8.15.05-.64.35-1.24.48-1.92h.96s0-.96,0-.96c-.34-1.18,1.64-3.03,1.42-4.03-.16-.73-1.95-.74-1.92-1.95.02-1.15,2.68-6.66,1.94-7.44-1.25-.42-1.59.69-2.16.96-.55.26-.97-.17-.72-.72.34-.72,2.1-1.82,2.63-2.65l4.59-3.57c2.09-3.78-3.61-2.55-6.02-2.66-.74-.03-.81.2-.71-.72,1.21-1.26,2.22-3.05,3.35-4.33,2.73-3.09,6.14-6.04,10.33-6.45,1.54-.15,3.92.31,5.21-.07.74-.22,4.53-3.46,5.89-4.18.72-.38,2.17-1.31,2.09.17-.05,1.01-.65,1.82-.52,2.86l.98.49c-1.03.97-2.57,1.72-3.61,2.63-.57.5-1.33,1.07-1.19,1.93,2.22-.47,4.41-1.18,6.71-.96.59,2.53-2.76,4.11-3.33,6.03-.26.88.13.59.6.76,1.54.58,2.12,0,1.73,2.04-1.56,1.01-2.67,2.44-4.03,3.65-.43.38-1.24.57-1.47.92-.39.58-.1,1.44-.3,2.1-.9,3.07-4.03,5.14-5.61,7.82.17,2.08-.85,4.08-.56,6.15.06.45,1.5.25,1.93.74-.06.03.04.32,0,.48l-.43.28-.05.68c-.04.15.04.33,0,.48h-.96s0,.96,0,.96c-.06.03.04.32,0,.48-.83-.24-2.72,2.38-2.81,2.7-.16.55.03,1.24-.14,1.77-.67,1.99-2.14,3.94-2.32,6.08-.44.32-.45.71-.59.82-.42.33-2.42,1.98-2.58,2.02-.49.1-1.36-.71-2.1-.44-1.08,3.6-3.46,6.75-5.05,10.06-3.07,6.39-2.47,7.52-8.39,12.48-.24.2-.8.25-.94.76-.12.45,1.15,3.31-.26,2.59-.96-.49-2.74-2.97-3.83-3.84-.75-.6-1.89-.83-2.41-1.43-.81-.94-2.29-5.53-3.02-7.05-1.69-3.53-3.54-7.01-5.36-10.48v-.68s.95-.26.95-.26c-1.81-3.77-5.04-6.5-7.7-9.58-.31-.35-.52-.73-.46-1.21-2.27-.41-1.56,5.49-.89,6.17.5.51,3.74.91,4.5,1.97.35.49,1.31,3.8,1.55,4.69,1.56,5.83.08,8.87.58,14.29.18,1.94,1.25,4.27,1.45,6.23.37,3.61-1.39,11.51-2.5,15.22-.34,1.15-.96,3.81-2.1,4.13-.81.23-2.73-.31-3.06.78-.39,1.28,3.08,1.5,2.9,2.87-1.53,3.2-3.53,6.23-4.92,9.5-1.76,4.13-2.38,9.01-2.29,13.51l.91,4.75c-3.04,3.01-5.84,6.44-9.32,8.92l-5.99,5.52,3.56.28c1.33.7.3,1.44.24,2.59-.11,2.04.91,2.86-.19,5.54-.29.71-2.58,3.46-2.18,3.82h4.32c.03,3.2-4.04,2.22-3.36,5.28,1.53.59.7-1.67,1.2-1.44,1.24.57,4.03,6.28,5.46,7.5-.24,1.17-.2,3.23-.47,4.21-.23.82-2,.8-1.82,1.88.17.98.77,3.94,1.13,4.65.12.23.8.87,1.02.91l2.1-.44c.04,1.87,1.52,3.78,1.83,5.61.18,1.07.67,6.26.49,7.03-.67,2.91-2.23,4.07-2.34,7.73-.02.72-.13,3.96.02,4.1.18.16,1.66-.2,1.89.03.06.06.18.87.4,1.27,1.25,2.25,2.75,4.44,3.71,6.85,2.26,5.67,2.79,11.75,1.68,17.75,1.74.16,2.97,1.79,4.45,2.51,2.28,1.1,3.33,1.95,5.84,1.89.24.7-.35,1.3-.39,1.76-.04.49.37.89.38,1.36.01.56.23,1.26.27,2.05.02.38,2.25,2.15,2.47,2.59.5,1.06,1.28.81,2.33.79l-.48-4.32,1.44.48c1.31-9.17-5.19-14.97-9.52-21.89-.49-.79-2.32-3.73-2.4-4.31-.06-.47.45-.95.34-1.74-.36-2.61-2.03-5.88-2.25-8.36-.08-.85.89-1.46.89-2.31,0-.91-1.24-1.8-1-2.87l1.01-.51-.03-2.61c-1.02-.23-1.22.96-2.15.97-.4,0-1.21-.44-1.21-.73v-8.63c0-.3-1.29-4.94-1.51-5.68-.91-3.03-5.07-6.41-6.06-9.77-.16-.55-.03-1.19-.18-1.73-.39-1.38-2.06-3.22-2.25-4.98.15-2.57,2.67-5.81,3.21-8.13.14-.61.02-1.22.09-1.83.12-1,.96-1.64-.5-2.42-.99-.52-1.78.29-1.41-1.41,2.18-2.47,4.05-5.2,6.44-7.47,3.5-3.32,7.42-6.39,11.05-9.57,3.65-3.2,7.06-6.75,11.07-9.56.81-.1,1.31-.33,1.17.68-1.02,2.4-.93,8.27-4.16,8.81-.61.1-1.45-.79-2.33-.91-.98-.14-2.11.09-3.12,0,1.3,1.84,4.43,1.55,2.92,4.5,1.33,1.07,5.85,5.48,7.34,5.05.38-.11.7-.65,1.03-.91.32-2.14.35-4.34.72-6.47.6-3.39,1.29-6.75,1.89-10.1.09-.49-.08-1.57.01-1.67.1-.1.74-.21.96.31.83,1.94,3.01,1.49,4.58,2.54.4,2.68,1.1,5.3,1.64,7.95.18.86.33,1.85.49,2.61.7-.85,1.26.08,1.67-1.41.35-1.26.4-2.78.81-4,.15-.44.62-.72.77-1.15.36-1.04,1.29-3.26,1-4.15-.03-.09-.92-1.59-.99-1.66-.35-.35-1.67-.45-1.81-.59-.14-.14-.1-3.47.05-3.98.11-.38.63-.67.79-1.13,1.45-4.11,1.06-8.6,1.55-12.84.27-2.36,2.21-3.93-.5-5.75-.79-.53-1.24-.6-2.14-.75-.82-.13-.81.29-.73-.94.5-.11,2.71-.85,2.85-.99.2-.2-.08-1.56,0-2.1.04-.24.52.06.98-1.22.01-.04.53-.06.49-.69-.03-.43-.55-1.16-.49-1.21.11-.08.58-.01.94-.26.97-.68,1.68-1.6,3.15-1.7.72-.05,1.88.73,2.11.48.16-.17-.07-.83.02-.94.04-.04.64-.31.96-.48.25-.14.65-.32.96-.48.18-.09.62-.02.97-.21,1.51-.82,2.48-1.43,3.32-2.96.24-.97-2.41-1.92-1.84-3.23l5.79-11.26c3.8-2.43,9.37-6.09,12.39-9.43.63-.7,2.57-3.54,2.39-4.3l-2.87-1.46c1.72-1.47,3.79-2.65,5.52-4.07,2.27-1.86,5.12-4.26,7.19-6.23,1.93-1.84,6.73-7.1,5.95-9.81-.29-1.01-2.02-.55-1.89-.99.45-1.43,3.58-4.08,4.27-5.82-.97-2.12,1.08-4.26,1.75-6.4.86-2.72,1.31-5.81,1.18-8.65-1.47-.3-2.18.93-2.88,1.92-1.22.5-1.25,2.56-2.88,2.4.3-2.37-.4-5.01-2.41-6.46-.76-.55-1.81-.63-2.38-1.48-.18-.68,3.98-7.18,4.78-8.13,1.22-1.45,3.74-3.08,4.24-4.87.15-.55.01-1.2.19-1.73.67-2.04,1.96-3.22.79-5.31-1.35-2.41-5.14-2.5-7.61-2.71-.11-2.31.15-4.67.02-6.98-.08-1.52-1.11-3.41-.27-5.03.21-.41,1-.69,1.17-1.24.27-.88-1.15-5.14-1.89-5.71-.58-.45-1.22.15-.94-1.42.22-1.25.71-1.64-.02-3.12-2.37-.24-4.06,2.08-6.06,3.27-.92.55-5.87,3.02-6.38,2.45-.06-.06-.11-.72-.48-1.19-2.33-2.96-4.91.85-7.69,1.21l-.96-2.88c0-.16,0-.32,0-.48-1.22-1.07-1.43,1.11-2.88.96h-.48c-2.36,2.18-2.4,6.71-4.62,8.09-.56.35-1.57.47-1.62.54l-2.64-4.8c-1.31-.38-2.45,3.24-2.16,4.32-3.63.42-4.24,3.56-6.47,5.28-1.96,1.52-4.52,2.39-6.73,4.3-1.02.88-4.66,5.06-5.3,5.25-1.72.5-1.7-2.24-2.84-1.88-1.43.44-1.48,3.59-1.69,3.82-.12.13-1.48-.1-2.09.07-1.8.51-2.43,7.25-3.18,9.05-.4.44-2.05-1.28-2.71-1.39-1.05-.17-3.53,2.46-4.22,3.33-2.16,2.7-4.15,6.24-6.28,9.07-.78,1.04-4.68,6.47-5.01,6.74h.01ZM396.38,209.28c-.73,1.22-6.21,6.01-7.66,7.21-1.76,1.45-4.14,3.21-6.02,4.53-.42.29-2.08,1.52-2.38,1.22-.11-.75.4-1.29.75-1.89.77-1.31,2.13-3.13,3.09-4.35,1.69-2.16,4.15-4.16,5.69-6.54.98-1.52,1.35-4.05,1.98-5.93.43.05.37-.26.48-.48.07-.13-.08-.44,0-.48.19-.09.76.14.92-.03.21-.22.28-1.68.99-2.15.54-.36,1.19-.11,1.45-.22.7,1.33,1.38,2.76,1.46,4.31h.94c-.56,1.37-.92,3.54-1.68,4.8ZM403.34,204.49c-1.72.02-2.42-1.41-3.36-2.4-1.01-1.06-1.73-2.11-3.19-2.81l-.65-.07c.26-1.67-.33-2.76-.47-4.09-.3-2.89-.41-5.62-1.07-8.52-.37-1.61-1.54-3.99-1.77-5.46-.12-.81,1.51-1.98,1.87-1.6.42,5.67,3.83,10.3,6,15.34.61,1.43,2.27,5.3,2.55,6.56.22.98.02,2.05.08,3.04Z"/>
    <path class="a3" d="M414,347.21s0-.02,0-.02c0,0,0,.02,0,.02Z"/>
    <path class="a3" d="M257.06,240.46c-.22,1.56,1.34,3.1,2.88,2.88.54-.5-2.36-3.42-2.88-2.88Z"/>
    <path class="a3" d="M167.86,300.41c.82.2.95-.31,1.44-.72.43-.36,2.82-2.68,2.88-2.88.28-1-1.2-1.04-1.37-1.26-.38-.5-.6-2.99-.55-3.77h-1.44s.02,5,.02,5c-2.35.93-.85,1.64-.98,3.63Z"/>
    <path class="a3" d="M161.14,271.15c.36-.88,1.23-1.33,1.92-1.92-.83-.08-1.75.83-2.19,1.46-.26.38.28.44.27.46Z"/>
    <path class="a3" d="M171.91,309.53c1.55.93,1.4,2.93,1.25,4.57-.16,1.71-1.13,2.95-1.46,4.54l1.92-.48-.48,3.84h2.39c.11-1.99,1.67-4.05,1.92-6,.16-1.23-.14-2.63-.01-3.85.54-5.21,2.3-10.03,1.46-15.09-.18-1.07-.26-2.27-.48-3.36-1.31-.37-.75.59-1.07.85-.77.62-.68-.51-.85,1.55-.13,1.65-.64,3.14-.48,4.8l-1.66-.51c-.44,1.5-.69.79-1.7.99-.63.12-1.07.34-1.66.51l-.26-.98c-1.27-.24-1.34,1.18-2.13,1.93-1.32,1.25-4.56,4.12-6.02,5.01-.5.31-1.31.19-1.69.71-.94,1.29.94,2.79,2.36,2.36.37-.11,2.08-1.9,2.44-2.36.44-.57.56-1.46.97-1.92.48-.54,1.16-.41,1.2-.46.78.35.56,1.94.47,2.63-.15,1.12-1.04,2.8-.96,3.82.1,1.28.92,2.97.5,4.58,1.83-.75,2.07-8.28,4.05-7.66Z"/>
    <path class="a3" d="M211.97,415.02c-.08.06-.62-.04-.94.23-2.3,1.97-4.31,3.18-4.81,6.48l3.69-2.3c.69-.35,2.57-.75,3.02-1.06.06.09.14.17.23.24-.08-.06-.15-.13-.2-.22,0,0,0,0-.01-.01,1.02-.7-.08-2.34-.02-3.34h-.91s-.03-.01-.03-.01h-.01Z"/>
    <path class="a3" d="M219.65,424.62c-.6-1.95-1.38-1.93-2.86-.49.31.01.65-.04.94,0,.03,0,0,.1.1.21-.09-.11-.06-.2-.09-.2h.03s.64.05.64.05l.28.42c.31.03.64-.02.96,0,0,.03.03.06.06.09-.02-.03-.04-.05-.05-.08h0Z"/>
    <path class="a3" d="M178.89,352.2c-1.28-.04-3.17-1.57-4.34-.74-.55.39-2.34,6.49-1.89,6.98.82.2.95-.31,1.44-.72.93-.77,1.72-1.83,2.63-2.65.95-.86,2.55-1.02,2.17-2.87Z"/>
    <path class="a3" d="M299.88,438.54s0,0,0,0c0,0,0,0,0,0Z"/>
    <path class="a3" d="M365.94,425.61v-.03c.83-1.17,2.7-3.22,2.87-4.55.15-1.09-.21-.56-.72-.72-.77-.24-1.38-.84-1.93,0-.57,1.61-6.43,9.1-5.51,10.07l2.38-.95s0-.01,0-.02c.91-.69,2.14-2.82,2.88-3.84l.02.04Z"/>
    <path class="a3" d="M357.86,430.24l1.59-4.66-3.12,2.88c-.05-1.27.38-2.5-.71-3.38-.36-.29-.94-.37-1.12-.58-.2-.24-.03-.7-.11-.82-.18-.25-3.03,1.16-3.51,1.48-1.36.92-5.52,7.34-6.3,9.04-.36.77-.12,1.42-.31,2.09-.25.89-1.87,2.46-2.57,3.19l.24-1.92c-.6.39-1.38.41-1.92.72-.26.15-3.71,4.22-3.83,4.55,0,0,0,0,0,0,0,0,0,0-.01,0-.14.49.09,1.33,0,1.91l1.88-.45.05.92c.23-.01.5.09.71,0,.39-.15,3.89-3.84,4.57-4.55.46-.47.62-1.2,1.17-1.71.44-.41,2.91-1.69,3.11-1.4.08.12-.09.58.12.81.2.23.77.21,1.1.59.41.47.75,1.74,1.5,1.9.79.16,2.83-1.11,3.3-1.89,1.03-1.74,2.24-4.89,3.19-6.9.27-.58.87-.72.89-.77,0,0,0,0,.01,0,.07-.18-.08-.7.09-1.08Z"/>
    <path class="a3" d="M294.09,428.59c-.34-1.39.49-1.82-1.54-1.58.16,3.12.39,6.29.98,9.33-.73,3.01-3.08,5.68-2.9,8.88,0,0,0,0,0,.01,0,0,0,0,0,0,.04.04.12.51.47.7.7.38,2.26,1.48,2.9.99.6-.46.11-1.73,1.63-1.19,1.13.4,3.24,5.14,4.35,5.73.84.44.78-.51.64-1.12-.27-1.16-.96-2.9-1.36-4.15v-.02c-.98-3.1-1.26-4.8-1.92-7.87-.7-3.28-2.45-6.47-3.25-9.71Z"/>
    <path class="a3" d="M263.22,426.69s.05.05.08.08c-.02-.03-.05-.05-.08-.08Z"/>
    <path class="a3" d="M206.22,360.83l-1.22,1.89-.21,2.42c1.33-.66,1.33-3.04,1.44-4.32Z"/>
    <path class="a3" d="M184.42,387.82s-.01,0-.02,0c0,0,.01,0,.02,0Z"/>
    <path class="a3" d="M259.89,434.13s0,.02,0,.02c0,0,0-.02,0-.02Z"/>
    <path class="a3" d="M259.64,434.72s-.02.03-.03.05c.01-.02.02-.03.03-.05Z"/>
    <path class="a3" d="M250.98,436.57c-.06.02-.12.03-.19.04.06-.01.13-.02.19-.04Z"/>
    <path class="a3" d="M258.73,435.51s-.02,0-.02.01c0,0,.02,0,.02-.01Z"/>
    <path class="a3" d="M259.26,435.18s-.03.03-.04.04c.02-.01.03-.03.04-.04Z"/>
  </g>
  <g>
    <path class="cls-2" d="M4.39,13.73v-3.46H1.23v-1.34h3.16v-3.47h1.39v3.47h3.17v1.34h-3.17v3.46h-1.39Z"/>
    <path class="cls-2" d="M14.02,15.76c-.77,0-1.44-.23-1.99-.7-.56-.46-.99-1.14-1.29-2.03-.3-.89-.45-1.98-.45-3.27s.15-2.37.45-3.25c.3-.87.73-1.54,1.29-1.98.56-.45,1.22-.67,1.99-.67s1.42.22,1.97.67c.55.45.98,1.11,1.28,1.98.3.88.45,1.96.45,3.25s-.15,2.38-.45,3.27c-.3.89-.73,1.57-1.28,2.03-.55.46-1.21.7-1.97.7ZM14.02,14.29c.39,0,.73-.15,1.03-.45.3-.3.54-.78.7-1.44.17-.66.25-1.54.25-2.64s-.08-1.97-.25-2.62c-.17-.65-.4-1.11-.7-1.4-.3-.29-.65-.43-1.03-.43s-.73.14-1.03.43c-.3.29-.54.75-.71,1.4-.17.64-.26,1.52-.26,2.62s.09,1.98.26,2.64c.17.66.41,1.14.71,1.44.3.3.65.45,1.03.45Z"/>
    <path class="cls-2" d="M19.78,15.54v-1.52h2.53v-7.87h-2.06v-1.17c.54-.11,1.01-.23,1.42-.38.4-.14.77-.32,1.1-.52h1.36v9.94h2.24v1.52h-6.58Z"/>
  </g>
</svg>