<?xml version="1.0" encoding="UTF-8"?>
<svg class="a3" xmlns="http://www.w3.org/2000/svg" viewBox="0 0 600 500">
  <defs>
    <style>
      .cls-1 {
        fill: none;
      }

      .a3 {
        fill: #a98e6a;
      }

      .cls-3 {
        fill: #c9caca;
      }
    </style>
  </defs>
  <g>
    <path class="cls-3" d="M4.39,13.73v-3.46H1.23v-1.34h3.16v-3.47h1.39v3.47h3.17v1.34h-3.17v3.46h-1.39Z"/>
    <path class="cls-3" d="M14.02,15.76c-.77,0-1.44-.23-1.99-.7-.56-.46-.99-1.14-1.29-2.03-.3-.89-.45-1.98-.45-3.27s.15-2.37.45-3.25c.3-.88.73-1.54,1.29-1.98.56-.45,1.22-.67,1.99-.67s1.42.22,1.97.67c.55.45.98,1.11,1.28,1.98.3.88.45,1.96.45,3.25s-.15,2.38-.45,3.27c-.3.89-.73,1.57-1.28,2.03-.55.46-1.21.7-1.97.7ZM14.02,14.29c.39,0,.73-.15,1.03-.45.3-.3.54-.78.7-1.44.17-.66.25-1.54.25-2.64s-.08-1.97-.25-2.62c-.17-.65-.4-1.11-.7-1.4-.3-.29-.65-.43-1.03-.43s-.73.14-1.03.43c-.3.29-.54.75-.71,1.4s-.26,1.52-.26,2.62.09,1.98.26,2.64.41,1.14.71,1.44c.3.3.65.45,1.03.45Z"/>
    <path class="cls-3" d="M22.64,15.76c-.6,0-1.14-.08-1.6-.22-.46-.15-.87-.35-1.23-.6-.35-.25-.66-.52-.92-.81l.88-1.18c.34.34.74.64,1.17.9s.95.38,1.55.38c.44,0,.82-.07,1.14-.22.32-.15.58-.36.76-.64.18-.28.27-.61.27-.99,0-.43-.1-.79-.3-1.1-.2-.3-.55-.54-1.05-.71s-1.17-.26-2.04-.26v-1.38c.76,0,1.36-.09,1.79-.26.43-.18.75-.41.94-.7.19-.29.29-.62.29-.98,0-.51-.16-.92-.47-1.21s-.75-.44-1.3-.44c-.44,0-.85.1-1.23.31-.38.21-.74.48-1.07.81l-.94-1.15c.46-.42.96-.76,1.5-1.03.54-.27,1.14-.41,1.8-.41s1.3.12,1.83.35c.53.23.95.57,1.25,1.02.3.44.45.98.45,1.61,0,.66-.18,1.21-.54,1.66-.36.44-.84.78-1.45,1.02v.08c.44.11.84.29,1.2.54.36.26.64.58.85.97.21.39.31.85.31,1.37,0,.69-.17,1.29-.52,1.78-.35.49-.82.87-1.4,1.13-.58.26-1.22.39-1.92.39Z"/>
  </g>
  <g>
    <path class="cls-1" d="M256.72,435.52s0,0,0,0c.02-.02.04-.03.07-.06-.03.02-.05.04-.07.06Z"/>
    <path class="a3" d="M289.56,108.1c.14-.34.1-.74.09-1.1.71.31,2.75.04,2.4,1.44-.54-.09-1.08-.45-1.44-.24l2.4,6.48c-1.99.41-2.08-1.52-2.4-2.88-.93.03.07,1.49-1.68.96-.76-.23-.87-1.72-.72-2.4.1-.42,1.12-1.71,1.35-2.26Z"/>
    <path class="a3" d="M412.18,291.58c-.06-.04-.11-.08-.18-.11.06.03.12.07.18.11Z"/>
    <path class="a3" d="M156.1,329.55c1.85.91,2.42-.23,2.11,2.93,1.27.45,2.45.64,3.82.5.41.99-.4,1.67-.48,1.92-.92-.41.17-1.37-1.18-1.45-1.1-.06-2.18.1-3.29-.09-4.22-.71-1.93-6.04-1.77-6.14-.01.96-.29,1.79.79,2.33Z"/>
    <path class="a3" d="M160.35,279.14c-.09.05-.18.05-.24.1.06-.05.15-.05.24-.1Z"/>
    <path class="a3" d="M163.95,280.68s.52-.11.72-.46c.58-1.03-.39-1.78,1.68-1.45-.13,4.63-4.59,13.03-7.67,16.56-.57.65-2.26,1.79-2.41,2.15h-.96c1.44-3.1,6.83-8.03,7.2-10.31.28-1.77.77-4.89,1.44-6.48Z"/>
    <path class="a3" d="M172.1,308.51l1.89,4.02c-.78.77-1.12,1.77-1.67,2.67-.45.73-.62,1.74-1.65,1.47.14-1.71,1.45-3.22,1.48-5.04.02-1.32-2.36-3.25-.04-3.12Z"/>
    <path class="a3" d="M182.18,303.23l.96,2.88c-.94-.26-3.13-3.23-.96-2.88Z"/>
    <path class="a3" d="M159.39,280.2l-.24-.24c.2-.4.74-.52.96-.72v.48c-.17-.03-.56.3-.72.48Z"/>
    <path class="a3" d="M180.98,302.27c.31,0,.31.48,0,.48s-.31-.48,0-.48Z"/>
    <path class="a3" d="M205.69,396.66c-.02-.3-.06-.6,0-.83-.06.22-.03.53,0,.83Z"/>
    <path class="a3" d="M251.72,413.05c.02-.17.06-.33.03-.43.04.09,0,.25-.03.43Z"/>
    <path class="a3" d="M256.55,435.65s.06-.04.12-.09c.02-.01.03-.03.05-.04.03-.02.04-.04.07-.06-.03.02-.05.04-.07.06.51-.41,1.94-1.7,2.24-2.02.71-.74.08-1.59,1.9-1.21.45,1.47-.48,3.18-.48,4.32l-.65.07c-1.24,1.46-3.66.97-3.19-1.03Z"/>
    <path class="a3" d="M293.01,441.41c.7-1.01,1.73-1.42,2.62-2.42.87-.98,2.06-2.7,2.88-3.84.79-1.1,1.8-2.52,2.18-3.82,2.42.03.24,1.61-.23,2.41-.85,1.43-3.36,6.14-4.09,6.71-.07.24.13.77-.02.93-.15.14-2.68.04-3.34.03Z"/>
    <path class="a3" d="M270.94,437.09c-.41-.73,1.34-2.1,2.4-2.4v3.36q1.25-.17,0,0c-1.37.18-1.75.18-2.4-.96Z"/>
    <path class="a3" d="M252.13,413.59c-.12,0-.23-.02-.3-.08.06.06.18.07.3.08Z"/>
    <path class="a3" d="M283.9,436.13c-1.88.13-2.72,1.49-4.55,1.92l.24-3.36c-1.07-.13,0,0,0,0,.4.05.87.52,1.68.52.78,0,1.35-.5,1.68-.52.25-.01.66.39.96.48v.96Z"/>
    <path class="a3" d="M294.62,109.82c-.1.02-1.99-.37-2.07-.43-.11-.09.02-.67-.01-.94.71.16,1.39.35,2.09.56l.31.4h0s-.1.36-.32.41Z"/>
    <path class="a3" d="M162.93,203.46c-.08.03-.22.07-.31.17.09-.1.23-.14.31-.17Z"/>
    <path class="a3" d="M152.43,280.68c-3.1.36-4.88,2.18-8.81,1.37-.7-.15-3.67-1.02-3.78-1.06,0,0,0,0,0,0,0,0,0,0,0,0,1.76.23,3.26-.21,5.05-.88.47-.18.77-.71,1.13-.82.46-.14,3.25.65,4.72.44.24-.03,2.52-.88,2.64-.96,1.75-1.15,3.9-4.86,5.27-6.49,1.85-2.19,3.27-2.65,1.54.58-1.91,3.57-4.5,4.13-6.33,6.38-.77.95.21,1.25-1.44,1.44h0Z"/>
    <path class="a3" d="M166.83,255.73c.19-.08,3.66-.52,4.09-.51.63.02,1.15.16,1.67.51-.23,1.13-.37,2.66-.48,3.84l-.22.49c-.71.46-3.89,2.91-4.1,3.35h-.96c.37-.85,1.29-2.72,1.44-3.36.98.15,1.95-.17,1.92-1.2.01-.81-1.58.2-1.92.24-2.64.31-2.8-.07-2.88-2.4.92.32,1.35-.92,1.44-.96Z"/>
    <path class="a3" d="M195.36,230.33c.47-.04,1.4-.77,1.67-.47.17.19-.06.82.03.93-1.15,2.56-1.14,2.21-2.91.72-.63-.53-1.26.06-.93-1.68.66.18,1.55.56,2.14.5Z"/>
    <path class="a3" d="M184.58,229.83h-3.84v-1.44c1.48.11,3.86-.67,3.84,1.44Z"/>
    <path class="a3" d="M168.26,245.18c-.7-.07-1.27,0-1.94.22-1.18.39-1.59,1.74-2.85,1.7l-.02-5.49c1.12-.39,1.33-.99,1.46-2.19,1.11-.23,1.42,1.12,2.4,1.44-.07-1.73,1.22-3.45,1.43-5.05.1-.77-.14-3.41,0-3.59.53-.63.93-.08.96.71.16,3.98,2.44,3.73,3.28,5.84.15.37,1.06,3.57,1.06,3.77,0,.75-2.65,3.04-1.94,3.59.21.16,1.95-.32,1.93,1.21-.01,1.28-4.47,4.57-5.54,5.5-.64.56-1.23,1.56-1.67,1.93h0c-.4.34-.93.42-1.44.48-.61.07-2.32.33-1.92-.72,1.11-2.93,5.47-5.58,4.79-9.36Z"/>
    <path class="a3" d="M414.65,293.46c.1.07.21.14.32.2.16.09.33.17.5.25-.17-.08-.34-.16-.5-.25-.11-.06-.21-.13-.32-.2Z"/>
    <path class="a3" d="M305.01,274.45c.52.52-.43,1.48-.96.96s.43-1.48.96-.96Z"/>
    <path class="a3" d="M411.3,291.13c.07.03.14.07.21.1.16.07.31.14.46.22-.15-.08-.3-.15-.46-.22-.07-.03-.14-.07-.21-.1Z"/>
    <path class="a3" d="M408.5,290.2c-1.96-.72-3.92-1.56-5.88-2.3-1.92-5.89-4.56-11.54-7.49-16.98-.56-1.03-2.57-3.42-2.3-4.35.49-1.7,3.59-1.5,4.94-.7.3.18,2.16,1.72,2.23,1.85h0c.24.49.96.96.96.96,0,0,3,5.49,4.09,8.15.94,2.28,1.51,4.88,2.38,7.21.75,1.99,2.43,3.86,2.17,6.23-.21-.08-.7.07-1.1-.08Z"/>
    <path class="a3" d="M165.15,219.27c-1.59-.76-.62-4.1,1.2-3.84.17.71-.14,1.32-.24,1.92-.05.35-.05,2.35-.96,1.92Z"/>
    <path class="a3" d="M317.49,282.84c1,.87,1.3,3.11.41,4.01-1.62,1.63-5.14-.45-6.63-1.63-1.73-1.37-2.26-2.22-1.94-4.54.3-.3,7.65,1.71,8.16,2.15Z"/>
    <path class="a3" d="M323.72,313.79h-1.44s0-2.4,0-2.4c1.47-.12,1.57,1.1,1.44,2.4Z"/>
    <path class="a3" d="M218.64,372.8l-1.44,4.8c-2.09.36-.22-2.56.24-3.36.3-.54.46-1.32,1.2-1.44Z"/>
    <path class="a3" d="M325.7,313.61c.17-.6,1.14-.95,1.32-1.56.2-.68-.23-1.72.3-2.1,2.15,1.47.7,2.43.33,4.17l-1.05,7.35c-.65.75-1.27-.78-1.35-1.29-.14-.87-.18-1.94-.11-2.81.06-.75.39-3.17.56-3.76Z"/>
    <path class="a3" d="M439.35,357.93s-.41-.25-.58-.61c-.23-.47-.32-1.27-.38-1.31h0s0,0,0,0l.43-.29c.07-.27.07-.54.07-.81,0-.27-.03-.54-.02-.81,0,0,0,0,0,0s.96,0,.96,0c0,0,0,0,0,0h0c-.01.16-.02.32-.02.48,0,.65.07,1.32.05,1.96-.01.49-.08.96-.26,1.4h-.25q.04.13,0,0Z"/>
    <path class="a3" d="M425.44,371.84c-.43-1.55-1.1-3.55-.98-5.23.02-.24.05-.48.1-.7.13-.55.68-1.04.81-1.59.03-.12.04-.28.05-.47.05-1.36-.34-4.3-.46-5.44h0s0,0,0,0c1.45-1.1,2.56-1.8,4.48-1.36.81.19,1.39.96,2.09,1.26.63.27,1.55.34,2.06.58,1.01.46.94,1.93,2.63,1.92l3.12-1.44h0c.09.09.92-.26.98.27.15,1.2.5,3.4.48,4.73,0,.19-.01.37-.03.52-.13.97-1.86,5.81-2.36,6.67-.07.12-.85.7-.99.77.01.8-.24,1.85-.57,2.56-.31.67-.82.72-.87.8-.07.12.03.58-.23.95-.58.81-2.64,1.68-3.6,1.45-.03,0-.38-.38-.48-.48l-2.4.48.48-2.87c-.81.32-1.29-.44-1.44-.48-.57-.18-1.71-.34-2.4-.48-.28-.06-.65.04-.96,0l.05-2.11.43-.28Z"/>
    <path class="a3" d="M346.06,132.93c-.43-.06-.17-.64-.36-.86-.24-.27-1.2-.34-1.34-.84-.26-.89,2.6-2.99,3.6-3.12,4.14-.54.63,3.09.72,4.8-.54.1-2.05.1-2.61.02Z"/>
    <path class="a3" d="M382.73,154.5s0,0,0,0c0,0,0,0,0,0-.16-.47-.35-1.03-.48-1.44-.02-.07-.03-.3-.03-.52,0-.22.01-.42.03-.43.32-.3.86.76.96-.96.13-2.34.54-.98,1.22-1.89.24-.32,2.04-4.3,2.14-4.82,0-.05.01-.11.01-.17,0-.24-.05-.55-.05-.8,0-.19.02-.35.11-.42.18-.15,1.03.13.97-.45,0-.08-.03-.19-.09-.31-.13-.32-.81-.58-.9-1.03-.01-.05,0-.11,0-.18.06-.45.46-1.32.47-2.2,0-.15,0-.3-.03-.44-.13-.84-1.01-1.2-1-1.98,0-.11.02-.23.06-.36l4.77-5.32c.03-.14.05-.25.05-.33.02-.62-.62-.23-.91-.49-.14-.13-.15-.33-.13-.5,0-.09.02-.17.03-.24,0-.06.01-.1,0-.12.45-.48.74-1.43,1.09-1.82.14-.16.64-.04.74-.17.18-.22.19-1.14.47-1.72.26-.53.88-.99,1-1.4.06-.21.09-.42.1-.64.02-.43-.03-.87-.05-1.3,0-.21,0-.42.02-.63.01-.08.49-.29.51-1.23,0-.13,0-.28-.02-.45-.22-1.86-2.15-4.3-1.94-5.77.11-.72,2.03-3.37,1.97-3.98,0-.04-.01-.08-.04-.1-.58-.55-3.4,1.74-4.56,1.92-.78.12-2.33.41-2.17-.72.09-.64.68-1.75,1.03-2.33,2.35-3.78,2.89-7.72,4.48-11.84,1.16-3.02,3.57-5.72,3.71-9.07.02-.48,0-.97-.09-1.48l-2.4.48c-.05-.1-.08-.21-.09-.33-.09-.79.58-1.76.57-2.06,1.76.39,3.1-1.19,4.06-2.42,2.13-2.73.44-2.05.26-3.34-.14-1,1.3-2.17.96-3.36v-.96c-.24-.28.63-1.41-1.92-.96.01,0,.02-.03.01-.07,0-.07-.02-.18-.02-.28,0-.05,0-.1,0-.13h0s0,0,0,0c.01-.07.02-.15.01-.23,0-.09,0-.17-.01-.25h0c-.18-2.99-2.52-2.49-4.8-1.91-.5.13-1.3.32-1.92.48-.9.24-1.9.97-2.88.96-.65,0-1.14-.44-1.68-.47-2.82-.18-6.81.65-9.35,1.91-.7.35-1.94,1.37-2.89,1.92-4.1,2.42-7.44,5.66-11.01,8.8-4.19,3.7-6.52,8.56-10.1,12.78-.05.06-.1.11-.17.17.06-.06.12-.12.17-.17.79.37.52,1.9.48,2.64-.18,3.22-1.88,5.05-3.13,7.91-.77,1.76-1.25,3.97-2.05,5.63-1.37,2.83-4.3,5.03-3.46,8.77.98.29,1.28-1.06,2.09-.92.78.13,3.37,1.87,3.6,2.66.31,1.06-.1,2.61.06,3.78.12.88,1.01,1.72.91,2.33-.13.76-2.09,3.05-2.83,3.19.14,2.5,2.17.67,2.4.96-.29,2.52,2.89,2.39,4.81,3.11.72.27,1.15.87,1.76,1.12,2.34.95,5.81.76,8.46,2.1,1.68.85,2.45,2.56,5.12,1.83.21.95-.57,1.71-.51,2.62.06.78.76,1.45.99,2.17h0s0,.01,0,.02c0,0,0-.01,0-.02,0,0,0,.01,0,.02.01.06.02.13.02.2,0,.03,0,.05,0,.08,0,.08-.02.16-.03.25,0,.07-.01.13-.02.19,0,.01,0,.03,0,.05,0,0,0,0,0,0,0,0,0,0,0,0,0,.07,0,.13.04.16.14.15,2.22-.07,2.87,0,0,0,0,0,0,0,.72.09.11.65,1.92,0,.48-.17,2.25.74,2.38,1.22.04.14.05.27.05.39-.03.85-1.02,1.22-1.02,1.97,0,0,0,0,0,0,0,0,0,0,0,0,0,.92.8,1.29.99,1.68.09.19-.06.67,0,.96,1.03.12,1.07.04.96-.96h1.92c-.08.7.26,1.29.96,1.44ZM381.89,135.08c-.12,1.65-1.69,1.94-1.97,2.92-.06.23-.07.48-.07.74,0,.26.03.53.03.79,0,.52-.06,1-.49,1.3l-2.4-.25c.07-.15-.02-.66,0-.95.17-2.53.11-5.97,1.06-8.3.23-.56.83-.83.89-1.54,0,0,0,0,0,0,0,0,0,0,0,0,0,0,0,0,0,0,0-.11,0-.23-.02-.35-.13-1.16-1.26-2.6-1.42-3.86.02-.1.05-.19.1-.28l3.63,1.92.36.81s0,.01,0,.02c.08.31,1.44,3.6,1.62,3.65l-2.39.24c-.03.12-.05.22-.05.31,0,.66.78.89.94,1.44.16.55.21,1,.18,1.38Z"/>
    <path class="a3" d="M371.69,147.37c0,.07-.01.13-.02.19,0-.06,0-.12.02-.19Z"/>
    <path class="a3" d="M371.72,147.04s0,.05,0,.07c0-.03,0-.05,0-.07Z"/>
    <path class="a3" d="M429.27,400.15c1.46.04,1.62-1.69,2.22-3-.54.86-.35-2.16-.28-2.98.2-2.35-1.05-3.89-.98-4.58.1-1.08.94-1.89.99-3.39,0-.22,0-.44-.03-.69-.26-2.1-1.25-2.32-2.17-3.61-.28-.4-.19-.92-.23-.95-.15-.15-2.25.13-2.88,0-.54-.11-.81-.75-1.92-.96v-.96c-1.6.43-2.88-.64-4.19-.89-.52-.1-.57.41-.61.41-.48.03-2.33-.1-2.4,0-.02.03-.03.07-.03.12,0,.1.02.23.03.37.01.34-.08.68-.96.48-.45-.62-.57-1.2-1.44-.96,0,.14-.01.26,0,.37,0,1.7.81,1.07,1.4,1.6.07.07.11,1.04.09,1.56,0,.17-.02.29-.04.3-.16.13-1.43-.09-1.92,0-2.67.48-5.19.23-8.16,0-.31-.02-.68.06-.96,0l-.3.43c-.38.12-.76.05-1.14.05-1.19.01-1.38-.08-1.39-.27,0-.06.01-.14.01-.22,0-.11-.01-.24-.12-.39-.17-.23-.72.01-.9-.07-1.54.38-3.02-.39-4.32-.48,0,0,0,0,0,0,0,0,0,0,0,0-2.03-.14-5.01.52-6.39.39-.37-.04-1.46-.71-1.76-.38-.32.34-1.24,3.58-1.69,4.31-1.07,1.76-5.06.78-6.95.48v-.96s-.69.03-.69.03l-.27.45c-1.11-.18-3.29-.52-4.32-.48-.06-.46.08-1.02,0-1.44h.48s1.44,0,1.44,0c0-.08-.01-.16,0-.24.2-1.07-.48-.69-1.44-.72h-.48c.07-.26-.05-.66,0-.96.13-.17-.13-1.31,0-1.44.68-.69,4.34,1.94,5.03,1.94.91,0,1.51-.94,1.68-.99.61-.17,1.69.12,2.56-.08,1.1-.24,2.36-1.59,3.02-1.77,1.21-.34,3.33-.23,4.66-.62.76-.23,1.26-1.05,2.71-1.36.15-.03.33.03.48,0,.28-.06.65.05.96,0,.83-.13,1.69-.36,2.88-.48.04.34.06.67.05.99-.03.97-.28,1.87-.53,2.84h0s0,0,0,0h2.4s0,0,0,0h0c-.6-1.44-.08-2.47-.48-3.83.03-.01.08-.36.31-.42.47-.12.89.4,1.12.42-.01.07-.01.15-.01.24,0,.17.04.35.04.51,0,.08,0,.15-.03.21h0s0,0,0,0l.43.28.05,2.12h.96c.11-.52,2.6-1.18,3.36-1.44.03-.01.05-.38.29-.42.57-.11,1.66.94,2.59-.06h0s0,0,0,0v-.95c1.73.23,2.83-.3,4.32-.48.47-2.81,1.81-1.34,3.1-1.41,2.78-.15,4.21-4.82,4.12-7.44,0-.18-.02-.35-.04-.5-.18-1.42-1.27-2.72-1.43-4.09-2.89.61-2.07-1.68-3.11-2.88-.26-.3-2.72-2.05-3.1-2.18-2.02-.67-2.83.89-3.58.72-.7-.16-1.08-1.72-2.69-1.89,0,0-2-1.04-3.84-.48-.14-.03-.32,0-.48,0-.02-.27-.47-.43-.48-.48v.48c-.07.03-.23.43-.59.59-.59.26-1.29.32-1.8.62-1.6.93-2.42,3.07-3.36,4.55,0,0,0,0,0,0,0,0,0,.01,0,.02-.38-.08-.99,0-1.44,0-1.28,0-1.98.43-2.4.48-1.7.2-2.65-.25-4.09-.47-.74-.11-1.51.08-2.31-.09-2.12-.45-5.53-4.15-6.33-6.14-1.15-2.84-.39-5.59-.71-8.4-.12-1.03-.82-2.35-.94-3.38-.46-4.02-.18-11.99,2.63-15.1,2.44-2.69,2.67-2.75,3.68-6.4.58-2.09,4.07-3.93,4.64-5.91.21-.74.21-3.89.08-4.74-.1-.67-.59-.98-.88-1.54-.16-.3,0-.83-.15-1.03-.13-.17-1.8-.47-2.34-.78-.43-.24-.71-.84-1.27-1.13-1.93-1.02-5.45-2.6-7.62-2.5-.62.03-3.26.43-3.77.57-.49.14-.9.94-1.59,1.29-1.74.89-4.21.26-5.91,1.77-.64.57-.67,1.96-1.92,1.68l.03-2.61-1.01-.53c.87-1.8-.96-4.3-.96-5.26,0-.85,2.42-2.29-.91-3.38-3.83-1.25-5.71-1.81-9.12-4.31-4.96-3.64-17.4-17.1-18.25-23.01-.07-.5-.36-3.2.72-2.64.66.35,2.5,3.62,3.2,4.48,1.48,1.82,2.04-.27,1.85-1.84-.28-2.34-4.93-7.17-6.48-9.37-.4-.57-.62-1.66-.8-1.84-1.34-1.33-5.48.77-6.9-2.93-.63-1.64-2.29-5.65-2.53-7.07-.24-1.42.09-2.87-.1-4.22-.79-5.64-2.73-11.84-5.02-17.05-.97-2.21-2.72-6.9-4.97-7.26l-2.51-4.69-1.4-.03.96,4.32c-1.69-.06-2.46-1.92-4.32-1.44-.18.85.09,1.08.47,1.69,1.36,2.14,5.06,5.08,5.68,7.28.17.59.67,3.31.55,3.73-.31,1.09-2.24.62-2.37.76-.27.29.55,1.73-.73,1.43-.92-1.75-3.04-3.64-3.83-5.28-2.67-5.52-7.32-9.42-11.29-14.14-2.77-3.3-5.23-6.9-8.15-10.09-.19-1.12.5-.65,1.21-.7.92-.07,3.31-.35,3.55-1.25.09-.34.1-1.59.03-1.64-.22-.17-4.45-.85-5.39-1.09-.56-.14-1.91-.18-1.8-.83,1.21.05,3.33,0,4.33-.71.89-.63.86-2.52.97-2.63.11-.11,1.07.04,1.57-.11,1.39-.41,3.12-1.45,3.23-3.05.11-1.56-.66-2.89-2.2-1.68-2.65,2.09-9.04.43-12.34-.59-2.55-.79-2.67-1.45-2.76-4.2.6-.58,9.34,2.07,10.04-1.26.02-.08-.36-1.62-.45-1.62h-7.44c-.11,0-1.83-.78-1.94-.94-.86-1.22.28-1.93.66-2.77.16-.36,0-.95.11-1.08.24-.31,2.42.56,2.38-.49-.85.08-1.54-.74-2.23-.89-.8-.17-1.67.08-2.32-.08-3.25-.79-6.3-2.06-9.35-3.37v-1.42c.86-.02,1.75.02,2.63,0,.58-.01,1.79.36,1.68-.48-2.26-.18-5.8.05-4.32-2.88-2.56-.46-4.35-.74-3.84-3.84.79.39,1.56.81,2.41.25l5.49-5.06c2.54-1.41,5.36-4.19,8.26-4.7,1.7-.3,3.55.63,3.53-1.78-.01-1.72-1.7-2.97-3.38-2.63.98-2.09-.33-3.3-2.56-2.8-.77.17-3.82,2.27-4.15,1.84.23-1.88-2-2.25-1.44-4.32-.84-.28-1.66.34-2.24.39-.58.04-1.1-.53-1.77-.35-.46.12-.82.87-1.27,1.16-1.65,1.02-4.66,2.36-5.67,3.92-.13.2,0,.48-.07.65.91,0,1.71,3.08,1.43,3.35-.14.13-.74-.09-.95,0-.09.04-.99,1.33-.99,1.68,0,.82,1.95,2.54,1.42,4.25-1.85,3.33-5.02,6.26-6.76,9.57-1.43,2.74-2.18,6.17-3.27,8.97-.42,1.08-1.71,3.15-1.92,3.84-2.61-.24-2.12,2.07-2.41,3.58-.27,1.43-1.66,8.74-.95,9.37.18.16,1.62-.22,1.88.04.74.74-.28,1.71,2.44.91.85,4.66,3.23,8.76,5.28,12.95.98.21-.06-2,1.2-1.44.99.44.52,1.83.93,2.43.13.19,3.07,1.69,3.88,2.36,1.74,1.44,2.86,3.32,4.29,4.82.73.76,2.27,1.38,2.65,2.15.47.94-.78.71-1.2.72-3.19.05-6.12-.17-5.52,4.08.29,2.05,1.93,2.53,3.7,3.02,3.05.83,8.43,2.2,11.4,2.01,1.33-.09,1.35-.97,3.12.26,2.47,1.72,5.82,5.8,7.44,8.4,1.84,2.96,1.67,6.04,2.16,9.35.22,1.49-.68,2.78,1.63,2.09.87-.26,2.19-3.13,3.1.37.34,1.31.25,1.24-.54,1.71-2.24,1.32.81,2.19,2.24,1.76.97-.29,1.4-2.11,2.69-1.86.18,1.46,2.16,2.99,1.87,4.48-.17.85-1.39,2.35-1.39,3.44,0,.97,2.23,4.81,1.92,5.04h-1.44c.05.39-.08,1.36,0,1.43.48.39,2.21.62,2.89.26.26-.13,3.94-3.83,4.07-4.08,1.05-2.02.23-4.95,1.65-6.98,1.28-1.84,1.55-.92,2.87-.43,2.57.96,1.4-1.88,2.18-3.17,1.26-2.09,2.54,1.23,2.67,2.63.21,2.27-.32,6.07-1.92,7.72-2.47,2.55-1.54,1.62-2.99,4.68-.46.96-2.54,4.01-2.3,4.89.12.45,1.8,1.08,2.24,1.12.82.07,2.16-.97,2.74-.84.63.14,1.85,2.2,3.15,2.63,1.34.44,2.82-.1,3.87.44.83.42,1.15,1.91,1.68,2.64.86,1.19,2.88,2.28,4.32,2.42.88.09,2.47-.63,2.63-.49,1.4,1.29-4.46,2.55-5.28,1.92-.32,1.41,1.11,2.52,1.36,3.68.82,3.72-1.45,8.31-1.83,11.93-.25,2.35,1.11,3.88,2.88,5.26,2.43,1.89,5.11,3.97,7.69,5.75,2.3,1.59,9.02,4.66,9.52,7.29.35,1.83-2.83,3.23-3.29,2.56-.09-.13.06-.73-.08-1.1-.24-.6-4.49-3.05-4.72-2.73-.15,1.75-1.48,2.77-.96,4.8.91.29,1.12-.72,1.74-.9,2.58-.76,2.28,2.37,2.12,4.04-.41,4.24-4.21,7.76-3.86,12.21.71-.12.94-.87,1.21-1.43,1.23-2.6,1.57-4.67,3.36-7.19,1.18-1.66,2.64-2.02,3.05.32.17.96-.97,2.17-.19,3.03l5.99-9.84c1.61-2.37,4.01-.71,3.15,1.71-1.77,3.29-3.92,6.41-5.64,9.72-.9,1.74-3.5,6.64-3.75,8.25-.04.28-.13.79.24.72,1.85-1.42,2.86-4.02,4.87-5.21,3.09-1.83,2.01.65.88,2.32-1.27,1.88-3.41,3.91-4.77,5.79-1.86,2.57-4.49,5.95-4.58,9.1-2.01-.78-3.41-.54-4.81,1.19-1.97,2.43.06,3.13.05,5.29,0,.87-1.08,3.94-.49,4.53.15.15,1.59.3,1.84.58.2.22-.02.7.05.89.01.04.3.08.38.35.12.38.56,2.1.53,2.22-.08.37-.71.65-.84,1.09-.21.69.07,2.44-.07,2.57-.82.83-3.94-2.37-3.36-2.88.74-.03,3.26-1.16,3.3-1.69.01-.15-.42-.2-.42-.23-1.5-.27-4.62,1.99-5.77,1.21-.89-.6-.33-3.18-.48-4.32-.05-.38-.84-3-.95-3.13-.63-.71-4.31,2.74-5.76,1.92-.19-.89.49-1.14.96-1.68,2.05-2.33,3.58-2.62,2.88-6.48l-4.08,3.36-.73-.73c2.07-6.12,4.8-12.28,5.76-18.71.14-.91-.07-1.91.02-2.86.12-1.19,1.24-4.44,0-5.29-1.89-1.28-1.31,2.96-1.44,3.12-1.11-.6-2.02-1.18-3.36-.96-.47,1.8-.22,3.83-.47,5.55-.08.58-.48.65-.49.69h-.48c.25-1.09.04-3.45-.72-4.32-.8-.92-2.52-.88-2.62-.98-.19-.18.06-3.49-1.94-4.54-.53-.28-1.32-.17-1.42-.25-.36-.29.59-6.37-.58-7.57-.17-.18-.76-.2-1.12-.54-.59-.55-1.08-1.17-1.7-1.7-.27-.23-.77-.18-.89-.29-.2-.18.01-3.22-.05-4.02-.26-3.03-.71-6-.49-9.15.04-.6.67-1.97.48-2.11-.15-.11-.63.18-.95-.31-.74-1.12-.42-3.86-1.49-5.16l-1.85-1.75c.28,2.78,1.57,5.66,1.91,8.41.11.94.45,2.55-.95,2.15-.09-1.1-.38-2.32-.71-3.37-.76-2.46-2.59-5.88-3.06-7.98-.68-3.03.4-6.09-1.99-9.05-.77-.96-1.85-1.1-1.93-1.19l-.68-.05-.28-.43s.03-.07.05-.14c-.02.08-.04.14-.05.14-.99.25-2.2.04-3.35.72-.43.26-2.33,2.22-2.4,2.64-.18.98.06,4.79-1.68,4.8-.39,0-.31-1.69-.26-2.18.1-.95.49-1.62.5-2.62,0-.5.04-.99-.21-1.45l-1.22-1.9c.02,1.05-.57,2.54-1.21,3.35-.56.71-2.03,1.25-2.13,1.73-.08.41.44.9.45,1.4,0,.49-.44.96-.46,1.45-.05,1,.39,4.19-.73,4.54-1.25.39-1.28-2.52-2.15-3.12-.62-.43-1.3,0-1.44.49-.49,1.61,1.17,1.14,1.69,2.15,1.01,1.96-.52,7.99-1.31,10.23-1.08,3.04-1.87,2.48-4.39,3.77-.45.23-.77.76-1.03.89-1.44.69,0-2.31.12-2.76.34-1.25,2.08-7.73,1.56-8.28-2.48.85-5.06,1.17-7.68,1.44l2.88-4.32-5.76,1.92c-.29-.29.35-2.03.71-2.41.44-.47,1.06-.39,1.18-.49.47-.41-.89-1.95-.24-2.87.37-.52,3.57-1.78,3.63-2.14.07-.48.22-1.07-.3-1.19-1.17-.28-2.32-.65-3.54-.49.03-.8-.02-1.6,0-2.4,1.19.43.83-.64,1.43-1.2,1.17-1.1,3.61-1.95,5.06-3.11,1.37-1.1,3.27-2.98,3.11-4.81-2.36.45-.95-.97-1.65-1.95-.33-.46-1.11-.36-1.23-.45-.47-.34.83-.63,1.22-.94.75-.6,3.47-4.14,2.62-4.82-.97.33-1.96-.49-2.65-.5-.73,0-1.03.86-1.9.99-2.23.33-5.13-.26-7.45-.01l5.59-3.76c2.1-.67,1.66-.96,2.09-2.47.09-.33.98-1.09.42-2.1l-3.3-3.17c2.94-.06,6.78-.86,9.3-2.46.83-.53.72-.71.79-1.61.09-1.2.2-1.56-.97-.73-1.84,2.04-7.55,3.59-10.34,3.38-1.5-.11-6.08-1.44-7.56-2.03-.7-.28-1.23-1-1.77-1.35-.11-.07-.58.05-.95-.23-.99-.75-3.43-3.85-4.15-4.05-.72-.21-2.21.83-2.57.45-.07-.08-.56-1.82-.47-2.13.2-.68,1.39-.58,1.45-1.02.09-.64.08-2.2-.09-2.78-.14-.48-.74-.72-.88-1.05-.39-.95.72-.56,1.2-1.18.28-.36.18-.92.23-.96,0-.32.01-.64,0-.96-1.18.08-2.47-.13-3.63,0-.59.06-.65.48-.69.49l.44.27c.56.98-.42,2.01-.44,2.13h-.48c.03-.15-.02-.32,0-.48.09-.59-.06-1.3,0-1.92-.4.08-1.21-.15-1.41.04-.17.16.06.73-.03.92-.04.08-.74.35-.96.48.01-.16-.01-.32,0-.48.1-1.18.84-2.44.48-3.84,1.02-.22,1.58.17,2.4.48.41.15.41.59,1.71.51.99-.06,1.11-.49,1.17-.51.25-1.21.25-3.03.96-3.84l2.54.37,5.62-1.57-6.48-.24c-.71-.18-1.52.91-1.68.96-.48.14-2.47.09-2.88.48l-1.92-1.92-.48,2.88-.96-1.92c-.33-.36-1.78,2.24-1.84,2.71-.08.62.87,1.25-.06,1.86-.29.19-1.83.69-2.19.72-.9.07-2.4-.83-2.65-1.61-.43-1.3-1.1.31-1.41.87-.42.75-.38,1.46-1.44,1.2-.36-1.64,1.21-2.02,1.83-3.21.25-.49.5-1.49.57-2.07.11-.9-.08-1.95,0-2.88.28.06,1.34.06,1.42-.02.19-.19-.38-1.95.74-1.42.65.31,1.06,2.1,1.96,2.36.62.18,1.48-.14,1.64-.7.35-1.3-2.73-4.76-3.58-6.01-.25-.37-.22-.88-.27-.93-.2-.23-1.97,1.11-2.38-.25-.67-2.2,1.83-.81,2.65-.73,2.13.22,3.46.2,3.11-2.39,1.49.4,3.71.72,4.57-.95.6-1.16-.48-5.06-1.5-5.27-.41-.09-2.15.73-3.71.38-1.27-.28-1.78-1.6-2.96-1.84-.49-.01-.17,1.41-.24,1.92-2.32,0-2.68-2.41-4.32-3.36-.06,1.51.07,3.05,0,4.56-.05.93.06.76-.96.72-.8-1.79-1.29-3.67-1.93-5.51-.18-.53-.22-1.13-.95-1.21l-1.04,7.36c-1.51,2.39-.59,5.44-1.44,8.16-.15.49-.78.71-.9,1.5-.14.95.22,4.8.01,5.05-.54.64-.92.07-.96-.72-.07-1.35.01-2.73,0-4.08-.02-3.25.56-6.3.48-9.36-.03-.94.51-1.68-.72-1.68-.54,0-.08,2.96-.25,3.59-.87,2.35-.35,4.97-.47,7.45-.18,3.75-.74,7.49-.5,11.3.07,1.17.8,2.27.5,3.58l-1.92-2.4c-.02.88.03,1.76,0,2.65-.05,1.52.16,1.24-1.44,1.19.29,2.97.3,4.59.87,7.53.42,2.16.63,4.45,1.05,6.62l-.96.48c-.28-.19-.96-2.89-.95-3.36.01-.48.5-.95.42-1.38-.09-.46-1.31-1.17-.91-2.22-1.61-.34-.78,1.17-.95,2.19-.1.59-.48.65-.49.69-.2.79.3,4.94.47,6.01.38,2.41-.3,1.34-1.6,1.74-2.45.75-.69,5.01-.79,6.89-.05.93.07.76-.96.72-.22-3.06-3.05-10.99-.48-13.2,1.2-1.03,2.93-.01,2.4-2.15-1.2-3.4-1.61-7.84-3.11-11.04-.43-.93-1.5-1.76-1.63-2.21-.25-.84-.19-4.66-.05-5.69.05-.38.85-3,.95-3.13,1.02-1.18,1.49,1.77,1.42,2.63-.19,2.36.2,3.07.49,5.3.05.38-.22,4.03.97,2.63.16-.19.07-4.28.02-5.06-.11-1.87-.24-5.03-.49-6.71-.12-.81-.76-1.03-.9-1.49-.19-.62.29-4.27.49-4.44.19-.16.84.13.91-.32.24-1.69.3-3.46.55-5.15.07-.46.29-2.15,1.1-1.78,1.49.7.31,2.24.25,3.13-.34,5.29-.42,10.5.09,15.72l1.34,2.74c-.25-3.07-.27-6.06-.48-9.12-.14-2.04-.14-2.28,0-4.32.24-3.54-.08-7.01.96-10.56,1.02-.04.91-.22.96.72.09,1.83-.07,3.69,0,5.52h1.44c-.07-1.45.58-7.8,1.45-8.41.93-.65,1.85-3.36,2.31-4.86.55-1.75-.06-6.06,2.47-4.48.23-.26-.22-3.54.06-4.5.22-.75,3.13-2.81,1.4-3.91-.69-.44-1.58.06-1.93-.46l5.05-3.59c1.94-7.92,4.07-15.83,7.43-23.28.75-5.45-2.58-5.3-4.32-1.2h-.7c-.61-.97-2-1.1-2.67-1.67-.33-.28-.66-2.07-1.42-1.21-.1.11.14,1.99-.71,2.9-.38.4-1.02.39-1.14.54-.26.33.05,1.24-.06,1.37v2.4s-.96,0-.96,0c-.11.81-.37,1.48-.48,2.4-.05.4.09,1.34,0,1.44-.09.1-.74-.1-.96,0-.71.33-2.01,4.06-4.32,4.32.06,1.32-.38,2.88-1.02,4.02-.5.9-1.09,1.78-1.62,2.7-.44.76-1.42.88-1.92,1.44-.86.98-.92,3.76-.73,5.05.12.83,2.24,3.18.25,4.07-.99.44-.52-.92-.97-.98-.6-.09-2.72.21-3.1.51-.05.04-.05,1.31.06,1.38.23.15.93-.14.93.3-.65,2.49-1.3,3.77-3.39,1.43l-1.91-3.13,2.4.48c.12-.87.27-2.27.57-3.03.59-1.48,2.53-2.46,2.31-4.17-1.19,1.03-3.88,2.85-5.45,2.34-.33-.11-.69-.57-1.1-.82-.23-.14-.56-.02-.65-.09,0,0,0,0,0,0,0,0,0,0,0,0-.95-.75-.87-2.3-.96-2.4-.17-.18-1.12.5-1.06-1.26,0-.25.04-.56.09-.92.09-.59.48-.65.49-.69.02-.11.03-.23.02-.36,0-.25-.05-.54-.03-.82,0-.14.03-.28.07-.42.22-.69,2.24-2.11,2.39-3.23.02-.16,0-.31-.06-.46-.01-.03-.39.1-.48-.26-.02-.07-.03-.14-.03-.2.02-.41.49-.46.51-.5,1.37-3.63,2.8-9.39,3.37-13.19.16-1.06.96-4.2.99-5.55,0-.19,0-.35-.04-.46,0-.03-.37.11-.48-.27-.02-.06-.02-.12-.02-.17.02-.37.49-.47.5-.51.22-1.4.3-2.79.34-4.17.04-1.38.02-2.75.04-4.12.01-.91.04-1.83.1-2.75.01-.21.41-.68.47-1.19.08-.69-.11-2.99.01-3.12.25-.28,1.23.22,1.39.77.36,1.2.16,7.39.07,9.09-.12,2.16-.85,4.98-1,7.16-.12,1.66.66,3.03.52,4.84-.49,6.2-3.57,12.91-4.33,19.18l.47,4.55c1.6.44,2.16-.75,3.34-1.22,1.16-.47,1.88-.23,3.15-1.17,1.27-.93,4.94-6.26,4.55-7.69-.66-2.38,1.89-7.13,2.65-10.06,1.34-5.13.2-8.03.2-12.73,0-1.14.48-1.89.53-2.86.29-6.23.24-17.12-1.53-22.98-.29-.95-2.37-1.9-2.73-3.5-.36-1.62.52-2.73.35-3.67-.38-2.07-3.35-6.01-5.54-6.49-.69-.15-2.4.04-2.54-.1-.16-.16-1.02-3.37-1.37-4.15-.47-1.05-1.92-3.87-2.71-4.49-.59-.47-1.27-.38-1.72-.68-.59-.4-1.52-2.73-2.69-3.07-2.45-.72-2.58.55-4.02,1.86,0,0,0,0,0,0-.03-.29-.03-.58-.03-.87,0-.29.01-.58.02-.87.02-.59.02-1.17-.08-1.76-.36-2.09-2.84-7.02-4.22-8.74-.58-.72-3.28-2.9-3.37-3.11,0,0,0,0,0,0-.13-.35.09-1.39-.07-2.08-.31-1.31-1.86-1.75.08-2.72-4.32-4.98-9.35-11.14-14.62-15.36-.64-.51-3.07-1.66-3.13-1.91-.32,0-.64,0-.96,0,0,0,0,0,0,0-.81,0-1.65.16-2.41-.23-.92-.46-3.48-3.45-4.8-4.32-6.45-4.26-19.49-6.18-25.67-.74-.74.66-1.29,1.95-1.65,2.19-.88.61-3.46-.35-3.86.94-.03.1-.04.18-.04.26.01.56.75.77,1.22.96,1.75.71,5.77,1.33,7.7,1.42.58.03,1.05.24.99.58-.02.11-.11.24-.27.37-.09.07-1.71.04-2.15-.01-2.01-.23-5.35-1.61-7.19-1.44-1.63.15-2.46.59-2.51,1.29-.04.54.39,1.23,1.28,2.07-.75-.26-1.6.54-2.09.43-.3-.06-1.07-.87-1.73-1.16-.75-.33-2.78-.61-2.89-.71-.06-.05-.08-.14-.08-.23.01-.3.26-.74.59-.95.62-.4.97-.2,1.01-.79.01-.2-.01-.48-.08-.91-1.13-.28-2.11.52-3.12.52-1.92,0-4.42-1.82-6.49-.77-.23.12-1.33,1.28-1.39,1.51,0,.01,0,.03,0,.06.01.36.44,2.3.45,2.51,0,0,0,.02,0,.01-.37-.48-1.37.78-1.75.89-1.61.48-4.56-.58-5.94.77-.39.39-.46.77-.47,1.16,0,.2.01.39.02.59,0,.2-.01.4-.07.6-.2.73-1.34.76-1.66,1.22-.12.18-.17.4-.19.64-.02.23,0,.48,0,.71,0,.47-.05.89-.5,1.08,0,0,0,0,0,0,0,0,0,0,0,0h0c1.16.34,5.73,3.1,6.24,2.88,0,0,0,0,0,0l.7.48.26-.48s0,0,0,0c1.6.44,2.68.17,2.6,1.69-.02.35-.1.8-.26,1.37-.16.6-.85.69-.9.77,0,0,0,0,0,0l-2.16-2.88c-1.3-.39-1.36,2.92-2.88,2.9-1.83-.02-3.42-4.92-4.56-6.26h-4.32c-.06.06-.64-.16-.88.08-.25.25-.01.71-.08.88l.42.28.06.68c.1.09.55,1.97.48,2.4-.16,0-.32.02-.48,0-.98-.14-1.9-.35-2.88-.48-1.9-.25-3.7-.78-5.76-.48-.08.08-1.07-.19-1.94.7-2.16,2.22-.17,3.33,1.77,4.5,2.97,1.79,6.38,2.93,8.8,5.59.17,1.51-1.09.23-1.68.22-1.73-.02-1.1,1.96-.62,3.04.68,1.52,3.43,5.16,3.87,5.77.19.27.71,1.58.77,2.06.32,2.77-.2.73-1.05,1.53-.45.42.55,2.35.06,3.5-.95-1.47-2.62-2.69-3.28-3.14-.73-.51-1.46-.86-2.38-.73-.88.88,4.39,11.23,5.04,12.95.95,2.49.27,2.29.23,4.09-.03,1.32,2.55,2.93-.48,2.64-.84.58,1.96,5.07,2.48,5.92,1.85,3.06,4.69,6.48,6.27,9.57,1.51,2.95,2.91,9.05,4.47,11.37.66.99,2.04,1.89,2.85,2.91,1.47,1.85,2.51,4.26,3.88,6.2,2.64,3.73,6.62,8.03,10.05,11.07,1.59,1.41,5.09,3.47,6.25,4.79.79.9.52,2.32.93,2.91.41.6,1.34.3,1.64.52.61.46,4.57,7.44,4.87,8.56.41,1.57-.03,2.62.06,3.05.04.21.41.27.42.31.62-.41,1.33-2.18,1.44-2.88.07-.47.11-2.79,0-2.88.3.05.73-.08.96,0,.82.29,3.59,2.05,4.3,2.65.73.63.78,1.26,1.1,1.57.15.15.58.04.73.18.58.53,2.06,4.7,2.03,5.67-.04,1.09-.47.9-.48.96-.05.28,0,.65,0,.96.01,1.15.01,1.97,1.44,1.92-.01.46.08,1.04,0,1.44l1.92-.48c-.05.56.1,1.18.01,1.71-.11.64-.48.65-.49.69-.33,1.14-1.42,3.77-1.45,4.59-.02.61.48.65.49.69h1.44c.37-.97,1.77-1.59,1.92-2.4.25-1.33-.73-2.2,1.2-1.92.43.06.5,1.43.72,1.92.79,1.81.95,1.39.96,3.84,0,.64,0,1.28,0,1.92.24.32-.75,2.02,1.44,1.44.06-.02-.04-.73.96-.48.03.31-.05.67,0,.96.16.84.83,2.94,1.92,2.4l.32.41-.32-.41c.06-.03-.03-.73.96-.48.03.31-.05.67,0,.96.16.82,1.42,4.07,1.92,4.32.21.11.85-.11.96,0s-.11.86,0,.96c.28.27,2.24.91,2.88.96.63.05,1.29-.04,1.92,0v.96c.95.11,1.89.52,2.64.52.3,0,2.53-.44,2.63-.53.19-.17-.27-1.7.23-2.41.34-.5,2.28-1.27,2.93-1.87.68-.64.63-1.41.7-1.46.07-1.37,0-3.11-.72-4.31-.48-.8-1.78-1.56-2.38-2.42-1.46-2.05-2.76-5.5-4.17-7.83-2.67-4.41-8.42-12.65-11.92-16.15-.96-.96-3.17-1.63-3.77-3.67l-.07-.65c1.51.68,2.44,1.57,3.71,2.77.54.51.9.61,1.09,1.55,1.55.16,2.88,1.48,3.85,2.63,4.15,4.97,7.4,12.2,11.5,16.81,1.5,1.69,2.9,2.31,4.55,4.08,1.11,1.19,1.34.62,2.17,2.38h0c.15.32.47.45.48.48h1.44c.34-1.79.69-2.76.96-4.8.13-.98.41-1.89.48-2.88h.48c.36,1.03.42,1.82.48,2.88.07,1.19.05,2.39.02,3.59-.02.6-.03,1.2-.04,1.8,0,.6,0,1.2.02,1.8-.7.8-1.36,2.28-1.92,3.36-.19.37.48,1.24-.96.96-.59,1.55-2.81,1.34-2.4,3.36,2.1.82,1.18.21,2.73-.39.59-.23,1.4-.05,2.07-.57.1,1.95-.59,3.85-.96,5.76-.03.15.03.32,0,.47-.02.11-.03.23-.03.36,0,.12,0,.26.01.39,0,0,0,.01,0,.02,0,.13,0,.26,0,.39,0,.14-.03.28-.06.43-.34,1.34-1.74,1.91-1.87,3.13-.02.17-.01.36.03.57.26-.07.66.05.96,0,.04.1.73.16.03.73l-3.39,1.19c-.12.25-3.98,2.79-4.32,2.88l.32.39c1.13-.06,1.19.65,1.6,1.05.25.24.54.68.96.48l-.03.68.3.31c1.03-.07,2.07.03,3.09-.02-.21.48,1.31,2.34,1.44,2.4.29.12,1.02-.08,1.44,0-.04.94-1.14.78-1.44.96-.75.46,0,2.06-2.88,2.4l-.48.96c1.39.09,3.48.26,4.8.48,1.02.17.9.47.96.48.61.11,3.04.25,3.35.5.07.06.07,1.76-.03,1.86-.24.21-1.26.21-1.65.99-.28.56-.53,2.5-.71,3.37-.06.29.09.86,0,.96-.06.06-.67,0-.96,0-2.37.09-1.55.18-2.88.96-.31.18-1.08-.28-1.44-.48h-.48c.02-.36.09-.53.48-.48,1.18-1.75.16-3.49-1.92-3.36,1.64-3.7-2.88-2.55-4.35-3.57-1.07-.74.74-.88-2.36-1.23-.66-.07-1.3-.16-1.44-.96h1.44c.1-.4.86-1.56.47-1.91-.09-.08-2.04-.85-2.23-.89-.83-.18-2.92-.48-3.77-.55-1.46-.12-5.08-.43-5.76.94-.28.56-.14,1.17-.32,1.6-.28.66-.59.84-.87,1.77-.6,2.01-.74,4.03-.98,6.03-.12.98.46,1.06.5,1.17,2.28-.5,1.61.56,2.39,1.2.8.66,2.06.56,1.22,2.18-.89,1.7-3.35,1.36-5.03,2.16-1.79.86-9.07,6.8-9.87,8.36-.52,1.01-.06,2.12-.2,3.1-.03.2-1.39.78-1.94,3.15,1.81-1.39,2.13.64.48,1.44.11.1-.08,1.47,0,1.92,1.76.28,1.16-.21,1.68-.96.24-.35.68-.42.72-.48.36-.54.5-1.08,1.2-1.95.71-.88-.33-.87,1.68-.93.64-.02,1.28.01,1.92,0,.2.19-1.54,4.66-.96,5.28.05.06.39-.05.63.08.22.12.3.39.33.4h0c.55.12,1.32-.08,1.92,0l.02,1.66-1.01.52v3.31c1.77.41.78,2.65.99,4.33.23,1.75,1.09,3.78,1.43,6.01,1.44.24,1.01-.64.86-1.58-.38-2.35-1.15-4.64-.86-7.06.6-.07.84,1.08,1.05,1.59,1.3,3.11,2.24,3.45,3.5,5.61.5.86.43,2.19,1.44,2.87l-.25-4.07c-.22-.83-1.2-5.23-.95-5.53.65-.79,1.07.54,1.19.95.42,1.43.78,2.9,1.2,4.33.63-1.06,2.76-.86,2.87-.96.09-.08-.06-1.17.02-1.66.07-.48.46-.97.4-1.39-.15-1.03-1.76-4.14-2.23-5.45-.4-1.13-.83-2.32-1.06-3.5.82-.17,2.41,1.92,2.65,2.39.4.77.21,1.6.23,2.41.56.14,1.16-.52,1.61-.43.21.04.28.42.31.43v.96s.24,0,.24,0h.24s0-.96,0-.96c.65.04,2.66-.14,2.83.04.32.35.72,2.02,1.77,2.32,1.11.32,1.33-.68,1.93-.87,2.35-.74,2.37,1.76,3.12,3,2.98,4.94,1.86,3.58,2.35,9.17.36,4.07,2.35,9.94,4.06,13.69.58,1.27,1.79,2.6,2.16,3.59.43,1.13-1.49.69-2.16.72-.69.03-.85-.18-.73.73.22,1.56,4.26,9.87,3.85,10.31-.38.41-1.38-.56-1.67-.97-1.43-2.01-3.08-6.51-3.99-8.97-1.76-4.76-2.69-10.44-4.81-14.87-1.19-2.49-2.22-2.16-3.47-3.73-.42-.52-.41-1.14-.46-1.21-.44-.59-1.49.41-.89,1.13l6.16,15.67c-1.5.25-1.01-.01-1.53-.62-.64-.75-1.25-1.89-1.82-2.5-.95-1.01-2.12-1.57-3.14-2.62-.51-.52-.82-1.48-1.17-1.71-.48-.31-1.3-.13-1.43-.24-.16-.14.33-1.91-.75-2.37-.92-.39-.78,1.17-1.44,1.44-.91,1.7,1.18,2.94.72,4.8l-2.4-.48-.48,3.36c-.75.14-1.03-.19-1.38-.78-.57-.96-.99-2.5-1.59-3.69-.39-.77-.13-1.55-1.34-1.29-.05.59-.67,1.2-.48,2.4h0c.03.17.91-.06,0,.96-.92,1.02-.16,1.79-.71,2.89-.57,1.14-2.77,1.11-3.11,1.45-.54.54.42,3.61.48,4.51.09,1.58.15,5.29-.72,6.52-.28.4-5,1.99-5.09,2.65-.18,1.43-.2,3.03-.46,4.52,3.24.61,3.66-1.13,5.27-3.14.31-.38.89-.58.97-.69.06-.08-.03-.57.23-.95.83-1.22,1.84-.34.73.95-.01-.02-.06-.02-.14-.02.07,0,.12,0,.14.02.13.17-.43,1.5,1.17.93.72-.26,1.1-1.69,2.19-1.41-.14,2.1,2.88,3.25.47,5.03-1.54,1.13-4.54.54-4.74.8-.51.65-.87,1.44-1.97,2.09-.95.56-2.14.08-1.93,1.93.18,1.62,1.62,1.64,2.9,1.67.55.01,1.1.04,1.65-.01l3.63-.71c-.56,1.97-3.92,1.75-5.28,2.16-.33.1-4.02,2.74-3.36,3.36,2.21.02,6.82.09,8.65-1.19.55-.39,2.18-3.1,2.86-3.86.87-.98,1.92-1.3,2.36-1.71.21-.19-.05-1.93.05-2.59.05-.36.42-2.07.49-2.15.09-.09,1.79,0,2.56-.48.37-.23.46-.77.75-1.21.12-.19.46-.17.5-.25.71-1.29.43-3.35.48-4.8,2.53-.3,1.1.78.97,2.17-.08.87.05,1.76,0,2.63-.14,2.26-2.73,11.13-4.39,12.4-.29.22-1.09-.08-1.62.54-.27.32-2.56,4.66-2.62,5.05-.08.51-.33,2.67.72,2.16.89-.44,1.9-2.71,2.63-3.61.55-.67,1.36-1.24,1.95-1.9.71-.79.1-1.57,1.9-1.21.4.4-1.18,5.03-1.54,5.9-.37.91-1.71,2.62-1.83,3.45-.61,4.1.82,7.48,1.45,11.29h.96c-.63-3.82,1.45-12.06,2.49-15.99.46-1.72,2.07-2.61,2.33-.58.46,3.63-.7,7.22-.49,10.81,2.79-3.47,2.86-3.5,3.85-7.9.63-2.8,1.39-5.59,1.9-8.41l.98,2.18-2.92,13.15c-2.74-.18-1.5.13-1.96,1.63-.29.94-1.3.67-1.37,2.71.73-.52,1.52-.55,2.4-.48.02.31-.03.65,0,.96.03.31-.05.66,0,.96,0,.05.38.12.4.33.13,1.19.17,3.33-.11,4.85.14.34.24.69.31,1.04,1.74-.37,1.5.98,1.31,2.65-.07.56-.41,1.04-.47,1.68h.96c.23-.6,1.4-2.23,1.93-2.63,1.34-1.01,3.42-.36,4.08-1.68.52-1.05.21-4.3.23-5.77.05-3.27-.04-6.56,0-9.84.8-1.09,1.69-5.77,2.38-6.25.38-.26,1.34-.34,1.45-.22.97.98-2.11,8.24-2.39,9.84-.26,1.47-.44,3.85,0,5.03.14-.64.6-.95,1.2-.96.51,0,.1.58.24.96.24.63.82,1.18.95,2.17.08.62-.11,2.52,0,2.63.12.12,1.83-.08,2.4,0-.28-1.56,1.41-1.43.9.17-.07.21-.4.26-.42.31-.23.81.52,1.74.52,2.64,0,1.48-.76,3.01-.52,5.04.02.17.37,1.39.49,2.15.09.53.48,1.02.49,1.46.02.92-.9,1.22-1.46,1.67h0c-2.27,1.81-1.04,1.77-1.45,4.07-.15.84-.72,5.36-.95,5.53h.48c.23-.86,1.18-2.1,1.44-2.88.13-.38-.06-1.17.22-1.94.3-.84.85-2.49,1.7-2.86-.06,1,.14,2.06-.07,3.04-.13.6-.78,1.19-.88,1.76-.13.71.09,1.64,0,2.4,3.86-.56,1.66,1.01,2.62,2.42.37.55,1.1.51,1.7.46,0-.48,0-.96,0-1.44h.96c-.12.39-.46,1.25-.48,1.44h0c-.16,1.48,1.33,4.26,2.67,4.77,1.84.71,1.05-1.62,1.17-2.85.14-1.39.86-1.24.96-1.44.09-.17-.05-1.97.96-.96.08.08.04,1.91,0,2.4-.02.31.07.71,0,.96h.96c.26-.56,3.29-1.97,3.84-1.44.69,2.38-4.01,3.73-4.27,4.6-.28.94.07,1.94.44,2.79.21.49.7.37,1.2.29.34-.05.26-.79.71-1.21.85-.79,4.24-2.57,4.59-3.1.44-.67.9-3.78,1.18-4.82,1.84-.4,1.16.61,1.72.98.61.4,1.43.38,2.11.46.4.05,1.34-.09,1.44,0,.1.09-.11.85,0,.96.18.18,1.94-.55,2.18-.94.79-1.24.73-5.23,1.25-6.9.18-.57.64-.82.89-1.93.13-.55,1.38-.36,1.43-.31.48.48-1.53,6.51-1.47,7.92.1,2.19,2.41,2.57,2.45,2.91.28,2.1-.04,4.87-.5,6.92h.96c.4-1.18,1.25-2.21,1.4-2.71.22-.74-.93-2.51-.39-3.01.19-.18.81.05.91-.03.15-.13-.28-.84.24-.96.87-.2.78.17.72.96,1.23-.34,1.09-1.92,1.55-2.31.17-.14.64-.02.75-.15.19-.25.08-.9.32-1.37.28-.53,1.17-.89,1.21-.96.11-.22-.11-.82,0-.96.61-.73,1.03.14.96.96-.04.46-.38,2.77-.48,2.88-.16.17-1.38-.45-.96.96h1.44c.39,3.22,1.48,6.08.39,9.26-.61,1.78-2.14,2.74-.87,5.13,1.33-.23,2.96-1.41,3.28-2.71.1-.4.14-1.56.07-1.6-.12-.08-.69.15-.9-.04-.26-.24.04-1.78-.06-2.36,1.18.22,1.09,1.77,1.44,2.4.05.09.65.2.96.96h1.92c.53,1.31-.89,1.76-.96,1.92-.19.44.13,1.76,0,2.4,4,.31,5.4-4.31,6.97-7.2.19-.34.69-.44.7-.48.19-.45-.23-1.75.96-1.92v1.92c.18.24-.56,1.37,1.14.9.31-.08,3.02-1.31,3.14-1.44.19-.2-.03-.71.04-.9.27-.67.99-1.49,1.68-1.44.71-.01-.1,1.01-.24,1.44-.58,1.78-1.82,4.53-2.62,6.26-1.06,2.3-3.17,5.42-3.88,7.64-.23.72-.24,1.21-.22,1.94h.96c.63-1.65,4.82-4.32,5.28-5.28.11-.22-.11-.82,0-.96.44-.53,1.38.31.96.96.36-.03.7.03,1.1-.08,3.62-.99,7.38-9.11,10.41-11.44l-.48-.24.24-.25c.6-.27.55.34.72.48.66.58.91.59,1.92.48.26.22-1.23,3.04-1.52,3.52-1.51,2.52-7.49,10.63-9.52,12.31-.4.33-2.2.8-2.64,1.92-.17,1.95-2.12,3.74-2.17,5.51-.03,1.22.6.65,1.45.73-.11-1.37.21-2.96.86-4.18.74-1.39,2.39-1.99,2.5-3.49,1.26-.11,3.03-1.48,3.84-2.4h0c2.36-2.66,4.69-7.28,7.18-9.85.64-.66,1.61-.9,2.18-1.66l-1.45,3.35c-2.02,2.07-4.12,4.4-5.62,6.87-.67,1.11.17,1.17-1.33,1.3v2.88s2.39-.01,2.39-.01c-.18-2.01,1.52-3.21,2.35-4.61.42-.71,1.36-3.24,1.6-3.46.25-.23.78,0,.87-.07.1-.08.37-1.9,1.44-1.92-.05.56.1,1.18,0,1.71-.1.58-.48.65-.49.69-.13,1.29-.06,2.99,0,4.32h.96c.22-1.54.32-.61.84-1.05,1.01-.87,2.59-4.51,4.43-5.43,1.84-.92,2.41.03,1.87,1.87-.13.43-2.08,2.57-2.56,3.2-.26.34-.65,1.38-.74,1.42v.48c.41-.1,1.03.12,1.59-.07.45-.15.72-.7,1.11-.82,2.57-.78,3.48,1.77,5.93,1.37.07.56,0,.93-.24,1.44-1.71,3.65-4.92,6.86-5.04,11.03h.48s4.73-6.54,4.73-6.54c1.98-3.42,4.15-6.72,6.23-10.08.29-.47.52-1.52.59-1.57.17-.15,1.05.03,1.55-.12,1.21-.37,2.09-1.31,3.69-.88.11,1.6-1.1,2.89-1.69,4.31-.96,2.34-1.92,4.77-2.63,7.2,1.08.27,1.14-.73,1.64-1.48.48-.72,1.19-1.48,1.24-2.36,1.45-.33.81.89,1.18,1.94.53,1.51,1.01,1.69,2.34.87,2.26-1.4,2.02-3.94,4.15-5.2l.48,3.36c-.09.06-2.84-.06-1.44.96.11.08.73-.05,1.21.47,2.65,2.9-1.72,3.93-2.89,5.77-.4.63,0,1.33.49,1.44.89.22,9.11-5.29,10.64-6.15.54-.3.93-.69,1.59-.56.47.46-2.26,4.47-2.65,5.27-.65,1.35-1.46,3.32-1.67,4.81.59-.14,1.06-.78,1.37-1.27,2.12-3.28,3.84-7.59,6.08-10.72.26-.37,1.73-1.94,2.15-1.45.69,3.23-.76,4.06-2.01,6.38-1.54,2.86-4.1,10.02-5.66,11.85v.48c-.03.68.13,1.44-.07,2.09-.19.63-1.16.83-.89,1.75,2.16.3,1.11-.38,1.51-1.6.19-.58,1-1.25,1.37-1.76.39-.54.27-.44.48-.96.14-.34.13-.34.48-.48.03-.31-.05-.66,0-.96h1.92c-.03.16.03.33,0,.48-.03.14-.01.33,0,.48.06.75-.27,1.17.72.96.48-.1.15-.46.24-.96.13-.67.45-.43.96-.48.02-.32-.03-.64,0-.96.07-.85,1.59-6.29,1.92-6.72.72-.93.87.42,1.04.63,1.67,2.08,1.24,1.8,1.36,4.41.04.94-.06.75.96.72l3.36-14.4c.75-.09,1.38.68,2.13.47.86-.24.33-1.86,1.71-1.43v4.07c.57,1.97.64,3.92,1.35,5.87.2.56.53,1.34,1.05.62.08-.11.47-2.22.5-2.62.16-1.94-.44-3.23-.52-4.8-.05-.85-.19-5.35.02-5.53.11-.1,1.1.09,1.61-.07.65-.2.96-1.14,1.56-1.32.72-.21,2.34-.16,2.58.67.27.9-2.2,2-2.4,3.35-.18,1.22.79.46,1.47.94.6.42.08,1.75,1.6,1.18,1.58-.59,4.69-4.03,6.28-5.24.61-.47.88-.59,1.69-.47.14,1.82-.87,3.45-1.32,5.15-.54,2.04-.58,3.44-1.56,5.4l.43.28.05,2.12c.35.35,2.81-1.75,2.88-1.92h1.44c.04-.07.83-.6,1.28-1.02-.45.42-1.24.95-1.28,1.02h-1.44c.1-.22-.04-.89.22-1.45,1.19-2.52,2.37-6.09,3.68-8.33.73-1.24,2.31-2.38,3.78-2.22-.67,2.21-.75,4.49.01,6.7.64.28,3.53-.71,3.77-1,.4-.51.49-3.85,1.78-4.22.32-.09,1.53-.12,1.64-.04.59.41-1.97.56-.96,1.44.09.08,1.72.05,2.1-.06.46-.13,2.15-1.82,3.01-2.27,1.89-.98,3.11-1.34,5.11-.45,1.07.47,2.04,1.71,2.72,2.07,1.43.74,7.37-1.02,9.38-1.2,1.64-.15,4.34.33,5.69-.07.54-.16.8-.87,1.26-1.14,1.47-.86,6.11-1.12,4.57-4.1-.62-1.2-4.43-2.08-5.8-2.37-1.18-.24-1.33.49-1.17-1.46,1.64,1.19,2.03-.22,3.34-.74.77-.3,3.99-.85,4.29-1.23.05-.07.31-1.32.42-1.74.24-.92-.38-1.83,1.07-1.57.52,1.16.96.69,1.44.96.63.35,1.18,3.91.96,4.8,1.94-.59,3.93-.74,5.91-1.04.22-.03.29-.4.33-.4.45-.06.97.04,1.44,0,.56-.05,2.28.12,2.38-.02.08-.1-.03-.89.25-1.42.71-1.35,2.53-2.3,4.08-1.92-.09-.22.07-.67,0-.96-.33-1.46-.1-.9,0-2.17.12-1.59-.22-4.15.49-4.55,1.6-.91,2.88,2.4,2.88,2.4h0ZM257.03,175.61c-.43-1.54.67-3.22.5-4.56-.15-1.18-2.76-2.23-.52-3.37,4.05-2.06,2.38,6.73.02,7.93ZM421.56,393.87c.01-.5.47-.59,1.96-.44.06.57-.25,2.02-.58,2.33-.24.23-.8.01-.86.07,0,0,0,0,0,0,0,0,0,0,0,0-.26-.94-.52-1.56-.52-1.95ZM417.28,398.23c.57.09,1.44-.14,1.92,0,.09.03,1.39,1.09,1.44,1.2.52,1.13-1.26.57-1.44.72-.2.16,1.11,2.76.24,2.88-2.39.32-1.86-3.38-2.16-4.8ZM388.49,395.35c1.71-.74,2.94,1.91,3.14,1.94,1.14.16,2.1-.68,3.1-.5.88.15,1.76,1.25,2.4-.48.38.1,1.01-.08,1.58.08,1.03.29,1.86,1.26,3.21.88-.03.16-.05.34-.05.54-.02.59.04,1.33.05,1.86h0c-1.4-.14-3.28,1.07-4.54.98-.49-.04-.96-.44-1.47-.49-1.11-.11-4.73-.05-5.3-.95-.28-.44-.09-1.13-.28-1.39-.3-.4-2.46-.63-1.85-2.47ZM377.46,399.19c2.76-.22,5.68.14,7.93,1.91.57.45,1.32,1.12,1.19,1.93-.31.28-4.59-1.25-5.53-1.43-1.91-.37-3.24.64-3.59-2.41ZM343.8,351.85c-.32,1.8-1.72,4.07-1.85,6.08-1.26.19-2.01-1.62-1.94-2.62.05-.66.71-2.17,1.05-2.83.28-.53,1.42-2.44,2.09-2.23.62.2.76.94.65,1.6ZM338.83,397.75c.7-.2,1.14.86,1.68,1.19.44.27,2.54,1.58,2.69,1.63.82.24,1.83-.21,2.59.28,1.1.7-.1,2.09-.02,2.17.06.06,1.54.49,1.67.49,1.09,0,3.56-.8,4.82-.95,2.12-.26,3,.93,2.63-1.93,1.16.34,2.22-.39,3.13-.47,3.33-.3,7.7.08,11.02.48.31.04,2.08.41,2.17.48.19.15.14,2.09-.76,2.35-2.11.61-7.4-.2-10.06.02-2.48.21-5.55,1.26-8.15,1.45-4.6.34-8.81-.36-12.47-3.34-.81-.66-2.5-3.4-.95-3.85ZM328.18,405.04c-1.63-.71-3.18-.35-3.5-2.73,1.32-1.64,3.62-.35,5.05-.25,1.36.09,5.72-.28,6.43.53.06.07.25,1.49.29,1.88.05.44.51.73-.24,1.21-1.74,1.11-4.98.85-6.87.13-.43-.17-.73-.57-1.16-.76ZM322.07,421.29c1.06-1.85,2.05-4.6,4.53-4.35-.25,3.17-2.16,5.55-5.28,6.24-.11-.75.4-1.28.75-1.89ZM294.93,391.99c.47-.43,11.78,3.23,12.43,2.33.13-.18-.04-.64.09-.82.58-.8,8.49,2.23,10.03,2.34v1.43s-7.67-.48-7.67-.48c-.63.53-.08.93.71.96,1.97.08,3.81.4,5.76.48.77,1.11.05,1.55-.94,1.94-4.38,1.76-8.7,1.02-12.74-1.22l5.28-.24c-.05-.39.09-1.3-.03-1.4-.58-.45-2.41-1.12-3.21-1.36-2.54-.77-6.7-.85-8.75-2.29-.41-.29-1.38-1.3-.97-1.67ZM284.83,396.55c0-.57.8-1.49,1.28-1.63.62-.19,3.96.57,4.76.89.53.22,1.42.46,1.18,1.22-.47,1.52-7.22,2.11-7.22-.48ZM269.02,404.95h-.96c-.17-1.02.03-1,.48-1.44h.48c.07.46-.04.97,0,1.44ZM267.63,410.99c.25-.84,2.95-1.61,3.79-2.21.22.83-.19,1.13-.47,1.69-.32.64-2.38,4.54-2.65,4.55-.89.02-.88-3.32-.67-4.03ZM240.23,345.45c-.04.31-.14.53-.48.48-3.49-4.72-6.84-9.38-9.69-14.54-1.25-2.25-1.68-4.05-3.27-6.09.23,1.48-.25,2.69-.5,4.07-.14.8.32.82-.94.73l-1.44-6.72c.95-.18,1.76.38,2.4.96.96-.74.95-.33.96-1.66.02-1.67-.62-2.94-.48-4.57l1.19.49c2.47,4.51,4.11,9.58,6.55,14.08,1.32,2.44,2.86,4.79,4.16,7.36,1.12,2.21,1.92,2.35,1.53,5.42ZM224.88,336.82c1.21-.12,1.62.76,1.44,1.92-1.21.12-1.62-.76-1.44-1.92ZM256.07,258.13c-.73-.29-1.99-.54-2.88-.96-.44-1.26-.51-2.26-.48-3.6,0-.4-.22-1.67.72-1.2.59.3,1.45,1.6,2.18,2.14,2.48,1.82,5.49,3.23,8.61,3.14-.13,2.46-2.08.81-3.61.49-.58-.12-1.42-.15-2.15-.25-.69-.1-1.97-.78-2.4.24ZM230.16,337.78h.96c1.33,2.44,3.46,5.27,5.06,7.66,2.42,3.62,4.47,7.47,7.41,10.83,3.4,3.89,7.41,6.55,11.52,9.59.27,1.08-1.08.81-1.7.74-2.99-.36-9.2-5.59-11.27-7.93-5.52-6.26-8.84-13.26-11.99-20.88ZM219.2,333.62c-.36-.61-2.29-3.69-1.99-4,.36-.37,1.43.52,1.66.98l13.44,21.1c.45.61,1.58.36,1.96.92.1.14.8,3.26.69,3.39-.59.68-1.27-.83-1.52-1.11-4.78-5.48-10.42-14.88-14.23-21.27ZM212.89,384.31c.26-1.26.23-3.4.54-4.5.16-.58,1.05-.87,1.3-1.58.37-1.02.4-2.21.94-3.38.64-1.39,2.08-2.84,2.57-4.38l2.33-.55c-1.01,4.98-2.74,9.51-6.02,13.41l-1.66.98ZM210.01,312.83c.65-.13,1.08.21,1.46.7,1.18,1.55,1.45,5.59,2,7.59.92,3.35,1.92,6.72,2.89,10.06,1.37,4.71,4.59,11.98,5.15,16.44.21,1.68-.3,2.61-1.37.89-1.74-2.82-2.92-7.06-3.9-10.25-1.54-5.04-2.55-10.18-4.8-14.87-.42-.88-1.32-5.37-1.43-6.49-.13-1.34.07-2.73,0-4.07ZM180.26,329.14c-.71.13-1.27-.07-1.93-.24-.84-.22-1.13-.2-.95-1.2,1.7-.59,3.05-.95,2.88,1.44ZM184.55,320.47l-1.89.03c-.4-.38,2.23-4.97,3.36-3.84.4.41-1.56,2.97-1.47,3.81ZM186.5,285.48c-1.12,1.12-.86-1.12-.96-1.44-.03-.09-.74-.57-.89-1.27-.21-.99-.02-2.05-.07-3.05,2.2-.32,1.18.48,1.44,1.92,0,.04.42.12.49.69.06.53.1,3.03,0,3.15ZM198.49,302.75l.56,1.61,1.36,2.23c-.27-1.79-1.33-8.49.74-9.1,2.37-.7,1.5,3.19,1.67,4.53.36,2.86,1.5,6.86,2.28,9.72.25.92-.39,1.83,1.07,1.56.04.15-.04.33,0,.48.36,1.21.27,2.93.55,4,.14.54.61,1.02.78,1.62.41,1.4,2.72,8.04,2.02,8.77h-1.42c-2.37-5.71-5.56-11.09-7.95-16.78-.77-1.83-2.51-5.66-2.65-7.43-.08-1.04-.18-1.41.98-1.22ZM195.13,282.6c3.84-1.27,3.51,1.8,3.36,4.8-1.12-.18-3.86-4.31-3.36-4.8ZM198.49,275.89v.96h-7.44c-.11,0-1.66-.58-2.17-.72-.42-.12-1.73-.54-.95-1.2.76-.63,3.2.96,3.6.96h6.96ZM204.25,263.41s-.09.32-.34.4c-.57.18-1.1-.13-1.1.32,0,.91.57,1.16,1.44,1.2.32,1.81-1.44,2.46-2.88,2.4-.03-.55.09-1.14,0-1.67-.56-3.14-3.79-1.74-5.52-4.1-.28-.38-.15-.77-.23-.95.45.06,1.03-.09,1.44,0,.04,0,.12.44.69.49.86.07,4.34-.18,4.54.04.37.4.44,2.11,1.96,1.88ZM203.77,222.15s.31-.1.38-.36c.42-1.58.37-3.29,2.5-3-.47,4.09-1.05,8.01-2.78,11.85-1.07,2.36-2.69,4.41-5.37,4.94,3.35-3.23,4.17-9.15,5.28-13.43ZM197.49,160.22c1.9-.43,3.5,4.71,2.93,5.28-.06.06-1.82.27-1.75-.36l-1.18-4.93ZM163.95,106.03c-.29.3-2.73-.62-3.23-.86-1.78-.87-4.25-1.86-2.83-3.72.22-.29.43-.54.64-.75.99-.98,1.93-1.11,3.1-.03,1.78,1.63,1.81,3.08,2.3,5.35ZM151.47,111.79c.21-.26,4.73,3.72,5.29,4.07.33.2,2.25,1.18,2.39,1.21.64.13,2.91.11,3.38-.22.53-.36,1.03-1.57.88-2.2-.25-1.03-.91-.9-1.75-1.48-1.3-.89-2.52-2.47-3.44-3.75-.19-.26,2.73,1.84,5.09,1.15,1.2-.35.93,1.15,1.6,1.7,1.27,1.03,2.79,1.86,3.86,3.11.46.54.41,1.17.46,1.21.1.08.7-.17.88.06.09.12.47,1.89.56,2.34.06.32-.08.78,0,1.18.24,1.26.33,1.91,1.68,1.71.27-.04,1.24-2.66,1.96-2.86.7-.2,1.26.39,1.89.45,2.19.22,3.73-.23,5.7-.86,0,0,0,0,0,0,.09-.03.18-.06.28-.09.1.27.19.55.28.83,0,0,0,0,0,0,.96,2.93,1.51,6.06,2.7,8.89,1.44,3.43,2.45.91,3.9,1.35.48.14.75.96,1.51.94.55-.01,1.04-.65,1.69-.5.09,1.49-.14,3.08.01,4.55.24,2.35,1.64,5.13,1.9,7.22.14,1.09-.12,2.25.02,3.34.1.82,1.01,2.35.9,2.82-.07.3-.61.66-.83,1.13-.18.39-.02,1.01-.08,1.1-.26.35-2.09-.96-2.4.24-.07.29.89,4.8,1.07,5.64.29,1.32,1.31,3.85,1.35,4.91.05,1.47-1.66,1.01-1.92,1.21-.07.05-.08,1.3-.02,1.67.16,1,3.1,4.35,2.41,5.03l-3.84-.48c-.52.48,2.7,3.45,1.7,4.82-.48.67-2.14.57-1.71,2.37l-3.81-.5c.33-3.02-2.79-5.6-3.3-7.97-.2-.95.08-1.93-.09-2.79-.51-2.63-1.43-7.19-2.49-9.51-.56-1.23-1.71-2.46-3.09-2.68-.55-.09-1.7.68-2.1,1.13-.75.83-1.02,3.48-2.12,3.12-4.12-3.25-7.29-6.92-12.99-6.72-1.02.03-1.63.78-2.62.02v1.45c-1.8.31-1.18-.32-1.68-.94-.69-.85-4.69-6.1-4.07-6.74,1.26.05,2.49,1.67,3.67,1.85.48.07,1.3-.51,2.31-.42,2.8.25,6.46,1.7,9.59,1.95,1.93.15,2.98-.73,4.43-1.85.48-.37.86.13.63-1.29-.15-.94-4.13-.62-5.03-.73-3.64-.44-8.72-2.4-11.29-5.03l1.44-.72-.48-1.92c2.57.14,4.93-.45,2.17-2.89-1.72-1.52-3.07-2.48-5.53-4.55l2.4-.72c.1-.58-.05-2.2-.48-2.4-.21-.1-.81.12-.95,0-.96-.85,1.53-2.38,1.81-2.89.63-1.16.54-3.64-.32-4.67-.03-.03-.05-.06-.08-.09-1.91-.72-1.94.92-2.13.95-.26.04-.75.06-.96,0-.7-.21-2.08-5.11-2.16-6.24Z"/>
    <path class="a3" d="M239.98,413.57c.22-.35,1.41-3.28,2.17-2.39.18.22,0,3.64-.22,4.34-.77,2.45-3.81,1.69-3.09-.69.14-.48.86-.8,1.14-1.26Z"/>
    <path class="a3" d="M245.99,402.07c.33.39-.72,1.67-.88,2.24-.19.71-.25,1.56-.47,2.43-.22.87.25,1.29-1.06,1.09-.79-2.38.07-2.91,1.22-4.79.16-.26.4-1.86,1.17-.97Z"/>
    <path class="a3" d="M168.26,313.79c.47,2.05-1.15,4.36-3.36,4.32-.33-.31,1.38-2.41,1.72-2.84.58-.76.5-1.74,1.64-1.47Z"/>
    <path class="a3" d="M249.83,421.26c.5.11,2.74-.33,2.88-.48-.08.07-.5,1.79-.51,2.15-.04,1.06.51,1.78.51,2.41,0,1.24-1.78,3.78-1.44,5.04,0,.01.03.03.06.04-.03-.02-.06-.03-.06-.04l-.96-.48c-.11-.55-.85-.82-.97-1.67-.34-2.36.79-4.61.49-6.96Z"/>
    <path class="a3" d="M410.4,350.67c-.83-.27-4.27-5.73-4.16-7.13.05-.02.09-.36.33-.4.71-.1,1.56-.24,2.26-.04.97.29,3.65,6.19,3.16,7.63-.33-.11-1.04.11-1.6-.07Z"/>
    <path class="a3" d="M234.96,414.06c.23.77,1.06,1.88-.24,2.4-1.07.42-.76-1.39-.72-2.4h.96Z"/>
    <path class="a3" d="M163.89,205.29c.19.07.38.1.54.06-.16.04-.35,0-.54-.06Z"/>
    <path class="a3" d="M341.95,263.68c-.59-1.02-2.99-3.09-3.35-3.86-.4-.84.35-.63.73-.7.59-.1,2.41-.72,2.62-.5.1.1.6,2.15.86,2.74.27.6.87.97,1.05,1.35.4.85-1.57,1.32-1.91.97Z"/>
    <path class="a3" d="M341.47,274.45c-.01.88.02,1.76,0,2.64,0,.41.22,1.67-.72,1.2-1.9-.96-1.54-3.7.72-3.84Z"/>
    <path class="a3" d="M263.74,233.66c-.16,0-.32-.02-.48,0-.16.02-.33-.03-.48,0-.28-1.47,1.24-1.47.96,0Z"/>
    <path class="a3" d="M319.18,213.21c1.51,1.28,4.12,3.81,5.34,5.32.49.61,2.36,3.16,1.76,3.86-2.17-1.13-3.01-4-5.01-5.36-.83-.56-1.73-.56-2.43-1.12-.44-.35-2.4-3.25-2.04-3.59,1.32-.25,1.54.18,2.37.88Z"/>
    <path class="a3" d="M401.7,335.41c-1.12-.06-5.19-2.59-5.5-3.69-.14-.51.61-3.38,1.17-3.54.64-.18.97.73,1.51.89,1.54.46,2.94.48,4.49,1.51-.24.86.85,1.63.96,1.92.12.34.58,2.77.48,2.88-1.26-.73-2.13.08-3.1.03Z"/>
    <path class="a3" d="M295.41,270.37c-.64,1.56-3.03.36-2.88-1.2.68-.21,3.37.01,2.88,1.2Z"/>
    <path class="a3" d="M281.98,251.42c.89-.92.81-3.37,2.6-2.84.85.25,3.25,3.56,3.11,4.45-.13.81-1.19,2.11-2.09,2.24-2.17.32-2.56-.92-4.09-1.45.49-.72.56-1.54.48-2.4Z"/>
    <path class="a3" d="M266.38,232.7c2.39-.08,4.58-.46,6.96-.48.03.31-.04.66,0,.96-2.78.85-5.76.39-8.64.48-.26-1.46.74-.93,1.68-.96Z"/>
    <path class="a3" d="M387.1,229.2c.54-2.42,3.81-5,5.94-6.09.66-1.7,3.85-4.38,4.09-5.98.44-2.9-.74-4.01-3.61-3.61-1.03.15-1.61,1.03-2.64.96-.23-.23,2.05-5.24,2.3-6.1,1.2-4.13-.36-8.29-.85-12.38-.62-5.18.54-9.37-.02-14.37-.13-1.18-2.13-6.23-1.91-6.49.75-.88,1.03.68,1.18.96,2.27,4.14,3.01,8.41,4.66,12.63.34.86,1.21,1.05,1.36,1.28.21.31.82,2.95.95,3.61,1.45,7.09,2.47,15.23,1.44,22.53-.22,1.57-.95,2.78-.95,4.57,0,.32,0,.64,0,.96-.04.02-.12.46-.48.7-3.8,2.55-6.63,6.52-11.03,7.94-.01-.06-.65-.11-.43-1.11Z"/>
    <path class="a3" d="M394.73,320.98c-.21-.93.13-2.69,1.19-2.39.29.08.63.83,1.21.95.4,1.53-1.52,1.1-2.4,1.44Z"/>
    <path class="a3" d="M341.29,130.94c-.34-.11-1.66-1.64-1.73-1.86-.07-.2,0-.66,0-.96,1.27-.12,3.11.21,3.37,1.67.25,1.34-.33,1.57-1.64,1.16Z"/>
    <path class="a3" d="M295.87,273.51c.12.11.36,2.42-.7,1.9-.77-.38-1.42-1.47-1.2-2.4.11-.11,1.82.44,1.9.5Z"/>
  </g>
</svg>