<?xml version="1.0" encoding="UTF-8"?>
<svg id="a3" xmlns="http://www.w3.org/2000/svg" viewBox="0 0 600 500">
  <defs>
    <style>
      .cls-1 {
        fill: none;
      }

      .a3 {
        fill: #a48c67;
      }

      .cls-3 {
        fill: #c9caca;
      }
    </style>
  </defs>
  <g>
    <path class="cls-1" d="M444.62,63.32c-.06-.15-.11-.29-.17-.42,0,0,0,0,0,0,.06.14.11.28.17.43,0,0,0,0,0,0Z"/>
    <path class="cls-1" d="M444.4,62.77c-.05-.11-.09-.22-.14-.32.04.11.09.21.14.33,0,0,0,0,0,0Z"/>
    <path class="a3" d="M293.83,263.08c1.15.09,1.61-.69,2.46-.89,1.74-.42,3.59-.31,5.19-.57,2.65-.43,5.52-2.18,7.91-3.6.62-.37,1.98-2.47,1.93-.23h.48s.27-.02.4-.34c.15-.36,0-.95.1-1.08.17-.22,2.13.18,2.35-.04.46-.48.35-2.34.5-2.86-1.34.63-3.65,1.01-4.79,1.68-1.29.76-2.21,3.07-4.32,2.64-.54-.53,1.46-2.66-.25-2.41-1.92.29-4.24,2.73-5.76,2.9-1.85.21-6.89-1.49-8.87-2.17-.74-.25-1.7-1.14-1.91-1.21-1.51-.5-2.35.31-3.84-1.44l-1.88,2.22c-.11.46.59,1.45.91,1.87,1.2,1.57,7.46,5.38,9.38,5.52Z"/>
    <path class="a3" d="M391.68,258.66c-.24.43.44,1.36.7,1.7.3.38,1.53,1.6,1.94,1.18.68-.69-2.14-2.62-2.64-2.88Z"/>
    <path class="a3" d="M395.69,266.14l-.41-.28c-.06.01-.12.01-.19,0,.06,0,.13.01.19,0-.18.66.3.74.48.96-.08-.08.05-.46-.07-.68Z"/>
    <path class="a3" d="M397.23,267.03c-.53-.22-1.42-.16-1.47-.21.61.74,1.04,1.32,2.15,1.44l.25-.48c.06.03.13.08.2.12-.07-.04-.14-.09-.2-.12-.2-.12-.39-.53-.93-.75Z"/>
    <path class="a3" d="M290.44,229.95c2.86.3,5.89,2.3,8.68,3.33.37.14.94-.08,1.16.02-.25-.82-.94-1.11-1.59-1.53-.86-.57-5.87-3.69-6.32-3.76-.75-.11-3.65-.12-4.12.22-.35.26-.32.89-.54,1.12-.53.56-2.48.96-2.3,2.5.11-.07.55,0,.95-.23,1.57-.92,1.44-1.96,4.08-1.68Z"/>
    <path class="a3" d="M401.04,231.3c-.38,3.94,2.45,1.69,4.8,1.92l-3.03-1.53-1.77-.39Z"/>
    <path class="a3" d="M407.75,189.06c-1.29.13-1.82,1.41-3.36.96-.44,1.35,3.46,2.78,3.84,2.4-.21-1.15-.71-2.15-.48-3.36Z"/>
    <path class="a3" d="M399.6,262.5c.2,1.11,1.52.73,2.16,1.44l.24-.24c-.71-.82-1.22-1.42-2.4-1.2Z"/>
    <path class="a3" d="M311.32,258.74c-1.01.01-3.81.81-3.84,2.16-.01.51,3.2.12,3.84.24.03-.48,0-.96,0-1.44,0-.32,0-.64,0-.96Z"/>
    <path class="a3" d="M148.68,371.46h.96c.07-.29-.09-.77,0-.96h-.96c.09.19-.06.67,0,.96Z"/>
    <polygon class="a3" points="149.63 372.42 148.21 372.42 147.72 374.34 150.12 374.34 149.63 372.42"/>
    <path class="a3" d="M432.15,354.75c-.07-.07-1.14-.68-1.61-1.05-1.72-1.36-1.74.91-1.58,2.06.32,2.28.94,1.47,1.34,1.78l1.92-1.92c-.07-.15.16-.62-.07-.87Z"/>
    <path class="a3" d="M462.42,198.47c-.66,1.11-1.46,4.83-1.78,6.3-.25,1.16-1.52,7.35-1.07,7.81.28.28,1.24-.04,1.67-.49,1.53-1.57,3.5-8.42,4.08-10.81.21-.88-.6-1.94.97-1.66.43.62.69.97,1.18,1.06-.49-.1-.75-.45-1.18-1.07-.26-.37-.47-.98-.74-1.44-.21-.37-.69-.44-.7-.48h0c-.67-.05-2.1.22-2.43.77Z"/>
    <path class="a3" d="M359.78,188.1c-.26,1.32.8,2.11,1.68,2.88.54.47.79,1.15,1.68.96.31-.32-1.83-4.66-3.36-3.84Z"/>
    <path class="a3" d="M360.51,179.45c.85,1.2,2.54,2.45,3.6,3.6,1.66,1.81,1.41,3.3,4.55,3.13.69-.04.86.19.72-.73-.15-1-2.01-5.07-2.66-5.98-.87-1.22-3.54-2.78-3.84-3.36-.37-.73-.03-1.63-.69-2.19-.56-.47-2.57-1.09-3.37-1.19l2.41-1.67,2.39-.97c.15-1.6-1.88-.27-2.55-.33-.41-.04-.88-.41-1.53-.42-2.1-.06-2.28,1.66-2.16,3.4.11,1.6,2.14,5.3,3.13,6.71Z"/>
    <path class="a3" d="M355.48,141.76c.76.51.51,2.1,1.41,2.18.15-1.82-.55-3.92-1.5-5.46-.53-.86-.85-.88-1.86-.78l-.48,3.84c.76.06,1.77-.22,2.42.22Z"/>
    <path class="a3" d="M347.53,142.51c.26.56.5,1.31,1.21,1.43-.37-4.12-1.05-7.97.48-12-1.95-1.54-3.23,1.74-3.83.96-.3-.39-.33-2.53-1.92-.96.12.29-.04,1.18.22,1.94.76,2.2,2.77,6.3,3.85,8.63Z"/>
    <path class="a3" d="M359.54,191.46c-.31,0-.31.48,0,.48s.31-.48,0-.48Z"/>
    <rect class="a3" x="211.02" y="310.81" width="1.02" height=".33" transform="translate(-157.89 240.37) rotate(-44.96)"/>
    <path class="a3" d="M319.96,176.1c1.07.31,1.41-1.14,2.22-1.38.68-.2,2.27.2,2.57-.79.24-.78-.64-1-1.21-1.19-.73-.24-5.29-1.16-5.51-.97.03,1.24,1.2,1.68,1.7,2.86.2.47.26.95.22,1.46Z"/>
    <path class="a3" d="M251.32,258.71c.52-1.5-2.86-4.02-4.68-3.28-.45,2.5,3.44,6.89,4.68,3.28Z"/>
    <path class="a3" d="M179.63,283.62l.24-.24c-.77-.69-.07-1.5-1.44-1.2v.96c.58-.09.86.01,1.2.48Z"/>
    <path class="a3" d="M328.11,166.5l.96,2.4h-4.32c.22.89,1.61,1.45,1.85,2.23.34,1.09-.51,2.29,1.51,1.37,1.53-.7,2.17-2.54,2.86-2.9.65-.33,2.14-.09,2.41-.95.43-1.38-4.42-1.75-5.28-2.16Z"/>
    <path class="a3" d="M330.86,134.24c1.28.54,2.37,1.6,2.92,2.86.15.34,0,.91.13,1.04.15.17,2.61.4,3.82,2.18,1.5,2.22.67,4.73,4.78,4.1.54-.53-1.32-3.72-1.44-4.56-.41-2.9.12-6.2-.48-9.36-.09-.48-.69-.8-.89-1.27l-.07-.65c-.4.02-1.27-.11-1.41.02-.36.34-.01,2.1-1.22,1.91-.29-.04-1.59-.47-1.64-.54-.2-.24.34-1.91-.76-1.4-.98.46-.72,2.85-1.2,3.84-1.5.2-3.13-1.68-4.16-1.87-1.35-.25-4.99,1.49-4.95,3.31,2.5-.43,4.15-.65,6.58.38Z"/>
    <path class="a3" d="M257.83,153.08l3.6-1.22c-2,1.21-2.2,3.26-3.35,4.81-1.9,2.56-5.83,4.57-7.43,6.96-.68,1.02-.5,1.68-.82,2.54-.31.83-2.21,2.47.3,2.22l11.61-9.02c8.06-3.9,16.11-7.99,24.06-12.17,1.8-2.63,1.31-4-1.53-5.18-.52-.22-.33-.93-.29-.96.06-.04.94-.04,1.45-.22,2.63-.95,7.1-3.62,9.82-3.62h10.31c.06-1.13.18-.86-.72-.95-1.5-.14-2.79-.68-4.32-.49-.97-.97.37-.91.97-1.42.68-.59,1.17-1.41,1.97-1.88,1.23-.73,3.59-.64,3.54-2.46l-7.2-3.36c.24,1.9,1.34,2.34-1.32,3.26-.39.13-1.04.06-1.08.1-.07.06-.16.67-.96,1.44-.03.03-.05.08-.07.12-.12.24-.21.66-.69.8-1.28.37-1.55-.43-1.64-.44h0c-1.21-.15-2.61.13-3.84,0-.34,1.2-2.55,1.88-3.63,1.93-.52.02-.64-.47-.69-.49-.24-.08-2.95.65-3.14.94l-.22,3.38-4.81-1.19c-1.1.09-5.29-2.64-5.74-2.17-.97,1,3.3,4.82,3.84,5.76h-3.83s-.02,1.44-.02,1.44l-4.53-.02c-.41,1.94-1.85.26-3.39.04-2.37-.35-1.43.92-1.92.98-.5.05-3.68-1.21-3.09.68.39,1.26,2.65,2.64,3.67,3.53.51.45,1.36.45,1.11,1.53-.92.82-4.35-3.09-5.76-2.4l.48,3.84c-2.58.08-5.4-2.07-7.91-2.41-1-.14-.83.35-.67,1.15.26,1.28.46,1.15,1.38,1.26h0c1.12.13,3.39,1.79,4.32,2.4.45.3,1.7.97,2.16.98Z"/>
    <path class="a3" d="M386.16,339.78c-.05-.05-1.08-.02-1.44,0v.96c.48.02.96,0,1.44,0-.06-.29.09-.87,0-.96Z"/>
    <path class="a3" d="M444.45,62.9c.06.14.11.28.17.42-.06-.15-.11-.29-.17-.42Z"/>
    <path class="a3" d="M444.62,63.33c-.06-.15-.11-.29-.17-.43-.02-.04-.03-.08-.05-.12-.05-.12-.09-.22-.14-.33-.01-.03-.03-.06-.04-.09,0,0,0,0,0-.01h0c-.06-.14.04-.4-.07-.66-.45-1.09-1.94-1.82-2.32-.53-.21.71.8,5.1,1.2,6,.16.35.7.43.71.47h0c2.16-.12,1.56-2.54.88-4.3Z"/>
    <path class="a3" d="M455.73,58.02c.08-.02.54-.89,1.44-.48h.96s0,.96,0,.96c.84,1.23,1.06,3.73,1.44,5.28.1.4-.08,1.02.08,1.59.64,2.37,2.6,4.94,2.8,7.53l.72-2.88c.72.41,1.89,3.63,1.64,3.81-1.31-.22-1.03,1.08-.91,2.18.28,2.54,2.14,9.37,3.09,11.78,1.12,2.82,3.24.56,3.61.95-.56,4.12-.43,8.43-1.51,12.41-4.03,2.13-3.44-1.26-4.7-2.11-.39-.27-1.84-.32-1.94-.22-.16.17-.04,3.82,0,4.55.28,4.07,1.54,8.26.95,12.49-.18,1.3-1.45,3.64-1.82,5.38-.3,1.42-.3,3.28-.6,4.68-.72,3.4-2.03,6.57-3.09,9.86l-1.21.47c.08-3.61.12-7.41-1.54-10.7-2.19-4.33-3.59-2.17-3.25,1.81.05.58.45,1.14.49,1.91.25,4.78-.35,9.19-1.96,13.68h-2.36c-.13-1.41-.31-3.16-1.94-2.14-.14.09-.48.45-.48.48v10.08c0,.32-2.77,5.3-3.19,5.45-.45.16-1.04,0-1.62.3-1.25.63-2.74,3.57-3.24,4.91-1.54,4.11-2.46,8.56-4.16,12.64-.22.52-2.44,4.39-2.65,4.54-1.55,1.13-.81-1.65-.98-2.87-.28-2.03-1.33-4.07-1.93-6h-1.42c-1.55,6.76-2.84,13.64-5.28,20.15-1.6-.19-1.58-1.8-2.82.3-.16.27-.99,1.99-1.02,2.1h-.48c.12.22.11.47.48.48-.22,1.88.23,4.11,0,5.99-.41,3.27-3.8,4.53-6,6.48-2.08,1.84-6.69,6.93-9.18,7.61-.62.17-1.99.38-1.6-.64.45-1.17,1.91-3.34,2.65-4.55.43-.71,1.32-1.17,1.61-2.24.39-1.44-.23-.93-.87-1.39-1.55-1.09-6-4.29-6.74-5.75-.44-.87.77-.82,1.21-.73.99.2,1.61,1.16,3.1,1.45.15.03.33-.03.48,0-.32-.51-.61-1.03-.47-1.65l.47-.27c-.05-.06.05-.6-.22-.96-.71-.93-3.24-1.26-3.13-2.88.44-.41,2.56,1.55,3.21,1.83.31.13,3.13,1.09,2.55-.15-.76-1.63-5.02-2.66-6.7-3.85-.89-.64-3.97-3.34-2.42-4.31,1.68-1.05,4.43,2.05,6.01,2.64.86.33.89-.55.69-1.17-.14-.43-1.22-1.17-1.63-1.73-3.12-4.2-6.08-8.81-7.83-13.76-.84-2.36-2.32-5.27,1.34-5.42.24-1.56-1.97-5.57-1.44-6.72-1.12.29-1.36-1.15-1.69-1.91-1.18-2.7-1.73-6.55-3.17-8.83-.6-.95-2.02-1.22-2.6-.32-.4.62-.33,4.95-.21,6.01.29,2.51,2.07,5.38,2.4,7.68.25,1.71-1.87-.29-2.41.25.03,1.81.77,3.43.48,5.28-.88.2-.94-.27-1.36-.79-1.48-1.82-2.54-4.15-4.14-5.94-.91-1.01-2.16-2.62-3.61-2.39-.45.46,1.02,3.96,1.34,4.65,1.39,2.97,3.67,5.79,5.3,8.62.28.49,1.29,2.32,1.02,2.55-.09.08-.62.03-.94.25-.81.54-.43,1.74-.49,2.65-1.31.06-1.94-1.67-3.19-1.85-.16-.02-2.45.53-2.6.63-.36.25-.31.89-.55,1.12-.29.29-.85.08-1.27.89-.79,1.56,0,3.06-.28,3.53-.66,1.09-2.37.84-2.62,1.72-1.22,4.26,4.87,10.56,7.87,13.17,1.74,1.52,3.24.99,3.15,4.07-.02.8-.04,1.19-.74,1.68-2.3.58-7.65-8.95-8.8-10.88-.73-1.23-1.4-2.68-2.04-3.97-.05-.06-1.35-.08-1.4-.03-.78.78,2.31,3.73,2.81,4.63.91,1.64.91,3.61-1.22,3.96-.68.11-1.12-.31-1.74-.33-.39-.01-2.3-.08-2.42-.05-.36.07-.65.7-1.08.85-1.58.51-3.23-.75-4.47-1.64-.56-.4-3.48-2.78-3.63-3.09-1.06-2.14.27-1.68.69-1.97.74-.51-1.8-3.34-2.28-4.12-.62-.99-1.56-2.33-1.51-3.53l2.9,2.63.46,1.22c.71.15,1.54-.42,1.41-1.17-.26-1.52-4.31-5.49-4.71-7.31-.24-1.07.39-1.9.42-3.04,0-.32,0-.64,0-.96-1.03-.13-1.07-.04-.96.96-1.48-.01-2.19-.12-3.36.96-.07-.06-.58.15-.84-.09-.35-.32-.43-1.5-1.37-1.78-1.33-.39-4.38,1.13-5.79,1.77-.78.35-1.87.41-1.59,1.53-2.19,1.06-3.57,4.3-5.76,4.8.51,1.23-.9,1.79-.96,1.92h-.96c-.02,1.45-.02,2.64.56,4.01l.4.31c-.05.49.12,1.78-.01,1.91-.18.17-3.03.2-3.33,1.23-.51,1.8,1.79,3.04,2.87,4.29.38.44.56,1.04.94,1.46.56.6,3.84,3.97,4.15,4.04.1.02,1.54-.4,1.6-.46.52-.5-.73-3.39-.46-4.3.71-.71,5.78,2.89,6.24,2.4.18-1.08-.77-1.97-.43-3.06.18-.6,2-1.96,2.57-2.72.79-1.04,3.17-5.56,3.91-5.72,1.81-.39,2.76,3.1,2.6,4.53-.18,1.6-2.87,5.54-3.62,7.44-.5,1.27-2.29,6.21-.43,6.71.72.19,1.17-.55,1.64-.22-.86,1.01-2.05,1.87-2.89,2.87-.9,1.08-3.8,6.01-4.3,6.26-1.2.61-5.49-.06-5.77.23.06,1.67-.09,3.36.01,5.03.03.56.46,1.14.49,1.91.11,2.41-.39,13.62-1.53,15.07-.11.13-1.01.27-1.6,1.04-.55.72-1.06,2.69-1.21,2.87-.23.26-1.66-.02-1.87-.76-.51-1.78.69-3.66.44-5.48-2.87-.06-1.57,1.26-1.45,2.65.45,5.15-2.59,2.52-5.75,1.67,0,.09.01.19.03.29-1.1-.46-1.17.07-3.22-.88-.47-.35-.99-.79-1.06-1.15l-2.46-5.45,2.88,1.92c.13-.91-.66-1.43-.88-2.24-.12-.45-.57-2.52-.57-2.81,0-.17.45-1.59.51-1.65.23-.23,2.69.16,2.85-.02.11-.13-.16-2.02.95-3.13,1.04-1.05,2.25-.58,2.39-.73.08-.08.46-1.85.49-2.15.12-1.17-.23-2.76.07-3.77.18-.61,1.15-.95,1.32-1.56.39-1.37-.59-2.51,1.35-3.45.67-.33,2.45-.49,2.55-.57,1.01-.81-1.81-1.38-2.17-1.91-.48-.69-.7-2.31-1.44-3.36-.44-.62-3.01-3.25-3.58-3.62-1.54-.97-.61.84-1.18,1.71-1.04.33-4.03,2.37-4.73,2.29-3.18-.34-1.38.4-2.72,1.3-.41.27-1.05.18-1.47.45-.41.27-.63,1.2-1.17,1.71-.71.68-2.69,1.35-2.68,2.61,1.15,2.64,1.14,5.57,1.46,8.41-3.91-.75-6.31-3.53-9.36-5.75-1.15-1.79-1.93-2.13-3.58-3.14-.39-.24-.65-.8-.96-.96-1.86-.96-4.94.85-6.48-1.2-1.1-1.47-.33-1.55-.26-2.64.1-1.79-.31-3.53,1.69-4.55.94-.48.71.79.72,1.2.01.72-.01,1.45,0,2.16.81-.03,1.64.17,2.41-.23,1.42-.73,4.52-8.98,4.33-10.58-.18-1.54-1.24-.95-2.12-1.25-1.44-.49-.76-2.74-.05-3.77,1.07-1.56,3.23-4.08,4.54-5.54,1.01-1.13,5.49-5.77,6.55-5.95,1.13-.2,2.35,3.65,4.49,2.85.36-2.04.11-4.39,2.88-3.84,0-2.21-2.55-1.24-4.07-1.45-1.65-.23-4.72-1.33-6.19-.89-.61.18-.95,1.15-1.55,1.32-.86.25-2.3-.32-2.84.52-.31.48-.16,1.38-.67,1.73-.61.41-1.74-.05-2.21.67-.33.5-.18,1.72-.96,1.93-1.05.28-3.48-1.38-5.67.07-1.35.89-.96,2.29-1.33,2.75-.45.57-3.99,1.85-4.63,2.6-.17.2-.03.64-.14.77-.19.24-2.36-.03-3.07.06-.81.11-8.38,5.71-9.6,6.71-2.86,2.34-6.33,7.21-8.31,10.4-3.84,6.19-6.69,13.08-7.75,20.33-.64.12-1.73-.05-1.91-.74-.26-.97,2.13-4.86,1.43-6.47-.86.06-2.15-.29-2.66.46-.32.48-2.03,6.62-2.13,7.47-.09.81-.16,2.58.05,3.29.29,1.03,1.89,1.2,1.88,1.53-.36,1.73-1.72,3.56-1.93,5.26-.25,1.95-.24,4.12-.48,6.24-.18,1.58-.36,3.18-.46,4.76,1.24,1.89,2.11-.36,3.57-.24,2.33.2,1.9,4.39,2.23,5.95.22,1.04,1.63,2.11,1.79,3.04.14.82-.42,1.26-.43,1.84-.03,2.03,2.63,3.9,3.61,5.5,1.55,2.52-2.69,1.01-3.13,1.45-.23.23.54,2.97-.74,3.34-.81.24-5.43-1.09-5.97-.46-.1.11.09,1.1-.07,1.61-.18.58-.87.8-1.13,1.27-.32.56-.63,2.31-.72,2.4-.21.21-3.25-1.06-4.07-.99-.78.06-1.02.78-1.51.92-.92.27-3.13-.23-2.55,1.73.21.71,3.36,1.54,3.78,2.94.19.63-.11,1.45-.7,1.62-1.36.39-5.27-2.09-6.63-2.92-.59-.36-1.99-2.09-2.7-1.38-.28.28.86,3.63-1.75,5.21-1.88,1.13-2.51-.04-3.23.12-.41.09-2.78,1.88-3.49,2.28-3.27,1.8-10.16,5.93-13.6,5.35v1.44s-.96,0-.96,0c.1,1.36.18,3.76,0,5.04-.13.9-.95,1.6-.89,2.32.09.96,1.41,2.44,1.33,2.9-.13.77-1.79,2.61-2.29,3.5-.71,1.26-1.99,3.48-2.47,4.72-.23.6.13,1,.71.72.79-.37,1.4-2.15,2.64-1.92.83.91-1.72,4.25-2.39,5.05-3.07,3.64-7.46,5.76-8.16,11.04-.72,5.45,4.4.32,5.27,1.19-.05,1.19.09,2.4,0,3.59-.18,2.14.12,3.16.04,4.82-.04.75-.35,1.94-.5,2.81-.08.45-.82.32-1.22.76-.39.43-.54,1.34-.97,1.92-.8,1.11-6.6,5.16-7.42,4.33-.29-2.48,1.69-4.1,2.87-6.01.36-.89,3.16-1.99,2.89-2.87-.16-.51-.81-.89-1.44-.49-.39.24-2.63,2.47-2.9,2.86-.45.66-.3,2.13-1.18,1.7-.45-.22-1.22-1.66-1.23-2.16,0-.97,1.31-1.24,1.48-2.38.79-5.51-5.2-4.01-8.65-3.13.57-1.48,2.17-2.96,2.4-4.56.29-2.05-1.31-4.44-3.37-3.37-1.48.76-4.03,5.1-5.96,6.52-.81.6-1.49.33-2.19.69-.94.48-1.88,2.31-2.62,3.14-.34.39-1.73,1.89-2.17,1.43-.37-.39,4.73-8.31,5.06-9.58,1.12-3.92-1.45-5.22-2.1-2.1-.27,1.28.46,3.09-1.52,3.04-.38-1.8-2.07-4.12-1.95-5.99.1-1.5,2.33-2.8,1.94-4.57l-3.36.48c-.23-.83.41-1.49.47-2.17.1-1.23-.17-2.57.09-3.75.8-3.64,9.04-11.47,11.66-14.73.42-.53.56-1.32.98-1.9.99-1.37,6.35-4.64,5.96-6.44-.11-.49-1.19-.95-1.37-1.54-.93-3.18,3.34-1.72,3.75-2.16.39-.42.92-2.14,1.96-2.6-.17-.49-1.05-.14-1.6-.31-.44-.14-.68-.69-1.1-.82-.67-.2-1.53.12-2.12-.28-.74-.5-.7-3.35-1.65-3.63-1.84-.53-.82,1.1-1.65,1.7-.63.46-2.25.44-2.92.92-.78.56-2.68,2.77-3.83,3.38-1.75.93-1.12.91-1.88,1.46-1.3.96-3.04-1.27-2.43,2.61-2.78-.56-5.98,1.56-6.24,4.32-.91-.47-3.82-.85-3.36.72.16.54,1.76,1.09,1.44,2.16-1.29.08-2.38-.66-3.61-.95-.54-.13-1.22.1-1.84-.08-.62-.17-.82-1.16-1.74-.89.09,1.89,1.46,3.18.96,5.28-2.27.35-3.61-1.78-5.27-2.88.02,1.85-1.74,1.22-3.06,1.99-1.56.9-2.85,2.73-3.18,4.5-.14.73.15,1.59-.07,2.33-.19.67-1.36,1.19-1.63,1.73-.8,1.57.36,4.1,1.28,5.47,1.01,1.49,3.27,2.26,1.87,4.33-.33.48-1.78.22-.73,1.26.55.23.67-.48.72-.48l.29-.42c.67-.42,1.3-.66,2.11-.54v.96c-.32.01-.64-.02-.96,0l1.17,3.39c5.57,1.46-.95,5.72-.72,8.37.05.59,2.65,4.75,3.15,5.99,1.88,4.62,2.77,8.64,1.58,13.6-.48,1.99-2.66,5-4.25,6.31-2.64,2.18-7.14,3.44-10.53,3.62.1.1.5.89.48.96,4.22,0,7.08.91,7.67,5.53.14,1.08-.6,3.92-.45,4.05.12.11.86.09,1.44.72.71.77.94,2.4,1.9,2.91.51.27,1.32.17,1.41.26.13.12-.06,1.07.1,1.57.2.63,1.21,1.17.9,2.24,1.27.27,2.26-.69,3.51-.41,1,.22,2.51,1.65,2.68,2.64.09.51-1.87,3.73-2.65,3.96-2.51.76-2.36-2.16-3.04-2.62-.46-.31-1.33-.18-1.97-.43-.8-.3-1.29-1.11-2.12-1.24-1.59-.23-2.34.32-2.17,1.94l-1.89-.47c.03,1.5-1.19,1.15-1.95,1.91.06.08-.11.72.07,1.11.33.74,1.23,1.54,1.59,2.27,2.19,4.49.36,9.5-5.02,9.58-.35.76.84,3.04.44,3.33-.12.09-.57-.07-.8.12-.4.35-.3,1.63-1.56,1.35.34.04,2.69.43,3.06.54.61.18.94,1.14,1.56,1.32.66.19,1.52-.13,2.12.28,1.01.68,1.88,4.01,3.55,5.09.87.56,1.5.34,2.19.69,1.16.59,3.51,4.18,4.6,4.51,1.24.38,2.28-.49,2.77-.39.39.08.98,1,1.56,1.34,3,1.78,7.11.73,10.47,1.05l.3-.95c1.85.18,3.52,1.26,5.01,2.35.67.49.91,1.36,1.9,1.46,1.9.2,1.99-.92.43-1.87-1.39-.85-1.9-.03-1.65-2.43-2.85-1.47-7.19-.96-6.21-5.31,3-1.08,4.68,3.59,6.5,4.29,1.84.71,1.04-1.63,1.17-2.85,2.73-.32,4.87,1.83,7.05,2.78,1.82.8,4.18,1.5,6.12,2.04l2.66-.5c-2.97-.85-6.09-2.4-8.8-3.92-1.5-.84-3.75-2.1-5.1-3.06-.41-.29-1.38-1.29-.97-1.67.21-.19,4.61,1.28,5.53,1.43,1.04.17,2.18-.15,3.27.09,1.85.4,4.77,3.13,6.79,3.78,2.06.29,2.03-1.13,2.95-1.4,2.78-.81,3.57.56,5.48,1.6,3.83,2.09,6.12,4.45,9.1,7.69,2.14,2.33,4.14,5.87,6.72,7.68,1.03.72,2.75,1.57,2.39-.47-.66-3.8-8.2-11.2-10.78-14.66-2.51-3.35-.47-2.88,1.91-.95,2.27,1.84,5.13,5.08,7.2,7.2,1.75,1.8,6.2,7.53,7.89,8.42.51.27.9.27,1.45.23.51-1.53-.62-1.92-.96-2.64-.26-.55.17-.97.72-.72,1.15.54,3.87,4.21,5.27,5.29,1.16.9,2.79,1.85,2.1-.66-.28-1.01-3.19-5.22-2.8-5.59l3.82-.02c.11-4.05,3.63-.44,4.75,1.28.82,1.26,1.63,4.96,2.06,5.38.3.3,4.89,2.29,5.2,1.99-.09-1.45-1.38-2.98-1.82-4.18-.31-.85-1.41-4.59-1.46-5.26-.01-.14.34-1.99.41-2.07.12-.15,1.47,0,1.92.23.33.17,3.45,2.54,3.84,2.89.66.61.22,1.43,1.92,1.42l1.91,3.14c.28-2.68,2.58-.74,4.32-.96-.18-2.44-1.17-4.68-1.44-7.2-.12-1.14.54-2.93-.96-2.4,0-.48,0-.96,0-1.44,0-1.47-.53-5.31,1.68-5.31.83,0,3.11,2.47,2.64,2.91-2.09-.08-4.82-.47-3.36,2.4.51.99,2.66,2.97,3.59,3.85,2.24,2.11,6.01,4.69,7.93,6.94.93,1.09,3.67,6.97,4.07,6.97.13,0,.61-1.08,1.91-.98,1.29.1,3.96,2.69,5.34,3.36l1.84-.93,3.63,3.35c-.17-.5-.33-.92-.48-1.44-.99-3.45-1.78-7.02-2.4-10.56.82-.2.95.31,1.44.72,2.4,2.01,4.39,3.41,7.05,4.94,2.81,1.62,5.58,3.37,8.76,4.2.64.17,1.28.17,1.46-.51.09-.34-1.1-2-1.43-2.41-3.87-4.74-8.89-7.39-13.21-11.26-1-.9-1.7-1.38-.72-2.66,1.46-1.9,3.26-1.22,5.29-.71.13-3.16-1.11-7.21,3.36-5.76l.72-1.92c2.03,2.6,4.43,4.86,6.49,7.43,3.47,4.32,7.63,9.66,10.76,14.19,2.34,3.38,3.45,6.96,6.02,10.06.01-.04.35-.08.43-.33.16-.49-2.14-7.23-2.58-8.32-.73-1.79-7.24-13.65-6.48-14.39.81-.13,1.08,0,1.69.47,2.65,2,5.59,10.52,7.33,13.78.89,1.66,2.49,3.12,2.97,4.95.71.03,1.14.24.92-.68-.17-.72-1.9-3.77-1.4-4.12h1.44c.84-.63-3.62-7-3.78-8-.07-.44.62-2.39,1.16-2.54,1.55-.44,2.21.73,3.02,1.75.17.22.27,1.48,1.04.63.28-.31-1.27-3.65.24-2.88,1.27.65,4.27,4.51,5.75,5.77.95.81,7.21,5.21,7.89,4.26.16-.22-.18-.91.27-.92.87.45,3.93,1.57,4.53.95.68-.7.47-3.7.5-4.78l3.36,1.44-.58-2.06-2.3-4.18c.34-.32,3.73,1.44,4.56,1.46,1.18.03.99-1.18,1.27-1.39.27-.21,1.77-.31,2.29-.59l.51-2.84c-.84.01-1.59.14-2.4-.24-.55-.26-4.11-3.04-3.36-3.6.93.1,1.27-.84,2.15-.97,4.36-.65,4.68,2.6,8.41,3.37l-.49-5.51c-.99-4.43-2.91-8.6-5.34-12.42-.64-1-4.86-6.25-4.71-6.76.25-.84,1.84-2.04,2.88-1.49.35.18,2.64,3.03,3.08,3.64.7.95,2.35,3.3,2.66,4.3.08.25-.05.66,0,.96.08-.01.16-.02.24,0,.73.15.83-.01.72-.72l-.48-.24c.25-1.01,2.91.16,2.4-1.2-.58-1.51-2.83-4.13-3.76-5.84-.99-1.81-2.24-3.79-1.99-5.93,1.05-.22,1.09.53,1.53,1.11,1.12,1.47,1.76,3.28,3.03,4.65.5-.17.14-1.06.31-1.61.25-.82,1.24-1.37,2.07-1.28.7.08,2.22,1.13,2.19-.71-.02-1.74-3.8-5.99-4.83-7.66-.5-.81-.59-1.21-.47-2.17.89-.19,1.14.49,1.68.96,1.66,1.45,3.03,3.49,4.31,5.31.49.69-.13.88.97.93.6.03,1,.02.72-.71-.49-1.27-2.71-3.6-2.39-4.8.13-.49.81-.89,1.44-.49,1.84,1.16,3.49,6.44,4.64,6.89.33.13.75.07,1.12.07l-.43,2.07,4.99,9.45c.61-.34.12-1.41,0-1.93-.72-3.41-1.17-6.74-2.1-9.9-.61-2.08.73-2.46-1.74-4.5-1.22-1.01-3.5-1.44-3.13-3.35,4.24-.16,7.48,3.5,10.33,6.23,2.04,1.95,4.24,4.13,6.24,6.24,1.78,1.88,2.58,4.47,5.98,3.85.16-1.42-1.41-1.7-2.17-2.39-1.5-1.38-4.75-6.03-5.48-6.52-.63-.42-1.71-.06-1.91-.25-.2-.18-.6-2.49-.9-3.18-1.43-3.44-4.62-6.95-6.1-10.7-.44-1.12-2-4.54-.47-5.29l2.71,5.44c2.36,3.41,4.19,6.78,6.88,9.94.23.27.18.77.29.89.17.18,1.41-.05,2.04.11.24.06.28.4.31.41-1.24,2.52.25,2.8.96,4.8,2.35.32-.33-2.44.96-3.36.32.68,3.48,2.06,3.8,3.18.38,1.32-1.4,2.36-1.42,3.29-.03,2.05,2.55.38,3.85.73l-.72-2.88c1.5.45,2.61,1.53,4.07,2.17.51.22,3.34,1.2,3.55,1.16.8-.17,1.59-1.49,1.03-2.38-.65-1.04-4.14-4.22-5.28-5.27-.85-.79-2.71-1.3-2.65-2.87.34-.33,3.39,1.56,4.18,1.82,1.76.57,3.58.68,5.41.58.33-.3-1.65-2.89-1.84-3.67-.51-2.02.13-1.35,1.34-1.86.34-.14.5-.61,1.21-.72.96-.14,2.13.12,3.13.01.82-2.48-2.3-5.65-2.42-7.45-.05-.78.46-1.32.5-1.92.11-1.67-.06-3.36,0-5.03.82-.2.95.32,1.44.72,1.92,1.6,3.61,3.85,5.52,5.52.87-.66-.65-2.9-.24-3.36.77-.86.87.41,1.04.63.9,1.14,2.63,3.75,3.7,1.96.87-1.45,1.27-3.81,2.38-5.3l.08-1.6c-1.21.12-3.9-.5-4.28-1.73-.3-.98.32-1.56.43-2.35.14-1.06-.44-2.63.79-3.05.58-.2,1.42.15,1.88-.52,1.8-2.61-.42-5.21-1.14-7.56-.15-.49.03-1.35-.14-1.53-.1-.11-.74-.15-1.16-.51-1.56-1.36-3.12-3.86-5.03-4.34.19,1.47,1.47,1.7,1.47,2.64,0,.53-.84,1.56-1.28,1.66-.63.14-3.7-2.02-4.99-1.41-1.03,1,4.33,5.61,3.84,7.43-.08.29-.78.85-1.2.72-.49-.15-6.69-6.49-7.19-7.21-.91-1.34-.61-3.23-.73-3.34-.14-.13-1.31.21-1.94-.22-.35-.24-.48-1.02-.94-1.46-1.03-.98-3.14-1.34-3.83-2.64,1.13.41,2.73-.46,3.52-.4,2.97.25,9.85,3.38,13.27,4.24-.24-1.8-.02-1.29,1.13-1.44.56-.07.35-.93.31-.96-.49-.4-3.11-.62-3.36-1.92,3.83-.04,8.4-1.03,12.25-.49,1.09.15,1.31,1.21,1.96,1.4,1.81.54,2-1.07,2.89-1.33,1.1-.32,3.16-.03,4.5-.54v-1.42c-1.98-.47-3.63-1.97-5.76-1.94-.12-1.09,1.23-1.75,1.39-2.71.07-.45-.54-1.53-.9-1.85-2.84-2.46-9.08-.97-10.57-1.9-1.87-1.17.51-1.15.99-1.44,1.24-.75.07-1.87-.01-2.18-.1-.39.07-1,0-1.44,1.39-.54,2.57-1.79,2.88-1.92.98-.4,2.8-.42,4.3-1.22,1.46-.79,1.86-.99,1.94-2.62,1.12.34,1.28-.9,1.44-1.92-.83-.33-1.2.38-1.44.48-.17.07-.62-.16-.87.07-.17.17-.14.63-.32.88-.44.6-1.98.74-2.79,1.07-.72.29-1.19,1.12-2.24.88l-.02,1.9c-1.46-.34-2.78.42-4.06.5-3.04.19-5.91-.4-8.9-.5-.95-.03-1.93-.02-2.88,0-3.26.06-6.36.33-9.6.48-.59.03-1.19.03-1.79.02.6,0,1.2,0,1.79-.02.7,3.66-4.06,2.23-6.5,2.38-.85.05-1.51.48-2.36.52-1.63.08-4.22.17-5.78-.02-.58-.07-.46-1.74.95-1.93,1.94-.27,3.86-.27,5.8-.46.57-.06.65-.48.69-.49h0l-.96-1.44,8.36.02c.45-.06.29-.94.72-1.25.53-.39,8.47-.3,9.89-.23,2.32.12,5.31.73,7.66.97,4.65.47,10.32-3.91,14.62-5.27,1.77-1.67,4.44-3.13,2.13-5.73-1.74.19-3.5.28-5.24.46-4.08.41-10.37,1.03-14.42.49-1.92-.26-.45-1.64-.71-1.93-.05-.05-1.16-.4-1.28-.42-1.29-.18-2.3.54-3.77.43-.93-.07-1.67-.57-2.61-.52v-1.89c3.5-.58,7.27-1.22,10.55-2.65,2.22-.97,5.83-3.51,2.56-5.46-1.61-.96-2.8-.3-4.5.16-1.81.49-4.97,2.13-6.46,2.18-.73.03-.85.09-.74-.74.3-2.07,2.15-2.2,2.36-2.92.22-.75-.15-2.84.07-3.05.16-.16,4.25-.98,4.47-.93.46.1.84,1.09,1.47.91,1.17-.35,1.07-2.05,1.29-2.33.26-.34,4.43-1.76,5.21-2.22.52-.31.89-1.04,1.46-1.42.76-.5,3.79-2.23,4.08-2.64.26-.38.32-1.36.22-1.45-.31-.26-2.95-1.01-3.69-1.35-.73-.34-1.81-.69-2.06-1.53.96-.11,2.17.2,3.06-.06.7-.2.96-1.34,1.98-1.41,1.37-.1,3.59,1.53,4.24,1.42.35-.06,1.74-.89,1.75-1.15.04-.8-3.98-.96-4.81-1.43-.83-.46-.4-1.47.29-1.66,1.72-.47,3.27.39,4.74.47,1.23.07,4.7.18,5.55-.25.56-.28,1.28-1.51,1.91-1.93-.32-.65-1.32-.02-1.8.12-1.47.43-2.86,1.25-4.43,1.08l.48-1.44c-1.97.35-3.97.72-6,.48-.41-.05-.32-.91-.24-1.2.07-.25,3.26-2.09,3.85-2.39,1.52-.77,8.8-3.72,9.36-4.55.36-.53.32-2.87.22-3.62-.23-1.68-2.88-3.14-.45-3.86l-.03-2.62c2.62-.58,3.21,2.8,5.76,2.88.05-1.55-1.37-2.35-2.14-3.38-.5-.66-.99-1.88-1.46-2.39-.56-.6-1.55-.26-1.18-1.17.17-.42.97-.65.97-1.46,0-2.72-5.62-4.18-7.85-3.03-2.42,1.25-.86,2.41.97,3.18.65.28.77-.03.62,1.04-1.06-.39-1.74.8-2.23.91-.48.11-1.37-.7-2.32-.42-1.33.39-.35,1.96.22,2.64.46.56,3.64,2.41,2.89,3.11-.99.91-4.66-2.31-5.28-3.36-.73-1.25-.88-.91-1.22-1.41-.23-.33-.24-2.59-1.17-1.47-.13.15.11,1.07,0,1.44-.8,2.7-5.29,9.01-7.82,10.18-2.71,1.25-1.26-.65-2.23-1.33-.88-.62-2.97.49-2.91-1.65-.81.08-1.96,1.93-1.42,2.38.21.17,1.15,0,1.38.78.93,3.13-1.79,4.01-4.28,3.08.13.78-1.06,4.82-1.42,5.06-1.58,1.09-3.9-.55-5.14-.66-.71-.06-2,.73-3.02.41.38,1.04-1.14,2.02-.98,2.61.14.54,3.13,1.38,1.44,2.41-.95.58-2.44-.75-3.22-1.12-.38-.18-.87,0-1.1-.08,1.39,2.55-1.45,1.74-2.9,1.22-.92-.33-5.1-2.3-4.78-3.38.41-1.38,2.11-.22,2.57-.32.24-.05.25-.37.31-.4.03-.01.06-.02.1-.02-.04,0-.07,0-.1.02-1.65.32-.61-1.09-1.17-1.95-.33-.49-1.58-.74-2.17-1.19-1.67-1.26-4.54-5.6-4.82-7.66-.13-.97.21-.75.97-.73.25,1.46,1.37,1.76,2.1,2.46.57.55.63.81,1.02,1.38.59-.49-.67-1.99-.98-2.38-.41-.52-1.03-1.25-1.66-1.46-.73-.93-.33-2.04-.56-3.04-.25-1.1-1.86-2.93-1.86-3.92,0-.51.76-2,1.25-2.14,1.14-.32,2.26,1.31,3.56.94.24-.84-.45-1.51-.5-2.18-.06-.81.47-1.31.52-1.92.06-.73-.84-2.28-.5-2.62.05-.05,1.3-.24,1.43.3.5,2.12,1.6,3.93,3.13,5.46,1.69.12-.2-1.73-.49-2.39-1.02-2.33-1.22-4.18,1.46-1.94,1.11.93,3.32,3.98,4.29,5.31.43.59,1.05,2.1,1.27,2.33.08.09,1.81.11,1.87.05,1.03-1.04-3.08-7.48-2.4-8.16,2.61-.54,1.88,1,2.77,2.74.57,1.11,1.86,3.07,3.21,3.02.48-.02.97-.52,1.4-.44.63.12,1.52,2.12,3.17,1.4-1.08-4.16-2.21-8.37-1.93-12.71-.36-.44-.4-2.08-.47-2.17-.97-1.13-2.89,3.94-2.4,4.8-.94-.22-2-2.19-2.67-2.39-.63-.18-.98.76-1.46.91-1.15.35-1.58-.78-2.33-1.42-.38-.33-1.05-.42-1.14-.53-.19-.25-.73-3.11-.55-3.29l2.88.48-.49-.96h2.4c.86-.82-3.95-6-4.31-6.96-.32-.84.21-.67.72-.71,1.7-.14,3.2-.11,2.58-2.12-.46-1.49-4.41-3.32-5.68-4.39-.35-.3-1.43-1.24-.98-1.66.57-.53,1.52.48,1.94.7,2.7,1.39,5.25,3.14,8.13,4.11.43,1.59-1.05.69-1.44.96-.05.03-.05.91.02,1.18.3,1.03,2.89,1.78,3.8,2.43.91.65,1.42,1.66,2.55,2.25,1,.52,4.25,1.13,4.59,1.41.15.12.13.76.53,1.13,1.5,1.38,8.19,1.42,10.32,1.18.7-.08,2.95-.62,3.11-1.21.58-2.08-.96-1.76-1.37-2.2-.25-.27.28-1.59-.51-2.13-.69-.47-3.48-.2-4.58-.22-.4,0-1.68.22-1.2-.72.1-.2,1.59-2.04,1.91-2.41,1.03-1.2,2.96-3.16,4.32-3.85.45-.23,1.19-.12,1.39-.28.37-.29,2.56-5.67,2.46-6.66,1.67-.4.8,2.02.96,3.12.28,1.89,1.19,1.61,1.83,2.25.73.73-.06,2.4,2,1.83.89-3.12,2-6.32,1.93-9.6.31-.32,2.85,2.11,4.21-1.78.53-1.52,1.09-5.87,1.76-6.88.27-.41,2.25-1.35,2.91-1.89,5.47-4.52,8.92-13.32,10.69-20.03.36-1.35.36-3.15.8-4.48.54-1.65,2.94-1.99,4.1-3.34.06-.07.64-1.01.96-1.44,10.79-14.68,13.16-33.1,14.42-50.62.1-1.39-.44-2.2-.52-3.36-.11-1.54.82-3.03.45-4.28-.46-1.55-2.75-.39-2.33-4.36.31-2.97.16-5.89.48-8.64.28-2.47,1.79-3.67.23-6.49-.25-.46-.98-.72-1.14-1.26-.43-1.43-.12-4.05-.75-5.97-.95-2.87-3.67-6.19-4.48-8.48-1.8-5.08-1.53-11.03-3.96-15.97-2.09-.53-1.74,1.53-1.9,3.11-.05.46-.56.21-.96.24-.34-1.03-1.09-2.48-1.69-3.35-.84-1.2-2.78-2.89-3.34-3.86-1.6-2.72-2.17-7.9-3.84-11.03-.32-.59-1.4-.9-1.2-1.92h-.96c.14.94-.52,1.72-.52,2.64,0,.7.84,2.31.5,2.62-.11.1-.86.1-1.44.72-1.5,1.59-.82,2.84-.46,4.58.31,1.52.91,4.44,1.9,5.54,1.29,1.42,2.25,1.2,3.86.7ZM259.49,231.06c0-.13.44-1.61.5-1.68.24-.27,1.27.26,1.41.74.68,2.34-1.96,2.78-1.92.93ZM156.94,386.44c-.17.17-.18.58-.34.83-.37.58-1.48.7-1.67.5-.36-.36,2.22-5.89,1.44-7.2.84.06,2.18-.28,2.66.46.09.13.69,2.93.66,3.08-.2.96-2.28,1.85-2.74,2.32ZM183.94,336.42c-.94,1.12-2.59,2.24-3.35,3.37-1.08,1.62-.24,1.37-1.94,2.85-1.44,1.25-2.29,3-3.83,4.34-.54.47-.79,1.15-1.68.96l.47-2.17c1.5-1.62,5.95-9.81,7.51-10.25.95-.27,2.42,0,3.54-.54.2.82-.31.95-.72,1.44ZM224.48,297.06v1.92s-1.92,0-1.92,0c-.43-.43,1.03-2.23,1.92-1.92ZM185.86,346.98l-.24-.24c.47-.34.57-.62.48-1.2h.96c.3,1.36-.51.66-1.2,1.44ZM190.77,344.69c-.93.3-2.52,1.83-2.26-.1,1.91-.46,3.75-1.71,5.6-2.32.53-.17,1.2,0,1.76-.16.55-.16,1.9-1.22,2.24-.88.26.26-.09,1.77-.76,1.9-.38.08-.89-.5-1.34-.41-.62.12-4.01,1.56-5.24,1.97ZM206.7,360.63c-.23.77-3.79,1.86-4.28,1.72.45.72,1.37.56,1.46,1.67.21,2.59-4.18,2.41-6.01,2.66-1.65.22-2.89.7-4.81.47-1.07-.13.33-1.88,1.03-2.33,1.28-.84,2.61-1.04,4.01-1.99l-1.41-1.4c1.32-.18,1.8-1.44,2.98-2.07,1.99-1.04,8.19-2.68,7.03,1.27ZM211.56,352.96c-.07.44-.72.15-.91.3-.31.24.51,2.12-1.03,3.07-1.56.96-3.35.59-5.03.73-.76.07-1.32.62-2.4.48-1.3-.16-2.05-.59-1.68-1.91.48.02.85-.23,1.27-.41.52-.23,1.66-.44,1.6-1.05-1.88.28-6.9.06-3.83-2.15,2.73-1.96,6.38-.99,8.62-3.37.13-1.07-.19-.74-.98-.5-2.42.75-4.55,1.56-7.18,1.22-.2-.83.32-.95.72-1.44,1.38-1.66,3.95-2.69,6-3.37l-.48-1.91c1.98-.49,4.02-.25,5.99-.49,2.54-.3,5.06-1.05,7.69-.95,1.51.06,1.24-.17,1.19,1.44,2.3-.17,14.95-2.29,15.83-1.44.16.16.06,1.38-.46,1.7-.93.55-3.87.54-5.05.71-2.71.39-8.49,1.58-10.99.9-.64-.18-.72-.88-.77-.91-1.24-.57-4.72.52-6.24.48l2.88.48c.71,2.7-2.88,1-3.84,2.88,1.51.02,3.04-.03,4.56,0,.41,0,1.67-.22,1.2.72-.27.53-1.53,1.6-2.15,1.69-1.25.18-5.3-1.08-6.01-.49-.92.76,1.24,1.14,1.4,1.72.12.41.13,1.42.06,1.86ZM237.16,403.11c-.95.26-2.64-.03-3.79.04-.6.04-1.12.55-1.91.49-3.72-.29-8.31-1.99-11.78-3.38.05,1.18.33,1.71-1.19,1.44-1.13-.21-3.44-.79-4.34-1.42-.39-.27-2.11-2.03-1.66-2.42,2.39-.39,4.2,1.33,6.24,2.19.39.17.44-.27.47-.27-.05-1.56-.34-1.42,1.19-1.44,4.23-.06,8.62,2.37,12.49,2.87,1.29.17,3.58-.35,4.56.24.84.5.4,1.47-.28,1.65ZM369.85,285.54c.3.89-1.78,3.55-2.4,2.88-.3-.32.89-3.81,2.4-2.88ZM364.4,295.21c1.22.23,7.51-1.8,7.85-1.51.65.56-.81,1.31-1.11,1.53-2.92,2.2-6.28,3.46-9.92,3.75-.59-.54,2.63-3.37,3.18-3.77ZM362.18,333.54c-.63-.1-.63-.38,0-.48,1.36-.21,1.36.69,0,.48ZM347.78,312.68c1.83-1.01,3.63-2.18,5.28-3.14.76-.44,2.58-.24,2.4-1.92-.8.31-1.47.98-2.4.96v-2.4c2.2-.42,4.86-2.97,6.92-2.35.28.08.23.38.28.43l-3.14,2.39-.22.49c1.25-.22,1.63-.55,2.88-1.19.56-.29.81-1.1.96-1.21.09-.06.31.04.48,0,.27-.07.65.05.96,0-.1.05-.46,1.08-.74,1.42-1.1,1.37-4.48,3.49-6.13,4.43-1.21.69-7.69,3.93-8.49,3.27-.89-.74.65-1.01.96-1.18ZM279.97,201.22c2-.44,3.34.38,4.73.41.8.02,1.54-.95,2.41-.99.72-.04,1.27.47,1.82.42.59-.05,7.82-2.02,8.48-2.32v1.44c-1.11.81-4.11,3.5-4.82,4.54-.7,1.03-1,2.67-2.37,3.39-.37.2-4.22,1.25-4.56,1.22-.79-.06-1.02-.78-1.5-.93-1.38-.42-3.16.53-4.26,1.37-3.06,2.32-7.34,8.62-8.96,12.15-.9,1.96-1.33,4.31-2.54,6.1l.34-3.02.86-2.26c-2.1.46-2.43-.66-2.42-2.64.01-4.71,8.09-17.83,12.82-18.88ZM257.57,287.76c-.06-.51.07-1.12.02-1.66h4.32s-1.44-1.92-1.44-1.92h2.88c.32-1.75-.68-3.16-.96-4.8,1.45-.51,1.89,1.15,2.7,1.38,1.22.35,3.08-.19,4.5.54.27-.28-1.53-4.72.28-5.24.79-.23,2,.29,2.6-.28-.96-1.34-4.72-1.21-4.28-3.3.32-1.56,3.54-1.89,4.07-2.68.48-.72.11-2.04.22-2.9l3.83.48c-.35-1.9.94-1.53,1.43-1.94.73-.61-1.23-2.06-.94-3.09.22-.77,1.83-.43,1.44-1.44-.38-.96-3.94-3.36-4.32-4.32-.32-.81.25-.64.63-.72.6-.13.37-.93.33-.96-.13-.1-1.28-.06-1.44-.73-.19-.78,1.62-2.43,1.84-3.43.14-.61-.05-1.88.14-2.04.14-.12.6.03.78-.12.79-.7.98-2.6-.6-2.82-1.65-.22-1.71.67-2.48.9-.62.19-1.34.04-2.11.29-1.89.61-2.24,2.88-4.06,3.62-.96.39-.71-.64-.72-1.2-.01-.75-.14-1.47.23-2.18.4-.77,3.07-1.93,3.61-3.14.8-.49,1.38,1.01,2.63-.7,3.15-4.33,3.14-12.72,7.94-16.05,1.83-1.27,2.1-.19,3.04-.32.47-.06,1.01-.69,1.58-.82,1.71-.38,3.17.5,3.52-2.23.18-1.38-.48-2.1-.5-2.89-.01-.66,2.49-3.13,3.2-3.53,1.95-1.09,5.42-1.2,7.63-1.04,2.74.2,1.21,1.44,1.2,2.65,0,.93.54,2.95.49,3.82-.05.72-.67,1.33-.52,2.43.07.51.88,1.67,1.24,2.14,1.52,1.97,6.7,7.1,8.84,7.96.64.26,1.47.12,1.96.44.47.31.8,1.77,1.66,2.18.85.41.84-.9.96-1.44.27-1.25-.1-2.38,1.44-1.92.23.07,2.51,3.29,2.87,3.85.49.75,1.93,2.96,2.17,3.59.52,1.37-1.39.4-1.76.32-.55-.11-1.55-.26-1.11.63.62,1.28,2.14,1.33,3.36,1.2.01-.06.74-.31.48-.96h.96c.3.96.81.85.96,2.88,0,.06,0,.12,0,.19,0,.03,0,.05,0,.08,0,1.03-.38,1.93.96,1.66v.96s.96,0,.96,0c.17-1.23.48-2.2.49-3.36.28-.3.56-.62.84-.91.24-.25.47-.5.71-.75.4.68.84,1.34.84,1.9-.01,1.65-2.01,3.92-2.33,5.36-.33,1.5.07,3.4-.08,4.96,1.64-.75,1.63-4.83,2.41-5.76.05-.05,1.38-.06,1.43,0,.1.13-.1,1.12.05,1.63.22.74,1.03.59,1.3.86,1.26,1.22-.34,7.44-.97,9.17-1.31,3.59-4.54,7.82-7.08,10.67-2.19,2.46-5.08,5.99-8.65,5.51-.26,1.54-.47,2.24-2.16,2.88-1.5.57,0-1.69-.24-1.92-4.08-.31-7.97,1.69-11.87,2.76-4.55,1.25-9.19,2.14-13.56,3.96-.29,1.19.28.76.63,1.03,1.86,1.42,3.36.78,5.6.88l-3.36,2.16.96.96-.91,1.84c.59,3.03,2.21,2.2,4.74,2.24v.96c-4.28,1.67-8.24.14-12.25.46-.86.07-3.88.6-4.06,1.22-.16.56-.01,1.07.48,1.44,1.34,1.01,4.06,1.55,5.76,1.68v.96c-2.06-.11-4.17.08-6.24,0l.96,1.92c-1.31.43-2.95-.57-3.98-.42-.7.1-1.63.49-1.29,1.38,4.16,1.94,8.59,2.79,12.95,4.09.9.27,1.72-.1,1.44,1.19l-12.24-2.39c-2.41-.15-3.94-.27-6.24-.02-2.22.25-4.55-1.52-6.66-2.39-.55-.23-.28-.53-.29-.96,1.36-.43,4.27-2.16,5.27-3.13,1.06-1.02.45-1.72-.61-2.26-1.07-.54-3.89-1.12-4.61-1.87-.16-.17.06-1.2-.28-1.88-.63-1.29-3.67-2.25-4.57-3.59-.14-1.17.26-.64.97-.49.77.16,2.51.71,2.87-.47.44-1.44-4.76-2.42-4.81-2.9ZM280.14,313.46l29.27,4.32v1.44c-1.35-.08-2.76.11-4.1.02-3.41-.23-7.16-.96-10.55-1.45-4.5-.65-10.17-1.16-14.33-2.89-.58-.24-.2-.9-.28-1.45ZM301.03,295.2l4.54.74-10.56.24v-.96c2,.03,4.01,0,6.02-.02ZM295.97,290.9c1.43-.48,2.81-.59,4.32-.48.09,1.93-2.28,1.51-3.6,1.44-.93-.05-.76.06-.72-.96ZM300.53,301.46c.94.05.75-.06.72.96-1.26-.17-3.02.96-4.08.96-.49,0-.96-.44-1.45-.47-3.56-.22-7.43-.8-10.78-.97v-.96c2.57.19,5.36.39,7.9.5,2.55.12,5.15-.15,7.7-.02ZM292.88,318.27l18.44,1.91v1.44l-19.19-1.92.75-1.43ZM270.59,309.2c.11-.16,1-.01,1.39-.05l-.48,1.44,5.76,1.2c-1.03,1.5-2.11.31-3.13.25-2.98-.19-5.93.33-8.87-.49-.04-1.02-.22-.91.72-.96,1.32-.06,3.16.27,4.27-.46.47-.31.21-.74.34-.92ZM259.51,315.13c-.37-.13-1.8-.5-.96-1.19.12-.1,2.58-.06,3.11.01.89.11,5.32,1.63,5.5,1.42.16-.19,0-1.16.78-1.39,1.73-.52,3.35.16,4.85.84.62.28.79-.06.62,1.04h-3.36s1.44,1.44,1.44,1.44c-4.47.56-7.92-.7-11.99-2.17ZM315.42,325.96c-4.81.36-18.31.17-22.49-1.54-.71-.29-1.01-1.13-1.58-1.3-2.25-.66-7.71-.61-10.49-1.03-1.84-.28-4.42-.56-6.16-1.04-.87-.24-2.6-1.51-1.77-2.31.15-.14,3.42-.05,4.07,0,6.22.59,12.96,2.52,19.21,3.34,7.11.94,14.47.55,21.59,1.44.86.11,1.77-.04,2.63.01-.05.39.08,1.35,0,1.43-.25.2-4.3.94-5.01.99ZM363.47,407.37c.62.52.86.04.62,1.53l-3.35-1.69c-3.09-2.78-6.68-5.69-9.37-8.87-.39-.46-1.21-1.43-.72-1.92.49-.49,1.46.33,1.92.72,3.69,3.13,7.06,7.04,10.89,10.23ZM368.43,359c-.19.19.38,1.95-.74,1.42-.14-.07-1.88-1.32-1.94-1.43-.3-.47-.12-1.27-.26-1.41-.32-.35-8.17-2.34-9.2-1.55l-15.96-4.24c-1.65-.58-1,1.5-2.38,1.46-1.01-.03-4.81-1.21-6.13-1.58-3.08-.86-7.34-2.04-10.21-3.22-.76-.31-1.35-.44-1.18-1.46.87-.14,1.59.08,2.41.23,6.41,1.18,12.47,3.13,18.95,2.66,4.26-.31,16.29,3.5,20.87,5.02,1.02.34,6.72,2.29,6.96,2.64,1.33,1.92-1.02,1.3-1.2,1.47ZM370.33,355.86c-.46,1.67-3.06-.37-3.7-.62-6.34-2.47-13.35-4.78-19.81-7.07-.37-.13-1.79-.5-.96-1.19.48-.4,3.57.38,4.44.6,4.67,1.18,10.35,3.08,14.89,4.79,1.43.54,5.66,1.6,5.14,3.5ZM384.24,349.38h-.96v-.48h.96v.48ZM384.48,346.98c-.31,0-.31-.48,0-.48s.31.48,0,.48ZM402.48,353.22c-1.26.3-5.65.74-6.24-.48h-.48c.9.88,1.22,2.06,1.42,2.19.45.3,1.27.1,1.42.25.07.06.15,1.18.41,1.74,1.36,2.89,2.82,5.21,4.19,8.29.34.77,2.95,3.53,2.15,4.33-.52.52-3.89-1.83-4.57-2.39-1.31-1.08-2.55-2.67-3.82-3.87-.36-.34-.94-.36-1.12-.54-1.08-1.1-.74-6.04-1.26-7.62-.62-1.9-3.67-4.06-4.57-5.99-.8-1.08-2.15-.66-3.37-.71-.32-.01-.64,0-.96,0-.24-.83.46-.9.48-.96.05-.12.05-.84,0-.96-.05-.13-1.34-1.07.24-.96l.24.48c.28-.1.98.24.96-.24-1.84-2.59-4.7-2.84-7.68-3.12.56.93,1.95,1.57,2.91,2.15.86.52,1.16.02.93,1.69-.95-.04-1.93.06-2.88,0,.14.7,1.67.4,1.92,1.2.18.59.21,1.44-.73,1.21-2-.69-4.28-1.86-6.32-2.32-.74-.17-1.44,0-2.07-.09.58,1.45,3.97,3.58,4.28,4.6.19.62-.15,1.49-.68,1.64-.7.2-5.66-4.54-7.43-3.84-.28,3.03-2.18,3.34-4.66,2.03-1.1-.58-.9-1.26-1.39-1.57-3.04-1.92-7.51-2.81-10.73-4.54-1.67-1.99,1.3-.41,1.92-2.16-3.12.26-6.06-1.02-9.11-1.44l3.11-.99c2.33.24,4.91.83,7.18,1.01.94.08,2.97.28,3.62-.5-.97-.24-1.11.47-.96-1.44,1-.25,1.62.24,2.4.48,3.95,1.24,4.89,1.12,8.9,1.42,1.4.11,2.35.63,4.06.5-.2-1.92.85-.5.96-.48,1.62.34,3.12-.25,4.57-.47,1.04-.16,2.49.61,2.15-.97-3.82-.96-7.61-2.08-11.37-3.26-2.13-.67-3.16-.99-5.29-1.93-.7-.31-1.35.37-1.09-1.05l23.51,5.76v-.96c-1.94-.73-1.1-2.41-1.92-3.84h-.48v-.48c.11.05.31-.03.48,0,1.26.19,2.56-.06,3.84.72.68.41.77,1.28,1.44,1.68.69.42,2.16.42,1.92,1.92-.54.09-.44-.44-.48-.48l-.48-.48c-.23-.08-.66.06-.96,0-.38.28-1.39-.64-.95,1.9l3.35.98-1.92.96c-.1-.05-1.91-.44-2.17-.47-.99-.11-2.09,0-3.11,0,.23,1.05,4.38,5.63,5.51,6.74.33.33.91.35,1.11.58.17.2.04.63.14.77.09.12,1.81.14,1.87.07.08-.09.08-2.12,0-2.4-.03-.11-.69-1.23-.96-1.92,1.5-.35,1.74,1.75,1.92,1.92.75.71,3.65,3.18,4.39,3.75.25.19.89.08,1.36.33,1,.52,1.07,1.61.97,2.64ZM397.69,332.81c1.82,1.54,2.78,3.04,2.39,5.53-2.41.46-3.91-2.29-5.76-3.11-2.61-1.16-5.32-2.54-8.02-3.51-.78-.28-1.32.32-1.09-1.06,4.16.6,8.32,1.35,12.49,2.15ZM389.52,326.58l1.93.47c.94.51,1.92.96,2.86,1.48.28.15,1.84.43.96,1.18-.59.51-5.3-1.94-5.75-3.12ZM394.56,339.3c-.31,0-.31-.48,0-.48s.31.48,0,.48ZM393.6,338.82c-.31,0-.31-.48,0-.48s.31.48,0,.48ZM404.87,316.5c.31-1.12,4.05-.71,5.28-.72.96-.01,1.92-.02,2.88,0,1.15.02,3.89-.38,4.32.72.24.63-.9,1.2-1.2,1.2h-10.55c-.19,0-.84-.76-.72-1.2ZM397.94,318.64c2.59.18,5.62,1.27,8.11,1.48,2.85.24,5.83.24,8.67.45,2.16.16,3.9-.23,5.99-.47.19,1.29-.21.94-1.2.96-1.61.03-2.53.33-3.85.47-1.85.2-3.95-.92-5.99-.47l6.43,2.39.28,1.45h-7.2l2.43,1.67c1.42-.02,1.14,1.92.19,2.16-.35.09-.92-.42-1.42-.47-7.03-.68-13.86-4.07-21.08-2.92-.51.08.1,1.31-.96.97-1.55-.5-3.81-2.42-5.38-2.78-.73-.17-1.5,0-2.23-.17-1.32-.32-4.49-1.35-2.73-3.03.35-.33,4.36-1.58,5.05-1.67,3.5-.46,11.2-.29,14.89-.03ZM387.36,165.54c-.31,0-.31-.48,0-.48s.31.48,0,.48ZM393.84,213.54s-.7.03-.96,0v-.48c.1.05,1.55-.02.96.48ZM396.24,210.66c-.13.13-2.58-.85-3.02-1.06-1.14-.55-2.85-1.64-3.7-2.54-.49-.53-1.14-.81-.96-1.68.98-.17,1.37.05,2.17.47,1.46.77,3.2,2.03,4.73,2.95.68.41,1.17,1.47.78,1.86ZM397.2,202.98c1.7-.59,5.56,3.43,5.28,4.56-.22.86-1.67.88-2.41.5-.79-.4-3.5-4.41-2.86-5.05Z"/>
    <polygon class="a3" points="296.45 131.46 294.33 131.51 294.05 131.94 294.33 131.51 296.45 131.46"/>
    <path class="a3" d="M373.21,430.02c.27-.31.76.83.96-.96h-.96s0,.96,0,.96Z"/>
    <path class="a3" d="M370.3,432.07c0,.1.02.21.03.35.06.01.1.72.96.48v-1.44c-.87.04-1.04-.2-.99.61Z"/>
    <path class="a3" d="M380.41,413.22c-.42-.83-1.08.03-1.54-1.09-.74-1.8-1.14-4.69-2.07-6.1-.57-.86-1.49-1.69-2.63-1.45-.65.67,2.93,5.77,3.45,6.86.4.83.7,1.82.87,2.73-.37.14-.91.85-1.92.48-.09,2.25,2.28,3.86,1.92,6.24,2.3-1.36,6.35-7.81,8.16-8.64l-.48-.96c-1.58-.54-3.87,1.02-5.76,1.92Z"/>
    <path class="a3" d="M182.27,416.33c-.54-.36-2.16.04-2.41.25-.71.61,2.54,2.76,2.88,2.4-.06-.81.31-2.12-.47-2.65Z"/>
    <path class="a3" d="M372.25,345.54c.14.81.77.86,1.44.96-.27-.69.52-1.21-1.44-.96Z"/>
    <path class="a3" d="M366.97,343.62c-3.18-.1-5.47-.73-8.37-.98-.73-.06-1.67-.02-2.42.02-.94.05-.76-.06-.72.96,1.98.49,4.02.25,5.99.49,1.44.17,3.75,1.02,5.19,1.53.92.33,2.53,1.82,2.26-.1-.99.14-1.08-.55-1.44-.96l4.8.48v-1.44c-1.75-.04-3.53.05-5.28,0Z"/>
    <path class="a3" d="M380.86,345.58c-.13-.11-.94-.05-1.42-.26-.94-.42-4.47-2.36-5.27-1.7-.83.69.58,1.05.96,1.19,2.13.76,3.41,1.55,5.76,1.69-.05-.25.13-.78-.03-.92Z"/>
    <path class="a3" d="M374.68,423.99c.1.23.44.24.44.27h0s.48,0,.48,0c.42-1.43-1.38-1.28-.93-.27Z"/>
    <path class="a3" d="M265.48,432.44c.56,2.23,1.23,4.45,1.7,6.7.91.38,3.59,1.52,4.32,1.92-.19-4.31-3.71-7.23-6-10.56-.59.33-.15,1.42-.02,1.94Z"/>
    <path class="a3" d="M144.83,398.8c.13-.11-.04-1.05.02-1.42-2.58-.26-3.16.58-5.03-1.93-1.07-1.45-2.43-3-3.36-4.32-.63-.89-.79-2.21-1.69-2.87-.09,5.45,2.18,9.48,7.07,11.91.37.18.9,0,1.09.09-.29-1.71,1.64-1.24,1.9-1.46Z"/>
    <path class="a3" d="M396.72,321.76c.62.34,1.17.84,1.92.74.1-.11-.43-1.83-.5-1.9-.08-.09-2.29-.1-2.38-.02-.9.74.65,1.01.96,1.18Z"/>
    <path class="a3" d="M450.27,224.59c.75-.34,3.51-1.85,3.79-2.39,1.46-2.86-1.97-2.24-2.17-2.42-.23-.2.57-2.94-.76-3.31-.68-.19-3.77.08-4.04.44.22-.85-.32-2.16-1.2-1.92-.53.14-2.01,2.34-2.16,2.4-1.25.49-.86-.85-1.53,1.09-.28.81-.84,1.5-1.11,2.26-.77,2.16-.94,5.4-2.93,6.67-.44.28-1.48.5-1.56.6-.15.2,0,.72-.16,1.02-2.34,4.5-6.83,4.05-11.17,4.69-1.45.21-3.4.8-4.82.94-1.18.12-2.4-.06-3.59.01.14,1.95,2.49,2.69,4.09,2.87,1.26.14,6.14.24,7.13-.05.89-.26,1.25-1.68,3.4-1.88,2.45-.22,2.88.93,3.86,1.01.9.07,1.76-.71,2.87-.54.52.08-.21,1.15.97,1,1.96-.25,2.9-2.54,3.9-2.83,2.14-.62,7.58,1.47,6.36-2.65-.18-.61-1.27-1.13-1.38-1.5-.71-2.35,5.99-.47,6.24-.72.4-1.82-.78-2.54-2.26-3.26-.47-.23-1.96-.5-2.06-.58-.06-.05-.24-.71.3-.95Z"/>
    <path class="a3" d="M448.03,289.16c-.09-1.83.11-3.71.02-5.54-.62-.71-2.83,2.12-2.9,3.13-.07.95,1.28,4.73,2.18,5.03.53.17,1.24-.49,1.13-1.12-.07-.41-.4-.8-.44-1.5Z"/>
    <path class="a3" d="M450.93,271.62v1.92c.79.79,2.96-2.54,0-1.92Z"/>
    <path class="a3" d="M473.96,207.78c-1.7-.07-1.92,1.86-2.65,2.87-.48.66-3.35,3.61-2.63,4.33.79.79,3.14-1.86,3.58-2.42,1.1-1.42,2.01-2.91,1.7-4.78Z"/>
    <path class="a3" d="M461.5,189.29c-1.26-.64-1.63.1-2.41.25-.19.82-.7.9-1.44.96l-3.83,13.21v3.59s1.39-.03,1.39-.03c.24-1.23,1.31-2.11,1.86-3.19,1.12-2.2,1.87-4.92,2.88-7.2.82-1.84,4.24-6.23,1.55-7.6Z"/>
    <path class="a3" d="M426.15,288.81c.67-.33.74-.85.8-.87,1.83-.76,3.72.08,5.51-2.41.6-.83,1.24-2.26,1.69-2.87.07-.09,2.37-.53,1.44-1.44-.82-.8-1.8.89-1.92.96-2.5,1.55-4.18,3.6-6.72,4.8-1.1.52-3.13.31-3.36,2.16.45.56,2.06-.08,2.56-.33Z"/>
    <path class="a3" d="M443.76,317.94c-.76-.64-1.33-1.77-2.42-1.67-.36,2.71.11,4.13,2.88,4.8-.05-.62.38-1.09.48-1.68.27-1.59-.39-.98-.94-1.44Z"/>
    <path class="a3" d="M434.85,292.25c-2.92-.34-8.21,3.95-11.45,4.39l-6.06,4.74c.82.21,1.48-.41,2.17-.47,3.32-.28,7.18-.03,10.31-1.2,1.27-.47,6.39-2.75,6.97-3.58,1.07-1.53-.02-3.65-1.95-3.88Z"/>
    <path class="a3" d="M438.08,324.56c-.35-.69-.64-1.27-1.54-1.1l2.64,7.2c.83-.65.87-.97.51-1.95-.45-1.23-1.07-3.09-1.61-4.15Z"/>
    <path class="a3" d="M369.85,404.1c-.3.35.53,1.47.72,1.92.24.55.57,1.91,1.2,1.92.47-.69-.99-4.91-1.92-3.84Z"/>
    <path class="a3" d="M366.49,416.1c-.14,2,.71,4.11.95,6.01.17,1.37-.15,2.82.1,4.22.33,1.85.86,1.04,1.83,1.29v-.96s.96,0,.96,0c-.54-3.25-.73-5.94-2.15-9.12-.35-.78-.62-1.6-1.68-1.43Z"/>
    <path class="a3" d="M368.41,402.18c.18.12.38,1.04.96.96.27-.91-.44-.87-.48-.96-.7-1.46-1.28-3.08-2.88-3.84,0,.85.29,2.18.72,2.88.6.97,1.34.74,1.68.96Z"/>
    <path class="a3" d="M358.82,421.86c-.04,2.79,1.72,5.34,3.15,7.65.45.73.62,1.74,1.65,1.47-.19-3.26-2.14-5.9-3.35-8.83-.24-.58-.9-.21-1.45-.28Z"/>
    <path class="a3" d="M209.43,429.08c.08-.08.15-.17.24-.25-.02-.97-1.93-4.23-2.36-4.9-.41-.64-.54-1.3-1.53-1.11-.33,1.95.85,3.91,2.15,5.29.45.48.82,1,1.51.97Z"/>
    <path class="a3" d="M200.26,414.65c-.42-.82-4.02-3.52-4.87-3.76-1.27-.37-3.53-.17-3.01,1.57,3.6,3.73,7.42,7.45,11.72,10.36l-3.38-6.22c-.27-.62-.14-1.34-.45-1.95Z"/>
    <path class="a3" d="M371.29,386.82v1.44s.96,0,.96,0c.29-.63-.75-1.67-.96-1.44Z"/>
    <path class="a3" d="M211.76,413.23c-1.09-.88-1.91-2.43-3.59-2.41v1.92s-2.88-.48-2.88-.48c-.78,3.28,2.24,3.32,3.86,5.02,1.59,1.67,3.77,4.94,5.49,7,.26.31.19.83.27.92.26.3,1.65-.2,2.07-.53.98-.09,1.1-2.26,1.99-1.85.48.22,1.96,3.25,2.63,4.09.42.53,1.16,1.21,1.69,1.67.54.47.79,1.15,1.68.96.26-.28-1.15-3.4-1.5-4.01-2.47-4.29-7.82-9.14-11.7-12.3Z"/>
    <path class="a3" d="M315.89,429.05c-2.2-5.37-4.98-9.17-8.17-13.91-.45-.67-.43-1.6-1.67-1.45.05.29-.03.65,0,.96l5.78,15.34,2.33.07c.52,1.06,1.73,3.84,2.68,4.28.64.3.81-.14.73-.73-.16-1.11-1.2-3.37-1.68-4.56Z"/>
    <path class="a3" d="M373.21,393.06c-.26.31.4,2.86.59,3.48.15.49.2,1.43.84,1.31-.26-1.54.94-4.74-1.44-4.8Z"/>
    <path class="a3" d="M384.72,404.58c-.16.19.55,1.99.73,2.4.35.75-.02,1.18,1.19.96.19-1-.31-1.6-.74-2.4-.15-.29-.43-1.84-1.18-.96Z"/>
    <path class="a3" d="M378.01,391.62c.09.93-.25,2.12.22,2.9.32.52,1.52.64,1.69.46.25-.24-1.11-3.28-1.92-3.36Z"/>
  </g>
  <g>
    <path class="cls-3" d="M3.04,11.7v-1.36h4.13v1.36H3.04Z"/>
    <path class="cls-3" d="M12.35,15.76c-.77,0-1.44-.23-1.99-.7-.56-.46-.99-1.14-1.29-2.03-.3-.89-.45-1.98-.45-3.27s.15-2.37.45-3.25c.3-.87.73-1.54,1.29-1.98.56-.45,1.22-.67,1.99-.67s1.42.22,1.97.67c.55.45.98,1.11,1.28,1.98.3.88.45,1.96.45,3.25s-.15,2.38-.45,3.27c-.3.89-.73,1.57-1.28,2.03-.55.46-1.21.7-1.97.7ZM12.35,14.29c.39,0,.73-.15,1.03-.45.3-.3.54-.78.7-1.44.17-.66.25-1.54.25-2.64s-.08-1.97-.25-2.62c-.17-.65-.4-1.11-.7-1.4-.3-.29-.65-.43-1.03-.43s-.73.14-1.03.43c-.3.29-.54.75-.71,1.4-.17.65-.26,1.52-.26,2.62s.09,1.98.26,2.64.41,1.14.71,1.44c.3.3.65.45,1.03.45Z"/>
    <path class="cls-3" d="M20.98,15.76c-.59,0-1.12-.07-1.59-.22-.47-.15-.88-.35-1.24-.59-.35-.25-.67-.5-.94-.77l.86-1.2c.22.22.46.43.72.62.26.19.55.34.88.46s.7.18,1.1.18c.43,0,.81-.09,1.16-.28.34-.19.62-.46.81-.81.2-.35.3-.77.3-1.25,0-.73-.2-1.29-.6-1.7-.4-.41-.93-.61-1.59-.61-.37,0-.68.06-.94.17-.26.11-.56.28-.89.5l-.89-.58.34-5.6h5.83v1.57h-4.27l-.27,3.01c.25-.13.5-.23.75-.3.25-.07.53-.1.83-.1.65,0,1.24.13,1.77.38.53.25.95.64,1.27,1.17.31.53.47,1.2.47,2.02s-.18,1.54-.55,2.13c-.37.59-.84,1.03-1.43,1.34-.59.31-1.22.46-1.9.46Z"/>
  </g>
</svg>