<?xml version="1.0" encoding="UTF-8"?>
<svg id="a3" xmlns="http://www.w3.org/2000/svg" viewBox="0 0 600 500">
  <defs>
    <style>
      .cls-1 {
        fill: none;
      }

      .a3 {
        fill: #a98e6a;
      }

      .cls-3 {
        fill: #c9caca;
      }
    </style>
  </defs>
  <g>
    <path class="cls-1" d="M343.28,435.51s0,0,0,0c-.02-.02-.04-.03-.07-.06.03.02.05.04.07.06Z"/>
    <path class="a3" d="M310.44,108.09c-.14-.34-.1-.74-.09-1.1-.71.31-2.75.04-2.4,1.44.54-.09,1.08-.45,1.44-.24l-2.4,6.48c1.99.41,2.08-1.52,2.4-2.88.93.03-.07,1.49,1.68.96.76-.23.87-1.72.72-2.4-.1-.42-1.12-1.71-1.35-2.26Z"/>
    <path class="a3" d="M187.82,291.57c.06-.04.11-.08.18-.11-.06.03-.12.07-.18.11Z"/>
    <path class="a3" d="M443.9,329.54c-1.85.91-2.42-.23-2.11,2.93-1.27.45-2.45.64-3.82.5-.41.99.4,1.67.48,1.92.92-.41-.17-1.37,1.18-1.45,1.1-.06,2.18.1,3.29-.09,4.22-.71,1.93-6.04,1.77-6.14.01.96.29,1.79-.79,2.33Z"/>
    <path class="a3" d="M439.65,279.14c.09.05.18.05.24.1-.06-.05-.15-.05-.24-.1Z"/>
    <path class="a3" d="M436.05,280.68s-.52-.11-.72-.46c-.58-1.03.39-1.78-1.68-1.45.13,4.63,4.59,13.03,7.67,16.56.57.65,2.26,1.79,2.41,2.15h.96c-1.44-3.1-6.83-8.03-7.2-10.31-.28-1.77-.77-4.89-1.44-6.48Z"/>
    <path class="a3" d="M427.9,308.5l-1.89,4.02c.78.77,1.12,1.77,1.67,2.67.45.73.62,1.74,1.65,1.47-.14-1.71-1.45-3.22-1.48-5.04-.02-1.32,2.36-3.25.04-3.12Z"/>
    <path class="a3" d="M417.82,303.22l-.96,2.88c.94-.26,3.13-3.23.96-2.88Z"/>
    <path class="a3" d="M440.61,280.19l.24-.24c-.2-.4-.74-.52-.96-.72v.48c.17-.03.56.3.72.48Z"/>
    <path class="a3" d="M419.02,302.27c-.31,0-.31.48,0,.48s.31-.48,0-.48Z"/>
    <path class="a3" d="M394.31,396.65c.02-.3.06-.6,0-.83.06.22.03.53,0,.83Z"/>
    <path class="a3" d="M348.28,413.04c-.02-.17-.06-.33-.03-.43-.04.09,0,.25.03.43Z"/>
    <path class="a3" d="M343.45,435.65s-.06-.04-.12-.09c-.02-.01-.03-.03-.05-.04-.03-.02-.04-.04-.07-.06.03.02.05.04.07.06-.51-.41-1.94-1.7-2.24-2.02-.71-.74-.08-1.59-1.9-1.21-.45,1.47.48,3.18.48,4.32l.65.07c1.24,1.46,3.66.97,3.19-1.03Z"/>
    <path class="a3" d="M306.99,441.4c-.7-1.01-1.73-1.42-2.62-2.42-.87-.98-2.06-2.7-2.88-3.84-.79-1.1-1.8-2.52-2.18-3.82-2.42.03-.24,1.61.23,2.41.85,1.43,3.36,6.14,4.09,6.71.07.24-.13.77.02.93.15.14,2.68.04,3.34.03Z"/>
    <path class="a3" d="M329.06,437.08c.41-.73-1.34-2.1-2.4-2.4v3.36q-1.25-.17,0,0c1.37.18,1.75.18,2.4-.96Z"/>
    <path class="a3" d="M347.87,413.58c.12,0,.23-.02.3-.08-.06.06-.18.07-.3.08Z"/>
    <path class="a3" d="M316.1,436.12c1.88.13,2.72,1.49,4.55,1.92l-.24-3.36c1.07-.13,0,0,0,0-.4.05-.87.52-1.68.52-.78,0-1.35-.5-1.68-.52-.25-.01-.66.39-.96.48v.96Z"/>
    <path class="a3" d="M305.38,109.81c.1.02,1.99-.37,2.07-.43.11-.09-.02-.67.01-.94-.71.16-1.39.35-2.09.56l-.31.4h0s.1.36.32.41Z"/>
    <path class="a3" d="M437.07,203.46c.08.03.22.07.31.17-.09-.1-.23-.14-.31-.17Z"/>
    <path class="a3" d="M447.57,280.68c3.1.36,4.88,2.18,8.81,1.37.7-.15,3.67-1.02,3.78-1.06,0,0,0,0,0,0,0,0,0,0,0,0-1.76.23-3.26-.21-5.05-.88-.47-.18-.77-.71-1.13-.82-.46-.14-3.25.65-4.72.44-.24-.03-2.52-.88-2.64-.96-1.75-1.15-3.9-4.86-5.27-6.49-1.85-2.19-3.27-2.65-1.54.58,1.91,3.57,4.5,4.13,6.33,6.38.77.95-.21,1.25,1.44,1.44h0Z"/>
    <path class="a3" d="M433.17,255.73c-.19-.08-3.66-.52-4.09-.51-.63.02-1.15.16-1.67.51.23,1.13.37,2.66.48,3.84l.22.49c.71.46,3.89,2.91,4.1,3.35h.96c-.37-.85-1.29-2.72-1.44-3.36-.98.15-1.95-.17-1.92-1.2-.01-.81,1.58.2,1.92.24,2.64.31,2.8-.07,2.88-2.4-.92.32-1.35-.92-1.44-.96Z"/>
    <path class="a3" d="M404.64,230.32c-.47-.04-1.4-.77-1.67-.47-.17.19.06.82-.03.93,1.15,2.56,1.14,2.21,2.91.72.63-.53,1.26.06.93-1.68-.66.18-1.55.56-2.14.5Z"/>
    <path class="a3" d="M415.42,229.82h3.84v-1.44c-1.48.11-3.86-.67-3.84,1.44Z"/>
    <path class="a3" d="M431.74,245.17c.7-.07,1.27,0,1.94.22,1.18.39,1.59,1.74,2.85,1.7l.02-5.49c-1.12-.39-1.33-.99-1.46-2.19-1.11-.23-1.42,1.12-2.4,1.44.07-1.73-1.22-3.45-1.43-5.05-.1-.77.14-3.41,0-3.59-.53-.63-.93-.08-.96.71-.16,3.98-2.44,3.73-3.28,5.84-.15.37-1.06,3.57-1.06,3.77,0,.75,2.65,3.04,1.94,3.59-.21.16-1.95-.32-1.93,1.21.01,1.28,4.47,4.57,5.54,5.5.64.56,1.23,1.56,1.67,1.93h0c.4.34.93.42,1.44.48.61.07,2.32.33,1.92-.72-1.11-2.93-5.47-5.58-4.79-9.36Z"/>
    <path class="a3" d="M185.35,293.45c-.1.07-.21.14-.32.2-.16.09-.33.17-.5.25.17-.08.34-.16.5-.25.11-.06.21-.13.32-.2Z"/>
    <path class="a3" d="M294.99,274.44c-.52.52.43,1.48.96.96s-.43-1.48-.96-.96Z"/>
    <path class="a3" d="M188.7,291.12c-.07.03-.14.07-.21.1-.16.07-.31.14-.46.22.15-.08.3-.15.46-.22.07-.03.14-.07.21-.1Z"/>
    <path class="a3" d="M191.5,290.19c1.96-.72,3.92-1.56,5.88-2.3,1.92-5.89,4.56-11.54,7.49-16.98.56-1.03,2.57-3.42,2.3-4.35-.49-1.7-3.59-1.5-4.94-.7-.3.18-2.16,1.72-2.23,1.85h0c-.24.49-.96.96-.96.96,0,0-3,5.49-4.09,8.15-.94,2.28-1.51,4.88-2.38,7.21-.75,1.99-2.43,3.86-2.17,6.23.21-.08.7.07,1.1-.08Z"/>
    <path class="a3" d="M434.85,219.26c1.59-.76.62-4.1-1.2-3.84-.17.71.14,1.32.24,1.92.05.35.05,2.35.96,1.92Z"/>
    <path class="a3" d="M282.51,282.83c-1,.87-1.3,3.11-.41,4.01,1.62,1.63,5.14-.45,6.63-1.63,1.73-1.37,2.26-2.22,1.94-4.54-.3-.3-7.65,1.71-8.16,2.15Z"/>
    <path class="a3" d="M276.28,313.78h1.44s0-2.4,0-2.4c-1.47-.12-1.57,1.1-1.44,2.4Z"/>
    <path class="a3" d="M381.36,372.79l1.44,4.8c2.09.36.22-2.56-.24-3.36-.3-.54-.46-1.32-1.2-1.44Z"/>
    <path class="a3" d="M274.3,313.6c-.17-.6-1.14-.95-1.32-1.56-.2-.68.23-1.72-.3-2.1-2.15,1.47-.7,2.43-.33,4.17l1.05,7.35c.65.75,1.27-.78,1.35-1.29.14-.87.18-1.94.11-2.81-.06-.75-.39-3.17-.56-3.76Z"/>
    <path class="a3" d="M160.65,357.92s.41-.25.58-.61c.23-.47.32-1.27.38-1.31h0s0,0,0,0l-.43-.29c-.07-.27-.07-.54-.07-.81,0-.27.03-.54.02-.81,0,0,0,0,0,0s-.96,0-.96,0c0,0,0,0,0,0h0c.01.16.02.32.02.48,0,.65-.07,1.32-.05,1.96.01.49.08.96.26,1.4h.25q-.04.13,0,0Z"/>
    <path class="a3" d="M174.56,371.83c.43-1.55,1.1-3.55.98-5.23-.02-.24-.05-.48-.1-.7-.13-.55-.68-1.04-.81-1.59-.03-.12-.04-.28-.05-.47-.05-1.36.34-4.3.46-5.44h0s0,0,0,0c-1.45-1.1-2.56-1.8-4.48-1.36-.81.19-1.39.96-2.09,1.26-.63.27-1.55.34-2.06.58-1.01.46-.94,1.93-2.63,1.92l-3.12-1.44h0c-.09.09-.92-.26-.98.27-.15,1.2-.5,3.4-.48,4.73,0,.19.01.37.03.52.12.97,1.86,5.81,2.36,6.67.07.12.85.7.99.77-.01.8.24,1.85.57,2.56.31.67.82.72.87.8.07.12-.03.58.23.95.58.81,2.64,1.68,3.6,1.45.03,0,.38-.38.48-.48l2.4.48-.48-2.87c.81.32,1.29-.44,1.44-.48.57-.18,1.71-.34,2.4-.48.28-.06.65.04.96,0l-.05-2.11-.43-.28Z"/>
    <path class="a3" d="M253.94,132.93c.43-.06.17-.64.36-.86.24-.27,1.2-.34,1.34-.84.26-.89-2.6-2.99-3.6-3.12-4.14-.54-.63,3.09-.72,4.8.54.1,2.05.1,2.61.02Z"/>
    <path class="a3" d="M218.23,153.05h1.92c-.11,1-.07,1.08.96.96.06-.29-.09-.77,0-.96.18-.39.99-.76.99-1.68,0,0,0,0,0,0,0,0,0,0,0,0,0-.75-.99-1.12-1.02-1.97,0-.12.01-.25.05-.39.13-.48,1.91-1.39,2.38-1.22,1.81.65,1.2.09,1.92,0,0,0,0,0,0,0,.65-.08,2.73.14,2.87,0,.03-.03.04-.09.04-.16,0,0,0,0,0,0,0,0,0,0,0,0,0-.01,0-.03,0-.05,0-.06,0-.12-.02-.19-.01-.08-.02-.16-.03-.25,0-.03,0-.05,0-.08,0-.08,0-.14.02-.2,0,0,0-.01,0-.02,0,0,0,.01,0,.02,0,0,0-.01,0-.02h0c.23-.73.93-1.39.99-2.17.06-.91-.71-1.67-.51-2.62,2.67.73,3.45-.99,5.12-1.83,2.65-1.34,6.12-1.15,8.46-2.1.61-.25,1.04-.85,1.76-1.12,1.92-.72,5.1-.59,4.81-3.11.23-.29,2.26,1.55,2.4-.96-.74-.14-2.7-2.43-2.83-3.19-.1-.61.79-1.45.91-2.33.16-1.17-.25-2.71.06-3.78.23-.79,2.83-2.53,3.6-2.66.81-.14,1.11,1.21,2.09.92.83-3.74-2.09-5.95-3.46-8.77-.8-1.65-1.28-3.87-2.05-5.63-1.25-2.85-2.95-4.68-3.13-7.91-.04-.74-.31-2.27.48-2.64.05.06.1.11.17.17-.06-.06-.12-.12-.17-.17-3.58-4.22-5.9-9.08-10.1-12.78-3.56-3.14-6.91-6.38-11.01-8.8-.94-.56-2.19-1.58-2.89-1.92-2.54-1.26-6.53-2.09-9.35-1.91-.54.03-1.03.47-1.68.47-.98,0-1.98-.72-2.88-.96-.62-.16-1.42-.35-1.92-.48-2.28-.58-4.62-1.08-4.8,1.91h0c0,.07-.01.16-.01.24,0,.08,0,.17.01.23,0,0,0,0,0,0h0s0,.09,0,.13c0,.1-.02.21-.02.28,0,.04,0,.06.01.07-2.55-.45-1.68.68-1.92.96v.96c-.34,1.19,1.1,2.36.96,3.36-.18,1.28-1.87.61.26,3.34.96,1.23,2.3,2.81,4.06,2.42-.01.3.65,1.27.57,2.06-.01.11-.04.22-.09.33l-2.4-.48c-.08.51-.11,1-.09,1.48.14,3.35,2.54,6.05,3.71,9.07,1.59,4.12,2.13,8.06,4.48,11.84.36.57.94,1.69,1.03,2.33.16,1.13-1.38.84-2.17.72-1.16-.18-3.98-2.47-4.56-1.92-.02.02-.03.06-.04.1-.06.6,1.87,3.26,1.97,3.98.21,1.48-1.72,3.91-1.94,5.77-.02.17-.03.31-.02.45.02.93.5,1.15.51,1.23.03.21.03.42.02.63-.02.43-.07.87-.05,1.3,0,.22.04.43.1.64.12.41.74.87,1,1.4.28.58.29,1.49.47,1.72.1.13.6,0,.74.17.35.39.64,1.34,1.09,1.82-.01.02,0,.06,0,.12,0,.06.02.15.03.24.01.18,0,.37-.13.5-.28.26-.93-.13-.91.49,0,.09.02.2.05.33l4.77,5.32c.04.13.06.25.06.36,0,.78-.88,1.14-1,1.98-.02.15-.03.3-.03.44.01.88.4,1.75.47,2.2,0,.07.01.13,0,.18-.1.45-.77.72-.9,1.03-.05.13-.08.23-.09.31-.06.58.79.3.97.45.09.07.11.23.11.42,0,.26-.06.57-.05.8,0,.06,0,.12.01.17.1.53,1.91,4.51,2.14,4.82.67.91,1.08-.45,1.22,1.89.1,1.72.64.66.96.96.02.02.03.22.03.43,0,.22,0,.45-.03.52-.13.41-.32.97-.48,1.44,0,0,0,0,0,0,0,0,0,0,0,0,.7-.15,1.04-.74.96-1.44ZM218.29,133.69c.16-.55.93-.78.94-1.44,0-.09-.01-.2-.05-.31l-2.39-.24c.18-.06,1.55-3.34,1.62-3.65,0,0,0-.01,0-.02l.36-.81,3.63-1.92c.05.09.08.18.1.28-.16,1.26-1.28,2.7-1.42,3.86-.02.12-.03.24-.02.35,0,0,0,0,0,0,0,0,0,0,0,0,0,0,0,0,0,0,.07.71.66.98.89,1.54.95,2.33.89,5.77,1.06,8.3.02.29-.07.8,0,.95l-2.4.25c-.43-.29-.5-.77-.49-1.3,0-.26.03-.53.03-.79,0-.26,0-.52-.07-.74-.28-.98-1.85-1.27-1.97-2.92-.03-.38.02-.83.18-1.38Z"/>
    <path class="a3" d="M228.33,147.55c0-.06,0-.12-.02-.19,0,.07.01.13.02.19Z"/>
    <path class="a3" d="M228.29,147.11s0-.05,0-.07c0,.02,0,.05,0,.07Z"/>
    <path class="a3" d="M170.73,400.14s1.27-3.31,2.88-2.4c.7.4.37,2.96.49,4.55.09,1.27.32.71,0,2.17-.07.29.09.74,0,.96,1.55-.38,3.37.57,4.08,1.92.28.53.17,1.32.25,1.42.1.13,1.82-.03,2.38.02.47.04.99-.06,1.44,0,.04,0,.11.37.33.4,1.98.3,3.97.44,5.91,1.04-.22-.89.33-4.44.96-4.8.48-.27.92.2,1.44-.96,1.45-.26.82.64,1.07,1.57.11.42.37,1.67.42,1.74.3.38,3.51.93,4.29,1.23,1.31.52,1.7,1.93,3.34.74.17,1.94,0,1.21-1.17,1.46-1.37.28-5.18,1.17-5.8,2.37-1.54,2.98,3.1,3.24,4.57,4.1.46.27.72.98,1.26,1.14,1.35.4,4.04-.08,5.69.07,2.01.18,7.95,1.95,9.38,1.2.69-.36,1.66-1.6,2.72-2.07,2-.89,3.22-.53,5.11.45.86.45,2.55,2.13,3.01,2.27.38.11,2.01.14,2.1.06,1.01-.88-1.54-1.02-.96-1.44.11-.08,1.31-.05,1.64.04,1.29.37,1.37,3.71,1.78,4.22.24.3,3.13,1.29,3.77,1,.76-2.21.69-4.49.01-6.7,1.46-.16,3.05.98,3.78,2.22,1.31,2.24,2.49,5.81,3.68,8.33.26.56.12,1.23.22,1.45h-1.44c-.04-.07-.83-.6-1.28-1.02.45.42,1.24.95,1.28,1.02h1.44c.07.17,2.53,2.27,2.88,1.92l.05-2.12.43-.28c-.97-1.96-1.01-3.36-1.56-5.4-.46-1.71-1.46-3.33-1.32-5.15.81-.12,1.08,0,1.69.47,1.58,1.21,4.69,4.65,6.28,5.24,1.52.57,1.01-.76,1.6-1.18.68-.48,1.65.29,1.47-.94-.2-1.36-2.67-2.45-2.4-3.35.24-.82,1.86-.88,2.58-.67.61.18.91,1.12,1.56,1.32.51.16,1.49-.03,1.61.07.21.18.07,4.69.02,5.53-.08,1.57-.68,2.86-.52,4.8.03.4.42,2.51.5,2.62.52.72.84-.06,1.05-.62.71-1.95.78-3.9,1.34-5.87v-4.07c1.38-.44.86,1.19,1.72,1.43.75.21,1.38-.56,2.13-.47l3.36,14.4c1.01.04.92.22.96-.72.12-2.61-.31-2.33,1.36-4.41.17-.21.32-1.56,1.04-.63.33.43,1.85,5.87,1.92,6.72.03.32-.02.64,0,.96.51.05.83-.19.96.48.09.5-.24.86.24.96.99.21.66-.21.72-.96.01-.14.03-.34,0-.48-.03-.15.03-.32,0-.48h1.92c.05.29-.03.65,0,.96.35.14.34.14.48.48.21.52.09.42.48.96.37.51,1.17,1.18,1.37,1.76.4,1.22-.65,1.9,1.51,1.6.27-.91-.7-1.11-.89-1.75-.19-.65-.03-1.41-.07-2.09v-.48c-1.56-1.83-4.12-8.99-5.66-11.85-1.25-2.32-2.7-3.16-2.01-6.38.42-.49,1.89,1.08,2.15,1.45,2.24,3.13,3.96,7.44,6.08,10.72.32.49.78,1.13,1.37,1.27-.2-1.49-1.02-3.46-1.67-4.81-.39-.8-3.12-4.81-2.65-5.27.67-.13,1.06.26,1.59.56,1.52.86,9.74,6.37,10.64,6.15.48-.12.89-.81.49-1.44-1.16-1.84-5.54-2.87-2.89-5.77.48-.52,1.1-.39,1.21-.47,1.39-1.02-1.35-.9-1.44-.96l.48-3.36c2.13,1.27,1.89,3.8,4.15,5.2,1.33.83,1.81.64,2.34-.87.37-1.05-.27-2.27,1.18-1.94.05.88.75,1.64,1.24,2.36.5.75.56,1.74,1.64,1.48-.71-2.43-1.67-4.86-2.63-7.2-.58-1.42-1.79-2.71-1.69-4.31,1.6-.43,2.48.5,3.69.88.49.15,1.38-.03,1.55.12.06.06.3,1.11.59,1.57,2.08,3.36,4.26,6.66,6.23,10.08l4.73,6.54h.48c-.12-4.17-3.34-7.38-5.04-11.03-.24-.51-.3-.89-.24-1.44,2.45.4,3.36-2.15,5.93-1.37.4.12.66.66,1.11.82.56.19,1.18-.03,1.59.07v-.48c-.09-.05-.47-1.08-.74-1.42-.49-.63-2.43-2.77-2.56-3.2-.54-1.84.03-2.79,1.87-1.87,1.84.92,3.41,4.56,4.43,5.43.51.44.62-.49.84,1.05h.96c.06-1.33.13-3.03,0-4.32,0-.04-.39-.11-.49-.69-.09-.53.06-1.15,0-1.71,1.07.02,1.34,1.84,1.44,1.92.09.07.62-.16.87.07.24.23,1.18,2.76,1.6,3.46.83,1.4,2.52,2.6,2.35,4.61h2.39s0-2.87,0-2.87c-1.51-.13-.66-.19-1.33-1.3-1.49-2.47-3.6-4.8-5.62-6.87l-1.45-3.35c.57.76,1.54,1,2.18,1.66,2.49,2.57,4.82,7.19,7.18,9.85h0c.81.92,2.58,2.29,3.84,2.4.12,1.51,1.77,2.1,2.5,3.49.65,1.22.97,2.81.86,4.18.85-.08,1.48.5,1.45-.73-.05-1.77-2.01-3.56-2.17-5.51-.44-1.13-2.23-1.59-2.64-1.92-2.03-1.68-8.01-9.79-9.52-12.31-.29-.48-1.77-3.3-1.52-3.52,1.01.11,1.26.1,1.92-.48.16-.15.11-.75.72-.48l.24.25-.48.24c3.03,2.33,6.8,10.45,10.41,11.44.41.11.74.05,1.1.08-.42-.65.52-1.49.96-.96.11.14-.1.74,0,.96.46.96,4.65,3.63,5.28,5.28h.96c.02-.73.01-1.22-.22-1.94-.71-2.21-2.82-5.33-3.88-7.64-.8-1.73-2.04-4.47-2.62-6.26-.14-.43-.95-1.45-.24-1.44.69-.05,1.41.77,1.68,1.44.08.19-.15.7.04.9.12.13,2.83,1.35,3.14,1.44,1.7.47.95-.66,1.13-.9v-1.92c1.19.17.77,1.47.96,1.92.02.04.52.13.7.48,1.57,2.89,2.98,7.51,6.97,7.2-.13-.64.19-1.96,0-2.4-.07-.16-1.49-.61-.96-1.92h1.92c.31-.76.91-.87.96-.96.35-.63.26-2.18,1.44-2.4-.1.57.2,2.12-.06,2.36-.2.19-.77-.04-.9.04-.07.04-.02,1.21.07,1.6.32,1.3,1.95,2.48,3.28,2.71,1.27-2.4-.25-3.35-.87-5.13-1.09-3.19,0-6.04.39-9.26h1.44c.42-1.41-.8-.79-.96-.96-.1-.11-.44-2.41-.48-2.88-.07-.82.35-1.7.96-.96.11.14-.11.74,0,.96.03.07.93.43,1.21.96.24.47.13,1.12.32,1.37.11.14.58,0,.75.15.46.4.32,1.97,1.55,2.31-.06-.79-.15-1.16.72-.96.52.12.1.83.24.96.1.09.72-.14.91.03.54.5-.6,2.28-.39,3.01.15.5,1,1.53,1.4,2.71h.96c-.46-2.05-.79-4.82-.5-6.92.05-.34,2.35-.72,2.45-2.91.07-1.41-1.95-7.44-1.47-7.92.05-.05,1.3-.25,1.43.31.25,1.11.72,1.36.89,1.93.52,1.68.46,5.66,1.25,6.9.25.38,2,1.12,2.18.94.1-.11-.1-.87,0-.96.1-.09,1.04.05,1.44,0,.68-.08,1.5-.06,2.11-.46.56-.37-.12-1.38,1.72-.98.28,1.04.74,4.15,1.18,4.82.35.53,3.74,2.31,4.59,3.1.45.42.37,1.15.71,1.21.49.08.99.2,1.2-.29.37-.85.72-1.85.44-2.79-.26-.87-4.96-2.22-4.27-4.6.55-.53,3.58.88,3.84,1.44h.96c-.07-.24.02-.65,0-.96-.04-.48-.08-2.31,0-2.4,1.01-1.01.87.79.96.96.1.2.82.05.96,1.44.13,1.23-.66,3.56,1.17,2.85,1.34-.51,2.82-3.29,2.67-4.77h0c-.02-.19-.36-1.05-.48-1.44h.96c0,.48,0,.96,0,1.44.6.05,1.33.09,1.7-.46.96-1.41-1.25-2.98,2.62-2.42-.09-.76.12-1.69,0-2.4-.1-.56-.75-1.16-.88-1.76-.21-.98-.02-2.05-.07-3.04.86.37,1.41,2.02,1.7,2.86.27.77.09,1.56.22,1.94.26.78,1.21,2.02,1.44,2.88h.48c-.23-.17-.8-4.69-.95-5.53-.41-2.3.82-2.25-1.45-4.07h0c-.56-.45-1.48-.75-1.46-1.67,0-.44.4-.93.49-1.46.12-.76.47-1.98.49-2.15.24-2.03-.52-3.56-.52-5.04,0-.9.75-1.83.52-2.64-.02-.05-.35-.1-.42-.31-.51-1.6,1.17-1.73.9-.17.57-.08,2.28.12,2.4,0,.11-.11-.08-2.01,0-2.63.13-.98.71-1.54.95-2.17.15-.38-.27-.97.24-.96.59,0,1.06.32,1.2.96.44-1.19.25-3.56,0-5.03-.28-1.6-3.37-8.86-2.39-9.84.12-.12,1.07-.04,1.45.22.69.48,1.59,5.16,2.38,6.25.04,3.28-.05,6.56,0,9.84.02,1.47-.3,4.72.23,5.77.66,1.31,2.74.67,4.08,1.68.52.4,1.7,2.03,1.93,2.63h.96c-.06-.65-.41-1.13-.47-1.68-.2-1.67-.44-3.02,1.31-2.65.07-.35.17-.7.31-1.04-.28-1.52-.24-3.66-.11-4.85.02-.21.4-.28.4-.33.05-.3-.03-.65,0-.96.03-.31-.02-.64,0-.96.87-.07,1.67-.04,2.4.48-.07-2.04-1.09-1.77-1.37-2.71-.46-1.5.78-1.81-1.96-1.63l-2.92-13.15.98-2.18c.51,2.83,1.27,5.61,1.9,8.41.99,4.4,1.06,4.43,3.85,7.9.2-3.59-.95-7.18-.49-10.81.26-2.03,1.87-1.14,2.33.58,1.04,3.92,3.11,12.16,2.49,15.99h.96c.63-3.8,2.06-7.19,1.45-11.29-.12-.83-1.46-2.53-1.83-3.45-.35-.87-1.94-5.49-1.54-5.9,1.8-.36,1.19.42,1.9,1.21.59.66,1.4,1.23,1.95,1.9.73.9,1.74,3.17,2.63,3.61,1.05.52.79-1.65.72-2.16-.06-.39-2.35-4.74-2.62-5.05-.54-.62-1.33-.31-1.62-.54-1.66-1.27-4.25-10.14-4.39-12.4-.05-.87.08-1.76,0-2.63-.13-1.38-1.56-2.46.97-2.17.05,1.45-.23,3.51.48,4.8.04.08.38.06.5.25.29.44.39.98.75,1.21.77.48,2.47.39,2.56.48.08.08.44,1.78.49,2.15.1.66-.15,2.4.05,2.59.45.41,1.49.73,2.36,1.71.67.76,2.3,3.48,2.86,3.86,1.83,1.28,6.44,1.2,8.65,1.19.67-.61-3.03-3.26-3.36-3.36-1.36-.41-4.72-.19-5.28-2.16l3.63.71c.55.05,1.1.03,1.65.01,1.27-.03,2.72-.05,2.9-1.67.2-1.85-.99-1.37-1.93-1.93-1.09-.65-1.45-1.44-1.97-2.09-.2-.26-3.2.34-4.74-.8-2.41-1.78.61-2.93.47-5.03,1.09-.28,1.47,1.15,2.19,1.41,1.59.57,1.04-.76,1.17-.93.01-.02.06-.02.14-.02-.07,0-.12,0-.14.02-1.11-1.29-.1-2.17.73-.95.26.39.17.87.23.95.08.11.66.31.97.69,1.61,2.01,2.03,3.76,5.27,3.14-.26-1.49-.28-3.09-.46-4.52-.08-.67-4.8-2.25-5.09-2.65-.87-1.23-.81-4.94-.72-6.52.05-.9,1.02-3.97.48-4.51-.34-.34-2.54-.31-3.11-1.45-.55-1.1.21-1.87-.71-2.89-.91-1.02-.03-.79,0-.96h0c.19-1.2-.43-1.8-.48-2.4-1.21-.26-.96.52-1.34,1.29-.6,1.19-1.02,2.74-1.59,3.69-.35.59-.64.92-1.38.78l-.48-3.36-2.4.48c-.46-1.86,1.63-3.09.72-4.8-.66-.27-.52-1.83-1.44-1.44-1.07.46-.59,2.23-.75,2.37-.13.12-.95-.07-1.43.24-.36.23-.67,1.19-1.17,1.71-1.02,1.05-2.18,1.61-3.14,2.62-.58.61-1.19,1.75-1.82,2.5-.51.61-.03.87-1.53.62l6.16-15.67c.6-.72-.44-1.72-.89-1.13-.05.07-.05.69-.46,1.21-1.26,1.57-2.28,1.25-3.47,3.73-2.12,4.42-3.05,10.11-4.81,14.87-.91,2.45-2.55,6.96-3.99,8.97-.29.41-1.28,1.38-1.67.97-.41-.43,3.63-8.74,3.85-10.31.13-.91-.03-.7-.73-.73-.67-.03-2.59.42-2.16-.72.38-.99,1.59-2.33,2.16-3.59,1.71-3.75,3.7-9.62,4.06-13.69.49-5.59-.63-4.23,2.35-9.17.75-1.24.77-3.75,3.12-3,.6.19.82,1.19,1.93.87,1.05-.3,1.45-1.97,1.77-2.32.17-.19,2.19,0,2.83-.04v.96s.24,0,.24,0h.24s0-.96,0-.96c.03,0,.09-.38.31-.43.45-.09,1.05.57,1.61.43.02-.81-.17-1.64.23-2.41.24-.47,1.83-2.55,2.65-2.39-.23,1.17-.66,2.37-1.06,3.5-.47,1.31-2.08,4.42-2.23,5.45-.06.42.32.9.4,1.39.07.49-.07,1.58.02,1.66.12.11,2.25-.09,2.87.96.43-1.43.78-2.89,1.2-4.33.12-.41.54-1.74,1.19-.95.24.29-.73,4.69-.95,5.53l-.25,4.07c1.01-.69.94-2.02,1.44-2.87,1.27-2.16,2.2-2.5,3.5-5.61.21-.51.45-1.66,1.05-1.59.29,2.42-.48,4.7-.86,7.06-.15.94-.58,1.82.86,1.58.34-2.23,1.2-4.25,1.43-6.01.22-1.68-.78-3.92.99-4.33v-3.31l-1.01-.52.02-1.66c.6-.08,1.37.12,1.92,0h0s.11-.27.33-.4c.24-.14.58-.03.63-.08.58-.62-1.15-5.09-.96-5.28.64.01,1.28-.02,1.92,0,2.01.07.97.06,1.68.93.7.86.83,1.41,1.2,1.95.04.06.48.13.72.48.52.75-.08,1.24,1.68.96.08-.45-.11-1.82,0-1.92-1.65-.8-1.33-2.83.48-1.44-.55-2.37-1.92-2.95-1.94-3.15-.14-.98.31-2.09-.2-3.1-.8-1.57-8.08-7.51-9.87-8.36-1.69-.81-4.15-.46-5.03-2.16-.84-1.61.42-1.52,1.22-2.18.78-.64.11-1.7,2.39-1.2.04-.1.62-.19.5-1.17-.24-2-.38-4.02-.98-6.03-.28-.93-.59-1.11-.87-1.77-.18-.43-.04-1.03-.32-1.6-.68-1.37-4.3-1.06-5.76-.94-.85.07-2.95.37-3.77.55-.19.04-2.14.81-2.23.89-.39.35.37,1.51.47,1.91h1.44c-.14.8-.78.89-1.44.96-3.11.35-1.29.48-2.36,1.23-1.47,1.02-6-.13-4.35,3.57-2.08-.14-3.1,1.6-1.92,3.36.39-.05.46.12.48.48h-.48c-.35.2-1.13.66-1.44.48-1.33-.78-.51-.87-2.88-.96-.29-.01-.9.06-.96,0-.09-.1.06-.67,0-.96-.18-.87-.43-2.82-.71-3.37-.39-.78-1.41-.78-1.65-.99-.1-.09-.11-1.8-.03-1.86.3-.24,2.73-.39,3.35-.5.06-.01-.06-.31.96-.48,1.32-.22,3.41-.39,4.8-.48l-.48-.96c-2.88-.34-2.13-1.94-2.88-2.4-.3-.18-1.4-.02-1.44-.96.42-.08,1.15.12,1.44,0,.13-.05,1.65-1.92,1.44-2.4,1.02.05,2.06-.04,3.09.02l.3-.31-.03-.68c.42.2.71-.24.96-.48.41-.4.47-1.11,1.6-1.05l.32-.39c-.34-.09-4.2-2.63-4.32-2.88l-3.39-1.19c-.7-.56-.01-.63.03-.73.3.05.7-.07.96,0,.04-.21.05-.39.03-.57-.13-1.22-1.52-1.79-1.87-3.13-.04-.15-.06-.29-.06-.43,0-.13,0-.26,0-.39,0,0,0-.01,0-.02,0-.13.01-.27.01-.39,0-.13,0-.25-.03-.36-.03-.15.03-.32,0-.47-.37-1.9-1.06-3.8-.96-5.76.67.52,1.48.34,2.07.57,1.55.61.63,1.21,2.73.39.42-2.02-1.81-1.81-2.4-3.36-1.44.28-.77-.59-.96-.96-.56-1.08-1.22-2.56-1.92-3.36.03-.6.03-1.2.02-1.8,0-.6-.02-1.2-.04-1.8-.03-1.2-.06-2.4.02-3.59.06-1.06.12-1.85.48-2.88h.48c.07.99.35,1.89.48,2.88.27,2.04.62,3.01.96,4.8h1.44s.33-.16.48-.48h0c.83-1.76,1.07-1.19,2.17-2.38,1.65-1.78,3.05-2.39,4.55-4.08,4.09-4.61,7.35-11.84,11.5-16.81.96-1.16,2.3-2.47,3.85-2.63.2-.94.56-1.04,1.09-1.55,1.27-1.19,2.2-2.08,3.71-2.77l-.07.65c-.6,2.04-2.8,2.71-3.77,3.67-3.5,3.5-9.25,11.73-11.92,16.15-1.41,2.33-2.71,5.78-4.17,7.83-.61.85-1.9,1.61-2.38,2.42-.72,1.2-.79,2.94-.72,4.31.07.05.01.82.7,1.46.65.6,2.58,1.38,2.93,1.87.49.71.04,2.24.23,2.41.1.09,2.33.53,2.62.53.75,0,1.69-.41,2.64-.52v-.96c.63-.04,1.29.05,1.92,0,.64-.05,2.6-.69,2.88-.96.11-.1-.11-.85,0-.96s.75.11.96,0c.5-.25,1.76-3.49,1.92-4.32.05-.29-.03-.65,0-.96.99-.25.9.45.96.48l-.32.41.32-.41c1.08.54,1.76-1.56,1.92-2.4.05-.28-.03-.65,0-.96,1-.25.9.46.96.48,2.19.58,1.2-1.12,1.44-1.44,0-.64,0-1.28,0-1.92.01-2.45.17-2.03.96-3.84.22-.49.29-1.86.72-1.92,1.93-.28.95.59,1.2,1.92.15.81,1.55,1.43,1.92,2.4h1.44s.52-.08.49-.69c-.03-.82-1.12-3.44-1.45-4.59-.01-.04-.38-.05-.49-.69-.09-.53.06-1.15.01-1.71l1.92.48c-.08-.4.01-.98,0-1.44,1.42.05,1.43-.77,1.44-1.92,0-.31.05-.68,0-.96-.01-.06-.44.13-.48-.96-.03-.98,1.45-5.14,2.03-5.67.15-.14.58-.03.73-.18.32-.31.36-.94,1.1-1.57.71-.61,3.48-2.37,4.3-2.65.23-.08.66.05.96,0-.11.09-.07,2.41,0,2.88.11.7.82,2.47,1.44,2.88,0-.05.37-.1.42-.31.09-.42-.35-1.48.06-3.05.3-1.12,4.26-8.1,4.87-8.56.3-.23,1.23.08,1.64-.52.41-.59.13-2.01.93-2.91,1.16-1.32,4.66-3.38,6.25-4.79,3.43-3.04,7.4-7.34,10.05-11.07,1.37-1.94,2.42-4.35,3.88-6.2.81-1.02,2.18-1.92,2.85-2.91,1.55-2.31,2.96-8.41,4.47-11.37,1.57-3.09,4.42-6.5,6.27-9.57.51-.85,3.31-5.34,2.48-5.92-3.02.3-.45-1.32-.48-2.64-.04-1.81-.72-1.6.23-4.09.65-1.71,5.92-12.07,5.04-12.95-.92-.13-1.65.23-2.38.73-.66.46-2.34,1.67-3.28,3.14-.49-1.15.51-3.08.06-3.5-.86-.8-1.38,1.25-1.05-1.53.06-.47.58-1.79.77-2.06.44-.62,3.19-4.25,3.87-5.77.48-1.08,1.11-3.06-.62-3.04-.59,0-1.85,1.3-1.68-.22,2.42-2.66,5.83-3.8,8.8-5.59,1.94-1.17,3.93-2.29,1.77-4.5-.87-.9-1.86-.63-1.94-.7-2.06-.3-3.86.23-5.76.48-.98.13-1.9.34-2.88.48-.16.02-.32,0-.48,0-.07-.43.38-2.31.48-2.4l.06-.68.42-.28c-.07-.18.16-.64-.08-.88-.23-.23-.81-.01-.88-.08h-4.32c-1.14,1.34-2.73,6.24-4.56,6.26-1.52.02-1.57-3.29-2.88-2.9l-2.16,2.88s0,0,0,0c-.05-.08-.74-.17-.9-.77-.15-.57-.24-1.02-.26-1.37-.09-1.52,1-1.25,2.6-1.69,0,0,0,0,0,0l.26.48.7-.48s0,0,0,0c.51.22,5.08-2.54,6.24-2.88h0s0,0,0,0c0,0,0,0,0,0-.46-.19-.51-.61-.5-1.08,0-.23.02-.48,0-.71-.02-.23-.06-.45-.19-.64-.32-.46-1.45-.49-1.66-1.22-.06-.21-.07-.41-.07-.6,0-.2.02-.4.02-.59,0-.39-.07-.77-.47-1.16-1.38-1.36-4.33-.29-5.94-.77-.38-.11-1.38-1.37-1.75-.89,0,0,0,0,0-.01,0-.21.44-2.15.45-2.51,0-.03,0-.05,0-.06-.07-.24-1.16-1.4-1.39-1.51-2.07-1.05-4.57.77-6.49.77-1.01,0-1.98-.8-3.12-.52-.06.43-.09.71-.08.91.03.59.39.39,1.01.79.32.21.58.65.59.95,0,.1-.02.18-.08.23-.11.1-2.14.38-2.89.71-.66.29-1.44,1.1-1.73,1.16-.48.1-1.34-.69-2.09-.43.89-.84,1.32-1.53,1.28-2.07-.05-.7-.87-1.14-2.51-1.29-1.85-.17-5.19,1.2-7.19,1.44-.44.05-2.06.08-2.15.01-.16-.14-.25-.26-.27-.37-.07-.33.4-.55.99-.58,1.93-.09,5.95-.72,7.7-1.42.47-.19,1.21-.4,1.22-.96,0-.08,0-.17-.04-.26-.41-1.29-2.98-.32-3.86-.94-.35-.25-.9-1.54-1.65-2.19-6.17-5.44-19.21-3.52-25.67.74-1.32.87-3.88,3.86-4.8,4.32-.76.38-1.61.23-2.41.23,0,0,0,0,0,0-.32,0-.64,0-.96,0-.06.26-2.48,1.4-3.13,1.91-5.27,4.22-10.3,10.38-14.62,15.36,1.93.97.39,1.4.08,2.72-.17.69.06,1.72-.07,2.08,0,0,0,0,0,0-.09.21-2.79,2.39-3.37,3.11-1.37,1.72-3.86,6.65-4.22,8.74-.1.59-.1,1.18-.08,1.76,0,.29.02.58.02.87,0,.29,0,.58-.03.87,0,0,0,0,0,0-1.44-1.31-1.57-2.57-4.02-1.86-1.17.34-2.09,2.67-2.69,3.07-.45.3-1.13.21-1.72.68-.78.63-2.24,3.45-2.71,4.49-.35.78-1.2,3.99-1.37,4.15-.14.14-1.84-.05-2.54.1-2.19.48-5.16,4.42-5.54,6.49-.17.94.71,2.05.35,3.67-.36,1.6-2.44,2.55-2.73,3.5-1.77,5.86-1.82,16.76-1.53,22.98.05.97.53,1.72.53,2.86,0,4.7-1.14,7.6.2,12.73.76,2.93,3.31,7.68,2.65,10.06-.39,1.42,3.28,6.75,4.55,7.69,1.27.94,1.98.7,3.15,1.17,1.17.47,1.74,1.66,3.34,1.22l.47-4.55c-.76-6.27-3.84-12.98-4.33-19.18-.14-1.81.64-3.18.52-4.84-.16-2.18-.88-5-1-7.16-.1-1.7-.29-7.89.07-9.09.16-.54,1.14-1.04,1.39-.77.12.14-.07,2.43.01,3.12.06.51.46.98.47,1.19.06.92.09,1.83.1,2.75.02,1.37,0,2.74.04,4.12.04,1.38.12,2.77.34,4.17,0,.04.48.14.5.51,0,.05,0,.11-.02.17-.11.38-.47.25-.48.27-.03.11-.04.27-.04.46.03,1.35.83,4.49.99,5.55.57,3.79,1.99,9.55,3.37,13.19.01.03.49.09.51.5,0,.06,0,.12-.03.2-.1.36-.47.23-.48.26-.06.14-.08.3-.06.46.15,1.12,2.17,2.54,2.39,3.23.05.14.07.28.07.42.01.28-.03.57-.03.82,0,.13,0,.25.02.36,0,.04.4.11.49.69.06.36.09.67.09.92.06,1.77-.89,1.08-1.06,1.26-.09.1-.01,1.65-.96,2.4,0,0,0,0,0,0,0,0,0,0,0,0-.09.07-.42-.05-.65.09-.41.24-.77.71-1.1.82-1.56.51-4.26-1.31-5.45-2.34-.22,1.71,1.71,2.69,2.31,4.17.3.76.45,2.16.57,3.03l2.4-.48-1.91,3.13c-2.09,2.33-2.75,1.06-3.39-1.43,0-.45.69-.15.93-.3.1-.07.11-1.34.06-1.38-.38-.3-2.5-.6-3.1-.51-.45.06.02,1.42-.97.98-1.99-.88.13-3.23.25-4.07.19-1.3.14-4.07-.73-5.05-.5-.56-1.48-.68-1.92-1.44-.53-.91-1.12-1.8-1.62-2.7-.64-1.14-1.08-2.69-1.02-4.02-2.31-.26-3.61-3.99-4.32-4.32-.22-.1-.87.1-.96,0-.09-.1.05-1.04,0-1.44-.11-.92-.37-1.59-.48-2.4h-.96s0-2.4,0-2.4c-.12-.12.2-1.03-.06-1.37-.12-.15-.76-.13-1.14-.54-.85-.91-.61-2.78-.71-2.9-.76-.87-1.09.92-1.42,1.21-.67.57-2.06.71-2.67,1.66h-.7c-1.74-4.09-5.07-4.24-4.32,1.21,3.36,7.45,5.49,15.36,7.43,23.28l5.05,3.59c-.36.53-1.25.03-1.93.46-1.73,1.1,1.18,3.16,1.4,3.91.28.96-.17,4.24.06,4.5,2.53-1.58,1.93,2.73,2.47,4.48.47,1.51,1.38,4.21,2.31,4.86.87.61,1.52,6.96,1.45,8.41h1.44c.07-1.83-.09-3.69,0-5.52.05-.94-.06-.75.96-.72,1.04,3.55.72,7.01.96,10.56.14,2.03.14,2.28,0,4.32-.21,3.06-.23,6.04-.48,9.12l1.34-2.74c.52-5.22.44-10.43.09-15.72-.06-.88-1.24-2.43.25-3.13.81-.38,1.03,1.32,1.1,1.78.25,1.68.31,3.46.55,5.15.07.46.72.16.91.32.19.17.68,3.82.49,4.44-.14.47-.78.69-.9,1.49-.25,1.68-.38,4.84-.49,6.71-.05.78-.14,4.86.02,5.06,1.19,1.4.92-2.25.97-2.63.29-2.23.67-2.94.49-5.3-.07-.86.4-3.81,1.42-2.63.11.12.9,2.74.95,3.13.13,1.03.19,4.85-.05,5.69-.13.45-1.2,1.28-1.63,2.21-1.5,3.21-1.9,7.65-3.11,11.04-.52,2.14,1.2,1.12,2.4,2.15,2.56,2.21-.27,10.14-.48,13.2-1.03.04-.91.22-.96-.72-.1-1.89,1.66-6.15-.79-6.89-1.3-.4-1.98.67-1.6-1.74.17-1.07.67-5.21.47-6.01-.01-.04-.39-.1-.49-.69-.18-1.02.66-2.53-.95-2.19.4,1.05-.82,1.76-.91,2.22-.08.43.41.9.42,1.38.01.47-.67,3.17-.95,3.36l-.96-.48c.42-2.18.63-4.46,1.05-6.62.57-2.93.57-4.56.87-7.53-1.59.05-1.39.33-1.44-1.19-.03-.88.02-1.77,0-2.65l-1.92,2.4c-.3-1.3.43-2.41.5-3.58.24-3.8-.32-7.55-.5-11.3-.12-2.48.4-5.1-.47-7.45-.17-.63.29-3.59-.25-3.59-1.23,0-.69.74-.72,1.68-.08,3.05.5,6.1.48,9.36-.01,1.35.07,2.73,0,4.08-.04.78-.42,1.36-.96.72-.21-.25.15-4.1.01-5.05-.12-.79-.74-1.01-.9-1.5-.85-2.72.07-5.76-1.44-8.16l-1.04-7.36c-.72.08-.76.68-.95,1.21-.64,1.84-1.13,3.72-1.93,5.51-1.02.04-.91.22-.96-.72-.07-1.51.05-3.05,0-4.56-1.64.95-2,3.36-4.32,3.36-.08-.51.25-1.93-.24-1.92-1.18.24-1.69,1.56-2.96,1.84-1.57.35-3.3-.46-3.71-.38-1.02.21-2.1,4.11-1.5,5.27.86,1.67,3.09,1.34,4.57.95-.35,2.58.98,2.61,3.11,2.39.81-.08,3.32-1.47,2.65.73-.41,1.36-2.18.02-2.38.25-.05.05-.02.56-.27.93-.85,1.25-3.93,4.7-3.58,6.01.15.56,1.02.88,1.64.7.9-.27,1.31-2.05,1.96-2.36,1.11-.53.55,1.23.74,1.42.08.08,1.14.08,1.42.02.08.93-.11,1.98,0,2.88.07.58.32,1.58.57,2.07.61,1.18,2.19,1.57,1.83,3.21-1.06.26-1.02-.45-1.44-1.2-.31-.56-.99-2.17-1.41-.87-.25.78-1.75,1.68-2.65,1.61-.35-.03-1.9-.54-2.19-.72-.93-.61.02-1.24-.06-1.86-.06-.47-1.52-3.08-1.84-2.71l-.96,1.92-.48-2.88-1.92,1.92c-.41-.39-2.4-.33-2.88-.48-.16-.05-.97-1.14-1.68-.96l-6.48.24,5.62,1.57,2.54-.37c.71.81.71,2.63.96,3.84.07.02.18.44,1.17.51,1.3.08,1.3-.35,1.71-.51.81-.31,1.38-.7,2.4-.48-.36,1.4.38,2.65.48,3.84.01.16-.01.32,0,.48-.22-.12-.92-.39-.96-.48-.09-.19.14-.77-.03-.92-.2-.19-1.02.05-1.41-.04.06.62-.09,1.33,0,1.92.02.16-.03.32,0,.48h-.48c-.01-.12-1-1.14-.44-2.13l.44-.27s-.1-.43-.69-.49c-1.16-.12-2.44.09-3.63,0-.01.32,0,.64,0,.96.04.04-.05.61.23.96.48.62,1.59.23,1.2,1.18-.14.33-.73.57-.88,1.05-.17.58-.18,2.14-.09,2.78.06.45,1.25.34,1.45,1.02.09.31-.39,2.05-.47,2.13-.36.38-1.85-.65-2.57-.45-.72.21-3.16,3.3-4.15,4.05-.37.28-.83.16-.95.23-.54.35-1.07,1.07-1.77,1.35-1.49.59-6.07,1.92-7.56,2.03-2.79.21-8.49-1.34-10.34-3.38-1.18-.83-1.06-.47-.97.73.07.9-.04,1.08.79,1.61,2.51,1.6,6.36,2.39,9.3,2.46l-3.3,3.17c-.56,1.02.33,1.78.42,2.1.43,1.51,0,1.8,2.09,2.47l5.59,3.76c-2.32-.25-5.22.34-7.45.01-.86-.13-1.17-1-1.9-.99-.69,0-1.69.83-2.65.5-.85.68,1.88,4.22,2.62,4.82.38.31,1.69.6,1.22.94-.12.09-.9-.02-1.23.45-.7.99.72,2.41-1.65,1.95-.15,1.83,1.74,3.7,3.11,4.81,1.45,1.17,3.88,2.02,5.06,3.11.6.56.24,1.62,1.43,1.2.02.8-.03,1.6,0,2.4-1.23-.16-2.38.21-3.54.49-.51.12-.37.71-.3,1.19.05.36,3.26,1.61,3.62,2.14.65.92-.71,2.47-.24,2.87.12.11.74.02,1.18.49.36.39,1,2.12.71,2.41l-5.76-1.92,2.88,4.32c-2.62-.27-5.19-.58-7.68-1.44-.52.54,1.22,7.03,1.56,8.28.12.44,1.56,3.44.12,2.76-.26-.13-.58-.65-1.03-.89-2.52-1.29-3.31-.73-4.39-3.77-.8-2.24-2.32-8.26-1.31-10.23.52-1.01,2.18-.54,1.69-2.15-.15-.48-.83-.92-1.44-.49-.87.61-.9,3.52-2.15,3.12-1.12-.35-.68-3.55-.73-4.54-.02-.49-.47-.96-.46-1.45,0-.49.53-.99.45-1.4-.09-.48-1.56-1.02-2.13-1.73-.64-.81-1.23-2.3-1.21-3.35l-1.22,1.9c-.26.47-.22.95-.21,1.45,0,1,.4,1.67.5,2.62.05.49.13,2.18-.26,2.18-1.74,0-1.5-3.82-1.68-4.8-.08-.42-1.97-2.38-2.4-2.64-1.15-.69-2.36-.47-3.35-.72-.01,0-.03-.07-.05-.14.02.08.04.14.05.14l-.28.43-.68.05c-.07.09-1.16.24-1.93,1.19-2.39,2.96-1.31,6.02-1.99,9.05-.47,2.1-2.3,5.52-3.06,7.98-.33,1.05-.62,2.27-.71,3.37-1.4.4-1.06-1.21-.95-2.15.34-2.74,1.63-5.62,1.91-8.41l-1.85,1.75c-1.07,1.3-.75,4.04-1.49,5.16-.33.49-.8.2-.95.31-.19.14.44,1.51.48,2.11.21,3.15-.24,6.12-.49,9.15-.07.81.14,3.84-.05,4.02-.12.11-.61.06-.89.29-.62.52-1.11,1.15-1.7,1.7-.36.34-.95.36-1.12.54-1.18,1.2-.22,7.29-.58,7.57-.1.08-.89-.02-1.42.25-2,1.05-1.76,4.36-1.94,4.54-.1.1-1.82.06-2.62.98-.76.88-.97,3.23-.72,4.32h-.48s-.4-.11-.49-.69c-.25-1.72,0-3.75-.47-5.55-1.34-.22-2.25.36-3.36.96-.13-.16.45-4.4-1.44-3.12-1.25.85-.13,4.1,0,5.29.09.95-.12,1.95.02,2.86.96,6.44,3.69,12.6,5.76,18.71l-.73.73-4.08-3.36c-.7,3.86.83,4.14,2.88,6.48.47.54,1.15.79.96,1.68-1.45.82-5.13-2.63-5.76-1.92-.11.12-.9,2.75-.95,3.13-.15,1.14.41,3.72-.48,4.32-1.14.78-4.26-1.48-5.77-1.21,0,.03-.44.08-.42.23.04.53,2.56,1.66,3.3,1.69.58.5-2.54,3.71-3.36,2.88-.13-.14.15-1.88-.07-2.57-.13-.44-.76-.72-.84-1.09-.03-.13.41-1.84.53-2.22.08-.27.36-.31.38-.35.08-.19-.15-.66.05-.89.25-.27,1.69-.43,1.84-.58.59-.59-.49-3.66-.49-4.53-.01-2.16,2.02-2.86.05-5.29-1.4-1.73-2.79-1.97-4.81-1.19-.09-3.14-2.72-6.52-4.58-9.1-1.36-1.88-3.49-3.91-4.77-5.79-1.13-1.67-2.21-4.15.88-2.32,2.01,1.19,3.02,3.79,4.87,5.21.37.07.29-.44.24-.72-.25-1.61-2.84-6.51-3.75-8.25-1.72-3.31-3.87-6.43-5.64-9.72-.86-2.42,1.54-4.08,3.15-1.71l5.99,9.84c.78-.86-.36-2.07-.19-3.03.41-2.34,1.87-1.98,3.05-.32,1.8,2.53,2.13,4.59,3.36,7.19.26.56.5,1.31,1.21,1.43.35-4.45-3.44-7.98-3.86-12.21-.16-1.66-.46-4.8,2.12-4.04.62.18.83,1.19,1.74.9.52-2.03-.81-3.05-.96-4.8-.24-.32-4.48,2.13-4.72,2.73-.15.37,0,.97-.08,1.1-.46.66-3.64-.73-3.29-2.56.5-2.63,7.22-5.7,9.52-7.29,2.58-1.78,5.25-3.86,7.69-5.75,1.77-1.37,3.13-2.9,2.88-5.26-.38-3.61-2.65-8.2-1.83-11.93.25-1.15,1.68-2.27,1.36-3.68-.82.63-6.68-.63-5.28-1.92.16-.15,1.75.57,2.62.49,1.43-.14,3.46-1.23,4.32-2.42.53-.73.85-2.22,1.68-2.64,1.05-.54,2.54,0,3.88-.44,1.3-.43,2.52-2.49,3.15-2.63.58-.12,1.92.91,2.74.84.44-.04,2.12-.67,2.24-1.12.24-.88-1.84-3.93-2.3-4.89-1.45-3.06-.53-2.13-2.99-4.68-1.6-1.65-2.13-5.45-1.92-7.72.13-1.4,1.41-4.72,2.67-2.63.78,1.29-.39,4.13,2.18,3.17,1.31-.49,1.58-1.41,2.87.43,1.42,2.03.6,4.96,1.65,6.98.13.26,3.81,3.95,4.07,4.08.69.36,2.41.12,2.89-.26.08-.07-.05-1.04,0-1.43h-1.44c-.31-.22,1.92-4.07,1.92-5.04,0-1.09-1.22-2.59-1.39-3.44-.29-1.49,1.69-3.02,1.87-4.48,1.3-.24,1.72,1.57,2.69,1.86,1.43.43,4.48-.44,2.24-1.76-.79-.46-.88-.4-.54-1.71.91-3.5,2.23-.63,3.1-.37,2.31.69,1.41-.6,1.63-2.09.49-3.31.32-6.39,2.16-9.35,1.61-2.6,4.97-6.68,7.44-8.4,1.77-1.23,1.79-.35,3.12-.26,2.97.19,8.35-1.18,11.4-2.01,1.77-.48,3.41-.97,3.7-3.02.6-4.24-2.33-4.03-5.52-4.08-.41,0-1.66.22-1.2-.72.38-.76,1.93-1.39,2.65-2.15,1.43-1.5,2.55-3.38,4.29-4.82.81-.67,3.75-2.17,3.88-2.36.41-.6-.06-1.99.93-2.43,1.26-.56.21,1.65,1.2,1.44,2.05-4.19,4.42-8.3,5.28-12.95,2.72.8,1.7-.17,2.44-.91.26-.26,1.7.12,1.88-.04.71-.63-.68-7.94-.95-9.37-.29-1.51.19-3.83-2.41-3.58-.21-.69-1.5-2.76-1.92-3.84-1.08-2.8-1.83-6.23-3.27-8.97-1.73-3.31-4.9-6.24-6.76-9.57-.54-1.71,1.41-3.43,1.42-4.25,0-.35-.9-1.64-.99-1.68-.21-.1-.81.12-.95,0-.28-.27.52-3.36,1.43-3.35-.06-.17.06-.45-.07-.65-1.02-1.55-4.03-2.89-5.67-3.92-.46-.28-.81-1.04-1.27-1.16-.67-.18-1.19.4-1.77.35-.59-.04-1.4-.67-2.24-.39.56,2.07-1.67,2.44-1.44,4.32-.33.42-3.38-1.67-4.15-1.84-2.23-.5-3.54.72-2.56,2.8-1.69-.33-3.37.91-3.38,2.63-.02,2.4,1.83,1.48,3.53,1.78,2.9.51,5.72,3.28,8.26,4.7l5.49,5.06c.85.55,1.62.14,2.41-.25.51,3.1-1.28,3.38-3.84,3.84,1.49,2.94-2.05,2.7-4.32,2.88-.11.84,1.1.47,1.68.48.88.02,1.77-.01,2.64,0v1.42c-3.07,1.32-6.11,2.58-9.36,3.37-.65.16-1.51-.09-2.32.08-.69.15-1.38.97-2.23.89-.03,1.06,2.14.18,2.38.49.1.13-.06.71.11,1.08.38.84,1.51,1.55.66,2.77-.11.16-1.83.94-1.94.94h-7.44c-.08,0-.46,1.54-.45,1.62.7,3.33,9.44.68,10.04,1.26-.1,2.75-.21,3.41-2.76,4.2-3.3,1.02-9.69,2.68-12.34.59-1.54-1.21-2.31.12-2.2,1.68.12,1.59,1.85,2.63,3.23,3.05.5.15,1.46,0,1.57.11.1.11.08,2,.97,2.63,1,.7,3.12.76,4.33.71.1.65-1.25.69-1.8.83-.94.24-5.17.92-5.39,1.09-.06.05-.06,1.3.03,1.64.24.9,2.63,1.17,3.55,1.25.71.06,1.41-.41,1.21.7-2.91,3.19-5.37,6.79-8.15,10.09-3.97,4.72-8.62,8.62-11.29,14.14-.8,1.65-2.91,3.53-3.83,5.28-1.29.3-.46-1.13-.73-1.43-.13-.14-2.05.33-2.37-.76-.12-.42.38-3.14.55-3.73.62-2.19,4.31-5.14,5.68-7.28.38-.6.65-.84.47-1.69-1.86-.48-2.63,1.38-4.32,1.44l.96-4.32-1.4.03-2.51,4.69c-2.25.36-4,5.05-4.97,7.26-2.29,5.21-4.23,11.41-5.02,17.05-.19,1.35.14,2.79-.1,4.22-.24,1.42-1.9,5.42-2.53,7.07-1.42,3.7-5.56,1.6-6.9,2.93-.18.18-.4,1.27-.8,1.84-1.55,2.2-6.2,7.03-6.48,9.37-.18,1.57.38,3.66,1.85,1.84.7-.86,2.53-4.14,3.2-4.48,1.07-.56.79,2.14.72,2.64-.86,5.91-13.29,19.37-18.25,23.01-3.41,2.5-5.29,3.06-9.12,4.31-3.33,1.09-.91,2.53-.91,3.38,0,.95-1.83,3.45-.96,5.26l-1.01.53.03,2.61c-1.25.28-1.28-1.11-1.92-1.68-1.7-1.51-4.17-.88-5.91-1.77-.69-.35-1.1-1.15-1.59-1.29-.51-.14-3.15-.54-3.77-.57-2.17-.1-5.69,1.48-7.62,2.5-.55.29-.84.89-1.27,1.13-.54.31-2.21.61-2.34.78-.15.2,0,.72-.15,1.03-.29.56-.78.88-.88,1.54-.13.85-.13,4,.08,4.74.57,1.98,4.07,3.82,4.64,5.91,1.01,3.65,1.24,3.71,3.68,6.4,2.82,3.1,3.09,11.08,2.63,15.1-.12,1.03-.82,2.35-.94,3.38-.32,2.81.44,5.57-.71,8.4-.81,1.99-4.21,5.69-6.33,6.14-.8.17-1.57-.03-2.31.09-1.44.22-2.39.67-4.09.47-.42-.05-1.12-.48-2.4-.48-.45,0-1.06-.08-1.44,0,0,0,0-.01,0-.02,0,0,0,0,0,0-.94-1.48-1.76-3.63-3.36-4.55-.52-.3-1.21-.35-1.8-.62-.36-.16-.52-.55-.59-.59v-.48s-.46.21-.48.48c-.16,0-.34-.03-.48,0-1.84-.56-3.84.48-3.84.48-1.6.17-1.98,1.74-2.69,1.89-.75.17-1.56-1.39-3.58-.72-.38.12-2.83,1.88-3.1,2.18-1.05,1.2-.22,3.49-3.11,2.88-.16,1.36-1.25,2.67-1.43,4.09-.02.16-.03.32-.04.5-.09,2.62,1.34,7.29,4.12,7.44,1.29.07,2.63-1.4,3.1,1.41,1.48.18,2.58.71,4.32.48v.95s0,0,0,0h0c.93,1.01,2.02-.05,2.59.06.24.05.26.41.29.42.76.26,3.25.92,3.36,1.44h.96s.05-2.12.05-2.12l.43-.28s0,0,0,0h0c-.02-.06-.03-.13-.03-.21,0-.16.03-.34.04-.51,0-.08,0-.16-.01-.24.24-.02.66-.54,1.12-.42.23.06.29.41.31.42-.4,1.37.12,2.4-.48,3.83h0s0,0,0,0h2.4s0,0,0,0h0c-.25-.97-.49-1.87-.53-2.84-.01-.32,0-.65.05-.99,1.19.12,2.05.35,2.88.48.31.05.68-.06.96,0,.15.03.33-.03.48,0,1.46.31,1.95,1.14,2.71,1.36,1.32.4,3.45.29,4.66.62.66.18,1.92,1.53,3.02,1.77.87.19,1.95-.1,2.56.08.17.05.78.99,1.68.99.7,0,4.36-2.63,5.03-1.94.13.13-.13,1.27,0,1.44.05.3-.07.7,0,.96h-.48c-.96.02-1.64-.35-1.44.72.01.08.01.16,0,.24h1.44s.48,0,.48,0c-.08.42.06.98,0,1.44-1.03-.04-3.21.3-4.32.48l-.27-.45-.69-.03v.96c-1.9.29-5.89,1.28-6.95-.48-.44-.74-1.37-3.97-1.69-4.31-.3-.32-1.4.35-1.76.38-1.37.13-4.36-.53-6.39-.39,0,0,0,0,0,0,0,0,0,0,0,0-1.3.09-2.78.86-4.32.48-.19.08-.73-.16-.9.07-.11.15-.13.28-.12.39,0,.08.02.16.01.22-.01.19-.2.29-1.39.27-.38,0-.76.06-1.14-.05l-.3-.43c-.28.06-.64-.02-.96,0-2.97.23-5.48.48-8.16,0-.49-.09-1.77.13-1.92,0-.02-.02-.03-.13-.04-.3-.02-.52.02-1.49.09-1.56.59-.53,1.4.1,1.4-1.6,0-.11,0-.24,0-.37-.87-.24-.99.34-1.44.96-.87.2-.97-.14-.96-.48,0-.14.03-.27.03-.37,0-.05,0-.09-.03-.12-.07-.1-1.92.03-2.4,0-.04,0-.09-.51-.61-.41-1.31.25-2.59,1.32-4.19.89v.96c-1.1.21-1.38.85-1.92.96-.63.13-2.73-.15-2.88,0-.03.04.06.55-.23.95-.91,1.29-1.91,1.51-2.17,3.61-.03.25-.04.48-.03.69.05,1.5.88,2.31.99,3.39.07.69-1.18,2.23-.98,4.58.07.82.26,3.84-.28,2.98.6,1.3.76,3.04,2.22,3h0ZM342.99,167.67c2.25,1.14-.37,2.18-.52,3.37-.17,1.34.93,3.02.5,4.56-2.37-1.2-4.03-9.99.02-7.93ZM177.92,395.82s0,0,0,0c0,0,0,0,0,0-.06-.06-.62.15-.86-.07-.33-.31-.64-1.76-.58-2.33,1.49-.16,1.95-.06,1.96.44,0,.39-.26,1.02-.52,1.95ZM180.56,403.02c-.87-.12.44-2.72.24-2.88-.19-.15-1.96.41-1.44-.72.05-.11,1.35-1.17,1.44-1.2.48-.14,1.35.09,1.92,0-.3,1.42.23,5.12-2.16,4.8ZM209.66,397.81c-.19.25,0,.95-.28,1.39-.57.9-4.19.84-5.3.95-.51.05-.98.45-1.47.49-1.26.1-3.13-1.11-4.54-.98h0c.01-.53.07-1.27.05-1.86,0-.2-.02-.38-.05-.54,1.35.38,2.18-.58,3.21-.88.57-.16,1.2.02,1.58-.08.64,1.73,1.52.63,2.4.48,1-.18,1.96.66,3.1.5.2-.03,1.43-2.68,3.14-1.94.61,1.84-1.54,2.07-1.85,2.47ZM218.96,401.59c-.94.18-5.22,1.71-5.53,1.43-.13-.81.62-1.48,1.19-1.93,2.24-1.77,5.16-2.13,7.93-1.91-.35,3.05-1.68,2.04-3.59,2.41ZM256.85,350.24c.67-.22,1.81,1.69,2.09,2.23.34.66,1,2.17,1.05,2.83.08,1-.68,2.81-1.94,2.62-.12-2.01-1.53-4.27-1.85-6.08-.12-.66.02-1.4.65-1.6ZM260.22,401.59c-3.66,2.98-7.87,3.68-12.47,3.34-2.59-.19-5.67-1.24-8.15-1.45-2.66-.22-7.94.59-10.06-.02-.9-.26-.95-2.2-.76-2.35.09-.07,1.85-.44,2.17-.48,3.32-.39,7.69-.77,11.02-.48.91.08,1.97.81,3.13.47-.37,2.86.51,1.67,2.63,1.93,1.26.15,3.72.95,4.82.95.13,0,1.61-.43,1.67-.49.09-.08-1.11-1.47-.02-2.17.77-.49,1.77-.04,2.59-.28.15-.05,2.25-1.36,2.69-1.63.54-.33.98-1.4,1.68-1.19,1.55.45-.14,3.19-.95,3.85ZM270.66,405.8c-1.89.72-5.13.99-6.87-.13-.75-.48-.29-.78-.24-1.21.04-.39.23-1.81.29-1.88.71-.8,5.08-.44,6.43-.53,1.43-.09,3.72-1.39,5.05.25-.32,2.38-1.87,2.02-3.5,2.73-.43.19-.73.59-1.16.76ZM278.68,423.17c-3.12-.68-5.02-3.06-5.28-6.24,2.48-.26,3.47,2.49,4.53,4.35.35.61.86,1.14.75,1.89ZM304.1,393.65c-2.05,1.44-6.2,1.52-8.75,2.29-.79.24-2.63.92-3.21,1.36-.13.1.01,1.01-.03,1.4l5.28.24c-4.04,2.24-8.35,2.98-12.74,1.22-.99-.4-1.71-.83-.94-1.94,1.95-.08,3.79-.39,5.76-.48.79-.03,1.34-.43.71-.96l-7.68.48v-1.43c1.54-.11,9.45-3.15,10.03-2.34.13.18-.04.64.09.82.65.9,11.96-2.75,12.43-2.33.41.37-.56,1.38-.97,1.67ZM307.95,397.02c-.24-.76.64-1,1.18-1.22.8-.32,4.14-1.08,4.76-.89.49.15,1.28,1.06,1.28,1.63,0,2.59-6.75,2-7.22.48ZM330.98,403.5h.48c.44.44.65.42.48,1.44h-.96c.04-.47-.07-.98,0-1.44ZM331.7,415.01c-.27,0-2.33-3.91-2.65-4.55-.28-.56-.69-.86-.47-1.69.84.6,3.54,1.37,3.79,2.21.21.7.22,4.04-.67,4.03ZM361.3,340.02c1.29-2.56,2.84-4.92,4.16-7.36,2.44-4.51,4.08-9.57,6.55-14.08l1.19-.49c.14,1.64-.51,2.9-.48,4.57.02,1.33,0,.93.96,1.66.64-.58,1.45-1.14,2.4-.96l-1.44,6.72c-1.26.1-.8.07-.94-.73-.25-1.38-.72-2.6-.5-4.07-1.59,2.04-2.02,3.84-3.27,6.09-2.85,5.16-6.2,9.82-9.69,14.54-.34.05-.44-.17-.48-.48-.38-3.07.41-3.21,1.53-5.42ZM373.68,338.73c-.18-1.15.23-2.03,1.44-1.92.18,1.15-.23,2.03-1.44,1.92ZM341.53,257.89c-.72.11-1.57.13-2.15.25-1.53.32-3.48,1.96-3.61-.49,3.13.09,6.13-1.32,8.61-3.14.73-.53,1.59-1.84,2.18-2.14.94-.48.71.79.72,1.2.03,1.34-.04,2.34-.48,3.6-.89.42-2.15.67-2.88.96-.43-1.02-1.71-.34-2.4-.24ZM357.86,358.65c-2.06,2.34-8.28,7.57-11.27,7.93-.62.07-1.97.35-1.7-.74,4.11-3.04,8.12-5.7,11.52-9.59,2.93-3.36,4.99-7.2,7.41-10.83,1.6-2.39,3.73-5.21,5.06-7.66h.96c-3.15,7.62-6.46,14.62-11.99,20.88ZM366.57,354.89c-.25.29-.93,1.79-1.52,1.11-.11-.13.59-3.25.69-3.39.38-.56,1.51-.31,1.96-.92l13.44-21.1c.23-.45,1.3-1.35,1.66-.98.3.31-1.63,3.4-1.99,4-3.81,6.4-9.45,15.79-14.23,21.27ZM385.45,383.33c-3.27-3.91-5.01-8.43-6.02-13.41l2.33.55c.49,1.54,1.93,3,2.57,4.38.54,1.17.57,2.36.94,3.38.25.7,1.14,1,1.3,1.58.31,1.1.27,3.24.54,4.5l-1.66-.98ZM389.98,316.89c-.11,1.12-1.01,5.6-1.43,6.49-2.25,4.69-3.26,9.83-4.8,14.87-.98,3.19-2.16,7.44-3.9,10.25-1.06,1.73-1.58.79-1.37-.89.57-4.46,3.78-11.73,5.15-16.44.97-3.34,1.97-6.71,2.89-10.06.55-2,.82-6.05,2-7.59.37-.49.8-.83,1.46-.7-.07,1.34.12,2.73,0,4.07ZM422.62,327.7c.19,1-.11.98-.95,1.2-.66.17-1.23.37-1.93.24-.17-2.39,1.18-2.03,2.88-1.44ZM413.98,316.66c1.12-1.14,3.76,3.45,3.36,3.84l-1.89-.03c.09-.84-1.87-3.4-1.47-3.81ZM413.49,282.33c.07-.58.48-.65.49-.69.26-1.44-.76-2.24,1.44-1.92-.05,1,.13,2.06-.07,3.05-.14.7-.86,1.18-.89,1.27-.1.32.16,2.55-.96,1.44-.11-.11-.07-2.62,0-3.15ZM402.49,303.96c-.14,1.77-1.88,5.6-2.65,7.43-2.38,5.69-5.58,11.07-7.95,16.77h-1.42c-.7-.73,1.61-7.36,2.02-8.76.17-.59.64-1.08.78-1.62.28-1.07.19-2.79.55-4,.04-.15-.04-.33,0-.48,1.46.26.82-.65,1.07-1.56.78-2.86,1.92-6.86,2.28-9.72.17-1.34-.7-5.23,1.67-4.53,2.07.61,1.01,7.31.74,9.1l1.36-2.23.56-1.61c1.16-.19,1.06.17.98,1.22ZM401.51,287.39c-.15-3-.48-6.07,3.36-4.8.51.49-2.24,4.62-3.36,4.8ZM408.46,275.88c.4,0,2.84-1.59,3.6-.96.78.65-.53,1.07-.95,1.2-.5.14-2.05.72-2.17.72h-7.44v-.96h6.96ZM397.71,261.53c.21-.22,3.68.04,4.54-.04.57-.05.65-.48.69-.49.41-.09.99.06,1.44,0-.08.18.04.57-.23.95-1.73,2.36-4.96.96-5.52,4.1-.1.54.03,1.13,0,1.67-1.44.06-3.2-.58-2.88-2.4.87-.04,1.44-.29,1.44-1.2,0-.45-.53-.14-1.1-.32-.25-.08-.31-.4-.34-.4,1.52.23,1.59-1.48,1.96-1.88ZM401.51,235.58c-2.69-.54-4.31-2.59-5.37-4.94-1.74-3.84-2.32-7.76-2.78-11.85,2.14-.29,2.09,1.42,2.5,3,.07.26.37.32.38.36,1.11,4.28,1.92,10.2,5.28,13.43ZM401.32,165.13c.07.63-1.69.42-1.75.36-.57-.58,1.04-5.71,2.93-5.28l-1.18,4.93ZM438.36,100.67c1.18-1.08,2.12-.95,3.1.03.21.21.43.46.64.75,1.43,1.86-1.04,2.85-2.83,3.72-.5.24-2.94,1.15-3.23.86.5-2.27.52-3.72,2.3-5.35ZM446.37,118.02c-.21.06-.71.05-.96,0-.19-.03-.22-1.67-2.13-.95-.03.03-.05.06-.08.09-.87,1.03-.95,3.5-.32,4.67.28.51,2.77,2.04,1.81,2.89-.14.13-.74-.09-.95,0-.43.2-.58,1.82-.48,2.4l2.4.72c-2.45,2.07-3.8,3.03-5.53,4.55-2.76,2.44-.4,3.03,2.17,2.89l-.48,1.92,1.44.72c-2.57,2.63-7.65,4.59-11.29,5.03-.89.11-4.88-.21-5.03.73-.23,1.42.14.91.63,1.29,1.46,1.13,2.5,2,4.43,1.85,3.13-.24,6.8-1.7,9.59-1.95,1.01-.09,1.83.49,2.31.42,1.18-.18,2.41-1.8,3.67-1.85.62.64-3.38,5.9-4.07,6.74-.51.62.12,1.25-1.68.94v-1.45c-.99.76-1.6.02-2.62-.02-5.7-.2-8.87,3.48-12.99,6.72-1.1.35-1.37-2.3-2.12-3.12-.41-.45-1.55-1.22-2.1-1.13-1.38.23-2.54,1.46-3.09,2.68-1.06,2.32-1.98,6.88-2.49,9.51-.17.86.12,1.84-.09,2.79-.51,2.37-3.63,4.96-3.3,7.97l-3.81.5c.43-1.8-1.23-1.71-1.71-2.37-1-1.37,2.22-4.34,1.7-4.82l-3.84.48c-.7-.68,2.25-4.03,2.41-5.03.06-.37.04-1.62-.02-1.67-.26-.2-1.97.25-1.92-1.21.03-1.07,1.06-3.59,1.35-4.91.18-.85,1.14-5.36,1.07-5.64-.31-1.2-2.14.11-2.4-.24-.06-.09.09-.71-.08-1.1-.21-.47-.76-.83-.83-1.13-.11-.48.8-2,.9-2.82.14-1.09-.12-2.26.02-3.34.27-2.08,1.66-4.87,1.9-7.22.15-1.47-.08-3.06.01-4.55.64-.15,1.14.49,1.69.5.76.01,1.03-.8,1.51-.94,1.45-.43,2.45,2.08,3.9-1.35,1.19-2.83,1.75-5.96,2.7-8.89,0,0,0,0,0,0,.09-.28.18-.56.28-.83.1.03.19.06.28.09,0,0,0,0,0,0,1.98.63,3.51,1.08,5.7.86.62-.06,1.19-.65,1.89-.45.73.2,1.69,2.82,1.96,2.86,1.35.2,1.43-.45,1.68-1.71.08-.4-.06-.85,0-1.18.09-.45.46-2.23.56-2.34.18-.22.78.02.88-.06.05-.04,0-.67.46-1.21,1.07-1.25,2.59-2.08,3.86-3.11.68-.55.4-2.05,1.6-1.7,2.36.69,5.28-1.41,5.09-1.15-.93,1.28-2.14,2.86-3.44,3.75-.84.57-1.5.44-1.75,1.48-.15.63.35,1.84.88,2.2.47.32,2.75.35,3.38.22.14-.03,2.06-1.01,2.39-1.21.56-.34,5.07-4.32,5.29-4.07-.08,1.13-1.46,6.02-2.16,6.24Z"/>
    <path class="a3" d="M360.02,413.56c-.22-.35-1.41-3.28-2.17-2.39-.18.22,0,3.64.22,4.34.77,2.45,3.81,1.69,3.09-.69-.14-.48-.86-.8-1.14-1.26Z"/>
    <path class="a3" d="M354.01,402.06c-.33.39.72,1.67.88,2.24.19.71.25,1.56.47,2.43.22.87-.25,1.29,1.06,1.09.79-2.38-.07-2.91-1.22-4.79-.16-.26-.4-1.86-1.17-.97Z"/>
    <path class="a3" d="M431.74,313.78c-.47,2.05,1.15,4.36,3.36,4.32.33-.31-1.38-2.41-1.72-2.84-.58-.76-.5-1.74-1.64-1.47Z"/>
    <path class="a3" d="M350.17,421.26c-.5.11-2.74-.33-2.88-.48.08.07.5,1.79.51,2.15.04,1.06-.51,1.78-.51,2.41,0,1.24,1.78,3.78,1.44,5.04,0,.01-.03.03-.06.04.03-.02.06-.03.06-.04l.96-.48c.11-.55.85-.82.97-1.67.34-2.36-.79-4.61-.49-6.96Z"/>
    <path class="a3" d="M189.6,350.66c.83-.27,4.27-5.73,4.16-7.13-.05-.02-.09-.36-.33-.4-.71-.1-1.56-.24-2.26-.04-.97.29-3.65,6.19-3.16,7.63.33-.11,1.04.11,1.6-.07Z"/>
    <path class="a3" d="M365.04,414.05c-.23.77-1.06,1.88.24,2.4,1.07.42.76-1.39.72-2.4h-.96Z"/>
    <path class="a3" d="M436.11,205.29c-.19.07-.38.1-.54.06.16.04.35,0,.54-.06Z"/>
    <path class="a3" d="M258.05,263.67c.59-1.02,2.99-3.09,3.35-3.86.4-.84-.35-.63-.73-.7-.59-.1-2.41-.72-2.62-.5-.1.1-.6,2.15-.86,2.74-.27.6-.87.97-1.05,1.35-.4.85,1.57,1.32,1.91.97Z"/>
    <path class="a3" d="M258.53,274.44c.01.88-.02,1.76,0,2.64,0,.41-.22,1.67.72,1.2,1.9-.96,1.54-3.7-.72-3.84Z"/>
    <path class="a3" d="M336.26,233.66c.16,0,.32-.02.48,0,.16.02.33-.03.48,0,.28-1.47-1.24-1.47-.96,0Z"/>
    <path class="a3" d="M280.82,213.2c-1.51,1.28-4.12,3.81-5.34,5.32-.49.61-2.36,3.16-1.76,3.86,2.17-1.13,3.01-4,5.01-5.36.83-.56,1.73-.56,2.43-1.12.44-.35,2.4-3.25,2.04-3.59-1.32-.25-1.54.18-2.37.88Z"/>
    <path class="a3" d="M198.3,335.4c1.12-.06,5.19-2.59,5.5-3.69.14-.51-.61-3.38-1.17-3.54-.64-.18-.97.73-1.51.89-1.54.46-2.94.48-4.49,1.51.24.86-.85,1.63-.96,1.92-.12.34-.58,2.77-.48,2.88,1.26-.73,2.13.08,3.1.03Z"/>
    <path class="a3" d="M304.59,270.36c.64,1.56,3.03.36,2.88-1.2-.68-.21-3.37.01-2.88,1.2Z"/>
    <path class="a3" d="M318.02,251.41c-.89-.92-.81-3.37-2.6-2.84-.85.25-3.25,3.56-3.11,4.45.13.81,1.19,2.11,2.09,2.24,2.17.32,2.56-.92,4.09-1.45-.49-.72-.56-1.54-.48-2.4Z"/>
    <path class="a3" d="M333.62,232.7c-2.39-.08-4.58-.46-6.96-.48-.03.31.04.66,0,.96,2.78.85,5.76.39,8.64.48.26-1.46-.74-.93-1.68-.96Z"/>
    <path class="a3" d="M212.9,229.19c-.54-2.42-3.81-5-5.94-6.09-.66-1.7-3.85-4.38-4.09-5.98-.44-2.9.74-4.01,3.61-3.61,1.03.15,1.61,1.03,2.64.96.23-.23-2.05-5.24-2.3-6.1-1.2-4.13.36-8.29.85-12.38.62-5.18-.54-9.37.02-14.37.13-1.18,2.13-6.23,1.91-6.49-.75-.88-1.03.68-1.18.96-2.27,4.14-3.01,8.41-4.66,12.63-.34.86-1.21,1.05-1.36,1.28-.21.31-.82,2.95-.95,3.61-1.45,7.09-2.47,15.23-1.44,22.53.22,1.57.95,2.78.95,4.57,0,.32,0,.64,0,.96.04.02.12.46.48.7,3.8,2.55,6.63,6.52,11.03,7.94.01-.06.65-.11.43-1.11Z"/>
    <path class="a3" d="M205.27,320.98c.21-.93-.13-2.69-1.19-2.39-.29.08-.63.83-1.21.95-.4,1.53,1.52,1.1,2.4,1.44Z"/>
    <path class="a3" d="M258.71,130.93c.34-.11,1.66-1.64,1.73-1.86.07-.2,0-.66,0-.96-1.27-.12-3.11.21-3.37,1.67-.25,1.34.33,1.57,1.64,1.16Z"/>
    <path class="a3" d="M304.13,273.5c-.12.11-.36,2.42.7,1.9.77-.38,1.42-1.47,1.2-2.4-.11-.11-1.82.44-1.9.5Z"/>
  </g>
  <g>
    <path class="cls-3" d="M3.04,11.7v-1.36h4.13v1.36H3.04Z"/>
    <path class="cls-3" d="M12.35,15.76c-.77,0-1.44-.23-1.99-.7-.56-.46-.99-1.14-1.29-2.03-.3-.89-.45-1.98-.45-3.27s.15-2.37.45-3.25c.3-.88.73-1.54,1.29-1.98.56-.45,1.22-.67,1.99-.67s1.42.22,1.97.67c.55.45.98,1.11,1.28,1.98.3.87.45,1.96.45,3.25s-.15,2.38-.45,3.27c-.3.89-.73,1.57-1.28,2.03-.55.46-1.21.7-1.97.7ZM12.35,14.29c.39,0,.73-.15,1.03-.45.3-.3.54-.78.7-1.44.17-.66.25-1.54.25-2.64s-.08-1.97-.25-2.62c-.17-.65-.4-1.11-.7-1.4-.3-.29-.65-.43-1.03-.43s-.73.14-1.03.43c-.3.29-.54.75-.71,1.4s-.26,1.52-.26,2.62.09,1.98.26,2.64.41,1.14.71,1.44c.3.3.65.45,1.03.45Z"/>
    <path class="cls-3" d="M20.98,15.76c-.6,0-1.14-.08-1.6-.22-.46-.15-.87-.35-1.23-.6-.35-.25-.66-.52-.92-.81l.88-1.18c.34.34.74.64,1.17.9.44.26.95.38,1.55.38.44,0,.82-.07,1.14-.22.32-.15.58-.36.76-.64.18-.28.27-.61.27-.99,0-.43-.1-.79-.3-1.1-.2-.3-.55-.54-1.05-.71s-1.17-.26-2.04-.26v-1.38c.76,0,1.36-.09,1.79-.26.43-.18.75-.41.94-.7.19-.29.29-.62.29-.98,0-.51-.16-.92-.47-1.21-.31-.29-.75-.44-1.3-.44-.44,0-.85.1-1.23.31-.38.21-.74.48-1.07.81l-.94-1.15c.46-.42.96-.76,1.5-1.03.54-.27,1.14-.41,1.8-.41s1.3.12,1.83.35c.53.23.95.57,1.25,1.02.3.44.45.98.45,1.61,0,.66-.18,1.21-.54,1.66-.36.44-.84.78-1.45,1.02v.08c.44.11.84.29,1.2.54.36.26.64.58.85.97.21.39.31.85.31,1.37,0,.69-.17,1.29-.52,1.78-.35.49-.82.87-1.4,1.13-.58.26-1.22.39-1.92.39Z"/>
  </g>
</svg>