<?xml version="1.0" encoding="UTF-8"?>
<svg id="a3" xmlns="http://www.w3.org/2000/svg" viewBox="0 0 600 500">
  <defs>
    <style>
      .cls-1 {
        fill: none;
      }

      .a3 {
        fill: #a48b66;
      }

      .cls-3 {
        fill: #c9caca;
      }
    </style>
  </defs>
  <g>
    <path class="cls-3" d="M4.39,13.73v-3.46H1.23v-1.34h3.16v-3.47h1.39v3.47h3.17v1.34h-3.17v3.46h-1.39Z"/>
    <path class="cls-3" d="M14.02,15.76c-.77,0-1.44-.23-1.99-.7-.56-.46-.99-1.14-1.29-2.03-.3-.89-.45-1.98-.45-3.27s.15-2.37.45-3.25c.3-.88.73-1.54,1.29-1.98.56-.45,1.22-.67,1.99-.67s1.42.22,1.97.67c.55.45.98,1.11,1.28,1.98.3.88.45,1.96.45,3.25s-.15,2.38-.45,3.27c-.3.89-.73,1.57-1.28,2.03-.55.46-1.21.7-1.97.7ZM14.02,14.29c.39,0,.73-.15,1.03-.45.3-.3.54-.78.7-1.44.17-.66.25-1.54.25-2.64s-.08-1.97-.25-2.62c-.17-.65-.4-1.11-.7-1.4-.3-.29-.65-.43-1.03-.43s-.73.14-1.03.43c-.3.29-.54.75-.71,1.4s-.26,1.52-.26,2.62.09,1.98.26,2.64.41,1.14.71,1.44c.3.3.65.45,1.03.45Z"/>
    <path class="cls-3" d="M22.21,15.76c-.66,0-1.22-.13-1.7-.38-.47-.25-.87-.55-1.2-.89l.98-1.15c.21.27.48.48.81.64.33.16.66.24,1.01.24.5,0,.96-.15,1.38-.45s.75-.8,1-1.5.38-1.65.38-2.85c0-.95-.09-1.73-.28-2.34s-.45-1.07-.79-1.36c-.34-.29-.74-.44-1.21-.44-.33,0-.64.09-.91.27-.27.18-.48.44-.64.78s-.23.76-.23,1.25.07.87.21,1.2c.14.33.35.58.64.75.29.17.63.26,1.04.26.33,0,.7-.12,1.09-.35s.76-.62,1.1-1.17l.08,1.36c-.22.31-.48.58-.77.8-.3.22-.6.39-.91.51s-.61.18-.91.18c-.65,0-1.21-.13-1.7-.39-.49-.26-.87-.65-1.14-1.18s-.41-1.18-.41-1.97.16-1.41.48-1.97c.32-.55.74-.99,1.26-1.3.52-.31,1.09-.46,1.7-.46.55,0,1.07.11,1.55.34.49.22.91.57,1.27,1.03s.64,1.04.85,1.74c.21.69.31,1.51.31,2.46,0,1.12-.12,2.08-.35,2.89s-.56,1.46-.97,1.97c-.41.51-.88.88-1.39,1.12-.52.24-1.05.36-1.62.36Z"/>
  </g>
  <g>
    <polygon class="cls-1" points="391.22 229.26 391.28 229.26 391.31 229.41 391.28 229.26 391.22 229.26"/>
    <path class="cls-1" d="M353.73,78.68c.06-.03.12-.06.16-.08,0,0,0,0,0,0-.05.02-.1.05-.16.08h0Z"/>
    <path class="a3" d="M387.59,174.44c.03.49-.16,1.1-.67,1.83-.17.25-.92,1.21-1.51,1.94.59-.73,1.34-1.69,1.51-1.94.5-.73.7-1.34.67-1.83Z"/>
    <polygon class="a3" points="391.31 229.41 391.61 230.82 391.28 229.26 391.31 229.41"/>
    <polygon class="a3" points="391.2 229.26 391.28 229.26 391.22 229.26 391.2 229.26"/>
    <path class="a3" d="M396.81,249.22c-.16-1.4.14-2.82-.11-4.23-.21-1.2-1.87-3.3-2.94-5.05,1.06,1.75,2.73,3.85,2.94,5.05.24,1.41-.05,2.83.11,4.23.36,3.15,1.64,6.82,4.21,8.79-2.57-1.97-3.86-5.64-4.21-8.79Z"/>
    <path class="a3" d="M393.05,236.63c.1.06.22-.03.15.21.07-.24-.05-.16-.15-.21Z"/>
    <path class="a3" d="M391.99,231.18l-.38-.36.15.14.23.22c-.05.12.15,1.26.38,2.45-.23-1.2-.44-2.33-.38-2.45Z"/>
    <path class="a3" d="M399.2,371.55c.84,4.94,1.11,10.22,1.45,15.16.98.26,2.52.26,3.37.48-.38-1.52-1.65-2.83-2.18-4.32-.36-1.02-1.06-3.58-1.17-4.6-.41-3.58.74-7.04-.1-10.49-.46-1.9-2.76-4.66-2.31-6.35.1-.39.83-1,1.21-.25,1.23,4.06,3.06,7.87,5.6,11.25.26.34.81,1.44,1.36,1.04-1.03-2.72-3.19-7.19-2.34-10.05.14-.47.79-.69.91-1.5.34-2.27-.99-4.25,1.94-5.34.06-1.56-.17-3.23-.01-4.77.39-3.92,2.07-6.45,1.43-11.09-.31-2.21-4.5-6.05.96-4.58-.03-2.32-.15-4.94.86-7.09,1.22-2.61,1.08-1.19,1.55-4.71.13-.96.98-1.65.96-2.65.88-.24,1.95,1.74,2.38.22.29-1-.08-3.04.03-4.3.74-8.73,1.71-17.25-1.07-25.91-1.11-3.45-4.43-12.56-6.63-15.04-1.84-2.07-1.88-.62-3.07-.78-.6-.08-1.23-.94-1.97-.93-.41,0-.17.83-.74.99-.26.07-.66-.05-.96,0,.06-.61-.48-1.34-.51-2.16-.04-1.1.59-1.96.46-2.8-.06-.41-.42-1.62-1.14-1.3-1.25.55-.47,2.61-.76,3.57-.23.78-1.36.58-1.43,1.03-.28,1.9.8,2.51.99,3.83.18,1.27-.12,2.78,0,4.09-1.61.35-.78-1.14-.96-2.17-.11-.6-.54-1.06-.48-1.69l-1.44.48v-1.44c-2.15.25-1.14-.34-1.52-1.61-.27-.9-1.92-3.38-2.28-4.48-.33-1,.45-1.7.36-2.27-.1-.64-.94-1.46-1.3-2.08-.14-.24-.03-.6-.07-.64.23-1.63.71-3.13.48-4.82h-1.93c-.32,0-.64,0-.96,0l-.72-3.85c-.42,0-.3,2.19-.23,2.65.07.53.4.87.47,1.2.16.73.47.91.48.96.13.71-.17,1.79,0,2.41-.76.08-1.69-.13-2.41,0v-.48c.07-.03.9-1.19.92-1.27.2-.91-1.26-2.44-1.36-2.89-.1-.46.58-1.05.44-1.62-1.44.35-2.91-.9-3.85-1.93-1.41-1.54-.55-1.42-.48-2.41,1.99-.29,3.45.88,5.29,0,.18-.8-.54-.29-.86-.58-.17-.16.02-.62-.39-.89-.46-.3-2.44-.85-2.56-.98-.25-.28.37-2.17-1-2.37l-1.44-3.37c.8-.03,1.61.04,2.41,0l.24.48h.48s.24-.48.24-.48c.24-.79-.36-1.37-.48-1.93-.05-.2-.04-.93,0-.96.06-.05,1.26-.06,1.44-.72.15-.48-.17-.67-.48-.96-.98-.89-4.39-2.27-5.78-2.65.03-.32-.02-.64,0-.96.12.06.69,0,.96,0,1.34-.02.84-.25,1.44-1.44.21.08,1.76-.4,2.09-.56,1.7-.81.41-2.77-.65-2.33v-.48s0-1.45,0-1.45h-1.93c-.06-1.21,1.35-1.53.96-2.89-.36-.35-2.93.82-2.41-.96,1.59.09,2.97-.95,3.79-2.23.34-.52.49-1.56.54-1.62.03-.04.83-.25.95.3.44,2.1.48,1.24,1.94,1.63-.05.56.29.97.48,1.44.08.2,0,.54.23.95.4.69,1.53,1.34,1.69,2.42-.29.97.41,1.88.47,2.66.18,2.33.44,13.99-.96,14.93-.29.19-.79.15-.92.27-.57.51.57,3.17,1.39,3.59.51.26,2.28.38,2.41.22.08-.1.48-2.25.52-2.62.23-2.78-.59-5.5-.5-8.45l1.92,3.85c.17-.9-.22-5.68-.77-5.81-.24-.06-.59.1-.67.03-.56-.5-.62-8.73-.48-10.11.03-.27.38-.65.48-.96-.11-.57.09-1.32,0-1.93-.3-2.11-.33-3.72-.48-5.78-.09-1.17-.47-1.36-.48-1.44-.06-.62.09-1.33,0-1.93-.17-1.18-.24-2.38-.56-3.55l-.41-.3c.42-3.03-.67-8.07-2.38-10.79-.28-.45-.77-.2-.92-.33-.1-.08-.32-1.64-.54-2.37-.41-1.3-2.1-8.32-2.46-8.63-.27-.23-1.21.09-1.39-.04-.65.15-1.34,1.32-1.44,1.93-.2,1.13.13,2.65,0,3.85-.04.02-.05.48-.71.51-1,.06-2.02-.8-3.14-.51l2.41-1.92-3.81-.52c-.42-1.28-.89-1.94-1-3.33,1.27.23,2.47,1.73,3.88.75.31-.21,1.52-3.86,1.42-4.12h.48c.04-.31-.05-.67,0-.96.46-2.59,1.2-4.76,1.93-7.22.14-.49-.18-1.16.23-1.94.82-1.56,4.71-2.79-.23-3.36-.25-.88.46-.91.48-.96l.63-.08c.2-.06.27-.39.33-.4v-.48c1.88-1.12,4.47-2.75,3.85-5.3-1.79-.63-3.74.93-5.08.98-.57.02-.65-.49-.69-.5-.04-.31.05-.67,0-.96-.85-4.71.62-6.85,1.43-11.33.63-3.47.93-7.03,1.53-10.51,4.25-4.95,8.42-10.14,9-17.01.09-1.05-1.14-1.77-1.32-2.39-.16-.56.6-2.38.43-3.77-.17-1.38-1.32-2.51-1.45-3.37-.4-2.71.7-5.28.49-7.96-1.53-.53-1.38.77-1.92.96.07-.45-.1-1.05,0-1.44.01-.06.3.04.48-.96.11-.57-.08-1.32,0-1.93.03-.19.95-1.45.48-2.41v-3.37c.45-1-.43-2.13-.48-2.41-.22-1.26-.28-2.69-.48-3.85l.43-.28c.13-.7.04-1.42.05-2.12.03-1.74-.26-4.21,0-5.78,0-.03.34-.09.42-.32.53-1.67-.75-.99-.9-1.13-.13-.13.26-1.05-.24-.97-.72.34-1.44.65-2.17.97-.08-2,.78-6.03-2.16-5.8-.18.01-2.56.88-2.65.98h0c-.13.14.14,1.91-.06,2.59-.17.58-2.98,2.68-.57,3.6.84.32,1.39-.44,1.11,1.27-.53,3.28-.76,3.31-.49,6.76.09,1.08-.41,4.25.73,4.56,1.27.32,1.64-1.04,2.64-1.44l-.49,6.97c-.78,4.27-1.56,9.17-1.9,13.5-.16,1.97.09,4.03,0,6.01-.07.07.07.42-.08.64-1.85,2.65-2.78,4.66-2.32,8.02.59.7,2.08-1.83,2.33-2.24.72-1.18,2.24-5.18,2.96-5.71.37-.27.5-.31.97-.24.18,2.06-.94,4.58-2.19,6.24-1.16,1.54-2.99,2.52-3.84,4.35-1.03,2.21-.45,3.8-.81,5.94-.52,3.12-4.27,10.14-5.58,13.68-.57,1.55-.71,3.4-1.15,4.63-1.56,4.42-3.39,6.31-3.29,11.16.01.65-1.92,8.26-2.31,9.24-1.13,2.86-5.72,9.09-4.88,11.91.44,1.48,1.94.27,2.63.27,1.77-.01,1.79,1.08,1.78,2.55l1.34,2.75c-.02.26-.04.93,0,.96l-1.93.48v.96s.9.05.9.05l.07.91c-.06.02-.3.67-.7.97-.47.35-1.18.55-1.49.95-.29.38-.14.78-.22.97-.06.15-.85.5-.48,1.44.3.05.71-.07.96,0,.32.09.64.38.96.48.74,2.71-.12,3.56,2.41,5.3.97.67,2.78,1.26,3.37,1.93.68.77,1.11,2.34.96,3.37-1.15.69-1.67,1.18-1.46,2.63.04.25,1.06.57,1.46.74,1.09,1.43-.61,2.89-.46,3.57.15.68,2.09,1.82,2.87,1.73.73,1.82.51,2.59,0,4.33l-1.91.02c.23,1.42-.9,1.81-1.46,2.87-.92.05-2.5-.35-2.84.78-.16.55.07,1.32-.05,1.63-.06.16-2.42,1.41,0,1.44-.29,1.75.62,1.21-.94,2.17-1.54.95.05,1.17.7,1.66.92.69,2,1.5,2.64,2.42.03.05.34.7.48.96,1.15,2.17-.2,1.08-.75,1.89-.39.57-.04,1.42-.42,1.99-.44.67-2.26.12-1.71,1.17.06.12,1.01,1.52,1.08,1.59.16.16.61-.04.87.39.31.5,1.76,3.22,1.42,3.56-1.16.17-2.48-.99-3.35-1.71-1.69-1.4-2.94-3.97-5.31-3.59-.15.14.4,1.7.58,2.07.6,1.25,1.74,2.71,2.31,3.71.32.56.92,1.36.96,1.44.16.32-.4,1.04.85,1.05l3.48,6.18-.24,2.41c-1.16-.02-2.36-1.54-3.37-1.92-.59-.22-.94.12-.72.72.2.51,1.88,3.54,2.17,3.61h.47c.91-1.07,1.61-1.73,3.13-1.44.23,1.45-1,2.22-.97,3.13,1.6.36.76.99.97,2.17l-.44.28c-.56,1.38.75,2.84.83,3.9.06.68-.69,1.68-.4,2.57-1.62.38-.69.58-1.03.87-.25.21-1,.04-1.64.55-.17.13-1.52,2.52-1.59,2.75-.21.71-.16,2.51-.08,3.33.06.58.48.65.49.69.11.75-.08,1.63,0,2.41h.48c-.02-.83.27-1.62.48-2.41.41-1.55.57-2.9,1.57-4.23.1-.13.53-.05.71-.22.39-.37.21-1.22,1.82-1.35.81-.07,1.13.35,1.67.51-.02.32.03.65,0,.96-.07.84-.26,2.1-.48,2.89-.17.61-.72,1.14-.86,1.79l-1.06,5.92c1.6-.89,1.42-3.82,3.85-3.37.52,1.69-.86,4.08-.43,5.48.15.48.96.96,1.32,1.56,2.4,4.03,3.41,9.52,3.44,14.14,1.57.19,1.32-1.38,1.82-2.27.74-1.31,1.74-3.51,3.01-1.84,1.17,1.54,1.11,4.86.94,6.75-.18,1.98-1.46,4.73-.88,6.68.3,1.03,1.89,2.51,1.37,4.16,1.17-.46,1.35-2.28,1.45-3.37h1.44c-.08,1.34.13,2.76-.01,4.08-.49,4.53-2.96,9.96-3.38,14.44-.08.87-.13,3.52.25,4.13.63,1,1.02.72,1.22-.17.12-.55,1.39-.38,1.44-.32.68.69-1.14,3.83-1.36,4.66-.24.9-1.27,6.63-1.05,6.9l2.41-1.44c.66,3.71-2.58,8.07-2.89,11.33-.11,1.19.58,1.95.51,2.85-.23,2.91-2.03,7.21-1.39,10.06.15.64.76,1.15.89,2,.31,2.14-.31,2.19-.96,3.61l-2.85,1.48c.07,1.59.41,2.87.45,4.54.02.74-.44,1.91.72,1.68,1.53-1.46.28-4.17.79-5.95.11-.38.66-.75.9-1.27l2.41.48v-13s2.79,8.04,2.79,8.04c.24.53,2.24,4.34,2.98,3.52-.08-1.19.11-2.45.02-3.63-.28-3.62-1.27-8.51-1-12.04.06-.87.37-1.85.5-2.85.06-.45.9-.35,1.2-.26,1.11.33,2.41,6.6,2.64,7.95ZM384.76,217.21c.1.37-.1,1.33,0,1.44v2.41c-3.13-.95-4.11-4.01,0-3.85ZM378.04,212.88c-.04-.05-.11-.69-.47-1.21-.47-.68-1.03-1.75-1.68-2.18-.73-.49-1.62-.42-1.69-.48-.13-.11.06-1.16-.03-1.65-.1-.53-.48-1.04-.49-1.47-.01-.83,1.43-1.44.98-2.64h-3.37c.2-.25.29-.73.48-.96.22-.26,1.01-.71,1.45-1.2.45-.49.6-1.46,1.25-1.64.77-.22,3.27-.61,4.04-.54.08,1.26-.12,2.61,0,3.85.04.39.24,1.33.48,1.44v1.44c0,2.16.24,4.94,0,6.98-.05.44-.93.28-.96.24Z"/>
    <path class="a3" d="M137.38,101.1v.54s-.01-.29,0-.54Z"/>
    <path class="a3" d="M207.21,143.26v.48c2.4.14,3.49,2.81,2.84,5.01-.05.17-2.49,2.14-2.66,2.18-.77.22-1.14-.33-1.62-.45-.27-.06-.65.04-.96,0l-.27.99-3.58-.02c.21,1.15-.08,2.79,0,4.08.07,1.03,1.43,2.87-.72,3.16-2.27.3-3.87-2.22-3.62-4.35-1.73-.11-1.29,2.48-3.37,1.93-.49-.51,1.09-5.3,1.44-6.26h-.48c-.08.08-1.67.42-1.93.96-.37-2.29.27-1.56,1.21-2.39,1.2-1.05,1.35-1.17,2.64-1.95.03-.02.46-.45.48-.48.28-.49.33-2.14,1.22-2.39,1.15-.32,1.47.81,1.95.92.91.22,2.16-1.93,2.12-2.86,1.42-.64,2.12,1.32,2.4,1.44.23.1,1.03-.02,1.44,0,.47.03.97.02,1.44,0h0Z"/>
    <path class="a3" d="M192.24,151.86c-.16.17-.83.04-1.35.83-.91,1.4-.84,5.76-3.67,3.58-1.79-1.38-2.77-2.79-3.59-4.83-2.05-.05-.33-8.96-1-10.31-1.41-2.8-3.19-4.67-5.53-6.75-.54-.48-1.98-1.04-2.17-1.71-.16-.58.84-1.02.97-1.88.13-.92.05-2.26-.23-3.17-.92-2.96-5.76-9.53-8.2-11.54-1.17-.97-4.32-3.02-5.77-2.9-.21.02-1.61.47-1.68.53-.36.35.65,3.39-.74,2.86-1.71-.65-4.1-4.53-6.04-6-2.13-1.6-4.84-1.88-6.89-3.22-3.62-2.35-3.02-1.93-7.27-2.84-2.17-.46-4.35-.96-6.51-1.43-.13-1.26,0-.77.7-.97,1.44-.42,2.57-.65,4.11-.47h0c1.26.14,2.89.33,4.33.48-.34-.44-.84-.71-1.4-.89.56.18,1.06.46,1.4.89.16.02.32-.02.48,0,.58.06.45.48.48.48.61.11,1.33-.1,2.07.09,1.09.28,2.47.8,3.46,1.35l-.73-2.16c-.09-.75-.02-.84.74-.74,1.81.25,2.66,2.38,4.55,2.41.08-1.12,1.22-1.64,1-2.86,5.14-.84,11.8,4.43,14.04,8.79.61,1.18.94,3.12,1.58,4.19.63,1.05,2.64,2.59,3.37,3.86l-.24-3.37c3.21.03,5.4,4.11,6.5,6.73.96,2.28,1.37,5.34,2.71,7.4,2.32,3.57,3.3,11.7,5.53,16.39.74,1.56.41.82,1.06,1.55.87,1,.76,2.54,2.54,2.79.21.5.33,1.35.49,1.92h.95c-.08.19.15.7-.05.91Z"/>
    <path class="a3" d="M125.66,100.93c.22.03.43.05.63.06-.21,0-.42-.03-.63-.06"/>
    <path class="a3" d="M373.22,76.12c-.74.56-.5,1.22-1.69,1.44-2.02.37-3.72.83-5.67,1.55-1.28.47-2.31,1.51-3.71,1.34l.24-1.92c-1.53,2.11-3.73,1.09-5.7,1.52-1.91.42-3.39,2.57-4.89,3.29-1.57.75.19-2.45.49-2.88.32-.44.68-.78,1.19-.98l.07-.65c.03-.08.09-.13.17-.17.06-.03.12-.06.16-.08.04-.02.07-.04.08-.06,0,0,0,0,0,0h.48c2.32-.59,4.75-3.17,7.42-2.37.78.23.63,1.22.78,1.4.45.54,6.84-3.94,8.82-3.31.09.03,1.6.95,1.66,1.02.25.26.03.8.09.85"/>
    <path class="a3" d="M312.86,148.08c-.25.55-.46,1.06-.97,1.44l-.72-2.41c-1.88-.64-1.39,1.48-2.7,1.87-.79.23-2.91.04-3.47-.51-.11-.1-1.07-1.89-1.07-2.07,0-.11.43-2.09.5-2.18.03-.04.59.04.95-.23.12-.09,1.83-2.33,1.88-2.48.19-.65.18-3.28.06-4.03,1.1.12,1.41-.74,1.93-1.44.18-.25.65-.36.48-.96.61.23,2.17-.89,2.41.24.12.61-1.5,2.62-1.21,3.61l3.61-.96h0q.92-6.19,0,0c-.53,3.54-.15,6.83-1.68,10.12Z"/>
    <path class="a3" d="M353.89,78.59s-.1.05-.16.08c.06-.03.12-.06.16-.08Z"/>
    <path class="a3" d="M355.41,73.72c.09-.05.04-.75.96-.48v1.93s-.96,0-.96,0c.1-.38-.07-1,0-1.44"/>
    <path class="a3" d="M269.57,127.17c.13,1.74.61,9.5,1.17,10.79.04.08-4.07-2.85-5.1-3.2-.51-.17-3.73-.82-3.88-.7l.48,1.92c-1.13.12-2.07-.03-3.1-.51l-1.02,1.46c-2.11-1.05-2.8.28-4.3.49-1.24.17-5.05-.07-6.04-.7-1.24-.79-1.02-2.07-4.48-.22-.04-.79.26-1.67-.49-2.18-.77-.52-.89.24-.95-1.19,2.52-.03.71-4.2,2.68-4.78,1.83-.54,1.52-4.52,2.24-4.39.15.03,1.58-.04,2.36.03.56.05,2-.09,2.13.04.86.85-.71,2.29,2.66,1.89.63-.07,1.49-3,2.25-3,1.57,0,3.72,3.55,5.44,3.51,1.03-2.04,1.81-3.95,1.71-4.84,2.57-.15,2.05,5.87,2.6,5.75.06-.01,2.1-7.18,2.85-6.94.2.87,1,2.69,1.07,3.61.59.08.89-.07,1.03-.38,0,1.78-.28,3.66-1.31,3.51Z"/>
    <path class="a3" d="M271.38,142.35c.29.05.62.38,1.05.41,1.65.14,3.38-.57,3.12,1.93-1.99-.23-3.29-.62-5.29,0-.13-.86-.07-2.54,1.12-2.35Z"/>
    <path class="a3" d="M364.8,247.55c.31,0,.31.48,0,.48-.31,0-.31-.48,0-.48Z"/>
    <path class="a3" d="M387.48,405.52c-.74-.18-.4-2.89-.41-3.55,0-.38-.52-.84-.35-1.49.25-.99,2.6-1.75,3.11-.29l1.2-.96q.09-.43,0,0c-.3,1.45-.95,3.12-1.45,4.57-.4,1.15-.73.96-1.44,1.69h0c-.1-.07-.42.09-.66.03Z"/>
    <path class="a3" d="M375.63,405.49h-.96c-.01-.32.01-.64,0-.96-.08-1.8-.27-5.3.08-6.9.13-.61,2.58-3.97,3.07-4.15.33-.12,1.06-.23,1.17.26.26,1.09,1.48,3.93,1.48,4.3,0,.73-1.48,2.13-1.86,2.99-.17.4-.04,1.04-.09,1.09-.16.18-2.44-.72-2.89,1.93-.06.38-.04,1.04,0,1.44"/>
    <path class="a3" d="M392.64,234.96c-.06-.28-.12-.57-.18-.87.06.3.12.6.18.87Z"/>
    <polygon class="a3" points="391.99 231.18 391.8 231 391.99 231.18 391.99 231.18"/>
    <path class="a3" d="M387.17,173.53c-.49-.49-1.36-.73-2.34-.75.97.02,1.84.26,2.34.75Z"/>
    <path class="a3" d="M382.19,179.67c.8,0,2.09-.19,2.49-.58-.41.4-1.7.59-2.49.58Z"/>
    <path class="a3" d="M381.74,190.86c-.17-.52-.45-1.53-.86-2.24.41.71.69,1.71.86,2.24Z"/>
    <path class="a3" d="M402.42,258.85c-.5-.22-.96-.5-1.39-.83.43.33.89.61,1.39.83Z"/>
  </g>
</svg>