<?xml version="1.0" encoding="UTF-8"?>
<svg id="a3" xmlns="http://www.w3.org/2000/svg" viewBox="0 0 600 500">
  <defs>
    <style>
      .a3 {
        fill: #a98e6a;
      }

      .cls-2 {
        fill: #c9caca;
      }
    </style>
  </defs>
  <g>
    <path class="cls-2" d="M4.39,13.73v-3.46H1.23v-1.34h3.16v-3.47h1.39v3.47h3.17v1.34h-3.17v3.46h-1.39Z"/>
    <path class="cls-2" d="M14.02,15.76c-.77,0-1.44-.23-1.99-.7-.56-.46-.99-1.14-1.29-2.03-.3-.89-.45-1.98-.45-3.27s.15-2.37.45-3.25c.3-.88.73-1.54,1.29-1.98.56-.45,1.22-.67,1.99-.67s1.42.22,1.97.67c.55.45.98,1.11,1.28,1.98.3.88.45,1.96.45,3.25s-.15,2.38-.45,3.27c-.3.89-.73,1.57-1.28,2.03-.55.46-1.21.7-1.97.7ZM14.02,14.29c.39,0,.73-.15,1.03-.45.3-.3.54-.78.7-1.44.17-.66.25-1.54.25-2.64s-.08-1.97-.25-2.62c-.17-.65-.4-1.11-.7-1.4-.3-.29-.65-.43-1.03-.43s-.73.14-1.03.43c-.3.29-.54.75-.71,1.4s-.26,1.52-.26,2.62.09,1.98.26,2.64.41,1.14.71,1.44c.3.3.65.45,1.03.45Z"/>
    <path class="cls-2" d="M21.47,15.54c.05-1.03.14-1.99.27-2.86.13-.88.32-1.7.56-2.48.25-.78.56-1.54.94-2.28.38-.74.84-1.5,1.38-2.26h-5.39v-1.57h7.39v1.14c-.66.84-1.19,1.65-1.6,2.41-.41.76-.73,1.54-.97,2.34-.23.79-.41,1.64-.52,2.54s-.18,1.91-.23,3.03h-1.84Z"/>
  </g>
  <g>
    <path class="a3" d="M192.03,343.85l-.49,2.43,4.38.73c-2.79,1.96-6.8,4.07-10.21,4.62,1.38-2.61,3.27-4.95,5.22-7.15.28-.32-.05-.94,1.1-.62Z"/>
    <path class="a3" d="M194.97,354.33c2.86-2.24,13.36-7.27,16.86-7.93,1.01-.19,2.03-.13,3.05-.11-.2.81-1.42.79-2.19,1.45-.39.34-1.23,1.06-.47,1.47l10.93-2.92c.27,1.3-.33.83-.96,1.2-.45.27-6.01,2.6-4.87,3.65.29.27,5.13-2.27,6.32-1.94,1.93-1.13,6.06-3.51,8.14-3.81.79-.12,1.37.06,1.58.89-3.1.4-5.54,1.89-8.27,3.18-.51.24-1.21.11-1.45.23-.53.25-3.68,2.24-2.91,2.91l6.8-.97c.03.82-1.36.85-1.46.98-.35.43-.15,1.1.72.97,1.98-.29,4.41-1.98,6.8-1.97.96,0,.78.04.74.98-2.59.38-5.45,3.08-7.65,3.77-1.6.51-4.01.32-5.61.71-5.31,1.31-11.48,7.72-15.67,11.06-.99.79-4.49,3.55-5.34,3.89-.58.23-.97-.14-.72-.72.59-1.37,5.42-4.89,6.79-6.33,2.01-2.11,4.79-5.66,6.53-8.05.48-.66,3.13-4.41,2.71-4.82-2.02-.38-3.44,1.32-4.73,1.83-1.48.57-3.65.35-5.12.71-2.32.57-6.44,3.1-8.4,3.31-.96.11-.69-.87-1.46-1.43-1.02-.74-3.05-.33-.67-2.21Z"/>
    <path class="a3" d="M166.75,302.05c5.18.43,10.35,1.16,15.55.97l-10.45,3.35c-2.5-.61-5.23-1.19-5.1-4.32Z"/>
    <path class="a3" d="M208.89,387.53c1.31.47,1.15-.65,1.61-.91,3.78-2.17,10.05-3.89,12.89-5.82,2.37-1.61,4.47-5.55,6.55-7.55,1.32-1.26,3.33-2.77,4.86-4.13,1.9-1.68,4.66-3.52,6.57-5.34.84-.8,1.18-2.42,0-1.95-.34.14-5.83,3.88-6.08,4.15-.47.49-.38.64-.49,1.19-1.12-.24-1.5.46-2.22.94-3.59,2.41-6.73,5.53-10.42,7.81l1.44-2.68c2.25-2.19,4.63-4.59,7.08-6.55,1.2-.96,7.78-5.19,7.98-5.64.8-1.88-2.99-1.25-1.91-2.63.14-.18,3.72-1.19,3.89-2.43-1.28-.22-3.44.73-3.47-.9l-.64-.06c-1.61,1.49-3.78,2.01-5.58,3.18-4.73,3.07-12.26,9.64-16.57,13.56-.92.84-5.79,5.49-6.06,6.09-.59,1.28-.3,3.42,1.41,2.88,1.63-2.08,3.45-4.01,5.37-5.81,2.59-2.43,6.91-6.49,9.91-8.07,3.51-1.85,1.71.52.07,2.02-4.81,4.42-10.2,8.25-14.84,12.87l-.16.92c1.73.08.48.87.41,1.51-2.39-.14-4.35,2.35-1.61,3.34ZM236.02,357.95c.32.16.32.32,0,.49v-.49Z"/>
    <path class="a3" d="M240.64,358.67c.02-.79,11.43-3.88,13.11-3.64.11.7-.82.64-1.34.84-2.18.86-4.48,1.34-6.7,2.05-.5.16-5.13,2.72-5.08.75Z"/>
    <path class="a3" d="M249.2,351.2c-3.13,1.06-6.37,1.91-9.54,2.85,2.74-2.57,7.58-3.41,11.18-3.88-.16.91-1.01.81-1.64,1.03Z"/>
    <path class="a3" d="M149.01,192.68c-1.18-.18-1.19-.93-1.59-1.82-1.4-3.08-3.71-12.66-3.42-15.82.15-1.59,1.77-3.98,1.85-5.7h0s2.43,0,2.43,0c.18,6.89.93,13.76,1.48,20.64.06.74.44,2.89-.75,2.7Z"/>
    <path class="a3" d="M142.85,192.52c1.23,7.34,3.85,14.54,3.97,22.03-1.24.19-1.47-1.02-1.83-1.81-2.19-4.81-3.42-13.23-4.49-18.6h0c-.14-.71.17-1.79,0-2.43,0-.02-.02-.06-.04-.09.01.03.03.06.04.08l2.35.81Z"/>
    <path class="a3" d="M154.6,294.76c.42-.36,4.74.77,5.47,1.08,1.51.63,1.33,2.95,3.76,2.32.13.8-.65.46-1.2.48-3.28.13-4.4-.31-6.92-2.32-.58-.46-1.33-.54-1.11-1.56Z"/>
    <path class="a3" d="M161.17,324.41l-.25,3.16c.04.67-.16.9.74.73,1.17-.22,7.54-5.87,8.01-5.35-.88,1.07.32,3.85-.03,4.34-.25.35-6.01,1.82-6.22,2.07-.21.25-.04.98-.07,1.37-.51.94-5.82-4.76-2.18-6.31Z"/>
    <path class="a3" d="M169.21,340.71c3.48-2.69,9.84-3.61,14.07-4.64-.69,1.68-3.05,2.19-3.92,3.61-.64,1.04-.22,2.17-.94,2.95-.21.23-4.46,3.03-4.73,3.1-1.37.33-3.43-1.93-4.32-2.83-.8-.81-2.32-.53-.17-2.19Z"/>
    <path class="a3" d="M160.22,316.63c.57-.12,1.06.79,1.52.88.46.1,6.74-3.14,7.78-3.71,1.28-.71,7.56-5.21,8.42-4.46.85.74-.67,1.06-.92,1.24-2.82,2.09-13.09,9.44-15.87,9.91-.85.14-1.78-.01-2.65.02-.43-.89,1.11-3.76,1.73-3.89Z"/>
    <path class="a3" d="M301.97,198.84c-.49,1.73.4,4.26-1.54,5.75l1.94.72c-.36,3.84-4.39,5.87-6.31,8.99l2.42-.24-1.45,2.19c-.14.36,1.3.35,1.46.99.45,1.89-9.03,11.22-10.2,13.6-1.76,1.83-2.72.15-2.43-1.93.18-1.3,1.38-2.05,1.45-2.96.07-.88-.63-1.68-.43-2.79.33-1.77,2.93-4.49,2.24-7.81-.12-.58-.93-.83-.78-1.9.69-5.12,3.88-11.2,7.95-14.47.93-.75,7.9-4.96,8.51-4.37,1.02,1-2.57,3.33-2.82,4.22Z"/>
    <path class="a3" d="M279.29,145.03c-.28-.3-3.17-6.65-3.17-7.03,0-1.24-.3-8.2,0-8.51,1.12-1.16,2.32,1.73,2.58,2.53,1.19,3.76,1.55,8.39,2.31,12.29-.27,1.13-.83,1.68-1.72.73Z"/>
    <path class="a3" d="M169.43,242.79c2.34-.06,5.44-1.14,7.76-1.03,1.59.07,3.68.79,5.36.99,1.32.16,5.37.93,5.81.94,1.33.03,2.67-1.39,3.67,1-2.64.26-5.17-.3-7.78-.48.65,2.41-1.04,4.49,2.43,4.86.1.85-1.68.53-2.18.48-1.49-.16-2.95-.71-4.43-.92-2.9-.42-8.65.58-7-3.94-2.21-.16-4.67.33-6.83-.24-1.38-.37-.94-.81-.94-2.19,1.44-.06,2.66.56,4.13.53Z"/>
    <path class="a3" d="M180.36,256.84c-5.15,1.45-9.1,2.62-12.64-2.42,1.9-.19,3.45,1.73,5.14,1.94,2.15.26,5.87-1.8,7.49.49Z"/>
    <path class="a3" d="M216.82,62.41c-1.06-.22-1.37,1.02-1.91,1.73-4.88,6.43-9.83,15.14-11.7,23.06-1.32.41-1.05-1.7-2.18-1.46-.57.12-1.35,1.68-1.6,2.29-1.31,3.11-2.23,8.73-2.87,12.2-.77,4.18-1.6,8.49-1.61,12.73l-2.61-.95c-.6.18-2.19,3.11-2.48,3.87-1.53,4.04-2.87,10.55-4,14.96-.49,1.92-2.62,13.17-3.05,13.72v.97s-.97,0-.97,0c-.05.63-.36,3.73-.49,3.89v.97s-.97,0-.97,0c-.03.74-.81,5.12-.97,5.35v.97s-.97,0-.97,0c0,.32,0,.65,0,.97,0,.04.41.22.38.63l-2.32,7.64c.05.17.04.94,0,.97l-.49.97c0,2.02-.71,5.52-.97,7.78l.4.32c0,1.54.59,3.85-.4,5.03.29,2.48.77,5.81.57,8.41-.15.04-.3.11-.41.23-.19.2-.26.42-.29.69,0,.07-.02.14-.02.2-.08.55-.22,1.1-.38,1.63-.04,0-.09,0-.13-.01-1.37-.39-1.96-7.46-3.47-8.72-.91.94,1,5.54.73,5.83l-3.4-1.94.48,4.86c-1.92.35-3.48-.95-5.34-.97-.53,2.65.66,2.79,2.91,3.41.18,1.3-1.49,1.7-1.85,2.76-1.08,3.17,3.1.09,2.34,3.07-7.86-1.36-2.75,2.24-2.95,3.1-.1.44-2.16,2.45-2.6,3.27-2.63,4.95,2.69,3.25,3.39,4.3.47.71.03,2.16.3,3.1.28.98,2.08,1.83,2.56,2.79,1.03,2.04-.09,2.83,3.67,2.41.34.33-1.98,4.76-.74,6.82.86,1.43,2.57-1.38,3.48-1.89,3.58-2.04,1.54,1.87,2.14,2.34.1.08,2.35.41,2.59.38,1.94-.2,5.67-5.07,8.22-4.66,1.3.21,4.94,3.4,6.69,4.03,1.25.46,3.99.34,4.84.99.77.58.75,3.19,3.4,2.68-.05.16-.04.94,0,.97.2.13,3.36.95,3.89.98-.02,1.24,1.95,1.23.76,2.95-1.55,2.23-10.83,1.15-13.39.46,1.07,4.49,8.6,4.17,12.39,3.89,1.98-.15,4.05-1.17,6.07-.73l-8.14,2.55c-1.56.51-4.1-.7-4.98,1.09,8.83,2.99,18.12.35,27.22.98.35,1.17-1.14,1.2-1.94,1.46l.97.49c.45-.33,9.65-3.13,10.56-3.29,1.62-.28,5.27-.46,3.01,1.56-.19.17-1.83.48-.94,1.24.64.54,5-1.49,5.35.25.37,1.85-4.25,3.91-4.86,5.58,1.75-.02,3.94-.95,5.61-1,1.06-.03,1.95.53,2.86.5,1.26-.05,2.68-1.31,4.16-.95.97.84-3.96,3.19-4.37,3.4v.97c1.84-.83,1.57.5,3.14.52.81.01,1.87-.49,2.92-.54.45-.02,1.67-.19,1.23.74-.57,1.18-9.12,5.45-10.84,6.17-.81.34-2.45,1.16-3.12,1.29-2.75.55-4.06-3.22-2.07-4.3l-.49-.49c-.07.07-1.6.05-1.94,0l-.97.49c-.07.06-1.6.05-1.94,0l-.97.49c-.45.39-2.57-.96-1.95,1.46.94.1,2.02-.13,2.92,0,1.87.27,1.29,1.33,1.46,1.46.99.77.56.56.97.97.14.14.86-.29.98.25.26,1.2-.62.53-.98.73-2.57,1.43-5.01,3.05-8.07,3.37-2.04.21-.72-1.04-1.61-1.7-.41-.31-6.45.19-7.52.33-3.08.38-6.44,1.38-9.53,1.89-.27-1.41.41-.77,1.07-1.09,1.03-.5,5.56-2.73,5.99-3.27.28-.36.29-.53.23-.98-.61-.59-14.51,3.34-16.65,3.52-1.91.78-1,2.26-1.34,2.8-.53.87-6.85-2.71-7.29-3.65-.47-1.03,1.15-.55,1.7-1.2.25-.29.86-2.31.72-2.44-2.83-.03-5.67.03-8.51,0-.93,0-1.83-.54-2.9-.52-.6.02-3.86.45-4.32.58-2.43.72,1.92,3.09,1.14,3.82-4.82,1.39-8.89-.55-13.61-.97.49,1.24,2.34,1.07,3.4,1.46l-1.95.97c-.2,1.31.71,2.25,1.81,2.81l15.94,2.06,3.63-.5c.31,1.28,1.03,2.08-.73,2.43-5.61,1.09-11.81.32-17.43-.52-.36.04-.53,1.45-1.75,1.78-1.05.29-5.66.2-7.09.22-.81.02-1.76-.49-2.33-.38-3.08.56-1.61,3.59.89,3.81l15.56-1.99h9.96c.24,1.37-.29.81-1.07,1.09-2.38.86-4.63,1.16-7.03,1.77-.85.21-1.36-.36-1.13,1.03,3.43.09,8.01.17,11.31,1.09,1.7.48,2.94,1.8.49,2.19-.92.15-5.73.42-5.96.61-1.11.89,2.43,1.69,2.82,1.83.77.28,1.31-.28,1.07,1.09l-9.72-.97c-.63.59,2.21,1.83-.05,3.14-.76.44-1.93-.11-1.42,1.48.17.55,8.04,4.83,6.8,7.52-3.97.47-8.5,1.21-12.38.49l-.73.98c3.7.5,7.49.8,11.1,1.79,1.41.39,4.88,2.08,5.67,2.08,1.07,0,2.12-1.27,3.16-1.68,2.81-1.12,5.22-1.12,7.78-1.7.22-.05.75-.63,1.41-.76,1.13-.22,12.22-2.04,12.21-.94-4.58.86-9.09,1.56-13.61,2.67-1.18.29-3.4-.13-3.4,1.94,1.93-.37,3.78.45,5.58.52,4.24.17,9.44-2.24,13.62-2.47.97-.05.76.1.73.98-3.68.73-7.4,1.68-10.95,2.91-1.38.48-5.25,1.8-6.23,2.44-.33.21-.27.93-.62,1-2.15.4-3.65-2.87-5.78-2.99-2.35-.13-4.84,2.3-7.05,2.97-.12.86,1.1.49,1.59.38,1.39-.32,2.64-1.21,4.24-.86-.35,2.5.35,3.27-1.94,4.85l1.94.97c-.45.03-3.87,1.08-2.91,1.95h6.32c-1.26,3.5.67,1.38,2.44.74.89-.33,3.37-1.35,4.07-1.25.32.05.26.73.43.84.82.51,4.04.32,1.49,2.52-4.65,4.01-9.88,7.32-14.79,10.99-.96.97.26,2.13,1,2.94l-.22.25c-1.68,1.28-3.78,1.73-5.62,2.67-.71.36-1.19-.03-.95,1.21,4.86-1.26,10.41-1.71,15.18-3.05,5.2-1.45,10.68-4.19,16.04-5.83,4.86-1.49,9.99-2.65,14.96-3.75-1.75,1.88-5.28,3.12-7.78,4.12-4.78,1.92-9.87,3.22-14.56,5.36-.75.34-5.14,2.47-5.31,2.72-.19.29,0,.97-.05,1.4.46.47,5.93-1.31,7.08-1.44.96-.11.73.11.7.94-1.98.7-3.51,2.2-5.48,3.03-1.03.44-2.07.22-3.05.84-.58.36-3.22,3.36-2.65,3.91,1.01.26,2.06-.48,2.91-.48l.97-.49c.09-.09,2.02-.44,2.43-.49,0-.32,0-.65,0-.97,0-.53-.25-1.12.3-1.5.88-.61,4.72-2.33,5.89-2.76,1.14-.42,7.57-2.52,7.91-.83.14.67-.78,1.33-1.28,1.63-1.75,1.04-6.85,2.6-8.92,2.99v.97c4.23-.99,8.58-3.07,12.88-3.4,2.27-.18,3.04-.51,2.68,1.95,2.43-.35,4.82-.67,7.29-.49.08.96.15,1.39-.82,1.85-2.54,1.22-6.66,1.3-9.39,2.53l1.25,1.47c2.74-1.08,5.51-2.06,8.36-2.8,1.69-.44,7.73-2.07,8.86-1.36.65.41.86,2.26,2.14,2.17,3.91-.62,8.27-1.66,12.18-1.92,4.11-.27,9.57.6,13.37,0,1.36-.21,3.91-2.48,3.41.48-1.22-.21-2.29.32-3.41.49-1,.15-1.94.32-2.92.49-.78.13-6.81.52-6.81,1.22,2.25.67,4.58.1,6.81-.24.95-.15,1.96-.07,2.92-.49-.08.09.25.89-.31.99-5.05.85-11.62.63-16.95.96-3.31.2-6.65.38-9.96.49-.34,2.08,2.17.34,3.11.45.34.04.21.92.6,1.01,6.54,1.57,20-.91,26.43-3.18.79-.28,1.73.13,1.45-1.2.48-.04.98.05,1.46,0,.46.62.99.62,1.46,0,.45.05.99.02,1.46,0,.41-.02.89,0,.97-.49,1.33.06,2.89-.84,4.37-.49v.49c-4.22,1.7-8.3,3.92-12.64,5.35-2.39.79-5.6,1.13-7.92,2.05-1.72.68-1.14,2.44,1.27,1.86.43-.1.45-1,1.13-1.39.81-.46,4.3-1.24,5.52-1.54,2.61-.64,3.61-.77,6.32-.97.94-.07.92-.48.97-.49.84-.07,2.98.29,3.89.49l.97-.49c.22-.19,4.92-.19,5.83-.48l-1.94,2.42,2.43.97c-1.4.3-2.3.22-1.94,1.95.27.28,6.06-1.89,7.56-1.77.19.01.18.29.22.31-1.35.45-2.65,1.36-2.92,1.46.02.47.6.54.97.49,1.78-.24,1.95-1.25,2.43-1.46,2.23-.98,7.93-3.15,10.18-3.67.82-.19,1.61-.3,2.46-.21.2.98-.46,1.14-1.12,1.55-3.12,1.99-6.63,3.6-10.07,5l-.48.73,2.43-.48c-.05.43.14,1.11-.05,1.4-.27.41-7.89,3.39-9.06,3.82-2.82,1.04-12.91,4.67-15.21,3.29-.51-.3-.64-.7-.24-1.24.7-.93,6.73-1.79,8.21-2.4.37-.15.07-2.09,2.61-1.85l5.96-4.5c-5.93,2.35-11.07,3.78-17.16,5.36-.29.08-.83,2.13-2.28.47,1.56-.72,3.26-1.07,4.85-1.72.57-.23,1.95-.52,1.96-1.2-3.15.28-6.19,1.68-9.23,2.43-1.61.39-3.23.67-4.86.97l-.66.45-.31-.45c-1.19.32-5.62.77-5.83.98-.17.17.3,2.2-.45,2.71l-12.47,9.44c-.44.87.27,1.66.19,2.56-.08.79-1.79,2.95-.16,2.78,2.43-2.83,8.24-9.62,11.68-10.69,1.45-.45.48,1.34.01,1.96-.96,1.25-5.94,5.19-6.09,5.58-.39,1.03,1.58.05.74,2.69-.9,1.83-9.19,15.87-8.52,16.51h2.9c-.26-2.41,5.95-13.24,7.56-13.61.59-.13,1.31.56,1.18,1.17-.12.54-1.97,2.63-2.3,3.54-.24.65-.18,1.52.63,1.12.73-.36,4.04-4.67,5.35-5.83.54-.48.8-1.17,1.7-.97.69.74-3.64,5.99-4.28,7.14-.82,1.48-2.14,3,.26,3.42,2.5.44,2.85-.79,2.56,2.56.91.21.94-.3,1.38-.81.53-.62,2.82-5.17,3.97-4.05.26.26-2.42,5.44-2.83,6.16-.76,1.33-2.59,3.19-2.98,4.31-.35,1,1.86.86,2.27,1.61.42.14.63-.14.9-.39,1.7-1.54,3.34-4.92,5.12-6.56,1.19-1.1,5.64-4.26,7.08-5.07.8-.45,4.05-1.79,3.57.17-.08.34-1.49,1.01-1.95,1.45-5.05,4.81-12.58,12.23-14.47,19.07-.1.36-.36,1.05.14,1.11,1.2-1.43,2.28-2.84,3.64-4.14,1.75-1.68,5.94-5.54,8.14-5.96,1.07-.2,2.26.07,3.2-.2.94-.27,1.23-1.64,2.51-1.86.62-.11,1.01.09.73.73-.39.91-5.84,5.74-7.06,7.06-.61.66-1.36,2.06-1.68,2.43-3.02,3.4-4.14,4.3-6.6,8.71-.23.42-1.26,1.03-.44,1.5,1.1-.02,4.1-2.5,3.56-3.34-.12-.19-1.16.28-.9-1.28.06-.37,5.41-3.55,4.87-5.59,4.82-2.25,2,3.85.71,5.81-1.11,1.7-4.94,4.24-5.57,5.85-3.04-.11-4.13-.64-4.86,2.67,1.68.44,3.53-1.16,4.86-1.7.46-.19,1.29.26,2.22-.45,1-.76,2.72-3.88,3.84-4.91.96-.87,6.71-2.61,7.7-2.36,1.1.27,1.42,2.41,2.6,2.77,4.9,1.49,7.37-7.1,10.39-9.37,2.1-1.58,7.14-3.42,9.69-2.94-1.25.87-5.58,6.12-5.35,7.28.51,2.52,3.88-1.76,4.38-1.2-.24,1.34-1.36,3.59.74,3.9,5.06.74,5.93-10.16,11.42-9.25l-1.94,8.75c2.16.18,1.95-1.66,2.9-2.71.38-.42,1.19-.55,1.36-.81.25-.39.1-1.21.39-1.78.66-1.31,2.07-2.75,3.62-2.96.28.3-1.05,4.46-.89,5.49.22,1.44,2.84,3.3,1.87,5.69l7.77-2.91c.22,1.02-.53,1.1-1.11,1.56-1,.8-5.47,3.24-5.73,3.62-.26.38-.65,1.91-.45,2.11,1.1-.38,1.73-.68,2.91-.97,1.14-.28,2.65-.27,3.4-.49l1.21,2.43c6.89-5.69,11.69-13.21,17.57-19.86,1.21-.27,1.35-.12,1.07,1.06-.95,3.97-5.62,10.34-8.19,13.68-.97,1.26-4.19,4.3-4.62,5.12-.56,1.1.08,1.84.26,2.91,3.1-1.38,8.34-1.72,11.15-3.19,1.28-.67,3.72-3.87,5.14-5.07,2.21-1.87,7.43-5.94,10.24-5.84,1.22.04.99,1.48,1.45,1.49.94,0,3.96-2,4.58-1.49-.79,1.48-7.71,7.83-6.32,9.23,1.83.19,2.89-.15,4.1-1.48,1-1.1,7.96-10.93,8.05-11.64,4-1.6.38,4.76.97,5.34,2.06.09,3.85-1.24,5.83-1.7l-2.92-.25,1.94-3.88c-1.92-.12-3.93-.25-5.83-.49-.53-.07-3.32-.29-2.43-1.45.53-.68,14.87-2.14,17.01-2.92-2.3,5.97-4.67,12.19-4.37,18.72.07,1.66,2.14-.18,2.58-.87,1.96-3.08,3.22-10.12,4.96-13.96.67-1.47,3.17-6.02,4.11-7.07.96-1.07,2.95-2.18,2.45.26l3.4-.49c-1.12,3.1-2.46,5.69-2.86,9.04-.07.56-.3,3.16.91,2.13.11-.09.54-2.11.89-2.77,2.46-4.68,5.14-9.24,7.87-13.76,1.5-.17,1,.38.59,1.32-1.96,4.43-4.11,8.22-4.76,13.26-.07.52.05,1.96.52,1.96,1.6-5.16,3.47-10.22,5.84-15.08.24-.5.13-1.27.23-1.45.13-.24,4.57-2.74,4.86-2.43.17,3.61-2.29,7.38-.86,10.83.96,2.31,1.44,0,1.91-.78,1.47-2.41,4.77-9.31,6.22-10.8.77-.79,1.98-.83,2.92-1.45,1.14-.75,1.99-2.25,3.25-3.07,2.03-1.31,4.86-1.43,6.73-2.99,1.94-1.61,3.82-6.29,5.38-8.26.41-.53,1.14-.45,1.18-.5.09-.12.15-2.17.49-2.92l-1.94.97c-.62-1.51-1.75-4.11-2.7-5.33-.83-1.07-2.37-1.3-2.57-1.6-.23-.34.03-1.07-.12-1.29-.27-.41-3.78.68-4.29-.84-.39-1.2,1.33-7.28,2.13-7.47,1.95,1.25,2.83,2.01,5.31,1.92.51-.02,1-.45,1.25-.47,1.39-.1,4.42,1.62,4.38-1.72-.03-2.29-3.18-.31-4.38-1.19.17-2.38,1.2-1.41,1.45-2.22.3-.97-.95-1.62-.99-2.41-.09-1.69,5.21-1.95,5.83-3.43.77-1.86-2.47-1.63-3.61-1.68-.77-.03-1.3-.29-.73-.96.08-.09,1.67-.47,2.29-.88,3.57-2.38,3.53-6.37,6.95-8.61-.1-.55-1.12-.04-1.43-.26-.22-.16.19-3.97-.29-5.3-.81-2.28-4.58-7.73-6.7-8.85-.46-.24-1.31-.86-1.78-.65.43,1.28,1.51,2.8,1.85,3.98.17.59.23,1.55-.64,1.12-2.53-1.25-7.27-11.26-8.77-14.08l-4.11-1.47c-1,1.06,4.34,8.8,3.91,10.88-.07.35-.78.26-.88.39-.53.67,2.73,8.75,2.33,10.83-.1.54-1.12.06-1.44.27-.23.15.08,2.71-.04,3.38-2.55.58-.9-1.48-1.52-2.37-.21-.3-1.96-.27-2.29-1.35-.24-.79.01-1.88-.12-2.79-.45-3.06-1.35-6.02-1.9-9.05-.39.05-1.38-.08-1.45,0-1.11,1.32,1.8,14.45,1.94,17.01-4.71-.44-3-3.7-3.51-6.93-.3-1.88-1.69-3.92-1.84-5.94-.13-1.63,1.99.71,1.46-.97-.62-2.01-4.02-5.56-4.28-7.41-.22-1.62.58-4.07.19-5.99-.77-3.82-4.85-9.55-7.57-12.38-.2-1.87,2.98.85,2.42-.96-.22-.72-4.44-5.39-5.33-6.34-3.03-3.24-13.45-11.51-14.84-14.33-.78-1.59.86-3.34-2.81-2.32-.15.04-2.64,1.27-2.73,1.4-1.59,2.24,5.71,5.05,7.2,6.06,1.39.94,3.02,2.19,3.93,3.6-1.31-.46-2.73.99-3.65.97-.94-.02-2.04-1.64-2.89-1.45-.53.12-1.62,3.41-2.11,4.23-.16.27-.02.98-.82.62-.39-.17-5.33-5.19-5.81-5.86-1.22-1.68-2.82-4.76-3.19-6.78l-1.45,1.46c.3-1.77-2.8-2.27-2.92-2.44-.96-1.45,1.84-1.74,1.45-2.65-.25-.58-2.56-2.12-2.91-1.71l-.49,4.37h-1.95c-.14,3.46,2.49,5.61.97,9.24-.49.72-2.86-1.34-3.18-1.96-.58-1.14,1.11-2.57-.46-2.41-1.51,1.47-1.79,3.84-2.75,5.52-1.08,1.9-3.61,3.81-3.82,6.15.29-.06.66.04.97,0,1.63-1.46,3.01-3.4,5.34-2.91.33.32-1.45,5-1.84,5.69-.87,1.55-6.79,7.37-8.36,7.92.09,1.08.16,1.64-.78,2.38-3.05,2.36-10.43,4.74-14.28,5.65-1.03.24-6,1.31-6.53,1.19-.63-.14-1.17-1.19-.28-1.69,1.16-.65,3.18-.42,4.36-.99.76-.37,1.61-2,2.27-2.14.56-.11,1.15,1,2.31.94,1.85-.1,4.06-1.68,5.64-2.43l-5.83.48c-.06-.54-.03-.96.24-1.46,1-1.89,10.01-7.25,12.4-8.74v-.49c-2.26-.02-4.01,2.03-6.1,2.41-2.28.41-4.19-.22-1.53-2.01,2.47-1.66,5.07-3.25,7.62-4.78.37-1.53-.81-.56-1.49-1.27-.41-.42-2.8-4.15-2.39-4.55,1.24-.21,2.43.65,3.61.49.48-.06,3.64-2.07,3.69-2.28.82-3.36-3.89-5.68-4.29-8.31-.35-2.34,1.63-5.19.88-7.89h-6.32c-.27,1.01.63,2.22.42,3.07-.31,1.3-2.27,1.68-2.36,1.8-.4.56,1.2,1.5.93,2.57-.38,1.52-4.8,3.24-4.85,3.54-.29,1.89,1.19,2.1,1.45,2.96.3.99-.75,1.4-.87,1.95-.14.63,1,1.17.88,1.79-.13.66-3.1,2.51-2.4,3.22l1.94.97c-.9.14-1.84.56-2.59,1.06-.72.48-4.73,3.45-4.98,3.8-.45.64.75,1.58-.16,2.7-1.22,1.49-3.29,1.53-4.2-.27-.61-1.2,2.59-2.93,3.53-3.76.31-.28.95.06.62-1.1h-4.37c.71-1.75-.98-2.05-.98-2.19,0-.31,1.64-2.72,1.96-2.92.71-.46,1.44-.1,1.94-.24v-.97c-1.11.3-1.83-.91-2.65-.94-.94-.04-2.45.85-3.67.45.99-1.93.31-1.27-1.33-1.83-.69-.23-1.18-.72-.61-1.08.33-.21,2.21.36,2.43-.97-2.87-.75-6.05-.63-8.9-1.08-.84-.13-1.49-.8-1.8-.87l-.96-4.37c2.72.22,1.15-1.17-.05-2.16-1.84-1.51-2.3-1.07-3.85-3.2,1.28-.37,3.02.73,4.08.52.38-.08.27-.88.35-.94.67-.46,1.42.9,2.26,1.27.49.22,7.66,1.59,8.08,1.56,2.14-.14,8.14-2.38,10.36-3.29,1.11-.46,5.49-2.44,6.18-2.97.56-.44.25-.92.29-1.49l-15.4,3.25c-2.21-.9-5.52-1.02-7.56-1.92-2.42-1.05-4.56-2.14-7.15-3.06-.78-.27-2.02-.07-2.37-.3-.28-.19-2.8-5.66-2.89-6.1-.61-2.92.8-6.35-3.98-6.47l-.51-4.36-3.16,3.4c-1.1.21-.3-.87-1.42-.99-1.97-.22-1.03.82-1.24,1-.21.17-1.74-.17-1.94,0-.29.24.79.88-.97.97-.37.02-1.39-.07-1.46,0-.09.09.22,1-.24.98-2.13-1.52-1.63-.56-3.03-.1-2.88.95-2.42-4.83-5.7-4.81-1.67.01-1.48.84-3.66.03-.25-.09-.66.23-1-.3-.33-.51-1.7-5.12-1.82-5.9-.22-1.47.6-2.6.32-3.64-.48-1.78-3.86-3.74-3.8-5.47.04-1.32,3.89-5.64,4.27-7.38.31-1.4.69-6.7.47-8.06-.44-2.7-4.61-13.15-6.44-14.95-.7-.69-2.03-.3-2.46-.94-.31-.47-.2-1.43-.69-2.23-.55-.92-2.2-1.8-2.87-2.96-1.45-2.5.18-1.94.34-2.18.61-.88-2.36-2.49-2.43-3.75l-6.24.9c.23,1.61,1.48,2.92,1.47,4.61,0,1.18-.78,5.91-1.08,7.2-.31,1.32-2.84,3.55-1.75,5.12.62.9,2.6.36,1.37,3.48.93.29,1.41-1.1,2.13-.95,3.13.67-1.63,5.77-1.54,7.43l1.83,7.13c.15.19,3.78-1.54,2.84,1.61-.13.45-5.7,6.04-6.48,6.65-.79.61-6.69,4.15-7.05,3.89-.19-.7-.55-2.08-.94-2.6-.44-.57-1.72-.27-1.96-1.1-.3-1.02,1.25-2.84.95-4.08l-7.77,3.65c-4.9,1-10.12,2.77-15.08.98-1.16-.42-1.66-.89-1.45-2.2l4.83-1.01c-.55-1.58.74-2.87.88-3.69.28-1.64-1.28-2.44,2.11-3.37l-.02-3.27c-1.24-.89-3.58-2.29-2.48-3.98.87-1.34,2.92-1.34,2.46-3.15-1.7,1.72-5.73-2.44-5.84-3.66-.06-.67.35-1.49.5-2.17.25-1.12.59-2.87.97-3.89.09-.23.55-1.12.97-.97.33,1.91.96,4.06,1.73,5.83.16.36.43,1.82,1.19.97.39-.44-3.24-10.22-4.88-10.49l.99-4.58c2.28,1.13,4.17-1.78,5.85-3.14.53-.43,1.66-.6,1.83-.84.14-.19,1.08-4.18,1.07-4.51-.06-1.06-.88-1.43-.97-1.72-.07-.21,0-.67,0-.97,1.32-.13,1.08-1.55,2.92-.97v-2.43s1.46.48,1.46.48c.04-3.78,1.04-8.13.47-11.89-.2-1.35-1.12-1.85-1.54-2.84-.8-1.93-1.13-5.22-1.36-7.39-.19-1.83.67-4.26-.97-5.59.15-1.1.04-2.25.48-3.4-.32-.3-2.57.59-2.92.97-.14.16-.08,1.19-.73,1.46-.96.39-.57-.88-1.03-.98-1.57-.36-2.72.95-2.14-2.1.1-.54.94-.26.98-.31.1-.11.38-2.39.49-2.92.4-1.96.72-3.3,1.34-5.25.26-.84-.37-1.85,1.1-1.56.04-.32-.03-.65,0-.97-.74-.68-.73-1.75,0-2.43-.1-1.6.03-3.25,0-4.86h-.97s0-2.13,0-2.13v-.3s.98,0,.98,0c-.04-.97.04-1.95,0-2.92-.07-1.65-.37-2.93-.49-4.37-.19-2.25-.27-4.56-.49-6.81-.13-1.34-.89-2.81-.48-4.54.05-.19,1.8-2.25,1.94-3.24.05-.35-.44-5.57-.54-6.51-.16-1.57-.45-4.83-2.38-4.19.23-1.87.93-4.68.51-6.49-.06-.27-2.19-1.05-2.95-2-1.8-2.26-1.84-8.3-1.34-11.08.26-1.46,2.37-3.95,2.28-4.42-.25-1.21-3.54-2.48-4.7-2.65-1.34-.2-4.64.91-5.46-.09h0ZM187.69,176.6c-1.75.91-2.15-1.67-3.15-2.66,0-.46.05-1.01,0-1.46-.14-1.25-.9-2.32-1.46-3.4,0-.16-.02-.34,0-.49.08-.48-.12-1.48.83-1.2.52.16.47,1.52,1.35,1.44.03.14-.04.45,0,.49v.49s.49,0,.49,0c.01.16-.02.34,0,.49.12.74.16,1.62.29,2.26.15.7,1.88,3.72,1.64,4.05ZM190.24,186.58c-1.92-.05-3.25-2.07-4.34-3.44-.26-.32-.32-.75-.88-.7-.03-.08.03-.22,0-.24v-.49s-.49,0-.49,0c-.07-.17-.18-.32-.24-.49-.61-1.55-1.55-2.53-2.06-3.65-.37-.8-.23-2.57-1.09-3.4,0-.24,0-.49,0-.73-.03-1.05-.36-2.21-.49-3.16-.05-.39.04-.82,0-1.21l.85-.24c.36,1.23.83,2.42,1.23,3.64.13.4-.06.87.6.73.02.08-.02.17,0,.24.95,3.76,3.72,8.36,6.32,11.29.33.38.65.83,1.21.86.02.08-.03.22,0,.24.02.72.18.76-.61.74ZM193.28,196.29c.76.57,1.1.81,1.46,1.7-.67-.15-.59.4-.44.81.22.6,1.21.87,1.17,1.62-.65.58-2.34-2.27-3.16-2.19-.03-.07.03-.18,0-.24-.57-1.4-1.55-2.77-2.67-3.64-.15-.12-.39-.34-.49-.49-.08-.12.22-.84-.83-.46-.49.18-.37.77-.4,1.18h-.72c-.03-.07.03-.17,0-.24-.4-.87-2.48-3.93-3.15-4.5-.17-.15-.48-.23-.49,0,1.28,3.5,2.81,7.7,5.14,10.65.27.34.41.66.93.65.03.08-.03.22,0,.24v.49s.49,0,.49,0c.07.17.17.32.24.49.08.17.05.36.23.61.25.34,1.15.95,1.22,1.24.08.38-.57.62-.68.99-.25.81.83,1.75-.52,1.53-.03-.07.03-.17,0-.24-.18-.45-.62-1.87-.96-2.07-.4-.23-1,0-1.47-.23-.64-.31-.4-1.44-1.21-1.34-.04-.13.05-.36,0-.49-.34-.93-2.15-4.9-2.66-5.48-.35-.4-.99-.31-1.34-.84-.25-.38-1.61-4.79-1.77-5.51-.64-2.8-.68-5.01-.11-7.77.27-1.29-.35-3.16-.68-4.44.03-.15-.04-.36,0-.49,1.88-.89,1.77,1.37,2.31,2.67.93,2.26,2.21,4.94,3.34,7.1.39.75,1.02,2.17,1.88,2.38.03.06-.03.17,0,.24.4.97,1.55,2.34,2.3,3.16.3.34.59.71,1.1.73.23.34.5.64.73.97.09.14.07.43.34.74.36.4.71.35.87.47ZM202.23,110.53c.19,5.92-1.53,11.79-2.91,17.5-.85,3.5-2.21,10.27-3.52,13.25-.54,1.22-1.44,1.94-2.29.57,1.16-6.21,1.16-12.62,2.55-18.78.58-2.55,2.17-7.86,3.27-10.1.24-.49,2.39-3,2.91-2.43ZM203.24,219.13c-1.15-.07-2.39.11-3.52,0-1.14-.11-1.96-.67-2.98-.91-3.11-.73-3.99-.43-6.94-2.3-1.3-.82-1.87-1.86-3.57-1.9-.18-.22-.71-.34-.9-.55-.25-.29-.84-1.75-1.04-1.88l-.02-.47-.47-.02c-.17-.46-1.75-3.78-1.94-3.89l-.02-.46-.47-.02c-.21-.56-1.78-4.19-1.94-4.37v-.49s-.49,0-.49,0c-.02-.14.04-.46,0-.49v-.49s-.49,0-.49,0c-.17-.62-.25-1.05-.24-1.7.01-.95.25-1.37.44-2.25l-2.12-6.13c.15-.82.43-1.62.76-2.38.15-.33.54-.55.63-.83.27-.88-.32-1.84.9-2.5.95-.21.53,2.81.62,3.5.35,2.71,2.11,5.27,2.78,7.92l1.34,2.18c.02.16-.01.33,0,.49-.37.03-.37.7,0,.73,0,.16,0,.32,0,.49.03,1.24,1.72,4.56,2.43,5.72.2.32.2.72.73.6.11.26.15.51.24.73.91,2.25,4.47,6.38,6.56,7.53.16.09.33.15.49.24.26,1,1.8,1.86,2.66,2.32,2.31,1.22,4,1.31,6.57.84v.73ZM216.32,182.24c-.18-.1-2.58-2.98-2.68-3.16-1.17-2.21,2.05-1.72,2.23-3.14.42-3.33-1.38-2.96-1.89-4.5-.24-.73.02-1.49-.09-2.08-1.19.26-1-.59-1.36-1.29-.61-1.17-1.3-2.16-1.07-3.57.32-.02.65.01.97,0,.48-.02.98.03,1.46,0-.02-.31.04-.66,0-.97h-2.43c1.03-.94,1.06-3.19,2.43-2.92.02-.29.06-.74,0-.97-.66-.12-2.45-.25-2.83-.59-.26-.24-.02-.74-.09-.86-.17-.3-.44-.94-.49-.97-.18-.11-.87.12-.97,0-.14-.16.08-2.46,0-3.17-.35-3.14-.38-6.5.03-9.68.06-.44.81-3.09.94-3.19.38-.29,1.27.27,1.41.8.17.63-.42,1.59-.45,2.36-.04,1.43-.25,4.39,0,5.59.15.72,4.34,4.1,5.17,4.32.95.26.53-.15.77-.57.86-1.5.36-2.81,2.35-2.08,2.64.96.57,2.24.48,3.96-.16,3,1.85,1.69,2.67,2.62,1.76,1.97-.12,8.93.23,9.25h2.43c.36,3.48-2.32,4.69-4.88,6.14l.51,8.93c-1.4-.19-3.65.4-4.87-.24ZM414.4,334.11c1.17-1.94,6.4,4.1,5.6,4.87-2.44.28-7.51-1.72-5.6-4.87ZM402.51,292.08l.23-.23.73.73-.23.23-.73-.73ZM391.32,394.4v.97h-1.46c-.24-.19.85-1.29,1.46-.97ZM309.16,352.85c1.22-.43,8.34-4.52,8.76-4.14.64.57-1.18,1.79-1.6,2.04-.77.47-7.79,3.59-8.12,3.3-.57-.51.39-1.29.96-1.2ZM304.8,355.02v-.48s2.91-.49,2.91-.49v.48s-2.91.49-2.91.49ZM251.76,372.62c-.09-.35.27-.73,1.28-1.06.93-.31,5.63-1.39,6.07-.97-.15,1.87-.55,2.78-1.22,3.17,0,.05.01.11,0,.16-.12,0-.24,0-.36,0-.43.13-.94.11-1.55.03-.46.02-.92.02-1.35-.04-.66-.09-1.43-.34-2.21-.47-.91-.15-.96-.49-.66-.82ZM258.01,365.42c1.31.86,2.78,1.44,4.15,2.17.25.13.7.21.6.62-.12.48-1.49.9-2.04.84-2.36-.26-5.9-1.72-8.34-2.37-.6-.16-1.57.2-1.52-.78.24-.32,6.17-.34,7.16-.48ZM263,359.4c-.62,1.5-.51.99-2.43,1.46-.56.14-1.35.9-2.43.48-.18-1.61,1.07-1.19,1.94-1.46.48-.15.56-.37,1.46-.49.47-.06.98.04,1.46,0ZM279.43,374.43c-1.15.43-3.08,1.01-4.28,1.31-.42.1-.78.18-1.22.12-.12-.56.29-.53.6-.74,1.47-.96,3-1.37,4.74-1.59,1.19-.15,1.42.43.16.9ZM300.65,379.99c0,.64-.21,1.42-.73,1.82-.42.33-3.29,1.43-3.96,1.63-.39.12-.7.28-1.14.19-.08-.42.22-.6.48-.85.61-.58,3.14-2.59,3.82-2.74.5-.11,1.02-.05,1.53-.05ZM231.88,285.27c-.67.5-4.49,1.58-4.86,1.22-1.5-1.48,3.4-2.37,4.05-2.88.75-.58.12-2.64,2.75-1.98-1.06,1.14-.77,2.76-1.95,3.64ZM229.94,329.76c-2.86,3.16-7.53,4.32-11.66,4.86.04-.57-.26-1.04.3-1.49,1.74-1.39,8.9-3.21,11.37-3.37ZM219.25,274.09c-.09-.94.89-1.08,1.46-1.46,2.74-1.82,5.07-2.68,7.78-4.13,2.04-1.09,6.76-4.39,8.62-4.78,1.38-.29,3.32-.1,3.05,1.62-.03.21-3.27,1.89-3.76,2.08-2.36.93-5.42,1.36-7.92,2.05,0,.46.19.69-.3,1.01-1.35.88-5.52,2.83-7.13,3.47-.48.19-1.49.79-1.81.14ZM199.54,324.38c.3-.59.21-1.4.52-1.91.71-1.16,16.58-6.96,19.19-6.32.11.7-.82.64-1.33.84-1.48.58-5.61,1.8-6.62,2.51-.43.3-.3,1.16-.8,1.72-.97,1.1-4.87,2.32-5.24,2.83-.23.31.08,1.04-.39,1.37-.91.65-5.54.84-7,1.41-.18-1.23,1.23-1.58,1.67-2.45ZM212.92,303.5c.63,1.19.35,3.37-.59,4.26-1.19,1.13-11.61,1.76-13.69,1.53-.52-.06-3.57-.79-3.69-.93-.62-.73.01-.9.74-.95,5.66-.4,11.66-2.85,17.24-3.91ZM186.19,286.49h-.97v-.48h.97v.48Z"/>
    <path class="a3" d="M348.79,250.52c-.79-1.5-1.47-3.14-2.07-4.74-1.55-4.13-4.14-14.24-6.91-16.9-1.25-1.19-6.41-4.94-7.91-4.53-.49.13-.9.84-1.59.91-.72.07-1.5-.48-2.37-.47-.7.01-5.51,1.07-5.92,1.39-.47.36-1.96,3.12-2.4,3.91-1.21,2.15-2.1,4.97-3.25,6.95-1.09,1.87-2.29-.36-2.32-1.35-.02-.69.71-1.35.86-2.06.66-3.18.14-7.41,2.02-10.02.38-.52,3.63-1.18,4.42-2.01.71-.74.29-1.82.54-2.13.18-.21,3.44-.64,3.79-1.83.67-2.23-4.52-3.3-5.08-4.08-1.36-1.87-.31-5.61,1.71-6.57.27-.13,4.14-.83,4.31-.69.11.09.26.97.77,1.43,1.16,1.06,3.1,1.85,4.39,2.91,9.68,8.02,19.13,20.23,19.59,33.18l-2.57,6.66Z"/>
    <path class="a3" d="M165.77,145.29c.09-1.49,3.53-3.14,3.9-4.87l-3.4.24c-.84-.84,1.82-3.87,2.44-4.61,1.07-1.28,4.57-3.49,1.94-4.38,2.24-1.91,3.12-4.74-.74-2.19-.36-1.51-1.1-.71-2.18-1.22,3.57-4.61,10.03-1.51,15.07-2.19-1.46,1.66-2.77,3.46-3.43,5.58,2.71,1.41.15.91.03.97-1.76.93.71,1.84.48,2.43-.22.57-1.59,1.16-1.85,2.04-.37,1.27-.2,2.99-.71,4.63-1.45,4.69-5.37,10.06-8.63,13.73-.44.49-1.51,1.85-2.17,1.71-1.31-1.33-.46-3.36-1.14-5.17-.3-.79-1.01-.66-1.07-.97-.34-1.88,1.69-2.85,1.84-3.9.09-.56-.42-1.24-.38-1.87Z"/>
    <path class="a3" d="M240.89,172.26c.43-.1,1.13.42,1.21.74.14.52-2.15,5-1.99,6.73.05.48,1.35.49,1.5,1.05.21.82-1.4,1.88-1.36,2.81.06,1.42,2.21,3.43,2.6,5.21.21.93-.18.98-.27,1.45-.22,1.18-.54,4.25-1.94,3.89-.3,1.29-.12,2.93-.97,4.37,2.03.08,2.55-.68,4.37-.97.34.35.09,9.03-1.94,9.24.28-1.88-.29-1.53-1.95-1.46l.97-4.86c-.64-.69-2.64,2.31-3.4,2.43l.97-4.37c-.59-.15-1.43-1.27-2.43-.98l.97-5.34c-.45-.51-3.42,2.89-2.89.75.3-1.22,1.48-3.15,1.41-4.43-.04-.74-.92-1.17-.87-1.84.08-1.05,3.03-6.79,3.69-8.47.43-1.07,1.61-5.79,2.31-5.96Z"/>
    <path class="a3" d="M270.29,127.33c.07.18.13.35.17.51.18.71.32,1.58.51,2.31-.07,1.51-1.89,1.46-2.66.21-1.06-1.73-1.44-4.9,1.42-4.46.02.08.06.18.09.27,0,0,0-.02,0-.02.12.57.26,1.15.71,1.4h0c-.1-.05-.17-.13-.24-.21Z"/>
    <path class="a3" d="M281.47,136.29c-.02-.06-.07-.21-.12-.39,0,0,0-.02.02-.03,1.01,2.7,3.57,6.19,6.65,6.34.04,0,.09,0,.13,0,.68.01,1.38-.13,2.1-.49.18-.09.33-.2.48-.32.6-.5.87-1.15,1.03-1.44.04-.07.08-.13.11-.15.06-.04.1-.06.15-.09.69-.39.48.25,1.5-1.17.03-.04.05-.06.08-.09.26-.32.47-.42.65-.64.87-.58,2.51.16,2.67,1.1.01.08.02.17.02.25.1.44.02.91.09,1.02.06.09.6-.16,1.22-.32,0,0-.02.01-.03.02.9-.59,1.98-.57,2.31.56.33,1.13-1.22,2.67-1.53,3.71-.1.33-.22.59-.14.95.93.25.99-.92,1.42-1.62.26-.43.62-.78.84-1.17.07-.12.13-.24.17-.36.31-.3,2.17,1.87,2.56,2.18,2.01,1.65,5,3.07,7.65,2.92v1.12c.06.03.13.07.2.1.87-.01,1.65-.21,2.23.6.14.2.22.34.28.46.11.15.22.32.32.5.12.09.29.21.61.39.09.05.16.19.24.24-.09.63.47,1.34,1.06,1.46.04,0,.07,0,.11,0,.05,0,.1.01.16,0,.7-.09.6-.77,1.81.13,1.68,1.24,2.52,2.48,4.75,3.27,2.63.93,4.74.83,7.42.23,0,.14.03.44,0,.49-.01.02-.1.01-.19,0-.09.59.05.9.33,1.07.43-.06.85-.1,1.32-.1.08,0,.16,0,.24,0-.16.5.37.43.47.66.02.05.04.12.07.17.27.69.45,1.69.92,2.37.23.34.53.6.96.68.34.49.5.63.97.97-.07.78.84.84,1.09,1.22.09.14.13.25.16.35.11.38-.09.54.41.91.08.06.17.12.28.19.38.23.65.51.97.73-.07.65.81.92.95,1.39.08.28-.2.59-.32.74,0,0-.02,0-.03,0-.16-.03-.33.03-.49,0-2.23-.51-3.04-2.39-5.11-2.47-1.86-.07-3.3,1.33-5.1,1.5l.49,1.94c-6.53-.36-9.86-5.11-14.92-8.17-1.84-1.11-3.95-1.87-5.83-2.92-2.27-1.27-5.7-3.91-7.9-4.74-2.33-.88-1.13.66-1.5,1.24-.61.97-10.3-3.97-11.51-4.76-1.79-1.16-3.55-2.62-3.07-4.96-.92-.1-.07,1.44-1.21.97-.82-.34-1.75-5.09-1.98-6.29-.14-.75-.65-1.99.27-2.46Z"/>
    <path class="a3" d="M246.4,414c-.25.82-5.2,5.64-6.23,6.42-.46.35-1.49,1.18-1.96.71-.69-.68,5.57-7.75,5.91-9.15,1.58-.47,2.8.26,2.28,2.01Z"/>
    <path class="a3" d="M416.59,391.49c-.85,4.41-2.19,9-4.24,13.01-.29.56-.22,1.45-1.09,1.58.61-4.38,2.25-9.12,4.13-13.12.27-.57.47-1.34,1.21-1.46Z"/>
    <path class="a3" d="M358.48,232.51c-.24.72.12,3.52-.94,2.94-1.38-.75-1.7-6.26-2.19-7.77-.12-.36-1.05-.75-1.38-1.28-2.25-3.57-5.71-8.77-6.39-12.81-.07-.39.04-.88-.49-.97.07-.29-.09-.75,0-.97-1.15-.24-4.2-3.05-4.61-3.89-1.49-3.02,1.36-1.76,2.83-.89.72.42,1.53,1.77,2.21,1.3.1-.07.01-.87.3-.92,1.6-.25,2.16,1.77,2.98,1.93.56.11,1.4-1.21,2.79-.97.26.05,2.87,3.78,3.11,4.28,1.9,3.79,4.19,14.33,2.89,18.23-.23.71-.91,1.19-1.11,1.81Z"/>
    <path class="a3" d="M415.84,300.15l-4.1-6.37c.56-.54,2.29,1.55,2.63,1.98.55.68,3.1,4.88,2.71,5.3l-1.24-.92Z"/>
    <path class="a3" d="M441.39,343.85c-.08.27-.04,1.11,0,1.46-1.45-.18-1.2-.12-1.69.96-.39.87-1.51,4.71-1.72,4.87-.95.72-2.99-3.6-2.88-4.08.16-.7,5.19-2.94,6.29-3.21Z"/>
    <path class="a3" d="M131.99,216.02c-1.07-.18-3.01-2.83-3.16-3.89-.16-1.18-.6-5.87-.49-6.81h0c1.78,1.97,4.26,7.41,4.39,9.96.04.73.06.88-.75.74Z"/>
    <path class="a3" d="M127.33,227.48c.18,1.56.89,8.21-1.51,4.42-2.56-4.04-3.91-14.32-4.76-19.3,1.02-.98.29-3.01.49-4.37h0c.62.02,2.03-.17,2.37.06.34.24.46,1.83.55,2.37,0,0,0,0,0,0,.93,5.39,2.26,11.48,2.86,16.82Z"/>
    <path class="a3" d="M231.89,419.19c-.07-.07-.82-.09-1.25-.45-.62-.53-.59-1.38-.7-1.49h0c2.53-1.37,6.05-9.56,7.78-10.48.71-.38,4.28.7,4.65,1.21,1.07,1.48-1.74,4.43-2.47,5.85-.53,1.03-2.44,6.08-2.72,6.27-1.07.74-2.79-.44-2.38-1.89l-2.91.97"/>
    <path class="a3" d="M125.97,243.47c.03.99-.58,1.92-.45,2.82.18,1.3,4.04,5.92,3.32,6.67-.55.56-1.42-.29-1.87-.8-2.35-2.7-6.82-7.64-7.85-10.86-.77-2.39.21-1.91.49-2.92h0c2.18-.59,6.31,3.33,6.37,5.1Z"/>
    <path class="a3" d="M148.69,159.7s0,.01,0,.02c0,0,0-.01,0-.02Z"/>
  </g>
</svg>