<?xml version="1.0" encoding="UTF-8"?>
<svg id="a3" xmlns="http://www.w3.org/2000/svg" viewBox="0 0 600 500">
  <defs>
    <style>
      .cls-1 {
        fill: none;
      }

      .a3 {
        fill: #a48c67;
      }

      .cls-3 {
        fill: #c9caca;
      }
    </style>
  </defs>
  <g>
    <path class="cls-1" d="M396.94,382.98c.43.05.92.06,1.42.05-.5,0-1,0-1.42-.05Z"/>
    <path class="cls-1" d="M254.76,430.14s0,0,0,0c-.14-.49-.28-.98-.42-1.47.14.49.28.97.42,1.46Z"/>
    <path class="cls-1" d="M255.42,436.21c.98-.41.39-1.7.25-2.41-.1-.52-.22-1.05-.35-1.57,0,0,0,0,0,0,.13.52.25,1.04.35,1.57.14.71.73,1.99-.25,2.41-.44-.07-.98.05-1.44,0-.11-.12-.11-.2-.26-.33.15.13.15.21.26.33.46.05,1-.07,1.44,0Z"/>
    <path class="cls-1" d="M253.72,435.88c-.05-.04-.12-.09-.22-.15-.03-.02-.08-.02-.13-.03h0c.05,0,.1.01.13.03.1.06.17.11.22.15Z"/>
    <path class="cls-1" d="M254.88,430.6c.11.38.21.76.31,1.15,0,0,0,0,0,0-.1-.39-.2-.77-.31-1.16,0,0,0,0,0,0Z"/>
    <path class="cls-1" d="M396.4,382.89s0,0,0,0c-.02-.05-.05-.11-.09-.18.04.07.06.13.09.18Z"/>
    <path class="cls-1" d="M374.43,413.33c-.11-.07-.23-.13-.35-.18h0c.12.05.24.11.35.18,0,0,0,0,0,0Z"/>
    <path class="cls-1" d="M280.14,436.95s-.04.01-.06.02c0,0,0,0,0,0,.02,0,.04-.01.06-.02Z"/>
    <path class="cls-1" d="M227.11,420.39c-.42-.09-.59.06-.76.27.18-.2.34-.35.76-.27Z"/>
    <path class="cls-1" d="M279.55,437.15s0,0,0,0c.02,0,.05-.01.07-.02,0,0,0,0,0,0-.02,0-.05.01-.07.02Z"/>
    <path class="cls-1" d="M404.61,380.05s0,0,0,0c.08-.05.16-.1.24-.15-.08.05-.16.1-.24.15Z"/>
    <path class="cls-1" d="M279.79,437.08s0,0,0,0c.03-.01.07-.02.11-.04,0,0,0,0,0,0-.04.01-.07.03-.1.04Z"/>
    <path class="a3" d="M260.13,436.56c-1.66-4-3.6-8.05-6.39-11.37-.65.32-.02,1.32.12,1.8.29,1.05.6,2.1.9,3.15-.14-.49-.28-.98-.42-1.46.14.49.28.98.42,1.47.04.15.08.3.13.45.11.39.21.77.31,1.16.04.16.08.32.12.48.13.52.25,1.05.35,1.57.14.71.73,1.99-.25,2.41-.44-.07-.98.05-1.44,0,.21.23.13.66.78.89.74.26,2.68.82,3.4.96.52.1.57-.41.61-.41.46-.06.97.04,1.44,0,0,0,.02.03.05.05-.03-.02-.05-.04-.05-.05-.08-.2.08-.7-.08-1.09Z"/>
    <path class="a3" d="M244.8,428.84c-.61-2.06-3.01-1.55-2.26,1.78.13.56,1.61,3.51,2.32,2.71-.19-1.34.3-3.28-.06-4.49Z"/>
    <path class="a3" d="M255.19,431.75c-.1-.38-.2-.77-.31-1.15.11.38.21.76.31,1.15Z"/>
    <path class="a3" d="M262.13,416.55c-.09,2.63,1.36,4.93,1.93,7.39.17.76,2.03.23,1.86-.85-.23-1.46-1.7-4.7-2.34-6.25-.24-.58-.9-.21-1.45-.28Z"/>
    <path class="a3" d="M205.53,406.48c-1.68.64-.76,2.1-.48,3.36.79.12.46-.65.48-1.2.03-.72-.02-1.45,0-2.16Z"/>
    <path class="a3" d="M225.28,414.78c-.33-.74-.19-.95-1.28-.62-1.5.45.16,2.46.71,3.13.46.56,3.04,2.59,2.41,3.11-.42-.09-.59.06-.76.27,0,0,0,0,0,.01-.06.07-.12.13-.19.2l1.92.48-.48-1.92h1.44s-.02-.03-.02-.05c.11.06-.94-.32-1.68-.88-.66-.51-1.65-2.82-2.05-3.72Z"/>
    <path class="a3" d="M279.79,437.08s.07-.02.1-.04c-.03.01-.07.03-.1.04Z"/>
    <path class="a3" d="M279.55,437.15s.04-.01.07-.02c-.02,0-.05.01-.07.02Z"/>
    <path class="a3" d="M253.37,435.71c.05,0,.1.01.13.03-.03-.02-.08-.02-.13-.03Z"/>
    <path class="a3" d="M255.67,433.81c-.1-.52-.22-1.05-.35-1.57.13.52.25,1.04.35,1.57Z"/>
    <path class="a3" d="M253.5,435.73s-.08-.02-.13-.03c-.25-.02-.72.04-.83-.45-.21-.95.55-1.7-.96-1.44l-.08,1.12-.4.32c-.47-.04-.97.05-1.44,0,.05-.34-.17-.44-.48-.48-1.48-.19-3.39.25-4.8,0-.03,0,.09-.3-.28-.43-.27-.09-.54,0-.68-.05-.34-.12-.35-.14-.48-.48-.17-.45.01-1.06-.72-1.44l-.74,1.9-3.82.02c-.41-.09-.99.06-1.44,0,.13.23.16.57.45.73,2.72.57,5.66.02,8.45.2,2.58.17,5.68.69,8.37.98.16.02.32-.02.48,0-.11-.12-.11-.2-.26-.33-.05-.04-.12-.09-.22-.15Z"/>
    <path class="a3" d="M404.61,380.05c.08-.05.16-.1.24-.15-.08.05-.16.1-.24.15-.11.07-.22.14-.33.21-.24.15-.49.29-.76.43-.91.48-3.36.78-3.22,2.29,1.58-.12.63-.53,1.03-.86.27-.23,1.96-.36,2.46-1.16.91-.67,5.97-1.66,6.1-2.29-.04,0-.08,0-.12-.02-2.35-.45-3.6.43-5.16,1.4Z"/>
    <path class="a3" d="M374.08,413.15c-.51-.22-1.08-.35-1.6-.69-2.04-1.35-2.41-3.64-3.62-5.49-.25-.38-2.43-3.05-2.61-3.14-1.49-.78-3.7.56-5.29.73-.43,1.88,1.5,2.73,2.15,3.84.68,1.15,1.84,3.9,2.41,5.26.64,1.51,1.4,3.12,1.19,4.8h0c.92-.2.22-1.54.53-1.86.51-.53,1.94-.18,1.39-2.45,1.73,1.88,3.36,1.47,5.76,1.44l.48-1.92c-.1-.11-.22-.2-.34-.28-.03-.02-.06-.04-.09-.06-.11-.07-.23-.13-.35-.18Z"/>
    <path class="a3" d="M294.69,436.03c-.12-.41-3.18-3.57-3.79-4.37-1.11-1.45-2.33-3.06-3.35-4.57-.91-1.36-1.86-3.14-2.81-4.63-.28-.44-.52-1.48-.61-1.55-.2-.15-.68-.02-1.01-.15-.26-.11-.33-.38-.36-.39.09-1.77-1.29-2.76-1.46-4.54-.12-1.34-.13-1.85,1.29-2.12.99-.19,3.64,2.34,3.99,1.84l.27-.97c.72.07,1.52-.16,2.16.25.58.37.63,1.97.43,2.14-.24.21-1.71.23-1.4,1.23.08.26,1.06,1.11,1.44,1.2l.24.48.24-.48c-.41-4.61,5.49-1.81,7.84-.4,1.68,1,3.03,2.54,4.87,3.28.36.01.65-1.87.97-2.4.64-1.07,2.28-1.74,3.47-1.85.76-.07,2.21.39,3.02.63.89.27,2.16,1.06,2.71,1.16.87.16,1.52-.62,2.27-.41,1.15.32,1.26,3.95,2.92,4.77l1.2-.96c.07,1.06.82,2.29,1.66,2.9.89.65,1.71.23,2.42.94l-3.11-4.08c-1.57-1.42-5.96-6.33-4.59-8.4,1.31-1.99,5.94,1.2,7.3,1.85.39.19,1.04.03,1.6.32.29.15,3.67,4.07,4.32,4.8,1.4,1.58,2.28,3.22,4,4.54.58.44-.03,1.13.79.99.1-.76-.4-1.29-.75-1.89-2.09-3.58-4.95-6.94-7.86-9.89-.72-1.87,1.91-1.29,2.85-.46.88.78,2.48,3.83,3.13,5.04.17.31.44,1.86,1.18.96.29-.36-.14-3.93-.24-4.79-.08-.67-.8-1.97.24-2.4-1.39-1.12-3.74-3.18-4.81-4.54-.32-.41-1.36-1.7-.71-2.17.75-.04,1.19.73,1.68,1.2,1.83,1.73,3.69,3.56,5.28,5.52,3.95-.37,5.66,2.68,7.98,5.24l4.02-.93c.43-2.22-2.05-3.68-3.11-5.28-.26-.39-.24-.99-.51-1.41-1-1.54-3.72-4.82-3.6-6.5.13-1.94,2.28-1.24,3.38-.24.33.3,1.25,2.11,1.92,1.44.69-.69-1.37-1.78-1.44-1.92-.67-1.4-.33-.54-1.21-1.42-2.63-2.65-5.26-5.3-7.91-7.94-.41-.81.59-.87,1.17-.69.6.19,1.4,1.73,2,1.85.39.08,1.14-.47,1.86-.48,4.05-.05,10.42,7.61,12.95,10.59.48-.05.23-.75.15-1.11-1.08-4.71-7.77-13.13-11.41-16.4-1.18-1.06-2.8-2.14-4.11-3.08l-.21-1.94c5.7,1.46,10.43,5.69,13.92,10.3.57.75,1.34,1.76,1.43,2.65,1.25.05,1.78-1.79,3.12-.48.29-.31-.3-1.08-.5-1.42-1.97-3.27-4.82-6.17-5.5-10.09,1.18-.18,1.2.03,1.85.79,1.15,1.36,1.79,3.6,3.43,4.48-.22-1.54,0-3.02,1.75-3.29.4-.06,2.86,1.11,2.54-.76-.08-.47-3.01-4.69-3.59-5.53-.83-1.19-2.45-1.98-2.14-3.86.89-.19,1.14.48,1.68.96,1.97,1.73,3.62,3.74,5.28,5.75,1.01.14.81-.18.49-.97-.32-.79-2.24-3.82-2.17-4.06.15-.53,1.03-.87,1.64-.69.59.18,2.59,3.32,3.08,4.12,1.01,1.67.55,3.09,2.95,2.56-2.36,2.26,1.64,4.09,1.46,6.7,2.34.54,2.41-.77,1.52-2.73-2.03-4.45-5.38-9.03-7.71-13.4l-.07-2.08,1.44-.25c-1.26-1.81-6.9-5.23-7.2-7.19-.09-.63.05-.97.72-.72,1.15.44,3.33,2.02,4.33,2.86,1.61,1.34,4.86,5.55,6.23,6.24,1.26.64.44-2.08.79-2.36.17-.13.61-.01.88-.06,0-.22.09-.49.01-.7-.15-.37-4.12-3.77-4.82-4.3-1.82-1.38-7.54-4.39-8.39-6-.27-.51-.27-.9-.23-1.45l1.92-.48c-3.8-.62-7.51-1.22-11.3-1.91-.55-.1-1.18.08-1.65-.01-.03,0-.11-.32-.36-.38-1.15-.24-2.27-.69-3.48-.58l2.88,1.44,3.84.96c.17,1.12-.09,1.11-1.13.89-6.2-1.37-18.81-5.77-24.3-8.82-.67-.38-1.21.09-.96-1.18l5.51,1.93c.39-1.08.37-1.14,1.68-.97.29-.64-2.03-.51-.96-1.44.71-.62,6.31.85,7.67.48l-3.51-1.53-1.77-.39c-.32-1.3.71-1.07,1.7-.98,5.02.48,11.12,3.28,16.3,3.84.61.07,3.46.14,3.57,0,.22-.27-.33-1.85,1.22-1.93,3.07.27,5.84,1.65,8.87,1.95l-2.86-1.21c-1.78-.05-4.63-1.46-6.09-1.58-.61-.05-1.3.62-2.07.4v-1.44c-.79-.03-1.21.55-2.06.42-1.3-.21-3.74-1.1-5.26-1.5-.56-.15-1.9-.18-1.8-.83.87.03,1.76-.08,2.63,0,7.63.74,15.22,1.74,23.01,1.46.39-1.68,1.83-.82,3.37-1,1.11-.12,2.21-.79,3.61-.47,2.3.54,6.41,2.69,8.64,3.84,1.19.62,1.87.63,1.92,2.4l-6.96-1.44c-1.14,1.59,2.18.67,1.68,2.4-1.44.3-2.51-1.09-3.67-1.36-.64-.15-4.77-.72-4.96-.56.23,1,1.43.94,2.26,1.34,1.15.55,5.7,3.31,6.21,3.39.56.08,1.38-.57,2.72-.33,10.37,1.88,16.13,13.2,24.32,15.74-.14-1.15-1.5-.76-1.85-1.03-.13-.1-.18-.76-.53-1.14-4.54-4.78-9.12-8.96-12.72-14.63-.28-.44-1.49-2.6-1.21-2.86.93.39,2.14.27,3.05.54.64.19.94,1.13,1.56,1.31.99.29,2.47-.05,3.69.15,1.45.24,4.57,1.47,6.1,2.06.81.31,3.77,2.24,4.28,1.66.11-.12.03-.75.49-1.18.56-.52,2.35-.5,1.93-1.43-.53-1.18-5.58-3.16-7.05-3.98-1.96-1.1-5.7-3.91-7.66-4.33-1.53-.33-3.77-.14-5.44-.56.49,1.22,2.57,1.24,2.4,2.88-2.66.27-5.07-1.05-7.55-1.82-.57-.18-1.23,0-1.57-.1-.36-.11-1.29-1.45-2.4-.96-.42.35,1.59,1.28,1.92,1.44,1.45.71,4.09,1.29,4.32,3.36l-5.28-1.44c-2.21-2.06-5.94-2.71-8.64-3.84-.76-.32-3.59-1.63-3.84-2.16-.42-.91.63-.61.84-.81.26-.25.23-.89.56-1.13.9-.66,5.98.51,7.35.86,3.33.86,6.54,2.47,9.92,3.2-.29-1.64,1.37-.31,1.47-1.4-2.78-.87-7.26-1.31-9.76-2.47-.9-.42-.87-.91-.79-1.84,2.77-.12,5.43.03,8.15.48.09-.93-1.4-.04-.96-1.2.44-1.16,2.69-.41,3.69-1.11,5.36,1.66,10.34,4.25,16.12,4.33l7.06,2.3c.3-.28-1.12-2.31-1.43-2.65-2.05-2.25-5.18-3.31-8.16-3.11.08.05.06.37.25.49.85.56,1.54.64,1.67,1.67.1.72.06.85-.68.68-3.05-.72-8.98-2.34-11.66-3.7-1.88-.95-1.28-2.67.57-2.5,1.5.14,5.08,1.42,6.62,2.03.75.3,2.7,1.03,3.22,1.34l-4.32-4.31c3.1.39,5.91,2.26,9.12,1.92.28-1.74-.2-1.16-.93-1.69-1.7-1.23-3.37-2.05-5.3-2.87-3.72-1.58-11.87-3.29-14.6-5.01-.44-.28-.2-.77-.33-.91-.21-.23-5.07-.92-5.87-2.06l-1.75-1.36c5.35,1.54,10.81,2.72,16.18,4.21,5.78,1.6,11.32,4.97,17.08,5.48,2.86.25,8.03,2.41,11.35,3.03.81.15,1.53.37,2.41.23.3-1.12-.81-1.18-1.59-1.53-1.83-.81-3.73-1.61-5.61-2.31-.11-.74.69-.39,1.2-.97.17-.2.13-.66.35-.86.28-.25.92.12.84-.33l-16.3-12.25c-.36-3.06,2.25-1.27,2.36-1.42.17-.24.1-1.27.77-1.43.8-.19,5.58,2.47,5.97,1.92v-1.44c2.44-.41,4.46.96,6.72,0-.52-1.47-2.47-1.06-3.36-2.16l1.92-.72c-.06-.83-1.69-.74-1.87-1.73-.07-.37.37-.81.33-1.29-.08-1.04-.71-2.39-.37-3.68l1.43-.49c-3.4-.87-3.61,1.18-5.58,2.34-.45.26-2.93,1.2-3.06,1.02-.05-.4.15-1.16-.04-1.39-.13-.16-3.25-1.53-3.79-1.73-2.54-.97-5.83-1.77-8.52-2.51-1.72-.48-3.62-.98-5.4-1.08-.19-1.12.16-1.11,1.2-.96,3.83.57,7.7,1.78,11.53,2.38,2.8.44,4.77.89,7.42-.46.49-.4-1.1-2.23-1.92-1.92v-.96c2.87.5,5.17.8,7.85,2.46.67.41,1.04,1.12,1.74,1.37-.03-.4-.13-.72.29-.99.59-.38,3.04-1.06,3.91-1.3,4.13-1.12,8.4-1.47,12.6-2.04-.62-1.84-1.88-.48-2.16-.48h-7.68c-.09,0-.27-.34-.57-.39-1.53-.25-3.36.04-3.04-1.78.33-1.87,5.64-5.28,7.21-6.71l-2.39-1.46.47-2.61c-1.99.78-3.94.33-5.99.49-.55.04-1.16.41-1.91.49-.46.05-2.29.3-2.18-.5.77-.17,1.69-.39,2.41-.71,1.71-.79,4.73-1.97,5.5-3.11,1.34-2,6.41,1.47,8.4.95.22-1.43-.31-.79-1.17-.97-1.92-.41-6.17-1.25-4.84-3.84.96-1.88,6.23-1.58,8.19-1.45,2.62.19,5.49,1.36,8.15.99,1.13-.16,1.39-1.54,2.63-1.45.61-.48-1.83-2.26-2.22-2.35-.64-.14-3.72,1.22-5.7.92-.84-.13-1.06-.81-1.5-.93-.8-.23-2.48,1.06-3.51-.79-.18-.7,2.68-4.81,2.88-6.2.23-1.63-2.41.26-1.93-1.69,1.03.05,1.95-.39,2.88-.73.37-.14,1.78-.48.96-1.18-.2-.17-4.14,1.26-5.05,1.43-.88.16-2.49.4-3.36.49-1.57.16-4.09-1.02-5.98-.49-.12-.75.71-.41,1.21-.95.22-.24,1.26-1.92,1.19-2.16-.56-1.04-2.75-.72-3.36-1.21-.06-.04-.06-1.38,0-1.42.11-.08,2.24-.48,2.62-.51,2.63-.19,3.63,1.59,6.28-.92.54-.51.66-1.32.76-1.41.44-.36,1.75.58,1.38-1.01-1.32.13-2.38,1.55-3.68,1.84-1.08.24-5.27-.23-6.63-.41-1.36-.18-2.97-1.25-4.33-1.42-2.3-.3-6.12-.59-4.55,2.39-1.63.45-3.53-.84-4.97-.42-.39.12-.87.73-1.41.99-1.09.53-1.99.59-2.03,1.33-.06,1.22-1.4,1.34-1.68.68-.72-1.73-3.46-1.71-5.26-2.1,3.27,4.19-1.81,2.85-2.35,3.4-.16.16-.09.89-.49,1.18-1.05.77-6.09-.61-7.47-1.22l.24,2.4c-2.92.66-9.98-3.12-10.83-5.76-.21-.65.17-1.61-.2-2.4h2.88c-.06-.8-1.15-.57-1.68-1.44-.35-.58-.33-.86.23-1.21,1.4-.87,3.28.46,4.8.25.21-1.31-.22-.83-1.09-1.06-.86-.23-4.88-1.14-5.14-1.35-.09-.07.04-1.04,0-1.43,2.3-.21,4.46.21,6.72.48.06-.88-1.11-.29-1.93-.71-.41-.21-2.84-2.71-2.39-3.13,2.51-.37,4.94.83,7.44.48,1.63-.23,5.99-2.57,7.6-2.33.77.11,1.47,1.12,2.07,1.3.52.16,1.49,0,1.6.07.08.06.07,1.54-.22,1.94-.09.13-3.36,2.24-.98,1.9,1.18-.17,2.92-1.45,4.4-1.83,1.16-.3,2.36.16,3.51-.8,1.17-.98-.92-1.01-.99-1.48-.09-.6.19-1.73.02-2.12-.04-.09-1.08-.7-1.45-1.19-1.28-1.69-1.63-3.9-1.41-5.98l4-.94c.88.53,1.4,1.53,2.23,2.11,1.24.86,2.31.29,1.91,2.16-1.18-.13-3.94,1.9-4.32,2.88.86.05,2.68.01,3.27-.57.28-.27.85-1.73,1.3-2.29.64-.79,1.52-1.38,2.08-2.24.63-.97.22-2.09,1.69-1.57.44.16.99.88,1.71,1.17,2.15.89,2.79.36,4.59.23,2.07-.16,4.23.73,4.56-2.17.16-1.38-.91-2.99-.49-4.54,2.04-.64,6.11.06,7.44-1.44,2.41-2.74-.43-6.06-3.86-5.78-.69.06-2.3.77-2.62.5-.89-.74.64-1.01.96-1.18,1.77-.96,3.77-1.64,3.36-4.09-3.7-.29-7.72,3.44-7.2-2.88-1.19-.23-1.69.39-2.4,1.2,0,.37.58.26.94.49,1.8,1.16-.32,1.1-.94,1.43-1,.53-2.67,2.94-3.85,3.83-.65.49-5.58,3.42-6.06,3.53-.69.15-5.7.27-5.92.08-.86-.77,1.27-1.24,1.44-1.68v-.24c-.86.36-1.41-.6-.96-.96.05-.04.85-.18,1.29-.39,1.66-.78,3.49-1.63,4.95-2.73-.7-.57-2.03-.08-2.88-.24.04-.47-.06-.98,0-1.44-.19.06-.46-.06-.68.06l-.28.42c-.59-.24-2.98-.35-3.84-.48-1.23-.19-.8-.06-1.44,0-1.89.19-2.32-.3-3.84-.96v-.48c1.9-.87,3.56-.3,5.51-.49.53-.05,2.35-.4,2.82-.54.55-.17.86-1.06,1.51-.89.79.2.82,1.7.72,2.4-.21.04-.39-.04-.46.26-.09.22.01.48-.02.7,1.33-.44,1.01-.68,1.44-.96,2.82-1.82,6.15-2.95,9.11-4.8,2.08-1.3,3.94-2.34,5.52-4.31.67.26.51,1.84,1.44,1.44.99-.43.77-2.23.72-3.12-.03-.54.08-1.02-.72-.71-1.61.61-3.17,2.92-4.58,4.05-.93.75-2.68,1.02-2.38,2.18-1.99.4-3.62,1.87-5.59,2.32-2.8.64.37-2.02.81-2.55,1.46-1.79,4.13-5.24,5.97-6.5,1.31-.9,4.22-1.52,5.87-2.28,1.27-.58,2.96-1.94,3.96-2.28.62-.21,1.79-.16,1.9-.26.31-.27,1.33-3.81,1.47-4.53.29-1.51.21-3.74.5-5.26.81-4.29,1.81-8.08,2.36-12.44.05-.39.81-.3,1.22-.74,1.71-1.83,2.36-5.73,3.85-8.15.25-.41,1.08-1.79,1.19-1.93-.9-.22-.06-1.49.12-2.04.96-2.94,2.37-7.74,4.7-9.71.26-.22.76-.18.88-.3.23-.25,1.22-6.42.94-6.62-.17-.12-.6,0-.85-.07,1.64-7.86,5.64-15.02,6.22-23.21.57-8.06-.93-17.88-2.53-25.81-.4-1.96-1.53-4.39-1.32-6.34.52-4.97.11-10.78-.5-15.83-.67-5.52-3.49-10.11-2.88-15.83l-.95-5.52c-.77-.86-2.11,2.2-2.3,2.74-1.06,3.15-1.51,7.14-1.55,10.44l-.95,3.61c-.23-1.24-1.24-2.15-1.7-3.34-1.01-2.63-1.61-7.49-3.34-9.61-.42-.51-.59-.64-.97,0-.49.83.2,1.97-.72,1.92-.95-2.61-2.05-5.99-5.03-6.71-1.19.3-.19,2.99-1.44,2.4-.69-.33-2.05-2.24-2.87-2.89-1.57-1.24-3.5-2.08-5.05-3.35h-1.92c.39,2.03,2.34,3.66,3.6,5.3.28.36.2.91.24.94-.32.81-1.15,4.47-1.46,4.77-.22.21-2.53-.4-2.86.75-.17.6,2.09,2.85,2.32,3.91.28,1.24-.17,1.91-.41,3.04-2.4-.56-3.16-2.38-5.97-1.94l-.53,1.01-4.49.49c-1.46,2.84-.81,6.1-1.95,9.08-.85-.11-1.7.02-1.92.96q-.8,0,0,0h1.92c.46.95,1.33,6.34.96,6.71-1.96.34-3.46-.56-5.28-.96.04,2.73.78,5.36.48,8.15-.89.33-1.27-.86-1.67-.87-1.77-.04-6.62,6.87-7.68,8.54l-.24-3.6c0-.42-.94-.31-1.18-.22-1.3.49-2.33,3.99-2.91,5.27-.16.35-.7.43-.71.47-.22.53-.28,3.43-.57,4.47-.63,2.26-1.51,1.35-2.8,2-1.23.62-1.94,2.68-2.87,3.61-.04.15.05.34,0,.48l-.48.48c-.73,2-1.02,3.25-1.44,5.28h-.96s.03.7.03.7l.45.26c-.05.3.05.66,0,.96h-1.44c-.16-.55-.19-.87-.48-1.44l-.48-.48c-.58-.64-.49-1.24-1.92-.96-.14,2.91.37,5.79.96,8.63l-2.4.48c.17-2.29-2.94-6.56-3.76-2.56-.4,1.94-.17,5.53-.62,7.05-.21.7-1.41,1.02-1.4,1.97,0,.81.99,2.05.98,2.88-.01,1.87-.19,2.58,0,4.81.5,6.14-2.85,8.34-3.82,13.43-.74,3.88-.76,10.11-.49,14.14-.65.17-.64,1.07-.96,1.44-.37.43-1.01.46-1.44,1.44h-3.84s0,.96,0,.96c-.3-.12-1.02.08-1.44,0,.67-2.49,1.05-6.15-2.4-6.23.18,1.35-.29,3.25.07,4.49.43,1.5,2.09,2.77,2.35,5.32.43,4.26-1.44,5.53-1.94,8.89-.22,1.49.34,1.73-1.27,2.81-1.61,1.08-3.07,1.16-4.97,1.03-.29-1.71.22-1.17.93-1.69,2-1.45.15-2.32.51-3.59.15-.55.95-1.88,1.22-2.86.12-.42.56-1.28-.02-1.46-1.23.96-2.38,2.76-3.61,3.59-.85.57-3.59.88-2.63,2.17.48.64,1.7.19,2.16,1.44-.06.55.14,1.6,0,1.92-.06.14-1.11.16-.97,1.66.05.51.85,3.92,1.01,4.06.26.22,1.21-.09,1.4.04,1.08.73-.97.99-.97,1.2.94,1.88,1.31,2.97.49,5.03,4.33.19,1,5.6,1.42,8.37.07.44.66.16.87.35,1.01.88,2.36,5.13,3.06,6.33.52.9,2,2.15,2.81,2.94,1.01.98,1.98,1.32,2.64,2.64l-1.27-3.04c-.25-.47-1.85-2-.17-1.75,1.57.23,3.06,3.03,4.07,4.09,2.06,2.18,4.73,5.06,6.96,6.95.64.55,5.53,3.04,2.87,3.82-1.79.53-7.86-3.46-9.34-4.78-.88-.79-1.89-2.18-2.88-3.12-.49-.47-.92-1.24-1.68-1.2-.79.47.15,1.06.48,1.44.9,1.03,2.31,2.69,3.6,2.88-.24,1.09,1.22,1.61,1.44,2.16.39,1.01-.69.59-.91.75-.48.34.95,2.84,1.37,3.11.74.48,2.37.07,3.15,1.64.71,1.42-.06,2.42,1.66,4.58.95,1.2,2.68,2.32,2.89,4.07-.29.29-2-.92-2.38-1.22-.99-.77-1.99-2.29-2.89-2.86-.64-.4-1.29-.02-1.44.49-.71,2.53,3.46,3.62,3.8,4.85.22.79-.64,1.48-.41,2.26.25.84,2,2.01,1.88,3.19-.79.72-6.45-2.56-7.44-3.35-1.13-.9-2.04-2.74-3.59-2.89-.84.92,4.83,8.69,4.8,10.55-2.39.8-4.33-4.06-5.99-1.43-.1.16-.71,1.35-.72,1.43h0c-.25,1.03,1.35,3.26,0,3.36.06.07-.16.59.09.85.24.26,1.16.29,1.35.83.59,1.66-1.05,1.2-1.92,1.2-.29.26,1.75,1.72,1.89,2.23.17.63-.49,1.26-.24,1.62.71,1.02,4.25,1.23,4.11,3.35-.7.63-5.21-1.24-6.24-1.67-1.46-.62-7.8-3.65-8.15-4.81-.12-.42.44-1.13.73-1.2.47-.11,1.65,1.03,2.14.24l-3.36-3.36v-.47c2.64-1.42.94-1.17.55-2.47-.16-.54,0-1.19-.16-1.76-.63-2.28-4.04-3.32-3.75-6.08.25-.26,3.31,1.36,3.82,1.69,2.7,1.73,4.37,3.58,6.38,5.88.18.2,1.06-.03.88,1.04.37.1.4-.45.43-.46-.45-.68-.72-1.83-1.2-2.4-.6-.71-2-.79-2.41-1.43-.25-.38-.22-.98-.49-1.43-1.59-2.62-3.9-5.43-2.62-8.65l2.4.96c.4-.41-1.93-4.52-1.94-5.52,0-.73.86-1.03.99-1.9.49-3.24-2.68-4.6-5.04-6.01l-2.16,2.88c-.3-1.67-1.1-3.47-2.18-4.77-1.96-2.36-3.6-1.36-3.09-5.53.28-2.35,1.32-1.62,3.34-1.69-.19-.79.49-1.53.49-2.15.01-1.11-1.29-2.73-1.44-3.84-.18-1.36.41-2.17.5-3.34.1-1.32-.11-2.76-.02-4.1-3.52.58-5.07-3.49-6.65-6.06-.3-.49-.57-1.02-.55-1.61-.59-.13-1.23.21-1.39.77-.63,2.12.9,3.23,1.64,4.98.38.91,1.8,5.25,1.18,5.74-.21.17-1.93-.08-2.33,1.27-.5,1.7.72,2.52.9,4.02-1.48-.4-1.99-.75-3.34.25-2.05,1.52-.49,3.09-.1,4.87.56,2.56-1.26,1.28-2.09,2.52-1.06,1.57,1.42,4.89,2.44,6.24.98,1.28,3.12,2.27,2.58,4.06-.06.2-2.81,2.4-3.18,2.58-1.51.77-3.31.56-4.95.57.54,4.18-1.69,3.29-3.83,4.56-1.87,1.11-1.5,2.33-2.15,3.6-.19.36-.84.7-1.15,1.25-.64,1.15-.64,2.65-1.74,3.54-2.93-1.08-.84-4.02-1.2-6.23-4.39-.02.92,4.24-1.91,6.01-.8.5-1.68-.58-2.66-.74-.54-.09-1.13.06-1.66,0-1.4-.16-.76-.74-2.4-.48-.74.12-1.67.1-2.18-.46l-3.09-4.82,3.36.72c-1.29-1.45-2.93-4.26-2.36-6.2.39-1.33,1.61-.24,2.06-.33.45-.09.94-1.09,1.73-.92l-.45-3.32,2.38-.5c.51-.45-1.6-2.21-1.41-3.07.14-.63,2.31-2.06,2.37-2.21.87.13,3.69,2.52,4.32,1.92.74-.7-1.52-1.9-1.92-2.18-.33-.24-.44-.68-.48-.7-.05-3.33.73-6.56,1.41-9.77-.2-.72-5.98-4.58-6.94-4.64l-6.95,1.7c-1.74,1.77-3.58,2.98-5.08,5.02-3.55-1.76-8.05-1.75-11.97-1.44-.66.05-2.74.39-3.28.55-.6.19-.89.78-.77,1.38.99.34,2,.38,3.02.57.24.04.31.39.34.39v.48c-.02.15.04.46,0,.48-.51.23-1.28-.56-.93,1.16l2.36,2.43c-1.53,1.97-2.25-.39-3.17-.66-1.89-.56-2.89.52-3.06,2.34h2.87c-.64,2.67,1.67,2.21,2.65,3.35,4.89,5.76,5.92,14.26,8.87,20.63-2.24.66-.12,4.47-.48,5.28h.96c.12-.5.35-.37.48-.48l.05-1.14.43-.3c.06.15.32.6.48.96.26.58.75,1,1.07,1.58.22.4.33,1.2.4,1.27.1.1,2.36.1,2.85.03h0c.1-.01.87-1.25,1.68,0,.71,1.1-.16,1.25-.24,1.44-.08.2.04.57-.23.95-1.06,1.47-2.84,2.22-4.56,2.41h0v.96s-.96,0-.96,0c-.35,1.15-.86,1.29-1.44,1.92-.43.47-.74,1.54-1.68,1.44-1.19-.34-.19-2.99-1.44-2.4-1.87,1.26-3.93,3.23-6.22,3.38-.96.06-3.77-.32-4.81-.51-1.62-.3-3.44-.95-5.05-1.43-.94-.28-1.96-.41-2.9-.7-1.73-.55-2.9-1.84-5.26-1.22.17,2.28,1.55,2.55,3.5,3.45,2.12.98,4.39,1.18,5.7,2.67.28.32,7.61,1.69,8.25,1.49.41-.13.67-.71,1.09-.83,1.11-.32,2.79-.15,4.15-.65,1.53-.56,1.94-1.68,3.92-1.36l.51,1.01,3.11-.98c-.05.4.14,1.21-.04,1.39-.11.11-.61.07-.89.29-.91.73-4.89,3.01-2.42,4.07-.04.04.06.7-.08,1.09-.26.72-1.12.9-.88,1.78l1.44-.48v.96c-.7.84-1.86,1.4-2.63,2.41-.6.8-.92,2.04-1.69,2.86,1.75.31,3.18-.89,4.65-1.36.41-.13.84,0,1.1-.08,0-.31-.06-.62.02-.93l1.41-.51c.15,1.24-.54,1.21-1.44,1.44,0,.32,0,.64,0,.96.96.13,1.58-.03,2.4-.48v3.35c-4.69.67-9.21,2.55-13.91,3.36-.13,1.27.01.76.7.96.48.14,1.35.58,1.7.47l.05.66c.06.24.33.2.43.3.14.13.46.15.48.48-.08.01-.7.84-1.44.48-1.17-.14-4.93,0-5.54.94-.32.48-.12,1.31-.23,1.45-.18.23-4.85-.86-3.6,2.91.93,2.82,7.77,2.91,9.85,5.01-.35.45-1.61.3-2.15.23-.51-.07-.96-.41-1.46-.46-6.42-.59-5.4,3.25-.88,5.67,1.01.54,4.66,1.38,4.42,2.62-.06.3-.4.63-.41,1.05,0,.15.46,2.02.53,2.1.37.48,10.02,3.28,11.46,3.89.05.77.22,1.1-.73.97-1.34-.18-7.35-2.38-7.91-1.93-.05.28.26.6.47.72,1.89,1.14,6.27,1.25,8.17,2.39.22.13.62.6.47.72l-1.44.48,7.68,1.92c.34,1.8-1.57.59-2.62.46-.45-.06-1.85-.28-1.7.5,1.71.16,3.8.54,5.42,1.05.43.14.69.61,1.14.78.85.31,2.89.02,2.55,1.53-3.05-.67-6.19-.91-9.24-1.55-4.89-1.02-9.41-2.7-14.13-4.11-.5-.15-1.38,0-1.54-.13-.17-.14-.39-1.7-.55-1.85-.32-.28-3.77-.11-4.28-1.24-.56-1.26,1.65-.22,1.44-1.2-2.99-.49-6.38-1.45-9.25-2.5-1.16-.42-7.79-3.25-8.02-3.98-.17-.55.53-1.27,1.16-1.17.41.07,1.54.92,2.19,1.17,2.05.79,4.64,1.86,6.7,2.41.51.14,1.52.68,1.46-.26-2.16-.66-5.71-2.43-6.95-4.32-.32-.49-.18-1.17-.71-1.69-.76-.74-2.89-.84-3.85-1.42-.74-.45-.87-1.38-1.44-1.91-1.52-1.41-5.73-2.89-3.85-5.71.32-.49.93-.12,1-.56.08-.56.07-1.78-.09-2.31-.13-.42-.71-.68-.83-1.08-.47-1.49.37-2.28,1.86-2.1l-2.36-4.14c-.15-.91,1.4-1.85,2.36-1.61.28-1.1-1.16-1.44-1.38-2.22-.51-1.75-.15-3.7,1.39-4.72.82-.55,1.7-.57,2.38-.97.57-.34,1.24-1.54,1.73-1.65.25-.06,3.92,1.56,4.85,1.79.75.19,2.05.47,2.79.57,3.36.46,1.04-2.13-.26-3.1-2.58-1.91-6.21-2.95-8.8-4.63-2.21-1.44-.75-1.94-.06-3.76.41-1.08,1.04-2.31.49-3.38-.12-.23-1.8-1.82-1.99-1.86-.13-.03-2.45.55-2.6.66-.19.12-2.54,3.29-2.64,3.6-.3.94-.33,2.16-.21,3.13.18,1.37,1.58,3.21,1.38,4.24-.09.44-.62,1.03-.83,1.61-.17.48.05,1.33-.14,1.53-.13.14-.76.1-1.15.52-.47.51-.82,1.86-1.26,2.59-.68,1.14-1.89,1.95-1.85,3.66-.54.04-.95.07-1.45-.23-.3-.18-2.1-2.54-2.62-3.16-.47-.55.17-1.19-1.44-.94-.97.15-1.64.97-2.64.97-.3.94,1.15,1.41.96,2.13-.21.78-2.43,1.97-3.35,1.71.24-1.26-.66-2.37-.5-3.6.22-1.69,4.61-5.13-.46-5.04v-4.31c-2.22.49-3.18-1.56-5.46-.9-.82.24-4.52,6.51-5.19,7.76-1.53,2.86-3.28,6.17-3.26,9.44,1.03.15,1.13-.8,2.16-.96.63-.1.97.06.72.72-.36.93-1.26,2.06-1.68,3.11-.52,1.31-.81,2.57-1.19,3.84-1.74.31-2.76,2.4-4.32,3.36h-.48v-.48c1.65-2.05,3.29-3.53,2.88-6.48-.31-2.17-2.04-2.67-4.02-2.1-1.47.43-5.25,6.46-5.83,8.08-.97,2.69-1.45,5.12,2.34,4.26.19-.04,2.06-.78,2.24-.88-.38,2.15-1.89,4.41-2.95,6.4-.24.45-.76.77-.89,1.03-.26.54.17.97.72.72.26-.12,3.96-4.41,3.06-1.26-.37,1.3-2.76,4.28-3.77,5.35-1.49,1.59-4.56,3.42-5.52,5.03-.42.71-1.68,4.31-1.7,5.04-.08,2.64,3.57.36,4.13.26,2.11-.36.72,3.55.66,4.5-.1,1.59.33,5.8-.55,6.91-.11.13-.59,0-.76.15-.27.24-.32,1.08-.65,1.53-.61.83-4.22,3.83-5.05,4.07-.79.23-1.74,0-2.57.07-.26-.88.81-2.19.48-2.88l4.07-3.86c.86-.09,1.85-1.38,1.21-1.89-.07-.05-1.53-.47-1.62-.45-1.03.22-2.97,3.87-4.62,3.8-.08-.44-.67-.83-.45-1.62.17-.62,1.26-.87,1.42-1.96.8-5.5-5.21-4.01-8.65-3.13.99-1.43,2.63-2.7,2.88-4.56.22-1.64-.27-3.59-2.16-3.61-1.82-.02-3.43,3.53-4.79,4.82-1.47,1.39-3.3,1.6-4.35,2.37-1.12.82-3.2,3.03-3.58,4.34l-.95-.71,4.79-7.69c.34-.89-.56-.83-1.2-.72-3.09.51-2.36,2.97-3.18,3.77-.9.88-3.33.29-4.42.62-.46.14-.69.78-1.49.9-1.19.18-2.03-.3-3.13-.49-.81,2.42-1.73,6.15-4.8,6.24-1.76-3.1,1.76-6.65,1.45-9.35-.04-.38-.99-2.73-1.21-3.12-.74-1.25-2.59-1.81-2.09-4,.14-.59,1.32-2.7,1.84-2.97.89-.45,2.76-.09,2.89-.23.06-.06-.02-1.08.1-1.57,1.13-4.56,3.32-5.32,4.95-8.49,1.1-2.15.46-3.27,4.08-3.6,1-1.54,3.81-2.14,4.73-3.42.68-.95,2.17-5.11,2-6.16-.07-.44-.71-.13-.91-.3-.22-.19,0-1.06-.14-1.55-1.32-4.39-7.75,2.85-9.06,4.23-.46.49-.62,1.2-1.17,1.71-.61.56-2.05.9-2.12,1-.15.2-.03.89-.29,1.37-1.05,1.94-2.44,1.11-3.78,1.5-.55.16-1.16,1.18-1.76,1.6-1.17.82-4.23,2.05-4.33,3.38-.06.83.57,1.36.51,2.15-1.72-.54-2.06.78-2.87,1.21-.6.32-1.33.18-1.95.45-1.47.64-2.36,1.68-3.77,2.22.25,1.63-.4,3.03-.54,4.49-.4,4.02-.03,8.64-.47,12.48-.25,2.2-1.51,4.94-1.9,7.22-.17,1.03.15,2.18-.09,3.27-.56,2.55-3.54,5.47-5.81,6.66-2.19,1.15-2.59.24-2.26,3.73l-4.32-.48v.96c-.32,0-.64,0-.96,0l-.46.26c-.09.21,0,.47-.02.7-.09.91-.17,3.05,0,3.84l-.43.28-.05.68c-.09.04-.87,1.4-.96,1.44-.27.13-.9-.28-.98.26-.1.69-.16,1.8.5,2.14-.06.41-.02,1,0,1.44.02.32-.02.64,0,.96h.96c.03.53-.06,1.03.08,1.59.09.37,1.75,3.93,1.91,4.09.28.28,1.38.42,1.85.55.04.01.04.38.7.49.51.08,1.15-.01,1.7-.01.6,0,1.39.1,1.92,0l.32.39c.72.13,1.46.25,1.6,1.05-.03.04-.02.36,0,.48.09.41.02.41.48.48,1.88.3,2.55-2.03,4.32-2.4-.48-.62.94-1.35-1.92-.48l-2.88-.48c-.09-.88-1.15-.73-1.47-1.25-.24-.39-.25-1.25-.54-1.55-.17-.17-.76-.21-1.13-.53-1.77-1.54-3.2-10.29-1.19-11.8.38-.28.82-.14.96-.22,4.2-.86,2.74,3.56,2.89,6.46.03.53.42,1.15.49,1.91.1,1.08-.49,3.76-.29,4.1.3.48,1.46,1.24,2.02,1.36,1.55.33,4.12.19,5.61.62.57.16.76,1,1.75.89.26-.03.69-.4,1.19-.47,2.21-.32,1.38.39,1.77.84.26.3,3.78,2.32,4.73,3.22.96.91.76,2.14,2.1,1.64.4-.15.65-.72,1.07-.85,2.64-.81,4.82,2.61,2.11,4.03-1.58.82-2.74-1.14-3.99-1.8-1.29-.68-2.95-.91-4.18-1.81.01.56-.24,2.84-1.2,2.4-1.12-.51-2.01-2.73-3.12-3.36-.44.07-1.06-.1-1.44,0-1,.28-1.75,1.93-1.92,2.88l-.68.05-.28.43c-.46,0-1.01.06-1.44,0,0-.33-.39-.37-.48-.48-1.59-1.99-1.92-1.7-4.32-.73-1.66.67-3.23,1.61-3.35,3.6l-3.84-.48c-.19,1.53.03,2.62.38,3.94.03.12.06.24.1.37.07.26-.05.66,0,.96.45.27.55.69.96.96.02-.05.37-.1.4-.33.25-2.13-.24-4.05,2.48-3.5.05.08.51.14.71.47,1.88,3.13,1.51,10.57,5.36,11.45,1.82.42,3.29-1.83,4.4-3.14.64-.75.56-1.39,2.01-1.11.09.2,2.11,1.43,2.34,2.22.25.84-.16,3.25.1,3.49.63.58,3,1.06,3.31,2.44-1.93.21-4.27-2.56-5.76-.73-1.65,2.03,2.74,4.14,4.31,4.82,1.37.6,3.02,1.4,4.32,1.92,1.54.62,3.76.77,5.42,1.3,7.02,2.23,10.96,3.3,18.35,4.19,1.37.17,2.7-.52,3.54.78.7,1.1.14,2.19,2.16,1.57,2.2-.67.57-4.15,1.71-5.48,1.74-1.17,4.98,1.65,6.57,2.58,2.96,1.73,5.78,1.83,4.96,6.3,6.39.31,7.53,9.8,7.67,14.87,2.38.48,2.43-2.78,4.32-2.88-.04,1.98,1.15,4.67,2.88,5.75.07-.17,1.35-.38,1.44-.96q.18.23,0,0c-1.55-1.99-2.97-4.36-4.09-6.21-3.07-5.1-8.37-10.14-11.19-15.2-.46-.83-1.68-2.63-.3-3.03,1.83-.53,4.13,2.06,5.28,3.33,1.65,1.83,4.34,6.58,5.72,7.71.63.52,2.08.82,3,1.32,1.1.6,2.14,1.42,3.27,2.01l-1.2-2.87h3.36c-.26-1.83-2.41-2.75-1.92-4.8.7-.08,1.27,0,1.94.22,1.9.61,4.67,2.94,6.22,4.33,2.03,1.81,3.73,3.96,5.56,5.95l4.7.08c.44-.83,1.46-1.73,1.2-2.62-.35-1.2-2.71-1.98-2.37-4.6h0c.03-.25.39-.68.47-1.19.26-1.6-.48-3.62,2.16-3.63,3.08-.02,1.47,3.13,1.68,4.82,0,.08.43,1.35.48,1.44h0c.43.85,3.96,4.45,4.81,5.02.9.61,1.87.66,2.73,1.11.98.51,1.4,1.6,2.53,1.54.52-.58-1.92-5.39-1.93-6.48,0-1.39,1.87-2.32,1.96-3.35.11-1.31-1.49-1.99-.99-3.6.36-.37,3.43,1.32,3.84,1.68.45.38.55,1.04.95,1.45,5.36,5.52,11.27,13.11,15.29,19.73,1.5,2.48,3.85,6.46,4.84,9.08.17.44-.29.77-.73.96.02,0,.04-.01.06-.02-.02,0-.04.02-.06.02-.06.03-.12.05-.18.07-.04.01-.07.03-.11.04-.06.02-.11.03-.16.05-.03,0-.05.01-.07.02-.06.01-.11.02-.14.02,0,0,0,0,0,0-.01.43.93,2.25,1.03,2.33.25.19,1.32.08,1.85.55.36-2.23-1.22-6.26,1.92-6.71-3.65-6.55-8.29-12.56-11.92-19.02-.77-1.37-1.69-2.87-1.51-4.48.69,0,1.39-.08,2.08.08,2.22.5,7.6,8.25,8.95,10.47.66,1.08,1.71,4.42,2.88,5.04,1.17.62,1.23-.27,1.92,1.67.49,1.4.64,2.92,1.19,4.32.77,1.97,2.68,4.74,3.12,6.71,1.6-.33,2.61.62,3.36,1.92h0c.76-.61.64-3.26.42-4.02ZM425.96,277.95c.94.04.75-.06.72.96-.8-.19-1.49.41-2.17.47-1.47.14-3.98.08-4.07-1.91,1.87.34,3.63.39,5.52.48ZM402.56,304.7c1.4.3,2.83.37,4.22.58.75.11,1.44,0,1.67.97-1.9.32-4.13,1.24-6.01,1.43-3.73.38-7.95-1.58-11.71-1.94l-.52-3.8c.57-.56,10.6,2.39,12.34,2.77ZM388.45,314.49c4.57.88,9.67,4.18,14.26,5.4.77.52.24,1.77.69,2.67.4.8,1.93.91,2.17,1.9l-7.68-1.44.48-1.44c-1.15-.33-2.49-.44-3.54-1.02-.29-.16-2.4-1.72-2.49-1.84-.18-.25.19-.67.03-.97-.5-.96-3.42-1.66-4.57-2.15l-1.91-1.21c.85,0,1.7-.07,2.55.09ZM384.46,313.92h.96v.48h-.96v-.48ZM405.33,132.64c1.61-.54,1.71,4.89,1.68,5.52-.05.93.07.76-.96.72.3-2.14-2.69-4.46-.72-6.24ZM411.81,208.89c.58,1.57-1.18,3.26-2.57,2.83-1.11-.34-.83-.73-2.95-.92-.6-.05-1.78.39-1.68-.48,2.45-.6,4.57-1.84,7.2-1.44ZM380.74,164.64c.41-1.55,1.89-6.15,3.23-6.84.99-.51,3.1-.01,3.34-.26.08-.09.64-1.71.89-2.22,1.14-2.3,1.95-4.92,2.49-7.34.1-.45-.11-1.11.01-1.65.85-3.78,1.7-7.55,2.61-11.31l1.21-.46c-.02.55.06,1.11-.01,1.67-.39,3.2-1.56,6.44-2.39,9.36.31.04.68-.06.96,0,.19.04.38-.06.46.25.72,3.44-1.53,6.05-1.42,9.34.89-.33,1.34-1.58,1.68-2.39,1.03-2.41,3.31-9.44,3.5-11.85.04-.54-.4-1.12-.41-1.81-.04-5.17.62-9.86,2.65-14.65.2-.46,2.23-4.87,3.12-3.83.44,3.51-1.78,6.63-1.92,10.07,2.63-2.64,3.25-1.04,2.87,2.15-.42,3.45-2.17,7.91-2.85,11.54-2.12,11.32-2.03,22.61-10.8,31.41-.41.41-1.07.5-1.45.95-.68.79-2.03,4.21-2.61,4.58-.56.36-3.39.82-4.11.71-1.64-.24-2.5-2.55-2.65-4.07-.35-3.61.64-9.75,1.58-13.33ZM377.27,220.88c.14-.87-.03-1.86.96-2.4.32.35,2.31.38,2.88.48,1.49,1.86-2.23,2.99-3.84,2.88.05-.3-.05-.66,0-.96ZM375.83,221.84l.29.42c.21.12.49,0,.67.06.02,0,.06.29.34.39.34.11,3.72.54,2.54,1.53-.7.59-4.62-1.09-5.76-.96-.21-1.72,1.34-1.19,1.92-1.44ZM373.75,226.08c-1.34-.3-5.56-3.01-5.6-4.48.23-.39,2.33-.34,2.4-.24.07.1-.17.68.06.89.32.28,1.24-.04,1.38.07.05.05-.15.61.08.85.22.24,2.86,1.28,3.48,1.53.58.24.21.9.29,1.45-.69,0-1.39.08-2.08-.08ZM366.48,319.17c.95-.01,2.42,2.65,2.16,2.9l-5.28-.48c-.8-.72,2.44-2.41,3.12-2.42ZM353.53,334.52c.58.05,3.71,2.37,3.11,2.9-2.26-.06-4.56.29-6.72-.48.75-.9,2.5-2.52,3.6-2.42ZM349.7,341.71l5.98.98h-12.71l-1.68-.96,8.42-.02ZM345.6,370.51v-2.4s4.99.53,4.99.53l.77,1.39c-1.92.4-3.77.63-5.76.48ZM340.81,364.28c1.59.45,3.06-1.7,4.08-1.92,1.99-.43,5.27.32,7.44,0,.2,1.31-.22.83-1.09,1.06-2.13.56-7.99,2.75-9.66,2.25-.55-.16-.89-.8-.76-1.39ZM312.98,352.29c.18-.15,2,.02,2.54.1,4.29.66,8.12,2.54,13.03,3.23.45.06.07.7.55,1,1.56.98,5.77,1.11,7.4,2.13.65.41.48,1.03.47,1.69-1.33-.02-2.65.09-3.98-.1-4.27-.61-15.14-4.73-19.05-6.87-.31-.17-1.86-.44-.96-1.18ZM290.92,286.58c-.26.07-.66-.06-.96,0h-1.44c-.95-.18-1.96.24-2.88.48v-.96c2.97-.48,6.76-1.08,9.59-1.92-.65,1.45-2.84,1.98-4.32,2.4ZM302.19,239.1c-.31,0-.31-.48,0-.48s.31.48,0,.48ZM157.07,347.01c-.76.91-1.02-.71-1.17-.96-.35-.57-1.72-2.35-1.22-2.87.81-.85,3.19,2.89,2.4,3.84ZM166.58,333.73l-1.59,5.13c-1.1.26-.81-1.04-.71-1.67.28-1.79.74-3.31.47-5.28-.31-2.22-1.82-2.64-1.43-6.23.03-.29.41-2.08.47-2.17.69-.96,1.22,1.04,1.32,1.31.83,2.39,1.9,6.48,1.47,8.91ZM160.91,375.79c-1.02.04-.91.22-.96-.72-.05-1.04.03-2.09,0-3.12,2.26.08,1.37,2.36.96,3.84ZM186.34,328.55c-3.06,3.25-5.49,6.86-8.88,9.83-.54.47-.79,1.15-1.68.96l.56-2.08c1.33-1.32,5.86-9.06,6.94-9.37,1.17-.34,2.76.44,3.78-.54.43.39-.45.91-.72,1.2ZM188.26,338.86h-.96v-.48h.96v.48ZM190.86,337.86l-.68-.92c1.29-.43,9.2-3.28,9.59-2.88v1.44c-1.58-.45-2.51.54-3.7.86-1.75.47-3.6.59-5.22,1.5ZM207.41,353.93c-.25.88-2.94,1.33-3.8,1.23,2.38,3.2.23,3.44-2.55,3.92-.3.05-.46.38-.57.39-2.17.26-4.73-.19-6.96,0-.15-.77.41-1.27.97-1.67,1.08-.77,2.98-1.63,4.31-1.69.2-.88-.9-.16-.98-.73-.11-.77-.05-1.38.5-1.91,2.01-1.96,10.5-4.59,9.08.45ZM214.43,339.84c-.83,1.22-2.94.08-3.16,2.62-.14,1.6,1.59,1.9,1.42,2.81-.25,1.41-1.09,1.1-1.34,1.31-.28.23.21,1.65-.28,2.38-.88,1.31-3.86.84-5.29.94-1.34.1-2.37.95-4.08-.02-.61-2.14,1.69-1.18,2.39-2.87-1.51.11-2.89,0-4.32-.48-.82-.74,2.23-2.45,2.85-2.66,1.44-.48,4.3-.42,5.31-.92.4-.2,1.29-1.38.95-1.69-2.42.26-4.72,1.24-7.19.96-.17-1.05.15-1.56.97-2.15,2.47-1.78,7.8-3.54,10.8-3.14,1.37.18,1.6,1.98.97,2.92ZM218.48,295.69h-.48c.14-.14.44-.43.48-.48v.48Z"/>
    <path class="a3" d="M359.74,409.38c-1.48-1.72-2.63-.61-2.11,1.15.16.54,1.53.97,2.12,1.72.21.27,2.04,3.45,2.1,3.66.26.89-.07,1.93.06,2.82.13.88,1.45,2.15,1.45,2.15h0c.62-1.45.66-1.98,2.4-2.4h0c-.71-1.78-2.01-3.7-3.14-5.25-.85-1.17-1.97-2.78-2.88-3.84Z"/>
    <path class="a3" d="M396.94,382.98c.59.99,1.86,1.03,2.88.96v-.96c-.45.01-.96.04-1.46.05-.5,0-1,0-1.42-.05Z"/>
    <path class="a3" d="M396.31,382.71c.04.07.06.13.09.18-.08-.17-.19-.53-.74-.78-1.76-.82-5.26-.32-2.59-3.21l-.2-.24-16.56-14.63c-.49-.96,1.07-.82,1.61-.65,1.15.36,6.5,5.03,7.75,6.16,1.24,1.13,7.6,8,8.15,8.16,1.18.35,1.59-2.01.97-2.89l-9.6-9.11c-4.77-2.67-8.21-7.23-12.73-10.29-.77-.52-5.91-3.48-6.21-3.12-.07.08-.04.61-.25.94-.67,1.04-1.55-.21-2.64.01.2.65,2.25,2.25,2.7,2.35.51.11,1.35-.69,2.09-.43-.45,1.11-2.09,1.45-2.87,2.17-1.27,1.17-.13,1.07.72,1.65,5.23,3.62,10.22,7.09,14.39,12,.57.67.92.85.72,1.92-.29.31-2.43-1.37-2.86-1.7-3.7-2.84-7.23-5.92-11.07-8.59-.84-.29-4.81-3.57-5.26-3.14-.53.52,2.25,2.85,2.4,3.59,1.42,1.36,3.65,1.09,3.8,1.23.11.11.28,1.36.75,1.89,1.72,1.95,4.94,4.24,6.97,6.46,3.84,4.2,3.92,5.64,9.91,7.84.56.2,1.34.03,2.1.3,2.56.9,4.56,3.25,7.16,4.36.5.21,1.38.18,1.45.23,0,0,0,0,0,0,.5.41-.71,2.66-.96,3.34,1.16.13,1.26-.67,1.68-1.44,1.32-2.41.35-2.51-2.16-2.4l1.44-1.92h0s-.04-.05-.06-.09c-.02-.05-.05-.11-.09-.18Z"/>
    <path class="a3" d="M374.08,413.15c.12.05.24.11.35.18-.11-.07-.23-.13-.35-.18Z"/>
    <path class="a3" d="M275.57,188.75c-.36-.35-3.57,1.78-2.88,2.4.72.64,3.14-1.31,2.88-2.4Z"/>
    <path class="a3" d="M323.06,175.32c.32-.32-.91-2.88-1.92-2.4-.23,1.28.7,2.45,1.92,2.4Z"/>
    <path class="a3" d="M317.85,189.3c-.11.11-.55,1.37-.57,1.62-.15,1.9,1.52,2.47,2.18,3.59.66,1.12.79,3.63,2.39,3.85,3.35.45,4.56-5.21,2.88-7.68-1.28-1.87-5.4-2.86-6.87-1.38Z"/>
    <path class="a3" d="M333.31,135.1c1.65.98,2.52,2.97,2.71-1.02l2.4.96c.15-1.42.62-2.12-.09-3.51-1.06-2.06-2.75-2.46-4.25-.58-.35.44-.41,1.06-.5,1.16-.52.57-4.95-1.12-6.2.28l-1.91,1.2c2.58-1.03,5.55.14,7.85,1.51Z"/>
    <path class="a3" d="M342.25,195.94v-2.4c-1.98-.03-1.98,2.43,0,2.4Z"/>
    <path class="a3" d="M318.51,176.28c.64.82-.04,1.27,2.15.95,1.03-1.78-3.18-2.55-3.36-2.4-.85.73.96,1.13,1.2,1.44Z"/>
    <path class="a3" d="M248.34,249.05c-.86,2.36-1.37,4.26-1.08,6.84.55-.08,1.2.3,1.44-.28,1.23-2.95,1.06-4.78.47-7.87-.67-.11-.66.8-.84,1.31Z"/>
    <path class="a3" d="M345.13,202.17c.32-2.37-.71-2.61-2.88-2.4l.5,2.37,2.38.02Z"/>
    <path class="a3" d="M313.46,178.2h-2.88c-.08,2.03,2.96,2.03,2.88,0Z"/>
    <path class="a3" d="M349.49,212.77c.41-.39,2.15.64,1.88-.76-1.69-2.54-3.33-.02-3.36,2.16,1.32.35,1.2-1.13,1.48-1.39Z"/>
    <rect class="a3" x="295.71" y="319.2" width="1.92" height=".48"/>
    <path class="a3" d="M358.32,219.92c.31,0,.31-.48,0-.48s-.31.48,0,.48Z"/>
    <path class="a3" d="M259.64,250.49c.04.12.07.24.08.37.02.17.03.35.03.53,0-.18,0-.36-.03-.53-.02-.13-.05-.25-.08-.37Z"/>
    <path class="a3" d="M348.32,220.33c.32.28,1.8,1.32,2.08,1.03-.14-1.46-1.18-3.18-2.88-2.88-.19,1.19.04,1.2.79,1.84Z"/>
    <path class="a3" d="M290.5,261.13c-.01.17-.03.34-.07.52h0c.03-.17.05-.35.07-.52Z"/>
    <path class="a3" d="M211.76,422.78c-.76-.25-1.54.5-2.09.41-.13-.02-2.07-.89-2.16-.97-.68-.68-1.41-4.34-2.24-4.72-.71-.33-1.1.92-1.12,1.27-.05.62.64,1.31.41,2.08l-5.03-1.44c-.9.54.22,1.36.24,1.44h0c4.2.14,7.79,3.29,11.99,2.88h0c-.04-.3.03-.65,0-.96Z"/>
    <path class="a3" d="M259.22,248.94c0,.19.04.37.08.54-.04-.17-.07-.34-.08-.54-.11-2.19,1.59-5.01,2.99-6.64.25-.29.44-.62.67-.87-.24.25-.43.58-.67.87-1.4,1.63-3.1,4.45-2.99,6.64Z"/>
    <path class="a3" d="M225.44,274.11c.98.28,2.49-2.35,2.16-3.36-.51-.55-4.26,2.76-2.16,3.36Z"/>
    <path class="a3" d="M204.82,306.26c.18-.82,3.66-3.77,3.11-4.33-.5-.5-5.33,4.21-6.26,4.53l-.93,2.67c1.9.24,2.78-1.91,4.09-2.87Z"/>
    <path class="a3" d="M197.14,406.47c-1.42-1.18-3.13-2.23-5.05-1.91-.1,1.24-.04,2.33.73,3.34l10.06,10.08-.49-1.91c-2.6-3.11-2.05-6.96-5.26-9.61Z"/>
    <path class="a3" d="M185.86,317.28h.48c0-1.11.34-2.48-.96-2.88l.48,2.88Z"/>
    <path class="a3" d="M288.52,255.41h-1.44c-.15,1.37-.72,1.66-1.92,1.92-.28.06-.65-.05-.96,0v.96c-.5.2-.8.63-1.27.89l-.65.07c.09.12-.26.91.27.98,2.26.32,3.47-.68,5.48-1,.1-.46-.07-.99.01-1.43.16-.84.59-1.52.48-2.4Z"/>
    <path class="a3" d="M140.28,299.05c.01-.05,0-.11,0-.16,0,.06.01.11,0,.16h0,0Z"/>
    <path class="a3" d="M268.11,237.65c-.97.07-1.83.58-2.82.55l-.28.42c.12.59-.21.68-.48.96h0v.48h0c.1.84-.46.9-.48.96-.35,1.22-.4,2.57-.48,3.84v.48c.01.27.06.8,0,.96l1.44,1.44c.21-2.22,1.36-7.27,3.11-8.65.52-.41,1.15-.41,1.21-.46.92-.7-.42-1.04-1.22-.98Z"/>
    <path class="a3" d="M243.42,241.5c.61.68.84-.07,1.05-.61.47-1.22,1.53-5.24,2.62-5.55.51-.15,1.15.04,1.64-.28.53-.35,1.98-3.14,3.09-3.62.45.15.29,1.25.23,1.67-.2,1.38-1.11,3.48-.96,4.8.07.64.67,1.65.97,2.36.39.95,1.71-.08,2.15-.69,1.24-1.69,1.25-3.54,1.91-5.28,1.17-3.08,2.57-7.01,4-9.91,1.22-2.47,2.93-3.12,4.16-4.95.73-1.09.56-2.27.95-2.89.29-.45,8.25-4.27,9.52-4.87,1.23-.58,6.26-2.19,6.52-3.08.15-.51.02-1.09.06-1.62h5.27c.09-1.82.34-3.31-1.76-3.76-3.24-.69-6.62.83-9.75,1.36,1.21-1.85,3.16-3.12,4.56-4.79.4-.49.92-.62.72-1.44-1.85.78-3.66.28-5.51.49-1.95.22-3.72.92-5.78,1.12-.49.05-.9,1.2-2.33.74-.51-.17-.75-.99-1.43-.87-.99.17-1.64.91-1.74,1.88-.98.13-2.05.68-2.87,1.21-2.1,1.37-12.18,9.24-12.41,11.09-.05.42.35.83.31,1.28-.14,1.62-2.13,5.75-2.78,7.52-.69,1.85-3.12,5.38-3.29,6.55-.15.98.79,4.88.88,6.17.07,1.04-.19,5.76.01,5.98Z"/>
    <path class="a3" d="M257.58,199.3l7.91-5.52c.21-.98-.5-.84-1.19-.71-.77.14-1.73,1.02-2.17,0l7.68-6.95c-.73-.75-2.14.46-2.86.98-2.14,1.54-4.49,3.5-5.3,5.98-.91,2.79-1.79,2.72-3.6,4.8-.33.38-1.26.97-.48,1.44Z"/>
    <path class="a3" d="M298.84,188.26c.51.05,2.54.11,2.62,0,.32-.37-.71-3.08,2.4-2.4v-2.39c-1.54-.25-2.52,1.75-3.34,2.17-.93.48-6.86.31-8.43.25-.85-.03-1.51-.49-2.36-.52-1.26-.05-8.6-.31-8.89.02-.08.1.07,1.08-.09,1.59-.33,1.09-1.36,1.62-1.35,2.73l4.57-.95c4.89-.22,10.14-.97,14.87-.5Z"/>
    <path class="a3" d="M272.21,233.83c-.54-.03-.91.04-1.2.17.28-.13.66-.2,1.2-.17,1.19.07,2.47,1.17,3.85,1.19,2.61,1.37,9.21,10.59,9.58,13.44.15,1.15-.1,2.42.02,3.58h.95c1.26-2.13.93-3.53.25-5.76-1.12-3.7-3.28-6.54-4.95-9.92-.53-1.07-.55-2.35-1.31-3.49-2.23-3.35-8.08-3.76-8.38.95Z"/>
    <path class="a3" d="M342.02,352.28c-2.95-.47-5.87-1.36-8.88-1.43-.12.64.83.7,1.31.84,1.53.45,9.94,2.64,10.68,2.03.03-2.06-1.88-1.25-3.11-1.45Z"/>
    <rect class="a3" x="336.01" y="354.2" width=".96" height=".48"/>
    <path class="a3" d="M289.96,420.39c-.52.52.43,1.48.96.96.52-.52-.43-1.48-.96-.96Z"/>
    <path class="a3" d="M350.4,415.59c.26,3.09,3.1,5.56,3.36,8.63.74,0,1.11.27.9-.66-.66-2.96-1.46-6.33-4.26-7.97Z"/>
    <path class="a3" d="M366.47,373.87c-.31,0-.31.48,0,.48s.31-.48,0-.48Z"/>
    <path class="a3" d="M342.73,419.43c-.22,2.77,1.74,5.37,3.14,7.67.38.62-.12,1.23,1.17.96.09-2.3-1.53-5.57-2.78-7.53-.41-.64-.54-1.3-1.53-1.11Z"/>
    <path class="a3" d="M346.24,409.84c.61.45,0,1.1.81.96.01-.45-.33-1.6-.58-1.84-.15-.14-.59-.02-.75-.16-.36-.32-.41-1.58-.63-1.8-.05-.05-1.17-.44-1.39-.28.56.24.39,1.01.56,1.14,1.13.88,1.04,1.27,1.99,1.98Z"/>
    <path class="a3" d="M297.14,428.31c-.94-1.07-1.92-2.09-2.87-3.13-.35-.38-2.24-3.57-2.88-2.88,0,.81.74,1.73,1.22,2.38.38.53,1.11.86,1.18.97,1.8,2.68,2.92,4.84,5.27,7.44.68.75,1.54,1.64,2.41,2.15.05-3.41-2.41-4.78-4.33-6.94Z"/>
    <rect class="a3" x="337.45" y="354.68" width=".96" height=".48"/>
    <path class="a3" d="M418.56,250.44c-.14.79,1.52,2,1.88,1.61l.48-4.32c-.67-.79-2.28,2.26-2.36,2.7Z"/>
    <path class="a3" d="M436.75,257.81h1.92s0-.96,0-.96c-.9-.12-1.66,0-1.92.96Z"/>
    <rect class="a3" x="378.23" y="343.17" width=".96" height=".48"/>
    <rect class="a3" x="331.21" y="350.37" width="1.44" height=".48"/>
    <path class="a3" d="M435.55,252.53c-.31,0-.31.48,0,.48s.31-.48,0-.48Z"/>
    <path class="a3" d="M418.52,303.85c-.13,1.26,0,.76.7.96.72.21,1.39.59,2.18.47-.08-.86-2.44-1.81-2.88-1.44Z"/>
    <path class="a3" d="M446.44,183.62c-.26-1.06.48-2.4-1.05-2.07v6.95c0,1-1.61,6.52-2.04,8.04-.43,1.54-1.77,4.08-1.81,5.39-.04,1.48,1.67.68,1.86-.06l3.9-15.77c-.15-.86-.66-1.66-.87-2.49Z"/>
    <path class="a3" d="M435.79,300.01c-2.2.66-4.27.33-6.47.49-.57.04-1.14.45-1.91.49-2.14.12-4.35-.13-6.5-.02l10.29,3.37c2.76-.58,5.08-.87,4.58-4.33Z"/>
    <path class="a3" d="M440.83,301.46c.73,0,2.42-.89,2.16-1.93-.28-.24-3.39.15-3.84.48-.87.64,1.17,1.44,1.68,1.45Z"/>
    <path class="a3" d="M449.71,184.91l-3.84,14.39c.74-.11.9-.9,1.2-1.43,1.85-3.31,3.78-8.46,3.59-12.24-.05-.93.06-.76-.96-.72Z"/>
    <path class="a3" d="M442.21,314.92c-.34-.07-1.16.43-1.85.47-3.07.18-8.15-4.9-11.12-6.19l-4-1.99c-.22,1.04.52,1.09,1.11,1.53,2.09,1.58,4.44,2.92,6.55,4.49,2.77,2.06,4.19,4.54,7.95,5,1.01.12,2.09-.05,3.11.01.26-.94-.9-3.15-1.73-3.32Z"/>
    <path class="a3" d="M441.6,294.31c-.17.14-.73,2.15-.53,2.35,2.53.72,2.4-.97,3.17-1.46,1.41-.89,3.96.31,3.54-2.38-1.03.33-5.75,1.15-6.18,1.49Z"/>
    <path class="a3" d="M416.6,338.86c-.2.83.33.95.72,1.44.49.6,2.04,2.73,2.43,2.84,2.11.62,2.25-3.28.7-4.05-1.07-.54-2.66-.09-3.85-.23Z"/>
    <path class="a3" d="M388.7,392.19c.25.31-.26,1.04.56.86-.07-.94.23-2.01-.23-2.89-.09-.18-2.71-2.31-3.14-2.61-.35-.25-1.62-.99-1.91-.73l2.39,3.61c.31.83,2.11,1.5,2.33,1.77Z"/>
    <rect class="a3" x="349.92" y="352.29" width="1.44" height=".48"/>
    <path class="a3" d="M392.41,388.7c2.18.61,1.66-.59,1.64-2.36l-2.4.96c-.25.18.2,1.24.76,1.4Z"/>
    <path class="a3" d="M394.24,369.53c-1.08-.51-1.48-1.39-2.59-1.42-.65,1.14,2.42,3.88,2.88,3.36-.11-.58.33-1.64-.29-1.93Z"/>
    <path class="a3" d="M351.84,352.77c-.11.67.8.66,1.32.84,2.59.94,5.18,1.83,7.77,2.78.97.36,1.3.32,1.94-.51l-5.63-2.04-5.4-1.07Z"/>
    <path class="a3" d="M357.6,387.3c-.43.43.76,1.53,1.2,1.92l.24-.24c-.59-.41-.41-2.71-1.44-1.68Z"/>
    <path class="a3" d="M412.52,342.69c-.21-.08-.48.02-.71,0l-.31.96c-1.25.47-2.51.34-3.78.47-.45.05-.21.56-.24.96,1.26.13,2.14,1.3,3.21,1.83.62.31,2.27,1.01,3.01,1.31.34.13,2.79.8,2.9.7.09-.85-.62-1.37-1.05-2.07-.39-.64-2.74-4.05-3.03-4.16Z"/>
    <path class="a3" d="M438.21,325.17c-1.14-.91-2.23-1.95-3.38-2.86-.49-.39-.61-.92-1.44-.72.13,1-.4,3.04.46,3.61.88.59,4.18,1.58,5.29,1.66.29.02.68.04.96,0-.02-.15-.4-.89-.48-.96-.28-.25-1-.4-1.42-.73Z"/>
    <path class="a3" d="M434.35,339.34c.28-1.09-.43-.81-.96-1.44-.84-.31-1.51-.88-2.26-1.34l-11.17-2.98c-.15,1.41,1.4,1.7,2.17,2.39.47.42,1.68,1.51,1.94,1.93.44.72-.54,1.28-.07,1.93.43.58,2.39,1.22,2.63,1.48.17.18,0,.63.04.9.04.3-.03.65,0,.96h1.92c.18.85,0,1.01.96,1.44-.69-.87-.19-1.11.47-1.69.94-.83,4-2.45,4.25-2.73.22-.25.01-.78.07-.85t0,0Z"/>
    <path class="a3" d="M366.48,418.48c-.16,0-.34-.03-.5-.04.16,0,.34.03.5.04Z"/>
    <path class="a3" d="M374.87,413.67c-.1-.11-.22-.2-.34-.28.12.08.24.17.34.28Z"/>
    <path class="a3" d="M396.57,385.61s0,.02,0,.03c0,0,0-.02,0-.03Z"/>
    <path class="a3" d="M404.27,380.25c-.24.15-.49.29-.75.43.26-.14.51-.29.75-.43Z"/>
    <path class="a3" d="M395.02,390.17c.02-.16-.03-.33,0-.48l-.48.24.42.21.06.03Z"/>
    <path class="a3" d="M396.5,386.21c-.04.16-.09.32-.15.49.06-.17.11-.34.15-.49Z"/>
    <path class="a3" d="M357.6,254.45c-1.02,1.02.9.89.96.96v-.96c-.3.04-.89-.06-.96,0Z"/>
    <path class="a3" d="M473.21,221.36c-2.07.86-1.48.75-3.11,1.93-4.02,2.9-7.89,5.74-11.53,9.09-2.74,2.52-5.19,5.38-7.9,7.92-.4.79.57.9,1.15.67,1.47-.57,5.03-3.41,6.5-4.53,2.57-1.95,4.62-4.57,7.7-5.5h.48c-.78,2.97-2.76,5.91-3.27,8.96-.21,1.24.09,2.51-.17,3.67-.19.88-1.86,3.08-2.42,4.3-.45.98-2.35,6.04-1.82,6.57h1.42c1.28-3.12,3.03-6.92,5.08-9.57,1.57-2.03,4.82-3.56,4.54-6.25l-1.92-.24,5.21-6.78.55-3.53c-.18-.09-1.22-.43-1.44-.48.03-.28.2-.44.48-.48l.29-.43.67-.05c-.23-.92-.02-1.21-.48-2.4-.5-1.31-.52-1.44,0-2.88q.54-.23,0,0Z"/>
    <path class="a3" d="M255.2,161.91c-.45.9-2.32,5.12-.11,4.71,1.62-.3,1.16-.09,2.5.06,2.15.25,1.91-.97,3.11-1.67,7.27-4.26,15.55-7.42,21.88-13.13,9.54-.12,27.63-3.3,33.21-11.88,1.05-1.62,1.28-2.67.54-4.49-1.61-.43-2.31,1.67-3.67,1.84-.48.06-.82-.45-1.61-.21-1.32.41-4.92,3.66-5.99,3.66-.89,0-1.73-1.02-2.5-1.36-1.35-.6-3.23-.78-4.7-.58-1.04.15-1.85,1.2-2.82.92-1.07-.31-1.83-2.59-2.5-2.79-1.56-.46-3.45.48-4.2.37-.63-.09-1.18-.87-1.27-.9-.43-.14-1.6.64-2.64.5-1.65-.22-1.47-2.35-3.83.49-.64.77,0,1.27-2.17.93-.05,2.38,3.64,4.22.72,6.23l-2.15-2.17c-3-1.19-1.49,1.17-1.97,1.65-.12.12-1.49.54-1.87,1,.05-.74-.54-3.72-1.68-3.36-1.71.54.28,6.9-1.44,7.67l-2.62-3.13c-3.7-1.87-2.2,5.58-3.46,6.88-.26.27-1.73.86-2.29,1.3-.89.7-1.54,1.64-2.67,2.13l-4.07,4.81h0c1.71-.85.54-.07.26.5Z"/>
    <path class="a3" d="M140.76,298.57l-.48.48.48-.48,2.91-.69c.54-.69.57-1.55,1-2.36.72-1.36,3.2-4.21,3.3-5.34.1-1.07-.3-1.74-1.45-1.68-3.35,1.95-3.85,5.38-4.85,8.82-.2.69-1.19.61-1.39,1.25-.02.07-.01.15,0,.24-.01-.08-.02-.16,0-.24h.48Z"/>
    <path class="a3" d="M460.74,196.9l1.9.5c.21,7.15-2.18,14.08-3.33,21.08.55-.08,1.21.3,1.45-.28,2.58-6.29,4.69-12.95,4.31-19.86h1.44s.48,0,.48,0c-.05-.03-.05-.32-.48-.48-.22-.08-.65.09-.95,0,.14-.9-.33-4.05-1.21-4.31-2.28-.65-.42,2.23-1.68,3.12-1.15.81-.81-.36-1.44-.72-.01.06-.72.21-.48.96Z"/>
  </g>
  <g>
    <path class="cls-3" d="M3.04,11.7v-1.36h4.13v1.36H3.04Z"/>
    <path class="cls-3" d="M12.35,15.76c-.77,0-1.44-.23-1.99-.7-.56-.46-.99-1.14-1.29-2.03-.3-.89-.45-1.98-.45-3.27s.15-2.37.45-3.25c.3-.87.73-1.54,1.29-1.98.56-.45,1.22-.67,1.99-.67s1.42.22,1.97.67c.55.45.98,1.11,1.28,1.98.3.88.45,1.96.45,3.25s-.15,2.38-.45,3.27c-.3.89-.73,1.57-1.28,2.03-.55.46-1.21.7-1.97.7ZM12.35,14.29c.39,0,.73-.15,1.03-.45.3-.3.54-.78.7-1.44.17-.66.25-1.54.25-2.64s-.08-1.97-.25-2.62c-.17-.65-.4-1.11-.7-1.4-.3-.29-.65-.43-1.03-.43s-.73.14-1.03.43c-.3.29-.54.75-.71,1.4-.17.65-.26,1.52-.26,2.62s.09,1.98.26,2.64.41,1.14.71,1.44c.3.3.65.45,1.03.45Z"/>
    <path class="cls-3" d="M21.59,15.76c-.55,0-1.07-.11-1.55-.34-.48-.23-.91-.57-1.27-1.03-.36-.46-.64-1.04-.85-1.74-.21-.7-.31-1.52-.31-2.47,0-1.13.12-2.09.35-2.89.23-.79.55-1.45.96-1.96.41-.51.87-.89,1.39-1.12.52-.23,1.07-.35,1.64-.35.65,0,1.21.12,1.68.37.47.25.87.54,1.2.9l-.98,1.12c-.21-.26-.47-.46-.8-.62-.32-.16-.66-.24-1.02-.24-.5,0-.96.15-1.38.45-.42.3-.75.8-1,1.5s-.38,1.65-.38,2.86c0,.95.09,1.73.28,2.34.19.61.45,1.07.8,1.37.34.3.75.45,1.2.45.33,0,.64-.09.91-.28.27-.19.49-.45.65-.8.16-.35.24-.76.24-1.24s-.08-.87-.23-1.19c-.15-.33-.37-.57-.65-.74-.28-.17-.62-.26-1.03-.26-.33,0-.7.11-1.09.34-.39.22-.76.61-1.1,1.17l-.08-1.34c.23-.31.49-.58.78-.8.29-.22.6-.4.91-.52.32-.12.62-.18.9-.18.65,0,1.21.13,1.7.39.49.26.87.65,1.14,1.18.27.52.41,1.18.41,1.97s-.16,1.41-.48,1.97c-.32.55-.73.99-1.25,1.3s-1.09.47-1.71.47Z"/>
  </g>
</svg>