<?xml version="1.0" encoding="UTF-8"?>
<svg id="a3" xmlns="http://www.w3.org/2000/svg" viewBox="0 0 600 500">
  <defs>
    <style>
      .a3 {
        fill: #a48c67;
      }

      .cls-2 {
        fill: #c9caca;
      }
    </style>
  </defs>
  <g>
    <path class="a3" d="M487.52,150.04s-.03,0-.04,0c.01,0,.03,0,.04,0h0Z"/>
    <path class="a3" d="M482.31,157.29h0s.01-.03.02-.05c0,.02-.01.03-.02.05Z"/>
    <path class="a3" d="M208.96,122.84c-.01.22.07.57.06.86-.01.39-.19.67-.96.41-.53-1.35-4.33-8.93-5.05-9.11-.99-.24-1.17.81-1.16,1.71,0,.3.04.59.07.8.57,4.03,3.76,8.77,5.65,12.35h0c.07.13.14.24.22.34.08.1.17.19.26.27.18.16.38.3.58.42.4.25.8.49,1.08.9,1.65,2.48,2.89,5.55,5.05,7.66l-1.43-5.75c1.78-.25,2.58,1.99,4.3,1.21.34-.15,4.21-4.13,4.29-4.43.03-.11.03-.21.03-.32-.06-.77-.89-1.64-1.42-2.22.14-.13.31-.24.5-.34.19-.09.4-.17.62-.23.44-.13.92-.21,1.4-.29.95-.17,1.85-.38,2.25-1.03l-5.08.92c-.19-.1-2.63-.03-1.92-1.92l.96-.48c.46-.1,1.79.14,1.92,0,1.38-1.49-2.38-2.07-3.87-1.73-.86.2-2.05,1.28-2.54,1.19-.44-.08-1.37-1.43-2.69-1.68-.52-.1-2.67.17-2.87.29,0-.01,0-.02,0-.03-.06.02-.12.03-.18.04h0s0,0,0,0c-.03.04-.05.1-.05.17Z"/>
    <path class="a3" d="M191.52,102.05s-.01.01-.02.01h0s.02,0,.02-.01Z"/>
    <path class="a3" d="M383.05,414.69c.21.17.39.31.56.43.02.01.04.03.07.05-.02-.02-.05-.03-.07-.05-.16-.11-.35-.26-.56-.43Z"/>
    <path class="a3" d="M259.57,446.37s0,0,0,0c2.02-.11,3.68-.28,5.59-.92h0s-.02-.03-.03-.04c-.65-.97-1.39-.89-1.44-.96-.09-.12-.43-.92-.87-2-.18-.43-.37-.91-.57-1.4-.3-.74-.6-1.52-.89-2.25-.57-1.46-1.05-2.73-1.16-3.08-.39-1.26-.58-2.67-.75-4.03-.17-1.35-.33-2.65-.65-3.68-.22-.7-1.16-1.38-1.87-2-.43-.37-.77-.73-.84-1.05-.14-.73,1.09-1.76.93-2.75-.06-.37-1.22-.54-1.7-1.27-.21-.32-2.08-5.11-2.15-5.53-.33-2.11.49-3.92.45-5.97l2.39.48c.02-.15.02-.3.02-.45-.01-.46-.09-.94-.08-1.32.01-.25.07-.45.22-.57.15-.12.4-.15.79-.05.5,2.34,3.9,4.81,4.3,6.97.16.84.22,1.78.22,2.77,0,2.96-.55,6.35-.67,8.96.71-.05.91-.87,1.17-1.54.2-.52.44-.96.99-.87.08.01.16.04.26.07,1.2.43,3.51,2.51,3.51,4.07,0,.24-.05.47-.17.67-.24.03-.54.02-.86,0-1.41-.07-3.36-.34-3.47,1.19-.03.39.02.88.14,1.46.07.38.18.81.3,1.26.06.22.13.46.2.69.19.63.42,1.31.66,2,.07.19.13.38.2.57.12.34.25.68.38,1.02.55,1.47,1.15,2.98,1.7,4.38.3.76.58,1.48.83,2.15.25.67.47,1.28.65,1.81.09.26.16.51.22.73.03.1.06.21.09.34.16.61.34,1.46.32,2.16,0,.28-.04.54-.13.74.04.04.08.08.12.11,0,0,0-.01,0-.02,0,0,.01.01.02.02.41-.79,0-2.51-.24-3.35h1.25c-.03-.08-.07-.19-.1-.33-.38-1.35-1.08-5.14-1.35-7.72-.13-1.29-.16-2.28.01-2.51.02-.03.13-.03.27-.02.09,0,.2.01.31.02.16,0,.3.02.38,0,.35,3.04,1.87,6.53,1.81,9.7,0,.49-.06.97-.15,1.44-.05.23-.11.47-.18.7.05.08.1.14.12.16.03.03-.08.35.24.48,1.03.3.56-.6.81-.83.75-.67,2.48.4,3.41,1.07-2.72-3.76-4.3-8.14-5.11-12.7-.08-.43.04-.97,0-1.44l.48-.96c1.24-1.55-3.38-7.38-3.74-8.97-.29-1.27-.03-2.68-.1-3.97l3.83,1.43-.95-5.75,2.39,1.44c.9-1.24-2.55-9.29,2.67-6.26.4.23,6.01,6.33,6.2,6.75.73,1.6,0,4.43.25,6.22,1.16.3,1.62-1.57,2.57-1.4,3.31.59,1.3,6.77,1.75,9.08-.09-.09-.79-.14-1.2-.46-.23-.18-3.59-3.46-2.64-1.22.16.38,4.94,6,5.26,6.25,1.95,1.54.37-2.61-.47-3.61,1.28-.32,2.82-4.78,3.17-4.83,2.79-.46,3.84,5.24,7.39,2.43l-1.92-4.31c2.89-1.2,4.53,3.21,5.08,3.33.62.14,1.37-.8,1.96-.86,1.06-.12,2.26,2.25,3.02,3.06,2.52,2.67,7.32,5.66,8.17,8.86.39,1.46.64,2.78.48,4.31l2.4-.48c.11-1.25-1.01-1.98-1.62-2.88-.14-.21.19-.45.18-.47l2.81-2.69c.2-5.06-1.33-8.54,4.86-9.77.6,1.72,1.82,5.59,2.85,6.9.44.56.91.25,1.47.3-.11-.97.65-6.49.99-6.7,1.53-.95,1.85,2.18,3.09,1.9.79-.18,1.11-4.29,2.64-2.88.32.3,1.02,6.83,1.82,8.5.96,1.99,4.7,4.55,5.86,6.85,0,0,0,0,0,.01.07,0,.12.02.18.04,0-.02,0-.04.01-.05,0,0,0,0,0-.01.14-.11,1.33-.61,1.9-.95.29-.17,1.26.4.96-.95-.06,0-.11,0-.16,0-.32,0-.64,0-.96,0-.24-.51-.82-1.24-1.29-1.94-.28-.42-.52-.83-.62-1.19-.17-.6.12-.71.56-.71.72,0,1.84.34,1.85-.72.04-2.93-2.42-6.14-2.44-9.21,0-.21,0-.41.03-.61l6.79,6.4.88,1.75s-.01.02-.02.02c.06,0,.2,0,.21-.02h0c.15-.11.58-.21.94-.48,1.14-.85.53-.5.96-.96.12-.13,1.48-.33,1.92-.48.82-.28,1.79-.19,2.4-.96.32,0,.64,0,.96,0,.99.02,2.05.24,2.87-.47-.05,0-.1,0-.15,0-.11-.01-.92-.54-1.68-.61-.25-.02-.5,0-.72.13.02-1.15-2.14-4.97.64-4.72.95.08,4.83,3.74,5.6,4.72v.48c.05,0,.11,0,.16,0,1.49.07,1.09.37,2.88,0,.47-.1.76-.42.96-.48.5-.15,1.58.32,1.92-.48-.05,0-.11,0-.16,0-.2,0-.46.02-.74.03-.46.02-.94.04-1.18-.03-.53-.16-7.79-6.72-8.18-7.41-.07-.12-.12-.24-.17-.35-.33-.83-.22-1.67-.56-2.28-.73-1.32-2.37-2.91-2.52-4.25-.03-.27,0-.52.1-.77.21-.49.74-.92,1.73-1.25-1.04,2.83,9.6,9.13,10.08,8.63-1.16-4.3-4.33-9.88-4.71-14.28,0-.1-.02-.18-.02-.27s0-.16,0-.23c0-.22.05-.39.15-.55.07-.11.16-.21.29-.32.07-.05.14-.11.22-.17l9.1,11.03,7.69,7.18c.59.09.79-.11.8-.42,0-.08,0-.16-.03-.24-.02-.08-.05-.17-.08-.26-.06-.18-.15-.35-.23-.5-.81-1.52-2.52-3.38-4.12-5.16-.32-.36-.63-.71-.94-1.06-.61-.7-1.16-1.37-1.6-1.99-.5-.71-1.3-1.44-1.25-2.35.49-.43,1.27-.28,2.21.25.27.15.55.33.84.54.15.1.29.21.45.33.6.46,1.24,1.01,1.89,1.6.16.15.32.3.49.45.33.31.65.63.98.95,1.46,1.45,2.87,2.97,3.96,4.11.24.25.47.48.67.69.41.42.75.73.98.91-.59.51-1.11-.07-1.92.72,0,0,.19,0,.19,0,.92-.04,2.72,0,2.69,0-.53-1.22-1.64-3.31-2.4-4.32.07-.23.25-.43.48-.48.04,0,.1,0,.15-.01-.83-.91-1.04-1.77-1.43-2.87l1.43.48.45-1.35s-.09-.06-.13-.09c-1.33-.91-4.24-3.95-5.71-6,0,0,0,0,0,0-.42-.57-.75-1.08-.93-1.46-.3-.66-.35-1.23-.26-1.94,2.43.74,6.07.52,8.3.84.64.7,2.66,1.77,5,3.06.06-.32.17-.66,0-.85-.2-.22.07-.49-.13-.71,1.84,1.04,3.87,2.6,4.99,3.55.03.03.07.05.11.07.59.44,1.58.78,1.87,1.26l-.6-1.9-1.41-3.03c-.07-.03-.14-.05-.2-.08-.25-.11-.61-.33-1.04-.61-.29-.19-.61-.41-.94-.65-.67-.48-1.42-1.04-2.13-1.59-1.24-.97-2.38-1.92-2.86-2.41-.45-.47-.89-.81-1.1-1.3-.13-.3-.17-.65-.08-1.11.56-.55,5.93,2.72,7.06,3.25.93.43,2.24.4,3,.84.13.07.24.17.33.27.61.67.63,1.8,2.17,1.49.12-.02.25-.06.38-.1h.48c.02.81.13,1.2.48,1.92.29,1.37-.62.95-1.76.96.76.17,1.67.89,2.88.48.36-.96-.71-1.14-.92-1.4,0-.01,0-.02,0-.03-.35-.72-.46-1.1-.48-1.92h-.03c0-.16-.02-.33,0-.48.06-.55.68-2.75.92-3.07.37-.5,1.28-.17,1.42-.32.56-.61-1.02-2.97,1.5-2.37-.21-.6-1.17-3.76-1.4-4.25-.04-.04-.07-.08-.1-.13-.03.02-.06.05-.1.06-.13-.15-1.21.46-.97-.72.09-.43.89-.08.99-.55.02-.11.04-.22.04-.34.01-.69-.33-1.43-.38-2.09,0-.11,0-.22,0-.32.07-.7.9-4.17,1.25-4.42.12-.08.3-.13.53-.15.23-.02.51,0,.82.04.23.03.49.07.75.12.36.07.75.17,1.15.27.47.12.94.26,1.39.41,1.12.37,2.12.77,2.58,1.02,0,0,.18,0,.18,0,.23-.11,1.1.22,1.65-.46.58-.72.45-2.63.61-2.94-.02.02-.03.03-.05.05-.49-.07-.91-.22-1.28-.42-.93-.52-1.57-1.36-2.38-2.01-.16-.13-.33-.25-.5-.36-1.13-.7-2.8-1.16-4-1.96-.24-.16-.46-.34-.66-.53s-.36-.41-.5-.64c-.13-.24-.23-.49-.29-.78v-.48c.56.16,4.61,1.12,4.79.96.03-.03.05-.34.09-.72.01-.09.02-.19.04-.29.05-.29.12-.58.23-.78.13-.23.37-.48.68-.73.1-.08.21-.17.33-.25.35-.25.75-.5,1.18-.74.29-.16.58-.31.88-.46,1.05-.52,2.1-.94,2.74-1.13.18-.06.33-.1.46-.13.1-.02.18-.04.25-.05.07-.01.12-.01.17-.01s.08.01.1.03.04.04.04.06c0,.03,0,.08-.03.13,0,.02-.02.04-.03.06-.02.04-.04.08-.07.13-.01.02-.03.05-.04.07-.07.11-.15.24-.24.38,0,0,0,0,0,0,.02.01,0,.03-.03.05-.01.02-.02.04-.04.06-.01,0-.02.02-.03.03.03,0,.23-.04.24-.04.52-.3,1.94-.46,2.68-.46,0,0,0,0,0,0-1.91-.78-.08-2.3.02-3.77,0-.1,0-.2,0-.29-.11-1-1.61-1.72-1.57-3.01,0-.19.04-.38.12-.59.2.09.42.13.65.13.34,0,.69-.1,1.05-.26.35-.16.7-.39,1.02-.66.64-.54,1.17-1.23,1.41-1.86.08-.21.13-.41.14-.59,0-.1,0-.19-.02-.28-.26-1.35-4.51-3.28-4.25-4.38.05-.23.24-.39.48-.52.37-.2.87-.33,1.29-.53.42-.2.75-.47.76-.95,0-.18-.04-.39-.13-.64-2.19-.69-4.85.81-6.59.83-.41,0-.57-.35-.61-.36-.45-.06-2.76-.39-2.88-.48l-.96-.48c-.3.04-.65,0-.96,0-.98-.02-2.12-.81-3.36,0-.63.78-1.74,1.68-1.92,2.66-.02.1-.03.21-.03.35-.01.84.25,2.36.43,3.9.07.61.13,1.23.16,1.8.01.29.02.56,0,.82-.03,1.04-.24,1.81-.82,1.99-4.4-.84-4.81-8.27-9.82-5.27-.05.06-.06.14-.04.25.05.41.52,1.12.97,1.88.22.38.44.77.6,1.14.16.37.26.72.25,1.02-.04,1.04-1.46,1.43-6.57-.22-1.18-.38-3.29-1.99-4.17-2.07-.83-.07-1.91,1.51-3.03,1.36-.04.19-.04.35-.02.49.06.41.35.62.85.83,2.31,1,10.24.3,11.42,2.49.05.09.08.18.09.26.18,1.31-3.44,2.36-3.2,3.77.18,1.05,2.72,1.56,3.12,2.21.07.12.1.26.09.41-.01.38-.2.84-.19,1.27,0,.08.01.17.04.25.03.1.06.19.11.28.24.46.72.91.98,1.44.11.21.18.44.18.69,0,.14-.01.29-.05.45-5.23-2.23-11.67-.87-17.25-.46.03.38.07.77.11,1.15.31,2.68.85,5.35.87,8.05,0,.44-.01.88-.04,1.33-2.72-.93-1.47-.27-2.13.85-1.87,1.86-1.09-.78-2.47,1.43h0c-2.38,1.15-4.92,1.86-7.52,2.4-.43.09-.87.18-1.3.26-3.93.74-7.96,1.19-11.8,2.24-.79-.04-.99-.39-.99-.82,0-.18.04-.38.08-.57.03-.13.05-.26.08-.38s.03-.24.03-.34-.03-.2-.07-.27c-1.05-1.65-4.16,1.16-5.56,1.67-2.19.81-12.82,2.68-13.68,4.07-.12.19-.21.37-.28.52-.14.31-.18.55-.14.73.08.38.5.5,1.05.48,0,0,.02,0,.02,0,.21,0,.44-.04.67-.08.12-.02.24-.05.36-.07.38-.08.76-.19,1.07-.28.15-.05.29-.09.4-.12.16-.05.27-.08.31-.08.15,0,.31.01.47.04.24.05.48.13.73.21.08.03.17.06.25.08.6.19,1.27.35,2.08.1.35-.11.72-.29,1.13-.57.52.54.72.99.7,1.36-.07,1.37-3.11,1.81-4.26,2.74-.21.17-.36.35-.41.56-.19.71.54,1.59.46,2.27-.03.32-.95.26-1.01.6-.02.1-.03.21-.02.33,0,.14.02.3.05.46.05.32.14.68.21,1.07.04.19.07.4.09.61.03.34.04.69,0,1.07-.19,1.5-2.04,5.42-2.96,6.67-.08.12-.27.31-.54.57-1.88,1.8-7.61,6.53-8.12,6.61-2.47.37.24-3.71-.19-4.27-2.67,2.65-3.54,1.29-3.84-1.92-.37.3-1.63.65-2.69.95-.83.23-1.53.42-1.61.52-.02.03-.03.08-.04.14-.02.19.03.52.12.93.03.14.06.29.1.44.21.93.53,2.14.71,3.18.06.35.11.67.13.97.04.44.02.8-.08,1.03-1.96.55-3.17-1.49-4.65-1.82-1.31-.29-2.73.04-4.11-.21-.16-.03-.45-.11-.81-.22-.24-.08-.52-.16-.81-.26-.74-.25-1.6-.55-2.37-.84-.92-.34-1.71-.66-1.99-.81-.89-.49-2.06-2.68-3.21-5.05-1.48-3.05-2.91-6.41-3.62-6.87-1.55-.99-1.88.32-1.88,1.88,0,.87.1,1.82.15,2.5.02.27.03.5.03.67l-3.13-5.27c-.08-.02-.16-.04-.23-.04-1.08-.08-1.24,1.75-1.97,1.92-2.5-1.7-5.25-3.43-7.69-5.47-.61-.51-1.2-1.04-1.76-1.59-1.69-1.66-3.12-3.53-4.06-5.72-.14-.48-.2-.96-.2-1.44,0-.24,0-.47.03-.71.1-1.17.43-2.32.5-3.45.02-.42-.46-1.26-.46-1.61,0-.05,0-.09.03-.12.56-.69,1.44,1.47,2.61,2.18.17.1.34.17.52.2.39.06.8,0,1.19,0l.24-1.92c.33.47.7.9,1.06,1.33.22.27.45.54.66.81.63.81,1.17,1.66,1.35,2.72.05.28.07.58.06.89.26-.12.49-.4.69-.75.41-.71.74-1.75,1.12-2.61.13-.29.26-.55.4-.77.14-.22.3-.41.46-.53.25-.19.54-.24.87-.09.58.25.86,1.41,1.85,1.99,2.94,1.75,8.58,2.53,11.59,5.16,1.8-1.24.91-3.33,1.25-4.91.01-.05.03-.11.07-.15.12-.19.38-.34.58-.46.1-.06.19-.11.24-.16.03-.02.05-.04.05-.06.09-.29.12-.78.17-1.29.04-.41.09-.82.21-1.14.12-.32.3-.53.58-.58.02,0,.04-.02.07-.02.11,0,.23,0,.37.05.73.54,1.06,2.43,2.29,3.05.2.17.39.32.55.4.61.34.88.09.99-.38.56-.5-.06-1.85.05-2.5.55-.51,1.04-.29,1.47.09.31.48.51,1.07.56,1.11.32.24.56.17.75-.02.17-.02.32-.21.45-.66h0c.08-.13.15-.24.23-.28l.05-.09c.12.11.23.21.34.32.16.16.32.32.46.49.07.08.13.14.19.21.19.82.67,1.09,1.22.97h0c.34.12.59,0,.77-.24.06-.08.12-.17.17-.27,0-.02.02-.03.03-.04h0c.53-.49.97-1.23,1.09-2.06l.88,1.1c0,.15-.01.27-.02.34-.04.25-.26.61-.43,1.02-.08.21-.15.43-.17.66-.02.23,0,.47.12.71.02.02.05.04.09.04.09.01.23-.01.4-.07.18-.05.4-.14.64-.25.17-.07.35-.16.54-.25.13-.06.26-.13.4-.2.44-.22.92-.48,1.42-.75.5-.27,1.02-.55,1.52-.83.51-.28,1.01-.55,1.48-.8,1.17-.63,2.12-1.1,2.47-1.12,1.11-.06,3.52,2.77,4.63,2.7.07,0,.35-.12.74-.3.13-.06.28-.13.44-.2.32-.15.68-.32,1.06-.51,1.92-.94,4.41-2.25,4.78-2.52,1.41-1.08,2.01-3.13,2.94-3.78,1.37-.96,3.93-.44,4.99-2.68,1.29-2.7-3.66-2.17.76-5.47.58-.43,1.32-.7,2.02-1.01s1.37-.63,1.78-1.18c-.93-.29-2.18.1-3.37.55-1.2.45-2.34.96-3.06.9-.25-.02-1.36-2.16-1.71-2.56-.38-.45-.94-.29-.97-.33-.03-.04-.06-.08-.09-.12-.26-.66-.41-1.87-1.01-2.06-.09-.03-.16-.04-.24-.06-.41-.26-.71-.11-.97.21-.41.51-.73,1.4-1.31,1.61-.38-.59-1.41-2.79-1.56-3.21-.19.07-.39.06-.58.02.01-.08.03-.17,0-.24.78.1.93,0,.92-.21-.01-.18-.15-.45-.14-.76,0-.15.05-.31.18-.48.03.02.09.07.19.14.09.06.2.14.33.23.91.63,2.74,1.85,3.45,2.31.06.04.11.07.16.1.05.03.08.05.1.06.58.32,1.06.54,1.47.67,1.63.53,2.03-.27,2.27-1.2.06-.23.11-.47.16-.7.06-.23.12-.45.2-.64.09-.19.2-.35.35-.46.1-.07.31-.07.57-.02.26.05.59.14.93.23.17.05.35.09.53.13.53.13,1.06.21,1.45.13.43-.09.12-1.17.87-1.09.11.01.24.05.39.11-.1.82-.15,1.43-.14,1.89,0,.38.04.67.11.87.07.21.17.35.3.44.13.1.29.15.47.2.18.05.39.09.62.16.28.08.58.19.92.4.29.18.29,1.03.92,1.23.39.13.96.05,1.41.04.27,0,.5,0,.61.11.25.2.58,2.08,1.83,2.7.42.21.94.28,1.59.1.21-1.2-.78-2.06-.94-3.15-.02-.13-.03-.28-.02-.44.02-.83.33-2,.81-3.35.16-.45.33-.92.52-1.41.03.04.05.08.08.12,1.5-3.08.74-3.33,1.18-3.19,1.29-3.05,2.65-6.17,3.06-8.12.23-1.12.43-2.29.55-3.48s.19-2.39.16-3.57c-.04-1.42-.22-2.81-.59-4.1.48-.53,2.41,2.37,2.88-.25.01-.06.02-.15.02-.25.05-1.52-.75-7.1-1.04-8.33-.41-1.76-1.9-5.72-2.75-7.32-1.26-2.39-9.13-11.62-11.42-12.1-.82-.17-1.48,2.42-2.57,1.4-.12-.11-.51-2.85-.51-3.14.06-2.08,1.79-1.81,1.95-2.47.12-.5.15-1.12.12-1.8-.05-1.35-.27-2.92-.22-4.25.03-.67.12-1.27.34-1.76.43-.95,3.57-3.29,4.59-4.06.68-.51,1.88-.65,1.88-.75v-6.71c1.71-.72,4.97,3.88,5.68,1.6.05-.15.08-.39.09-.69,0-.1,0-.21,0-.32.03-1.98-.41-5.83-.62-6.94-.56-2.84-2.07-5.46-2.76-8.27.03-.08.09-.13.18-.15.04-.01.09-.02.15-.02,0,0,.01,0,.01,0,.07,0,.16.01.25.03.18.04.38.1.58.16.41.12.82.25,1.06.18.06-.02.11-.05.15-.09.05-.07.08-.17.07-.31,0-.08-.02-.17-.05-.27-.07-.25-2.54-3.95-2.87-4.33-1.46-1.69-5.76-4.52-7.83-5.6-1.99-1.03-8.08-2.38-8.07-5.27,0-.19.03-.39.09-.6.23-.81,1.88-.71,2.64-1.23,1.18-.8,4.99-5,5.85-5.23,1.2-.32,4.26.97,5.89.41-.05.44-.07.9-.06,1.36,0,.17.02.34.04.5.1.82.41,1.53,1.1,1.83.28.12.62.18,1.03.16.69-.04,8.55-4.93,8.81-5.38.14-.23.21-.6.19-.96-.02-.36-.14-.71-.39-.91-1.48-1.18-8.94-2.5-9.28-2.85-.05-.05-.07-.17-.08-.32,0-.28.04-.69.06-1.04,0-.12.01-.23.01-.33,0-.08,0-.15-.02-.21-.34-.4-4.57,3.45-5.42,3.93-1.27.71-2.64,1.52-4.17,1.34-.03-.03-.05-.08-.06-.15-.02-.13,0-.31.05-.54.07-.35.21-.8.38-1.29.12-.33.25-.68.39-1.04.35-.9.76-1.84,1.1-2.58.14-.29.26-.56.37-.77.11-.22.19-.38.25-.49,1.4-2.42,3.94-4.34,5.21-6.3.75-1.16,1.29-4.16,2.15-5.04,1.97-2.04,1.47.18,3.11-3.84.04-.02.07-.04.12-.06.08-.03.16-.08.23-.11h0c1.79-.87,2.59-2.98,4.21-4.14l.45.45s0,0,0,0l.14.14h0l.37.37c.23-.22.43-.45.6-.69h0c.48-.65.81-1.37,1.08-2.18.11-.03.21-.08.32-.13h0c.67-.33,1.29-1.03,1.79-1.84.17-.27.32-.55.46-.84.14-.28.26-.57.37-.85.23-.6.38-1.17.42-1.62,1.03-.56,1.73-1.34,1.92-1.44.63-.33,1.28-.62,1.92-.96,1.07-.56,2.24-.99,3.36-1.44.09-.04.18-.07.28-.1.77-.23,1.72-.26,2.44-.57.43-.19.79-.48.98-.98.08-.21.13-.45.14-.73,0-.15,0-.32,0-.49,1.6-1.39,5.68-7.39,5.74-9.4.04-1.25-1.28-3.69-1.44-5.69-.03-.33-.04-.65-.04-.97,0-.55.03-1.09.08-1.61.1-1.05.27-2.05.38-3.07.05-.51.09-1.02.1-1.54.07-5.94-.3-11.81-.48-17.74-1.63-.45-2.51-.32-2.49-1.88,0-.22.02-.48.06-.78.89-.29,1.2.8,1.77.9.28.05,4.06-3.1,4.45-3.55.39-.45.53-.79.51-1.06-.11-1.18-3.47-.97-4.81-1.56.45-.82,1.18-1.33,1.92-1.38.1,0,.21,0,.31,0,.17.02.33.06.49.13.32.14.62.39.88.76.17-.51.24-.94.21-1.29-.1-1.53-1.77-1.76-2.6-2.56-2.26-2.19-1.76-5.38-2.28-7.79-.21-.95-2.7-8.16-3-8.51-.16-.19-3.56-1.58-4.52-2.2-4.22-2.73-11.88-13.67-17.3-10-.86.58-1.46,2.21-1.52,3.52-.02.44.02.85.13,1.17.07.21,3.1,2.88,3.3,2.98,1.53.76,2.26-1.59,2.73-1.71.63-.16,5.55.43,5.93.7.48.34.43,1.7.91,2.45.77,1.19,4.65,4.26,4.7,5.63.1,2.64-2.83,1.65-3.22,3.04-.03.12-.04.24-.03.35.08.68.88,1.27.94,2.28,0,.17,0,.35-.04.54-.09.46-3.06,5.19-3.51,5.66-1.25,1.31-3.76,2.05-5.54,2.38-.05.13-.07.25-.07.38,0,.32.15.63.34.93.18.29.4.56.53.81.09.16.14.32.11.46-.31,1.93-5.11,2.22-6.67,2.71-.05.07-.07.15-.07.23,0,.15.07.33.2.52.13.19.31.41.54.63.15.15.32.3.5.46.37.31.79.64,1.22.96s.89.64,1.33.93c.52.35,1.01.68,1.41.95.13.09.26.17.37.25.22.15.39.27.49.36.84.71,1.48,1.31,1.96,1.83.16.17.3.34.42.49.25.31.43.59.55.84.06.13.1.25.13.37.03.12.05.23.05.34.05,1.44-2.17,2.19-4.04,4.78-4.81,6.69-4.91,13.63-5.77,21.57-1.45,1.91-4.76-2.71-5.05-2.42-.39,1.31-.52,2.57-.48,3.82.03,1.17.2,2.32.42,3.49.07.39.15.78.23,1.17.11.52.21,1.05.32,1.59.73.65,3.48-3.65,4.79-2.4.18.17.49,3.71.51,5.09,0,.2,0,.35-.01.44-.38,3.42-6.41,16.79-8.24,20.54-.4.83-2.45,4.75-2.9,5.02-.82.48-2.54-.63-2.79-.4-.27.25-1.28,6.68-1.98,7.14-1.1.72-3.04-1.33-4.21.34-.4.57-.56,1-.57,1.34-.01,1.01,1.41,1.2,2.11,1.88.06.06.11.12.16.18.09.13.16.27.2.44.02.08.03.17.02.27,0,.13-.02.26-.06.42-1.85-1.36-2.3.84-3.55.92-2.34.16-8.98-2.45-10.62,1-.07.15-.09.32-.08.48.02.25.1.5.17.76.05.18.09.37.1.55,0,.09,0,.17-.02.26-.16.77-1.4,1.63-1.42,2.74,0,.16.02.32.08.49.83.09,2.38.11,3.04.47.5.27.17,1.07.64,1.47,1.51,1.31,4.05,2.59,5.45,4.04.59.61,3.69,4.88,3.76,5.41.02.13.02.25,0,.37-.09.8-.83,1.22-.91,1.94-.02.18-.02.39,0,.62.05.82.29,1.94.51,3.05.17.83.34,1.66.42,2.35.03.23.04.45.05.64.09,3.49-.55,7.28-.64,10.98-.03,1.23-3.54-2.76-3.7-3.3-.03-.09-.04-.18-.04-.27,0-.27.06-.51.05-.69-.02-.24-.2-.35-.96-.22-.03,2.15,0,5.19-.71,7.21-.58,1.67-3.66,5.32-3.66,6.94,0,1.72,3.73,5.56,4.25,7.78.15.66.22,1.14.23,1.5.01,1.55-1.17.74-1.6,1.31-.47.63-.63,1.18-.6,1.67.01.23.06.45.15.66.08.21.19.4.32.58s.27.36.41.52c.15.17.3.32.44.47.34.35.63.66.7.94.03.11.04.23.03.36-.02.62-.39,1.38-.46,2.23-.03.34,0,.69.1,1.06.13.44,3,3.9,3.65,5,3.12,5.23,5.98,15.91,5.88,21.98-.01.74-.32,5.28-.52,5.48-.08.08-1.61.08-2.27.35-.14.06-2.21,1.92-2.27,2.06-.23.48-.26,1.15-.24,1.83.01.46.04.93.03,1.35-.02.63-.11,1.17-.47,1.42-2.39,1.15-9.9-2.47-11.26-2.12-.12.03-1.68,1.73-1.72,1.85-.09.01-.19.01-.28.02-1.34.07-3.12-.47-4.04.46-.64.03-1.29-.05-1.92,0l-1.44.48c-1.53.13-6.21.15-7.17.47,0,0-.02,0-.03,0-.02,0-.04.02-.06.03.01,0,.03,0,.04,0,.12.01.26.02.46-.01-.48.13-1.4.69-1.92.96,0,0,0,0,0,0l-.43.21c-.32.21-.67.39-1.04.52l-.45.22c-.14.14-.27.31-.38.48,0,1.14-.94,1.96-1.06,3.06,0,.01,0,.02,0,.04-.22,2.5,1.66,5.37.53,7.91,2.88-.81,5.13,2.73,8.15,2.4.03.03.03.12.02.23-.03.28-.17.75-.32,1.11-.1.26-.2.47-.26.5-.06.04-.36.07-.8.09-1.09.06-3.08.07-4.68.05-1.11-.02-2.03-.05-2.33-.09-1.12-.16-4.93-.73-5.69-.92-.5-.13-.45-1.15-1.11-1.38-.31-.1-4.34-.62-4.74-.6-.7.04-1.18.34-1.69.7-.65.45-1.34.99-2.58,1.2-.46.08-.99.11-1.62.08-.04,0-.07,0-.11,0-1.21-.08-1.93-.5-2.77-.79-.19-.06-.38-.12-.58-.17-.15-.03-.32.02-.48,0l-.71-.48-.24.48h-.96s0-.17-.04-.37c-.11-.55-.41-1.53-.73-1.59-1.57-.27-4.2,2.54-5.83,2.84-.59.1-2.96-.63-3.47-.89-.12-.06-.25-.15-.38-.25-.61-.46-1.34-1.25-2.02-1.67.03-.26.03-.54.01-.82-.03-.44-.09-.89-.08-1.26,0-.15.02-.29.05-.41.03-.12.08-.22.16-.29.15-.15.41-.2.81-.1.81.3,1.6.56,2.39.85h0c.72.26,1.43.55,2.14.88h0c.85,0,1.25-.34,1.57-.75h0c.14-.28.31-.56.59-.75.22-.23.5-.4.93-.44.43-.05.67.16.83.39h0c.24.19.38.46.51.63h0c.05.06.1.12.15.15l-.47,1.92c1.12-.9.54-1.04,1.91-1.44.81-.23,1.54-.53,2.22-.86.46-.19.94-.36,1.48-.4,1.99-.13,4.44.45,6.71.03.85-.16,1.31-.97,2.4-.99,1.34-.03,2.18.95,2.98,1.53.21.3.43.53.74.5.16-.02.32-.05.47-.1h0s.08-.03.12-.05c0,0,0,0,0,0h0c.32-.14.64-.37.97-.73,0,0,0,0,0,0,.11-.12.23-.26.34-.41h0c.06-.08.12-.15.19-.24.68-.97,1.57-3.06,2.03-5.03.35-1.51.44-2.96-.04-3.77-.05-.08-.29-.43-.61-.89-.27-.3-.57-.61-.86-1.01h0c-.38-.51-.81-.84-.93-1.47-.25-.34-.45-.59-.52-.67-.43-.47-2.01-1.7-3.19-1.95-.24-.05-.46-.06-.66-.02-.16.04-.31.12-.43.24.16.14.33.32.48.48.14.14.46.41.48.48.04.18.05.8,0,.96-1.11-.05-2.25.08-3.36,0-.16-.01-.32.02-.48,0,.3-1.28-.95-1.15-1.92-1.44-.13-.04-.32.03-.48,0-.13-.02-.45-.52-1.16-.51-1.49.03-3.12.91-4.78,1.04-.42.03-.84.03-1.26-.06,0-.48,0-.96,0-1.44-1.23-.19-1.41,1.33-2.6,1.4-1.55.08-4.58-1.42-5.32-1.39-2.16.11-.64,1.47-4.4-.41-3.14-1.57-6.9-4.85-8.05-8.25-.21-.62-.31-1.41-.33-2.32,0-.49,0-1.02.04-1.57.05-.82.15-1.7.28-2.58.09-.59.19-1.19.3-1.79.11-.6.24-1.19.37-1.76.13-.58.27-1.14.41-1.68.35-1.34.72-2.53,1.05-3.4.58-1.54,1.38-3.01,2.24-4.46.43-.72.88-1.43,1.32-2.14.22-.36.44-.71.66-1.07.44-.71.86-1.42,1.26-2.14.79-1.44,1.46-2.9,1.86-4.44.3-1.15.45-2.35.39-3.61-.05-.96-.22-1.95-.54-2.99-.37-.4-3.46,2.03-4.18,2.29-.76.28-1.03.13-1-.24,0-.07.02-.15.05-.24.05-.17.14-.37.26-.59.06-.11.12-.22.19-.34.21-.35.47-.73.75-1.11.09-.13.19-.25.28-.38.19-.25.38-.49.56-.72.27-.34.53-.64.73-.88.07-.08.13-.15.18-.21.11-.12.19-.21.23-.25.9-.92,4.52-3.37,4.69-3.88.05-.15.09-.33.1-.51.24-2.79-3.52-8.86-4.08-12.12-.24-1.41.15-5.48-.97-5.72-.77-.17-2.21,1.37-2.61-.79-.06-.3-.08-.63-.09-.97,0-.32.02-.65.05-1,.19-1.73.85-3.77,1.64-5.92.64-1.72,1.36-3.49,2-5.22.32-.86.62-1.72.87-2.54.25-.82.46-1.62.61-2.38.15-.76.23-1.47.22-2.13-.02-2.39-2.49-.99-4.32-1.67-.04-.04-.05-.16-.05-.35,0-.33.07-.85.17-1.45.2-1.2.52-2.71.79-3.64.1-.35.19-.61.26-.74.02-.04.05-.07.06-.09,1.46-1.04,4,.1,5.71.09.17,0,.33,0,.48-.01.19,0,.36-.02.53-.03.48-.04.85-.12,1.11-.22.14-.05.25-.11.34-.18.05-.04.09-.08.13-.12.09-.11.13-.24.13-.38-.02-.91-1.88-2.29-2.01-3.18-.03-.23,0-.37.09-.47.08-.1.2-.16.33-.2.19-.07.4-.11.51-.26.04-.05.06-.11.08-.18.01-.08,0-.19-.02-.32-2.64-2.22-6.15-3.96-9.61-2.9-.75.23-1.36,1.22-2.14,1.22-.61,0-3.58-2-4.08-2.63-.74-.93-.97-1.53-.95-2.01.01-.3.12-.55.27-.81.1-.17.21-.34.31-.53.16-.28.3-.6.38-1.01.04-.21.05-.43.04-.64-.14-3.19-5.26-6.3-6.96-8.71-3.56-5-3.33-8.41-3.63-13.88,2.55-.75.68,2.55,2.21,2.84.42.08,1.75-.27,1.63-1.14-.15-1.15-2.27-4.9-2.97-6.2-.36-.67-.19-1.52-1.35-1.26-1.09-7.55-4.51-11.45-7.61-18.05-3.3-7.04-6.65-15.14-6.8-23.05-.01-.53,0-1.05.01-1.58-2.5.69-4.29-.03-6.72-.48-.06-.07-.1-.17-.12-.28-.03-.21.02-.48.14-.8.68-1.91,3.6-5.52,4.82-7.15.2-.27.36-.49.45-.64l-3.62-2.15c-.48-.45-.68-1.23-.71-2.11-.01-.37,0-.75.04-1.14.02-.19.04-.38.07-.57.08-.57.2-1.12.34-1.6.09-.32.18-.6.27-.84.36-.92,1.02-1.49,1.61-2.08.44-.44.84-.89,1.04-1.51.07-.2.11-.43.13-.67.03-.45-.03-.99-.23-1.63-.26-.87-1.76-1.46-1.87-2.49-.02-.15,0-.3.05-.47.5-1.7,3.92.46,5.3-.47.35-.31.41-.65.37-1.01-.04-.36-.17-.75-.2-1.16-.02-.27,0-.55.14-.84.13-.28.37-.55.68-.83.82-.75,2.11-1.53,2.95-2.5.53-.61.88-1.28.84-2.07-1.44-.45-3.36-.22-4.81.23-.79.24-6.69,3.32-7.07,3.72-1.36,1.43-2.67,8.89-4.23,10.88-1.44,1.83-.86-1.02-2.12-1.4l-1.93,15.35c-1.72.44-1.27-.83-2.39-1.44l-2.41,25.41-1.01-.66-2.35-13.72v13.19c0,.5.06,1.05.16,1.64.06.37.14.76.23,1.16.28,1.2.68,2.52,1.1,3.87.23.72.47,1.45.7,2.18s.46,1.46.67,2.17c.1.36.2.71.3,1.06.37,1.39.64,2.7.7,3.82.02.3.02.59,0,.86-.02.29-.96.25-1.01.55-.02.13.03.35.11.59.2.57.66,1.42,1.29,2.41.16.25.32.51.5.77.53.8,1.13,1.66,1.78,2.55.42.58.86,1.17,1.3,1.76.37.49.74.98,1.11,1.45.44.57.87,1.11,1.29,1.62.41.51.8.98,1.16,1.4.47.56.88,1.03,1.2,1.37.16.17.3.31.4.41.62.58,1.73.59,1.89.74.3.28.54.6.96.96.54.46,1.22,1.28,1.92,1.92.17.15.31.34.48.48.61.5,1.35,2.18,1.44,0h3.36c4.54,3.2,8.61,8.48,12.82,12.12.36.8.62,1.5,1.1,2.27,4.26,6.88,2.68,14.33,5.89,21.69,1.3,2.97,4.16,2.78,4.21,3.05.07.38.11,1.09.13,1.94,0,.34.02.7.02,1.08,0,.19,0,.38,0,.57,0,1.98-.08,4.15-.21,4.97-.24,1.56-2.32,4.13-2.42,5.47,0,.09,0,.17,0,.25.02.12.16.23.37.35.2.12.46.24.72.38.13.07.25.15.36.23.22.16.4.36.47.59.03.12.04.24,0,.38-.13.73-5.07,4.74-5.92,6.1-1.66,2.64-2.46,5.79-2.48,8.93,0,.47.01.94.04,1.41.1,1.41.35,2.8.75,4.13.1.33.87.42.93,1,.04.35-.19.88-.96,1.74.3.06.58.09.85.08.81,0,1.5-.28,2.16-.63.89-.46,1.73-1.07,2.74-1.37-.06.21-.09.43-.11.66-.07,1.02.26,2.17.44,3.2.06.34.11.67.11.97,0,.2,0,.39-.03.57-.26,1.49-2.37,2.71-2.38,4.52,0,.12,0,.24.03.37.07.48,2.12.28,2.67,1.21.04.07.09.2.13.36.29,1.06.6,3.81.64,5.27,0,.11,0,.22,0,.31,0,.22-.01.39-.03.5-.08.41-1.47.25-2.22.71-.32.2-4.52,5.04-4.93,5.63-2.74,4-4.35,9.75-4.9,14.52-.99-.24-4.98.76-4.78-.7.04-.32.4-1,.9-1.88.38-.66.84-1.42,1.33-2.21.32-.53.65-1.07.97-1.61.16-.27.32-.53.47-.79.61-1.04,1.14-2.01,1.43-2.72.15-.35.23-.65.24-.85,0-.11-.01-.19-.06-.25-1.37-1.77-6.31,3.38-8.15,3.35-.04-.04-.06-.11-.07-.2-.03-.4.24-1.22.62-2.23.59-1.54,1.45-3.48,1.94-4.95.04-.12.08-.24.11-.35.15-.49.25-.91.26-1.22,0-.13,0-.24-.03-.33-.51-1.78-3.99.14-5.24.18-.03-.03-.05-.09-.04-.17,0-.18.1-.48.26-.85.12-.29.26-.61.44-.97.07-.14.14-.28.21-.42.28-.56.59-1.16.9-1.77.25-.5.51-1.01.74-1.48.02-.04.04-.08.06-.12.22-.46.41-.89.56-1.28.07-.18.13-.35.17-.5.05-.18.1-.35.12-.49.02-.12.02-.22,0-.3-.11-.53-1.93-.54-2.66-1.26-.25-.25-3.46-5.76-3.54-6.1-.03-.13-.04-.25-.03-.36.01-.2.08-.38.17-.54.18-.33.46-.61.63-.91.08-.15.14-.3.14-.46,0-.68-.95-1.22-.97-1.92,0-.24.14-.58.35-.98.21-.41.5-.88.8-1.42.36-.63.74-1.34,1.02-2.07.23-.03.46-.06.69-.08.27-.62.45-1.31.43-2.08-.05-2.32-.84-1.92-1.83-2.46-.19-.19-.39-.38-.59-.57-.17-.33-.27-.69-.47-.82-.72-.44-2.74-.45-4.92-.33-.21-.01-.39-.02-.51-.02-.71,0-1.65.13-2.68.27-1.34.13-2.51.26-3.19.31-.05,0-.09,0-.13,0-.67.02-1.31-.01-1.88-.12-.89-.29-1.19-.98-2.37-1.97-.08-.32-.13-.67-.12-1.09,0-.13.02-.27.06-.43.06-.31.18-.68.33-1.08.3-.77.74-1.67,1.25-2.53.06-.09.11-.18.17-.27.1-.16.2-.32.3-.47h0c.47-.45,1.01-.91,1.63-1.45.27-.24.47-.63.68-.98.22-.11.43-.19.62-.2.89-.04,2.63,1.14,3.42,0,.01-.02.01-.04.02-.06h0c1.03-1.25-.2-3.12.29-3.78.03-.04.08-.06.12-.1.06-.02.14-.03.22-.05.13-.02.27-.05.43-.07.14-.02.3-.03.46-.05.2-.02.42-.03.64-.05.26-.02.52-.03.78-.04.52-.02,1.02-.04,1.39-.07.37-.02.61-.05.65-.09.03-.03.04-.19.04-.44,0-.49-.05-1.28-.06-1.92,0-.32,0-.59.02-.76.11-.79.24-1.65.4-2.53.08-.44.15-.87.24-1.32.36-.58.78-1.06.96-1.61.31-.97.36-1.9.5-2.8.14-.28.29-.55.45-.81.16-.26.33-.51.51-.75.36-.47.76-.9,1.22-1.27,1.99-1.6,11-2.09,13.96-2.6.02-.41.06-.79.1-1.15,2.02-7.1-6.19-6.8-11.23-5.54,0,.21-.02.4-.06.56-.54.18-.92.71-1.29,1.14-.25.07-.47.12-.57.23-.25.08-.43.07-.56,0-.39-.18-.38-.79-.75-.94-.44-.17-.96-.27-1.51-.29-1.02-.04-2.13.19-3.04.65-.33.17-.63.37-.9.6-.12.11-.24.22-.34.35-.08.01-.16.02-.24.04-.08.01-.17.03-.25.04,0,0-.02,0-.03.01-.03,0-.08.02-.11.03h0c-.39.02-.83.07-1.31.13-3.08.4-7.61,1.39-9.21.58-.4-.21-.66-.68-.88-1.21-.27-.65-.48-1.4-.8-1.9-.66-1-2.01-1.88-2.82-2.94-2.56-3.34-3.28-6.59-2.27-10.67.03-.11.04-.21.07-.33,0,0,0,0,0,0-1.48-.38-2.63-.44-4-.17-.18.03-.36.07-.54.12-.09.02-.16.03-.25.05,0,0,0,.04-.02.08s-.03.1-.05.17c-.13.4-.39,1.14-.42,1.19-.03.05-.41-.02-.88-.12-.24-.05-.5-.12-.75-.18-.25-.07-.5-.14-.7-.2-.16-.05-.29-.09-.38-.13-.07-.03-.13-.05-.16-.07-.03-.02-.06-.07-.09-.11-.17-.19-.31-.54-.43-.99-.14-.52-.25-1.15-.33-1.67-.05-.35-.08-.65-.1-.85,1.8.53,3.87.11,4.32,2.4.01,0,.02-.01.03-.02.03,0,.06,0,.07,0,.06-.05.09-.1.14-.15h0c.86-.54,1.21-1.54,1.4-2.43.07-.34.13-.66.18-.93.02-.11.04-.21.06-.3.16-.1.33-.21.51-.35.53-.4,1.1-.95,1.68-1.54h0s0,0,0,0c1.16-.73,2.45-1.51,2.89-1.96.06-.06.11-.11.16-.17.63-.7.84-1.4,1.21-1.96.34-.26.85-.48,1.69-.62,2.88-.5,4.64.74,6.36,2.25.05.03.1.07.15.1.55.32,1.09.73,1.61,1.16.51.43.99.87,1.45,1.27.05.05.11.1.16.14h0c.56.22,1.28.45,1.63,1.14.01,0,.03.01.04.02l.06-.49c.34.09.72.04,1.07.05l.2-1.2c.43.19.82.47,1.19.76l1.99.71.55.19c-.06-.18-.15-.35-.23-.52l.14.06c0-.11.98-.4-.22-1.45-2.22-1.96-7.94-3.39-8.42-6.5-.13-.84.37-2,.39-2.89.01-.1.01-.21,0-.31,0-.04-.02-.08-.03-.12,0-.02-.01-.04-.02-.06,0-.02-.01-.03-.02-.05-.08-.26-.25-.48-.56-.62-.14-.06-.26-.05-.36,0,0,0-.01,0-.02,0-.18-.04-.33-.05-.45-.03-.24.04-.36.19-.42.39-.03.1-.04.21-.04.33,0,.12,0,.23.02.35.01.12.03.23.05.33.01.09.03.17.03.24-.05.11-.1.22-.16.32-.11.08-.26.17-.4.28-.15.12-.29.27-.38.5-.05.11-.08.24-.09.39-.01.13,0,.29.01.46-.15.47-.42.67-1.52-.21-.46-.37-.29-.92-.34-.95-1.08-.72-.84.88-1.2.96-1.12.26-.49-.94-1-1-.56-.06-1.59.43-2.35.53-.75.09-1.67-.18-2.32-.03-.43.1-.44.9-.83,1.17-3.44,2.39-4.03.79-.93-1.63-.78.04-1.61-.09-2.38-.36h0c-.15-.19-.29-.39-.43-.62-.6-1-1.08-2.37-1.45-3.92-.09-.37-.17-.75-.25-1.14.04-.11.06-.22.06-.33.03-1.52-.4-3.16-.67-4.95-.02-.35-.03-.7-.03-1.04s0-.67,0-1c.02-.98.08-1.89.18-2.7.12-.46.22-.89.19-1.1h0c.02-.11.05-.24.07-.34-.47-.32-.92.02-1.32.63-.07.1-.13.21-.19.33-.32.57-.59,1.29-.8,1.9-.12.37-.22.71-.3.96-.02.08-.04.16-.06.22-.04.15-.07.29-.1.44.02,0,.04-.01.05-.02.02,0,.04-.01.06-.02-.05.19-.1.39-.15.58-.1.39-.19.78-.28,1.19-.04.2-.09.4-.13.61-.14,1.07-.19,2.06-.18,2.99,0,.17.02.33.02.5-.11,1.3-.11,2.5.04,3.46.09.61.33,1.19.58,1.72.04.27.08.54.12.81.06.43.11.86.16,1.31.01.05.03.1.04.15.02.13.02.26.02.38.03.33.03.67.04,1.01-.05.18-.09.36-.1.54-.02.56.03,1.03.07,1.46,0,.12,0,.23-.01.35-.03.39-.16.85-.31,1.33,0,.62-.12,1.25-.58,2.09-.02.08-.04.15-.05.23,0,.02,0,.04-.01.06-.03.04-.05.07-.08.11-.34.48-.94.28-.97.32-1.11.07-1.77.29-1.45-1.2.09-.42,1.84-.47,1.45-1.68-1.98-.42-1.47.94-2.09,1.75-.46.61-1.38,1.2-1.94,2.13-.18.3-.34.61-.49.92-.06,0-.1,0-.16-.02,0,.02-.02.03-.03.05-.12.39-.23.79-.34,1.19-.46,1.23-.76,2.54-.94,3.86-.24,1.21-.41,2.42-.53,3.64-.82-.09-2.55-2-3.6.28-.34.52-.52,1.12-.55,1.78-.04.84.14,1.77.43,2.73.27,1.59.73,3.17,1.19,3.94.24.41.55.71.85,1.01.17.37.32.73.47,1.07.22.52.4,1.01.51,1.43.11.42.27,1.27.44,2.27.04.2.09.4.13.61.08.41.16.82.23,1.23.1.61.18,1.19.22,1.69.03.34.04.64.04.9,0,.15-.01.28-.03.39,0,.02-.01.05-.01.07,0,.16,0,.31,0,.44,0,.13-.01.24-.03.32-.06.35-1.63,4.96-1.84,5.14-.01.01-.04.01-.05.02,0,0,0,0,0,.01-.41.29-1.24-.09-1.91-.27-.1-.03-.19-.05-.27-.06-.3,0-.58.09-.84.31-.22.19-1.68,2.68-3.04,5.11-.89,1.99-1.76,4.02-2.54,5.15.01.18.08.33.28.3l6.22-4.81,4.89-4.66.55.41s0,.09,0,.13c-.2.33-.38.67-.37,1.03,0,.1.03.2.05.29.04.14.11.27.19.39.37.53,1.04.86,1.13,1.3.02.08.01.16,0,.25s-.04.17-.07.26c0,.01,0,.02.01.04.07.66-.58,1.25-.79,1.93.08.68.71,1.28.82,1.89.06.34.09.77.09,1.24s-.03.99-.1,1.49c0,.31-.02.64-.09.97-.09.47-.32.85-.59,1.18-.26.27-.51.49-.63.69-.26.26-.47.48-.51.67-.01.07-.01.13,0,.2.06.33.41.64.66.96.1.13.18.26.22.39.03.08.04.17.02.26-.02.09-.08.2-.16.32-.84.83-2.33,1.88-2.74,2.38-.02.02-.02.06-.03.09-.17.15-.31.28-.4.39h-.48s0-.02,0-.03c.05-.09.11-.17.18-.25.05-.05.13-.1.16-.17.03-.1-.02-.23-.03-.33-.02-.28.03-.56.04-.84,0-.18.05-.37.05-.55,0-.11.01-.37-.08-.43-.14-.1-.53.14-.73.27l-.03-.15c-.08.11-.24.23-.42.35-.03.07-.06.14-.11.19-.06.08-.9.92-.96.96-.03.02-.14.05-.3.08-.02.05-.05.11-.06.17-.03.19.04.42.15.67.07.01.14.03.22.04.08.32.17.62.25.92.14.31.26.62.28.93,0,.1-.01.2-.02.29.04.26.06.53.05.81,0,.28-.02.57-.08.88-.1.05-.19.11-.28.16-2.54,1.36-4.5,4.11-7.24,5.52-.78.4-2.51.78-3.2.96-.18.23-.29.48-.33.75-.01.09-.02.18-.02.26,0,.44.19.86.49,1.12.18.16.41.26.66.27.13,0,.28-.02.43-.06.27-.16.67-.46,1.14-.85l8.39-7.73c.13-.08.27-.18.42-.29,0-.06,0-.1.01-.12.02-.03.09-.09.19-.18,0,.13,0,.21-.01.21l.13.18c.11-.16,1.89-1.89,3.19-3.11t0,0c.39-.31-1.35,3.24-1.21,3.13.23-.17-2.85,4.9-2.27,4.5,1.44-1,5.05-3.88,3.71-2.29-.41.44-1.01,1.39-1.21,1.73-.33.57-.96.91-1.16,1.55-1.05,1.24-1.89,2.25-2.25,2.78-3.06,4.53-9.49,14.88-10.05,17.25,0,0,3.71-3.05,4.65-3.34,0,0,0,0,0,0h0c-1.51,1.38,2.4-.61,3.36-.67l-2.13,3.73c1.85-.11,5.85-7.08,8.88-6.73.02.14.02.27.01.4-.01.39-.11.76-.26,1.11-.07.16-.14.32-.22.48-.41.81-.98,1.69-1.6,2.58-.38.89-.34,2-.86,2.81-.52.81-1.94,1.31-2.64,2.2-.13.28-.2.51-.19.68.01.07.02.13.05.17h0c.65-.21,1.44-.68,2.14-.41.1.04.2.09.29.16.93.68-.14,3.23,1.16,2.67l3.6-2.87-.56.76c-.21,1.63-1.64,2.68-2.78,3.79l-.86,1.17c-.09.3-.12.57-.16.61-.03.03-.17.04-.34.08l-.57.78s.06.04.11.04c.14,0,.37-.12.67-.33.21-.2.41-.4.61-.56.59-.5,2.47-2.19,4.29-3.55,1.71-1.38,3.3-2.41,3.91-1.82.14.13.19.31.17.53-.02.22-.11.47-.25.75-.09.33-.23.64-.41,1.01-.84,1.78-4.79,4.85-5.22,6.3-.45,1.53-.22,4-.99,5.76-.02.05-.03.1-.06.15.03.03.08.05.14.05.05,0,.1,0,.16-.03.15-.05.34-.15.55-.28.09-.05.19-.11.28-.18.55-.36,1.23-.86,1.87-1.25.17-.11.34-.2.51-.29.12-.06.23-.11.34-.16.25-.11.49-.17.69-.18.08,0,.16,0,.23.03.18.05.32.17.41.38.03.07.06.14.08.23.09.47-2.33,3.92-2.88,4.55-.08.1-.22.24-.39.39-.75.73-2.22,2.04-3.67,3.48-1.82,1.8-3.58,3.78-3.76,4.99-.03.17-.02.33.02.47.02.07.05.15.1.21h0s.01.02.01.03c0,.01,0,.03.02.04.73.84,1.04-.66,1.23-.91.48-.66.98-1.36,1.49-2.06h0c.16-.23.33-.44.5-.67.36-.49.73-.96,1.11-1.39.43-.5,2.79-3.08,3.58-3.87.12-.12.21-.2.25-.22.49-.3,1.18-.48,1.86-.5.92-.02,1.84.27,2.25.99.01.16.02.34,0,.52-.08,1.3-.75,3.11-1.43,4.62-.75,1.66-2.25,3.01-2.92,4.7-.45.18-.94.44-.92.79,0,.12.07.24.2.38.56.56.96-.17,1.2-.79.7-.41,1.81-1.34,3.02-2.27,1.4-.89,2.78-1.76,4.41-2.22.03.61-.07,1.17-.27,1.69-.69,1.86-2.56,3.24-3.97,4.68-.19.2-.38.4-.56.6.25.13.51.15.78.13.27-.03.53-.11.78-.17.5-.12.92-.17,1.15.38l-.3,1.01c-.71.91-.83,2.34-1.42,3-.04.05-.1.09-.15.14-.49.44-1.2.53-1.77.84-2.29,1.69-7.22,6.18-9.24,8.78-.45.78-.85,1.55-.83,1.66.01.05.03.11.05.16,1.96-.04,3.36,1.6,5.16,1.15.05-.59-.41-1.29-.44-1.79-.07-1.46,1.8-3.29,3.64-5.04.46-.53.82-.93.94-1.03.16-.14.35-.28.57-.43.82-.82,1.5-1.61,1.81-2.29,1.54-1.02,3.32-1.4,5.11-1.67.61-.09,1.22-.17,1.83-.27.1.21.16.43.2.64.04.24.05.49.04.73-.11,1.74-1.52,3.6-2.01,4.85.16.68,1.12,1.03,1.29,1.65.01.05,0,.12,0,.19.04.13.06.25.07.37.07.81-.46,1.3-.95,1.84-.17.19-.34.38-.47.6-1.06,1.78-2.01,3.61-2.96,5.44,0-.05-.45-.31-.43-.7.02-.42.15-.86.28-1.32.12-.46.24-.93.21-1.41,0-.14-.03-.27-.06-.41-.13-.16-.54.25-.71.48-.1.14-.39.68-.76,1.43-.04.07-.09.17-.14.29-1.45,2.95-4.07,8.62-4.14,9.07-.02.14-.05.34-.03.49.02.15.09.26.28.23,1.42-.6,2.98-4.21,3.71-4.7.42-.29.96-.02,1.33-.1.41-.09.97.09,1.4-.25l7.23-5.02c-.59,1.6-.84,3.05-.87,4.52-.03,1.47.14,2.95.4,4.59l5.28.24c0,.2-.03.38-.07.54-.1.38-.31.65-.56.88-.46.43-1.04.68-1.31,1.08-.5.74-.95,1.73-1.42,2.73-.31.68-.64,1.35-.98,1.96-.15.26-.3.51-.46.73v.48c-.26-.02-.45-.24-.48-.48-.17-1.23-.61-3.15-1.67-4.16-.27-.26-.58-.45-.93-.56-.22.66-.54,1.43-.9,2.21-.52,1.25-1.23,2.59-1.6,3.75-.15.48-.22.88-.17,1.17.08.45,1.18.41,1.41,1.08.09.27.12.56.12.87,0,.3-.03.62-.07.93,0,.37-.03.75-.05,1.1,0,.11.02.22.05.32.12.49,1.16.45,1.38,1.11h0c.02.05.05.08.06.13,0,0,0,0,0,0,0,.04,0,.1,0,.15.05.24.07.51.07.78,0,.55-.07,1.14-.08,1.7,0,.28,0,.54.02.79-.02,0-.03,0-.05,0,0,.05,0,.12,0,.17-.89.02-1.92-.12-2.81.06-.16.07-.32.15-.5.26-.16.1-.4.32-.48.48-.16.03-.3.05-.42.06-.03.04-.07.06-.1.11-.33-.26-.89.45-.96-.8-.03-.17-.03-.37,0-.58,0-.02,0-.04,0-.06,0-.16,0-.32,0-.48s0-.32,0-.48c0-.02.11,0,.23-.09.13-.49.26-.96.29-1.3.01-.18.04-.36.06-.53.01-.65-.15-1.11-.85-1-.03,2.45-.6,5.9.08,8.18.19.63.71.93,1.36.8-.02-1.36-.18-2.56.48-3.83.01,0,.02,0,.03,0,.08-.16.32-.38.48-.48,1.05.11,2.34-.16,3.33,0,1.08.18,1.46.77,2.22,1.31-.02-.12-.03-.26-.03-.4-.01-.42.03-.9.04-1.35-.03-.04-.05-.1-.06-.17-.11-.64-.16-1.4-.16-2.22,0-.55,0-1.12.03-1.71.04-.88.11-1.77.2-2.63.03-.3.06-.6.1-.89.1-.87.22-1.67.33-2.34.31.09.68-.01,1.01-.06.11-.02.22-.02.32-.02s.19.03.27.08l.85.09c-.02.87-.25,1.97-.55,3.12-.16,2.22-.67,4.51-1.33,6.55.31,1.14,1.85,2.97.53,4.35.02.04.04.08.05.12.7,1.99,2.6,6.69,2.85,8.42.18,1.23-.7,5.25-.45,5.48.91.88,2.21-.43,2.38-1.64-.22-.04-.44-.08-.67-.09.04-.37.06-.86.08-1.43-.06-.27-.1-.57-.08-.89.02-.38.08-1.21.16-2.18.02-.79.05-1.59.1-2.32.03-.49.07-.94.13-1.35.04-.31.09-.58.14-.82.05-.24.12-.44.19-.6.02-.08.03-.13.05-.17.21-.46,1.08-1.22,1.88-1.94.12-.11.24-.22.35-.32.23-.21.44-.42.62-.61.09-.09.17-.18.24-.27.08-.1.25-.34.48-.67.08-.11.16-.23.25-.36.18-.26.38-.54.6-.85.22-.31.45-.63.69-.95.96-1.3,2.04-2.64,2.71-3.07.16-.14.32-.27.5-.39,0,.09,0,.2,0,.3.01,0,.03,0,.04.02.02.19.04.41.05.64.08,1.4.06,3.4.28,4.7.04.22.08.41.13.58.04.14.15.23.29.29.28.12.7.12,1.04.22.17.05.32.12.42.25.15.18.18.56.15,1.07.06.42.07.98-.03,1.75-.15,1.16-.71,2.97-1.38,4.87-.19.54-.4,1.09-.6,1.64-.1.27-.21.54-.31.81-.62,1.61-1.23,3.1-1.64,4.13-.16.4-.19.82-.36,1.08-.1.16-.26.26-.52.27.78.79,1.46,1.52,2.08,2.5.7,1.09,1.01,2.79,2,3.5.71-2.41,1.33-6.35,3.15-8.14.34-.34.77-.41,1.01-.45v-.04c.27-.27.51-.4.75-.64.33-.85.74-1.86,1.16-2.75.25-.53.5-1.02.74-1.41.07-.14.14-.27.21-.39.44-.76.92-1.31,1.41-1.29.08,0,.16.02.24.06.09.04.19.1.28.19.07.07,0,.31-.13.68-.19.49-.52,1.18-.87,1.93-.09.19-.18.38-.27.57-.27.77-.57,1.57-.85,2.27-.09.23-.18.46-.27.66-.05.24-.06.44-.02.59l-.49.58s-.03.06-.04.08c-.04.08-.14.26-.28.48-.05.07-.1.15-.15.23l1.13-1.36c1.96,2.2-.99,12.5-.49,12.93.15.13,1.23-.16,1.41.03.5.54-.59,3.12-.45,3.32.07.1,2.14.64,2.38.48.4-.29.73-3.39.98-3.95.05-.12.14-.2.24-.27-.04-.16-.08-.32-.11-.52-.21-.03-.24-.13-.26-.43,0-.18-.01-.44-.04-.78-.08-1.06-.13-2.53-.12-3.91,0-.24,0-.49,0-.74,0-1.97.14-4.01.48-5.63.3-1.41.75-2.5,1.4-2.94.09-.25.16-.41.21-.44.6-.41,1.1-.31,1.53.07.32.09.58.29.79.57.21.28.37.64.49,1.04.08.27.15.56.2.86.07.4.12.82.15,1.23.35,1.46.57,2.91.73,3.53.16.62.8,1.52.13,2.08.07.23.13.45.2.67.16.23.34.5.53.81.19.31.39.65.6,1.01.41.72.83,1.51,1.2,2.25.16.33.32.65.46.94.09.19.17.36.24.53.11.25.2.48.27.67.07.19.12.35.14.47.01.07.01.17,0,.27-.02.2-.09.45-.19.72-.23.67-.6,1.45-.77,1.89h-1.92c-.48-3.29-.55-6.59-1.39-9.87-.13-.26-.25-.49-.35-.67-.1-.17-.18-.29-.22-.3l-.17-.34c-.06.03-.12.06-.19.11l-.12.23c-.45,1.28-.86,2.62-1.44,3.84-.04.09-.09.19-.14.31-.15.33-.32.74-.5,1.12.32-.5.53-.97.86-1.61,1.14.61,1.25,3.38,1.36,4.6.28,3.14-.98,7.93,3.42,8.33.17-.17-.35-4.11-.48-4.79,1.96.27,1.17-.28,1.44-.96h.03c.27-.7,1.07-2.28.96-2.88,0,0,0-.01,0-.02,3.06-2.67,3.86,2.9,4.24,5.11.51,2.95-1.11,3.4,2.45,4.5-.5,1.08,2.84,1.8,3.84,1.92.59.07,1.62.17,1.92-.48-.05,0-.11,0-.16,0-.64,0-1.28,0-1.92,0v-.48c0-2.39,0-4.8,0-7.19.85-.13,1.05-.03,1.66.5,1.61,1.4,3.56,4.53,5.06,6.21-.26.05-.55.05-.86.04-1.22-.06-2.61-.42-2.55.63,0,.09.02.18.05.29h.19ZM337.14,379.46s.05,0,.07,0c0-.05,0-.09.01-.14.12-.16.26-.29.32-.41,1.53-.27.75.62.96,1.44-.57.28-1.31-.47-1.44-.48-.03-.16.02-.28.08-.4ZM312.98,378.3c.56-.13.82-.61,1.04-1.11.03-.08.06-.16.1-.23.06-.16.12-.31.19-.44.04-.09.09-.17.14-.24.38-.28.75-.41,1.12-.46h0c.82-.04,1.77.16,2.75-.05.18-.04.35-.08.53-.15.39-.15.77-.51,1.13-.89,0,0,0,0,0,0,.15-.14.28-.29.4-.44t0,0h0c.11-.12.22-.24.32-.35s.2-.2.3-.28c.19-.16.36-.23.51-.17.22.24.47.58.74.95,0,0,0,0,0,0,.05.21.11.41.23.57.1.12.25.22.42.32h0c.41.54.85,1.04,1.3,1.32.02.01.04.02.06.03.02.11.04.23.04.36.3.02.56-.06.82-.16.22,0,.43,0,.48-.03.14-.07.18-.22.28-.38,0,0,0-.01.01-.02.22-.15.44-.31.67-.45.23-.06.53-.11.96-.11.21,0,.37,0,.51.03-.07.36-.06.65,0,.88,0,0-.01.01-.02.02-.01.02-.02.03-.02.04-.26,1.11.64,1.05,1.22,1.3.17.21.3.47.33.83.14.06.25.32.39.56,0,.06,0,.11-.01.18-.55-.07-.97-.29-1.23-.4-.09-.04-.16-.07-.21-.07-.14-.02-.29-.03-.44-.04-1.05-.03-2.45.23-3.26.06-.01-.1-.02-.18-.03-.28-.05-.02-.19-.66-.81-.84-.97-.29-4.75-.58-5.36-.04-.03.03-.06.1-.07.19-.03,0-.07,0-.1,0-.09.15-.14.42-.19.71-.04.22-.08.45-.13.65-.02.02-.03.04-.04.06-.35.37-1.09.6-1.9.65-.66-.02-1.41-.1-2.08-.28-.8-.31-1.32-.89-1.07-1.76ZM277.81,394.26c.31.16.31.32,0,.48v-.48ZM215.72,399.61s-.02.12-.04.25v1.35c0,.23-.41,1.31-.79,2.23-.23.55-.44,1.04-.55,1.24-.21.39-.3.76-.45.73-.09-.02-.21-.19-.38-.59-.26-.6-.4-1.35-.5-2.18-.28-2.48-.05-5.64-.74-7.67-.02-.27.04-.5.12-.72.04-.16.11-.31.19-.45.33-.57.95-1.02,1.62-1.3.51-.21,1.04-.32,1.51-.32v7.43ZM221.99,387.77c-.77,2.34-1.81,4.97-2.72,7l-.67,1.73c-.09.09-.17.15-.24.2-.16.26-.38.38-.76-.04-.21-.23-.52-5.46-.27-6.27.12-.39.4-.81.76-1.24.18-.22.38-.44.59-.67s.43-.46.65-.69c.42-.61.89-1.27,1.4-2.01.17-.25.35-.51.53-.78.43-.65,1.27-.78,1.67-1.32.91-1.25.81-3.67,2.38-4.44l-3.32,8.54ZM228.15,394.74c-.02.07-.03.14-.05.22-.29,2.91-.04,6.31-.38,8.98-.08.66-.29,1.44-.96.71-.09-.1-.39-1.33-.62-2.49-.38-.93-.68-1.92-.78-2.87-.04-.32-.05-.63-.04-.94,0-.15.02-.3.04-.45.09-.74.36-1.42.85-1.98.2-.22.43-.43.71-.61.08-.27.15-.49.2-.61.29-.68.11-.73,1.08-.6-.03.21-.05.43-.07.65.01,0,.02,0,.03-.01ZM244.94,420.17c-.59.16-1.49-.05-2.4-.46-1.22-.54-2.46-1.42-3.02-2.2-.14-.19-.24-.38-.28-.55-.03-.11,0-.31.07-.57-.02-.03-.04-.06-.04-.08-.01-.05.01-.17.07-.33.26-.75,1.12-2.55,1.81-3.88.15-.3.3-.57.42-.81.19-.35.34-.62.42-.74.05-.07.09-.16.13-.26.02-.04.03-.08.05-.12.16-.38.34-.75.89-.24.14.13.34,1.03.55,2.24.47,2.66,1.04,6.85,1.37,7.83-.02.02-.05.02-.07.03l.03.15ZM254.95,389.8c.03.18.06.33.11.46-2.29-.3-1.74-4.56-1.92-6.23-.28.85-1.67,1.46-2.38,1.77-.24.1-.4.17-.43.21-.59.91.94,4.18-1.02,3.78l-.48-5.75c-.29-.06-.49-.02-.64.07-.5.3-.41,1.18-1,.85-.18-.1-.42-.31-.76-.68-.77-.84-2.75-5.48-3.25-6.82-.76-2.05-1.46-4.58-1.87-6.85-.06-.32-.11-.64-.15-.95.12.03.23.09.34.18.06.06.13.12.19.19.24.29.43.7.63,1.11.15.31.29.61.45.85.17.26.37.45.6.5.8.19,3.19-2.12,4.45-1.34.38.23.68.99.94,1.93.1.38.2.78.28,1.19.06.31.12.62.18.93.11.62.21,1.21.29,1.71.04.25.08.48.11.67.05.26.09.46.12.58.02.06.04.1.05.12.17.17,1.92-.17,2.57,0,.5.13.15,1.15.54.96.04-.02.09-.05.13-.09.22-.19.46-.59.8-.77.14-.07.29-.11.46-.08.47.07.76.47.93,1.08.04.15.08.32.11.5.08.53.11,1.17.1,1.86-.05,2.46-.56,5.65-.52,7.46,0,.23.02.43.05.61ZM351.98,428.14c-.92.22-.92-.34-1.35-.8-.21-.23-.41-.46-.59-.68-.36-.44-.66-.86-.89-1.25-.12-.2-.22-.38-.31-.56-.36-.73-.51-1.34-.51-1.84,0-.12.01-.24.03-.35.2-1.1,1.26-1.45,2.25-.96.2.1.39.23.58.4.18.17.36.37.51.61.15.24.29.51.4.82.39,1.08.46,2.61-.12,4.63Z"/>
    <path class="a3" d="M422.5,350.94c-1.5-.89-3.07-2.38-4.37-3.07-.94-.5-4.62-1.28-4.75-1.98-.01-.07.12-.37.29-.72.23-.46.54-1.01.68-1.23.04-.05.06-.09.08-.1,1.84-1.08,4.02,3.27,6.15,2.78-.21-.5-.27-.91-.23-1.24.03-.23.11-.42.23-.59.21-.3.54-.52.94-.7.4-.18.87-.31,1.36-.43.24-.06.49-.12.74-.17.74-.17,1.45-.36,1.97-.66.1-.06.2-.13.29-.2.09-.08.17-.16.24-.26.15-.21.24-.47.24-.77,0-.44-5.18-6.2-5.79-6.7-1.48-1.2-7.38-2.83-7.66-3.14-.2-.22-.3-.43-.32-.63-.03-.24.07-.47.24-.67.43-.51,1.37-.89,2.15-1.16.16-.05.31-.1.45-.15.26-.08.48-.15.63-.19.11-.04.19-.06.21-.08.07-.07.11-.14.12-.21.09-.5-1.08-1.06-1.33-1.68-.6-1.46-.72-3.25-.71-4.82,0,0,0,0,0,0,1.15,1.05,1.72.56.97-.63-.28-.45-.94-.28-.97-.33-.01-.03-.02-.06-.02-.11,0-.18.07-.48.08-.75,0-.2-.01-.38-.13-.48-.29-.26-3.4-.66-4.01-1.53-.02.23.11.52.3.83.05.08.11.17.17.26.12.17.25.35.39.53.19.24.37.47.56.71.23.29.45.58.61.85.16.27.26.52.27.73,0,.15-.04.28-.14.39-.11.11-1.51-.22-1.86.78-.09.25-.12.66-.12,1.16,0,.42.02.88.04,1.35.02.31.03.61.05.9,0,.14.02.28.02.41.01.26.02.5.02.69,0,.25-.02.42-.07.47-.62.04-1.26-.04-1.82-.32-.74-.36-.29-1.23-1.05-1.12.99,3.28,2.54,6.4,3.48,9.7.02.07.05.15.07.25.09.29.22.69.35,1.14.18.61.37,1.31.48,1.99.08.45.13.89.12,1.28-.02.94-.35,1.58-1.32,1.42-.43-.07-6.11-4.52-7.03-5.23-.27-.21-2.31-1.33-2.4-1.44l3.34,12.25c.37.57,8.17,5.17,9.14,5.5.41.14,1.34-.11,2.02.11,2.88.95,6.02,2.56,9.01,1.8.02.02.06.03.11.04,0-.03,0-.06,0-.08-1.52-1.51-1.53-2.66-2.31-4.62h0c-.07-.04-.14-.09-.21-.13Z"/>
    <path class="a3" d="M285.96,452.63c.74.84,3.65,5.36,4.77,4.28l-.47-5.75c1.61.12,3.15.99,4.7.05-.02-.02-.04-.03-.06-.05-.04-.03.13-.64-.33-.98-.23-.17-1.07-.73-2.05-1.35-.29-.18-.58-.36-.88-.54-.6-.36-1.19-.71-1.69-.97-.25-.13-.48-.25-.67-.33-.22-.1-.39-.16-.5-.16-.05,0-.09,0-.11.02.14.5.34.99.54,1.44.4.91.82,1.68.77,2.16-.01.16-.08.29-.21.38-.33.22-1.09.21-2.54-.14-.02.02-.04.05-.04.08-.05.28.43.94.44,1.41,0,.12-.02.23-.09.31-.17.22-.61.31-1.56.13Z"/>
    <path class="a3" d="M368.96,430.54s0,0,0,0c.51-.05,2.75-.38,2.85-.48.86-.81-.92-1.14-1.41-1.42,0,0,0-.01,0-.02-.29-.18-.5-.54-.95-.49,0,0,0,0,0,0-.02,0-.05,0-.07.01h0c.37.02.57.31.83.48.02.11.04.2.04.29.01.17-.01.29-.06.38-.05.09-.13.15-.22.19-.46.21-1.3-.06-1.25.77,0,.08.02.18.04.29h.19Z"/>
    <path class="a3" d="M347.24,436.21s-.04.06-.06.09c-.13-.01-.24-.03-.34-.03-.49-.04-.65.03-.66.4,0,.15.01.34.04.6-.02.02-.02.04-.02.08,0,.04,0,.08.02.13.02.09.04.2,0,.27-1.32-.36-1.09,1.31-1.44,2.4-.01.04-.01.08-.01.12,0,.09.03.18.03.25,0,.04,0,.07-.02.1l-.48.48s-.11.02-.17.02c.04,0,.09,0,.13,0,.09,0,.17,0,.23-.03l.02-.02c.3-.1.31-.18.41-.41l.05-.05c.06-.12-.05-.32,0-.48,1.37.33.98-1.37,1.41-2.4,0,0,0,0,0,0,.01,0,.02,0,.03,0,.06-.15-.07-.42,0-.48,0,0,0,0,0,0,.14-.05.67.16.88-.05.14-.14.07-.47.05-.69-.05-.1-.08-.2-.1-.3Z"/>
    <path class="a3" d="M448.94,195.88c-1.85,1.14-2.27,5.03-2.99,6.86,0,.01,0,.03-.02.04-.03.09-.07.16-.11.23-.03.06-.05.12-.08.17-.02.03-.03.05-.05.08-.05.08-.1.16-.15.22-.79.88-6,3.45-7.64,4.83-3.78,3.16-6.24,7.13-6.37,11.97-.02.69.01,1.4.09,2.13-2.51-1-2.13.2-2.76.44-.99.38-1.8.4-2.99,1-.06.03-.12.04-.18.05,0,0,0,0,0,0-.05,0-.11,0-.16-.01-.35-.06-.62-.28-.61.83h0c.11.02.21.06.29.12.72.21,5.45,1.59,5.38,1.39-.26-.73.5-2.29.83-2.76.3-.43,1.68-.42,1.82-.6.19-.26-.49-2.14-.44-3.02.2-3.45,2.34-7.27,4.76-9.68,1.55-1.55,8.87-5.83,9.16-6.31,1.11-1.9,1.32-5.57,3.15-8.3,0,0,0,0,0,0-.33.04-.62.14-.89.31Z"/>
    <path class="a3" d="M197,195.05c.14-.02.24-.07.3-.14.09-.1.11-.26.11-.44,0-.15-.01-.33,0-.52,0-.2.02-.41.09-.64.3-1.1.72-2.19.64-3.36l-2.16,5.05c.49.08.82.1,1.03.06Z"/>
    <path class="a3" d="M396.79,214.22c-.08,0-.16,0-.23.02-.41.08-.57.47-.93.75-.42.33-.82.7-1.2,1.11-.19.21-.37.42-.55.65-.36.45-.69.93-1.01,1.44-.16.25-.31.51-.46.78-.56.99-1.07,2.06-1.52,3.13-.46,1.07-.87,2.15-1.25,3.17-.25.68-.49,1.34-.72,1.95l-3.34-.6-3.34-.6c-.39.51-.97,1-1.65,1.47-.34.23-.7.46-1.07.69-.37.23-.75.44-1.13.66-1.14.65-2.27,1.25-3.06,1.8-.26.19-.49.37-.66.54-.46.46-2.65,4.6-2.57,5.49,0,.06.02.1.05.13,2.47-.36,4.73-2.78,7.06-3.25,1.12-.22,5.63-.74,6.62-.63.14.02.28.04.41.08.51.15.9.43,1.24.65.26.16.49.29.73.29.31,0,.19-.98.51-1,.56-.03,3.26.86,4.05.02.17-.18.25-.33.26-.44,0-.04,0-.08,0-.11-.05-.17-.25-.26-.47-.32-.18-.05-.37-.07-.5-.09-.1-.01-.17-.02-.18-.03-.05-.07-.09-.14-.12-.2-.36-.75.82-.79,1.58-1.16.19-.09.35-.21.45-.36.33-.49,1.76-4.64,2.02-5.53.37-1.3.69-2.58.92-3.87.23-1.29.39-2.58.44-3.9.02-.44.02-.88.01-1.33,0-.45-.03-.9-.07-1.35-.1-.03-.2-.04-.28-.05Z"/>
    <path class="a3" d="M524.51,72.75c.81-.94,1.25-2.14,1.25-3.38h0s0,0,0,0l-1.61-1.16c-.31-.42-.63-.88-1.04-1.23-3.78-3.25-18.4-5.17-19.77-8.3-.03-.06-.06-.13-.08-.19-.42-1.65,4.18-3.42,2.64-6.77-.02-.04-.03-.07-.04-.11-1.3-2.61-5.41.4-7.17.99-3.65,1.21-7.37.95-11.15.94-.21,0-.42,0-.63,0,2.38-2.5,6.01-3.78,8.42-6.21.74-.75,2.46-2.76,1.95-3.78-.14-.29-.45-.5-1.02-.58-2.98-.42-10.74,3.12-13.77,4.47-.37.17-1.34.87-2.04,1.2-.35.17-.64.25-.73.1-.06-.1-.02-.39-.07-.75-.04-.28-.14-.61-.41-.92-3.7-4.29-14.82.19-18.86,2.72l-8.74,6.13c.26-1.04.68-3.15.79-3.26.08-.08.48-.88.48-.96-.01-.53.36-1.33.48-1.92.12-.59,1.31-2.01-.48-2.4-3.12-.67-8.03,6.53-10.06,8.41-7.96,7.38-16.27,14.25-23.51,22.54-.84.96-3.29,4.93-3.85,5.26-.89.51-2.1-.05-3.16.68-1.14.79-2.09,5.98-3.16,7.87-1.56,2.75-5.42,6.83-7.59,9.44-.99,1.2-3.08,2.2-2.88,4.32-.68.26-1.33.37-1.89.94,0-.02,0-.04,0-.07-.06.05-.12.11-.19.15,0,.14.02.29,0,.42h0s-.48.96-.48.96c-.65,1.98-5.33,11.2-5.41,13.8,0,.27.03.47.13.58.13.09,1.27-.52,2.35-.98.36-.15.71-.29,1.02-.38.27-.07.5-.12.68-.1.23.02.36.14.34.4,0,.09-.03.2-.08.33-.39,1.05-4.25,5.47-5.28,6.71-.55.66-3.36,2.94-3.47,4.13-.02.17.02.32.13.44.39.43,3.84-2.43,4.7-2.73,2.07-.74,4.64-.63,6.81-.62.08.07.11.17.12.29.07,1.7-6.42,7.79-6.45,9.48,0,.12.03.22.1.29,2.74-1.31,3.24-.75,3.19.03-.03.52-.31,1.12-.33,1.34,0,.04,0,.06.01.07.16.14.68.1,1.33.04.39-.03.82-.07,1.24-.08.64-.02,1.25.04,1.67.28.14.08.26.18.35.31.12.17.19.38.2.65-.21,1.01-7.31,5.51-8.52,6.82-.36.4-.67.37-.68.87,0,.17.02.39.09.71,4.5.23,5.74-6.19,10.55-5.75.04.03.06.1.06.18,0,.83-1.78,3.89-1.73,5.56.01.42.13.75.43.93.15.09.34.15.57.16.24.01.53-.01.87-.09.41-.09,2.42-6.76,4.79-6.72,3.09,1.3,3.05,13.07,4.17,13.85,1.32.91,6.07-2.89,7.15-1.39.03.03.03.11,0,.21-.23,1.36-3.79,8.32-4.01,11.54-.03.5.01.9.16,1.19.05.05.12.07.23.08.11.01.26,0,.42-.02.84-.09,2.16-.43,2.24.4,0,.07,0,.16,0,.25-.2,1.35-1.64,3.14-2.15,4.57-.39,1.1-2.07,6.15-2.03,6.87.07,1.37,1.46,3.48,1.31,5.11l1.91-.48c.16,2.7,1.03,6.19,2.16,8.63,2.62,5.62,3.39,1.42,5.75,1.39.97-.01,1.36.49,1.43,1.17.01.1.01.2.01.3-.03,1.38-1.06,3.26-1.22,3.37-.25.18-3.28-1.36-3.45,2.05-.02.49.01,1.08.12,1.78,1.21-.01,1.7-.97,3.06-.93,1.39.04,4.5,1.64,5.57,1.19,1.65-.69,7.06-9.91,8.39-9.87.67.02,1.22,1,1.85.91.22-.03,3.58-2.16,3.85-2.4,1.06-.91,1.2-2.12,2.2-3.07,4.72-4.47,10.26-9.37,16.34-11.73.38.29.83-.26.82.3,0,.25-.1.73-.34,1.62,0,0,0,0,0,0,0,0,0,0,0,0,0,0,0,0,0,0,.11-.08.4-.44.52-.52,1.04-1.27,1.69-2.65-.35-2.85,8.85-8.04,13.09-12.58,20.35-21.59,0,0,0,0,0,0,.66-1.86,1.77-4.04,2.91-5.75.07-.1.12-.2.17-.29.13-.27.18-.49.29-.66h0c.17,0,.37-.03.53-.17.05-.05.08-.11.11-.19.11-.02.24-.04.4-.05.19-.01.41-.02.68-.02h0v-.03s.02,0,.03,0c0,0,0,0,0,0,.08-.01.19-.04.34-.08,3.57-.85,8.5-1.33,9.19-5.01.24-.74.22-1.62-.11-2.73-.17-.57-.7-.85-1.2-1.16-.38-.33-.67-.72-.54-1.57-.01,0-.02,0-.03.02,0,0,0,0,0-.02,3.71-1.95,2.04-3.52,2.88-6.71,0,0,0,0,0,0,.01,0,.02,0,.03,0,.01-.05-.11-.43-.09-.49,0-.03.02-.05.03-.08.02,0,.05,0,.03-.08.78-2.54,2.34-3.03,3.77-4.89,5.14-6.67,7.32-12.05,7.21-20.63-.07-5.12.66-8.65,2.15-13.68.52-1.76,1.97-6.94,3.47-7.56,1.54-.64,3.51-.64,5.25-1.46,1.97-.93,5.1-3.74,4.95-6.06-.09-1.42-1.91-2.25-1.38-3.78l1.09-1.28ZM443.38,85.29l8.49,2.32-3.55.92c-2.04-.75-4.18-.35-6.29-.45-1.93-.09.33-2.88,1.35-2.8ZM430.76,153.37l-2.39-.96c-.37-.54-.68-.72-1.06-1.25.23-.87.48-1.87.79-3.1.63-2.46,2-4.72,2.67-7.17.84-.11.45,1.09.47,1.67.13,3.61.1,7.25-.48,10.8ZM477.41,108.6c-1,2-1.69-1.22-1.47-2.39.24-1.32,2.27-5.28,3.05-6.61.37-.62-.09-1.21,1.19-.95.34.39-2.21,8.84-2.77,9.95ZM483.54,81.85h-1.45c1.2,2.55-.85,2.25-2.41,3.59-3.07,2.62-8.96,14.35-8.17,18.24.11.53,1.15.06,1.39.31.08.08.56,2,.56,2.11v9.84c-1.44.22-.78-.33-.96-1.18-.23-1.1-.39-2.49-.85-3.5-.22-.48-.5-1.32-1.07-.61-.11.14-.44,3.04-.48,3.6-.12,1.58.13,3.18-.04,4.76-.05.45-.23,1.8-.92,1.71-.19-1.65-.94-5.1-2.39-6.01-1.63-1.02-1.03,2.19-2.39,2.52-.57,5.12-1.08,10.31-.99,15.49l-1.07-7.33-.84-1.31c-1,6.12-1.08,12.42-3,18.37-.39,1.21-2.37,7.22-3.23,3.45-1.4-6.15,1.38-13.26.44-19.64-.23-1.55-1.99-4.07-2.85-1.46-.92,2.8-1.07,6.44-1.93,9.36-1.1.21-.76-.09-1.07-.62-1.33-2.29-1.83-5.14-3.62-7.41-.46-.58-.54-1.31-1.54-1.09,1.23,6.03,3.44,12.02,3.35,18.24l-1.56-4.44c-1.76-2.12-2.19-5.99-4.23-7.77-.38-.33-2.23-1.3-2.6-1.23-2.05.4,1.13,6.16,1.14,7.44,0,1.98-1.92,3.45-2.25,4.9-.24,1.05.07,4.75-.1,4.94-.77.88-.82-.27-.99-.68-.42-.97-.73-2.8-1.88-3.16.4,1.44-.78,3.32-1.37,1.6-.19-.55.04-1.25-.07-1.6-.46-1.44-1.76-2.9-1.88-4.57.77-.92,2.55-6.71,2.84-6.95l-.48-.48c-.05.06-1.19.41-1.44.48.21,1.28-2.29,2.87-1.91,1.21.31-1.34.74-1.01,1.43-1.21.51-1.3.99-2.62,1.67-3.85,2.92-5.28,8.68-10.19,12.25-15.11,3.06-4.22-.45-3.57-.52-4.38-.16-1.84,2.35-4.57-1.89-3.31-1.74.52-2.98,2.37-4.32,2.88-1.11.42-4.1.38-4.78,1.22-.21.27-1.63,3.62-2.88,2.4-.71-.69,1.66-2.79,1.92-2.88.77-.8.08-1.11,0-1.44-1.28.9-3.14,2.92-4.8,2.64.57-1.98,3.42-2.64,4.8-3.6.67-.46,3.03-2.38,2.88-3.11-.35-1.67-4.76,1.4-3.84-1.68l13.2-.48c5.44-.56,2.86-3.63-.24-5.52.79-.94,2.02-.69,3.05-1.26,1.46-.8,4.02-3.34,5.92-3.72,1.47-.29,5.32.92,7.24.51.15,1.58,2.57,2.4,3,3.11.69,1.15.6,3.78,1.3,5.31.22.47.55,1.38,1.07.61.12-.17.82-3.52.92-4.12.39-2.47.15-5.8.54-8.1.19-1.1,2.18-2.8,1.34-4.02-.22-.32-1.57-.26-1.36-1.27.08-.36,4.23-1.84,5.03-2.19,1.11-.25.56.81.95,1.46,1.22,2.01,6.36-1.68,7.64-1.4.5.11.91.84.77,1.4Z"/>
    <path class="a3" d="M395.64,212.34c.08.08.16.14.23.19.51.32.78-.12.87-.93.02-.21.04-.43.04-.68,0-.06,0-.13,0-.19,0-.06,0-.12,0-.19,0-.39-.04-.81-.09-1.24-.02-.14-.04-.29-.06-.43-.02-.14-.04-.29-.06-.43-.05-.29-.1-.57-.17-.85-.09-.42-.2-.81-.32-1.16-.04-.12-.08-.21-.12-.32-.04-.11-.08-.22-.12-.32s-.09-.18-.13-.26c-.05-.08-.09-.15-.14-.22-.09-.13-.19-.23-.29-.29s-.2-.08-.3-.06c-.1.02-.2.09-.3.21l.48,3.59.48,3.6Z"/>
    <path class="a3" d="M211.3,147.81c-.26-.12-.56-.21-.89-.27,0,.05,0,.12,0,.2,0,.08,0,.17,0,.27-.03.9-.16,2.58.16,3.57.18.55.49.89,1.03.76.11-.12.21-.23.3-.35.09-.12.18-.24.26-.36.16-.24.28-.49.37-.74.45-1.24.08-2.47-1.23-3.07Z"/>
    <path class="a3" d="M201.16,194.04c-.26-.05-.72.13-1.2.43-.77.47-1.58,1.22-1.65,1.72-.02.12.01.23.1.31.04.03.09.06.15.07.42.06,1.34-.46,2.02-1.05.09-.08.17-.15.25-.23.23-.23.41-.46.5-.67.03-.07.05-.13.06-.2.02-.12-.01-.23-.1-.31-.03-.03-.08-.05-.13-.06Z"/>
    <path class="a3" d="M367.81,247.05l-.48-3.06c-.14,0-.26-.02-.36-.03-.2-.01-.33-.02-.41,0-.05,0-.08.03-.1.06-.06.09-.03.29-.08.69-.02.17-.05.36-.08.56-.06.39-.12.83-.18,1.29-.37,2.78-.63,6.42,1.95,6.58.06,0,.13,0,.19,0h0c.48-1.67-.3-1.66-.44-3.16-.09-.96.03-1.98,0-2.92Z"/>
    <path class="a3" d="M432.3,280.25c.04.07.07.14.09.21,0,.01,0,.02,0,.03.02.08.04.15.05.23,0,0,0,0,0,0,.13,1.14-.97,2.36.55,2.12.07-.03.14-.05.22-.07-.13-1.82-.17-1.61-.63-2.28-.05-.19-.15-.37-.3-.54-.05-.1-.12-.2-.18-.3-.05.02-.11.03-.17.03.05.09.11.18.16.27.07.08.13.16.18.24,0,.01.01.03.02.04Z"/>
    <path class="a3" d="M164.39,216.66c2.58.96,1.4-1.54,2.63-.95.66.47.64,1.27.85,1.95.13.27.28.54.46.77,1.24,1.13,6.86,2.72,7.09,3.03.2.27.29.49.27.66-.02.29-.31.45-.76.52,0,.14-.02.24-.03.25-.85.75-4.94-1.25-6.24-.96-.02.02-.03.05-.04.07.12.28.43.58.85.88.83.6,2.06,1.21,2.89,1.6.41.2.72.34.83.41,1.17.72,2.34,1.73,3.66,2.44.49.13.96.3,1.38.58.33.1.67.17,1.03.21l.69-1.38s.02.02.04.03v-.03s.06.06.08.1c.1.12.2.25.31.38.98,1.23,2,2.62,3.3,3.26.59.13,1.18.25,1.66.35.35-.02.73-.1,1.12-.25l.72,2.39c.63-.57.95-1.45,1.09-2.27.05-.28.11-.68.17-1.14.18-1.38.39-3.31.39-4.08,0-.31-.05-.59-.12-.87-.45-.98-.88-2.02-.89-2.97,0-.13,0-.27.02-.4.02-.12.08-.26.15-.42.36-1.6,3.17-3.46,3.54-5.1.03-.11.04-.22.04-.33.03-.66-.28-1.29-.32-1.95,0-.11,0-.22,0-.33.03-.3.14-.65.3-1.02.27-.63.64-1.32.91-1.97.05-.12.1-.25.14-.37.13-.36.21-.71.19-1.01-.05-.74-.67-1.24-2.5-1.2.1-.17.21-.4.32-.67.05-.14.11-.28.16-.44.11-.31.21-.66.3-1.03.14-.55.27-1.16.36-1.75.09-.61.16-1.21.17-1.75.02-.89-.11-1.63-.44-1.96-.47-.47-1.37.45-1.31-.61.02-.35.15-.93.44-1.85.19-.59.47-1.25.76-1.94.19-.46.39-.93.55-1.41.25-.71.42-1.43.43-2.12,0-.26-.02-.52-.07-.77-2.13.86-1.79,4.59-2.63,6.24-.43.84-1.42,1.5-2.4,1.44-.14-2.57,2.02-4.61,1.96-7.15,0-.17-.02-.34-.04-.52-.89.15-1.58,4.27-2.87,3.35-.3-.21-.49-1.91-.48-3.07,0-.39.03-.71.09-.9.36-1.23,5.18-6.82,6.37-7.58,1.16-.75,2.11.49,3.14-.16.52-.33.61-1.32.96-1.85.22-.33.94-.32.98-.64.35-3.15-6.67-10.44-6.26-11.91,4.16-3.3,6.14-.34,10.07,1.17l-2.89-21.81c.08-2.71,3.07,1.63,3.38,2.15.23.4.06,1.38.95,1.44.02-.11.02-.24.02-.36,0-.25-.04-.51-.04-.74,0-.12,0-.23.03-.34.03-.13.02-.3.02-.46s-.02-.34-.02-.5c0-.06,0-.15,0-.24,0-.18,0-.4,0-.56,0-.08,0-.14,0-.17,0-.16,0-.32,0-.48,0-.16,0-.32,0-.48.87-.18,1.3-.86,1.82.34,1.47,3.39,1.46,9.39,2.5,13.09l1.87-4.56c-3.05-6.33-2.16-13.09-2.83-19.89-1.82-.03-1.71,2.34-1.93,3.6-.02.11-.02.22-.02.33.01.34.09.68.08.93-.02.34-.22.54-1,.41.02-.84.02-1.68.02-2.52,0-1.68-.04-3.36-.05-5.04,0-.84,0-1.68.03-2.51.01-.47-.04-.98-.03-1.46,0-.16.01-.31.03-.46,1.09-.23,1.29.1,1.76.95h.64c0-.3.02-.63,0-.95-.01-.16.01-.32,0-.48,0-.08.22-.31.33-.61.04-.1.07-.2.07-.31,0-.06,0-.13-.02-.19-.66-2.6-7.04-7.11-8.99-9.23-1.21-1.31-5-6.29-5.72-7.71-.82-1.63-1.1-3.64-1.03-5.45-2.48,2.45-2.46-1.01-3.85-1.71-.78-.4-1.67.45-2.14-.18-.36-.47-.95-2.99-1.08-3.75-.15-.92-.59-1.77.81-1.55,0,0,0,0,0,0,.03-.05.07-.1.11-.14-.79-1.46-1.4-5.36-2.57-5.61-1.46-.31-1.1,2.3-1.2,2.4-1.62,1.68-3.83-3.72-4.2-4.67-.66-1.7-2.17-8.99-2.98-9.5-1.25-.8-1.72.87-2.89.75.05-5.46-2.21-2.93-3.83-3.58-.95-.38-4.52-4.43-6.17-5.37-4.31-2.47-7.69-3.23-11.84-6.86-1.43-1.25-3.36-4.81-5.07-3.64-.57.39-.31,1.5-.44,1.7-.17.26-.29.44-.4.62-.05-.07-.1-.14-.14-.21-.52,1.13-4.14,5.2-5.34,5.25-1.82-1.03-4.69-8.73-5.85-9.01-.05-.01-.09,0-.14-.01,0,0,0,0-.01,0-1.82-.5-1.38,1.42-1.87,2.33-.74,1.39-6.01,1.56-7.66,1.45-6.18-.39-10.66-3.79-15.82-6.72-.18.17-.31.33-.42.49,0,0-.02,0-.02,0-.1,0-.18.02-.23.07-.1.1-.08.51-.01.93,0,.02,0,.03,0,.05.06.36.16.73.25.93.07.15,1.68,1.78,2.56,3.01,0,.01,0,.03.01.04.13.72,0,.85-.72.72l-11.27-5.53c-3.14-.66-3.46.04-3.27,1.38-.07.9.2,2.49.45,4.2.06,1.89.05,4.4-.32,5.23-1.01,2.26-4.7,1.35-6.24,2.78-1.96-1.34-3.87-4.8-6.25-5.16-5.34-.81-2.09,3.95-2.61,4.3-.14.09-1.25-.08-1.92.24-1.13.54-1.15,2.18-.86,3.25l.09.22c.31,1.36,1.18,3.38,2.14,5.5l2.89,7.43c.07.68-2.19,2.52-2.59,3.97-.83,3-.49,7.45.4,11.86.67,3.7,1.83,7.27,2.97,10.05.06.14.12.29.17.43.02.04.03.08.05.12.04.08.08.18.12.27.1.23.2.46.3.67.81,1.73,3.57,5.59,3.83,6.73.07.33.13.67.18,1.02.07,1.23-.18,2.5-.01,3.69.08.55.18,1.1.28,1.66.06.96.16,1.93.37,2.9,1,4.66,3.18,10.11,6.09,15.37,2.81,5.36,6.28,10.3,10.1,14.08,1.57,1.55,3.13,2.69,4.69,3.68.43.3.86.59,1.29.85.42.26.87.49,1.34.71,1.83,1.04,3.67,2.07,5.54,3.48,3.24,2.42,5.99,5.76,9.55,7.82.91.52,2.46.51,2.89,1.26-.01.13-.02.24.02.27.02.01.05.02.08.03.02.12.02.26-.02.41-.04.17-.58.47-.51,1.16.22,2.16,8.39,5.04,10.1,6.76-7.82,5.23,4.91,6.56,7.47,8.84.66.58.73,1.71,1.38,2.46.49.58,2.1,1.24,2.19,1.67.15.66-1.45,1.43-.74,2.15,3.78.56,3.52,2.83,5.54,5.02.51.55,2.21,1.87,2.91,2.37,1.56,1.12,7.06,3.33,7.52,3.76.13.12.69,1.65,1.09,2.27-.26.33-.76.63-.96.96,0,0,0,.01,0,.02h0c.47.04.86.3,1.29.46ZM127.46,116.08c-.22.73-1.41,1.23-1.35,2.25-.41,0-.78.27-.95-.29-.62-2.15-.52-4.21-.48-6.42,2.44-.12,3.44,2.34,2.78,4.47ZM163.53,158.17c-.69-1.31-1.25-2.72-2.01-3.99-.48-.8-3-5.1-3.78-3.41-1.02,2.22.61,5.04.51,7.39-.43.05-.61.07-.96-.23-.96-.83-2.26-7.72-2.98-9.5-.27-.66-.59-.96-1.33-.82-.82,2.2.02,5.45-1.06,7.36-.36.65-1.07.73-1.36,1.15-.52.77-.79,1.93-1.22,2.49-1.13,1.47-1.09-.06-1.63-.68-8.85-10.29-8.44-24.52-12.25-36.73-.75-2.42-1.82-3.45-2.53-5.15-.53-1.28-2.58-8.44-3.03-8.73-1.75-1.13-1.92,2.6-1.87,3.8-5-.28,0-5.71-.48-8.64-3.11.07-4.68,2.97-6.71,4.8v-8.4l-1.88-.76c-.43-1.69,1.29-4.48,3.06-4.31,1.49.15,5.8,6.59,7.7,8.18,1.12.93,4.87,4.04,5.03,1.45,1.84,1.04,2.82,6.42,4.56,7.19,1.43.64.73-4.08,2.15-2.88.23.2,1.25,4.66,1.45,4.8.39.27,1.74-.08,1.87-.75.04-.2-.53-2.72-.69-3.07-.55-1.16-4.24-2.81-1.66-4.09,3.4-1.69,8.35,1.87,10.54,4.33,1.68,1.88,6.4,9.25,6.74,11.51.21,1.39-1.65.21-2.89.46-1.62.33-1,1.7-.21,2.64.69.83,5.14,2.74,4.05,4.34-.63.93-6.73-.63-5.69,3.03.33,1.15,5.62,2.41,6.65,2.25.05,0,.64-.83.96-.48.13.14-.1.8,0,.96.65.94,2.07,1.95,2.4,3.36,1.9-.5,3.86.59,5.33,1.65.56.41,1.18,0,.91,1.23-1.79.13-3.13-1.44-4.77-1.72-.51-.08-1.87-.16-2.42-.2-.43-.03-1.09.42-1.66.4-.99-.03-3.55-1.12-4.09.08-.04.09-.04.88,0,.96.07.14,2.05,1.82,2.44,2.12,3.57,2.84,10.09,5.3,11.48,9.88.41,1.37,1.1,2.94,0,4.32.04.3,0,.65,0,.96-.03,1.71-.71.68-.96.96-.1.12,0,1.53-.48,1.92l.24.98c1.25-.38,2.17-1.28,3.59-.98.39,1.57-.82,2.6-1.2,3.83-.4,1.28-.68,4.91-2.4,5.28-1.33.29-1.89-4.45-2.1-5.58-.16-.87.08-1.83-.05-2.58-.01-.08-.43-1.38-.48-1.44-.37-.4-.42.89-.96-.96-.18-.63-.36-1.28-.48-1.92-.77-.29-1.06.31-1.44.48l-.48,2.88c-1.34.25-1.12-.83-1.44-1.44Z"/>
    <path class="a3" d="M428.26,285.72c-2.5-.94-4.34-2.66-6.23-4.56.68-.45,2.56.62,2.82-.37.02-.07.03-.14.03-.23,0-.09,0-.19-.02-.31-.05-.31-3.31-4.48-3.76-4.89-.72-.66-1.87-.71-2.46-1.38-.83-.94-.95-3.3-1.69-4.55-1.58-2.69-4.43-2.55-5.43-7.04-.03-.12-.03-.21-.03-.3.02-.23.17-.33.39-.36,0,0,0,0,0,0,.43-.04,1.15.22,1.86.49.19.07.38.14.56.21.18.07.35.12.51.17.13.04.26.08.38.1.18.04.34.05.45.03.06-.01.1-.04.14-.07.1-1.44-1.02-2.91-1.04-4.34,0-.2.02-.41.07-.61.09-.36.96-.3.98-.59.03-.66-.6-1.71-.57-2.83,0-.16.02-.32.05-.48.11-.53,1.24-.08,1.42-.28.08-.08.1-.25.1-.45,0-.41-.11-.98-.11-1.4,0-.21.03-.38.11-.48.18-.22,2.74-.42,2.83-.53.02-.02.03-.06.03-.12,0-.08-.04-.2-.09-.33-.09-.26-.22-.58-.3-.91-.04-.15-.07-.29-.08-.43,0-.1,0-.19.02-.28.06-.27.27-.5.49-.71.23-.21.48-.41.66-.6.12-.13.2-.27.21-.41.02-.26-.18-.55-.8-.91-4.5-2.6-6.9.48-7.8-7.08-.02-.2-.04-.34-.04-.45,0-.32.14-.29.73-.25.18.01.49.06.88.14.26.05.56.11.87.17.16.03.32.06.48.1,1.32.27,2.82.58,3.46.6.16,0,.27,0,.31-.04-.28-.91-.23-3.09-.59-3.72-.17-.29-1.81-.9-2.31-1.77-.55-.95-.33-1.84-.71-2.65-.35-.75-1.69-1.17-1.68-2.18,0-.87,1.26-1.3,1.46-2.41.06-.34.08-.63.08-.88-.04-1.77-1.52-1.67-1.55-2.02-.01-.11,0-.26.05-.44.31-1.25,1.76-3.89,1.82-4.99,0-.08,0-.16-.01-.22-.2-1.01-1.84-1.11-1.86-1.53,0-.09.02-.2.05-.32.09-.35.31-.82.6-1.35.02-.03.03-.06.05-.09.25-.45.54-.93.83-1.4.43-.7.85-1.37,1.11-1.86.01-.02.03-.05.04-.07.11-.2.19-.37.22-.49.02-.06.02-.11.02-.14-.32-1.61-2.24-.06-2.78.1-.62.19-1.95.06-2.02.12-.03.03-.04.22-.04.5,0,.56.05,1.48.06,2.2,0,.36,0,.67-.04.87-.13.8-.64,1.36-.83,2.06-.08.29-.08.65-.08,1.01,0,.24.01.48.02.69,0,.32-.02.6-.11.75-.2.33-1.72.41-1.85.56-.13.15-.2.27-.21.37-.01.1.02.18.09.25.1.11.28.19.49.27.21.08.45.15.68.24.2.08.4.16.55.27.09.06.16.13.22.21.07.09.11.19.12.3,0,.07,0,.15-.02.23-.17.68-2.02.6-2.34,1.51-.11.31-.14.62-.12.94.02.35.1.71.2,1.06.09.35.19.7.25,1.04.04.23.06.46.05.68-.24,4.78-1.32,10.26-3.89,14.34-2.6,4.14-2.72,1.95-3.22,7.11-.01.14-.03.26-.04.41-.07.74-.42,1.3-.87,1.8-.02.02-.03.04-.04.06-.17.18-.34.36-.53.54,0-.04,0-.08-.02-.11-.49-3.03-.05-6.02-.57-8.65-.85-4.27-4.13-3.26-4.65.89-.06.48-.08,1.31-.07,2.34,0,2.23.11,5.41.11,8.13,0,2.72-.12,4.96-.55,5.32-.35.29-5.56,1.89-5.76,1.67-.09-.25-.13-.49-.14-.72-.02-.63.24-1.18.54-1.69.14-.24.28-.47.41-.7.25-.44.44-.89.42-1.37,0-.1-.02-.2-.04-.31-.57.53-1.14.96-1.71,1.34-1.77,1.94-7.55,2.62-9.62,2.3-1.63-.25-2.58-.6-3.49-.92-1.51-.27-3.05-.57-4.6-.78-.11,0-.21,0-.33,0-.18.09-.23.4-.22.68,0,.21.03.4.06.49.12.37,5.78,3.54,6.63,3.94,2.31,1.09,6.47,1.82,8.04,3.47.33.35,3.38,5.33,3.46,5.65.05.19.08.43.1.7.02.27.02.57.02.89,0,.8-.06,1.72-.06,2.56,0,.29,0,.58.02.84.01.26.04.51.07.73.07.44.2.76.41.91,1.75,1.22,5.24-1.38,6.45-1.14,1.18.23.87,2.58,3.42,2.37,1.02-.08,1.37-2.39,3.25-1.91.71.18,2.37,2.34,3.26,3.01,2.83,2.14,7.57,6.39,10.03,7.95.98.62,2.73.56,3.69,1.58.26.28.58.84.91,1.54.13.28.26.58.39.89.06.16.12.31.19.47.24.64.46,1.29.61,1.89.04.15.07.29.1.43.06.28.1.53.13.76.01.11.02.22.02.31,0,.1,0,.19-.02.27-1.2-1.66-5.49-5.53-6-7.19-.66-.07-3.02-.25-3.36-.48l-.48.48c.51.49,1.82,2.95,1.92,3.65.03.19.03.34.03.47-.05.92-.81.61-.89.76-.01.02-.01.05-.01.08.02.3.5,1.1,1.11,2.14.2.35.42.72.63,1.11.02.04.04.08.06.12.21.38.42.78.62,1.18,0,0,0,0,0,0,.24.48.45.98.63,1.46.21.58.37,1.14.45,1.67.03.2.04.39.04.58,0,.87-.28,1.61-1.04,2.1-1.58.46-4.91-3.05-6.66-3.34-.19.56-.31,1.02-.35,1.4-.11,1.15.48,1.65,1.84,2.38,1.67.9,5.64,1.88,6.77,2.59.03.02.07.05.11.09.12.12.29.32.48.57.16.21.34.45.53.71.44.61.93,1.31,1.36,1.89-1.45-1.06-2.42-.91-4.52.08,2.04,5.14,8.65,11.51,13.67,13.79.27.12.73.35,1.15.44.11.02.21.03.3.04.03,0,.06,0,.1,0,.01,0,.02,0,.04,0,.11,0,.22-.01.36-.06.04-.05.04-.12.02-.21,0-.17-.22-.56-.59-1.1-.29-.43-.65-.92-1.02-1.39-.02-.02-.03-.04-.05-.07-.09-.11-.17-.22-.26-.33-.05-.07-.11-.14-.16-.21-.05-.07-.11-.14-.16-.2h0c-2.51-3.18-6.39-7.7-7.57-9.44.57.28,1.25.39,1.5.7.7.85.17,2.02,2.07,1.91h0c.26-.02.57-.06.94-.13l-.95-5.27,1.2.96c.09-.25.13-.51.14-.78.04-1.85-1.69-3.93-1.83-5.75-.08-.96,1.1-.38,1-1.34-.16-1.56-2.01-3.14-1.83-5.21.19-2.07,1.7-1.13,3.24-1.31h0s0,0,0,0l.96-.48h0c.16,0,.33,0,.51.02.1.01.21.03.31.05.08.01.15.02.23.04.15.04.31.08.46.13.03,0,.06.02.09.03.91.32,1.78.89,2.22,1.61,0,0,0,0,0,0,.16-.04.33-.07.49-.14.22-.1.43-.18.67-.22.01-.2.02-.4,0-.57,0-.02-.02-.03-.02-.05l.05.05c-.09-.43-.47-.45-.48-.48l.02.02s-.05-.01-.05-.02c-.83-2.64-1.74-4.67-3.36-6.96l2.39-.24c.12-1.09-.46-1.99-.96-2.88.8.24,3.41.95,4.15.25-.03-.08-.06-.17-.08-.25h0c-1.58.07-3.26-.41-4.71-.96Z"/>
    <path class="a3" d="M173.86,286.02c.02-.12.03-.24.04-.34.02-.42-.12-.67-.63-.44-1.34.61-4.87,4.89-6.74,5.06h0s.09,0,.14,0c.05,0,.11,0,.16-.02.02,0,.04,0,.06-.01,1.48-.26,4.94-2.38,6.7-2.63.03-.02.05-.04.08-.06l-.07-.46c.08-.33.2-.75.26-1.11Z"/>
    <path class="a3" d="M175.86,293.94c.51-.37,1.05-.75,1.61-1.13.55-.38,1.12-.77,1.66-1.18,0,0,0,0,0,0,.27-.21.54-.43.81-.65.26-.22.52-.45.77-.68.12-.11.37-.34.66-.62.16-.2.26-.42.27-.7,0-.09,0-.19-.03-.3l-5.46,2.95c-.15.04-.27.16-.38.3-.11.14-.19.31-.27.42-.05.08-.09.14-.13.16-.34.19-.83.42-1.36.66-.18.08-.36.16-.55.24.5-.19.98-.37,1.19-.49,0,0,0,0,0,0,1.37-.15,1.79.02,1.19,1.04-.11.08-.25.18-.43.31.17-.12.32-.22.43-.31,0,0,0,0,.01,0Z"/>
    <path class="a3" d="M220.49,410.34c-.15,1.21-.49,2.38-.49,3.6,1.25-.44,2.34-3.55,1.43-4.32-.76-.65-.86.05-.94.72Z"/>
    <path class="a3" d="M200.56,394.85c.39-2.12,1.31-4.49,1.85-6.8.12-.51.22-1.02.29-1.53.07-.5.11-1,.11-1.49,0-.24,0-.49-.03-.73-.01-.02-.02-.04-.03-.07,0-.02-.02-.05-.03-.07-.02,0-.03,0-.04,0-.01,0-.03,0-.04,0l-4.25,4.5c-.03.05-.06.1-.08.15-.03.05-.06.1-.08.15.01.57.1,1.14.14,1.69.01.14.02.27.02.41,0,.13,0,.27,0,.4,0,.13-.02.26-.04.38-.02.13-.05.25-.09.37-.02.12-.04.24-.08.36-.07.25-.2.5-.39.78-.1.14-.21.28-.34.42-.03-.03-.11-.09-.21-.16-.03-.03-.06-.05-.1-.07-.01,0-.02.01-.03.02h0s.05.04.07.06c.95.86,1.68,2.63,3.19,2.84,0-.08.01-.15.03-.24.02-.44.08-.9.17-1.37Z"/>
    <path class="a3" d="M192.63,388.54c-.01-.63.02-1.26.08-1.89.06-.62.15-1.25.25-1.86.16-1.15.36-2.29.56-3.43.2-1.14.4-2.28.57-3.42l-5.72,3.64c-.15.11-.3.23-.45.36-.09.1-.2.22-.3.35-.21.26-.43.57-.56.86-.07.14-.11.28-.12.4h.16c-.08.9.44,1.24.79,1.67-.01-.03-.02-.07-.04-.08,1.71-1.36,2.01.58,1.98,2.24,0,.18-.02.35-.02.49h0c-.01.23-.03.44-.04.63h-.06c.06.1.14.21.27.33.75.67,2.09.73,2.66.88,0-.19,0-.39,0-.58,0-.19-.01-.39,0-.58Z"/>
    <path class="a3" d="M176.34,302.09l.96-3.36c-.11-.12-.45-.05-.83.11-.25.11-.53.25-.78.42-.37.24-.68.52-.75.75-.02.06-.03.14-.03.24,0,.3.06.76.15,1.19.06.29.12.56.18.77.06.21.11.35.14.37-.2.17-.43.35-.66.51s-.49.33-.76.49c-.33.2-.69.39-1.05.57,0,0,0,0,0,0,0,0,0,0,0,0,1.29-.51,2.5-1.23,3.69-1.98-.05,0-.1,0-.15-.03-.04-.01-.08-.03-.12-.05Z"/>
    <path class="a3" d="M421.01,374.78s.04,0,.07,0c-.02,0-.05,0-.07,0,0,0,0,0,0,0Z"/>
    <path class="a3" d="M396.98,413.29l-.02-.07s.01.04.01.06c0,0,0,0,0,0Z"/>
    <path class="a3" d="M200.81,399.54c.07-.02.14-.03.2-.04-.07,0-.13.02-.2.04h0Z"/>
    <path class="a3" d="M176.6,302.17c.12.02.24.01.34-.01-.1.03-.22.03-.34.01h0Z"/>
  </g>
  <g>
    <path class="cls-2" d="M9.56,15.76c-.77,0-1.44-.23-1.99-.7-.56-.46-.99-1.14-1.29-2.03-.3-.89-.45-1.98-.45-3.27s.15-2.37.45-3.25c.3-.87.73-1.54,1.29-1.98.56-.45,1.22-.67,1.99-.67s1.42.22,1.97.67c.55.45.98,1.11,1.28,1.98.3.88.45,1.96.45,3.25s-.15,2.38-.45,3.27c-.3.89-.73,1.57-1.28,2.03-.55.46-1.21.7-1.97.7ZM9.56,14.29c.39,0,.73-.15,1.03-.45.3-.3.54-.78.7-1.44.17-.66.25-1.54.25-2.64s-.08-1.97-.25-2.62c-.17-.65-.4-1.11-.7-1.4-.3-.29-.65-.43-1.03-.43s-.73.14-1.03.43c-.3.29-.54.75-.71,1.4s-.26,1.52-.26,2.62.09,1.98.26,2.64c.17.66.41,1.14.71,1.44.3.3.65.45,1.03.45Z"/>
    <path class="cls-2" d="M18.47,15.76c-.77,0-1.44-.23-1.99-.7-.56-.46-.99-1.14-1.29-2.03-.3-.89-.45-1.98-.45-3.27s.15-2.37.45-3.25c.3-.87.73-1.54,1.29-1.98.56-.45,1.22-.67,1.99-.67s1.42.22,1.97.67c.55.45.98,1.11,1.28,1.98.3.88.45,1.96.45,3.25s-.15,2.38-.45,3.27c-.3.89-.73,1.57-1.28,2.03-.55.46-1.21.7-1.97.7ZM18.47,14.29c.39,0,.73-.15,1.03-.45.3-.3.54-.78.7-1.44.17-.66.25-1.54.25-2.64s-.08-1.97-.25-2.62c-.17-.65-.4-1.11-.7-1.4-.3-.29-.65-.43-1.03-.43s-.73.14-1.03.43c-.3.29-.54.75-.71,1.4s-.26,1.52-.26,2.62.09,1.98.26,2.64c.17.66.41,1.14.71,1.44.3.3.65.45,1.03.45Z"/>
  </g>
</svg>