<?xml version="1.0" encoding="UTF-8"?>
<svg id="a3" xmlns="http://www.w3.org/2000/svg" viewBox="0 0 600 500">
  <defs>
    <style>
      .a3 {
        fill: #a48c67;
      }

      .cls-2 {
        fill: #c9caca;
      }
    </style>
  </defs>
  <g>
    <path class="a3" d="M245.69,242.6c.81.11,1.54.62,2.35.63,1.59-.59,3.63-.71,5.09.17.96.59,1.68,1.8,2.96,1.56,1.06-.07,2.01-.16,3.01-.14.69-.08,1.27-.59,1.9-.85,2.55-1.16,4.49.06,6.42,1.62.39.17.89.14,1.33.23.47.09,1,.19,1.43-.07,2.11-1.98,5.81-2.02,7.74.22.33.34.73.29,1.11.09,1-.66,1.95-.95,3.17-.82,1.18-.02,2.05.93,3.18,1.11.52.07,1.02-.14,1.52-.24.96-.21,2.07,0,3.05-.13.67-.07,1.31-.23,1.99-.24.95-.05,1.91.37,2.82.1.35-.1.69-.27,1.05-.36.36-.11.72-.12,1.07-.23.52-.15.96-.7,1.5-1.06,1.15-.7,2.43-1.28,3.82-.96,1.25.3,2.29,1.07,3.29,1.85.57.28,1.22.3,1.8.64,1.29.71,2.77,1.05,4.23.97.66,0,.99-.51,1.37-.96.81-.86,1.81-1.45,2.89-1.69,1.53-.36,3.53.1,4.68,1.19.32.3.59.77,1.08.78.79.01,1.59-.63,2.38-.67.55-.04,1.14-.07,1.65.09.52.16.98.17,1.54-.09.98-.57,2.21-.26,3.29-.5,1.96-.96,4.12-1.34,6.06-.11.72.47,1.23,1.39,2.2,1.32,1.19-.09,2.47.14,3.45.85.48.39,1.07.84,1.7.51,1.16-.76,2.45-1.49,3.87-1.4,1.08.01,2.17.38,3.04,1.04.65.48,1.02,1.18,1.77,1.43.8.3,1.64-.09,2.45-.08.85,0,1.64.43,2.43.41,1.07-.14,2.21.24,3.2.41,1.4.12,2.74-.3,4.04.39,1.11.41,1.75,2.03,3.09,1.46.53-.19,1-.48,1.55-.57.97-.12,2.2-.19,3.09.3.53.29,1.12.62,1.56,1.06.3.33.64.63,1.12.63.65.01,1.39-.11,2-.05,2.28.3,4.04,2.27,4.28,4.54.15.78-.19,1.57-.05,2.31.12.56.51,1.04.7,1.58.24.58.17,1.28.65,1.74.7.76,1.65,1.55,2.15,2.49.6,1.24,1.37,2.52,2.37,3.46,1.66,1.38,2.84,1.76,3.4,4.23.34,1.26-.13,2.73-.87,3.77-.34.6-.99,1.1-1.13,1.74-.1.41,0,.84.05,1.26.19,1.43.38,3.07.98,4.44.62,1.87.69,4.19-.05,5.94-.11.38-.22.8-.16,1.16.06.47.39.81.64,1.19,1.22,1.82,1.35,4.13-.01,5.88-.72.78-1.37,1.87-2.02,2.64-1.21,1.08-.55,1.14-.13,2.32.8,2.18-.17,4.46-1.89,5.88-.41.29-.77.62-.74,1.17.16,1.19-.06,2.6-.69,3.59-.49.63-.6,1.3-.69,2.11-.17,1.4-.29,2.94-.96,4.15-.29.55-.59,1.21-.64,1.83-.02,1.03-.13,2.01-.73,2.89-.58,1.25-1.9,1.8-2.99,2.5-.91.66-1.67,1.71-2.85,1.85-.41.12-.99.08-1.31.37-.37.38-.34,1.05-.53,1.54-.34,1.13-1.06,1.79-1.91,2.47-.53.46-1.09.65-1.78.84-.98.34-2.01.58-2.99.97-3.41,1.19-3.86-1.06-6.53-1.04-.76-.05-1.28.4-1.84.83-.63.4-1.25.75-1.98.91-1.38.13-2.81.3-3.94,1.2-.6.4-1.16.87-1.85,1.12-1.5.48-3.54.59-4.85-.33-.65-.48-1.34-1.07-1.72-1.76-.32-.8-.96-.88-1.79-.93-.71-.13-1.25.23-1.81.59-.68.39-1.63.53-2.37.92-.83.36-1.58.91-2.49,1.07-.77.09-1.61.08-2.33-.24-.47-.2-.99-.47-1.51-.52-.87-.15-1.62.37-2.48.33-.8.02-1.63-.38-2.47-.38-.57-.03-1.11.23-1.67.22-.33,0-.7-.05-1.03-.04-.85.16-1.73.3-2.62.2-.5-.05-.98-.29-1.49-.14-2.85,1.27-2.91.94-5.84.5-1.92.03-3.91.63-5.7-.4-.49-.17-.92.19-1.33.41-1,.52-1.97.85-3.2.63-1.04-.13-1.8-1.01-2.86-.97-1.05,0-1.75.71-2.85.81-.58.07-1.17-.1-1.75-.08-.6.03-1.29.31-2.02.21-.64-.04-1.27-.41-1.89-.46-.54.01-.88.54-1.32.8-.91.62-2.17.72-3.25.7-.77,0-1.55-.36-2.31-.21-1.04.35-1.46,1.58-2.55,1.87-2.34,1.33-4.91.5-6.64-1.44-.64-.69-1.44-1.09-2.14-1.68-1.13-1.27-2.6-1.1-3.93-.24-1.63,1.05-3.56.84-5.43.29-2.54-1.31-3.04.3-5.41.41-.83.05-1.71-.24-2.47-.65-.45-.21-.82-.57-1.3-.63-1.14-.07-2.21.87-3.34.53-.38-.09-.76-.24-1.17-.18-.47.05-.86.37-1.25.61-.54.35-1.13.41-1.63.56-.69.27-1.42.16-2.12,0-.67-.1-1.42.36-2.25.3-.84-.08-1.63-.39-2.35-.79-.87-.43-1.41-1.21-2.02-1.92-.44-.4-1.02-.02-1.51.1-.98.35-2.04,0-2.97.23-1.2.28-2.44.35-3.67-.03-.37-.1-.74-.27-1.12-.26-.54,0-.99.33-1.49.49-.82.28-1.65.31-2.44.17-1.34-.16-2.42-1.21-3.64-1.71-.45-.14-.92-.24-1.34-.45-.48-.22-.85-.61-1.34-.82-.7-.33-1.57-.16-2.33-.13-1.13.16-2.12-.35-3.11-.81-1.11-.41-1.93-1.16-3.09-1.38-1.01-.38-1.9-.29-2.87-.43-1.34-.28-2.73-.94-3.5-2.14-.44-.8-1.22-1.16-1.9-1.74-.65-.62-1.18-1.43-1.46-2.29-.16-.41-.25-.92-.52-1.26-.34-.45-.88-.62-1.33-.95-1.86-1.29-2.46-2.59-2.5-4.87-.11-.66-.66-1.18-1.04-1.73-.49-.66-.73-1.44-.84-2.25-.11-.83-.17-1.53-.53-2.2-.45-.66-.69-1.43-.99-2.17-.39-.65-1.46-.64-2.13-1.14-2.45-1.4-3.17-5.01-1.5-7.28.88-1.13-.58-2.34-.78-3.48-.34-.95.02-2.08.11-3-.21-1.25-.18-2.51-.22-3.76-.05-.69-.51-1.24-.78-1.86-.69-1.55-.53-3.34.25-4.73.37-.52.9-1.03.65-1.74-.43-1.06-1.06-1.91-1.28-3.15-.23-1.25.18-2.81,1.06-3.78.33-.33.59-.7.55-1.18-.56-2.89.17-3.89,2.2-5.89,1.45-1.64,2.94-3.3,4.43-4.86,1.05-1.22,2.22-2.41,3.25-3.64,1.48-1.67,2.74-3.46,4.48-4.93.75-.66,1.63-.82,2.52-1.25.86-.37,1.5-1.02,2.16-1.67.9-.9,2.18-1.29,3.29-1.99,1.51-1.08,3.22-1.65,4.89-2.5,2.61-1.35,3.91.22,5.12-.72.68-.74,1.54-1.25,2.46-1.58,1.12-.3,2.46-.28,3.53.16.53.2,1.24.51,1.8.44.8-.11,1.27-1.09,1.92-1.49,2.19-1.55,5.11-.94,6.94.9.35.27.84.3,1.13-.08.55-.81,1.35-1.66,2.22-2.18.47-.27,1.12-.3,1.61-.45.41-.13.82-.24,1.25-.17h.05ZM265.17,255.37c-.56-.18-1.2-.14-1.77-.31-.68-.18-1.38-.6-2.06-.64-.51-.03-1.02.16-1.51.29-.71.2-1.3.09-2.01.16-.56.06-1.11.23-1.68.24-.79.02-1.48-.16-2.23-.07-.47.05-.95.17-1.42.15-.67-.01-1.3-.3-1.97-.36-1.14-.14-2.31.47-3.51.38-1.04.03-2.14-1.04-2.9-.13-.44.48-.81,1.11-1.33,1.51-1.16.86-2.78,1.17-4.2.96-.53-.09-.99-.41-1.53-.4-.62.04-1.18.52-1.79.66-1.68.49-3.03.03-4.47-.86-.69-.42-1.35-1.07-2.21-1.03-.98.02-1.7.9-2.63,1.15-1.68.67-3.31-.44-4.99.19-.87.27-1.61.76-2.38,1.06-.39.16-.8.28-1.13.56-.97.85-1.9,2.02-2.96,2.57-.87.46-1.86,1.18-2.74,1.52-.56.19-1.24.17-1.61.7-.61.89-1.17,1.91-1.97,2.68-.72.63-1.45,1-2.1,1.8-.52.53-1.23.94-1.44,1.69-.29,1.62-.63,3.41-1.97,4.5-.34.33-.75.46-1.02.92-.42,1.16-.19,2.37-.99,3.42-.22.34-.54.64-.75.97-.51,1.09.18,2.27.41,3.36.16.84.16,1.77-.04,2.53-.28.75-.9,1.47-.61,2.31.21.68.45,1.45.41,2.11-.13.86.38,1.61.81,2.31.61,1.11.47,1.76.53,2.97.33,2.67,1.4,3.11.13,6.04-.16.51.19.8.51,1.11.44.42.82.89,1.06,1.41.14.29.3.6.59.75.25.13.56.15.85.18,1.67.17,2.88,1.42,3.64,2.78.38.82.46,1.94.43,2.79-.03.64-.32,1.31-.64,1.9-.3.54-.7.96-.66,1.5.58,3.52,3.1,2.26,4.69,4.82.36.53.65,1.14.8,1.73.1.44.19.97.55,1.25.48.34,1.14.32,1.68.57.56.19.98.65,1.56.74.52.09.96-.22,1.38-.48.92-.58,2.43-.75,3.52-.57,1.37.22,2.49,1,3.27,2.08.33.45.6,1.46,1.2,1.55.46.02.85-.32,1.27-.5,1.76-.86,3.64-.72,5.2.43.71.6,1.71,1.52,2.81,1.3.33-.05.66-.16,1-.22.96-.16,1.93.15,2.8,0,.56-.09,1.05-.36,1.6-.49.8-.21,1.61-.08,2.37.17.87.31,1.79.21,2.67.51.55.18,1.1.63,1.68.68.46-.02.76-.44,1.13-.68.84-.58,1.76-.79,2.69-.76,1.27,0,2.5.58,3.62,1.16.97.33,1.86.65,2.72,1.22.35.17.72.13,1.08,0,.76-.25,1.56-.57,2.28-.71.79-.11,1.85-.16,2.57.11.51.23.96.56,1.56.48,1.04-.08,1.93-.37,2.89-.63.9-.21,2.46-.38,3.69-.44,1.14-.07,2.34.01,3.31.75.55.51,1.24.79,1.98.56,1.06-.2,2.09.47,3.13.62.5.02.99-.4,1.43-.62.77-.33,1.54-.77,2.44-.78,1.27.13,2.34.78,3.46,1.3.54.24,1.03-.06,1.42-.42,1.33-1.31,3.39-1.46,5.09-1.03.58.19,1.03.61,1.65.7.55.08,1.16.08,1.6-.12.43-.19.81-.45,1.3-.5.82-.07,1.88-.14,2.67.21.53.23,1.08.68,1.67.67.67-.06,1.3-.3,2-.24.57,0,1.14.03,1.69-.11.62-.16,1.21-.59,1.85-.8,1.06-.36,2.23-.34,3.31.06.25.09.49.2.73.29.59.23.9.07,1.49-.02.59-.04,1.1-.36,1.55-.73,1.42-1.02,3.4-1.05,5.01-.5.6.21,1.06.71,1.7.8.54.08,1.38.05,2.1.01.78,0,1.4-.14,1.93-.7,1.28-1.16,3.32-1.62,4.93-1.07.6.21,1.14.58,1.71.87.61.32,1.32.32,2.1.42.99.22,1.92-.23,2.89-.28.85-.05,1.76.23,2.45-.19,1.12-.74,2.5-1.47,3.85-1.38.66.04,1.3.33,1.97.27.59-.05,1.18-.32,1.81-.33,1.06-.02,2.19.33,3.05.89.58.37,1.03,1.07,1.79,1.03.99-.19,2.1-.84,2.92-1.29.43-.3.83-.64,1.34-.79,1.31-.41,2.8-.11,4.08-.6,1.31-.13,2.86.2,4.15.5,1.69.27-.09-2.12,3.81-4.26.2-.11.42-.19.64-.24.65-.19,1.43.09,1.71-.48.24-.47.33-1,.56-1.49.18-.51.61-1.06,1.03-1.46.38-.39.73-.74.67-1.32-.03-.59-.12-1.2-.05-1.79.08-.69.32-1.42.66-2.03.32-.56.85-.96,1.05-1.58.21-.69.45-1.33.92-1.99.32-.61.95-.79,1.04-1.44,0-.61-.61-.93-.76-1.49-.2-.8-.34-2.1-.22-3,.21-.78.7-1.42.96-2.17.26-.74.38-1.88.79-2.68.25-.51.68-.94,1.04-1.37.43-.51.66-1.27.83-1.9.09-.44-.04-.79-.2-1.2-.21-.6-.36-1.22-.44-1.83-.1-1.54.98-3.15.44-4.73-.19-.94-.64-1.77-.73-2.66-.04-.38-.06-.77-.18-1.13-.42-1.02-1.03-2.04-.93-3.2.01-.98.29-1.9.81-2.75.25-.4.68-.8.53-1.3-.09-.26-.35-.51-.54-.86-.36-.59-.46-1.32-.79-1.87-.24-.43-.91-.79-1.31-1.26-.5-.55-.88-1.22-1.36-1.8-.77-.97-1.79-1.76-2.33-2.88-.48-.87-.37-2.04-.81-2.91-.23-.35-.65-.52-1.08-.84-.62-.54-1.45-.67-2.19-.33-1.8.52-3.88.16-5.15-1.27-.49-.49-.89-1.36-1.41-1.65-.23-.12-.5-.15-.76-.19-.75-.11-1.48-.52-2.24-.34-.72.24-1.42.18-2.11-.11-.61-.2-1.37-.1-2.02.1-.31.09-.63.11-.94.05-1.03-.29-2.1-.11-3.18-.24-1-.11-1.79-.54-2.59-1.06-.65-.37-1.49-.13-2.21-.07-1.28.07-2.21.64-3.32.96-1.28.18-2.78.29-3.87-.41-.48-.27-1.04-.61-1.43-1.09-.43-.48-.79-.71-1.34-.22-1.65,1.41-4.41,1.4-6.13.12-.72-.62-1.6-.76-2.52-.98-.53-.11-.95-.39-1.47-.41-.86-.02-1.57.55-2.18,1.11-.83.65-1.8.88-2.77.93-3.45.15-4.13-3.12-5.39-2.41-2.43,2.23-3.94,1.97-6.97,1.66-1.04,0-1.99-.55-3.04-.47-1.26-.05-2.32-.86-3.54-1.1-.4-.06-.79.02-1.18.06-.72.1-1.43-.03-2.14,0-.67.06-1.26.34-1.89.57-.87.31-1.71.69-2.65.81-1.46-.09-2.9-1.25-4.38-.71-.74.27-1.37.28-2.19.43-1.01.3-2.18.45-3.21.29-.59-.06-1.08-.48-1.66-.42-.52.12-.97.56-1.5.69-.93.3-2.14.09-3.14.04-.6-.03-1.19.08-1.79.07-1.13-.03-2.23-.61-3.09-1.27-.5-.37-.85-.97-1.42-1.24-.55-.2-1.02.32-1.46.58-1.5.9-3.58.91-5.23.34h-.04Z"/>
    <path class="a3" d="M335.57,271.69c1.35.34,2.52,1.43,3.56,2.28,1.14,1.01,1.86,2.87,1.68,4.32-.18,1.22-.84,2.34-1.15,3.53-.28,1.09-.21,2.24-.27,3.34.01.52.24.99.34,1.5.16.94.08,2.06-.21,2.88-.12.35-.3.71-.33,1.08-.06.47.14.92.27,1.36.25.92.08,2.36-.3,3.37-.28.83-1.02,1.4-1.65,1.97-.54.46-.41,1.07-.32,1.73.13.9.03,1.79-.27,2.65-.43,1.06-1.06,2.05-2.15,2.57-.42.21-.89.34-1.27.61-.56.46-1.01,1.19-1.57,1.62-.51.37-.9.75-1.13,1.38-.89,2.87-3.01,4.24-5.99,4.04-.58.05-1.1.31-1.67.42-.87.13-2.03.16-2.91-.04-1.49-.56-2.86-1.78-3.25-3.4-.14-.52-.17-1.09-.33-1.6-.22-.67-.75-1.19-1.35-1.58-.51-.38-1.1-.17-1.52.24-.85.86-1.74,1.45-2.71,2.14-.88.66-1.33,1.62-2.28,2.19-1.87,1.25-4.13,1.62-6.35,1.47-.96-.04-1.72-.64-2.62-.87-.95-.16-1.98.13-2.92-.21-2.85-1.06-3.72-3.24-3.62-6.14-.03-.64-.33-1.32-.49-1.95-.38-1.34-.25-2.76.28-4.03.21-.59-.14-1.07-.57-1.44-.66-.58-1.21-1.41-1.51-2.26-.37-.98-.3-2.04,0-3.05.35-.83.14-1.63-.27-2.39-.33-.93-.7-1.81-.53-2.77.04-.28.07-.57.05-.85-.03-.46-.16-.9-.23-1.35-.16-.84.09-1.6.18-2.37.01-.45-.18-.93-.28-1.37-.4-1.44-.17-2.76.65-3.93.61-1.01,1.86-1.45,2.74-2.07,2.29-2.71,5.84-3.52,8.25-.48.89,1.06,1.05,2.59.83,3.87-.25.92-.92,1.79-1.65,2.46-.43.35-.88.62-1.02,1.05-.34,1.3.38,2.5,1,3.59.41.87.49,1.81.32,2.75-.06.46-.28,1.11-.12,1.5.18.31.63.33.95.45.68.19,1.24.77,1.77,1.35.88.86,1.28,2.14,1.26,3.38,0,.21-.01.51.04.67.26.51,1.02-.16,1.14-.55.25-1.03-.1-2.03.4-3.08.3-.83.69-1.63,1.43-2.12.76-.52,1.1-1.12,1.03-2.05-.04-1,.53-1.9.34-2.87-.12-.56-.4-1.21-.44-1.81-.04-.83.27-1.73.52-2.55.28-.75.91-1.14,1.48-1.7,1.1-.98,2.69-1.19,4.1-1.01,2.01.36,4.21,1.62,4.94,3.65.72,1.22,1.59,2.46,1.62,3.94.12,1.01-.41,2.01-.42,3.01,0,.69.24,1.34.3,2.02.04.67-.13,1.58-.36,2.23-.18.88-1.61,1.81-1.04,2.66.42.53.92,1.01,1.15,1.68.15.38.27.72.51.99.28.33.7.51,1.06.75.59.37,1.1,1.08,1.61,1,.5-.09.96-.65,1.03-1.11.04-.27-.07-.57-.16-.83-.29-.8-.36-1.85-.18-2.75.34-1.24,1.19-2.53,2.3-3.26.56-.39,1.3-.37,1.69-.82.23-.32,0-1.03,0-1.71-.07-.94.43-1.92.59-2.75.13-1.04-.46-2.06-.34-3.11.08-1.26.51-2.75.26-4.05-.68-2.15-.58-4.99,1.38-6.39.93-.55,1.73-1.11,2.9-1.14.58-.01,1.23,0,1.78.13h.05Z"/>
    <path class="a3" d="M240.81,289.7c1.39.33,2.71,1.52,3.27,2.77.57,1.02.46,2.15.7,3.25.26.75.98,1.29,1.2,2.05.28.94.26,2.31.04,3.37-.19.76-.7,1.27-1.13,1.9-.35.44-.31.92.02,1.36,1.31,1.91,1.4,4.6-.19,6.37-.34.37-.71.73-.94,1.18-.47,1.17-1.47,2.31-2.33,3.32-1.17,1.32-3.02,1.79-4.73,1.65-.98.04-1.97.47-2.88.78-.54.23-.98.62-1.54.83-1.34.44-2.83.22-4.03-.42-.89-.58-1.69-.48-2.61-.05-1.26.54-2.72.89-4.04.35-1.32-.53-2.51-1.47-3.06-2.82-.39-.96-.53-1.87-.46-2.78.02-1,.14-2.37-.46-3.12-.31-.34-.63-.56-.97-.86-1.24-1.2-1.48-3.03-1.21-4.64.08-.62.53-1.14.49-1.78-.03-.4-.27-.78-.46-1.14-.5-.86-.65-1.73-.67-2.77,0-.45.04-.92-.09-1.36-.14-.5-.47-.92-.68-1.39-.41-.87-.29-1.82-.42-2.75-.07-.5-.26-.95-.38-1.43-.47-1.69.64-3.48.61-5.14.05-1.97-.67-4.37.52-6.19.34-.61.25-1.29.37-1.97.17-.89.55-1.75.96-2.56.61-1.36,1.64-2.11,2.65-3.09.83-.99,2.12-1.61,3.03-2.57.85-1.19,1.31-2.69,2.92-3.15,1.41-.26,1.3-.55,1.97-1.65,1.3-1.69,4.18-2.66,6.15-1.43.76.43,1.35.99,1.84,1.68.57.74,1.3,1.15,2.13,1.38,1.21.18,2.52.24,3.51,1.05,1.34,1.1,2.92,3.02,3.11,4.83.11.67.44,1.28.67,1.91.19.55.2,1.11.41,1.59.95,1.68,1.44,3.94.46,5.7-.35.61-.92,1.1-1.42,1.6-.64.58-.94,1.35-1.39,2.07-.52.82-1.13,1.44-1.94,1.88-.37.21-.81.34-1.02.73-.21.38-.28.96.01,1.24.4.31,1.38.07,1.96.22h.05ZM233.6,276.24c-.36-.37-1.06-.49-1.68-.65-.51-.11-1-.43-1.54-.37-.41.06-.75.36-1.1.56-.61.4-1.36.42-1.76.98-.39.52-.46,1.19-.84,1.72-.39.7-1.17,1.18-1.56,1.87-.21.47,0,1.31.1,1.93.13.86.09,1.98.73,2.64.51.39,1.02-.33,1.49-.5.63-.34,1.27-.4,1.92-.64.64-.26,1.38-.48,1.94-.87.48-.43.39-1.17.63-1.73.34-.99,1.04-1.9,1.79-2.55.45-.49.35-1.81-.07-2.35l-.03-.03ZM228.19,295.24c-1.22-.46-1.21.61-1.21,1.48-.12,1.72-.34,3.43-.13,5.12.15,1.11-.04,2.23-.71,3.15-.09.17-.16.26-.17.45.03.4.47.62.71.92.69.89,1.65.84,2.66.79.75-.04,1.43.18,2.13.38.66.17,1.17-.07,1.95-.11.39-.03.87.05,1.21-.12.45-.27-.27-1.05-.38-1.43-.33-.73-.56-1.46-.52-2.26.02-.53.19-1.02.41-1.5.23-.5.4-1.06.8-1.49.26-.34,1.01-.84.15-.98-.97-.13-1.75-.3-2.59-.93-.7-.4-1.23-.95-1.67-1.62-.39-.49-1.1-.77-1.65-1.18-.32-.23-.61-.5-.97-.66l-.05-.02Z"/>
    <path class="a3" d="M271.68,263.04c1.13.31,1.91,1.31,3.04,1.62.64.29,1.24.53,1.68,1,.44.48.81,1.07,1.12,1.62.44.83.31,1.94.28,2.88-.05.7.45,1.19.99,1.55.83.59,1.55,1.4,1.8,2.42.14.5.16,1.05.43,1.51.41.71,1.13,1.16,1.53,1.89.25.41.48.88.6,1.33.24,1.15,0,2.22.34,3.45.18.75.29,1.56.73,2.19.38.53.92.98,1.18,1.59.71,1.77.52,4-.74,5.48-.23.34-.8.59-.84,1.01,0,.4.81.78,1.1,1.13,1.08,1.1,1.64,2.57,1.51,4.09.03,1.2-.81,1.93-1.05,3.01-.15.85-.07,1.73-.44,2.53-.2.55-.65,1.06-.65,1.66.03.69.77,1.36.98,2.06.44,1.28.05,3.22-.57,4.29-.68.97-1.73,1.99-2.91,2.23-.97.18-2.01.24-2.92,0-1.35-.42-2.64-1.48-3.21-2.8-.41-1.05-.3-2.76-.72-3.37-1.21-1.44-1.32-3.66-.59-5.36.11-.25.23-.52.27-.78.05-.36-.07-.7-.17-1.05-.15-.52-.13-1.14-.1-1.74.04-.57.08-1.11-.12-1.55-.34-.73-1-1.39-1.32-2.17-.38-.98-.94-.9-1.85-.82-.83.07-1.51-.09-2.24-.34-.67-.21-1.03.48-1.5.82-.54.46-1.36.61-1.82,1.02-.69.7-.38,1.7-.49,2.62-.04.52-.29,1.01-.3,1.52.03.72.47,1.44.51,2.22.12.96.07,2.01-.34,2.82-.25.52-.58.98-.8,1.52-.55,1.27-1.01,2.77-1.61,4.04-.2.42-.52.79-.49,1.28.03.4.25.76.35,1.17.3,1.24.29,2.93-.19,3.94-.46.85-1.23,1.68-2.03,2.19-1.28.73-3.76.77-5.17,0-.67-.43-1.17-1-1.67-1.62-.42-.59-.57-1.34-.86-1.99-.33-.75-.99-1.42-1.17-2.25-.26-1.12-.24-2.5.25-3.51.25-.53.65-.99.95-1.5.48-.78.54-1.69.96-2.53.46-1.17,1.61-2.41.74-3.65-.75-1.23-.96-2.8-.38-4.13.18-.47.54-.91.56-1.42,0-.46-.27-.87-.38-1.34-.16-.65-.23-1.43-.16-2.06.19-1.28.86-2.57,1.85-3.38.55-.48,1.5-.72.92-1.61-.48-.71-.86-1.36-.86-2.24-.03-.79-.04-1.79.3-2.46.31-.82,1.06-1.48,1.47-2.27.37-.98,1.06-1.84,1.32-2.85.3-1.91.99-3.35,2.82-4.22.24-.13.54-.28.64-.54.15-.51-.42-.96-.57-1.43-.67-1.65-.26-3.75,1.05-5.03.67-.71,1.81-1.14,2.79-1.21.34-.03.72-.07,1-.27.17-.11.31-.28.43-.45.38-.56.96-1.05,1.57-1.32.94-.48,2.01-.7,3.12-.44h.05ZM272.32,278.92c-.43-.5-1.41-2.09-2.09-1.06-.27.43-.3,1.08-.46,1.55-.11.34-.31.62-.51.9-.32.42-.63.99-1.11,1.33-.37.27-.86.6-.82,1.11.02.15.12.24.29.26.97,0,2.02-.19,2.95.15.54.17,1.39.65,1.64-.14.34-.72.38-1.71.35-2.59-.02-.47,0-1.19-.19-1.47l-.02-.03Z"/>
    <path class="a3" d="M358.47,268.63c.65.59,1.24,1.4,1.55,2.24.11.28.22.57.4.82.45.61,1.17.91,1.55,1.6,1.48,2.19,1.27,4.27-.45,6.26-.37.42-.95.8-.87,1.38.13.99.39,1.97,1.07,2.71,1.14,1.46,1.34,3.45,1.17,5.25-.21,4.3-3.09,4.07-2.96,5.77.11.62.5,1.11.67,1.76.12.44.17.91.27,1.35.11.49.34.89.57,1.32.78,1.47.69,3.33-.14,4.76-.47.84-.61,1.94-1.1,2.74-.21.32-.44.58-.67.88-.6.86-1.68,1.41-2.73,1.6-.96.38-1.86.24-2.81-.05-2.86-.78-4.44-4.57-3.07-7.17.82-1.6-.85-3.06-1.01-4.64-.13-.77,0-1.7-.07-2.55-.04-.59-.23-1.14-.32-1.71-.19-1.39.26-2.93,1.24-4.01.36-.42.89-.87.72-1.47-.12-.46-.37-.89-.48-1.35-.29-1.12.13-2.3-.26-3.37-.41-.95-.96-1.85-.89-2.93-.07-1.19.5-2.2,1-3.23.29-.96.09-1.98.37-2.95.24-1.54-.11-3.15,1.16-4.34.59-.58,1.26-1.15,2.06-1.37,1.27-.34,3.06-.13,4,.66l.04.03Z"/>
  </g>
  <g>
    <path class="cls-2" d="M3.04,11.7v-1.36h4.13v1.36H3.04Z"/>
    <path class="cls-2" d="M9.21,15.54v-1.52h2.53v-7.87h-2.06v-1.17c.54-.11,1.01-.23,1.42-.38.4-.14.77-.32,1.1-.52h1.36v9.94h2.24v1.52h-6.58Z"/>
    <path class="cls-2" d="M21.26,15.76c-.77,0-1.44-.23-1.99-.7-.56-.46-.99-1.14-1.29-2.03-.3-.89-.45-1.98-.45-3.27s.15-2.37.45-3.25c.3-.87.73-1.54,1.29-1.98.56-.45,1.22-.67,1.99-.67s1.42.22,1.97.67c.55.45.98,1.11,1.28,1.98.3.87.45,1.96.45,3.25s-.15,2.38-.45,3.27c-.3.89-.73,1.57-1.28,2.03-.55.46-1.21.7-1.97.7ZM21.26,14.29c.39,0,.73-.15,1.03-.45.3-.3.54-.78.7-1.44.17-.66.25-1.54.25-2.64s-.08-1.97-.25-2.62c-.17-.65-.4-1.11-.7-1.4-.3-.29-.65-.43-1.03-.43s-.73.14-1.03.43c-.3.29-.54.75-.71,1.4-.17.65-.26,1.52-.26,2.62s.09,1.98.26,2.64.41,1.14.71,1.44c.3.3.65.45,1.03.45Z"/>
  </g>
</svg>