<?xml version="1.0" encoding="UTF-8"?>
<svg class="a3" xmlns="http://www.w3.org/2000/svg" viewBox="0 0 600 500">
  <defs>
    <style>
      .a3 {
        fill: #a98e6a;
      }

      .cls-2 {
        fill: #c9caca;
      }
    </style>
  </defs>
  <g>
    <path class="cls-2" d="M4.39,13.73v-3.46H1.23v-1.34h3.16v-3.47h1.39v3.47h3.17v1.34h-3.17v3.46h-1.39Z"/>
    <path class="cls-2" d="M14.02,15.76c-.77,0-1.44-.23-1.99-.7-.56-.46-.99-1.14-1.29-2.03-.3-.89-.45-1.98-.45-3.27s.15-2.37.45-3.25c.3-.88.73-1.54,1.29-1.98.56-.45,1.22-.67,1.99-.67s1.42.22,1.97.67c.55.45.98,1.11,1.28,1.98.3.88.45,1.96.45,3.25s-.15,2.38-.45,3.27c-.3.89-.73,1.57-1.28,2.03-.55.46-1.21.7-1.97.7ZM14.02,14.29c.39,0,.73-.15,1.03-.45.3-.3.54-.78.7-1.44.17-.66.25-1.54.25-2.64s-.08-1.97-.25-2.62c-.17-.65-.4-1.11-.7-1.4-.3-.29-.65-.43-1.03-.43s-.73.14-1.03.43c-.3.29-.54.75-.71,1.4s-.26,1.52-.26,2.62.09,1.98.26,2.64.41,1.14.71,1.44c.3.3.65.45,1.03.45Z"/>
    <path class="cls-2" d="M23.75,15.54v-7.36c0-.32.01-.71.03-1.16.02-.45.04-.83.05-1.14h-.06c-.15.28-.29.56-.45.84s-.31.57-.48.87l-2.25,3.49h6.3v1.44h-8.13v-1.25l4.58-7.18h2.09v11.46h-1.69Z"/>
  </g>
  <g>
    <polygon class="a3" points="192.47 390.87 192.47 390.87 192.47 390.87 192.47 390.87"/>
    <polygon class="a3" points="149.47 353.02 149.47 353.02 149.47 353.02 149.47 353.02"/>
    <path class="a3" d="M305.11,102.92c1.23,1.71,1.39,3.46,1.23,5.53-.18,2.36-.72,5.15-1.46,7.42-.11.35-.33.43-.48,1.44-.04.31.07.71,0,.96-.61.07-.98-.16-1.24-.53h0c-.08-.43-.15-1-.24-1.54-.04-.26-.09-.52-.14-.75-.02-.07-.03-.15-.05-.22-.42-1.83-.84-3.66-1.45-5.44-.36-1.04-.87-1.75-1.43-2.5.05.07.1.13.15.2.11.01.22.02.34,0l.18-.02v-.07c.17-.09.48-.31.53-.82.04-.45.02-.92,0-1.36-.02-.46-.05-.89,0-1.32v-.08s.01,0,.01,0c1.86-.4,2.5-3.05,4.06-.9Z"/>
    <path class="a3" d="M368.35,164.71c-1.3.34-3.41,1.27-4.68,1.1-1.23-.16-1.53-1.9-3.11-1.46-.25.26.91,4.08,1.19,4.81,1.08,2.77,4.97,7.82,5.06,10.3.03.96-.08.77-.97.73-1.34-3.92-4.01-7.35-6.17-10.87-.89-1.46-1.66-3.26-2.55-4.65-6.9-10.88-17.7-22.38-29.68-27.44-1.65-.7-3.57-1.13-5.29-1.67-.09-.89,1.05-.46,1.58-.38,1.23.19,2.7.8,3.93.87.59.03,1.05-.08.73-.73-.05-.1-.99-1.51-1.06-1.58-.51-.52-8.03-5-8.89-5.29-.35-.12-.73-.11-1.1-.09l.48-3.36h-1.92c-.43-3.01.63-5.38,1.44-8.16l-1.92.48,1.44-4.8c-.95-1.02-3.7,3.44-3.38.22.29-2.93,1.46-6.1,2.03-9.01.78-1.9,3.89-5.62,4.19-7.36.09-.52-.75-1.43-1.21-1.57-1.02-.31-1.63.42-2.59.43-.08-.54.03-.96.21-1.47,1.05-2.97,2.25-5.88,3.08-8.93l-1.85-3.52.17.33c.1-.04.18-.09.23-.14.1-.1.19-.28.33-.54.27-.51.67-1.27,1.33-1.85,4.4-3.89,10.21-8.35,14.17-11.24.19-.14.39-.3.59-.46.81-.64,1.63-1.29,2.58-1.2l.25.03.03-.25c0-.08,0-.17,0-.26,0-.12,0-.23.04-.34.32-.84,6.58-4.75,7.92-5.23.56-.2.93-.25,1.11-.13.2.12.25.5.32.98.06.4.12.86.3,1.33.2.54.44,1.07.68,1.58.81,1.73,1.57,3.37.43,5.26-.23.38-.65.74-1.1,1.12-.72.61-1.46,1.23-1.58,2.08-.17,1.21-.22,8.72.07,9.67.16.52.81.92,1.23,1,.35.07.52-.06.59-.15.07-.08.09-.2.14-.4.07-.31.18-.82.44-.96.09-.05.21-.05.35,0,.83.29,1.41,2.75,1.54,4.32.42,5.12-.57,7.53-2.2,11.52-.19.46-.38.94-.58,1.44-1.46,3.65-1.27,8.24-1.08,12.68.11,2.66.22,5.18-.01,7.47v.03s1.51,9.5,1.51,9.5l3.1.95c0,.64.21,1.4.4,2.14.18.69.35,1.34.32,1.74-.09.46-3.11,6.21-3.59,6.84-.44.58-.99,1.03-1.57,1.5-.34.28-.7.57-1.03.88l-.16.15.13.18s.05.17.06.29c.04.41.11,1.1,1.3,1.27,2.19.3,4.64.04,7.01-.22.93-.1,1.82-.2,2.67-.26.04.35-.11.45-.42.67-.1.07-.21.15-.33.24-1.13.92-2.98,1.79-4.28,2.36-.14.06-.25.09-.34.11-.55.14-.54.42-.43,1.19l.03.19,3.86.48c.02.23-.08.5-.18.76-.14.37-.29.75-.08,1.08.36.55,1.31.6,2.31.66.72.04,1.54.09,1.76.36.05.08,0,.42-.02.6-.04.34-.07.61.06.79.14.19.42.19,1.79.12.88-.04,1.98-.1,2.37.02.33.1.42.39.51.79.05.21.08.39.21.5.16.15.43.18.94.23.46.04,1.23.11,1.31.38.03.1.03.53-1.3,1.68l-5.06,1.52.18.28c1.07,1.64,2,1.23,3,.8.42-.18.84-.37,1.33-.44.44-.06.91-.04,1.41-.02.25.01.5.03.75.03l-1.81,3.16.18.13c.93.68,4.02.57,6.51.48,1.13-.04,2.41-.09,2.59-.01.11.09.1.15.09.18-.05.38-1.17.93-1.59,1.13-.34.17-.43.21-.48.31-.01.02,0,.05-.01.08,0,0,0,.01.01.02-.42-1.05-1.61-.3-2.28-.12Z"/>
    <path class="a3" d="M353.27,345.09l1.32-1.31c1.02,1.18.01,2.08-.56,3.04-.33.54-.47,1.56-1.24,1.52.08-1.1-.31-2.34.47-3.24Z"/>
    <path class="a3" d="M218.85,155.77c-.1.55-.2,1.1-.29,1.65-.04.23-.07.46-.1.69-.01.1-.02.2-.03.31,0,.05-.03.4-.02.14-.02.39-.49.66-.83.83.35-4.48,1.36-8.77,1.06-13.41.73.53,1.36,1.61,1.44,2.46.11,1.2-.03,2.44-.2,3.62-.17,1.27-.8,2.46-1.03,3.72Z"/>
    <path class="a3" d="M348.42,333.52c.3,0,.48.21.77.08.47-.34.08-1.7.32-2.03.22-.37,1.2-1.57,1.48-1.48.26.07.57,1.45.61,1.9.04.25-.18.54-.35.75-.36.73-.5,1.52-.73,2.36-.36,1.58-.68,3.08-.6,4.53-.04.05-.13.14-.17.19-.25.09-.32-.34-.42-.54-.1-.24-.23-.55-.37-.89-.52-1.01-.8-2.43-1.87-2.81-.02-.06-.05-.19-.07-.25v-.1c.12-.3.81-1.59,1.4-1.7Z"/>
    <path class="a3" d="M313.58,259.83l2.26.08c1.29,2.64-.25,1.9-2.05,2.06-.36.03-1.72.63-1.55-.35.04-.25,1.07-1.71,1.34-1.79Z"/>
    <path class="a3" d="M305.88,276.07c.15-.7.58-1.62.75-2.35.29-1.24-.17-3.35.08-4.51.04-.2.07-.22.2-.39.77-.98,1.65-2.05,2.48-2.98.51-.67,1.29-.62,1.8-.03.37.52-.1.92-.35,1.34-1.28,2.57-2.39,4.96-3.36,7.69-.64,1.94-1.09,5.22-3.65,5.33.16-.32,2.03-4.03,2.03-4.04l.02-.06Z"/>
    <path class="a3" d="M151.64,343.68c.03-.05.06-.11.09-.16l-.07-.04c.13-.3.24-.61.33-.92.52-.75,1.29-1.45,1.49-1.86.2-.41.14-.55.13-.64,0-.01,0-.03,0-.04,0-.02,0-.04.03-.06.32-.12.77-.25.99-.4l-.07,1.12s-.04.08-.05.12c-1.98,3.77-3.58,7.71-5.53,11.5h-.04s-.06.12-.06.12c-.16.32-.42.98-.64,1.56-.12.3-.25.64-.29.75-.19.06-.72.13-.93-.04-.03-.03-.12-.1-.05-.38.58-2.28,3.46-8.32,4.67-10.61Z"/>
    <path class="a3" d="M149.03,354.13h0s.02-.01.03-.02h0s-.02.01-.03.02Z"/>
    <path class="a3" d="M246.52,434.04s-.03.01-.04.02c-.01,0-.02,0-.03.01.01,0,.02,0,.03-.01.01,0,.03-.01.04-.02Z"/>
    <path class="a3" d="M142.31,327.21c-.09,0-.18-.01-.27-.01,0-.02-.02-.04-.03-.06.02,0,.04,0,.06-.02.66-.35,2.33-2.53,2.74-3.26.52-.91.83-3.52,2.05-3.83,0-.08,0-.16,0-.24.02-.16-.03-.35,0-.48-1.37,1.18-2.26,4-4.07,4.45-.94.23-.8-1-.73-1.7.16-1.63,3.62-6.75,4.8-8.15.52-.61,2.43-2.63,2.99-3.01.33-.22.71-.19.82-.28.08-.07,0-.31.06-.39.09-.12,1.5-.16,1.65.33.18.65-.91,2.37-1.32,2.98-.7,1.06-2.06,2.33-2.64,3.37-.16.28-.09.69-.12.72,0,0,.21.15.22.16.74,2.39-.84,2.64-1.9,4.4-.21.36-.24.83-.43,1.13-.83,1.33-1.97,2.69-2.56,4.18-.17-.06-.35-.11-.54-.15-.06-.17-.25-.24-.47-.28-.05,0-.11,0-.16,0-.06.05-.11.1-.17.14Z"/>
    <path class="a3" d="M177.42,350.09c.08,0,.17,0,.26.02.3.33-.84,4.36-1.18,4.82-.18.25-.48.34-.81.42.01-.11.02-.26.01-.4.03-.29.02-.67-.28-.61-.21.46-.45.9-.68,1.34-.08.05-.15.11-.21.18-.91,1.06-1.78,3.02-2.61,4.8-.79,1.29-1.6,2.56-2.4,3.84-.14.03-.29.02-.2.02,0,0,0-.01-.01-.01l-.02-.02.11-.17c-.15-.1-.38-.15-.66-.21-.41-.09-.92-.19-1.25-.49-.33-.3-.35-.69-.36-.91l-.05-.58,10.34-12.06Z"/>
    <path class="a3" d="M162.88,357.91l-1.48,2.46c-.17-.01-.34-.03-.53-.03-.07,0-.14,0-.2.01-.32-.53-1.09-1.4-1.5-2.05-.09-.18-.16-.36-.19-.55l2.75-4.98c.04-.1.02-.2,0-.3.07-.26-.09-.48-.17-.7,0-.06.01-.13.01-.19.14-.34.49-.65.4-1.05.02-.09.04-.18.02-.27-.29-.04-.54.11-.77.27-.36-.09-1.09.3-1.64.45-.27-.08-.43-.27-.47-.61,0-.06,0-.14,0-.2.02-.17.06-.35.1-.53.29-.76.77-1.81,1.26-2.82.46-.74.96-1.44,1.4-2.04,1.76-2.39,5.09-6.57,8.17-9.46,1.4-1.01,2.86-1.91,4.27-2.97.5-.14,1.04-.25,1.35-.41.81-.42,3.1-3.26,3.83-4.09l1.98-2.17c.14.13,0,.44-.19.93-.49,1.24-1.37,2.46-1.63,3.61-.24.5-.4.86-.38.94,0,.02.02.06.05.09-.03.09-.05.16-.05.18.05.24.94.82,1.18,1.72.05.18-.05.54.36.35.41-.18,1.15-1.62,1.52-2.09.24-.3.09-.4.55-.34-.25.64-.69,1.67-.84,2.4-.24.23-.53.5-.34.63-.13.18-.12.33.32.35.51.03.78.13.92.28v.25c-1.15,1.17-1.69,2.75-2.65,4.06-.15.21-.38.51-.66.88-1.41,1.71-2.93,3.4-4.21,4.93-.56.67-3.33,4.24-4.79,5.92-.37.38-.67.67-.85.8-.06.04-.15.08-.22.12-.23.01-.48-.03-.7.03-.2.06-.58.39-1.02.75-.9.34-1.85.67-2.57,1.06l-2.4,4.36Z"/>
    <path class="a3" d="M131.05,212.17c.12.38,1.83,1.78,2.25,2.32.22.28.48.69.59,1.07-.11.22-.29.43-.45.54-.04.01-.07.03-.12.04-.33.05-.92-.07-1.57-.24-1.46-.64-3.3-1.98-4.59-2.09.04,0,.07,0,.11,0,.03-.3,0-.81-.02-1.35-.02-.45-.05-1.1-.01-1.32.3-.12,1.33-.45,1.46-.46h0c.31,0,.53.2.77.43.19.18.39.37.66.47.3.11.59.1.82.08h.09s-.02.11-.01.16c-.02.14-.02.26.01.37Z"/>
    <path class="a3" d="M167.6,250.71c1,.61.09,1.74-1.28.8-.57-.39-.85-.84-.73-1.55.29-.29,1.64.52,2.01.75Z"/>
    <path class="a3" d="M180.95,247.56v-1.2c1.14.2,3.2-.27,4.2,0,.13.04.42.39.36.6-.14.45-.89.32-1.27.41-1.68.42-3.16.72-4.72,1.52-.39.2-.93.81-1.33.85-.54.04-2.77-.69-3.41-.93-.38-.14-.66.16-.54-.53,2.25.05,4.47-.53,6.72-.72Z"/>
    <path class="a3" d="M142.66,209.42c.95,1.13,1.71,2.43,2.74,3.5.14,1.18.17,3.18-1.17,1.65-.61-.69-1.75-3.19-2.11-4.13-.18-.49-.36-.98-.29-1.51.42-.08.6.21.83.49Z"/>
    <path class="a3" d="M149.42,286.14c-.93.72-1.87,1.44-2.8,2.15-.02.01-.03.03-.04.05-.27.12-.55.24-.82.36-.09.04-.16.1-.22.17-.19.07-.38.14-.57.21-.08.03-.14.07-.19.12-.15-.02-.31,0-.46.1-1.05.65-2.1,1.31-3.15,1.96-.27.17-.34.6-.14.85,0,0,.02.01.03.02-.08.04-.15.09-.23.13.07,0,.15.02.22.02-.26.1-.47.33-.43.63.05.31.33.6.67.55,1.12-.19,2.23-.38,3.35-.57.32-.05.6-.33.55-.67,0,0,0-.01,0-.02.03,0,.05,0,.07,0,.34,0,.62.14.77.4-.1.06-.19.12-.28.18-.7.38-1.41.76-2.11,1.14-.13.07-.23.26-.25.4,0,.02,0,.04,0,.06-.18.1-.36.21-.54.32-.28.18-.55.38-.82.57-.95.28-1.89.59-2.83.93-.22-.34-.13-.87.21-1.08.58-.36,1.14-.79,1.72-1.2-.14-.03-.27-.05-.41-.07-.03,0-.03,0-.04,0-.01,0,0,0-.04,0-.07,0-.15,0-.22,0-.13,0-.27.03-.4.05-.03,0-.06.01-.09.02-.06.02-.12.03-.18.05-.2.06-.39.15-.58.24-.21-.14-.47-.12-.69,0-1.42.77-2.83,1.54-4.25,2.31-.12-.34-.02-.71.27-.94,1.19-.95,2.52-2.2,3.99-2.87-.03-.04-.04-.09-.05-.14.25-.16.51-.32.76-.48.13-.08.22-.25.25-.4.02-.14-.01-.32-.1-.44,3.17-1.86,6.36-3.67,9.77-5.07.11-.04.2-.05.3-.05Z"/>
    <path class="a3" d="M129.12,234.31c.09-.22.28-.39.58-.43,2.27-.3,4.61.48,6.85.49.06.75-1.05,1-1.61,1.15-1.47.39-4.15.6-5.44-.22-.13-.08-.22-.19-.29-.3-.02-.23-.05-.46-.09-.69Z"/>
    <path class="a3" d="M165.11,334.54c.78-.47,1.99-2.19,2.88-2.64.47-.24,1.02-.04,1.53-.15.42-.09.79-.61,1.36-.44.1.41-.16.48-.36.72-.51.61-3.03,2.77-3.01,3.23,0,.21.18.38.21.54.07.37-1.52,1.69-1.89,2.11-3.73,4.18-7.37,8.98-11.98,12.25-.58.41-.98,1.29-1.93.71-.5-.3-.13-.47,0-.72,2.48-4.56,7.35-9.18,10.79-13.2.78-.91,1.52-1.86,2.4-2.4Z"/>
    <path class="a3" d="M125.76,249.64c1.52-1.13,6.51-3.54,8.31-3.93,1.7-.37,3.16-.74,4.64-1.16.25,0,.46,0,.57-.04.02,0,.03-.06.07-.14,1.01-.3,2.05-.62,3.2-.98.36-.11,2.09-.71,2.37-.59-.53.78-1.91,1.16-2.75,1.48-.93.36-2.29.47-2.88.72-.3.12-.93.39-1.77.75-.98.34-1.91.72-2.74,1.18-2.96,1.29-6.52,2.89-8.11,3.75-.23.02-.44.09-.61.3l-.07-.04c-.07-.04-.14-.08-.22-.13-.2-.13-.41-.26-.63-.28-.08,0-.16-.01-.24-.01.28-.25.61-.67.86-.86Z"/>
    <path class="a3" d="M302.14,440.15c-.03-.6.29-1,.26-1.56l-.51.34c-1.7.15-2.19,2.69-4.09,2.4-.6-.52.96-2.14.95-2.9.19-.6,2.1-3.26,1.73-3.67l-.58.32c-1.66-.04-4.2,2.22-4.63-.23,0-.04,0-.07-.01-.1.17-.58.95-1.01,1.53-1.39,2.07-1.33,4.51-2.35,6.57-3.75l1.56-.69c.29.47-.8,1.26-.93,1.68,0,0,0,.02,0,.03-.1.1-.19.2-.27.3-.93,1.31-1.16,3.03-.56,4.51.48.03.76.64,1.07.73.62.19,2.24.15,2.46-.6.2-.67-.31-1.22-.2-1.62.05-.18,1.63-1.72,1.91-1.94,1.51-1.16,4.17-2.54,5.91-3.45.15-.08.46-.24.83-.44,1.44-.66,2.75-1.18,3.68-1.43.73.2,1.93.68,2.46.82.76.2,1.82.02,1.5.98-1.47,1.22-6.98,2.86-8.55,4.18-.3.25-.82.85-1.38,1.57-1.33.94-2.62,2.09-2.26,3.71,0,.04.03.07.04.11,0,.05,0,.1,0,.13.05.19.17.34.34.45.64.63,1.86.6,2.7.32,1.09-.36,1.15-1.46,1.78-2.06,0,0,.04-.03.06-.05.6-.43,1.15-.77,1.58-.83.55-.08,1.15.01,1.74.03.25.07.49.14.69.15.97.07,1.77-.35,2.72-.25-.01.09-.04.19-.11.32-2.36,1.82-4.77,3.57-7.2,5.3-.21.15-.31.35-.38.51h0s-.22.14-.22.14c-.52.33-1.21.68-1.96,1.04-.96.47-1.94.96-2.63,1.47-.69.52-1.35,1.16-1.99,1.79-1.61,1.57-3.27,3.2-5.67,3.2-.04,0-.08,0-.12,0h-.15c-.15,0-.37,0-.41-.04,0,0-.03-.08.07-.34.22-.59,1.19-1.76,1.89-2.61.7-.85.93-1.14.97-1.31.03-.14-.02-.34-.61-1.84-.14-.37-.27-.7-.33-.88l-.06-.17h-.18c-.1,0-.2.02-.3.03.03.07.06.14.08.21h0c-.18-.53-.42-1.04-.61-1.57-.11-.37-.2-.74-.21-1.03Z"/>
    <path class="a3" d="M392.8,429.63c.08-.38,3-6.48,3.26-6.82.37-.49.8-.83,1.46-.7.14,1.02-.24,1.93-.48,2.88h0c.01-.05.03-.1.04-.16l-.04.04-.02.07c-.37,1.47-.96,3-1.52,4.47-.78,2.03-1.58,4.12-1.84,6.11,0,0,0,0,0,0,0,0,.01.01.02.01h0c-1.47-.62-1.14-4.74-.88-5.92Z"/>
    <path class="a3" d="M130.22,240.38c.16.04,2.02-.78,2.42-.91.27-.09.61,0,.88-.08.26-.08.44-.53.74-.44.21.06.58.64.86.83.15.1,1.01.61,1.07.61h3.72s0,.03,0,.04c0,.03-.01.06-.03.08l-.41.1c-.19,0-.41-.03-.6.02-1.79.47-3.69,1.04-5.56,1.4-.44.08-1.39-.18-1.55.37v-.05h-4.06c-.09-.37-.08-.64.02-.8.13-.21.45-.28.79-.35.36-.08.77-.16,1.04-.46.22-.25.17-.62.15-.84,0-.01,0-.02,0-.03.19.17.37.46.54.5Z"/>
    <path class="a3" d="M363.48,431.28c.23-.26,6.42-2.19,6.68-1.97.62.55-.75,1.29-1.11,1.53-1.39.93-2.93,1.62-4.17,2.79h0c.09-.09.19-.15.29-.23l-.29-.03c-.35-.04-.77-.16-.98-.76l-.25-.71-.21.65h0s0,.06,0,.1c.09-.36-.17-1.13.04-1.36Z"/>
    <polygon class="a3" points="314.48 442.27 314.48 442.27 314.48 442.27 314.48 442.27"/>
    <path class="a3" d="M347.6,436.03s.02-.04.03-.06c0,.02-.02.04-.03.06h0Z"/>
    <path class="a3" d="M248.2,433.04s0,0,0,0c0,0,0,0,0,0Z"/>
    <path class="a3" d="M107.05,127.57l.07.51c.09.66.15,1.36.21,2.03.21,2.41.43,4.91,2.04,6.54l.06.06.99,6.2,1.44-.48.05.29c.15.94.65,1.72,1.18,2.54.34.54.7,1.09.97,1.72.51,1.18.9,2.5,1.26,3.78.33,1.16.68,2.36,1.12,3.44.75,1.82,1.48,3.46,2.19,5.04,1.52,3.41,2.96,6.63,4.19,10.88-.09.16-.2.32-.34.47.31-.3.45-.7.63-.9,0-.04,0-.08,0-.11.05.01.11,0,.17,0,.03,0,.05,0,.07,0,.04.01.1.01.15,0,.13,0,.26-.04.33,0,.08.04.96,1.24,1.07,1.45.48.88.84,1.92,1.24,2.93.31.61.63,1.23.94,1.84l.59.02c-.01.1,0,.18,0,.27-.02.13,0,.25,0,.37.08.6.38,1.11.68,1.68,2.71,5.15,5.71,10.8,8.72,15.75,1.03,1.69,2.72,4.44,3.93,5.91.15.19.29.33.4.43.34.14.64.1.9,0,.21-.19.43-.43.85-.43,1.43,0,2.18,3.14,2.71,4.25.64,1.34,1.32,2.66,2.05,3.97,1.89,3.2,3.87,6.13,5.96,9.31.58.8,1.17,1.6,1.77,2.38,1.05,1.36,1.27,1.27,1.83,2.97.04.12.1.25.16.39,1.24,1.91,2.56,3.99,2.7,4.46,0,.01,0,.02,0,.04.26.28.55.46.47.96.02.12.02.26-.03.45-.16.56-2.14.32-2.83.6.17.84.99,1.66.94,2.5,0,.02-.01.04-.02.07,0,.07.02.14.02.21-.03.47-.4.71-.83.58-.15-.04-1.97-1.87-2.17-2.15-1.07-1.43-1.62-2.81-2.58-4.13-1.08-.91-2.24-1.69-3.21-2.8-.13-.07-.24-.11-.36-.15-.58-.19-1.14-.15-1.53.38-.19.26-.27.46-.3.64.05.25.19.42.15.62,0,.02-.02.04-.02.05.02.07.04.14.02.22-.06.29-.78.65-.9,1-.02.18-.04.36-.06.54.06.6.28,1.18.25,1.63.02.15.02.29-.01.42-.1.47-.65,1.04-1.03,1.57-.11.22-.22.43-.33.63,0,.01-.01.03-.01.04-.05.23-.07.47-.08.72.01.79.21,1.6.65,2.2,1,1.36,1.85.2,3.31.53.88.19,1.43.96,1.95,1.46,2.23.73,4.45,1.51,6.7,1.94v-.42c-.12-.18-.18-.35-.12-.51-.05-.16-.03-.31.12-.43v-.09c.2-.07.38-.09.55-.09.96-.09,1.43.95,2.24,1.34.88.42,1-.48,1.44-.97.74-.82,2.18-2.37,3-3,.37-.29.69-.28.99-.15.05,0,.1,0,.14.02l.26.22c.13.09.26.19.41.29.59.42,1.4,1.18,2.14,1.81.2.17.39.33.58.48.24.19.46.35.65.46v.08s.57.47.57.47c-.15.04-.34.04-.57.02v.18c-.6-.12-1.14-.35-1.7-.52-.13-.03-.26-.07-.4-.1-.18-.04-.35-.08-.54-.1-.23-.02-.48,0-.72,0v-.23c-.38-.1-.73-.18-1.06-.24h-.86c-.04.15.03.35,0,.48-.1.33-.18.56-.2.79.02.09.05.18.09.29.69.77,4.65,2.13,5.81,2.7,0,0,.02.01.03.02.17,0,.35,0,.51,0-.02.1-.03.19-.04.27.01,0,.03,0,.04,0,0,.03,0,.04,0,.07.35.28.67.6.88.64.25.05.57-.13.97-.28l.08-.22c.39.09.99-.05,1.44,0,0,.08,0,.17.03.25.3.19.57.53.86.87.14.04.26.05.31.08.09.06.48.42.83.76.11.02.23.04.35.03-.22-.53-.36-1.2-.47-1.48l.02-.2s-.02-.06-.02-.07l.15-1.22c-.05-.2-.09-.37-.13-.47l-1.46-1.4c-.03-.09,0-.24,0-.37,0-.12.02-.26,0-.38.06-.04.1-.08.14-.12-1.06-5.1,6.63-.49,8.09-1.99.19-.19-.31-2.92.98-3.34.03,0,.07,0,.11,0,.04-.09.06-.2.04-.31.08-.01.16,0,.24,0,.16,0,.32,0,.48,0,.02.02.45.23.48.24v.14c.43.08.84.17,1.21.48,0,.01.02.02.03.03.19.11.34.24.49.38.26.13.56.25.8.39.04,0,.06.02.1.02,0,.02,0,.03,0,.05.22.14.38.3.37.52.11.08.17.21.13.47.03.1.03.23-.03.44-.08.02-.22-.03-.24,0h-.42s-.04.04-.06.07v.14s0,.27,0,.27c-.71.2-.84.49-1.2.72-.02.01-.05.02-.09.03-.37.32-.73.65-1.05,1.01-.02.05-.03.1-.06.17-.11.27-.18.4-.24.72h-.35c-.05.09-.09.19-.13.29v.19s-.01.03-.02.06c.01.25.04.57.03.77,0,.15,0,.28,0,.36,0,0-.06.02-.12.06.64.45,5.27-.79,6.21-1.21,1.46-.65,5.77-3.9,6.89-3.57.12.04.41.27.67.52.28.27.54.56.58.67.13.44-.21.71-.5.97,0,.02.18.13.18.13-.02.06-.05.15-.08.22l.08.05c-.07.19-.18.52-.24.72h-.48s0,.48,0,.48c-.11.05-1.63,1.57-1.68,1.68h-.47s0,.48,0,.48c-.08.01-.23-.02-.24,0h-.48s0,.21,0,.21c0,0,0,.27,0,.27-.08.01-.23-.02-.24,0h-.48s0,.21,0,.21c0,0,0,.27,0,.27-.32.06-.48.17-.72.24-.4.12-.87.11-.96.42,0,.01,0,.02,0,.03-.03.07-.03.16,0,.27-.15.03-.34-.03-.48,0-.88.22-1.59.71-2.4,1.08-.15.07-.48.15-.77.23-.05.06-.09.12-.11.17-.02.06-.02.1-.03.15.1.01.17.01.18.02.02.02.03.32.03.58,0,.12,0,.26,0,.38.41.16,1.18-.06,1.76.29.53.32.49.72.18,1.13,0,.14,0,.3-.04.52-.19.21-.31.42-.49.59-.57.54-.51.45-1.19.61-.87.2-1.55.63-2.39.73v.47c-.65.18-.91.13-1.69.48-.07.03-.16.04-.25.05.01.17.1.32.28.4.13-.03.33.04.46,0,.2-.03.34-.07.48-.1v-.14c1-.06,1.96-.39,2.98-.25.1.01.13.08.14.15.18.1.26.28.08.65-.04.09-.1.17-.18.24-.16.44-.3.5-.78.47-.1.04-.21.08-.32.12v.06s0,.27,0,.27c-.16.01-.32-.01-.48,0-1.25.12-2.64.46-3.83.85-.06.02-.13.03-.21.05,0,.37.07.89.27,1.07.02.04.06.08.09.11.03.01.05.03.08.04l.54.78c1.73,2.05,4.5,4.27,5.55,6.25.1.19.19.5.27.86.06.17.1.34.12.52,0,.04,0,.08,0,.12.18,1.06.28,2.23.36,2.32.5.58,4.02,1.06,5.7,1.4.3,0,.61.03.9,0,0,.09,0,.18,0,.27.65.38,2.38,1.56,3.11,2.14.26.08.44.21.49.23v.72s0,.27,0,.27c-.05.02-.53.57-.72.72l-1.91.49v.47c-.24.02-.49-.01-.73,0-.43.02-.78-.09-1.07.2.13.39.6.35,1.04.32.02-.04.03-.07.04-.08.2-.05.49.03.72,0,.04.1.06.19.07.27.09.14.12.37.02.76-.29,1.13-8.74,1.62-9.73,1.64-.02,0-.05,0-.07,0-.84-.03-1.68.02-2.52,0l.15-.19h-.3c-.21-1.23.21-.89.84-.99l.03-.04s.09,0,.14,0c.03,0,.05-.01.08-.02.32-.12.76-.24,1.23-.39,0-.03,0-.04,0-.07.07,0,.16,0,.24,0,.4-.13.82-.27,1.2-.45,0-.01,0-.02,0-.03.02,0,.05,0,.07,0,.25-.11.48-.24.68-.38,0-.01,0-.02.01-.03.03-.04.08-.06.14-.08.22-.17.41-.37.52-.59,0-.06,0-.11,0-.11,0,0,.03,0,.04,0,.06-.14.1-.29.1-.45h-.14c0-.08,0-.16,0-.24,0,0,0-.02,0-.03,0-.08,0-.16,0-.24,0-.01,0-.02,0-.04-.06-.07-.15-.17-.25-.26-.29-.13-.74-.31-.85-.34h-4.06s-.84.2-.84.2c-.16-.01-.32.01-.48,0-.55-.05-1.13.04-1.68,0v.21s0,.27,0,.27c-.16.01-.33-.02-.48,0l-.13-.23c-.08-.01-.16,0-.24,0-.17.05-.35.1-.53.12l-.06.1c-.06-.02-.42-.02-.48,0l-.06-.09c-.12-.02-.23-.05-.33-.1v-.04h-.09c0-.18,0-.33,0-.47,0-.26,0-.49.02-.7,0-.46-.12-.82-.67-1.28-1.57-.2-3.16-.34-4.67-.72l-.2.04c-.16-.02-.32.01-.48,0-.89-.08-1.72.29-2.27.25-.35-.02-.68-.32-1.05-.45h-.67c.05-.68-.12-1.45.06-2.1.17-.61,1.32-1.1,1.39-1.75-.11-.01-.25.01-.34-.03-.04-.02-.69-.44-.72-.48-.03-.03,0-.15.01-.26-.02-.03-.02-.07-.01-.13-.61-.08-1.26,0-1.33-.07-.03-.03-.04-.11-.04-.2-.02-.02-.05-.03-.07-.05.02-.1.02-.17.03-.25,0,0-.02-.01-.03-.02.02-.1.02-.18.03-.26-.06-.54-.46-.46-.51-.67-.02-.07,0-.17,0-.26-.13-.09-.3-.15-.51-.22-.12,0-.24,0-.33,0-.83-.15-1.45-.12-2.17-.23-.6-.09-1.47-1.31-1.79.23-.51.1-.99.38-1.53.21-.19-.06-.44-.36-.73-.6-.25-.1-.45-.15-.53-.05-.02.03-.01.24-.03.5l.18.62s-.05.02-.07.03l.07.24c-.19.09-.37.19-.56.28-.36.4-1,.66-1.46.95-.19.27-.36.56-.55.79.07.07.17.09.18.11.21.83,1.03,1,1.32,1.67.31.71.23,1.66.12,2.44-.23.05-.39.13-.51.24-.07.21-.12.4-.12.52.01.59.65,1.12.44,1.85-.01.05-.04.1-.06.15.02.12.02.23,0,.33,0,.1.01.19,0,.27-.08.02-.22-.03-.24,0h-.1c-.11.15-.24.3-.38.45-.02.03-.04.05-.06.06-.72.79-1.59,1.57-1.57,2.76l.19.05c-.02.11-.02.2-.02.27.01.02.01.03.01.05.08.29.51.15.97.16.04.14.04.26.02.39.05.33-.11.62-.3.87-.07.19-.15.41-.24.64.02,0,.03.01.04.02.03.08,0,.17-.02.26.1.25-.16.53-.22.73h-.19c-.11.27-.2.47-.23.5-.05.05-.12.07-.18.1-.06.06-.11.11-.11.12-.98.21-1.6-.32-2.48-.47l.08.68s-.02.02-.03.03l.03.24c-.14.09-1.21,1.29-1.45,1.56-.45.49-1.03,1.2-1.43,1.8-.47-.05-.76.24-.72.72-.13.09-.26.39-.41.64.01.37.2.54.67.39,0-.03,0-.06-.01-.09.15-.05.66-.27,1.16-.49.45-.26.97-.57,1.48-.86v-.09s.1,0,.17,0c.28-.16.54-.3.79-.43v-.05s.06,0,.09,0c.55-.28,1-.46,1.19-.4.53.14.69.48.65.93v.28s.23.15.23.15c-.03.07-.06.14-.09.21l.09.06c-.22.58-.57,1.19-.72,1.68h-.47s0,.48,0,.48c-.04.02-.4.59-.48.72-.08-.03-.18,0-.27.04-.25.53-.34.96-.1,1.18.23.2,1.02.08,1.32.66.08.17.13.34.12.57,0,.07-.05.22-.11.39v1.2s0,.27,0,.27c-.04.03-.13.62-.37.95-.4.57-1.45,1.5-2.03,1.92-.73.54-1,.27-1.44,1.44-.22.59-.44.63-.48.72h-.48s0,.21,0,.21c0,0,0,.27,0,.27-.26.09-.45.16-.72.24-1.1.32-.65.35-.99.68-.07.07-.22.05-.37.04-.11.09-.22.19-.33.28.01.08.03.16,0,.2-.06.12-.23.06-.4.14-.05.05-.1.09-.15.14-.07.09-.13.23-.17.44-.14-.02-.26,0-.36.05-.1.1-.19.19-.29.28-.05.11-.08.24-.07.39-.28.22-.38.68-.48.96h-.4s0,.07-.01.1l.18.11c-.01.06-.02.16-.02.26,0,.06,0,.13,0,.2,0,.1,0,.19.02.26-.02.02-.02.05-.01.08.08.07.19.11.33.09.77-.82,2.18-2.25,3.04-2.7.18-.09.47-.09.48-.11h.12c.67-.23,1.43-.38,1.64-.15.06.06.47,1.52.45,1.61-.04.17-.32.55-.71,1.01-.1.14-.21.28-.31.44-.03,0-.06,0-.09.01-.35.39-.74.8-1.1,1.16,0,0,0,.02,0,.03-.15.26-.34.46-.48.72-.11,0-.2,0-.29,0-.14.13-.26.23-.34.29-.04.03-.17.02-.33.03-.15.2-.21.5-.24.87-.5.04-.77.59-.96.72-.5.35-1.25.61-1.69,1.07-.19.2-.94,1.35-1.14,1.79.02.09.05.16.09.22.34-.03,1.16-.91,1.31-1.07.21-.22.58-.85.76-1.02.2-.19.57-.1.67-.54h.96c0,.09-.02.18-.03.27h.03s0,.03,0,.05c.03,0,.06,0,.09,0-.03.12-.09.28-.15.45-.06.45-.16.87-.27,1.31.07.17.25.26.65.15.14-.12.3-.21.46-.3.18-.13.35-.24.54-.27.05,0,.09,0,.14,0,.83-.25,1.74-.31,2.49-.61.91-.35,4.67-2.6,6.37-3.1.15-.09.28-.15.37-.12.01.01.02.03.03.04.19-.02.33,0,.4.07.02,1.33,1.88,1.8,1.39,3.06-.13.74-.95,1.19-1.45,1.78-1.81,2.11-3.8,4.24-5.87,6.13-.23.21-.78.53-1.17.86-.08.24-.1.48-.1.73.07.07.12.14.15.21.05.17.06.38.06.6.2.33.54.56,1.03.55,1.12,0,2.93-3.02,4.32-3.37.87-.77,4.77-5.76,5.5-3.11.06.22,0,.5-.09.79-.05.5-.23,1.16-.35,1.64.08.14.26.22.58.22.14-.08.26-.19.37-.32.06-.47.27-.91.52-1.32.86-1.39,5.45-8.13,6.45-8.43,1.1-.33,1.47.14,1.47.91.06.18.08.39.06.63.06,1.11-.87,2.88-1.21,3.49-1.32,2.33-3.13,4.46-4.63,6.65-.66.96-1.35,1.99-1.66,3.11.14.14.37.18.66.05.78-.36,2.01-2.3,2.88-2.88l.24.72c-.04.09-.09.18-.13.26.01.01.02.02.04.04-.19.58-.54,1.1-.88,1.62-.54.99-1.13,2.01-1.71,3.02-.75,1.42-1.61,3.12-1.99,4.14-.27.8-.2,1.11.58,1.71l9.61-18.23.34-.16c.28-.46.56-.85.66-.88.34-.1.76-.09,1.06.1l.09-.04s.07.12.08.2c.02.03.05.04.07.07-.03.07-.05.13-.08.2.03.03.06.04.08.07-.61,1.6-1.23,3.19-1.97,4.75-.27.57-.75,1.25-1.12,1.91-.03.2-.02.37.06.47.37,0,.74-.43.97-.71,2.92-3.56,4.19-8.2,5.98-12.26.12-.27.67-1.49,1.32-2.65.11-.21.21-.42.32-.62.21-.37.96-1.47,1.3-1.58.04-.01.08,0,.12,0,.21-.1.39-.1.54.07,0,.03,0,.05,0,.08.09.06.15.13.15.19v3.6s0,.27,0,.27c0,1.04-1.53,5.39-1.97,6.67-.74,2.16-1.63,4.29-2.46,6.41-.14.35-.37.66-.5,1.01.48-.07,1.72.14,1.88-.02.18-.18,1.32-3.98,1.7-4.78.39-.84.87-1.62,1.36-2.39.63-1.25,1.39-2.63,2.08-3.52.21-.61.36-1.2,1.11-.87.43-.03.83.38.89.82,0,.04,0,.08,0,.12.1.44.01.9.12,1,.06.06.28.07.55.09.01,0,.02-.02.03-.02.5-.25,1.1-.26.97.32.2.16.33.39.26.77-.19,1.14-.79,2.95-1.13,4.17,0,.01,0,.02,0,.03-.46,1.89-1.6,3.95-1.77,5.66,0,.08,0,.16,0,.24-.18.03-.28.1-.35.19-.03.11-.07.22-.1.33-.01.17,0,.33-.03.44,0,.02-.08.17-.14.3-.11.48-.2.96-.25,1.44l-1.28-.43c-.16.16-.16.54-.35,1.1-.11.31-.2.45-.27.68-.02.06-.03.12-.05.18-.02.09-.04.19-.05.32,0,.07,0,.15,0,.22,0,.08,0,.15,0,.23,0,.09,0,.18,0,.27h-.22c-.32,1.24-.63,2.49-.85,3.76-.04.36-.09.73-.17,1.15-.05.38-.09.76-.11,1.14h.87s.01-.06,0-.09c.32.01.64-.02.96,0,0,.03,0,.06,0,.09h.09c0,.38.05.77-.06,1.14,0,.03-.02.06-.03.08,0,.05,0,.11,0,.16-.03.18-.17.69-.24.96-.04-.01-.08-.01-.12-.02-1.16,3.37-3.29,7.34-4.85,10.89-.88,2.2-1.7,4.42-2.44,6.67-.18.57-.36,1.14-.54,1.71-.49,1.63-.93,3.28-1.3,4.97-.05.25-.09.48-.11.72,0,.15-.01.3,0,.46,0,.09,0,.18,0,.27-.13.06-.21.54-.24.72h-.48s0,.21,0,.21c0,0,0,.24,0,.24v.03s.01.16,0,.24h-.48s0,.21,0,.21c0,0,0,.24,0,.24v.03s.01.16,0,.24h-.43s-.03.07-.05.11v.1s0,.26,0,.26c0,.08.01.16,0,.22,0,.09.02.2,0,.27-.17-.09-.3-.04-.42.09-.19.42-.3.8-.22,1.32.12.04.37-.03.4,0,.01.01,0,.11,0,.22,1.72.42,2.52-1.32,3.27-1.53,1.09-.31,2.58,1.56,2.8-.51l.4-.63c0-.06,0-.12,0-.18l.12-.02.69-1.08c0,.28.08.59.2.9l.2-.04c.03.13-.02.3,0,.44,0,.01,0,.02,0,.04,0,.05.02.09.03.13.24.57.5,1.12.46,1.56-.02.23-.09.49-.18.75,0,.2-.03.43-.06.71,0,.03,0,.07,0,.1,0,.04,0,.07,0,.11,0,.09,0,.18,0,.27h-.44s-.03.05-.04.08v.13s0,.27,0,.27c0,.08.01.16,0,.21,0,.1.01.2,0,.27-.12.01-.33-.03-.42,0-.08.18-.16.35-.24.52-.16.54-.37,1.34-.49,1.73-.03.48.12.54.76.45.29-.18.59-.34.89-.51,0-.02,0-.04,0-.06.05-.01.12-.03.2-.04.33-.19.67-.38,1-.56v-.12c.07,0,.14,0,.21,0,.41-.22.83-.45,1.24-.67,0-.02,0-.04,0-.06.05-.02.13-.03.21-.05.33-.17.66-.35.99-.52v-.15c.07-.01.17,0,.27,0,.23-.12.46-.25.69-.38v-.11c.05,0,.12,0,.2,0,.26-.14.51-.29.76-.43v-.05s.05,0,.08,0c1.92-1.11,3.75-2.34,5.29-3.98.66-.11.74.03.73.31,0,.1-.02.23-.02.37.1.26.11.62.28.9.09.15.19.26.28.36.31-.03.67-.06.89-.02.24.05.49.2.72.4.4.07.42.15.63.22l.03.34.21.14s-.02.15-.02.26c.01.06,0,.14,0,.24,0,.1,0,.18.02.23-.02.12-.01.22,0,.27l-.21.14-.03.34c-.08.04-1.06,1.22-1.2,1.44-.81.33-1.64.87-2.4,1.32-.37.22-.79.25-.72.84-.15.03-.34-.03-.48,0-.25.06-.6.16-.95.31-.3.25-.71.61-1.18,1.01,0,.04-.03.07-.03.11-.04.01-.08.01-.12.01-1.7,1.46-4.03,3.43-4.49,3.35-.61-.11-1.34-.05-2.13.12-.16.09-.31.11-.47.11-.58.15-1.18.35-1.8.58-.5.33-1,.7-1.3.87-.27.15-1.64.64-1.68.72l-.34.03-.14.21c-.14-.05-.68.16-.72.24l-.34.03-.14.21c-.12-.03-.32.01-.48,0-.04,0-.09,0-.13,0-.09.04-.16.07-.25.1l-.04.4-.56.22c-1.35.54-2.75,1.09-4.21,1.27.04.32.2.6.47.83.7.6,2.11.79,3.06.62l.18-.03.08.17c.05.09.1.21.15.33.14.31.31.69.51.98,0-.35-.01-.7,0-1.05.35-.04.81-.12.96-.48.15.01.33.01.48,0,.63-.06.71-.37.96-.48.04-.02.12-.04.22-.06.07-.18.11-.37.11-.59,1.48-.51,5-2.22,6.08-2.31.53-.04,1.12.41,1.82.42,2.66.04,3.66.27,5.79-1.45.98-.79,4.04-4.72,4.36-4.79.69-.15,1.61,1.07,2.3.91.38-.09.69-.78,1.26-.93.03,0,.07-.01.11-.02.17-.31.38-.56.76-.53.26,1.22.17,2.51.34,3.73l.23.18c.06.26-.13.74.05.92.19.19.7-.03.91.04l.42.42c1.15.04,2.42.02,3.29.58.37.15.73.37,1.09.69.08.07.14.13.2.19.59.05,1.43.07,1.14.8-.36.94-1.04.34-1.29.38-.37.07-.34.7-.5.95-1.77,2.71-8.95,5.2-12.06,6.18-.37.12-2.13.47-2.22.54-.07.05-.01.61.08.89.49.19,1.59.56,2.02.77,3.04,1.45,2.9.59,5.64,1.03.23.04.27.22.27.42.05,0,.1,0,.15.01v.59c1.15.82,6.15-3.15,6.88-3.36.79-.23,1.52.64,2.3.43.33-.09.5-.57.67-1.15.02-.27.05-.55.09-.84.05-.05.15-.14.27-.24.34-.8.89-1.44,2.1-1.12v.53c.3,1.01.11,2.97.14,3.78.59.06,2.05.32,2.25.49.03.02.04.36.04.7.12.25.17.54.11.89-.72.19-2.76,1.06-3.75,1.92-.22.32-.34.67-.23,1.04.19.65,1.39.44,1.5,1.23.25.2.4.43.32.72-.11.39-2.48,1.78-2.63,2.65l-3.46,2.6c.05.07.1.15.19.24h3.12c-.02.14-.04.28-.05.42l.21-.02c.14.14-.25,1.44-.51,2.38-.14,1.24-.23,2.47-.13,3.75.01.04.02.09.04.11.01.02.03.03.04.04,2.91-1.22,5.83-3.25,8.72-4.39.9-.35,1.79-.6,2.7-.81.7-.22,1.35-.36,1.89-.38.14-.02.27-.05.41-.07.65-.11,1.41.03,1.58.64.01.04,0,.08.01.12.01.01.03.02.04.04.91,1.34-1.7,2.91-2.41,3.86l-5.64,4.45c-.03.1-.02.19-.02.27.16.22.4.43.57.65.45.23.98.38.88.74-.09.31-4.53,2.78-5.27,3.37-.55.44-1.72,1.52-2.17,2.03-.17.01-.31-.05-.44-.15v.07s.04.09.04.13c.03.25.01.65,0,1.05-.01.24-.03.55-.02.71.14,0,.4-.03.55-.04.26-.03.48-.05.64-.03l.77.15c-.32.05,4.66-1.07,7.2-2.04.28-.11,2.37-1.35,2.88-1.1.31-.16.63-.32.93-.48.26-.13.41-.37.53-.43.27-.13.49.08.36.36-.2.43-1.37.96-1.8,1.32-.21.18-1.39,1.33-1.53,1.53.07.38.27.68.76.45,8.76-3.36,16.56-8.55,24.51-13.42.03.08.05.15.05.21.48-.34.95-.67,1.42-1.01.29-.1.49.08.36.36-.36.77-2.42,1.76-2.61,2.43,0,.02,0,.04-.01.05-.2,1.96,2-.11,2.78-.53,1.9-1.01,4.12-2.21,6.07-3.05,1.09-.47,3.3-1.69,4.45-1.17.58.14.99.78.73,1.19-.28.44-1.91,1.97-2.41,2.4-1.91,1.65-4.32,2.91-6.35,4.44l-.39.43c.46.32,5.42-2.05,6.56-2.31.43-.1,1.15-.24,1.85-.35.93-.25,1.83-.44,2.66-.53.85-.09,1.62.01,2.18.27.15.01.29.02.42.04.4.05.46.3.34.64.27.54.09,1.28-.78,2.17-1.59,1.63-3.91,2.56-5.99,3.6-.51.58-1.03,1.29-1.49,1.75-.82.83-2.05,1.6-2.9,2.56-.42.96-.71,1.94-.77,2.7.21-.08.6-.3,1.07-.64.12-.19.23-.37.35-.5.7-.76,1.53-1.57,2.45-2.39.24-.44.35-.87.28-1.24.39-.38,1.11-.32,1.44-.48.5-.24.35-.33.48-.48,1.37-1.61,1.41-1.16,2.7-1.61,1.19-.81,2.42-1.56,3.65-2.21.62-.41,1.26-.8,1.95-1.08,1.19-.48,6.15-2.22,6.58-.62,0,.03.01.07.02.1.11.18.17.39.15.66-.03.41-.73,1.35-.93,1.81.02.03.03.05.05.08,2.99-.96,6.63-2.82,9.7-3.26.23-.03.77-.07,1.37-.1.16-.02.32-.06.48-.07.26-.03.52-.01.76.02.71-.02,1.3,0,1.36.05.27.26.26.63.1,1.03.07.32.02.7-.22,1.14-.14.24-.91.92-1.36,1.45-.02.09-.01.17.04.22.95-.25,2.6.29,2.87,1.23.04.15-.01.33-.13.53-.08.84-1,1.95-2.23,2.97-4.04,3.37-9.43,5.02-13.33,8.51l-.67.97c.1.23.4.32.77.2l12.09-7.11c.77-.15,1.52-.36,2.26-.6.58-.24,1.15-.44,1.71-.62,3.47-1.42,6.64-3.53,9.95-5.01,1.59-.71,3.55-.81,3.6.56.11.18.21.37.26.63.34,1.53-2.12,3.91-3.2,4.88-3.31,2.97-7.33,5.85-10.91,8.52-1.84,1.37-5.95,4.86-7.92,5.52-1.08.36-2.84.48-3.49-.61-.47-.8-.44-1.64-.07-2.47.04-.09.15-.25.28-.42,0-.05,0-.1,0-.15-.02-.36.02-.69-.18-.78-.11.06-.21.12-.31.17-2,1.11-6.59,4.09-8.59,4.37-.52.07-1.37.15-1.95-.04-.06,2.5,5.67.75,6.24,1.32v.03c.13-.04.26-.08.39-.11.08.08-.21.86-.39,1.76v2.16c.06.16.15.3.26.41.04.04.1.08.15.12,1.6.11,2.38-1.08,3.34-2.29.16-.2.27-1.3.9-.75.18-.17.35-.32.53-.44-.09.54-.27,1.36-.38,2.22-.02.58-.04,1.16,0,1.45.08.63.54,1.24.5,1.94.09.09.19.17.3.23h1c.06-.28-.02-.73.07-1.13.29-1.33,2.81-3.37,5.02-4.99,1.85-1.55,3.72-3.02,4.64-3.71,2.34-1.76,4.9-3.57,7.44-5.27.29-.45.59-.93,1.21-.84.02,0,.02.01.03.02,1.22-.8,2.43-1.56,3.6-2.27.46-.28,1.46-.68,2.32-1.08.11-.11.22-.21.32-.24.07-.02.15-.02.22-.02.45-.23.82-.45.94-.62.06-.09.14-.45.22-.92-.01-.03-.03-.05-.04-.08-1.02-2.4-.44-4.48,1.48-6.08.24-.58.5-1.04.72-1.11.51-.15,1.53.86,1.64,1.26.02.06.02.13.03.2.12.06.25.11.4.14v.36c-.18.19-.37.41-.56.63-.55,1.47-2.08,3.08-1.52,4.14,1.89,3.6,5.12-.43,7.29-.9.95-.2,1.9.05,2.79-.08,1.49-.23,2.74-1.3,4.23-1.41.11-.05.22-.1.33-.15.3-.12.52-.27.89-.19l-.67,1.61c-.1.33.03.75-.16,1.04-.3.46-1.79.51-1.8,1.36.53-.04,1.53-.37,1.99-.37,1.57,0,3.27,1.48,5.04,1l-.04.05c1.06-.35,2.2-1.1,3.31-1.33l-.88.92-3.2,1.48c-.06.05-.07.1-.07.16.76.81,2.38,1.58,3.3.9.09-.19.17-.42.35-.67.05-.19.1-.38.19-.47.24-.24,1.85-.73,2.48-1.13,3.68-2.36,6.93-5.35,10.71-7.53,3.26-1.88,7.43-4,11.21-3.91.02.21-.02.4-.09.58.2.89-.93,1.61-1.79,2.24.12.14.47.09.68.06,1.48-.23,6.97-3.32,7.43-2.89,0,.1-.01.2-.04.31.29.25.05.79-.32,1.38-.52.84-2.44,3.18-3.69,4.44.45.21,1.3-.41,1.65-.61,1.63-.9,4.28-2.82,5.99-3.13.45-.08,1.65-.16,1.2.72-.21.42-2.56,2.66-3.11,3.13-1.32,1.12-5.81,4.34-7.28,4.72-2.13.55-1.12-.73-2.23-.87-.32.55-1.04,1.42-1.49,1.84-.36.34-1.06.42-1.09.47-.04,0-.08,0-.12,0-.41.16-.88.22-1.48.07-.05-.2-.07-.38-.08-.56h0c-.03-.21-.02-.5,0-.72h.06c.11-.5.37-.95.68-1.36,0-.13.02-.27.22-.32,0,0,.02,0,.03,0,.15-.18.3-.36.45-.54v-.18c.3-.34.56-.64.84-.94.08-.14.15-.28.21-.43.22-.59-.12-.94-.71-.71-.03.01-.06.03-.09.04v.36c-1.49.41-2.82,1.72-4.56,2.16-.28.07-.65.24-.85.25-.15,0-.29-.03-.42-.08-.33.15-.61.3-.89.48-.06.29-.09.61-.24.79-.31-.05-.73-.02-1.09.1-.14.09-.27.18-.42.29-.3.2-.59.44-.87.68,0,.04-.02.08,0,.13-.13.05-.26.13-.38.19-.17.14-.33.26-.49.37-.04.03-.12.03-.21.02-.58.38-1.22.92-1.68,1.33-.46.41-3.11,2.97-3.23,3.24-.03.07-.03.11-.03.16.06.08.14.15.24.21.04,0,.08.01.1.03.04.03.07.05.11.08.68.3,1.76.31,2.3.2.14.72.09,1.21-.09,1.57v.27s.04.35-.23.6c-.17.15-.69.29-.73.36l-.34.03-.14.21c-.71-.16-1.27.06-1.72.45,0,0,0,0,0,0-.46.39-.82.94-1.15,1.47-.18,0-.32.02-.43.08-.1.1-.2.2-.3.31-.09.17-.14.38-.22.58-.07.16-.17.32-.24.48-.47-.05-.76.24-.72.72-.04.02-.18.36-.24.48-.47-.06-.76.24-.72.72-.3.14-.19.26-.24.48h-.48c-.05.15.04.37,0,.48-.28.73-.82.81-.96,1.44-.48-.05-.77.26-.72.72h0c0-.08,0-.15.02-.22l.32-.11-.28.54s-.02.11-.03.18c-.03.2-.07.47-.21.76-.22.47-.62.97-1.04,1.49-.45.56-.92,1.14-1.11,1.63-.09.23-.07.33-.05.36,0,0,.07.09.51.03,1-.14,4.57-2.67,5.75-3.5l.12-.08c.47-.33.93-.74,1.37-1.13,1.02-.91,2.08-1.85,3.44-1.99-.02.07-.05.14-.07.21h0c.37-2.03,2.77-3.14,4.09-4.31,2.89-2.55,5.72-5.17,8.63-7.69.97-.21.85.53.72,1.2-.53,2.92-4.1,6.56-4.32,9.81,0-.06.02-.13.02-.19.06,0,.12-.01.18-.02.17-.01.34,0,.51,0,.12,0,.24,0,.36,0,1.83-4.18,5.72-7.04,8.76-10.34l5.05-3.83c-.06.79.04,1.61,0,2.4.89-.08,1.42-.48,2.4-.48.95,0,1.47.4,2.17.47,1.55.16,2.99-.18,4.55.49.52-1.75.99-3.92,1.99-5.45.42-.64,3.11-3.94,3.57-4.11.38-.15.95-.24,1.16.24.47,1.05.7,2.42.49,3.56,0,.03-.33.11-.38.36-.35,1.8-.68,3.6-1.06,5.4,2.27.13,1.56.23,2.01-1.09.61-1.8,2.11-3.5,1.83-5.63.94-1.05,1.79-2.21,2.88-3.12,2.55-2.13.81.88.96,2.38.56.93.78,4.79,1.68,5.06,1.35.4.97-.25,1.28-.62.51-.62,3.32-4.15,4.23-3.22.17.88-.2,1.37-.56,2.08-1.56,3.07-4.72,6.11-6.27,9.09-.42.81-1.96,4.76-1.81,5.36.21.84,1.68.82,2.39.74h0,0s-.02,0-.02,0c0,0,0,0,0-.01.11-1.02.57-1.42,1.02-1.8.24-.2.48-.41.69-.72.21-.32.39-.66.58-1.02.44-.84.89-1.72,1.84-2.24l.27-.15c.39-1.61,1.3-1.43,2.36-2.44.67-.64.9-1.35,1.42-1.94,1.63-1.86,3.22-2.07,1.93-5.03,1.56-.15,3.46.25,4.96-.08,1.54-.34,4.43-3.29,5.91-3.72.65-.19,1.96.6,3.28.43,1.22-.16,2.69-.29,3.84-.48,1.63-.27,5.05-2.1,2.89.49-.5.6-2.9,2.35-.96,2.4,4.6-2.81,9.13-5.84,14.39-7.21,1.09-.22.88.78.5,1.46-.43.77-3.01,1.57-4.09,2.17-.3.17-1.86.44-.96,1.18.42.35,4.37-.71,5.28-.96h0,0s-.02,0-.02,0v-.18l.19-.05c.52-.14,1.11-.37,1.75-.62.63-.25,1.29-.51,1.87-.66l.12-.03s0,.09,0,.14c-.05-.48.03-.68.37-1.08.38-.45.77-.85,1.18-1.24.96-1.25,2.25-2.3,3.12-3.79.02-.04.04-.07.06-.1.32-.72.44-1.38.33-2.3-.68-.19-.84.51-1.44.48.13-.98-.16-1.51-.84-2.16-.21-.2-.61-.28-.74-.46-.19-.29-.06-.71-.15-1.05-.15-.56-.55-1.01-1.06-1.3-.71.03-1.49.09-2.21.06-.07.03-.13.07-.21.08-.57.13-1.2.03-1.76.28.26-.96-1-1.56-1.17-2.08-.09-.28.02-.62-.03-.8.34.05.5-.07.59-.23,0-.13,0-.25,0-.35.01-.01.02-.03.03-.04.01-.13.03-.23.06-.25,0,0,.05-.01.08-.02,0-.01,0-.03.02-.04.1-.12,1.27-.65,2.29-1.08-.02-.15-.03-.28,0-.31.11-.09,1.63-.46,2.65-.85.07-.04.13-.06.18-.08.14-.28.3-.64.48-.98.05-.06.08-.12.13-.18.23-.39.51-.72.87-.83.08-.02.14-.03.22-.04.09-.15.19-.29.28-.39,1.53-.01,2.69,1.85,4.06,1.94.04,0,.05,0,.06,0,.13,0,.28,0,.43-.03.1-.01.2-.03.31-.05.03,0,.06-.01.09-.02.55-.13,1.16-.35,1.73-.55.18-.25.34-.48.56-.58,2.94-.77,5.68-4.92,4.69-7.87l-.02-.08c-.01-.32.22-.55.01-.95-.24-.65-.68-1.18-1.24-1.59-.79-.97-1.02-1.55-1.83-1.13-.09.13-.16.25-.21.34,0,0-.02,0-.03,0-.08-.01-.16-.01-.25-.02-.43-.04-.93.02-1.41.04-.08,0-.15,0-.23,0-.15,0-.29,0-.43-.02-.02,0-.04,0-.06,0,.58-1.2-1.44-2.42-1.44-2.64,0-.12.34-.43.76-.79.42-.4.92-.83,1.24-1.21.17-.16.29-.32.33-.46.27-.91.29-2.5.55-3.53.6-.5,1.1-1.26,1.44-1.44.21-.11,1.45-.45,1.82-.48.03,0,.06,0,.07,0-.12.87.78,1.58.91,2.24.28,1.41-1.21,2.15-1.39,3.27-.1.58.11.75.43.72.53-.03,1.42-.67,1.78-.95.9-.7,3.38-2.94,3.84-3.84.32-.62,1.07-5.02,1.18-6.02.21-1.85-.74-2.94-1.9-4.32-.39-.46-2.92-3.03-3.16-3.1-.05-.01-.1-.02-.16,0-.83.06-2.18,2.46-2.29,3.09-.11.63,2.59,3.56-.16,3.62.2-1.35-1.05-2.32-1.92-3.36-.29-.35-.39-.98-.96-.99-.08,0-.17,0-.28.03-.33.08-.22.47-.24.48-.37.13-.64.16-.84.13-.62-.11-.6-.85-1.02-1.35-1.07-1.28-3.01-.96-4.35-1.18-.62-.1-1.39-.35-2.4-.48-.12-.02-.25-.02-.37-.02-.24,0-.49.02-.73.03-.11,0-.23,0-.34-.01-.3-.03-.57-.06-.85-.08-.08,0-.17-.02-.25-.02-.06,0-.12-.01-.18-.02-.23-.02-.44-.06-.65-.1-.19.22-.47.37-.76.38-.03,0-.06,0-.09,0-.14.02-.27.07-.4.11-.04.02-.07.05-.11.07-.04.06-.06.13-.12.19-.09.1-.2.17-.32.21-.02,0-.04,0-.06.01-.16.15-.33.3-.48.48-.14.2-.26.41-.37.62,0,.03-.02.06-.03.1-.01.06-.05.11-.08.16-.04.12-.09.24-.12.37-.1.38-.41.62-.77.69-.1.08-.21.14-.34.18-.5.16-1.12-.19-1.23-.7-.07-.32-.15-.63-.25-.94,0-.02-.02-.05-.02-.07-.13.05-.26.08-.39.08-.16,0-.33-.06-.48-.14-.01,0-.02.02-.03.02-.13.04-.27.05-.4.02-.13,0-.26-.05-.37-.12-.04-.02-.07-.05-.11-.07-.15-.03-.27-.08-.37-.16,0,0,0,0,0,.01-.04.12-.11.23-.21.32-.06.07-.15.11-.23.15-.07-.1-.14-.21-.21-.32-.32-.52-.56-1.08-.81-1.64-.52-1.17-1.12-2.32-2.25-3.02-.15-.09-.62-.62-.7-.86-.65-2.14-1.88-4.02-4.05-4.7-1.75-1.88-4.06-4.43-4.76-6.56-.26-.78-.65-4.04-.72-5.04-.08-1.22-.14-6.39.56-6.93.83-.64,2.47.34,1.86-2.93-.63-.69-2.58,2.19-3.15,2.37-.58.18-1.58.11-1.17-.69.2-.39.91-.75,1.19-1.21,2-3.39,4.44-7.8,5.92-11.36.25-.61.35-1.82.57-2.55h-2.4c.04-.56-.07-1.15-.02-1.7.2-2.38,1.94-6.32,1.93-8.14,0-.36-.53-2.21-.72-2.63-.34-.75-2.92-3.75-3.59-4.1-1.4-.73-4.24-.73-5.92-1.28-.54-.18-.98-.87-1.05-.87h-7.44s.24-1.92.24-1.92c-2.04,1.43-1.78-.41-2.41-1.44-.99-1.62-5.2-3.08-5.51-4.09-.32-1.03,1.22-1.05,1.42-1.22.23-.2-.33-2.13-.53-2.54-.41-.81-1.12-.74-1.6-1.28-3.4-3.8-5.51-5.56-9.86-8.38-1.72-1.12-7.11-3.49-7.92-5.04-.88-1.67.23-1.42,1.42-1.94.53-.23.26-.53.27-.95l-13.35-6.81c-1.2-2.45-2.94-4.55-4.64-6.66-.23-.28-.18-.77-.29-.89-.19-.2-1.54.04-2.12-.04-.6-.09-3-.8-3.77-1.03-.8-.23-3.76-3.55-4.43-3.74-1.2-.34-1.64,1.12-2.32.92-.55-1-3.28-2.18-3.12-3.06.22-1.25,2.39-4.07,2.84-5.82.49-1.89-2,.67-2.39.25l.96-5.28c-1.49-.09-1.63,1.67-2.39,2.65-1.66,2.14-4.64,4.09-6.26,6.22-.6.79-1.34,2.98-1.46,3.1-.49.49-5.98-.33-7.17-.45-.11-2.79.14-5.62.02-8.42-.04-.85-.49-1.51-.52-2.36-.31-9.42.46-14.84-3.57-23.79-3.27-7.28-12.15-20.92-18.24-25.92-.78-.64-3.57-2.59-4.33-2.39-.96.26-.67,1.87-.72,2.64-.04.55.32,1.32-.48,1.2-.21-.8-.36-2.07-.95-2.65-.98-.94-5.94-3.6-7.52-4.48-1.07-.6-3.45-1.31-4.03-1.73-.52-.38-.44-1.1-.47-1.69l-5.73-.03c.54-1.61-2.44-2.88-3.62-2.87-.46,0-1.39.75-1.68.49-.5-.47.45-1.09.79-1.37.59-.48,4.07-2.92,3.05-3.91-.84-.81-6.67,2.14-7.19,1.43.29-1.16-.85-1.72-.98-2.62-.14-.96.12-2.13.01-3.13l-2.13.47c-2.2-1.68.29-3.42.63-4.62.79-2.8.28-3.91,2.06-7.06.38-.67,1.09-.9.89-1.75-4.48-.46-.25-3.9,1.44-5.52l12.96-4.32c.74-.63,1.45-1.62,1.44-2.64-.18-.18-4.13.97-4.81,1.19-1.95.63-3.77,1.65-5.75,2.17l.48-3.84h-3.36c-.42-.39,1.23-2.58,1.44-3.12.25-.67-.09-.81-.72-.72-2.02.3-5.21,5.93-6.27,6.23-1.01.29-1.92-2.72-3.58-1.68-2.71,1.69-4.6,6.46-5.75,9.37-1.93.51-1.9-1.3-2.44-1.87-.1-.1-2.71-.12-2.81-.02-.08.09-.15.87-.4,1.27-1.76,2.84-.48,3.39-1.13,5.6-.22.74-1.66,1.35-1.86,2.22,1.48-.12,2.8-.74,4.32-.48.68.62-2.29,2.62-2.4,3.36,2.35-.09,4.33-1.78,6.72-1.44.27.91-.71,1.12-.89,1.75-.18.62-.21,2.12.14,2.61.31.43,1.19.27,1.25.72.18,1.25-.1,2.91-.02,4.28.21,3.58.64,7.32.49,11.07-.03.85-.59,1.51-.45,2.29.15.81,1.19,1.55,1.35,2.08.23.77-.54,1.33-.44,2.08h1.92c-.84,2.48,2.27,4.32,2.83,6.07.35,1.1-.63,1.94-.4,2.75.33,1.16,2.34,1.34,3.32,1.99,3.32,2.23-.13,2.42-.42,3.39-1.44,4.88,5.65,3.02,6.15,4.79.18.65-.1,2.47.04,2.6.1.09,1.22-.13,1.93.23.81.41,2.04,2.49,2.86,2.9.64.32,1.43.12,1.95.45.23.14,1.73,3.05,1.82,3.46.42,1.91-.55,2.18-.81,3.36-.2.92.23,2.34-.53,2.83l-9.64,2.84c-.76.29-3.42,1.65-2.38,2.66.2.19,4.59-.07,5.54-.02,1.01.05,1.71.62,2.84.51,1.55-.15,4.19-1.48,5.87-1.84,1.58-.33,5.73-1.09,7.11-1.09.81,0,7.28,1.38,7.93,1.71.73.38,1.59,1.92,2.4,2.4,4.07,2.42,4.61,1.65,7.9,6.02.8,1.07,2.3,2.76,2.19,4.04-.09,1.11-1.13,4.94-1.52,6.2-.32,1.03-1.43.58-1.79.85-.13.1-1.45,2.54-1.51,2.81-1.13.42-1.75.42-2.88,0-.02-.15,0-.33,0-.48.16-2.68,1.1-1.4,1.86-1.98.09-.07.89-1.95.94-2.18.25-1.1.34-2.8-.63-3.54l-2.89-1.91-.25,3.59c-.19.46-.31.92-.39,1.4.07.2.11.4.16.6.73,2.75.23,5.56-1.57,7.85-1.33,1.69-3.7,3.71-5.95,4.46-.31.27-.74.59-.78.62-.71.06-1.66.05-2.34.2-.61.14-1.56.83-2.2.92-1.12.16-2.83-.39-3.97-.35-.33.01-1.38-.03-2.05-.22-.07-.02-.14-.04-.2-.06.49,1.32,3.31,3.39,3.93,3.79h0c.07.38-.42.27-.72.25-1.41-.09-3.12-.73-4.55-.98l.42-3.53c-1.07-.29-2.16-.75-3.21-1.3-.05-.02-.09-.05-.14-.07-.4-.21-.78-.43-1.16-.66-.19-.11-.37-.23-.55-.34-.38-.24-.76-.49-1.11-.73-.02-.01-.04-.03-.08-.05-.01,0-.03-.02-.05-.03-.13-.07-.34-.19-.6-.35l-.26-.12v-.05c-.34-.25-.74-.59-1.14-1.04-.15-.17-.31-.36-.46-.57-.26-.36-.51-.77-.72-1.25-.02-.04-.03-.09-.05-.13-.07-.17-.15-.35-.21-.53-.1-.28-.16-.56-.2-.82-.1-.7-.04-1.37-.09-2.11,0,0,0-.02,0-.02.08-.02.15-.03.21-.03.34,0,.3.27.4.54.02.04.04.09.06.13.37.58.71,1.06,1.15,1.53.14.16.3.31.47.47.03.03.07.06.11.08.19.11.42.13.49.31.02.04.03.08.03.13s0,.11-.02.18c.02,0,.03,0,.05,0,.06,0,.1-.04.12-.09.01-.03.02-.07.03-.09,0-.03.01-.05.02-.05-.28-1.1-1.05-2.37-1.2-3.48-.1-.79.06-1.71,0-2.52-1.28.26-1.59-.51-2.16-1.44h-.48c-.05.2-.04.19-.24.24.03.39-.05.82,0,1.2-.05-.38.03-.81,0-1.2.19-.05.19-.04.24-.24h.39c-.29-.62-.69-1.4-1.11-.42-.16.37-.46.99-.41,1.33l2.89,9.87c.28.18.6.03.88.06l.48,4.8c-.85.14-1.43-.62-1.93-1.19-3.1-3.57-5.41-9.01-6.62-13.54-.32-1.22-.01-2.69-.81-3.99-1.36-2.2-3.55.33-5.06-.7-.73-.49-1.17-2.84-1.45-3.11-.6-.6-3.65.48-4.53.49-1.28,0-2.64-1.15-3.75-.95-.79.14-4.3,2.99-5.46,3.7-.7.43-1.22,1.14-2.07,1.05-.71-1.04,2.07-2.89,1.44-3.36-.14-.1-1.24.21-1.71-.46-1.36-1.92,1.36-3.43,2.19-4.82l-2.88.48c-.12-.63.2-2.6-.05-2.83-.17-.16-.89-.07-1.18-.5-.56-.83.47-1.86-1.66-1.47-.25-.18,1.36-3.23,1.45-4.09.11-1.01-.53-1.92-.44-2.32.09-.41,2.19-2.52,1.34-3.15-.21-.16-1.3.25-.91-.75.22-.56,4-3.62,4.56-3.62,1.24-.01,1.16,1.67,1.96,1.91,1.02.31,1.94-.55,2.35-.45,1.92.46-.86,3.23-.71,3.36h2.88c.3,1.67-1.54,2.29-1.92,3.84l3.84-.48v1.92c1.88.25,3.4-1.22,5.28-.96.25.35-.55,1.76.72,1.44,1.37-1.4,8.26-4.81,8.88-6,.8-1.52-2.76-.13-2.88-.24.18-.61-.55-1.1-.44-1.62.14-.67,1.71-1.13,1.4-2.22-.35-.31-6.27.86-7.22,1.18-1.47.49-3,1.87-4.78,1.7.3-1.4,4.57-3.36,4.78-4.12.19-.7-.47-1.28-.4-1.81.06-.42.54-.83.69-1.24.93-2.53-1.32-1.05-1.71-1.47-.08-.09.13-1.23-.23-1.93-1.16-2.27-4.39-5.76-5.94-8.46-1.11-1.94-.54-2.02-2.25-3.5-2.03-1.75-5.12-4.64-5.51-7.22-1.23.06-2.35,1.01-3.6,1-1.5,0-3.66-1.05-5.48-.48-.09.83-2.47,3.85-1.94,4.25.22.16,1-.22.93.26-.55.82-2.59,2.16-2.82,2.94-.11.35-.12,1.57-.06,1.62.33.3,2.21-.67,1.93.73-.22,1.14-1.48,2.92-1.48,3.35,0,.83,1.08,1.13.95,1.85-.22,1.28-2.52,5.63-3.56,6.55-1.01.91-4.36,2.24-4.53,2.44-.23.28.09,1.22-.04,1.39-.19.26-1.42-.64-2.1-.45-.26.08-3.92,2.89-4.39,3.32-.81.73-1.42,1.22-1.19,2.41.8.34,1.86-1.49,2.4-.96.43.42-.87,1.4-.97,2.16-.15,1.2.93.43.99.98l-.5,2.15,1.92-.48c.45.43-1.79,2.35-1.44,3.84-2.27.02-1.95,1.38-2.63,2.41-.2.3-1.98,1.4-2.66,2.14-1.33,1.45-2.61,3.49-3.83,5.05-.93,1.19-2.1,2.7-1.92,0l-1.44.48c-.31-1.13,1.32-6.91.96-7.2l-3.84-.48v3.84c-1.64-.04-2.28-1.62-1.85-3.06.2-.66,1.59-1.86,1.79-2.53.36-1.24-.18-3.07.55-4.49-1.29-.17-2.42.8-3.61.95-1.48.19-2.13-.23-3.36-.46-.95-.18-2.63.41-2.64-1.21,0-.98,2.77-2.43,3.62-3.11,2.93-2.37,4.88-4.3,6.88-7.52,2.57-4.14,4.31-8.89,5.36-13.61h-1.45c-.15-.11.74-3.12,1.02-3.55.89-1.39,4.63-3.33,5.97-4.59,1.41-1.33,4.94-6.79,5.75-8.65.49-1.14,2.11-6,2.17-6.99.04-.65-.72-5.09-.99-5.27-.28-.18-.77-.15-.9-.28-.19-.18-.01-2.41-.05-3.08-.05-.93.06-.76-.96-.72-1.54,6.87-2.69,14.25-5.39,20.78-.52,1.27-1.27,2.23-1.81,3.41-.28.62-.96.21-1.45.3-.37-1.64.32-3.17.47-4.57.48-4.32.04-8.88.5-12.94.27-2.38,1.77-5,2.3-7.3,1.01-4.44.82-9.31,1.06-13.82.07-1.25.9-3.01.47-4.57-1.29.18-.24,2.89-1.92,2.4l-1.91-7.93c0-2.03-.55-3.66-.49-5.75.03-.94-.5-1.94.96-1.68.03.26.4.69.47,1.19.18,1.18-.5,3.2,1.45,1.93.97-.63.23-3.13-.1-4.23-.22-.75-.84-1.22-.86-1.29-.12-.42.13-1.15,0-1.66-.56-1.99-1.08-4.11-2.07-5.93-.1.39-.16.79-.21,1.17-.16,1.15-.31,2.25-1.71,2.83l-.35.14v-7.81c0-1.12-1.93-7.19-2.61-8.79-.45-1.05-2.11-4.17-3.23-4.38-.17-.04-.32.01-.45.15-.2.2.03,1.19.19,1.92.25,1.12.51,2.28.07,2.86l-.16.2-.2-.16c-.76-.61-1.25-1.43-1.73-2.23-.3-.51-.59-.99-.94-1.41-.36-.44-.79-.83-1.25-1.25-.48-.44-.98-.89-1.39-1.4-.26-.32-.42-.69-.58-1.05-.2-.46-.41-.94-.83-1.33-.86-.78-3.54-1.53-4.78-.9l-.26.13-.33-1.05c-1.5-4.85-3.19-10.36-7.38-13.73-.8-.65-1.6-1.1-2.38-1.54-1.51-.86-2.94-1.67-4.01-3.74-.29-.57-.52-1.31-.75-2.02-.25-.79-.5-1.6-.83-2.15-.34-.57-1.14-1.28-1.91-1.96-.62-.54-1.25-1.1-1.67-1.61-.94-1.14-1.82-2.4-2.66-3.62-1.54-2.22-3.13-4.51-5.21-6.21-1.05-.86-5.93-3.89-6.97-3.89,0,0-.01,0-.02,0,.14.64-.29,1.24-.64,1.73-.17.24-.41.56-.37.67.06.21.4.49.73.76.62.51,1.4,1.16,1.18,2.04l-.04.17-.17.02c-.64.08-1.39.24-2.18.4-1.79.37-3.83.8-5.26.47-1.66-.37-4.45-2.78-5.08-4.38-.16-.41-.71-2.35-.72-2.75,0-.48.26-1.04.52-1.59.22-.47.46-.96.46-1.3,0-.29-.2-.53-.43-.8-.25-.3-.54-.63-.57-1.08-.9.14-1.42,1.02-1.88,1.81-.09.16-.19.32-.28.46l-.07.12h-.14c-.31,0-.43-.29-.53-.55-.11-.28-.25-.63-.62-.89-.5-.34-1.08-.41-1.68-.48-.54-.07-1.09-.13-1.61-.39-.35.81-.63,2.06-.9,3.28-.34,1.55-.66,3.01-1.16,3.73-.42.62-1.09.92-1.88.88-1.13-.07-2.38-.88-2.89-1.88-.15-.29-.17-.6-.2-.85-.01-.16-.03-.27-.05-.34-.88,1.07-1.21,2.43-1.56,3.86-.17.71-.35,1.44-.6,2.13-.17.46-.53.78-.7.93-.02.02-.03.03-.05.04l-.05.15-.2-.03c-.84-.12-2.19.76-3.16,1.62-.19.17-.32.43-.43.69-.14.29-.28.59-.54.78-.33.23-.79.39-1.27.55-.96.33-2.04.69-2.43,1.78-.39,2.09-.67,4.28-.94,6.39-.38,3.01-.78,6.12-1.52,9.12l-.06.26-.25-.08c-1.17-.37-1.16-1.35-1.16-2.21,0-.34,0-.69-.07-.99-.18-.76-1.13-4.28-1.3-4.57,0,.02-.14.02-.35.12-.29.14-.54.37-.6.57-.22.74-.14,2.05-.07,3.32.05.88.1,1.71.05,2.36l-.03.44c-.17,2.53-.37,5.19-.54,5.77-.09.31-.37.66-.76,1.15-.64.8-1.53,1.91-1.94,3.35-3.1,10.82-1.68,21.06-.17,31.9ZM422.07,372c-.08.55-.35,1.24-.48,2.04-.04.25-.37.59-.24.96-.16.08-.14.52-.72.5-.09,0-.18-.02-.29-.05-.06-.01-.09-.06-.12-.11-.01,0-.02,0-.04,0-.02-.05-.03-.09-.04-.09v-.48s-.48,0-.48,0c0-.08.01-.16,0-.24-.08-.41-.26-.76-.24-1.2.02-.3.32-.84.48-1.2.03-.06.13-.14.24-.48.04-.11-.03-.34.04-.55.29-.82,1.16-.67,1.88-.65-.04.5.07,1.07,0,1.56ZM410.31,388.07c.16-1.13,1.53-1.52,1.68-2.52.01-.08,0-.16,0-.24.69.14.6-.55.74-.7.22-.23,1.32,0,1.54.45.27.54-.17,1.4.4,1.45t0,0c.05,0,.12,0,.2,0,0,.31.04.67,0,.96-.03,0-.06,0-.09,0-.05,0-.09,0-.14,0-.1,0-.2-.01-.23.02-.19.2-.51,1.97-.5,2.39-.25.07-.93.2-.96.24l-.72-.24c.2-.52-.68-.87-.72-.96-.04-.1.07-.38-.01-.46-.22-.22-1.3.37-1.19-.38ZM410.35,378.65c1.1-.37,2.27.26,3.28-.45.03-.02.11-.13.22-.28.42-.57,1.23-1.74,1.27-1.09.02.45-.03,1.06.41,1.28.3-.01.33.02.57.36,0,.01.01.02.02.03,2.58,3.74,2.74-1.38,4.37-1.67,1.06-.19.56.85,1.14,1.18,1.21.69,3.4-.2,4.75-.14.2,0,.39.03.56.06.43.21.65.67,1.18.69.63.05,1.34.07,2.08.06,2.24-.04,4.8-.42,6.49-1.24.15-.05.26-.07.34-.06.26.02.28.3.54.84.23.52.86,1.66.93,1.81-.06.02-.12.03-.2.04-.02,0-.03,0-.05,0-.6.09-3.45.88-3.72,1.36-.07.18-.1.33-.25.42-.61.33-1.82.63-2.64.99-.15.07-.26.1-.3.18-.06.11.02.45-.14.44-.46.04-1.24-.11-1.7-.07-.15,0-.3-.02-.46-.11-.58-.29-.57-.38-.93-.73-.12-.11-.26-.19-.4-.28-.03-.02-.05-.04-.08-.05-.12-.07-.24-.13-.37-.19-.09-.04-.19-.08-.29-.11-.1-.03-.19-.07-.3-.1-.22-.06-.45-.09-.68-.11-.03,0-.05,0-.08,0-.24-.02-.48,0-.72.01-.01,0-.02,0-.03,0-.43.04-.85.14-1.22.3-.52.18-.98.65-1.5.73-.05,0-.1,0-.17,0-.4,0-1.05-.07-1.4-.07-.07,0-.13,0-.18,0-.83.02-1.64.61-2.18.97-.99.71-2.24-.68-3.3-.73-1.16-.08-2.48,1.26-3.67.49-.22-.16-.83-.55-1.12-.68-.31-.69.21-1.39.13-2.15,0-.53-.2-.94-.27-1.44,0-.16-.06-.42.06-.51ZM252.47,272.75c.11.81.88.83.72,1.68h-.96c-.07-.06-.52.1-.68-.03-.16-.13-1.14-1.95-1.29-2.09-1.39-1.26-1.45-1.97-2.35-3.64-.36-.67-1.1-1.19-.96-2.16h.48c.88,1.53,3.05,4.1,4.43,5.29.21.18.53.2.58.25.09.09,0,.5.02.7ZM253.89,307.58c.38.05,1.13.48,1.2.48h5.88c.32.27.03.46-.36.48-1.62.08-3.68.1-5.29.01-4.38-.25-9.64-.98-13.91-1.93-1.99-.44-4.53-.73-6.37-1.55-.53-.24-1.07-.5-1.43-.98.47-1.43,1.22-.54,2.08-.39,3.49.61,7.26,1.53,10.76,1.96.82.1,2.02-.16,2.76.36.26.18.32.73.71.97,1.46.86,2.51.42,3.96.6ZM369.2,405.79c1.03.19,1.92-.32,2.88-.48,1.1-.18,2.24-.3,3.36-.48.45-.07.99.07,1.44,0,1.65-.26,3.37-.6,4.97-1.04l.31-.4c.72.01,1.44-.02,2.16,0,.4,0,1.68-.22,1.2.72-.88,1.73-5.6,3.78-7.01,5.48-3.14-.3-6.17-1.76-9.3-2.36v-1.43ZM363.66,399.53c.65-.14,2.73-.94,2.9-.94h6.96c.23,2.26-1.33,2.17-2.88,2.64-.47.14-1.09.11-.96.72,1.16-.13,5.44.16,5.75,1.25.14.48-.46.63-.47.67-1.11-.05-2.25.07-3.36,0-2.63-.16-3.52-1.22-5.74-2.18-.92-.4-2.81-.31-3.38-1.42-.49-.96.76-.65,1.18-.73ZM268.76,312.35c-.39.02-.92-.03-.63-.41.11-.1.31-.14.5-.33.28-.28.19-.63.23-.92-.33.05-.67.11-.91.22-.56.22-.82.57-1.33.62-2.22-.39-4.88-.44-7.13-.02-1.25-.31-2.31.35-3.51-.21-2.02-1.17-4.37-.84-6.51-.59h-.14c-.4.01-.75-.34-1.22-.62-.5-.33-1.19-.26-1.81-.27-1.13-.11-2.37-.82-3.45-.84-.29-.13-.31-.38-.08-.59.3-.27.77-.33,1.14-.35.88-.12,1.48.64,2.21.82.73.1,1.36-.25,2.17-.18,1.07-.1,1.61.91,2.56,1.03,2.04-.41,4.57-.62,6.71-.13,1.68.84,3.48.95,5.27.96,2.48.05,3.98-.07,6.25-.26.03,0,.07,0,.12,0,.33-.17.75-.35,1.07-.45.24-.01.38.05.61.03.27-.06.69-.12,1-.16.3-.07.44-.31.74-.37.55,0,.91-.08,1.49-.1.92-.01,1.84.27,2.71-.04.31-.1.14-.69.47-.78.57-.09,1.4.08,2-.23,1.78-1.19,4.95-.65,5.93-2.8.04-.55-.89-.29-1.46-.36-.3-.04-.56-.07-.69-.19-.14-.11-.02-.34.1-.52.12-.18.33-.28.51-.37,1.24-.41,4.21-1.74,4.76-2.4.45-.83-.62-1.12-1.22-1.24-.4-.16-.76-.74-1.24-.91-.52-.38-1.27.28-1.88.17-.4-.14-.9-.29-1.34-.29-.42,0-.59-.13-.54-.41.1-.58,1.29-.96,1.7-1.45,1.66-1.61-1.46-.96-2.21-1.22-.51-.19-1.15-.04-1.58-.32-.18-.12-.32-.36-.48-.52-.49-.35-.63-.67-.32-1.15.26-.4.91-.45,1.28-.76.34-.29.39-.91.09-1.3-.56-.33-2.26-.2-2.24-.94.03-.14.17-.22.4-.31.53-.2,1.11-.65,1.51-1.09.74-1.25-2.3-.73-2.6-1.45-.02-.32.36-.65.69-.7,1.44,0,9.17-3.04,5.09-4.09-.42-.15-1.33-.03-1.43-.49.24-.68.38-1.61-.56-1.97-.29-.13-.93-.14-.68-.56.5-.3.8-.52.94-1.2.49-1.08-2.33-.93-1.91-1.97.33-.76,2.17-.71,2.38-1.59.1-.57-.73-.76-.8-1.28-.02-.39-.47-.71-.61-1,.13-.36.53-.37.49-.89-.01-.38-.14-.59-.34-.73-1.88-.75-4.02-1.27-5.93-1.99-1.27-.54-2.62-1-4.02-1.19-.27-.13-.45-.4-.72-.55-1.01-.48-2.47-.35-3.26-1.15-1.97-.4-4.01-1.54-6.1-1.78-.84-.13-1.56.71-2.3.85-.26.12-.25.38-.51.4-.68-.05-1.91.34-2.56.16-.3-.25-1.33-.81-1.36-1.3l-.02-.16c-.19-3.4,6.02-.94,7.13-1.93.33-.32.32-1.01.09-1.44-.52-.9-1.22-2.31-.37-3.18.16-.18.3-.47.5-.47.18,0,.4.15.46.32.11.18.06.58.26.76.55.33,1.39.17,1.98.45.43.27.66.67,1.1.99.74.84,1.96,1.51,2.75,2.28.33.22.3.61.59.8.33.1.33.09.45.18.15.11.23.43.44.68.22.31.57.45,1,.54,2.92.61,4.12-1.48,6.51-2.1,1-.39,2.04-.1,3.09.05,1.64.1,3.29.26,4.86.05,5.87-.87,13.71-5.93,16.69-12.13.33-.46.47-.96.61-1.4.12-.17.01-.24.5-.37.26-.03.57.03.77.12.69.35.53,1.34,1.36,1.52,2.7.48,5.65.83,8.16,2.14.85.6,2.45,1.2,2.34,2.47-.13.5.16.57.53.61,1.35.02,2.75.48,4.04.29.3-.43.44-1.06,1.09-1.87.53-.64.77-1.23,1.33-1.8.54-.45,1.57-1.21,2.25-1.14.45.26,1.04.45,1.51.76,1.36,1,1.63,2.74,1.74,4.29.16.77.41,1.46.46,2.22.02.64.16,1.39-.25,1.79-.22.17-.84.26-1.09.33-.2.06-.14.35-.14.52.14,2.02-.69,6.17.82,7.14.44.28,1.03.26,1.53.37.7.14,1.28,1.03,2.03,1.45.73.39,1.65.78,2.77,1.24.53.18,2.46,1.21,2.26.1-.31-.77-1.04-1.56-.7-2.27.19-.21.61-.14.74-.39.08-.09.17-.17.3-.21.16-.06.37-.05.44-.2.11-.19.14-.7.39-.99.6-.65,2.03-.46,2.63-.1.7.44,1.5,1.37,2.12,1.97,1.14,1.36,3.5,5.44,4.56,6.54,1.22,1.12,2.95,2.23,4.39,3.17.86.52,1.35.88,2.25,1.19,2.63.72,5.14,2.11,7.67,3.3,2.65,1.13,6.26,1.51,9.01,2.74.76.61.59,1.97-.04,2.62-.36.39-.98.26-1.31.68-.41.67.08,1.34.8,1.66,1.43.5,3.34.58,4.45,1.66.69.54.53,1.5.58,2.31.05.34.28.66.39.96.09.67.22,1.37.69,1.81.37.67,1.14.16,1.72.25.64.15,1.59.04,1.89.73.39.98-.52,1.69-1.11,2.38-.26.32-.37.66-.52.95-.14.24-.34.49-.31.67.07.61,2.03-.45,2.29-.13.11.11.08.43.08.88-.03.54.05,1.12-.09,1.33-.29.28-.84.28-1.16.47-.55.26-.82.84-.94,1.4-.47,1.1,1.12,1.89.73,2.9-.07.07-.2.04-.38-.05-.3-.17-.75-.44-.98-.56-.24-.13-.32-.08-.55.14-.22.21-.58.56-.84.82-.78.61-.64,1.39.43,1.27.54-.06,1.21-.2,1.01.55-.26.87-.6,2.21-1.24,2.99-.29.37-.71.9-.71,1.3,0,.29.43.54.75.77.52.37.71.53,1.2.88.33.25.88.64,1.13.84.19.18.17.32.1.52-.42.97-1.3,2.85-2.05,3.84-.55.72-1.56.9-2.4,1.15-.66.19-1.49.34-2.11.52-.51.25-1.14.75-1.74.52-.93-.48-1.77-1.66-1.74-2.77,0-.48.06-1.21-.14-1.48-.15-.2-.48-.09-.82.09-.95.54-1.96,1.55-2.61,2.41-.56.86-1.59,3.28-2.49,5.08-.92,2.49-2.5,2.83-3.43.22-.46-1.8.25-3.71.86-5.36.13-.39-.22-.69-.56-.42-.74.86-1.3,1.68-2.36,2.32-1.47.98-1.64,2.86-1.35,4.44.5.82,1.9-.79,2.38-.04.12.32.22.84.06,1.2-.34.67-.65,1.6-.45,2.17.11.31.49.36.8.6.6.64,2.01,1.49,1.5,2.5-.53,1.03-1.47,2.28-2.11,3.44-.32.71-2.06,3.24-.32,1.83.47-.55,1.03-.96,1.74-.85.35.05.66.38,1.05.4.48.07.95-.35,1.23-.67.1-.1.18-.08.24,0,.19.42.11,1.29.37,1.77.17.5.62.7.81,1.03.12.23.1.54.12.8-.01.88.31,1.77.31,2.72.16.78-.16,1.32-.39,2.01-.16.44-.05.95-.54.89-.52-.3-1.08-1.3-1.62-1.09-.74.61-1.57,1.82-2.05,2.72-.52,1.04.31,2.18.63,3.19.48,1.2.19,1.28-1.01,1.51-1.01.18-2.01.1-3.04.15-.65-.04-1.3.48-1.81.41-.35-.07-.63-.43-.89-.67-1.17-1.23-.65-3.18-.48-4.65-.01-.85-.52-1.2-.79-1.84-.1-.19-.28-.33-.41-.26-.22.12.05.69.03,1.02-.53,1.01-.53,2.33-.82,3.48-.39.88-.31,3.25-1.34,3-.42-.18-.27-.32-.34-.58-.02-.72-.37-1.27-.47-1.94-.29-2.36.48-4.76.98-7.01.2-1.26.65-2.69.36-3.95-.09-.25-.29-.48-.51-.63-1.05-.63-1.52-1.09-2.33-1.95-.77-.71-.99.08-.94.92-.01,1.01.69,2,.45,2.98-.13.46-.89-.04-.84.53.33.95,1.19,1.41,1.68,2.3.85,2.22-1.83.64-3.02.19-.9-.37-1.5-.65-2.35-1.02-.61-.35-1.16-.37-1.44-1.01-.55-1.05-.65-3.64.51-4.6.23-.1.51-.2.81-.22.32,0,.65.04.79-.16.68-2.63,1.8-5.31,1.47-8.09,0-.64-.01-.54.1-1.36.15-.64.41-1.25,1.01-1.36.32-.1,1.19.38,1.23-.25.02-.6-.56-1.39-1.17-1.32-.23.05-.38.32-.61.24-.95-.12-.48-1.53.16-1.81.53-.33,1.23-.46,1.86-.55.53-.02.82-.21.89-.66.2-2.51-2.84-5.36-3.37-7.09-.31-.62,0-1.19.73-1.01.25.12.16.61.4.86.16.17.45.18.58.13.18-.06.08-.2.01-.48-.4-1.54-1.38-5.45-1.83-7.14-.07-.38-.34-1.05-.35-1.55.01-.14.07-.24.14-.31,1.12-.71,2.25-2.29,1.98-3.58-.16-1.03-1.31-1-1.94-1.76-1.7-1.94-3.61-5.2-5.28-7.47-.16-.64-.65-1.55-1.02-2.08-.45-.75-.61-.69-1.14-.09-.28.15-.88.41-1.23.43-.54-.06-.04-1.73-.4-1.83-4.25-.33-8.59.81-12.73,1.72-.8.22-.68-.48-.04-.95.32-.26.75-.51,1.19-.76.55-.41,2.77-1.11,2.03-1.92-.46-.58-3.36.17-4.4.3-1.1.21-1.59.22-1.03-.8.81-.7.81-1.83.93-2.8.05-.3.21-.75.06-.96-.3-.29-1.02-.55-1.47-.58-2.69.97-5.44-.27-8.08.98-1.37.29-2.26.82-3.56,1.27-.31.24-.43.25-.92.36-.61.38-1,.37-1.62.71-.51.23-1.2.44-1.68.69-.45.14-.58.42-1.05.48-2.06.86-4.36,1.97-6.16,3.29-.04,1.1,3.75-.65,4.47-.84.53-.11,3.54-1.56,2.68-.1-.42.73-1.14,1.12-1.65,1.78-.25.32-.65.87-.86,1.11-.33.34-.95.34-1.35.75-2.11,1.82-4.32,3.55-6.48,5.32-.54.54-1.17.85-1.25,1.63-.05.4-.15.69.19.72.65-.1,1.94-.67,2.55-.47.41.09.65.7.28,1.02-.5.37-1.15.54-1.68.83-.53.38-1.22.5-1.82.87-.33.32-.56.52-1.13.65-.37.12-.83.24-1.05.49-.23.27-.39.4-.73.43-5.81,1.75-12.77,4.29-18.93,4.55ZM263.28,323.91c1.03-.07,2.07-.17,3.1-.26,1.56-.15,3.08-.09,4.56-.24.64-.06,1.48-.43,2.16-.48.59-.05,2.67-.1,3.11.03.37.11.51.82.38.94-.05.04-1.02.42-1.12.45-1.97.44-4.88.86-6.91,1.01-1.19.08-3.7.15-4.82,0-.7-.1-1.24-1-.45-1.42ZM258.34,319.09c1.2.09,2.55-.12,3.73-.01.65.06,1.32.42,1.92.48,1.21.14,2.6-.11,3.83.01.56.06,1.37.41,1.93.47,1.44.14,2.79-.21,4.19.49.06.3-.11.61-.38.7-.49.14-2.45.07-3.11.03-2.4-.12-4.82-.51-7.19-.73-.92-.08-2,.12-2.88,0-.63-.09-1.21-.75-2.04-.48v-.96ZM251.74,314.77c-.31-.03-2.2-.4-2.28-.48.33-1.55,1.45-.59,2.28-.48.83.11,1.82-.11,2.64,0,.45.06.75.42,1.2.48.58.08,3.56-.32,3.24.84-.16.57-.68.19-.89.17-2.07-.18-4.12-.32-6.18-.54ZM226.45,403.37c.53-.74,1.1-1.51,1.42-1.74.16-.11.32-.21.49-.3.94-.95,1.89-1.89,2.83-2.75,3.14-2.89,6.18-5.3,9.57-7.39.62-.42,1.27-.8,1.93-1.13,1.35-.75,2.75-1.46,4.25-2.12,1.51-.67,3.15-1.13,4.66-1.82.07.32.02.56-.09.76.01.34-.27.48-.48.72-2.92,3.32-6.52,5.88-10.24,8.27-3.77,2.6-7.84,5.13-11.28,7.24-1.2.79-2.4,1.57-3.61,2.32-.32.2-.58.51-.95.51-.26.13-.52.2-.72.09.67-.9,1.43-1.78,2.21-2.66ZM214.32,349.91l.23-1.3h.71s.01.43.13.71c.28.64,1.02,1.82,1.44,2.41.35.49,2.18,2.32,2.24,2.55.27.92.17,2.83-1.18,2.14-.31-.16-1.6-2.29-1.8-2.76-.38-.89-.4-1.94-.62-2.74-.14-.5-1.06-.66-1.16-1.01ZM212.19,327.58c-.35-1.15-.29-3.34-.55-4.49-.07-.32-.38-.58-.44-1-.43-3.1,1.45-2.92,1.2-.12h.72c0,.65-.34,1.11-.24,1.8.08.61.36,1.27.48,2.16.09.63.75,1.21.48,2.04l.96-.48c0,.36.03.72,0,1.07-.07.76-.18,2.62.04,3.33.06.21.35.33.41.55,1.23,4.13,2.92,8.31,4.97,12.31,2.14,4.2,4.76,8.14,7.43,12.01.87.04.04-1-.08-1.36-.29-.91-.49-1.99-.76-2.96-.02-.07-.05-.18-.09-.31-.55-1.34-1.45-3.94-2.08-5.7-.03-.02-.14-.05-.18-.15-.05-.13,0-.26-.04-.32-.41-.95-.78-1.93-1.2-2.88-.05-.12-.14-.18-.24-.48-.06-.18-.25-.43-.24-.64-.02-.03-.03-.07-.05-.1-.39-.11-.35-.39-.43-.7-.04-.15-.09-.32-.13-.47-1.08-2.23-2.24-4.49-3.35-6.77,0-.01-.01-.02-.02-.04-1.79-3.66-3.46-7.35-4.5-10.98-.15-.51-.23-1.01-.1-1.33-.71-.61-1.01-1.43.18-1.29-.13.44.19.7.36.96.13,0,.27.01.45.05,1.29,3.93,4.12,7.28,6.23,10.81l6.97,7.43c.8.17.86-.26.74-.79-.71-1.26-2.09-3.75-1.79-4.07.06-.07.18-.02.33.06h0s.97.23.97.23c.12.18.24.37.36.55,0,0,.02,0,.03,0,.65.4,1.36,1.9,1.9,2.97,4.44,6.84,8.88,13.67,14.02,20.02l3.85,4.07c.02.15.02.25.03.36.07.08.12.14.13.17.13.43-.46.65-.85.61-.25-.03-.83-.44-1.06-.62-4-3.1-8.71-9.42-12.25-14.77-.45-.67-.89-1.32-1.28-1.91-.33-.51-.67-1.06-1-1.63-.19-.31-.39-.62-.57-.92-.35-.57-1.14-2.55-1.63-2.69-.22-.06-.46-.04-.7-.03-.19.29-.11.82.06,1.43.93,3.38,4.56,9.87,6.43,13.37.09.15.17.3.26.46.53.87,2.06,2.98,2.38,4.1.05.09.08.18.1.23.18.56.09,1.04-.55.79-.15-.06-1.17-1.09-1.34-1.3-1.01-1.28-1.9-2.93-2.78-4.38-.15-.17-.31-.33-.48-.48l.15,2.09h0c.16.91.24,1.43.24,2.4,0,.16,0,.32,0,.48-.08.02-.16-.02-.24,0-.02,0-.04.18-.15.21-.71.21-.51-.05-.57-.45,0,0,0,0,0,0-.06-.06-.15-.14-.25-.26-.12-.01-.25-.05-.37-.21-.09-.12-.1-.24-.1-.34-.13-.16-.27-.33-.41-.51-.32-.2-.71-.32-.76-.39-.09-.11-.02-.45-.15-.68-.14-.24-.3-.49-.49-.74-.06-.08-.12-.16-.18-.24-.57-.75-1.24-1.54-1.62-2.38-.71-.11-.53.27-.38.74.6,1.77,1.11,3.49,1.87,5.09.81,1.7-.65,1.32-1.49.29-5.2-6.29-9.23-13.53-12.67-20.93l-1.01-3.19c-.4-.06-.27.86-.25,1.09.04.42.21.76.26,1.18.03.23.14.92-.25.85-.13-.41-.17-.86-.29-1.27-.58-1.96-.82-3.76-1.16-5.8-.29-1.74-.68-3.24-1.16-4.84ZM210.47,339.97h.48s-.01-.35-.01-.35l-.23-.13c.04-.14-.04-.35,0-.48l.96.24c.31,1.33.54,2.45.48,3.84h-.48s0,.48,0,.48c-.15.15-.66,1.58-.72,1.92h-.72c-.08-1.81-.09-3.76.24-5.52ZM201.58,366.73c.57-1.76,1.22-3.46,1.94-5.16h.71c.12.15.28,1.03.25,1.31-.21,1.98-.69,3.99-.72,6.01,0,.2.1.84-.36.6-.16-.09-1.81-2.58-1.81-2.75ZM196.55,356.05c0-.2.21-1.02.24-1.68.02-.4-.02-.8,0-1.2h.72c.27.7.72.78.92.99.12.13-.04.53.07.66.09.1.51-.09.64.67.11.66-.15,1.28-.2,2h-.48s0,.48,0,.48c-.04.05.07.35-.02.45-.05.06-.45.1-.71.38-.25.27-.46.78-.71,1.09l-.48.24c0-.72,0-1.44,0-2.16,0-.64-.03-1.29,0-1.92ZM190.79,342.48c-.12.8.08,1.8,0,2.64-.06.56-.41,1.37-.47,1.93-.07.7.09,1.49,0,2.15-.24,1.71-1.23,3.98-1.88,5.56-.09.22-.02.52-.16.8-.28.57-1.02.5-1.56.48-.27-.83.39-1.41.48-2.04.1-.75-.1-1.65,0-2.4.06-.45.42-.75.48-1.2.24-1.71-.15-2.87.53-4.75.68-1.88,1.91-3.84,2.71-5.69l.84-.24c.42,1.06-.86,2.06-.96,2.75ZM196.41,302.84c-.26,3.23-.32,6.33-.99,9.57-.18.9-.86,4.07-1.17,4.59-.31.53-1.54.63-1.69.46-.12-.13-.04-2.97,0-3.59.34-4.3,1.1-10.68,2.51-14.77.18-.52.27-1.68,1.08-1.32,1.6.72.34,3.97.25,5.05ZM199.61,307.86c.68-.02,1.48-.09,1.85.46.02.03.07.22.14.49.04.06.08.12.12.19.14.29.12.59.12.88.06.28.12.58.17.85.19.49.41.8.32,1.76-.03.3-.1.46-.19.59-.27,2.76-1.37,6.44-1.76,9.35-.05.56-.1,1.11-.13,1.66.01,1.54.33,3.63-.05,4.95.08.3.23.6.21.71-.09.38-.46.4-.76.23-.11.09-.23.17-.38.22-.22,2.45.12,5.34.17,7.99.08.92.11,1.86.02,2.85-.09.97-.71,2.32-1.41,1.49-.07-.02-.13-.05-.19-.12-.03-.04-.14-.34-.27-.73-.28-.69-.67-1.78-.74-2.12-.15-.69-.43-2.17-.51-2.85-.06-.51-.1-1.02-.14-1.54-.43-3.32-.61-6.93-.58-10.49-.11-.49-.23-.99-.26-1.39-.07-1.04.13-2.06.4-3.08.13-2.42.35-4.75.65-6.85.15-1.05,1.12-1.28,1.36-1.91v-6.89c.01-.05.06-.1.1-.15.02-.57.06-.43.95-.4l.06.5c.08.24.07.55.14.72.35.94.47,1.68.62,2.61ZM202.75,298.63c.39.97,1.67,4.87,1.73,5.72.03.36-.42,1.14-.24,1.3.04.03.29.01.46.13.68.49.37.8.54,1.39.2.67,1.03,3.17.88,3.61-.07.23-.4.34-.46.75-.34,2.28.16,5.49.02,7.93-.06.99-.44,2.35-.5,3.34-.2,3.49.96,7.5.73,11.04-.1,1.56.15,2.15.25,3.59.11,1.52-.1,3.16-.01,4.69l-1.19-.02c-.11-.74-.68-1.45-.93-2.07-1.71-4.25-2.97-12.15-2.44-16.74.06-.52.41-1.18.47-1.69.12-1.06-.14-2.32,0-3.35.07-.48.49-.82.48-1.32,1.12,0,.63,1.46.72,2.27.14,1.26.68,2.51.48,3.84l.71,3.24v-10.44c-.95-3.75-1.45-7.58-1.97-11.47l-2.59-9.28c.4-.06.54,0,.85.23.67.51,1.65,2.45,1.99,3.29ZM183.69,217.16c-.22-.03-1.73-.42-1.81-.47-.47-.34.09-.41.35-.48,6.37-1.83,14.44-8.3,18.25-13.68.4-.56.35-1.39,1.33-1.19.48,2.39-1.48,6.05-3.67,7.01-.4.17-.78.16-1.14.3-.91.34-1.7,2.08-2.39,2.89-2.42,2.86-7.01,6.08-10.92,5.63ZM169.17,223.27c-.07-.23.44-.77.62-.81.52-.12,2.95,2.03,3.81,2.15.6.08,1.29-.05,1.91,0,.29.03.57.23.95.25,1.99.1,4-.11,5.99,0,.54.28.26.83.61,1.31.63.85,1.61,1.32,2.4,1.93-.5,1.24.18,2.57-.95,3.58-1.59,1.41-1.66-1.43-2.64-1.93-.5-.25-1.05-.03-1.56-.12-2.45-.43-8.2-3.77-10.2-5.4-.2-.17-.92-.81-.96-.96ZM159.21,187.86c1.82.26,3.04,2.55,5.03,2.41.17.17.31.31.48.48l.48.48c.15.17.65.31.97.7,1.02,1.2,3.35,5.22,4.31,5.81.77.48,1.8-.81,2.91-.05.51.35,1.13,2.38,1.42,3.14l.48.48c.04.15-.04.33,0,.48.43,1.77.04,2.14-.02,3.58-.08,1.63.07,6.26-1.39,7.24-.4.27-1.81.34-1.93.2-.6-.67-.28-2.98-.72-3.84-.5-1-4.36-2.63-5.51-3.61-2.06-1.74-3-6.21-4.09-8.87-.95-2.3-3.19-5.47-3.13-7.91.02-.71-.16-.86.73-.73ZM146.96,118.03c.08-.52.47-1.73.72-2.16.59-.98,2.41-1.6,2.59-2.21.58-1.95-1.34-4.7-.69-5.97.34-.67,1.97-1.51,2.17-.67.13.57.78,2.82,1.03,3.02.2.15.89.04,1.37.29.46.24.81,1.02,1.21,1.21.84.39.63-.37.73-.7.51-1.75.33-1.91,2.39-1.7.2,1.3-.57,2.32-.51,3.61.02.38.49,2.44.59,2.56.11.14.75.12,1.12.54.28.32.31.94.71,1.22.39.27,1.02.2,1.45.47.46.29.76,1,1.26,1.15,1.5.45,2.42-1.07,3.79-.94.96.09,1.14,1.19,2.16.99.05-1.51-.07-3.05,0-4.56.05-.93-.06-.76.96-.72.25,1.92,2.4,3.77,2.8,5.6.45,2.07-.73,2.02,1.01,3.29,1.62,1.18,2.02,4.63,2.91,6.47l.96-2.4c-.38.79,1.21,2.91,1,3.32-.33.64-1.64-.6-1.48,1.05.06.64.75.82,1.13,1.2.69.69,1.42,1.52,2.17,2.18.66.58,1.75.8,2.23,1.59.45.75.67,2.24.74,3.14.26,3.14-.67,6.56,1.76,9.2,2.4,2.62,4.69,4.38,6.16,7.77.72,1.66,1.68,4.42,1.22,6.04-.34,1.22-1.84,3.28-1.49,4.57.28,1.03,1.81.58,2.39.73.25.06.97.88,1.92.48l-.44,2.82c-1.1,1.6-1.84,1.92-2.72,1.94-.58.01-1.27.16-1.16,1,2.5,2.62,5.14,2.55,5.28,2.88-1.56,1.29-3.46.22-5.05,0-2.06-.27-3.15.14-5.03-1.45l-.72,1.92-3.6-8.64-1.04.62-.87,3.22c.33-1.16-.37-2.19-.47-3.13-.35-3.18-.23-6.43-.47-9.61-.08-1.06-.7-1.99-.5-3.1l-2.4,1.92c.07,1.4.26,2.98-1.44,2.88v-2.4s-.11-.4-.69-.48c-1.38-.19-2.46-.24-2.59,1.28-.07.8,1.43,2.88-.55,2.57l-.96-3.84c-.15.94-.53,1.85-.86,2.74-.15.41.1,1.55-.82,1.1-1.14-.56-1.65-4.21-2.39-5.3-.38-.57-1.1-.37-1.22-.46-1.31-.99-2.62-2.16-3.28-3.7-.2-.47-.46-1.42-1.04-.62-.07.09-.42,1.82-.47,2.17-.12.85.15,1.89,0,2.63-.57,2.05-3.52,2.72-4.99,1.06-.23-.26-.21-1.15-.4-1.52-.33-.64-1.14-1.18-1.62-1.72-2.75-3.12-4.26-6.78-2.85-10.91.53-1.55,1.17-2.81,1.47-4.46.09-.51,1.04-3.65.71-4.04-.66-.77-3.08,3.09-2.88,3.84-1.26.1-.8.07-.94-.73-.68-3.79-.68-8.11-.52-12.01.03-.77.46-1.35.49-1.91.08-1.3.21-3.6.02-4.78-.11-.72-1.77.66-1.45-1.45Z"/>
    <path class="a3" d="M268.41,245.92c.03.23-.02.48,0,.71h0c-.02-.23.03-.49,0-.71Z"/>
    <path class="a3" d="M125.97,251.1c-.07.05-.12.1-.13.13.02-.03.07-.08.13-.13Z"/>
  </g>
</svg>