<?xml version="1.0" encoding="UTF-8"?>
<svg class="a3" xmlns="http://www.w3.org/2000/svg" viewBox="0 0 600 500">
  <defs>
    <style>
      .cls-1 {
        fill: none;
      }

      .a3 {
        fill: #a48c67;
      }

      .cls-3 {
        fill: #c9caca;
      }
    </style>
  </defs>
  <g>
    <path class="cls-3" d="M4.39,13.73v-3.46H1.23v-1.34h3.16v-3.47h1.39v3.47h3.17v1.34h-3.17v3.46h-1.39Z"/>
    <path class="cls-3" d="M14.02,15.76c-.77,0-1.44-.23-1.99-.7-.56-.46-.99-1.14-1.29-2.03-.3-.89-.45-1.98-.45-3.27s.15-2.37.45-3.25c.3-.88.73-1.54,1.29-1.98.56-.45,1.22-.67,1.99-.67s1.42.22,1.97.67c.55.45.98,1.11,1.28,1.98.3.88.45,1.96.45,3.25s-.15,2.38-.45,3.27c-.3.89-.73,1.57-1.28,2.03-.55.46-1.21.7-1.97.7ZM14.02,14.29c.39,0,.73-.15,1.03-.45.3-.3.54-.78.7-1.44.17-.66.25-1.54.25-2.64s-.08-1.97-.25-2.62c-.17-.65-.4-1.11-.7-1.4-.3-.29-.65-.43-1.03-.43s-.73.14-1.03.43c-.3.29-.54.75-.71,1.4s-.26,1.52-.26,2.62.09,1.98.26,2.64.41,1.14.71,1.44c.3.3.65.45,1.03.45Z"/>
    <path class="cls-3" d="M22.64,15.76c-.59,0-1.12-.08-1.59-.22-.47-.15-.88-.35-1.24-.59-.35-.25-.67-.5-.94-.77l.86-1.2c.22.22.46.43.72.62.26.19.55.34.88.46s.7.18,1.1.18c.43,0,.81-.09,1.16-.28.34-.19.62-.46.81-.81.2-.35.3-.77.3-1.25,0-.73-.2-1.29-.6-1.7-.4-.41-.93-.61-1.59-.61-.37,0-.68.06-.94.17-.26.11-.56.28-.89.5l-.89-.58.34-5.6h5.83v1.57h-4.27l-.27,3.01c.25-.13.5-.23.75-.3.25-.07.53-.1.83-.1.65,0,1.24.12,1.77.38s.95.64,1.27,1.17.47,1.2.47,2.02-.18,1.54-.55,2.13c-.37.59-.84,1.04-1.43,1.34-.59.31-1.22.46-1.9.46Z"/>
  </g>
  <g>
    <path class="cls-1" d="M155.38,63.32c.06-.15.11-.29.17-.42,0,0,0,0,0,0-.06.14-.11.28-.17.43,0,0,0,0,0,0Z"/>
    <path class="cls-1" d="M155.6,62.77c.05-.11.09-.22.14-.32-.04.11-.09.21-.14.33,0,0,0,0,0,0Z"/>
    <path class="a3" d="M306.17,263.08c-1.15.09-1.61-.69-2.46-.89-1.74-.42-3.59-.31-5.19-.57-2.65-.43-5.52-2.18-7.91-3.6-.62-.37-1.98-2.47-1.93-.23h-.48s-.27-.02-.4-.34c-.15-.36,0-.95-.1-1.08-.17-.22-2.13.18-2.35-.04-.46-.48-.35-2.34-.5-2.86,1.34.63,3.65,1.01,4.79,1.68,1.29.76,2.21,3.07,4.32,2.64.54-.53-1.46-2.66.25-2.41,1.92.29,4.24,2.73,5.76,2.9,1.85.21,6.89-1.49,8.87-2.17.74-.25,1.7-1.14,1.91-1.21,1.51-.5,2.35.31,3.84-1.44l1.88,2.22c.11.46-.59,1.45-.91,1.87-1.2,1.57-7.46,5.38-9.38,5.52Z"/>
    <path class="a3" d="M208.32,258.66c.24.43-.44,1.36-.7,1.7-.3.38-1.53,1.6-1.94,1.18-.68-.69,2.14-2.62,2.64-2.88Z"/>
    <path class="a3" d="M204.31,266.14l.41-.28c.06.01.12.01.19,0-.06,0-.13.01-.19,0,.18.66-.3.74-.48.96.08-.08-.05-.46.07-.68Z"/>
    <path class="a3" d="M202.77,267.03c.53-.22,1.42-.16,1.47-.21-.61.74-1.04,1.32-2.15,1.44l-.25-.48c-.06.03-.13.08-.2.12.07-.04.14-.09.2-.12.2-.12.39-.53.93-.75Z"/>
    <path class="a3" d="M309.56,229.95c-2.86.3-5.89,2.3-8.68,3.33-.37.14-.94-.08-1.16.02.25-.82.94-1.11,1.59-1.53.86-.57,5.87-3.69,6.32-3.76.75-.11,3.65-.12,4.12.22.35.26.32.89.54,1.12.53.56,2.48.96,2.3,2.5-.11-.07-.55,0-.95-.23-1.57-.92-1.44-1.96-4.08-1.68Z"/>
    <path class="a3" d="M198.96,231.3c.38,3.94-2.45,1.69-4.8,1.92l3.03-1.53,1.77-.39Z"/>
    <path class="a3" d="M192.25,189.06c1.29.13,1.82,1.41,3.36.96.44,1.35-3.46,2.78-3.84,2.4.21-1.15.71-2.15.48-3.36Z"/>
    <path class="a3" d="M200.4,262.5c-.2,1.11-1.52.73-2.16,1.44l-.24-.24c.71-.82,1.22-1.42,2.4-1.2Z"/>
    <path class="a3" d="M288.68,258.74c1.01.01,3.81.81,3.84,2.16.01.51-3.2.12-3.84.24-.03-.48,0-.96,0-1.44,0-.32,0-.64,0-.96Z"/>
    <path class="a3" d="M451.32,371.46h-.96c-.07-.29.09-.77,0-.96h.96c-.09.19.06.67,0,.96Z"/>
    <polygon class="a3" points="450.37 372.42 451.79 372.42 452.28 374.34 449.88 374.34 450.37 372.42"/>
    <path class="a3" d="M167.85,354.75c.07-.07,1.14-.68,1.61-1.05,1.72-1.36,1.74.91,1.58,2.06-.32,2.28-.94,1.47-1.34,1.78l-1.92-1.92c.07-.15-.16-.62.07-.87Z"/>
    <path class="a3" d="M137.58,198.47c.66,1.11,1.46,4.83,1.78,6.3.25,1.16,1.52,7.35,1.07,7.81-.28.28-1.24-.04-1.67-.49-1.53-1.57-3.5-8.42-4.08-10.81-.21-.88.6-1.94-.97-1.66-.43.62-.69.97-1.18,1.06.49-.1.75-.45,1.18-1.07.26-.37.47-.98.74-1.44.21-.37.69-.44.7-.48h0c.67-.05,2.1.22,2.43.77Z"/>
    <path class="a3" d="M240.22,188.1c.26,1.32-.8,2.11-1.68,2.88-.54.47-.79,1.15-1.68.96-.31-.32,1.83-4.66,3.36-3.84Z"/>
    <path class="a3" d="M239.49,179.45c-.85,1.2-2.54,2.45-3.6,3.6-1.66,1.81-1.41,3.3-4.55,3.13-.69-.04-.86.19-.72-.73.15-1,2.01-5.07,2.66-5.98.87-1.22,3.54-2.78,3.84-3.36.37-.73.03-1.63.69-2.19.56-.47,2.57-1.09,3.37-1.19l-2.41-1.67-2.39-.97c-.15-1.6,1.88-.27,2.55-.33.41-.04.88-.41,1.53-.42,2.1-.06,2.28,1.66,2.16,3.4-.11,1.6-2.14,5.3-3.13,6.71Z"/>
    <path class="a3" d="M244.52,141.76c-.76.51-.51,2.1-1.41,2.18-.15-1.82.55-3.92,1.5-5.46.53-.86.85-.88,1.86-.78l.48,3.84c-.76.06-1.77-.22-2.42.22Z"/>
    <path class="a3" d="M252.47,142.51c-.26.56-.5,1.31-1.21,1.43.37-4.12,1.05-7.97-.48-12,1.95-1.54,3.23,1.74,3.83.96.3-.39.33-2.53,1.92-.96-.12.29.04,1.18-.22,1.94-.76,2.2-2.77,6.3-3.85,8.63Z"/>
    <path class="a3" d="M240.46,191.46c.31,0,.31.48,0,.48s-.31-.48,0-.48Z"/>
    <rect class="a3" x="388.3" y="310.47" width=".33" height="1.02" transform="translate(-106.07 366.16) rotate(-45.04)"/>
    <path class="a3" d="M280.04,176.1c-1.07.31-1.41-1.14-2.22-1.38-.68-.2-2.27.2-2.57-.79-.24-.78.64-1,1.21-1.19.73-.24,5.29-1.16,5.51-.97-.03,1.24-1.2,1.68-1.7,2.86-.2.47-.26.95-.22,1.46Z"/>
    <path class="a3" d="M348.68,258.71c-.52-1.5,2.86-4.02,4.68-3.28.45,2.5-3.44,6.89-4.68,3.28Z"/>
    <path class="a3" d="M420.37,283.62l-.24-.24c.77-.69.07-1.5,1.44-1.2v.96c-.58-.09-.86.01-1.2.48Z"/>
    <path class="a3" d="M271.89,166.5l-.96,2.4h4.32c-.22.89-1.61,1.45-1.85,2.23-.34,1.09.51,2.29-1.51,1.37-1.53-.7-2.17-2.54-2.86-2.9-.65-.33-2.14-.09-2.41-.95-.43-1.38,4.42-1.75,5.28-2.16Z"/>
    <path class="a3" d="M269.14,134.24c-1.28.54-2.37,1.6-2.92,2.86-.15.34,0,.91-.13,1.04-.15.17-2.61.4-3.82,2.18-1.5,2.22-.67,4.73-4.78,4.1-.54-.53,1.32-3.72,1.44-4.56.41-2.9-.12-6.2.48-9.36.09-.48.69-.8.89-1.27l.07-.65c.4.02,1.27-.11,1.41.02.36.34.01,2.1,1.22,1.91.29-.04,1.59-.47,1.64-.54.2-.24-.34-1.91.76-1.4.98.46.72,2.85,1.2,3.84,1.5.2,3.13-1.68,4.16-1.87,1.35-.25,4.99,1.49,4.95,3.31-2.5-.43-4.15-.65-6.58.38Z"/>
    <path class="a3" d="M342.17,153.08l-3.6-1.22c2,1.21,2.2,3.26,3.35,4.81,1.9,2.56,5.83,4.57,7.43,6.96.68,1.02.5,1.68.82,2.54.31.83,2.21,2.47-.3,2.22l-11.61-9.02c-8.06-3.9-16.11-7.99-24.06-12.17-1.8-2.63-1.31-4,1.53-5.18.52-.22.33-.93.29-.96-.06-.04-.94-.04-1.45-.22-2.63-.95-7.1-3.62-9.82-3.62h-10.31c-.06-1.13-.18-.86.72-.95,1.5-.14,2.79-.68,4.32-.49.97-.97-.37-.91-.97-1.42-.68-.59-1.17-1.41-1.97-1.88-1.23-.73-3.59-.64-3.54-2.46l7.2-3.36c-.24,1.9-1.34,2.34,1.32,3.26.39.13,1.04.06,1.08.1.07.06.16.67.96,1.44.03.03.05.08.07.12.12.24.21.66.69.8,1.28.37,1.55-.43,1.64-.44h0c1.21-.15,2.61.13,3.84,0,.34,1.2,2.55,1.88,3.63,1.93.52.02.64-.47.69-.49.24-.08,2.95.65,3.14.94l.22,3.38,4.81-1.19c1.1.09,5.29-2.64,5.74-2.17.97,1-3.3,4.82-3.84,5.76h3.83s.02,1.44.02,1.44l4.53-.02c.41,1.94,1.85.26,3.39.04,2.37-.35,1.43.92,1.92.98.5.05,3.68-1.21,3.09.68-.39,1.26-2.65,2.64-3.67,3.53-.51.45-1.36.45-1.11,1.53.92.82,4.35-3.09,5.76-2.4l-.48,3.84c2.58.08,5.4-2.07,7.91-2.41,1-.14.83.35.67,1.15-.26,1.28-.46,1.15-1.38,1.26h0c-1.12.13-3.39,1.79-4.32,2.4-.45.3-1.7.97-2.16.98Z"/>
    <path class="a3" d="M213.84,339.78c.05-.05,1.08-.02,1.44,0v.96c-.48.02-.96,0-1.44,0,.06-.29-.09-.87,0-.96Z"/>
    <path class="a3" d="M155.55,62.9c-.06.14-.11.28-.17.42.06-.15.11-.29.17-.42Z"/>
    <path class="a3" d="M155.38,63.33c.06-.15.11-.29.17-.43.02-.04.03-.08.05-.12.05-.12.09-.22.14-.33.01-.03.03-.06.04-.09,0,0,0,0,0-.01h0c.06-.14-.04-.4.07-.66.45-1.09,1.94-1.82,2.32-.53.21.71-.8,5.1-1.2,6-.16.35-.7.43-.71.47h0c-2.16-.12-1.56-2.54-.88-4.3Z"/>
    <path class="a3" d="M148.13,57.32c.99-1.09,1.59-4.02,1.9-5.54.36-1.74,1.04-2.99-.46-4.58-.59-.62-1.33-.62-1.44-.72-.34-.31.5-1.92.5-2.62,0-.92-.67-1.7-.52-2.64h-.96c.2,1.02-.88,1.33-1.2,1.92-1.68,3.13-2.24,8.32-3.84,11.03-.57.96-2.5,2.65-3.34,3.86-.61.86-1.35,2.32-1.69,3.35-.4-.03-.91.21-.96-.24-.16-1.57.19-3.63-1.9-3.11-2.43,4.94-2.16,10.89-3.96,15.97-.81,2.29-3.53,5.61-4.48,8.48-.63,1.91-.33,4.54-.75,5.97-.16.54-.89.81-1.14,1.26-1.56,2.82-.06,4.02.23,6.49.32,2.75.17,5.66.48,8.64.42,3.97-1.88,2.82-2.33,4.36-.37,1.26.56,2.75.45,4.28-.08,1.16-.62,1.97-.52,3.36,1.25,17.52,3.62,35.94,14.42,50.62.32.43.9,1.37.96,1.44,1.16,1.35,3.55,1.69,4.1,3.34.44,1.33.44,3.13.8,4.48,1.77,6.71,5.22,15.51,10.69,20.03.66.54,2.64,1.48,2.91,1.89.67,1.01,1.23,5.36,1.76,6.88,1.37,3.89,3.9,1.46,4.21,1.78-.07,3.27,1.04,6.47,1.93,9.6,2.06.57,1.26-1.1,2-1.83.64-.64,1.55-.36,1.83-2.25.16-1.11-.71-3.52.96-3.12-.11,1,2.08,6.37,2.46,6.66.2.15.94.05,1.39.28,1.36.69,3.29,2.64,4.32,3.85.32.37,1.8,2.21,1.91,2.41.48.94-.79.71-1.2.72-1.1.02-3.89-.25-4.58.22-.79.54-.26,1.86-.51,2.13-.41.43-1.95.11-1.37,2.2.16.59,2.41,1.13,3.11,1.21,2.13.23,8.83.2,10.32-1.18.4-.37.39-1.01.53-1.13.34-.28,3.59-.89,4.59-1.41,1.12-.59,1.63-1.6,2.55-2.25.92-.65,3.5-1.4,3.8-2.43.08-.27.07-1.14.02-1.18-.39-.27-1.87.63-1.44-.96,2.89-.96,5.43-2.72,8.13-4.11.42-.21,1.37-1.23,1.94-.7.46.42-.63,1.36-.98,1.66-1.27,1.07-5.22,2.91-5.68,4.39-.62,2,.88,1.98,2.58,2.12.51.04,1.04-.14.72.71-.37.97-5.18,6.15-4.31,6.96h2.4s-.49.96-.49.96l2.88-.48c.18.18-.35,3.04-.55,3.29-.08.11-.76.2-1.14.53-.75.64-1.18,1.77-2.33,1.42-.48-.14-.83-1.09-1.46-.91-.67.2-1.74,2.17-2.67,2.39.49-.86-1.43-5.93-2.4-4.8-.07.08-.11,1.72-.47,2.17.28,4.34-.85,8.55-1.93,12.71,1.65.73,2.54-1.28,3.17-1.4.42-.08.91.43,1.4.44,1.35.05,2.64-1.91,3.21-3.02.89-1.75.16-3.28,2.77-2.74.68.68-3.42,7.12-2.4,8.16.07.07,1.79.05,1.87-.05.21-.24.84-1.74,1.27-2.33.97-1.33,3.18-4.38,4.29-5.31,2.68-2.24,2.47-.39,1.46,1.94-.29.66-2.18,2.51-.49,2.39,1.53-1.54,2.63-3.34,3.13-5.46.13-.54,1.38-.35,1.43-.3.34.34-.56,1.89-.5,2.62.05.61.58,1.12.52,1.92-.05.67-.74,1.34-.5,2.18,1.3.37,2.42-1.25,3.56-.94.49.14,1.25,1.62,1.25,2.14,0,.99-1.6,2.82-1.86,3.92-.23,1,.17,2.11-.56,3.04-.63.21-1.24.94-1.66,1.46-.31.39-1.57,1.89-.98,2.38.39-.57.45-.83,1.02-1.38.73-.7,1.85-1,2.1-2.46.76-.02,1.1-.24.97.73-.28,2.06-3.15,6.4-4.82,7.66-.6.45-1.85.7-2.17,1.19-.57.85.48,2.26-1.17,1.95-.03-.01-.06-.02-.1-.02.04,0,.07,0,.1.02.06.03.07.35.31.4.46.1,2.15-1.07,2.57.32.32,1.07-3.86,3.04-4.78,3.38-1.45.53-4.29,1.33-2.9-1.22-.23.08-.72-.11-1.1.08-.78.37-2.27,1.7-3.22,1.12-1.69-1.03,1.3-1.87,1.44-2.41.16-.6-1.36-1.57-.98-2.61-1.02.31-2.31-.47-3.02-.41-1.24.11-3.56,1.75-5.14.66-.36-.25-1.54-4.28-1.42-5.06-2.49.93-5.21.04-4.28-3.08.23-.77,1.18-.61,1.38-.78.54-.45-.6-2.3-1.42-2.38.06,2.14-2.03,1.03-2.91,1.65-.96.68.48,2.57-2.23,1.33-2.53-1.16-7.02-7.48-7.82-10.18-.11-.37.13-1.29,0-1.44-.94-1.12-.94,1.14-1.17,1.47-.35.5-.49.16-1.22,1.41-.62,1.05-4.29,4.27-5.28,3.36-.75-.69,2.43-2.55,2.89-3.11.56-.68,1.54-2.26.22-2.64-.95-.28-1.85.53-2.32.42-.49-.11-1.16-1.3-2.23-.91-.14-1.08-.03-.77.62-1.04,1.82-.78,3.39-1.93.97-3.18-2.23-1.15-7.84.31-7.85,3.03,0,.81.8,1.03.97,1.46.37.91-.62.57-1.18,1.17-.47.51-.96,1.72-1.46,2.39-.77,1.03-2.19,1.83-2.14,3.38,2.54-.08,3.14-3.46,5.76-2.88l-.03,2.62c2.43.72-.22,2.19-.45,3.86-.1.76-.15,3.09.22,3.62.56.83,7.84,3.78,9.36,4.55.59.3,3.78,2.14,3.85,2.39.09.29.17,1.15-.24,1.2-2.03.24-4.03-.13-6-.48l.48,1.44c-1.57.17-2.96-.65-4.43-1.08-.49-.14-1.48-.77-1.8-.12.63.42,1.35,1.65,1.91,1.93.85.43,4.33.31,5.55.25,1.47-.08,3.03-.93,4.74-.47.7.19,1.12,1.19.29,1.66-.83.47-4.85.62-4.81,1.43.01.26,1.4,1.09,1.75,1.15.66.11,2.87-1.52,4.24-1.42,1.02.07,1.28,1.21,1.98,1.41.89.26,2.1-.05,3.06.06-.26.85-1.33,1.19-2.06,1.53-.74.35-3.38,1.09-3.69,1.35-.11.09-.05,1.08.22,1.45.29.41,3.31,2.14,4.08,2.64.57.38.94,1.11,1.46,1.42.78.46,4.95,1.88,5.21,2.22.22.28.12,1.99,1.29,2.33.63.19,1.01-.8,1.47-.91.22-.05,4.31.77,4.47.93.22.21-.15,2.3.07,3.05.21.72,2.06.85,2.36,2.92.12.83,0,.76-.74.74-1.49-.05-4.65-1.7-6.46-2.18-1.71-.46-2.89-1.12-4.5-.16-3.26,1.94.34,4.49,2.56,5.46,3.27,1.43,7.05,2.07,10.55,2.65v1.89c-.94-.05-1.68.45-2.61.52-1.47.1-2.48-.61-3.77-.43-.13.02-1.24.37-1.28.42-.26.29,1.21,1.67-.71,1.93-4.04.55-10.34-.08-14.42-.49-1.73-.17-3.5-.27-5.24-.46-2.31,2.6.36,4.05,2.13,5.73,4.3,1.36,9.97,5.73,14.62,5.27,2.35-.24,5.34-.85,7.66-.97,1.43-.07,9.36-.15,9.89.23.43.32.27,1.19.72,1.25l8.36-.02-.96,1.44h0s.12.43.69.49c1.94.19,3.86.19,5.8.46,1.41.2,1.53,1.86.95,1.93-1.55.19-4.15.1-5.78.02-.85-.04-1.5-.47-2.36-.52-2.44-.15-7.2,1.28-6.5-2.38.59.03,1.19.03,1.79.02-.6,0-1.2,0-1.79-.02-3.24-.15-6.34-.42-9.6-.48-.95-.02-1.93-.03-2.88,0-2.99.1-5.86.69-8.9.5-1.28-.08-2.59-.85-4.06-.5l-.02-1.9c-1.05.24-1.53-.59-2.24-.88-.81-.33-2.35-.46-2.79-1.07-.17-.24-.14-.71-.32-.88-.25-.24-.7,0-.87-.07-.24-.1-.61-.81-1.44-.48.16,1.02.31,2.26,1.44,1.92.08,1.63.48,1.83,1.94,2.62,1.49.8,3.31.82,4.3,1.22.31.13,1.49,1.38,2.88,1.92-.07.45.1,1.05,0,1.44-.08.31-1.25,1.43-.01,2.18.47.29,2.85.27.99,1.44-1.49.93-7.73-.55-10.57,1.9-.36.32-.98,1.4-.9,1.85.16.96,1.51,1.62,1.39,2.71-2.13-.03-3.77,1.47-5.75,1.94v1.42c1.33.51,3.39.22,4.49.54.89.26,1.07,1.88,2.89,1.33.65-.19.87-1.25,1.96-1.4,3.85-.54,8.41.45,12.25.49-.25,1.3-2.87,1.52-3.36,1.92-.04.03-.25.89.31.96,1.15.15,1.37-.36,1.13,1.44,3.42-.86,10.31-3.98,13.27-4.24.78-.07,2.38.8,3.52.4-.69,1.31-2.81,1.66-3.83,2.64-.46.44-.59,1.22-.94,1.46-.63.43-1.8.09-1.94.22-.13.12.18,2.01-.73,3.34-.49.73-6.7,7.07-7.19,7.21-.41.12-1.12-.43-1.2-.72-.5-1.83,4.87-6.43,3.84-7.43-1.29-.61-4.36,1.56-4.99,1.41-.43-.1-1.28-1.13-1.28-1.66,0-.94,1.27-1.17,1.47-2.64-1.9.48-3.47,2.98-5.03,4.34-.41.36-1.06.41-1.16.51-.17.18.01,1.04-.14,1.53-.72,2.34-2.94,4.94-1.14,7.56.46.66,1.3.32,1.88.52,1.23.42.65,1.99.79,3.05.1.79.72,1.37.43,2.35-.37,1.24-3.07,1.85-4.28,1.73l.08,1.6c1.11,1.49,1.51,3.85,2.38,5.3,1.07,1.8,2.8-.81,3.7-1.96.17-.22.27-1.48,1.04-.63.42.46-1.11,2.7-.24,3.36,1.91-1.67,3.59-3.92,5.52-5.52.49-.4.62-.92,1.44-.72.07,1.67-.1,3.36,0,5.03.04.6.55,1.13.5,1.92-.12,1.8-3.25,4.98-2.42,7.45,1,.11,2.17-.16,3.13-.01.71.11.87.58,1.21.72,1.21.51,1.85-.16,1.34,1.86-.2.78-2.17,3.37-1.84,3.67,1.84.1,3.66-.01,5.41-.58.79-.26,3.84-2.15,4.18-1.82.07,1.57-1.79,2.08-2.65,2.87-1.14,1.06-4.63,4.24-5.28,5.27-.56.89.23,2.21,1.03,2.38.21.05,3.04-.94,3.55-1.16,1.46-.64,2.57-1.72,4.07-2.17l-.72,2.88c1.31-.35,3.89,1.32,3.85-.73-.01-.93-1.8-1.97-1.42-3.29.32-1.12,3.48-2.5,3.8-3.18,1.28.92-1.39,3.69.96,3.36.71-2,2.2-2.28.96-4.8.03,0,.07-.35.31-.41.63-.16,1.87.07,2.04-.11.11-.12.06-.62.29-.89,2.69-3.16,4.52-6.54,6.88-9.94l2.71-5.44c1.53.75-.03,4.17-.47,5.29-1.49,3.74-4.67,7.26-6.1,10.7-.29.7-.7,3.01-.9,3.18-.2.18-1.28-.17-1.91.25-.73.48-3.98,5.14-5.48,6.52-.75.69-2.33.97-2.17,2.39,3.41.61,4.2-1.97,5.98-3.85,2-2.11,4.2-4.29,6.24-6.24,2.85-2.73,6.09-6.38,10.33-6.23.37,1.91-1.91,2.34-3.13,3.35-2.47,2.05-1.12,2.42-1.74,4.5-.93,3.15-1.38,6.49-2.1,9.9-.11.52-.61,1.59,0,1.93l4.99-9.45-.43-2.07c.36,0,.79.06,1.12-.07,1.15-.45,2.8-5.73,4.64-6.89.64-.4,1.31,0,1.44.49.31,1.2-1.9,3.53-2.39,4.8-.28.73.12.74.72.71,1.1-.05.48-.24.97-.93,1.28-1.82,2.65-3.86,4.31-5.31.54-.47.79-1.15,1.68-.96.13.97.03,1.36-.47,2.17-1.03,1.67-4.8,5.92-4.83,7.66-.03,1.84,1.49.79,2.19.71.84-.09,1.82.46,2.07,1.28.17.55-.19,1.44.31,1.61,1.27-1.37,1.91-3.18,3.03-4.65.44-.58.48-1.33,1.53-1.11.25,2.14-1,4.11-1.99,5.93-.93,1.7-3.19,4.32-3.76,5.84-.51,1.35,2.15.18,2.4,1.2l-.48.24c-.12.71,0,.87.72.72.08-.02.16-.01.24,0,.05-.3-.07-.71,0-.96.3-1,1.95-3.35,2.66-4.3.45-.6,2.73-3.45,3.08-3.64,1.04-.54,2.63.65,2.88,1.49.15.51-4.07,5.75-4.71,6.76-2.43,3.81-4.35,7.99-5.34,12.42l-.49,5.51c3.73-.77,4.05-4.02,8.41-3.37.88.13,1.21,1.07,2.15.97.75.56-2.81,3.34-3.36,3.6-.81.38-1.56.25-2.4.24l.51,2.84c.53.28,2.03.38,2.29.59.27.21.08,1.42,1.27,1.39.83-.02,4.23-1.78,4.56-1.46l-2.3,4.18-.58,2.06,3.36-1.44c.03,1.07-.18,4.07.5,4.78.6.62,3.67-.49,4.53-.95.45.01.11.7.27.92.68.95,6.94-3.45,7.89-4.26,1.48-1.25,4.48-5.12,5.75-5.77,1.51-.77-.04,2.56.24,2.88.77.86.87-.41,1.04-.63.8-1.02,1.47-2.18,3.02-1.75.53.15,1.22,2.1,1.16,2.54-.15.99-4.62,7.37-3.78,7.99h1.44c.49.35-1.23,3.4-1.4,4.12-.22.92.21.71.92.68.48-1.82,2.09-3.29,2.97-4.95,1.75-3.26,4.68-11.78,7.33-13.78.61-.46.88-.6,1.69-.47.76.74-5.75,12.6-6.48,14.39-.45,1.09-2.74,7.83-2.58,8.32.08.25.42.29.43.33,2.57-3.1,3.68-6.68,6.02-10.06,3.13-4.53,7.29-9.87,10.76-14.19,2.06-2.57,4.46-4.83,6.49-7.43l.72,1.92c4.47-1.45,3.23,2.6,3.36,5.76,2.03-.51,3.83-1.19,5.29.71.98,1.28.28,1.76-.72,2.66-4.32,3.87-9.34,6.53-13.21,11.26-.33.4-1.52,2.06-1.43,2.41.18.68.82.68,1.46.51,3.18-.83,5.95-2.58,8.76-4.2,2.66-1.53,4.65-2.93,7.05-4.94.48-.41.62-.92,1.44-.72-.62,3.54-1.41,7.11-2.4,10.56-.15.53-.31.94-.48,1.44l3.63-3.35,1.84.93c1.38-.68,4.04-3.26,5.34-3.36,1.3-.1,1.78.98,1.91.98.4,0,3.14-5.88,4.07-6.97,1.92-2.26,5.69-4.83,7.93-6.94.93-.88,3.08-2.86,3.59-3.85,1.46-2.87-1.27-2.48-3.36-2.4-.48-.44,1.81-2.91,2.64-2.91,2.21,0,1.68,3.84,1.68,5.31,0,.48,0,.96,0,1.44-1.5-.53-.84,1.26-.96,2.4-.27,2.52-1.26,4.76-1.44,7.2,1.74.22,4.04-1.72,4.32.96l1.91-3.14c1.7.02,1.26-.8,1.92-1.42.39-.36,3.5-2.73,3.84-2.89.46-.23,1.81-.37,1.92-.23.07.08.42,1.94.41,2.07-.05.67-1.15,4.41-1.46,5.26-.44,1.2-1.73,2.73-1.82,4.18.31.3,4.91-1.69,5.2-1.99.43-.42,1.24-4.12,2.06-5.38,1.12-1.72,4.63-5.34,4.75-1.28l3.82.02c.39.37-2.52,4.58-2.8,5.59-.69,2.51.94,1.55,2.1.66,1.4-1.08,4.12-4.75,5.27-5.29.55-.26.98.17.72.72-.34.73-1.46,1.12-.96,2.64.55.05.94.04,1.45-.23,1.69-.89,6.14-6.63,7.89-8.42,2.07-2.12,4.92-5.36,7.2-7.2,2.38-1.93,4.42-2.4,1.91.95-2.58,3.45-10.12,10.86-10.78,14.66-.36,2.05,1.36,1.19,2.39.47,2.59-1.8,4.58-5.35,6.72-7.68,2.98-3.24,5.28-5.6,9.1-7.69,1.91-1.04,2.69-2.41,5.48-1.6.91.27.89,1.69,2.95,1.4,2.01-.65,4.94-3.37,6.79-3.78,1.09-.24,2.23.08,3.27-.09.92-.15,5.32-1.62,5.53-1.43.41.38-.56,1.38-.97,1.67-1.35.96-3.6,2.21-5.1,3.06-2.72,1.52-5.83,3.06-8.8,3.92l2.66.5c1.94-.54,4.3-1.24,6.12-2.04,2.19-.96,4.33-3.1,7.05-2.78.13,1.22-.67,3.56,1.17,2.85,1.83-.7,3.5-5.37,6.5-4.29.98,4.34-3.35,3.84-6.21,5.31.26,2.41-.26,1.58-1.65,2.43-1.55.96-1.47,2.08.43,1.87.99-.11,1.22-.98,1.9-1.46,1.5-1.09,3.16-2.17,5.01-2.35l.3.95c3.36-.32,7.47.73,10.47-1.05.57-.34,1.17-1.26,1.56-1.34.49-.1,1.53.77,2.77.39,1.09-.33,3.45-3.93,4.6-4.51.69-.35,1.32-.13,2.19-.69,1.67-1.07,2.54-4.41,3.55-5.09.6-.41,1.46-.09,2.12-.28.63-.18.95-1.14,1.56-1.32.37-.11,2.72-.5,3.06-.54-1.26.29-1.16-1-1.56-1.35-.22-.19-.68-.03-.8-.12-.4-.29.8-2.58.44-3.33-5.38-.08-7.21-5.09-5.02-9.58.36-.73,1.26-1.53,1.59-2.27.17-.39,0-1.03.07-1.11-.76-.75-1.97-.41-1.95-1.91l-1.89.47c.17-1.61-.58-2.17-2.17-1.94-.83.12-1.32.93-2.13,1.24-.65.24-1.51.12-1.97.43-.68.46-.52,3.38-3.04,2.62-.78-.24-2.74-3.45-2.65-3.96.17-.99,1.68-2.42,2.68-2.64,1.25-.28,2.23.69,3.51.41-.32-1.07.7-1.6.9-2.24.16-.5-.03-1.45.1-1.57.09-.09.9,0,1.41-.26.96-.51,1.18-2.14,1.9-2.91.58-.63,1.32-.61,1.44-.72.15-.14-.59-2.97-.45-4.05.58-4.62,3.45-5.53,7.67-5.53-.02-.07.38-.86.48-.96-3.39-.18-7.9-1.44-10.53-3.62-1.59-1.31-3.77-4.32-4.25-6.31-1.19-4.96-.3-8.98,1.58-13.6.51-1.24,3.1-5.41,3.15-5.99.23-2.65-6.29-6.91-.72-8.37l1.17-3.39c-.32-.02-.64.01-.96,0v-.96c.81-.12,1.44.12,2.11.54l.29.42s.17.72.72.48c1.05-1.03-.4-.77-.73-1.26-1.4-2.08.86-2.84,1.87-4.33.92-1.37,2.07-3.9,1.28-5.47-.28-.54-1.44-1.06-1.63-1.73-.21-.75.07-1.6-.07-2.33-.33-1.77-1.62-3.6-3.18-4.5-1.32-.76-3.07-.14-3.06-1.99-1.66,1.1-3.01,3.23-5.27,2.88-.5-2.1.87-3.39.96-5.28-.93-.27-1.12.72-1.74.89-.62.17-1.31-.05-1.84.08-1.23.29-2.31,1.03-3.61.95-.32-1.07,1.28-1.63,1.44-2.16.46-1.57-2.45-1.18-3.36-.72-.26-2.76-3.46-4.88-6.24-4.32.6-3.89-1.14-1.66-2.43-2.61-.75-.55-.13-.53-1.88-1.46-1.15-.61-3.05-2.82-3.83-3.38-.67-.48-2.28-.46-2.92-.92-.84-.61.19-2.23-1.65-1.7-.95.27-.91,3.13-1.65,3.63-.59.4-1.45.08-2.12.28-.43.13-.67.68-1.1.82-.56.18-1.44-.18-1.6.31,1.04.45,1.58,2.18,1.96,2.6.4.44,4.68-1.03,3.75,2.16-.17.59-1.26,1.05-1.37,1.54-.39,1.8,4.97,5.08,5.96,6.44.42.58.56,1.37.98,1.9,2.62,3.26,10.87,11.09,11.66,14.73.26,1.18-.02,2.53.09,3.75.06.68.7,1.34.47,2.17l-3.36-.48c-.39,1.77,1.84,3.07,1.94,4.57.12,1.87-1.56,4.18-1.95,5.99-1.98.05-1.25-1.76-1.52-3.04-.66-3.12-3.23-1.82-2.1,2.1.33,1.27,5.43,9.18,5.06,9.58-.44.46-1.83-1.04-2.17-1.43-.74-.83-1.68-2.66-2.62-3.14-.7-.36-1.38-.09-2.19-.69-1.93-1.42-4.48-5.75-5.96-6.52-2.06-1.07-3.66,1.32-3.37,3.37.22,1.59,1.83,3.08,2.4,4.56-3.44-.88-9.44-2.38-8.65,3.13.16,1.14,1.48,1.42,1.48,2.38,0,.51-.78,1.94-1.23,2.16-.88.43-.72-1.04-1.18-1.7-.27-.4-2.51-2.62-2.9-2.86-.64-.4-1.29-.02-1.44.49-.27.88,2.52,1.98,2.89,2.87,1.18,1.91,3.16,3.53,2.87,6.01-.83.82-6.62-3.22-7.42-4.33-.42-.59-.58-1.49-.97-1.92-.4-.44-1.14-.31-1.22-.76-.15-.87-.46-2.07-.5-2.81-.08-1.65.22-2.68.04-4.82-.1-1.19.04-2.4,0-3.59.87-.87,5.99,4.25,5.27-1.19-.7-5.28-5.09-7.39-8.16-11.04-.67-.8-3.22-4.14-2.39-5.05,1.24-.23,1.85,1.55,2.64,1.92.58.27.94-.12.71-.72-.48-1.24-1.76-3.46-2.47-4.72-.5-.9-2.16-2.73-2.29-3.5-.08-.46,1.25-1.94,1.33-2.9.06-.71-.76-1.42-.89-2.32-.18-1.28-.1-3.68,0-5.04h-.96s0-1.44,0-1.44c-3.44.57-10.33-3.56-13.6-5.35-.72-.39-3.09-2.19-3.49-2.28-.72-.15-1.35,1.02-3.23-.12-2.61-1.58-1.47-4.93-1.75-5.21-.71-.72-2.11,1.01-2.7,1.38-1.36.84-5.27,3.32-6.63,2.92-.59-.17-.89-.99-.7-1.62.42-1.4,3.57-2.23,3.78-2.94.58-1.97-1.64-1.46-2.55-1.73-.49-.15-.74-.86-1.51-.92-.83-.07-3.87,1.2-4.07.99-.09-.09-.41-1.84-.72-2.4-.26-.47-.95-.69-1.13-1.27-.16-.51.03-1.49-.07-1.61-.54-.63-5.16.7-5.97.46-1.28-.37-.52-3.11-.74-3.34-.45-.45-4.68,1.07-3.13-1.45.98-1.6,3.64-3.47,3.61-5.5,0-.58-.57-1.02-.43-1.84.16-.94,1.57-2,1.79-3.04.34-1.56-.09-5.75,2.23-5.95,1.46-.12,2.33,2.13,3.57.24-.1-1.58-.28-3.18-.46-4.76-.24-2.12-.23-4.29-.48-6.24-.22-1.7-1.58-3.53-1.93-5.26,0-.33,1.59-.5,1.88-1.53.2-.71.14-2.48.05-3.29-.1-.85-1.8-6.99-2.13-7.47-.51-.75-1.8-.41-2.66-.46-.7,1.61,1.69,5.49,1.43,6.47-.18.69-1.27.85-1.91.74-1.06-7.25-3.91-14.14-7.75-20.33-1.99-3.2-5.45-8.07-8.31-10.4-1.23-1-8.8-6.6-9.6-6.71-.71-.1-2.88.18-3.07-.06-.11-.13.03-.57-.14-.77-.64-.74-4.18-2.03-4.63-2.6-.37-.46.02-1.86-1.33-2.75-2.19-1.45-4.62.21-5.67-.07-.78-.21-.63-1.43-.96-1.93-.47-.71-1.6-.26-2.21-.67-.52-.35-.37-1.25-.67-1.73-.54-.84-1.98-.27-2.84-.52-.61-.18-.94-1.14-1.55-1.32-1.47-.44-4.54.67-6.19.89-1.52.21-4.07-.76-4.07,1.45,2.76-.55,2.52,1.8,2.88,3.84,2.14.81,3.36-3.04,4.49-2.85,1.06.18,5.54,4.83,6.55,5.95,1.31,1.46,3.46,3.98,4.54,5.54.71,1.03,1.39,3.28-.05,3.77-.88.3-1.93-.28-2.12,1.25-.19,1.6,2.9,9.85,4.33,10.58.77.4,1.6.2,2.41.23.01-.72-.01-1.44,0-2.16,0-.41-.22-1.67.72-1.2,2,1.02,1.59,2.76,1.69,4.55.06,1.09.84,1.17-.26,2.64-1.53,2.05-4.62.24-6.48,1.2-.31.16-.57.72-.96.96-1.65,1.01-2.43,1.35-3.58,3.14-3.05,2.22-5.46,5-9.36,5.75.32-2.84.31-5.76,1.46-8.41.01-1.26-1.97-1.93-2.68-2.61-.54-.52-.75-1.44-1.17-1.71-.41-.27-1.06-.18-1.47-.45-1.34-.9.46-1.64-2.72-1.3-.69.07-3.69-1.96-4.73-2.29-.57-.87.36-2.68-1.18-1.71-.57.36-3.14,3-3.58,3.62-.74,1.05-.95,2.67-1.44,3.36-.37.53-3.18,1.1-2.17,1.91.1.08,1.88.24,2.55.57,1.93.94.95,2.09,1.35,3.45.17.61,1.14.95,1.32,1.56.3,1.01-.05,2.6.07,3.77.03.29.41,2.07.49,2.15.15.15,1.36-.32,2.39.73,1.11,1.12.84,3.01.95,3.13.16.19,2.62-.21,2.85.02.06.06.51,1.48.51,1.65,0,.28-.45,2.36-.57,2.81-.22.81-1.01,1.34-.88,2.24l2.88-1.92-2.46,5.45c-.06.36-.58.8-1.06,1.15-2.05.95-2.12.42-3.22.88.01-.1.03-.19.03-.29-3.15.84-6.2,3.48-5.75-1.67.12-1.39,1.42-2.71-1.45-2.65-.25,1.82.95,3.7.44,5.48-.21.74-1.65,1.02-1.87.76-.16-.18-.66-2.15-1.21-2.87-.59-.77-1.5-.9-1.6-1.04-1.14-1.46-1.64-12.66-1.53-15.07.04-.77.46-1.35.49-1.91.1-1.67-.05-3.36.01-5.03-.28-.28-4.57.39-5.77-.23-.49-.25-3.39-5.18-4.3-6.26-.83-1-2.02-1.86-2.89-2.87.47-.33.92.42,1.64.22,1.85-.5.07-5.44-.43-6.71-.75-1.9-3.44-5.84-3.62-7.44-.16-1.43.79-4.92,2.6-4.53.74.16,3.12,4.67,3.91,5.72.58.76,2.39,2.11,2.57,2.72.33,1.1-.62,1.98-.43,3.06.46.49,5.53-3.11,6.24-2.4.27.91-.98,3.8-.46,4.3.06.06,1.5.48,1.6.46.31-.07,3.59-3.43,4.15-4.04.39-.42.56-1.01.94-1.46,1.08-1.25,3.38-2.49,2.87-4.29-.3-1.04-3.15-1.06-3.33-1.23-.13-.13.04-1.42-.01-1.91l.4-.31c.58-1.37.58-2.56.56-4.01h-.96c-.06-.13-1.47-.69-.96-1.92-2.19-.5-3.57-3.74-5.76-4.8.28-1.12-.81-1.18-1.59-1.53-1.42-.64-4.47-2.17-5.79-1.77-.94.28-1.02,1.46-1.37,1.78-.26.24-.77.03-.84.09-1.16-1.08-1.88-.97-3.36-.96.11-1,.07-1.09-.96-.96,0,.32,0,.64,0,.96.02,1.14.65,1.97.42,3.04-.4,1.82-4.45,5.79-4.71,7.31-.13.75.7,1.32,1.41,1.17l.46-1.22,2.9-2.63c.05,1.19-.89,2.53-1.51,3.53-.48.77-3.02,3.61-2.28,4.12.41.29,1.75-.17.69,1.97-.15.31-3.07,2.69-3.63,3.09-1.24.89-2.9,2.15-4.47,1.64-.44-.14-.72-.77-1.08-.85-.12-.03-2.04.04-2.42.05-.63.02-1.07.44-1.74.33-2.13-.35-2.14-2.32-1.22-3.96.5-.89,3.59-3.85,2.81-4.63-.05-.05-1.35-.03-1.4.03-.63,1.29-1.3,2.75-2.04,3.97-1.15,1.92-6.49,11.46-8.8,10.88-.71-.49-.72-.88-.74-1.68-.09-3.08,1.4-2.56,3.15-4.07,3-2.61,9.08-8.91,7.87-13.17-.25-.88-1.96-.63-2.62-1.72-.29-.48.51-1.97-.28-3.53-.41-.81-.97-.6-1.27-.89-.23-.23-.19-.87-.55-1.12-.15-.1-2.44-.65-2.6-.63-1.25.19-1.88,1.91-3.19,1.85-.06-.91.32-2.11-.49-2.65-.32-.22-.85-.17-.94-.25-.27-.22.74-2.06,1.02-2.55,1.63-2.82,3.9-5.65,5.3-8.62.33-.69,1.8-4.19,1.34-4.65-1.45-.23-2.7,1.38-3.61,2.39-1.6,1.79-2.66,4.11-4.14,5.94-.42.52-.48.99-1.36.79-.3-1.85.45-3.47.48-5.28-.54-.54-2.66,1.46-2.41-.25.33-2.3,2.11-5.17,2.4-7.68.12-1.06.18-5.39-.21-6.01-.58-.91-1.99-.63-2.6.32-1.44,2.28-1.98,6.13-3.17,8.83-.33.76-.57,2.21-1.69,1.91.53,1.15-1.68,5.16-1.44,6.72,3.66.15,2.18,3.06,1.34,5.42-1.76,4.95-4.72,9.57-7.83,13.76-.41.55-1.49,1.3-1.63,1.73-.2.62-.17,1.5.69,1.17,1.57-.6,4.33-3.7,6.01-2.64,1.55.97-1.52,3.68-2.42,4.31-1.69,1.2-5.94,2.23-6.7,3.85-.58,1.24,2.24.27,2.55.15.65-.28,2.77-2.24,3.21-1.83.1,1.63-2.43,1.95-3.13,2.88-.27.36-.17.9-.22.96l.47.27c.14.62-.15,1.14-.47,1.65.15-.03.33.03.48,0,1.49-.3,2.12-1.26,3.1-1.45.45-.09,1.65-.14,1.21.73-.74,1.46-5.2,4.66-6.74,5.75-.64.45-1.27-.05-.87,1.39.29,1.06,1.18,1.52,1.61,2.24.74,1.21,2.19,3.38,2.65,4.55.39,1.02-.98.81-1.6.64-2.5-.69-7.1-5.77-9.18-7.61-2.2-1.95-5.58-3.21-6-6.48-.24-1.88.22-4.11,0-5.99.36,0,.36-.26.48-.48h-.48c-.03-.11-.86-1.83-1.02-2.1-1.23-2.1-1.22-.49-2.82-.3-2.44-6.51-3.73-13.39-5.28-20.16h-1.42c-.6,1.95-1.65,3.99-1.93,6.01-.17,1.22.57,4-.98,2.87-.21-.16-2.44-4.02-2.65-4.54-1.71-4.08-2.62-8.52-4.16-12.64-.51-1.35-1.99-4.29-3.24-4.91-.58-.29-1.17-.13-1.62-.3-.41-.15-3.19-5.13-3.19-5.45v-10.08s-.34-.4-.48-.48c-1.62-1.02-1.81.73-1.94,2.15h-2.36c-1.62-4.5-2.22-8.91-1.96-13.69.04-.77.44-1.33.49-1.91.34-3.98-1.06-6.15-3.25-1.81-1.66,3.29-1.62,7.09-1.54,10.7l-1.21-.47c-1.06-3.3-2.37-6.47-3.09-9.86-.3-1.4-.3-3.27-.6-4.68-.37-1.74-1.64-4.08-1.82-5.38-.59-4.23.67-8.42.95-12.49.05-.73.17-4.39,0-4.55-.1-.11-1.55-.05-1.94.22-1.27.86-.67,4.24-4.7,2.11-1.08-3.98-.95-8.29-1.51-12.41.37-.39,2.49,1.88,3.61-.95.96-2.42,2.81-9.25,3.09-11.78.12-1.1.4-2.4-.91-2.18-.25-.18.92-3.4,1.64-3.81l.72,2.88c.21-2.59,2.16-5.16,2.8-7.53.16-.57-.02-1.19.08-1.59.38-1.55.6-4.05,1.44-5.28v-.96s.96,0,.96,0c.9-.41,1.36.46,1.44.48,1.61.49,2.56.72,3.86-.7ZM338.6,230.13c.14-.48,1.18-1.01,1.41-.74.06.07.5,1.54.5,1.68.04,1.85-2.6,1.41-1.92-.93ZM440.32,384.13c-.03-.15.57-2.95.66-3.08.48-.74,1.82-.4,2.66-.46-.78,1.31,1.8,6.84,1.44,7.2-.19.19-1.3.08-1.67-.5-.16-.26-.17-.66-.34-.83-.46-.47-2.54-1.36-2.74-2.32ZM415.34,334.98c1.12.53,2.59.27,3.54.54,1.55.44,6.01,8.63,7.51,10.25l.47,2.17c-.89.19-1.14-.49-1.68-.96-1.54-1.35-2.39-3.09-3.83-4.34-1.7-1.48-.86-1.23-1.94-2.85-.75-1.13-2.41-2.25-3.35-3.37-.4-.49-.92-.62-.72-1.44ZM377.43,298.98h-1.92v-1.92c.89-.31,2.35,1.49,1.92,1.92ZM412.94,345.54h.96c-.09.58.01.86.48,1.2l-.24.24c-.69-.77-1.5-.07-1.2-1.44ZM404,342.72c-.44-.09-.95.48-1.34.41-.67-.13-1.02-1.65-.76-1.9.34-.34,1.69.72,2.24.88.55.16,1.23,0,1.76.16,1.85.61,3.69,1.86,5.6,2.32.26,1.94-1.33.41-2.26.1-1.23-.4-4.62-1.84-5.24-1.97ZM400.33,359.36c1.18.62,1.66,1.89,2.98,2.07l-1.41,1.4c1.4.95,2.73,1.14,4.01,1.99.69.46,2.1,2.2,1.03,2.33-1.91.23-3.15-.25-4.81-.47-1.83-.25-6.22-.07-6.01-2.66.09-1.11,1.01-.95,1.46-1.67-.49.15-4.06-.94-4.28-1.72-1.17-3.95,5.04-2.31,7.03-1.27ZM388.51,351.1c.16-.58,2.32-.96,1.4-1.72-.71-.59-4.75.68-6.01.49-.62-.09-1.88-1.16-2.15-1.69-.48-.94.79-.71,1.2-.72,1.52-.03,3.05.02,4.56,0-.96-1.88-4.55-.18-3.84-2.88l2.88-.48c-1.51.04-4.99-1.06-6.24-.48-.05.02-.13.73-.77.91-2.5.68-8.28-.5-10.99-.9-1.17-.17-4.12-.16-5.05-.71-.53-.31-.63-1.54-.46-1.7.88-.86,13.53,1.27,15.83,1.44-.05-1.61-.32-1.38,1.19-1.44,2.63-.1,5.15.64,7.69.95,1.97.24,4.01,0,5.99.49l-.48,1.91c2.04.68,4.62,1.71,6,3.37.4.48.92.61.72,1.44-2.62.34-4.76-.47-7.18-1.22-.79-.24-1.11-.58-.98.5,2.25,2.39,5.9,1.41,8.62,3.37,3.07,2.21-1.95,2.43-3.83,2.15-.07.61,1.07.82,1.6,1.05.42.18.79.43,1.27.41.37,1.33-.38,1.75-1.68,1.91-1.08.13-1.64-.42-2.4-.48-1.67-.14-3.47.23-5.03-.73-1.54-.96-.72-2.83-1.03-3.07-.2-.16-.84.14-.91-.3-.07-.44-.06-1.45.06-1.86ZM362.55,401.45c.98-.59,3.27-.07,4.56-.24,3.87-.51,8.26-2.93,12.49-2.87,1.53.02,1.24-.11,1.19,1.44.03,0,.08.44.47.27,2.04-.87,3.86-2.58,6.24-2.19.45.39-1.27,2.15-1.66,2.42-.9.62-3.21,1.21-4.34,1.42-1.53.28-1.24-.25-1.19-1.44-3.46,1.39-8.05,3.09-11.78,3.38-.79.06-1.31-.45-1.91-.49-1.15-.07-2.84.22-3.79-.04-.69-.19-1.12-1.16-.28-1.65ZM232.55,288.42c-.61.67-2.7-1.99-2.4-2.88,1.51-.93,2.7,2.55,2.4,2.88ZM238.78,298.98c-3.65-.29-7.01-1.54-9.92-3.75-.3-.22-1.76-.97-1.11-1.53.34-.29,6.63,1.74,7.85,1.51.55.4,3.77,3.23,3.18,3.77ZM237.82,333.06c.63.1.63.38,0,.48-1.36.21-1.36-.69,0-.48ZM253.18,313.86c-.8.66-7.28-2.58-8.49-3.27-1.64-.94-5.02-3.07-6.13-4.43-.27-.34-.64-1.37-.74-1.42.31.05.69-.07.96,0,.17.04.39-.06.48,0,.16.11.4.92.96,1.21,1.25.64,1.63.97,2.88,1.19l-.22-.49-3.14-2.39c.05-.05,0-.35.28-.43,2.06-.62,4.72,1.93,6.92,2.35v.96s0,1.44,0,1.44c-.93.02-1.6-.65-2.4-.96-.18,1.68,1.64,1.48,2.4,1.92,1.64.96,3.44,2.13,5.28,3.14.31.17,1.85.44.96,1.18ZM332.84,220.1c0,1.99-.32,3.1-2.42,2.64l.86,2.26.34,3.02c-1.22-1.79-1.64-4.13-2.54-6.1-1.62-3.53-5.9-9.83-8.96-12.15-1.1-.84-2.89-1.79-4.26-1.37-.48.15-.72.86-1.5.93-.35.03-4.19-1.03-4.56-1.22-1.37-.72-1.67-2.36-2.37-3.39-.71-1.04-3.71-3.73-4.82-4.54v-1.44c.66.29,7.88,2.27,8.48,2.32.55.04,1.1-.46,1.82-.42.87.05,1.61,1.01,2.41.99,1.38-.03,2.72-.85,4.73-.41,4.73,1.05,12.81,14.17,12.82,18.88ZM337.62,290.66c.36,1.17,2.1.62,2.87.47.71-.14,1.11-.68.97.49-.9,1.34-3.94,2.3-4.57,3.59-.34.68-.12,1.71-.28,1.88-.72.75-3.54,1.33-4.61,1.87-1.07.54-1.67,1.24-.61,2.26,1,.97,3.91,2.69,5.27,3.13,0,.43.26.73-.29.96-2.11.87-4.44,2.64-6.66,2.39-2.29-.26-3.83-.13-6.24.02l-12.24,2.39c-.27-1.29.55-.92,1.44-1.19,4.36-1.3,8.78-2.15,12.95-4.09.34-.89-.6-1.28-1.29-1.38-1.04-.15-2.68.85-3.98.42l.96-1.92c-2.07.08-4.17-.11-6.24,0v-.96c1.7-.13,4.41-.67,5.76-1.68.49-.37.63-.88.48-1.44-.17-.62-3.19-1.15-4.06-1.22-4.02-.32-7.97,1.21-12.25-.46v-.96c2.53-.04,4.16.79,4.74-2.24l-.91-1.84.96-.96-3.36-2.16c2.24-.1,3.74.53,5.6-.88.36-.27.93.15.63-1.03-4.37-1.82-9.01-2.71-13.56-3.96-3.9-1.07-7.79-3.07-11.87-2.76-.24.22,1.26,2.48-.24,1.92-1.69-.64-1.91-1.34-2.16-2.88-3.57.48-6.46-3.05-8.65-5.51-2.54-2.86-5.77-7.09-7.08-10.67-.64-1.73-2.24-7.95-.97-9.17.27-.26,1.08-.11,1.3-.86.15-.51-.05-1.5.05-1.63.04-.06,1.38-.05,1.43,0,.78.93.77,5.01,2.41,5.76-.15-1.57.25-3.46-.08-4.96-.32-1.44-2.31-3.71-2.33-5.36,0-.56.44-1.22.84-1.9.24.25.48.5.71.75.29.3.56.61.84.91.01,1.15.32,2.12.49,3.36h.96s0-.96,0-.96c1.34.27.96-.63.96-1.66,0-.03,0-.05,0-.08,0-.06,0-.12,0-.19.15-2.03.66-1.92.96-2.88h.96c-.26.65.47.9.48.96,1.22.13,2.74.07,3.36-1.2.44-.89-.56-.75-1.11-.63-.37.08-2.28,1.05-1.76-.32.24-.63,1.68-2.84,2.17-3.59.36-.56,2.64-3.78,2.87-3.85,1.54-.47,1.17.66,1.44,1.92.12.54.11,1.85.96,1.44.86-.42,1.19-1.88,1.66-2.18.49-.32,1.32-.18,1.96-.44,2.13-.86,7.32-5.99,8.84-7.96.36-.47,1.17-1.62,1.24-2.14.15-1.1-.47-1.7-.52-2.43-.06-.86.5-2.89.49-3.82-.01-1.21-1.54-2.45,1.2-2.65,2.21-.16,5.68-.05,7.63,1.04.71.4,3.21,2.86,3.2,3.53-.02.79-.68,1.51-.5,2.89.36,2.73,1.81,1.85,3.52,2.23.57.13,1.11.76,1.58.82.94.13,1.21-.95,3.04.32,4.8,3.33,4.79,11.72,7.94,16.05,1.24,1.71,1.83.21,2.63.7.54,1.21,3.22,2.37,3.61,3.14.36.7.24,1.43.23,2.18,0,.55.25,1.59-.72,1.2-1.82-.74-2.17-3.01-4.06-3.62-.77-.25-1.49-.1-2.11-.29-.77-.23-.83-1.13-2.48-.9-1.57.21-1.38,2.11-.6,2.82.18.16.64,0,.78.13.19.15,0,1.43.14,2.04.23.99,2.03,2.65,1.84,3.43-.17.67-1.31.63-1.44.73-.04.03-.27.83.33.96.38.08.95-.09.63.72-.38.96-3.94,3.36-4.32,4.32-.4,1.02,1.21.67,1.44,1.44.3,1.02-1.66,2.48-.94,3.09.49.41,1.78.04,1.43,1.94l3.83-.48c.1.87-.27,2.18.22,2.9.53.79,3.74,1.12,4.07,2.68.44,2.09-3.33,1.96-4.28,3.3.59.57,1.81.05,2.6.28,1.81.52.01,4.96.28,5.24,1.42-.73,3.28-.18,4.5-.54.81-.23,1.25-1.89,2.7-1.38-.28,1.64-1.28,3.05-.96,4.8h2.88s-1.44,1.92-1.44,1.92h4.32c-.06.54.08,1.15.02,1.66-.06.48-5.26,1.45-4.81,2.9ZM319.58,314.91c-4.17,1.73-9.83,2.24-14.33,2.89-3.39.49-7.14,1.21-10.55,1.45-1.34.09-2.75-.11-4.1-.02v-1.44s29.27-4.32,29.27-4.32c-.08.55.3,1.2-.28,1.45ZM304.99,295.22v.96l-10.56-.24,4.54-.74c2.01.01,4.02.05,6.02.02ZM303.32,291.86c-1.32.07-3.69.49-3.6-1.44,1.51-.11,2.89,0,4.32.48.04,1.02.22.91-.72.96ZM307.17,301.48c2.53-.11,5.32-.31,7.9-.5v.96c-3.35.17-7.22.75-10.78.97-.49.03-.96.46-1.45.47-1.06,0-2.82-1.13-4.08-.96-.04-1.02-.22-.91.72-.96,2.56-.13,5.15.14,7.7.02ZM307.87,319.7l-19.19,1.92v-1.44s18.44-1.91,18.44-1.91l.75,1.43ZM329.75,310.12c1.11.73,2.96.4,4.27.46.94.05.75-.06.72.96-2.94.82-5.89.3-8.87.49-1.02.07-2.1,1.25-3.13-.25l5.76-1.2-.48-1.44c.39.04,1.28-.11,1.39.05.12.18-.13.61.34.92ZM328.5,317.3l1.44-1.44h-3.36c-.17-1.11,0-.76.62-1.04,1.5-.68,3.13-1.35,4.85-.84.78.23.62,1.2.78,1.39.18.22,4.61-1.3,5.5-1.42.52-.07,2.99-.11,3.11-.01.84.69-.59,1.05-.96,1.19-4.08,1.47-7.52,2.73-11.99,2.17ZM279.57,324.97c-.09-.07.04-1.04,0-1.43.86-.05,1.77.1,2.63-.01,7.12-.89,14.48-.5,21.59-1.44,6.25-.82,12.98-2.75,19.21-3.34.65-.06,3.92-.15,4.07,0,.83.8-.9,2.07-1.77,2.31-1.74.48-4.31.76-6.16,1.04-2.78.42-8.24.37-10.49,1.03-.57.17-.87,1.01-1.58,1.3-4.17,1.71-17.67,1.9-22.49,1.54-.71-.05-4.76-.79-5.01-.99ZM247.42,397.14c.46-.39,1.43-1.21,1.92-.72.49.49-.33,1.46-.72,1.92-2.69,3.17-6.28,6.08-9.37,8.87l-3.35,1.69c-.24-1.48,0-1.01.62-1.53,3.83-3.2,7.2-7.1,10.89-10.23ZM230.37,357.53c.24-.35,5.94-2.3,6.96-2.64,4.58-1.52,16.61-5.33,20.87-5.02,6.49.47,12.54-1.48,18.95-2.66.81-.15,1.53-.37,2.41-.23.17,1.03-.42,1.15-1.18,1.46-2.88,1.18-7.14,2.36-10.21,3.22-1.32.37-5.12,1.54-6.13,1.58-1.38.04-.73-2.04-2.38-1.46l-15.96,4.24c-1.04-.79-8.88,1.2-9.2,1.55-.14.15.04.95-.26,1.41-.07.1-1.8,1.36-1.94,1.43-1.12.53-.55-1.24-.74-1.42-.17-.17-2.52.45-1.2-1.47ZM234.81,352.36c4.53-1.7,10.21-3.61,14.89-4.79.87-.22,3.96-1,4.44-.6.83.69-.58,1.05-.96,1.19-6.46,2.29-13.47,4.6-19.81,7.07-.64.25-3.23,2.29-3.7.62-.53-1.9,3.71-2.96,5.14-3.5ZM215.76,348.9h.96v.48h-.96v-.48ZM215.52,346.5c.31,0,.31.48,0,.48s-.31-.48,0-.48ZM198.49,350.58c.47-.25,1.11-.13,1.36-.33.74-.57,3.64-3.04,4.39-3.75.18-.17.42-2.27,1.92-1.92-.27.69-.93,1.81-.96,1.92-.08.28-.08,2.31,0,2.4.06.07,1.78.05,1.87-.07.1-.14-.03-.57.14-.77.2-.23.78-.26,1.11-.58,1.13-1.11,5.28-5.69,5.51-6.74-1.02.02-2.12-.1-3.11,0-.26.03-2.07.43-2.17.47l-1.92-.96,3.35-.98c.44-2.54-.57-1.62-.95-1.9-.29.06-.73-.08-.96,0l-.48.48s.07.57-.48.48c-.24-1.5,1.23-1.5,1.92-1.92.67-.41.76-1.27,1.44-1.68,1.28-.78,2.58-.53,3.84-.72.17-.03.37.05.48,0v.48h-.48c-.82,1.43.02,3.11-1.92,3.84v.96s23.51-5.76,23.51-5.76c.26,1.42-.4.75-1.09,1.05-2.12.93-3.15,1.26-5.29,1.93-3.76,1.18-7.55,2.3-11.37,3.26-.34,1.57,1.11.81,2.15.97,1.45.23,2.95.81,4.57.47.11-.02,1.16-1.44.96.48,1.71.13,2.65-.4,4.06-.5,4-.3,4.95-.18,8.9-1.42.78-.24,1.4-.73,2.4-.48.15,1.91.01,1.2-.96,1.44.65.78,2.68.58,3.62.5,2.28-.19,4.85-.77,7.18-1.01l3.11.99c-3.05.43-5.99,1.7-9.11,1.44.62,1.75,3.59.16,1.92,2.16-3.23,1.72-7.69,2.62-10.73,4.54-.49.31-.3.99-1.39,1.57-2.49,1.31-4.38,1-4.66-2.03-1.77-.69-6.73,4.04-7.43,3.84-.54-.15-.87-1.02-.68-1.64.31-1.02,3.7-3.15,4.28-4.6-.63.1-1.32-.07-2.07.09-2.04.45-4.32,1.62-6.32,2.32-.94.23-.91-.62-.73-1.21.25-.8,1.77-.5,1.92-1.2-.95.06-1.93-.04-2.88,0-.22-1.67.07-1.17.93-1.69.96-.58,2.35-1.22,2.91-2.15-2.98.28-5.84.53-7.68,3.12-.02.48.68.14.96.24l.24-.48c1.58-.11.29.83.24.96-.05.12-.05.84,0,.96.02.06.72.13.48.96-.32,0-.64-.01-.96,0-1.22.04-2.57-.37-3.37.71-.9,1.93-3.94,4.09-4.57,5.99-.52,1.58-.18,6.52-1.26,7.62-.18.18-.76.2-1.12.54-1.27,1.2-2.51,2.79-3.82,3.87-.68.56-4.04,2.91-4.57,2.39-.8-.8,1.81-3.56,2.15-4.33,1.37-3.08,2.83-5.4,4.19-8.29.27-.57.35-1.68.41-1.74.15-.15.98.05,1.42-.25.2-.13.51-1.31,1.42-2.19h-.48c-.59,1.22-4.98.78-6.24.48-.11-1.03-.03-2.12.97-2.64ZM214.8,330.66c.23,1.38-.31.78-1.09,1.06-2.7.97-5.41,2.35-8.02,3.51-1.85.82-3.36,3.57-5.76,3.11-.39-2.49.57-4,2.39-5.53,4.17-.79,8.32-1.55,12.49-2.15ZM204.72,329.7c-.88-.75.68-1.03.96-1.18.94-.52,1.92-.96,2.86-1.48l1.93-.47c-.46,1.18-5.16,3.63-5.75,3.12ZM205.44,338.82c.31,0,.31.48,0,.48s-.31-.48,0-.48ZM206.4,338.34c.31,0,.31.48,0,.48s-.31-.48,0-.48ZM194.41,317.7h-10.55c-.29,0-1.44-.56-1.2-1.2.42-1.1,3.17-.7,4.32-.72.95-.02,1.92-.01,2.88,0,1.23.02,4.97-.4,5.28.72.12.43-.53,1.2-.72,1.2ZM216.95,318.67c.69.09,4.7,1.33,5.05,1.67,1.76,1.68-1.42,2.71-2.73,3.03-.73.18-1.5,0-2.23.17-1.57.36-3.83,2.28-5.38,2.78-1.06.34-.45-.89-.96-.97-7.21-1.16-14.04,2.23-21.08,2.92-.5.05-1.07.56-1.42.47-.96-.24-1.23-2.19.19-2.16l2.43-1.67h-7.2s.28-1.45.28-1.45l6.43-2.39c-2.04-.45-4.14.67-5.99.47-1.32-.14-2.24-.45-3.85-.47-.99-.02-1.38.33-1.2-.96,2.09.24,3.83.63,5.99.47,2.83-.21,5.82-.21,8.67-.45,2.49-.21,5.52-1.3,8.11-1.48,3.68-.26,11.39-.43,14.89.03ZM212.64,165.06c.31,0,.31.48,0,.48s-.31-.48,0-.48ZM207.12,213.06v.48c-.26.03-.91.04-.96,0-.59-.5.86-.43.96-.48ZM204.54,208.8c1.52-.92,3.27-2.18,4.73-2.95.8-.42,1.19-.64,2.17-.47.18.87-.47,1.15-.96,1.68-.85.91-2.55,2-3.7,2.54-.44.21-2.89,1.19-3.02,1.06-.39-.39.1-1.45.78-1.86ZM199.94,208.03c-.74.38-2.19.37-2.41-.5-.28-1.12,3.58-5.15,5.28-4.56.63.65-2.07,4.65-2.86,5.05Z"/>
    <polygon class="a3" points="303.55 131.46 305.67 131.51 305.95 131.94 305.67 131.51 303.55 131.46"/>
    <path class="a3" d="M226.79,430.02c-.27-.31-.76.83-.96-.96h.96s0,.96,0,.96Z"/>
    <path class="a3" d="M229.7,432.07c0,.1-.02.21-.03.35-.06.01-.1.72-.96.48v-1.44c.87.04,1.04-.2.99.61Z"/>
    <path class="a3" d="M219.59,413.22c.42-.83,1.08.03,1.54-1.09.74-1.8,1.14-4.69,2.07-6.1.57-.86,1.49-1.69,2.63-1.45.65.67-2.93,5.77-3.45,6.86-.4.83-.7,1.82-.87,2.73.37.14.91.85,1.92.48.09,2.25-2.28,3.86-1.92,6.24-2.3-1.36-6.35-7.81-8.16-8.64l.48-.96c1.58-.54,3.87,1.02,5.76,1.92Z"/>
    <path class="a3" d="M417.73,416.33c.54-.36,2.16.04,2.41.25.71.61-2.54,2.76-2.88,2.4.06-.81-.31-2.12.47-2.65Z"/>
    <path class="a3" d="M227.75,345.54c-.14.81-.77.86-1.44.96.27-.69-.52-1.21,1.44-.96Z"/>
    <path class="a3" d="M233.03,343.62c3.18-.1,5.47-.73,8.37-.98.73-.06,1.67-.02,2.42.02.94.05.76-.06.72.96-1.98.49-4.02.25-5.99.49-1.44.17-3.75,1.02-5.19,1.53-.92.33-2.53,1.82-2.26-.1.99.14,1.08-.55,1.44-.96l-4.8.48v-1.44c1.75-.04,3.53.05,5.28,0Z"/>
    <path class="a3" d="M219.14,345.58c.13-.11.94-.05,1.42-.26.94-.42,4.47-2.36,5.27-1.7.83.69-.58,1.05-.96,1.19-2.13.76-3.41,1.55-5.76,1.69.05-.25-.13-.78.03-.92Z"/>
    <path class="a3" d="M225.32,423.99c-.1.23-.44.24-.44.27h0s-.48,0-.48,0c-.42-1.43,1.38-1.28.93-.27Z"/>
    <path class="a3" d="M334.52,432.44c-.56,2.23-1.23,4.45-1.7,6.7-.91.38-3.59,1.52-4.32,1.92.19-4.31,3.71-7.23,6-10.56.59.33.15,1.42.02,1.94Z"/>
    <path class="a3" d="M455.17,398.8c-.13-.11.04-1.05-.02-1.42,2.58-.26,3.16.58,5.03-1.93,1.07-1.45,2.43-3,3.36-4.32.63-.89.79-2.21,1.69-2.87.09,5.45-2.18,9.48-7.07,11.91-.37.18-.9,0-1.09.09.29-1.71-1.64-1.24-1.9-1.46Z"/>
    <path class="a3" d="M203.28,321.76c-.62.34-1.17.84-1.92.74-.1-.11.43-1.83.5-1.9.08-.09,2.29-.1,2.38-.02.9.74-.65,1.01-.96,1.18Z"/>
    <path class="a3" d="M149.73,224.59c-.75-.34-3.51-1.85-3.79-2.39-1.46-2.86,1.97-2.24,2.17-2.42.23-.2-.57-2.94.76-3.31.68-.19,3.77.08,4.04.44-.22-.85.32-2.16,1.2-1.92.53.14,2.01,2.34,2.16,2.4,1.25.49.86-.85,1.53,1.09.28.81.84,1.5,1.11,2.26.77,2.16.94,5.4,2.93,6.67.44.28,1.48.5,1.56.6.15.2,0,.72.16,1.02,2.34,4.5,6.83,4.05,11.17,4.69,1.45.21,3.4.8,4.82.94,1.18.12,2.4-.06,3.59.01-.14,1.95-2.49,2.69-4.09,2.87-1.26.14-6.14.24-7.13-.05-.89-.26-1.25-1.68-3.4-1.88-2.45-.22-2.88.93-3.86,1.01-.9.07-1.76-.71-2.87-.54-.52.08.21,1.15-.97,1-1.96-.25-2.9-2.54-3.9-2.83-2.14-.62-7.58,1.47-6.36-2.65.18-.61,1.27-1.13,1.38-1.5.71-2.35-5.99-.47-6.24-.72-.4-1.82.78-2.54,2.26-3.26.47-.23,1.96-.5,2.06-.58.06-.05.24-.71-.3-.95Z"/>
    <path class="a3" d="M151.97,289.16c.09-1.83-.11-3.71-.02-5.54.62-.71,2.83,2.12,2.9,3.13.07.95-1.28,4.73-2.18,5.03-.53.17-1.24-.49-1.13-1.12.07-.41.4-.8.44-1.5Z"/>
    <path class="a3" d="M149.07,271.62v1.92c-.79.79-2.96-2.54,0-1.92Z"/>
    <path class="a3" d="M126.04,207.78c1.7-.07,1.92,1.86,2.65,2.87.48.66,3.35,3.61,2.63,4.33-.79.79-3.14-1.86-3.58-2.42-1.1-1.42-2.01-2.91-1.7-4.78Z"/>
    <path class="a3" d="M138.5,189.29c1.26-.64,1.63.1,2.41.25.19.82.7.9,1.44.96l3.83,13.21v3.59s-1.39-.03-1.39-.03c-.24-1.23-1.31-2.11-1.86-3.19-1.12-2.2-1.87-4.92-2.88-7.2-.82-1.84-4.24-6.23-1.55-7.6Z"/>
    <path class="a3" d="M173.85,288.81c-.67-.33-.74-.85-.8-.87-1.83-.76-3.72.08-5.51-2.41-.6-.83-1.24-2.26-1.69-2.87-.07-.09-2.37-.53-1.44-1.44.82-.8,1.8.89,1.92.96,2.5,1.55,4.18,3.6,6.72,4.8,1.1.52,3.13.31,3.36,2.16-.45.56-2.06-.08-2.56-.33Z"/>
    <path class="a3" d="M156.24,317.94c.76-.64,1.33-1.77,2.42-1.67.36,2.71-.11,4.13-2.88,4.8.05-.62-.38-1.09-.48-1.68-.27-1.59.39-.98.94-1.44Z"/>
    <path class="a3" d="M165.15,292.25c2.92-.34,8.21,3.95,11.45,4.39l6.06,4.74c-.82.21-1.48-.41-2.17-.47-3.32-.28-7.18-.03-10.31-1.2-1.27-.47-6.39-2.75-6.97-3.58-1.07-1.53.02-3.65,1.95-3.88Z"/>
    <path class="a3" d="M161.92,324.56c.35-.69.64-1.27,1.54-1.1l-2.64,7.2c-.83-.65-.87-.97-.51-1.95.45-1.23,1.07-3.09,1.61-4.15Z"/>
    <path class="a3" d="M230.15,404.1c.3.35-.53,1.47-.72,1.92-.24.55-.57,1.91-1.2,1.92-.47-.69.99-4.91,1.92-3.84Z"/>
    <path class="a3" d="M233.51,416.1c.14,2-.71,4.11-.95,6.01-.17,1.37.15,2.82-.1,4.22-.33,1.85-.86,1.04-1.83,1.29v-.96s-.96,0-.96,0c.54-3.25.73-5.94,2.15-9.12.35-.78.62-1.6,1.68-1.43Z"/>
    <path class="a3" d="M231.59,402.18c-.18.12-.38,1.04-.96.96-.27-.91.44-.87.48-.96.7-1.46,1.28-3.08,2.88-3.84,0,.85-.29,2.18-.72,2.88-.6.97-1.34.74-1.68.96Z"/>
    <path class="a3" d="M241.18,421.86c.04,2.79-1.72,5.34-3.15,7.65-.45.73-.62,1.74-1.65,1.47.19-3.26,2.14-5.9,3.35-8.83.24-.58.9-.21,1.45-.28Z"/>
    <path class="a3" d="M390.57,429.08c-.08-.08-.15-.17-.24-.25.02-.97,1.93-4.23,2.36-4.9.41-.64.54-1.3,1.53-1.11.33,1.95-.85,3.91-2.15,5.29-.45.48-.82,1-1.51.97Z"/>
    <path class="a3" d="M399.74,414.65c.42-.82,4.02-3.52,4.87-3.76,1.27-.37,3.53-.17,3.01,1.57-3.6,3.73-7.42,7.45-11.72,10.36l3.38-6.22c.27-.62.14-1.34.45-1.95Z"/>
    <path class="a3" d="M228.71,386.82v1.44s-.96,0-.96,0c-.29-.63.75-1.67.96-1.44Z"/>
    <path class="a3" d="M388.24,413.23c1.09-.88,1.91-2.43,3.59-2.41v1.92s2.88-.48,2.88-.48c.78,3.28-2.24,3.32-3.86,5.02-1.59,1.67-3.77,4.94-5.49,7-.26.31-.19.83-.27.92-.26.3-1.65-.2-2.07-.53-.98-.09-1.1-2.26-1.99-1.85-.48.22-1.96,3.25-2.63,4.09-.42.53-1.16,1.21-1.69,1.67-.54.47-.79,1.15-1.68.96-.26-.28,1.15-3.4,1.5-4.01,2.47-4.29,7.82-9.14,11.7-12.3Z"/>
    <path class="a3" d="M284.11,429.05c2.2-5.37,4.98-9.17,8.17-13.91.45-.67.43-1.6,1.67-1.45-.05.29.03.65,0,.96l-5.78,15.34-2.33.07c-.52,1.06-1.73,3.84-2.68,4.28-.64.3-.81-.14-.73-.73.16-1.11,1.2-3.37,1.68-4.56Z"/>
    <path class="a3" d="M226.79,393.06c.26.31-.4,2.86-.59,3.48-.15.49-.2,1.43-.84,1.31.26-1.54-.94-4.74,1.44-4.8Z"/>
    <path class="a3" d="M215.28,404.58c.16.19-.55,1.99-.73,2.4-.35.75.02,1.18-1.19.96-.19-1,.31-1.6.74-2.4.15-.29.43-1.84,1.18-.96Z"/>
    <path class="a3" d="M221.99,391.62c-.09.93.25,2.12-.22,2.9-.32.52-1.52.64-1.69.46-.25-.24,1.11-3.28,1.92-3.36Z"/>
  </g>
</svg>