<?xml version="1.0" encoding="UTF-8"?>
<svg class="a3" xmlns="http://www.w3.org/2000/svg" viewBox="0 0 600 500">
  <defs>
    <style>
      .cls-1 {
        fill: none;
      }

      .a3 {
        fill: #a48c67;
      }

      .cls-3 {
        fill: #c9caca;
      }
    </style>
  </defs>
  <g>
    <path class="cls-3" d="M4.39,13.73v-3.46H1.23v-1.34h3.16v-3.47h1.39v3.47h3.17v1.34h-3.17v3.46h-1.39Z"/>
    <path class="cls-3" d="M14.02,15.76c-.77,0-1.44-.23-1.99-.7-.56-.46-.99-1.14-1.29-2.03-.3-.89-.45-1.98-.45-3.27s.15-2.37.45-3.25c.3-.88.73-1.54,1.29-1.98.56-.45,1.22-.67,1.99-.67s1.42.22,1.97.67c.55.45.98,1.11,1.28,1.98.3.88.45,1.96.45,3.25s-.15,2.38-.45,3.27c-.3.89-.73,1.57-1.28,2.03-.55.46-1.21.7-1.97.7ZM14.02,14.29c.39,0,.73-.15,1.03-.45.3-.3.54-.78.7-1.44.17-.66.25-1.54.25-2.64s-.08-1.97-.25-2.62c-.17-.65-.4-1.11-.7-1.4-.3-.29-.65-.43-1.03-.43s-.73.14-1.03.43c-.3.29-.54.75-.71,1.4s-.26,1.52-.26,2.62.09,1.98.26,2.64.41,1.14.71,1.44c.3.3.65.45,1.03.45Z"/>
    <path class="cls-3" d="M23.25,15.76c-.55,0-1.07-.12-1.55-.34-.48-.23-.91-.57-1.27-1.03-.36-.46-.64-1.04-.85-1.74-.21-.7-.31-1.52-.31-2.47,0-1.13.12-2.09.35-2.89.23-.79.55-1.45.96-1.96.41-.51.87-.89,1.39-1.12.52-.24,1.07-.35,1.64-.35.65,0,1.21.12,1.68.37.47.25.87.54,1.2.9l-.98,1.12c-.21-.26-.47-.46-.8-.62-.32-.16-.66-.24-1.02-.24-.5,0-.96.15-1.38.45-.42.3-.75.8-1,1.5-.25.7-.38,1.65-.38,2.86,0,.95.09,1.73.28,2.34s.45,1.07.8,1.37.75.45,1.2.45c.33,0,.64-.09.91-.28.27-.19.49-.45.65-.8.16-.35.24-.76.24-1.24s-.08-.87-.23-1.19c-.15-.33-.37-.57-.65-.74-.28-.17-.62-.26-1.03-.26-.33,0-.7.11-1.09.34-.39.22-.76.61-1.1,1.17l-.08-1.34c.23-.31.49-.58.78-.8.29-.22.6-.4.91-.52.32-.12.62-.18.9-.18.65,0,1.21.13,1.7.39.49.26.87.65,1.14,1.18.27.52.41,1.18.41,1.97s-.16,1.41-.48,1.97c-.32.55-.73.99-1.25,1.3s-1.09.47-1.71.47Z"/>
  </g>
  <g>
    <path class="cls-1" d="M203.06,382.98c-.43.05-.92.06-1.42.05.5,0,1,0,1.42-.05Z"/>
    <path class="cls-1" d="M345.24,430.14s0,0,0,0c.14-.49.28-.98.42-1.47-.14.49-.28.97-.42,1.46Z"/>
    <path class="cls-1" d="M344.58,436.21c-.98-.41-.39-1.7-.25-2.41.1-.52.22-1.05.35-1.57,0,0,0,0,0,0-.13.52-.25,1.04-.35,1.57-.14.71-.73,1.99.25,2.41.44-.07.98.05,1.44,0,.11-.12.11-.2.26-.33-.15.13-.15.21-.26.33-.46.05-1-.07-1.44,0Z"/>
    <path class="cls-1" d="M346.28,435.88c.05-.04.12-.09.22-.15.03-.02.08-.02.13-.03h0c-.05,0-.1.01-.13.03-.1.06-.17.11-.22.15Z"/>
    <path class="cls-1" d="M345.12,430.6c-.11.38-.21.76-.31,1.15,0,0,0,0,0,0,.1-.39.2-.77.31-1.16,0,0,0,0,0,0Z"/>
    <path class="cls-1" d="M203.6,382.89s0,0,0,0c.02-.05.05-.11.09-.18-.04.07-.06.13-.09.18Z"/>
    <path class="cls-1" d="M225.57,413.33c.11-.07.23-.13.35-.18h0c-.12.05-.24.11-.35.18,0,0,0,0,0,0Z"/>
    <path class="cls-1" d="M319.86,436.95s.04.01.06.02c0,0,0,0,0,0-.02,0-.04-.01-.06-.02Z"/>
    <path class="cls-1" d="M372.89,420.39c.42-.09.59.06.76.27-.18-.2-.34-.35-.76-.27Z"/>
    <path class="cls-1" d="M320.45,437.15s0,0,0,0c-.02,0-.05-.01-.07-.02,0,0,0,0,0,0,.02,0,.05.01.07.02Z"/>
    <path class="cls-1" d="M195.39,380.05s0,0,0,0c-.08-.05-.16-.1-.24-.15.08.05.16.1.24.15Z"/>
    <path class="cls-1" d="M320.21,437.08s0,0,0,0c-.03-.01-.07-.02-.11-.04,0,0,0,0,0,0,.04.01.07.03.1.04Z"/>
    <path class="a3" d="M339.87,436.56c1.66-4,3.6-8.05,6.39-11.37.65.32.02,1.32-.12,1.8-.29,1.05-.6,2.1-.9,3.15.14-.49.28-.98.42-1.46-.14.49-.28.98-.42,1.47-.04.15-.08.3-.13.45-.11.39-.21.77-.31,1.16-.04.16-.08.32-.12.48-.13.52-.25,1.05-.35,1.57-.14.71-.73,1.99.25,2.41.44-.07.98.05,1.44,0-.21.23-.13.66-.78.89-.74.26-2.68.82-3.4.96-.52.1-.57-.41-.61-.41-.46-.06-.97.04-1.44,0,0,0-.02.03-.05.05.03-.02.05-.04.05-.05.08-.2-.08-.7.08-1.09Z"/>
    <path class="a3" d="M355.2,428.84c.61-2.06,3.01-1.55,2.26,1.78-.13.56-1.61,3.51-2.32,2.71.19-1.34-.3-3.28.06-4.49Z"/>
    <path class="a3" d="M344.81,431.75c.1-.38.2-.77.31-1.15-.11.38-.21.76-.31,1.15Z"/>
    <path class="a3" d="M337.87,416.55c.09,2.63-1.36,4.93-1.93,7.39-.17.76-2.03.23-1.86-.85.23-1.46,1.7-4.7,2.34-6.25.24-.58.9-.21,1.45-.28Z"/>
    <path class="a3" d="M394.47,406.48c1.68.64.76,2.1.48,3.36-.79.12-.46-.65-.48-1.2-.03-.72.02-1.45,0-2.16Z"/>
    <path class="a3" d="M374.72,414.78c.33-.74.19-.95,1.28-.62,1.5.45-.16,2.46-.71,3.13-.46.56-3.04,2.59-2.41,3.11.42-.09.59.06.76.27,0,0,0,0,0,.01.06.07.12.13.19.2l-1.92.48.48-1.92h-1.44s.02-.03.02-.05c-.11.06.94-.32,1.68-.88.66-.51,1.65-2.82,2.05-3.72Z"/>
    <path class="a3" d="M320.21,437.08s-.07-.02-.1-.04c.03.01.07.03.1.04Z"/>
    <path class="a3" d="M320.45,437.15s-.04-.01-.07-.02c.02,0,.05.01.07.02Z"/>
    <path class="a3" d="M346.63,435.71c-.05,0-.1.01-.13.03.03-.02.08-.02.13-.03Z"/>
    <path class="a3" d="M344.33,433.8c.1-.52.22-1.05.35-1.57-.13.52-.25,1.04-.35,1.57Z"/>
    <path class="a3" d="M346.5,435.73s.08-.02.13-.03c.25-.02.72.04.83-.45.21-.95-.55-1.7.96-1.44l.08,1.12.4.32c.47-.04.97.05,1.44,0-.05-.34.17-.44.48-.48,1.48-.19,3.39.25,4.8,0,.03,0-.09-.3.28-.43.27-.09.54,0,.68-.05.34-.12.35-.14.48-.48.17-.45-.01-1.06.72-1.44l.74,1.9,3.82.02c.41-.09.99.06,1.44,0-.13.23-.16.57-.45.73-2.72.57-5.66.02-8.45.2-2.58.17-5.68.69-8.37.98-.16.02-.32-.02-.48,0,.11-.12.11-.2.26-.33.05-.04.12-.09.22-.15Z"/>
    <path class="a3" d="M195.39,380.05c-.08-.05-.16-.1-.24-.15.08.05.16.1.24.15.11.07.22.14.33.21.24.15.49.29.76.43.91.48,3.36.78,3.22,2.29-1.58-.12-.63-.53-1.03-.86-.27-.23-1.96-.36-2.46-1.16-.91-.67-5.97-1.66-6.1-2.29.04,0,.08,0,.12-.02,2.35-.45,3.6.43,5.16,1.4Z"/>
    <path class="a3" d="M225.92,413.15c.51-.22,1.08-.35,1.6-.69,2.04-1.35,2.41-3.64,3.62-5.49.25-.38,2.43-3.05,2.61-3.14,1.49-.78,3.7.56,5.29.73.43,1.88-1.5,2.73-2.15,3.84-.68,1.15-1.84,3.9-2.41,5.26-.64,1.51-1.4,3.12-1.19,4.8h0c-.92-.2-.22-1.54-.53-1.86-.51-.53-1.94-.18-1.39-2.45-1.73,1.88-3.36,1.47-5.76,1.44l-.48-1.92c.1-.11.22-.2.34-.28.03-.02.06-.04.09-.06.11-.07.23-.13.35-.18Z"/>
    <path class="a3" d="M305.73,440.05h0c.75-1.3,1.76-2.25,3.36-1.92.44-1.97,2.35-4.73,3.13-6.71.55-1.41.7-2.93,1.19-4.32.69-1.94.74-1.05,1.92-1.67,1.17-.62,2.22-3.96,2.88-5.04,1.36-2.22,6.74-9.97,8.95-10.47.69-.16,1.39-.07,2.08-.08.18,1.61-.75,3.11-1.51,4.48-3.62,6.46-8.27,12.47-11.92,19.02,3.14.46,1.56,4.49,1.92,6.71.53-.47,1.6-.36,1.85-.55.1-.08,1.04-1.9,1.03-2.33,0,0,0,0,0,0-.03,0-.08,0-.14-.02-.02,0-.05-.01-.07-.02-.05-.01-.1-.03-.16-.05-.03-.01-.07-.02-.11-.04-.06-.02-.12-.04-.18-.07-.02,0-.04-.01-.06-.02.02,0,.04.01.06.02-.44-.19-.9-.52-.73-.96.99-2.62,3.33-6.6,4.84-9.08,4.02-6.62,9.92-14.2,15.29-19.73.4-.41.5-1.07.95-1.45.41-.35,3.48-2.04,3.84-1.68.5,1.6-1.1,2.29-.99,3.6.09,1.03,1.96,1.96,1.96,3.35,0,1.09-2.45,5.9-1.93,6.48,1.14.05,1.56-1.03,2.53-1.54.86-.45,1.83-.49,2.73-1.11.84-.57,4.38-4.18,4.81-5.02h0c.05-.09.47-1.36.48-1.44.21-1.69-1.4-4.84,1.68-4.82,2.64.01,1.91,2.03,2.16,3.63.08.51.44.94.47,1.19h0c.34,2.62-2.02,3.4-2.37,4.6-.26.89.77,1.78,1.2,2.62l4.7-.08c1.84-1.99,3.54-4.14,5.56-5.95,1.55-1.38,4.33-3.72,6.22-4.33.67-.22,1.24-.29,1.94-.22.49,2.05-1.65,2.96-1.92,4.79h3.36s-1.2,2.88-1.2,2.88c1.12-.59,2.16-1.41,3.27-2.01.92-.5,2.37-.8,3-1.32,1.37-1.13,4.06-5.89,5.72-7.71,1.15-1.27,3.44-3.87,5.28-3.33,1.38.4.16,2.2-.3,3.03-2.82,5.06-8.12,10.11-11.19,15.2-1.11,1.85-2.54,4.22-4.09,6.21q-.18.23,0,0c.09.58,1.37.79,1.44.96,1.73-1.09,2.92-3.77,2.88-5.75,1.89.1,1.94,3.36,4.32,2.88.14-5.07,1.29-14.56,7.67-14.87-.81-4.48,2-4.58,4.96-6.3,1.59-.93,4.83-3.75,6.57-2.58,1.14,1.33-.48,4.81,1.71,5.48,2.01.62,1.46-.47,2.16-1.57.83-1.31,2.17-.62,3.54-.78,7.39-.9,11.34-1.96,18.35-4.19,1.66-.53,3.88-.68,5.42-1.3,1.3-.52,2.94-1.32,4.32-1.92,1.57-.68,5.96-2.79,4.31-4.82-1.49-1.83-3.84.93-5.76.73.31-1.38,2.69-1.86,3.31-2.44.26-.24-.14-2.65.1-3.49.23-.79,2.25-2.01,2.34-2.22,1.44-.28,1.37.36,2.01,1.11,1.11,1.31,2.57,3.55,4.4,3.14,3.86-.88,3.48-8.32,5.36-11.45.2-.33.66-.39.71-.47,2.72-.55,2.23,1.37,2.48,3.5.03.24.38.29.4.33.41-.27.51-.68.96-.96.05-.3-.07-.7,0-.96.04-.13.06-.25.1-.37.35-1.32.57-2.41.38-3.94l-3.84.48c-.12-1.99-1.69-2.93-3.35-3.6-2.41-.97-2.73-1.26-4.32.73-.08.11-.48.15-.48.48-.43.06-.98,0-1.44,0l-.28-.43-.68-.05c-.17-.95-.92-2.6-1.92-2.88-.38-.1-1,.07-1.44,0-1.11.63-2,2.84-3.12,3.36-.96.44-1.21-1.83-1.2-2.4-1.23.9-2.89,1.14-4.18,1.81-1.24.65-2.41,2.62-3.99,1.8-2.71-1.41-.54-4.84,2.11-4.03.43.13.67.7,1.07.85,1.33.49,1.13-.73,2.1-1.64.94-.9,4.47-2.92,4.73-3.22.38-.45-.44-1.16,1.77-.84.5.07.93.44,1.19.47.98.11,1.18-.73,1.75-.89,1.5-.43,4.06-.29,5.61-.62.56-.12,1.72-.87,2.02-1.36.21-.34-.38-3.02-.29-4.1.07-.75.46-1.38.49-1.91.15-2.91-1.31-7.32,2.89-6.46.14.08.59-.07.96.22,2.02,1.52.59,10.27-1.19,11.8-.37.32-.97.36-1.13.53-.29.3-.3,1.15-.54,1.55-.31.52-1.38.37-1.47,1.25l-2.88.48c-2.86-.87-1.44-.14-1.92.48,1.77.37,2.44,2.7,4.32,2.4.46-.07.39-.07.48-.48.02-.11.03-.44,0-.48.14-.8.89-.92,1.6-1.05l.32-.39c.53.1,1.32,0,1.92,0,.55,0,1.19.1,1.7.01.66-.11.66-.48.7-.49.47-.14,1.57-.27,1.85-.55.16-.16,1.82-3.73,1.91-4.09.14-.55.05-1.05.08-1.59h.96c.02-.32-.02-.64,0-.96.02-.44.06-1.03,0-1.44.66-.34.59-1.45.5-2.14-.07-.54-.71-.13-.98-.26-.09-.04-.87-1.4-.96-1.44l-.05-.68-.43-.28c.17-.78.09-2.93,0-3.84-.02-.23.07-.49-.02-.7l-.46-.26c-.32,0-.64,0-.96,0v-.96s-4.32.48-4.32.48c.32-3.49-.07-2.58-2.26-3.73-2.27-1.19-5.25-4.11-5.81-6.66-.24-1.09.08-2.23-.09-3.27-.38-2.28-1.64-5.01-1.9-7.22-.44-3.84-.07-8.45-.47-12.48-.15-1.46-.8-2.86-.54-4.49-1.41-.54-2.31-1.58-3.77-2.22-.62-.27-1.34-.13-1.95-.45-.81-.43-1.15-1.75-2.87-1.21-.06-.8.57-1.32.51-2.15-.1-1.34-3.16-2.56-4.33-3.38-.6-.42-1.21-1.44-1.76-1.6-1.35-.39-2.73.43-3.78-1.5-.26-.49-.14-1.18-.29-1.37-.07-.1-1.51-.44-2.12-1-.55-.5-.71-1.22-1.17-1.71-1.31-1.39-7.74-8.62-9.06-4.23-.15.49.07,1.36-.14,1.55-.2.17-.84-.14-.91.3-.17,1.05,1.32,5.21,2,6.16.92,1.29,3.73,1.89,4.73,3.42,3.62.33,2.97,1.45,4.08,3.6,1.63,3.17,3.82,3.92,4.95,8.49.12.5.05,1.51.1,1.57.12.14,2-.23,2.89.23.52.27,1.7,2.37,1.84,2.97.5,2.2-1.35,2.75-2.09,4-.23.39-1.17,2.74-1.21,3.12-.31,2.7,3.22,6.25,1.45,9.35-3.07-.08-3.99-3.82-4.8-6.24-1.1.19-1.93.68-3.13.49-.81-.12-1.03-.77-1.49-.9-1.09-.33-3.52.27-4.42-.62-.82-.8-.09-3.26-3.18-3.77-.64-.11-1.54-.17-1.2.72l4.79,7.69-.95.71c-.38-1.31-2.46-3.52-3.58-4.34-1.04-.76-2.88-.98-4.35-2.37-1.36-1.29-2.96-4.84-4.79-4.82-1.89.02-2.38,1.97-2.16,3.61.25,1.86,1.89,3.13,2.88,4.56-3.44-.88-9.44-2.37-8.65,3.13.16,1.1,1.25,1.34,1.42,1.96.22.79-.37,1.18-.45,1.62-1.65.07-3.59-3.58-4.62-3.8-.08-.02-1.55.4-1.62.45-.64.51.35,1.8,1.21,1.89l4.07,3.86c-.33.69.74,2,.48,2.88-.83-.07-1.78.16-2.57-.07-.83-.24-4.44-3.24-5.05-4.07-.33-.45-.38-1.3-.65-1.53-.17-.15-.65-.02-.76-.15-.88-1.11-.45-5.32-.55-6.91-.06-.96-1.45-4.86.66-4.5.56.09,4.21,2.37,4.13-.26-.02-.73-1.28-4.33-1.7-5.04-.97-1.61-4.03-3.44-5.52-5.03-1-1.07-3.39-4.05-3.77-5.35-.9-3.15,2.79,1.14,3.06,1.26.55.26.98-.17.72-.72-.12-.26-.65-.58-.89-1.03-1.06-1.99-2.57-4.25-2.95-6.4.18.1,2.04.84,2.24.88,3.79.86,3.31-1.56,2.34-4.26-.58-1.61-4.36-7.65-5.83-8.08-1.98-.58-3.71-.07-4.02,2.1-.42,2.94,1.22,4.43,2.88,6.48v.48h-.48c-1.56-.96-2.57-3.05-4.32-3.36-.38-1.28-.67-2.53-1.19-3.84-.42-1.05-1.33-2.19-1.68-3.11-.25-.66.09-.82.72-.72,1.02.16,1.12,1.11,2.16.96.02-3.28-1.73-6.58-3.26-9.44-.67-1.25-4.37-7.52-5.19-7.76-2.28-.66-3.24,1.39-5.46.9v4.31c-5.07-.09-.68,3.35-.46,5.04.16,1.24-.74,2.34-.5,3.6-.93.27-3.14-.93-3.35-1.71-.19-.72,1.26-1.19.96-2.13-1,0-1.67-.81-2.64-.97-1.61-.25-.97.38-1.44.94-.52.62-2.32,2.98-2.62,3.16-.5.3-.91.26-1.45.23.04-1.71-1.17-2.52-1.85-3.66-.43-.73-.79-2.08-1.26-2.59-.39-.42-1.02-.38-1.15-.52-.19-.2.03-1.05-.14-1.53-.21-.58-.74-1.17-.83-1.61-.2-1.03,1.2-2.87,1.38-4.24.13-.97.1-2.2-.21-3.13-.1-.31-2.45-3.47-2.64-3.6-.16-.1-2.47-.68-2.6-.66-.19.04-1.87,1.63-1.99,1.86-.56,1.06.07,2.3.49,3.38.69,1.83,2.16,2.32-.06,3.76-2.59,1.69-6.22,2.72-8.8,4.63-1.3.97-3.63,3.56-.26,3.1.74-.1,2.04-.38,2.79-.57.93-.23,4.6-1.85,4.85-1.79.49.11,1.16,1.31,1.73,1.65.69.4,1.56.43,2.38.97,1.54,1.03,1.9,2.98,1.39,4.72-.22.78-1.66,1.12-1.38,2.22.96-.24,2.51.7,2.36,1.61l-2.36,4.14c1.49-.18,2.33.61,1.86,2.1-.13.4-.71.66-.83,1.08-.16.53-.17,1.74-.09,2.31.06.44.67.07,1,.56,1.88,2.82-2.32,4.3-3.85,5.71-.57.53-.7,1.47-1.44,1.91-.96.58-3.09.69-3.85,1.42-.53.51-.39,1.2-.71,1.69-1.24,1.89-4.79,3.66-6.95,4.32-.06.95.95.4,1.46.26,2.06-.55,4.65-1.62,6.7-2.41.65-.25,1.78-1.11,2.19-1.17.63-.11,1.33.62,1.16,1.17-.23.72-6.86,3.55-8.02,3.98-2.87,1.05-6.26,2.01-9.25,2.5-.21.98,2-.06,1.44,1.2-.51,1.12-3.96.96-4.28,1.24-.17.14-.39,1.7-.55,1.85-.15.13-1.04-.02-1.54.13-4.72,1.41-9.24,3.09-14.13,4.11-3.06.64-6.2.88-9.24,1.55-.34-1.51,1.7-1.22,2.55-1.53.45-.16.71-.64,1.14-.78,1.62-.51,3.72-.9,5.42-1.05.15-.77-1.25-.56-1.7-.5-1.05.13-2.96,1.34-2.62-.46l7.68-1.92-1.44-.48c-.14-.12.25-.59.47-.72,1.89-1.14,6.28-1.25,8.17-2.39.21-.13.52-.44.47-.72-.56-.45-6.57,1.74-7.91,1.93-.95.13-.77-.2-.73-.97,1.44-.61,11.09-3.41,11.46-3.89.07-.09.53-1.96.53-2.1,0-.43-.35-.75-.41-1.05-.24-1.24,3.41-2.07,4.42-2.62,4.52-2.42,5.54-6.26-.88-5.67-.5.05-.95.39-1.46.46-.54.07-1.8.22-2.15-.23,2.08-2.1,8.92-2.19,9.85-5.01,1.25-3.77-3.42-2.68-3.6-2.91-.11-.14.09-.97-.23-1.45-.62-.94-4.37-1.08-5.54-.94-.74.36-1.36-.47-1.44-.48.02-.33.34-.35.48-.48.1-.09.37-.06.43-.3l.05-.66c.34.11,1.22-.33,1.7-.47.69-.2.83.31.7-.96-4.7-.81-9.22-2.69-13.91-3.36v-3.35c.82.45,1.43.61,2.4.48,0-.32,0-.64,0-.96-.9-.23-1.59-.2-1.44-1.44l1.41.51c.08.31.02.62.02.93.27.07.69-.06,1.1.08,1.48.48,2.9,1.67,4.65,1.36-.77-.83-1.09-2.07-1.69-2.86-.76-1.01-1.92-1.57-2.63-2.41v-.96s1.44.48,1.44.48c.24-.88-.62-1.06-.88-1.78-.14-.39-.04-1.06-.08-1.09,2.46-1.07-1.52-3.35-2.42-4.07-.28-.22-.77-.18-.89-.29-.18-.18,0-.99-.04-1.39l3.11.98.51-1.01c1.98-.32,2.39.8,3.92,1.36,1.36.5,3.04.33,4.15.65.42.12.68.7,1.09.83.64.2,7.97-1.17,8.25-1.49,1.31-1.49,3.58-1.68,5.7-2.67,1.95-.91,3.33-1.18,3.5-3.45-2.36-.62-3.53.67-5.26,1.22-.94.3-1.95.42-2.9.7-1.61.47-3.43,1.13-5.05,1.43-1.04.19-3.85.57-4.81.51-2.29-.15-4.35-2.12-6.22-3.38-1.24-.6-.25,2.05-1.44,2.4-.93.1-1.25-.97-1.68-1.44-.58-.63-1.09-.77-1.44-1.92h-.96s0-.96,0-.96h0c-1.72-.19-3.5-.94-4.56-2.41-.27-.38-.15-.75-.23-.95-.08-.19-.95-.35-.24-1.44.81-1.24,1.58-.01,1.68,0h0c.49.07,2.75.07,2.85-.03.07-.07.18-.87.4-1.27.32-.58.81-1,1.07-1.58.16-.36.42-.81.48-.96l.43.3.05,1.14c.13.11.36-.02.48.48h.96c-.36-.81,1.76-4.61-.48-5.28,2.95-6.37,3.98-14.86,8.87-20.63.97-1.15,3.29-.68,2.65-3.35h2.87c-.17-1.82-1.17-2.9-3.06-2.34-.92.27-1.64,2.63-3.17.66l2.36-2.43c.36-1.72-.42-.93-.93-1.16-.04-.02.02-.32,0-.48v-.48s.11-.35.34-.39c1.01-.19,2.03-.22,3.02-.57.12-.61-.17-1.2-.77-1.38-.54-.17-2.62-.5-3.28-.55-3.92-.31-8.42-.32-11.97,1.44-1.5-2.04-3.34-3.25-5.08-5.02l-6.95-1.7c-.95.06-6.74,3.93-6.94,4.64.68,3.21,1.46,6.44,1.41,9.77-.04.02-.15.46-.48.7-.39.28-2.66,1.47-1.92,2.18.63.6,3.45-1.79,4.32-1.92.06.15,2.24,1.57,2.37,2.21.19.86-1.92,2.61-1.41,3.07l2.38.5-.45,3.32c.8-.17,1.28.83,1.73.92.45.09,1.67-1,2.06.33.57,1.95-1.08,4.76-2.36,6.2l3.36-.72-3.09,4.82c-.51.56-1.44.57-2.18.46-1.64-.26-1,.32-2.4.48-.53.06-1.12-.09-1.66,0-.98.16-1.86,1.24-2.66.74-2.83-1.77,2.48-6.04-1.91-6.01-.36,2.22,1.74,5.16-1.2,6.23-1.11-.89-1.1-2.38-1.74-3.54-.31-.55-.96-.89-1.15-1.25-.65-1.27-.28-2.5-2.15-3.6-2.14-1.27-4.37-.38-3.83-4.56-1.64,0-3.44.2-4.95-.57-.37-.19-3.12-2.39-3.18-2.58-.53-1.79,1.61-2.78,2.58-4.06,1.03-1.35,3.5-4.66,2.44-6.24-.84-1.24-2.66.04-2.09-2.52.39-1.78,1.95-3.35-.1-4.87-1.35-1.01-1.87-.65-3.34-.25.18-1.5,1.4-2.32.9-4.02-.4-1.36-2.11-1.1-2.33-1.27-.63-.49.79-4.83,1.18-5.74.74-1.75,2.27-2.86,1.64-4.98-.16-.55-.8-.89-1.39-.77.02.59-.25,1.12-.55,1.61-1.58,2.57-3.13,6.64-6.65,6.06.1,1.34-.12,2.77-.02,4.1.09,1.17.69,1.98.5,3.34-.15,1.1-1.45,2.72-1.44,3.84,0,.61.68,1.35.49,2.15,2.02.07,3.06-.66,3.34,1.69.5,4.17-1.13,3.17-3.09,5.53-1.09,1.31-1.88,3.1-2.18,4.77l-2.16-2.88c-2.36,1.41-5.54,2.77-5.04,6.01.13.86,1,1.17.99,1.9,0,1-2.34,5.12-1.94,5.52l2.4-.96c1.29,3.22-1.03,6.04-2.62,8.65-.27.44-.24,1.04-.49,1.43-.42.63-1.81.72-2.41,1.43-.48.57-.75,1.72-1.2,2.4.03.01.06.55.43.46-.18-1.07.7-.84.88-1.04,2-2.3,3.67-4.14,6.38-5.88.51-.33,3.57-1.95,3.82-1.69.28,2.76-3.13,3.79-3.75,6.08-.16.57,0,1.22-.16,1.76-.39,1.3-2.09,1.05.55,2.47v.47s-3.36,3.36-3.36,3.36c.49.79,1.67-.36,2.14-.24.29.07.86.78.73,1.2-.34,1.15-6.68,4.19-8.15,4.81-1.03.43-5.54,2.3-6.24,1.67-.14-2.12,3.41-2.33,4.11-3.35.24-.35-.41-.99-.24-1.62.13-.51,2.17-1.97,1.89-2.23-.87,0-2.51.46-1.92-1.2.19-.54,1.12-.57,1.35-.83.24-.27.03-.78.09-.85-1.35-.1.25-2.32,0-3.36h0c-.02-.08-.62-1.27-.72-1.43-1.66-2.63-3.6,2.24-5.99,1.43-.03-1.86,5.64-9.63,4.8-10.55-1.55.14-2.46,1.98-3.59,2.89-.99.79-6.65,4.06-7.44,3.35-.12-1.18,1.63-2.35,1.88-3.19.23-.79-.63-1.47-.41-2.26.34-1.23,4.51-2.31,3.8-4.85-.14-.51-.8-.89-1.44-.49-.9.57-1.91,2.09-2.89,2.86-.38.29-2.09,1.51-2.38,1.22.2-1.75,1.93-2.87,2.89-4.07,1.72-2.16.95-3.16,1.66-4.58.79-1.57,2.41-1.16,3.15-1.64.42-.27,1.85-2.77,1.37-3.11-.23-.16-1.3.26-.91-.75.21-.55,1.68-1.07,1.44-2.16,1.29-.19,2.7-1.85,3.6-2.88.33-.38,1.26-.97.48-1.44-.75-.04-1.19.73-1.68,1.2-.99.94-2,2.33-2.88,3.12-1.48,1.33-7.56,5.31-9.34,4.78-2.65-.78,2.23-3.27,2.87-3.82,2.23-1.9,4.9-4.78,6.96-6.95,1-1.06,2.5-3.86,4.07-4.09,1.68-.25.08,1.28-.17,1.75l-1.27,3.04c.66-1.32,1.63-1.65,2.64-2.64.82-.79,2.29-2.04,2.81-2.94.69-1.2,2.05-5.45,3.06-6.33.21-.18.8.09.87-.35.42-2.77-2.92-8.18,1.42-8.37-.83-2.06-.45-3.15.49-5.03,0-.21-2.05-.47-.97-1.2.19-.13,1.13.18,1.4-.04.16-.13.97-3.55,1.01-4.06.14-1.5-.91-1.52-.97-1.66-.14-.32.06-1.37,0-1.92.46-1.25,1.68-.79,2.16-1.44.96-1.29-1.78-1.6-2.63-2.17-1.23-.83-2.38-2.63-3.61-3.59-.58.18-.14,1.04-.02,1.46.27.98,1.07,2.31,1.22,2.86.35,1.27-1.5,2.14.51,3.59.71.51,1.22-.03.93,1.69-1.9.13-3.36.06-4.97-1.03-1.61-1.08-1.04-1.32-1.27-2.81-.5-3.36-2.37-4.63-1.94-8.89.26-2.56,1.92-3.82,2.35-5.32.36-1.24-.11-3.14.07-4.49-3.44.08-3.07,3.74-2.4,6.23-.42.08-1.14-.12-1.44,0v-.96s-3.84,0-3.84,0c-.43-.98-1.07-1.01-1.44-1.44-.32-.37-.31-1.26-.96-1.44.27-4.03.25-10.26-.49-14.14-.97-5.08-4.32-7.29-3.82-13.43.18-2.23,0-2.93,0-4.81,0-.83.97-2.08.98-2.88.01-.95-1.2-1.27-1.4-1.97-.45-1.53-.22-5.12-.62-7.05-.82-4-3.93.27-3.76,2.56l-2.4-.48c.59-2.84,1.1-5.73.96-8.63-1.42-.28-1.34.32-1.92.96l-.48.48c-.29.57-.32.89-.48,1.44h-1.44c-.05-.3.05-.66,0-.96l.45-.26.03-.7h-.96c-.42-2.03-.71-3.28-1.44-5.28l-.48-.48c-.05-.14.04-.33,0-.48-.93-.93-1.64-2.99-2.87-3.61-1.29-.65-2.17.26-2.8-2-.29-1.04-.35-3.94-.57-4.47-.02-.04-.55-.12-.71-.47-.58-1.28-1.61-4.78-2.91-5.27-.24-.09-1.18-.2-1.18.22l-.24,3.6c-1.07-1.67-5.91-8.59-7.68-8.54-.4.01-.78,1.19-1.67.87-.3-2.79.44-5.42.48-8.15-1.82.4-3.31,1.3-5.28.96-.37-.38.5-5.77.96-6.71h1.92q.8,0,0,0c-.22-.94-1.07-1.07-1.92-.96-1.14-2.98-.49-6.24-1.95-9.08l-4.49-.49-.53-1.01c-2.82-.44-3.58,1.38-5.97,1.94-.24-1.14-.68-1.8-.41-3.04.24-1.06,2.5-3.31,2.32-3.91-.33-1.14-2.64-.54-2.86-.75-.31-.3-1.15-3.97-1.46-4.77.04-.03-.04-.58.24-.94,1.26-1.63,3.21-3.26,3.6-5.3h-1.92c-1.54,1.27-3.48,2.11-5.05,3.35-.82.65-2.18,2.56-2.87,2.89-1.25.59-.25-2.1-1.44-2.4-2.99.72-4.09,4.1-5.03,6.71-.92.05-.23-1.09-.72-1.92-.38-.64-.55-.51-.97,0-1.73,2.12-2.33,6.98-3.34,9.61-.46,1.19-1.46,2.1-1.7,3.34l-.95-3.61c-.04-3.3-.49-7.29-1.55-10.44-.18-.54-1.53-3.6-2.3-2.74l-.95,5.52c.61,5.72-2.21,10.3-2.88,15.83-.61,5.05-1.02,10.86-.5,15.83.21,1.94-.92,4.37-1.32,6.34-1.6,7.93-3.1,17.75-2.53,25.81.58,8.19,4.58,15.34,6.22,23.21-.26.08-.69-.05-.85.07-.27.2.72,6.37.94,6.62.12.12.61.08.88.3,2.33,1.97,3.74,6.77,4.7,9.71.18.55,1.03,1.81.12,2.04.11.14.94,1.52,1.19,1.93,1.49,2.42,2.14,6.32,3.85,8.15.42.45,1.17.36,1.22.74.55,4.36,1.56,8.15,2.36,12.44.29,1.51.21,3.74.5,5.26.14.72,1.16,4.25,1.47,4.53.11.1,1.28.04,1.9.26,1,.34,2.69,1.7,3.96,2.28,1.65.76,4.56,1.38,5.87,2.28,1.84,1.26,4.51,4.71,5.97,6.5.43.54,3.6,3.19.81,2.55-1.98-.45-3.61-1.92-5.59-2.32.3-1.15-1.45-1.43-2.38-2.18-1.41-1.14-2.97-3.44-4.58-4.05-.8-.3-.69.17-.72.71-.05.89-.26,2.69.72,3.12.93.4.77-1.18,1.44-1.44,1.58,1.97,3.44,3.02,5.52,4.31,2.96,1.85,6.3,2.98,9.11,4.8.43.28.1.52,1.44.96-.03-.22.07-.48-.02-.7-.07-.3-.25-.22-.46-.26-.09-.7-.06-2.19.72-2.4.65-.17.96.72,1.51.89.47.14,2.29.49,2.82.54,1.95.19,3.6-.38,5.51.49v.48c-1.51.66-1.94,1.14-3.84.96-.64-.06-.21-.19-1.44,0-.86.13-3.24.24-3.84.48l-.28-.42c-.21-.12-.49,0-.68-.06.06.46-.04.97,0,1.44-.85.16-2.18-.33-2.88.24,1.46,1.11,3.29,1.95,4.95,2.73.44.2,1.24.34,1.29.39.45.36-.1,1.32-.96.96v.24c.17.44,2.3.91,1.44,1.68-.22.2-5.23.07-5.92-.08-.48-.11-5.41-3.04-6.06-3.53-1.18-.89-2.84-3.3-3.85-3.83-.62-.32-2.73-.27-.94-1.43.36-.23.94-.12.94-.49-.71-.81-1.21-1.43-2.4-1.2.52,6.32-3.49,2.58-7.2,2.88-.42,2.45,1.59,3.14,3.36,4.09.32.17,1.85.44.96,1.18-.32.27-1.93-.45-2.62-.5-3.44-.27-6.28,3.04-3.86,5.78,1.32,1.5,5.4.81,7.44,1.44.42,1.55-.65,3.16-.49,4.54.33,2.9,2.49,2.02,4.56,2.17,1.79.14,2.43.66,4.59-.23.72-.3,1.27-1.02,1.71-1.17,1.47-.52,1.07.6,1.69,1.57.56.86,1.44,1.45,2.08,2.24.46.56,1.03,2.02,1.3,2.29.59.58,2.42.62,3.27.57-.38-.99-3.14-3.02-4.32-2.88-.4-1.87.67-1.31,1.91-2.16.83-.57,1.35-1.58,2.23-2.11l4,.94c.22,2.08-.13,4.29-1.41,5.98-.37.49-1.41,1.1-1.45,1.19-.17.4.11,1.52.02,2.12-.07.47-2.16.5-.99,1.48,1.15.96,2.35.5,3.51.8,1.48.39,3.23,1.66,4.4,1.83,2.38.34-.89-1.77-.98-1.9-.28-.4-.3-1.88-.22-1.94.11-.08,1.08.09,1.6-.07.6-.18,1.3-1.19,2.07-1.3,1.61-.24,5.97,2.1,7.6,2.33,2.5.35,4.92-.85,7.44-.48.46.42-1.98,2.92-2.39,3.13-.82.42-1.99-.17-1.93.71,2.26-.27,4.41-.69,6.72-.48-.05.39.08,1.35,0,1.43-.26.21-4.28,1.13-5.14,1.35-.87.23-1.29-.25-1.09,1.06,1.52.22,3.4-1.12,4.8-.25.57.35.59.63.23,1.21-.53.86-1.62.64-1.68,1.44h2.88c-.38.79,0,1.75-.2,2.4-.86,2.63-7.91,6.42-10.83,5.76l.24-2.4c-1.38.62-6.42,2-7.47,1.22-.4-.29-.33-1.02-.49-1.18-.54-.56-5.62.79-2.35-3.4-1.8.4-4.54.38-5.26,2.1-.28.66-1.62.54-1.68-.68-.04-.74-.94-.8-2.03-1.33-.54-.26-1.01-.87-1.41-.99-1.45-.43-3.35.86-4.97.42,1.57-2.98-2.25-2.69-4.55-2.39-1.36.18-2.97,1.25-4.33,1.42-1.36.18-5.55.65-6.63.41-1.29-.29-2.36-1.7-3.68-1.84-.37,1.59.93.65,1.38,1.01.1.08.22.9.76,1.41,2.65,2.5,3.64.73,6.28.92.38.03,2.51.43,2.62.51.06.04.05,1.38,0,1.42-.61.49-2.79.17-3.36,1.21-.07.24.97,1.92,1.19,2.16.5.54,1.32.2,1.21.95-1.88-.53-4.41.65-5.98.49-.87-.09-2.49-.33-3.36-.49-.91-.17-4.85-1.6-5.05-1.43-.82.71.58,1.05.96,1.18.93.34,1.85.78,2.88.73.48,1.94-2.16.06-1.93,1.69.2,1.39,3.06,5.49,2.88,6.2-1.03,1.84-2.71.56-3.51.79-.44.12-.66.81-1.5.93-1.98.3-5.06-1.06-5.7-.92-.39.08-2.84,1.86-2.22,2.35,1.23-.08,1.5,1.3,2.63,1.45,2.66.37,5.53-.8,8.15-.99,1.96-.14,7.22-.43,8.19,1.45,1.33,2.58-2.91,3.42-4.84,3.84-.86.18-1.39-.45-1.17.97,2,.52,7.06-2.95,8.4-.95.77,1.15,3.8,2.33,5.5,3.11.71.33,1.63.55,2.41.71.11.8-1.72.55-2.18.5-.75-.08-1.36-.45-1.91-.49-2.05-.16-3.99.29-5.99-.49l.47,2.61-2.39,1.46c1.57,1.42,6.87,4.83,7.21,6.71.32,1.82-1.52,1.53-3.04,1.78-.3.05-.47.39-.57.39h-7.68c-.28,0-1.54-1.36-2.16.48,4.2.56,8.47.91,12.6,2.04.87.24,3.32.92,3.91,1.3.41.26.32.59.29.99.7-.25,1.08-.96,1.74-1.37,2.68-1.66,4.98-1.96,7.85-2.46v.96c-.82-.31-2.41,1.52-1.92,1.92,2.65,1.36,4.62.9,7.42.46,3.84-.6,7.7-1.81,11.53-2.38,1.04-.15,1.39-.16,1.2.96-1.78.1-3.69.6-5.4,1.08-2.68.75-5.98,1.54-8.52,2.51-.54.21-3.66,1.57-3.79,1.73-.19.23.01,1-.04,1.39-.13.18-2.61-.76-3.06-1.02-1.97-1.16-2.17-3.21-5.58-2.34l1.43.49c.34,1.29-.29,2.63-.37,3.68-.04.48.4.93.33,1.29-.18,1-1.81.91-1.87,1.73l1.92.72c-.89,1.1-2.83.69-3.36,2.16,2.25.96,4.28-.41,6.71,0v1.44c.4.56,5.18-2.11,5.98-1.92.67.16.61,1.19.77,1.43.1.15,2.72-1.64,2.36,1.42l-16.3,12.25c-.08.45.56.08.84.33.22.2.18.66.35.86.51.58,1.31.23,1.2.97-1.88.7-3.77,1.5-5.61,2.31-.78.35-1.89.41-1.59,1.53.87.14,1.59-.08,2.41-.23,3.32-.62,8.49-2.78,11.35-3.03,5.76-.51,11.3-3.88,17.08-5.48,5.37-1.48,10.83-2.67,16.18-4.21l-1.75,1.36c-.8,1.15-5.66,1.83-5.87,2.06-.13.14.11.63-.33.91-2.72,1.71-10.87,3.42-14.6,5.01-1.93.82-3.6,1.65-5.3,2.87-.73.53-1.2-.05-.93,1.69,3.2.34,6.02-1.52,9.12-1.92l-4.32,4.31c.52-.31,2.47-1.04,3.22-1.34,1.54-.61,5.12-1.89,6.62-2.03,1.85-.17,2.45,1.55.57,2.5-2.68,1.35-8.61,2.98-11.66,3.7-.74.17-.78.04-.68-.68.14-1.03.83-1.11,1.67-1.67.18-.12.17-.44.25-.49-2.99-.2-6.11.86-8.16,3.11-.31.34-1.73,2.37-1.43,2.65l7.06-2.3c5.78-.08,10.76-2.66,16.12-4.33,1,.7,3.25-.05,3.69,1.11.44,1.16-1.05.27-.96,1.2,2.72-.45,5.39-.6,8.15-.48.08.93.11,1.42-.79,1.84-2.5,1.16-6.99,1.6-9.76,2.47.1,1.08,1.76-.24,1.47,1.4,3.38-.73,6.58-2.35,9.92-3.2,1.37-.35,6.46-1.52,7.35-.86.33.25.3.88.56,1.13.21.2,1.26-.1.84.81-.25.53-3.08,1.84-3.84,2.16-2.7,1.12-6.42,1.78-8.64,3.84l-5.28,1.44c.23-2.07,2.86-2.65,4.32-3.36.33-.16,2.34-1.09,1.92-1.44-1.11-.49-2.04.85-2.4.96-.34.1-1-.08-1.57.1-2.48.77-4.89,2.09-7.55,1.82-.17-1.63,1.9-1.66,2.4-2.88-1.67.42-3.91.23-5.44.56-1.96.42-5.7,3.23-7.66,4.33-1.47.82-6.52,2.81-7.05,3.98-.42.93,1.37.91,1.93,1.43.46.43.39,1.06.49,1.18.51.58,3.47-1.35,4.28-1.66,1.53-.59,4.65-1.82,6.1-2.06,1.22-.2,2.7.14,3.69-.15.62-.18.92-1.12,1.56-1.31.92-.27,2.12-.15,3.05-.54.27.26-.93,2.42-1.21,2.86-3.6,5.67-8.18,9.85-12.72,14.63-.35.37-.4,1.03-.53,1.14-.34.27-1.71-.11-1.85,1.03,8.18-2.54,13.95-13.86,24.32-15.74,1.34-.24,2.16.41,2.72.33.51-.08,5.06-2.84,6.21-3.39.83-.4,2.03-.34,2.26-1.34-.19-.16-4.32.41-4.96.56-1.16.27-2.23,1.66-3.67,1.36-.5-1.73,2.82-.8,1.68-2.4l-6.96,1.44c.05-1.77.72-1.78,1.92-2.4,2.22-1.15,6.33-3.3,8.64-3.84,1.4-.32,2.49.34,3.61.47,1.54.17,2.98-.68,3.37,1,7.8.29,15.38-.72,23.01-1.46.87-.08,1.76.03,2.63,0,.1.66-1.24.69-1.8.83-1.52.4-3.95,1.3-5.26,1.5-.85.13-1.27-.45-2.05-.42v1.44c-.77.22-1.46-.45-2.08-.4-1.46.12-4.32,1.53-6.09,1.58l-2.86,1.21c3.03-.3,5.8-1.67,8.87-1.95,1.55.08,1,1.66,1.22,1.93.11.14,2.96.07,3.57,0,5.18-.57,11.29-3.36,16.3-3.84.99-.1,2.02-.32,1.7.98l-1.77.39-3.51,1.53c1.36.37,6.96-1.1,7.67-.48,1.07.93-1.24.8-.96,1.44,1.31-.17,1.3-.11,1.68.97l5.51-1.93c.25,1.27-.29.8-.96,1.18-5.49,3.05-18.09,7.45-24.3,8.82-1.03.23-1.29.23-1.13-.89l3.84-.96,2.88-1.44c-1.21-.1-2.32.34-3.48.58-.25.05-.33.37-.36.37-.47.09-1.1-.09-1.65.01-3.79.68-7.5,1.29-11.3,1.91l1.92.48c.04.55.04.94-.23,1.45-.85,1.61-6.57,4.62-8.39,6-.7.53-4.67,3.92-4.82,4.3-.08.21.01.48.01.7.26.05.71-.07.88.06.35.27-.47,3,.79,2.36,1.37-.7,4.62-4.9,6.23-6.24,1.01-.84,3.18-2.42,4.33-2.86.66-.26.81.08.72.72-.29,1.96-5.94,5.38-7.2,7.19l1.44.25-.07,2.08c-2.33,4.37-5.68,8.94-7.71,13.4-.89,1.95-.81,3.27,1.52,2.73-.18-2.61,3.82-4.44,1.46-6.7,2.4.52,1.94-.9,2.95-2.56.49-.8,2.49-3.94,3.08-4.12.61-.18,1.5.15,1.64.69.07.24-1.86,3.27-2.17,4.06-.32.8-.52,1.11.49.97,1.66-2.01,3.31-4.03,5.28-5.75.54-.47.79-1.15,1.68-.96.32,1.88-1.31,2.67-2.14,3.86-.58.83-3.51,5.06-3.59,5.53-.32,1.87,2.14.7,2.54.76,1.74.27,1.97,1.75,1.75,3.29,1.64-.89,2.28-3.12,3.43-4.48.65-.76.66-.97,1.85-.79-.68,3.92-3.53,6.82-5.5,10.09-.2.33-.79,1.1-.5,1.42,1.33-1.31,1.87.54,3.12.48.09-.89.86-1.9,1.43-2.65,3.49-4.61,8.22-8.84,13.92-10.3l-.21,1.94c-1.31.95-2.93,2.02-4.11,3.08-3.64,3.28-10.34,11.69-11.41,16.4-.08.36-.33,1.06.15,1.11,2.54-2.98,8.91-10.65,12.95-10.59.72,0,1.47.56,1.86.48.6-.13,1.4-1.66,2-1.85.58-.18,1.58-.12,1.17.69-2.65,2.63-5.27,5.29-7.91,7.94-.88.88-.54.02-1.21,1.42-.07.14-2.13,1.23-1.44,1.92.67.67,1.59-1.14,1.92-1.44,1.1-1,3.25-1.7,3.38.24.11,1.68-2.6,4.96-3.6,6.5-.27.42-.25,1.02-.51,1.41-1.06,1.59-3.54,3.06-3.11,5.28l4.02.93c2.32-2.56,4.02-5.61,7.98-5.24,1.59-1.96,3.44-3.78,5.28-5.52.49-.47.92-1.24,1.68-1.2.65.47-.39,1.76-.71,2.17-1.07,1.36-3.42,3.43-4.81,4.54,1.04.43.32,1.73.24,2.4-.1.86-.53,4.44-.24,4.79.74.9,1.01-.65,1.18-.96.65-1.2,2.25-4.26,3.13-5.04.95-.83,3.57-1.41,2.85.46-2.91,2.94-5.77,6.31-7.86,9.89-.35.6-.85,1.12-.75,1.89.82.15.21-.54.79-.99,1.72-1.31,2.6-2.96,4-4.54.64-.73,4.03-4.65,4.32-4.8.56-.29,1.21-.13,1.6-.32,1.36-.64,5.99-3.83,7.3-1.85,1.37,2.07-3.02,6.99-4.59,8.4l-3.11,4.08c.71-.71,1.53-.29,2.42-.94.84-.61,1.59-1.84,1.66-2.9l1.2.96c1.66-.83,1.78-4.46,2.92-4.77.75-.21,1.39.57,2.27.41.55-.1,1.82-.89,2.71-1.16.8-.24,2.26-.71,3.02-.63,1.18.11,2.83.78,3.47,1.85.31.53.61,2.41.97,2.4,1.84-.75,3.19-2.28,4.87-3.28,2.35-1.4,8.25-4.21,7.84.4l.24.48.24-.48c.37-.09,1.36-.94,1.44-1.2.31-1.01-1.16-1.03-1.4-1.23-.2-.17-.15-1.77.43-2.14.64-.41,1.44-.18,2.16-.25l.27.97c.34.5,3-2.03,3.99-1.84,1.42.27,1.41.77,1.29,2.12-.16,1.78-1.54,2.77-1.46,4.54-.03,0-.1.28-.36.39-.33.14-.81,0-1.01.15-.1.07-.33,1.1-.61,1.55-.94,1.49-1.9,3.27-2.81,4.63-1.01,1.51-2.23,3.11-3.35,4.57-.61.8-3.67,3.95-3.79,4.37-.22.76-.34,3.4.42,4.02ZM179.56,277.47c-.09,1.99-2.6,2.05-4.07,1.91-.68-.06-1.37-.66-2.17-.47-.04-1.02-.22-.91.72-.96,1.89-.09,3.65-.14,5.52-.48ZM209.78,301.93l-.52,3.8c-3.76.37-7.98,2.33-11.71,1.94-1.88-.19-4.11-1.11-6.01-1.43.22-.98.92-.86,1.67-.97,1.39-.21,2.82-.28,4.22-.58,1.74-.38,11.78-3.33,12.34-2.77ZM214.1,314.4l-1.91,1.21c-1.15.49-4.07,1.19-4.57,2.15-.16.3.21.72.03.97-.09.13-2.19,1.68-2.49,1.84-1.05.58-2.38.69-3.54,1.02l.48,1.44-7.68,1.44c.24-.99,1.77-1.1,2.17-1.9.45-.9-.08-2.15.69-2.67,4.59-1.23,9.69-4.53,14.26-5.4.85-.16,1.7-.09,2.55-.09ZM215.54,314.4h-.96v-.48h.96v.48ZM193.95,138.87c-1.03.04-.91.21-.96-.72-.03-.63.07-6.06,1.68-5.52,1.97,1.78-1.02,4.09-.72,6.24ZM195.39,210.33c.1.86-1.07.42-1.68.48-2.12.19-1.83.58-2.95.92-1.39.42-3.15-1.26-2.57-2.83,2.63-.41,4.74.84,7.2,1.44ZM220.83,177.98c-.15,1.52-1.01,3.83-2.65,4.07-.73.11-3.55-.35-4.11-.71-.58-.37-1.93-3.79-2.61-4.58-.39-.45-1.05-.54-1.45-.95-8.77-8.79-8.68-20.09-10.8-31.41-.68-3.63-2.43-8.09-2.85-11.54-.39-3.19.24-4.78,2.87-2.15-.14-3.45-2.36-6.56-1.92-10.07.9-1.04,2.93,3.37,3.12,3.83,2.04,4.79,2.69,9.48,2.65,14.65,0,.69-.45,1.27-.41,1.81.19,2.41,2.47,9.43,3.5,11.85.35.81.79,2.06,1.68,2.39.1-3.29-2.14-5.9-1.42-9.34.08-.31.27-.21.46-.25.28-.06.65.04.96,0-.83-2.92-1.99-6.16-2.39-9.36-.07-.55,0-1.12-.01-1.67l1.21.46c.91,3.76,1.76,7.54,2.61,11.31.12.54-.09,1.2.01,1.65.54,2.42,1.35,5.04,2.49,7.34.25.51.81,2.14.89,2.22.24.24,2.35-.26,3.34.26,1.33.69,2.82,5.29,3.23,6.84.94,3.59,1.93,9.72,1.58,13.33ZM222.73,221.84c-1.61.12-5.33-1.02-3.84-2.88.56-.1,2.56-.13,2.88-.48.99.54.82,1.53.96,2.4.05.3-.05.66,0,.96ZM226.09,223.28c-1.14-.13-5.05,1.55-5.76.96-1.18-.99,2.2-1.42,2.54-1.53.28-.09.32-.38.34-.39.18-.07.46.06.67-.06l.29-.42c.57.25,2.12-.28,1.92,1.44ZM224.17,226.15c.08-.54-.3-1.21.29-1.45.62-.25,3.26-1.3,3.48-1.53.22-.24.02-.81.08-.85.13-.12,1.06.21,1.38-.07.23-.2-.01-.79.06-.89.07-.1,2.16-.15,2.4.24-.04,1.47-4.26,4.17-5.6,4.48-.69.16-1.39.07-2.08.08ZM236.64,321.59l-5.28.48c-.27-.25,1.21-2.91,2.16-2.9.68,0,3.92,1.7,3.12,2.42ZM250.08,336.94c-2.16.77-4.45.42-6.72.48-.6-.54,2.53-2.85,3.11-2.9,1.1-.1,2.86,1.52,3.6,2.42ZM258.71,341.74l-1.68.96h-12.71s5.98-.98,5.98-.98l8.42.02ZM248.64,370.03l.77-1.39,4.99-.53v2.4c-1.98.15-3.83-.08-5.76-.48ZM258.43,365.67c-1.67.5-7.53-1.7-9.66-2.25-.87-.23-1.29.25-1.09-1.06,2.17.32,5.45-.43,7.44,0,1.02.22,2.49,2.37,4.08,1.92.13.59-.21,1.23-.76,1.39ZM286.05,353.47c-3.9,2.14-14.78,6.26-19.05,6.87-1.33.19-2.65.08-3.98.1-.01-.65-.18-1.28.47-1.69,1.63-1.02,5.84-1.15,7.4-2.13.48-.3.11-.94.55-1,4.91-.69,8.74-2.58,13.03-3.23.53-.08,2.36-.25,2.54-.1.9.74-.65,1.01-.96,1.18ZM304.77,284.18c2.84.84,6.63,1.43,9.59,1.92v.96c-.92-.24-1.93-.66-2.88-.48h-1.44c-.3-.06-.7.07-.96,0-1.48-.42-3.67-.95-4.32-2.4ZM297.81,238.62c.31,0,.31.48,0,.48s-.31-.48,0-.48ZM445.32,343.17c.5.53-.87,2.3-1.22,2.87-.16.25-.41,1.88-1.17.96-.79-.95,1.59-4.68,2.4-3.84ZM434.89,324.82c.1-.28.63-2.27,1.32-1.31.06.09.44,1.88.47,2.17.39,3.58-1.12,4.01-1.43,6.23-.27,1.97.19,3.5.47,5.28.1.63.39,1.93-.71,1.67l-1.59-5.13c-.43-2.43.64-6.52,1.47-8.91ZM440.05,371.95c-.03,1.03.05,2.08,0,3.12-.05.93.06.76-.96.72-.41-1.48-1.3-3.75.96-3.84ZM412.94,327.35c1.02.97,2.61.2,3.78.54,1.08.31,5.61,8.05,6.94,9.37l.56,2.08c-.89.19-1.14-.48-1.68-.96-3.39-2.97-5.81-6.58-8.87-9.83-.27-.29-1.15-.81-.72-1.2ZM411.74,338.38h.96v.48h-.96v-.48ZM403.93,336.36c-1.19-.32-2.11-1.31-3.7-.86v-1.44c.4-.4,8.31,2.45,9.6,2.88l-.68.92c-1.62-.91-3.47-1.03-5.22-1.5ZM401.67,353.48c.55.53.61,1.14.5,1.91-.08.56-1.18-.15-.98.73,1.32.06,3.22.92,4.31,1.69.56.4,1.12.9.97,1.67-2.22-.19-4.79.26-6.96,0-.11-.01-.27-.34-.57-.39-2.78-.48-4.93-.73-2.55-3.92-.86.09-3.55-.35-3.8-1.23-1.42-5.04,7.07-2.41,9.08-.45ZM386.54,336.92c3-.4,8.32,1.37,10.8,3.14.82.59,1.14,1.1.97,2.15-2.47.28-4.77-.69-7.19-.96-.34.31.55,1.49.95,1.69,1.01.5,3.88.44,5.31.92.63.21,3.68,1.92,2.85,2.66-1.43.48-2.81.59-4.32.48.7,1.68,3.01.73,2.39,2.87-1.72.97-2.74.12-4.08.02-1.43-.1-4.41.36-5.29-.94-.49-.73,0-2.15-.28-2.38-.25-.2-1.09.11-1.34-1.31-.16-.9,1.57-1.21,1.42-2.81-.22-2.54-2.34-1.4-3.16-2.62-.64-.94-.4-2.73.97-2.92ZM381.52,295.21s.34.34.48.48h-.48v-.48Z"/>
    <path class="a3" d="M240.26,409.38c1.48-1.72,2.63-.61,2.11,1.15-.16.54-1.53.97-2.12,1.72-.21.27-2.04,3.45-2.1,3.66-.26.89.07,1.93-.06,2.82-.13.88-1.45,2.15-1.45,2.15h0c-.62-1.45-.66-1.98-2.4-2.4h0c.71-1.78,2.01-3.7,3.14-5.25.85-1.17,1.97-2.78,2.88-3.84Z"/>
    <path class="a3" d="M203.06,382.98c-.59.99-1.86,1.03-2.88.96v-.96c.45.01.96.04,1.46.05.5,0,1,0,1.42-.05Z"/>
    <path class="a3" d="M203.69,382.71c-.04.07-.06.13-.09.18.08-.17.19-.53.74-.78,1.76-.82,5.26-.32,2.59-3.21l.2-.24,16.56-14.63c.49-.96-1.07-.82-1.61-.65-1.15.36-6.5,5.03-7.75,6.16-1.24,1.13-7.6,8-8.15,8.16-1.18.35-1.59-2.01-.97-2.89l9.6-9.11c4.77-2.67,8.21-7.23,12.73-10.29.77-.52,5.91-3.48,6.21-3.12.07.08.04.61.25.94.67,1.04,1.55-.21,2.64.01-.2.65-2.25,2.25-2.7,2.35-.51.11-1.35-.69-2.09-.43.45,1.11,2.09,1.45,2.87,2.17,1.27,1.17.13,1.07-.72,1.65-5.23,3.62-10.22,7.09-14.39,12-.57.67-.92.85-.72,1.92.29.31,2.43-1.37,2.86-1.7,3.7-2.84,7.23-5.92,11.07-8.59.84-.29,4.81-3.57,5.26-3.14.53.52-2.25,2.85-2.4,3.59-1.42,1.36-3.65,1.09-3.8,1.23-.11.11-.28,1.36-.75,1.89-1.72,1.95-4.94,4.24-6.97,6.46-3.84,4.2-3.92,5.64-9.91,7.84-.56.2-1.34.03-2.1.3-2.56.9-4.56,3.25-7.16,4.36-.5.21-1.38.18-1.45.23,0,0,0,0,0,0-.5.41.71,2.66.96,3.34-1.16.13-1.26-.67-1.68-1.44-1.32-2.41-.35-2.51,2.16-2.4l-1.44-1.92h0s.04-.05.06-.09c.02-.05.05-.11.09-.18Z"/>
    <path class="a3" d="M225.92,413.15c-.12.05-.24.11-.35.18.11-.07.23-.13.35-.18Z"/>
    <path class="a3" d="M324.43,188.75c.36-.35,3.57,1.78,2.88,2.4-.72.64-3.14-1.31-2.88-2.4Z"/>
    <path class="a3" d="M276.94,175.32c-.32-.32.91-2.88,1.92-2.4.23,1.28-.7,2.45-1.92,2.4Z"/>
    <path class="a3" d="M282.15,189.3c.11.11.55,1.37.57,1.62.15,1.9-1.52,2.47-2.18,3.59-.66,1.12-.79,3.63-2.39,3.85-3.35.45-4.56-5.21-2.88-7.68,1.28-1.87,5.4-2.86,6.87-1.38Z"/>
    <path class="a3" d="M266.69,135.1c-1.65.98-2.52,2.97-2.71-1.02l-2.4.96c-.15-1.42-.62-2.12.09-3.51,1.06-2.06,2.75-2.46,4.25-.58.35.44.41,1.06.5,1.16.52.57,4.95-1.12,6.2.28l1.91,1.2c-2.58-1.03-5.55.14-7.85,1.51Z"/>
    <path class="a3" d="M257.75,195.94v-2.4c1.98-.03,1.98,2.43,0,2.4Z"/>
    <path class="a3" d="M281.49,176.28c-.64.82.04,1.27-2.15.95-1.03-1.78,3.18-2.55,3.36-2.4.85.73-.96,1.13-1.2,1.44Z"/>
    <path class="a3" d="M351.66,249.05c.86,2.36,1.37,4.26,1.08,6.84-.55-.08-1.2.3-1.44-.28-1.23-2.95-1.06-4.78-.47-7.87.67-.11.66.8.84,1.31Z"/>
    <path class="a3" d="M254.87,202.17c-.32-2.37.71-2.61,2.88-2.4l-.5,2.37-2.38.02Z"/>
    <path class="a3" d="M286.54,178.2h2.88c.08,2.03-2.96,2.03-2.88,0Z"/>
    <path class="a3" d="M250.51,212.77c-.41-.39-2.15.64-1.87-.76,1.69-2.54,3.33-.02,3.36,2.16-1.32.35-1.2-1.13-1.48-1.39Z"/>
    <rect class="a3" x="302.37" y="319.2" width="1.92" height=".48"/>
    <path class="a3" d="M241.68,219.92c-.31,0-.31-.48,0-.48s.31.48,0,.48Z"/>
    <path class="a3" d="M340.36,250.49c-.04.12-.07.24-.08.37-.02.17-.03.35-.03.53,0-.18,0-.36.03-.53.02-.13.05-.25.08-.37Z"/>
    <path class="a3" d="M251.68,220.33c-.32.28-1.8,1.32-2.08,1.03.14-1.46,1.18-3.18,2.88-2.88.19,1.19-.04,1.2-.79,1.84Z"/>
    <path class="a3" d="M309.5,261.13c.01.17.03.34.07.52h0c-.03-.17-.05-.35-.07-.52Z"/>
    <path class="a3" d="M388.24,422.78c.76-.25,1.54.5,2.09.41.13-.02,2.07-.89,2.16-.97.68-.68,1.41-4.34,2.24-4.72.71-.33,1.1.92,1.12,1.27.05.62-.64,1.31-.41,2.08l5.03-1.44c.9.54-.22,1.36-.24,1.44h0c-4.2.14-7.79,3.29-11.99,2.88h0c.04-.3-.03-.65,0-.96Z"/>
    <path class="a3" d="M340.78,248.94c0,.19-.04.37-.08.54.04-.17.07-.34.08-.54.11-2.19-1.59-5.01-2.99-6.64-.25-.29-.44-.62-.67-.87.24.25.43.58.67.87,1.4,1.63,3.1,4.45,2.99,6.64Z"/>
    <path class="a3" d="M374.56,274.11c-.98.28-2.49-2.35-2.16-3.36.51-.55,4.26,2.76,2.16,3.36Z"/>
    <path class="a3" d="M395.18,306.26c-.18-.82-3.66-3.77-3.11-4.33.5-.5,5.33,4.21,6.26,4.53l.93,2.67c-1.9.24-2.78-1.91-4.09-2.87Z"/>
    <path class="a3" d="M402.86,406.47c1.42-1.18,3.13-2.23,5.05-1.91.1,1.24.04,2.33-.73,3.34l-10.06,10.08.49-1.91c2.6-3.11,2.05-6.96,5.26-9.61Z"/>
    <path class="a3" d="M414.14,317.27h-.48c0-1.11-.34-2.48.96-2.88l-.48,2.88Z"/>
    <path class="a3" d="M311.48,255.41h1.44c.15,1.37.72,1.66,1.92,1.92.28.06.65-.05.96,0v.96c.5.2.8.63,1.27.89l.65.07c-.09.12.26.91-.27.98-2.26.32-3.47-.68-5.48-1-.1-.46.07-.99-.01-1.43-.16-.84-.59-1.52-.48-2.4Z"/>
    <path class="a3" d="M459.72,299.05c-.01-.05,0-.11,0-.16,0,.06-.01.11,0,.16h0,0Z"/>
    <path class="a3" d="M331.89,237.65c.97.07,1.83.58,2.82.55l.28.42c-.12.59.21.68.48.96h0v.48h0c-.1.84.46.9.48.96.35,1.22.4,2.57.48,3.84v.48c-.01.27-.06.8,0,.96l-1.44,1.44c-.21-2.22-1.36-7.27-3.11-8.65-.52-.41-1.15-.41-1.21-.46-.92-.7.42-1.04,1.22-.98Z"/>
    <path class="a3" d="M356.58,241.5c-.61.68-.84-.07-1.05-.61-.47-1.22-1.53-5.24-2.62-5.55-.51-.15-1.15.04-1.64-.28-.53-.35-1.98-3.14-3.09-3.62-.45.15-.29,1.25-.23,1.67.2,1.38,1.11,3.48.96,4.8-.07.64-.67,1.65-.97,2.36-.39.95-1.71-.08-2.15-.69-1.24-1.69-1.25-3.54-1.91-5.28-1.17-3.08-2.57-7.01-4-9.91-1.22-2.47-2.93-3.12-4.16-4.95-.73-1.09-.56-2.27-.95-2.89-.29-.45-8.25-4.27-9.52-4.87-1.23-.58-6.26-2.19-6.52-3.08-.15-.51-.02-1.09-.06-1.62h-5.27c-.09-1.82-.34-3.31,1.76-3.76,3.24-.69,6.62.83,9.75,1.36-1.21-1.85-3.16-3.12-4.56-4.79-.4-.49-.92-.62-.72-1.44,1.85.78,3.66.28,5.51.49,1.95.22,3.72.92,5.78,1.12.49.05.9,1.2,2.33.74.51-.17.75-.99,1.43-.87.99.17,1.64.91,1.74,1.88.98.13,2.05.68,2.87,1.21,2.1,1.37,12.18,9.24,12.41,11.09.05.42-.35.83-.31,1.28.14,1.62,2.13,5.75,2.78,7.52.69,1.85,3.12,5.38,3.29,6.55.15.98-.79,4.88-.88,6.17-.07,1.04.19,5.76-.01,5.98Z"/>
    <path class="a3" d="M342.42,199.3l-7.91-5.52c-.21-.98.5-.84,1.19-.71.77.14,1.73,1.02,2.17,0l-7.68-6.95c.73-.75,2.14.46,2.86.98,2.14,1.54,4.49,3.5,5.3,5.98.91,2.79,1.79,2.72,3.6,4.8.33.38,1.26.97.48,1.44Z"/>
    <path class="a3" d="M301.16,188.26c-.51.05-2.54.11-2.62,0-.32-.37.71-3.08-2.4-2.4v-2.39c1.54-.25,2.52,1.75,3.34,2.17.93.48,6.86.31,8.43.25.85-.03,1.51-.49,2.36-.52,1.26-.05,8.6-.31,8.89.02.08.1-.07,1.08.09,1.59.33,1.09,1.36,1.62,1.35,2.73l-4.57-.95c-4.89-.22-10.14-.97-14.87-.5Z"/>
    <path class="a3" d="M327.79,233.83c.54-.03.91.04,1.2.17-.28-.13-.66-.2-1.2-.17-1.19.07-2.47,1.17-3.85,1.19-2.61,1.37-9.21,10.59-9.58,13.44-.15,1.15.1,2.42-.02,3.58h-.95c-1.26-2.13-.93-3.53-.25-5.76,1.12-3.7,3.28-6.54,4.95-9.92.53-1.07.55-2.35,1.31-3.49,2.23-3.35,8.08-3.76,8.38.95Z"/>
    <path class="a3" d="M257.98,352.28c2.95-.47,5.87-1.36,8.88-1.43.12.64-.83.7-1.31.84-1.53.45-9.94,2.64-10.68,2.03-.03-2.06,1.88-1.25,3.11-1.45Z"/>
    <rect class="a3" x="263.03" y="354.2" width=".96" height=".48"/>
    <path class="a3" d="M310.04,420.39c.52.52-.43,1.48-.96.96-.52-.52.43-1.48.96-.96Z"/>
    <path class="a3" d="M249.6,415.59c-.26,3.09-3.1,5.56-3.36,8.63-.74,0-1.11.27-.9-.66.66-2.96,1.46-6.33,4.26-7.97Z"/>
    <path class="a3" d="M233.53,373.87c.31,0,.31.48,0,.48s-.31-.48,0-.48Z"/>
    <path class="a3" d="M257.27,419.43c.22,2.77-1.74,5.37-3.14,7.67-.38.62.12,1.23-1.17.96-.09-2.3,1.53-5.57,2.78-7.53.41-.64.54-1.3,1.53-1.11Z"/>
    <path class="a3" d="M253.76,409.84c-.61.45,0,1.1-.81.96-.01-.45.33-1.6.58-1.84.15-.14.59-.02.75-.16.36-.32.41-1.58.63-1.8.05-.05,1.17-.44,1.39-.28-.56.24-.39,1.01-.56,1.14-1.13.88-1.04,1.27-1.99,1.98Z"/>
    <path class="a3" d="M302.86,428.31c.94-1.07,1.92-2.09,2.87-3.13.35-.38,2.24-3.57,2.88-2.88,0,.81-.74,1.73-1.22,2.38-.38.53-1.11.86-1.18.97-1.8,2.68-2.92,4.84-5.27,7.44-.68.75-1.54,1.64-2.41,2.15-.05-3.41,2.41-4.78,4.33-6.94Z"/>
    <rect class="a3" x="261.59" y="354.68" width=".96" height=".48"/>
    <path class="a3" d="M181.44,250.44c.14.79-1.52,2-1.88,1.61l-.48-4.32c.67-.79,2.28,2.26,2.36,2.7Z"/>
    <path class="a3" d="M163.25,257.81h-1.92s0-.96,0-.96c.9-.12,1.66,0,1.92.96Z"/>
    <rect class="a3" x="220.81" y="343.17" width=".96" height=".48"/>
    <rect class="a3" x="267.35" y="350.37" width="1.44" height=".48"/>
    <path class="a3" d="M164.45,252.53c.31,0,.31.48,0,.48s-.31-.48,0-.48Z"/>
    <path class="a3" d="M181.48,303.85c.13,1.26,0,.76-.7.96-.72.21-1.39.59-2.18.47.08-.86,2.44-1.81,2.88-1.44Z"/>
    <path class="a3" d="M153.56,183.62c.26-1.06-.48-2.4,1.05-2.07v6.95c0,1,1.61,6.52,2.04,8.04.43,1.54,1.77,4.08,1.81,5.39.04,1.48-1.67.68-1.86-.06l-3.9-15.77c.15-.86.66-1.66.87-2.49Z"/>
    <path class="a3" d="M164.21,300.01c2.2.66,4.27.33,6.47.49.57.04,1.14.45,1.91.49,2.14.12,4.35-.13,6.5-.02l-10.29,3.37c-2.76-.58-5.08-.87-4.58-4.33Z"/>
    <path class="a3" d="M159.17,301.46c-.73,0-2.42-.89-2.16-1.93.28-.24,3.39.15,3.84.48.87.64-1.17,1.44-1.68,1.45Z"/>
    <path class="a3" d="M150.29,184.91l3.84,14.39c-.74-.11-.9-.9-1.2-1.43-1.85-3.31-3.78-8.46-3.59-12.24.05-.93-.06-.76.96-.72Z"/>
    <path class="a3" d="M157.79,314.92c.34-.07,1.16.43,1.85.47,3.07.18,8.15-4.9,11.12-6.19l4-1.99c.22,1.04-.52,1.09-1.11,1.53-2.09,1.58-4.44,2.92-6.55,4.49-2.77,2.06-4.19,4.54-7.95,5-1.01.12-2.09-.05-3.11.01-.26-.94.9-3.15,1.73-3.32Z"/>
    <path class="a3" d="M158.4,294.31c.17.14.73,2.15.53,2.35-2.53.72-2.4-.97-3.17-1.46-1.41-.89-3.96.31-3.54-2.38,1.03.33,5.75,1.15,6.18,1.49Z"/>
    <path class="a3" d="M183.4,338.86c.2.83-.33.95-.72,1.44-.49.6-2.04,2.73-2.43,2.84-2.11.62-2.25-3.28-.7-4.05,1.07-.54,2.66-.09,3.85-.23Z"/>
    <path class="a3" d="M211.3,392.19c-.25.31.26,1.04-.56.86.07-.94-.23-2.01.23-2.89.09-.18,2.71-2.31,3.14-2.61.35-.25,1.62-.99,1.91-.73l-2.39,3.61c-.31.83-2.11,1.5-2.33,1.77Z"/>
    <rect class="a3" x="248.64" y="352.29" width="1.44" height=".48"/>
    <path class="a3" d="M207.59,388.7c-2.18.61-1.66-.59-1.64-2.36l2.4.96c.25.18-.2,1.24-.76,1.4Z"/>
    <path class="a3" d="M205.76,369.53c1.08-.51,1.48-1.39,2.59-1.42.65,1.14-2.42,3.88-2.88,3.36.11-.58-.33-1.64.29-1.93Z"/>
    <path class="a3" d="M248.16,352.77c.11.67-.8.66-1.32.84-2.59.94-5.18,1.83-7.77,2.78-.97.36-1.3.32-1.94-.51l5.63-2.04,5.4-1.07Z"/>
    <path class="a3" d="M242.4,387.3c.43.43-.76,1.53-1.2,1.92l-.24-.24c.59-.41.41-2.71,1.44-1.68Z"/>
    <path class="a3" d="M187.48,342.69c.21-.08.48.02.71,0l.31.96c1.25.47,2.51.34,3.78.47.45.05.21.56.24.96-1.26.13-2.14,1.3-3.21,1.83-.62.31-2.27,1.01-3.01,1.31-.34.13-2.79.8-2.9.7-.09-.85.62-1.37,1.05-2.07.39-.64,2.74-4.05,3.03-4.16Z"/>
    <path class="a3" d="M161.79,325.17c1.14-.91,2.23-1.95,3.38-2.86.49-.39.61-.92,1.44-.72-.13,1,.4,3.04-.46,3.61-.88.59-4.18,1.58-5.29,1.66-.29.02-.68.04-.96,0,.02-.15.4-.89.48-.96.28-.25,1-.4,1.42-.73Z"/>
    <path class="a3" d="M165.65,339.34c-.28-1.09.43-.81.96-1.44.84-.31,1.51-.88,2.26-1.34l11.17-2.98c.15,1.41-1.4,1.7-2.17,2.39-.47.42-1.68,1.51-1.94,1.93-.44.72.54,1.28.07,1.93-.43.58-2.39,1.22-2.63,1.48-.17.18,0,.63-.04.9-.04.3.03.65,0,.96h-1.92c-.18.85,0,1.01-.96,1.44.69-.87.19-1.11-.47-1.69-.94-.83-4-2.45-4.25-2.73-.22-.25-.01-.78-.07-.85t0,0Z"/>
    <path class="a3" d="M233.52,418.48c.16,0,.34-.03.5-.04-.16,0-.34.03-.5.04Z"/>
    <path class="a3" d="M225.13,413.67c.1-.11.22-.2.34-.28-.12.08-.24.17-.34.28Z"/>
    <path class="a3" d="M203.43,385.61s0,.02,0,.03c0,0,0-.02,0-.03Z"/>
    <path class="a3" d="M195.73,380.25c.24.15.49.29.75.43-.26-.14-.51-.29-.75-.43Z"/>
    <path class="a3" d="M204.98,390.17c-.02-.16.03-.33,0-.48l.48.24-.42.21-.06.03Z"/>
    <path class="a3" d="M203.5,386.21c.04.16.09.32.15.49-.06-.17-.11-.34-.15-.49Z"/>
    <path class="a3" d="M242.4,254.45c1.02,1.02-.9.89-.96.96v-.96c.3.04.89-.06.96,0Z"/>
    <path class="a3" d="M126.79,221.36c2.07.86,1.48.75,3.11,1.93,4.02,2.9,7.89,5.74,11.53,9.09,2.74,2.52,5.19,5.38,7.9,7.92.4.79-.57.9-1.15.67-1.47-.57-5.03-3.41-6.5-4.53-2.57-1.95-4.62-4.57-7.7-5.5h-.48c.78,2.97,2.76,5.91,3.27,8.96.21,1.24-.09,2.51.17,3.67.19.88,1.86,3.08,2.42,4.3.45.98,2.35,6.04,1.82,6.57h-1.42c-1.28-3.12-3.03-6.92-5.08-9.57-1.57-2.03-4.82-3.56-4.54-6.25l1.92-.24-5.21-6.78-.55-3.53c.18-.09,1.22-.43,1.44-.48-.03-.28-.2-.44-.48-.48l-.29-.43-.67-.05c.23-.92.02-1.21.48-2.4.5-1.31.52-1.44,0-2.88h0Z"/>
    <path class="a3" d="M344.8,161.91c.45.9,2.32,5.12.11,4.71-1.62-.3-1.16-.09-2.5.06-2.15.25-1.91-.97-3.11-1.67-7.27-4.26-15.55-7.42-21.88-13.13-9.54-.12-27.63-3.3-33.21-11.88-1.05-1.62-1.28-2.67-.54-4.49,1.61-.43,2.31,1.67,3.67,1.84.48.06.82-.45,1.61-.21,1.32.41,4.92,3.66,5.99,3.66.89,0,1.73-1.02,2.5-1.36,1.35-.6,3.23-.78,4.7-.58,1.04.15,1.85,1.2,2.82.92,1.07-.31,1.83-2.59,2.5-2.79,1.56-.46,3.45.48,4.2.37.63-.09,1.18-.87,1.27-.9.43-.14,1.6.64,2.64.5,1.65-.22,1.47-2.35,3.83.49.64.77,0,1.27,2.17.93.05,2.38-3.64,4.22-.72,6.23l2.15-2.17c3-1.19,1.49,1.17,1.97,1.65.12.12,1.49.54,1.87,1-.05-.74.54-3.72,1.68-3.36,1.71.54-.28,6.9,1.44,7.67l2.62-3.13c3.7-1.87,2.2,5.58,3.46,6.88.26.27,1.73.86,2.29,1.3.89.7,1.54,1.64,2.67,2.13l4.07,4.81h0c-1.71-.85-.54-.07-.26.5Z"/>
    <path class="a3" d="M459.24,298.57l.48.48-.48-.48-2.91-.69c-.54-.69-.57-1.55-1-2.36-.72-1.36-3.2-4.21-3.3-5.34-.1-1.07.3-1.74,1.45-1.68,3.35,1.95,3.85,5.38,4.85,8.82.2.69,1.19.61,1.39,1.25.02.07.01.15,0,.24.01-.08.02-.16,0-.24h-.48Z"/>
    <path class="a3" d="M139.26,196.9l-1.9.5c-.21,7.15,2.18,14.08,3.33,21.08-.55-.08-1.21.3-1.45-.28-2.58-6.29-4.69-12.95-4.31-19.86h-1.44s-.48,0-.48,0c.05-.03.05-.32.48-.48.22-.08.65.09.95,0-.14-.9.33-4.05,1.21-4.31,2.28-.65.42,2.23,1.68,3.12,1.15.81.81-.36,1.44-.72.01.06.72.21.48.96Z"/>
  </g>
</svg>