<?xml version="1.0" encoding="UTF-8"?>
<svg id="a3" xmlns="http://www.w3.org/2000/svg" viewBox="0 0 600 500">
  <defs>
    <style>
      .a3 {
        fill: #a98e6a;
      }

      .cls-2 {
        fill: #c9caca;
      }
    </style>
  </defs>
  <g>
    <path class="a3" d="M407.97,343.85l.49,2.43-4.38.73c2.79,1.96,6.8,4.07,10.21,4.62-1.38-2.61-3.27-4.95-5.22-7.15-.28-.32.05-.94-1.1-.62Z"/>
    <path class="a3" d="M405.03,354.32c-2.86-2.24-13.36-7.27-16.86-7.93-1.01-.19-2.03-.13-3.05-.11.2.81,1.42.79,2.19,1.45.39.34,1.23,1.06.47,1.47l-10.93-2.92c-.27,1.3.33.83.96,1.2.45.27,6.01,2.6,4.87,3.65-.29.27-5.13-2.27-6.32-1.94-1.93-1.13-6.06-3.51-8.14-3.81-.79-.12-1.37.06-1.58.89,3.1.4,5.54,1.89,8.27,3.18.51.24,1.21.11,1.45.23.53.25,3.68,2.24,2.91,2.91l-6.8-.97c-.03.82,1.36.85,1.46.98.35.43.15,1.1-.72.97-1.98-.29-4.41-1.98-6.8-1.97-.96,0-.78.04-.74.98,2.59.38,5.45,3.08,7.65,3.77,1.6.51,4.01.32,5.61.71,5.31,1.31,11.48,7.72,15.67,11.06.99.79,4.49,3.55,5.34,3.89.58.23.97-.14.72-.72-.59-1.37-5.42-4.89-6.79-6.33-2.01-2.11-4.79-5.66-6.53-8.05-.48-.66-3.13-4.41-2.71-4.82,2.02-.38,3.44,1.32,4.73,1.83,1.48.57,3.65.35,5.12.71,2.32.57,6.44,3.1,8.4,3.31.96.11.69-.87,1.46-1.43,1.02-.74,3.05-.33.67-2.21Z"/>
    <path class="a3" d="M433.25,302.05c-5.18.43-10.35,1.16-15.55.97l10.45,3.35c2.5-.61,5.23-1.19,5.1-4.32Z"/>
    <path class="a3" d="M389.5,384.19c-.07-.64-1.32-1.43.41-1.51l-.16-.92c-4.64-4.62-10.03-8.45-14.84-12.87-1.64-1.5-3.44-3.87.07-2.02,3.01,1.58,7.33,5.64,9.91,8.07,1.92,1.8,3.75,3.73,5.37,5.81,1.71.54,2.01-1.59,1.41-2.88-.28-.6-5.14-5.25-6.06-6.09-4.31-3.92-11.84-10.49-16.57-13.56-1.8-1.17-3.97-1.68-5.58-3.18l-.64.06c-.03,1.63-2.19.68-3.47.9.17,1.24,3.74,2.25,3.89,2.43,1.08,1.39-2.71.75-1.91,2.63.19.45,6.77,4.67,7.98,5.64,2.45,1.96,4.82,4.36,7.08,6.55l1.44,2.68c-3.69-2.28-6.83-5.4-10.42-7.81-.72-.48-1.1-1.19-2.22-.94-.1-.56-.01-.7-.49-1.19-.25-.27-5.74-4.01-6.08-4.15-1.18-.47-.84,1.15,0,1.95,1.91,1.82,4.67,3.66,6.57,5.34,1.53,1.36,3.55,2.87,4.86,4.13,2.08,2,4.18,5.93,6.55,7.55,2.84,1.93,9.11,3.66,12.89,5.82.46.27.31,1.38,1.61.91,2.74-.99.77-3.48-1.61-3.34ZM363.98,358.43c-.32-.16-.32-.32,0-.49v.49Z"/>
    <path class="a3" d="M359.36,358.67c-.02-.79-11.43-3.88-13.11-3.64-.11.7.82.64,1.34.84,2.18.86,4.48,1.34,6.7,2.05.5.16,5.13,2.72,5.08.75Z"/>
    <path class="a3" d="M350.8,351.2c3.13,1.06,6.37,1.91,9.54,2.85-2.74-2.57-7.58-3.41-11.18-3.88.16.91,1.01.81,1.64,1.03Z"/>
    <path class="a3" d="M450.99,192.68c1.18-.18,1.19-.93,1.59-1.82,1.4-3.08,3.71-12.66,3.42-15.82-.15-1.59-1.77-3.98-1.85-5.7h0s-2.43,0-2.43,0c-.18,6.89-.93,13.76-1.48,20.64-.06.74-.44,2.89.75,2.7Z"/>
    <path class="a3" d="M457.15,192.52c-1.23,7.34-3.85,14.54-3.97,22.03,1.24.19,1.47-1.02,1.83-1.81,2.19-4.81,3.42-13.23,4.49-18.6h0c.14-.71-.17-1.79,0-2.43,0-.02.02-.06.04-.09-.01.03-.03.06-.04.08l-2.35.81Z"/>
    <path class="a3" d="M445.4,294.76c-.42-.36-4.74.77-5.47,1.08-1.51.63-1.33,2.95-3.76,2.32-.13.8.65.46,1.2.48,3.28.13,4.4-.31,6.92-2.32.58-.46,1.33-.54,1.11-1.56Z"/>
    <path class="a3" d="M438.83,324.41l.25,3.16c-.04.67.16.9-.74.73-1.17-.22-7.54-5.87-8.01-5.35.88,1.07-.32,3.85.03,4.34.25.35,6.01,1.82,6.22,2.07.21.25.04.98.07,1.37.51.94,5.82-4.76,2.18-6.31Z"/>
    <path class="a3" d="M430.79,340.71c-3.48-2.69-9.84-3.61-14.07-4.64.69,1.68,3.05,2.19,3.92,3.61.64,1.04.22,2.17.94,2.95.21.23,4.46,3.03,4.73,3.1,1.37.33,3.43-1.93,4.32-2.83.8-.81,2.32-.53.17-2.19Z"/>
    <path class="a3" d="M439.78,316.63c-.57-.12-1.06.79-1.52.88-.46.1-6.74-3.14-7.78-3.71-1.28-.71-7.56-5.21-8.42-4.46-.85.74.67,1.06.92,1.24,2.82,2.09,13.09,9.44,15.87,9.91.85.14,1.78-.01,2.65.02.43-.89-1.11-3.76-1.73-3.89Z"/>
    <path class="a3" d="M298.03,198.84c.49,1.73-.4,4.26,1.54,5.75l-1.94.72c.36,3.84,4.39,5.88,6.31,8.99l-2.42-.24,1.45,2.19c.14.36-1.3.35-1.46.99-.45,1.89,9.03,11.22,10.2,13.6,1.76,1.83,2.72.15,2.43-1.93-.18-1.3-1.38-2.05-1.45-2.96-.07-.88.63-1.68.43-2.79-.33-1.77-2.93-4.49-2.24-7.81.12-.58.93-.83.78-1.9-.69-5.12-3.88-11.2-7.95-14.47-.93-.75-7.9-4.96-8.51-4.37-1.02,1,2.57,3.33,2.82,4.22Z"/>
    <path class="a3" d="M320.71,145.03c.28-.3,3.17-6.65,3.17-7.03,0-1.24.3-8.2,0-8.51-1.12-1.16-2.32,1.73-2.58,2.53-1.19,3.76-1.55,8.39-2.31,12.29.27,1.13.83,1.68,1.72.73Z"/>
    <path class="a3" d="M430.57,242.79c-2.34-.06-5.44-1.14-7.76-1.03-1.59.07-3.68.79-5.36.99-1.32.16-5.37.93-5.81.94-1.33.03-2.67-1.39-3.67,1,2.64.26,5.17-.3,7.78-.48-.65,2.41,1.04,4.49-2.43,4.86-.1.85,1.68.53,2.18.48,1.49-.16,2.95-.71,4.43-.92,2.9-.42,8.65.58,7-3.94,2.21-.16,4.67.33,6.83-.24,1.38-.37.94-.81.94-2.19-1.44-.06-2.66.56-4.13.53Z"/>
    <path class="a3" d="M419.64,256.84c5.15,1.45,9.1,2.62,12.64-2.42-1.9-.19-3.45,1.73-5.14,1.94-2.15.26-5.87-1.8-7.49.49Z"/>
    <path class="a3" d="M442.65,273.5c-.58-.11-1.52.4-2.33.38-1.42-.03-6.04.06-7.09-.22-1.22-.34-1.39-1.75-1.75-1.78-5.61.84-11.81,1.61-17.43.52-1.76-.34-1.05-1.14-.73-2.43l3.63.5,15.94-2.06c1.1-.56,2.01-1.5,1.81-2.81l-1.95-.97c1.06-.39,2.91-.22,3.4-1.46-4.71.42-8.79,2.36-13.61.97-.78-.72,3.57-3.09,1.14-3.82-.46-.14-3.72-.57-4.32-.58-1.07-.03-1.97.51-2.9.52-2.83.03-5.68-.03-8.51,0-.14.13.48,2.14.72,2.44.55.65,2.17.17,1.7,1.2-.43.94-6.75,4.52-7.29,3.65-.33-.54.57-2.02-1.34-2.8-2.14-.18-16.04-4.11-16.65-3.52-.06.45-.05.62.23.98.42.54,4.96,2.77,5.99,3.27.66.32,1.34-.32,1.07,1.09-3.09-.51-6.45-1.51-9.53-1.89-1.07-.13-7.11-.63-7.52-.33-.88.66.43,1.91-1.61,1.7-3.06-.31-5.5-1.93-8.07-3.37-.36-.2-1.24.48-.98-.73.12-.53.84-.11.98-.25.41-.42-.01-.2.97-.97.16-.13-.41-1.19,1.46-1.46.9-.13,1.98.1,2.92,0,.62-2.42-1.5-1.06-1.95-1.46l-.97-.49c-.34.05-1.87.06-1.94,0l-.97-.49c-.35.05-1.87.07-1.94,0l-.49.49c1.98,1.07.68,4.84-2.07,4.3-.67-.13-2.31-.95-3.12-1.29-1.72-.72-10.28-4.99-10.84-6.17-.45-.93.78-.77,1.23-.74,1.05.06,2.11.56,2.92.54,1.57-.03,1.3-1.35,3.14-.52v-.97c-.41-.21-5.34-2.56-4.37-3.4,1.48-.36,2.91.9,4.16.95.92.04,1.81-.52,2.86-.5,1.67.04,3.85.98,5.61,1-.62-1.66-5.23-3.73-4.86-5.58.35-1.74,4.71.28,5.35-.25.9-.76-.75-1.07-.94-1.24-2.25-2.02,1.39-1.85,3.01-1.56.92.16,10.11,2.96,10.56,3.29l.97-.49c-.8-.25-2.29-.28-1.94-1.46,9.1-.62,18.39,2.01,27.22-.98-.88-1.8-3.42-.58-4.98-1.09l-8.14-2.55c2.02-.44,4.1.58,6.07.73,3.79.29,11.33.61,12.39-3.89-2.56.69-11.85,1.77-13.39-.46-1.19-1.71.78-1.7.76-2.95.53-.03,3.69-.85,3.89-.98.04-.03.05-.8,0-.97,2.65.51,2.63-2.1,3.4-2.68.86-.65,3.59-.53,4.84-.99,1.75-.64,5.39-3.82,6.69-4.03,2.55-.41,6.28,4.46,8.22,4.66.25.03,2.49-.3,2.59-.38.6-.47-1.44-4.38,2.14-2.34.91.52,2.62,3.33,3.48,1.89,1.23-2.06-1.08-6.49-.74-6.82,3.76.42,2.64-.37,3.67-2.41.48-.96,2.28-1.81,2.56-2.79.27-.95-.17-2.39.3-3.1.69-1.05,6.02.65,3.39-4.3-.44-.82-2.49-2.83-2.6-3.27-.2-.86,4.91-4.46-2.95-3.1-.76-2.98,3.42.11,2.34-3.07-.36-1.06-2.04-1.46-1.85-2.76,2.25-.62,3.45-.75,2.91-3.41-1.87.03-3.43,1.32-5.34.97l.48-4.86-3.4,1.94c-.27-.28,1.64-4.88.73-5.83-1.5,1.26-2.1,8.34-3.47,8.72-.05.01-.09.02-.13.01-.16-.54-.3-1.08-.38-1.63,0-.07-.02-.14-.02-.2-.03-.27-.1-.49-.29-.69-.11-.12-.26-.19-.41-.23-.2-2.59.28-5.93.57-8.41-.99-1.18-.4-3.49-.4-5.03l.4-.32c-.26-2.26-.97-5.75-.97-7.78l-.49-.97s-.05-.8,0-.97l-2.32-7.64c-.03-.41.38-.59.38-.63,0-.32,0-.65,0-.97h-.97s0-.97,0-.97c-.16-.22-.94-4.61-.97-5.35h-.97s0-.97,0-.97c-.12-.15-.43-3.26-.49-3.89h-.97s0-.97,0-.97c-.44-.55-2.56-11.8-3.05-13.72-1.13-4.41-2.47-10.92-4-14.96-.29-.76-1.88-3.69-2.48-3.87l-2.61.95c-.01-4.24-.83-8.55-1.61-12.73-.64-3.46-1.56-9.08-2.87-12.2-.26-.6-1.03-2.17-1.6-2.29-1.14-.24-.87,1.87-2.18,1.46-1.88-7.92-6.83-16.63-11.7-23.06-.54-.71-.84-1.94-1.91-1.73.03-.03.04-.09.05-.16h0c-.01.07-.03.13-.05.16-.83,1-4.13-.11-5.46.09-1.16.17-4.45,1.44-4.7,2.65-.1.47,2.01,2.96,2.28,4.42.5,2.77.46,8.82-1.34,11.08-.76.96-2.89,1.73-2.95,2-.42,1.81.28,4.62.51,6.49-1.93-.65-2.22,2.62-2.38,4.19-.1.94-.59,6.16-.54,6.51.14.99,1.89,3.05,1.94,3.24.41,1.73-.35,3.2-.48,4.54-.22,2.24-.3,4.56-.49,6.81-.12,1.45-.41,2.73-.49,4.37-.04.97.04,1.95,0,2.92h.97s0,.3,0,.3v2.13s-.98,0-.98,0c-.03,1.61.1,3.26,0,4.86.73.68.74,1.75,0,2.43.03.32-.04.65,0,.97,1.46-.29.83.72,1.1,1.56.61,1.95.93,3.29,1.34,5.25.11.53.39,2.81.49,2.92.04.05.88-.22.98.31.59,3.05-.56,1.75-2.14,2.1-.46.1-.07,1.37-1.03.98-.66-.26-.59-1.3-.73-1.46-.34-.38-2.6-1.27-2.92-.97.44,1.15.33,2.3.48,3.4-1.63,1.34-.78,3.77-.97,5.59-.23,2.17-.56,5.46-1.36,7.39-.41.99-1.33,1.49-1.54,2.84-.57,3.76.42,8.11.47,11.89l1.45-.48v2.43c1.84-.58,1.6.84,2.92.97,0,.3.07.76,0,.97-.09.29-.92.66-.97,1.72-.02.33.93,4.32,1.07,4.51.17.24,1.3.41,1.83.84,1.68,1.36,3.57,4.27,5.85,3.14l.99,4.58c-1.64.27-5.27,10.05-4.88,10.49.76.86,1.04-.61,1.19-.97.76-1.77,1.4-3.93,1.73-5.83.42-.15.88.73.97.97.38,1.02.73,2.77.97,3.89.15.69.56,1.5.5,2.17-.11,1.22-4.14,5.38-5.84,3.66-.46,1.81,1.59,1.81,2.46,3.15,1.1,1.69-1.24,3.09-2.48,3.98l-.02,3.27c3.39.93,1.83,1.73,2.11,3.37.14.81,1.43,2.11.88,3.69l4.83,1.01c.21,1.31-.29,1.78-1.45,2.2-4.96,1.8-10.19.03-15.08-.98l-7.77-3.65c-.3,1.24,1.25,3.06.95,4.08-.24.83-1.52.52-1.96,1.1-.39.51-.75,1.89-.94,2.6-.36.26-6.26-3.28-7.05-3.89-.79-.61-6.35-6.2-6.48-6.65-.94-3.16,2.69-1.42,2.84-1.61l1.83-7.13c.09-1.66-4.67-6.76-1.54-7.43.72-.16,1.2,1.24,2.13.95-1.23-3.12.75-2.58,1.37-3.48,1.08-1.57-1.44-3.8-1.75-5.12-.3-1.28-1.08-6.02-1.08-7.2,0-1.69,1.24-3,1.47-4.61l-6.24-.9c-.07,1.26-3.04,2.87-2.43,3.75.17.24,1.8-.32.34,2.18-.67,1.16-2.32,2.04-2.87,2.96-.48.8-.38,1.76-.69,2.23-.43.64-1.76.26-2.46.94-1.83,1.79-6,12.25-6.44,14.95-.22,1.36.16,6.66.47,8.06.38,1.74,4.23,6.06,4.27,7.38.06,1.74-3.32,3.69-3.8,5.47-.28,1.04.54,2.18.32,3.64-.12.78-1.49,5.38-1.82,5.9-.34.54-.75.21-1,.3-2.19.81-1.99-.02-3.66-.03-3.28-.03-2.82,5.75-5.7,4.81-1.4-.46-.9-1.42-3.03.1-.46.01-.15-.89-.24-.98-.07-.07-1.09.02-1.46,0-1.76-.09-.68-.73-.97-.97-.2-.17-1.74.17-1.94,0-.22-.18.73-1.22-1.24-1-1.12.12-.33,1.2-1.42.99l-3.16-3.4-.51,4.36c-4.77.12-3.36,3.55-3.98,6.47-.09.44-2.61,5.92-2.89,6.1-.35.23-1.59.03-2.37.3-2.59.91-4.74,2-7.15,3.06-2.04.89-5.35,1.01-7.56,1.92l-15.4-3.25c.05.57-.27,1.05.29,1.49.68.53,5.07,2.52,6.18,2.97,2.22.92,8.22,3.15,10.36,3.29.41.03,7.59-1.34,8.08-1.56.84-.37,1.58-1.73,2.26-1.27.08.05-.04.86.35.94,1.06.21,2.8-.88,4.08-.52-1.55,2.13-2.01,1.69-3.85,3.2-1.2.98-2.77,2.37-.05,2.16l-.96,4.37c-.31.07-.96.73-1.8.87-2.85.45-6.03.33-8.9,1.08.23,1.33,2.1.76,2.43.97.57.36.07.85-.61,1.08-1.64.56-2.32-.1-1.33,1.83-1.22.4-2.73-.48-3.67-.45-.81.03-1.54,1.23-2.65.94v.97c.5.14,1.23-.22,1.94.24.32.21,1.96,2.61,1.96,2.92,0,.14-1.69.43-.98,2.19h-4.37c-.32,1.15.31.82.62,1.1.93.84,4.13,2.56,3.53,3.76-.91,1.8-2.98,1.76-4.2.27-.92-1.12.29-2.07-.16-2.7-.25-.36-4.26-3.33-4.98-3.8-.76-.5-1.69-.92-2.59-1.06l1.94-.97c.7-.71-2.27-2.56-2.4-3.22-.12-.63,1.03-1.17.88-1.79-.13-.55-1.17-.96-.87-1.95.26-.87,1.74-1.07,1.45-2.96-.05-.3-4.46-2.02-4.85-3.54-.27-1.07,1.33-2.02.93-2.57-.09-.12-2.05-.51-2.36-1.8-.21-.85.69-2.06.42-3.06h-6.32c-.75,2.7,1.23,5.55.88,7.89-.4,2.63-5.12,4.95-4.29,8.31.05.21,3.22,2.22,3.69,2.28,1.18.15,2.38-.71,3.61-.49.41.4-1.99,4.13-2.39,4.55-.68.71-1.86-.25-1.49,1.27,2.55,1.53,5.16,3.12,7.62,4.78,2.66,1.79.75,2.42-1.53,2.01-2.09-.38-3.84-2.43-6.1-2.41v.49c2.39,1.49,11.4,6.85,12.4,8.74.26.5.29.92.24,1.46l-5.83-.48c1.58.76,3.79,2.33,5.64,2.43,1.16.06,1.75-1.05,2.31-.94.66.13,1.5,1.77,2.27,2.14,1.18.57,3.2.33,4.36.99.89.5.35,1.54-.28,1.69-.53.12-5.5-.95-6.53-1.19-3.85-.91-11.23-3.29-14.28-5.65-.95-.73-.88-1.29-.78-2.38-1.57-.54-7.49-6.37-8.36-7.92-.39-.69-2.17-5.37-1.84-5.69,2.34-.49,3.72,1.45,5.34,2.91.31.04.68-.06.97,0-.21-2.33-2.74-4.25-3.82-6.15-.96-1.68-1.24-4.05-2.75-5.52-1.57-.16.13,1.27-.46,2.41-.32.62-2.69,2.68-3.18,1.96-1.52-3.62,1.12-5.77.97-9.24h-1.95s-.49-4.38-.49-4.38c-.35-.41-2.66,1.13-2.91,1.71-.39.91,2.41,1.21,1.45,2.65-.11.17-3.22.67-2.92,2.44l-1.45-1.46c-.37,2.02-1.97,5.1-3.19,6.78-.49.67-5.43,5.69-5.81,5.86-.8.36-.66-.35-.82-.62-.49-.82-1.58-4.11-2.11-4.23-.85-.19-1.95,1.43-2.89,1.45-.92.02-2.34-1.43-3.65-.97.9-1.42,2.53-2.66,3.93-3.6,1.49-1.01,8.79-3.83,7.2-6.06-.09-.12-2.58-1.36-2.73-1.4-3.67-1.02-2.03.73-2.81,2.32-1.39,2.82-11.8,11.08-14.84,14.33-.89.95-5.1,5.62-5.33,6.34-.56,1.81,2.62-.91,2.42.96-2.72,2.82-6.8,8.55-7.57,12.38-.39,1.93.42,4.38.19,5.99-.26,1.85-3.66,5.4-4.28,7.41-.52,1.68,1.59-.66,1.46.97-.16,2.02-1.55,4.06-1.84,5.94-.51,3.23,1.2,6.49-3.51,6.93.14-2.57,3.05-15.69,1.94-17.01-.07-.08-1.06.05-1.45,0-.55,3.03-1.45,5.99-1.9,9.05-.14.91.12,2.01-.12,2.79-.33,1.08-2.09,1.05-2.29,1.35-.62.9,1.03,2.95-1.52,2.37-.12-.68.18-3.23-.04-3.38-.31-.21-1.34.27-1.44-.27-.4-2.08,2.86-10.16,2.33-10.83-.1-.13-.81-.04-.88-.39-.43-2.08,4.91-9.82,3.91-10.88l-4.11,1.47c-1.5,2.82-6.24,12.83-8.77,14.08-.87.43-.8-.54-.64-1.12.34-1.19,1.42-2.7,1.85-3.98-.47-.21-1.31.41-1.78.65-2.12,1.12-5.89,6.58-6.7,8.85-.48,1.34-.07,5.15-.29,5.3-.32.23-1.33-.29-1.43.26,3.41,2.24,3.37,6.23,6.95,8.61.61.41,2.21.79,2.29.88.57.66.04.93-.73.96-1.14.05-4.38-.18-3.61,1.68.61,1.48,5.91,1.74,5.83,3.43-.04.79-1.29,1.44-.99,2.41.25.8,1.28-.17,1.45,2.22-1.2.88-4.35-1.09-4.38,1.19-.04,3.34,3,1.62,4.38,1.72.24.02.74.45,1.25.47,2.48.09,3.36-.68,5.31-1.92.8.19,2.53,6.27,2.13,7.47-.5,1.53-4.02.43-4.29.84-.14.22.11.95-.12,1.29-.2.29-1.74.52-2.57,1.6-.94,1.22-2.07,3.82-2.7,5.33l-1.94-.97c.34.75.4,2.8.49,2.92.04.05.77-.03,1.18.5,1.55,1.97,3.44,6.65,5.38,8.26,1.88,1.56,4.7,1.68,6.73,2.99,1.27.81,2.12,2.32,3.25,3.07.95.62,2.15.66,2.92,1.45,1.45,1.49,4.75,8.4,6.22,10.8.47.77.95,3.09,1.91.78,1.44-3.45-1.03-7.22-.86-10.83.29-.31,4.72,2.19,4.86,2.43.1.17-.01.95.23,1.45,2.38,4.87,4.24,9.92,5.84,15.08.47,0,.59-1.43.52-1.96-.64-5.04-2.79-8.83-4.76-13.26-.41-.93-.92-1.49.59-1.32,2.73,4.52,5.41,9.08,7.87,13.76.34.65.78,2.67.89,2.77,1.21,1.03.98-1.57.91-2.13-.41-3.36-1.74-5.95-2.86-9.04l3.4.49c-.51-2.44,1.48-1.33,2.45-.26.94,1.05,3.45,5.6,4.11,7.07,1.74,3.85,3,10.88,4.96,13.96.44.69,2.51,2.53,2.58.87.29-6.53-2.07-12.75-4.37-18.72,2.14.78,16.48,2.24,17.01,2.92.89,1.16-1.9,1.39-2.43,1.45-1.9.24-3.91.37-5.83.49l1.94,3.88-2.92.25c1.98.46,3.77,1.79,5.83,1.7.6-.58-3.02-6.94.97-5.34.09.7,7.05,10.53,8.05,11.64,1.21,1.33,2.27,1.67,4.1,1.48,1.4-1.4-5.52-7.75-6.32-9.23.62-.51,3.64,1.49,4.58,1.49.47,0,.24-1.44,1.45-1.49,2.81-.1,8.03,3.97,10.24,5.84,1.42,1.2,3.86,4.4,5.14,5.07,2.81,1.47,8.05,1.81,11.15,3.19.18-1.07.82-1.82.26-2.91-.42-.82-3.64-3.86-4.62-5.12-2.57-3.35-7.25-9.72-8.19-13.68-.28-1.18-.15-1.33,1.07-1.06,5.88,6.65,10.68,14.17,17.57,19.86l1.21-2.43c.75.22,2.26.21,3.4.49,1.18.29,1.82.59,2.91.97.2-.2-.19-1.73-.45-2.11-.26-.38-4.73-2.82-5.73-3.62-.58-.46-1.33-.54-1.11-1.56l7.77,2.91c-.97-2.39,1.65-4.25,1.87-5.69.16-1.03-1.17-5.19-.89-5.49,1.55.21,2.96,1.65,3.62,2.96.29.57.14,1.39.39,1.78.17.27.98.4,1.36.81.95,1.04.74,2.89,2.9,2.71l-1.94-8.75c5.49-.91,6.35,9.99,11.42,9.25,2.1-.31.98-2.56.74-3.9.5-.56,3.86,3.72,4.38,1.2.24-1.16-4.1-6.41-5.35-7.28,2.55-.48,7.59,1.37,9.69,2.94,3.02,2.27,5.49,10.86,10.39,9.37,1.18-.36,1.51-2.5,2.6-2.77,1-.25,6.75,1.48,7.7,2.36,1.12,1.03,2.84,4.15,3.84,4.91.93.71,1.76.26,2.22.45,1.33.54,3.18,2.13,4.86,1.7-.73-3.31-1.82-2.78-4.86-2.67-.63-1.61-4.46-4.15-5.57-5.85-1.29-1.96-4.11-8.06.71-5.81-.54,2.05,4.81,5.22,4.87,5.59.26,1.56-.78,1.09-.9,1.28-.54.84,2.46,3.32,3.56,3.34.81-.47-.21-1.08-.44-1.5-2.46-4.41-3.58-5.31-6.6-8.71-.33-.37-1.07-1.77-1.68-2.43-1.22-1.32-6.67-6.14-7.06-7.06-.28-.64.11-.84.73-.73,1.29.23,1.58,1.59,2.51,1.86.95.27,2.13,0,3.2.2,2.2.42,6.39,4.28,8.14,5.96,1.36,1.3,2.44,2.71,3.64,4.14.49-.06.23-.75.14-1.11-1.89-6.85-9.42-14.26-14.47-19.07-.46-.44-1.87-1.11-1.95-1.45-.48-1.96,2.78-.62,3.57-.17,1.44.81,5.89,3.97,7.08,5.07,1.78,1.64,3.42,5.01,5.12,6.56.27.24.47.53.9.39.4-.75,2.61-.61,2.27-1.61-.39-1.13-2.22-2.98-2.98-4.31-.41-.72-3.09-5.9-2.83-6.16,1.15-1.12,3.43,3.43,3.97,4.05.43.51.47,1.02,1.38.81-.28-3.34.07-2.12,2.56-2.56,2.4-.42,1.08-1.94.26-3.42-.63-1.15-4.96-6.4-4.28-7.14.9-.2,1.16.49,1.7.97,1.31,1.16,4.62,5.47,5.35,5.83.81.4.87-.47.63-1.12-.34-.91-2.18-3-2.3-3.54-.13-.61.59-1.3,1.18-1.17,1.61.36,7.81,11.2,7.56,13.59h2.9c.67-.63-7.62-14.67-8.52-16.49-.84-2.63,1.13-1.65.74-2.69-.15-.39-5.13-4.32-6.09-5.58-.47-.62-1.44-2.4.01-1.96,3.44,1.06,9.25,7.86,11.68,10.69,1.64.17-.08-1.99-.16-2.78-.09-.9.63-1.69.19-2.56l-12.47-9.44c-.75-.51-.28-2.53-.45-2.71-.21-.21-4.64-.66-5.83-.98l-.31.45-.66-.45c-1.63-.3-3.25-.58-4.86-.97-3.05-.74-6.09-2.15-9.23-2.43.01.68,1.38.96,1.96,1.2,1.59.65,3.29.99,4.85,1.72-1.45,1.66-1.99-.39-2.28-.47-6.09-1.58-11.23-3.02-17.16-5.36l5.96,4.5c2.54-.25,2.24,1.69,2.61,1.85,1.48.61,7.51,1.47,8.21,2.4.41.54.27.94-.24,1.24-2.3,1.38-12.39-2.25-15.21-3.29-1.17-.43-8.79-3.41-9.06-3.82-.19-.29,0-.97-.05-1.4l2.43.48-.48-.73c-3.43-1.4-6.94-3.01-10.07-5-.65-.42-1.31-.57-1.12-1.55.84-.08,1.63.02,2.46.21,2.25.53,7.95,2.69,10.18,3.67.48.21.65,1.21,2.43,1.46.37.05.95-.01.97-.49-.26-.1-1.56-1.01-2.92-1.46.04-.02.03-.3.22-.31,1.5-.12,7.29,2.05,7.56,1.77.36-1.72-.54-1.65-1.94-1.95l2.43-.97-1.94-2.42c.91.29,5.61.3,5.83.48l.97.49c.9-.2,3.05-.56,3.89-.49.05,0,.04.42.97.49,2.7.2,3.71.33,6.32.97,1.22.3,4.71,1.08,5.52,1.54.68.38.7,1.28,1.13,1.39,2.41.58,2.99-1.18,1.27-1.86-2.32-.91-5.53-1.26-7.92-2.05-4.34-1.43-8.42-3.65-12.64-5.35v-.49c1.49-.35,3.05.55,4.37.49.08.49.56.47.97.49.46.02,1.01.05,1.46,0,.46.62.99.62,1.46,0,.48.05.98-.04,1.46,0-.28,1.33.65.92,1.45,1.2,6.44,2.27,19.9,4.75,26.43,3.18.39-.09.26-.97.6-1.01.94-.11,3.45,1.63,3.11-.45-3.31-.11-6.65-.28-9.96-.49-5.32-.33-11.89-.1-16.95-.96-.56-.09-.23-.9-.31-.99.95.42,1.97.34,2.92.49,2.22.34,4.56.92,6.81.24,0-.69-6.03-1.09-6.81-1.22-.98-.16-1.92-.33-2.92-.49-1.11-.17-2.19-.7-3.41-.49-.51-2.96,2.05-.7,3.41-.48,3.8.6,9.26-.27,13.37,0,3.92.26,8.27,1.3,12.18,1.92,1.28.09,1.49-1.76,2.14-2.17,1.14-.71,7.17.92,8.86,1.36,2.85.75,5.62,1.72,8.36,2.8l1.25-1.47c-2.72-1.23-6.84-1.31-9.39-2.53-.97-.46-.9-.89-.82-1.85,2.47-.19,4.86.14,7.29.49-.37-2.45.41-2.12,2.68-1.95,4.3.34,8.65,2.41,12.88,3.4v-.97c-2.07-.38-7.18-1.94-8.92-2.99-.5-.3-1.42-.96-1.28-1.63.34-1.69,6.77.41,7.91.83,1.17.43,5.01,2.15,5.89,2.76.55.38.3.97.3,1.5,0,.32,0,.65,0,.97.41.05,2.34.4,2.43.49l.97.49c.85,0,1.91.74,2.91.48.58-.55-2.07-3.55-2.65-3.91-.98-.61-2.02-.4-3.05-.84-1.97-.83-3.5-2.33-5.48-3.03-.03-.83-.26-1.05.7-.94,1.15.13,6.61,1.91,7.08,1.44-.05-.43.14-1.12-.05-1.4-.16-.25-4.56-2.37-5.31-2.72-4.7-2.14-9.78-3.44-14.56-5.36-2.5-1-6.03-2.24-7.78-4.12,4.97,1.11,10.09,2.26,14.96,3.75,5.37,1.65,10.84,4.38,16.04,5.83,4.77,1.33,10.32,1.79,15.18,3.05.24-1.24-.24-.85-.95-1.21-1.84-.94-3.94-1.39-5.62-2.67l-.22-.25c.74-.81,1.96-1.96,1-2.94-4.91-3.67-10.14-6.98-14.79-10.99-2.55-2.19.68-2.01,1.49-2.52.17-.11.11-.8.43-.84.7-.1,3.18.92,4.07,1.25,1.77.65,3.7,2.77,2.44-.73h6.32c.95-.87-2.46-1.92-2.91-1.95l1.94-.97c-2.29-1.58-1.59-2.35-1.94-4.85,1.6-.34,2.85.55,4.24.86.49.11,1.71.48,1.59-.38-2.21-.67-4.7-3.1-7.05-2.97-2.12.12-3.63,3.38-5.78,2.99-.34-.06-.29-.78-.62-1-.98-.64-4.85-1.96-6.23-2.44-3.54-1.23-7.27-2.18-10.95-2.91-.03-.87-.24-1.03.73-.98,4.19.23,9.38,2.64,13.62,2.47,1.8-.07,3.64-.89,5.58-.52,0-2.08-2.22-1.65-3.4-1.94-4.52-1.11-9.04-1.82-13.61-2.67,0-1.1,11.08.72,12.21.94.65.13,1.19.71,1.41.76,2.56.57,4.97.58,7.78,1.7,1.04.41,2.09,1.69,3.16,1.68.79,0,4.27-1.7,5.67-2.08,3.61-.99,7.4-1.28,11.1-1.79l-.73-.98c-3.87.72-8.41-.03-12.38-.49-1.24-2.69,6.63-6.97,6.8-7.52.5-1.59-.66-1.04-1.42-1.48-2.26-1.31.58-2.55-.05-3.14l-9.72.97c-.24-1.37.3-.81,1.07-1.09.39-.14,3.92-.94,2.82-1.83-.23-.19-5.04-.46-5.96-.61-2.45-.39-1.22-1.72.49-2.19,3.3-.92,7.88-1,11.31-1.09.23-1.39-.28-.81-1.13-1.03-2.4-.61-4.65-.91-7.03-1.77-.78-.28-1.31.27-1.07-1.09h9.96s15.56,1.99,15.56,1.99c2.5-.22,3.97-3.24.89-3.81ZM413.96,172.55c.14-.63.17-1.52.29-2.26.02-.15-.01-.33,0-.49h.49s0-.49,0-.49c.04-.04-.03-.34,0-.49.89.08.84-1.29,1.35-1.44.95-.29.75.72.83,1.2.02.14,0,.33,0,.49-.56,1.08-1.32,2.15-1.46,3.4-.05.44,0,.99,0,1.46-1.01.99-1.41,3.58-3.15,2.66-.23-.33,1.49-3.35,1.64-4.05ZM409.15,185.84s-.02-.16,0-.24c.56-.02.88-.48,1.21-.86,2.6-2.93,5.37-7.53,6.32-11.29.02-.08-.02-.17,0-.24.66.14.47-.33.6-.73.4-1.22.87-2.41,1.23-3.64l.85.24c-.04.39.05.83,0,1.21-.12.95-.46,2.11-.49,3.16,0,.24,0,.49,0,.73-.87.83-.72,2.6-1.09,3.4-.52,1.11-1.45,2.1-2.06,3.65-.07.17-.18.32-.24.49h-.49s0,.49,0,.49c-.03.02.03.16,0,.24-.56-.05-.62.38-.88.7-1.1,1.37-2.42,3.39-4.34,3.44-.79.02-.63-.02-.61-.74ZM407.59,195.82c.28-.31.25-.61.34-.74.23-.34.5-.64.73-.97.51-.01.79-.39,1.1-.73.75-.83,1.9-2.19,2.3-3.16.03-.07-.03-.18,0-.24.86-.21,1.49-1.63,1.88-2.38,1.14-2.17,2.41-4.85,3.34-7.1.54-1.3.43-3.55,2.31-2.67.04.12-.03.33,0,.49-.32,1.28-.94,3.16-.68,4.44.57,2.76.54,4.97-.11,7.77-.17.72-1.53,5.13-1.77,5.51-.35.54-.99.44-1.34.84-.51.58-2.32,4.55-2.66,5.48-.05.12.04.36,0,.49-.81-.1-.57,1.03-1.21,1.34-.46.22-1.07,0-1.47.23-.35.2-.79,1.62-.96,2.07-.03.07.03.17,0,.24-1.35.22-.27-.72-.52-1.53-.12-.38-.77-.61-.68-.99.06-.29.97-.9,1.22-1.24.18-.25.15-.44.23-.61.08-.16.18-.32.24-.49h.49s0-.49,0-.49c.03-.02-.03-.16,0-.24.52.02.66-.31.93-.65,2.33-2.95,3.87-7.15,5.14-10.65-.02-.24-.32-.16-.49,0-.67.57-2.75,3.63-3.15,4.5-.03.06.03.17,0,.24h-.72c-.03-.42.09-1.01-.4-1.19-1.04-.38-.75.34-.83.46-.1.15-.34.37-.49.49-1.12.87-2.1,2.24-2.67,3.64-.03.07.03.17,0,.24-.82-.09-2.5,2.77-3.16,2.19-.04-.75.95-1.03,1.17-1.62.15-.41.23-.95-.44-.81.36-.89.7-1.13,1.46-1.7.16-.12.51-.07.87-.47ZM400.68,112.96c1.1,2.25,2.69,7.55,3.27,10.1,1.4,6.16,1.4,12.57,2.55,18.78-.85,1.37-1.75.65-2.29-.57-1.31-2.97-2.68-9.75-3.52-13.25-1.38-5.71-3.1-11.58-2.91-17.5.53-.57,2.67,1.93,2.91,2.43ZM396.76,218.4c2.57.47,4.26.38,6.57-.84.86-.45,2.41-1.32,2.66-2.32.15-.09.33-.16.49-.24,2.09-1.15,5.65-5.29,6.56-7.53.09-.22.13-.47.24-.73.52.12.53-.28.73-.6.71-1.15,2.41-4.48,2.43-5.72,0-.16,0-.32,0-.49.37-.03.37-.7,0-.73.01-.16-.02-.33,0-.49l1.34-2.18c.67-2.64,2.42-5.21,2.78-7.92.09-.7-.33-3.71.62-3.5,1.22.67.63,1.62.9,2.5.09.29.48.5.63.83.33.76.61,1.56.76,2.38l-2.12,6.13c.19.88.43,1.3.44,2.25,0,.65-.07,1.09-.24,1.7h-.49s0,.49,0,.49c-.04.03.02.34,0,.49h-.49s0,.49,0,.49c-.16.18-1.74,3.82-1.94,4.37l-.47.02-.02.46c-.19.1-1.77,3.42-1.94,3.89l-.47.02-.02.47c-.2.13-.79,1.59-1.04,1.88-.19.21-.72.33-.9.55-1.7.03-2.27,1.08-3.57,1.9-2.95,1.86-3.82,1.57-6.94,2.3-1.02.24-1.84.8-2.98.91-1.13.11-2.38-.07-3.52,0v-.73ZM378.8,182.47l.51-8.93c-2.56-1.45-5.25-2.67-4.88-6.14h2.43c.35-.32-1.53-7.28.23-9.25.82-.92,2.83.38,2.67-2.62-.09-1.72-2.16-3,.48-3.96,1.98-.73,1.49.59,2.35,2.08.24.42-.18.82.77.57.83-.22,5.02-3.6,5.17-4.32.26-1.2.05-4.16,0-5.59-.02-.77-.62-1.73-.45-2.36.14-.52,1.03-1.08,1.41-.8.13.1.89,2.75.94,3.19.41,3.19.39,6.54.03,9.68-.08.71.14,3,0,3.17-.1.11-.79-.12-.97,0-.05.03-.32.67-.49.97-.07.13.17.62-.09.86-.38.35-2.17.48-2.83.59-.06.23-.02.68,0,.97,1.37-.28,1.4,1.98,2.43,2.91h-2.43c-.04.31.02.66,0,.97.48.03.97-.02,1.46,0,.32.02.65-.02.97,0,.23,1.41-.46,2.4-1.07,3.57-.36.7-.17,1.55-1.36,1.29-.11.59.15,1.35-.09,2.08-.5,1.54-2.31,1.17-1.89,4.5.18,1.42,3.4.93,2.23,3.14-.1.19-2.49,3.07-2.68,3.16-1.22.63-3.47.05-4.87.24ZM180,338.99c-.79-.77,4.43-6.81,5.6-4.87,1.91,3.15-3.16,5.16-5.6,4.87ZM196.77,292.8l-.23-.23.73-.73.23.23-.73.73ZM210.14,395.37h-1.46s0-.97,0-.97c.61-.32,1.69.78,1.46.97ZM291.8,354.05c-.32.29-7.35-2.83-8.12-3.3-.42-.26-2.23-1.47-1.6-2.04.42-.38,7.54,3.71,8.76,4.14.57-.09,1.53.69.96,1.2ZM292.29,354.54v-.48s2.91.49,2.91.49v.48s-2.91-.49-2.91-.49ZM347.58,373.43c-.78.13-1.55.38-2.21.47-.43.06-.89.05-1.35.04-.61.08-1.13.1-1.55-.03-.12,0-.24,0-.36,0,0-.05,0-.11,0-.16-.67-.39-1.07-1.3-1.22-3.17.44-.41,5.14.67,6.07.97,1,.33,1.37.71,1.28,1.06.3.33.24.67-.66.82ZM349.15,365.9c.05.98-.93.62-1.52.78-2.44.65-5.98,2.1-8.34,2.37-.55.06-1.92-.36-2.04-.84-.1-.41.34-.48.6-.62,1.37-.73,2.84-1.31,4.15-2.17.99.14,6.92.16,7.16.48ZM338.46,359.4c.89.12.98.34,1.46.49.87.27,2.13-.15,1.94,1.46-1.08.41-1.87-.35-2.43-.48-1.92-.47-1.81.04-2.43-1.46.48.04.99-.06,1.46,0ZM320.73,373.54c1.75.22,3.27.63,4.74,1.59.31.2.72.18.6.74-.43.06-.8-.02-1.22-.12-1.2-.29-3.13-.87-4.28-1.31-1.26-.47-1.03-1.05.16-.9ZM300.87,380.04c.68.14,3.22,2.15,3.82,2.74.26.25.56.43.48.85-.44.09-.76-.08-1.14-.19-.67-.2-3.53-1.3-3.96-1.63-.52-.4-.72-1.18-.73-1.82.51,0,1.02-.05,1.53.05ZM366.17,281.63c2.63-.66,2,1.39,2.75,1.98.66.51,5.55,1.4,4.05,2.88-.37.36-4.19-.71-4.86-1.22-1.18-.88-.89-2.5-1.95-3.64ZM381.43,333.12c.56.45.25.92.3,1.49-4.13-.53-8.81-1.7-11.66-4.86,2.47.16,9.62,1.98,11.37,3.37ZM378.95,273.96c-1.61-.64-5.78-2.59-7.13-3.47-.49-.32-.29-.55-.3-1.01-2.5-.68-5.55-1.12-7.92-2.05-.49-.19-3.72-1.87-3.76-2.08-.27-1.72,1.68-1.9,3.05-1.62,1.86.39,6.58,3.69,8.62,4.78,2.71,1.45,5.04,2.31,7.78,4.13.57.38,1.55.52,1.46,1.46-.32.66-1.33.05-1.81-.14ZM402.14,326.83c-1.47-.57-6.09-.77-7-1.41-.47-.33-.15-1.06-.39-1.37-.37-.5-4.27-1.73-5.24-2.83-.5-.56-.36-1.42-.8-1.72-1.01-.71-5.14-1.93-6.62-2.51-.52-.2-1.45-.15-1.33-.84,2.61-.63,18.48,5.16,19.19,6.32.31.51.22,1.32.52,1.91.45.88,1.85,1.22,1.67,2.45ZM404.32,307.41c.72.05,1.35.22.74.95-.12.15-3.17.87-3.69.93-2.08.23-12.5-.41-13.69-1.53-.94-.89-1.22-3.07-.59-4.26,5.58,1.05,11.58,3.51,17.24,3.91ZM413.81,286.01h.97v.48h-.97v-.48Z"/>
    <path class="a3" d="M251.21,250.52c.79-1.5,1.47-3.14,2.07-4.74,1.55-4.13,4.14-14.24,6.91-16.9,1.25-1.19,6.41-4.94,7.91-4.53.49.13.9.84,1.59.91.72.07,1.5-.48,2.37-.47.7.01,5.51,1.07,5.92,1.39.47.36,1.96,3.12,2.4,3.91,1.21,2.15,2.1,4.97,3.25,6.95,1.09,1.87,2.29-.36,2.32-1.35.02-.69-.71-1.35-.86-2.06-.66-3.18-.14-7.41-2.02-10.02-.38-.52-3.63-1.18-4.42-2.01-.71-.74-.29-1.82-.54-2.13-.18-.21-3.44-.64-3.79-1.83-.67-2.23,4.52-3.3,5.08-4.08,1.36-1.87.31-5.61-1.71-6.57-.27-.13-4.14-.83-4.31-.69-.11.09-.26.97-.77,1.43-1.16,1.06-3.1,1.85-4.39,2.91-9.68,8.02-19.13,20.23-19.59,33.18l2.57,6.66Z"/>
    <path class="a3" d="M434.23,145.29c-.09-1.49-3.53-3.14-3.9-4.87l3.4.24c.84-.84-1.82-3.87-2.44-4.61-1.07-1.28-4.57-3.49-1.94-4.38-2.24-1.91-3.12-4.74.74-2.19.36-1.51,1.1-.71,2.18-1.22-3.57-4.61-10.03-1.51-15.07-2.19,1.46,1.66,2.77,3.46,3.43,5.58-2.71,1.41-.15.91-.03.97,1.76.93-.71,1.84-.48,2.43.22.57,1.59,1.16,1.85,2.04.37,1.27.2,2.99.71,4.63,1.45,4.69,5.37,10.06,8.63,13.73.44.49,1.51,1.85,2.17,1.71,1.31-1.33.46-3.36,1.14-5.17.3-.79,1.01-.66,1.07-.97.34-1.88-1.69-2.85-1.84-3.9-.09-.56.42-1.24.38-1.87Z"/>
    <path class="a3" d="M359.11,172.26c-.43-.1-1.13.42-1.21.74-.14.52,2.15,5,1.99,6.73-.05.48-1.35.49-1.5,1.05-.21.82,1.4,1.88,1.36,2.81-.06,1.42-2.21,3.43-2.6,5.21-.21.93.18.98.27,1.45.22,1.18.54,4.25,1.94,3.89.3,1.29.12,2.93.97,4.37-2.03.08-2.55-.68-4.37-.97-.34.35-.09,9.03,1.94,9.24-.28-1.88.29-1.53,1.95-1.46l-.97-4.86c.64-.69,2.64,2.31,3.4,2.43l-.97-4.37c.59-.15,1.43-1.27,2.43-.98l-.97-5.34c.45-.51,3.42,2.89,2.89.75-.3-1.22-1.48-3.15-1.41-4.43.04-.74.92-1.17.87-1.84-.08-1.05-3.03-6.79-3.69-8.47-.43-1.07-1.61-5.79-2.31-5.96Z"/>
    <path class="a3" d="M329.71,127.33c-.07.18-.13.35-.17.51-.18.71-.32,1.58-.51,2.31.07,1.51,1.89,1.46,2.66.21,1.06-1.73,1.44-4.9-1.42-4.46-.02.08-.06.18-.09.27,0,0,0-.02,0-.02-.12.57-.26,1.15-.71,1.4h0c.1-.05.17-.13.24-.21Z"/>
    <path class="a3" d="M318.53,136.29c.02-.06.07-.21.12-.39,0,0,0-.02-.02-.03-1.01,2.7-3.57,6.19-6.65,6.34-.04,0-.09,0-.13,0-.68.01-1.38-.13-2.1-.49-.18-.09-.33-.2-.48-.32-.6-.5-.87-1.15-1.03-1.44-.04-.07-.08-.13-.11-.15-.06-.04-.1-.06-.15-.09-.69-.39-.48.25-1.5-1.17-.03-.04-.05-.06-.08-.09-.26-.32-.47-.42-.65-.64-.87-.58-2.51.16-2.67,1.1-.01.08-.02.17-.02.25-.1.44-.02.91-.09,1.02-.06.09-.6-.16-1.22-.32,0,0,.02.01.03.02-.9-.59-1.98-.57-2.31.56-.33,1.13,1.22,2.67,1.53,3.71.1.33.22.59.14.95-.93.25-.99-.92-1.42-1.62-.26-.43-.62-.78-.84-1.17-.07-.12-.13-.24-.17-.36-.31-.3-2.17,1.87-2.56,2.18-2.01,1.65-5,3.07-7.65,2.92v1.12c-.06.03-.13.07-.2.1-.87-.01-1.65-.21-2.23.6-.14.2-.22.34-.28.46-.11.15-.22.32-.32.5-.12.09-.29.21-.61.39-.09.05-.16.19-.24.24.09.63-.47,1.34-1.06,1.46-.04,0-.07,0-.11,0-.05,0-.1.01-.16,0-.7-.09-.6-.77-1.81.13-1.68,1.24-2.52,2.48-4.75,3.27-2.63.93-4.74.83-7.42.23,0,.14-.03.44,0,.49.01.02.1.01.19,0,.09.59-.05.9-.33,1.07-.43-.06-.85-.1-1.32-.1-.08,0-.16,0-.24,0,.16.5-.37.43-.47.66-.02.05-.04.12-.07.17-.27.69-.45,1.69-.92,2.37-.23.34-.53.6-.96.68-.34.49-.5.63-.97.97.07.78-.84.84-1.09,1.22-.09.14-.13.25-.16.35-.11.38.09.54-.41.91-.08.06-.17.12-.28.19-.38.23-.65.51-.97.73.07.65-.81.92-.95,1.39-.08.28.2.59.32.74,0,0,.02,0,.03,0,.16-.03.33.03.49,0,2.23-.51,3.04-2.39,5.11-2.47,1.86-.07,3.3,1.33,5.1,1.5l-.49,1.94c6.53-.36,9.86-5.11,14.92-8.17,1.84-1.11,3.95-1.87,5.83-2.92,2.27-1.27,5.7-3.91,7.9-4.74,2.33-.88,1.13.66,1.5,1.24.61.97,10.3-3.97,11.51-4.76,1.79-1.16,3.55-2.62,3.07-4.96.92-.1.07,1.44,1.21.97.82-.34,1.75-5.09,1.98-6.29.14-.75.65-1.99-.27-2.46Z"/>
    <path class="a3" d="M353.6,414c.25.82,5.2,5.64,6.23,6.42.46.35,1.49,1.18,1.96.71.69-.68-5.57-7.75-5.91-9.15-1.58-.47-2.8.26-2.28,2.01Z"/>
    <path class="a3" d="M183.41,391.48c.85,4.41,2.19,9,4.24,13.01.29.56.22,1.45,1.09,1.58-.61-4.38-2.25-9.12-4.13-13.12-.27-.57-.47-1.34-1.21-1.46Z"/>
    <path class="a3" d="M241.52,232.51c.24.72-.12,3.52.94,2.94,1.38-.75,1.7-6.26,2.19-7.77.12-.36,1.05-.75,1.38-1.28,2.25-3.57,5.71-8.77,6.39-12.81.07-.39-.04-.88.49-.97-.07-.29.09-.75,0-.97,1.15-.24,4.2-3.05,4.61-3.89,1.49-3.02-1.36-1.76-2.83-.89-.72.42-1.53,1.77-2.21,1.3-.1-.07-.01-.87-.3-.92-1.6-.25-2.16,1.77-2.98,1.93-.56.11-1.4-1.21-2.79-.97-.26.05-2.87,3.78-3.11,4.28-1.9,3.79-4.19,14.33-2.89,18.23.23.71.91,1.19,1.11,1.81Z"/>
    <path class="a3" d="M184.16,300.15l4.1-6.37c-.56-.54-2.29,1.55-2.63,1.98-.55.68-3.1,4.88-2.71,5.3l1.24-.92Z"/>
    <path class="a3" d="M158.61,343.85c.08.27.04,1.11,0,1.46,1.45-.18,1.2-.12,1.69.96.39.87,1.51,4.71,1.72,4.87.95.72,2.99-3.6,2.88-4.08-.16-.7-5.19-2.94-6.29-3.21Z"/>
    <path class="a3" d="M468.01,216.02c1.07-.18,3.01-2.83,3.16-3.89.16-1.18.6-5.87.49-6.81h0c-1.78,1.97-4.26,7.41-4.39,9.96-.04.73-.06.88.75.74Z"/>
    <path class="a3" d="M472.67,227.48c-.18,1.56-.89,8.21,1.51,4.42,2.56-4.04,3.91-14.32,4.76-19.3-1.02-.98-.29-3.01-.49-4.37h0c-.62.02-2.03-.17-2.37.06-.34.24-.46,1.83-.55,2.37,0,0,0,0,0,0-.93,5.39-2.26,11.48-2.86,16.82Z"/>
    <path class="a3" d="M368.11,419.19c.07-.07.82-.09,1.25-.45.62-.53.59-1.38.7-1.49h0c-2.53-1.37-6.05-9.56-7.78-10.48-.71-.38-4.28.7-4.65,1.21-1.07,1.48,1.74,4.43,2.47,5.85.53,1.03,2.44,6.08,2.72,6.27,1.07.74,2.79-.44,2.38-1.89l2.91.97"/>
    <path class="a3" d="M474.03,243.47c-.03.99.58,1.92.45,2.82-.18,1.3-4.04,5.92-3.32,6.67.55.56,1.42-.29,1.87-.8,2.35-2.7,6.82-7.64,7.85-10.86.77-2.39-.21-1.91-.49-2.92h0c-2.18-.59-6.31,3.33-6.37,5.1Z"/>
    <path class="a3" d="M451.31,159.7s0,.01,0,.02c0,0,0-.01,0-.02Z"/>
  </g>
  <g>
    <path class="cls-2" d="M3.04,11.7v-1.36h4.13v1.36H3.04Z"/>
    <path class="cls-2" d="M12.35,15.76c-.77,0-1.44-.23-1.99-.7-.56-.46-.99-1.14-1.29-2.03-.3-.89-.45-1.98-.45-3.27s.15-2.37.45-3.25c.3-.87.73-1.54,1.29-1.98.56-.45,1.22-.67,1.99-.67s1.42.22,1.97.67c.55.45.98,1.11,1.28,1.98.3.88.45,1.96.45,3.25s-.15,2.38-.45,3.27c-.3.89-.73,1.57-1.28,2.03-.55.46-1.21.7-1.97.7ZM12.35,14.29c.39,0,.73-.15,1.03-.45.3-.3.54-.78.7-1.44.17-.66.25-1.54.25-2.64s-.08-1.97-.25-2.62c-.17-.65-.4-1.11-.7-1.4-.3-.29-.65-.43-1.03-.43s-.73.14-1.03.43c-.3.29-.54.75-.71,1.4-.17.65-.26,1.52-.26,2.62s.09,1.98.26,2.64.41,1.14.71,1.44c.3.3.65.45,1.03.45Z"/>
    <path class="cls-2" d="M19.8,15.54c.05-1.03.14-1.99.27-2.86.13-.87.32-1.7.56-2.48s.56-1.54.94-2.28c.38-.74.84-1.5,1.38-2.26h-5.39v-1.57h7.39v1.14c-.66.84-1.19,1.65-1.6,2.41-.41.76-.73,1.54-.97,2.34-.23.79-.41,1.64-.52,2.54s-.18,1.91-.23,3.03h-1.84Z"/>
  </g>
</svg>