<?xml version="1.0" encoding="UTF-8"?>
<svg id="a3" xmlns="http://www.w3.org/2000/svg" viewBox="0 0 600 500">
  <defs>
    <style>
      .cls-1 {
        fill: none;
      }

      .a3 {
        fill: #a48b66;
      }

      .cls-3 {
        fill: #c9caca;
      }
    </style>
  </defs>
  <g>
    <polygon class="cls-1" points="208.78 229.26 208.72 229.26 208.69 229.41 208.72 229.26 208.78 229.26"/>
    <path class="cls-1" d="M246.27,78.68c-.06-.03-.12-.06-.16-.08,0,0,0,0,0,0,.05.02.1.05.16.08h0Z"/>
    <path class="a3" d="M212.41,174.44c-.03.49.16,1.1.67,1.83.17.25.92,1.21,1.51,1.94-.59-.73-1.34-1.69-1.51-1.94-.5-.73-.7-1.34-.67-1.83Z"/>
    <polygon class="a3" points="208.69 229.41 208.39 230.82 208.72 229.26 208.69 229.41"/>
    <polygon class="a3" points="208.8 229.26 208.72 229.26 208.78 229.26 208.8 229.26"/>
    <path class="a3" d="M203.19,249.22c.16-1.4-.14-2.82.11-4.23.21-1.2,1.87-3.3,2.94-5.05-1.06,1.75-2.73,3.85-2.94,5.05-.24,1.41.05,2.83-.11,4.23-.36,3.15-1.64,6.82-4.21,8.79,2.57-1.97,3.86-5.64,4.21-8.79Z"/>
    <path class="a3" d="M206.95,236.63c-.1.06-.22-.03-.15.21-.07-.24.05-.16.15-.21Z"/>
    <path class="a3" d="M208.01,231.18l.38-.36-.15.14-.23.22c.05.12-.15,1.26-.38,2.45.23-1.2.44-2.33.38-2.45Z"/>
    <path class="a3" d="M203.44,363.6c.3-.09,1.14-.19,1.2.26.14.99.44,1.97.5,2.85.26,3.53-.73,8.42-1,12.04-.09,1.18.1,2.44.02,3.63.74.83,2.74-2.99,2.98-3.52l2.79-8.04v13s2.41-.48,2.41-.48c.24.52.79.89.9,1.27.51,1.78-.75,4.5.79,5.95,1.16.23.71-.94.72-1.68.03-1.67.38-2.95.45-4.54l-2.85-1.48c-.66-1.43-1.28-1.47-.96-3.61.12-.85.74-1.36.89-2,.65-2.85-1.16-7.15-1.39-10.06-.07-.9.62-1.66.51-2.85-.31-3.26-3.55-7.62-2.89-11.33l2.41,1.44c.22-.27-.81-6-1.05-6.9-.22-.83-2.03-3.97-1.36-4.66.05-.05,1.32-.22,1.44.32.2.89.59,1.17,1.22.17.38-.61.33-3.25.25-4.13-.42-4.48-2.89-9.91-3.38-14.44-.14-1.32.07-2.75-.01-4.08h1.44c.1,1.1.28,2.91,1.45,3.37-.52-1.66,1.07-3.13,1.37-4.16.58-1.96-.7-4.7-.88-6.68-.17-1.89-.24-5.21.94-6.75,1.27-1.67,2.27.53,3.01,1.84.5.89.25,2.46,1.82,2.27.03-4.62,1.04-10.11,3.44-14.14.36-.6,1.18-1.08,1.32-1.56.43-1.41-.94-3.8-.43-5.48,2.43-.45,2.24,2.48,3.85,3.37l-1.06-5.92c-.14-.65-.69-1.18-.86-1.79-.22-.78-.41-2.05-.48-2.89-.03-.32.02-.64,0-.96.54-.16.86-.57,1.67-.51,1.61.13,1.43.97,1.82,1.35.18.17.61.09.71.22,1.01,1.33,1.16,2.68,1.57,4.23.21.78.5,1.58.48,2.41h.48c.08-.78-.11-1.66,0-2.41,0-.04.43-.12.49-.69.09-.81.13-2.61-.08-3.33-.07-.22-1.42-2.61-1.59-2.75-.64-.51-1.4-.34-1.64-.55-.34-.29.59-.49-1.03-.87.3-.89-.45-1.89-.4-2.57.09-1.06,1.4-2.52.83-3.9l-.44-.28c.22-1.18-.63-1.81.97-2.17.02-.91-1.2-1.68-.97-3.13,1.53-.28,2.22.37,3.13,1.44h.47c.29-.07,1.97-3.1,2.17-3.61.23-.59-.12-.94-.72-.72-1.01.38-2.21,1.9-3.37,1.92l-.24-2.41,3.48-6.18c1.25,0,.69-.73.85-1.05.04-.09.64-.89.96-1.44.57-1,1.7-2.46,2.31-3.71.18-.37.73-1.93.58-2.07-2.38-.38-3.62,2.19-5.31,3.59-.87.72-2.19,1.87-3.35,1.71-.34-.34,1.11-3.06,1.42-3.56.26-.42.7-.22.87-.39.07-.07,1.02-1.47,1.08-1.59.54-1.05-1.27-.51-1.71-1.17-.38-.57-.04-1.42-.42-1.99-.56-.81-1.9.28-.75-1.89.14-.26.45-.91.48-.96.64-.93,1.72-1.73,2.64-2.42.65-.49,2.24-.71.7-1.66-1.56-.97-.65-.42-.94-2.17,2.42-.03.06-1.29,0-1.44-.12-.3.11-1.08-.05-1.63-.33-1.13-1.92-.73-2.84-.78-.56-1.06-1.69-1.45-1.46-2.87l-1.91-.02c-.51-1.74-.73-2.51,0-4.33.77.09,2.72-1.05,2.87-1.73.15-.68-1.55-2.14-.46-3.57.4-.16,1.42-.49,1.46-.74.21-1.46-.3-1.95-1.46-2.63-.14-1.03.29-2.61.96-3.37.59-.67,2.4-1.26,3.37-1.93,2.53-1.73,1.66-2.58,2.41-5.3.33-.1.64-.39.96-.48.25-.07.66.05.96,0,.37-.95-.42-1.3-.48-1.44-.08-.18.07-.59-.22-.97-.31-.4-1.02-.6-1.49-.95-.4-.3-.64-.95-.7-.97l.07-.91.9-.05v-.96s-1.93-.48-1.93-.48c.04-.03.02-.7,0-.96l1.34-2.75c-.01-1.47.01-2.56,1.78-2.55.68,0,2.18,1.22,2.63-.27.84-2.82-3.75-9.05-4.88-11.91-.39-.98-2.32-8.59-2.31-9.24.1-4.85-1.73-6.74-3.29-11.16-.43-1.23-.57-3.08-1.15-4.63-1.31-3.54-5.06-10.56-5.58-13.68-.36-2.13.22-3.72-.81-5.94-.85-1.83-2.68-2.8-3.84-4.35-1.25-1.66-2.36-4.17-2.19-6.24.46-.07.6-.03.97.24.72.53,2.24,4.53,2.96,5.71.25.41,1.74,2.94,2.33,2.24.45-3.36-.48-5.37-2.32-8.02-.15-.22-.02-.57-.08-.64-.1-1.98.15-4.04,0-6.01-.34-4.33-1.13-9.24-1.9-13.5l-.49-6.97c1.01.41,1.37,1.76,2.64,1.44,1.14-.31.65-3.49.73-4.56.28-3.45.05-3.48-.49-6.76-.28-1.71.27-.95,1.11-1.27,2.41-.91-.4-3.01-.57-3.6-.2-.68.07-2.45-.06-2.59h0c-.1-.1-2.47-.97-2.65-.98-2.94-.23-2.08,3.8-2.16,5.8-.73-.32-1.45-.62-2.17-.97-.5-.08-.11.84-.24.97-.15.14-1.43-.54-.9,1.13.07.23.41.29.42.32.26,1.56-.03,4.04,0,5.78.01.71-.08,1.42.05,2.12l.43.28c-.2,1.16-.26,2.59-.48,3.85-.05.27-.93,1.41-.48,2.41v3.37c-.46.95.46,2.22.48,2.41.08.61-.11,1.35,0,1.93.18,1,.47.91.48.96.1.39-.07,1,0,1.44-.55-.19-.39-1.49-1.92-.96-.21,2.67.89,5.25.49,7.96-.12.85-1.28,1.99-1.45,3.37-.17,1.39.6,3.21.43,3.77-.18.62-1.41,1.34-1.32,2.39.58,6.87,4.75,12.06,9,17.01.6,3.48.9,7.04,1.53,10.51.81,4.48,2.28,6.62,1.43,11.33-.05.29.04.65,0,.96-.04,0-.12.52-.69.5-1.34-.05-3.29-1.61-5.08-.98-.61,2.55,1.97,4.17,3.85,5.3v.48c.06.01.13.34.33.4l.63.08c.02.05.73.08.48.96-4.93.57-1.05,1.8-.23,3.36.41.78.08,1.45.23,1.94.73,2.46,1.46,4.63,1.93,7.22.05.29-.04.65,0,.96h.48c-.1.26,1.11,3.91,1.42,4.12,1.41.98,2.61-.52,3.88-.75-.11,1.39-.59,2.05-1,3.33l-3.81.52,2.41,1.92c-1.13-.29-2.15.57-3.14.51-.66-.04-.67-.5-.71-.51-.13-1.21.2-2.72,0-3.85-.1-.6-.79-1.78-1.44-1.93-.19.13-1.12-.19-1.39.04-.36.3-2.05,7.33-2.46,8.63-.23.72-.44,2.28-.54,2.37-.15.13-.64-.12-.92.33-1.71,2.72-2.8,7.76-2.38,10.79l-.41.3c-.32,1.17-.38,2.37-.56,3.55-.09.6.06,1.31,0,1.93,0,.08-.39.28-.48,1.44-.15,2.06-.18,3.67-.48,5.78-.09.6.11,1.35,0,1.93.1.31.46.69.48.96.13,1.38.08,9.61-.48,10.11-.08.07-.42-.09-.67-.03-.56.13-.94,4.9-.77,5.81l1.92-3.85c.08,2.95-.73,5.67-.5,8.45.03.37.43,2.51.52,2.62.13.16,1.9.04,2.41-.22.82-.42,1.96-3.08,1.39-3.59-.13-.11-.63-.08-.92-.27-1.4-.94-1.14-12.59-.96-14.93.06-.78.76-1.69.47-2.66.16-1.08,1.29-1.73,1.69-2.42.24-.41.15-.75.23-.95.19-.47.54-.88.48-1.44,1.46-.39,1.5.47,1.94-1.63.12-.55.92-.34.95-.3.05.07.21,1.1.54,1.62.82,1.28,2.2,2.32,3.79,2.23.52,1.78-2.05.61-2.41.96-.39,1.36,1.02,1.68.96,2.89h-1.93s0,1.45,0,1.45v.48c-1.06-.44-2.35,1.53-.65,2.33.33.16,1.88.63,2.09.56.6,1.19.11,1.42,1.44,1.44.27,0,.84.06.96,0,.02.32-.03.65,0,.96-1.39.38-4.8,1.76-5.78,2.65-.31.29-.63.48-.48.96.18.66,1.38.67,1.44.72.04.03.05.76,0,.96-.13.56-.72,1.14-.48,1.93l.24.48h.48l.24-.48c.8.04,1.61-.03,2.41,0l-1.44,3.37c-1.37.2-.75,2.09-1,2.37-.12.13-2.1.68-2.56.98-.41.27-.22.73-.39.89-.32.29-1.04-.22-.86.58,1.84.88,3.31-.29,5.29,0,.07.99.93.87-.48,2.41-.94,1.03-2.41,2.27-3.85,1.93-.15.57.54,1.16.44,1.62-.1.45-1.56,1.98-1.36,2.89.02.08.85,1.24.92,1.27v.48c-.71-.13-1.64.08-2.41,0,.17-.61-.13-1.7,0-2.41,0-.05.32-.23.48-.96.07-.33.4-.67.47-1.2.06-.47.18-2.65-.23-2.65l-.72,3.85c-.32,0-.64,0-.96,0h-1.93c-.23,1.68.26,3.19.48,4.82-.05.04.07.4-.07.64-.36.61-1.21,1.44-1.3,2.08-.09.57.69,1.27.36,2.27-.36,1.11-2.01,3.58-2.28,4.48-.38,1.28.63,1.86-1.51,1.61v1.44s-1.45-.48-1.45-.48c.06.63-.38,1.09-.48,1.69-.18,1.02.65,2.51-.96,2.17.12-1.31-.18-2.82,0-4.09.18-1.32,1.26-1.93.99-3.83-.07-.45-1.19-.25-1.43-1.03-.29-.96.48-3.02-.76-3.57-.72-.32-1.08.89-1.14,1.3-.13.84.5,1.7.46,2.8-.03.82-.58,1.55-.51,2.16-.3-.05-.7.07-.96,0-.57-.16-.34-.99-.74-.99-.74-.01-1.38.85-1.97.93-1.19.16-1.23-1.29-3.07.78-2.2,2.48-5.52,11.59-6.63,15.04-2.78,8.66-1.81,17.18-1.07,25.91.11,1.26-.25,3.31.03,4.3.44,1.52,1.51-.46,2.38-.22-.01,1,.84,1.69.96,2.65.47,3.53.33,2.1,1.55,4.71,1,2.15.89,4.77.86,7.09,5.47-1.47,1.27,2.36.96,4.58-.64,4.63,1.04,7.17,1.43,11.09.15,1.54-.07,3.21-.01,4.77,2.93,1.09,1.6,3.07,1.94,5.34.12.81.77,1.03.91,1.5.85,2.85-1.31,7.32-2.34,10.05.55.4,1.1-.7,1.36-1.04,2.54-3.38,4.38-7.19,5.6-11.25.39-.74,1.11-.14,1.21.25.45,1.69-1.85,4.45-2.31,6.35-.84,3.45.31,6.91-.1,10.49-.12,1.02-.81,3.59-1.17,4.6-.53,1.49-1.81,2.79-2.18,4.32.85-.22,2.39-.22,3.37-.48.34-4.94.61-10.22,1.45-15.16.23-1.35,1.53-7.62,2.64-7.95ZM215.23,221.07v-2.41c.11-.12-.09-1.07,0-1.44,4.1-.16,3.13,2.9,0,3.85ZM221,212.64c-.24-2.04,0-4.82,0-6.98v-1.44c.24-.11.44-1.06.48-1.44.12-1.24-.08-2.59,0-3.85.77-.07,3.27.32,4.04.54.65.18.8,1.15,1.25,1.64.44.48,1.23.93,1.45,1.2.2.23.28.72.48.96h-3.37c-.45,1.2.99,1.81.98,2.64,0,.44-.39.94-.49,1.47-.09.49.11,1.53-.03,1.65-.07.06-.96-.01-1.69.48-.65.44-1.21,1.51-1.68,2.18-.36.52-.43,1.16-.47,1.21-.03.04-.91.2-.96-.24Z"/>
    <path class="a3" d="M462.62,101.1v.54s.01-.29,0-.54Z"/>
    <path class="a3" d="M392.79,143.26v.48c-2.4.14-3.49,2.81-2.84,5.01.05.17,2.49,2.14,2.66,2.18.77.22,1.14-.33,1.62-.45.27-.06.65.04.96,0l.27.99,3.58-.02c-.21,1.15.08,2.79,0,4.08-.07,1.03-1.43,2.87.72,3.16,2.27.3,3.87-2.22,3.62-4.35,1.73-.11,1.29,2.48,3.37,1.93.49-.51-1.09-5.3-1.44-6.26h.48c.08.08,1.67.42,1.93.96.37-2.29-.27-1.56-1.21-2.39-1.2-1.05-1.35-1.17-2.64-1.95-.03-.02-.46-.45-.48-.48-.28-.49-.33-2.14-1.22-2.39-1.15-.32-1.47.81-1.95.92-.91.22-2.16-1.93-2.12-2.86-1.42-.64-2.12,1.32-2.4,1.44-.23.1-1.03-.02-1.44,0-.47.03-.97.02-1.44,0h0Z"/>
    <path class="a3" d="M407.76,151.86c.16.17.83.04,1.35.83.91,1.4.84,5.76,3.67,3.58,1.79-1.38,2.77-2.79,3.59-4.83,2.05-.05.33-8.96,1-10.31,1.41-2.8,3.19-4.67,5.53-6.75.54-.48,1.98-1.04,2.17-1.71.16-.58-.84-1.02-.97-1.88-.13-.92-.05-2.26.23-3.17.92-2.96,5.76-9.53,8.2-11.54,1.17-.97,4.32-3.02,5.77-2.9.21.02,1.61.47,1.68.53.36.35-.65,3.39.74,2.86,1.71-.65,4.1-4.53,6.04-6,2.13-1.6,4.84-1.88,6.89-3.22,3.62-2.35,3.02-1.93,7.27-2.84,2.17-.46,4.35-.96,6.51-1.43.13-1.26,0-.77-.7-.97-1.44-.42-2.57-.65-4.11-.47h0c-1.26.14-2.89.33-4.33.48.34-.44.84-.71,1.4-.89-.56.18-1.06.46-1.4.89-.16.02-.32-.02-.48,0-.58.06-.45.48-.48.48-.61.11-1.33-.1-2.07.09-1.09.28-2.47.8-3.46,1.35l.73-2.16c.09-.75.02-.84-.74-.74-1.81.25-2.66,2.38-4.55,2.41-.08-1.12-1.22-1.64-1-2.86-5.14-.84-11.8,4.43-14.04,8.79-.61,1.18-.94,3.12-1.58,4.19-.63,1.05-2.64,2.59-3.37,3.86l.24-3.37c-3.21.03-5.4,4.11-6.5,6.73-.96,2.28-1.37,5.34-2.71,7.4-2.32,3.57-3.3,11.7-5.53,16.39-.74,1.56-.41.82-1.06,1.55-.87,1-.76,2.54-2.54,2.79-.21.5-.33,1.35-.49,1.92h-.95c.08.19-.15.7.05.91Z"/>
    <path class="a3" d="M474.34,100.93c-.22.03-.43.05-.63.06.21,0,.42-.03.63-.06"/>
    <path class="a3" d="M226.78,76.12c.74.56.5,1.22,1.69,1.44,2.02.37,3.72.83,5.67,1.55,1.28.47,2.31,1.51,3.71,1.34l-.24-1.92c1.53,2.11,3.73,1.09,5.7,1.52,1.91.42,3.39,2.57,4.89,3.29,1.57.75-.19-2.45-.49-2.88-.32-.44-.68-.78-1.19-.98l-.07-.65c-.03-.08-.09-.13-.17-.17-.06-.03-.12-.06-.16-.08-.04-.02-.07-.04-.08-.06,0,0,0,0,0,0h-.48c-2.32-.59-4.75-3.17-7.42-2.37-.78.23-.63,1.22-.78,1.4-.45.54-6.84-3.94-8.82-3.31-.09.03-1.6.95-1.66,1.02-.25.26-.03.8-.09.85"/>
    <path class="a3" d="M287.14,148.08c.25.55.46,1.06.97,1.44l.72-2.41c1.88-.64,1.39,1.48,2.7,1.87.79.23,2.91.04,3.47-.51.11-.1,1.07-1.89,1.07-2.07,0-.11-.43-2.09-.5-2.18-.03-.04-.59.04-.95-.23-.12-.09-1.83-2.33-1.88-2.48-.19-.65-.18-3.28-.06-4.03-1.1.12-1.41-.74-1.93-1.44-.18-.25-.65-.36-.48-.96-.61.23-2.17-.89-2.41.24-.12.61,1.5,2.62,1.21,3.61l-3.61-.96h0q-.92-6.19,0,0c.53,3.54.15,6.83,1.68,10.12Z"/>
    <path class="a3" d="M246.11,78.59s.1.05.16.08c-.06-.03-.12-.06-.16-.08Z"/>
    <path class="a3" d="M244.59,73.72c-.09-.05-.04-.75-.96-.48v1.93s.96,0,.96,0c-.1-.38.07-1,0-1.44"/>
    <path class="a3" d="M330.43,127.17c-.13,1.74-.61,9.5-1.17,10.79-.04.08,4.07-2.85,5.1-3.2.51-.17,3.73-.82,3.88-.7l-.48,1.92c1.13.12,2.07-.03,3.1-.51l1.02,1.46c2.11-1.05,2.8.28,4.3.49,1.24.17,5.05-.07,6.04-.7,1.24-.79,1.02-2.07,4.48-.22.04-.79-.26-1.67.49-2.18.77-.52.89.24.95-1.19-2.52-.03-.71-4.2-2.68-4.78-1.83-.54-1.52-4.52-2.24-4.39-.15.03-1.58-.04-2.36.03-.56.05-2-.09-2.13.04-.86.85.71,2.29-2.66,1.89-.63-.07-1.49-3-2.25-3-1.57,0-3.72,3.55-5.44,3.51-1.03-2.04-1.81-3.95-1.71-4.84-2.57-.15-2.05,5.87-2.6,5.75-.06-.01-2.1-7.18-2.85-6.94-.2.87-1,2.69-1.07,3.61-.59.08-.89-.07-1.03-.38,0,1.78.28,3.66,1.31,3.51Z"/>
    <path class="a3" d="M328.62,142.35c-.29.05-.62.38-1.05.41-1.65.14-3.38-.57-3.12,1.93,1.99-.23,3.29-.62,5.29,0,.13-.86.07-2.54-1.12-2.35Z"/>
    <path class="a3" d="M235.2,247.55c-.31,0-.31.48,0,.48s.31-.48,0-.48Z"/>
    <path class="a3" d="M212.52,405.52c.74-.18.4-2.89.41-3.55,0-.38.52-.84.35-1.49-.25-.99-2.6-1.75-3.11-.29l-1.2-.96q-.09-.43,0,0c.3,1.45.95,3.12,1.45,4.57.4,1.15.73.96,1.44,1.69h0c.1-.07.42.09.66.03Z"/>
    <path class="a3" d="M224.37,405.49h.96c.01-.32-.01-.64,0-.96.08-1.8.27-5.3-.08-6.9-.13-.61-2.58-3.97-3.07-4.15-.33-.12-1.06-.23-1.17.26-.26,1.09-1.48,3.93-1.48,4.3,0,.73,1.48,2.13,1.86,2.99.17.4.04,1.04.09,1.09.16.18,2.44-.72,2.89,1.93.06.38.04,1.04,0,1.44"/>
    <path class="a3" d="M207.36,234.96c.06-.28.12-.57.18-.87-.06.3-.12.6-.18.87Z"/>
    <polygon class="a3" points="208.01 231.18 208.2 231 208.01 231.18 208.01 231.18"/>
    <path class="a3" d="M212.83,173.53c.49-.49,1.36-.73,2.34-.75-.97.02-1.84.26-2.34.75Z"/>
    <path class="a3" d="M217.81,179.67c-.8,0-2.09-.19-2.49-.58.41.4,1.7.59,2.49.58Z"/>
    <path class="a3" d="M218.26,190.86c.17-.52.45-1.53.86-2.24-.41.71-.69,1.71-.86,2.24Z"/>
    <path class="a3" d="M197.58,258.85c.5-.22.96-.5,1.39-.83-.43.33-.89.61-1.39.83Z"/>
  </g>
  <g>
    <path class="cls-3" d="M3.04,11.7v-1.36h4.13v1.36H3.04Z"/>
    <path class="cls-3" d="M12.35,15.76c-.77,0-1.44-.23-1.99-.7-.56-.46-.99-1.14-1.29-2.03-.3-.89-.45-1.98-.45-3.27s.15-2.37.45-3.25c.3-.87.73-1.54,1.29-1.98.56-.45,1.22-.67,1.99-.67s1.42.22,1.97.67c.55.45.98,1.11,1.28,1.98.3.87.45,1.96.45,3.25s-.15,2.38-.45,3.27c-.3.89-.73,1.57-1.28,2.03-.55.46-1.21.7-1.97.7ZM12.35,14.29c.39,0,.73-.15,1.03-.45.3-.3.54-.78.7-1.44.17-.66.25-1.54.25-2.64s-.08-1.97-.25-2.62c-.17-.65-.4-1.11-.7-1.4-.3-.29-.65-.43-1.03-.43s-.73.14-1.03.43c-.3.29-.54.75-.71,1.4-.17.65-.26,1.52-.26,2.62s.09,1.98.26,2.64.41,1.14.71,1.44c.3.3.65.45,1.03.45Z"/>
    <path class="cls-3" d="M20.54,15.76c-.66,0-1.22-.13-1.7-.38-.47-.25-.87-.55-1.2-.89l.98-1.15c.21.27.48.48.81.64s.66.24,1.01.24c.5,0,.96-.15,1.38-.45.42-.3.75-.8,1-1.5.25-.7.38-1.65.38-2.85,0-.95-.09-1.73-.28-2.34-.19-.61-.45-1.07-.79-1.36-.34-.29-.74-.44-1.21-.44-.33,0-.64.09-.91.27-.27.18-.48.44-.64.78-.16.34-.23.76-.23,1.25s.07.87.21,1.2c.14.33.35.58.64.75.29.17.63.26,1.04.26.33,0,.7-.12,1.09-.35s.76-.62,1.1-1.17l.08,1.36c-.22.31-.48.58-.77.8-.3.22-.6.39-.91.51-.31.12-.61.18-.91.18-.65,0-1.21-.13-1.7-.39-.49-.26-.87-.65-1.14-1.18s-.41-1.18-.41-1.97.16-1.41.48-1.97c.32-.55.74-.99,1.26-1.3.52-.31,1.09-.46,1.7-.46.55,0,1.07.11,1.55.34.49.22.91.57,1.27,1.03.36.46.64,1.04.85,1.74.21.69.31,1.51.31,2.46,0,1.12-.12,2.08-.35,2.89-.23.81-.56,1.46-.97,1.97-.41.51-.88.88-1.39,1.12-.52.24-1.05.36-1.62.36Z"/>
  </g>
</svg>