<?xml version="1.0" encoding="UTF-8"?>
<svg id="a3" xmlns="http://www.w3.org/2000/svg" viewBox="0 0 600 500">
  <defs>
    <style>
      .a3 {
        fill: #a98e6a;
      }

      .cls-2 {
        fill: #c9caca;
      }
    </style>
  </defs>
  <g>
    <path class="cls-2" d="M4.39,13.73v-3.46H1.23v-1.34h3.16v-3.47h1.39v3.47h3.17v1.34h-3.17v3.46h-1.39Z"/>
    <path class="cls-2" d="M14.02,15.76c-.77,0-1.44-.23-1.99-.7-.56-.46-.99-1.14-1.29-2.03-.3-.89-.45-1.98-.45-3.27s.15-2.37.45-3.25c.3-.88.73-1.54,1.29-1.98.56-.45,1.22-.67,1.99-.67s1.42.22,1.97.67c.55.45.98,1.11,1.28,1.98.3.88.45,1.96.45,3.25s-.15,2.38-.45,3.27c-.3.89-.73,1.57-1.28,2.03-.55.46-1.21.7-1.97.7ZM14.02,14.29c.39,0,.73-.15,1.03-.45.3-.3.54-.78.7-1.44.17-.66.25-1.54.25-2.64s-.08-1.97-.25-2.62c-.17-.65-.4-1.11-.7-1.4-.3-.29-.65-.43-1.03-.43s-.73.14-1.03.43c-.3.29-.54.75-.71,1.4s-.26,1.52-.26,2.62.09,1.98.26,2.64.41,1.14.71,1.44c.3.3.65.45,1.03.45Z"/>
    <path class="cls-2" d="M22.92,15.76c-.72,0-1.36-.14-1.92-.41s-1.01-.65-1.34-1.12-.49-1.02-.49-1.62c0-.49.1-.92.3-1.3s.45-.71.77-1c.31-.29.64-.52.99-.7v-.06c-.42-.31-.78-.68-1.08-1.12-.3-.44-.45-.96-.45-1.55s.14-1.14.43-1.59c.29-.45.68-.8,1.17-1.05.49-.25,1.06-.37,1.7-.37.67,0,1.24.13,1.72.39.48.26.85.62,1.12,1.08.27.46.4.99.4,1.6,0,.39-.08.76-.23,1.1-.16.34-.35.65-.58.91-.23.27-.46.49-.7.67v.06c.34.2.66.44.96.7s.53.58.71.95c.18.37.27.81.27,1.32,0,.58-.15,1.1-.46,1.57s-.74.84-1.3,1.12c-.56.28-1.21.42-1.96.42ZM22.97,14.42c.39,0,.73-.08,1.02-.22.3-.15.53-.36.7-.63.17-.27.25-.59.25-.97,0-.33-.07-.62-.22-.86-.15-.24-.35-.45-.61-.63-.26-.18-.56-.35-.9-.5s-.71-.31-1.1-.46c-.4.27-.72.59-.97.98-.25.38-.38.82-.38,1.3,0,.39.1.74.29,1.04.19.3.46.53.79.71.33.17.71.26,1.12.26ZM23.69,9.16c.33-.32.59-.66.76-1.01.17-.35.26-.72.26-1.1,0-.35-.07-.67-.2-.94-.14-.28-.34-.5-.6-.66s-.59-.24-.96-.24c-.47,0-.86.15-1.17.44-.31.29-.47.7-.47,1.22,0,.42.11.76.34,1.03.22.27.52.51.88.7s.75.38,1.18.55Z"/>
  </g>
  <g>
    <path class="a3" d="M204.38,421.43c.08-.15.41-.29.48-.48h.48c-.43.69-3.08,3.61-3.62,3.85-.98.45-.67-.92-.72-.96.82.8,2.93-1.62,3.38-2.41Z"/>
    <path class="a3" d="M207.76,419.02c.75-.06,1.5-.46,2.41-.48.8-.02,1.61-.02,2.41,0,.63.02,1.33-.07,1.93,0,1.54.19,3.78.94,5.31,1.45.6.2,1.39.63,2.41.96.1.4-.07,1,0,1.45-1.37-.28-3.17-1.57-4.93-2.07-3.44-.97-7.63-1.09-11.13-.34-.4.09-.58.67-.83.95.28-.46.35-1.45.96-1.93.45.04,1,.04,1.45,0Z"/>
    <path class="a3" d="M201,423.84c-.14-.12,0-.96,0-.96.02.29-.05.91,0,.96Z"/>
    <path class="a3" d="M224.16,422.39c.1.35.4,1.87.48,1.93.98.68,1.77-.88,1.93-.96.29-.16.65-.32.96-.48.9-.46,4.84-1.53,5.23-2.3.35-.7-1.11-4.03-1.37-4.93h2.41c.06.62-.09,1.31,0,1.93.06.46.41,1.12.47,1.38.1.43,5.37-3.48,5.88-3.78.49.52.76,1.62.88,2.4.04.25.04.72,0,.96h0c-.06.33-1.05,3.07-1.23,3.35-1.45,2.33-3.52.57-4.77-.77-.19-.21-.65-.18-.69-.24-.05-.08.35-1.79.41-1.86h-.48c0,.18-.61,2.35-.77,2.46-.41.29-1.98.59-2.78.98-1.12.55-5.27,3.39-6.04,2.75-.21-.17.02-.8-.05-.89-.14-.18-2.23-.4-1.93-1.93h0c.46.06.98-.06,1.45,0Z"/>
    <path class="a3" d="M179.3,394.43c.3-.14.73-.11.96-.48.54.1,1.51-.21,1.87.08.22.17-.02.78.06.89.07.11.76.46.96.48.16.01.32,0,.48,0l2,4.76c.44.2.93.01,1.37.06.48.05,1.82-.1,1.93,0,.59.58-2.02,3.16.97,3.86.41.1.99-.07,1.45,0,.08.55-.9.79-.96.96h-.48c-.74.81-2.11,1.2-1.93,2.41.8,0,1.61,0,2.41,0,1.57-.01,2.82-.19,4.34-.48-.77,1.43-2.14,1.83-3.38,2.89-.05.05-.09.09-.14.13.04-.04.08-.08.14-.13.69-2.76-2.5-.68-3.88-1.66-.44-.31-.71-1.89-1.2-2.66-.71-1.09-2.49-1.86-2.58-2-.52-.74.93-1.93.95-3.06.04-1.73-1.55-3.32-1.48-5.08-.21-.02-.89-.37-.96-.48-1.81-.93-2.93.45-4.57.97-1.68.53-3.57,1.27-5.32,1.44-1.45.14-6.54.49-7-.97,5.39.2,9.08.33,13.99-1.93Z"/>
    <path class="a3" d="M190.64,416.13c3.08-2.74,8.51-6.11,12.3-7.72.32-.14.91-.47.96-.48.29-.05.65.02.96,0-.68,2.92-2.04,5.73-2.89,8.68-.15.51-.41,1.14-.48,1.45-.01.05-.02.1-.02.17,0-.06.01-.12.02-.17-.35-.62-.99-.98-1.45-1.45-.59-.61-1.59-2.04-2.14-1.91-.2.05-1.72,1.55-2.42,1.93-.99.53-1.95.63-2.81,1.05-1.33.65-.94,1.66-2.27.86-.18-.11-.32-.3-.41-.41l-.07-.07c-.12-.05-.31.03-.48,0,0-.93.6-1.38,1.21-1.92Z"/>
    <path class="a3" d="M154.69,378.51l.48-.48c.96.1,1.06-.6,1.45-.96,1.31-1.22,5.77-4.22,6.27-4.82h.96c.11.18,1.13.38.96,1.17-.26,1.16-4.51,3.74-4.82,7.51-.03.37-.08,1.18,0,1.45.19.63.41.45.96.48,2.36.14,2.63-3.7,5.79-2.89l.48.48c0,.32,0,.64,0,.96-1.21-.14-1.4.96-1.93,1.45-1.91,1.74-4.71,4.04,0,4.34.25,1.19-1.31,1.61-1.68,2.41-1.22,2.58.86,1.6,1.46,2.4.34.46.13,1.34.22,1.45-.46-.05-1.02.08-1.45,0v.96s1.45,0,1.45,0c-.06.05.02.69,0,.96l-3.38.96c1.49-2.88-.99-2.59-1.42-3.64-.61-1.49.88-1.1.94-1.18.13-.17.19-3.18,1.45-3.85-1.55-.04-2.83-.4-2.83-2.15,0-1.48,1.44-2.06-1.03-2.67-1.84.52-5.4,2.12-5.8-.74-.26-1.86,1.2-2.01,1.46-3.59-.21-.4-.46-.68-.72-.88.27.2.51.48.72.88Z"/>
    <path class="a3" d="M338.49,434.45v.73c4.34-1.47,8.04-4.33,12.54-5.56,1.42-.39,1.56.37,3.38-.96.16-.12.32-.33.48-.48.16-.16.35-.3.48-.48.16-.04.37.06.48,0,.51-.26.77-.37.96-.96.04-.11,0-.32,0-.48,3.14-.15,5.59.96,5.79-2.89,1.45.29.78-.63.96-.96.12-.21.37-.33.48-.48.74-.29,2.93-2.38,3.38-1.93.02.58.48,7.93-.24,8.2,2.16-.8,3-3.39,4.11-5.65-.33.5-.66.96-.98,1.03-.98.21-1.72-1.4-2.04-2.05-.52-1.08-.47-2.55-2.08-2.39-1.2.12-2.11,2.66-3.18,2.52-.79-.1-.87-1.18-1.17-1.71-.7-1.27-1.53-2.49-2.94-3.13-.29-.13-4.14-.72-4.03-.2-.27-1.34.43-1.39,1.1-2.03,1.21-1.16,3.47-3.13,4.13-4.55.34-.74,1.41-2.98-.15-3.06-1.93-.1-3.55.23-5.08,1.45,0-.32,0-.64,0-.96,1.29-1.19,2.69-2.3,3.85-3.63,3.09-3.53,5.34-8.24,8.45-11.8.6,2.27-.47,4.71-.73,7-.06.55.38,1.23.34,1.86-.08,1.45-1.71,2.97-1.3,4.65.82.2.96-.32,1.45-.72,3.16-2.63,9.42-12.57,10.03-16.52.26-1.7-.53-2.86-.3-4.1.19-1.07,1.32-2.14,1.73-3.13.81-1.94,2-6.69,3.06-8.03.76-.96,2.52-1.03,3.09-2.7l.24,1.45c.68.14.79-.11,1.22-.47,1.51-1.3,2.96-6.22,4.36-8.18.62-.87,2.02-2.18,2.87-2.92.54-.48.79-1.16,1.69-.96.58.64-5.14,13.55-5.31,15.67.09,1.25,2.87-1.91,3.1-2.2,4.14-5.08,7.3-13.51,9.45-19.73,1.26-3.67,1.45-8.66,4.34-11.57-.34,4-2.38,7.75-3.37,11.57-.27,1.03-1.43,6.27-.96,6.75,3.85-.52,6.17-5.27,7.65-8.5,1.07-2.34,1.78-6.12,2.72-7.89.12-.23.62-.61.73-.48v1.45c1.45.24,2.29-.99,3.1-1.97,5.36-6.53,7.63-27.99,7.06-36.39-.42-6.09-3.12-12.32-6.11-17.52-1.36-2.37-5.61-9.03-7.93-9.94-1.48-.58-2.55.5-4.05.25-.68-.11-1.75-1.29-2.19-.97-.04.03-.02.62-.28.92-.47.57-1.4,1.25-1.58,1.83-.62,1.97,1.81,4.69-2.01,5.45.14-2.22,1.48-4.25,1.49-6.51,0-2.28-2.39-3.71.45-4.82-.58-1.29-2.77-4.26-3.26-1.33-.15.88,0,3.38-.14,3.49-.26.19-2.09-.3-2.38.78-.37,1.38,1.77,3.13,1.92,4.33.15,1.15-.67,2.38-.5,3.59-1.75-.66-.54-5.66-2.78-4.18-.23.15.03,1.24-1.56.81-.14-3.42-.94-.58-1.72-.05-.76.52-1.73.58-2.62.53-.3-1.3,1.37-2.52,1.27-3.62-.06-.63-2.53-4.05-2.92-5.09-1.42-3.75-.19-4.44.18-7.48.51-4.16-2.17-1.82-4.8-2.13.19-1.56.19-3.24.48-4.82-3.16,1.78-1.68,3.02-.96,5.3.61,1.93.82,2.79-.49,4.48-.34.43-.99.24-.97.59.05,1,1.46,1.27.75,2.64-.71,1.37-7.15,4.17-8.75,4.33-2.21.22-11.39-1.87-12.75-3.58-.62-.77-.56-1.9-1.2-2.66-.49-.58-1.55-.77-1.91-1.46-1.92-3.69-1.56-13.67-2.77-17.96-.83-2.94-4.38-5.01-5.48-8.56-.33-1.05,1.29-2.03.78-3.37-1.46-.45-.51,1.18-1.69.98-1.3-.22-3.17-3.22-5.55-2.43.51-2.88.58-5.75.48-8.68-1.38.68-2.74,6.48-3.64,6.74-1.29.37-2.54-2.13-4.08-1.92-.91-.8,6.39-8.07,5.3-10.12-3.1-.25-5.1,2.12-7.23,3.86-1.32-1.59,6.1-5.41,5.78-6.99-.39-1.95-5.22.38-6.03,1.19l3.14-5.78c-1.57-.61-3.36,1.13-4.53,1-.37-.04-.49-1.08-.99-1.52-.66-.58-1.78-.18-.99-1.42,3.44-4.85,7.86-9.53,9.41-15.43l-3.3.56c-.91,1.87-3.76,8.58-5.39,9.32-1.92.87-3.73.02-4.26-2.01-.44-1.67.51-.88,1.71-1.49,2.25-1.15,1.01-1.58,1.23-2.7.17-.88,2.34-1.55.84-2.96-.75-.71-2.54-.7-2.89-1.68,2.57.27,5.25-1.44,7.72-1.45.05,0,.32.48.73.48.78,0,2.48-1.72,2.65-2.65-1.21-.44-1.87.85-3.38.72-.69-.06-1.86-.86-2.89-.48-.59-.51,1.94-2.92,2.18-3.37.37-.72-.12-1.43-.49-1.44-.99-.03-4.33,3.66-4.89,3.78-.71.15-2.74-1.25-2.57-2.06.07-.32,4.02-3.33,4.81-4.38,5-6.7,4.26-14.88,5.31-22.42.44.07,1.07-.11,1.45,0-.08-2.66,2.29-3.95,2.78-6.63.52-2.82-.66-1.83-.85-2.05-.14-.17.1-1.46,0-1.93-.59-.64-3.03,2.48-3.62,2.89-1.13.25-.8-.98-.62-1.59.87-2.98,4.48-7.04,5.56-10.35.25-.77.8-2.52.58-3.19-.22-.66-1.16-.62-1.33-.85-.53-.73,1.73-5.79,2.1-7.15.25-.93.62-4.58.78-4.77.13-.15,1.2-.08,1.89-.76.41-.4,2.94-5.48,3.3-6.35,1.08-2.69,2.63-11.11.74-13.2-.31-.34-1.08-.38-1.19-.82-.25-1.02.27-2.49-.08-3.68-.27-.91-1.93-1.73-2.44-2.87-.91-2.06-.62-5.09-1.46-7.22-.38-.96-1.02-1.43-.84.12-.04-.05-.88.21-.98-.3-.38-1.95-.18-4.92-.59-7.05-.55-2.85-2.01-4.67-2.66-6.99-.75-2.67-.69-7.97-1.82-10.24-1.08-2.16-2.21.43-3.14-.23-1.55-1.25-.12-4.37-2.16-4.63-2.45-.31-3.94,3.04-5.54,4.37-.82.68-2.55,1.55-3.61,1.46-1.47-.12-1.49-1.77-2.17-2.2-2.39-1.5-3.57,2.92-5.08,3.63-1.04.48-.56-1.6-1.67-2.17-3.55-1.82-4.55,2.94-4.84,5.55-1.49.37-.87-1.25-1.41-2.1-.48-.75-1.55-.78-2.3-.45-1.82.8-6.04,7.84-7,9.93-.23.5-.35,1.67-.42,1.73-.36.32-2.73-.3-3.83.28-.64.34-.83,1.4-1.47,1.9-1.47,1.17-4.42,1.71-5.52,2.68-1.28,1.12-7.64,10.61-8.68,12.54-2.98,5.5-4.47,11.45-6.28,17.37-.25.81.11,1.72-1.19,1.44-1.53-3.82-4.89-8.17-5.68-12.41-.54-2.91.13-3.59-1.64-6.56-2.83-4.74-6.68-6.7-9.82-10.44-1.26-1.5-1.7-2.82-3.35-4.36-3.22-3.02-19.01-10.97-23.38-11.83-1.23-.24-2.71-.51-3.88.03-.42.19-3.49,3.11-3.65,3.58-.48,1.44-.39,3.73.33,5.05.23.42.86.68.9.77,1.67.15,2.16-2.21,2.89-2.67,2.29-1.44,7.04,3.7,8.69,5.08,1.3,1.08,1.95,1.45,3.38,2.89,2.01,2.04,3.08,3.94,4.82,5.79.29.3,1.8,1.88,1.93,1.93.89.37,1.9-.87,1.45,1.93l.48.48c.87-.23,1.52,1.42,2.68,1.42-.43,3.39,2.82.89,3.11,3.4.16,0,.32,0,.48,0,1.22.05,2.1-.23,1.21,1.45-.61,1.15-2.54,1.89-3.62,2.4-.28,1.39.77,1.05,1.68.97.97-.09,1.85-.45,2.89-.5,2.69-.14.48,1.59-.69,2.21-1.46.78-3.02.85-4.36,1.67.06.08-.17.69.08.87.41.29,1.33-.11,1.76.2.25.18.04.8.09.86.44.45,3.41-.78,4.52-.43,1.78.55-.18,2.47-.66,2.36v.48s3.38-.48,3.38-.48l.48.24c.03.57.18,1.07-.48,1.2-.13.41-2.39,1.84-2.89,1.93v.48c1.12.03,2.26-.04,3.38,0,.38.01.98-.18.97.24.27.76-.77.91-.97,1.2-.19.28-.34.65-.48.96-.06.13.05.33,0,.48,2.94-.3,2.4.1,2.89,2.41.44,2.02.08,1.48,0,2.89-.07,1.28.05,2.58,0,3.86-2.98-.67-2.45,2.27-3.62,3.86-.19.26-1.78,1.63-2.16,1.93-.8,2.09-.14,4.57-.48,6.51-.25,1.43-2.16,1.7-1.36,4.25.24.75,1.34,1.07,1.36,2,.03,1.45-1.65,2.56-1.93,3.15-.25.53-.33,2.19-.48,2.89,1.71.51,1.3-3.26,2.9-2.16-.44,2.5-1.88,4.03-2.42,6.5.32-.11.66-.41.96-.48.62-1.3,2.48-1.78,3.38-2.41,5.16-3.65,3.25-4.43,5.86-8.85,1.05-1.79,4.59-4.48,5.45-6.12.83-1.59,1.26-5.19,1.97-7.19,1.12-3.16,3.34-6.43,4.34-9.16.7-1.91.81-4.74,1.42-6.77,2.51-8.37,5.5-17.28,10.86-24.1.26-.33.17-.63.96-1.45.23-.23.34-.72.7-.97,3.43-2.4,9.64-1.05,12.25-5.14.76-1.19.94-2.58,1.59-3.71.37-.64,2.87-4.51,3.13-4.6,3.11-1.02,1.79,4.58,4.52,2.84.2-.12,1.38-.9,1.45-.96,1.13-.96,2.87-4.1,3.86-4.59,1.28-.64,1.76.21,2.41.25-.07.45.1,1.05,0,1.45h.48c3.39.72,5.49-2.24,8.2-2.89.93-.99,3.08-3.83,4.11-4.34,1.07-.53.7,1.44.72,1.93.13,2.94-.13,5.77-.48,8.68l2.41-.48c-.35,1.8.91,1.81,2.41,1.93.5-1.88,1.39-2.45,1.45,0,.1,4.23.97,10.26,1.5,14.66.36,3.06.9,6.54,1.88,9.45-.29.36-.93,5.14-1.55,6.4-.51,1.02-2.25,2.12-2.31,2.28-.15.39-.07.99-.48,1.93-.28.64-1.75,4.05-1.45,4.34,1.61.47,2.67-.62,3.86-.96-.11-1.08,1.15-1.77,1.45-2.41l.48.48c-.1.25-.22,1.19-.48,1.93-1.4,3.92-2.38,8.44-3.42,12.49-4.01,0-5.12,5.51-7.18,8.01-.75.91-1.94,1.5-2.9,2.16-.14.09-.21.72-.76.91-1.78.6-.91-.71-1.17-1.39-.05-.14-1.67-1.99-1.9-2.2-2.96-2.71-2.27,2.11-2.44,3.65l.4.32c.13.37.07.75.08,1.13.05,1.4.07,2.94,0,4.34.82.51.34,1.19-.48,1.45-.12,2.03.2,4.29,0,6.27l.4.33c.17.53.07,1.06.09,1.6.02.89.19,5.57,0,5.79l-.48.96c.26,1.82-.39,4.25-.48,6.27,0,.16,0,.32,0,.48,1.32-.02,1.35.57,1.47,1.66.14,1.25-.24,7.89-.99,8.46h.48c.53-1.03,1.68-1.92,2.89-1.93.24,3-2.7,6.03-4.82,7.96-.59.54-.98,1.24-1.94,1.2-.03-.07-.8-.2-.96-1.19-.18-1.13.23-6.27,0-6.52-.87-.95-1.26,1.36-1.45,1.44-.27.82-.93,1.31-1.45.48-.34.06-1.09.05-1.45,0-.08.55-.81.75-.96.96-.09.12.28.89-.3.99-.62.1-1.92.06-2.59-.02v.96c-1.19.2-1.93-.39-2.41-1.44-.5-.09-1.16-.74-1.93-.48-.51,2.21,1.1,3.71.96,5.78-4.53-.5-5.98,1.22-2.9,4.82.52.61,2.02,1.1,1.93,2.17.01.45-1.44.23-1.93.24-.48.01-4.49-.12-3.86,1.2.64,1.34,3.1,1.19,4.34,1.21.46,0,1.46-.2,1.45.25-.18.92-.4,1.98-1.45,1.68.02,3.28-.84,5.1-.96,8.2h.96c.69-2.95,1.31-1.97,2.89-2.41.77-.22,2.88-2.2,3.38-2.89,1.02-1.42,1.32-4.16,1.5-4.3.21-.16.95.09,1.27-.14.3-.22.06-.78.12-.86-.29-2.03.35-1.18.96-1.45.05.3-.08.72,0,.96.12.36.66.52.48,1.45.65.04,1.78-.31,1.93.48.22,1.13-.77,2.09-.94,3.15-.12.72.11,2.97-.02,3.11h.48c.83-1.11,2.11-1.01,3.38-.97-.8,1.89.93,2.57.96,2.73.78,3.28-1.44,5.24-3.38,7.4-.43.49-.64,1.22-1.45,1.45-.08.38-.4,1.72-.48,1.93l.39.31c.19.9.19,1.85,0,2.75l-.39.31c.1.2-.2.86.11,1.32.29.43,1.91.93,2.52,2.09.56,1.06.42,2.45.75,3.35.26.69,1,1.71,1.45,2.89.15.07.54-.14.86.09.16.12,1.81,2.82,2.04,3.28.53,1.06.49,2.18,0,3.38-.42,1.02-1.98,2.23-2.89,2.89.01,1.11-2.93,3.82-3.6,5.33-.45,1.02.05,2.91-1.48,2.89-.46,0-.63-.48-.71-.5-2.43-.74-1.23-.45-1.93-1.45-.03-.04-.85-.44-.96-.48-.24-.09-.74.06-1.08-.12-1.87-1.01-3.49-2.47-4.71-4.22-1.63-.58-2.48-1.3-3.86-1.93-.46-.21-1.82-.94-1.93-.96-3.9-.8-3.11.57-7.24-1.93-1.14-.69-1.05-.72-1.93-1.45-1.19-.98-3.16-1.93-3.86-3.86-.36-.04-.45.48-.48.48.05.3-.08.71,0,.96.43,1.42.46,2.57.96,3.86,1.95-.29,1.29.19,1.45,1.45,1.4-.15,1.45,1.64,1.93,2.41.82,1.33,1.32,1.33,1.93,3.38.32,1.08.3,1.42.48,2.41.16.86.98,4.12.96,4.34l.48.96c1.84.98,3.86,3.68,3.86,5.79.93.16.73,1,.96,1.45.39.74.71.68.96,1.93,2.08-.02,1.18,1.74,1.45,2.89.42.09,1.02-.09,1.45,0-.6-1.92-.78-3.61,1.72-3.88.39-.04,5.56,2.34,6.95,2.68,1.73.43,6.99,1.9,4.82-.96-2.32-1.27-5.94-2.2-8.07-3.49-1.03-.63-.56-1.08-.6-2.07.23.1.73-.1.96,0,2.62,1.1,5.25,2.68,8.2,2.41h.48c-.74-1.54-1.45-1.9-2.89-2.89-.44-.31-1.79-.33-1.93-1.44,1.03-.41,1.9.37,2.41.48,1.62.34,9.35,1.65,10.13.96.65-.56-1-2.2-1.45-2.41-.47-.22-1.24.54-.97-.96.46-.07,1.03.09,1.45,0,2.49-.54,1.39-1.86-.48-2.41-.37-.11-1,.08-1.45,0-.16-.8.27-1.14.96-1.44-.04-.3.02-.65,0-.96-2.83.69-.72-2.62-.01-3.15,1.18-.88,1.23.79,1.46,1.22,1.81,3.46,3.67,5.61,2.88,9.87-.14.73-.77,1.21-.93,1.96-.54,2.46.68,1.87,1.09,2.74.66,1.41.67,4.86,2.27,5.68.38.2,1.81.16,2.41.49v.47c-.81.22-2.2.22-2.89.49-1.52.58-1.73,2.64-1.45,4.11.07.38,2.17,2.51,2.42,2.64.38.2,1.94.08,2.35.56.21.25-.01.82.06.89.11.11,1.06-.07,1.45,0,.81.14.57,1.15.24.96-.24-.09-.21-.48-.24-.48-.31-.06-1.13-.06-1.45,0-2.02.37-1.52.07-2.89,0-.74-.04-4.18-.15-4.34,0-.28.27.04,1.26.48,1.68,1.64,1.56,6.12,1.46,8.2,1.69.82.09,1.28.46,1.45.48.75.11,1.64-.08,2.41,0-.33,1.23-.28,2.7-.48,3.86.6.12,1.32,1.08.96,1.44-.46.47-1.31-.44-1.45-.48-4.02-1.05-7.51-4.48-11.58-2.89,0,.32,0,.64,0,.96,0,.44.07,1.86,0,1.93-.14.15-3.54.09-4.15.02-.76-.08-.88-.41-1.16-.51-2.91-1.04-5.11-3.19-8.68-2.41.89,1.43,4.79,1.93,5.71,2.98.24.27,0,.78.07.88.1.15,2.32.28,2.89,1.93.4-.09.83.46.96.48.15.03.32,0,.48,0,.16.81,1.11,1.06,1.45,1.45l.45-.28-.45-1.17c.1-.1-.39-1.11.7-.99,3.06.35,2.92,2.54,4.21,4.53.56.87,2.18,2.02,2.33,2.73.83.45,5.65,2.6,5.79,2.89l.96.48c.78-.07,3.36.85,4.82.96,1.6.12,3.69.09,5.31,0,.54-.03,1.11.11,1.65-.01,1.34-.29,1.65-1.22,3.65-.95.9.12,3.9,2.75,4.83,3.61.66.61,1.42,1.17,1.44,2.18,2,1.28,4.84,5.57,5.79,6.03,1.68.81,6.37-.79,4.57,3.13-1,2.19-7.04,2.48-7.43,2.94-.13.15-.14,2.13-.04,2.54.09.39.96.26,1,.6.19,1.62-1.61,5.37-1.48,6.68.18,1.79,3.64,3.63,2.9,6.05l-4.55-2.41c-.98,1.17-1.61,2.56-2.48,3.82-.44.63-1.41,1.26-1.65,1.73-.65,1.29,2.9.51,3.37.72,2.84-2.39,4.37-.74,7.24.48,1.72-.12,5.26.06,6.75-.48.23-.08,2.11-2.2,3.37-1.69-1.15,1.16-2.32,2.38-3.37,3.62-.75.89-.51,1.45-1.93,2.41.18.93-.75,1.47-.96,1.93-.38.81-.66,2.02-.96,2.89-.62,1.77-.9,1.98-2.41.48-1.72.51-2.24.51-3.82,1.73-2.7,2.09-2.64,5.19-6.79,2.61-1.69-1.05-.47-1.82,0-3.38.89-2.93,2.32-5.58,1.93-8.68-3.72-.19-4.94,2.49-6.77,4.95-.84,1.13-.7,1.41-.95,1.81l-.08,1.13-.4.32c.03.3.02.66,0,.96-.09,1.18-.82,2.5-.48,3.86.08.07.26,1.3.73,1.92,1.16,1.52,4.82,2.58,6.51,1.94.22-.08.47-1.36,1.45-.96.4.82-.46,1.7-.48,1.93-.19,1.82.02,3.13.48,4.82l1.93,1.93c.83.21,1.55.38,2.41.48.47.05.97-.05,1.45,0,.49,1.81-.91,1.35-.97,1.44-.1.18.23,1-.09,1.33-.25.26-2.2.69-3.06,1.55-2.17,2.18.74,2.9,1.13,4.2.45,1.51-.28,3.64.18,5.13.23.73,1.26,1.03,1.38,2.03.25,2.11-1.37,1.43-2.43,1.68-.15.04-.43.43-.96.48-1,.11-2.88.13-3.86,0l-.96.48c-.56.85-2.02.55-1.24,2.92.74,2.24,3.62,2.3,3.68,2.67.24,1.38.17,3.11-1.48,3.09l-.67.46-.3-.46c-.64.03-1.29,0-1.93,0h-1.93c-.32,2.9-2.89,2.33-3.33,3.69-.3.93.59,2.47.92,3.54l2.41-.48c.53.53-1.24,2.39-1.45,2.89-.6,1.43-.67,2.49-.96,3.86l.48.48c.85-.15,1.49,1.05,2.11.93.18-.03,2.6-2.21,2.72-2.38.56-.77.93-3.34,2.41-3.86.22,1.24-.82,2.89-.96,3.86-.15,1.04.15,2.33,0,3.38h1.93v.48c-1.2,1.03-2.26,3.08-3.86,3.86-.86,2.57-3.12,4.77-2.89,7.71.32.32,3.85-1.57,4.34-1.93,1.49-1.09,2-2.73,3.86-3.38-.23,1.5-.6,2.78-.48,4.34.02.21.37.98.48,1.45.78.8,4.75,2.78,2.17,4.07-.89.45-2.22-.39-2.83-.1-.54.26-.43,1.22-.59,1.3-1.37.71-3.36-1.27-4.14-2.27-.62-.79-2.54-1.98-2.43-2.95-.61-.17-1.22-.35-1.83-.54-.88,4-1.9,7.98-3.86,11.57-.27.03-.68.45-.96.48-.14.02-.34.02-.48,0ZM264.2,133.56c-.05.07-.05,1.18-.38,1.78-.34.62-2.51,4.42-2.76,4.49-1.05.33-.69-.73-.72-1.2-.09-1.6-.07-3.46,0-5.07.01-.32-.01-.64,0-.96,1.46-.17,2.28,1.36,3.86.96ZM333.66,77.14c-1.77-.93-.69-3.69-.96-5.3,1.77.93.69,3.69.96,5.3ZM395.17,358.26c.31.16.31.32,0,.48v-.48ZM365.52,358.03c-.43.37-3.06,2.51-3.38,2.16.4-2.12,1.62-3.98,1.51-6.2,2.93-.66,4.97-2.99,8.13-2.96.2.89-.49,1.15-.96,1.69-1.44,1.64-3.65,3.89-5.3,5.31ZM360.68,381.41c.52-.79.57-1.27,1.45-2.41.1-.12,0-.65.23-.97.67-.93,2.28-.25,3.15-.47.32-.08,1.34-1.45,2.41-.96-.46.95-1.33,1.81-2.41,1.93-.18.59-1.07,1.22-1.45,1.93-.14.26.13,1.03-.44,1.73-.51.62-1.09.47-1.49.68-.66.37-2.57,1.73-3.38.96-1.13-1.07,1.69-2.05,1.93-2.41Z"/>
    <path class="a3" d="M333.19,434.45c.11-.61.61-2.2.93-2.6.46-.58,1.41-.03,1.51-.55.27-1.38-.55-3.24-.55-4.8,0-1.3.61-2.61.52-3.62h.96c.07.34.17.38.48.48v1.93s0,3.86,0,3.86c0,.32,0,.64,0,.96.02,1.28-.05,2.58,0,3.86,0,.16-.02.32,0,.48l.48.96s.12.02.2.02c-1.54.43-2.94-.03-4.53-.02-.82,0-1.62,0-2.43,0,.2-1.69.58-.8,2.41-.96Z"/>
    <path class="a3" d="M321.12,425.29l.48,2.41c1.35.28,1.38-1.28,1.93-1.93.11-.13.37-.4.48-.48.04-.03.91-.47.96-.48.55-.12,1.73-.3,1.44.72-.08.09-5.13,5.01-6.94,8.37.07-.3.14-.6.19-.89.05-.3-.04-.65,0-.96-1.36-.16-2.5-1.42-2.65-1.42-.68,0-1.07,2.65-2.65,1.9.58-.76,1.02-1.98,1.73-2.86,1.24-1.54,3.16-4.44,5.03-4.38Z"/>
    <path class="a3" d="M144.64,326.76c.32-.63,1.17-1.12,1.37-1.76h.48c-.63,1.42-1.15,3.2-1.35,4.73-.12.97.39,1.76.19,2.52-.32,1.2-3.08,4.95-3.91,6.72-.31.67-.13,1.62-.49,2.4-.33.72-1.3,1.09-1.57,2.29-.45,1.95-.37,2.44,1.35,3.04,2.9,1,5.92-2.18,7.72-4.34.27-.07,1.87-1.2,1.44.23-.52,1.72-4.11,5.75-5.3,7.96-.03.06-1.1.99-.24.97,1.01-.02.89-.78,1.2-.97.77-.48,1.63-.97,2.41-1.45.13-.08.25-.41.48-.48.17-.05.75-.04.96,0,1.16.23.01.9,0,.96-.04.22-.05.76,0,.96-.98.79-2.18,2.18-2.41,3.38-.06.3.06.67,0,.96-.5-.17-.35-.7-.48-.96-.13-.26-.89-1.41-.96-1.45-.17-.08-.66.03-.96,0-.91-.09-2.08.16-2.89,0-.21-.04-.34-.38-.48-.48-1.62-1.19-.81-1.59-.48-3.37-.53-.53-2.56,2.12-3.61,0-.9-1.81.48-6.48,1.19-8.45,1.02-2.83,4.06-6.56,2.9-9.39,2.08.29,2.7-2.55,3.45-4.02Z"/>
    <path class="a3" d="M332.7,320.65c2.9,1.16,7.62,2.44,10.13,3.86.35.2,1.01,1.43,1.93,1.45-.09.83.44,1.65.48,2.41,0,.06-.75.38-.27.97l1.72.48c1.31,1.88.86,1.78,1.45,3.38-.31.1-.69.45-.96.48-4.37.57-6.06-1-9.65-1.45-.4-.69-1.18-.89-1.93-.96-1.58-2.71-.45-2.08-.51-4.13-.02-.63-.66-1.01-.82-1.55-.19-.62,0-1.27-.11-1.72-.16-.64-.86-.23-.97-.32-.69-.59-1.28-2.03-2.41-2.41-.03-.32.02-.65,0-.96.35.15,1.21.19,1.93.48Z"/>
    <path class="a3" d="M330.56,313.42c1.42.03,1.69,2.38,2.15,3.37-1.42.85-2.06,1.3-3.38,0-.29-1.47-1.44-3.42,1.23-3.37Z"/>
    <path class="a3" d="M334.15,334.64c.32-.03.65.02.96,0,1.11-.07,2.27.1,3.38,0l-.48,1.93c.63-.04,1.3.06,1.93,0,2.08-.2,5.31-.86,7.24-1.45.25-.08.66.05.96,0-.09.08,0,.68-.24.97-.31.37-5.22,1.07-6.62,1.58-1.05.38-2.93,1.76-3.49,1.78-2.64.09-9.76-4.3-3.63-4.8Z"/>
    <path class="a3" d="M315.49,297.11c1.13.32,3.04,1.49,4.2,2.09.49.26,1.22.12,1.44.23.45.23,3.88,2.73,4.82,3.38,2.97,2.04,7.16,5.33,9.88,7.72,1.35,1.19,5.64,5.2.87,3.47-3.33-1.21-6.18-4.76-9.3-5.89-.2-.7-.74-.98-1.45-.96-.83-1.46-4.01-3.13-5.53-4.35-.9-.73-5.82-4.61-6.04-5.06-.43-.86.53-.79,1.11-.63Z"/>
    <path class="a3" d="M249.49,158.15v-.48c.31.16.31.32,0,.48Z"/>
    <path class="a3" d="M104.02,159.83c-.12-1.96.93-2.55,1.03-4.31.22-4.17-2.1-8.19-1.45-13,.18-1.31,1.18-2.6,1.28-3.48.13-1.18-.93-2.94-.74-4.17.21-1.39,1.72-4.68,2.19-6.51.66-2.57,1.12-5.21,1.59-7.82l1.44,2.89c.69-2.08.95-4.98,1.95-6.88.31-.59.9-.29.95-.35,0,0,.02-.02.03-.05-.02.03-.03.05-.03.05-.27.18-.04,5.55,0,6.52.03.78.44,1.51.48,2.16.02.32,0,.65,0,.96-.01,2.41-1.36,3.9-1.36,6.03,0,2.34,1.65,4.47,1.84,6.51h-.96c-.57-2.5-2.52-1.8-2.43.71.06,1.91,2.61,8.69,3.88,9.9v.48c-1.34-.95-3.71-.6-3.88,1.22-.25,2.76,4.13,3.52,3.88,6.49v.48c-2.13-.35-2.34,2.42-2.43,4.11-.21,4.22,3.6,5.67,5.58,8.4,2.32,3.21,1.59,6.46,2.36,9.7.38,1.6,2.06,3.06,2.2,4.59.09.96-.38,2.4-.48,3.58-.04.48.03.97,0,1.45-.03.5.15,1.12,0,1.59-.16.52-1.29.15-.95,1.04.26.68,1.57,1.87,2.01,2.82.55,1.17,1.79,4.9,1.83,6.13-.43-.34-1.06-.61-1.45-.96-2.59,1.43-3.28-2.2-4.34-3.86-1.79-1.81-3.92-4.85-3.9-7.47,0-.98.58-1.96.45-2.79-.12-.76-.93-1.33-.91-2.5.01-.79.54-1.49.43-2.32-1.01-7.27-9.55-13.05-10.07-21.33Z"/>
    <path class="a3" d="M333.67,319.2s-.01-.32,0-.48c2.32.36,6.78.11,7.72,2.65-2.55.25-4.99-2.23-7.72-2.17Z"/>
    <path class="a3" d="M157.11,368.39c.24-.54.81-1.93.96-2.41h.48c-.08.09-.47,2.13-.48,2.41-.03.88.52,1.08,0,2.89-1.01-.13-1.09-.04-.96.96-.14.11-1.13,2.41-1.93,2.89-.12.07-.37-.07-.48,0-.47.31-1.87,1.17-2.41,1.45l-.48-.48c.13-1.29.06-3.01,0-4.34,0-.16.01-.32,0-.48l.72-.97.72.97c0,.15-.02.33,0,.48.02.16-.02.32,0,.48.3-.05.7.07.96,0,1.29-.35,2.38-2.69,2.89-3.86Z"/>
    <path class="a3" d="M194.73,403.59c-.82.2-2.16.83-2.89.24,1-.67,2.71-2.04,3.86-2.17l-.96,1.93Z"/>
    <path class="a3" d="M386.73,243.5c-1.04,2.23-1.28,4.79-1.45,7.23-.11.14-.59-.25-.73-.48-2.26-3.74-3.3-13.57-4.96-18.19-.42-1.18-1.51-3-2.49-3.78-.45-.36-3.44-2.26-3.85-2.41-2.36-.86-1.92.78-2.23.78-.48-.01-1.08-.51-1.86-.49-4.97.15-6.56,3.93-7.53,8.18-.86.15-1.42-.43-1.48-1.22l3.88-10.62c.32-3.4.63-6.7.52-10.13-.05-1.64-1.46-3.64.7-4.08,2.71-.54,2.15.35,3.17,1.15,4.19,3.29,6.74,6.96,10.09,11.15,2.47,3.1,4.8,6.32,5.32,10.36.3-.04.73.08.96,0v3.86s.96,0,.96,0c.24,2.5.71,4.76.96,7.23.04.38-.09,1.35,0,1.45Z"/>
    <path class="a3" d="M148.53,363.5c2.16-.42,4.31-2.91,5.2-4.75h.96c-.55,2.11-1.46,5.88-2.41,7.72-.26.51-1.9,1.84-2.41,2.41-.52-.13-1.33.09-1.93,0-.07,1-.17,2.2-.96,2.89-.08-1.72.2-1.35.44-2.67.04-.23-.82-.45-.93-.7-.74-1.77-.29-3.15,0-4.82.1-.58-.08-1.31,0-1.93h.96v1.45c.07,0,.36.55,1.07.42Z"/>
    <path class="a3" d="M323.3,299.92v-.48c.31.16.31.32,0,.48Z"/>
    <path class="a3" d="M150.35,353.92c1.34-.03,1.58-.37,1.46,1.21-.21,2.66-1.91,2.51-3.02,4.47l-.85.11h-.48c0-.32,0-.64,0-.96h.48c1.59.06,2.41-3.47,2.41-4.82Z"/>
    <path class="a3" d="M126.85,215.62c.56.07,1.21.69,1.79.88.04.15-.03.33,0,.48,0,.05.04.13.07.23-.04-.1-.06-.19-.07-.23l-2.41-.96c.06-.02.15-.45.62-.4Z"/>
    <path class="a3" d="M131.87,219.53c.34.45.39.95.63,1.31.64.95.55.63,1.45.96,1.57.58,2.58.6,4.34.48.14.97-.79,1.23-.96,2.18-.41,2.23.14,3.47,2.41,3.61.48.03.97-.02,1.45,0,.04.14.52.13.29.94-.97,3.5-4.73,6.91-3.67,11.12-1.09,1.34-.05,2.67,0,3.86.07,1.66-.79,3.31-.5,5.04.07.43,1.17.34,1.47.26l.96.48c.08,1.33-.21,2.65,1.68,2.42.46-.06.65-.47.73-.49.49-.14,1.01-.19,1.45-.48.16.48.42.5.48,1.45-.7.2-.98.74-.96,1.45-1.12.48-1.66,2.24-1.93,3.38-1.02.33-1.01,1.55-1.45,2.41v.48c-.27.14-.52.52-.96.48-.06.46.08,1.02,0,1.45-.06.3.06.67,0,.96-.17.84-1.29,1.76-.96,2.89.11.11,2.32-.87,2.41-.96.08-.08.61-1.39.96-1.93.07-.11-.07-.37,0-.48.18-.29,1.15-.56.96-1.45h.48c.44-.05.42.14.48.48.27,1.6-.2,4.12-.48,5.79-.14.84-.82,1.79-.48,2.89,1.39-.65,1.98-2.69,3.86-2.41-.07.07.01,1.09,0,1.45-.02.7-.08,1.39.09,2.08l.39.33c-.45,4.85.68,11.02-.02,15.65-.29,1.89-2.97,6.1-3.84,8.46-1.4-.31-.79.68-.96.96-1.29,2.15-1.71,2.65-1.93,5.3-.07.79.05,1.61,0,2.41-.03.54.11,1.11-.01,1.65-.2.89-1.08,1.44-.97,2.41.02.15,1.01,2.47,1.11,2.57.32.3,1.24.14,1.61.57.99,1.17-3.2,10.8-4.14,12.57-.1.19-3.46,3.8-1.2,3.38,1.49-.28,1.98-2.5,2.65-3.38.82-1.07,1.99-2.52,2.9-3.61.26-.32.97-1.33,1.43-.98-.39.94-1.35,2.49-1.44,3.42-.11,1.15.71,2.23.43,3.24-.4,1.41-2.51,1.04-1.39,3.72.02.04.05.07.09.11-.04-.04-.08-.08-.09-.11-1.71-1.26-2.24,1-3.13,1.94-1.54,1.64-4.75,5.2-6.69,5.86-.53.18-1.13.54-1.28-.34-.09-.5.91-2.04,1.25-2.6l4.54-6.31c-2.95-.18-3.76,3.39-7.24,2.41-1.37-1.26,4.11-7.28,5.03-8.72,1.02-1.61,1.93-3.28,2.68-5.03-1.37-.06-2.18,1.5-3.19,2.11-3.18,1.92-6.6.16-3.8-3.32,1.25-1.56,5.71-5.02,6.28-6.26.37-.81.33-2,.25-2.89,2.95.1,1.37-1.54,1.41-3.12.11-3.65,4.43-7.51,4.78-9.76.06-.4-.09-3.56-1.37-3.04.14-.46.42-2.29.48-2.89.03-.31.07-1.3,0-1.45-.33-.71-.63.38-.48-1.45.03-.43.05-1.03,0-1.45-.23-1.83-.62-3.14-.48-5.3-.78-.96-.81-2.85,0-3.86-.11-1.71.19-3.65,0-5.3-.01-.13-.95-1.46-.48-2.41l-2.41.48c-.18-.99.15-1.85.34-2.79.14-.67.41-2.89,1.58-2.52.08-.43-.06-.99,0-1.45.07-.51.48-.91.48-.96.04-.47,0-.97,0-1.45-1.95.22-.55-.97-.48-1.45.04-.3-.02-.65,0-.96-1.49.3-.85-.73-.96-1.93-.03-.32,0-.65,0-.96-.01-.41,0-.63,0-.96,0-.32,0-.64,0-.96l-3.38-.97c-.31-.64.47-1.33.48-1.44.04-.55-.41-1.32-.48-1.93-.09-.81,0-.53,0-.96,0-.34.05-1.39,0-1.45-.11-.11-.85.1-.96,0-.34-.32.47-.91.48-.96.07-.4.02-1,0-1.45-1.9.18-.53-.67-.48-.96.58-3.63,1.61-3.45,2.65-6.28.97-2.64.84-5.78-1.18-7.96-.73-.78-2.27-1.12-2.36-1.26-.24-.34.07-3.74-1.27-5.24-.65-.73-1.97-.23-2.17-.97h1.93c.04.05.65-.09.82.14Z"/>
    <path class="a3" d="M123.12,203.49c.08-.33.15-.65.22-.97.07-.29.48-.45.48-.48l-.48.48c-.07.32-.14.65-.22.97Z"/>
    <path class="a3" d="M124.52,212.45c-.05-.13-.11-.23-.21-.29-.03-.02-.07-.02-.14,0,.06,0,.11,0,.14,0,.1.06.17.16.21.29Z"/>
    <path class="a3" d="M321.61,298.95c-.44-1.04-1.66-2.96-2.41-3.86,1.03-.01,1.38-.37,2.09.59.31.43,1.68,2.33,1.77,2.55.44,1.07-.92.63-1.44.72Z"/>
    <path class="a3" d="M122.85,210.71l-.22-.22c-.11-.1-.22-.2-.35-.32.12.12.24.22.35.31l.22.22Z"/>
    <path class="a3" d="M373.28,238.01c1.35-1.81,2.54-.29,3.81.67.24,2.96,1.06,6.44,1.45,9.64h-.48c-.23-1.98-1.85-5.68-3.17-7.19-.92-1.05-3.01-1.22-1.6-3.12Z"/>
    <path class="a3" d="M119.48,101.25s-.07.05-.12.08c.05-.02.09-.05.12-.08,1.53-1.6,5.3-1.22,6.75.48-2.38-.61-4.17-1.63-6.75-.48Z"/>
    <path class="a3" d="M344.84,176.39c-.14-.09-1.11-2.19-1.74-2.83-.48-.49-3.93-2.19-3.15-2.87.65-.57,6.87,2.5,7.51,3.37.74,1-1.27,3.25-2.61,2.34Z"/>
    <path class="a3" d="M129.13,102.7c.61.26,2.68.88,2.83,1.05.21.25,0,.69.06.88-1.27-.26-2.33-.69-2.89-1.93Z"/>
    <path class="a3" d="M372.26,262.79c.3-.12.93.02,1.45-.22,1.62-.73,2.63-2.24,4.82-1.71,0,.18.52.6.39,1.13-.36,1.46-5.65,4.03-7.12,4.93-.44.27-1,1.12-1.24,1.18-2.1.48-1.14-4.18,1.7-5.3Z"/>
    <path class="a3" d="M175.6,89.91c.13.15.27.31.42.49-.15-.18-.28-.34-.42-.49Z"/>
    <path class="a3" d="M189.43,418.05c-.14-.02-.31-.02-.47-.02.17,0,.33,0,.47.02h0Z"/>
    <path class="a3" d="M336.08,213.12c-.19-1.52.05-3.33,1.93-3.37l-.48,3.38h-1.44Z"/>
    <path class="a3" d="M175.17,89.42c.1.11.22.24.34.38-.12-.14-.24-.28-.34-.38Z"/>
    <path class="a3" d="M237.67,121.51l-1.68-3.38c-1.59-1.62-4.22.92-4.85,2.43-.2.47-.17,1.36-.23,1.44-.24.32-3.86-.97-4.61-.93-.68.04-1.06.73-1.49.81-.61.12-1.37-.53-2.24-.3-.9.24-1.73,2.05-2.75,2.35.18-1.07-1.23-2.06-1.34-2.72-.17-1.06,1.4-2.61-.85-3.07-.38-.08-1.87-.1-2.16,0,1.11-2.46-.3-4.68,0-7.23-.17-.18-1.15.48-1.63.4-.83-.15-6.96-10.04-8.1-11.64-3.6-5.07-7.53-9.88-11.04-15.01-4.45-3.14-8.39-5.42-13.84-6.42-1.24-.23-7.08-1.01-7.89-.84-2.04.42-.93,1.55-1.01,2.4-.39,4.01.07,6.55,2.99,9.41.03.03.07.07.11.11-.04-.04-.07-.08-.11-.11-.66-3.57,3.33-5.43,6.27-4.1.22.1,3.3,2.75,3.64,3.11,1.66,1.74,3.69,4.86,5.54,7.02.3.35.42,1.07.54,1.16.16.11,2.22-.84,3.55.52,1,1.04.47,2.84.78,3.3.6.89,3.52-.2,3.8.07,1.12,1.1-2.14,2.6-2.34,3.2-.89,2.63,1.7,1.3,3.54,1.63.68.12,1.11.74,1.54.83.59.11,2.24-.69,2.57-.35.14.14-.4,3.48-.6,3.98-.3.78-2.63,2.44-1.81,3.25.9.89,5.36-3.2,6.27-2.41.3,2.07-4.55,3.97-4.82,4.35-.06.09-.17,1.02.24.96l3.61-.48c.6,1.23-.95.78-1,1.25-.13,1.2,1.11,4.27.52,5.98-1.34,2.17-.33,5.59-.96,8.68-.02.08-.36,1.08-.48,1.45-.4,1.23-.86,1.65-.96,1.93-1.11.22-2.65-.27-2.89-1.45-.14-.69.11-1.66,0-2.41-1.95-.54-1.71,1.44-2.41,2.41-.34.46-1.56.79-1.84,1.78-.28,1-.04,2.31-.31,3.55-.22,1.02-2.32,7.71-2.65,7.97-1.22.94-3.37-1.36-4.13-2.2-.41-.18.08,1.41-.96.96-.96-.42-.64-1.66-.73-2.41q-.06-.48,0,0c-2.97.56-4.26-1.49-5.06,2.41l-2.9-3.37c-2.41,1.18-1.16,5.76-1.9,6.77-.26.35-1.53.63-2.22,1.16-2.25,1.73-2.02,4.51-5.49,4.62-.47.02-1.26-3.83-1.77-4.56-.41-.58-1.42-.71-1.44-1.06-.04-.57.54-1.26.43-1.81-.09-.46-1.03-.95-1.36-2.23-.62-2.38.34-2.66-3.38-2.41v-.96c-.3-.07-.74.08-.96,0-.14-.05-.34.05-.48,0l-.48-.48c-.6-.55-1.06-1.72-1.61-2.25-1.99-1.93-4.5-3.23-5.63-5.94-.16-.38-.46-.91-.48-.96-.09-.25.08-.7,0-.96-.19-.6-.47-.91-.48-.96-.19-.63-.3-1.3-.48-1.93-.54-1.84-.55-.55-.96-.96-.09-.09-.33-1.86-.48-2.41-.5-1.77-.43-.55-.96-.96-.29-.22-2.68-4.98-3.66-6.23-2.06-2.66-5.36-4.88-6.47-7.75-.16-.42-.4-.74-.48-.96-.38-.98-.46-1.08-.96-1.93-.08-.13.15-.63-.05-.9-1.96.18-3.46-.62-5.26-1.03-.42-.09-1.01.09-1.45,0,.82,2.35,2,3.08,2.41,6.03.44,3.13.81,5.33,1.45,8.44.72.29,1.09.8,1.45,1.45.21.38.3.42.48.96.83.36,1.44.98,1.45,1.93,2.49,1.7,6.89,9.98,7.94,13.04.89,2.6.51,7.44,4.63,6.04,1.05-.36,1.55-1.22,1.9-2.2.45-1.24.56-2.55.49-3.86,1.24.66,1.68,2.32,2.41,3.38.7,1.02,3.54,4.37,3.38,5.3l.48.96c1.46.61,5.68,11.28,6.15,13.4.16.73.04,1.4.12,2.03.01.1.54.47.54,1.21,0,.73-.53,1.12-.54,1.21-.24,2.21-1.04,4.83-.96,6.75.03.91.38,1.62.48,2.41h-.96c-.09-.78.06-1.62,0-2.41h-1.93c-.27,2.42.79,4.61,1.68,6.78.31.76-.09,1.7,1.21,1.42.02.16-.02.32,0,.48.02.16-.03.34,0,.48.07.3.37.64.48.96-.16-.01-.55.53-.86.36-.08-.04-.08-.48-.3-.64-.39-.27-1.05-.29-1.26-.69h-.96c.29.81,1.05,2.94.97,3.6-.09.82-1.06,1.28-.99,2.39.05.82,1.12,2.21,1.46,3.66.06.24.24.43.48.48.12-.16.75-.23.9-.81.2-.77-.42-1.35-.42-1.6l-1.44-3.37,1.93,2.41c.06-.06.56.11.82-.15.24-.25.09-.77.14-.82.04-.31-.05-.67,0-.96.18-1.02.29-2.62.48-3.38.01-.05.35-.67.48-.96.66-1.46.95-.79.96-3.38,0-.32,0-.64,0-.96-.11-4.78.14-7.66,2.68-12.02.5-.86,4-5.43,5.03-4.37.04,1.79.14,3.59-.48,5.3.08-.14.35-.27.48-.48,1.03-1.68,3.46-5.85,3.78-7.59.21-1.11-.4-1.76-.41-2.53-.02-1.71,1.18-1.46,1.93-1.93.81-.51,1.24-.9,1.93-1.45v-2.89s.48,0,.48,0c.33.64.28,1.95.49,2.41.09.2,2.13,3.25,2.41,3.62,1.63,2.09,3.73,1.73,2.89,5.55.33-.15.63-.34.96-.48.18-1.15.57-2.45,1.93-2.41-.09.42.07.99,0,1.45h.96c.03-.64.44-1.3.48-1.93-.3.05-.71-.07-.96,0-.07-.41.43-.78.48-.96,1.24-4.39,7.26-14.11,7.24-17.36h1.45c.01.16-.02.33,0,.48.2,1.65.85,3.41.48,5.3,1.11.25.78-.15,1.1-.61.92-1.33.58-2.21,2.76-1.8-.55,2.53-.6,5.12-.48,7.71,1.1.5,1.57,1.93,2.89,1.93-.26-1.89,1.11-14.96,1.93-15.91-.27-1.23-2.26.67-2.41.48-.42-1.05.37-1.91.48-2.41.24-1.11.55-2.15.55-3.31l2.34-1.03.24-1.45c.5,0,.14,1.01.24,1.45.11.44.37.87.48,1.45.61-.07,1.36.1,1.93,0,.53-.1,2.25-1.27,2.89,0,.69.03,1.26.27,1.45.96,1.43.49.59,1.23,2.89.48v-2.41c.69-.04,1.26,1.36,1.45,1.45.33.15,1.31-.19,1.71.45.14.22.86,3.03,1.18,3.89h.96s0,.96,0,.96c3.45.12,2.78-2.17,2.89-4.82.03-.72-.25-1.9.24-2.41,1.91,1.73,3.32,3.31,4.1,5.78.32,1.01.41,1.3.48,2.41h.96c.18-4.04.7-7.66.96-11.57.03-.48-.02-.97,0-1.45.03-.79.04-1.62,0-2.41ZM208,115.24v-.48c.31.16.31.32,0,.48Z"/>
  </g>
</svg>