<?xml version="1.0" encoding="UTF-8"?>
<svg id="a3" xmlns="http://www.w3.org/2000/svg" viewBox="0 0 600 500">
  <defs>
    <style>
      .a3 {
        fill: #a98e6a;
      }

      .cls-2 {
        fill: #c9caca;
      }
    </style>
  </defs>
  <g>
    <path class="a3" d="M395.62,421.43c-.08-.15-.41-.29-.48-.48h-.48c.43.69,3.08,3.61,3.62,3.85.98.45.67-.92.72-.96-.82.8-2.93-1.62-3.38-2.41Z"/>
    <path class="a3" d="M392.24,419.02c-.75-.06-1.5-.46-2.41-.48-.8-.02-1.61-.02-2.41,0-.63.02-1.33-.07-1.93,0-1.54.19-3.78.94-5.31,1.45-.6.2-1.39.63-2.41.96-.1.4.07,1,0,1.45,1.37-.28,3.17-1.57,4.93-2.07,3.44-.97,7.63-1.09,11.13-.34.4.09.58.67.83.95-.28-.46-.35-1.45-.96-1.93-.45.04-1,.04-1.45,0Z"/>
    <path class="a3" d="M399,423.84c.14-.12,0-.96,0-.96-.02.29.05.91,0,.96Z"/>
    <path class="a3" d="M375.84,422.39c-.1.35-.4,1.87-.48,1.93-.98.68-1.77-.88-1.93-.96-.29-.16-.65-.32-.96-.48-.9-.46-4.84-1.53-5.23-2.3-.35-.7,1.11-4.03,1.37-4.93h-2.41c-.06.62.09,1.31,0,1.93-.06.46-.41,1.12-.47,1.38-.1.43-5.37-3.48-5.88-3.78-.49.52-.76,1.62-.88,2.4-.04.25-.04.72,0,.96h0c.06.33,1.05,3.07,1.23,3.35,1.45,2.33,3.52.57,4.77-.77.19-.21.65-.18.69-.24.05-.08-.35-1.79-.41-1.86h.48c0,.18.61,2.35.77,2.46.41.29,1.98.59,2.78.98,1.12.55,5.27,3.39,6.04,2.75.21-.17-.02-.8.05-.89.14-.18,2.23-.4,1.93-1.93h0c-.46.06-.98-.06-1.45,0Z"/>
    <path class="a3" d="M420.7,394.43c-.3-.14-.73-.11-.96-.48-.54.1-1.51-.21-1.87.08-.22.17.02.78-.06.89-.07.11-.76.46-.96.48-.16.01-.32,0-.48,0l-2,4.76c-.44.2-.93.01-1.37.06-.48.05-1.82-.1-1.93,0-.59.58,2.02,3.16-.97,3.86-.41.1-.99-.07-1.45,0-.08.55.9.79.96.96h.48c.74.81,2.11,1.2,1.93,2.41-.8,0-1.61,0-2.41,0-1.57-.01-2.82-.19-4.34-.48.77,1.43,2.14,1.83,3.38,2.89.05.05.09.09.14.13-.04-.04-.08-.08-.14-.13-.69-2.76,2.5-.68,3.88-1.66.44-.31.71-1.89,1.2-2.66.71-1.09,2.49-1.86,2.58-2,.52-.74-.93-1.93-.95-3.06-.04-1.73,1.55-3.32,1.48-5.08.21-.02.89-.37.96-.48,1.81-.93,2.93.45,4.57.97,1.68.53,3.57,1.27,5.32,1.44,1.45.14,6.54.49,7-.97-5.39.2-9.08.33-13.99-1.93Z"/>
    <path class="a3" d="M409.36,416.13c-3.08-2.74-8.51-6.11-12.3-7.72-.32-.14-.91-.47-.96-.48-.29-.05-.65.02-.96,0,.68,2.92,2.04,5.73,2.89,8.68.15.51.41,1.14.48,1.45.01.05.02.1.02.17,0-.06-.01-.12-.02-.17.35-.62.99-.98,1.45-1.45.59-.61,1.59-2.04,2.14-1.91.2.05,1.72,1.55,2.42,1.93.99.53,1.95.63,2.81,1.05,1.33.65.94,1.66,2.27.86.18-.11.32-.3.41-.41l.07-.07c.12-.05.31.03.48,0,0-.93-.6-1.38-1.21-1.92Z"/>
    <path class="a3" d="M445.31,378.51l-.48-.48c-.96.1-1.06-.6-1.45-.96-1.31-1.22-5.77-4.22-6.27-4.82h-.96c-.11.18-1.13.38-.96,1.17.26,1.16,4.51,3.74,4.82,7.51.03.37.08,1.18,0,1.45-.19.63-.41.45-.96.48-2.36.14-2.63-3.7-5.79-2.89l-.48.48c0,.32,0,.64,0,.96,1.21-.14,1.4.96,1.93,1.45,1.91,1.74,4.71,4.04,0,4.34-.25,1.19,1.31,1.61,1.68,2.41,1.22,2.58-.86,1.6-1.46,2.4-.34.46-.13,1.34-.22,1.45.46-.05,1.02.08,1.45,0v.96s-1.45,0-1.45,0c.06.05-.02.69,0,.96l3.38.96c-1.49-2.88.99-2.59,1.42-3.64.61-1.49-.88-1.1-.94-1.18-.13-.17-.19-3.18-1.45-3.85,1.55-.04,2.83-.4,2.83-2.15,0-1.48-1.44-2.06,1.03-2.67,1.84.52,5.4,2.12,5.8-.74.26-1.86-1.2-2.01-1.46-3.59.21-.4.46-.68.72-.88-.27.2-.51.48-.72.88Z"/>
    <path class="a3" d="M261.03,434.45c-.28-.03-.7-.45-.96-.48-1.96-3.59-2.99-7.58-3.86-11.57-.61.18-1.22.37-1.83.54.11.98-1.81,2.16-2.43,2.95-.78.99-2.77,2.98-4.14,2.27-.15-.08-.04-1.05-.59-1.3-.61-.29-1.94.55-2.83.1-2.58-1.29,1.39-3.27,2.17-4.07.11-.47.47-1.24.48-1.45.11-1.56-.25-2.84-.48-4.34,1.86.65,2.37,2.29,3.86,3.38.49.36,4.02,2.25,4.34,1.93.23-2.94-2.03-5.14-2.89-7.71-1.6-.78-2.66-2.83-3.86-3.86v-.48h1.93c-.15-1.05.15-2.33,0-3.38-.14-.97-1.18-2.62-.96-3.86,1.48.52,1.85,3.09,2.41,3.86.12.16,2.54,2.34,2.72,2.38.62.12,1.25-1.08,2.11-.93l.48-.48c-.3-1.37-.36-2.43-.96-3.86-.21-.5-1.97-2.36-1.45-2.89l2.41.48c.33-1.07,1.22-2.61.92-3.54-.44-1.36-3.01-.79-3.33-3.69h-1.93c-.64,0-1.29.03-1.93,0l-.3.46-.67-.46c-1.64.01-1.72-1.72-1.48-3.09.07-.37,2.94-.43,3.68-2.67.78-2.36-.69-2.07-1.24-2.92l-.96-.48c-.98.13-2.85.11-3.86,0-.53-.06-.81-.45-.96-.48-1.07-.25-2.68.43-2.43-1.68.12-.99,1.16-1.3,1.38-2.03.46-1.48-.27-3.62.18-5.12.39-1.3,3.3-2.02,1.13-4.2-.85-.86-2.81-1.29-3.06-1.55-.32-.33.01-1.15-.09-1.33-.05-.1-1.46.36-.97-1.44.47-.05.98.05,1.45,0,.87-.1,1.58-.27,2.41-.48l1.93-1.93c.46-1.69.67-3,.48-4.82-.02-.23-.89-1.11-.48-1.93.98-.4,1.22.88,1.45.96,1.68.64,5.35-.42,6.51-1.94.47-.62.65-1.85.73-1.92.33-1.36-.39-2.68-.48-3.86-.02-.3-.03-.66,0-.96l-.4-.32-.08-1.13c-.25-.39-.11-.68-.95-1.81-1.83-2.45-3.05-5.13-6.77-4.95-.39,3.1,1.04,5.75,1.93,8.68.47,1.56,1.69,2.32,0,3.38-4.15,2.58-4.1-.52-6.79-2.61-1.58-1.22-2.1-1.22-3.82-1.73-1.51,1.5-1.8,1.29-2.41-.48-.31-.88-.59-2.09-.96-2.89-.21-.46-1.15-.99-.96-1.93-1.42-.96-1.18-1.52-1.93-2.41-1.05-1.24-2.22-2.46-3.37-3.62,1.26-.51,3.14,1.61,3.37,1.69,1.49.54,5.04.36,6.75.48,2.86-1.22,4.4-2.88,7.24-.48.47-.21,4.02.57,3.37-.72-.24-.47-1.21-1.1-1.65-1.73-.87-1.26-1.5-2.65-2.48-3.82l-4.55,2.41c-.74-2.41,2.72-4.26,2.9-6.05.13-1.31-1.68-5.06-1.48-6.68.04-.34.91-.21,1-.6.1-.42.09-2.39-.04-2.54-.39-.46-6.42-.75-7.43-2.94-1.8-3.92,2.89-2.32,4.57-3.13.95-.46,3.79-4.75,5.79-6.03.02-1.01.78-1.57,1.44-2.18.93-.85,3.93-3.48,4.83-3.61,2.01-.27,2.32.66,3.65.95.55.12,1.11-.02,1.65.01,1.62.09,3.71.12,5.31,0,1.47-.11,4.05-1.04,4.82-.96l.96-.48c.14-.29,4.95-2.44,5.79-2.89.15-.71,1.77-1.86,2.33-2.73,1.29-1.99,1.14-4.18,4.21-4.53,1.08-.12.59.89.7.99l-.45,1.17.45.28c.34-.39,1.29-.64,1.45-1.45.16,0,.33.03.48,0,.13-.02.57-.57.96-.48.58-1.65,2.79-1.78,2.89-1.93.07-.1-.17-.61.07-.88.93-1.04,4.83-1.55,5.71-2.98-3.58-.79-5.77,1.37-8.68,2.41-.27.1-.39.43-1.16.51-.61.07-4.01.13-4.15-.02-.07-.07,0-1.49,0-1.93,0-.32,0-.64,0-.96-4.07-1.59-7.55,1.84-11.58,2.89-.14.04-.99.95-1.45.48-.36-.36.36-1.32.96-1.44-.2-1.15-.15-2.63-.48-3.86.77-.08,1.66.11,2.41,0,.17-.03.62-.39,1.45-.48,2.08-.22,6.56-.13,8.2-1.69.45-.43.76-1.42.48-1.68-.16-.15-3.6-.04-4.34,0-1.37.07-.87.37-2.89,0-.32-.06-1.14-.06-1.45,0-.03,0,0,.39-.24.48-.33.18-.57-.82.24-.96.39-.07,1.33.11,1.45,0,.07-.07-.16-.64.06-.89.41-.48,1.97-.36,2.35-.56.24-.13,2.34-2.26,2.42-2.64.28-1.47.07-3.53-1.45-4.11-.69-.26-2.08-.27-2.89-.49v-.47c.6-.32,2.03-.29,2.41-.49,1.6-.81,1.61-4.27,2.27-5.68.41-.87,1.63-.27,1.09-2.74-.17-.76-.8-1.24-.93-1.96-.79-4.26,1.07-6.41,2.88-9.87.22-.43.28-2.1,1.46-1.22.71.53,2.81,3.84-.01,3.15-.02.32.04.67,0,.96.7.3,1.13.65.96,1.44-.45.08-1.08-.11-1.45,0-1.87.55-2.98,1.88-.48,2.41.42.09.99-.07,1.45,0,.27,1.5-.49.74-.97.96-.45.21-2.09,1.84-1.45,2.41.78.69,8.51-.63,10.13-.96.51-.11,1.38-.89,2.41-.48-.14,1.12-1.49,1.14-1.93,1.44-1.44,1-2.16,1.36-2.89,2.89h.48c2.95.27,5.58-1.31,8.2-2.41.23-.1.74.1.96,0-.04.99.44,1.44-.6,2.07-2.13,1.29-5.75,2.22-8.07,3.49-2.17,2.86,3.09,1.39,4.82.96,1.4-.35,6.56-2.73,6.95-2.68,2.49.27,2.32,1.96,1.72,3.88.43-.09,1.03.09,1.45,0,.26-1.15-.63-2.91,1.45-2.89.25-1.25.57-1.19.96-1.93.24-.45.04-1.29.96-1.45,0-2.11,2.02-4.81,3.86-5.79l.48-.96c-.02-.22.8-3.48.96-4.34.19-.99.16-1.33.48-2.41.61-2.04,1.1-2.05,1.93-3.38.48-.78.53-2.56,1.93-2.41.15-1.26-.5-1.74,1.45-1.45.51-1.29.53-2.44.96-3.86.08-.25-.05-.66,0-.96-.03,0-.12-.52-.48-.48-.7,1.93-2.66,2.87-3.86,3.86-.88.72-.79.76-1.93,1.45-4.12,2.5-3.34,1.13-7.24,1.93-.11.02-1.47.76-1.93.96-1.38.63-2.23,1.35-3.86,1.93-1.22,1.74-2.84,3.21-4.71,4.22-.34.19-.84.03-1.08.12-.12.05-.93.44-.96.48-.7.99.5.7-1.93,1.45-.08.03-.26.5-.71.5-1.53.02-1.03-1.87-1.48-2.89-.66-1.51-3.61-4.21-3.6-5.33-.92-.66-2.48-1.88-2.89-2.89-.49-1.2-.53-2.32,0-3.38.23-.46,1.88-3.17,2.04-3.28.31-.23.71-.03.86-.09.45-1.19,1.19-2.2,1.45-2.89.34-.9.2-2.29.75-3.35.6-1.15,2.22-1.65,2.52-2.09.31-.46.01-1.12.11-1.32l-.39-.31c-.19-.9-.19-1.85,0-2.75l.39-.31c-.09-.21-.4-1.55-.48-1.93-.81-.22-1.01-.96-1.45-1.45-1.94-2.17-4.16-4.12-3.38-7.4.04-.16,1.77-.84.96-2.73,1.27-.04,2.54-.14,3.38.97h.48c-.13-.14.1-2.4-.02-3.11-.18-1.06-1.16-2.03-.94-3.15.15-.79,1.28-.44,1.93-.48-.18-.93.36-1.09.48-1.45.08-.24-.05-.67,0-.96.61.27,1.25-.58.96,1.45.06.08-.18.63.12.86.32.24,1.06-.01,1.27.14.19.14.49,2.88,1.5,4.3.5.69,2.61,2.68,3.38,2.89,1.59.44,2.2-.54,2.89,2.41h.96c-.12-3.1-.98-4.92-.96-8.2-1.05.3-1.27-.77-1.45-1.68,0-.45.99-.24,1.45-.25,1.24-.02,3.7.13,4.34-1.21.63-1.32-3.38-1.19-3.86-1.2-.5-.01-1.95.21-1.93-.24-.09-1.06,1.41-1.56,1.93-2.17,3.08-3.61,1.63-5.32-2.9-4.82-.14-2.07,1.47-3.57.96-5.78-.77-.26-1.42.39-1.93.48-.48,1.05-1.22,1.64-2.41,1.44v-.96c-.67.08-1.97.12-2.6.02-.58-.09-.21-.87-.3-.99-.16-.21-.89-.42-.96-.96-.36.05-1.11.06-1.45,0-.52.83-1.17.34-1.45-.48-.19-.08-.58-2.4-1.45-1.44-.23.25.18,5.39,0,6.52-.16.99-.94,1.12-.96,1.19-.96.04-1.34-.66-1.94-1.2-2.12-1.93-5.06-4.95-4.82-7.96,1.21,0,2.36.9,2.89,1.93h.48c-.75-.58-1.13-7.22-.99-8.46.12-1.09.15-1.68,1.47-1.66,0-.16,0-.32,0-.48-.09-2.02-.74-4.45-.48-6.27l-.48-.96c-.19-.22-.02-4.89,0-5.79.01-.53-.09-1.07.09-1.6l.4-.33c-.2-1.98.12-4.24,0-6.27-.82-.25-1.3-.94-.48-1.45-.07-1.4-.05-2.94,0-4.34.01-.38-.05-.76.08-1.13l.4-.32c-.17-1.53.52-6.36-2.44-3.65-.23.21-1.85,2.06-1.9,2.2-.26.68.62,1.99-1.17,1.39-.55-.19-.63-.81-.76-.91-.97-.66-2.15-1.25-2.9-2.16-2.06-2.5-3.17-8.01-7.18-8.01-1.04-4.05-2.02-8.58-3.42-12.49-.27-.74-.38-1.68-.48-1.93l.48-.48c.3.64,1.55,1.33,1.45,2.41,1.19.34,2.24,1.44,3.86.96.3-.29-1.16-3.7-1.45-4.34-.42-.94-.33-1.54-.48-1.93-.06-.15-1.8-1.25-2.31-2.28-.62-1.26-1.27-6.04-1.55-6.4.98-2.92,1.52-6.39,1.88-9.45.52-4.39,1.39-10.43,1.5-14.66.06-2.45.95-1.88,1.45,0,1.5-.12,2.77-.13,2.41-1.93l2.41.48c-.35-2.91-.61-5.74-.48-8.68.02-.49-.35-2.45.72-1.93,1.03.51,3.17,3.35,4.11,4.34,2.71.65,4.81,3.62,8.2,2.89h.48c-.1-.4.07-1,0-1.45.65-.05,1.13-.89,2.41-.25.99.5,2.73,3.64,3.86,4.59.07.06,1.25.84,1.45.96,2.73,1.73,1.41-3.86,4.52-2.84.26.09,2.76,3.96,3.13,4.6.65,1.13.83,2.52,1.59,3.71,2.61,4.08,8.82,2.74,12.25,5.14.36.25.47.74.7.97.79.82.71,1.12.96,1.45,5.37,6.82,8.36,15.73,10.86,24.1.61,2.04.73,4.87,1.42,6.77,1,2.73,3.22,6,4.34,9.16.71,2.01,1.14,5.6,1.97,7.19.86,1.64,4.4,4.34,5.45,6.12,2.61,4.42.7,5.2,5.86,8.85.9.64,2.76,1.11,3.38,2.41.3.07.64.37.96.48-.54-2.48-1.98-4.01-2.42-6.5,1.6-1.1,1.19,2.67,2.9,2.16-.15-.71-.23-2.36-.48-2.89-.28-.58-1.96-1.7-1.93-3.15.02-.93,1.12-1.25,1.36-2,.81-2.55-1.1-2.83-1.36-4.25-.34-1.93.31-4.42-.48-6.51-.39-.3-1.97-1.67-2.16-1.93-1.18-1.59-.65-4.53-3.62-3.86-.05-1.28.07-2.58,0-3.86-.08-1.41-.44-.88,0-2.89.5-2.31-.05-2.71,2.89-2.41-.05-.15.06-.36,0-.48-.14-.31-.29-.69-.48-.96-.2-.29-1.24-.44-.97-1.2-.02-.43.59-.23.97-.24,1.12-.04,2.25.03,3.38,0v-.48c-.51-.09-2.76-1.52-2.89-1.93-.66-.14-.51-.63-.48-1.2l.48-.24,3.38.48v-.48c-.48.11-2.44-1.81-.66-2.36,1.11-.34,4.08.89,4.52.43.05-.06-.16-.68.09-.86.42-.31,1.35.09,1.76-.2.26-.18.02-.79.08-.87-1.34-.82-2.9-.88-4.36-1.67-1.16-.62-3.37-2.35-.69-2.21,1.04.05,1.92.41,2.89.5.9.08,1.96.42,1.68-.97-1.08-.52-3.02-1.25-3.62-2.4-.89-1.69-.01-1.4,1.21-1.45.16,0,.32,0,.48,0,.29-2.51,3.54-.02,3.11-3.4,1.16,0,1.81-1.65,2.68-1.42l.48-.48c-.46-2.8.55-1.56,1.45-1.93.13-.05,1.64-1.63,1.93-1.93,1.74-1.84,2.81-3.74,4.82-5.79,1.42-1.45,2.08-1.81,3.38-2.89,1.65-1.38,6.4-6.52,8.69-5.08.72.46,1.22,2.82,2.89,2.67.04-.09.67-.34.9-.77.72-1.32.81-3.61.33-5.05-.16-.47-3.23-3.39-3.65-3.58-1.18-.54-2.65-.27-3.88-.03-4.37.86-20.16,8.8-23.38,11.83-1.65,1.55-2.09,2.86-3.35,4.36-3.14,3.73-6.99,5.7-9.82,10.44-1.77,2.97-1.1,3.65-1.64,6.56-.79,4.23-4.15,8.59-5.68,12.41-1.3.28-.94-.63-1.19-1.44-1.81-5.92-3.3-11.87-6.28-17.37-1.04-1.92-7.4-11.42-8.68-12.54-1.1-.96-4.05-1.51-5.52-2.68-.64-.51-.84-1.57-1.47-1.9-1.09-.57-3.47.05-3.83-.28-.07-.06-.19-1.24-.42-1.73-.96-2.08-5.18-9.12-7-9.93-.75-.33-1.83-.3-2.3.45-.54.85.08,2.47-1.41,2.1-.29-2.62-1.28-7.37-4.84-5.55-1.12.57-.64,2.65-1.67,2.17-1.51-.7-2.69-5.13-5.08-3.63-.68.42-.7,2.07-2.17,2.2-1.06.09-2.79-.78-3.61-1.46-1.6-1.32-3.09-4.68-5.54-4.37-2.04.26-.61,3.38-2.16,4.63-.92.67-2.06-1.93-3.14.23-1.13,2.26-1.07,7.57-1.82,10.24-.65,2.31-2.11,4.14-2.66,6.99-.41,2.13-.21,5.1-.59,7.05-.1.51-.94.26-.98.3.18-1.55-.47-1.08-.84-.12-.84,2.14-.54,5.17-1.46,7.22-.5,1.14-2.17,1.96-2.44,2.87-.35,1.2.17,2.66-.08,3.68-.11.44-.88.48-1.19.82-1.88,2.08-.34,10.51.74,13.2.35.87,2.89,5.95,3.3,6.35.69.68,1.76.61,1.89.76.16.18.53,3.83.78,4.77.37,1.36,2.63,6.42,2.1,7.15-.17.23-1.11.2-1.33.85-.22.67.33,2.42.58,3.19,1.09,3.31,4.69,7.38,5.56,10.35.18.61.51,1.83-.62,1.59-.59-.41-3.03-3.52-3.62-2.89-.1.46.13,1.76,0,1.93-.19.23-1.37-.76-.85,2.05.49,2.68,2.86,3.97,2.78,6.63.37-.11,1.01.07,1.45,0,1.04,7.54.3,15.72,5.31,22.42.78,1.05,4.74,4.06,4.81,4.38.17.81-1.86,2.21-2.57,2.06-.57-.12-3.9-3.81-4.89-3.78-.36.01-.86.72-.49,1.44.23.45,2.76,2.86,2.18,3.37-1.03-.38-2.2.43-2.89.48-1.51.13-2.17-1.16-3.38-.72.17.93,1.88,2.66,2.65,2.65.41,0,.67-.48.73-.48,2.47.02,5.15,1.72,7.72,1.45-.35.98-2.14.98-2.89,1.68-1.5,1.41.68,2.08.84,2.96.21,1.12-1.02,1.55,1.23,2.7,1.2.61,2.15-.17,1.71,1.49-.53,2.02-2.35,2.88-4.26,2.01-1.63-.74-4.48-7.45-5.39-9.32l-3.3-.56c1.55,5.9,5.97,10.57,9.41,15.43.79,1.24-.33.83-.99,1.42-.5.44-.62,1.48-.99,1.52-1.17.13-2.96-1.62-4.53-1l3.14,5.78c-.81-.81-5.64-3.14-6.03-1.19-.32,1.57,7.11,5.4,5.78,6.99-2.13-1.73-4.13-4.11-7.23-3.86-1.09,2.05,6.21,9.32,5.3,10.12-1.54-.21-2.79,2.3-4.08,1.92-.9-.26-2.26-6.06-3.64-6.74-.1,2.93-.02,5.8.48,8.68-2.37-.79-4.25,2.21-5.55,2.43-1.18.2-.22-1.43-1.69-.98-.51,1.34,1.1,2.32.78,3.37-1.1,3.54-4.65,5.62-5.48,8.56-1.22,4.29-.85,14.28-2.77,17.96-.36.7-1.43.88-1.91,1.46-.64.76-.58,1.89-1.2,2.66-1.36,1.71-10.55,3.8-12.75,3.58-1.6-.16-8.05-2.96-8.75-4.33-.71-1.37.7-1.64.75-2.64.02-.36-.63-.16-.97-.59-1.31-1.69-1.1-2.55-.49-4.48.72-2.28,2.19-3.53-.96-5.3.29,1.58.29,3.26.48,4.82-2.63.31-5.3-2.03-4.8,2.13.37,3.04,1.6,3.73.18,7.48-.39,1.04-2.86,4.46-2.92,5.09-.11,1.1,1.57,2.32,1.27,3.62-.89.06-1.86-.01-2.62-.53-.78-.53-1.58-3.37-1.72.05-1.58.43-1.33-.66-1.56-.81-2.23-1.47-1.03,3.53-2.78,4.18.17-1.21-.65-2.43-.5-3.59.16-1.19,2.29-2.95,1.92-4.33-.29-1.08-2.12-.59-2.38-.78-.14-.1.01-2.61-.14-3.49-.49-2.93-2.68.03-3.26,1.33,2.83,1.11.44,2.55.45,4.82,0,2.26,1.35,4.29,1.49,6.51-3.82-.76-1.39-3.48-2.01-5.45-.18-.58-1.11-1.26-1.58-1.83-.25-.3-.24-.89-.28-.92-.44-.32-1.5.86-2.19.97-1.51.25-2.57-.83-4.05-.25-2.32.91-6.57,7.57-7.93,9.94-2.98,5.2-5.69,11.44-6.11,17.52-.58,8.4,1.69,29.86,7.06,36.39.81.98,1.65,2.22,3.09,1.97v-1.45c.11-.14.61.25.73.48.94,1.78,1.64,5.56,2.72,7.89,1.48,3.23,3.8,7.98,7.65,8.5.47-.48-.7-5.72-.96-6.75-.99-3.82-3.04-7.57-3.37-11.57,2.89,2.91,3.07,7.9,4.34,11.57,2.14,6.23,5.31,14.65,9.45,19.73.24.29,3.01,3.46,3.1,2.2-.17-2.12-5.89-15.03-5.31-15.67.89-.2,1.15.49,1.69.96.84.74,2.25,2.05,2.87,2.92,1.4,1.96,2.85,6.89,4.36,8.18.42.36.54.62,1.22.47l.24-1.45c.57,1.67,2.33,1.74,3.09,2.7,1.07,1.34,2.26,6.08,3.06,8.03.41.99,1.54,2.07,1.73,3.13.22,1.24-.56,2.4-.3,4.1.6,3.95,6.87,13.88,10.03,16.52.48.4.63.92,1.45.72.41-1.68-1.22-3.19-1.3-4.65-.04-.62.41-1.3.34-1.86-.26-2.28-1.33-4.72-.73-7,3.11,3.57,5.36,8.27,8.45,11.8,1.16,1.33,2.56,2.43,3.85,3.63,0,.32,0,.64,0,.96-1.53-1.23-3.15-1.55-5.08-1.45-1.56.08-.49,2.33-.15,3.06.66,1.42,2.93,3.39,4.13,4.55.67.64,1.37.69,1.1,2.03.11-.52-3.75.07-4.03.2-1.41.64-2.23,1.86-2.94,3.13-.3.53-.38,1.6-1.17,1.71-1.07.14-1.98-2.4-3.18-2.52-1.61-.16-1.56,1.31-2.08,2.39-.32.65-1.05,2.26-2.04,2.05-.33-.07-.66-.52-.98-1.03,1.11,2.25,1.95,4.85,4.11,5.65-.71-.26-.26-7.62-.24-8.2.45-.45,2.63,1.63,3.38,1.93.11.15.37.27.48.48.19.34-.48,1.26.96.96.2,3.85,2.65,2.75,5.79,2.89,0,.16-.04.37,0,.48.19.59.46.71.96.96.11.06.32-.04.48,0,.14.18.32.32.48.48.16.15.32.37.48.48,1.81,1.33,1.96.58,3.38.96,4.51,1.23,8.2,4.09,12.54,5.56v-.73c-.14.02-.34.02-.48,0ZM339.66,132.6c.02.32-.01.64,0,.96.07,1.61.09,3.47,0,5.07-.03.47.33,1.53-.72,1.2-.25-.08-2.43-3.88-2.76-4.49-.33-.6-.32-1.7-.38-1.78,1.57.4,2.4-1.13,3.86-.96ZM267.29,71.84c-.26,1.62.81,4.37-.96,5.3.26-1.62-.81-4.37.96-5.3ZM204.83,358.74c-.31-.16-.31-.32,0-.48v.48ZM229.19,352.72c-.48-.54-1.16-.79-.96-1.69,3.16-.03,5.2,2.3,8.13,2.96-.1,2.22,1.11,4.08,1.51,6.2-.32.35-2.95-1.78-3.38-2.16-1.64-1.42-3.85-3.67-5.3-5.31ZM241.25,383.82c-.8.76-2.71-.6-3.38-.96-.39-.22-.98-.06-1.49-.68-.57-.7-.3-1.47-.44-1.73-.38-.71-1.26-1.34-1.45-1.93-1.08-.12-1.96-.97-2.41-1.93,1.07-.49,2.09.88,2.41.96.87.22,2.48-.46,3.15.47.23.32.13.85.23.97.88,1.14.93,1.62,1.45,2.41.24.36,3.06,1.34,1.93,2.41Z"/>
    <path class="a3" d="M266.81,434.45c-.11-.61-.61-2.2-.93-2.6-.46-.58-1.41-.03-1.51-.55-.27-1.38.55-3.24.55-4.8,0-1.3-.61-2.61-.52-3.62h-.96c-.07.34-.17.38-.48.48v5.79c0,.32,0,.64,0,.96-.02,1.28.05,2.58,0,3.86,0,.16.02.32,0,.48l-.48.96s-.12.02-.2.02c1.54.43,2.94-.03,4.53-.02.82,0,1.62,0,2.43,0-.2-1.69-.58-.8-2.41-.96Z"/>
    <path class="a3" d="M278.88,425.29l-.48,2.41c-1.35.28-1.38-1.28-1.93-1.93-.11-.13-.37-.4-.48-.48-.04-.03-.91-.47-.96-.48-.55-.12-1.73-.3-1.44.72.08.09,5.13,5.01,6.94,8.37-.07-.3-.14-.6-.19-.89-.05-.3.04-.65,0-.96,1.36-.16,2.5-1.42,2.65-1.42.68,0,1.07,2.65,2.65,1.9-.58-.76-1.02-1.98-1.73-2.86-1.24-1.54-3.16-4.44-5.03-4.38Z"/>
    <path class="a3" d="M455.36,326.76c-.32-.63-1.17-1.12-1.37-1.76h-.48c.63,1.42,1.15,3.2,1.35,4.73.12.97-.39,1.76-.19,2.52.32,1.2,3.08,4.95,3.91,6.72.31.67.13,1.62.49,2.4.33.72,1.3,1.09,1.57,2.29.45,1.95.37,2.44-1.35,3.04-2.9,1-5.92-2.18-7.72-4.34-.27-.07-1.87-1.2-1.44.23.52,1.72,4.11,5.75,5.3,7.96.03.06,1.1.99.24.97-1.01-.02-.89-.78-1.2-.97-.77-.48-1.63-.97-2.41-1.45-.13-.08-.25-.41-.48-.48-.17-.05-.75-.04-.96,0-1.16.23-.01.9,0,.96.04.22.05.76,0,.96.98.79,2.18,2.18,2.41,3.38.06.3-.06.67,0,.96.5-.17.35-.7.48-.96.13-.26.89-1.41.96-1.45.17-.08.66.03.96,0,.91-.09,2.08.16,2.89,0,.21-.04.34-.38.48-.48,1.62-1.19.81-1.59.48-3.37.53-.53,2.56,2.12,3.61,0,.9-1.81-.48-6.48-1.19-8.45-1.02-2.83-4.06-6.56-2.9-9.39-2.08.29-2.7-2.55-3.45-4.02Z"/>
    <path class="a3" d="M267.3,320.65c-2.9,1.16-7.62,2.44-10.13,3.86-.35.2-1.01,1.43-1.93,1.45.09.83-.44,1.65-.48,2.41,0,.06.75.38.27.97l-1.72.48c-1.31,1.88-.86,1.78-1.45,3.38.31.1.69.45.96.48,4.37.57,6.06-1,9.65-1.45.4-.69,1.18-.89,1.93-.96,1.58-2.71.45-2.08.51-4.13.02-.63.66-1.01.82-1.55.19-.62,0-1.27.11-1.72.16-.64.86-.23.97-.32.69-.59,1.28-2.03,2.41-2.41.03-.32-.02-.65,0-.96-.35.15-1.21.19-1.93.48Z"/>
    <path class="a3" d="M269.44,313.42c-1.42.03-1.69,2.38-2.15,3.37,1.42.85,2.06,1.3,3.38,0,.29-1.47,1.44-3.42-1.23-3.37Z"/>
    <path class="a3" d="M265.85,334.63c-.32-.03-.65.02-.96,0-1.11-.07-2.27.1-3.38,0l.48,1.93c-.63-.04-1.3.06-1.93,0-2.08-.2-5.31-.86-7.24-1.45-.25-.08-.66.05-.96,0,.09.08,0,.68.24.97.31.37,5.22,1.07,6.62,1.58,1.05.38,2.93,1.76,3.49,1.78,2.64.09,9.76-4.3,3.63-4.8Z"/>
    <path class="a3" d="M284.51,297.11c-1.13.32-3.04,1.49-4.2,2.09-.49.26-1.22.12-1.44.23-.45.23-3.88,2.73-4.82,3.38-2.97,2.04-7.16,5.33-9.88,7.72-1.35,1.19-5.64,5.2-.87,3.47,3.33-1.21,6.18-4.76,9.3-5.89.2-.7.74-.98,1.45-.96.83-1.46,4.01-3.13,5.53-4.35.9-.73,5.82-4.61,6.04-5.06.43-.86-.53-.79-1.11-.63Z"/>
    <path class="a3" d="M350.51,158.15v-.48c-.31.16-.31.32,0,.48Z"/>
    <path class="a3" d="M495.98,159.83c.12-1.96-.93-2.55-1.03-4.31-.22-4.17,2.1-8.19,1.45-13-.18-1.31-1.18-2.6-1.28-3.48-.13-1.18.93-2.94.74-4.17-.21-1.39-1.72-4.68-2.19-6.51-.66-2.57-1.12-5.21-1.59-7.82l-1.44,2.89c-.69-2.08-.95-4.98-1.95-6.88-.31-.59-.9-.29-.95-.35,0,0-.02-.02-.03-.05.02.03.03.05.03.05.27.18.04,5.55,0,6.52-.03.78-.44,1.51-.48,2.16-.02.32,0,.65,0,.96.01,2.41,1.36,3.9,1.36,6.03,0,2.34-1.65,4.47-1.84,6.51h.96c.57-2.5,2.52-1.8,2.43.71-.06,1.91-2.61,8.69-3.88,9.9v.48c1.34-.95,3.71-.6,3.88,1.22.25,2.76-4.13,3.52-3.88,6.49v.48c2.13-.35,2.34,2.42,2.43,4.11.21,4.22-3.6,5.67-5.58,8.4-2.32,3.21-1.59,6.46-2.36,9.7-.38,1.6-2.06,3.06-2.2,4.59-.09.96.38,2.4.48,3.58.04.48-.03.97,0,1.45.03.5-.15,1.12,0,1.59.16.52,1.29.15.95,1.04-.26.68-1.57,1.87-2.01,2.82-.55,1.17-1.79,4.9-1.83,6.13.43-.34,1.06-.61,1.45-.96,2.59,1.43,3.28-2.2,4.34-3.86,1.79-1.81,3.92-4.85,3.9-7.47,0-.98-.58-1.96-.45-2.79.12-.76.93-1.33.91-2.5-.01-.79-.54-1.49-.43-2.32,1.01-7.27,9.55-13.05,10.07-21.33Z"/>
    <path class="a3" d="M266.33,319.2s.01-.32,0-.48c-2.32.36-6.78.11-7.72,2.65,2.55.25,4.99-2.23,7.72-2.17Z"/>
    <path class="a3" d="M442.89,368.39c-.24-.54-.81-1.93-.96-2.41h-.48c.08.09.47,2.13.48,2.41.03.88-.52,1.08,0,2.89,1.01-.13,1.09-.04.96.96.14.11,1.13,2.41,1.93,2.89.12.07.37-.07.48,0,.47.31,1.87,1.17,2.41,1.45l.48-.48c-.13-1.29-.06-3.01,0-4.34,0-.16-.01-.32,0-.48l-.72-.97-.72.97c0,.15.02.33,0,.48-.02.16.02.32,0,.48-.3-.05-.7.07-.96,0-1.29-.35-2.38-2.69-2.89-3.86Z"/>
    <path class="a3" d="M405.27,403.59c.82.2,2.16.83,2.89.24-1-.67-2.71-2.04-3.86-2.17l.96,1.93Z"/>
    <path class="a3" d="M213.27,243.5c1.04,2.23,1.28,4.79,1.45,7.23.11.14.59-.25.73-.48,2.26-3.74,3.3-13.57,4.96-18.19.42-1.18,1.51-3,2.49-3.78.45-.36,3.44-2.26,3.85-2.41,2.36-.86,1.92.78,2.23.78.48-.01,1.08-.51,1.86-.49,4.97.15,6.56,3.93,7.53,8.18.86.15,1.42-.43,1.48-1.22l-3.88-10.62c-.32-3.4-.63-6.7-.52-10.13.05-1.64,1.46-3.64-.7-4.08-2.71-.54-2.15.35-3.17,1.15-4.19,3.29-6.74,6.96-10.09,11.15-2.47,3.1-4.8,6.32-5.32,10.36-.3-.04-.73.08-.96,0v3.86s-.96,0-.96,0c-.24,2.5-.71,4.76-.96,7.23-.04.38.09,1.35,0,1.45Z"/>
    <path class="a3" d="M451.47,363.5c-2.16-.42-4.31-2.91-5.2-4.75h-.96c.55,2.11,1.46,5.88,2.41,7.72.26.51,1.9,1.84,2.41,2.41.52-.13,1.33.09,1.93,0,.07,1,.17,2.2.96,2.89.08-1.72-.2-1.35-.44-2.67-.04-.23.82-.45.93-.7.74-1.77.29-3.15,0-4.82-.1-.58.08-1.31,0-1.93h-.96v1.45c-.07,0-.36.55-1.07.42Z"/>
    <path class="a3" d="M276.7,299.92v-.48c-.31.16-.31.32,0,.48Z"/>
    <path class="a3" d="M449.65,353.92c-1.34-.03-1.58-.37-1.46,1.21.21,2.66,1.91,2.51,3.02,4.47l.85.11h.48c0-.32,0-.64,0-.96h-.48c-1.59.06-2.41-3.47-2.41-4.82Z"/>
    <path class="a3" d="M473.15,215.62c-.56.07-1.21.69-1.79.88-.04.15.03.33,0,.48,0,.05-.04.13-.07.23.04-.1.06-.19.07-.23l2.41-.96c-.06-.02-.15-.45-.62-.4Z"/>
    <path class="a3" d="M468.13,219.53c-.34.45-.39.95-.63,1.31-.64.95-.55.63-1.45.96-1.57.58-2.58.6-4.34.48-.14.97.79,1.23.96,2.18.41,2.23-.14,3.47-2.41,3.61-.48.03-.97-.02-1.45,0-.04.14-.52.13-.29.94.97,3.5,4.73,6.91,3.67,11.12,1.09,1.34.05,2.67,0,3.86-.07,1.66.79,3.31.5,5.04-.07.43-1.17.34-1.47.26l-.96.48c-.08,1.33.21,2.65-1.68,2.42-.46-.06-.65-.47-.73-.49-.49-.14-1.01-.19-1.45-.48-.16.48-.42.5-.48,1.45.7.2.98.74.96,1.45,1.12.48,1.66,2.24,1.93,3.38,1.02.33,1.01,1.55,1.45,2.41v.48c.27.14.52.52.96.48.06.46-.08,1.02,0,1.45.06.3-.06.67,0,.96.17.84,1.29,1.76.96,2.89-.11.11-2.32-.87-2.41-.96-.08-.08-.61-1.39-.96-1.93-.07-.11.07-.37,0-.48-.18-.29-1.15-.56-.96-1.45h-.48c-.44-.05-.42.14-.48.48-.27,1.6.2,4.12.48,5.79.14.84.82,1.79.48,2.89-1.39-.65-1.98-2.69-3.86-2.41.07.07-.01,1.09,0,1.45.02.7.08,1.39-.09,2.08l-.39.33c.45,4.85-.68,11.02.02,15.65.29,1.89,2.97,6.1,3.84,8.46,1.4-.31.79.68.96.96,1.29,2.15,1.71,2.65,1.93,5.3.07.79-.05,1.61,0,2.41.03.54-.11,1.11.01,1.65.2.89,1.08,1.44.97,2.41-.02.15-1.01,2.47-1.11,2.57-.32.3-1.24.14-1.61.57-.99,1.17,3.2,10.8,4.14,12.57.1.19,3.46,3.8,1.2,3.38-1.49-.28-1.98-2.5-2.65-3.38-.82-1.07-1.99-2.52-2.9-3.61-.26-.32-.97-1.33-1.43-.98.39.94,1.35,2.49,1.44,3.42.11,1.15-.71,2.23-.43,3.24.4,1.41,2.51,1.04,1.39,3.72-.02.04-.05.07-.09.11.04-.04.08-.08.09-.11,1.71-1.26,2.24,1,3.13,1.94,1.54,1.64,4.75,5.2,6.69,5.86.53.18,1.13.54,1.28-.34.09-.5-.91-2.04-1.25-2.6l-4.54-6.31c2.95-.18,3.76,3.39,7.24,2.41,1.37-1.26-4.11-7.28-5.03-8.72-1.02-1.61-1.93-3.28-2.68-5.03,1.37-.06,2.18,1.5,3.19,2.11,3.18,1.92,6.6.16,3.8-3.32-1.25-1.56-5.71-5.02-6.28-6.26-.37-.81-.33-2-.25-2.89-2.95.1-1.37-1.54-1.41-3.12-.11-3.65-4.43-7.51-4.78-9.76-.06-.4.09-3.56,1.37-3.04-.14-.46-.42-2.29-.48-2.89-.03-.31-.07-1.3,0-1.45.33-.71.63.38.48-1.45-.03-.43-.05-1.03,0-1.45.23-1.83.62-3.14.48-5.3.78-.96.81-2.85,0-3.86.11-1.71-.19-3.65,0-5.3.01-.13.95-1.46.48-2.41l2.41.48c.18-.99-.15-1.85-.34-2.79-.14-.67-.41-2.89-1.58-2.52-.08-.43.06-.99,0-1.45-.07-.51-.48-.91-.48-.96-.04-.47,0-.97,0-1.45,1.95.22.55-.97.48-1.45-.04-.3.02-.65,0-.96,1.49.3.85-.73.96-1.93.03-.32,0-.65,0-.96.01-.41,0-.63,0-.96,0-.32,0-.64,0-.96l3.38-.97c.31-.64-.47-1.33-.48-1.44-.04-.55.41-1.32.48-1.93.09-.81,0-.53,0-.96,0-.34-.05-1.39,0-1.45.11-.11.85.1.96,0,.34-.32-.47-.91-.48-.96-.07-.4-.02-1,0-1.45,1.9.18.53-.67.48-.96-.58-3.63-1.61-3.45-2.65-6.28-.97-2.64-.84-5.78,1.18-7.96.73-.78,2.27-1.12,2.36-1.26.24-.34-.07-3.74,1.27-5.24.65-.73,1.97-.23,2.17-.97h-1.93c-.04.05-.65-.09-.82.14Z"/>
    <path class="a3" d="M476.88,203.49c-.08-.33-.15-.65-.22-.97-.07-.29-.48-.45-.48-.48l.48.48c.07.32.14.65.22.97Z"/>
    <path class="a3" d="M475.48,212.45c.05-.13.11-.23.21-.29.03-.02.07-.02.14,0-.06,0-.11,0-.14,0-.1.06-.17.16-.21.29Z"/>
    <path class="a3" d="M278.39,298.95c.44-1.04,1.66-2.96,2.41-3.86-1.03-.01-1.38-.37-2.09.59-.31.43-1.68,2.33-1.77,2.55-.44,1.07.92.63,1.44.72Z"/>
    <path class="a3" d="M477.15,210.71l.22-.22c.11-.1.22-.2.35-.32-.12.12-.24.22-.35.31l-.22.22Z"/>
    <path class="a3" d="M226.72,238.01c-1.35-1.81-2.54-.29-3.81.67-.24,2.96-1.06,6.44-1.45,9.64h.48c.23-1.98,1.85-5.68,3.17-7.19.92-1.05,3.01-1.22,1.6-3.12Z"/>
    <path class="a3" d="M480.52,101.25s.07.05.12.08c-.05-.02-.09-.05-.12-.08-1.53-1.6-5.3-1.22-6.75.48,2.38-.61,4.17-1.63,6.75-.48Z"/>
    <path class="a3" d="M255.16,176.39c.14-.09,1.11-2.19,1.74-2.83.48-.49,3.93-2.19,3.15-2.87-.65-.57-6.87,2.5-7.51,3.37-.74,1,1.27,3.25,2.61,2.34Z"/>
    <path class="a3" d="M470.87,102.7c-.61.26-2.68.88-2.83,1.05-.21.25,0,.69-.06.88,1.27-.26,2.33-.69,2.89-1.93Z"/>
    <path class="a3" d="M227.74,262.79c-.3-.12-.93.02-1.45-.22-1.62-.73-2.63-2.24-4.82-1.71,0,.18-.52.6-.39,1.13.36,1.46,5.65,4.03,7.12,4.93.44.27,1,1.12,1.24,1.18,2.1.48,1.14-4.18-1.7-5.3Z"/>
    <path class="a3" d="M424.4,89.91c-.13.15-.27.31-.42.49.15-.18.28-.34.42-.49Z"/>
    <path class="a3" d="M410.57,418.05c.14-.02.31-.02.47-.02-.17,0-.33,0-.47.02h0Z"/>
    <path class="a3" d="M263.92,213.12c.19-1.52-.05-3.33-1.93-3.37l.48,3.38h1.44Z"/>
    <path class="a3" d="M424.83,89.42c-.1.11-.22.24-.34.38.12-.14.24-.28.34-.38Z"/>
    <path class="a3" d="M362.33,123.92c.02.48-.03.97,0,1.45.26,3.91.79,7.53.96,11.57h.96c.07-1.11.16-1.4.48-2.41.78-2.47,2.19-4.06,4.1-5.78.49.51.21,1.69.24,2.41.12,2.65-.56,4.94,2.89,4.82v-.96s.96,0,.96,0c.32-.86,1.04-3.67,1.18-3.89.4-.64,1.38-.3,1.71-.45.19-.09.76-1.48,1.44-1.45v2.41c2.31.75,1.47,0,2.9-.48.19-.7.76-.94,1.45-.96.64-1.27,2.37-.1,2.89,0,.57.1,1.32-.07,1.93,0,.11-.57.38-1.01.48-1.45.11-.44-.26-1.45.24-1.45l.24,1.45,2.34,1.03c0,1.16.31,2.2.55,3.31.11.5.9,1.36.48,2.41-.15.18-2.14-1.72-2.41-.48.82.95,2.19,14.03,1.93,15.91,1.32,0,1.79-1.43,2.89-1.93.11-2.59.07-5.18-.48-7.71,2.18-.41,1.84.47,2.76,1.8.32.46-.01.86,1.1.61-.37-1.89.28-3.66.48-5.3.02-.16-.01-.32,0-.48h1.45c-.02,3.25,6,12.97,7.24,17.36.05.19.55.55.48.96-.26-.07-.66.05-.96,0,.05.63.46,1.29.48,1.93h.96c-.07-.46.09-1.03,0-1.45,1.36-.04,1.75,1.26,1.93,2.41.33.14.64.33.96.48-.83-3.82,1.26-3.46,2.89-5.55.29-.37,2.32-3.42,2.41-3.62.21-.46.15-1.77.49-2.41h.47s0,2.89,0,2.89c.69.55,1.12.93,1.93,1.45.75.47,1.95.22,1.93,1.93,0,.78-.61,1.43-.41,2.53.33,1.74,2.75,5.91,3.78,7.59.13.22.4.35.48.48-.62-1.71-.52-3.51-.48-5.3,1.04-1.06,4.53,3.5,5.03,4.37,2.54,4.36,2.79,7.24,2.68,12.02,0,.32,0,.64,0,.96.02,2.59.31,1.91.96,3.38.13.29.47.91.48.96.19.75.3,2.35.48,3.38.05.3-.04.65,0,.96.05.04-.1.57.14.82.26.26.76.09.82.15l1.93-2.41-1.44,3.37c0,.25-.62.83-.42,1.6.15.58.79.65.9.81.24-.05.43-.25.48-.48.34-1.45,1.41-2.84,1.46-3.66.07-1.11-.9-1.57-.99-2.39-.07-.66.69-2.79.97-3.6h-.96c-.21.4-.87.42-1.26.69-.22.15-.22.59-.3.64-.31.17-.7-.37-.86-.36.11-.32.41-.66.48-.96.03-.14-.02-.32,0-.48.02-.16-.02-.33,0-.48,1.3.28.9-.66,1.21-1.42.9-2.17,1.96-4.36,1.68-6.78h-1.93c-.06.79.09,1.63,0,2.41h-.96c.1-.8.45-1.51.48-2.41.07-1.92-.72-4.54-.96-6.75,0-.09-.54-.48-.54-1.21,0-.73.52-1.1.54-1.21.08-.63-.04-1.29.12-2.03.47-2.12,4.68-12.8,6.15-13.4l.48-.96c-.16-.93,2.68-4.28,3.38-5.3.73-1.06,1.17-2.71,2.41-3.38-.08,1.31.04,2.62.49,3.86.36.98.85,1.84,1.9,2.2,4.12,1.4,3.73-3.45,4.63-6.04,1.05-3.05,5.45-11.33,7.94-13.04,0-.95.62-1.57,1.45-1.93.19-.54.27-.59.48-.96.36-.65.73-1.16,1.45-1.45.63-3.11,1.01-5.31,1.45-8.44.41-2.94,1.59-3.67,2.41-6.03-.43.09-1.03-.09-1.45,0-1.8.41-3.3,1.21-5.26,1.03-.2.27.03.77-.05.9-.51.85-.58.95-.96,1.93-.09.22-.32.54-.48.96-1.11,2.87-4.41,5.09-6.47,7.75-.97,1.25-3.37,6.01-3.66,6.23-.53.41-.47-.8-.96.96-.15.55-.4,2.32-.48,2.41-.41.41-.43-.88-.96.96-.18.63-.29,1.3-.48,1.93-.02.05-.29.36-.48.96-.08.26.09.72,0,.96-.02.05-.32.58-.48.96-1.13,2.71-3.64,4.02-5.63,5.94-.55.53-1.01,1.7-1.61,2.25l-.48.48c-.14.05-.34-.05-.48,0-.23.08-.66-.07-.96,0v.96c-3.71-.25-2.76.03-3.38,2.41-.33,1.27-1.27,1.76-1.36,2.23-.1.55.47,1.24.43,1.81-.02.35-1.03.48-1.44,1.06-.51.73-1.3,4.57-1.77,4.56-3.47-.11-3.24-2.88-5.49-4.62-.69-.53-1.96-.81-2.22-1.16-.74-1.01.5-5.59-1.9-6.77l-2.9,3.37c-.8-3.9-2.09-1.84-5.06-2.41q.06-.48,0,0c-.09.75.23,1.99-.73,2.41-1.04.45-.55-1.14-.96-.96-.77.85-2.92,3.14-4.13,2.2-.33-.26-2.43-6.95-2.65-7.97-.27-1.24-.02-2.55-.31-3.55-.28-.99-1.5-1.32-1.84-1.78-.71-.97-.46-2.95-2.41-2.41-.11.75.14,1.72,0,2.41-.25,1.18-1.79,1.67-2.89,1.45-.1-.27-.56-.7-.96-1.93-.12-.37-.47-1.37-.48-1.45-.64-3.09.38-6.51-.96-8.68-.59-1.72.65-4.79.52-5.98-.05-.46-1.6-.02-1-1.25l3.61.48c.41.06.3-.87.24-.96-.27-.37-5.12-2.27-4.82-4.35.91-.79,5.37,3.3,6.27,2.41.82-.81-1.51-2.47-1.81-3.25-.19-.5-.74-3.84-.6-3.98.33-.33,1.99.47,2.57.35.43-.08.86-.7,1.54-.83,1.84-.33,4.42,1,3.54-1.63-.2-.6-3.46-2.1-2.34-3.2.28-.27,3.19.82,3.8-.07.31-.47-.22-2.27.78-3.3,1.33-1.37,3.39-.41,3.55-.52.12-.08.24-.81.54-1.16,1.85-2.16,3.88-5.28,5.54-7.02.35-.36,3.42-3.01,3.64-3.11,2.94-1.34,6.92.53,6.27,4.1-.03.03-.07.07-.11.11.04-.04.07-.08.11-.11,2.92-2.86,3.38-5.4,2.99-9.41-.08-.85,1.03-1.98-1.01-2.4-.81-.17-6.65.61-7.89.84-5.45,1-9.4,3.28-13.84,6.42-3.51,5.13-7.44,9.94-11.04,15.01-1.14,1.61-7.27,11.49-8.1,11.64-.49.09-1.46-.58-1.63-.4.3,2.56-1.12,4.77,0,7.23-.29-.1-1.78-.08-2.16,0-2.25.46-.67,2.01-.85,3.07-.11.66-1.52,1.65-1.34,2.72-1.02-.3-1.85-2.12-2.75-2.35-.87-.23-1.63.42-2.24.3-.44-.08-.81-.77-1.49-.81-.74-.04-4.37,1.26-4.61.93-.06-.08-.03-.98-.23-1.44-.63-1.51-3.26-4.04-4.85-2.43l-1.68,3.38c-.04.79-.03,1.62,0,2.41ZM392,114.75v.48c-.31-.16-.31-.32,0-.48Z"/>
  </g>
  <g>
    <path class="cls-2" d="M3.04,11.7v-1.36h4.13v1.36H3.04Z"/>
    <path class="cls-2" d="M12.35,15.76c-.77,0-1.44-.23-1.99-.7-.56-.46-.99-1.14-1.29-2.03-.3-.89-.45-1.98-.45-3.27s.15-2.37.45-3.25c.3-.87.73-1.54,1.29-1.98.56-.45,1.22-.67,1.99-.67s1.42.22,1.97.67c.55.45.98,1.11,1.28,1.98.3.87.45,1.96.45,3.25s-.15,2.38-.45,3.27c-.3.89-.73,1.57-1.28,2.03-.55.46-1.21.7-1.97.7ZM12.35,14.29c.39,0,.73-.15,1.03-.45.3-.3.54-.78.7-1.44.17-.66.25-1.54.25-2.64s-.08-1.97-.25-2.62c-.17-.65-.4-1.11-.7-1.4-.3-.29-.65-.43-1.03-.43s-.73.14-1.03.43c-.3.29-.54.75-.71,1.4-.17.65-.26,1.52-.26,2.62s.09,1.98.26,2.64.41,1.14.71,1.44c.3.3.65.45,1.03.45Z"/>
    <path class="cls-2" d="M21.26,15.76c-.72,0-1.36-.14-1.92-.41s-1.01-.65-1.34-1.12-.49-1.02-.49-1.62c0-.49.1-.93.3-1.3s.45-.71.77-1c.31-.29.64-.52.99-.7v-.06c-.42-.31-.78-.68-1.08-1.12-.3-.44-.45-.95-.45-1.55s.14-1.14.43-1.59c.29-.45.68-.8,1.17-1.05.49-.25,1.06-.37,1.7-.37.67,0,1.24.13,1.72.39.48.26.85.62,1.12,1.08.27.46.4.99.4,1.6,0,.39-.08.76-.23,1.1s-.35.65-.58.91c-.23.27-.46.49-.7.67v.06c.34.2.66.44.96.7.3.27.53.58.71.95.18.37.27.81.27,1.32,0,.58-.15,1.1-.46,1.57-.31.47-.74.84-1.3,1.12-.56.28-1.21.42-1.96.42ZM21.3,14.42c.39,0,.73-.07,1.02-.22.3-.15.53-.36.7-.63.17-.27.25-.59.25-.97,0-.33-.07-.62-.22-.86-.15-.24-.35-.45-.61-.63-.26-.18-.56-.35-.9-.5-.34-.15-.71-.31-1.1-.46-.4.27-.72.59-.97.98s-.38.82-.38,1.3c0,.39.1.74.29,1.04.19.3.46.53.79.7.33.17.71.26,1.12.26ZM22.02,9.16c.33-.32.59-.66.76-1.01.17-.35.26-.72.26-1.1,0-.35-.07-.67-.2-.94-.14-.28-.34-.5-.6-.66-.27-.16-.59-.24-.96-.24-.47,0-.86.15-1.17.44-.31.29-.47.7-.47,1.22,0,.42.11.76.34,1.03.22.27.52.51.88.7.36.2.75.38,1.18.55Z"/>
  </g>
</svg>