<?xml version="1.0" encoding="UTF-8"?>
<svg id="a3" xmlns="http://www.w3.org/2000/svg" viewBox="0 0 600 500">
  <defs>
    <style>
      .a3 {
        fill: #a98e6a;
      }

      .cls-2 {
        fill: #c9caca;
      }
    </style>
  </defs>
  <g>
    <polygon class="a3" points="407.53 390.87 407.53 390.87 407.53 390.87 407.53 390.87"/>
    <polygon class="a3" points="450.53 353.02 450.53 353.02 450.53 353.02 450.53 353.02"/>
    <path class="a3" d="M294.89,102.92c-1.23,1.71-1.39,3.46-1.23,5.53.18,2.36.72,5.15,1.46,7.42.11.35.33.43.48,1.44.04.31-.07.71,0,.96.61.07.98-.16,1.24-.53h0c.08-.43.15-1,.24-1.54.04-.26.09-.52.14-.75.02-.07.03-.15.05-.22.42-1.83.84-3.66,1.45-5.44.36-1.04.87-1.75,1.43-2.5-.05.07-.1.13-.15.2-.11.01-.22.02-.34,0l-.18-.02v-.07c-.17-.09-.48-.31-.53-.82-.04-.45-.02-.92,0-1.36.02-.46.05-.89,0-1.32v-.08s-.01,0-.01,0c-1.86-.4-2.5-3.05-4.06-.9Z"/>
    <path class="a3" d="M231.65,164.71c1.3.34,3.41,1.27,4.68,1.1,1.23-.16,1.53-1.9,3.11-1.46.25.26-.91,4.08-1.19,4.81-1.08,2.77-4.97,7.82-5.06,10.3-.03.96.08.77.97.73,1.34-3.92,4.01-7.35,6.17-10.87.89-1.46,1.66-3.26,2.55-4.65,6.9-10.88,17.7-22.38,29.68-27.44,1.65-.7,3.57-1.13,5.29-1.67.09-.89-1.05-.46-1.58-.38-1.23.19-2.7.8-3.93.87-.59.03-1.05-.08-.73-.73.05-.1.99-1.51,1.06-1.58.51-.52,8.03-5,8.89-5.29.35-.12.73-.11,1.1-.09l-.48-3.36h1.92c.43-3.01-.63-5.38-1.44-8.16l1.92.48-1.44-4.8c.95-1.02,3.7,3.44,3.38.22-.29-2.93-1.46-6.1-2.03-9.01-.78-1.9-3.89-5.62-4.19-7.36-.09-.52.75-1.43,1.21-1.57,1.02-.31,1.63.42,2.59.43.08-.54-.03-.96-.21-1.47-1.05-2.97-2.25-5.88-3.08-8.93l1.85-3.52-.17.33c-.1-.04-.18-.09-.23-.14-.1-.1-.19-.28-.33-.54-.27-.51-.67-1.27-1.33-1.85-4.4-3.89-10.21-8.35-14.17-11.24-.19-.14-.39-.3-.59-.46-.81-.64-1.63-1.29-2.58-1.2l-.25.03-.03-.25c0-.08,0-.17,0-.26,0-.12,0-.23-.04-.34-.32-.84-6.58-4.75-7.92-5.23-.56-.2-.93-.25-1.11-.13-.2.12-.25.5-.32.98-.06.4-.12.86-.3,1.33-.2.54-.44,1.07-.68,1.58-.81,1.73-1.57,3.37-.43,5.26.23.38.65.74,1.1,1.12.72.61,1.46,1.23,1.58,2.08.17,1.21.22,8.72-.07,9.67-.16.52-.81.92-1.23,1-.35.07-.52-.06-.59-.15-.07-.08-.09-.2-.14-.4-.07-.31-.18-.82-.44-.96-.09-.05-.21-.05-.35,0-.83.29-1.41,2.75-1.54,4.32-.42,5.12.57,7.53,2.2,11.52.19.46.38.94.58,1.44,1.46,3.65,1.27,8.24,1.08,12.68-.11,2.66-.22,5.18.01,7.47v.03s-1.51,9.5-1.51,9.5l-3.1.95c0,.64-.21,1.4-.4,2.14-.18.69-.35,1.34-.32,1.74.09.46,3.11,6.21,3.59,6.84.44.58.99,1.03,1.57,1.5.34.28.7.57,1.03.88l.16.15-.13.18s-.05.17-.06.29c-.04.41-.11,1.1-1.3,1.27-2.19.3-4.64.04-7.01-.22-.93-.1-1.82-.2-2.67-.26-.04.35.11.45.42.67.1.07.21.15.33.24,1.12.92,2.98,1.79,4.28,2.36.14.06.25.09.34.11.55.14.54.42.43,1.19l-.03.19-3.86.48c-.02.23.08.5.18.76.14.37.29.75.08,1.08-.36.55-1.31.6-2.31.66-.72.04-1.54.09-1.76.36-.05.08,0,.42.02.6.04.34.07.61-.06.79-.14.19-.42.19-1.79.12-.88-.04-1.98-.1-2.37.02-.33.1-.42.39-.51.79-.05.21-.08.39-.21.5-.16.15-.43.18-.94.23-.46.04-1.23.11-1.31.38-.03.1-.03.53,1.3,1.68l5.06,1.52-.18.28c-1.07,1.64-2,1.23-3,.8-.42-.18-.84-.37-1.33-.44-.44-.06-.91-.04-1.41-.02-.25.01-.5.03-.75.03l1.81,3.16-.18.13c-.93.68-4.02.57-6.51.48-1.13-.04-2.41-.09-2.59-.01-.11.09-.1.15-.09.18.05.38,1.17.93,1.59,1.13.34.17.43.21.48.31.01.02,0,.05.01.08,0,0,0,.01-.01.02.42-1.05,1.61-.3,2.28-.12Z"/>
    <path class="a3" d="M246.73,345.09l-1.32-1.31c-1.02,1.18-.01,2.08.56,3.04.33.54.47,1.56,1.24,1.52-.08-1.1.31-2.34-.47-3.24Z"/>
    <path class="a3" d="M381.15,155.77c.1.55.2,1.1.29,1.65.04.23.07.46.1.69.01.1.02.2.03.31,0,.05.03.4.02.14.02.39.49.66.83.83-.35-4.48-1.36-8.77-1.06-13.41-.73.53-1.36,1.61-1.44,2.46-.11,1.2.03,2.44.2,3.62.17,1.27.8,2.46,1.03,3.72Z"/>
    <path class="a3" d="M251.58,333.52c-.3,0-.48.21-.77.08-.47-.34-.08-1.7-.32-2.03-.22-.37-1.2-1.57-1.48-1.48-.26.07-.57,1.45-.61,1.9-.04.25.18.54.35.75.36.73.5,1.52.73,2.36.36,1.58.68,3.08.6,4.53.04.05.13.14.17.19.25.09.32-.34.42-.54.1-.24.23-.55.37-.89.52-1.01.8-2.43,1.87-2.81.02-.06.05-.19.07-.25v-.1c-.12-.3-.81-1.59-1.4-1.7Z"/>
    <path class="a3" d="M286.42,259.83l-2.26.08c-1.29,2.64.25,1.9,2.05,2.06.36.03,1.72.63,1.55-.35-.04-.25-1.07-1.71-1.34-1.79Z"/>
    <path class="a3" d="M294.12,276.07c-.15-.7-.58-1.62-.75-2.35-.29-1.24.17-3.35-.08-4.51-.04-.2-.07-.22-.2-.39-.77-.98-1.65-2.05-2.48-2.98-.51-.67-1.29-.62-1.8-.03-.37.52.1.92.35,1.34,1.28,2.57,2.39,4.96,3.36,7.69.64,1.94,1.09,5.22,3.65,5.33-.16-.32-2.03-4.03-2.03-4.04l-.02-.06Z"/>
    <path class="a3" d="M448.36,343.68c-.03-.05-.06-.11-.09-.16l.07-.04c-.13-.3-.24-.61-.33-.92-.52-.75-1.29-1.45-1.49-1.86-.2-.41-.14-.55-.13-.64,0-.01,0-.03,0-.04,0-.02,0-.04-.03-.06-.32-.12-.77-.25-.99-.4l.07,1.12s.04.08.05.12c1.98,3.77,3.58,7.71,5.53,11.5h.04s.06.12.06.12c.16.32.42.98.64,1.56.12.3.25.64.29.75.19.06.72.13.93-.04.03-.03.12-.1.05-.38-.58-2.28-3.46-8.32-4.67-10.61Z"/>
    <path class="a3" d="M450.97,354.13h0s-.02-.01-.03-.02h0s.02.01.03.02Z"/>
    <path class="a3" d="M353.48,434.04s.03.01.04.02c.01,0,.02,0,.03.01-.01,0-.02,0-.03-.01-.01,0-.03-.01-.04-.02Z"/>
    <path class="a3" d="M457.69,327.21c.09,0,.18-.01.27-.01,0-.02.02-.04.03-.06-.02,0-.04,0-.06-.02-.66-.35-2.33-2.53-2.74-3.26-.52-.91-.83-3.52-2.05-3.83,0-.08,0-.16,0-.24-.02-.16.03-.35,0-.48,1.37,1.18,2.26,4,4.07,4.45.94.23.8-1,.73-1.7-.16-1.63-3.62-6.75-4.8-8.15-.52-.61-2.43-2.63-2.99-3.01-.33-.22-.71-.19-.82-.28-.08-.07,0-.31-.06-.39-.09-.12-1.5-.16-1.65.33-.18.65.91,2.37,1.32,2.98.7,1.06,2.06,2.33,2.64,3.37.16.28.09.69.12.72,0,0-.21.15-.22.16-.74,2.39.84,2.64,1.9,4.4.21.36.24.83.43,1.13.83,1.33,1.97,2.69,2.56,4.18.17-.06.35-.11.54-.15.06-.17.25-.24.47-.28.05,0,.11,0,.16,0,.06.05.11.1.17.14Z"/>
    <path class="a3" d="M422.58,350.09c-.08,0-.17,0-.26.02-.3.33.84,4.36,1.18,4.82.18.25.48.34.81.42-.01-.11-.02-.26-.01-.4-.03-.29-.02-.67.28-.61.21.46.45.9.68,1.34.08.05.15.11.21.18.91,1.06,1.78,3.02,2.61,4.8.79,1.29,1.6,2.56,2.4,3.84.14.03.29.02.2.02,0,0,0-.01.01-.01l.02-.02-.11-.17c.15-.1.38-.15.66-.21.41-.09.92-.19,1.25-.49.33-.3.35-.69.36-.91l.05-.58-10.34-12.06Z"/>
    <path class="a3" d="M437.12,357.91l1.48,2.46c.17-.01.34-.03.53-.03.07,0,.14,0,.2.01.32-.53,1.09-1.4,1.5-2.05.09-.18.16-.36.19-.55l-2.75-4.98c-.04-.1-.02-.2,0-.3-.07-.26.09-.48.17-.7,0-.06-.01-.13-.01-.19-.14-.34-.49-.65-.4-1.05-.02-.09-.04-.18-.02-.27.29-.04.54.11.77.27.36-.09,1.09.3,1.64.45.27-.08.43-.27.47-.61,0-.06,0-.14,0-.2-.02-.17-.06-.35-.1-.53-.29-.76-.77-1.81-1.26-2.82-.46-.74-.96-1.44-1.4-2.04-1.76-2.39-5.09-6.57-8.17-9.46-1.4-1.01-2.86-1.91-4.27-2.97-.5-.14-1.04-.25-1.35-.41-.81-.42-3.1-3.26-3.83-4.09l-1.98-2.17c-.14.13,0,.44.19.93.49,1.24,1.37,2.46,1.63,3.61.24.5.4.86.38.94,0,.02-.02.06-.05.09.03.09.05.16.05.18-.05.24-.94.82-1.18,1.72-.05.18.05.54-.36.35-.41-.18-1.15-1.62-1.52-2.09-.24-.3-.09-.4-.55-.34.25.64.69,1.67.84,2.4.24.23.53.5.34.63.13.18.12.33-.32.35-.51.03-.78.13-.92.28v.25c1.15,1.17,1.69,2.75,2.65,4.06.15.21.38.51.66.88,1.41,1.71,2.93,3.4,4.21,4.93.56.67,3.33,4.24,4.79,5.92.37.38.67.67.85.8.06.04.15.08.22.12.23.01.48-.03.7.03.2.06.58.39,1.02.75.9.34,1.85.67,2.57,1.06l2.4,4.36Z"/>
    <path class="a3" d="M468.95,212.17c-.12.38-1.83,1.78-2.25,2.32-.22.28-.48.69-.59,1.07.11.22.29.43.45.54.04.01.07.03.12.04.33.05.92-.07,1.57-.24,1.46-.64,3.3-1.98,4.59-2.09-.04,0-.07,0-.11,0-.03-.3,0-.81.02-1.35.02-.45.05-1.1.01-1.32-.3-.12-1.33-.45-1.46-.46h0c-.31,0-.53.2-.77.43-.19.18-.39.37-.66.47-.3.11-.59.1-.82.08h-.09s.02.11.01.16c.02.14.02.26-.01.37Z"/>
    <path class="a3" d="M432.4,250.71c-1,.61-.09,1.74,1.28.8.57-.39.85-.84.73-1.55-.29-.29-1.64.52-2.01.75Z"/>
    <path class="a3" d="M419.05,247.56v-1.2c-1.14.2-3.2-.27-4.2,0-.13.04-.42.39-.36.6.14.45.89.32,1.27.41,1.68.42,3.16.72,4.72,1.52.39.2.93.81,1.33.85.54.04,2.77-.69,3.41-.93.38-.14.66.16.54-.53-2.25.05-4.47-.53-6.72-.72Z"/>
    <path class="a3" d="M457.34,209.42c-.95,1.13-1.71,2.43-2.74,3.5-.14,1.18-.17,3.18,1.17,1.65.61-.69,1.75-3.19,2.11-4.13.18-.49.36-.98.29-1.51-.42-.08-.6.21-.83.49Z"/>
    <path class="a3" d="M450.58,286.14c.93.72,1.87,1.44,2.8,2.15.02.01.03.03.04.05.27.12.55.24.82.36.09.04.16.1.22.17.19.07.38.14.57.21.08.03.14.07.19.12.15-.02.31,0,.46.1,1.05.65,2.1,1.31,3.15,1.96.27.17.34.6.14.85,0,0-.02.01-.03.02.08.04.15.09.23.13-.07,0-.15.02-.22.02.26.1.47.33.43.63-.05.31-.33.6-.67.55-1.12-.19-2.23-.38-3.35-.57-.32-.05-.6-.33-.55-.67,0,0,0-.01,0-.02-.03,0-.05,0-.07,0-.34,0-.62.14-.77.4.1.06.19.12.28.18.7.38,1.41.76,2.11,1.14.13.07.23.26.25.4,0,.02,0,.04,0,.06.18.1.36.21.54.32.28.18.55.38.82.57.95.28,1.89.59,2.83.93.22-.34.13-.87-.21-1.08-.58-.36-1.14-.79-1.72-1.2.14-.03.27-.05.41-.07.03,0,.03,0,.04,0,.01,0,0,0,.04,0,.07,0,.15,0,.22,0,.13,0,.27.03.4.05.03,0,.06.01.09.02.06.02.12.03.18.05.2.06.39.15.58.24.21-.14.47-.12.69,0,1.42.77,2.83,1.54,4.25,2.31.12-.34.02-.71-.27-.94-1.19-.95-2.52-2.2-3.99-2.87.03-.04.04-.09.05-.14-.25-.16-.51-.32-.76-.48-.13-.08-.22-.25-.25-.4-.02-.14.01-.32.1-.44-3.17-1.86-6.36-3.67-9.77-5.07-.11-.04-.2-.05-.3-.05Z"/>
    <path class="a3" d="M470.88,234.31c-.09-.22-.28-.39-.58-.43-2.27-.3-4.61.48-6.85.49-.06.75,1.05,1,1.61,1.15,1.47.39,4.15.6,5.44-.22.13-.08.22-.19.29-.3.02-.23.05-.46.09-.69Z"/>
    <path class="a3" d="M434.89,334.54c-.78-.47-1.99-2.19-2.88-2.64-.47-.24-1.02-.04-1.53-.15-.42-.09-.79-.61-1.36-.44-.1.41.16.48.36.72.51.61,3.03,2.77,3.01,3.23,0,.21-.18.38-.21.54-.07.37,1.52,1.69,1.89,2.11,3.73,4.18,7.37,8.98,11.98,12.25.58.41.98,1.29,1.93.71.5-.3.13-.47,0-.72-2.48-4.56-7.35-9.18-10.79-13.2-.78-.91-1.52-1.86-2.4-2.4Z"/>
    <path class="a3" d="M474.24,249.64c-1.52-1.13-6.51-3.54-8.31-3.93-1.7-.37-3.16-.74-4.64-1.16-.25,0-.46,0-.57-.04-.02,0-.03-.06-.07-.14-1.01-.3-2.05-.62-3.2-.98-.36-.11-2.09-.71-2.37-.59.53.78,1.91,1.16,2.75,1.48.93.36,2.29.47,2.88.72.3.12.93.39,1.77.75.98.34,1.91.72,2.74,1.18,2.96,1.29,6.52,2.89,8.11,3.75.23.02.44.09.61.3l.07-.04c.07-.04.14-.08.22-.13.2-.13.41-.26.63-.28.08,0,.16-.01.24-.01-.28-.25-.61-.67-.86-.86Z"/>
    <path class="a3" d="M297.86,440.15c.03-.6-.29-1-.26-1.56l.51.34c1.7.15,2.19,2.69,4.09,2.4.6-.52-.96-2.14-.95-2.9-.19-.6-2.1-3.26-1.73-3.67l.58.32c1.66-.04,4.2,2.22,4.63-.23,0-.04,0-.07.01-.1-.17-.58-.95-1.01-1.53-1.39-2.07-1.33-4.51-2.35-6.57-3.75l-1.56-.69c-.29.47.8,1.26.93,1.68,0,0,0,.02,0,.03.1.1.19.2.27.3.93,1.31,1.16,3.03.56,4.51-.48.03-.76.64-1.07.73-.62.19-2.24.15-2.46-.6-.2-.67.31-1.22.2-1.62-.05-.18-1.63-1.72-1.91-1.94-1.51-1.16-4.17-2.54-5.91-3.45-.15-.08-.46-.24-.83-.44-1.44-.66-2.75-1.18-3.68-1.43-.73.2-1.93.68-2.46.82-.76.2-1.82.02-1.5.98,1.47,1.22,6.98,2.86,8.55,4.18.3.25.82.85,1.38,1.57,1.33.94,2.62,2.09,2.26,3.71,0,.04-.03.07-.04.11,0,.05,0,.1,0,.13-.05.19-.17.34-.34.45-.64.63-1.86.6-2.7.32-1.09-.36-1.15-1.46-1.78-2.06,0,0-.04-.03-.06-.05-.6-.43-1.15-.77-1.58-.83-.55-.08-1.15.01-1.74.03-.25.07-.49.14-.69.15-.97.07-1.77-.35-2.72-.25.01.09.04.19.11.32,2.36,1.82,4.77,3.57,7.2,5.3.21.15.31.35.38.51h0s.22.14.22.14c.52.33,1.21.68,1.96,1.04.96.47,1.94.96,2.63,1.47.69.52,1.35,1.16,1.99,1.79,1.61,1.57,3.27,3.2,5.67,3.2.04,0,.08,0,.12,0h.15c.15,0,.37,0,.41-.04,0,0,.03-.08-.07-.34-.22-.59-1.19-1.76-1.89-2.61-.7-.85-.93-1.14-.97-1.31-.03-.14.02-.34.61-1.84.14-.37.27-.7.33-.88l.06-.17h.18c.1,0,.2.02.3.03-.03.07-.06.14-.08.21h0c.18-.53.42-1.04.61-1.57.11-.37.2-.74.21-1.03Z"/>
    <path class="a3" d="M207.2,429.63c-.08-.38-3-6.48-3.26-6.82-.37-.49-.8-.83-1.46-.7-.14,1.02.24,1.93.48,2.88h0c-.01-.05-.03-.1-.04-.16l.04.04.02.07c.37,1.47.96,3,1.52,4.47.78,2.03,1.58,4.12,1.84,6.11,0,0,0,0,0,0,0,0-.01.01-.02.01h0c1.47-.62,1.14-4.74.88-5.92Z"/>
    <path class="a3" d="M469.78,240.38c-.16.04-2.02-.78-2.42-.91-.27-.09-.61,0-.88-.08-.26-.08-.44-.53-.74-.44-.21.06-.58.64-.86.83-.15.1-1.01.61-1.07.61h-3.72s0,.03,0,.04c0,.03.01.06.03.08l.41.1c.19,0,.41-.03.6.02,1.79.47,3.69,1.04,5.56,1.4.44.08,1.39-.18,1.55.37v-.05h4.06c.09-.37.08-.64-.02-.8-.13-.21-.45-.28-.79-.35-.36-.08-.77-.16-1.04-.46-.22-.25-.17-.62-.15-.84,0-.01,0-.02,0-.03-.19.17-.37.46-.54.5Z"/>
    <path class="a3" d="M236.52,431.28c-.23-.26-6.42-2.19-6.68-1.97-.62.55.75,1.29,1.11,1.53,1.39.93,2.93,1.62,4.17,2.79h0c-.09-.09-.19-.15-.29-.23l.29-.03c.35-.04.77-.16.98-.76l.25-.71.21.65h0s0,.06,0,.1c-.09-.36.17-1.13-.04-1.36Z"/>
    <polygon class="a3" points="285.52 442.27 285.52 442.27 285.52 442.27 285.52 442.27"/>
    <path class="a3" d="M252.4,436.03s-.02-.04-.03-.06c0,.02.02.04.03.06h0Z"/>
    <path class="a3" d="M351.8,433.04s0,0,0,0c0,0,0,0,0,0Z"/>
    <path class="a3" d="M492.78,95.67c-.41-1.44-1.29-2.54-1.94-3.35-.39-.49-.67-.84-.76-1.15-.17-.58-.37-3.24-.54-5.77l-.03-.44c-.05-.66,0-1.49.05-2.36.07-1.27.15-2.57-.07-3.32-.06-.19-.3-.42-.6-.57-.21-.1-.35-.11-.35-.12-.17.3-1.12,3.81-1.3,4.57-.07.3-.07.65-.07.99,0,.86,0,1.84-1.16,2.21l-.25.08-.06-.26c-.74-3-1.14-6.11-1.52-9.12-.27-2.11-.55-4.3-.94-6.39-.39-1.09-1.47-1.46-2.43-1.78-.48-.16-.94-.32-1.27-.55-.26-.19-.4-.49-.54-.78-.12-.25-.24-.52-.43-.69-.97-.86-2.31-1.74-3.16-1.62l-.2.03-.05-.15s-.03-.03-.05-.04c-.17-.15-.54-.48-.7-.93-.25-.69-.43-1.42-.6-2.13-.35-1.44-.68-2.8-1.56-3.86-.02.07-.03.18-.05.34-.02.25-.05.56-.2.85-.52,1-1.76,1.81-2.89,1.88-.79.04-1.45-.26-1.88-.88-.5-.72-.82-2.18-1.16-3.73-.27-1.21-.54-2.47-.9-3.28-.52.26-1.07.33-1.61.39-.61.07-1.19.14-1.68.48-.38.25-.51.6-.62.89-.1.26-.21.55-.53.55h-.14l-.07-.12c-.09-.14-.18-.3-.28-.46-.46-.79-.98-1.67-1.88-1.81-.03.45-.31.78-.57,1.08-.23.28-.44.51-.43.8,0,.34.23.83.46,1.3.26.54.52,1.11.52,1.59,0,.4-.56,2.34-.72,2.75-.62,1.59-3.42,4-5.08,4.38-1.44.32-3.47-.1-5.26-.47-.79-.17-1.54-.32-2.18-.4l-.17-.02-.04-.17c-.22-.89.56-1.53,1.18-2.04.33-.27.66-.55.73-.76.03-.11-.2-.44-.37-.67-.35-.49-.78-1.08-.64-1.73,0,0-.01,0-.02,0-1.04,0-5.92,3.03-6.97,3.89-2.08,1.7-3.67,3.99-5.21,6.21-.85,1.22-1.72,2.47-2.66,3.62-.42.51-1.05,1.07-1.67,1.61-.77.68-1.57,1.38-1.91,1.96-.33.55-.58,1.36-.83,2.15-.22.71-.45,1.45-.75,2.02-1.07,2.07-2.5,2.88-4.01,3.74-.77.44-1.57.89-2.38,1.54-4.19,3.37-5.88,8.87-7.38,13.73l-.33,1.05-.26-.13c-1.23-.62-3.92.12-4.78.9-.42.38-.63.86-.83,1.33-.16.36-.32.73-.58,1.05-.4.5-.9.96-1.39,1.4-.46.42-.9.81-1.25,1.25-.35.42-.64.9-.94,1.41-.48.8-.97,1.62-1.73,2.23l-.2.16-.16-.2c-.44-.58-.18-1.74.07-2.86.16-.72.39-1.72.19-1.92-.14-.14-.28-.19-.45-.15-1.12.21-2.78,3.33-3.23,4.38-.68,1.6-2.61,7.67-2.61,8.79v7.81l-.35-.14c-1.4-.58-1.55-1.67-1.71-2.83-.05-.38-.11-.77-.21-1.17-.99,1.82-1.5,3.94-2.07,5.93-.14.51.11,1.24,0,1.66-.02.07-.64.55-.86,1.29-.33,1.1-1.08,3.6-.1,4.23,1.95,1.27,1.28-.76,1.45-1.93.08-.51.44-.93.47-1.19,1.46-.26.93.74.96,1.68.06,2.09-.49,3.72-.49,5.75l-1.91,7.93c-1.68.49-.62-2.23-1.92-2.4-.43,1.56.4,3.32.47,4.57.24,4.51.05,9.38,1.06,13.82.52,2.3,2.03,4.92,2.3,7.3.46,4.06.02,8.62.5,12.94.15,1.39.84,2.93.47,4.57-.49-.09-1.16.32-1.45-.3-.54-1.18-1.29-2.14-1.81-3.41-2.7-6.53-3.84-13.91-5.39-20.78-1.02-.04-.91-.22-.96.72-.03.67.14,2.9-.05,3.08-.13.13-.63.09-.9.28-.27.18-1.03,4.62-.99,5.27.06.99,1.68,5.85,2.17,6.99.8,1.86,4.34,7.33,5.75,8.65,1.34,1.27,5.07,3.21,5.97,4.59.27.43,1.17,3.44,1.02,3.54h-1.45c1.04,4.72,2.79,9.47,5.36,13.61,2,3.22,3.95,5.16,6.88,7.52.84.68,3.62,2.13,3.62,3.11,0,1.62-1.69,1.04-2.64,1.21-1.23.23-1.88.65-3.36.46-1.19-.15-2.31-1.12-3.61-.95.73,1.43.19,3.25.55,4.49.19.67,1.59,1.87,1.79,2.53.42,1.44-.22,3.02-1.85,3.06v-3.84s-3.84.48-3.84.48c-.36.29,1.28,6.07.96,7.2l-1.44-.48c.18,2.7-.99,1.19-1.92,0-1.22-1.55-2.5-3.6-3.83-5.05-.68-.74-2.46-1.84-2.66-2.14-.68-1.03-.36-2.39-2.63-2.41.35-1.49-1.89-3.41-1.44-3.84l1.92.48-.5-2.15c.06-.54,1.15.23.99-.98-.09-.75-1.39-1.73-.97-2.16.54-.53,1.6,1.3,2.4.96.23-1.19-.38-1.67-1.19-2.41-.47-.43-4.13-3.24-4.39-3.32-.67-.19-1.91.71-2.1.45-.13-.18.19-1.12-.04-1.39-.16-.2-3.51-1.53-4.53-2.44-1.03-.93-3.34-5.27-3.56-6.55-.12-.72.96-1.02.95-1.85,0-.43-1.26-2.21-1.48-3.35-.27-1.4,1.61-.43,1.93-.73.06-.06.05-1.27-.06-1.62-.23-.77-2.27-2.11-2.82-2.94-.06-.48.72-.1.93-.26.54-.4-1.85-3.42-1.94-4.25-1.82-.58-3.98.47-5.48.48-1.25,0-2.37-.94-3.6-1-.39,2.59-3.48,5.47-5.51,7.22-1.71,1.48-1.13,1.56-2.25,3.5-1.55,2.7-4.78,6.19-5.94,8.46-.36.7-.15,1.85-.23,1.93-.39.42-2.64-1.06-1.71,1.47.15.4.63.81.69,1.24.07.52-.59,1.1-.4,1.81.21.77,4.48,2.72,4.78,4.12-1.78.17-3.32-1.2-4.78-1.7-.95-.32-6.87-1.49-7.22-1.18-.3,1.1,1.26,1.55,1.4,2.22.11.52-.63,1.01-.44,1.62-.12.11-3.68-1.29-2.88.24.62,1.18,7.51,4.6,8.88,6,1.27.32.47-1.09.72-1.44,1.87-.25,3.4,1.22,5.28.96v-1.92s3.84.48,3.84.48c-.38-1.55-2.22-2.17-1.92-3.84h2.88c.15-.13-2.63-2.9-.71-3.36.41-.1,1.33.76,2.35.45.79-.24.72-1.92,1.96-1.91.56,0,4.34,3.07,4.56,3.62.39,1-.7.59-.91.75-.85.63,1.25,2.74,1.34,3.15.09.4-.55,1.31-.44,2.32.09.86,1.7,3.91,1.45,4.09-2.13-.39-1.09.64-1.66,1.47-.29.43-1,.34-1.18.5-.25.23.07,2.2-.05,2.83l-2.88-.48c.83,1.4,3.55,2.91,2.19,4.82-.47.66-1.56.35-1.71.46-.63.47,2.15,2.32,1.44,3.36-.85.09-1.37-.62-2.07-1.05-1.16-.71-4.67-3.56-5.46-3.7-1.11-.2-2.48.95-3.75.95-.88,0-3.93-1.09-4.53-.49-.27.28-.72,2.62-1.45,3.11-1.52,1.03-3.7-1.5-5.06.7-.8,1.3-.49,2.77-.81,3.99-1.21,4.53-3.52,9.97-6.62,13.54-.5.57-1.08,1.33-1.93,1.19l.48-4.8c.28-.03.59.12.88-.06l2.89-9.87c.05-.34-.25-.96-.41-1.33-.42-.97-.82-.2-1.11.42h.39c.05.19.05.19.24.24-.03.39.05.82,0,1.2.05-.38-.03-.81,0-1.2-.2-.05-.19-.04-.24-.24h-.48c-.57.93-.88,1.7-2.16,1.44-.07.81.1,1.73,0,2.52-.15,1.12-.92,2.38-1.2,3.48,0,0,.01.02.02.05,0,.03.02.06.03.09.02.05.06.08.12.09.02,0,.03.01.05,0-.01-.07-.02-.13-.02-.18s.01-.09.03-.13c.08-.18.3-.2.49-.31.04-.02.08-.05.11-.08.17-.16.32-.31.47-.47.43-.47.78-.95,1.15-1.53.03-.04.05-.09.06-.13.1-.27.05-.55.4-.54.06,0,.12,0,.21.03,0,0,0,.02,0,.02-.05.74,0,1.41-.09,2.11-.04.27-.1.54-.2.82-.07.19-.14.36-.21.53-.02.04-.03.09-.05.13-.22.48-.46.89-.72,1.25-.15.21-.3.4-.46.57-.4.45-.8.79-1.14,1.04v.05s-.26.12-.26.12c-.26.17-.47.28-.6.35-.02,0-.03.02-.05.03-.03.02-.06.03-.08.05-.35.24-.73.49-1.11.73-.18.11-.36.23-.55.34-.38.23-.77.45-1.16.66-.05.02-.09.05-.14.07-1.05.55-2.14,1.02-3.21,1.3l.42,3.53c-1.43.25-3.13.89-4.55.98-.31.02-.79.14-.72-.25h0c.62-.4,3.43-2.47,3.93-3.79-.06.02-.13.04-.2.06-.67.19-1.72.23-2.05.22-1.14-.04-2.85.51-3.97.35-.64-.09-1.59-.79-2.2-.92-.68-.15-1.63-.14-2.34-.2-.04-.03-.46-.36-.78-.62-2.25-.75-4.61-2.77-5.95-4.46-1.8-2.29-2.3-5.09-1.57-7.85.05-.2.1-.4.16-.6-.07-.47-.19-.94-.39-1.4l-.25-3.59-2.89,1.91c-.96.73-.88,2.44-.63,3.54.05.23.85,2.1.94,2.18.76.58,1.7-.71,1.86,1.98,0,.15.02.33,0,.48-1.13.42-1.75.42-2.88,0-.06-.27-1.38-2.71-1.51-2.81-.36-.27-1.47.17-1.79-.85-.39-1.25-1.43-5.09-1.52-6.2-.1-1.27,1.39-2.97,2.19-4.04,3.29-4.38,3.82-3.6,7.9-6.02.81-.48,1.67-2.02,2.4-2.4.65-.34,7.12-1.71,7.93-1.71,1.38,0,5.53.76,7.11,1.09,1.68.35,4.32,1.69,5.87,1.84,1.13.11,1.84-.45,2.84-.51.95-.05,5.34.21,5.54.02,1.03-1-1.62-2.37-2.38-2.66l-9.64-2.84c-.77-.49-.33-1.91-.53-2.83-.26-1.18-1.23-1.45-.81-3.36.09-.41,1.6-3.31,1.82-3.46.52-.33,1.31-.12,1.95-.45.82-.41,2.05-2.5,2.86-2.9.71-.36,1.83-.15,1.93-.23.14-.12-.14-1.95.04-2.6.5-1.77,7.59.09,6.15-4.79-.29-.98-3.74-1.17-.42-3.39.97-.65,2.99-.84,3.32-1.99.23-.81-.74-1.65-.4-2.75.55-1.75,3.66-3.59,2.83-6.07h1.92c.1-.75-.67-1.31-.44-2.08.16-.53,1.2-1.27,1.35-2.08.14-.78-.42-1.44-.45-2.29-.15-3.75.28-7.49.49-11.07.08-1.37-.19-3.03-.02-4.28.06-.45.94-.29,1.25-.72.35-.49.32-1.99.14-2.61-.18-.63-1.16-.83-.89-1.75,2.39-.35,4.37,1.34,6.72,1.44-.11-.74-3.08-2.74-2.4-3.36,1.52-.26,2.84.35,4.32.48-.2-.87-1.64-1.47-1.86-2.22-.64-2.21.63-2.76-1.13-5.6-.25-.4-.32-1.19-.4-1.27-.1-.1-2.71-.09-2.81.02-.53.58-.51,2.38-2.44,1.87-1.15-2.91-3.04-7.68-5.75-9.37-1.66-1.04-2.57,1.97-3.58,1.68-1.05-.3-4.25-5.93-6.27-6.23-.63-.09-.97.05-.72.72.21.54,1.85,2.74,1.44,3.12h-3.36s.48,3.84.48,3.84c-1.98-.52-3.8-1.54-5.75-2.17-.68-.22-4.63-1.37-4.81-1.19,0,1.02.7,2,1.44,2.64l12.96,4.32c1.69,1.61,5.92,5.06,1.44,5.52-.2.85.52,1.08.89,1.75,1.77,3.15,1.27,4.26,2.06,7.06.34,1.2,2.82,2.94.63,4.62l-2.13-.47c-.11,1,.16,2.17.01,3.13-.14.91-1.28,1.47-.98,2.62-.52.71-6.35-2.25-7.19-1.43-1.02,1,2.46,3.43,3.05,3.91.34.28,1.29.9.79,1.37-.28.26-1.22-.48-1.68-.49-1.19-.01-4.16,1.26-3.62,2.87l-5.73.03c-.03.59.04,1.32-.47,1.69-.58.42-2.96,1.13-4.03,1.73-1.58.88-6.54,3.54-7.52,4.48-.6.57-.74,1.84-.95,2.65-.8.12-.44-.65-.48-1.2-.05-.77.24-2.38-.72-2.64-.75-.2-3.55,1.75-4.33,2.39-6.09,5-14.97,18.64-18.24,25.92-4.03,8.95-3.26,14.37-3.57,23.79-.03.85-.49,1.51-.52,2.36-.12,2.79.13,5.63.02,8.42-1.18.13-6.68.94-7.17.45-.12-.12-.86-2.31-1.46-3.1-1.61-2.13-4.6-4.08-6.26-6.22-.76-.98-.9-2.74-2.39-2.65l.96,5.28c-.39.42-2.87-2.14-2.39-.25.45,1.76,2.62,4.58,2.84,5.82.16.88-2.57,2.06-3.12,3.06-.68.2-1.12-1.27-2.32-.92-.67.19-3.63,3.51-4.43,3.74-.77.23-3.17.94-3.77,1.03-.58.08-1.93-.16-2.12.04-.11.12-.06.61-.29.89-1.7,2.1-3.45,4.21-4.64,6.66l-13.35,6.81c0,.42-.26.72.27.95,1.19.52,2.3.27,1.42,1.94-.81,1.55-6.2,3.92-7.92,5.04-4.34,2.83-6.46,4.58-9.86,8.38-.48.54-1.19.46-1.6,1.28-.21.41-.76,2.34-.53,2.54.2.17,1.74.2,1.42,1.22-.31,1.01-4.53,2.47-5.51,4.09-.63,1.03-.37,2.86-2.41,1.44l.24,1.92h-7.44c-.07,0-.51.69-1.05.87-1.67.55-4.52.55-5.92,1.28-.66.35-3.25,3.35-3.59,4.1-.19.42-.72,2.28-.72,2.63,0,1.82,1.73,5.76,1.93,8.14.05.56-.06,1.14-.02,1.7h-2.4c.22.73.32,1.94.57,2.55,1.48,3.56,3.92,7.97,5.92,11.36.28.47.99.83,1.19,1.21.41.8-.59.88-1.17.69-.57-.18-2.52-3.06-3.15-2.37-.61,3.27,1.03,2.3,1.86,2.93.7.54.63,5.7.56,6.93-.06,1.01-.46,4.27-.72,5.04-.71,2.13-3.01,4.69-4.76,6.56-2.17.68-3.4,2.56-4.05,4.7-.07.24-.55.77-.7.86-1.12.69-1.72,1.85-2.25,3.02-.25.56-.49,1.12-.81,1.64-.07.11-.14.21-.21.32-.08-.04-.16-.08-.23-.15-.1-.09-.17-.2-.21-.32,0,0,0,0,0-.01-.1.08-.22.13-.37.16-.04.02-.07.05-.11.07-.11.07-.24.11-.37.12-.13.03-.27.02-.4-.02-.01,0-.02-.01-.03-.02-.15.08-.32.15-.48.14-.13,0-.27-.03-.39-.08,0,.02-.02.05-.02.07-.1.31-.18.62-.25.94-.11.51-.73.86-1.23.7-.13-.04-.24-.11-.34-.18-.36-.07-.67-.31-.77-.69-.03-.13-.08-.25-.12-.37-.02-.05-.06-.1-.08-.16,0-.03-.02-.06-.03-.1-.11-.22-.23-.42-.37-.62-.14-.18-.31-.32-.48-.48-.02,0-.04,0-.06-.01-.12-.04-.23-.11-.32-.21-.06-.05-.08-.12-.12-.19-.04-.02-.07-.05-.11-.07-.13-.04-.26-.09-.4-.11-.03,0-.06,0-.09,0-.29-.01-.57-.16-.76-.38-.21.04-.42.08-.65.1-.06,0-.12.01-.18.02-.08,0-.17.02-.25.02-.28.03-.55.05-.85.08-.11.01-.22.01-.34.01-.24,0-.49-.03-.73-.03-.13,0-.25,0-.37.02-1.01.13-1.78.38-2.4.48-1.34.22-3.28-.1-4.35,1.18-.42.5-.4,1.24-1.02,1.35-.2.03-.47,0-.84-.13-.03,0,.09-.4-.24-.48-.1-.03-.19-.03-.28-.03-.56,0-.67.64-.96.99-.87,1.03-2.12,2-1.92,3.36-2.75-.06-.05-2.99-.16-3.62-.11-.63-1.47-3.03-2.29-3.09-.06,0-.11,0-.16,0-.24.07-2.77,2.64-3.16,3.1-1.16,1.38-2.11,2.47-1.9,4.32.11,1,.86,5.4,1.18,6.02.46.9,2.94,3.14,3.84,3.84.36.28,1.24.92,1.78.95.32.03.53-.14.43-.72-.19-1.12-1.67-1.86-1.39-3.27.13-.66,1.03-1.38.91-2.24,0,0,.04,0,.07,0,.37.04,1.6.37,1.82.48.34.18.84.95,1.44,1.44.25,1.03.27,2.63.55,3.53.04.14.16.3.33.46.32.38.81.81,1.24,1.21.42.37.76.67.76.79,0,.22-2.01,1.44-1.44,2.64-.02,0-.04,0-.06,0-.14.02-.28.02-.43.02-.07,0-.15,0-.23,0-.48-.03-.98-.08-1.41-.04-.08,0-.17,0-.25.02,0,0-.02,0-.03,0-.04-.09-.12-.21-.21-.34-.81-.42-1.04.16-1.83,1.13-.56.42-1,.94-1.24,1.59-.2.39.03.63.01.95l-.02.08c-.99,2.94,1.75,7.1,4.69,7.87.22.09.38.33.56.58.57.2,1.18.42,1.73.55.03,0,.06.01.09.02.11.02.21.04.31.05.15.02.3.04.43.03.01,0,.02,0,.06,0,1.38-.09,2.53-1.95,4.06-1.94.09.1.18.24.28.39.07.02.13.02.22.04.37.11.64.44.87.83.05.06.08.12.13.18.18.34.33.7.48.98.05.02.11.04.18.08,1.02.39,2.54.77,2.65.85.04.03.02.16,0,.31,1.02.43,2.2.96,2.29,1.08,0,0,.01.03.02.04.03,0,.07.02.08.02.03.03.05.12.06.25.01.01.02.03.03.04,0,.1,0,.22,0,.35.08.16.25.27.59.23-.06.18.06.53-.03.8-.17.51-1.43,1.12-1.17,2.08-.57-.25-1.19-.15-1.76-.28-.07-.02-.14-.05-.21-.08-.72.03-1.51-.03-2.21-.06-.5.29-.91.74-1.06,1.3-.09.34.04.76-.15,1.05-.12.18-.53.26-.74.46-.67.65-.97,1.19-.84,2.16-.6.03-.76-.67-1.44-.48-.11.92,0,1.58.33,2.3.02.04.04.06.06.1.86,1.5,2.16,2.55,3.12,3.79.4.39.8.79,1.18,1.24.34.4.42.6.37,1.08,0-.05,0-.1,0-.14l.12.03c.58.16,1.24.42,1.87.66.63.25,1.23.48,1.75.62l.19.05v.18s-.02,0-.02,0h0,0c.91.25,4.86,1.31,5.28.96.9-.74-.66-1.01-.96-1.18-1.08-.6-3.66-1.4-4.09-2.17-.38-.68-.59-1.68.5-1.46,5.27,1.37,9.8,4.4,14.39,7.21,1.93-.04-.47-1.8-.96-2.4-2.16-2.59,1.26-.76,2.89-.49,1.15.19,2.62.32,3.84.48,1.31.17,2.63-.62,3.28-.43,1.48.43,4.37,3.38,5.91,3.72,1.5.33,3.4-.08,4.96.08-1.29,2.96.3,3.17,1.93,5.03.52.59.75,1.3,1.42,1.94,1.06,1.01,1.97.83,2.36,2.44l.27.15c.95.52,1.4,1.39,1.84,2.24.19.36.37.71.58,1.02.21.31.46.52.69.72.45.39.91.78,1.02,1.8,0,0,0,0,0,.01,0,0-.02,0-.02,0h0,0c.71.08,2.18.1,2.39-.74.15-.6-1.38-4.55-1.81-5.36-1.54-2.98-4.7-6.02-6.27-9.09-.36-.71-.73-1.2-.56-2.08.91-.94,3.72,2.6,4.23,3.22.31.38-.06,1.02,1.28.62.91-.27,1.13-4.12,1.68-5.06.14-1.5-1.6-4.51.96-2.38,1.09.91,1.94,2.07,2.88,3.12-.29,2.13,1.22,3.83,1.83,5.63.45,1.32-.26,1.22,2.01,1.09-.39-1.8-.71-3.6-1.06-5.4-.05-.25-.37-.33-.38-.36-.21-1.14.02-2.51.49-3.56.21-.48.78-.39,1.16-.24.45.17,3.15,3.47,3.57,4.11.99,1.53,1.46,3.71,1.99,5.45,1.56-.67,3-.33,4.55-.49.7-.07,1.22-.47,2.17-.47.98,0,1.5.4,2.4.48-.04-.79.06-1.61,0-2.4l5.05,3.83c3.03,3.29,6.92,6.16,8.76,10.34.12,0,.24,0,.36,0,.17,0,.34-.01.51,0,.06,0,.12.01.18.02,0,.06.02.13.02.19-.23-3.25-3.79-6.89-4.32-9.81-.12-.68-.25-1.42.72-1.2,2.92,2.52,5.74,5.14,8.63,7.69,1.32,1.17,3.72,2.28,4.09,4.31h0c-.01-.08-.05-.14-.07-.21,1.36.14,2.42,1.08,3.44,1.99.44.39.9.8,1.37,1.13l.12.08c1.17.83,4.74,3.36,5.75,3.5.43.06.5-.03.51-.03.02-.02.03-.13-.05-.36-.19-.5-.66-1.08-1.11-1.63-.42-.53-.83-1.02-1.04-1.49-.13-.29-.18-.56-.21-.76-.01-.07-.02-.16-.03-.18l-.28-.54.32.11c.01.07.03.14.02.22h0c.05-.46-.24-.77-.72-.72-.14-.63-.68-.71-.96-1.44-.04-.11.04-.33,0-.47h-.48c-.05-.23.06-.35-.24-.49.04-.48-.25-.78-.72-.72-.06-.12-.2-.46-.24-.48.04-.48-.25-.77-.72-.72-.07-.16-.17-.32-.24-.48-.08-.2-.14-.4-.22-.58-.1-.11-.2-.21-.3-.31-.11-.05-.25-.08-.43-.08-.33-.52-.7-1.08-1.15-1.47,0,0,0,0,0,0-.46-.39-1.01-.6-1.72-.45l-.14-.21-.34-.03c-.03-.07-.56-.21-.73-.36-.27-.25-.21-.58-.23-.6v-.27c-.17-.36-.23-.85-.09-1.57.54.11,1.62.1,2.3-.2.04-.03.07-.05.11-.08.02-.02.06-.02.1-.03.1-.06.18-.13.24-.21,0-.05,0-.09-.03-.16-.12-.27-2.78-2.84-3.23-3.24-.46-.41-1.1-.95-1.68-1.33-.09,0-.17,0-.21-.02-.16-.11-.32-.23-.49-.37-.13-.06-.25-.14-.38-.19,0-.05,0-.09,0-.13-.28-.24-.57-.48-.87-.68-.16-.11-.29-.19-.42-.29-.36-.12-.79-.16-1.09-.1-.15-.18-.19-.5-.24-.79-.28-.18-.56-.33-.89-.48-.13.05-.27.09-.42.08-.2-.01-.57-.18-.85-.25-1.74-.44-3.07-1.75-4.56-2.16v-.36s-.06-.03-.09-.04c-.59-.23-.94.12-.71.71.06.15.13.29.21.43.27.29.54.59.84.94v.18c.15.18.3.35.45.54,0,0,.02,0,.03,0,.2.05.21.18.22.32.31.42.56.86.68,1.36h.06c.02.22.03.51,0,.72h0c-.01.18-.03.36-.08.56-.59.14-1.06.09-1.48-.07-.04,0-.07,0-.12,0-.03-.05-.73-.13-1.09-.47-.45-.42-1.17-1.29-1.49-1.84-1.11.14-.1,1.42-2.23.87-1.47-.38-5.96-3.59-7.28-4.72-.55-.47-2.9-2.72-3.11-3.13-.45-.88.75-.81,1.2-.72,1.71.31,4.36,2.23,5.99,3.13.36.2,1.2.82,1.65.61-1.25-1.26-3.16-3.61-3.69-4.44-.37-.59-.62-1.13-.32-1.38-.02-.11-.04-.21-.04-.31.46-.43,5.95,2.66,7.43,2.89.22.03.56.09.68-.06-.86-.63-1.99-1.35-1.79-2.24-.06-.18-.1-.37-.09-.58,3.78-.08,7.95,2.03,11.21,3.91,3.78,2.18,7.02,5.18,10.71,7.53.62.4,2.24.88,2.48,1.13.09.09.14.28.19.47.18.24.26.48.35.67.93.67,2.54-.09,3.3-.9,0-.06,0-.12-.07-.16l-3.2-1.48-.88-.92c1.11.22,2.25.98,3.31,1.33l-.04-.05c1.78.48,3.48-1.01,5.04-1,.46,0,1.46.33,1.99.37,0-.84-1.5-.9-1.8-1.36-.19-.29-.06-.71-.16-1.04l-.67-1.61c.37-.08.58.07.89.19.11.04.22.09.33.15,1.49.11,2.73,1.18,4.23,1.41.89.14,1.84-.12,2.79.08,2.17.47,5.4,4.5,7.29.9.56-1.07-.97-2.67-1.52-4.14-.19-.23-.38-.44-.56-.63v-.36c.15-.03.28-.08.4-.14,0-.07.01-.13.03-.2.12-.41,1.13-1.41,1.64-1.26.22.06.48.53.72,1.11,1.92,1.61,2.5,3.68,1.48,6.08-.01.02-.03.05-.04.08.08.47.16.82.22.92.12.18.48.39.94.62.07,0,.16,0,.22.02.1.03.21.13.32.24.86.4,1.86.8,2.32,1.08,1.17.71,2.38,1.47,3.6,2.27.01,0,.02-.02.03-.02.62-.09.92.38,1.21.84,2.54,1.7,5.1,3.51,7.44,5.27.92.69,2.8,2.15,4.64,3.71,2.21,1.61,4.73,3.65,5.02,4.99.09.39,0,.85.07,1.13h1c.11-.06.21-.14.3-.23-.04-.71.42-1.31.5-1.94.04-.3.02-.87,0-1.45-.12-.87-.3-1.69-.38-2.22.18.12.36.27.53.44.63-.54.74.55.9.75.96,1.21,1.74,2.41,3.34,2.29.05-.04.11-.08.15-.12.12-.11.2-.25.26-.41v-2.16c-.19-.9-.47-1.68-.39-1.76.13.03.26.07.39.11v-.03c.57-.57,6.29,1.18,6.24-1.32-.58.19-1.43.11-1.95.04-2-.28-6.59-3.26-8.59-4.37-.1-.05-.2-.11-.31-.17-.2.09-.17.42-.18.78,0,.05,0,.1,0,.15.13.18.24.33.28.42.36.82.4,1.67-.07,2.47-.65,1.1-2.41.98-3.49.61-1.96-.66-6.08-4.15-7.92-5.52-3.59-2.68-7.6-5.55-10.91-8.52-1.08-.97-3.54-3.35-3.2-4.88.06-.25.15-.45.26-.63.05-1.37,2-1.26,3.6-.56,3.31,1.47,6.49,3.59,9.95,5.01.56.18,1.13.39,1.71.62.74.24,1.49.45,2.26.6l12.09,7.11c.37.12.66.03.77-.2l-.67-.97c-3.9-3.49-9.29-5.14-13.33-8.51-1.23-1.02-2.14-2.13-2.23-2.97-.12-.2-.17-.38-.13-.53.27-.93,1.92-1.47,2.87-1.23.06-.05.06-.13.04-.22-.45-.53-1.23-1.2-1.36-1.45-.25-.44-.3-.82-.22-1.14-.16-.4-.17-.77.1-1.03.06-.06.65-.07,1.36-.05.25-.04.5-.05.76-.02.16.02.32.05.48.07.61.03,1.14.07,1.37.1,3.07.44,6.71,2.3,9.7,3.26.02-.03.03-.05.05-.08-.2-.45-.9-1.4-.93-1.81-.02-.27.04-.48.15-.66,0-.03,0-.07.02-.1.43-1.6,5.39.14,6.58.62.69.28,1.33.67,1.95,1.08,1.23.65,2.46,1.4,3.65,2.21,1.29.45,1.33,0,2.7,1.61.13.15-.02.24.48.48.33.16,1.05.1,1.44.48-.08.38.04.8.28,1.24.92.82,1.75,1.64,2.45,2.39.12.13.23.32.35.5.47.34.85.56,1.07.64-.05-.76-.34-1.74-.77-2.7-.85-.96-2.08-1.73-2.9-2.56-.46-.46-.98-1.17-1.49-1.75-2.08-1.04-4.4-1.97-5.99-3.6-.88-.9-1.05-1.64-.78-2.17-.11-.33-.06-.59.34-.64.13-.02.27-.03.42-.04.56-.26,1.33-.36,2.18-.27.83.09,1.73.28,2.66.53.69.12,1.42.25,1.85.35,1.14.26,6.1,2.63,6.56,2.31l-.39-.43c-2.03-1.53-4.44-2.79-6.35-4.44-.49-.43-2.12-1.96-2.41-2.4-.26-.41.16-1.05.73-1.19,1.15-.53,3.36.7,4.45,1.17,1.95.84,4.17,2.04,6.07,3.05.79.42,2.98,2.49,2.78.53,0-.02,0-.04-.01-.05-.19-.66-2.25-1.66-2.61-2.43-.13-.28.07-.46.36-.36.47.34.95.67,1.42,1.01,0-.07.01-.14.05-.21,7.95,4.87,15.75,10.06,24.51,13.42.48.23.69-.07.76-.45-.14-.2-1.31-1.35-1.53-1.53-.43-.36-1.61-.89-1.8-1.32-.13-.28.09-.49.36-.36.12.06.27.29.53.43.3.15.62.32.93.48.51-.25,2.6,1,2.88,1.1,2.54.98,7.53,2.09,7.2,2.04l.77-.15c.16-.03.38,0,.64.03.16.02.41.05.55.04,0-.16,0-.47-.02-.71-.02-.39-.04-.8,0-1.05,0-.04.02-.09.03-.13v-.07c-.12.09-.26.16-.43.15-.45-.51-1.62-1.59-2.17-2.03-.74-.59-5.18-3.06-5.27-3.37-.1-.36.43-.51.88-.74.17-.22.41-.43.57-.65,0-.08.01-.17-.02-.27l-5.64-4.45c-.7-.94-3.32-2.51-2.41-3.86,0-.01.03-.02.04-.04,0-.04,0-.08.01-.12.17-.61.94-.75,1.58-.64.14.02.27.05.41.07.54.02,1.18.16,1.89.38.91.21,1.8.45,2.7.81,2.9,1.14,5.81,3.17,8.72,4.39.01-.02.03-.02.04-.04.01-.02.02-.07.04-.11.1-1.28.01-2.52-.13-3.75-.26-.94-.65-2.24-.51-2.38l.21.02c-.02-.14-.04-.28-.05-.42h3.12c.09-.09.14-.16.19-.24l-3.46-2.6c-.15-.87-2.52-2.27-2.63-2.65-.08-.29.07-.52.32-.72.11-.79,1.3-.58,1.5-1.23.11-.37,0-.72-.23-1.04-1-.86-3.03-1.73-3.75-1.92-.06-.35-.01-.64.11-.89,0-.34.01-.67.04-.7.21-.17,1.66-.43,2.25-.49.03-.81-.16-2.77.14-3.78v-.53c1.22-.32,1.76.32,2.1,1.12.12.1.22.19.27.24.05.29.07.57.09.84.17.58.34,1.06.67,1.15.78.21,1.51-.66,2.3-.43.73.21,5.73,4.19,6.88,3.36v-.59s.1,0,.15-.01c0-.2.04-.38.27-.42,2.74-.43,2.6.42,5.64-1.03.42-.2,1.53-.58,2.02-.77.1-.27.15-.84.08-.89-.09-.07-1.85-.42-2.22-.54-3.11-.99-10.28-3.47-12.06-6.18-.16-.25-.13-.88-.5-.95-.25-.04-.92.55-1.29-.38-.29-.74.55-.75,1.14-.8.06-.06.12-.12.2-.19.36-.32.73-.54,1.09-.69.87-.56,2.14-.54,3.29-.58l.42-.42c.21-.07.72.14.91-.04.18-.18-.01-.66.05-.92l.23-.18c.17-1.22.07-2.51.34-3.73.38-.03.59.22.76.53.04,0,.08,0,.11.02.57.15.88.84,1.26.93.69.16,1.61-1.06,2.3-.91.32.07,3.38,4,4.36,4.79,2.13,1.72,3.13,1.49,5.79,1.45.7-.01,1.29-.46,1.82-.42,1.08.09,4.6,1.81,6.08,2.31,0,.22.04.41.11.59.09.02.17.04.22.06.25.11.33.42.96.48.15.01.33.01.48,0,.15.35.61.43.96.48.02.35,0,.7,0,1.05.2-.29.37-.67.51-.98.06-.12.11-.24.15-.33l.08-.17.18.03c.96.17,2.36-.02,3.06-.62.27-.23.43-.51.47-.83-1.46-.17-2.86-.73-4.21-1.27l-.56-.22-.04-.4c-.08-.04-.16-.07-.25-.1-.04,0-.09,0-.13,0-.16.01-.36-.03-.48,0l-.14-.21-.34-.03c-.04-.08-.58-.29-.72-.24l-.14-.21-.34-.03c-.04-.08-1.41-.57-1.68-.72-.3-.16-.8-.54-1.3-.87-.62-.23-1.22-.43-1.8-.58-.16,0-.32-.02-.47-.11-.79-.17-1.51-.23-2.13-.12-.46.08-2.8-1.89-4.49-3.35-.04,0-.09,0-.12-.01,0-.04-.02-.08-.03-.11-.47-.41-.89-.76-1.18-1.01-.35-.15-.7-.25-.95-.31-.14-.03-.33.03-.48,0,.07-.59-.35-.62-.72-.84-.76-.45-1.59-.99-2.4-1.32-.14-.22-1.12-1.4-1.2-1.44l-.03-.34-.21-.14s.02-.15,0-.27c.01-.04.02-.13.02-.23,0-.09,0-.18,0-.24,0-.11,0-.21-.02-.26l.21-.14.03-.34c.22-.08.23-.16.63-.22.23-.2.48-.35.72-.4.21-.04.58,0,.89.02.09-.09.18-.2.28-.36.17-.28.18-.64.28-.9,0-.14-.02-.26-.02-.37-.01-.28.07-.42.73-.31,1.54,1.64,3.37,2.88,5.29,3.98.03,0,.05,0,.08,0v.05c.25.15.51.29.76.43.07,0,.14,0,.2,0v.11c.23.13.46.25.69.38.09,0,.2-.02.27,0v.15c.33.17.66.35.99.52.08.02.16.03.21.05,0,.02,0,.04,0,.06.42.22.83.44,1.24.67.07,0,.14,0,.21,0v.12c.34.18.67.37,1,.56.08.02.15.03.2.04,0,.02,0,.04,0,.06.3.17.59.33.89.51.63.1.79.04.76-.45-.13-.39-.33-1.19-.49-1.73-.08-.17-.15-.35-.24-.52-.09-.03-.31.01-.42,0-.01-.07,0-.18,0-.27-.01-.06,0-.14,0-.21,0,0,0-.26,0-.27v-.13s-.03-.05-.04-.08h-.44c0-.09,0-.18,0-.27,0-.04,0-.07,0-.11,0-.03,0-.07,0-.1-.04-.28-.05-.5-.06-.71-.09-.26-.16-.52-.18-.75-.04-.43.21-.99.46-1.56,0-.05.02-.08.03-.13,0-.01,0-.02,0-.04.02-.14-.03-.31,0-.44l.2.04c.11-.31.2-.62.2-.9l.69,1.08.12.02c.01.06.01.12,0,.18l.4.63c.22,2.08,1.71.21,2.8.51.75.21,1.54,1.95,3.27,1.53,0-.11,0-.21,0-.22.04-.04.28.04.4,0,.07-.52-.04-.9-.22-1.32-.11-.13-.25-.18-.42-.09-.02-.07,0-.18,0-.27-.01-.06,0-.14,0-.22,0,0,0-.26,0-.26v-.1s-.03-.07-.05-.11h-.43c-.01-.08.02-.23,0-.24v-.03s0-.23,0-.24v-.21s-.48,0-.48,0c-.01-.08.02-.23,0-.24v-.03s0-.23,0-.24v-.21h-.48c-.03-.18-.11-.66-.24-.72,0-.09,0-.18,0-.27.01-.16,0-.31,0-.46-.02-.23-.06-.47-.11-.72-.37-1.69-.81-3.34-1.3-4.97-.18-.57-.36-1.14-.54-1.71-.74-2.25-1.56-4.47-2.44-6.67-1.56-3.55-3.69-7.51-4.85-10.89-.04,0-.07,0-.12.02-.07-.27-.21-.77-.24-.96,0-.05,0-.11,0-.16,0-.03-.02-.06-.03-.08-.11-.37-.06-.76-.06-1.14h.09s0-.06,0-.09c.32-.02.64.01.96,0,0,.03,0,.06,0,.09h.87c-.03-.38-.06-.76-.11-1.14-.08-.43-.13-.79-.17-1.15-.22-1.27-.53-2.52-.85-3.76h-.22c0-.09,0-.18,0-.27,0-.07,0-.15,0-.23,0-.07,0-.15,0-.22-.01-.13-.03-.23-.05-.32-.02-.06-.03-.12-.05-.18-.07-.23-.17-.37-.27-.68-.19-.56-.19-.94-.35-1.1l-1.28.43c-.05-.48-.14-.96-.25-1.44-.06-.13-.14-.28-.14-.3-.04-.11-.02-.28-.03-.44-.03-.11-.07-.22-.1-.33-.07-.09-.17-.16-.35-.19,0-.08,0-.16,0-.24-.17-1.71-1.31-3.77-1.77-5.66,0-.01,0-.02,0-.03-.34-1.22-.94-3.03-1.13-4.17-.06-.38.06-.62.26-.77-.13-.58.48-.57.97-.32.01,0,.02.01.03.02.27-.03.5-.04.55-.09.11-.11.02-.57.12-1,0-.04,0-.08,0-.12.06-.44.46-.85.89-.82.75-.32.9.26,1.11.87.7.88,1.46,2.26,2.08,3.52.49.77.97,1.56,1.36,2.39.38.81,1.52,4.6,1.7,4.78.16.17,1.4-.05,1.88.02-.14-.34-.37-.66-.5-1.01-.83-2.12-1.73-4.26-2.46-6.41-.44-1.28-1.97-5.63-1.97-6.67,0,0,0-.27,0-.27v-3.6c0-.07.07-.13.15-.19,0-.03,0-.06,0-.08.15-.17.34-.17.54-.07.04,0,.08,0,.12,0,.34.1,1.1,1.21,1.3,1.58.11.2.21.42.32.62.66,1.16,1.2,2.39,1.32,2.65,1.79,4.06,3.07,8.69,5.98,12.26.23.28.6.7.97.71.08-.1.09-.27.06-.47-.38-.66-.85-1.34-1.12-1.91-.74-1.56-1.36-3.14-1.97-4.75.02-.03.05-.05.08-.07-.02-.07-.05-.13-.08-.2.02-.03.05-.05.07-.07,0-.08.03-.16.08-.2l.09.04c.3-.2.71-.2,1.06-.1.1.03.38.42.66.88l.34.16,9.61,18.23c.78-.6.85-.91.58-1.71-.38-1.02-1.24-2.72-1.99-4.14-.57-1.01-1.16-2.02-1.71-3.02-.35-.52-.69-1.05-.88-1.62.01-.02.02-.03.04-.04-.04-.09-.09-.18-.13-.26l.24-.72c.87.58,2.11,2.51,2.88,2.88.28.13.52.09.66-.05-.31-1.12-1-2.16-1.66-3.11-1.5-2.19-3.31-4.32-4.63-6.65-.35-.61-1.28-2.39-1.21-3.49-.02-.23,0-.45.06-.63,0-.77.37-1.24,1.47-.91,1.01.3,5.59,7.04,6.45,8.43.25.41.46.85.52,1.32.11.13.24.24.37.32.32,0,.5-.08.58-.22-.13-.48-.31-1.14-.35-1.64-.09-.29-.15-.57-.09-.79.73-2.66,4.63,2.34,5.5,3.11,1.39.34,3.2,3.36,4.32,3.37.49,0,.83-.22,1.03-.55,0-.22,0-.43.06-.6.02-.07.08-.14.15-.21,0-.24-.01-.49-.1-.73-.39-.33-.94-.66-1.17-.86-2.07-1.89-4.06-4.02-5.87-6.13-.51-.59-1.33-1.04-1.45-1.78-.49-1.26,1.37-1.73,1.39-3.06.07-.08.21-.09.4-.07.01-.01.02-.03.03-.04.08-.02.22.03.37.12,1.7.5,5.46,2.74,6.37,3.1.75.29,1.66.35,2.49.61.05,0,.09,0,.14,0,.18.03.36.14.54.27.16.08.31.18.46.3.4.11.58.02.65-.15-.11-.44-.2-.86-.27-1.31-.06-.16-.12-.32-.15-.45.03,0,.06,0,.09,0,0-.02,0-.03,0-.05h.03c-.01-.09-.02-.18-.03-.27h.96c.1.44.47.35.67.54.18.17.55.8.76,1.02.15.16.97,1.04,1.31,1.07.04-.06.07-.13.09-.22-.2-.44-.95-1.59-1.14-1.79-.44-.46-1.19-.72-1.69-1.07-.19-.13-.46-.68-.96-.72-.03-.38-.09-.67-.24-.87-.16,0-.29,0-.33-.03-.08-.06-.2-.16-.34-.29-.09,0-.18,0-.29,0-.14-.26-.33-.46-.48-.72,0,0,0-.02,0-.03-.36-.36-.75-.77-1.1-1.16-.03,0-.06-.01-.09-.01-.09-.16-.2-.3-.31-.44-.39-.46-.67-.84-.71-1.01-.02-.09.4-1.55.45-1.61.21-.23.98-.08,1.64.14h.12s.3.02.48.11c.87.45,2.28,1.87,3.04,2.7.14.02.25-.01.33-.09,0-.02,0-.05-.01-.08,0-.07.01-.16.02-.26,0-.07,0-.14,0-.2,0-.1,0-.2-.02-.26l.18-.11s0-.07-.01-.1h-.4c-.1-.28-.2-.74-.48-.96.01-.15-.02-.28-.07-.39-.09-.09-.18-.18-.29-.28-.1-.04-.22-.07-.36-.05-.05-.21-.11-.35-.17-.44-.05-.04-.1-.09-.15-.14-.17-.09-.34-.02-.4-.14-.02-.04,0-.12,0-.2-.11-.09-.22-.19-.33-.28-.15.01-.3.03-.37-.04-.34-.33.11-.36-.99-.68-.27-.08-.46-.15-.72-.24,0,0,0-.27,0-.27v-.21h-.48c-.04-.09-.26-.13-.48-.72-.44-1.17-.71-.9-1.44-1.44-.58-.43-1.63-1.36-2.03-1.92-.23-.33-.32-.93-.37-.95,0,0,0-.27,0-.27v-1.2c-.06-.17-.11-.32-.11-.39,0-.23.04-.4.12-.57.3-.57,1.09-.45,1.32-.66.24-.22.15-.65-.1-1.18-.1-.05-.19-.07-.27-.04-.08-.13-.44-.7-.48-.72v-.47s-.48,0-.48,0c-.15-.49-.5-1.1-.72-1.68l.09-.06c-.03-.07-.06-.14-.09-.21l.21-.15v-.28c-.03-.45.13-.79.66-.93.2-.05.64.13,1.19.4.03,0,.06,0,.09,0v.05c.25.13.52.28.79.43.06,0,.12,0,.17,0v.09c.51.29,1.03.6,1.48.86.49.22,1.01.43,1.16.49,0,.04,0,.06-.01.09.46.15.65-.02.67-.39-.15-.25-.28-.55-.41-.64.04-.48-.25-.77-.72-.72-.4-.61-.98-1.31-1.43-1.8-.24-.27-1.31-1.46-1.45-1.56l.03-.24s-.02-.02-.03-.03l.08-.68c-.88.15-1.5.69-2.48.47,0,0-.06-.07-.11-.12-.07-.03-.14-.05-.18-.1-.03-.03-.12-.23-.23-.5h-.19c-.06-.2-.32-.48-.22-.73-.03-.09-.05-.18-.02-.26,0,0,.02-.01.04-.02-.09-.23-.17-.46-.24-.64-.19-.25-.35-.54-.3-.87-.02-.12-.03-.25.02-.39.45-.01.88.13.97-.16,0-.02,0-.03.01-.05,0-.07,0-.15-.02-.27l.19-.05c.02-1.19-.86-1.98-1.57-2.76-.02,0-.04-.03-.06-.06-.14-.15-.26-.3-.38-.45h-.1s-.16.02-.24,0c-.01-.08,0-.18,0-.27-.01-.1,0-.21,0-.33-.02-.05-.04-.1-.06-.15-.21-.73.43-1.26.44-1.85,0-.12-.05-.31-.12-.52-.12-.11-.28-.19-.51-.24-.11-.79-.2-1.73.12-2.44.29-.66,1.11-.84,1.32-1.67,0-.01.11-.03.18-.11-.19-.23-.37-.52-.55-.79-.46-.28-1.1-.55-1.46-.95-.19-.1-.38-.19-.56-.28l.07-.24s-.05-.02-.07-.03l.18-.62c-.01-.27,0-.47-.03-.5-.08-.1-.28-.05-.53.05-.29.25-.54.54-.73.6-.54.17-1.02-.11-1.53-.21-.33-1.54-1.19-.32-1.79-.23-.73.1-1.34.08-2.17.23-.09.02-.21.01-.33,0-.21.07-.38.13-.51.22.01.09.02.19,0,.26-.05.2-.45.13-.51.67,0,.08.01.16.03.26,0,0-.02.01-.03.02,0,.08.01.15.03.25-.02.02-.05.04-.07.05,0,.09-.01.17-.04.2-.07.08-.72-.01-1.33.07,0,.05.01.1-.01.13,0,.11.04.23.01.26-.03.04-.68.46-.72.48-.09.05-.23.02-.34.03.07.65,1.22,1.14,1.39,1.75.19.65.02,1.42.06,2.1h-.67c-.36.13-.69.43-1.05.45-.55.04-1.38-.33-2.27-.25-.16.01-.32-.02-.48,0l-.2-.04c-1.52.38-3.11.52-4.67.72-.55.46-.66.83-.67,1.28,0,.2.02.43.02.7,0,.14,0,.3,0,.47h-.09v.05c-.1.05-.22.08-.33.1l-.06.09c-.06-.02-.42-.02-.48,0l-.06-.1c-.18-.03-.36-.07-.53-.12-.08,0-.16-.01-.24,0l-.13.23c-.15-.02-.32.01-.48,0,0,0,0-.27,0-.27v-.21c-.55.04-1.13-.05-1.68,0-.16.01-.32-.01-.48,0l-.84-.2h-4.06c-.11.03-.56.22-.85.34-.1.1-.18.19-.25.26,0,.01,0,.02,0,.04,0,.08,0,.16,0,.24,0,0,0,.02,0,.03,0,.08,0,.16,0,.24h-.14c0,.16.04.31.1.45.01,0,.03,0,.04,0,0,0,0,.05,0,.11.12.22.3.41.52.59.06.02.11.05.14.08,0,0,0,.02.01.03.2.14.44.27.68.38.02,0,.05,0,.07,0,0,.01,0,.02,0,.03.39.17.8.32,1.2.45.08,0,.17,0,.24,0,0,.03,0,.05,0,.07.47.15.91.27,1.23.39.03.01.05.01.08.02.05,0,.09,0,.14,0l.03.04c.64.11,1.05-.23.84.99h-.3s.15.19.15.19c-.84.02-1.68-.03-2.52,0-.02,0-.05,0-.07,0-1-.02-9.44-.5-9.73-1.64-.1-.39-.08-.62.02-.76,0-.08.03-.17.07-.27.23.03.52-.05.72,0,0,0,.02.04.04.08.44.03.9.07,1.04-.32-.3-.3-.65-.18-1.07-.2-.24-.01-.48.02-.72,0v-.47s-1.92-.49-1.92-.49c-.19-.15-.67-.7-.72-.72,0,0,0-.27,0-.27v-.72s.23-.15.49-.23c.73-.58,2.46-1.76,3.11-2.14,0-.09-.01-.18,0-.27.29.02.6,0,.9,0,1.69-.34,5.2-.82,5.7-1.4.08-.09.19-1.27.36-2.32,0-.04,0-.08,0-.12.02-.18.06-.35.12-.52.08-.36.16-.66.27-.86,1.05-1.98,3.82-4.2,5.55-6.25l.54-.78s.05-.03.08-.04c.03-.04.06-.08.09-.11.19-.18.26-.71.27-1.07-.08-.01-.15-.03-.21-.05-1.18-.39-2.58-.73-3.83-.85-.16-.01-.32.01-.48,0,0,0,0-.27,0-.27v-.06c-.11-.04-.22-.08-.32-.12-.49.03-.62-.03-.78-.47-.08-.08-.14-.16-.18-.24-.18-.36-.1-.55.08-.65.01-.08.04-.14.14-.15,1.02-.13,1.98.19,2.98.25v.14c.14.04.28.08.48.1.12.04.32-.03.46,0,.18-.07.26-.23.28-.4-.1-.01-.19-.02-.25-.05-.77-.35-1.04-.3-1.68-.48v-.47c-.85-.1-1.53-.53-2.4-.73-.68-.16-.61-.06-1.19-.61-.18-.17-.3-.39-.49-.59-.03-.22-.04-.38-.04-.52-.32-.41-.35-.81.18-1.13.58-.35,1.35-.13,1.76-.29,0-.12,0-.26,0-.38,0-.27,0-.56.03-.58,0,0,.09-.01.18-.02-.01-.05-.02-.09-.03-.15-.02-.05-.06-.11-.11-.17-.28-.07-.62-.16-.77-.23-.81-.37-1.51-.86-2.4-1.08-.14-.03-.33.03-.48,0,.03-.11.03-.2,0-.27,0-.01,0-.02,0-.03-.09-.31-.56-.3-.96-.42-.24-.07-.4-.18-.72-.24,0,0,0-.27,0-.27v-.21h-.48s-.16.01-.24,0c0,0,0-.27,0-.27v-.21s-.48,0-.48,0c-.01-.02-.16.01-.24,0v-.48s-.48,0-.48,0c-.05-.11-1.57-1.63-1.68-1.68v-.47s-.48,0-.48,0c-.06-.2-.17-.53-.24-.72l.08-.05c-.03-.08-.06-.16-.08-.22,0,0,.19-.11.18-.13-.29-.26-.64-.53-.5-.97.03-.11.29-.4.58-.67.27-.25.55-.48.67-.52,1.12-.32,5.43,2.93,6.89,3.57.95.42,5.57,1.66,6.21,1.21-.06-.03-.11-.05-.12-.06-.01-.08-.01-.22,0-.36-.01-.2.01-.53.03-.77,0-.03,0-.05-.02-.06v-.19c-.04-.1-.08-.2-.13-.29h-.35c-.06-.32-.13-.45-.24-.72-.03-.06-.04-.11-.06-.17-.32-.36-.68-.69-1.05-1.01-.04,0-.07-.01-.09-.03-.36-.23-.49-.52-1.2-.72,0,0,0-.27,0-.27v-.14s-.04-.04-.06-.07h-.42s-.16.02-.24,0c-.06-.2-.06-.34-.03-.44-.04-.26.03-.39.13-.47,0-.21.15-.38.37-.52,0-.02,0-.03,0-.05.04,0,.07-.01.1-.02.25-.14.54-.26.8-.39.16-.13.31-.27.49-.38,0-.01.02-.02.03-.03.37-.31.78-.4,1.21-.48v-.14s.46-.22.48-.24c.16,0,.32,0,.48,0,.08,0,.16-.01.24,0-.02.12,0,.22.04.31.04,0,.07,0,.11,0,1.29.42.8,3.15.98,3.34,1.45,1.5,9.15-3.12,8.09,1.99.04.05.08.09.14.12-.02.12,0,.26,0,.38,0,.13.03.28,0,.37l-1.46,1.4c-.04.1-.08.27-.13.47l.15,1.22s-.02.05-.02.07l.02.2c-.1.28-.25.95-.47,1.48.12.01.24,0,.35-.03.35-.35.74-.71.83-.76.05-.03.16-.04.31-.08.29-.34.57-.68.86-.87.02-.08.04-.17.03-.25.45-.05,1.05.09,1.44,0l.08.22c.39.15.72.33.97.28.2-.04.53-.36.88-.64,0-.02,0-.04,0-.07.01,0,.02,0,.04,0,0-.08-.02-.17-.04-.27.16,0,.34,0,.51,0,0,0,.02-.01.03-.02,1.15-.57,5.11-1.93,5.81-2.7.05-.11.08-.2.09-.29-.02-.23-.1-.46-.2-.79-.04-.12.04-.32,0-.47h-.86c-.32.06-.68.14-1.06.24v.23c-.24,0-.48-.02-.72,0-.19.02-.36.06-.54.1-.13.04-.27.07-.4.1-.56.17-1.1.39-1.7.52v-.18c-.23.02-.42.01-.57-.02l.57-.47v-.08c.19-.1.41-.27.65-.46.18-.15.38-.3.58-.48.74-.64,1.55-1.39,2.14-1.81.14-.1.27-.2.41-.29l.26-.22s.09-.01.14-.02c.3-.13.62-.14.99.15.82.63,2.26,2.18,3,3,.44.49.55,1.39,1.44.97.81-.39,1.28-1.43,2.24-1.34.17,0,.35.02.55.09v.09c.15.12.17.27.12.43.06.15,0,.33-.12.51v.42c2.25-.42,4.47-1.2,6.7-1.94.51-.5,1.07-1.26,1.95-1.46,1.46-.32,2.32.84,3.31-.53.44-.6.64-1.41.65-2.2,0-.25-.03-.49-.08-.72,0-.01-.01-.03-.01-.04-.1-.2-.22-.41-.33-.63-.38-.54-.92-1.1-1.03-1.57-.03-.13-.03-.27-.01-.42-.03-.45.19-1.02.25-1.63-.02-.18-.04-.36-.06-.54-.12-.35-.85-.71-.9-1-.01-.07,0-.15.02-.22,0-.02-.02-.04-.02-.05-.04-.2.11-.37.15-.62-.03-.17-.11-.38-.3-.64-.39-.53-.95-.56-1.53-.38-.12.05-.23.08-.36.15-.97,1.11-2.13,1.89-3.21,2.8-.96,1.32-1.5,2.7-2.58,4.13-.21.28-2.03,2.1-2.17,2.15-.43.12-.8-.11-.83-.58,0-.07.01-.14.02-.21,0-.02-.02-.04-.02-.07-.05-.84.76-1.65.94-2.5-.69-.27-2.67-.04-2.83-.6-.05-.19-.05-.33-.03-.45-.08-.51.22-.69.47-.96,0-.01,0-.02,0-.04.14-.47,1.46-2.55,2.7-4.46.06-.14.12-.27.16-.39.56-1.7.79-1.6,1.83-2.97.6-.78,1.19-1.58,1.77-2.38,2.09-3.18,4.07-6.11,5.96-9.31.72-1.3,1.41-2.63,2.05-3.97.53-1.12,1.28-4.25,2.71-4.25.42,0,.64.24.85.43.26.1.55.14.9,0,.12-.1.25-.24.4-.43,1.21-1.46,2.91-4.22,3.93-5.91,3.01-4.95,6.01-10.61,8.72-15.75.3-.57.6-1.08.68-1.68,0-.12.01-.24,0-.37,0-.09.01-.18,0-.27l.59-.02c.31-.62.62-1.23.94-1.84.4-1.01.76-2.05,1.24-2.93.11-.21.99-1.41,1.07-1.45.06-.03.2,0,.33,0,.06,0,.11,0,.15,0,.02,0,.05,0,.07,0,.05,0,.11.01.17,0,0,.04,0,.08,0,.11.19.2.33.6.63.9-.15-.14-.25-.31-.34-.47,1.23-4.26,2.67-7.48,4.19-10.88.71-1.58,1.44-3.22,2.19-5.04.44-1.08.79-2.28,1.12-3.44.37-1.28.75-2.6,1.26-3.78.27-.62.63-1.18.97-1.72.53-.83,1.03-1.6,1.18-2.54l.05-.29,1.44.48.99-6.2.06-.06c1.61-1.63,1.83-4.13,2.04-6.54.06-.67.12-1.37.21-2.03l.07-.51c1.5-10.84,2.93-21.08-.17-31.9ZM177.92,370.44c.72-.02,1.59-.17,1.88.65.07.21,0,.44.04.55.11.34.21.42.24.48.16.36.46.9.48,1.2.02.44-.16.79-.24,1.2-.01.08,0,.16,0,.24h-.48s0,.48,0,.48c0,0-.01.05-.04.09-.01,0-.02,0-.04,0-.02.05-.06.09-.12.11-.11.03-.21.04-.29.05-.58.02-.56-.41-.72-.5.13-.37-.2-.71-.24-.96-.13-.8-.4-1.49-.48-2.04-.07-.49.04-1.06,0-1.56ZM188.5,388.46c-.08.08.03.37-.01.46-.04.09-.92.44-.72.96l-.72.24s-.71-.17-.96-.24c.01-.42-.31-2.19-.5-2.39-.03-.03-.13-.03-.23-.02-.05,0-.09,0-.14,0-.03,0-.06,0-.09,0-.04-.29,0-.65,0-.96.08,0,.14.01.2,0t0,0c.57-.05.12-.91.4-1.45.22-.44,1.32-.68,1.54-.45.15.15.06.83.74.7,0,.08-.01.16,0,.24.15,1,1.52,1.38,1.68,2.52.11.75-.97.16-1.19.38ZM189.71,379.16c-.07.5-.27.91-.27,1.44-.08.76.44,1.46.13,2.15-.3.13-.9.52-1.12.68-1.19.77-2.51-.57-3.67-.49-1.06.05-2.31,1.44-3.3.73-.54-.36-1.35-.95-2.18-.97-.05,0-.11,0-.18,0-.35,0-1,.07-1.4.07-.06,0-.12,0-.17,0-.52-.09-.98-.55-1.5-.73-.37-.16-.79-.26-1.22-.3-.01,0-.02,0-.03,0-.24-.02-.48-.03-.72-.01-.03,0-.05,0-.08,0-.23.02-.46.06-.68.11-.1.03-.2.06-.3.1-.1.03-.2.07-.29.11-.13.06-.25.12-.37.19-.03.02-.05.04-.08.05-.14.09-.28.17-.4.28-.36.35-.35.44-.93.73-.16.09-.31.12-.46.11-.46-.04-1.24.11-1.7.07-.17.02-.08-.33-.14-.44-.05-.08-.15-.11-.3-.18-.82-.36-2.03-.66-2.64-.99-.15-.09-.18-.24-.25-.42-.27-.48-3.12-1.27-3.72-1.36-.02,0-.03,0-.05,0-.07-.01-.14-.02-.2-.04.07-.16.7-1.3.93-1.81.26-.54.28-.81.54-.84.09,0,.19.02.34.06,1.69.82,4.25,1.19,6.49,1.24.74.02,1.45,0,2.08-.06.53-.02.75-.49,1.18-.69.17-.03.36-.05.56-.06,1.34-.06,3.53.83,4.75.14.58-.33.08-1.36,1.14-1.18,1.63.29,1.79,5.41,4.37,1.67,0-.01.01-.02.02-.03.24-.34.26-.37.57-.36.45-.22.39-.84.41-1.28.03-.65.85.52,1.27,1.09.11.15.19.26.22.28,1.02.71,2.19.08,3.28.45.12.09.07.34.06.51ZM347.55,272.06c.05-.05.37-.07.58-.25,1.38-1.19,3.56-3.75,4.43-5.29h.48c.14.97-.6,1.49-.96,2.16-.89,1.67-.95,2.38-2.35,3.64-.15.14-1.13,1.96-1.29,2.09-.16.13-.62-.03-.68.03h-.96c-.16-.84.61-.87.72-1.68.03-.2-.07-.6.02-.7ZM350.06,306.98c.4-.23.46-.79.71-.97.74-.52,1.94-.26,2.76-.36,3.5-.43,7.27-1.35,10.76-1.96.86-.15,1.61-1.04,2.08.39-.35.48-.9.74-1.43.98-1.84.83-4.38,1.11-6.37,1.55-4.27.94-9.53,1.68-13.91,1.93-1.62.09-3.67.07-5.29-.01-.39-.02-.68-.21-.36-.48h5.88c.07,0,.83-.43,1.2-.48,1.45-.19,2.5.26,3.96-.6ZM230.8,407.22c-3.13.61-6.16,2.06-9.3,2.36-1.41-1.69-6.13-3.75-7.01-5.48-.48-.94.8-.71,1.2-.72.72-.02,1.44.01,2.16,0l.31.4c1.61.44,3.32.78,4.97,1.04.45.07.99-.07,1.44,0,1.12.18,2.26.3,3.36.48.96.16,1.85.67,2.88.48v1.43ZM237.52,400.27c-.57,1.12-2.45,1.02-3.38,1.42-2.22.96-3.11,2.02-5.74,2.18-1.11.07-2.25-.05-3.36,0-.01-.04-.61-.2-.47-.67.31-1.09,4.59-1.38,5.75-1.25.13-.61-.48-.58-.96-.72-1.55-.47-3.11-.37-2.88-2.64h6.96c.16,0,2.24.81,2.9.94.42.09,1.67-.22,1.18.73ZM312.31,307.8c-.34-.03-.51-.16-.73-.43-.22-.24-.68-.37-1.05-.49-.56-.13-.8-.34-1.13-.65-.59-.37-1.29-.5-1.82-.87-.53-.29-1.18-.46-1.68-.83-.36-.32-.12-.92.28-1.02.61-.2,1.89.38,2.55.47.34-.03.25-.32.19-.72-.08-.79-.71-1.09-1.25-1.63-2.16-1.77-4.37-3.49-6.48-5.32-.39-.41-1.02-.41-1.35-.75-.2-.24-.6-.78-.86-1.11-.51-.66-1.23-1.05-1.65-1.78-.86-1.45,2.15-.01,2.68.1.72.19,4.51,1.94,4.47.84-1.8-1.32-4.09-2.43-6.16-3.29-.47-.07-.59-.34-1.05-.48-.48-.25-1.17-.46-1.68-.69-.62-.34-1.01-.33-1.62-.71-.49-.11-.62-.12-.92-.36-1.3-.44-2.19-.98-3.56-1.27-2.64-1.25-5.38,0-8.08-.98-.44.03-1.16.29-1.47.58-.15.2.02.65.06.96.13.96.13,2.1.93,2.8.56,1.02.07,1.01-1.03.8-1.05-.13-3.94-.88-4.4-.3-.74.81,1.48,1.5,2.03,1.92.45.24.87.5,1.19.76.63.47.75,1.17-.04.95-4.14-.91-8.48-2.05-12.73-1.72-.35.1.14,1.77-.4,1.83-.35-.02-.95-.28-1.23-.43-.52-.6-.69-.66-1.14.09-.37.53-.86,1.44-1.02,2.08-1.67,2.27-3.59,5.54-5.28,7.47-.63.76-1.78.74-1.94,1.76-.27,1.29.86,2.87,1.98,3.58.08.08.13.17.14.31-.02.5-.29,1.18-.35,1.55-.44,1.69-1.42,5.6-1.83,7.14-.06.29-.16.42.01.48.13.05.42.05.58-.12.25-.25.16-.74.4-.86.73-.18,1.04.39.73,1.01-.53,1.73-3.57,4.58-3.37,7.09.07.46.36.64.89.66.63.1,1.33.22,1.86.55.64.27,1.11,1.69.16,1.81-.23.08-.38-.19-.61-.24-.61-.07-1.19.72-1.17,1.32.03.63.9.15,1.23.25.6.11.86.72,1.01,1.36.11.82.11.72.1,1.36-.33,2.78.78,5.46,1.47,8.09.14.2.47.16.79.16.3.02.58.12.81.22,1.16.96,1.06,3.55.51,4.6-.28.64-.84.67-1.44,1.01-.85.37-1.44.65-2.35,1.02-1.2.45-3.88,2.03-3.02-.19.49-.89,1.36-1.34,1.68-2.3.05-.56-.71-.07-.84-.53-.24-.98.46-1.98.45-2.98.04-.85-.18-1.63-.94-.92-.8.86-1.27,1.32-2.33,1.95-.22.14-.42.37-.51.62-.29,1.26.16,2.69.36,3.95.49,2.25,1.26,4.65.98,7.01-.1.67-.45,1.22-.47,1.94-.07.27.08.4-.34.58-1.04.24-.96-2.12-1.34-3-.3-1.15-.3-2.47-.82-3.48-.02-.33.25-.9.03-1.02-.12-.07-.31.07-.41.26-.27.65-.78,1-.79,1.84.16,1.47.68,3.42-.48,4.65-.26.25-.54.6-.89.67-.51.06-1.16-.46-1.81-.41-1.03-.04-2.03.03-3.04-.15-1.2-.23-1.49-.31-1.01-1.51.33-1.01,1.16-2.15.63-3.19-.48-.89-1.31-2.11-2.05-2.72-.55-.21-1.1.79-1.62,1.09-.49.06-.38-.45-.54-.89-.24-.69-.55-1.22-.39-2.01,0-.95.32-1.84.31-2.72.02-.27,0-.57.12-.8.18-.33.64-.54.81-1.03.26-.48.18-1.35.37-1.77.06-.07.13-.09.24,0,.28.31.75.74,1.23.67.39-.01.71-.35,1.05-.4.71-.11,1.27.3,1.74.85,1.75,1.4,0-1.12-.32-1.83-.64-1.16-1.58-2.41-2.11-3.44-.5-1.01.9-1.85,1.5-2.5.31-.24.69-.28.8-.6.2-.57-.11-1.5-.45-2.17-.16-.36-.06-.88.06-1.2.48-.75,1.88.86,2.38.04.29-1.58.12-3.46-1.35-4.44-1.05-.65-1.61-1.46-2.36-2.32-.34-.27-.69.03-.56.42.61,1.64,1.33,3.56.86,5.36-.93,2.6-2.51,2.27-3.43-.22-.9-1.8-1.93-4.22-2.49-5.08-.65-.87-1.66-1.87-2.61-2.41-.34-.18-.66-.29-.82-.09-.21.27-.13,1-.14,1.48.03,1.11-.81,2.3-1.74,2.77-.6.23-1.23-.28-1.74-.52-.61-.18-1.44-.33-2.11-.52-.83-.25-1.85-.42-2.4-1.15-.75-.98-1.63-2.87-2.05-3.84-.07-.19-.09-.34.1-.52.25-.2.79-.59,1.13-.84.49-.36.67-.51,1.2-.88.32-.24.74-.48.75-.77,0-.4-.42-.93-.71-1.3-.64-.78-.98-2.12-1.24-2.99-.19-.75.47-.61,1.01-.55,1.07.12,1.21-.66.43-1.27-.26-.26-.62-.61-.84-.82-.22-.22-.31-.27-.55-.14-.23.12-.68.39-.98.56-.18.1-.31.13-.38.05-.39-1.01,1.21-1.8.73-2.9-.13-.56-.39-1.14-.94-1.4-.32-.2-.87-.2-1.16-.47-.14-.21-.06-.78-.09-1.33,0-.45-.03-.77.08-.88.26-.32,2.22.74,2.29.13.03-.18-.17-.43-.31-.67-.15-.29-.26-.63-.52-.95-.59-.69-1.5-1.4-1.11-2.38.3-.69,1.25-.58,1.89-.73.58-.09,1.35.42,1.72-.25.47-.44.6-1.15.69-1.81.12-.3.34-.61.39-.96.05-.82-.11-1.77.58-2.31,1.11-1.09,3.02-1.16,4.45-1.66.72-.32,1.21-.99.8-1.66-.32-.41-.94-.28-1.31-.68-.64-.65-.81-2.01-.04-2.62,2.74-1.24,6.35-1.61,9.01-2.74,2.53-1.19,5.04-2.57,7.67-3.3.89-.31,1.39-.67,2.25-1.19,1.44-.94,3.17-2.04,4.39-3.17,1.06-1.11,3.42-5.19,4.56-6.54.62-.61,1.42-1.53,2.12-1.97.6-.36,2.03-.55,2.63.1.25.29.28.8.39.99.08.14.28.13.44.2.12.05.21.13.3.21.13.25.55.18.74.39.34.71-.39,1.5-.7,2.27-.2,1.12,1.72.08,2.26-.1,1.12-.46,2.04-.85,2.77-1.24.75-.42,1.33-1.31,2.03-1.45.5-.11,1.09-.1,1.53-.37,1.51-.97.68-5.11.82-7.14,0-.16.06-.45-.14-.52-.25-.08-.87-.16-1.09-.33-.41-.4-.27-1.15-.25-1.79.04-.76.29-1.46.46-2.22.12-1.55.39-3.29,1.74-4.29.47-.31,1.06-.5,1.51-.76.67-.07,1.71.7,2.25,1.14.56.57.79,1.16,1.33,1.8.64.81.78,1.44,1.09,1.87,1.29.19,2.68-.27,4.04-.29.37-.04.66-.11.53-.61-.12-1.28,1.48-1.87,2.34-2.47,2.51-1.3,5.46-1.65,8.16-2.14.84-.17.68-1.17,1.36-1.52.2-.09.51-.15.77-.12.49.14.38.21.5.38.14.44.28.94.61,1.4,2.98,6.2,10.82,11.26,16.69,12.13,1.57.21,3.22.05,4.86-.05,1.04-.16,2.08-.45,3.09-.05,2.39.61,3.6,2.71,6.51,2.1.43-.08.78-.23,1-.54.21-.26.29-.57.44-.68.12-.09.13-.07.45-.18.3-.19.26-.58.59-.8.79-.78,2.01-1.44,2.75-2.28.44-.32.67-.72,1.1-.99.59-.27,1.43-.11,1.98-.45.2-.18.15-.58.26-.76.06-.18.28-.32.46-.32.2,0,.34.29.5.47.85.87.15,2.28-.37,3.18-.23.43-.24,1.12.09,1.44,1.11.99,7.32-1.47,7.13,1.93l-.02.16c-.03.49-1.06,1.05-1.36,1.3-.65.18-1.88-.22-2.56-.16-.26-.02-.25-.28-.51-.4-.74-.13-1.46-.98-2.3-.85-2.09.24-4.13,1.38-6.1,1.78-.8.8-2.25.67-3.26,1.15-.26.15-.44.42-.72.55-1.4.19-2.75.66-4.02,1.19-1.91.71-4.04,1.23-5.93,1.99-.2.14-.32.35-.34.73-.04.52.36.54.49.89-.13.29-.58.61-.61,1-.07.53-.9.72-.8,1.28.22.88,2.05.83,2.38,1.59.43,1.04-2.4.88-1.91,1.97.14.68.44.9.94,1.2.25.42-.39.43-.68.56-.94.36-.8,1.29-.56,1.97-.11.46-1.01.34-1.43.49-4.08,1.05,3.65,4.09,5.09,4.09.33.04.72.38.69.7-.31.72-3.34.2-2.6,1.45.4.43.97.89,1.51,1.09.23.09.37.17.4.31.02.73-1.67.61-2.24.94-.3.39-.25,1,.09,1.3.38.31,1.02.36,1.28.76.31.48.17.8-.32,1.15-.16.16-.3.4-.48.52-.43.28-1.08.12-1.58.32-.75.26-3.87-.39-2.21,1.22.41.5,1.6.88,1.7,1.45.04.29-.12.42-.54.41-.44,0-.94.15-1.34.29-.62.1-1.36-.55-1.88-.17-.48.17-.84.75-1.24.91-.6.11-1.68.41-1.22,1.24.56.65,3.52,1.99,4.76,2.4.18.09.39.18.51.37.12.19.24.41.1.52-.13.12-.39.15-.69.19-.57.07-1.5-.19-1.46.36.99,2.16,4.15,1.61,5.93,2.8.6.32,1.43.14,2,.23.34.09.17.68.47.78.87.32,1.79.03,2.71.04.58.02.94.1,1.49.1.31.06.45.3.74.37.31.04.73.09,1,.16.23.02.37-.04.61-.03.32.1.74.27,1.07.45.04,0,.08,0,.12,0,2.28.19,3.77.31,6.25.26,1.79,0,3.59-.11,5.27-.96,2.13-.49,4.67-.28,6.71.13.95-.12,1.49-1.14,2.56-1.03.81-.07,1.44.28,2.17.18.73-.17,1.33-.94,2.21-.82.36.03.84.09,1.14.35.24.21.21.47-.08.59-1.07.02-2.32.73-3.45.84-.62,0-1.31-.06-1.81.27-.48.27-.83.63-1.22.62h-.14c-2.13-.25-4.49-.58-6.51.59-1.2.56-2.27-.1-3.51.21-2.25-.42-4.91-.37-7.13.02-.51-.05-.77-.4-1.33-.62-.24-.11-.59-.16-.91-.22.03.29-.05.64.23.92.19.19.39.23.5.33.29.38-.24.43-.63.41-6.16-.27-13.12-2.81-18.93-4.55ZM336.27,325.34c-1.11.16-3.63.09-4.82,0-2.04-.14-4.94-.56-6.91-1.01-.1-.02-1.07-.41-1.12-.45-.13-.11.01-.83.38-.94.44-.13,2.52-.08,3.11-.03.68.06,1.51.42,2.16.48,1.48.15,3,.09,4.56.24,1.03.1,2.06.19,3.1.26.78.42.24,1.33-.45,1.42ZM341.66,320.05c-.83-.26-1.41.39-2.04.48-.88.12-1.95-.08-2.88,0-2.38.21-4.8.6-7.19.73-.66.03-2.62.11-3.11-.03-.28-.08-.45-.4-.38-.7,1.41-.69,2.76-.34,4.19-.49.56-.06,1.37-.41,1.93-.47,1.22-.12,2.62.13,3.83-.01.59-.07,1.27-.42,1.92-.48,1.18-.11,2.53.1,3.73.01v.96ZM342.08,315.31c-.21.02-.73.4-.89-.17-.32-1.16,2.66-.76,3.24-.84.45-.06.75-.42,1.2-.48.82-.11,1.81.11,2.64,0,.84-.11,1.95-1.06,2.28.48-.09.08-1.97.44-2.28.48-2.06.22-4.11.35-6.18.54ZM375.76,406.03c-.19.11-.45.04-.72-.09-.37,0-.63-.32-.95-.51-1.21-.75-2.41-1.53-3.61-2.32-3.44-2.12-7.5-4.64-11.28-7.24-3.72-2.38-7.31-4.94-10.24-8.27-.21-.24-.49-.38-.48-.72-.11-.2-.16-.44-.09-.76,1.5.69,3.14,1.15,4.66,1.82,1.5.67,2.91,1.37,4.25,2.12.66.33,1.31.71,1.93,1.13,3.39,2.09,6.42,4.51,9.57,7.39.94.86,1.89,1.79,2.83,2.75.17.09.34.19.49.3.31.23.89,1,1.42,1.74.78.88,1.54,1.77,2.21,2.66ZM384.52,350.92c-.22.8-.24,1.85-.62,2.74-.2.46-1.49,2.6-1.8,2.76-1.35.7-1.45-1.21-1.18-2.14.07-.23,1.89-2.06,2.24-2.55.42-.59,1.16-1.76,1.44-2.41.12-.28.11-.68.13-.71h.71s.23,1.3.23,1.3c-.1.35-1.02.51-1.16,1.01ZM386.66,332.42c-.33,2.04-.58,3.84-1.16,5.8-.12.41-.16.86-.29,1.27-.39.07-.28-.62-.25-.85.05-.42.22-.76.26-1.18.02-.23.15-1.15-.25-1.09l-1.01,3.19c-3.44,7.39-7.47,14.64-12.67,20.93-.85,1.02-2.3,1.41-1.49-.29.76-1.6,1.27-3.33,1.87-5.09.16-.47.33-.84-.38-.74-.37.84-1.04,1.63-1.62,2.38-.06.08-.12.16-.18.24-.18.25-.35.5-.49.74-.13.24-.07.57-.15.68-.05.07-.43.2-.76.39-.15.18-.28.36-.41.51,0,.1-.01.22-.1.34-.12.16-.25.2-.37.21-.1.11-.18.2-.25.26,0,0,0,0,0,0-.06.4.14.66-.57.45-.11-.03-.13-.21-.15-.21-.08-.02-.16.02-.24,0,0-.16,0-.32,0-.48,0-.97.08-1.48.24-2.4h0l.15-2.09c-.18.15-.33.31-.48.48-.89,1.45-1.78,3.1-2.78,4.38-.17.21-1.19,1.24-1.34,1.3-.64.25-.73-.23-.55-.79.02-.05.06-.14.1-.23.33-1.12,1.85-3.23,2.38-4.1.09-.15.17-.3.26-.46,1.87-3.5,5.49-9.99,6.43-13.37.17-.61.24-1.14.06-1.43-.24-.01-.48-.03-.7.03-.49.14-1.28,2.12-1.63,2.69-.18.29-.37.6-.57.92-.33.57-.66,1.12-1,1.63-.39.59-.82,1.24-1.28,1.91-3.54,5.34-8.25,11.67-12.25,14.77-.23.18-.82.59-1.06.62-.38.04-.97-.18-.85-.61,0-.03.06-.09.13-.17,0-.11,0-.22.03-.36l3.85-4.07c5.14-6.35,9.58-13.18,14.02-20.02.54-1.06,1.25-2.56,1.9-2.97,0,0,.02,0,.03,0,.12-.18.24-.37.36-.55l.97-.23h0c.15-.08.27-.13.33-.06.3.32-1.09,2.8-1.79,4.07-.11.54-.06.96.74.79l6.97-7.43c2.11-3.53,4.95-6.88,6.23-10.81.18-.04.32-.06.45-.05.17-.26.5-.52.36-.96,1.19-.14.88.68.18,1.29.13.32.04.83-.1,1.33-1.04,3.63-2.71,7.32-4.5,10.98,0,.01-.01.03-.02.04-1.11,2.28-2.27,4.54-3.35,6.77-.04.16-.1.32-.13.47-.07.31-.03.59-.43.7-.02.03-.03.07-.05.1.01.21-.18.46-.24.64-.1.3-.19.36-.24.48-.42.95-.79,1.93-1.2,2.88-.03.07.02.2-.04.32-.04.1-.15.12-.18.15-.63,1.76-1.54,4.37-2.08,5.7-.04.12-.07.23-.09.31-.27.97-.47,2.05-.76,2.96-.12.36-.95,1.4-.08,1.36,2.67-3.86,5.29-7.81,7.43-12.01,2.04-4,3.74-8.18,4.97-12.31.06-.22.35-.34.41-.55.22-.71.11-2.57.04-3.33-.03-.36,0-.72,0-1.07l.96.48c-.27-.83.4-1.41.48-2.04.12-.89.4-1.55.48-2.16.09-.7-.24-1.15-.24-1.8h.72c-.25-2.8,1.63-2.98,1.2.12-.06.42-.37.68-.44,1-.26,1.15-.21,3.34-.55,4.49-.48,1.6-.87,3.1-1.16,4.84ZM389.77,345.49h-.72c-.06-.34-.57-1.77-.72-1.92v-.48h-.48c-.06-1.39.17-2.51.48-3.84l.96-.24c.04.13-.04.34,0,.48l-.23.13v.35s.47,0,.47,0c.33,1.75.32,3.71.24,5.52ZM396.61,369.48c-.46.24-.36-.4-.36-.6-.03-2.02-.51-4.03-.72-6.01-.03-.27.12-1.16.25-1.31h.71c.72,1.7,1.37,3.4,1.94,5.16,0,.17-1.65,2.67-1.81,2.75ZM403.45,357.97c0,.72,0,1.44,0,2.16l-.48-.24c-.25-.31-.46-.83-.71-1.09-.26-.28-.66-.32-.71-.38-.1-.11.02-.4-.02-.45v-.48s-.48,0-.48,0c-.05-.72-.31-1.34-.2-2,.13-.76.55-.57.64-.67.12-.13-.05-.53.07-.66.2-.21.65-.29.92-.99h.72c.02.4-.02.8,0,1.2.03.66.23,1.48.24,1.68.03.63,0,1.28,0,1.92ZM408.25,339.73l.84.24c.8,1.85,2.03,3.81,2.71,5.69.68,1.88.29,3.03.53,4.75.06.45.42.75.48,1.2.1.75-.1,1.65,0,2.4.09.63.75,1.21.48,2.04-.55.03-1.28.09-1.56-.48-.14-.28-.07-.58-.16-.8-.64-1.58-1.64-3.86-1.88-5.56-.09-.67.07-1.46,0-2.15-.06-.56-.41-1.37-.47-1.93-.09-.84.11-1.84,0-2.64-.1-.69-1.38-1.69-.96-2.75ZM403.84,297.79c.81-.36.9.8,1.08,1.32,1.41,4.1,2.17,10.47,2.51,14.77.05.62.13,3.46,0,3.59-.16.16-1.38.07-1.69-.46-.31-.52-.98-3.69-1.17-4.59-.66-3.25-.73-6.34-.99-9.57-.09-1.08-1.35-4.33.25-5.05ZM401,305.25c.06-.18.06-.48.14-.72l.06-.5c.88-.03.92-.17.95.4.05.05.09.09.1.15v6.89c.24.63,1.22.86,1.36,1.91.3,2.1.52,4.43.65,6.85.27,1.02.47,2.04.4,3.08-.03.41-.14.9-.26,1.39.03,3.56-.15,7.17-.58,10.49-.04.51-.08,1.03-.14,1.54-.08.68-.36,2.16-.51,2.85-.07.34-.46,1.43-.74,2.12-.13.39-.24.7-.27.73-.05.06-.12.1-.19.12-.71.83-1.32-.51-1.41-1.49-.1-.99-.07-1.93.02-2.85.05-2.66.39-5.54.17-7.99-.14-.05-.27-.13-.38-.22-.3.18-.67.15-.76-.23-.03-.11.13-.41.21-.71-.38-1.32-.06-3.42-.05-4.95-.04-.54-.08-1.1-.13-1.66-.4-2.91-1.49-6.59-1.76-9.35-.08-.12-.16-.29-.19-.59-.09-.96.13-1.28.32-1.76.05-.27.11-.56.17-.85,0-.3-.03-.59.12-.88.04-.07.08-.13.12-.19.06-.27.11-.46.14-.49.37-.56,1.17-.48,1.85-.46.14-.94.27-1.67.62-2.61ZM399.24,295.33c.31-.23.44-.3.85-.23l-2.59,9.28c-.51,3.89-1.02,7.72-1.97,11.47v10.44s.71-3.24.71-3.24c-.2-1.33.34-2.58.48-3.84.09-.82-.4-2.27.72-2.27,0,.5.41.84.48,1.32.14,1.03-.12,2.29,0,3.35.06.52.41,1.18.47,1.69.53,4.6-.73,12.49-2.44,16.74-.25.62-.82,1.33-.93,2.07l-1.19.02c.09-1.53-.12-3.17-.01-4.69.1-1.44.36-2.03.25-3.59-.23-3.54.93-7.55.73-11.04-.06-.99-.44-2.35-.5-3.34-.15-2.44.35-5.65.02-7.93-.06-.41-.38-.51-.46-.75-.14-.44.69-2.94.88-3.61.17-.59-.14-.9.54-1.39.17-.12.42-.1.46-.13.18-.16-.27-.93-.24-1.3.06-.86,1.34-4.75,1.73-5.72.34-.84,1.32-2.78,1.99-3.29ZM405.39,211.53c-.68-.81-1.47-2.55-2.39-2.89-.36-.14-.74-.12-1.14-.3-2.19-.96-4.15-4.62-3.67-7.01.98-.2.93.63,1.33,1.19,3.81,5.37,11.88,11.85,18.25,13.68.26.07.82.14.35.48-.08.05-1.59.45-1.81.47-3.91.45-8.5-2.77-10.92-5.63ZM429.87,224.23c-2,1.63-7.74,4.98-10.2,5.4-.51.09-1.06-.13-1.56.12-.98.5-1.04,3.34-2.64,1.93-1.13-1.01-.45-2.33-.95-3.58.79-.61,1.77-1.08,2.4-1.93.35-.48.07-1.03.61-1.31,1.99-.12,4,.09,5.99,0,.38-.02.66-.22.95-.25.63-.05,1.32.08,1.91,0,.86-.12,3.29-2.26,3.81-2.15.18.04.69.58.62.81-.05.15-.76.8-.96.96ZM441.52,188.59c.06,2.44-2.19,5.61-3.13,7.91-1.09,2.66-2.03,7.13-4.09,8.87-1.16.98-5.01,2.61-5.51,3.61-.44.86-.12,3.17-.72,3.84-.12.13-1.53.06-1.93-.2-1.47-.99-1.32-5.62-1.39-7.24-.07-1.44-.45-1.81-.02-3.58.04-.15-.04-.33,0-.48l.48-.48c.29-.76.9-2.79,1.42-3.14,1.11-.76,2.14.53,2.91.05.96-.59,3.29-4.61,4.31-5.81.32-.38.82-.53.97-.7l.48-.48c.17-.17.31-.31.48-.48,1.99.14,3.22-2.15,5.03-2.41.89-.13.71.02.73.73ZM451.59,119.48c-.18,1.18-.06,3.49.02,4.78.03.56.46,1.14.49,1.91.16,3.9.16,8.23-.52,12.01-.14.79.32.82-.94.73.2-.75-2.22-4.61-2.88-3.84-.33.39.62,3.53.71,4.04.3,1.65.94,2.91,1.47,4.46,1.41,4.13-.1,7.79-2.85,10.91-.48.54-1.29,1.08-1.62,1.72-.19.38-.17,1.26-.4,1.52-1.47,1.67-4.42.99-4.99-1.06-.15-.74.11-1.78,0-2.63-.05-.35-.41-2.08-.47-2.17-.58-.8-.84.15-1.04.62-.65,1.53-1.97,2.71-3.28,3.7-.12.09-.83-.11-1.22.46-.73,1.09-1.24,4.74-2.39,5.3-.92.45-.66-.69-.82-1.1-.33-.89-.71-1.8-.86-2.74l-.96,3.84c-1.98.31-.49-1.77-.55-2.57-.13-1.52-1.21-1.47-2.59-1.28-.59.08-.65.47-.69.48v2.4c-1.7.1-1.51-1.48-1.44-2.88l-2.4-1.92c.2,1.11-.42,2.04-.5,3.1-.24,3.18-.12,6.43-.47,9.61-.1.94-.81,1.97-.47,3.13l-.87-3.22-1.04-.62-3.6,8.64-.72-1.92c-1.88,1.59-2.97,1.18-5.03,1.45-1.59.21-3.49,1.28-5.05,0,.14-.33,2.78-.26,5.28-2.88.11-.84-.58-.98-1.16-1-.88-.02-1.62-.34-2.72-1.94l-.44-2.82c.95.39,1.67-.42,1.92-.48.58-.15,2.11.3,2.39-.73.35-1.3-1.15-3.36-1.49-4.57-.45-1.63.5-4.38,1.22-6.04,1.47-3.39,3.76-5.15,6.16-7.77,2.42-2.64,1.5-6.07,1.76-9.2.07-.9.29-2.39.74-3.14.48-.8,1.57-1.02,2.23-1.59.75-.65,1.48-1.48,2.17-2.18.38-.38,1.06-.56,1.13-1.2.16-1.65-1.14-.41-1.48-1.05-.21-.41,1.38-2.52,1-3.32l.96,2.4c.88-1.85,1.28-5.29,2.91-6.47,1.74-1.27.56-1.22,1.01-3.29.4-1.83,2.56-3.68,2.8-5.6,1.02-.04.91-.22.96.72.07,1.51-.05,3.05,0,4.56,1.02.2,1.2-.9,2.16-.99,1.36-.12,2.29,1.39,3.79.94.5-.15.79-.86,1.26-1.15.43-.27,1.06-.2,1.45-.47.4-.28.43-.9.71-1.22.37-.42,1.01-.4,1.12-.54.1-.12.57-2.18.59-2.56.06-1.29-.71-2.31-.51-3.61,2.06-.22,1.88-.06,2.39,1.7.1.34-.11,1.1.73.7.39-.18.75-.96,1.21-1.21.49-.26,1.18-.14,1.37-.29.26-.2.9-2.44,1.03-3.02.2-.85,1.82,0,2.17.67.65,1.26-1.27,4.01-.69,5.97.18.61,2,1.23,2.59,2.21.26.43.64,1.64.72,2.16.32,2.11-1.34.72-1.45,1.45Z"/>
    <path class="a3" d="M331.59,245.92c-.03.23.02.48,0,.71h0c.02-.23-.03-.49,0-.71Z"/>
    <path class="a3" d="M474.03,251.1c.07.05.12.1.13.13-.02-.03-.07-.08-.13-.13Z"/>
  </g>
  <g>
    <path class="cls-2" d="M3.04,11.7v-1.36h4.13v1.36H3.04Z"/>
    <path class="cls-2" d="M12.35,15.76c-.77,0-1.44-.23-1.99-.7-.56-.46-.99-1.14-1.29-2.03-.3-.89-.45-1.98-.45-3.27s.15-2.37.45-3.25c.3-.87.73-1.54,1.29-1.98.56-.45,1.22-.67,1.99-.67s1.42.22,1.97.67c.55.45.98,1.11,1.28,1.98.3.88.45,1.96.45,3.25s-.15,2.38-.45,3.27c-.3.89-.73,1.57-1.28,2.03-.55.46-1.21.7-1.97.7ZM12.35,14.29c.39,0,.73-.15,1.03-.45.3-.3.54-.78.7-1.44.17-.66.25-1.54.25-2.64s-.08-1.97-.25-2.62c-.17-.65-.4-1.11-.7-1.4-.3-.29-.65-.43-1.03-.43s-.73.14-1.03.43c-.3.29-.54.75-.71,1.4s-.26,1.52-.26,2.62.09,1.98.26,2.64c.17.66.41,1.14.71,1.44.3.3.65.45,1.03.45Z"/>
    <path class="cls-2" d="M22.09,15.54v-7.36c0-.32.01-.71.03-1.16.02-.45.04-.83.05-1.14h-.06c-.15.28-.29.56-.45.84-.15.28-.31.57-.48.87l-2.25,3.49h6.3v1.44h-8.13v-1.25l4.58-7.18h2.09v11.46h-1.69Z"/>
  </g>
</svg>