<?xml version="1.0" encoding="UTF-8"?>
<svg id="a4" xmlns="http://www.w3.org/2000/svg" viewBox="0 0 600 500">
  <defs>
    <style>
      .a4 {
        fill: #5d4c39;
      }

      .cls-2 {
        fill: #c9caca;
      }
    </style>
  </defs>
  <g>
    <polygon class="a4" points="407.53 390.87 407.53 390.87 407.53 390.87 407.53 390.87"/>
    <polygon class="a4" points="450.53 353.02 450.53 353.02 450.53 353.02 450.53 353.02"/>
    <polygon class="a4" points="459.09 320.43 459.09 320.43 459.08 320.42 459.09 320.43"/>
    <path class="a4" d="M492.78,95.67c-.41-1.44-1.29-2.54-1.94-3.35-.39-.49-.67-.84-.76-1.15-.17-.58-.37-3.24-.54-5.77l-.03-.44c-.05-.66,0-1.49.05-2.36.07-1.27.15-2.57-.07-3.32-.06-.19-.3-.42-.6-.57-.21-.1-.35-.11-.35-.12-.17.3-1.12,3.81-1.3,4.57-.07.3-.07.65-.07.99,0,.86,0,1.84-1.16,2.21l-.25.08-.06-.26c-.74-3-1.14-6.11-1.52-9.12-.27-2.11-.55-4.3-.94-6.39-.39-1.09-1.47-1.46-2.43-1.78-.48-.16-.94-.32-1.27-.55-.26-.19-.4-.49-.54-.78-.12-.25-.24-.52-.43-.69-.97-.86-2.31-1.74-3.16-1.62l-.2.03-.05-.15s-.03-.03-.05-.04c-.17-.15-.54-.48-.7-.93-.25-.69-.43-1.42-.6-2.13-.35-1.44-.68-2.8-1.56-3.86-.02.07-.03.18-.05.34-.02.25-.05.56-.2.85-.52,1-1.76,1.81-2.89,1.88-.79.04-1.45-.26-1.88-.88-.5-.72-.82-2.18-1.16-3.73-.27-1.21-.54-2.47-.9-3.28-.52.26-1.07.33-1.61.39-.61.07-1.19.14-1.68.48-.38.25-.51.6-.62.89-.1.26-.21.55-.53.55h-.14l-.07-.12c-.09-.14-.18-.3-.28-.46-.46-.79-.98-1.67-1.88-1.81-.03.45-.31.78-.57,1.08-.23.28-.44.51-.43.8,0,.34.23.83.46,1.3.26.54.52,1.11.52,1.59,0,.4-.56,2.34-.72,2.75-.62,1.59-3.42,4-5.08,4.38-1.44.32-3.47-.1-5.26-.47-.79-.17-1.54-.32-2.18-.4l-.17-.02-.04-.17c-.22-.89.56-1.53,1.18-2.04.33-.27.66-.55.73-.76.03-.11-.2-.44-.37-.67-.35-.49-.78-1.08-.64-1.73,0,0-.01,0-.02,0-1.04,0-5.92,3.03-6.97,3.89-2.08,1.7-3.67,3.99-5.21,6.21-.85,1.22-1.72,2.47-2.66,3.62-.42.51-1.05,1.07-1.67,1.61-.77.68-1.57,1.38-1.91,1.96-.33.55-.58,1.36-.83,2.15-.22.71-.45,1.45-.75,2.02-1.07,2.07-2.5,2.88-4.01,3.74-.77.44-1.57.89-2.38,1.54-4.19,3.37-5.88,8.87-7.38,13.73l-.33,1.05-.26-.13c-1.23-.62-3.92.12-4.78.9-.42.38-.63.86-.83,1.33-.16.36-.32.73-.58,1.05-.4.5-.9.96-1.39,1.4-.46.42-.9.81-1.25,1.25-.35.42-.64.9-.94,1.41-.48.8-.97,1.62-1.73,2.23l-.2.16-.16-.2c-.44-.58-.18-1.74.07-2.86.16-.72.39-1.72.19-1.92-.14-.14-.28-.19-.45-.15-1.12.21-2.78,3.33-3.23,4.38-.68,1.6-2.61,7.67-2.61,8.79v7.81l-.35-.14c-1.4-.58-1.55-1.67-1.71-2.83-.05-.38-.11-.77-.21-1.17.1-.19.21-.38.32-.57-.05-.15-.1-.28-.15-.41-.32-.86-.5-1.12-1.26-1.1-.29,0-.67.06-1.17.13l-7.73,6.66c-.47.01-.26-1.66-.16-2.08.36-1.6,2.23-2.12,2.32-3.68h0c-.13.03-.28.04-.44.02-1.14-.09-3-1.07-3.58-.94-.49.1-.92,1.03-1.48,1.32-.08.04-.16.07-.25.08-.3-1.3.42-2.41.5-3.58.16-2.36-.13-5.35.52-7.64.17-.59,1.22-1.15,1.61-1.75.51-.79.99-1.64,1.38-2.53.65-1.48,1.03-3.07.79-4.66.16,0,.3,0,.42,0-.08-.33-.18-.66-.27-.99h0s0,0,0,0c.11-.08.21-.17.3-.26.03-.03.06-.07.09-.1.06-.07.12-.15.18-.23.03-.04.06-.08.08-.13.05-.09.1-.17.15-.26.02-.04.04-.08.06-.12.06-.12.12-.25.18-.37,0,0,0,0,0,0,0,0,0,0,0,0,0,0,0,0,0,0,.07-.14.13-.28.2-.41.02-.04.04-.08.06-.12.08-.15.15-.29.23-.42,1.67-2.59,3.33-4.5,5.12-6.88.01-.02.02-.03.03-.05.14-.19.26-.35.38-.5.04-.05.08-.1.12-.15.09-.11.17-.21.25-.31.03-.04.07-.08.1-.12.1-.12.2-.22.3-.32,0,0,0,0,0,0,.03-.03.06-.05.09-.08.19-.17.38-.32.6-.47.02-.01.04-.02.06-.04.27-.18.59-.37,1.01-.62.06-.04.12-.07.18-.11.11-.07.23-.14.36-.22,3.26-2.02,6.52-4.33,9.84-6.24,1.92-1.1,4.16-1.63,6.06-2.58h0c.23-.11.44-.24.66-.38.15-.09.3-.19.45-.29,0,0,0,0,0,0,0,0,.01,0,.02-.01.33-.22.66-.44.99-.65.3-.19.6-.37.92-.53.16-.08.32-.16.48-.24.14-.06.28-.15.42-.23,2.15-1.17,4.81-3.74,6.69-4.29.33-.1.68.03,1.05-.15,0,0,0,0,0,0,.02-.01.06-.05.11-.09.01-.01.03-.03.05-.04.05-.05.1-.1.17-.16,0,0,.02-.02.03-.03.07-.07.15-.15.23-.24.01-.01.02-.02.04-.04.08-.08.15-.16.21-.23,0,0,0,0,0,0,0,0,0,0,0,0,.04-.05.08-.09.11-.13,0,0,.02-.02.03-.03.03-.03.04-.05.06-.07,0,0,.02-.02.02-.03.05-.07.09-.15.13-.22.02-.03.04-.06.06-.09.05-.08.07-.18.11-.26h0c.11-.25.19-.5.26-.76h0c.07-.26.12-.53.18-.79,0,0,0,0,0,0,.05-.27.11-.54.18-.81,0-.03.02-.06.03-.08.04-.15.08-.3.14-.44-.04-.2-.1-.38-.18-.55-.32-.73-.92-1.2-1.63-1.52-.24-.11-.49-.2-.74-.27-.16-.05-.33-.09-.49-.13-.08-.02-.18-.03-.28-.04-.64-.1-1.45-.11-2.03-.28-.45-.14-.8-.34-1.18-.52-.38-.19-.8-.35-1.39-.39-.27-.02-.59-.02-.87,0-.04,0-.07,0-.11-.01-.11-.19-.34-.25-.59-.26-.25,0-.52.03-.72.03-.55,0-1.09,0-1.64.02-.23,0-.46-.02-.69-.03-.58,0-1.16,0-1.73.03-4.02.17-7.98.93-12.59,1.43-1.25.14-2.42.2-3.58.29-1.16.09-2.32.19-3.56.4-.94.12-1.89.28-2.86.48-.23.05-.45.11-.65.17-.06.02-.13.04-.19.06-.14.04-.28.09-.41.14-.06.02-.12.05-.18.07-.13.05-.27.11-.39.17-.04.02-.09.04-.13.06-.62.3-1.18.66-1.81,1.05-.17.11-.34.21-.53.32-.13.08-.25.15-.39.23-.02.01-.04.02-.06.03-.43.25-.85.47-1.26.69-.34.18-.68.35-1.02.51-.15.07-.3.14-.44.22-.23.11-.47.22-.7.34-.14.07-.28.13-.43.2-.34.16-.69.32-1.06.49-.23.1-.46.23-.71.35-.07.04-.15.08-.22.12-.17.09-.35.19-.53.3-.08.05-.17.1-.25.15-.18.11-.36.22-.54.33-.07.05-.15.09-.22.14-.57.36-1.12.74-1.63,1.1-.05.04-.1.08-.16.11-.26.19-.51.38-.73.56-.05.04-.1.08-.15.14,0,0,0,0,0,0-.13.13-.29.31-.45.48-.06.07-.12.13-.18.2-.04.04-.07.08-.11.12-.03.03-.05.06-.08.09-.03.03-.05.05-.07.07-.06.06-.11.11-.17.16-.02.02-.04.04-.06.05-.07.05-.13.09-.18.11-.15.04-.32.06-.5.06-.27-.01-.54-.04-.8-.04h0c-.05,0-.11,0-.16,0-.15-.01-.3-.02-.45-.02h0c-.17,0-.33,0-.47.02-.07,0-.15.05-.25.09-.02.01-.05.02-.07.04-.19.1-.42.25-.64.42-.01.01-.03.02-.04.03-.19.15-.37.31-.51.44,0,0,0,0-.01.01-.06.07-.12.13-.15.18-.28.42-.36.88-.56,1.33,0,0,0,.02-.01.03-.07.15-.15.3-.27.44,0,0,0,0,0,0-.02.02-.07.07-.14.13-.01.01-.03.03-.05.04-.07.06-.15.13-.24.21,0,0,0,0-.01.01-.21.18-.45.38-.66.55-.03.02-.05.04-.08.06-.07.06-.13.1-.18.15-.02.02-.05.04-.07.05-.06.05-.11.09-.13.1,0,0,0,0,0,0-.48.22-.54-.89-.72-1.2-.06-.09-.14-.18-.22-.26l.03-.03-.04.02h0c-.14-.13-.3-.26-.48-.36-.32-.18-.67-.3-.97-.33-.82-.1-1.61-.13-2.38-.12s-1.52.05-2.28.08c-.38.02-.75.03-1.13.04s-.77,0-1.16,0c-1.32-.04-2.75.08-4.09.02-1.61-.06-3.72-1.06-5.25-1.21-.01,0-.03,0-.04,0h0c-.22-.02-.39.01-.55.06-.59.06-1.23.15-1.9.26-.33.02-.65.04-.96.07-.92.08-1.77.21-2.76.5-.26.08-.54.17-.83.27-.18.06-.35.14-.53.2-1.95.72-3.87,1.53-5.78,2.35-1.36.58-2.71,1.17-4.07,1.71-.79.32-1.71.52-2.59.79-.77.24-1.51.53-2.11,1-.21.17-.45.38-.55.65-.23.18-.47.37-.71.57-.26.08-.45.27-.7.43-.56.34-1.11.68-1.67,1.03-.78.49-1.57.97-2.36,1.44-.03.02-.05.03-.08.05-.26.1-.45.18-.48.21-.01.01-.02.04-.03.07-.21.12-.42.24-.63.35-.11.15-.12.35-.12.57,0,.15.01.3.02.46,0,.23-.01.47-.12.67,0,0,0,.01,0,.01-.05.1-.12.2-.2.3-.01.02-.03.04-.05.06-.07.09-.15.18-.24.28,0,0,0,0,0,0-.16.17-.33.34-.52.52-.17.16-.33.33-.5.51-.01.01-.02.03-.03.04-.15.16-.29.32-.42.49-.04.05-.08.1-.11.15-.14.2-.28.4-.39.61-1.12,1.09-2.2,2.19-3.34,3.32-1.26,1.25-2.58,2.46-3.76,3.79-.39.44-.78.89-1.15,1.35-1.13,1.38-2.18,2.83-3.11,4.32-.15.25-.31.47-.46.68-.15.22-.31.43-.46.64-.05.07-.1.13-.15.2-.11.01-.22.02-.34,0l-.18-.02v-.07c-.17-.09-.48-.31-.53-.82-.04-.45-.02-.92,0-1.36.02-.46.05-.89,0-1.32v-.08s-.01,0-.01,0c.16.03.32.06.49.05-.16-1.49-2.94-5.83-3.91-7.37-.44-.7-.91-1.39-1.39-2.07h0c-.61-.87-1.24-1.73-1.88-2.58-.14-.18-.28-.37-.42-.55-.59-.77-1.18-1.55-1.76-2.32-.63-.82-1.25-1.65-1.86-2.48-.81-1.11-1.59-2.24-2.33-3.4-.09-.15-.16-.35-.21-.55-.04-.17-.08-.33-.11-.46s-.06-.22-.09-.25c-.01-.01-.06-.02-.14-.04-.2-.03-.59-.07-1.02-.12-.43-.05-.88-.11-1.22-.18-.22-.05-.39-.11-.46-.18l-.17.33c-.1-.04-.18-.09-.23-.14-.1-.1-.19-.28-.33-.54-.27-.51-.67-1.27-1.33-1.85-4.4-3.89-10.21-8.35-14.17-11.24-.19-.14-.39-.3-.59-.46-.81-.64-1.63-1.29-2.58-1.2l-.25.03-.03-.25c0-.08,0-.17,0-.26,0-.12,0-.23-.04-.34-.32-.84-6.58-4.75-7.92-5.23-.56-.2-.93-.25-1.11-.13-.2.12-.25.5-.32.98-.06.4-.12.86-.3,1.33-.2.54-.44,1.07-.68,1.58-.81,1.73-1.57,3.37-.43,5.26.23.38.65.74,1.1,1.12.72.61,1.46,1.23,1.58,2.08.17,1.21.22,8.72-.07,9.67-.16.52-.81.92-1.23,1-.35.07-.52-.06-.59-.15-.07-.08-.09-.2-.14-.4-.07-.31-.18-.82-.44-.96-.09-.05-.21-.05-.35,0-.83.29-1.41,2.75-1.54,4.32-.42,5.12.57,7.53,2.2,11.52.19.46.38.94.58,1.44,1.46,3.65,1.27,8.24,1.08,12.68-.11,2.66-.22,5.18.01,7.47v.03s-1.51,9.5-1.51,9.5l-3.1.95c0,.64-.21,1.4-.4,2.14-.18.69-.35,1.34-.32,1.74.09.46,3.11,6.21,3.59,6.84.44.58.99,1.03,1.57,1.5.34.28.7.57,1.03.88l.16.15-.13.18s-.05.17-.06.29c-.04.41-.11,1.1-1.3,1.27-2.19.3-4.64.04-7.01-.22-.93-.1-1.82-.2-2.67-.26-.04.35.11.45.42.67.1.07.21.15.33.24,1.12.92,2.98,1.79,4.28,2.36.14.06.25.09.34.11.55.14.54.42.43,1.19l-.03.19-3.86.48c-.02.23.08.5.18.76.14.37.29.75.08,1.08-.36.55-1.31.6-2.31.66-.72.04-1.54.09-1.76.36-.05.08,0,.42.02.6.04.34.07.61-.06.79-.14.19-.42.19-1.79.12-.88-.04-1.98-.1-2.37.02-.33.1-.42.39-.51.79-.05.21-.08.39-.21.5-.16.15-.43.18-.94.23-.46.04-1.23.11-1.31.38-.03.1-.03.53,1.3,1.68l5.06,1.52-.18.28c-1.07,1.64-2,1.23-3,.8-.42-.18-.84-.37-1.33-.44-.44-.06-.91-.04-1.41-.02-.25.01-.5.03-.75.03l1.81,3.16-.18.13c-.93.68-4.02.57-6.51.48-1.13-.04-2.41-.09-2.59-.01-.11.09-.1.15-.09.18.05.38,1.17.93,1.59,1.13.34.17.43.21.48.31.01.02,0,.05.01.08,0,0,0,.01-.01.02.09.18-.14.76.02.92.04.04.21.05.47.05.25,0,.59-.01.96,0,.47,0,1.01.03,1.52.13.86.16,1.68.52,2.08,1.29.02.03.03.08.05.13,0,0,0,0,0,.01.02.06.03.13.05.21.05.29.09.68.13,1.12.04.52.06,1.1.07,1.63,0,0,0,.01,0,.02,0,.16,0,.32,0,.47v.05c0,.3,0,.56-.02.76,0,.03,0,.05,0,.07,0,.07-.01.13-.02.17,0,.02,0,.04,0,.05-.01.05-.02.09-.04.11-.11.1-2.12.29-2.86.74-.05.03-.1.07-.16.11-.12.1-.28.23-.45.39-.17.16-.37.35-.57.55-1.12,1.13-2.53,2.8-2.62,3.32-.13.76,1.11,1.14.92,1.82-.14.5-3.73,3.96-4.31,4.84,0,.58.2.79.5.8.08,0,.17,0,.27-.03.67-.16,1.56-.89,1.87-1.01.16-.06.28-.08.38-.07.69.07.06,1.63-.21,1.92-.75.8-2.26.17-3.19,2.81-1.81,5.16-1.51,10.48-2.03,15.73-.16,1.57-.54,3.24-.99,4.95-.74,2.85-1.63,5.8-1.87,8.51-.08.85-.03,1.75.01,2.65.04.9.07,1.79-.03,2.61-.17,1.36-.9,2.98-1.95,4.73-3.15,5.23-9.21,11.55-11.97,14.95-2.42,2.99-4.84,5.98-7.25,8.97-7.22,8.99-14.36,18.05-21.32,27.26-7.26,9.6-18.3,14.14-25.11,24.81-3.18,4.99-6.06,10.88-5.83,16.92h0s0,0,0,0c0,0,0-.01,0-.01h0s-.04.05-.07.08c-.06.01-.12.04-.19.07,0,0,0,0-.01,0-.31.17-.72.57-1.08,1.01-.02.02-.04.04-.06.07-.09.11-.18.22-.26.33-.1.06-.2.13-.27.22-.28.35-.26.92-.69,1.24h0c-.08.33.37.48.45.73.01.04.01.09.01.15,0,.1-.03.23-.07.36,0,.02,0,.04-.01.06-.04.13-.08.27-.14.41-.01.03-.02.06-.03.09-.03.08-.06.15-.09.23-.01.02-.02.05-.03.07-.04.09-.08.18-.12.25-.03.06-.06.1-.09.14,0,.01-.02.02-.03.03-.13.11-.27.23-.41.35-.23.14-.47.26-.65.46-.82.9-.66,1.81-.72,2.89h0c0,.07-.03.14-.05.21-.01.03-.03.06-.04.09-.02.04-.04.08-.06.12-.04.08-.08.14-.08.18h0c0,.06,0,.13,0,.2l-.71.57h0l.66,2.33c-.06,0-.12,0-.19.02h0c0,.48,0,.96,0,1.44h0c.01.79.54,1.82.59,2.61,0,0,0,0,0,0-.06.08-.1.16-.14.25-.01.03-.02.06-.03.09-.02.06-.04.12-.05.18,0,.04-.01.08-.02.12,0,.06-.02.12-.02.18,0,.04,0,.08,0,.13,0,.06,0,.13,0,.19,0,.04,0,.09,0,.13,0,.07,0,.14,0,.21,0,.07,0,.14.01.21,0,.07,0,.14.01.2,0,.11,0,.21,0,.31h0c0,.11,0,.21-.01.31,0,.02-.01.05-.01.07-.04.31-.12.64-.22.98-.18.64-.41,1.29-.47,1.84h0s0,.03,0,.04c-.02.17-.01.33-.02.49,0,.16-.02.32-.02.47.06,2.3,1.19,4.34,2.09,6.54,0,.01,0,.02.01.03.61,1.47,2.21,3.59,2.81,4.35.14.18.23.28.23.28h0s0,0,0,0c.05-.04-.75,1.28-.67,1.25,0,0,0,0,0,0-.22,3.51-1.88,6.92-2.85,10.27-.06.21.79,3.38.95,4.28,0,.01,0,.03,0,.04.02.15.03.3.03.46,0,.48-.09,1-.03,1.45,0,0,0,0,0,0h-.48c.22.5.47.96.71,1.43.08.16.17.32.25.49.09.18.04.6.22.96.26.52,1.6,3.17,1.76,3.31.09.08.24.09.41.08s.35-.04.49-.03c.14.33.35.63.48.96.49,1.27.73,2.3,1.94,3.11l.23.35,1.19,1.81c-.59.57-.41.86-.48.96-.17.24-.82.11-.97,1.19-.03.2-.04.4-.05.6-.05,2.97,2.6,5.64,5.34,6.38.27.07.68-.07.96,0-.28.48-.34.9-.31,1.28.05.64.36,1.2.36,1.84,0,.7-.47,1.27-.43,1.83.06.73.39,2.03.79,3.35.43,1.43.94,2.89,1.27,3.7.06.15.12.3.2.48,0,.01.01.03.02.04.05.11.1.22.15.34.02.05.04.1.07.15,0,0,0,.01,0,.02,1.23,2.7,3.85,7.34,6.2,7.62.06.03.12.05.16.08.04.03.07.05.09.08h0c.24.02.49-.03.72,0,.08.01.17-.02.24,0h.24c.23-.16.43-.23.72-.24-.02-.17.09-.22.24-.24.07,0,.16,0,.24,0,0-.04,0-.06,0-.09,0-.01,0-.02,0-.03,0-.05,0-.1,0-.14l.12.03c.58.16,1.24.42,1.87.66.63.25,1.23.48,1.75.62l.19.05v.18s-.02,0-.02,0h0c0,.47.21.87.52,1.23.02.03.04.06.07.09,0,0,.02.02.03.03.19.2.41.38.65.55.13.09.26.18.39.27.12.08.24.15.36.22.25.15.49.29.7.42,4.58,2.76,9.94,3.85,15.28,3.91,2.43.03,4.85-.15,7.19-.49.29-.04.6-.1.92-.18.95-.23,1.98-.56,2.88-.73l4.14,3.8h0c-.01-.05-.03-.1-.04-.16l.04.04.02.07c.37,1.47.96,3,1.52,4.47.78,2.03,1.58,4.12,1.84,6.11,0,0,0,0,0,0,0,0-.01.01-.02.01h0c.03.26.05.53.04.81,0,.56-.05,1.14-.07,1.71,0,.28,0,.56.02.83h0c1.44-.25,2.69-1.04,4.16-1.02.21,0,.42.02.64.06.01-.69.03-1.37.02-2.05h0c0-1.08-.03-2.15-.12-3.22-.08-.97-.2-1.93-.39-2.89-.01-.07-.03-.12-.05-.18l.27.15c.95.52,1.4,1.39,1.84,2.24.19.36.37.71.58,1.02.21.31.46.52.69.72.45.39.91.78,1.02,1.8,0,0,0,0,0,.01,0,0-.02,0-.02,0h0c.01.12.02.24.02.36,0,.36-.05.7-.04,1.04,0,.44.1.86.5,1.25.37.36,6.6,2.22,7.57,2.19.06,0,.11-.01.12-.03h0c-.03-.29-.05-.52-.05-.71,0-.57.12-.74.32-.73.3.01.77.43,1.2.46.05,0,.11,0,.16-.01.42-.09.82-.88,1.27-1.16,3.09-1.87,4.47-1.42,7.37-2.23,1.25-.35,1.62-2.25,1.74-2.34h0c-.09-.09-.19-.15-.29-.23l.29-.03c.35-.04.77-.16.98-.76l.25-.71.21.65h0s0,.06,0,.1c0,0,0,.02,0,.03,0,.02.11.08.23.18.12.1.26.24.34.43.21.47.82,2.16.9,2.24.01.01.04.03.08.04.28.09,1.14.12,2.26.11,2.41,0,6.04-.15,7.75-.16.11,0,.22,0,.31,0,.15,0,.28,0,.38,0,1.04.05,2.33.39,3.58.5h0s-.02-.04-.03-.06c-.02-.06-.06-.11-.08-.17.12,0,.24,0,.36,0,.17,0,.34-.01.51,0,.06,0,.12.01.18.02,0,.06.02.13.02.19,0,0,0,.02,0,.03,3.07.27,6.03.76,9.12.96h0c-.01-.08-.05-.14-.07-.21,1.36.14,2.42,1.08,3.44,1.99.44.39.9.8,1.37,1.13l.12.08c1.17.83,4.74,3.36,5.75,3.5.43.06.5-.03.51-.03.02-.02.03-.13-.05-.36-.19-.5-.66-1.08-1.11-1.63-.42-.53-.83-1.02-1.04-1.49-.13-.29-.18-.56-.21-.76-.01-.07-.02-.16-.03-.18l-.28-.54.32.11c.01.07.03.14.02.22h0c.12.01.25.04.38.06,0,0,.01.02.01.03h0s0,0,0,0c.94.17,1.87.37,2.8.59.35.08.7.18,1.04.27,0,0,.01,0,.02,0,.03,0,.06.02.09.02.54.14,1.08.28,1.61.43.39.11.79.22,1.18.34.06.02.12.03.18.05.07.02.15.04.22.07.37.11.74.22,1.11.33.61.19,1.22.37,1.82.56,0,0,0,0,0,0,0,0,0,0,0,0,.53.17,1.05.35,1.58.52.16.05.33.11.49.16,0,0,0,0,.01,0,0,0,.01,0,.02,0,.08.03.16.07.24.11.01,0,.03.01.04.02.3.13.63.25.9.26,0,0,.02,0,.03,0h0c.3.03.36.02.36-.13.06-.06.11-.15.15-.27h0s0,0,0,0c-.03-.02-.06-.1-.1-.19h0s.22.14.22.14c.52.33,1.21.68,1.96,1.04.96.47,1.94.96,2.63,1.47.69.52,1.35,1.16,1.99,1.79,1.61,1.57,3.27,3.2,5.67,3.2.04,0,.08,0,.12,0h.15c.15,0,.37,0,.41-.04,0,0,.03-.08-.07-.34-.22-.59-1.19-1.76-1.89-2.61-.7-.85-.93-1.14-.97-1.31-.03-.14.02-.34.61-1.84.14-.37.27-.7.33-.88l.06-.17h.18c.1,0,.2.02.3.03-.03.07-.06.14-.08.21h0c.34.01.68.05,1.02.11.12.02.24.04.36.06.26.05.52.11.78.19.24.07.48.14.72.22,1.61.69,3.47,1.78,4.68,2.63.3.21.57.41.77.58.07.06.14.11.21.16.09.06.18.13.25.2.02.02.03.05.05.08.09.12.15.26.13.48.08.02.16-.02.24,0,.25.06.42.14.55.23.08.05.14.11.2.17,0,0,0,0,.01,0,.04.05.09.1.13.15.11.13.23.27.43.42.14.11.29.19.43.27,0,0,0,0,0,0,.06.05.13.1.19.13.07.04.14.08.2.1.11.03.23.04.34.05.01,0,.03,0,.04,0,.92.25,1.92.23,2.84.44.89.2,1.82.56,2.7,1.04.49.27.96.59,1.4.94.34.27.67.56.96.87.04.05.08.1.12.14.39.44.73.92.98,1.43.1.26.19.53.26.8,0,.03.02.07.02.1.06.25.1.5.12.77,0,.06.01.12.02.19,0,0,0,0,0,0,.02.25.02.51.01.77,0,.08,0,.15,0,.23-.02.34-.06.69-.12,1.06-.18.99-.74,1.54-1.1,2.26,0,0,0,0,0,0-.15.3-.25.53-.28.69h0s-.02.03-.02.04c0,0,.01,0,.01,0h0s0,.08.02.11c0,0,0,0,0,0,.01.03.04.06.07.07,0,0,0,0,0,0,.03.02.07.03.12.04,0,0,0,0,.02,0,.06,0,.12.01.21,0,.09,0,.19-.01.31-.03.82-.38,1.43-2.49,1.83-3.77.06-.18.11-.35.16-.49.09-.26.17-.44.23-.49h0s.13-.05.21-.06c.02,0,.04,0,.07,0,.09,0,.18,0,.28-.01,0,0,0,0,.01,0,0,0,0,0,0,.01.01.06.02.12.05.17h.12c.09-.04.28.02.47-.12.1-.07.21-.21.31-.38t0,0s.08-.07.11-.11c.06-.08.12-.19.18-.32,0,0,0,0,0-.01l.06.03-.05-.06s.02-.04.03-.06c.05-.11.1-.23.15-.37,0,0,0,0,0,0l.07.02-.06-.05s.01-.03.02-.05c.06-.16.12-.32.17-.5,0,0,0,0,0-.01.06-.2.12-.4.18-.61,0,0,0,0,0,0,.17-.56.35-1.17.48-1.64l.33,1.16c-.05.56-.08,1.1-.07,1.16,0,0,.04.03.09.05.02.01.04.02.06.03v.4s-.39,0-.39,0h0c0,.15.01.32.02.49,0,.17,0,.34-.02.47h0l.08.05.14.1.03.57s.05.08.1.18c.02.03.03.06.05.1h0s0,.29,0,.29h0c.06,0,.12,0,.19-.01.04.06.09.11.14.16h.72c.16-.08.32-.16.48-.24l.24-.24c.06-.03.18.03.24,0,.01-.19.11-.41.25-.61h0s0,0,0,0c.2-.17.39-.37.57-.57,0,0,0,0,0,0,.2-.14.42-.24.62-.26h0s0-.1,0-.14c0-.05-.01-.09,0-.1h0v-.3s0,0,0,0c.04-.06.08-.12.12-.18h.36c.13-.57.53-1.28.72-1.92.02-.06.02-.13.03-.2h0s.02-.04.02-.05c0,0,0-.01,0-.02.09-.22.16-.41.24-.61,0,0,0-.01,0-.02h0c.05-.02.11-.04.18-.06h0c0-.09-.02-.22-.02-.35h0c.18-.5.33-.92.46-1.3h0s.05-.03.05-.03h0s0-.04,0-.07h0s.01-.04.02-.06c.27-.76.54-1.4,1.14-2.37,0-.01.01-.02.02-.03.12-.02.21-.04.26-.1.06-.07.75-1.44.84-1.68.01-.03.02-.06.03-.1,0,0,0,0,0,0,.21-.46.37-.95.49-1.46h0s.04-.09.07-.13h0c0-.05,0-.12,0-.17h0c.05-.26.09-.51.11-.76,0-.06.01-.12.02-.18.02-.25.03-.49.02-.72.03,0,.06,0,.08-.01-.01.06-.02.12,0,.15,0,0,0,.01,0,.02.04.03.31-.08.43.04.06.06.07.16.06.25,0,.04-.01.09-.02.12,0,.03,0,.06,0,.07.03.03.41-.07.48.24h.63c.07.04.14.07.21.09.08.02.16.02.24,0h0c.06-.02.12-.05.19-.08h.41c.04-.18.12-.41.22-.62h0c.08-.12.16-.24.23-.38t0,0c.14-.17.31-.26.51-.2.09-.38.17-1.01.24-1.44.01-.09.01-.18,0-.28h0c.06-.22.12-.43.17-.63h0s.07-.05.07-.05h0c-.01-.07,0-.15,0-.23h0c.1-.45.16-.84.18-1.11.01-.19.01-.38,0-.55-.05-1.07-.45-1.97-.51-3.01,0-.17-.01-.35,0-.54,1.36.5,1.67,2.46,2.88,3.13.06.04.12.05.18.07l-.02.09.05-.09c.06.02.12.06.18.07.02,0,.05.01.07.02.07.1.09.21.1.3,0,.08,0,.15.02.15h0c.05.05.53-.04.72,0,0,0,0,0,0,0,.03.14-.03.42,0,.47,0,0,0,0,0,0,.04.04.55-.05.8.03.05.02.1.05.16.09.04.03.09.08.13.13.03.03.06.06.08.09,0,0,0,0,0,0,0,.1.02.21.04.32.02.13.06.26.12.39,0,0,0,0,0,0,.17.36.34.7.51,1.03.04.09.09.17.13.25.18.34.35.66.53.96,0,0,0,0,0,0,0,0,0,0,0,0,.07.16.13.29.19.41.02.04.04.09.07.12.18.3.93,1.23,1.19,1.45.33.27.68.42,1.04.48h0c.14.04.28.07.42.09.02,0,.04,0,.05,0,.13.01.27,0,.4,0,.03,0,.07,0,.1-.01.13-.02.25-.05.38-.09.05-.02.1-.04.15-.06.12-.05.24-.1.36-.17.07-.04.14-.08.21-.13.11-.07.23-.14.34-.23.09-.07.18-.15.27-.22.1-.09.2-.17.31-.27.12-.11.24-.25.36-.38.09-.09.17-.17.26-.27.21-.24.42-.5.63-.78,0,0,.01-.02.02-.03.02-.02.03-.05.05-.07.19-.26.36-.53.51-.83.06-.12.11-.26.17-.38.09-.21.19-.42.28-.65.06-.16.1-.33.15-.49.06-.21.13-.41.19-.63.05-.2.09-.41.13-.61.04-.19.08-.37.12-.56.04-.24.07-.49.1-.73.02-.15.05-.3.06-.46.03-.29.05-.58.08-.86,0-.1.02-.21.03-.31.02-.34.03-.66.04-.98,0-.05,0-.1,0-.14,0-.36.01-.71,0-1.05.36,0,.68.1.99.24,0,0,0,0,0,0,.1.05.2.1.29.15.12.08.25.17.37.26.05.03.1.07.14.1.04.03.08.05.12.08.05.03.1.07.15.1.04.03.08.05.12.07.05.03.1.06.15.09.04.02.08.04.11.06.05.03.1.05.15.07.02,0,.04.02.06.03.01,0,.03.01.04.02.01,0,.02,0,.03.01.04.01.07.03.11.04.03,0,.06.02.09.03.05.01.1.01.14.02.02,0,.05,0,.07,0,.07,0,.13-.01.19-.04.13-2.17,2.67-3.51,4.46-4.42.43-.22.86-.43,1.31-.64,0,0,0,0,0,0,.02,0,.03-.02.05-.02.09-.04.19-.09.28-.13.16-.07.32-.15.48-.22h0c1.22-.54,2.51-1.07,3.85-1.54,0,0,0,0,0,0,.16-.06.32-.11.48-.16,0,0,.02,0,.02,0,.24-.08.47-.16.71-.24,0,0,0,0,.01,0,.4-.13.8-.25,1.21-.36.17-.05.34-.1.52-.14.31-.08.62-.16.93-.24.15-.04.29-.07.44-.11.43-.1.85-.19,1.28-.27.15-.03.3-.06.45-.08.33-.06.67-.12,1.01-.17.14-.02.28-.04.42-.06.44-.06.89-.11,1.33-.15.12-.01.25-.02.37-.03.36-.03.71-.05,1.07-.07.13,0,.26-.01.39-.02.45-.01.9-.01,1.34,0,.09,0,.18,0,.27.01.38.01.75.04,1.13.07.12.01.24.02.36.03.45.05.89.1,1.33.18.05,0,.1.02.15.03.39.07.78.16,1.17.25.11.03.23.06.34.09.43.12.86.24,1.28.39.25.09.49.19.72.29.05.02.1.04.16.07.21.1.42.19.61.28,0,0,0,0,0,0,0,0,0,0,0,0,.29.19.58.37.85.5.26.12.44.16.72.12,0,0,0-.02,0-.03,0,0,0,0,0,0,.07,0,.13-.02.19-.04,0,0,0,0,0,0,.2-.1.3-.36.3-.87,0-.51-.11-1.26-.34-2.34h0l.79.11,1.54.22c.1.02.21.03.31.04.06,0,.11.02.17.02l.54.08c.03-.17.05-.32.04-.46,0-.43-.17-.75-.42-1.02-.37-.41-.93-.72-1.44-1.08-.24-.17-.47-.35-.67-.57-.12-.13-.21-.28-.3-.43-.02-.03-.05-.06-.06-.09.03-.04.06-.09.09-.14.42-.82.7-3.3.84-3.4h0c-.32-.03-.64-.06-.97-.11l.77-.15c.16-.03.38,0,.64.03.16.02.41.05.55.04,0-.16,0-.47-.02-.71-.02-.39-.04-.8,0-1.05,0-.04.02-.09.03-.13v-.07s.06-.02.08-.04l.37.26c.17-1.31,1.3-3.06,2.4-3.84,0,0,0,0,0,0,0,.27.03.51.07.74.01.07.04.13.05.2.04.15.09.3.14.44.03.06.06.12.09.18.07.13.14.26.22.39,0,0,.01.01.01.02.02.04.05.07.07.11.09.12.18.24.28.36.02.03.04.06.07.09,0,0,0,0,0,0,0,0,0,0,0,0,.07.1.14.2.22.3.12.15.25.3.41.46.01.01.03.02.05.03.03.02.05.04.08.05.1.12.21.25.3.38.02.03.05.06.08.1.03.04.05.09.08.14.36.56.51,1.26.89,1.77,0,0,0,0,0,0,0,0,0,0,0,0,.08.11.19.19.31.27,0,0,.01,0,.02.01,0,0,.02.01.03.02.05.03.11.04.16.07.08.04.16.08.24.1,0,0,0,0,0,0,.22.17.43.28.52.18h0s-.01-.06-.02-.09h0c.09,0,.18,0,.25,0,.01,0,.02,0,.03,0,.07-.01.12-.03.14-.06,0,0,0,0,0,0,0-.01.02-.05.03-.09,0-.02.01-.04.02-.06.01-.04.02-.09.04-.14,0-.03.01-.05.02-.09.02-.06.03-.14.05-.21.02-.08.04-.16.06-.24t0,0l.07.02-.06-.04s0-.03.01-.05c.06-.26.12-.53.17-.76h0c.08-.09.14-.17.15-.23h0s-.02-.13-.06-.24c0-.01,0-.03,0-.04,0-.01,0-.02,0-.04,0-.07,0-.15,0-.22h0s0-.05,0-.07c0-.07-.01-.13-.03-.2,0-.02,0-.03-.01-.05-.19-.93-.86-2-.8-2.94.02-.31.13-.61.36-.88,0,0,0,0,0,0h0c.64-.52,1.61-.29,2.56-.49.26-.06.45-.14.61-.26.07-.03.15-.05.21-.09.92-.59.09-2.3.67-3.17.05-.08.12-.14.19-.2.07-.06.15-.11.23-.15,0,0,0,0,0,0t0,0c.13-.06.28-.12.44-.19,0,0,0,0,0,0,0,0,0,0,0,0,.26-.09.53-.16.76-.24.05-.02.1-.04.15-.06.04-.02.08-.03.12-.05.08-.04.15-.08.2-.13.07-.07.98-1.56,1.01-1.65.04-.14.06-.27.05-.39-.05-.88-1.16-1.54-1.37-2.5-.04-.19-.07-.36-.09-.52,0-.05-.01-.1-.02-.15-.01-.1-.02-.2-.02-.3,0-.05,0-.1,0-.15,0-.11,0-.22.02-.32h0c.06,0,.11.01.13,0,.02-.02-.01-.29.12-.48.11-.17.35-.22.36-.24.02-.04,0-.11,0-.2h0s0,0,0,0c.08-.04.16-.06.24-.09.02,0,.03,0,.05-.01.07-.02.14-.03.21-.04.02,0,.04,0,.06,0,.07,0,.14-.01.21-.02.02,0,.03,0,.05,0,.18,0,.35,0,.5,0,.04,0,.07,0,.1,0,.03,0,.07,0,.09,0,.04,0,.07-.01.1-.02.02,0,.04,0,.06-.01.05-.01.08-.03.11-.06.14-.14.08-.64.29-.9.08-.1.18-.16.27-.22,0,0,0,0,0,0,.06-.03.12-.06.18-.09,0,0,0,0,0,0,0,0,0,0,0,0,.3-.12.59-.15.67-.25h0c.14-.18.08-.56.16-.95.05-.23.15-.47.38-.67.14-.12.31-.22.49-.3.12-.05.24-.11.37-.15h0c.69-.15,1.45-.07,2.13-.09h0c-.04-.05-.09-.11-.14-.17.02,0,.04,0,.05,0h0c0-.24-.06-.45-.14-.65-.37-.86-1.38-1.44-1.66-2.39-.02-.05-.04-.1-.05-.15-.03-.16-.04-.31-.04-.44,0-.04,0-.08.01-.12,0-.09.02-.17.04-.25.01-.04.03-.07.04-.11.03-.07.06-.13.1-.19.02-.03.04-.05.06-.08.05-.06.11-.11.17-.15.02-.01.04-.03.06-.04.18-.11.4-.19.65-.23.01,0,.02,0,.04,0,.12-.02.24-.03.36-.04.02,0,.04,0,.05,0,.13,0,.26-.01.39-.01h.02c.59,0,1.22.08,1.73.12.17.01.33.02.47.03h0c.24.06.41.09.43.07.04-.04.05-.08.05-.12.04-.01.08-.03.1-.05.22-.19.3-.34.3-.46,0-.36-.76-.45-.92-.58-.01,0-.03-.03-.05-.04-.04-.03-.08-.06-.12-.1-.02-.02-.04-.04-.07-.06-.07-.05-.14-.12-.22-.18-.02-.01-.03-.03-.05-.04-.11-.09-.22-.18-.34-.29h-.01c-.12-.11-.24-.22-.36-.33-.01-.01-.02-.02-.03-.03-.26-.24-.52-.5-.76-.76,0,0-.01-.02-.02-.02-.24-.27-.45-.53-.61-.79,0,0,0,0,0,0h0s0-.01,0-.02c-.03-.19-.01-.49,0-.69,0-.14-.01-.29,0-.43.15-.03.53-.03.97-.03.02,0,.03,0,.05,0,.13,0,.25,0,.38,0,.05,0,.1,0,.15,0,.1,0,.21,0,.31.01.08,0,.15,0,.23.01.07,0,.15,0,.21.01,0,0,0,0,.01,0v.03s0-.03,0-.03c.08,0,.16.01.23.02.04,0,.09,0,.13.01.09.01.16.02.22.03l-.02.07.04-.07s.01,0,.02,0c0,0,0,0,0,0,.06.01.13.04.2.06.04.01.07.02.1.03h0s.09.04.14.05c.15.06.31.14.48.22.01,0,.02.01.03.02.08.04.16.08.24.12.09.04.17.09.26.14.01,0,.02.01.03.02,0,0,.02,0,.02.01.16.09.33.18.49.28.02.01.04.02.06.03.18.1.35.21.51.31.49.38,1.03.83,1.34.94.04.02.09.01.13,0v.02h0v-.02s.06-.01.08-.02c0,0,0,0,0,0,.19.07.36.07.51,0,.02,0,.03-.02.05-.03.06-.04.12-.09.17-.16.02-.02.04-.04.05-.07.07-.09.14-.21.2-.36h0l-.37-.27c.01-.1.01-.2-.02-.28-.08-.02-.22.03-.24,0h-.12l-.6-.44v-.04h0s-.04,0-.06,0h0l-2.19-1.6c-.17-.15-.33-.29-.47-.44-.04-.04-.08-.09-.13-.13-.1-.1-.2-.21-.29-.31,0-.01-.02-.02-.03-.03-.04-.05-.07-.09-.11-.14-.06-.07-.12-.15-.17-.22-.01-.02-.03-.04-.04-.05-.04-.06-.08-.12-.12-.18-.06-.09-.11-.17-.16-.26-.04-.06-.07-.13-.1-.19,0-.01,0-.02-.01-.03-.04-.07-.07-.14-.1-.22-.03-.06-.05-.12-.07-.18,0,0,0-.01,0-.02-.03-.08-.05-.16-.08-.23-.02-.07-.03-.13-.04-.2-.02-.08-.03-.15-.04-.23,0-.06-.01-.13-.01-.19,0-.07,0-.15,0-.22,0-.06,0-.13.02-.19.01-.07.02-.14.04-.21.02-.06.03-.12.05-.19.02-.07.05-.13.08-.2.03-.06.05-.12.09-.18.04-.06.08-.13.12-.19.04-.06.08-.12.12-.17.05-.06.11-.12.16-.18l.04.04-.03-.06s.03-.03.04-.04c.03-.04.07-.07.11-.11.06-.06.14-.11.21-.17.06-.05.12-.1.19-.15.08-.06.17-.11.26-.16.07-.04.14-.09.22-.13.17-.09.35-.18.54-.26h0c1.51-.21,3.37.4,4.74.64.3.05.6.09.92.13l3.41.7c.29.12.6.23.96.2h0s.01,0,.01,0h0s0,0,0,0c.08,0,.17-.03.26-.05.02,0,.05,0,.07-.01,0-.01,0-.02,0-.03,0-.2,0-.4,0-.6.2-.29.37-.67.51-.98.06-.12.11-.24.15-.33l.08-.17.18.03c.96.17,2.36-.02,3.06-.62.27-.23.43-.51.47-.83-1.46-.17-2.86-.73-4.21-1.27l-.56-.22-.04-.4c.17.07.34.15.49.21-.03-.36-.05-.66-.04-.92,0-.22.02-.41.06-.57.24-1.1,1.18-.71,2.61-.93.05,0,.09-.03.14-.04.11,0,.21,0,.32-.01.25-.04.41-.19.57-.32.04-.01.08-.03.12-.04.1-.03.2-.05.3-.05.43,0,1.36.5,2.1.5.45,0,.83-.18,1-.76.32-1.08-.11-1.83-.68-2.42-.41-.42-.9-.76-1.25-1.09-.28-.26-.48-.51-.47-.79,0-.04.04-.12.08-.21,0-.02.02-.03.02-.05.05-.09.12-.2.21-.33.02-.03.04-.06.07-.1.08-.12.17-.24.27-.37.04-.05.08-.11.13-.16.07-.09.14-.19.22-.28.1-.12.2-.25.3-.37.04-.05.09-.11.13-.16,0,0,0,0,0,0h0s.02-.02.04-.03c.09-.06.17-.13.22-.17.19-.15.3-.45.35-.48.08-.11.16-.19.23-.26.07-.07.13-.13.16-.15h0c-.11.01-.2,0-.29,0,0,0,0-.01.01-.01l.02-.02-.11-.17c.15-.1.38-.15.66-.21.41-.09.92-.19,1.25-.49.33-.3.35-.69.36-.91l.05-.58.43.5.1.12h0c.06-.06.81.05,1.07.01.22-.03.04-.35.28-.5.1-.06.2-.11.3-.17.2-.05.42-.1.62-.16.02,0,.04-.01.07-.02.21-.05.43-.11.63-.16.43-.11.8-.21,1.08-.3.3-.05.59-.11.85-.19.32-.09.36-.43.39-.45v-.02s-.07-.1-.07-.1c.04-.08.06-.15.07-.16l-.1-.17h.06c.13,0,.29,0,.42,0h.18c-.03.06-.06.12-.08.17-.03.12-.02.21,0,.28-.14.68.51.47,1.07.46.02,0,.05,0,.07,0,.09.03.19.08.29.12.18.07.37.15.57.23.01,0,.02,0,.04.01,0,0,.02,0,.02,0,.1.04.21.08.31.11.03.01.07.02.1.03.1.03.19.06.28.08.04,0,.08.02.11.03.09.02.17.03.25.04.04,0,.08.01.11.02.08,0,.15,0,.22,0,.03,0,.06,0,.09,0,.09-.02.17-.05.23-.09,0,0,0,0,0,0,0,0,0,0,0,0,.04-.03.08-.07.12-.12.01-.01.03-.02.04-.04.02-.02.03-.05.05-.07.04-.05.07-.1.11-.16.02-.03.04-.06.06-.09.04-.06.07-.12.11-.18.07-.12.14-.25.21-.37.36-.37.71-.72.82-.86.11-.12.21-.27.31-.43.1-.08.2-.16.3-.24.02-.02.05-.04.07-.06.5-.39,1.05-.79,1.42-1.08.02-.02.04-.03.06-.05.08-.06.15-.12.2-.16.02-.02.05-.04.06-.05.06-.05.11-.1.13-.13,0,0,0,0,0,0h0c.04-.06.06-.13.08-.19,0-.02.02-.05.03-.07,0-.03.01-.05.02-.08.02-.08.03-.16.04-.24,0-.02,0-.03,0-.05,0-.09.01-.19.01-.27,0-.1,0-.19,0-.26.06-.2.12-.28.18-.31.03,0,.07,0,.12,0,.16.04.35.22.62.17.05,0,.16-.08.28-.17.15,0,.29-.03.41-.06.33-.1,2.15-.81,2.25-.88.07-.06.1-.12.12-.2,0-.02,0-.04.01-.06,0-.06,0-.12,0-.19,0-.02,0-.04-.01-.06-.05-.19-.15-.4-.28-.61,0-.05.01-.08.01-.14h0s-.02-.01-.03-.02c.01-.08.03-.16.03-.25-.07-.07-.16-.08-.24-.24-.08-.01-.15-.03-.21-.04-.05-.08-.1-.16-.14-.23-.02-.03-.03-.05-.04-.08-.03-.05-.05-.11-.07-.16-.01-.03-.02-.05-.03-.08-.01-.04-.02-.09-.03-.13,0-.03,0-.05,0-.07,0-.04.01-.07.02-.1,0-.02.02-.04.03-.06.02-.03.05-.05.09-.07.02-.01.04-.03.07-.04.05-.02.11-.03.18-.04.03,0,.06-.01.1-.01.12,0,.25,0,.42.01-.02-.03-.03-.06-.04-.09-.02-.05-.04-.09-.07-.13h.04s.06.12.06.12c.16.32.42.98.64,1.56.12.3.25.64.29.75.19.06.72.13.93-.04.03-.03.12-.1.05-.38-.58-2.28-3.46-8.32-4.67-10.61-.03-.05-.06-.11-.09-.16l.41-.21s.03.06.04.08c0,0,0,0,0,0,.06.12.12.22.19.31.02.02.04.04.05.06.05.07.11.13.17.19h0s.04.03.05.05c.07.06.13.12.2.17h0s0,0,.01,0c.38.27.8.44,1.13.74,1.4,1.54,3.42,4.17,5.45,6.21,1.22,1.23,2.45,2.25,3.56,2.7.3.12.87.26,1.27.15.11,0,.22-.01.33-.03.02,0,.04,0,.07,0,.44-.42-1.79-3.63-2.18-4.3l-.34-.42-.16-.2c-.04-.07-.08-.15-.11-.22-.03,0-.05,0-.08,0h0l-6.22-7.6c-.24-1.08.04-1.21.56-1.19.23,0,.51.05.81.05.23,0,.47-.02.71-.09,1.75-.51,1.93-2.95,1.73-4.49-.17-1.26-.99-2.35-1.32-3.56-.05-.17-.09-.35-.11-.53l.59-.12c.49.04.97,0,1.29-.27l.29-.06.22-.05c.1-.1.11-2.11.06-2.97-.01-.2-.02-.33-.04-.37-.05-.33.19-.43.48-.48.05,0,.11,0,.16,0,.15.14.29.26.4.32.26.14.45.14.73.11,0-.29.13-.52.26-.76h0c.94-1.05.11-4.19-.1-5.63,0-.01,0-.03,0-.04-.01-.09-.02-.18-.03-.25,0-.03,0-.05,0-.08,0-.07,0-.12,0-.17,0-.02,0-.04,0-.06,0-.06.02-.1.05-.12.02-.02.07-.03.13-.05.04-.01.08-.02.13-.04.17.08.41.09.77-.1.1-.05.22-.14.33-.24.09-.04.19-.08.27-.13,0,0,.02,0,.02-.01.09-.05.17-.11.24-.17,1.88-1.63,1.41-5.21,1.44-7.44,0,0,0,0,0,0,.05-.05.11-.07.19-.08.02,0,.05,0,.07,0,.06,0,.13,0,.2.02.03,0,.06.01.09.02.08.02.18.05.27.09.02,0,.05.02.07.03.12.05.25.11.39.18,1.16.73,2.29,1.54,3.59,1.98.21.07.39.14.53.14h0c.13.02.26.04.36.02l-.15-.22c.01-.07.01-.15,0-.26.01-.08.02-.18,0-.32-.03-.02-.47-.45-.48-.48h-.23l-.25-.38s0-.07,0-.1c-.02,0-.06-.03-.09-.04l-.72-1.07h1.09c.58.14.93.25,1.19,0h.2s.4,0,.4,0c.2-1.91.54-4.04,1.08-5.88.71-2.39,2.07-3.73,1.79-6.35-.21-1.97-1.74-4.75-1.45-6.7,0-.05.03-.09.07-.13.32-.22.76-.21,1.24-.42,0-.05-.01-.12-.02-.18.07-.07.14-.15.17-.25.03-.11.04-.21.04-.31,0-.03,0-.06,0-.1,0-.07-.01-.13-.03-.2,0-.04-.02-.07-.03-.11-.02-.06-.05-.12-.08-.18-.02-.04-.03-.07-.05-.11-.04-.06-.08-.13-.13-.19-.02-.03-.04-.06-.06-.08-.07-.08-.14-.17-.22-.25-.04-.05-.09-.1-.14-.14-.04-.04-.08-.08-.12-.12-.07-.06-.13-.13-.2-.19,0,0,0,0-.01-.01-.03-.08-.06-.15-.07-.24-.01,0-.05-.13-.24-.24-.21-.12-.41-.27-.61-.4-.23-.24-.43-.5-.6-.77-.03-.05-.06-.1-.09-.15-.03-.06-.06-.12-.08-.18-.03-.07-.06-.13-.08-.2-.02-.06-.04-.12-.05-.18-.02-.08-.04-.16-.05-.24,0-.06-.02-.12-.02-.18,0-.09,0-.19,0-.29,0-.05,0-.1,0-.16.02-.15.05-.31.1-.48,0,0,0,0,0,0,.05-.16.14-.31.28-.44.12-.12.27-.23.44-.33.35-.2.8-.37,1.3-.51.25-.07.51-.13.78-.19,1.08-.22,2.27-.32,3.19-.32.48,0,.89.02,1.17.07l-.07-1.61-3.99-9.93h0s0,0,0,0c-.07-.1-.15-.18-.25-.24-.3-.19-.71-.21-1.15-.21-.1,0-.2,0-.29,0-.22,0-.44,0-.66-.02-.16-.01-.31-.04-.45-.08-.09-.03-.17-.07-.24-.11,0-.05,0-.09,0-.11-.01-.03-.45-.47-.48-.48-.05-.12-.08-.24-.1-.39-.25-1.89,1.22-2.3,1.4-3.45.12-.76-1.7-4.2-1.86-5.7-.18-1.72.62-1.64.89-2.47.16-.52-.02-1.49.08-1.6.01-.01.06-.02.11-.03.01,0,.02,0,.04,0,.06,0,.14,0,.24-.01.02,0,.04,0,.06,0,.02,0,.05,0,.07,0v.02s0-.02,0-.02c.08,0,.16,0,.25,0,.01,0,.03,0,.04,0,.15,0,.32,0,.49,0,.14,0,.28,0,.43,0,.49.01.92.02,1.11,0,1.14-.16,2.71-.99,3.93-1.34.37-.06.82-.04,1.23-.08h0s0,0,.01,0c.09-.01.18-.03.27-.05,0,0,.01,0,.02,0,.02,0,.04,0,.06-.01v.03s0-.03,0-.03c0,0,0,0,0,0,.08-.02.15-.05.21-.09.03-.01.06-.03.09-.04.06-.04.12-.09.17-.15.02-.02.05-.04.07-.07.06-.08.11-.19.15-.31h0s0,0,0,0c0-.03.02-.07.02-.12h0s0-.03,0-.04c0-.04.01-.09.02-.14,0-.02,0-.04,0-.06,0-.05,0-.11.01-.17,0-.02,0-.04,0-.06.02-.26.03-.57.03-.88h0s0,0,0-.01c0-.03,0-.05,0-.08,0-.08,0-.16,0-.23,0-.11,0-.22,0-.32.02-.06.03-.11.02-.16h0s0,0,0,0c0,0-.01-.02-.02-.03,0-.03,0-.05,0-.07.02-.06.03-.12.02-.17,0-.02-.02-.03-.03-.04,0,0,0,0,0,0,0-.02,0-.03,0-.05,0-.07,0-.14-.01-.19,0,0,0,0,0-.01,0,0,0-.01,0-.02,0-.03,0-.05,0-.08,0-.01,0-.04,0-.05,0-.01,0-.02,0-.03,0-.04-.01-.06-.02-.07-.02-.02-.08-.03-.17-.03-.05,0-.1,0-.16,0-.25,0-.61.01-1.01.01-.6,0-1.29-.04-1.81-.19-.17-.05-.33-.12-.45-.2-.06-.04-.12-.09-.17-.14-.21-.23.02-.73-.06-.88,0,0,0,0,0,0-.02-.03-.07-.08-.13-.13,0,0,0,0-.01-.01,0-.02,0-.03,0-.05-.02-.03-.04-.05-.06-.07l.07-.04c.07-.04.14-.08.22-.13.2-.13.41-.26.63-.28.08,0,.16-.01.24-.01,0,0,0,0,0,0,.01.01.03.03.04.04,0,.07,0,.13-.02.2.18-.02.37-.03.57-.03h0c.16.02.32.03.5.02.13,0,.26.02.39.02.47.03.89.04,1.17-.06h0s.07,0,.09,0h0s-.01-.03-.01-.03c.05-.03.09-.07.12-.11.01-.02.04-.02.05-.04,0-.01.02-.03.02-.04.04-.07.06-.15.06-.24,0,0,0,0,0,0,0-.1-.03-.22-.07-.35,0,0,0,0,0,0,0-.03-.02-.07-.03-.1-.05-.14-.12-.3-.21-.49-.88-1.67-6.07-3.93-7.94-5.02-.65-.38-1.37-.48-1.44-1.29-.01-.12,0-.25,0-.39l-.16-.04s.01-.09,0-.14c0,0,0,0,0,0v-.05h4.06c.09-.37.08-.64-.02-.8-.13-.21-.45-.28-.79-.35-.36-.08-.77-.16-1.04-.46-.22-.25-.17-.62-.15-.84,0-.01,0-.02,0-.03.03-.03.06-.06.09-.08,0,0,0,0,0,0,.02-.01.04-.02.06-.03.07-.04.14-.07.21-.11.06.02.1.04.12.05.02-.02.05-.02.07-.04.09-.06.18-.11.27-.15.02,0,.03-.01.05-.02.01,0,.02,0,.04-.01.1-.04.21-.07.31-.1,0,0,.02,0,.02,0h0c.56-.14,1.16-.14,1.62-.42h0s.06,0,.09,0h0s0-.03,0-.05c.06-.04.12-.09.18-.15,0,0,0,0,0,0h0c.08-.07.15-.16.21-.26h0s0,0,0,0l-.81-3.84c-.08-.4-.14-.67-.14-.67l2,.18h0c0-.07,0-.14,0-.21h.38s0,0,0,0c-.27-1.05.39-2.07,1.01-2.94.45-.63.89-1.18.94-1.6.02-.16.03-.32.02-.48-.1-2.4-3.09-4.85-2.95-7.7.01-.25.01-.47.01-.7.02-.07.05-.14.06-.21,0-.05.01-.1.01-.17,0-.06,0-.12,0-.19h0c.02-.29-.06-.78-.17-1.32,0-.07-.01-.13-.02-.2-.02-.14-.04-.27-.06-.41-.02-.1-.04-.21-.05-.31-.11-.61-.24-1.21-.37-1.86,0-.05-.02-.1-.03-.15-.04-.22-.08-.46-.12-.7-.01-.08-.03-.16-.04-.24-.05-.31-.09-.63-.13-.98-.05,0-.1,0-.15,0,0-.02,0-.04,0-.06l-.1.06s-.07.01-.11.02c-.04,0-.07,0-.11,0-.03-.3,0-.81.02-1.35.02-.45.05-1.1.01-1.32-.3-.12-1.33-.45-1.46-.46h0c-.31,0-.53.2-.77.43-.19.18-.39.37-.66.47-.3.11-.59.1-.82.08h-.09c0-.23-.07-.49-.13-.77,0-.07,0-.15.02-.22.02-.12.06-.24.11-.35,0-.02.02-.05.03-.07.05-.11.1-.22.16-.33.12,0,.27.04.32.01h0c.1-.05.14-.55.3-.68.11-.09.4.04.44-.18h0c.02-.14.02-.3.01-.47,0,0,0,0,0,0,0-.11,0-.23,0-.35.03-.06.05-.12.07-.17,0-.01,0-.02,0-.03.02-.06.02-.12.01-.18-.09-.52-1-1.78-1.29-2.57-.04-.1-.06-.18-.09-.27-.08-.29-.17-.57-.16-.88-.03,0-.05,0-.08,0-.02-.1-.05-.21-.07-.29-.01-.05-.02-.08-.02-.11-.02-.1-.04-.21-.06-.3,0-.02,0-.04,0-.06.02-.1,0-.23,0-.36,0-.02,0-.05,0-.06-.02-.1-.02-.2,0-.27h-.36c-.05-.06-.11-.13-.18-.2-.08-.08-.18-.17-.29-.27-.02-.02-.05-.04-.07-.06-.12-.1-.25-.21-.4-.34-.07-.06-.14-.15-.21-.26-.03-.06-.06-.13-.09-.19-.04-.08-.08-.15-.11-.24,0-.02-.02-.04-.03-.06-.06-.14-.12-.3-.17-.46-.02-.05-.03-.09-.05-.14-.05-.15-.09-.3-.14-.46-.02-.06-.03-.12-.05-.18,0-.17,0-.34-.02-.52,0-.06,0-.13,0-.19-.02-.09-.01-.18,0-.27h-.22c-.03-.13-.05-.26-.07-.38-.02-.1-.03-.19-.04-.28,0-.05-.01-.1-.02-.14-.01-.13-.02-.25-.01-.33,0-.09.03-.19.04-.28h.16c.08,0,.15,0,.15,0h0c0-.06,0-.16,0-.27,0-.12,0-.36,0-.58,0-.06,0-.1.01-.11.07-.18.15-.33.23-.48,0,0,.14,0,.21,0h.04c.03-.18.11-.66.24-.72v-.07c.09-.12.18-.25.27-.37,0-.01.02-.02.03-.04h.19c.01-.08-.02-.23,0-.24,0-.02.01-.03.02-.04.1-.14.21-.28.32-.42.01-.02.14-.02.14-.02.05-.14.67-1.02.78-1.15.11-.13.74-.46.86-.56.02-.01.03-.06.03-.12,0-.02,0-.04,0-.06,0-.05,0-.11,0-.17,0-.08,0-.16,0-.25,0-.03,0-.05,0-.08,0-.03,0-.06,0-.09,0,0,0-.01,0-.02,0-.14,0-.28,0-.44,0-.02.01-.04.02-.06.04-.13.08-.26.11-.39.01-.05.02-.11.03-.16.02-.11.03-.22.04-.33,0-.05,0-.1,0-.15,0-.16,0-.32-.03-.48h0s0,0,0,0c0,0,0,0,0,0,0-.05-.04-.09-.07-.12l.02-.02h0s-.02.02-.02.02c0,0,0,0,0,0,0,0,0,0,0,0-.01-.01-.03-.02-.04-.02-.03-.02-.06-.04-.1-.05-.02,0-.03,0-.05-.01-.13-.02-.27-.03-.4-.05-.01,0-.02,0-.04,0-.04,0-.09-.02-.12-.04-.01,0-.02-.02-.03-.03-.07-.05-.12-.12-.13-.23.04-.09.08-.14.1-.19.08-.21.22-.44.24-.48.14-.4.16-.82.24-1.2.01-.06.02-.13.03-.19.08-.24.16-.45.24-.65,0-.02.02-.04.02-.06.08-.2.16-.39.23-.54,0,0,.19,0,.19,0,.02-.08-.03-.22,0-.24v-.1c.09-.13.18-.26.28-.38,0,0,.2,0,.2,0,0-.02.22-.07.35-.25.55-.76,1.04-1.44,1.5-2.3.1-.19.2-.37.3-.57.07-.15.14-.31.22-.46.56-.64,1.04-1.39,1.26-1.89.27-.61.28-1,.29-1.42,0-.05,0-.1,0-.15.04-.09.08-.17.11-.26.13-.13.27-.25.42-.36.04-.19.08-.36.11-.51,0-.02,0-.04.01-.05.04-.14.07-.28.11-.4.15-.22.28-.39.32-.5.03-.06.02-.18,0-.3.25-.43.5-.55.67-.69.01,0,.02-.02.03-.03.01-.01.02-.02.04-.03.02-.02.03-.04.05-.05,0,0,.02-.02.02-.03.02-.03.04-.07.06-.11.28-.69.46-1.64.63-2.53.1-.54.2-1.05.32-1.49-.15-.14-.25-.31-.34-.47,1.23-4.26,2.67-7.48,4.19-10.88.71-1.58,1.44-3.22,2.19-5.04.44-1.08.79-2.28,1.12-3.44.37-1.28.75-2.6,1.26-3.78.27-.62.63-1.18.97-1.72.53-.83,1.03-1.6,1.18-2.54l.05-.29,1.44.48.99-6.2.06-.06c1.61-1.63,1.83-4.13,2.04-6.54.06-.67.12-1.37.21-2.03l.07-.51c1.5-10.84,2.93-21.08-.17-31.9ZM333.03,110.07c.02-.6.1-1.03.21-1.43.18-.66.45-1.21.68-2.2.05-.2.07-.41.07-.63.01-.43-.03-.87-.04-1.26,0-.19,0-.37.03-.53.03-.11.06-.21.09-.32.04-.1.11-.23.18-.38.05-.1.1-.2.15-.31.23-.46.51-1.02.73-1.45.13-.26.24-.46.3-.57.17-.31.34-.53.52-.71.08-.04.16-.09.2-.18h0c.57-1.53,1.64-2.13,2.32-4.06.28-.81.79-.87,1.19-1.46.42-.62.74-1.49,1.04-2.13.14-.1.3-.13.47-.1,0,0,0-.47,0-.47.38-.15.45-.59.53-.66.15-.15.63-.2.67-.3,1.3.11,1.93-.5,2.99-.91,1.16-.45,2.48-.52,3.67-.89,1.03-.33,2.1-1.19,3.18-1.31l.24,1.3c-.21.55-1.04.27-1.18.39-.02.02-.03.04-.03.07s0,.07,0,.11c0,.05.01.11.02.15,0,.05,0,.09,0,.13,0,.02-.22.23-.24.24l-.04.32c-.09.06-.19.18-.28.33-.01.02-.02.04-.04.06-.99,1.64-1.89,3.3-2.88,4.94-.42.7-.83,1.4-1.16,2.08-.02.04-.04.08-.05.12-.19.6-.65,1.3-.94,1.89-.02.04-.03.08-.05.12-.02.04-.03.08-.05.13-.09.26-.16.45-.23.6-.03.07-.07.14-.1.19-.17.28-.39.38-.96.79-.56.41-.97.97-1.56,1.25-.1.05-.2.09-.31.11h0s0,.08,0,.12c0,.04.01.08,0,.12,0,.02-.01.04-.02.06-.31.96-1.04,1.77-1.22,2.76,0,.02,0,.04,0,.06-.4-.06-.46.08-.45.29,0,0,0,0,0,0,0,.02,0,.04,0,.07,0,.05.01.1.02.15,0,.02,0,.04,0,.06,0,.04,0,.07,0,.11,0,.02,0,.05,0,.07,0,.03,0,.06,0,.09,0,0,0,0,0,.01,0,0,0,0,0,.01,0,.01,0,.02,0,.03-.04.21-.1.42-.16.62-.3.92-.75,1.71-.56,2.78h0s0,.02,0,.03c-.21-.09-.45-.14-.68-.15,0,0-.01,0-.02,0-.07,0-.14,0-.2.01-.01,0-.03,0-.04.01-.06.01-.12.02-.17.04-.02,0-.04.02-.07.04-.04.02-.08.04-.12.06-.03.02-.05.04-.07.07-.03.03-.06.05-.09.08-.03.03-.05.08-.07.12-.02.03-.03.05-.05.08-.27.06-.52.13-.71.21-1.02.41-1.57,1.9-2.74,1.92-.1,0-.2,0-.31-.03-.16-.03-.33-.09-.52-.17-.19-.09-.38-.21-.6-.36.04-.07-.23-.46-.38-.84-.05-.13-.09-.25-.09-.36-.01-.17-.02-.33-.02-.48,0-.28,0-.53,0-.76Z"/>
  </g>
  <g>
    <path class="cls-2" d="M3.04,11.7v-1.36h4.13v1.36H3.04Z"/>
    <path class="cls-2" d="M12.35,15.76c-.77,0-1.44-.23-1.99-.7-.56-.46-.99-1.14-1.29-2.03-.3-.89-.45-1.98-.45-3.27s.15-2.37.45-3.25c.3-.87.73-1.54,1.29-1.98.56-.45,1.22-.67,1.99-.67s1.42.22,1.97.67c.55.45.98,1.11,1.28,1.98.3.88.45,1.96.45,3.25s-.15,2.38-.45,3.27c-.3.89-.73,1.57-1.28,2.03-.55.46-1.21.7-1.97.7ZM12.35,14.29c.39,0,.73-.15,1.03-.45.3-.3.54-.78.7-1.44.17-.66.25-1.54.25-2.64s-.08-1.97-.25-2.62c-.17-.65-.4-1.11-.7-1.4-.3-.29-.65-.43-1.03-.43s-.73.14-1.03.43c-.3.29-.54.75-.71,1.4s-.26,1.52-.26,2.62.09,1.98.26,2.64c.17.66.41,1.14.71,1.44.3.3.65.45,1.03.45Z"/>
    <path class="cls-2" d="M22.09,15.54v-7.36c0-.32.01-.71.03-1.16.02-.45.04-.83.05-1.14h-.06c-.15.28-.29.56-.45.84-.15.28-.31.57-.48.87l-2.25,3.49h6.3v1.44h-8.13v-1.25l4.58-7.18h2.09v11.46h-1.69Z"/>
  </g>
</svg>