<?xml version="1.0" encoding="UTF-8"?>
<svg id="a4" xmlns="http://www.w3.org/2000/svg" viewBox="0 0 600 500">
  <defs>
    <style>
      .a4 {
        fill: #5d4c39;
      }

      .cls-2 {
        fill: #c9caca;
      }
    </style>
  </defs>
  <g>
    <polygon class="a4" points="192.47 390.87 192.47 390.87 192.47 390.87 192.47 390.87"/>
    <polygon class="a4" points="149.47 353.02 149.47 353.02 149.47 353.02 149.47 353.02"/>
    <polygon class="a4" points="140.91 320.43 140.91 320.43 140.92 320.42 140.91 320.43"/>
    <path class="a4" d="M457.53,350.26c1.02-2.52,2.35-4.85,2.04-7.55-.1-.86-.62-1.99-.71-2.89-.08-.8.24-1.86-.25-2.51.05-.79.58-1.82.59-2.61,0-.48,0-.96,0-1.44-.08-.01-.14-.02-.19-.02.16-.85.37-1.64.66-2.33l-.71-.57c0-.07,0-.15,0-.2,0-.1-.22-.35-.23-.6-.06-1.08.1-1.99-.72-2.89-.18-.2-.42-.31-.65-.46-.14-.12-.27-.23-.41-.35,0-.01-.02-.02-.03-.03-.22-.3-.68-1.45-.58-1.76.07-.25.53-.4.45-.73-.44-.32-.41-.9-.69-1.24-.07-.09-.17-.16-.27-.22-.49-.68-1.19-1.41-1.6-1.49-.02-.03-.04-.05-.07-.08,0,0,0,.01-.01.02.22-6.04-2.65-11.93-5.83-16.93-6.8-10.67-17.85-15.21-25.11-24.81-9.28-12.27-18.88-24.28-28.57-36.23-3.68-4.54-13.22-14.25-13.92-19.68-.21-1.65.13-3.56-.02-5.26-.39-4.34-2.44-9.28-2.86-13.46-.52-5.24-.22-10.56-2.03-15.73-.93-2.64-2.43-2.01-3.19-2.81-.27-.29-.9-1.85-.21-1.92.1,0,.22.01.38.07.35.13,1.47,1.07,2.14,1.04.3-.01.51-.22.5-.8-.58-.87-4.17-4.34-4.31-4.84-.2-.69,1.05-1.07.92-1.82-.13-.77-3.07-3.94-3.81-4.38-.75-.44-2.75-.64-2.86-.74-.12-.11-.12-1.95-.01-3.33.04-.44.08-.83.13-1.12.03-.16.06-.28.1-.35.63-1.24,2.35-1.41,3.6-1.42.38,0,.71,0,.96,0,.25,0,.42,0,.47-.05.17-.16-.07-.74.02-.92,0,0,0-.01-.01-.02,0-.02,0-.05.01-.08.05-.1.13-.14.48-.31.42-.21,1.54-.75,1.59-1.13,0-.02.01-.08-.09-.18-.18-.08-1.46-.03-2.59.01-2.48.09-5.58.2-6.51-.48l-.18-.13,1.81-3.16c-.25,0-.5-.01-.75-.03-.5-.02-.97-.05-1.41.02-.49.07-.92.26-1.33.44-1,.43-1.93.84-3-.8l-.18-.28,5.06-1.52c1.34-1.15,1.34-1.58,1.3-1.68-.08-.27-.85-.34-1.31-.38-.51-.05-.79-.08-.94-.23-.12-.12-.16-.29-.21-.5-.09-.4-.18-.69-.51-.79-.39-.12-1.49-.06-2.37-.02-1.38.07-1.66.07-1.79-.12-.13-.18-.1-.45-.06-.79.02-.18.06-.52.02-.6-.22-.27-1.04-.31-1.76-.36-1-.06-1.95-.12-2.31-.66-.21-.32-.07-.71.08-1.08.1-.26.21-.53.18-.76l-3.86-.48-.03-.19c-.11-.78-.12-1.06.43-1.19.09-.02.2-.05.34-.11,1.3-.57,3.16-1.44,4.28-2.36.11-.09.22-.17.33-.24.31-.21.46-.31.42-.67-.85.06-1.74.16-2.67.26-2.37.26-4.82.52-7.01.22-1.19-.17-1.26-.85-1.3-1.27-.01-.12-.02-.24-.06-.29l-.13-.18.16-.15c.33-.32.68-.61,1.03-.88.58-.47,1.13-.92,1.57-1.5.47-.63,3.49-6.38,3.59-6.84.03-.39-.14-1.05-.32-1.74-.19-.74-.39-1.5-.4-2.14l-3.1-.95-1.51-9.5v-.03c.24-2.29.13-4.8.02-7.47-.19-4.44-.38-9.03,1.08-12.68.2-.51.4-.98.58-1.44,1.63-3.99,2.62-6.4,2.2-11.52-.13-1.57-.7-4.03-1.54-4.32-.14-.05-.26-.05-.35,0-.26.14-.37.65-.44.96-.04.2-.07.32-.14.4-.07.08-.25.22-.59.15-.42-.08-1.08-.48-1.23-1-.28-.95-.24-8.46-.07-9.67.12-.85.86-1.48,1.58-2.08.45-.38.88-.74,1.1-1.12,1.14-1.89.38-3.53-.43-5.26-.24-.51-.48-1.04-.68-1.58-.17-.47-.24-.93-.3-1.33-.07-.48-.12-.86-.32-.98-.18-.11-.56-.07-1.11.13-1.34.48-7.6,4.39-7.92,5.23-.04.11-.04.21-.04.34,0,.09,0,.17,0,.26l-.03.25-.25-.03c-.95-.09-1.77.56-2.58,1.2-.2.16-.4.31-.59.46-3.97,2.88-9.77,7.34-14.17,11.24-.66.58-1.06,1.35-1.33,1.85-.14.26-.23.44-.33.54-.05.05-.13.1-.23.14l-.17-.33c-.07.07-.24.13-.46.18-.67.16-1.83.23-2.24.3-.08.01-.13.02-.14.04-.03.03-.06.12-.09.25s-.07.29-.11.46c-.05.2-.12.4-.21.55-.73,1.16-1.52,2.29-2.33,3.4-.61.83-1.23,1.66-1.86,2.48-1.37,1.8-2.77,3.6-4.06,5.46-.48.68-.94,1.37-1.39,2.07-.97,1.53-3.75,5.88-3.91,7.37.17,0,.33-.02.49-.05v.08c-.06.43-.04.86-.01,1.32.02.45.05.91,0,1.36-.05.52-.36.74-.52.82v.07s-.19.02-.19.02c-.12.01-.23,0-.34,0-.34-.47-.71-.95-1.07-1.52-1.24-1.98-2.69-3.91-4.26-5.68-1.18-1.33-2.5-2.54-3.76-3.79-1.14-1.13-2.23-2.23-3.34-3.32-.65-1.3-2.05-2.17-2.47-2.99-.28-.54.06-1.3-.22-1.7-.21-.11-.42-.24-.63-.35,0-.03-.01-.06-.03-.07-.03-.03-.22-.11-.48-.21-1.39-.8-2.73-1.69-4.11-2.51-.26-.15-.44-.35-.7-.43-.24-.19-.48-.38-.71-.57-.1-.26-.34-.48-.55-.65-.59-.47-1.33-.76-2.11-1-.88-.27-1.8-.47-2.59-.79-1.36-.54-2.72-1.12-4.07-1.71-1.91-.82-3.82-1.63-5.78-2.35-.18-.07-.35-.14-.53-.2-.29-.1-.57-.19-.83-.27-1.33-.39-2.39-.49-3.72-.57-.67-.11-1.32-.19-1.9-.26-.16-.04-.32-.08-.55-.06-.01,0-.03,0-.04,0-1.53.16-3.64,1.15-5.25,1.21-1.34.05-2.77-.06-4.09-.02-.78.02-1.54,0-2.29-.03-1.52-.07-3.01-.16-4.66.04-.3.04-.66.16-.97.33-.18.1-.34.22-.48.36l-.04-.02.03.03c-.08.08-.17.16-.22.26-.19.31-.24,1.42-.72,1.2,0,0,0,0,0,0-.12-.06-1.44-1.16-1.56-1.31-.46-.57-.46-1.23-.84-1.8-.25-.36-1.28-1.15-1.67-1.21-.14-.02-.3-.03-.47-.02-.15,0-.29.01-.45.02-.05,0-.11,0-.16,0-.26,0-.53.03-.8.04-.18,0-.35-.02-.5-.06-.34-.1-1.08-1.11-1.47-1.41-1.36-1.08-3.42-2.43-5-3.16-1.79-.83-3.22-1.48-4.96-2.48-1.71-.98-2.67-1.85-4.68-2.28-.97-.21-1.92-.36-2.86-.48-2.48-.42-4.63-.42-7.14-.69-5.26-.57-9.68-1.49-14.32-1.46-.23,0-.46.02-.69.03-.55-.01-1.09-.02-1.64-.02-.39,0-1.09-.16-1.3.22-.04,0-.07,0-.11.01-.28-.02-.6-.02-.87,0-.59.05-1,.21-1.39.39-.38.18-.72.39-1.18.52-.58.18-1.39.18-2.03.28-.09.01-.19.02-.28.04-.17.04-.33.08-.49.13-1.02.31-1.95.82-2.38,1.79-.07.17-.14.35-.18.55.07.17.12.35.17.53.24.89.3,1.83.73,2.64.06.11.12.21.19.31.13.18.94,1.03,1.07,1.09.37.18.72.05,1.05.15,1.88.55,4.54,3.12,6.69,4.29.14.08.29.17.42.23.16.08.32.16.48.24,1.11.56,2.02,1.35,3.05,1.87,1.9.95,4.14,1.48,6.06,2.58,3.32,1.91,6.58,4.22,9.84,6.24,1.98,1.22,2.11,1.13,3.5,2.98,1.79,2.38,3.45,4.29,5.12,6.88.47.73.77,1.93,1.56,2.45h0c-.09.33-.19.66-.27.99.12.01.26.01.42,0-.38,2.54.82,5.09,2.17,7.19.39.61,1.44,1.16,1.61,1.75.65,2.29.36,5.28.52,7.64.08,1.17.8,2.27.5,3.58-.7-.08-1.17-1.28-1.74-1.4-.59-.12-2.44.86-3.58.94-.16.01-.31,0-.44-.02.09,1.56,1.96,2.08,2.32,3.68.09.42.31,2.09-.16,2.08l-7.73-6.66c-.5-.07-.88-.12-1.17-.13-.87-.02-.97.32-1.41,1.51.12.19.22.38.32.57-.1.39-.16.79-.21,1.17-.16,1.15-.31,2.25-1.71,2.83l-.35.14v-7.81c0-1.12-1.93-7.19-2.61-8.79-.45-1.05-2.11-4.17-3.23-4.38-.17-.04-.32.01-.45.15-.2.2.03,1.19.19,1.92.25,1.12.51,2.28.07,2.86l-.16.2-.2-.16c-.76-.61-1.25-1.43-1.73-2.23-.3-.51-.59-.99-.94-1.41-.36-.44-.79-.83-1.25-1.25-.48-.44-.98-.89-1.39-1.4-.26-.32-.42-.69-.58-1.05-.2-.46-.41-.94-.83-1.33-.86-.78-3.54-1.53-4.78-.9l-.26.13-.33-1.05c-1.5-4.85-3.19-10.36-7.38-13.73-.8-.65-1.6-1.1-2.38-1.54-1.51-.86-2.94-1.67-4.01-3.74-.29-.57-.52-1.31-.75-2.02-.25-.79-.5-1.6-.83-2.15-.34-.57-1.14-1.28-1.91-1.96-.62-.54-1.25-1.1-1.67-1.61-.94-1.14-1.82-2.4-2.66-3.62-1.54-2.22-3.13-4.51-5.21-6.21-1.05-.86-5.93-3.89-6.97-3.89,0,0-.01,0-.02,0,.14.64-.29,1.24-.64,1.73-.17.24-.41.56-.37.67.06.21.4.49.73.76.62.51,1.4,1.16,1.18,2.04l-.04.17-.17.02c-.64.08-1.39.24-2.18.4-1.79.37-3.83.8-5.26.47-1.66-.37-4.45-2.78-5.08-4.38-.16-.41-.71-2.35-.72-2.75,0-.48.26-1.04.52-1.59.22-.47.46-.96.46-1.3,0-.29-.2-.53-.43-.8-.25-.3-.54-.63-.57-1.08-.9.14-1.42,1.02-1.88,1.81-.09.16-.19.32-.28.46l-.07.12h-.14c-.31,0-.43-.29-.53-.55-.11-.28-.25-.63-.62-.89-.5-.34-1.08-.41-1.68-.48-.54-.07-1.09-.13-1.61-.39-.35.81-.63,2.06-.9,3.28-.34,1.55-.66,3.01-1.16,3.73-.42.62-1.09.92-1.88.88-1.13-.07-2.38-.88-2.89-1.88-.15-.29-.17-.6-.2-.85-.01-.16-.03-.27-.05-.34-.88,1.07-1.21,2.43-1.56,3.86-.17.71-.35,1.44-.6,2.13-.17.46-.53.78-.7.93-.02.02-.03.03-.05.04l-.05.15-.2-.03c-.84-.12-2.19.76-3.16,1.62-.19.17-.32.43-.43.69-.14.29-.28.59-.54.78-.33.23-.79.39-1.27.55-.96.33-2.04.69-2.43,1.78-.39,2.09-.67,4.28-.94,6.39-.38,3.01-.78,6.12-1.52,9.12l-.06.26-.25-.08c-1.17-.37-1.16-1.35-1.16-2.21,0-.34,0-.69-.07-.99-.18-.76-1.13-4.28-1.3-4.57,0,.02-.14.02-.35.12-.29.14-.54.37-.6.57-.22.74-.14,2.05-.07,3.32.05.88.1,1.71.05,2.36l-.03.44c-.17,2.53-.37,5.19-.54,5.77-.09.31-.37.66-.76,1.15-.64.8-1.53,1.91-1.94,3.35-3.1,10.82-1.68,21.06-.17,31.9l.07.51c.09.66.15,1.36.21,2.03.21,2.41.43,4.91,2.04,6.54l.06.06.99,6.2,1.44-.48.05.29c.15.94.65,1.72,1.18,2.54.34.54.7,1.09.97,1.72.51,1.18.9,2.5,1.26,3.78.33,1.16.68,2.36,1.12,3.44.75,1.82,1.48,3.46,2.19,5.04,1.52,3.41,2.96,6.63,4.19,10.88-.09.16-.2.32-.34.47.32,1.15.5,2.91.95,4.02.02.04.04.08.06.11,0,.01.02.02.02.03.02.02.03.04.05.05.01.01.02.02.03.03.01,0,.02.02.03.03.18.14.42.25.67.69,0,0,0,0,0,0h0c-.01.12-.02.24,0,.3.05.1.18.27.32.5,0,0,0,0,0,0,.04.12.08.26.11.4,0,.02,0,.04.01.05.04.15.08.32.11.5,0,0,0,0,0,.01.16.1.29.23.42.36.04.09.08.17.11.26,0,.05,0,.1,0,.15.01.42.02.81.29,1.42.22.5.7,1.25,1.26,1.89.07.15.14.31.22.46.1.21.2.39.3.57.47.85.95,1.54,1.5,2.3.13.18.34.23.35.25h.2s0,0,0,0c0,0,0,0,0,0,.1.12.19.25.28.38,0,0,0,0,0,0h0s0,.1,0,.1c.03.02-.02.16,0,.24h.19s0,0,0,0c0,0,0,0,0,0,.07.15.15.33.23.54,0,.02.02.04.02.06.08.2.16.41.23.63,0,0,0,.01,0,.02,0,0,0,0,0,0,.01.06.02.13.03.19.08.38.1.8.24,1.2.02.04.16.27.24.48.02.05.06.1.1.18h0s0,0,0,.01c-.01.12-.06.19-.13.23-.01,0-.02.02-.03.03-.04.02-.08.03-.12.04-.01,0-.02,0-.04,0-.13.02-.28.03-.4.05-.02,0-.03,0-.05.01-.04.01-.07.03-.1.05-.01,0-.03.01-.04.02,0,0,0,0,0,.01l-.02-.02h0s.02.02.02.02c-.03.03-.06.07-.07.12,0,0,0,0,0,0,0,0,0,0,0,0-.03.16-.03.32-.03.48,0,.05,0,.1,0,.15,0,.11.02.22.04.33,0,.05.02.11.03.16.03.13.06.26.11.39,0,.03.02.06.02.08-.02.56-.03,1.16.04,1.21.12.09.75.43.86.56.12.13.73,1.01.78,1.15h.13s0,0,0,0v.02c.12.14.22.28.33.42,0,.01.01.02.02.03h0s-.01.17,0,.25h.19s0,0,0,0c0,.01.02.02.03.04.09.12.18.25.26.37,0,0,0,0,0,0h0s0,.07,0,.07c.13.06.21.54.24.72h.25c.08.15.16.3.23.45,0,0,0,0,0,0h0v.02s0,.74,0,.96h.31s0,0,0,0c.02.09.04.19.04.28,0,.08,0,.2-.01.33,0,.05,0,.09-.02.14-.01.09-.02.18-.04.28-.02.15-.05.31-.09.48-.01.06-.02.11-.03.17h-.16c.03.21.01.44,0,.67h0s0,0,0,0c-.02.07-.04.14-.06.21-.04.16-.09.31-.14.46-.02.05-.03.09-.05.14-.06.16-.11.32-.17.46,0,.02-.02.04-.03.06-.06.15-.13.29-.2.41,0,0,0,0-.01.02-.07.12-.14.21-.21.27-.15.13-.28.23-.4.34-.02.02-.05.04-.07.06-.11.1-.21.19-.29.27s-.15.16-.21.23c-.01.01-.02.03-.03.04-.05.07-.1.14-.14.2h-.16c.04.12,0,.3,0,.48,0,0,0,0,0,0-.02.09-.04.19-.06.3,0,.04-.01.06-.02.1,0,0,0,0,0,.01-.03.16-.07.34-.13.55,0,0,0,0,0,0,0,0-.01,0-.02,0,0,.05-.01.09-.01.14,0,0,0,0,0,0-.06.21-.14.46-.24.75-.29.8-1.21,2.06-1.3,2.57,0,.05,0,.11.01.18,0,0,0,.02,0,.03.02.06.04.13.08.2h0c-.02.28-.03.58,0,.8.03.22.32.08.43.18.15.13.2.62.3.68.05.03.2-.02.32-.01,0,0,0,0,0,0,.06.11.11.22.16.33.01.02.02.05.03.07.04.11.08.23.11.34,0,0,0,0,0,.01.02.11.03.21.03.32,0,.03,0,.06,0,.08,0,.11-.03.22-.07.33,0,0,0,0,0,0,0,0,0,0,0,0-.02.09-.03.16-.05.25h-.11c-.23.02-.52.04-.82-.07-.27-.1-.46-.29-.66-.47-.25-.23-.46-.43-.77-.43h0c-.13.02-1.17.34-1.46.46-.03.22,0,.87.01,1.32.02.54.05,1.05.02,1.35-.17-.02-.33-.03-.48-.01-.04.35-.08.67-.13.98-.01.08-.03.16-.04.24-.04.24-.08.47-.12.7,0,.05-.02.1-.03.15-.13.65-.26,1.25-.37,1.86-.02.1-.04.21-.05.31-.02.13-.04.27-.06.41-.02.14-.03.28-.05.42-.01.12-.03.23-.04.36,0,0,0,0,0,0-.09.47-.15.88-.11,1.1.01.07.04.14.06.21,0,0,0,0,0,0,0,.23,0,.45.01.7.15,3.03-3.27,5.63-2.93,8.18.13,1,2.41,2.74,1.95,4.54h.38c0,.07,0,.14,0,.22l2-.18-.95,4.51s0,0,0,0c.06.1.13.19.21.26.06.06.12.11.18.16,0,.02,0,.03,0,.05.03,0,.06,0,.09,0h0c.46.28,1.05.28,1.62.42.01,0,.02,0,.03,0,.1.03.21.06.31.1.03.01.06.02.09.03.12.05.23.11.34.19.01-.01.06-.03.12-.05.09.05.18.09.27.14.03.02.06.05.09.08,0,.01,0,.02,0,.03.03.22.08.59-.15.84-.27.3-.68.38-1.04.46-.34.07-.66.14-.79.35-.1.16-.1.43-.02.8h4.06l.02.19-.18.04c.02.15.02.28,0,.39-.08.81-.8.91-1.45,1.29-1.86,1.1-7.06,3.35-7.94,5.02-.1.19-.16.34-.21.49-.01.03-.02.07-.03.1-.04.13-.07.25-.07.35,0,0,0,0,0,0,0,.1.02.18.06.24,0,.01.02.03.02.04.04.06.1.11.17.15v.03s.05,0,.08,0h0c.28.1.7.09,1.17.06.13,0,.26-.02.39-.02.18,0,.34,0,.5-.02h0c.2,0,.39,0,.57.03-.02-.08-.02-.14-.02-.2.01-.01.03-.03.04-.04.08,0,.16,0,.24.01.21.03.42.16.63.28.07.04.15.09.22.13l.13.07c-.15.1-.25.18-.27.23-.08.15.16.66-.06.88-.05.05-.1.1-.17.14-.13.08-.28.15-.45.2-.52.16-1.21.19-1.81.19-.4,0-.77-.01-1.01-.01-.06,0-.12,0-.16,0-.09,0-.15.01-.17.03,0,0-.02.04-.02.07,0,0,0,.02,0,.03,0,.04-.01.08-.01.13,0,0,0,.02,0,.03-.01.14-.02.32-.02.52h0s-.02.02-.02.03c-.01.05,0,.1.02.16h0c0,.1,0,.2,0,.31h0c0,.11,0,.21,0,.32,0,0,0,0,0,.01,0,.31.02.62.03.88,0,.02,0,.04,0,.06,0,.06,0,.12.01.17,0,.02,0,.04,0,.06,0,.05.01.1.02.14,0,.01,0,.03,0,.04,0,.05.02.09.02.12,0,0,0,0,0,0,.04.12.09.22.15.31.02.03.05.04.07.07.05.05.1.11.17.15.03.02.06.03.09.04.07.03.14.07.21.09,0,0,0,0,0,0v.03s0-.03,0-.03c.02,0,.04,0,.06.01.09.02.19.04.29.05,0,0,0,0,.01,0,.41.05.86.03,1.23.08h0s0,0,0,0c1.23.35,2.79,1.18,3.93,1.34.19.03.62.02,1.11,0,.14,0,.29,0,.43,0,.17,0,.33,0,.49,0,.01,0,.03,0,.04,0,.09,0,.17,0,.25,0v.02s0-.02,0-.02c.02,0,.05,0,.07,0,.02,0,.04,0,.06,0,.1,0,.18,0,.24.01.01,0,.02,0,.04,0,.06,0,.1.02.11.03.09.11-.09,1.08.08,1.6.26.83,1.06.74.89,2.47-.15,1.5-1.97,4.94-1.86,5.7.18,1.15,1.64,1.56,1.4,3.45-.09.67-.41.96-.83,1.1-.14.04-.29.07-.45.08-.21.02-.43.02-.66.02-.1,0-.2,0-.29,0-.58,0-1.12.04-1.4.45l-3.99,9.93-.07,1.61c.27-.05.68-.07,1.17-.07.92,0,2.11.11,3.19.32.27.05.53.12.78.19.5.14.95.31,1.3.51.17.1.32.21.44.33.14.14.23.28.28.44.86,2.91-3.37,3.86-2.83,5.71.03.1.09.18.17.25,0,.07,0,.13-.02.18.48.22.92.21,1.24.42h0s.06.08.07.13c.29,1.96-1.24,4.73-1.45,6.7-.28,2.62,1.08,3.96,1.79,6.35.54,1.84.89,3.97,1.08,5.88h.4s.2,0,.2,0c.26.25.61.15,1.18,0h1.09s-1.24,1.87-1.24,1.87h-.04s-.45.46-.48.48c-.02.14-.02.24,0,.31l-.15.22c.1.02.23,0,.36-.02h0c.14,0,.32-.07.53-.14,1.3-.44,2.43-1.25,3.59-1.98.14-.07.27-.13.39-.18.02-.01.05-.02.07-.03.1-.04.19-.07.27-.09.03,0,.06-.02.09-.02.07-.02.14-.02.2-.02.02,0,.05,0,.07,0,.07.01.14.03.19.08,0,0,0,0,0,0,.03,2.23-.44,5.81,1.44,7.44.07.06.15.12.24.17,0,0,.02,0,.02.01.09.05.18.09.27.13.12.1.23.18.33.24.37.19.61.18.77.1.05.01.09.03.13.04.07.02.12.04.13.05.02.02.04.07.05.12,0,.02,0,.04,0,.06,0,.05,0,.1,0,.17,0,.02,0,.05,0,.08,0,.08-.02.16-.03.25,0,.01,0,.03,0,.04-.21,1.45-1.04,4.59-.1,5.63h0c.13.24.27.48.26.76.28.03.47.02.73-.11.11-.06.25-.18.4-.32.05,0,.11,0,.16,0,.29.05.53.15.48.48-.02.04-.03.17-.04.37-.04.85-.03,2.87.06,2.97l.22.05.29.06c.32.26.8.31,1.29.27l.59.12c-.02.18-.06.35-.11.53-.34,1.21-1.16,2.3-1.32,3.56-.2,1.54-.02,3.98,1.73,4.49.24.07.48.09.71.09.3,0,.58-.04.81-.05.52-.02.8.12.56,1.19l-6.91,8.45c-.39.67-2.62,3.88-2.18,4.3.02,0,.05,0,.07,0,.11.02.22.03.33.03.4.12.98-.02,1.27-.15,2.95-1.21,6.76-6.45,9-8.92.34-.3.76-.47,1.13-.74,0,0,0,0,.01,0,.07-.05.14-.11.2-.17.02-.02.04-.03.05-.05.06-.06.11-.12.17-.19.02-.02.04-.04.05-.06.07-.09.13-.2.19-.31,0,0,0,0,0,0,0-.02.03-.05.04-.08l.41.21c-.03.06-.06.11-.09.16-1.21,2.29-4.09,8.34-4.67,10.61-.07.28.02.35.05.38.2.17.74.1.93.04.05-.11.18-.45.29-.75.23-.58.48-1.25.64-1.56l.06-.12h.04c-.04.07-.07.15-.11.22.17-.02.3-.02.42-.01.04,0,.07,0,.1.01.07,0,.13.02.18.04.03.01.05.02.07.04.04.02.07.04.09.07.01.02.02.04.03.06.01.03.02.06.02.1,0,.02,0,.05,0,.07,0,.04-.02.08-.03.13,0,.03-.01.05-.03.08-.02.05-.05.1-.07.16-.01.03-.02.05-.04.08-.04.08-.09.16-.15.25-.06.1-.13.2-.19.3,0,0,0,0-.01,0-.08.16-.17.17-.24.24,0,.05.01.09.01.14-.13.22-.23.42-.28.61,0,.02,0,.04-.01.06-.01.07-.01.13,0,.19,0,.02,0,.04.01.06.02.07.06.14.12.2.09.08,1.92.78,2.25.88.12.04.26.05.41.06.13.09.23.16.28.17.27.05.46-.13.62-.17.04,0,.08,0,.12,0,.06.03.12.11.18.28h0s0,.02,0,.03c0,.08,0,.17,0,.26,0,.09,0,.18.01.27,0,.02,0,.03,0,.05,0,.08.02.16.04.24,0,.03.01.05.02.08.03.09.06.18.11.26,0,0,0,0,0,0,.02.03.07.07.13.13.02.02.04.04.06.05.06.05.13.1.21.16.02.02.04.03.06.05.38.29.92.69,1.42,1.08.03.02.05.04.07.06.1.08.2.16.3.24,0,0,0,0,0,0,0,0,0,0,0,0,.1.16.2.3.31.43.12.13.46.49.82.85h0s0,0,0,0c.07.13.15.25.21.37.04.06.07.12.11.18.02.03.04.06.06.09.04.06.07.11.11.16.02.02.03.05.05.07.05.06.1.12.15.16,0,0,0,0,0,0,.06.05.14.08.23.09.03,0,.06,0,.09,0,.07,0,.14.01.22,0,.04,0,.07-.01.11-.02.08-.01.16-.02.25-.04.04,0,.08-.02.11-.03.09-.02.19-.05.28-.08.03-.01.07-.02.1-.03.11-.04.21-.07.31-.11.02,0,.04-.02.06-.02.31-.12.62-.25.86-.35.58-.01,1.3.26,1.14-.47-.02-.06-.07-.13-.12-.2-.04-.06-.11-.15-.15-.22h.37c.13-.02.29-.02.42-.02h.19s-.14.26-.14.26c0,0,0,0,.01.01h0s-.1.16-.1.16c.03.01.07.36.39.45.27.08.56.13.85.19,0,0,0,0,0,0,.27.08.65.19,1.07.3,0,0,0,0,0,0,.2.05.41.11.63.16.02,0,.04.01.07.02.21.05.42.1.62.16t0,0c.1.05.2.1.3.17.24.16.06.47.28.5.26.04,1.01-.08,1.07-.01l.1-.12.43-.5.05.58c.01.21.03.61.36.91.33.29.84.4,1.25.49.28.06.51.11.66.21l-.11.17.02.02s.01.01.01.01c-.09,0-.18,0-.29,0h0s.09.08.16.15c.07.07.15.15.23.25h0s0,0,0,.01c.05.03.15.34.35.48.07.05.16.12.26.2t0,0c.04.05.09.11.13.16.1.12.2.24.3.37.07.09.15.19.22.28.04.06.08.11.13.16.1.13.19.25.27.37.02.03.05.06.07.1.08.12.16.23.21.33,0,.02.02.03.02.05.05.09.08.17.08.21.01,1.11-3.12,1.82-2.4,4.3.17.58.55.76,1,.76.74,0,1.67-.5,2.1-.5.1,0,.2.02.3.05.04.01.08.02.12.04,0,0,0,0,0,0,0,0,0,0,0,0,.16.13.32.29.57.32.12.02.22,0,.32.01,0,0,0,0,0,0,.05.01.09.03.14.04,1.43.22,2.37-.17,2.61.93.03.16.05.34.06.57,0,.26,0,.56-.04.92.16-.06.33-.14.49-.21l-.04.4-.56.22c-1.35.54-2.75,1.09-4.21,1.27.04.32.2.6.47.83.7.6,2.11.79,3.06.62l.18-.03.08.17c.05.09.1.21.15.33.14.31.31.69.51.98,0,.2,0,.4,0,.6,0,.01,0,.02,0,.03.02,0,.05,0,.07.01.09.02.18.04.26.05,0,0,0,0,0,0h.01s0,0,0,0h0c.36.03.67-.07.96-.2l3.41-.7c.31-.04.62-.08.92-.13,1.37-.24,3.22-.84,4.74-.64h0c.19.08.38.17.54.26.08.04.14.09.22.13.09.05.18.11.26.16.07.05.13.1.19.15.07.06.14.11.21.17.05.05.1.1.15.15l-.03.06.04-.04c.06.06.11.12.16.18.05.06.08.11.12.17.04.06.08.12.12.19.03.06.06.12.09.18.03.07.06.13.08.2.02.06.04.12.05.19.02.07.03.14.04.21,0,.06.01.13.02.19,0,.07,0,.14,0,.22,0,.06,0,.13-.01.19,0,.07-.02.15-.04.23-.01.06-.03.13-.04.2-.02.08-.05.16-.08.23-.02.06-.05.13-.07.2-.03.08-.08.16-.12.24-.03.06-.06.13-.1.19-.05.09-.11.17-.16.26-.04.06-.08.12-.12.18-.06.09-.14.18-.21.27-.05.06-.09.11-.14.17-.09.1-.19.21-.29.31-.04.04-.08.09-.13.13-.15.15-.31.3-.47.44l-2.19,1.6h0s-.04,0-.06,0v.04l-.6.44h-.12s-.16-.02-.24,0c-.03.08-.03.18-.02.28l-.37.27c.07.15.13.26.2.36.02.02.04.04.05.07.06.07.11.12.17.16.02.01.03.02.05.03.16.08.33.07.51,0,0,0,0,0,0,0,.03.01.05.02.08.02v.02h0v-.02s.09.01.13,0c.31-.11.85-.57,1.34-.94.16-.1.34-.2.51-.31.02-.01.04-.02.06-.03.16-.1.33-.19.49-.28.02-.01.04-.02.05-.03.17-.09.34-.18.5-.26.01,0,.02-.01.03-.02.17-.08.33-.16.48-.22.05-.02.09-.04.14-.05h0s.07-.02.1-.03c.07-.02.14-.05.2-.06,0,0,0,0,0,0,0,0,.01,0,.02,0l.04.07-.02-.07c.06-.01.13-.02.22-.03.04,0,.09,0,.13-.01.07,0,.15-.01.23-.02v.03s0-.03,0-.03c0,0,0,0,.01,0,.07,0,.14,0,.21-.01.08,0,.15,0,.23-.01.1,0,.2,0,.31-.01.05,0,.1,0,.15,0,.13,0,.26,0,.38,0,.02,0,.03,0,.05,0,.44,0,.82,0,.97.03.02.14,0,.29,0,.43.01.21.03.52,0,.71h0s0,0,0,0c-.15.25-.37.52-.61.79,0,0-.01.02-.02.02-.24.26-.5.52-.76.76-.01.01-.02.02-.03.03-.12.11-.24.22-.36.32h-.01c-.12.11-.23.21-.34.3-.02.01-.03.03-.05.04-.08.07-.16.13-.22.18-.03.02-.05.04-.07.06-.05.04-.09.07-.12.1-.01.01-.04.03-.05.04-.22.17-1.49.28-.63,1.04.02.02.06.03.1.05,0,.04.01.09.05.12.03.02.2-.01.43-.07h0c.14,0,.3-.01.47-.03.51-.04,1.14-.12,1.73-.12h.02c.13,0,.26,0,.39.01.02,0,.04,0,.05,0,.12,0,.25.02.36.04.01,0,.02,0,.04,0,.25.05.47.12.65.23.02.01.04.03.06.04.06.05.12.1.17.15.02.02.04.05.06.08.04.06.07.12.1.19.01.03.03.07.04.11.02.07.03.16.04.25,0,.04.01.07.01.12,0,.13,0,.28-.04.44-.26,1.28-1.88,1.87-1.86,3.19.02,0,.04,0,.05,0-.05.06-.1.11-.14.17.68.01,1.44-.06,2.13.09h0c.13.04.25.1.37.15.18.08.35.18.49.3.23.2.33.44.38.67.08.39.02.77.16.95h0c.08.1.37.13.67.25,0,0,0,0,0,0,0,0,0,0,0,0,.06.03.12.06.18.09,0,0,0,0,0,0,.1.06.19.12.27.22.22.25.16.76.29.9.03.03.07.05.11.06.02,0,.04,0,.06.01.03,0,.07.01.1.02.03,0,.06,0,.09,0,.03,0,.07,0,.1,0,.15,0,.32,0,.5,0,.02,0,.03,0,.05,0,.07,0,.14,0,.21.02.02,0,.04,0,.06,0,.07,0,.14.02.21.04.02,0,.03,0,.05.01.08.02.16.05.24.09,0,0,0,0,0,0h0c-.01.08-.03.16,0,.2.01.02.25.07.36.24.13.19.1.47.12.48.02.01.07,0,.13,0,.01.1.02.2.02.32,0,.05,0,.1,0,.15,0,.09,0,.19-.02.3,0,.05-.01.1-.02.15-.02.16-.05.33-.09.52-.25,1.09-1.66,1.8-1.32,2.89.03.09.94,1.59,1.01,1.65.05.05.12.09.2.13.04.02.08.03.12.05.05.02.09.04.15.06.23.08.5.15.76.24h0s0,0,0,0c.16.07.3.12.44.19,0,0,0,0,0,0,0,0,0,0,0,0,.08.05.16.1.23.15.07.06.14.13.19.2.58.87-.24,2.57.67,3.17.06.04.13.06.21.09.15.11.35.2.61.26.95.2,1.92-.03,2.56.49h0s0,0,0,0c.93,1.09-.19,2.59-.44,3.83,0,.02,0,.03-.01.05-.01.07-.02.13-.03.2,0,.02,0,.05,0,.07,0,.08,0,.15,0,.22,0,.01,0,.02,0,.04,0,0,0,.03,0,.04-.05.11-.07.19-.06.24.01.06.07.14.15.23t0,0c.05.23.11.5.17.76,0,.02,0,.04.01.05l-.06.04.07-.02h0c.02.09.04.17.06.25.02.07.04.15.05.21,0,.03.02.06.02.09.01.05.03.1.04.14,0,.02.01.04.02.06.01.05.03.08.03.09,0,0,0,0,0,0,.02.03.07.04.14.06,0,0,.02,0,.03,0,.07,0,.15.01.25,0h0s0,.06-.02.09c.09.1.3,0,.52-.18,0,0,0,0,0,0,.14-.04.28-.1.4-.17.02,0,.03-.02.05-.03.12-.07.23-.16.31-.27,0,0,0,0,0,0,.41-.56.55-1.32.97-1.91.12-.17.25-.32.38-.47.04-.02.09-.05.12-.08.27-.27.47-.51.63-.76,0,0,0,0,0,0,.12-.14.24-.29.35-.45.03-.04.06-.09.09-.13.08-.12.15-.25.22-.39.03-.06.06-.12.09-.18.06-.14.1-.28.14-.44.02-.07.04-.13.05-.2.04-.23.07-.47.07-.74,0,0,0,0,0,0,1.1.78,2.23,2.53,2.4,3.84l.37-.26s.04.02.06.04v.07s.04.09.04.13c.03.25.01.65,0,1.05-.01.24-.03.55-.02.71.14,0,.4-.03.55-.04.26-.03.48-.05.64-.03l.77.15c-.32.05-.65.08-.97.11.13.11.42,2.59.84,3.4.03.05.06.1.09.14-.1.2-.22.37-.36.52-.61.68-1.57,1.04-2.11,1.65-.33.36-.5.82-.37,1.48l.54-.08c.06,0,.12-.02.17-.02.11-.01.21-.02.31-.04l1.54-.22.79-.11h0c-.46,2.16-.44,3.01-.05,3.21,0,0,0,0,0,0,.06.03.12.04.19.04,0,0,0,0,0,0,0,0,0,.02,0,.03.28.04.46,0,.72-.12.27-.13.56-.31.85-.5,0,0,0,0,0,0,0,0,0,0,0,0,.19-.09.4-.19.61-.28.05-.02.1-.04.16-.07.23-.1.47-.2.72-.29.42-.15.85-.27,1.28-.39.11-.03.23-.06.34-.09.39-.1.78-.18,1.17-.25.05,0,.1-.02.15-.03.44-.08.88-.13,1.33-.18.12-.01.24-.02.36-.03.37-.03.75-.06,1.13-.07.09,0,.18-.01.27-.01.45-.01.89,0,1.34,0,.13,0,.26.01.39.02.36.02.71.04,1.07.07.12.01.25.02.37.03.44.04.88.09,1.33.15.14.02.28.04.42.06.34.05.67.11,1.01.17.15.03.3.05.45.08.43.08.86.18,1.28.27.15.03.3.07.44.11.31.08.62.16.93.24.17.05.35.09.52.14.41.12.81.24,1.21.36,0,0,0,0,.01,0,.24.08.48.16.71.24,0,0,.02,0,.02,0,.16.05.32.11.48.16,0,0,0,0,0,0,1.35.48,2.64,1,3.85,1.54,0,0,0,0,0,0,.16.07.32.15.48.22.09.04.19.09.28.13.02,0,.03.02.05.02,0,0,0,0,0,0,.44.21.88.43,1.31.64,1.79.91,4.33,2.25,4.46,4.42.06.03.12.04.19.04.02,0,.05,0,.07,0,.05,0,.09,0,.14-.02.03,0,.06-.02.09-.03.05-.01.09-.03.14-.05.03-.01.07-.03.11-.05.05-.02.1-.04.15-.07.04-.02.08-.04.11-.06.05-.03.1-.06.15-.09.04-.02.08-.05.12-.07.05-.03.1-.06.15-.1.04-.03.08-.05.12-.08.05-.03.1-.06.14-.1.13-.09.25-.17.37-.26.4-.22.82-.39,1.29-.39,0,.33,0,.68,0,1.05,0,.05,0,.1,0,.14,0,.32.02.65.04.98,0,.1.02.21.03.31.02.29.04.57.08.86.02.15.04.3.06.46.03.25.06.49.1.73.03.19.08.37.12.56.04.2.08.41.13.61.05.22.12.42.19.63.05.16.09.33.15.49.08.23.18.43.28.65.06.13.1.26.17.38.15.3.32.57.51.83.02.02.03.05.05.07,0,0,.01.02.02.03.22.29.43.55.63.78.09.1.17.18.26.27.12.13.24.26.36.38.11.1.21.18.31.27.09.08.18.16.27.22.12.09.23.16.34.23.07.04.14.09.21.13.12.07.24.12.36.17.05.02.1.04.15.06.13.04.26.07.38.09.03,0,.07.01.1.01.14.01.27.02.4,0,.02,0,.04,0,.05,0,.14-.02.29-.04.42-.09.36-.07.71-.21,1.04-.48.26-.22,1.01-1.15,1.19-1.45.08-.13.17-.32.26-.53h0c.18-.3.36-.63.53-.96.04-.08.09-.17.13-.25.17-.33.34-.67.51-1.03,0,0,0,0,0,0,.06-.13.09-.26.12-.39.02-.11.03-.21.04-.32,0,0,0,0,0,0,.12-.16.25-.28.37-.31.25-.08.76,0,.8-.03.04-.03-.03-.34,0-.48.19-.04.67.05.72,0,.02-.02-.01-.26.11-.46.02,0,.04-.01.07-.02.06-.01.12-.05.18-.07l.05.09-.02-.09c.06-.02.12-.03.18-.07,1.21-.67,1.52-2.63,2.88-3.13.09,1.47-.6,2.57-.5,4.1.02.27.08.66.18,1.11h0c0,.08,0,.16,0,.23l.07.05h0c.05.21.1.42.17.63h0c0,.1-.01.19,0,.28.07.43.15,1.06.24,1.44.2-.06.37.03.51.2t0,0c.07.14.15.26.23.38h0c.1.21.17.44.22.62h.41c.06.03.12.06.19.08h0c.08.02.16.02.24,0,.07-.02.14-.05.21-.09,0,0,0,0,0,0h.63c.07-.31.45-.21.48-.24.03-.03-.08-.31.05-.44.12-.12.4-.01.43-.04.03-.02.01-.09,0-.16.03,0,.05,0,.08.01,0,.23,0,.47.02.72,0,.06.01.12.02.18.03.25.06.5.11.76h0c0,.06,0,.12,0,.17.03.04.05.08.07.13,0,0,0,0,0,0,.12.51.29,1,.49,1.46,0,0,0,0,0,0,.01.03.02.07.03.1.1.24.78,1.6.84,1.68.05.06.15.08.26.1h0s.01.02.02.03c.6.97.87,1.62,1.14,2.37,0,.02.01.04.02.06,0,0,0,0,0,0,0,.03,0,.06,0,.07l.05.03h0c.13.38.27.8.46,1.3h0c0,.13-.02.26-.02.35.07.01.13.03.18.06,0,0,0,.01,0,.02.07.19.15.39.24.61,0,0,0,.01,0,.02,0,.02.02.04.02.05h0c0,.07,0,.14.03.2.19.64.59,1.35.72,1.92h.36s0,0,0,0c.04.06.08.12.12.18h0s0,.3,0,.3c.03.02-.02.16,0,.24.2.02.42.12.62.26,0,0,0,0,0,0,.18.2.37.4.57.57,0,0,0,0,0,0h0c.14.2.23.42.25.61.06.03.18-.03.24,0l.24.24c.16.08.32.16.48.24h.72c.05-.05.1-.11.14-.16h0c.06,0,.12.01.19.01h0v-.29c.08-.15.13-.27.15-.28l.03-.57.21-.15c-.05-.26,0-.66,0-.96h-.39s0-.4,0-.4c.07-.05.14-.07.15-.08.02-.06-.02-.6-.07-1.16l.33-1.16c.13.46.31,1.08.48,1.64,0,0,0,0,0,0,.06.21.12.41.18.61,0,0,0,0,0,.01.06.18.11.34.17.5,0,.02.01.03.02.05l-.06.05.07-.02s0,0,0,0c.05.14.1.26.15.37,0,.02.02.04.03.06l-.05.06.06-.03s0,0,0,.01c.06.13.12.24.18.32.03.04.07.07.11.11t0,0c.11.17.21.31.31.38.19.14.39.07.47.12h.12c.03-.06.03-.12.05-.18,0,0,0,0,.01,0,.1,0,.2,0,.28.01.02,0,.05,0,.07,0,.09.01.16.03.21.06h0c.06.05.14.22.23.49.05.14.1.31.16.49.4,1.28,1.01,3.39,1.83,3.77.12.02.22.03.31.03.33.01.45-.07.44-.25,0,0,.01,0,.01,0,0,0-.01-.03-.02-.04-.02-.16-.13-.39-.28-.69-.36-.72-.92-1.27-1.1-2.26-.07-.37-.1-.72-.12-1.06,0-.08,0-.15,0-.23,0-.27,0-.53.01-.77,0-.06.01-.12.02-.19.03-.26.07-.52.12-.77,0-.03.02-.07.02-.1.07-.28.16-.55.26-.8,1.1-2.28,3.79-3.88,6.15-4.43.92-.21,1.92-.19,2.84-.44h0s.03,0,.04,0c.12-.01.23-.02.34-.05.06-.02.13-.05.2-.1.06-.04.12-.08.19-.13,0,0,0,0,0,0,.15-.08.29-.17.43-.27.55-.41.5-.76,1.32-.96.08-.02.16.02.24,0-.06-.52.33-.66.64-.92,1.03-.86,3.44-2.35,5.45-3.21.24-.08.48-.16.72-.22.26-.07.52-.13.78-.19.12-.02.24-.04.36-.06.34-.06.68-.1,1.02-.11-.02-.07-.05-.14-.08-.21.1,0,.2-.02.3-.02h.18s.06.17.06.17c.06.19.19.52.33.88.58,1.5.64,1.7.61,1.84-.04.18-.27.47-.97,1.31-.71.85-1.67,2.02-1.89,2.61-.1.27-.07.34-.07.34.04.03.26.03.41.03h.15s.08,0,.12,0c2.39,0,4.06-1.62,5.67-3.2.64-.62,1.3-1.27,1.99-1.79.69-.51,1.67-1,2.63-1.47.74-.37,1.44-.71,1.96-1.04l.22-.15h0c-.04.1-.07.18-.1.2.03.12.08.21.15.27,0,.15.07.15.36.13h0s.02,0,.03,0c.27,0,.6-.13.9-.26.01,0,.03-.01.04-.02.08-.04.16-.07.24-.11.01,0,.02-.01.03-.01.69-.23,1.38-.45,2.07-.68,0,0,0,0,0,0,0,0,0,0,0,0,.61-.19,1.21-.38,1.82-.56.44-.14.88-.27,1.33-.4.45-.13.91-.26,1.36-.39.57-.16,1.14-.3,1.71-.45.35-.09.71-.19,1.06-.27.93-.22,1.86-.42,2.8-.59,0,0,0,0,0,0h0s.01-.02.01-.03c.13-.02.25-.04.38-.06,0-.08,0-.15.02-.22l.32-.11-.28.54s-.02.11-.03.18c-.03.2-.07.47-.21.76-.22.47-.62.97-1.04,1.49-.45.56-.92,1.14-1.11,1.63-.09.23-.07.33-.05.36,0,0,.07.09.51.03,1-.14,4.57-2.67,5.75-3.5l.12-.08c.47-.33.93-.74,1.37-1.13,1.02-.91,2.08-1.85,3.44-1.99-.02.07-.05.14-.07.21,3.09-.2,6.05-.69,9.12-.96,0-.07.02-.14.03-.22.06,0,.12-.01.18-.02.17-.01.34,0,.51,0,.12,0,.24,0,.36,0-.04.08-.08.15-.12.23,1.25-.11,2.54-.45,3.58-.5.1,0,.23,0,.38,0,.1,0,.2,0,.31,0,1.71,0,5.34.15,7.75.16,1.29,0,2.23-.04,2.35-.16.08-.09.69-1.77.9-2.24.17-.38.56-.57.57-.61.01-.03,0-.09,0-.13h0s.21-.65.21-.65l.25.71c.21.6.63.72.98.76l.29.03c-.09.08-.2.15-.29.23.12.09.49,1.99,1.74,2.34,2.9.81,4.28.36,7.37,2.23.45.27.85,1.07,1.27,1.16.05.01.1.01.16.01.42-.03.9-.45,1.2-.46.27-.01.4.29.27,1.45.01.02.06.03.12.03.97.04,7.2-1.83,7.57-2.19.8-.78.37-1.68.47-2.65h0s-.02,0-.02,0c0,0,0,0,0-.01.11-1.02.57-1.42,1.02-1.8.24-.2.48-.41.69-.72.21-.32.39-.66.58-1.02.44-.84.89-1.72,1.84-2.24l.27-.15c-.02.06-.04.11-.05.18-.4,2.02-.5,4.06-.51,6.11,0,.68,0,1.37.02,2.05.22-.04.43-.06.64-.06,1.47-.02,2.71.78,4.16,1.02h0c.1-1.08-.14-2.32,0-3.36,0,0-.01,0-.02-.01,0,0,0,0,0,0,.27-2,1.07-4.09,1.84-6.11.57-1.48,1.15-3,1.52-4.47l.02-.07.04-.04c-.01.05-.03.1-.04.16h0s4.14-3.8,4.14-3.8c.9.17,1.93.5,2.88.73.32.08.62.14.92.18,2.34.33,4.77.52,7.19.49,5.34-.06,10.7-1.15,15.28-3.91,1.01-.61,2.72-1.46,2.72-2.8h0s-.02,0-.02,0v-.18l.19-.05c.52-.14,1.11-.37,1.75-.62.63-.25,1.29-.51,1.87-.66l.12-.03c0,.06,0,.11,0,.17,0,.03,0,.06,0,.09.08,0,.17,0,.24,0,.15.02.26.07.24.24.29.01.49.08.72.24h.24c.07-.02.16.01.24,0,.23-.03.48.02.72,0,.02-.05.12-.1.25-.16,2.35-.28,4.97-4.92,6.2-7.62.03-.06.05-.11.07-.17.06-.13.12-.26.17-.38.07-.17.14-.33.2-.48.62-1.57,1.94-5.54,2.06-7.06.04-.56-.43-1.13-.43-1.83,0-1.03.79-1.84.04-3.12.28-.07.69.07.96,0,2.92-.79,5.74-3.78,5.29-6.97-.15-1.08-.8-.95-.97-1.19-.07-.1.11-.39-.48-.96l1.42-2.17c1.21-.81,1.45-1.84,1.94-3.11.13-.33.34-.63.48-.96.14,0,.32.02.49.03.17.01.33,0,.41-.08.16-.14,1.5-2.79,1.76-3.31.18-.36.13-.78.22-.96.31-.64.67-1.25.96-1.92h-.48c.08-.61-.1-1.34,0-1.92.14-.86,1.02-4.11.96-4.32-.97-3.34-2.63-6.75-2.85-10.27.09.04-.72-1.2-.67-1.25.08-.08,2.33-2.88,3.05-4.66ZM247.77,87.8c1.08.11,2.15.98,3.18,1.31,1.19.38,2.5.45,3.67.89,1.06.41,1.69,1.02,2.99.91.05.09.52.15.67.3.07.07.15.51.53.66,0,0,0,.47,0,.47.18-.03.34,0,.47.1.29.64.62,1.51,1.04,2.13.39.59.9.65,1.19,1.46.68,1.93,1.75,2.53,2.32,4.06.04.09.12.15.2.18.18.18.35.4.52.71.06.11.17.32.3.57.22.43.5.99.73,1.45.06.11.11.22.15.31.08.15.14.28.18.38.03.11.06.21.09.32.11.63-.13,1.61.06,2.41.23,1,.5,1.54.68,2.2.11.4.19.83.21,1.43,0,.23,0,.48,0,.76,0,.15-.01.31-.02.48,0,.11-.04.24-.09.36-.15.38-.41.77-.38.84-.21.15-.41.27-.6.36-.19.09-.36.14-.52.17-.11.02-.21.03-.31.03-1.17-.02-1.72-1.51-2.74-1.92-.19-.08-.44-.15-.71-.21-.26-.61-1.02-.61-1.59-.36.25-1.33-.5-2.22-.73-3.47-.08-.43.3-.95-.43-.85,0-.02,0-.04,0-.06-.19-.99-.91-1.8-1.22-2.76,0-.02-.01-.05-.02-.06-.02-.07.02-.16,0-.24-.11-.03-.21-.07-.31-.11-.59-.28-1-.85-1.56-1.25-.92-.67-.92-.53-1.29-1.59-.02-.05-.04-.09-.05-.13-.02-.04-.04-.08-.05-.12-.28-.59-.74-1.29-.94-1.89-.01-.04-.03-.08-.05-.12-.33-.69-.74-1.38-1.16-2.08-.98-1.65-1.88-3.31-2.88-4.94-.01-.02-.02-.04-.04-.06-.09-.15-.19-.27-.28-.33l-.04-.32s-.23-.22-.24-.24c-.02-.06,0-.18.01-.28,0-.08,0-.15-.03-.18-.14-.12-.98.16-1.18-.39l.24-1.3Z"/>
  </g>
  <g>
    <path class="cls-2" d="M4.39,13.73v-3.46H1.23v-1.34h3.16v-3.47h1.39v3.47h3.17v1.34h-3.17v3.46h-1.39Z"/>
    <path class="cls-2" d="M14.02,15.76c-.77,0-1.44-.23-1.99-.7-.56-.46-.99-1.14-1.29-2.03-.3-.89-.45-1.98-.45-3.27s.15-2.37.45-3.25c.3-.88.73-1.54,1.29-1.98.56-.45,1.22-.67,1.99-.67s1.42.22,1.97.67c.55.45.98,1.11,1.28,1.98.3.88.45,1.96.45,3.25s-.15,2.38-.45,3.27c-.3.89-.73,1.57-1.28,2.03-.55.46-1.21.7-1.97.7ZM14.02,14.29c.39,0,.73-.15,1.03-.45.3-.3.54-.78.7-1.44.17-.66.25-1.54.25-2.64s-.08-1.97-.25-2.62c-.17-.65-.4-1.11-.7-1.4-.3-.29-.65-.43-1.03-.43s-.73.14-1.03.43c-.3.29-.54.75-.71,1.4s-.26,1.52-.26,2.62.09,1.98.26,2.64.41,1.14.71,1.44c.3.3.65.45,1.03.45Z"/>
    <path class="cls-2" d="M23.75,15.54v-7.36c0-.32.01-.71.03-1.16.02-.45.04-.83.05-1.14h-.06c-.15.28-.29.56-.45.84s-.31.57-.48.87l-2.25,3.49h6.3v1.44h-8.13v-1.25l4.58-7.18h2.09v11.46h-1.69Z"/>
  </g>
</svg>