<?xml version="1.0" encoding="UTF-8"?>
<svg id="a4" xmlns="http://www.w3.org/2000/svg" viewBox="0 0 600 500">
  <defs>
    <style>
      .a4 {
        fill: #5d4c39;
      }

      .cls-2 {
        fill: #c9caca;
      }
    </style>
  </defs>
  <g>
    <path class="a4" d="M286.45,137.16c-.16-.31-.26-.48-.07-.05.02.02.03.04.05.07,0,0,.01-.01.02-.02Z"/>
    <path class="a4" d="M476.96,155.57c-1.46.47-3.11,3.92-4.55,4.84-.2.04-.16-.24-.13-.39.3-1.71,2.14-5.31,2.8-7.38,3.25-10.27,5.44-20.92,8.43-31.27.04-.92-1.01-1-1.53-1.84-1.77-2.86,1.2-6.91.74-10.01-4.64,3.56-4.29-3.82-4.78-6.57-.74-4.15-2.53-7.52-4.49-11.17-.68-.16-1.34,1.55-1.69,1.96-1.07,1.24-3.14,2.85-4.8,1.92-1.73-.98.46-1.75.62-2.99.07-.58-.07-1.68-.69-1.9-1.48-.37-2.68.85-3.98,1.15-2.67.61-1.51-.56-2.75-1.72-2.99-2.78-12.57.4-15.8,2.22-1.7.96-2.27,2.37-3.46,3.06-1.23.71-3.39,1.2-4.89,1.9-2.92,1.36-5.99,3.15-8.78,4.79-5.64,3.31-10.92,7.07-16.14,11-1.03-.01.25-.96.5-1.32.59-.83,1.46-1.81.91-2.83-.3-.22-2.33.55-2.73.75-2.93,1.46-7.8,7.61-9.62,10.47-.68,1.07-.71,2.25-1.85,2.85l.13-5.74c-.4-.1-.42.06-.64.28-2.78,2.79-3.35,10.4-4.39,14.14-1.15,4.14-4.42,7.97-7.11,11.44-.12-.37-.23-.74-.35-1.11-.23.23-.71.74-.73.78-.03.05-.08.16-.13.31,0-.35.02-.69-.01-.85-.17-.9-.72-1.74-.46-2.8-.64-.2-1.15.55-1.62.71.03-1-.12-1.88-1.01-2.38-.19-.11-.42-.17-.69-.21-.26-.84-.56-1.67-.88-2.49-1.63.09-3.7.82-4.14.23-.42-2.73-1.47-1.54-2.86-2.11-1.05-.43-1.13-2.07-1.3-3.36-.08-.58.1-1.8-.06-2.1-.08-.15-.69-.2-.91-.46-.47-.56-.16-5.39-.23-6.65-.19-3.35-.87-8.59-1.71-11.76-.44-1.68-1.08-5.3-1.1-5.82-.04-.92-.6-5.12-.82-5.96-.39-1.47-1.88-3.54-2.51-5.29-1.52-4.17-3.04-10.78-5.92-14.03-.55-.62-1.4-.62-2.07-1.21-.57-.51-.73-1.3-1.34-1.69-1.84.21-4.23.86-5.26,2.95-.64,1.3-2.21,4.47-2.62,5.73-.48,1.48-1.42,3.1-1.76,4.38-.2.73-.8,1.23-1.05,1.89-1.92,5.22-2.4,11.03-3.98,15.95-.86,2.67-1.63,2.59-1.28,6.2.07.7.53,1.09.46,2.01-.07.88-.75,1.5-.88,2.12-.17.82.08,1.75-.1,2.48-.16.65-.84.64-.9.98-.12.61.11,1.42-.05,2.18-.12.6-.89,1.35-.87,2.09.01.53,1.04,1.33.87,2.08-.65,3.03-1.12,5.07-2.19,5.44-.42,2.04-.13-.86-1.7.82-.2.22-.41.38-.62.5v2.14c-1.43.67-2.93-.37-3.52-1.87-.31-.77-.87-4.54-2.06-4.52-1.23.03-.95,1.11-1.12,1.71-.76,2.63-2.4,4.66-5.41,3.65-1.25-.42-1.65-1.57-2.99-1.36l-.45-2.95c-2.74.04-5.51-.56-7.42-2.68-.75-.84-1.48-3.01-2.8-2.82-1.6.22-3.15,4.74-3.7,6.19-.21.55-.96,3.29-1.14,3.45-.42.38-.39-.14-.49-.33-.6-1.18-1-2.85-2.68-2.74-.43.03-.74.37-.93.38-.6.02-3.51-.48-3.64-.35-.2,1.3,1.48,1.62,1.41,2.82-1.83-.09-1.55-1.78-3.76-.82-2.38,1.03-2.19,4.91-2.96,6.94-.84.14-2.53-1.58-3.21-2.56-.05.05-.1.1-.15.16.02.04.04.08.07.13-.03-.04-.06-.07-.09-.11,0,0,0,0-.01.01,0-.02-.02-.04-.03-.06,0,0,0-.01,0-.02-.24-.3-.48-.62-.57-1.1-.17-.92.19-2.03.01-2.6-.23-.74-.98-.97-1.36-1.51-2.18-3.07-.42-2.82-.87-5.57-.22-1.38-1.11-1.54-1.42-2.3-.36-.88-.28-2.42-.52-3.4-.24-.98-.64-3.88-1.05-4.89-.33-.8-.83-1.48-1.26-2.19,0,0-.4-2.73-.35-4.5.06-2.13-.83-6.06-1.59-8.21-.51-1.44-3.04-6.51-3.06-7.68-.02-.88.31-.88.06-1.9-.21-.88-.62-.91-.76-1.31-.99-2.89-2.84-7.11-5.18-9.35-1.62-1.56-2.29-.86-3.83-1.36-.77-.25-.66-1.14-1.99-.58-.75.31-3.05,2.72-3.45,3.56-.68,1.41-2.25,5.3-2.87,6.72-.49,1.13-1.53,1.46-2.12,2.59-1.32,2.48-3.23,10.89-3.31,13.86-.07,2.61.36,1.77-.49,4.57-1.54,5.03-2.32,8.73-2.36,14.16-.02,2.88.04,5.3.47,8.09.34,2.24-1.83,3.34-3.28,3.01.28,1.53-.49,2.47-.78,3.81-.15.72-.55,2.35-.62,2.97,0-.01-.01-.03-.02-.04-.17,1.66,2.54.98,1.58,2.69-.11.2-1.04,1.56-1.34,1.01-.32-1.93-1.13-8.13-4.17-7.24-2.61.76,1,7.29-.76,7.71l-.57-.37.22-1.5c-2.5-.43-3.18,2.57-3.53,4.46-.76.14-1.88-1.12-2.65-1.99.05.26.04.48,0,.68-.16-.92-.32-1.84-.48-2.75-.43-.49-.76-.87-.9-.91-.88-.23-1.83,1.72-2.33,1.76-.15.01-.79-.42-1.32-.47-1.2-.11-1.92.56-2.92-.25-1.66-1.35-4.49-7.59-4.89-7.83-.33-.2-.79.26-1.32.03-.88-.37-2.65-3.23-3.2-3.47-.58-.25-1.07.3-1.58.03-.51-.26-.52-1.21-.9-1.5-.49-.38-1.21-.07-1.76-.62-.51-.5-1.22-3.2-1.69-4.13-.91-1.82-3.31-4.79-5.07-5.78-1.04-.58-2.65-.58-3.53-.97-.92-.4-3.67-3.87-5.04-4.5-1.01-.47-1.33.77-3.17-.79-2.08-1.76-6.64-10.51-8.12-10.94-2.05-.59-.68,2.57-.31,3.5.47,1.17,2.02,3.24,2.23,4.12.43,1.74-1.37-.22-1.79-.86-.89-1.36-2.66-6.94-3.31-7.34-1.17-.73-1.75.57-2.27.49-.36-.05-2.22-1.38-2.57-1.01l-.13.79c-1.56-1.12-1.16-4.95-3.69-4.5-.46.08-.76.61-1.28.49-.66-.15-1.5-1.34-2.73-1.27-.74.05-.96,1.22-1.78,1.01-3.79-4.34-9.54-8.42-15.54-8.05-.65.42.45,1.45-.38,1.2-2.76-.83-4.4-4.1-7.28-4.23l.26,3.97c-2.88-.34-7.91,1.01-6.88,4.76-1.99.07-3.97-.53-5.65-1.56l-2.36,2.98-4.17-.51c-.46.3.22,2.22.42,2.52.47.7,2.96,1.19,2.52,3.01-.87.84-2.45.44-3.34.95-.48.27-1.93,2.49-2.21,3.08-.26.57-.21,1.39-.42,1.7-.31.47-1.66.24-2.23,1.21-.93,1.61.36,4.39.22,4.58-2.69.67-2.29,3.92-3.19,5.97l1.21,7.39c-.4-.09-.81-.17-1.21-.26.54,1.99,1.61,4.83,1.64,5.86.03,1.29-.6,2.56-.7,3.81-.74,9.74,1.89,22.16,6.74,30.22,2.45,4.07,5.36,5.72,8.07,9.07,1.99,2.47,3.47,5.6,5.76,7.82.73.71,2.35.89,1.87,2.06.7.38,1.61.28,2.41.25,1.5,3.78,2.77,8.04,5.23,11.05,3.02,3.68,6.8,5.42,10.44,7.16.92,1.59,1.89,3.08,3,4.2,1.28,1.29,3.84,2.34,4.82,3.48.42.49.31,1.19.35,1.23.27.32,1.29-.56,2.05-.37.12.03.24.08.36.13.21.39.41.8.6,1.23.61,1.4,2.35,1.59,2.75,2.6-.37.1-.72.22-1.09.32-.23.65-.71,1.15-1.57,1.39.37.44.77.08,1.33.29.33.12,1.66.83,1.72,1.12l-.96.72c-.07,1.09.52,1.98,1.3,2.69.35.32,1.29.74,1.3.82.4,1.98-3.74-.6-4.01,1.63-.44,3.6,3.48,3.12,5.89,2.95.15,1.02-1.47-.06-2.06.52-.67,1.05.1,1.82.17,2.67.08.88-1.44,2.95-1.96,3.88-.42.75-.68,1.85-1.22,2.54-1.23,1.59-3.6,1.55-3.14,4.35.5,3.07,5.51.27,5.86.6-.45,2.22-.69,4.18,1.97,4.73l3.67,2.67c-.43.88-4.93.68-3.94,3.95.14.46,1.68,1.45,1.36,1.81-1.58.33-5.72,1.65-6.24,3.28-.65,2.03,1,2.61,2.7,2.37l.25,1.4c2.84-1.32,2.07-.34,3.51,1.07.32.31,1.4,1.04,1.81,1.24,1.48.72,3.14.38,4.03,1.61.2.27,1.83,3.11,1.87,3.3.44,1.9-.81,2.3-1.02,3.59-.08.51.28.98.02,1.41-.07.12-1.75,1.48-2.13,1.88-1.5,1.58-2.07,2.55-3.13,4.39-.61,1.06-1.96,2.6-2.23,3.64-.21.8-.57,3.64-.18,4.27.94,1.49,2.96-.83,3.19-.78.61.14.09.96.12,1.28.04.41.57.66.45,1.13-.17.66-1.84,2.44-2.04,3.63-.23,1.33.51,2.51.3,3.8-1.73,2.72-7.31,7.12-5.49,10.68.93,1.83,3.39,1.83,4.98.81,1.36-.87,2.07-2.98,3.68-2.78.13.63-.05.52-.29.77-1.05,1.14-3.27,1.69-2.63,3.69l-1.31.82c-.03.07.52.34.59.35,1.58.23,3.65-.17,5.29,0-1.43,1.88-4.99,1.41-5.19,4.34-.21,3.08,2.8,1.98,3.06,2.25.06.06-.03.63.13.92.66,1.17,3.75,3.32,2.63,4.65-.59.7-4.14,1.54-3.34,3.12.49.97,2.66-.09,2.71,1.17-.52,0-2.72.47-2.58,1.05,1.43,1.42,2.06,3.39,2.61,5.26.59.52,4.22-1.21,3.61.74-.63-.19-2.51.15-2.66.84-.05.23.22.61.2.92-.03.4-.23.77-.22,1.15.02.52.44,1.16.39,1.64-.06.5-.84,1.15-1.12,1.67-1.24,2.33-1.34,6.84,2.23,6.71.43-.02,3.41-.77,3.42-.59-.71,1.48-1.09,4.21-1.78,5.5-.8,1.49-5.59,3.59-3.88,6.02,1.76,2.5,7.14-2.93,7.53-2.48.04.97-.73,2.27-1.31,3.04-.42.55-3.42,3.15-3.15,3.54,2.3.9,3.59,3.3,4,5.64,2.99-.78,3.55.48,2.46,3.06-.93,2.19-3.29,4.17-4.81,6-.1.48.23.4.57.34,1.45-.25,2.39-2.68,3.77-2.58.48.49-.27.5-.59.81-.84.81-6.18,5.31-5.16,6.47l1.61-.2c-.04.55.52.98.61,1.35.11.43-.48,1.01.24.98,1.04-.05,1.99-1.28,2.96-1.75,1.26-.61,3.86-1.21,4.67.2-.16.72-5.34,3.36-1.28,3.65,1.76.13,2.42-1.19,3.05-1.18.45,0,.62.57.92.62.47.07,1.84-.2,2.61-.15,4.18.29,6.23,3.19,9.17,5.64-.28.65-.51.91-.11,1.63l1.85-.21c.08.76-.9.58-1.12,1.34-.25.86,0,2.58-.28,3.59.56.11.84-.27,1.25-.51,1.7-1.04,4.13-3.83,5.57-4.53.29-.14.6-.19.91-.1-.04.62.59,1.07.69,1.56.39,1.87-4.32,4.18-5.37,5.46.98-.17,2.11-1.01,2.96-.02,1.03,1.21-.69,2.54-.84,3.78,1.14.02,1.47-1.52,2.58-1.41.06.47-.22,3.06.35,3.05,1.35-1.69.72-5.1,3.41-5.4-.16,2.04-.9,4.43-.95,6.45-.04,1.57.66,2.95.7,4.26.02.73-.7,1.3-.09,1.74l1.76-.47c-.89-4.07,2.3-5.97,5.41-2.94,2.23,2.17,2.43,4.22,3.49,6.85.1.24-.13.4.37.32.65-.37,1.02-1.39,1.53-1.76.37-.27,1.11-.32,1.29-.58.08-.12-.11-.48,0-.7.82-1.54,2.21-2.52,3.97-2.59l.36.57c-.96,1.07-1.94,2.16-2.77,3.34-.41.57-1.64,2.14-1.43,2.74.03.09,1.22,1.27,1.31,1.3.32.11.71.07,1.02-.08.26-.13,2.61-3.94,3.29-4.69.18-.19.56-.82.82-.36.39,2.6-.62,4.97-.36,7.64.06.58.58,3.08,1.09,3.16,1.33-.64,1.78-5.24,3.77-2.7-.32,1.02-1.73,2.81-.99,3.89.61.9,2.5-.96,2.71-.72.08.73-.37,2.1.7,2.11.05-1.17,1.16-1.45,1.78-2.1,1.44-1.53,3.8-4.96,6.29-4.19.49.15.65.65.64,1.13h.35c5.96-3.37,5.6,1.7,1.4,4.22l.13.59c5.28,1.09,10.53,2.7,15.89,3.37.97.12,2.06.37,3.03.29.9-.08,1.42-.63,2.24-.39.55.14,1.24,1.94,1.67,2.56.72,1.04,1.91,2.48,3.35,2.28.65-.09.87-.95,1.38-.91,1.47.14,1.53,1.28,2.27,1.97,1.83,1.73,5.65-.7,5.67-2.59,0-.76-.45-1.63-.26-2.47l3.37.69.62,1.79,2.35.11c-.14,4.09,2.22,1.82,3.77.12,1.03-1.13,2.79-4.36,4.33-4.36.94,0,3.72.64,4.42.44.55-.16,1.21-1.4,1.87-1.67.9-.36,2.55-.51,3.76-.94.92-.32,3.45-1.79,4.07-1.82,2.03-.13-.6,2.26-1.07,2.71-.56.53-2.98,2.15-3.18,2.46-.47.72,1.94,1.34,2.37,1.39,4,.5,5.49-5.94,9.9-3.32,1.67.99,1.62,2.57,2.52,4.06l2.96.69v-3.41c0-.14.83-1.41,1.04-1.54,1.8-1.1,2.23,1.23,2.49,1.42.12.09.65-.35,1.16-.13.66.29,2.01,2.59,2.47,2.48.94-1.73,2.28-3.4,2.35-5.41l1.69-.9c.41-.13.27.02.37.26.26.61.19,1.06.65,1.71,1.37,1.92,5.62,1.22,6.73-.81.59-.18,1.44,1.33,3,.43,1.23-.71.68-2.82.87-3.01h.68c-.41-1.91-.82-5.07-.47-6.94.12-.64.56-.71,1.13-.54.65.86.54,1.75.51,2.77,2.7-1.45,3.49,1.06,3.76,3.29,6.02-2.12,12.1-4.41,18.57-4.57.42-.3.16-1.97.22-2.6.34-3.14,1.11-6.23,1.88-9.28.49-.1,1.41.3,1.41.82v6.81s.28.62.35.59c1.57-1.15,2.33-1.88,2-3.99,1.06,1.2,1.57.21,2.23.24.33.01.58.45.9.42.25-.02,4.37-2.09,4.51-2.31.74-1.21-1.58-4.3,0-5.4,1.08,1.12.61,2.78,1.07,4.09.62,1.78,1.72-1.62,2.14-2.29.69-1.09,2.35-2.9,3.65-3.16.76-.15,1.8.13,2.41-.17.54-.26,2.06-3.27,2.58-4,.42-.59,1.36-.6,1.18-1.75,1.32,1.01,2.23.95,2.11-.94l1.06.02c.07-1.43,2.02-2.35,2.2-3.48.11-.68-.95-2.24-.91-2.98.05-.75,1.18-1.61,1.18-2.48.82.15,1.32,2.71,1.76,2.82,1.98-.8.37-3.03.59-4.56.13-.92,1.49-2.25,1.63-3.31-.02-.72-1.49-1.16-1.41-2.09.08-.91,2.88-3.86,3.18-5.07,1.09-1.04,1.43,2.12,2.81,1.89.59-.1.55-3.26,1.3-3.67.39-.21,1.5.71,1.89.95.2.13.6.62.7,0,.12-.77-1.92-.89-1.82-1.65,1.06-1.13,1.89-2.27,1.93-3.88.3-.57,1.07.64,1.53.48.21-1.65-4.69-4.37-4.46-5.51.05-.26.38-.39.71-.24,1.55.69,3.68,2.65,5.39,3.54.32.17,3.63,1.86,3.18.58-.44-1.26-3.69-3.24-4.84-4.1-.26-.2-.58,0-.44-.6,1.39-.14,2.38,1.14,3.76.94-.04-.42-.33-.71-.13-1.16.25-.58,2.71-2.56,3.4-2.73.72-.17,1.97.13,2.13.03,1.62-1.02-.75-4-.71-5.42l.73-.25v-2.69s1.16.12,1.16.12c-3.41-3.14-4.55-8.09-8.34-10.93-.55-.41-1.19-.56-1.69-.88-.23-.15-.42.02-.3-.53,1.74.05,3.26-.46,5,0l.64,1.65c1.39-.12.17-2.45.24-3.4.03-.47.46-.78.45-1.39-.02-1.28-1.21-2.84-1.18-4.21.72-.73,4.62-2.26,4.46-3.3-.58-.67-2.07-1.19-2.44-2.03-.2-.45-.08-.97-.23-1.42-.55-1.66-1.37-3.07-1.07-4.92.29-.3,2.5,1.47,2.96-.7.44-2.07-1.97-3.28-.85-5.18,1.06.39,2,1.11,3.05,1.52.69.27,3.85,1.43,3.94.24-.33-1.64-4.64-3.76-5.01-4.59-.3-.66.32-.94.3-1.48-.02-.75-.79-1.15-.89-1.68-.09-.52.11-.28.35-.36.62-.2,4.82-1.41,4.82-1.76-.39-1.03-1.87-.63-2.23-1.06-.55-.64-.48-2.09-.69-2.83-.29-1-1.53-1.85-1.65-3.05l-2.47-.71c0-.61.32-1.06.2-1.7-.16-.79-1.09-1.04-1.14-1.82,2.12-.33,3.68.56,5.51,1.41.81-.55-.28-.93-.11-1.64,6.4-.89,1.82-2.34-.23-4.82,0-.56,4.27-.91,4.93-1.06.22-1.32-.74-.43-1.52-.48-.31-.02-4.14-1.81-4.36-2-.24-.21-.17-.59-.3-.75-.2-.24-.9-.25-1.11-.66-.09-.35.23-.38.39-.55,1.17-1.16,3.11-2.48,4.78-2.63-.86-1.54,1.54-3.05,1.19-4.54-.23-.97-3.38.52-3.54-.28-.09-.45,1.25-.89.83-2.47-.21-.82-1.87-2.57-2.43-3.45-.41-.63-2.53-3.86-2.16-4.3.33-.03,1.08.58.94-.12-.16-.79-1.88-1.46-1.06-2.23.42-.08,2.05,2.3,3.11,1.35,1.39-1.24-1.94-4.88-2.06-5.95-.1-.9,2.01-1.2,1.31-3.4-.49-1.55-5.64-4.09-5.52-4.77l1.37-1.49-.45-1.24c.81.2,6.2-1.92,6.34-2.23.04-.09.08-.59-.12-.59-.76.06-1.59-.09-2.33.01-.17.02-2.38,1-2.01.11,1.06-1.01,6.15-3.73,6.1-5.18-.01-.43-.57-.58-.46-1.05,1.29.21,2.41.86,3.73.21.21-.51-.2-1.08-.18-1.51.02-.44.45-.78.4-1.12-.16-.97-5.02-4.37-6.12-5.15-.34-.24-.68-.43-1.12-.41-.35-.32.02-.43.35-.47.41-.05,2.13.13,2.25-.39.01-1.08-.04-2.18-.02-3.26.01-.63.34-1.25.25-1.86,0,0,0-.01,0-.02.52.18,1.03.36,1.54.54,1.65-1.18,5.82-3.31,6.08-3.84.3-.6-.27-2.57-.07-3.72.23-1.36,1.69-3.59,3.06-3.99,1.48-.43,2.55.28,3.66-1.56l-.39-.64-6.39,1.82c-.1-.42.09-.6.25-.92.95-1.79,3.62-4.46,4.92-6.3,1.26-1.78,4.02-4.89,1.97-6.84l-2.7,1.28c-.27-.28,1.34-6.77,1.69-7.57.85-1.92,6.28-3.23,8.2-4.85.68-.57,2.52-3.48,2.77-4.27.38-1.22.33-3.58.78-4.7.24-.6,1.77-2.19,2.27-2.95,1.19-1.82,4.78-7.34,4.08-9.41-.52-1.56-2.71.35-3.61.22,2.48-3.07,5.21-6.33,6.65-10.05.63-1.61,2.09-6.16-1.18-5.1ZM180.74,321.36v-.47h.94c-.13.47-.5.53-.94.47ZM181.92,320.89c-.1-.53.02-.38.3-.52.35-.19,3.33-1.24,3.46-1.12,0,1.87-2.37,1.65-3.76,1.64ZM436.34,353.08l.71,2.11-.92-.02-.48-1.72.7-.37ZM440.58,306.8l1.4.59c-.48.94-1.71-.28-1.4-.59ZM432.12,364.59l-4.69-2-.25-.47c-.38-2.04,1.98-.33,2.67.16.31.22,2.58,2.01,2.27,2.31ZM434.7,338.04c-.1.23-.59-.75-.7-.94.61-.07.79.4.7.94ZM435.88,328.88c-.49-.03-1.46.71-1.76.71-1.87,0-3.77-.06-5.64,0-.34.01-1.17.7-1.53-.23,2.41-.34,4.95-.85,7.39-.95.26-.01,2.12-.13,1.54.48Z"/>
  </g>
  <g>
    <path class="cls-2" d="M4.39,13.73v-3.46H1.23v-1.34h3.16v-3.47h1.39v3.47h3.17v1.34h-3.17v3.46h-1.39Z"/>
    <path class="cls-2" d="M10.87,15.54v-1.52h2.53v-7.87h-2.06v-1.17c.54-.11,1.01-.23,1.42-.38.4-.14.77-.32,1.1-.52h1.36v9.94h2.24v1.52h-6.58Z"/>
    <path class="cls-2" d="M22.92,15.76c-.77,0-1.44-.23-1.99-.7-.56-.46-.99-1.14-1.29-2.03-.3-.89-.45-1.98-.45-3.27s.15-2.37.45-3.25c.3-.88.73-1.54,1.29-1.98.56-.45,1.22-.67,1.99-.67s1.42.22,1.97.67c.55.45.98,1.11,1.28,1.98.3.88.45,1.96.45,3.25s-.15,2.38-.45,3.27c-.3.89-.73,1.57-1.28,2.03-.55.46-1.21.7-1.97.7ZM22.92,14.29c.39,0,.73-.15,1.03-.45.3-.3.54-.78.7-1.44.17-.66.25-1.54.25-2.64s-.08-1.97-.25-2.62c-.17-.65-.4-1.11-.7-1.4-.3-.29-.65-.43-1.03-.43s-.73.14-1.03.43c-.3.29-.54.75-.71,1.4s-.26,1.52-.26,2.62.09,1.98.26,2.64.41,1.14.71,1.44c.3.3.65.45,1.03.45Z"/>
  </g>
</svg>