<?xml version="1.0" encoding="UTF-8"?>
<svg id="a4" xmlns="http://www.w3.org/2000/svg" viewBox="0 0 600 500">
  <defs>
    <style>
      .a4 {
        fill: #5d4c39;
      }

      .cls-2 {
        fill: #c9caca;
      }
    </style>
  </defs>
  <path class="a4" d="M524.51,72.75c.81-.94,1.25-2.14,1.25-3.38h0s0,0,0,0l-1.61-1.16c-.31-.42-.63-.88-1.04-1.23-3.78-3.25-18.4-5.17-19.77-8.3-.03-.06-.06-.13-.08-.2-.42-1.65,4.18-3.42,2.64-6.76-.02-.04-.03-.07-.04-.11-1.3-2.61-5.41.4-7.17.99-3.65,1.21-7.37.95-11.15.94-.21,0-.42,0-.63,0,2.38-2.5,6.01-3.78,8.42-6.21.74-.75,2.46-2.76,1.95-3.78-.14-.29-.45-.5-1.02-.58-2.98-.42-10.74,3.12-13.77,4.47-.37.17-1.34.87-2.04,1.2-.35.17-.64.25-.73.1-.06-.11-.02-.39-.07-.75-.04-.28-.14-.61-.41-.92-3.7-4.29-14.82.19-18.86,2.72l-8.74,6.13c.26-1.04.68-3.15.79-3.26.08-.08.48-.88.48-.96-.01-.53.36-1.33.48-1.92.12-.59,1.31-2.01-.48-2.4-3.12-.67-8.03,6.53-10.06,8.41-7.96,7.38-16.27,14.25-23.51,22.54-.84.96-3.29,4.93-3.85,5.26-.89.51-2.1-.05-3.16.68-1.14.79-2.09,5.98-3.16,7.87-1.56,2.75-5.42,6.83-7.59,9.44-.99,1.2-3.08,2.2-2.88,4.32-.68.26-1.33.36-1.89.93,0-.02,0-.04,0-.07-.06.05-.12.11-.19.14,0,.14.02.29,0,.42.03-.15,0-.32,0-.48.06-2.61-2.5.79-3.16,1.29-.06.05-.12.1-.19.14v-4.79c-.15-.02-.25-.01-.36,0-.82.03-.99,1.04-1.17,1.65-.26.87-.66,1.54-1.06,2.34-.21.42-.42.85-.63,1.27-.23.46-.47.92-.72,1.37-.55,1.02-2,2.68-1.82,3.93,0,.03,0,.05,0,.08.09.66-.04.58-.38.92-.09.09-.45.01-.61.15-.33.27-.32.76-.53,1.1-.25.41-.64.7-.89,1.11,0,0-.45.45-.48.48-.19.19.1.76-.06,1.03-.28.48-.93.36-1.3.72-.21.21-.31.56-.6.63-.12.03-.25,0-.37.03-.25.07-.35.42-.61.47-.12.02-.24-.02-.36,0-.17.05-.25.24-.39.36-.1.09-.23.12-.36.13-.11-.01-.22-.02-.33-.03-.03,0-.06,0-.09,0,.14.01.28.02.41.02-.14.01-.29,0-.43,0-1.22-.04-1.43,1.32-1.76-.35-.18-.9-1.08-3.15-1.14-3.31-.15-.45-2.96,2.12-3.25,3.07-.38,1.22-.22,2.58-1.1,3.61-.19.22-.92.94-1.26.7-.27-.19.18-1.59.24-1.9.1-.54.02-3.09-.99-4.36-.11-.14-.17.61-.3.73-.2.18-.41.37-.66.49-.17.08-.28.1-.44.2-.5.33-1.08.49-1.58.8-.23.14-.37.37-.54.56-.25.29-.38.27-.74.25-.05,0-.7-.02-.7-.02.05.81.17,1.11-.71.96-.72-.21.23-.91.23-.96.06-1.44-.48-1.83-.96-2.88l-.96-.96c-.1-.21.1-.74,0-.96-1.64.24-.81-2.27-2.88-2.4h-.32c-.12-.11-.86.12-.96,0-.12-.14.07-1.05,0-1.44-.05-.28.02-.64,0-.96,1.17-2.04,1.53-3.48-.48-4.8,0-.26-.03-.56,0-.82.03-.1.06-.21.1-.31.12-.18.32-.47.38-.79,0-.03.43-.12.48-.48.4-2.65-1.28-2.79-1.46-4.1-.1-.71.27-1.98.45-2.88.12-.31.23-.62.34-.92.19-.54.33-1.06.33-1.52,0-.02,0-.05,0-.07,0,0,0-.01,0-.02,0-1.14-1.24-2.28-1.31-3.54,0-.42.13-.86.49-1.31.89-.6.98-1.64,1-2.64.02-.8-.44-5.78-.61-6.58-.22-1.03-1.32-2.01-1.32-3.01,0-.98,1.09-1.75.93-3.31-.12-1.2-1.22-1.85-1.42-2.94-.93-4.95-.23-8.01-2.42-13.17-.02-.04-.03-.07-.04-.1.01,0,.03,0,.04.01-.52-1.23-.68-1.38-1.44-2.4-.03-.05-.05-.1-.06-.16,0-.09,0-.18,0-.28,0-.05,0-.1-.01-.15-.05-.26-.27-.54-1.23-.73-3.37-.67-5.63.54-6.96,3.32-.39.54-.77,1.1-1.15,1.67-1.82,2-3.15,4.68-4.4,7.24-.61,1.1-1.22,2.24-1.84,3.44-.6.82-1.53,1.36-2,2.3-1.08,2.16-1.86,4.81-2.61,7.54-1.45,3.51-2.55,6.77-2.91,9.17-.21.47-.43.92-.66,1.36-1.99.61-1.91,3.3-1.96,4.76-.1.27-.21.55-.35.88-.05.12-.12.22-.18.3-.44.24-1.04.42-1.22.96-.05.13-.07.28-.09.43-.01.03-.02.07-.04.1,0,0,0,0,0,.01-.12.32-.19.73-.16,1.32.02.41.14.58.26.66,0,.25-.03.49-.11.7-.09.28-.32.46-.57.61-.51.2-1.07.3-1.26.57-.21.3-.26.75-.27,1.27,0,.23-.01.47-.02.73-.11,1.19-.11,2.24-1.62,1.92,0,0,0,0,0,0h-.19c.03-1.78.06-3.49-1.51-3.57-.4-.02-.9.06-1.54.28-1.05.36-1.57,4.04-2.01,5.2-.23.6-.44.88-.64.95-.61.22-1.17-1.47-1.95-2.17-.95-.85-1.88-1.1-2.66-1.1-.9,0-1.61.31-1.94.39-.09.02-.16.03-.19,0-.21-.16-.67-2.72-1.29-2.89-.24-.06-.43-.09-.6-.1-1.54-.09-.82,1.7-1.97,2.31-.19.1-.37.13-.55.14-.66.03-1.29-.41-1.87-.44-.05,0-.1-.01-.16,0-.13.01-.21.93-1.06,1.03-.03,0-.07,0-.11,0-.4.02-.95-.13-1.72-.59-.93-.55-1.03-1.44-1.5-1.85-.41-.36-.73-.5-1-.51-1.47-.07-1.18,4.23-1.15,5.71,0,.02,0,.04,0,.06-1.02-.09-.71-1.52-1.05-1.82-.36-.31-3.43-.5-4.5-1.35-.07-.06-.14-.12-.19-.19.58,2.95-1.08,1.27-2.44,2.6-1.11,1.09-.98,4.2-2,4.97-.04.03-.09.07-.13.09,0,0-2.36-3.87-2.36-3.88l-2.12.04h-.01s-.01,0-.01,0c0,0-.04,0-.04,0-.2.02-.54.06-.67-.1-.41-.51.22-2.06-.8-2.83-.16-.12-.36-.2-.57-.26-.59-.24-1.27-.19-1.61-.22-.13-.2-.23-2.66-.75-3.79-.49-1.07-1.97-2.2-2.06-2.69-.11-.59.62-1.73.37-2.09-.02-.03-.1-.06-.21-.08-.31-.42-1.05.23-1.89-1.13-.24-.39-.49-.94-.74-1.75-.99-3.19-3.06-10.31-3.52-13.31-.02-.13-.02-.26-.02-.39.03-.94.51-1.79.43-2.7,0-.03,0-.06,0-.08-.01-.14-.03-.29-.08-.43-.06-.22-.21-.4-.38-.58-.18-.3-.39-.56-.79-.66-.03,0-.06-.01-.1-.01-.48-.31-.98-.63-1.34-1.08-.13-.16-.24-.33-.33-.53-.22-.53-.29-1.03-.32-1.49,0-.2-.01-.39-.02-.57-.02-.52-.07-.94-.39-1.23-.3-.27-.86-.43-1.88-.43-.05,0-.1,0-.15,0,.03.03.07.06.1.09-.04,0-.06,0-.1,0-.15-.16-.7-1.07-.96-1.44-.03-.05-.06-.1-.1-.15.03.02.07.03.09.06-1.51-2.17-2.87-5.28-4.32-7.67.13.22.21.39.27.54-.09-.15-.18-.31-.26-.45-2.79-4.6-6.62-12.83-11.46-9.83-.23.14-.46.3-.7.5,0,0,0,0-.01,0-.22.18-.44.4-.67.63-.09.09-.18.2-.27.3-.13.14-.25.29-.38.45-.12.15-.24.29-.36.46-.09.13-.19.27-.28.4-.12.17-.24.33-.36.52-.76,1.17-1.27,2.28-1.65,3.4,0,.02-.01.04-.02.05-.12.35-.22.71-.32,1.07,0,.02,0,.03-.01.05-.09.37-.18.74-.25,1.12,0,.02,0,.04-.01.07-.04.19-.07.39-.11.58-.29.42-.28,1.07-.25,1.69-.05.43-.11.88-.16,1.34,0,0,0,0,0,0-.16,1.4-.43,3.45-.5,4.94-.01.23-.02.45-.02.66,0,1.29.34,2.64.51,3.95.01.1.02.21.04.31.04.4.07.8.05,1.19-.01.24-.04.47-.08.7-.23,1.18-1.63,1.8-1.75,3.43,0,.02,0,.04,0,.06,0,.01,0,.02,0,.03-.1,1.33.79,3.19.83,4.73.02.66.01,1.34,0,2.04,0,.1,0,.2-.01.29-.02.64-.05,1.29-.09,1.95,0,.04,0,.07,0,.1-.11.97-.19,1.95-.2,2.94-.03.48-.06.97-.09,1.45,0,.16-.02.32-.03.48-.02.32-.04.64-.05.95-.02.46-.04.91-.04,1.35,0,.05,0,.11,0,.16,0,.54,0,1.08.01,1.6,0,.01,0,.03,0,.04,0,.02,0,.04,0,.05.04,1.26.75,3.24.84,4.64,0,.18,0,.36,0,.51-.06.59-.5,1.16-.86,1.81-.21.38-.38.79-.45,1.25,0,.07-.02.13-.02.2,0,.06-.02.11-.02.17,0,0,0,0,0,.01,0,.03,0,.05,0,.08.02,1.54,1.42,1.86,1.47,2.83,0,.06,0,.11-.02.17,0,.04,0,.09-.02.13-.14.54-.59,1.11-1.02,1.67-.28.36-.54.72-.71,1.07-.11.23-.17.46-.18.68,0,.04,0,.08,0,.11,0,0,0,.01,0,.02,0,.01,0,.02,0,.03,0,.03,0,.06,0,.09.01.08.03.16.07.25.01.03.02.06.04.09.04.08.1.17.17.25.02.02.04.05.06.07.08.09.18.17.3.26.02.02.04.04.07.05.15.1.32.2.52.3,0,0,0,0,0,0,.2.1.42.19.67.28-.25.3-.62.71-.9.89.02,0,.04,0,.06,0-.12.12-.22.27-.29.45h0c-.07.04-.14.07-.21.09,0,0,0,0,0,0-.02,0-.05,0-.07,0-.03,0-.06,0-.09,0-.12,0-.23-.03-.32,0l-.19.1-1.42.71-.3.15c-.6.69-1.35,2-1.92,2.88-.1.16-.27.69-.59.76-.63.13-1.57-.31-1.67-.32-1.1-.09-1.83-.65-2.88-.87-.05-.01-.09-.03-.14-.04-.2.37-.69,1.19-.98,1.45-1.18,1.1-2.14,1.03-3.65.95-.06,0-.11,0-.16,0,.11.51.45,2.06.48,2.4v.48c0,.17.05.4,0,.48,0,.01-.02.02-.03.04l-5.08.92c-.19-.1-2.63-.03-1.92-1.92l.96-.48c.46-.1,1.79.14,1.92,0,1.38-1.49-2.38-2.07-3.87-1.73-.86.2-2.05,1.28-2.54,1.19-.44-.08-1.37-1.43-2.69-1.68-.52-.1-2.67.17-2.87.29,0-.01,0-.02,0-.03-.06.02-.12.03-.18.04,0,0,0,0,0,0-.09-.84-.53-1.7-.97-2.41-.24.11-.61-.24-.76-.41-.07-.09-.21-.23-.23-.35,0-.05.03-.1.02-.15-.02-.14-.14-.24-.19-.37-.06-.16-.1-.33-.14-.49-.03-.11-.03-.35-.11-.43-.1-.11-.34-.12-.47-.24-.15-.14-.23-.38-.33-.55-.07-.12-.16-.22-.22-.34-.05-.11-.06-.23-.12-.34-.09-.16-.25-.29-.37-.43-.17-.2-.28-.43-.41-.65-.29-.5-.6-.98-.98-1.41-.16-.19-.33-.36-.5-.53l-.48-.48c-2.82-2.22-3.58-1.22-5.75-2.16-3.33-1.45-3.1-9.08-4.57-9.82-.08-.04-.14-.05-.21-.06-.58-.11-.48.87-.7,1-.02,0-.03.03-.05.03-1.09.01-1.61-1.67-2.46-1.84-.05,0-.1,0-.14,0-.7-.02-1.57.68-2.28.79-.11.02-.22.02-.33,0-.19-.04-2.59-2.61-2.7-2.79-.01,0-.02,0-.03,0,0,0,0,0,0,0,.03-.05.07-.1.11-.14-.79-1.46-1.4-5.36-2.57-5.61-1.46-.31-1.1,2.3-1.2,2.4-1.62,1.68-3.83-3.72-4.2-4.67-.66-1.7-2.17-8.99-2.98-9.5-1.25-.8-1.72.87-2.89.75.05-5.46-2.21-2.93-3.83-3.58-.95-.38-4.52-4.43-6.17-5.37-4.31-2.47-7.69-3.23-11.84-6.86-1.43-1.25-3.36-4.81-5.07-3.64-.57.39-.31,1.5-.44,1.7-.17.26-.29.44-.4.62-.05-.07-.1-.14-.14-.21-.52,1.13-4.14,5.2-5.34,5.25-1.82-1.03-4.69-8.73-5.85-9.01-.05-.01-.09,0-.14-.01,0,0,0,0-.01,0-1.82-.5-1.38,1.42-1.87,2.33-.74,1.39-6.01,1.56-7.66,1.45-6.18-.39-10.66-3.8-15.82-6.72-.18.17-.31.33-.42.49,0,0-.02,0-.02,0-.1,0-.18.02-.23.07-.1.1-.08.51-.01.93,0,.02,0,.03,0,.05.06.36.16.73.25.93.07.15,1.68,1.78,2.56,3.01,0,.01,0,.03.01.04.13.72,0,.85-.72.72l-11.27-5.53c-3.14-.65-3.46.04-3.27,1.38-.07.9.2,2.49.45,4.2.06,1.89.05,4.4-.32,5.22-1.01,2.26-4.7,1.35-6.24,2.78-1.96-1.34-3.87-4.8-6.25-5.16-5.34-.81-2.09,3.95-2.61,4.3-.14.09-1.25-.08-1.92.24-1.13.54-1.15,2.18-.86,3.25l.09.22c.31,1.36,1.18,3.38,2.14,5.5l2.89,7.43c.07.68-2.19,2.52-2.59,3.97-.83,3-.49,7.45.4,11.86.67,3.7,1.83,7.27,2.97,10.05.06.14.12.29.17.43.02.04.03.08.05.12.04.08.08.18.12.27.1.22.2.46.3.67.81,1.73,3.57,5.59,3.83,6.73.07.33.13.67.18,1.02.07,1.23-.18,2.5-.01,3.69.08.55.18,1.1.28,1.66.06.96.16,1.93.37,2.9,1,4.66,3.18,10.11,6.09,15.37,2.81,5.36,6.28,10.3,10.1,14.08,1.57,1.55,3.13,2.69,4.69,3.68.43.3.86.59,1.29.85.42.26.87.49,1.34.71,1.83,1.05,3.67,2.07,5.54,3.48,3.24,2.42,5.99,5.76,9.55,7.82.91.53,2.46.51,2.89,1.26-.01.13-.02.24.02.27.02.01.05.02.08.03.02.12.02.26-.02.41-.04.17-.58.47-.51,1.16.22,2.16,8.39,5.04,10.1,6.76-7.82,5.23,4.91,6.56,7.47,8.84.66.58.73,1.71,1.38,2.46.49.58,2.1,1.24,2.19,1.67.15.66-1.45,1.43-.74,2.15,3.78.56,3.52,2.83,5.54,5.02.51.55,2.21,1.87,2.91,2.37,1.56,1.12,7.06,3.33,7.52,3.76.13.12.69,1.65,1.09,2.27-.26.33-.76.63-.96.96,0,0,0,.01,0,.02-.05,0-.1-.02-.15-.02-.09.15-.17.38-.25.61-.25.26-.37.61-.51.75-.02.02-.03.04-.05.05-.31-.1-.77-.31-1.18-.31-.29,0-.56.1-.73.43-.44.12-.52.6-.11,2.44.76,3.37,6.49,5.81,6.61,6.35.16.69-.3,1.16-.97,1.51-.02.01-.05.03-.07.04-.36.18-.76.32-1.16.44-.35.11-.69.2-.99.28-.24.06-.45.12-.61.18-.15.06-.26.11-.31.17-.27.36-.06,1.41.11,2.01.07.23.13.4.17.42.08.06.54-.06,1.19-.19,1.02-.21,2.49-.44,3.63-.08.36.11.65.28.93.47.12.08.24.16.37.27.69.62,1.12,1.45,1.56,2.22.01.05.02.11.04.17.02,0,.04,0,.05,0,.06.11.14.2.21.31.11.18.22.37.35.53.17.21.74.11.77.16.01.02.01.04.02.06.02.06.03.12.04.18,0,.21-.13.45-.32.71-.13.17-.29.35-.45.53-.05.06-.11.12-.16.18-.07.08-.15.17-.22.25-.17.19-.32.39-.45.59-.22.34-.36.69-.29,1.02.03.13.13.29.27.45.09.1.18.21.3.32.5.49,1.19,1.04,1.5,1.49.41.59.65,1.27.95,1.9.09.32.19.64.32.93.06-.01.11-.01.16-.01.02,0,.04,0,.08.02.26.33.93.39,1.06.58.33.48,0,1.5.06,2.03.01.1.03.19.08.25.02.03.15.07.34.11.27.07.67.15,1.08.22.25.04.49.08.72.12.41.06.77.1.91.08.7-.09,1.77-1.39,2.18-.98.83.83-.61,1.61-1.69,2.23-.08.05-.17.1-.25.14-.29.17-.52.33-.65.47-.01.01-.03.03-.04.04-.05.06-.08.12-.12.18-.84,1.22-.63,2.62.18,3.56.68.8,1.79,1.28,3.06,1.05.17.12.1.46-.1.92-.37.83-1.19,2.06-1.92,3.12-.23.34-.46.66-.66.94-.32.46-.58.83-.68,1.02-.03.06-.06.11-.1.17-.41.72-.84,1.38-1.09,1.96-.02.05-.03.1-.05.15-.1.26-.17.51-.17.73,0,.03,0,.07.01.1.05.37.3.65.89.82.36.1.83.17,1.46.18.07.16.04.35-.03.55-.09.12-.21.2-.3.27-.05.04-.09.07-.11.1-.11.27-.17.44-.21.56-.31.37-.68.74-1,1.1-.75.81-1.29,1.52-.41,1.74,1.95.48,1.92,1.37,1.5,3.36-.01.05-.02.09-.03.14-.11.5-.29,1.03-.53,1.59-.13.3-.27.6-.43.9-.1.18-.19.37-.29.55-.12.22-.25.43-.39.65-.12.02-.28,0-.46-.02-.05,0-.1,0-.16-.02-.25.8-.59,1.57-1,2.31-.4.72-.88,1.4-1.4,2.01l-.48.48c-.74.79-2.04,1.56-2.88,2.4-.05.13-.13.26-.22.38-.21.29-.5.57-.84.84-.11.09-.22.18-.34.27-1.34,1.02-3.05,2.11-2.94,4.04,0,.08,0,.15.01.23,0,.09.01.16.02.24.02.2.05.39.09.54.18.72.57.97,1.07.92h0s.09,0,.14,0c.05,0,.11-.01.16-.02.02,0,.04,0,.06-.01,1.48-.26,4.94-2.38,6.7-2.63.03-.02.05-.05.08-.06l.29,1.76c0,.21-.12.28-.28.3-.21.02-.48-.05-.62-.04-.03,0-.07,0-.08.02-.99.81-2.05,2.24-3.04,3.51-.09.09-.18.18-.27.27v.06s-.02.04-.02.04c-.34.43-.67.83-.99,1.17.19.4,1.58.32,1.92.24l.48-.48s.11-.04.16-.07c.19-.08.4-.16.62-.26.11-.04.22-.09.33-.14.42-.17.86-.36,1.29-.55.5-.19.98-.37,1.19-.49,0,0,0,0,0,0,1.37-.15,1.79.02,1.19,1.04-.44.32-1.45,1.01-2.58,1.79-1.5.96-3.31,2.18-4.16,3.16-.25.24-.41.44-.44.57-.02.09-.02.17-.02.25-.02.14-.01.27.06.38.01.02.08.04.17.06.33.28.92.38,1.16.67.22,1.1-2.73,2.75-2.72,3.58-.2.49.03.86,1.18.9,1.35.05,2.97-.44,4.41-1.15h0c1.29-.51,2.5-1.23,3.69-1.98h0c.12.02.24.01.34-.01.04,0,.07-.02.1-.03.41-.13.65-.29.73,1.17.05.81.32,1.74-.64,1.71-.05,0-.1,0-.16,0-.06,0-.1,0-.16-.02-.16.92-.38,1.76-.72,2.53-.02.04-.03.08-.05.13-.37.79-.88,1.5-1.63,2.14-.42.36-.62.31-.96.48-.29.14-.57.25-.86.37-1.78.49-3.9.63-5.33.99-.02.02-.02.05-.05.08,0,.02,0,.04,0,.06,0,.02,0,.04,0,.07.14,2.5,3.77,3.6,3.36,6.5h-1.88s.01.06.01.09h-.06c.11,1.2.84,1.78.97,3.11.18,1.84-.88,4.43-.44,5.71.3.89,1.84.99,2.65,1.21.52.14.93-.05,1.1.15-.36.51-1.71.54-2.22.62-.53.08-1.06.13-1.59.15-.01,0-.03,0-.04,0-.46.01-.93.02-1.4-.02h0s-.02,0-.03,0h0c-.05,0-.11,0-.16,0l-.06.35c-.57.15-.92.42-.71,1.19,1.62.89,2.87,1.61,4.61,2.37.12.05.31.05.47.08.2.18.3.35.24.54,0,.02-.01.05-.02.07-.04.08-.13.22-.26.4-.24.34-.61.84-1.02,1.36-.92,1.18-2.02,2.5-2.25,2.54-.02,0-.05.02-.07.03-.84.28-3.67,3.28-3.46,4.81.46.22.91.31,1.35.32,2.64.03,4.9-3.29,6.03-3.46.15-.02.27-.02.38-.01.6.05.64.5.55.96-.09.45-.32.9-.27.93.08.06.43.12.9.17,1.32.5,3,.18,4.33-.05.02.16.01.31-.01.46-.46.94-1.67,2.11-2.09,2.91-.6.67-.64,1.08,1.63.95-.12,2.15-.43,4.16-1.14,5.98-.72,1.79-1.84,3.39-3.6,4.73,0,.04.01.08.01.11-.02.01-.03.02-.04.04.02.03.04.06.06.09.05.17.17.34.35.51,1.28,1.76,2.97,3,3.35,5.3.04,1.32-.34,2.59-.8,3.89-.36.6-.74,1.15-.95,1.8-.18.56-.61,3.13-.61,3.72,0,.25.02.4.06.51,0,.02,0,.04.02.07.19.37.67-.08,1.3.35-1.01,1.03-2.29,1.99-2.66,3.38-.03.1-.06.19-.08.29-.04.24-.05.5-.03.77l.16-.05.97-.32,1.75-.58,1.43-.48s0,.04.02.06c.17.3-.15.79-.63,1.3-.19.09-.33.17-.39.22-.19.18-.49.53-.77.9-.29.27-.53.49-.63.64.06.01.12.02.19.03-.14.24-.23.45-.24.59.58.92,1.36-.2,1.44-.24l.44-.44.04-.04s.09-.02.14-.01c.12,0,.24.05.34.01,0-.04,0-.08-.01-.12,0-.02,0-.05,0-.07.73-.31,1.43-.76,2.16-1.11.09-.01.19-.02.28-.04.92-.11,1.99-.15,2.37-.1l.5-.24c.14.04.29.1.43.16.06.02.11.04.17.06,1.5.66,1.92,1.51,2.13,2.44.06.29.11.59.15.9l-.02.05c.04.12.06.23.09.35,0,.04.02.08.02.12.08.43.19.86.42,1.3l.15.15.33.33h.64c-.08.9.44,1.24.79,1.67.06.12.11.3.18.55.19.71.49,1.85,1.22,2.73h.42c.06.1.14.21.27.33.75.67,2.09.73,2.66.88,0,.24,0,.48,0,.71.51.35,2.28,1.55,3.52,2.43.34.31.64.59.84.77.04-.02.07-.04.1-.06h0s.05.04.07.06c.95.86,1.68,2.63,3.19,2.84-.03.25-.05.48-.04.68.02.38.2.74.34,1.03.06.25.11.5.14.75,0,.21-.02.41,0,.61.07-.02.14-.03.2-.04-.03,2.45-.6,5.9.08,8.19.19.63.71.93,1.36.8-.02-1.36-.18-2.56.48-3.83.01,0,.02,0,.03,0,.08-.16.32-.38.48-.48,1.05.11,2.34-.16,3.33,0,1.08.18,1.46.77,2.22,1.31,0,.04,0,.09.01.12.18.86,1.19,1.68,1.44,2.4.04-.04.07-.08.11-.12.02.04.04.08.05.12.7,1.99,2.6,6.69,2.85,8.42.18,1.23-.7,5.25-.45,5.48.91.88,2.21-.43,2.38-1.64,2.19.39,3.93,1.91,5.57,3.27.17.04.31.05.43.04.78.79,1.46,1.52,2.08,2.5.7,1.09,1.01,2.79,2,3.5.71-2.41,1.33-6.35,3.15-8.14.34-.34.77-.41,1.01-.45v1.45c-.29.92-.59,1.97-.52,2.05.42.48,1.39-.8,1.97-1.69l1.13-1.36c1.96,2.2-.99,12.5-.49,12.93.15.13,1.23-.16,1.41.03.5.54-.59,3.12-.45,3.32.07.1,2.14.64,2.38.48.4-.29.73-3.39.98-3.95.05-.12.14-.2.24-.27,0,.04.02.08.03.12.16-.12.72,0,1.19-.47.19-.19.39-.57.58-.98,0,0,0,0,0,0,.32-.5.53-.97.86-1.61,1.14.61,1.25,3.38,1.36,4.6.28,3.14-.98,7.93,3.42,8.33.17-.17-.35-4.11-.48-4.79,1.96.27,1.17-.28,1.44-.96h.03c.27-.7,1.07-2.28.96-2.88,0,0,0-.01,0-.02,3.06-2.67,3.86,2.9,4.24,5.11.51,2.95-1.11,3.4,2.45,4.5-.5,1.09,2.84,1.8,3.84,1.92.59.07,1.62.17,1.92-.48.22,0,.43,0,.65,0,.03,0,.06,0,.08,0,.25,0,.49,0,.73-.01,0,0,0,0,0,0,2.02-.11,3.68-.28,5.59-.92h0c.84,1.27,1.36,2.79,2.62,3.79.02-.03.02-.08.04-.11.04.04.08.08.12.11,0,0,0-.01,0-.02,0,0,.01.01.02.02.41-.79,0-2.51-.24-3.35h1.25c.03.08.86,1.32.96,1.44.02-.05.03-.11.05-.16.05.08.1.14.12.16.03.03-.08.35.24.47,1.03.3.56-.6.81-.83.75-.67,2.48.4,3.41,1.07.06.08.11.16.17.24,1.03,1.39,1.54,1.69,1.88,1.63.39-.07.53-.61.95-.48.02,0,.03,0,.05.01,1.06.45,2.5,3.36,4.07,3.64.13.02.23.02.32,0,1.23-.2-.62-3.62.16-4.33.03.05.06.1.09.16.88,1.6,2.39,2.46,3.51,3.68.07.01.12.02.19.03.74.84,3.65,5.36,4.77,4.28l-.47-5.75c1.61.12,3.15.99,4.7.05,2.04,1.6,3.6,2.94,6.41,2.84,0,0,.01,0,.02,0,1.4-.07.44-1.89.7-2.89.07-.01.13,0,.19,0h.01c.08,0,.16,0,.23,0,.87.18,1.2,1.41,2.19,1.42.03,0,.07,0,.1-.01.85-.12,4.37-1.7,5.54-2.03,3.45-.97,6.7-1.84,10.18-1.92,1.09-.03,2.19.02,3.34.17,3.16.42,3.55,1.48,5.52,1.5.81,0,1.88-.15,3.53-.61.97-.27-.37-.22,2-.45,1.74-.17,3.83-2.96,5.01-4.51-.67-.43-.52-1.71.48-1.71.02,0,.03,0,.04,0,.07,0,.12.02.18.04,0-.02,0-.04.01-.05,0,0,0,0,0-.01.14-.11,1.33-.61,1.9-.95.29-.17,1.26.4.96-.95.21,0,.44.03.63.02.04,0,.09,0,.13,0,.09,0,.17,0,.23-.03l.02-.02c.3-.1.31-.18.41-.41l.05-.05c.06-.12-.05-.32,0-.48,1.37.33.98-1.37,1.41-2.4,0,0,0,0,0,0,.01,0,.02,0,.03,0,.06-.15-.07-.42,0-.48,0,0,0,0,0,0,.14-.05.67.16.88-.05.14-.14.07-.47.05-.69-.05-.1-.08-.2-.1-.3.27-.4.62-1.11.88-1.33.06,0,.2,0,.21-.02h0c.15-.11.58-.21.94-.48,1.14-.85.53-.5.96-.96.12-.13,1.48-.33,1.92-.48.82-.28,1.79-.19,2.4-.96.32-.01.64,0,.96,0,.99.02,2.05.24,2.87-.47h0c.3.03.6.04.91.04.65,0,1.32-.04,1.97-.05.27,0,.54,0,.8,0h0c.05,0,.11,0,.16,0,1.49.07,1.09.37,2.88,0,.47-.1.76-.42.96-.48.5-.15,1.58.32,1.92-.48.14,0,.28,0,.41,0h0s.05,0,.08,0c.17,0,.33,0,.49-.01,0,0,0,0,0,0,.51-.05,2.75-.38,2.85-.48.86-.81-.92-1.14-1.41-1.42,0,0,0-.01,0-.02-.29-.18-.5-.54-.95-.49,0,0,0,0,0,0-.02,0-.05,0-.07.01-.04,0-.08-.02-.12-.01.12-1.1.49-1.4.97-1.34.77.09,1.84,1.06,2.73,1.24.56.12,1,.16,1.37.17,2.03.01,1.24-1.55,1.65-1.98.04-.04.13-.05.26-.03.66.1,2.31.93,3.43.91h0s.09,0,.13,0c.18-.02.34-.05.48-.13.8-.42,1-1.57,1.45-2.19l.48-.48c.08-.1-.08-.4,0-.48,0,0,.19,0,.19,0,.92-.04,1.86.06,2.77,0,0,0,0,0,0-.01-.03,0-.05,0-.08,0,3.72-.27,3.84-1.43.96-3.84l-.96-.48s-.02,0-.03,0c-.07-.02-.15,0-.24,0-.07.01-.15.02-.21,0l-.96-.48s-.1,0-.15-.01c-.06,0-.11,0-.18,0-.83-.91-1.04-1.77-1.43-2.87l1.43.48.45-1.35s-.09-.06-.13-.09c-1.33-.91-4.25-3.96-5.71-6,1.55,2.09,4.37,5.02,5.68,5.92.04.03.09.06.14.09,1.68,1.15,5.31,3.48,7.4,3.44.05,0,.1,0,.15,0,.14-.01.27-.03.39-.06.48-.13.08-1,.6-1.53.15-.15.51-.43.97-.77-.14-.16.85-.68,1.66-1.15.53-.3.98-.58,1-.72,0-.02,0-.04,0-.05h0c.42-.3.74-.54.87-.66.03-.03.06-.05.07-.07.08-.12.1-.24.1-.34,0,0,0,0,0,0l-.02-.07c-.01-.07-.03-.14-.07-.21l-.6-1.9-1.41-3.03c.95.37,2.63.65,3.64.88.06,0,.11,0,.16,0,.76.17,1.67.89,2.88.48.36-.96-.71-1.14-.92-1.4,0-.01,0-.02,0-.03-.35-.72-.46-1.1-.48-1.92h-.03c0-.16-.02-.33,0-.48.06-.55.68-2.75.92-3.07.37-.5,1.28-.17,1.42-.32.56-.61-1.02-2.97,1.5-2.37-.21-.6-1.17-3.76-1.4-4.25-.04-.04-.07-.08-.1-.13-.03.02-.06.05-.1.07,1.46-.89,2.8-2.11,4.12-3.34s2.63-2.46,4.03-3.37h0s.18,0,.18,0c.23-.11,1.1.22,1.65-.46.58-.72.45-2.63.61-2.93-.02.02-.03.03-.05.05.02-.03.04-.05.07-.07.42-.33,1.68-.22,1.83-2.63.01-.16,0-.33-.04-.52-.05-.26-.14-.54-.25-.84-.1-.26-.2-.54-.32-.83-.07-.16-.13-.32-.19-.49-.17-.42-.33-.84-.45-1.28-.14-.5-.23-1.01-.21-1.5.03-.71.28-1.39.92-1.98.15-.14.33-.27.52-.4.03,0,.23-.04.24-.05.52-.3,1.94-.46,2.68-.46h0c1.46.05,2.4.35,3.29.35h0s0,0,0,0c.02,0,.04,0,.07,0h0s.06,0,.09,0c.94-.05,1.84-.5,3.24-2.03,2.19-2.4,1.11-3.86,1.56-6.59.55-3.36,3.62-5.47.31-9.66-.62-.78-1.29-.67-1.38-.76.02.02.06.03.11.04,0-.03,0-.05,0-.08-1.52-1.51-1.53-2.66-2.31-4.62,2.82,1.73,5.36,4.02,8.9,4.16.35-2.09-1.42-3.41-1.92-5.25-3.82-.89-1.35-3.59,1.41-.04.01.01.02.02.03.04.05.01.1,0,.16,0h0s0,0,0,0c0,0,.02,0,.03,0,0,0,0,0,0,0,.04.01.09,0,.13,0,0,0,0,0,.01,0,.05,0,.1-.01.15,0l.48.48c.05.01.11,0,.16,0h0s0,0,0,0c0,0,.02,0,.03,0h0c.09.02.19.01.29,0h0l.95.48c.1.03.21.01.33,0,.05,0,.1-.01.15,0h1.92c1.15-1.1-.19-1.41-.38-2.28-.17-.78.46-1.48.19-2.52-.71-2.75-6.36-7.4-6.45-10.3-.02-.69.35-1.71.4-2.64.07-1.43-.05-2.88,0-4.32-.24-.31-.58-1.85-.79-2.93.11.02.21.03.3.04.03,0,.06,0,.1,0,.01,0,.02,0,.04,0,.11,0,.22-.01.36-.06.04-.05.04-.12.02-.21,0-.17-.22-.56-.59-1.1-.29-.43-.65-.92-1.02-1.39-.02-.02-.03-.04-.05-.07-.09-.11-.17-.22-.26-.33-.05-.07-.11-.14-.16-.21-.05-.07-.11-.14-.16-.2l-1.16-2.87c-.01-.53,1.04-.11,1.45-.25,1.32-.43.89-1.85.96-2.88-.71-.97-1.3-2.67-1.44-3.84-.04-.31.03-.64,0-.96-.01,0-.02-.02-.03-.03-.01-.01-.03-.03-.04-.04-.08-.07-.15-.14-.22-.25,0,0,0-.02-.01-.02-.14-.22-.25-.51-.35-.85-.3-1.01-.43-2.44-.43-3.52,0-.01,0-.02,0-.04,0-.14,0-.27,0-.39,0-.05,0-.09,0-.14,0-.08,0-.16.01-.23,0-.06.01-.11.02-.17,0-.05.01-.1.02-.14.01-.07.02-.12.04-.17,0-.02,0-.04.01-.06,0,0,0,0,0,0,0,.02,0,.04-.01.06-.01.05-.03.11-.04.17,0,.04-.01.1-.02.14,0,.05-.01.11-.02.17,0,.07,0,.15-.01.23,0,.05,0,.09,0,.14,0,.12,0,.25,0,.39,0,.01,0,.02,0,.04,0,1.08.13,2.5.43,3.52.1.34.21.63.35.85,0,0,0,.02.01.02.07.1.14.18.22.25.01.01.03.03.04.04.07,0,.13-.02.21-.02.01,0,.02,0,.03,0,.08-.08.28-.25.28-.56,0-.96-.6-2.13-.32-3.23,1.22.76,2.36,1.15,3.83.96.16-.98-.85-1.22-.95-2.17-.32-2.93.59-2.28-1.45-5.5-.11-.18.19-.84-.14-.94-.04,0-.08,0-.12,0,0,0,0,0-.01,0l-1.16.94c-.07-1.32-1.73-2.93-1.08-4.13.22,1.12,1.05,1.53,2.06,1.54.06,0,.12,0,.19,0,.13,0,.25,0,.38-.02.39-.05.79-.13,1.17-.25,0-.01-.02-.02-.02-.03.16-.04.33-.07.49-.14.22-.09.43-.18.67-.22.01-.2.02-.4,0-.57,0-.02-.02-.03-.02-.05l.05.05c-.09-.43-.47-.45-.48-.48l.02.02s-.05-.01-.05-.02c-.83-2.64-1.74-4.67-3.36-6.96l2.39-.24c.12-1.09-.46-1.99-.96-2.88.8.24,3.41.95,4.15.25-.03-.08-.06-.17-.08-.25.03,0,.06,0,.09,0,.17-.5.06-3.05,0-3.84-1.62.29-.48-.95-.61-2.11.13,1.14-.97,2.36.55,2.12.07-.03.14-.05.22-.07-.13-1.82-.17-1.61-.63-2.28-.05-.19-.15-.37-.3-.54-.05-.1-.12-.2-.18-.3-.05.02-.11.03-.17.03.05.09.11.18.16.27-1.36-2.46-3.52-5.19-5.29-7.42-.76-.95-4.24-3.33-2.07-4.01.19-.06.46-.06.75-.05.16,0,.32,0,.48,0,.6,0,1.11-.08.85-.74-.34-.89-2.77-3.02-2.84-3.43-.14-.78,1.14-1.24,1.34-1.96.67-2.35-5.04-7.18-4.73-10.21.06.03.13.06.19.1,1.22.61,2.48,1.27,3.89,1.35.35.02.65.03.91.02,3.87-.08-.84-3-.72-4.56.03-.41,5.54-3.86,5.72-4.17.73-1.28-2-2.63-1.37-3.29.05.03.09.06.14.09,2.22,1.43,5.07,2.28,7.17,2.25,3.05-.05,4.51-1.95.14-6.67-2.67-2.88-9.47-7.7-11.32-10.76-.41-.68-.44-.91-.45-1.69,0-.03,0-.06,0-.09.11.02.21.06.29.12.72.21,5.45,1.59,5.38,1.39-.26-.73.5-2.29.83-2.76.3-.43,1.68-.42,1.82-.6.19-.26-.49-2.14-.44-3.02.2-3.45,2.34-7.27,4.76-9.68,1.55-1.55,8.87-5.83,9.16-6.31,1.11-1.9,1.32-5.57,3.15-8.3,0,0,.01,0,.02,0,1.5-2.18,4.08-4.02,5.76-6.23.42-.56.26-2.02,1.92-1.92.49-.63.95-1.3,1.44-1.92-.15-.91.04-1.12.96-.96.15-.19.35-.32.48-.48l.48-.48c.29-.37.6-.94.95-1.43,0,0,0,0,0,0,.11-.08.4-.44.52-.52,1.04-1.27,1.69-2.65-.35-2.85,8.85-8.04,13.09-12.58,20.35-21.59-.01.03-.03.07-.04.1,1.82-2.36,5.64-4.23,5.21-7.25-.03,0-.06,0-.09,0v-.03s.02,0,.03,0c0,0,0,0,0,0,.08-.01.19-.04.34-.08,3.57-.85,8.5-1.33,9.19-5.01.24-.74.22-1.62-.11-2.73-.17-.57-.7-.85-1.2-1.16-.38-.33-.67-.72-.54-1.57-.01,0-.02.01-.03.02,0,0,0,0,0-.02,3.71-1.95,2.04-3.52,2.88-6.71,0,0,0,0,0,0,.01,0,.02,0,.03,0,.01-.05-.11-.43-.09-.49,0-.03.02-.05.03-.08.02,0,.05,0,.03-.08.78-2.54,2.34-3.03,3.77-4.89,5.14-6.67,7.32-12.05,7.21-20.63-.07-5.12.66-8.65,2.15-13.68.52-1.76,1.97-6.94,3.47-7.56,1.54-.64,3.51-.64,5.25-1.46,1.97-.93,5.1-3.74,4.95-6.06-.09-1.42-1.91-2.25-1.38-3.78l1.09-1.28Z"/>
  <g>
    <path class="cls-2" d="M9.56,15.76c-.77,0-1.44-.23-1.99-.7-.56-.46-.99-1.14-1.29-2.03-.3-.89-.45-1.98-.45-3.27s.15-2.37.45-3.25c.3-.87.73-1.54,1.29-1.98.56-.45,1.22-.67,1.99-.67s1.42.22,1.97.67c.55.45.98,1.11,1.28,1.98.3.88.45,1.96.45,3.25s-.15,2.38-.45,3.27c-.3.89-.73,1.57-1.28,2.03-.55.46-1.21.7-1.97.7ZM9.56,14.29c.39,0,.73-.15,1.03-.45.3-.3.54-.78.7-1.44.17-.66.25-1.54.25-2.64s-.08-1.97-.25-2.62c-.17-.65-.4-1.11-.7-1.4-.3-.29-.65-.43-1.03-.43s-.73.14-1.03.43c-.3.29-.54.75-.71,1.4s-.26,1.52-.26,2.62.09,1.98.26,2.64c.17.66.41,1.14.71,1.44.3.3.65.45,1.03.45Z"/>
    <path class="cls-2" d="M18.47,15.76c-.77,0-1.44-.23-1.99-.7-.56-.46-.99-1.14-1.29-2.03-.3-.89-.45-1.98-.45-3.27s.15-2.37.45-3.25c.3-.87.73-1.54,1.29-1.98.56-.45,1.22-.67,1.99-.67s1.42.22,1.97.67c.55.45.98,1.11,1.28,1.98.3.88.45,1.96.45,3.25s-.15,2.38-.45,3.27c-.3.89-.73,1.57-1.28,2.03-.55.46-1.21.7-1.97.7ZM18.47,14.29c.39,0,.73-.15,1.03-.45.3-.3.54-.78.7-1.44.17-.66.25-1.54.25-2.64s-.08-1.97-.25-2.62c-.17-.65-.4-1.11-.7-1.4-.3-.29-.65-.43-1.03-.43s-.73.14-1.03.43c-.3.29-.54.75-.71,1.4s-.26,1.52-.26,2.62.09,1.98.26,2.64c.17.66.41,1.14.71,1.44.3.3.65.45,1.03.45Z"/>
  </g>
</svg>