<?xml version="1.0" encoding="UTF-8"?>
<svg id="a4" xmlns="http://www.w3.org/2000/svg" viewBox="0 0 600 500">
  <defs>
    <style>
      .a4 {
        fill: #5d4c39;
      }

      .cls-2 {
        fill: #c9caca;
      }
    </style>
  </defs>
  <g>
    <path class="a4" d="M461.84,105.68c-1.47-.3-2.18.93-2.88,1.92-1.22.5-1.25,2.56-2.88,2.4.3-2.37-.4-5.01-2.41-6.46-.76-.55-1.81-.63-2.38-1.48-.18-.68,3.98-7.18,4.78-8.13,1.22-1.45,3.74-3.08,4.24-4.87.15-.55.01-1.2.19-1.73.67-2.04,1.96-3.22.79-5.31-1.35-2.41-5.14-2.5-7.61-2.71-.11-2.31.15-4.67.02-6.98-.08-1.52-1.11-3.41-.27-5.03.21-.41,1-.7,1.17-1.24.27-.88-1.15-5.14-1.89-5.71-.58-.45-1.22.15-.94-1.42.22-1.25.71-1.64-.02-3.12-2.37-.24-4.06,2.08-6.06,3.27-.92.55-5.87,3.02-6.38,2.45-.06-.06-.11-.72-.48-1.19-2.33-2.96-4.91.85-7.69,1.21l-.96-2.88c0-.16,0-.32,0-.48-1.22-1.07-1.43,1.11-2.88.96h-.48c-2.36,2.18-2.4,6.71-4.62,8.09-.56.35-1.57.47-1.62.54l-2.64-4.8c-1.31-.38-2.45,3.24-2.16,4.32-3.63.42-4.24,3.56-6.47,5.28-1.96,1.53-4.52,2.39-6.73,4.3-1.02.88-4.66,5.06-5.3,5.25-1.72.5-1.7-2.24-2.84-1.88-1.43.44-1.48,3.59-1.69,3.82-.12.13-1.48-.1-2.09.07-1.8.51-2.43,7.25-3.18,9.05-.4.44-2.05-1.28-2.71-1.39-1.05-.17-3.53,2.46-4.22,3.33-2.16,2.7-4.15,6.24-6.28,9.07-.78,1.04-4.68,6.47-5.01,6.74-.85.68-.38-.25-1.51,1.61-1.1,1.83-2.72,4.91-5.39,4.1-1.63-.5-3.58-5.96-4.37-6.19-1.8-.53-1.23,4.02-2.63,4.32-.47-1.38.58-3.42.41-4.45-.15-.95-.99-2.46-1.45-3.39l-1.84-2.23c0-.3-.05-.7,0-.96,0-.04.6-.17.44-.64-.09-.27-.43-.29-.44-.32-1.21-3.2-3.04-8.18-3.76-11.35-.27-1.19.18-2.69-.12-3.71-.24-.8-1.47-.86-1.87-1.25-1.47-1.42-1.62-4.97-2.46-6.41-.43-.74-1.19-1.13-1.6-1.76-1-1.52-5.43-8.83-6.47-9.35-.82-.41-1.81-.02-2.44-.44-.33-.22-.66-1.2-1.16-1.72-2.96-3.06-6.72-6.15-10.31-8.39-.46-.28-.78-1-1.26-1.14-1.03-.32-1.61.39-2.37.45-1.3.11-3.24-1.19-5.03-.27-1.49.76-1.67,3.75-1.35,5.21.23,1.02,2.18,3.6,2.7,4.97.87,2.29.97,4.87,1.61,7.02.21.71,1.41,1.89,1.76,3.04.84,2.78.56,6.36,1.12,8.95.26,1.17,1.71,2.67,1.85,3.92.07.6-.38,4.83-.5,5.74-.29,2.17-1.24,4.75-1.43,6.97-1.06-.3-2.11.59-3.03.43-1.28-.23-2.17-1.91-3.34-2.45l-5.14-1.81c-.18,2.39,3.11,2.88,3.36,4.55.24,1.66-1.26.09-1.78-.14-2.14-.95-3.72-1.52-5.67-2.96-.62-.46-1.34-1.67-1.96-1.87-.99-.31-1.91-.25-1.63.9h-.95c-.05-.73-1.12-3.17-1.68-3.35-2.19-.69-.45,4.54-.72,4.79-2.07-.14-4.14.6-5.75-.96l-.25,1.43c-.61.28-.54,1.86-1.42,1.45-.97-.45-1.35-2.95-1.71-3.33-.07-.07-1.82-.1-1.89-.03-.39.46.97,2.49-1.44,1.92-.34-1.71-.41-.65-1.63-1.42-1.11-.7-4.15-5.92-5.55-7.46-1.17-1.28-2.15-1.02-2.39-1.21-.19-.15.59-4.03-1.93-3.84.97-2.21-.49-3.85-2.88-3.82.02-.48-.04-.97,0-1.44,0-.04.41-.11.49-.69.42-3.23-3.01-7.58-5.5-9.4-.84-.62-1.6-.3-2.44-.92-4.27-3.13-8.49-8.95-12.44-12.5-1.63-1.47-8.02-5.46-10.15-6.63-.67-.37-1.6-.93-2.32-1.03-1.16-.16-6.69-.21-7.61.06-.97.28-2.7,3.65-2.7,4.74,0,1.9,1.4,3.07,2.17,4.79,1.31,2.95,2.41,6.23,3.59,9.12.81,1.98,1.21,2.55,2.14,4.34,3.33,6.4,5.97,13.23,6.98,20.36.4,2.85,1.99,5.93,2.39,8.88.09.65-.09,1.35.08,2.08.26,1.08,1.53,2.46,1.76,3.52.11.51.18,2.92.08,3.04-.93,1.07-.8-1.24-1.44-.96l-.96,1.92c-.08-1.29-1.09-2.16-2.4-1.92.33,1.47-.38,2.73-.5,4.05-.22,2.46.91,4.9.5,7.46-1.63.39-.81-1.58-.95-2.64-.07-.52-.49-.9-.49-.95v-9.35c-1.45-.33-.69.84-1.41,1.71-.53.64-1.67.87-2.19,1.65-1.59.28.16-2.17-1.44-1.92-2.38.37-4.71,6.5-5.29,8.62-.49,1.78-.91,3.42-.71,5.29-.54.64-.92.07-.96-.71-.07-1.41-.26-3.43-.48-4.8-.18-1.13-1.06-2.39-2.23-2.57-.49-.08-1.01.47-1.6.42-.52-.05-1.02-.76-2.11-.43-1.08.32-1.65,2.49-1.75,3.53-.16,1.69.25,4.72.5,6.49h-1.44s-.35-.11-.4-.34c-.3-1.43.06-2.29-1.53-3.25-.5-.3-1.15-.24-1.7-.7-.53-.44-.55-1.16-.77-1.38-.97-.96-3.74-.76-4.71.39-.01-.1-.37-1.48-.48-1.92-.37-1.46-.61-2.7-2.4-2.4v1.44c-.36-.16-1.42.14-2.1-.06-1.15-.34-4.82-7.29-5.09-8.82-.1-.58.14-1.95-.03-2.12-.06-.06-1.09-.27-1.58-.58-1.79-1.12-2.78-2.39-4.63-3.29-.56-.28-3.09-3.55-3.58-4.33-1.37-2.16-1.87-4.89-4.1-6.45-1.88-1.31-1.74-.23-3.18.16-1.97.53-1.33-.3-2.06-1.14-2.23-2.57-2.24-1.56-4.84-2.36-4.63-1.42-6.06-4.87-7.9-8.89-1.6-3.51-2.63-7.42-4.62-10.72-.74-1.23-2.26-3.79-2.71-.95-.55,3.45.72,6.45,1.35,9.74-.88.2-.94-.27-1.36-.79-5.35-6.53-12.73-14.67-22.28-13.02-1.64.28-2.65,1.8-3.45,1.86-1.2.09-2.54-1.04-3.84-1.03-.77,0-1.32.46-1.93.51-1.36.12-5.27-.25-6.63-.55-2.41-.52-5-3.64-7.99-2.8v3.36c-.85-.08-1.82.13-2.65,0-1.8-.26-5.61-4.81-7.18-6.24-.38-.35-.84-1.13-1.44-.96-1.37.4-.62,4.32-.14,5.42.33.75,1.97,2.46,1.82,2.97-.28.97-3.83.88-4.8.72-.12-.02-1.81-.68-2.26-.86-1.92-.79-4.84-3.24-6.62-3.46-.9-.11-1.86-.1-2.16.96-.05.08.03.31,0,.48l-.41.31c-.17.36,0,.83-.06,1.13,0,.04-.4.09-.49.69-.59,4.25,4.14,6.45,7.21,8.18.54.3,1.32.47,1.43,1.2-1.62.51-3.35.64-5.06.5-2.57-.22-6.6-1.75-9.09-1.46-4.09.47.54,3.59.24,3.84-1.27.26-2.28-.69-3.52-.42-1.3.29-1.85,1.83-3.2,1.86l-2.88-1.44c.05,2.86.44,5.49.46,8.38.04,5.02,2.25,12.22,4.89,16.72.58.99,2,2.31,2.32,2.95.42.83-.66.84-1.21.73-.99-.2-1.39-1.32-2.62-.97v8.87c0,.39,3.13,5.73,3.6,6.95.23.59,1.24,3.86,1.19,4.07-.38,1.61-2.58-.16-3.36-.71-.71.85,3.25,7.89,4.1,9.09,1.08,1.54,2.99,3.14,3.99,4.64,1.08,1.61,1.97,4.41,2.94,5.93-.65.14-2.16-.55-1.93.73.22,1.19,2.23,4.86,2.96,6.15.7,1.24,3.63,6.27,4.33,6.94.53.5,2.53.85,3.27,1.29.99.59,2.56,2.67,3.59,3.6.77.7,2,1.13,2.65,2.15l-2.88.24c-.47.46,1.25,2.04,1.67,2.41,1.3,1.11,10.18,5.77,11.51,5.75.5-.01.96-.47,1.45-.48.14,0,1.6.43,1.67.48.8.61-.16.84-.62,1.04-4.11,1.81-6.49,5.46-6.57,9.99.89.19,1.14-.48,1.68-.96,2.06-1.81,3.61-4.78,6.73-4.33,2.86.41-.57,2.56-1,3.82-.55,1.65-.29,2.32,1.45,2.44,1.71.12,3.89.12,5.53.46.47.1.38.72.57.86.36.27,1.24-.01,1.61.57,1.21,1.87,2.54,4.52,3.83,6.24,1.13,1.51,2.82,3.56,4.06,5.06,1.51,1.83,3.43,2.91,5.26,4.34.19.68-1,2.9-1.32,3.9-.18.56,0,1.22-.16,1.75-.26.89-2.28,1.62-3.04,2.72-3.61,5.25,6.11,3.37,8.54,3.9,1.06.23,2.47,1.54,3.51,1.76,1.32.28,3.24-.09,4.49.78.41.28.54,1.04.94,1.46.85.92,2.77,2.38,2.36,3.76-.16.54-1.09.81-.92,1.5,0,0,1.47.75,1.44.77-2.39,2.47-4.83,3.57-5.59,6.71.77-.47,5.06-2.83,6.07-1.96.86.74-.96,1.14-1.2,1.42-1.94,2.24.52,2.84.7,3.66.11.49-1.03,2.28-1.41,2.83l1.44-.24c.06.95-.08,1.93,0,2.88,0,.03-5.85,2.83-6.42,3.16-1.85,1.06-3.98,2.56-3.65,4.99,1.02.16,1.92-.26,2.88-.48.88-.2.9-.46.96-.48.13-.05.83-.05.96,0,.06.02.11.37.33.4,2.19.34,3.79-.74,5.91-.88.61.61-2.09,4.4-2.49,5.42-.93,2.31-1.03,4.07-.86,6.57.27.29,1.87-.65,2.18-.94.67-.62,1.55-2.68,1.74-2.82.13-.1.8-.23,1.36-.56,1.42-.82,1.79-1.23,2.88-2.4l.48.48c-.45.56-.48,1.6-.85,2.26-1.11,1.98-2.87,4.42-3.44,6.63-.22.86.05.68.7.7,1.32.04,1.65-.19,2.64-.96,0,.03.47.19.48.48-1.66,1.66-2.91,4.1-4.32,5.76.01.27.47.44.48.48.06.28-.04.65,0,.96v.48c-.41.74-.89,1.51-.96,2.4-.3.2-.34.36-.48.48-.37,0-.36.26-.48.48-.44.8-.83,1.46-.96,2.4,1.68-.37,2.52-2.14,4.32-2.4.19.89-.48,1.14-.96,1.68-.68.77-1.32,1.23-1.92,2.16-.06.1,0,.54-.24.93-.88,1.39-1.82,3.28-3.59,1.94-.09.19-.44.92-.48.96-.17,1.03.28,1.92.48,2.88.03.15-.03.33,0,.48,1.16-.1,2.47.15,3.6,0,.88-.12,2.88-1.89,2.64-.23-.31,2.12-3.11,5.32-4.25,7.26-.8,1.37-1.91,3.29-2.47,4.73-.6,1.54,2.68.29,3.1.22.69-.11.89,0,.71.71-.26,1.03-.99,2.31-1.3,3.49-.72,2.73-1,5.82-2.13,8.42-.96,2.2-2.62,4.46-3.74,6.57,3.19-1.51,5.84-.82,8.62,1.21,1.62,1.18.53,1.38.49,1.67-.51,3.41,3.54,8.52,3.84,11.99l1.92-.48c.26,1.71.71,3.25.47,5.03-.13.93-.95,2.13-.95,2.88,0,.32.93,5.88,1.02,6.18.2.68,1.27.9,1.4,1.97.17,1.35-.94,3.02-.5,4.56.84-.31,3.64-5.8,4.79-4.32.07.09.44,1.88.47,2.17.45,4.11-1.34,9.59-.97,13.92.08.94.58,1.67.5,2.62.49-.07.88-.61,1.18-.98.95-1.2.95-2.84,2.66-2.38-.57,1.34.98,2.35.98,3.11,0,.9-1.07,2.11-.98,3.13.64.71,3.28-3.54,2.88,0,.22.31,4.37-1.67,4.33.73-.01.87-1.62,1.88-1.46,3.11.37.07,1.52.7,1.92.96.04-1.77.9-3.76,1.54-5.41.69-1.8,1.55-3.55,2.29-5.33.24-.58.9-.21,1.45-.29v8.86c-.66,1.98-.6,4.17-.98,6.23-.22,1.24-2.21,8.11-1.9,8.41.62.62,1.8-.75,2.23-.88.4-.12,2.95-.6,3.27-.58,1.78.12,2.46,2.31,4.09,2.42l1.44-6.46c1.02-1.06.92.63,1.65,1.21.54.43,1.04.53,1.71.45v.25c-.61,1.27-.59,3.01-1.04,4.23-.05.13-1.27,2.13-1.36,2.24l.43.28c.19.49-.06,2.03.05,2.12.1.08.7-.16.89.04.2.22-.02,1.05.14,1.55.16.52.86.76.92,1.52.06.76-.45,1.31-.5,1.92-.24,2.82-.09,6.4-.48,9.11-.13.89-1.14,1.27-.97,1.9.14.54,1.13.59,1.35.8.41.39.54,2.18,1.05,2.8.51-.16,1.12-.28,1.65-.47l.27.47c1.38-.65.51-.27,1.42-1.21,1.67-1.73,3.1-3.58,5.78-3.11.59.52-3.06,3.51-2.4,4.8,1.34-.28,2.47-2.13,3.68-2.35.81-.14,1.26.39,1.84.42,1.19.06,2.39-.02,3.58,0,.2.82-.31.95-.72,1.44-.46.56-1.71,2.02-2.16,2.4-.08.06-.62-.05-.94.23-2.3,1.97-4.31,3.18-4.81,6.48l3.69-2.3c.69-.35,2.57-.75,3.02-1.06.48.72,1.7.5,2.17,1.43,1.18,2.33-1.18,3.13-2.17,4.81,1.38-.14,2.37-.56,3.84-.48.32.02.66-.04.96,0,.06,0-.12.38.96.48.32.03.64-.02.96,0,.12.38,2.76,1.47,3.36,1.92.27-.11,1.04.1,1.58-.08,4.38-1.49,9.37-1.02,13.99-.39l5.05-1.92c.22,2.64,1.44,4.85.96,7.67l4.78,4.57c2.33,1.21,3.6-1.86,4.61-2.16.52-.15,1.57,1.15,2.44,1.35,2.49.56,3.88-.49,3.52-3.06-.08-.59-.47-.65-.48-.69-.28-.8,1.12-1.5.98-2.39l1.9.47c.05-1.11-.06-2.25,0-3.36,1.02-.27,1.17.53,1.34,1.29.52,2.27,1.09,4.58,1.54,6.86.06.29.14.52.48.48-.29,1.31-1.23,4.43-.93,5.49.3,1.04,3.3,1.02,4.28,1.23.04,0,.09.37.7.49.53.1,1.15-.05,1.7,0,.38,1.36-1.01,1.68-.96,2.88,1.14-.08,2.4.17,3.52-.08.94-.21,1.73-1.39,2.47-1.38.68,0,1.92.45,3.13.5.47.02.95-.04,1.43.01.36,1.82.94,4.08,1.69,5.75.3.67.52,1.43,1.44,1.43.51,0,.12-6.36.24-7.19,2.19.51,2.03-1.02,3.36-1.92-.55,3.99,1.46,2.27,2.88,2.88.04.02.12.51.47.7.7.38,2.26,1.48,2.9.99.6-.46.11-1.73,1.63-1.19,1.13.4,3.24,5.14,4.35,5.73.84.44.78-.51.64-1.12-.27-1.16-.96-2.9-1.36-4.15v-8.15c3.4,2.45,2.11,5.92,2.38,9.37.04.46.43,2.95.53,3.06.38.43,2.4.4,3.01.59.5.15.72.83,1.5.91,1.67.18,1.48-1.09,2.39-1.96,1.88-1.81,5.98-3.35,8.57-2.78,1.04.23,2.28,1.64,3.38,1.32,1.22-.35,3.12-4.35,4.38-5.24l.25,4.55c.36.4.2,2.69,1.19,2.17.24-.13,2.95-3.93,3.22-4.45.79-1.5,1.2-3.91,1.34-5.62,2.2-.42-.17,2.63.48,3.36,1.09.31,1.57-1.28,2.21-1.41.57-.12,1.48.78,2.11.93-.14.49.09,1.34,0,1.92l1.88-.45.05.92c.23-.01.5.09.71,0,.39-.15,3.89-3.84,4.57-4.55.46-.47.62-1.2,1.17-1.71.44-.41,2.91-1.69,3.11-1.4.08.12-.09.58.12.81.2.23.77.21,1.1.59.41.47.75,1.74,1.5,1.89.79.16,2.83-1.11,3.3-1.89,1.03-1.74,2.24-4.89,3.19-6.9.27-.58.87-.72.89-.77,2.07-.12,4.99.8,5.28-1.92.91-.69,2.14-2.82,2.88-3.84l1.44,2.88c1.22.11.77.04.97-.69.17-.61.88-3.43,1-3.57.2-.25,2.56-.79,2.79-.47.15.22-.16.93.29.93l1.66-.51c.12,2.13,2.19,3.71,2.41.73.18-2.47-.15-6.16,1.9-7.69l-.97-.48c-.02-.89,1.26-2.14,1.4-2.96.18-1.04-1.33-2.44,1.01-2.55.06,1.5,1.2,2.38,2.14,3.38l3.14,4.78c.99.05.26-.86.12-1.32-.83-2.67-.87-2.24-.6-4.92.08-.77.11-2.13,0-2.88-.01-.1-1.09-1.34-.45-1.88.61-.51,2.49-.79,2.37-2.43,2.31-.13,0,1.88,0,2.88l2.38-.02.5-2.86c1.98-.33,1.18.52,1.45.95.13.2.94-.04,1.2-.45.47-.76.53-5.09.71-5.29.64-.73.84.13,1.04.62.29.67.54,1.58,1.35,1.78-.09-1.47,1-3.19,1-4.56,0-1.31-.91-3.33-1.02-4.77-.15-2.02.56-3.59.5-5.54.21-.23,3.38.09,3.77.56.24.29-.29,1.06.54.88-.1-1.6,1.31-2.65.96-4.32l2.4.24c-1.07-1.83-1.99-4.17-2.39-6.25-.62-3.27.19-5.87-.02-9.09-.07-1.09-1.12-2.27,0-3.61.3.17.65.38.96.48.44.14,1.9.43,2.4.48.63.06,1.83.11,2.4,0,.42-.08,1.79-1.37,1.89-1.72.34-1.18-1.33-1.7-.93-3.07,1.63.06,3.2.2,4.48-.95.55-.49.46-1.3,1.28-1.45-2.62-2.24-6.65-5.74-10.07-6.23-.15-.02-.32,0-.48,0l.48-1.44c1.58-.52,3.63-1.04,5.28-.96.97.05,1.55.37,2.4.48.46.06.97-.04,1.44,0-.08.22.02.66,0,.95l5.27,2.89c-.27-.74-.65-1.18-.5-2.15l1.01-.51-.5-3.1c-3.11.77-5.84-5.21-1.44-5.28.42-.29-1.36-3.16,0-4.09.46-.32,1.3-.05.95-.95-.43-1.09-2.3-1.57-2.4-1.68-.04-.04-.46-.9-.48-.96-.56-1.54-.2-3.34-.48-4.8-.23-1.19-1.77-.45-1.44-1.92.01-.06.36-.11.36-.24,0-.13-.34-.18-.36-.24-.04-.2-.05-.78,0-.96.02-.06.43-.1.43-.25,0-.23-.38-.17-.43-.23-.09-.1-.06-.5-.48-.48.04-.07.46-1.31.48-1.44,1.26,0,2-1.37,2.83-2.17.02-.2-.42-.2-.43-.23-.91-2.18-2.3-3.58-1.92-6.23,0-.03.35-.11.39-.34.23-1.14.67-4,2-4.45-.17-.27-.29-.77-.48-.96-.46-.46-1.67-1.05-1.92-1.68-.44-1.13,1.51-.15.91-1.87-.68-1.96-5.57-5.67-.43-6.52.82-.57-1.59-2.92-2.15-3.37-.29-.23-2.04-1.39-2.17-1.43-.06-.46.05-.97.46-1.22.7-.43,1.65.15,1.46-.69-.59.17-.81-.41-.96-.48.23-2.45,1.68-4.69,1.44-7.2h3.36c-.35-1.23-2.05-1.04-2.88-1.44-.35-1.9,1.95-.29,2.66-1.42.41-.65.06-1.66.27-1.89.15-.16.84-.11,1.17-.51.63-.75-1.33-2.21.69-1.94,1.36.33,3.03,1.24,3.36-.72-1.07-.6-1.68-2.26-2.4-2.88-1.35-1.18-5.17-1.79-5.7-2.21-.08-.07-.86-1.57-1.01-1.86-1.35-2.61-2.54-5.48-3.62-8.13-.71-1.74-1.34-7.43-1.2-9.39.06-.87,1.03-4.31.98-4.54,2.69-3.34,2.6-6.24-1.92-7.19-1.2-1.14.96-3.12.96-4.08v-8.63c0-.17-.74-2.07-.96-3.12.7-.87,1.27.08,1.68-1.42.35-1.26.4-2.78.81-4,.15-.44.62-.72.77-1.15.36-1.04,1.29-3.26,1-4.15-.03-.09-.92-1.59-.99-1.66-.35-.35-1.67-.45-1.81-.59-.14-.14-.1-3.47.05-3.98.11-.38.63-.67.79-1.13,1.45-4.11,1.06-8.6,1.55-12.84.27-2.36,2.21-3.93-.5-5.75-.79-.53-1.24-.6-2.14-.75-.82-.13-.81.29-.73-.94.5-.11,2.71-.85,2.85-.99.2-.2-.08-1.55,0-2.1.04-.24.52.06.98-1.22.01-.04.53-.06.49-.69-.03-.43-.55-1.16-.49-1.21.11-.08.58-.01.94-.26.97-.68,1.68-1.6,3.15-1.7.72-.05,1.88.73,2.11.48.16-.17-.07-.83.02-.94.04-.04.64-.31.96-.48.25-.14.65-.32.96-.48.18-.09.62-.02.97-.21,1.51-.82,2.48-1.43,3.32-2.96.24-.97-2.41-1.92-1.84-3.23l5.79-11.26c3.8-2.43,9.37-6.09,12.39-9.43.63-.7,2.57-3.54,2.39-4.3l-2.87-1.46c1.72-1.47,3.79-2.65,5.52-4.07,2.27-1.86,5.12-4.26,7.19-6.23,1.93-1.84,6.73-7.1,5.95-9.81-.29-1.01-2.02-.55-1.89-.99.45-1.43,3.58-4.08,4.27-5.82-.97-2.12,1.08-4.26,1.75-6.4.86-2.72,1.31-5.81,1.18-8.65Z"/>
    <path class="a4" d="M161.94,256.56c.3-.16.59-.33.84-.55-.25.22-.54.39-.84.55Z"/>
    <path class="a4" d="M164.7,254.57c-.14.06-.26.11-.36.15.11-.05.23-.1.36-.15.09-.04.17-.06.23-.08-.06.02-.13.04-.23.08Z"/>
  </g>
  <g>
    <path class="cls-2" d="M4.39,13.73v-3.46H1.23v-1.34h3.16v-3.47h1.39v3.47h3.17v1.34h-3.17v3.46h-1.39Z"/>
    <path class="cls-2" d="M14.02,15.76c-.77,0-1.44-.23-1.99-.7-.56-.46-.99-1.14-1.29-2.03-.3-.89-.45-1.98-.45-3.27s.15-2.37.45-3.25c.3-.87.73-1.54,1.29-1.98.56-.45,1.22-.67,1.99-.67s1.42.22,1.97.67c.55.45.98,1.11,1.28,1.98.3.88.45,1.96.45,3.25s-.15,2.38-.45,3.27c-.3.89-.73,1.57-1.28,2.03-.55.46-1.21.7-1.97.7ZM14.02,14.29c.39,0,.73-.15,1.03-.45.3-.3.54-.78.7-1.44.17-.66.25-1.54.25-2.64s-.08-1.97-.25-2.62c-.17-.65-.4-1.11-.7-1.4-.3-.29-.65-.43-1.03-.43s-.73.14-1.03.43c-.3.29-.54.75-.71,1.4-.17.64-.26,1.52-.26,2.62s.09,1.98.26,2.64c.17.66.41,1.14.71,1.44.3.3.65.45,1.03.45Z"/>
    <path class="cls-2" d="M19.78,15.54v-1.52h2.53v-7.87h-2.06v-1.17c.54-.11,1.01-.23,1.42-.38.4-.14.77-.32,1.1-.52h1.36v9.94h2.24v1.52h-6.58Z"/>
  </g>
</svg>