<?xml version="1.0" encoding="UTF-8"?>
<svg id="a4" xmlns="http://www.w3.org/2000/svg" viewBox="0 0 600 500">
  <defs>
    <style>
      .a4 {
        fill: #5d4c39;
      }

      .cls-2 {
        fill: #c9caca;
      }
    </style>
  </defs>
  <path class="a4" d="M120.38,334.26c0,.54,2.5,7,2.94,7.62.81,1.14,2.06,1.03,2.31,1.29.11.11.1,2.58.03,3.09-.19,1.41,2.11,2.48.7,5.81-.42,1-.5,2.12-.17,3.16l.43,1.35c-.02.32.01.64,0,.96-.02.53-.08,1.06.08,1.58l.4.34c-.05.29.02.64,0,.96-.1,1.41.31,1.68.48,2.4.26,1.12.9,2.59.97,3.11.13.89-.14,1.85.07,2.81.41,1.9,2.73,3.71,3.28,5.12.7,1.8.58.55.96.96.04.04.33.67.48.96.27.5.93,1.91.96,2.4.04.66-.32,2.59-.48,3.36-.01.07-.6.15-.51,1.2.05.63.51.67.51.72.09.6-.11,1.36,0,1.92.14.72.36,1.39.56,2.09l.4.31c-.02.16,0,.32,0,.48.9.65,1.06,1.97,1.69,2.87-.63-.89-.79-2.21-1.69-2.87-.09,5.45,2.18,9.48,7.07,11.91.37.18.9,0,1.09.09.13.06,1.28,1.71,1.93,2.15,1.8,1.2,1.47-.04,2.76,2.03,4.56,7.34,16.81,11.66,23.39,17.88,1.16,1.09,1.57,3.7,2.13,4.12.44.32,1.82-.21,1.9-.3.34-.41-.65-1.92,1.21-1.37.97.29,4.41,4.98,5.31,5.25,1.27.39,1.12-1.81,1.2-1.92.72-.99,5.81,3.92,6.25.74.13-.95-.34-2.31.22-3.13,1.24,1,3.99,3.95,5.36,4.24.86.19,1.74-.11,2.57.3,1.89.95,5.23,4.61,7.49,5.95,3.89,2.3,8.75,2.54,6.18-3.3-.4-.91-1.25-1.4-1.21-2.39h2.4c.19-1.65-.8-3.24,1.21-2.89,1.75.3,2.16,3.03,3.08,3.64.81.53,3.2.5,4.52,1.24,1.45.81,3.79,3.59,5.33,4.74,1.53,1.15,3.02,2.26,5.05,1.91.39-.39-.41-3.51-.96-3.84l.48-.48s.58-.04.94.24c1.62,1.27,5.05,4.35,6.98,4.57,1.32.15,2.63-.82,4.07-.5-.32-1.97.63-2.91,2.59-2.34.78.23,1.15,1.7,2.21,1.38,1.12-3.25,3.53-2.82,5.51-.45.23.28.18.77.29.89.22.24,2.22-.12,3.01.11.48.15.72.85,1.5.92,1.07.1,2.57-1.43,4.31-1.5.94-.04,4.15.62,5.04.99.91.38,3.59,1.52,4.32,1.92.4.22,2.44,2.14,2.89,2.63.68.75.69,2.07,2.1,1.64.48-.15.78-1.05,1.44-.89.28.07.62.64,1.11.84,2.19.9,4.54,1.16,6.86,1.53.27-1.1-.72-1.11-1.48-1.64-1.78-1.26-5.95-3.19-6.2-5.32-.28-2.32,1.08-2.42,3.08-2.16,3.39.45,6.96,2.58,9.94,4.12,1.98,1.03,5.74,2.47,6.73,4.73l-.06.74s1.3-.23,1.38-.31c.35-.36.15-1.09.17-1.55.08-1.61-.12-3.24-.12-4.85,1.47-.05,3.33-.23,4.67.51.77.42,1.07.98,1.54,1.68.37.55.71,2.32.99,2.61.3.31,3.31-.81,4.09-.95,3.46-.61,6.98-.85,10.39-1.71,2.54-.64,2.83-3.38,5.87-3.21,1.75.1,5.74,2.17,7.01,1.34.56-.38.36-1.04.46-1.23.8-1.39,2.3-1.79,2.4-1.92l2.88-.48c.24-.85-.46-.9-.48-.96-.07-.29-.05-1.09,0-1.44,1.02-.25,1.58-.26,2.57-.13.43.06,3.34.44,3.49.71-.13-.24-.09-.6-.18-.83,1.83-.32,3.7-.6,5.56-.31,2.2.34,10.67,4.33,10.87,3.93,0-.01,1.2-2.41,1.2-2.41.05-.04.01-.66.46-1.21,1.27-1.57,5.36-2.56,7.22-2.15-.01-.14-.02-.26-.03-.36,0,.1.02.22.03.36.06.01.1.72.96.48v-1.44c.47-.02,1.84.08,1.92,0,.13-.13-.13-1.29,0-1.44.27-.31.76.83.96-.96.19-1.75,1.34-3.06.96-4.8,0,0-.03-.01-.07-.02.04.01.07.02.07.02h.48c1.51.36,2.32-3.03,2.88-3.36,2.3-1.36,6.35-7.81,8.16-8.64.67-.31,1.6-.01,1.44-1.44.3-.09.64-.33.96-.48,1.81-.83,1.76-1.35,3.11-2.41,1.75-1.38,3.12-2.45,4.54-4.13,1.37-1.63,3.37-2.4,5.2-3.43,3-1.68,5.87-3.73,8.7-5.67.73-.5,1.74-.58,1.48-1.64.32-.11.65-.41.96-.48.39-.09,1.29.12,1.44,0,.11-.09-.11-.77,0-.96.03-.06.32.04.48,0,.71-.19,2.11-.48,2.4-1.2.45-1.13-.86-.54-1.44-.72-.04-.01-.23-.36-.68-.5-1.06-.32-3.16-.32-3.16-1.66,0-1.94,3.59-1.06,3.84-.72.28.37-.65,1.38,1.92.96.01-1.01-.08-2.02.09-3.03.14-.82,1.6-3.41,1.32-3.67-.18-.16-.84.07-.93-.03-.13-.13.13-1.31,0-1.44l.27-.45.69-.03c.1.07.36-.07.48,0,.06.04.06.38.3.45.89.27,1.95-1.62,2.1-2.37.06-.29-.06-.67,0-.96,1.13.34,1.3-.94,1.44-1.92h-.96c.05-.29-.03-.65,0-.96.18-1.77,0-1.8,1.91-1.92.48-.03.96-.03,1.44,0,1.46.09,4.15.23,5.99,0,2.47-.32,5.56-2.34,8.4-1.91.49.07-.68-1.24-.78-1.3-.32-.21-1.19-.16-1.6-.32-1.5-.58-3.79-1.92-4.81-3.17-.08-.12.14-.78-.47-1.23-.41-.3-.94-.18-.97-.22-.08-.09.02-1.07,0-1.44-.09-1.71-.6-.65-.96-.96-.54-.46-.34-3.26-.48-3.36l1.92-1.92c.51,1.06,3.72,1.24,4.69,1.21,1.24-.04,5.53-1.79,6.39-1.27-1.3-.79-1.45-2.77-2.87-3.31.02-.33.1-.65.21-.96,0-.02,2.62,0,2.62,0v-.96c.48,0,.96.01,1.44,0,.48-.02.96.01,1.44,0v-.24c-.02-1.2-.77-.94-1.44-1.2-1.48-.57-1.69-1.33-1.92-1.44l.48-.96c1.45-.34,3.96,1.72,5.02,1.43,1.08-.3.6-2.22.73-2.39.08-.1,1.39.36.91-.67-.1-.22-.41-.24-.43-.29-.29-.7.41-.86.48-.96,2.91.29,2.1-.8,2.41-2.63.13-.76,1.42-2.94-.49-2.65.06-.95-.01-1.93,0-2.88h.96s0-2.4,0-2.4c.65-.65.76-2.14,1.18-2.94.3-.59.49-.92.91-1.36-.17.18,1.76-1.1,1.2-1.11-1.96-.02-2.66-.89-3.86-2.16-.64-.68-3.34-.82-2.05-2.12.34-.34,3.44-.86,3.95-.67-.38-.14-.66-.42-1.08-.52.82-.32,1.91-.58,2.59-1.18.91-.81.72-1.31.75-2.76-.92.12-2.17.61-2.96-.05-1.26-1.05.74-4.47,1.77-4.8-.37.12-1.77-.63-2.88-.48l-.96-.96c.56.24,1.75-.75,2.4-.96.25-.08.81.12.95-.01.12-.12-.05-.67.01-.95.3-1.33.81-1.46,1.44-2.4,1.05-.46,2.44-1.04,2.4-2.4.33-.14.64-.32.96-.48.66-.32,2.59-.92,2.83-1.73.28-.94,0-2.87.05-4.03.01-.32-.04-.66,0-.96,4.93-1.47,1.91-3.34,1.06-6.58-.39-1.46-.74-3.69-.57-5.17.18-1.57,1.23-3.17,1.43-4.57.02-.15,0-.33,0-.48.5.19,1.31-.31,1.42-.83.15-.73-.36-.64-.69-1.12-.61-.91-1.44-.85-1.18-2.29.32-1.78,2.97-3.05,4.49-3.56.43-.14,3.58-.6,3.65-.88.05-.18-.12-.73-.02-.92.12-.24,3.85-2.18,4.58-2.86,1.19-1.13,2.17-2.97,2.14-4.67-1.07.05-2.74.75-3.43-.3-.52-.79.4-2.63.54-3.47.06-.38.02-.78,0-1.17.35-.16,4.75-4.85,5.29-5.51.92-1.15,1.99-2.58,1.2-4.1-.16-.3-.72-.57-.96-.96-.44-.72-.69-1.45-1.2-2.17-.72-1.04-1.22-1.3-1.56-2.73-.27-1.15-.28-3.27.24-4.34-.62-.26-1.41-1.01-1.09-1.78.03-.06.71-.14.48-.96-.31-.03-.66.04-.96,0-.17-.02-.35.04-.48,0-.7-1-.47-2.21-.48-3.36-.86-.25-.9.46-.96.48-4.24,1.26-3.24-5.09,0-5.76.28-.06.65.05.96,0v-2.4s-.96,0-.96,0c-.01-1.28-.01-3.21.52-4.28.06-.12,3.27-4.5,2.02-4.63-.46-.05-1.48-.03-1.84-.39-1.21-1.23,1.19-2.97.69-3.9-.11-.21-.43-.22-.44-.25-.26-1.21.38-2.02.44-2.89.11-1.7-.84-1.89-1.97-2.89-.21-.19-.3-.73-.47-.83-.37-.21-3.34-.68-3.27-1.08.18-1.14-.17-1.92-.74-2.86-.21-.34-.68-.44-.7-.48-.15-.31.36-1.4-.69-.93-.22.1-.25.44-.27.45-1.45.34-1.71.02-2.4-.96-.26-.37-.47-.98-.74-1.44-.21-.37-.69-.44-.7-.48h0c-.27-.62.16-3.05.01-4.09-.12-.81-.77-1.04-.9-1.5-.4-1.38.33-2.32-.8-4-1.82-2.7-4.63-1.6-5.02,1.43-.91.13-.71.59-1.92-.48.09-.26-.1-.86,0-.96.3-.29.89.76.96-.96.07-1.59,3.17-12.59,3.84-13.44.23-.29.84.8.96-.96.08-1.23.34-2.18.48-3.36h.96s0-1.92,0-1.92c10.79-14.68,13.16-33.1,14.42-50.62.1-1.39-.44-2.2-.52-3.36-.11-1.54.82-3.03.45-4.28-.46-1.55-2.75-.39-2.33-4.36.31-2.97.16-5.89.48-8.64.28-2.47,1.79-3.67.23-6.49-.25-.46-.98-.72-1.14-1.26-.43-1.43-.12-4.05-.75-5.97-.95-2.87-3.67-6.19-4.48-8.48-1.8-5.08-1.53-11.03-3.96-15.97-2.09-.53-1.74,1.53-1.9,3.11-.05.46-.56.21-.96.24-.34-1.03-1.09-2.48-1.69-3.35-.84-1.2-2.78-2.89-3.34-3.86-1.6-2.72-2.17-7.9-3.84-11.03-.32-.59-1.4-.9-1.2-1.92h-.96c.14.94-.52,1.72-.52,2.64,0,.7.84,2.31.5,2.62-.11.1-.86.1-1.44.72-1.5,1.59-.82,2.84-.46,4.58-3.21.04-1.39,7.23-1.93,7.66-.15.12-1.06-.08-1.42.25l-2.4,2.64c.13.31.29.68.44,1.08-.15-.4-.31-.78-.44-1.08-.06-.14.04-.4-.07-.66-.45-1.09-1.94-1.82-2.32-.53-.21.71.8,5.1,1.2,6,.16.35.7.43.71.47h0c.12.26.01,1.64,0,2.16,0,.41.22,1.67-.72,1.2-1.08-.55-1.01-2.7-1.66-3.14-.38-.26-1.04-.19-1.46-.46-1.54-1.02-3.01-3.31-5.47-2.58-1.02.3-1.05,1.55-1.3,1.82-.49.53-4.67-1.17-3.8,2.44h-2.38c.15,1.16-.6,1.92-.97,2.88-1.93-1.97-3.73-1.2-6.02-1.42-4.81-.46-5.67.05-10.06.45-2.78.25-5.9-.27-8.65,0-.78.07-1.74.18-2.14.98-.51-.15-2.64-.07-3.36,0-1.04.09-1.25.44-1.44.48-2.75.65-9.19,3.19-9.6,6.24-.32,0-.64,0-.96,0-2.37.01-3.98-1-5.52-1-.73,0-1.87.64-2.16.52-1.22-.52-.55-.07-.96,0-.73.12-1.69-.14-2.4,0-.61.12-.45.47-.48.48-1.05.21-2.88.21-3.84.48-.66.19-.45.47-.48.48-.02.06-.02.13-.03.21,0-.08,0-.15.03-.21-1.81.81-2.42.96-4.32,1.44-.86.22-.9.46-.96.48l.29.43-.29-.43c-2.2.66-7.83,2.8-9.58,4.09-.97.72-1.44,2.07-1.92,2.4-.7.49-2.31.69-3.36,1.44-4.73,3.36-10.51,8.32-14.41,12.46-.51.54-1.34,1.61-1.43,1.69-.08.06-.59-.16-.85.08-.29.27-1,1.85-1.54,2.32h0c-1.87.86-4.44,4.75-5.06,6.7-.31.99-.07,2.02-.7,2.9-.07.04-.23.83-.77.92-.46.08-.92-.44-1.4-.46-.62-.02-2.03,1.64-2.63.98-.08-.09.16-2.45-.72-2.4-.67.04-4.16,5.71-4.82,6.7-.57.86-.98,1.7-1.44,2.4-2.02,3.04-4.26,4.46-7.91,3.16-.73-.26-1.5-.97-2.22-1.14-.61-.14-2.02,0-2.08-.08-.09-.11.26-.91-.27-.98-.86-.12-1.9.13-2.84.01-1.58-.2-4.95-1.62-3.14,1.22,1.01,1.58,2.39,2.92,3.85,4.07-.07.06-.16.67-.96,1.44-.04.04-.08.11-.11.19.04-.08.07-.15.11-.19l-2.12.05-.28.43h0c-1.21-.15-2.61.13-3.84,0-.04,0-.1-.41-.69-.49-1.69-.24-2.42.95-3.62,1.93-.24-.08-2.95.65-3.14.94l-.22,3.38-4.81-1.19c-1.1.09-5.29-2.64-5.74-2.17-.97,1,3.3,4.82,3.84,5.76h-3.83s-.02,1.44-.02,1.44l-4.53-.02c-.41,1.94-1.85.26-3.39.04-2.37-.35-1.43.92-1.92.98-.5.05-3.68-1.21-3.09.68.39,1.26,2.65,2.64,3.67,3.53.51.45,1.36.45,1.11,1.53-.92.82-4.35-3.09-5.76-2.4l.48,3.84c-2.58.08-5.4-2.07-7.91-2.41-1-.14-.83.35-.67,1.15.26,1.28.46,1.15,1.38,1.26h0c0,.32,0,.64,0,.96,0,1.52.42.7,1.78,1.34,1.33.63,1.51,1.13,1.58,2.5.02.33.05,1.38,0,1.44-.09.1-.85-.11-.96,0-.11.11.11.85,0,.96-.62.65-4.31,1.62-4.71,2.01-.76.73-1.91,3.47-2.58,4.13-7.13,7.06-12.2,15.99-17.1,24.89-4.23,7.69-7.79,15.42-10.89,23.67l-8.83,12.29c-.63.42-7.56,9-10.11,11.96-7.59,8.81-15.71,17.24-23.51,25.92-1.17,1.31-2.62,3.65-3.83,4.8-2.85,2.71-17.87,13.36-21.13,16.29-4.22,3.79-14.67,15.04-16.29,19.95-.1.3-.88.93-.48,1.92-.03.01-.09.3-.35.38-1.57.49-3,3.69-2.63,4.04.28.27.04.77.1.86-.89,1.42-1.68,2.94-2.66,4.3-4.87,6.75-5.97,6.78-7.42,15.61-.19,1.14-.94,3.36-.95,4.33ZM385.45,125.7c1.03-2.36,1.35-4.47,2.16-6.72.62-1.72,1.88-3.25,2.31-5.13.14-.61-.01-1.88.14-2.02.12-.11.61-.06.89-.29,2.07-1.75,2.69-4.32,4.34-6.24,1.02-1.2,6.37-4.94,6.18-6.14-.11-.68-1.37-2.51.54-2.25.94.19,3.2-.47,4.17-.86,3.11-1.27,4.07-5,8.3-3.94.01.22.44.68.47,1.19.11,1.83-.05,3.69,0,5.53-2.09.03-2.55-1.21-3.84.96-.1-.02-.2-.02-.3.01.07.15.15.28.21.43.24.58.39,1.17.47,1.8.01.09-.01.19-.05.29.23.43.2,1.01.17,1.57-.13,2.48-3,5.2-4.28,7.25-.33.52-.49,1.55-.54,1.62-.03.04-.83.24-.95-.28-.23-.98-.62-2.71-1.74-3.03-.75-.22-1.83-.1-2.07.71-.56,1.93.14,7.1-.02,9.58-.05.77-.41,1.29-.49,1.91-.08.63.1,2.52-.01,2.63-.83.86-1.08-.97-1.42-1.21-1.61-1.13-1.34.32-1.68,1.23-.49,1.32-.47,1.62-.74,2.87l-2.88,1.44c.12-1.42-.01-2.91-1.25-3.82-2.18.84-4.88-.2-4.99,2.86l-.72-1.92c-.6.5-1.08,1.22-1.7,1.68-.36.27-.87.17-.94.24-1.02-.27.02-1.4.24-1.92Z"/>
  <g>
    <path class="cls-2" d="M3.04,11.7v-1.36h4.13v1.36H3.04Z"/>
    <path class="cls-2" d="M12.35,15.76c-.77,0-1.44-.23-1.99-.7-.56-.46-.99-1.14-1.29-2.03-.3-.89-.45-1.98-.45-3.27s.15-2.37.45-3.25c.3-.87.73-1.54,1.29-1.98.56-.45,1.22-.67,1.99-.67s1.42.22,1.97.67c.55.45.98,1.11,1.28,1.98.3.88.45,1.96.45,3.25s-.15,2.38-.45,3.27c-.3.89-.73,1.57-1.28,2.03-.55.46-1.21.7-1.97.7ZM12.35,14.29c.39,0,.73-.15,1.03-.45.3-.3.54-.78.7-1.44.17-.66.25-1.54.25-2.64s-.08-1.97-.25-2.62c-.17-.65-.4-1.11-.7-1.4-.3-.29-.65-.43-1.03-.43s-.73.14-1.03.43c-.3.29-.54.75-.71,1.4s-.26,1.52-.26,2.62.09,1.98.26,2.64c.17.66.41,1.14.71,1.44.3.3.65.45,1.03.45Z"/>
    <path class="cls-2" d="M20.98,15.76c-.59,0-1.12-.08-1.59-.22s-.88-.35-1.24-.59c-.35-.25-.67-.5-.94-.77l.86-1.2c.22.22.46.43.72.62.26.19.55.34.88.46s.7.18,1.1.18c.43,0,.81-.09,1.16-.28.34-.19.62-.46.81-.81.2-.35.3-.77.3-1.25,0-.73-.2-1.29-.6-1.7-.4-.41-.93-.61-1.59-.61-.37,0-.68.06-.94.17-.26.11-.56.28-.89.5l-.89-.58.34-5.6h5.83v1.57h-4.27l-.27,3.01c.25-.13.5-.23.75-.3.25-.07.53-.1.83-.1.65,0,1.24.12,1.77.38.53.25.95.64,1.27,1.17.31.53.47,1.2.47,2.02s-.18,1.54-.55,2.13c-.37.59-.84,1.03-1.43,1.34-.59.31-1.22.46-1.9.46Z"/>
  </g>
</svg>