<?xml version="1.0" encoding="UTF-8"?>
<svg id="a4" xmlns="http://www.w3.org/2000/svg" viewBox="0 0 600 500">
  <defs>
    <style>
      .a4 {
        fill: #5d4c39;
      }

      .cls-2 {
        fill: #c9caca;
      }
    </style>
  </defs>
  <path class="a4" d="M495.98,159.83c.12-1.96-.93-2.55-1.03-4.31-.22-4.17,2.1-8.19,1.45-13-.18-1.31-1.18-2.6-1.28-3.48-.13-1.18.93-2.94.74-4.17-.21-1.39-1.72-4.68-2.19-6.51-.66-2.57-1.12-5.21-1.59-7.82l-1.44,2.89c-.69-2.08-.95-4.98-1.95-6.88-.31-.59-.9-.29-.95-.35,0,0-.01-.02-.03-.04,0,0,0,0,0,0,0,0-.01-.03-.02-.04-.01-.02-.02-.04-.04-.07-.03-.06-.07-.14-.11-.21-.02-.04-.03-.07-.05-.11-.01-.03-.03-.06-.04-.09-.02-.05-.04-.09-.06-.13-.07-.14-.12-.25-.13-.27-.39-1.14-.68-2.22-.99-3.22-.2-.67-.42-1.31-.67-1.93-.39-.92-.88-1.77-1.59-2.56-.16-.17-.33-.34-.51-.51h0c-.09-.09-.2-.17-.29-.25s-.19-.17-.29-.25c-.28-.21-.59-.42-.93-.62-.17-.1-.33-.2-.51-.3-.06-.05-.12-.1-.18-.15-.19-.16-.39-.31-.58-.46-.25-.2-.46-.41-.59-.68-.08-.18-.12-.39-.1-.64.01,0,.03-.02.05-.04,0,0,.02,0,.03-.02.06-.06.13-.15.21-.27.04-.06.08-.12.12-.19.07-.12.14-.26.21-.39.04-.07.08-.14.11-.21.02-.04.03-.08.05-.13.11-.27.19-.52.18-.68-.02-.26-.22-.34-.36-.41-.05-.02-.09-.05-.12-.08-1.53-1.6-5.3-1.22-6.75.48-.08.02-.16,0-.24,0h0c-.08-.01-.17-.02-.24,0h0c-.65.18-.91.47-.96.48-.07.02-.16.01-.24,0,0,0,0,0,0,0-.08-.01-.17-.02-.24,0-.42.15-.45.47-.48.48h0s-.03,0-.04,0c-.03,0-.05.01-.08.01-.02,0-.03,0-.05,0-.07,0-.14-.02-.2-.03-.04,0-.07,0-.1.01,0,0,0,0-.01,0h0c-.61.26-2.68.88-2.83,1.05-.21.25,0,.69-.06.88-.43.09-1.03-.09-1.45,0-1.8.41-3.3,1.21-5.26,1.03-.2.27.03.77-.05.9-.51.85-.58.95-.96,1.93-.09.22-.32.54-.48.96-1.11,2.87-4.41,5.09-6.47,7.75-.97,1.25-3.37,6.01-3.66,6.23-.53.41-.47-.8-.96.96-.16.55-.4,2.32-.48,2.41-.41.41-.43-.88-.96.96-.18.63-.29,1.3-.48,1.93-.02.05-.29.36-.48.96-.08.26.09.72,0,.96-.02.05-.32.58-.48.96-1.13,2.71-3.64,4.02-5.63,5.94-.55.53-1.01,1.7-1.61,2.25l-.48.48c-.14.05-.34-.05-.48,0-.23.08-.66-.07-.96,0v.96c-3.71-.25-2.76.03-3.38,2.41-.33,1.27-1.27,1.76-1.36,2.23-.1.55.47,1.24.43,1.81-.02.35-1.03.48-1.44,1.06-.51.73-1.3,4.57-1.77,4.56-3.47-.11-3.24-2.88-5.49-4.62-.69-.53-1.96-.81-2.22-1.16-.74-1.01.5-5.59-1.9-6.77l-2.9,3.37c-.8-3.9-2.09-1.84-5.06-2.41.04-.32.04-.65.05-.99,0-.17,0-.34.01-.51,0-.12.02-.24.03-.36,0-.06,0-.12.02-.18.13-.91,1.22-2.39.71-3.21-.07-.12-.18-.22-.33-.3-.09-.05-.2-.1-.32-.13s-.25-.07-.39-.1c-.28-.06-.59-.11-.88-.19-.58-.16-1.11-.43-1.23-1.08,0-.02,0-.06,0-.09,0-.05,0-.1.01-.17.04-.23.14-.57.26-.96.12-.39.26-.82.4-1.23.05-.16.1-.31.15-.46,0,0,0-.02,0-.03.06-.18.11-.35.16-.52.01-.04.03-.09.04-.13.05-.16.09-.32.11-.44,0,0,0,0,0,0,.09-.43.18-.88.27-1.34.02-.09.04-.18.05-.27.25-1.24.51-2.53.68-3.76.06-.41.11-.81.14-1.2.17-1.84-.33-5.27.11-6.64.07-.22.2-.36.36-.46.05-.03.11-.06.17-.08.22-.09.47-.13.7-.18.29-.06.54-.14.66-.38.11-.54.23-1.07.37-1.61.94-3.73,2.36-7.32,3.26-11.06.23-.94.29-2.03.4-3.11.02-.15.03-.3.05-.45.01-.12.03-.24.04-.36.05-.35.11-.68.18-1.02.02-.09.04-.17.06-.26.09-.34.19-.67.32-.97h0c.04-.1.1-.22.18-.35.11-.2.25-.44.42-.7.17-.27.36-.56.58-.88.29-.42.61-.88.95-1.36.3-.42.61-.85.93-1.28.48-.64.97-1.29,1.44-1.89.47-.6.91-1.16,1.3-1.63,0,0,0,0,0,0,.15-.18.28-.34.41-.48.03-.04.06-.07.09-.1.12-.14.24-.28.34-.39.08-.08.14-.15.21-.21,0,0,0,0,0,0,.84-.83,1.48-1.63,1.95-2.45.07-.12.14-.25.2-.37.21-.42.39-.84.52-1.27.08-.25.15-.49.2-.75.04-.19.08-.39.11-.58.06-.39.1-.8.11-1.23.03-.85-.01-1.76-.11-2.76-.03-.26.06-.56.14-.85.04-.17.08-.35.09-.51,0-.11,0-.22-.04-.32-.02-.05-.04-.1-.07-.15-.12-.19-.36-.36-.77-.49-.1-.03-.22-.06-.35-.09-.35-.07-1.67.03-3.14.2-.24.03-.48.05-.72.08-1.69.2-3.42.45-4.03.56-3.4.62-6.22,1.75-8.94,3.27-.54.3-1.08.62-1.62.96-1.08.67-2.16,1.4-3.27,2.19-.52.76-1.06,1.5-1.6,2.25-3.08,4.3-6.37,8.44-9.43,12.76-.18.25-.48.7-.86,1.29-.08.12-.16.24-.24.37-.22.33-.45.7-.7,1.09-.1.15-.2.31-.31.47-.4.61-.82,1.27-1.26,1.94-.15.24-.31.47-.46.71-.18.27-.36.54-.53.81-.12.18-.24.35-.35.53-1.02,1.53-1.99,2.93-2.64,3.73-.14.17-.27.32-.37.43-.11.11-.2.2-.27.24-.04.02-.07.04-.09.04-.12.02-.27,0-.44-.05-.41-.12-.88-.37-1.1-.38-.04,0-.08,0-.1.03.08.64.04,1.26-.03,1.86-.04.3-.08.6-.13.9-.02.15-.05.3-.07.45-.1.59-.19,1.18-.2,1.77-.02.74.08,1.48.43,2.25-.29-.1-1.78-.08-2.16,0-2.25.46-.67,2.01-.85,3.07-.11.66-1.52,1.65-1.34,2.72-1.02-.3-1.85-2.12-2.75-2.35-.87-.23-1.63.42-2.24.3-.44-.08-.81-.77-1.49-.81-.74-.04-4.37,1.26-4.61.93-.06-.08-.03-.98-.23-1.44-.63-1.51-3.26-4.04-4.85-2.43l-1.68,3.38c.04-.76-.13-1.73,0-2.41.02-.13.08-.28.16-.44.08-.16.17-.33.27-.5.2-.34.42-.69.53-.99.1-.25.18-.48.28-.71.09-.24.19-.49.28-.71.11-.28.21-.55.31-.81.23-.6.45-1.18.66-1.74.07-.2.13-.41.21-.61.22-.61.43-1.21.62-1.83.22-.72.42-1.48.61-2.28.03-.13.06-.25.09-.38.11-.48.21-.99.32-1.52.01-.06.04-.13.07-.21.08-.2.2-.44.31-.7.06-.14.13-.28.17-.44.01-.06.02-.12.03-.18,0-.05.02-.11.03-.16,0-.08,0-.16,0-.24,0-.11-.03-.22-.06-.33-.02-.05-.02-.11-.05-.16.51-.3.99-.69,1.46-1.07.16-.13.31-.25.47-.37.22-.17.4-.32.57-.47.17-.15.32-.29.46-.42.19-.18.35-.37.52-.56.13-.14.26-.29.4-.45.14-.16.29-.33.46-.51.12-.14.25-.29.37-.45.12-.16.24-.33.36-.5.12-.17.24-.34.36-.51.12-.17.24-.33.36-.48.03-.04.08-.08.13-.13.02-.01.03-.03.04-.04.1-.09.22-.18.36-.31,0,0,0,0,0,0,.14-.13.28-.28.43-.48.14-.19.27-.39.39-.59.12-.2.24-.4.35-.61.15-.27.31-.54.47-.81.08-.14.15-.27.23-.41.07-.11.15-.22.23-.32.17-.21.36-.41.54-.62.08-.09.14-.18.21-.27.07-.1.14-.2.21-.3.09-.15.17-.3.22-.46.03-.09.04-.19.05-.29.02-.18.03-.37-.01-.59,0-.01,0-.02,0-.04.27-.2.51-.43.73-.67.02-.02.04-.03.06-.05h0c.47-.53.84-1.16,1.16-1.83.21-.45.39-.92.56-1.39.09-.24.17-.47.25-.71.27-.81.52-1.61.8-2.34.09-.24.19-.48.3-.71h0s.19-.13.38-.26.41-.3.52-.51c.09-.16.17-.34.24-.54.28-.77.41-1.72.39-2.63,0-.11-.01-.22-.02-.34-.04-.56-.12-1.1-.27-1.55-.02-.06-.08-.16-.18-.28-.35-.44-1.12-1.22-1.86-1.92-.73-.69-1.42-1.3-1.61-1.39-.59-.27-1.25-.34-1.92-.31-.17,0-.34.02-.5.04-.31.03-.61.08-.9.14-.19.03-.37.07-.55.1-.27.05-.59.14-.95.24-.36.11-.75.24-1.18.39-.21.08-.44.16-.67.25-.92.35-1.96.78-3.07,1.26-.28.12-.56.25-.85.38-1.01.45-2.06.95-3.13,1.46-.45.22-.9.44-1.36.66-1.06.53-2.13,1.07-3.17,1.62-1.95,1.03-3.8,2.06-5.35,3-.95.58-1.78,1.11-2.45,1.59-.5.36-.92.69-1.22.97-.21.19-.39.38-.57.57-1.03,1.12-1.53,2.14-2.35,3.24-.14.18-.28.37-.44.56-.78.93-1.61,1.76-2.46,2.54-.21.2-.42.39-.64.58-.85.77-1.72,1.51-2.57,2.31-.64.6-1.26,1.22-1.87,1.9-.81.91-1.58,1.92-2.29,3.1-.55.93-.87,1.63-1.06,2.25-.22.74-.27,1.36-.32,2.1-.04.61-.09,1.3-.26,2.21-.69,3.7-3.35,7.5-5.03,10.95-.24.49-.46.98-.65,1.46-1.3.28-.94-.63-1.19-1.44-1.81-5.92-3.3-11.87-6.28-17.37-1.04-1.92-7.4-11.42-8.68-12.54-1.1-.96-4.05-1.51-5.52-2.68-.64-.51-.84-1.57-1.47-1.9-1.09-.57-3.47.05-3.83-.28-.07-.06-.19-1.24-.42-1.73-.96-2.08-5.18-9.12-7-9.93-.75-.33-1.83-.3-2.3.45-.54.85.08,2.47-1.41,2.1-.29-2.62-1.28-7.37-4.84-5.55-1.12.57-.64,2.65-1.67,2.17-1.51-.7-2.69-5.13-5.08-3.63-.68.42-.7,2.07-2.17,2.2-1.06.09-2.79-.78-3.61-1.46-1.6-1.32-3.09-4.68-5.54-4.37-2.04.26-.61,3.38-2.16,4.63-.92.67-2.06-1.93-3.14.23-1.13,2.26-1.07,7.57-1.82,10.24-.65,2.31-2.11,4.14-2.66,6.99-.41,2.13-.21,5.1-.59,7.05-.1.51-.94.26-.98.3.18-1.55-.47-1.08-.84-.12-.84,2.14-.54,5.17-1.46,7.22-.5,1.14-2.17,1.96-2.44,2.87-.35,1.2.17,2.66-.08,3.68-.11.44-.88.48-1.19.82-1.88,2.08-.34,10.51.74,13.2.35.87,2.89,5.95,3.3,6.35.69.68,1.76.61,1.89.76.16.18.53,3.83.78,4.77.37,1.36,2.63,6.42,2.1,7.15-.17.23-1.11.2-1.33.85-.22.67.33,2.42.58,3.19,1.09,3.31,4.69,7.38,5.56,10.35.18.61.51,1.83-.62,1.59-.59-.41-3.03-3.52-3.62-2.89-.1.46.13,1.76,0,1.93-.19.23-1.37-.76-.85,2.05.49,2.68,2.86,3.97,2.78,6.63-.13.04-.24.09-.35.15-.1.06-.19.13-.28.21-.09.08-.15.19-.22.28-.06.08-.14.16-.2.25-.24.38-.43.79-.77,1.06-.57.45-1.15.89-1.75,1.34-.59.44-1.2.89-1.81,1.33-.45.32-.92.64-1.38.96-2.67,1.85-5.45,3.64-8.13,5.27-.63.38-1.25.76-1.87,1.12-.15.09-.42.27-.74.49-.64.45-1.5,1.07-2.04,1.52-.27.23-.46.41-.51.51-.13.26-.04.57.02.87.01.08.03.15.03.22.02.22-.03.42-.24.57-.19.14-.48.25-.8.35-.11.03-.22.07-.33.1-.23.07-.47.14-.69.22-.11.04-.22.08-.33.13s-.21.09-.3.15c-2.04,1.13-3.92,2.52-5.6,4.13-.56.54-1.1,1.1-1.61,1.68-.4.46-.68.8-.88,1.07-.14.18-.24.33-.33.45-.11.16-.2.28-.3.39-.09.11-.19.2-.33.31-.04.03-.08.06-.13.1-.12.09-.28.18-.47.29-.21.12-.47.27-.8.45-.18.1-.37.2-.59.33-.08.04-.16.1-.26.19-.68.58-1.88,2.14-3.29,4.18-.18.26-.36.53-.55.8-.54.79-1.1,1.65-1.67,2.53-.81,1.26-1.64,2.57-2.45,3.89-.59.96-1.17,1.92-1.72,2.85-.73,1.24-1.42,2.43-2.02,3.51-.15.27-.29.53-.43.78-.48.89-.89,1.67-1.2,2.31-.08.16-.15.31-.21.45-.1.21-.17.4-.23.56-.06.17-.12.32-.15.43-.03.13-.05.28-.08.42-.24,1.23-.27,2.71-.24,4.21.02.83.04,1.67.05,2.45s-.01,1.53-.08,2.18c-.03.24-.07.51-.14.79-.13.56-.31,1.19-.53,1.84-.11.33-.22.66-.34.99-.47,1.34-.98,2.71-1.25,3.79-.7,2.84-1.03,5.4-1.61,7.77-.58,2.37-1.41,4.57-3.11,6.69-.49.61-1.04,1.21-1.68,1.81-8.41,7.84-23.1,25.38-24.71,27.37-1.71,2.1-7.95,12.24-8.33,13.82,0,0,0,0,0,0-.01.07-.06.12-.09.17,0,0,0,0,0,.01-.02.03-.05.05-.07.08-.01.01-.02.03-.03.04-.02.02-.04.04-.06.08-.05.07-.12.18-.19.31-.18.31-.38.71-.4.81,0,0,0,0,0,0-.03.17-.06.38-.08.61-.01.1-.02.21-.03.3-.01.18-.03.34-.04.5-.07.63-.17,1.11-.29,1.52-.03.1-.06.2-.09.3-.16.48-.33.88-.48,1.37-.03.1-.06.2-.08.3-.11.42-.19.92-.23,1.57-.02.33-.05.66-.09.99-.29,2.34-1.05,4.78-1.36,6.96-.25,1.74-.12,3.4-.15,5.09h0c-.01,1.01-.08,2.03-.3,3.08-.11.5-.12,1.01-.09,1.52.03.51.12,1.03.2,1.55.13.77.27,1.54.26,2.31,0,.02,0,.04,0,.05,0,.24-.02.48-.05.72-.24,1.55-.36,3.11-.42,4.67-.02.52-.03,1.04-.04,1.56-.02,2.08.05,4.17.1,6.24.04,1.68-.03,3.55.35,5.19.23,1.03.32,1.96.41,2.88.04.46.09.93.15,1.41.06.48.14.96.26,1.48.6,2.64.39,5.5,1.44,8.02.59,1.4,1.14,2.81,1.69,4.22.55,1.41,1.1,2.82,1.68,4.21.47,1.13.95,2.25,1.46,3.36.52,1.11,1.06,2.2,1.66,3.28.89,1.61,1.83,3.19,2.79,4.76s1.96,3.12,2.96,4.66c.07.11.16.23.24.34.09.12.18.25.27.37.16.2.34.42.51.63.14.17.27.33.41.51.08.1.17.2.25.3.1.12.2.24.3.36.36.44.72.88,1.02,1.3.25.35.44.67.59.98.03.06.07.13.1.19.32.77.42,2.37.64,3.87.06.43.14.85.23,1.23s.2.75.34,1.05c.21.46.47.81.82.96.12.05.24.08.38.09.14,0,.28,0,.44-.05.43-.12.68-.47.88-.84.13-.25.24-.51.36-.71.06-.1.12-.19.2-.26.14-.13.32-.18.56-.07.64.28,1.15,1.08,1.59,2.17.42,1.03.77,2.33,1.11,3.69.04.14.07.29.11.43.7,2.81,1.38,5.78,2.51,7.2h0s.02.02.03.03c.53.64,1.38.8,1.67,1.27.68,1.06.84,4.02,2.09,4.06.29,0,.63-.14,1.06-.49.2-.17.35-.37.47-.59.06-.11.11-.22.15-.34.15-.41.24-.85.34-1.26.05-.19.1-.37.16-.54.1-.26.14-.6.26-.79.12-.19.32-.23.74.11.21.18.4.63.57,1.25.06.24.13.52.18.81.09.42.17.89.25,1.38.01.08.03.17.04.26.45,2.92.8,6.66,1.39,7.88.16.11.31.18.46.21.45.11.87-.08,1.26-.48.51-.53.97-1.44,1.35-2.51.52-1.46.9-3.23,1.12-4.79.22-1.56.28-2.9.16-3.5,0,0,0,0,0,0,0-.03-.01-.07-.02-.1.45.6.83,1.25,1.19,1.91.12.22.25.44.36.66.08.16.15.3.21.43.06.13.11.24.16.35.28.62.41.79,1.36.82h0c.07,0,.42-.08.9-.18.74-.16,1.79-.38,2.63-.45.81-.07,1.43,0,1.41.4-.17,2.49-1.94,2.79-4.02,2.47h0c.78.79,1.43,1.67,1.96,2.61.18.31.34.63.5.96.61,1.3,1.03,2.71,1.3,4.16.08.43.32,1.51.63,1.97.03.05.07.1.11.13.11.1.22.12.34,0,.06-.06.12-.16.18-.29.03-.07.06-.15.1-.24.03-.08.05-.15.08-.24-.04.32-.06.74-.07,1.19,0,1.37.21,3.1.95,3.75.04-.05.23-.18.46-.33.09-.06.18-.11.28-.17.16-.1.33-.2.48-.28.25-.14.46-.25.53-.27,1.37-.32,2.19.37,2.82,1.2.19.24.35.49.52.73.23.33.44.65.67.88.21.22.42.54.64.88.07.11.14.22.21.33,1.11,2.25,1.95,4.85,4.11,5.65-.71-.26-.26-7.62-.24-8.2.45-.45,2.63,1.63,3.38,1.93.11.15.37.27.48.48.19.34-.48,1.26.96.96.2,3.85,2.65,2.75,5.79,2.89,0,.16-.04.37,0,.48.19.59.46.71.96.96.11.06.32-.04.48,0,.14.18.32.32.48.48.16.15.32.37.48.48,1.81,1.33,1.96.58,3.38.96,4.51,1.23,8.2,4.09,12.54,5.56v.23h0s.07.02.13.02c.06,0,.12,0,.19.01.07,0,.15,0,.22,0,0,0,0,0,0,0,.07,0,.14,0,.21,0,1.54.43,2.94-.03,4.53-.02.82,0,1.62,0,2.43,0h0s0,.08,0,.12c0,.04,0,.08,0,.12,0,.08-.01.16,0,.24.56-.28,1.02.5,1.36,1.42.08.2.15.41.21.62.16.52.28,1.02.36,1.34.02.1.03.22.03.34,0,.12-.01.25-.02.38-.02.2-.03.39-.02.57,0,.06,0,.11.01.17,0,.04,0,.08,0,.13,0,.08,0,.16,0,.24,0,.04,0,.08,0,.11.91,2.89,2.55-1.33,2.63-2.4.01-.14.02-.33.03-.53.12-.36.25-.81.35-1.31.06-.27.11-.56.16-.85.04-.24.07-.47.1-.71.07-.63.09-1.25.04-1.79-.05-.56-.18-1.04-.42-1.35.74.96,1.4,2.1,2.36,2.88.02.02.05.04.08.06.09.06.21.14.36.22.07.04.15.08.23.13.22.11.46.24.73.36.52.24,1.09.47,1.61.63.66.2,1.22.28,1.42.09.06-.06.11-.12.15-.18s.07-.14.1-.22c.05-.14.06-.3.06-.47,0-.17-.04-.35-.09-.55-.1-.39-.29-.83-.55-1.31-.07-.3-.14-.6-.19-.89-.05-.3.04-.65,0-.96,1.36-.16,2.5-1.42,2.65-1.42.68,0,1.07,2.65,2.65,1.9.04.06.13.15.23.25.07.07.14.14.2.19.02.01.04.03.05.04.06.05.12.08.17.12.04.03.1.07.14.09.18.1.32.14.46.18.07.02.13.05.2.09.03.02.07.02.12.02.09,0,.21-.04.28-.04.04,0,.07,0,.08.02.05.08-.02.32-.02.54,0,.06,0,.11,0,.16.02.16.1.28.3.3h0c.4.04.76,0,1.07-.1.93-.3,1.43-1.15,1.53-2.21,0-.1,0-.21,0-.31,0-.1.01-.2,0-.31.17.13.32.23.48.33.15.09.3.17.45.24.1.05.21.09.31.13.21.09.43.17.68.26.05.02.12.1.2.18.02.02.03.03.05.05.02.02.06.04.09.06.1.08.23.15.4.18.16.02.32.04.46.05.71.05,1.17-.03,1.46-.17.12-.06.21-.13.28-.21.08-.09.14-.18.18-.28.02-.05.04-.1.05-.15.02-.06.03-.12.04-.18,0-.03.02-.07.02-.1.03-.18.05-.33.14-.39.05-.03.27-.02.54-.03.07,0,.14-.01.21-.02.22-.03.45-.09.64-.21.21-.14.43-.32.66-.51.69-.59,1.46-1.34,2.15-1.52.46-.12.95-.16,1.46-.16.17,0,.34,0,.51,0,.34.01.69.03,1.03.04.34.01.67.02.99,0,1.3-.08,2.68.14,4.06.46.56.13,1.12.27,1.67.42,1.41.37,2.8.77,4.11,1,2.34.4,4.72.69,7.1.74,1.43.03,2.86-.03,4.28-.2,0,0,0,0,0,0,0,0,0,0,0,0,0,0,0,0,0,0,.75-.09,1.35-.27,1.84-.52.41-.21.72-.48.96-.8.1-.14.19-.29.27-.45s.13-.33.18-.51h0c.06-.09.12-.2.11-.35,0-.03-.02-.05-.02-.08.07-.55.05-1.18-.07-1.89-.14-.83-.05-1.52.22-2.1.37-.79,1.09-1.37,2.13-1.72.27-.09.54-.16.81-.24.37-.11.75-.22,1.12-.32.43-.11.86-.22,1.3-.31,1.9-.41,3.78-.62,5.68-.65,1.35-.02,2.7.06,4.06.22,1.82.21,3.66.57,5.52,1.07.05.01.11.01.17.01.02,0,.04,0,.06,0h0c.11,0,.22-.02.33-.03,0,0,0,0,.01,0,.11-.01.21-.01.3,0,.03,0,.06,0,.09.01.08.02.16.06.24.1.16.08.32.19.48.28.08.04.16.08.24.1.02,0,.06.1.14.2s.19.22.34.28c.06.02.14.05.22.08.02,0,.04.01.06.02.2.07.43.14.67.2.45.12.93.21,1.31.2.13,0,.24-.02.34-.05.13-.04.24-.09.32-.15.09-.06.16-.14.21-.22.11-.17.16-.36.18-.56,0-.05,0-.1,0-.15,0-.05,0-.1,0-.14,0-.29-.01-.54.06-.67.05-.1.12-.2.2-.32.21-.31.5-.69.8-1.08.03-.04.06-.08.09-.12.23-.3.47-.61.7-.92.23-.31.44-.63.62-.93.01-.02.03-.04.05-.06.02-.02.03-.04.05-.06.09-.08.2-.15.28-.23h0s.01-.02.02-.03c.03-.03.06-.06.08-.1h.96c.06.33,1.05,3.07,1.23,3.35,1.45,2.33,3.52.57,4.77-.77.19-.21.65-.18.69-.24.05-.08-.35-1.79-.41-1.86h.48c0,.18.61,2.35.77,2.46.41.29,1.98.59,2.78.98,1.12.55,5.27,3.39,6.04,2.75.21-.17-.02-.8.05-.89.15-.18,2.23-.4,1.93-1.93.08-.01.16,0,.24,0,0,0,0,0,0,0h0c.08,0,.16.01.24,0,1.37-.28,3.17-1.57,4.93-2.07,3.44-.97,7.63-1.09,11.13-.34.4.09.58.67.83.95h0c.43.69,3.08,3.61,3.62,3.85.98.45.67-.92.72-.96h0c.14-.12,0-.96,0-.96h0c0-.16,0-.32,0-.48.03-.62-.09-1.36,0-1.93h0c0-.05-.38-.86-.48-.96-.04-.05-.04-.21-.03-.41.01-.14.03-.29.04-.44.01-.15.02-.3.01-.43,0-.06-.01-.12-.02-.17.35-.62,1-.98,1.45-1.45.59-.61,1.59-2.04,2.14-1.91.2.05,1.72,1.55,2.42,1.93.99.53,1.95.63,2.81,1.05,1.33.65.94,1.66,2.27.86.18-.11.32-.3.41-.41l.07-.07c.12-.05.31.03.48,0h0c.14-.02.31-.02.47-.02.17,0,.34.02.49.02.05.06.12.1.17.15.28.28.62.51,1,.69.08.04.17.05.25.09.24.09.47.18.72.25.21.05.41.1.62.13.29.06.58.1.85.13h0s.05-.02.08-.04c.08-.04.13-.09.14-.15.02-.09.01-.19.02-.29.02-.14.02-.26,0-.38-.01-.11-.03-.22-.07-.32-.13-.4-.43-.65-.66-.9-.1-.11-.2-.22-.25-.34-.07-.15-.13-.28-.18-.4-.12-.28-.2-.5-.33-.74-.07-.14-.15-.29-.27-.48-.02-.04-.05-.08-.08-.12-.04-.06-.07-.12-.12-.19-.25-.39-.48-.7-.71-.98s-.45-.54-.7-.82c-.16-.19-.34-.38-.53-.6-.75-.87-1.12-1.19-1.93-1.93-.07-.07-.14-.14-.21-.21,0,0,0,0,0,0-.19-.2-.39-.43-.67-.68-.02-.02-.04-.04-.07-.07-.69-2.76,2.5-.68,3.88-1.66.44-.31.71-1.89,1.2-2.66.71-1.09,2.49-1.86,2.58-2,.51-.74-.93-1.93-.95-3.06-.04-1.73,1.55-3.32,1.48-5.08h0c.21-.02.89-.37.96-.48,1.81-.93,2.93.45,4.57.97,1.68.53,3.57,1.27,5.32,1.44,1.45.14,6.54.49,7-.97.03-.1.03-.27.03-.45,0-.09,0-.19-.01-.27,0-.09-.01-.17-.02-.24l3.38.96c-1.49-2.88.99-2.59,1.42-3.64.61-1.49-.88-1.1-.94-1.18-.13-.17-.19-3.18-1.45-3.85,1.55-.04,2.83-.4,2.83-2.15,0-1.48-1.44-2.06,1.03-2.67,1.84.52,5.4,2.12,5.8-.74.26-1.86-1.2-2.01-1.46-3.59.21-.4.46-.68.72-.88.04-.03.07-.04.11-.06.24-.15.49-.25.75-.3.15-.03.31-.04.47-.05.16,0,.32,0,.49.01.07,0,.15.01.22.02.09,0,.18.02.28.03.16.02.32.04.48.06.18.02.36.05.54.06.15.01.3.02.44.02.97.01,1.89-.28,2.59-1.55.05-.08.1-.16.14-.25.09-.2-.07-.68,0-.96.13-.49.22-.82.28-1.13.03-.16.06-.31.09-.48.05-.33.08-.71.11-1.28.08-1.72-.2-1.35-.44-2.67-.04-.23.82-.45.93-.7.74-1.77.29-3.15,0-4.82-.1-.58.08-1.31,0-1.93h-.96s0-1.93,0-1.93c0-.32,0-.64,0-.96,0-.48-.02-.97,0-1.45,0-.05,0-.09,0-.14,0-.14,0-.29,0-.43,0-.09,0-.19.02-.28.01-.09.03-.19.07-.28l.4-.32c-.02-.15,0-.32,0-.49,0-.08.01-.17.01-.25,0-.08,0-.16-.02-.23.5-.17.35-.7.48-.96.13-.26.89-1.41.96-1.45.17-.08.66.03.96,0,.91-.09,2.08.16,2.89,0,.21-.04.34-.38.48-.48,1.62-1.19.81-1.59.48-3.37.53-.53,2.56,2.12,3.61,0,.9-1.81-.48-6.48-1.19-8.45-1.02-2.83-4.06-6.56-2.9-9.39h0s.04-.07.07-.1c.03-.03.06-.06.1-.09.07-.06.16-.12.22-.18.04-.04.08-.08.09-.11,1.71-1.26,2.24,1,3.13,1.94,1.54,1.64,4.75,5.2,6.69,5.86.53.18,1.13.54,1.28-.34.09-.5-.91-2.04-1.25-2.6l-4.54-6.31c2.95-.18,3.76,3.39,7.24,2.41,1.37-1.26-4.11-7.28-5.03-8.72-1.02-1.61-1.93-3.28-2.68-5.03,1.37-.06,2.18,1.5,3.19,2.11,3.18,1.92,6.6.16,3.8-3.32-1.25-1.56-5.71-5.02-6.28-6.26-.37-.81-.33-2-.25-2.89.04-.39.16-.83.32-1.31.06-.16.12-.32.18-.48.13-.33.28-.67.43-1.01.08-.17.15-.34.23-.52.24-.52.47-1.04.68-1.54.21-.5.38-.98.49-1.41.07-.29.12-.56.12-.8,0,0,0-.01,0-.02,0-.11,0-.22-.02-.32,0-.03-.04-.08-.11-.13-.02-.01-.05-.03-.07-.05-.43-.34-1.61-.95-2.24-1.37-.11-.07-.2-.14-.27-.2-.43-.38-.89-.85-1.35-1.39s-.92-1.13-1.34-1.74c-.04-.05-.07-.11-.11-.16-.38-.56-.74-1.14-1.03-1.7-.08-.15-.14-.29-.21-.44-.12-.24-.22-.48-.31-.71-.08-.21-.17-.42-.23-.62h0c-.14-.46-.42-2.29-.48-2.89-.03-.31-.07-1.3,0-1.45.33-.71.63.38.48-1.45-.03-.43-.05-1.03,0-1.45.23-1.83.62-3.14.48-5.3.78-.96.81-2.85,0-3.86.11-1.71-.19-3.65,0-5.3.01-.13.95-1.46.48-2.41l2.41.48c.18-.99-.15-1.85-.34-2.79-.14-.67-.41-2.89-1.58-2.52-.08-.43.06-.99,0-1.45-.07-.51-.48-.91-.48-.96-.04-.47,0-.97,0-1.45,1.95.22.55-.97.48-1.45-.04-.3.02-.65,0-.96,1.49.3.85-.73.96-1.93.03-.32,0-.65,0-.96.01-.41,0-.63,0-.96,0-.32,0-.64,0-.96l3.38-.97c.31-.64-.47-1.33-.48-1.44-.04-.55.41-1.32.48-1.93.09-.81,0-.53,0-.96,0-.34-.05-1.39,0-1.45.11-.11.85.1.96,0,.34-.32-.47-.91-.48-.96-.07-.4-.02-1,0-1.45,1.9.18.53-.67.48-.96-.58-3.63-1.61-3.45-2.65-6.28-.97-2.64-.84-5.78,1.18-7.96.73-.78,2.27-1.12,2.36-1.26.24-.34-.07-3.74,1.27-5.24.65-.73,1.97-.23,2.17-.97.07-.27-.07-.69,0-.96.03-.13.08-.27.13-.42.1-.29.21-.59.28-.79.04-.1.06-.19.07-.23l2.41-.96c.16.05.32.1.47.16.36.13.72.26,1.1.31.12.01.24.02.36.02.06-.19.08-.44.06-.73-.03-.45-.13-.99-.21-1.52-.08-.48-.14-.95-.13-1.33.01-.35.09-.62.29-.75.03-.02.07-.02.14,0,.02,0,.05,0,.07.01.05,0,.09.02.15.02h0c.06,0,.12,0,.18,0,.03,0,.06,0,.09,0,.09-.01.18-.04.26-.11.09-.07.15-.21.2-.39,0-.03.02-.06.03-.09.03-.12.07-.24.1-.37.03-.1.06-.19.1-.28.04-.09.08-.18.14-.24l.11-.11.11-.11c.1-.09.21-.19.33-.3,0,0,.01,0,.02-.01h0s.02-.02.03-.03c.12-.11.24-.24.38-.4.87-1.07,2.24-1.36,1.93-2.89-.04-.22-.27-.55-.56-.89-.53-.61-1.34-1.27-1.95-1.46-.14-.04-.26-.06-.38-.06-.1-.31-.19-.63-.26-.96-.06-.27-.12-.53-.18-.79-.01-.06-.03-.12-.04-.18-.07-.29-.47-.45-.48-.48h0c-.01-.06-.02-.14-.02-.22,0-.16,0-.35.01-.52,0-.08,0-.16.01-.23.43-.34,1.06-.61,1.45-.96,2.59,1.43,3.28-2.2,4.34-3.86,1.79-1.81,3.92-4.85,3.9-7.47,0-.98-.58-1.96-.45-2.79.12-.76.93-1.33.91-2.5-.01-.79-.54-1.49-.43-2.32,1.01-7.27,9.55-13.05,10.07-21.33Z"/>
  <g>
    <path class="cls-2" d="M3.04,11.7v-1.36h4.13v1.36H3.04Z"/>
    <path class="cls-2" d="M12.35,15.76c-.77,0-1.44-.23-1.99-.7-.56-.46-.99-1.14-1.29-2.03-.3-.89-.45-1.98-.45-3.27s.15-2.37.45-3.25c.3-.87.73-1.54,1.29-1.98.56-.45,1.22-.67,1.99-.67s1.42.22,1.97.67c.55.45.98,1.11,1.28,1.98.3.87.45,1.96.45,3.25s-.15,2.38-.45,3.27c-.3.89-.73,1.57-1.28,2.03-.55.46-1.21.7-1.97.7ZM12.35,14.29c.39,0,.73-.15,1.03-.45.3-.3.54-.78.7-1.44.17-.66.25-1.54.25-2.64s-.08-1.97-.25-2.62c-.17-.65-.4-1.11-.7-1.4-.3-.29-.65-.43-1.03-.43s-.73.14-1.03.43c-.3.29-.54.75-.71,1.4-.17.65-.26,1.52-.26,2.62s.09,1.98.26,2.64.41,1.14.71,1.44c.3.3.65.45,1.03.45Z"/>
    <path class="cls-2" d="M21.26,15.76c-.72,0-1.36-.14-1.92-.41s-1.01-.65-1.34-1.12-.49-1.02-.49-1.62c0-.49.1-.93.3-1.3s.45-.71.77-1c.31-.29.64-.52.99-.7v-.06c-.42-.31-.78-.68-1.08-1.12-.3-.44-.45-.95-.45-1.55s.14-1.14.43-1.59c.29-.45.68-.8,1.17-1.05.49-.25,1.06-.37,1.7-.37.67,0,1.24.13,1.72.39.48.26.85.62,1.12,1.08.27.46.4.99.4,1.6,0,.39-.08.76-.23,1.1s-.35.65-.58.91c-.23.27-.46.49-.7.67v.06c.34.2.66.44.96.7.3.27.53.58.71.95.18.37.27.81.27,1.32,0,.58-.15,1.1-.46,1.57-.31.47-.74.84-1.3,1.12-.56.28-1.21.42-1.96.42ZM21.3,14.42c.39,0,.73-.07,1.02-.22.3-.15.53-.36.7-.63.17-.27.25-.59.25-.97,0-.33-.07-.62-.22-.86-.15-.24-.35-.45-.61-.63-.26-.18-.56-.35-.9-.5-.34-.15-.71-.31-1.1-.46-.4.27-.72.59-.97.98s-.38.82-.38,1.3c0,.39.1.74.29,1.04.19.3.46.53.79.7.33.17.71.26,1.12.26ZM22.02,9.16c.33-.32.59-.66.76-1.01.17-.35.26-.72.26-1.1,0-.35-.07-.67-.2-.94-.14-.28-.34-.5-.6-.66-.27-.16-.59-.24-.96-.24-.47,0-.86.15-1.17.44-.31.29-.47.7-.47,1.22,0,.42.11.76.34,1.03.22.27.52.51.88.7.36.2.75.38,1.18.55Z"/>
  </g>
</svg>