<?xml version="1.0" encoding="UTF-8"?>
<svg id="a4" xmlns="http://www.w3.org/2000/svg" viewBox="0 0 600 500">
  <defs>
    <style>
      .a4 {
        fill: #5d4c39;
      }

      .cls-2 {
        fill: #c9caca;
      }
    </style>
  </defs>
  <path class="a4" d="M433.31,94.32c-.29-1.6-3.21-1.83-4.56-1.66-1.76.23-3.62,1.71-5.52,1.43v-7.43c0-.71,5.32-7.74,6.16-9.19.72-1.24,2.61-4.95,2.48-6.14-.06-.51-.48-.98-.49-1.46-.03-1.35,1.72-1.46.23-3.58-.8-1.14-2.17-2.03-3.59-1.93-.53-1.51,1.47-2.02,1.47-3.12,0-1.72-3.22-2.28-3.39-2.88v-.48c.82-.82,1.74-1.32,1.42-2.62-1.6-.4-4.46-2.42-5.98-2.42-.8,0-3.8,1.61-4.57,2.17-.33.24-.4.65-.47.71-.81.6-1.91,1.87-2.88,1.44-.12-.05-1.34-2.13-1.88-.2-.32,1.14-.22,3.3-.61,4.67-.63,2.23-1.89,1.67-3.27,2.49-.8.48-1.11,2.01-1.72,2.14-.4.09-.92-.42-1.41-.47-1.31-.14-3.78,2.48-4.06,3.85-.79.12-.46-.65-.48-1.2-.05-1.79-.02-3.27-.48-5.04-1.27-.38-1.8.64-2.3,1.78-1.09,2.52-1.59,6.67-2.73,8.78-.13.25-.78.83-.72.16-.01-1.57-1.43-.04-1.93.54-3.37,3.9-4.34,8.23-7.66,12.01-5.04,5.73-10.56,9.37-14.02,16.68-1.79,3.79-2.47,7.92-3.74,11.84-.08-.04-.82-.05-.96,0-.03.01-.47.45-.48.48-.05.14-.04.78,0,.96-.29-.06-.74.09-.96,0-.24-.1-1.4-.88-1.44-.96-.09-.19.06-.67,0-.96-.81-.25-.9.46-.96.48-.36.09-.99-.02-1.44,0-.53.02-1.49.11-1.92,0-.03,0-.11-.28-.48-.48-.34-.18-.72-.35-.96-.48-.12-.06-.33.06-.48,0l-.48-.48c-.49-.54-.29-.38-.48-.96-.42-1.27-.61-2.49-.48-3.84-1.12.37-1.04.99-.51,1.88-1.35-.1-.75.59-.93,1-.02.04-.42.12-.48.48-.48-.02-.96.03-1.44,0-.19-.98-.47-.9-.48-.96-.08-.41-.07-1.5,0-1.92,0-.04.59-.18.44-.64-.09-.28-.43-.29-.44-.32-.14-.35.03-.68-.45-1.22-.53-.59-1.71-.8-1.9-1.47-.32-1.14-.33-2.95-.61-4.19-1.1-.98-.87-2.69-1.84-3.67h-.72s-.24-.48-.24-.48c-.56-1.15-.24-2.92-.71-3.85-.38-.76-2.64-2.9-3.35-3.84-2.54-3.37-4.66-7.12-7.45-10.3-3.24-3.7-6.89-5.24-10.1-8.61-1.23-1.29-1.04-.94-2.37-1.94-2.76-2.08-1.38-2.13-5.29-3.11-.15-.04-.32.03-.48,0-.03,0,.1-.3-.48-.48-.15-.05-.34.05-.48,0-.03-.01.13-.28-.48-.48-.25-.08-.7.08-.96,0-.06-.02-.19-.26-.96-.48-5.24-1.48-13.93-4.53-18.95-6.73-.94-.41-2.42-1.83-3.46-1.83-1.04,0-1.82,1.2-2.46,1.39-1.64.47-2.75-.87-3.05,1.75-.58,5.16,10.57,15.02,14.24,18.39.95.87,2.77,1.7,3.63,2.61,3.23,3.43,6.82,7.93,9.32,11.79.37.56.94.33,1.21.46-.12,2.39.05,2.18.48,4.32.18.92.2,1.84.48,2.88.28,1.03.73,1.72.96,2.4.17.49.53,1.52.48,1.92l-3.54-.45c-1.02.29-1.09,1.66-1.28,1.87-.29.32-1.35-.37-1.91-.24-1.37.31-1.35,1.67-1.69,1.72-2.19.32-3.88-2.81-5.81-3.3-2.21-.56-1.38.83-1.87.91-.86.13-2.13-.05-3.09-.03-.16,0-.32,0-.48,0l-.28-.43c-1.4,0-2.71-.07-4.03-.53-.17-.48-.39-.38-.48-.48-1.22-1.26-1.7-1.15-2.88,0-.47.46-.79.77-.96,1.44-.11-.05-2.27-.49-2.4-.48-.11-.48-.47-.86-.96-.96.6-2.22-2.32-3.41-2.81-5.1-.32-1.11.19-2.61-.13-3.71-.3-1.03-2.2-1.49-2.34-1.74-.84-1.49-1-1.06-1.37-1.51-.08-.1-.89-1.98-1.03-2.33-2.45-5.89-3.71-6.49-8.17-10.78-3.04-2.93-5.61-6.71-8.85-9.37-.68-.56-2.89-1.61-3.13-1.91-.05-.06.08-.41-.48-.96l-.48-.48c-.16-.16-.32-.32-.48-.48l-.48-.48c-.16-.17-.33-.32-.48-.48l-.48-.48c-.66-.71-1.36-1.31-1.92-1.92-.05-.05.1-.68-.47-1.2-.67-.61-2.47-1.74-3.39-2.38-6.72-4.72-11.73-5.73-19.31-8.03-3.44-1.05-6.61-2.89-10.39-2.27-.12.29.06.71-.02.93-.01.04-.35.07-.41.32-.23,1.14.07,1.8-.55,3.04-.01.03-.2,0-.41.35-1.64,2.7,1.81,5.92,3.33,7.77,1.19,1.46,1.93,3.29,3.31,4.6,1.69,1.61,6,5.35,6.73,7.42.08.24-.13.79.01.94.14.14.74-.08.94.02.17.08,1.64,2.77,2.02,3.27.23.21.58.07.85.08.16,1.48,1.38,3.24,2.88,3.36.26,1.37,2.81,7.08,3.58,9.13,1.39,3.69,5.08,10.79,4.58,14.37l.43.29c.13.54.04,1.09.05,1.63.07,2.34.49,4.4.48,6.71l-.96-1.44h-1.44s-.02,1.42-.02,1.42c-1.96-.36-1.28.84-1.42.98-.07.07-.72-.17-.89.06-.23.3.09,1.06-.12,1.31-.18.22-1.38.18-1.38,1.03-.16.01-.32,0-.48,0h-1.44c-.07-.28.07-.68,0-.96-.11-.46-.39-.66-.72-.96-1.55.56-1.71,1.7-1.7,3.33-1.83.55-2.95.46-4.77.02h-.48c.04.14-.03.32,0,.48.03.14-.02.32,0,.48.02.16-.03.33,0,.48.06.28.21.42.48.48.17.31.32.64.48.96.16.32.33.63.48.96l-3.84-.96v2.4s-1.44-.48-1.44-.48c-.33-.64-.67-.72-.48-1.92,0-.04.54-.11.43-.62-.37-1.66-1.05-1.6-2.35-1.78-.16-.02-.33.03-.48,0-.56-.1-.94-.14-1.44-.48-.12-.08-.17-.73-.77-.9-.51-.15-3.86-.17-4.01-.03-.16.15.07.73-.02.93-.01.03-.28.19-.48.48l-.48.48c-.29.2-.45.47-.48.48-.62.29-.94-.65-.96.96,0,.3-.06.74,0,.96-.78-.06-1.63.09-2.4,0-.17-.02-.37.04-.48,0l-.48-.48c-.13-.56.08-1.44,0-2.15-.07-.54-.6-1.25-.47-1.69l-.4-.31c-.54-1.6-.91-2.81-1.04-4.49-.01-.17.03-.35,0-.48l-.69-.03-.27-.45c-.08-.06-.39-1.81-.48-1.92-.12-.14-1.37-.08-1.69.46-.7,1.18-.72,3.9-.71,5.29-1.08-.35-1.71-1.76-2.4-2.4.12-2.28-2.96-3.79-4.8-4.32-.47-.78-.95-1.65-1.44-2.4-.14-.22.01-.35-.48-.48-.13-.04-.31.01-.48,0l-.02-.94c-1.85.32-1.53-.97-1.95-1.41-.22-.24-1.79.05-2.35-.05-3.99-5.39-6.19-9.68-12.31-13.35-2.99-1.79-14.36-6.43-15.75-8.71-1.91-3.13-1.74-3.12-4.56-5.75-.15-.14-.28-.3-.48-.48-.79-.7-1.22-.9-1.92-1.44-.08-.06-.19-.27-.48-.48-.63-.46-.73-.53-1.44-.96-.03-.02.12-.24-.48-.48-.13-.05-.33.05-.48,0-.02,0,.12-.35-.28-.43-3.21-.59-1.83,1.06-2.62,1.84-.44.43-3.64-.63-4.29.5-.16,0-.32,0-.48,0-.32,0-.64,0-.96,0-.62-1.63-2.58-2.17-3.84-2.88-.03-.02-.02-.25-.48-.48-.3-.15-.51-.28-.96-.48.34-1.38-1.3-1.25-2.4-1.44-.16-.03-.33.03-.48,0-.22-.95-1.17-.95-1.92-1.19-4.99-1.63-7.29-1.13-12.24-.73-2.34.19-4.17-.52-6.44-.5-.99-1.52-1.66-7.16-3.15-7.64-.95-.31-1.62,2-1.68,2.65-.13,1.43.89,2.97.49,4.54-.79-.03-1.61.04-2.4,0-.53-.03-1.03.06-1.59-.08-1.2-.3-2.96-2.11-3.93-1.84-1.43.4.28,3.98-.24,5.28-1.35-.05-2.72.08-4.07-.01-.83-.06-1.53-1.11-2.1.34-.36.92.43,1.35-1.51,1.11-.35.84.54,2.1.44,2.58-.06.28-1.84,2.06-2.18,2.15-.6.18-2.15.17-2.75,0-.48-.14-.71-.83-1.5-.91-2.29-.24-2.18,2.99-2.73,4.5-.21.58-.7.71-.9,1.02-.52.79-.38,1.58-.46,1.7-.55.87-1.27-.81-1.35-1.29-.17-1.01-.08-2.02-.09-3.03-.77-.15-1.26.41-1.67.97-.52.72-1.07,2.7-1.22,2.86-.95,1.1-2.55-1.89-2.87-2.58-.28-.62-.96-.21-1.44-.3.03.87-.08,1.76,0,2.63.26,2.65,1.95,7,1.95,9.12,0,.77-.47,1.34-.51,1.93-.09,1.5.07,3.02-.03,4.52l-2.34.54c-.11,1.27-.79,2.49-.52,3.8h-1.44c-.4,1.47.57,1.43.96,1.92.92,1.15.34,4.33.49,5.98.36,4.09,2.31,9.88,4.21,13.53.43.82,1.78,2.27,1.94,2.85.18.64-.09,1.83.13,2.05.19.19.82-.04.9.04.05.05-.13.95.22,1.45.6.86,1.51.75,2.43,2.86,1.95,4.51,3.02,8.31,3.69,13.09.53,3.73,3.6,8.4,5.91,11.35,1.13,1.44,3.49,3.23,4.31,4.8.56,1.09.02,2.74.3,4.01.23,1.02,1.66,3.82,2.23,4.97,1.37,2.8,3.92,7.44,6.33,9.25.76,2.38,3.4,3.9,5.28,5.27.14.11.15.65.96.96.25.1.85-.11.96,0,.11.1-.35,1.39.7.93.22-.1.23-.44.26-.45.23-.08.66.06.96,0v.96s1.66.02,1.66.02c.54-.08-.39-.87,1.22-.98.3-.02.68-.04.96,0-.33,1.21.9,1.18,1.92,1.44.15.04.34-.04.48,0-.27,1.24.55.92,1.28,1.34,1.68.97,2.5.65,1.6,2.97.29.09.77-.08.96,0,.06.03.3.57.96.96.05.03,0,.41.69.49.78.09,1.85.02,2.67-.01v-.75c.16.17.17.38.03.64-.08-.04.14.53.27.62.35.22,1.35-.09,1.79-.01,2.13.38,4.09,2.24,5.85,3.41,1.76,1.18,3.62,2.21,4.53,4.23.15.32.34.63.48.96.95-.1,1.54.51,1.44,1.44.05.02-.03.32,0,.48h.96s0,.96,0,.96c-.3.06-.74-.08-.96,0-2,.76-1.68,1.91,0,2.88l.5,3.35h.94c.31.99.69,1.24.96,1.93.09.23-.12.81,0,.95.12.13.74-.09.95.01.1.05.38.92.48.96.81,1.68-.06,1.9-.48,3.36-.04.14.04.32,0,.48h-.94c-.44,1.67-.44,2.64,0,4.3h.94c.04.45.04,1.01,0,1.45-.16,1.73-1.15,2.61-.96,4.32.47.05,1-.07,1.44,0,.37.06,1.31.22,1.44.48.1.22-.11.85,0,.96.1.1.71-.1.96,0,1.42.54,1.34,1.84,1.44,1.92l-.51,2.85c-.07.06-2.64-.06-1.41.98.41.34,1.6-.49,2.08-.41.88.13,2.06,1.47,3.19,1.37.23.41.73.68.96,1.44.54,1.79.54.57.96.96.06.05.2.95.48,1.44.85,1.48.97.74,2.4.48,1.97,4.17-2.62,3.42-4.8,5.76-.14.05-.33-.05-.48,0-.93.3-1.68.88-1.92.96-.15.05-.34-.05-.48,0-.59.22-.9.47-.96.48-.15.03-.33-.03-.48,0-.82.19-.99-.32-1.92.48-.77.67-1.07,1.36-.96,2.4h-.96c-.01.32.02.64,0,.96-.02.45-.05,1,0,1.44.02.22-.07.48.02.7.12.3.38.21.46.26.1.07.44-.08.48,0,.16.35.47.9.48.96.09.36-.01.99,0,1.44h-2.4s0,.96,0,.96c.87.05,1.64.58,2.4.96.51.26,1.6.24,1.88,1.26.28.98-1.63,3.99-.7,6.91.79,2.5,3.61.97,4.07,1.44.15.15,1.04,3.65,1.01,4.05l-8.67,12.71c-.7.29-1.12.65-.96,1.44,1.14.2,1.9-.53,2.88-.96v.48c.25,1.37-.85,2.64-.42,4.02.1.32,2.93,3.35,3.52,4.15,1.12,1.54,5.21,7.39,5.08,8.84-.03.32-.49,1.67-.77,1.71l-5.97-.97c-.6,3.16-4.68,9.51-.96,11.74,2.33,1.4,4.41-.17,6.23-1.67.22,2.19,1.51,3.6,3.38,4.59.35,2.56-.56,4.51-.98,6.92,1.84-1.38,2.19-4.16,2.88-6.23l.94-.47.07.88.91.07c-.31,1.26-.29,2.84-.57,3.99-1.4,5.82-3.11,9-.64,15.21.9,2.26,3.04,2.15,5.05,1.42-.05,1.26,1.14,2.66,1.36,3.67.17.77-.07,1.62.12,2.28.2.71,1.98,1.1,2.34,1.99-.82,2.48-5.04,6.43-4.25,9.03.24.78,2.43,2.31,2.36,3.64,1.73.29,2.73-1.48,3.34-2.86h.96c-.05.26,0,.65,0,.96.01,1.16.46,1.36.48,1.44.14.5-.66,2.84-.96,3.36-.06.11-.8.31-.96.72-.4,1.06.88.63.96.72.08.09-.16.71.04.9.12.12,2.44.19,3.32.54.15.06.39-.07.48,0,.66.51.36.47,1.44.96.03.01-.1.27.48.48.24.97.89,2.73,1.92,2.4.03.32-.05.67,0,.96.13.72.37,1.38.56,2.09l.4.31c-.03.3-.02.66,0,.96.09,1.07.47.9.48.96.13.55.44,1.58.48,1.92.14,1.1-.46,2.66.48,3.36-.05.45,0,.97,0,1.44,0,.52-.09,1.06.08,1.57l.4.35c-.07.43.03.97,0,1.44-.09,1.42.07,2.89,0,4.32l1.44-1.44c.48.21,1.43-.42.96,1.44-.01.05-.51-.18-.51.74,0,.61.5.66.51.7.13.88-.09,1.95,0,2.88l.26.47c.21.09.48-.01.7.01.3.04.64-.02.96,0-.01.32.02.64,0,.96-.02.32.05.68,0,.96,0,.04-.5.08-.5.72,0,.65.49.68.5.72.18.69.3,1.63.48,2.4.21.9.47.9.48.96.13.84-.04,1.96,0,2.88.01.32,0,.64,0,.96.52.06.87.05.96-.48h.96l3.56.02c.42-.82.64-.95,1.23-1.46.06.99.47,1.67.96,2.4.44.67.6.61.96.96,1.42,1.39,2.17,2.48,3.84,3.36.96.5,1.51.6,2.4.96,1.7.69,3.11,1.49,4.8,1.92-.36,1.22,1.78,1.59,2.88,1.92.02.16-.04.34,0,.48.14.5.29.34.48.48.28.2.69.29.96.48h.48c.41-.55,1.18-1.45,1.44-1.92.24-.43.1-1.7.96-1.92-.13.66-.38,1.26-.48,1.92-.36,2.36-1.01,2.96.98,4.56.35.28.91.2.94.24h.96c.12-.48.36-.37.48-.48.41-.38.53-.43.96-.96.09-.11.28-.23.48-.48.29-.38,1.36-1.73,1.44-1.92.18-.42.34-2.69.48-2.88h1.43c.39,1.52-.43,1.97-.96,2.88-.07.12.09.42.02.67-.11.39-.68.21-.87.4-.27.27-.06.78-.11.85-.05.62.08,1.31,0,1.92-.04.31-.14.53-.48.48-.34,2.57,1.44,4.34,3.12,2.4.86-.99.89-2.32,1.2-3.36,1.95-.28.57,1.9.49,2.65-.14,1.35-.17,4.85,1.92,4.32,1.34-.34.78-1.21,1.91-1.69-.05,2.45-.1,4.81.48,7.19,2.14.44,2.25-2.32,2.88-3.84l1.92.96c.63-1.53.92-3.9,2.4-4.8v9.11c1.44.17,1.62-1.58,1.91-2.65.1-.35-.1-1.1.73-.7.25.12,2.06,1.53,2.11,1.72.33,1.12-.13,3.02.03,4.3.08.66.48.65.49.69,1.35.13,1.21-.73,1.56-1.56.16-.38.53-2.2,1.31-1.32.44.49-1.09,4.46,1.92,3.84l.45.27c.1.24-.02.51.03.69.08.28-.02.56.23.97.24.38.57.36.73.47.04.03-.02.39.24.48.31,0,.22-.45.24-.48.13-.13.77-.16.48-.96h.96c.69,1.77.67,1.53,2.88,1.44.39-1.59-.59-3.11-.51-4.56.04-.76.51-1.39.51-1.91,0-.8-1-2.1-.9-2.8.02-.12.84-2.12.93-2.2.2-.19,2.18.2,2.85-.51-.93,4.13-1.12,8.24-.96,12.47,1.19.05,2.4-.08,3.59,0,1.41.1,2.38.56,3.44.88,1.71.51,2.51-.71,4.01-.89.08.48-.16,1.71.02,1.9.18.18,2.73.76,3.34.98h.96c.4-.15,1.02-.11,1.44-.48l1.2,1.92c.2,0,1.59-2.49,2.64-2.87.12-.04.31.02.48,0,1.58-2.44,1.3-.16,1.44,0,.05.06,1.19-.03,1.42.74.27.92-.42,1.63-.37,2.28.05.6.67,1.4.39,2.25l2.4-.48.03,2.37c.35.16,1.83.43,1.89.51h.96c.15-.13,3.26-.79,3.84-.96,1.17-.35,2.33-.76,3.53-1.04l.31-.4c.29.03.66.02.96,0,1.08-.09.9-.47.96-.48.28-.06.67.06.96,0,.96-.19.9-.47.96-.48.42-.09,1.02.09,1.44,0,.93-.21.9-.47.96-.48.42-.09,1.01.08,1.44,0,.6-.12.45-.47.48-.48.82-.39,4.3-1.96,4.58-2.37.67-.97-.14-1.8-.26-2.67-.07-.49-.34-1.8.47-1.67.61,2.52,1.9,4.67,2.65,7.18.83,2.77.21,6.73,3.58,3.37-.06,1.65,1.58,1.5,2.89,1.71,1.14-2.31,2.04-4.71,2.99-7.1.21-.52.16-1.43.84-1.32.14,1.75-.48,7.42.93,8.42.53.38,1.87.36,2.44-.01,1.24-.8-.28-2.87-.02-3.13l1.92-.48c.07,2.32,1.6,4.19,4.05,3.85.71-.1.7-2.84.84-3.51.62-2.87,1.36-6.41,3.5-8.49l.17,3.05c-.91,1.26-2.06,2.76-1.85,4.38.05.42.9.32,1.17.21,1.42-.55,4.76-5.51,6.26-6.21.83-.39.63.34.73.7,1.35,4.86,3.82-.25,4.79-2.62,1.67-.4.76,1.69.96,2.88,1.44.24,4.37-1.42,4.74-2.7.3-1.06-.22-2.53.76-3.55.52-.55,1.37-.51,2.04-.84,1.27-.62,1.16-1.48,2.98-.55-.23.94.5,1.92.52,2.61.02.92-1.13,1.63-.96,2.63,1.93-.25,3.38-1.15,4.8-2.4h1.44c.18.77.44.86.48.96.08.21-.1.64.02.93l.25.05c1.78.04,3.96.04,5.49-.98.6-.4.37-.33.48-.96h.48c0,.86.09.6.48.96.8.74,1.43.55,2.6.43l.28-.43c.16,0,.33.02.48,0,.21-.03.44.04.68-.05.3-.12.23-.38.28-.43.91-1.01.29-2.18.48-2.4.28-.31.74.84.96-.96.12-1.02.44-1.88.48-2.88.95-.05,1.93.07,2.88,0,1.61-.13,1.36-.37,2.4-.96,1.47-.84,1.42-.11,1.68-2.39l1.67-1.44c.44,2.28,1.15,5.59,4.07,5.28,2.41-.26,2.97-1.2,2.67-3.57l-1.01-.53c.23-4.25,2.46-9.72,6.26-11.96,1.13-.66,2.84-1.67,3.97-2.27,1.21-.64,5.13-1.54,5.62-2.53.52-1.05-1.23-.5-1.7-1.17-.47-.66.07-3.75.48-4.36.11-.16.88-.66,1.22-.94.91-.74,1.93-1.35,2.91-2.15.48-.39,1.22,0,.93-1.21.15-.05.36.06.48,0,.45-.23.35-.34.48-.48,1.99-2.1,4.94-7.92,5.26-10.8.4-3.57.04-4.81-3.35-5.5l.48-1.92c.42-.07.97,0,1.44,0,.11,0,.2,0,.48,0,.16,0,.32.02.48,0,1.12-.14,1.09-.17,1.92-.48,2.68-.98,3.24-.99,2.4-3.84-.69-2.32.54-5.92.96-8.63,0-.04.42-.11.49-.69.11-.97.17-3.97-.07-4.76-.23-.79-1.46-1.28-1.86-1.74-.3-.35-1.05-1.18-1.2-1.44-.31-.56-.63-2.31-.72-2.39.96-.87,1.93-1.11,2.89-2.15.41-.45,3.2-4.13,3.28-4.39.54-1.76.38-3.91.56-5.68.26-2.65,1.02-4.21,0-6.96-.21-.55-.34-.67-.48-.96-.44-.93-.87-1.94-1.44-2.88.21-1.56.17-5.11,0-6.71-.11-1.07-.47-.9-.48-.96-.37-1.49-.6-3-1.44-4.32-.23-.35-.35-.34-.48-.48-.19-.2-.89-.94-.96-.96v-.48c3.32,3.43,5.57.02,3.77-3.52-1.35-2.66-.18-1.14.08-2.94.46-3.12-1-3.17-1.37-4.88-.19-.87.11-1.73-.3-2.57-.52-1.06-2.92-1.88-3.61-3.11l1.92-.72c-.27-.93-1.65-1.24-1.44-2.4.17-.16,4.88.57,3.61-1.45-.29-.46-.99-.54-.73-1.43,1.24,1.16,3.28-.21,2.86-1.66-.29-1-4.21-1.92-4.68-3.95-.14-.59-.01-1.22-.17-1.76-.15-.51-1.81-3.23-2.48-3.13l-3.68.9c-.06-.48-.3-1.58-.59-1.84-.17-.15-.61.07-.87-.36-.18-.3-.96-2.57-.96-2.84,0-.73.87-1.03.99-1.9.19-1.29.39-3.44.49-4.79.28-3.73-1.22-7.14-3.37-10.1-.91-1.25-2.69-2.01-2.41-4.07l-1.92.48c.16-1.59,1.53-2.54,1.82-4.17.33-1.81-.02-2.83-.64-4.46-.45-1.19-.22-1.07-1.66-.96.44-3.11.73-3.91.16-7.06-.09-.49-1.81-2.6-2.56-3.25l-1.91-3.12c1.89,1.13,3.49,1.75,5.76,1.44.27-.26-.62-2.9.71-2.39,1.57.6,3.02,1.93,4.89,2.3.34.07,3.14.54,2.54-.62-.24-.47-2.78-2.86-3.38-3.34l-7.65-4.58s.03-.39,0-.48c-.07-.23-.25-.4-.48-.48.04-.47-.06-.98,0-1.44.14-1.09.27-2.92.48-3.84.54-2.39,3.49-6.23,4.72-8.47,1.64-2.98,2.33-5.6,2-9.06-.06-.58-.48-.65-.49-.69-.06-.3.06-.68,0-.96-.21-.92-.46-.9-.48-.96-.4-1.42-.61-2.84-1.19-4.32-1.57-4.04-3.66-5.92-3.61-10.54,0-.77-.1-1.68,0-2.4h-.48c.09-.45-.14-1.1.06-1.61l.42-.31c-.62-1.81-.5-3.39-.48-5.27,0-.96-.03-1.92,0-2.88,0-.03.35-.09.4-.32.03-.14.05-2.58.03-2.71-.04-.23-1.2-2.84-1.45-3.4-.11-.24-.2-.24-.42-.28-.51-2,1.47-1.99,1.92-2.4.33.73,1.3.75,1.91,1.21.49.38,2.36,2.72,2.89,2.15-.26-2.31-.74-4.58-.47-6.94.3-2.56,1.98-5.88,2.33-8.25.1-.65-.79-.97-.92-1.82-.77-5.23,4.28-17.92,7.68-22.08,3.33-4.07,4.66-2.93,5.76-8.86.04-.19,1.59-2.78,1.92-3.36,2.09-3.7,2.92-2.01,5.91-3.45,2.68-1.29.68-4.18-1.43-4.63-.92-.2-2.34.22-2.82-.54-.09-.15-.65-2.72-.69-3.15-.1-1.02-.16-2.86-.02-3.84.28-2.02,6.32-3.63,6.65-6.3.08-.62-.87-1.24.06-1.86,1.08-.72,2.77-.02,2.43-1.91ZM131.06,189.53c-.25,0-.5-.02-.75-.03.25,0,.5,0,.75.03ZM128.22,189.75s.05-.02.08-.03c.01,0,.02,0,.03,0-.04.01-.07.02-.11.04Z"/>
  <g>
    <path class="cls-2" d="M4.39,13.73v-3.46H1.23v-1.34h3.16v-3.47h1.39v3.47h3.17v1.34h-3.17v3.46h-1.39Z"/>
    <path class="cls-2" d="M14.02,15.76c-.77,0-1.44-.23-1.99-.7-.56-.46-.99-1.14-1.29-2.03-.3-.89-.45-1.98-.45-3.27s.15-2.37.45-3.25c.3-.88.73-1.54,1.29-1.98.56-.45,1.22-.67,1.99-.67s1.42.22,1.97.67c.55.45.98,1.11,1.28,1.98.3.88.45,1.96.45,3.25s-.15,2.38-.45,3.27c-.3.89-.73,1.57-1.28,2.03-.55.46-1.21.7-1.97.7ZM14.02,14.29c.39,0,.73-.15,1.03-.45.3-.3.54-.78.7-1.44.17-.66.25-1.54.25-2.64s-.08-1.97-.25-2.62c-.17-.65-.4-1.11-.7-1.4-.3-.29-.65-.43-1.03-.43s-.73.14-1.03.43c-.3.29-.54.75-.71,1.4s-.26,1.52-.26,2.62.09,1.98.26,2.64.41,1.14.71,1.44c.3.3.65.45,1.03.45Z"/>
    <path class="cls-2" d="M19.14,15.54v-1.07c1.07-1.08,1.99-2.03,2.76-2.87s1.35-1.59,1.76-2.27c.41-.68.61-1.31.61-1.91,0-.43-.07-.79-.21-1.1s-.35-.55-.64-.72c-.29-.17-.65-.26-1.09-.26s-.86.13-1.23.39c-.38.26-.72.57-1.03.92l-1.02-1.02c.49-.55,1.01-.99,1.56-1.3.55-.31,1.2-.46,1.96-.46.7,0,1.31.14,1.83.43.52.29.92.69,1.21,1.21.29.52.43,1.12.43,1.82s-.19,1.4-.57,2.11c-.38.71-.89,1.46-1.54,2.22-.65.77-1.37,1.58-2.17,2.43.3-.03.62-.06.96-.09.34-.03.65-.04.93-.04h2.94v1.58h-7.44Z"/>
  </g>
</svg>