<?xml version="1.0" encoding="UTF-8"?>
<svg id="a4" xmlns="http://www.w3.org/2000/svg" viewBox="0 0 600 500">
  <defs>
    <style>
      .a4 {
        fill: #5d4c39;
      }

      .cls-2 {
        fill: #c9caca;
      }
    </style>
  </defs>
  <path class="a4" d="M478.67,329.93c-1.45-8.83-2.56-8.86-7.42-15.61-.98-1.36-1.77-2.88-2.66-4.3.07-.1-.18-.6.1-.86.37-.34,1.31.36.78-1.7-.53-2.06-1.84-1.85-3.41-2.34-.27-.08-.32-.37-.35-.38.4-.99-.38-1.62-.48-1.92-1.62-4.92-12.07-16.17-16.29-19.95-3.26-2.93-18.28-13.58-21.13-16.29-1.22-1.16-2.66-3.5-3.83-4.8-7.8-8.68-15.92-17.11-23.51-25.92-2.55-2.96-9.48-11.55-10.11-11.96l-8.83-12.29c-3.1-8.24-6.66-15.98-10.89-23.67-4.9-8.91-9.97-17.83-17.1-24.89-.67-.66-1.82-3.4-2.58-4.13-.4-.39-4.09-1.36-4.71-2.01-.11-.11.11-.85,0-.96-.11-.11-.87.11-.96,0-.05-.06-.02-1.11,0-1.44.06-1.37.24-1.88,1.58-2.5,1.36-.64,1.78.19,1.78-1.34,0-.32,0-.64,0-.96h0c.92-.11,1.12.02,1.38-1.26.16-.8.33-1.29-.67-1.15-2.5.34-5.32,2.49-7.91,2.41l.48-3.84c-1.41-.7-4.83,3.22-5.76,2.4-.25-1.08.6-1.08,1.11-1.53,1.02-.89,3.28-2.27,3.67-3.53.59-1.89-2.59-.62-3.09-.68-.49-.05.45-1.33-1.92-.98-1.54.23-2.98,1.91-3.39-.04l-4.53.02-.02-1.43h-3.83c.54-.95,4.81-4.77,3.84-5.76-.45-.46-4.65,2.26-5.74,2.17l-4.81,1.19-.22-3.38c-.2-.28-2.9-1.02-3.14-.94-1.2-.98-1.94-2.17-3.62-1.93-.59.08-.65.49-.69.49-1.22.13-2.63-.15-3.84,0h0l-.28-.43-2.12-.05s.08.11.11.19c-.04-.08-.07-.15-.11-.19-.8-.77-.89-1.38-.96-1.44,1.46-1.15,2.84-2.49,3.85-4.07,1.81-2.84-1.55-1.41-3.14-1.22-.94.12-1.98-.14-2.84-.01-.53.07-.17.87-.27.98-.07.08-1.48-.06-2.08.08-.71.17-1.49.88-2.22,1.14-3.66,1.3-5.9-.12-7.91-3.16-.46-.7-.87-1.53-1.44-2.4-.66-.99-4.15-6.66-4.82-6.7-.88-.05-.64,2.31-.72,2.4-.59.66-2.01-1-2.62-.98-.48.02-.94.54-1.4.46-.53-.09-.7-.88-.77-.92-.62-.89-.38-1.91-.7-2.9-.62-1.94-3.19-5.84-5.06-6.7h0c-.54-.47-1.25-2.05-1.54-2.32-.26-.24-.78-.02-.85-.08-.09-.08-.92-1.14-1.43-1.69-3.9-4.14-9.68-9.1-14.41-12.46-1.05-.75-2.66-.95-3.36-1.44-.48-.33-.95-1.68-1.92-2.4-1.75-1.29-7.38-3.44-9.58-4.09l-.29.43.29-.43c-.06-.02-.1-.26-.96-.48-1.89-.48-2.51-.63-4.32-1.44.02.06.02.13.03.21,0-.08,0-.15-.03-.21-.03-.01.18-.29-.48-.48-.96-.27-2.79-.27-3.84-.48-.03,0,.13-.36-.48-.48-.71-.14-1.67.12-2.4,0-.41-.07.26-.52-.96,0-.29.12-1.43-.52-2.16-.52-1.54,0-3.15,1.01-5.52,1-.32,0-.64,0-.96,0-.4-3.05-6.84-5.59-9.6-6.24-.18-.04-.4-.39-1.44-.48-.72-.07-2.84-.15-3.36,0-.4-.8-1.35-.91-2.14-.98-2.75-.26-5.86.26-8.65,0-4.39-.4-5.25-.91-10.06-.45-2.29.22-4.08-.56-6.02,1.42-.37-.96-1.12-1.72-.97-2.87h-2.38c.88-3.63-3.31-1.93-3.8-2.46-.25-.27-.28-1.52-1.3-1.82-2.46-.72-3.93,1.56-5.47,2.58-.42.28-1.07.2-1.46.46-.65.44-.58,2.59-1.66,3.14-.94.48-.71-.79-.72-1.2-.01-.52-.12-1.9,0-2.16h0s.56-.12.71-.47c.4-.9,1.4-5.29,1.2-6-.38-1.29-1.87-.56-2.32.53-.1.25,0,.52-.07.66-.13.31-.29.68-.44,1.08.15-.4.31-.78.44-1.08l-2.4-2.64c-.36-.34-1.27-.13-1.42-.25-.54-.43,1.27-7.62-1.93-7.66.36-1.74,1.04-2.99-.46-4.58-.59-.62-1.33-.62-1.44-.72-.34-.31.5-1.92.5-2.62,0-.92-.66-1.7-.52-2.64h-.96c.2,1.02-.88,1.33-1.2,1.92-1.68,3.13-2.24,8.32-3.84,11.03-.57.96-2.5,2.65-3.34,3.86-.61.86-1.35,2.32-1.69,3.35-.4-.03-.91.21-.96-.24-.16-1.57.19-3.63-1.9-3.11-2.43,4.94-2.16,10.89-3.96,15.97-.81,2.29-3.53,5.61-4.48,8.48-.63,1.91-.33,4.54-.75,5.97-.16.54-.89.81-1.14,1.26-1.56,2.82-.06,4.02.23,6.49.32,2.75.17,5.66.48,8.64.42,3.97-1.88,2.82-2.33,4.36-.37,1.26.56,2.75.45,4.28-.08,1.16-.62,1.97-.52,3.36,1.25,17.52,3.62,35.94,14.42,50.62v1.92s.96,0,.96,0c.14,1.18.4,2.13.48,3.36.12,1.76.73.67.96.96.67.85,3.77,11.85,3.84,13.44.07,1.72.66.67.96.96.1.1-.09.7,0,.96-1.21,1.07-1.01.61-1.92.48-.39-3.03-3.2-4.12-5.02-1.43-1.13,1.68-.4,2.62-.8,4-.13.46-.79.69-.9,1.5-.15,1.04.29,3.47.01,4.09h0s-.5.11-.7.48c-.26.46-.48,1.07-.74,1.44-.69.98-.95,1.3-2.4.96-.03,0-.05-.35-.27-.45-1.04-.47-.53.62-.69.93-.02.04-.5.14-.7.48-.57.94-.92,1.72-.74,2.86.06.4-2.91.87-3.27,1.08-.17.1-.25.64-.47.83-1.13,1-2.08,1.19-1.97,2.89.06.87.7,1.68.44,2.89,0,.02-.32.04-.44.25-.5.93,1.9,2.67.69,3.9-.35.36-1.37.34-1.84.39-1.24.14,1.96,4.51,2.02,4.63.53,1.06.53,2.99.52,4.28h-.96s0,2.4,0,2.4c.31.04.68-.06.96,0,3.24.67,4.24,7.02,0,5.76-.06-.02-.1-.72-.96-.48,0,1.15.22,2.36-.48,3.36-.13.04-.31-.02-.48,0-.3.04-.65-.03-.96,0-.23.83.45.9.48.96.32.77-.47,1.52-1.09,1.78.52,1.08.51,3.2.24,4.34-.34,1.43-.83,1.69-1.56,2.73-.51.73-.76,1.45-1.2,2.17-.24.39-.81.65-.96.96-.79,1.53.28,2.96,1.2,4.1.54.66,4.94,5.35,5.29,5.51,0,.39-.06.79,0,1.17.14.85,1.07,2.68.54,3.47-.7,1.06-2.36.35-3.43.3-.03,1.7.95,3.54,2.14,4.67.72.68,4.46,2.62,4.58,2.86.09.19-.07.74-.02.92.08.28,3.22.73,3.65.88,1.51.51,4.17,1.78,4.49,3.56.26,1.44-.57,1.38-1.18,2.29-.32.48-.83.39-.69,1.12.11.52.91,1.02,1.42.83,0,.15-.02.33,0,.48.2,1.4,1.25,3,1.43,4.57.17,1.48-.18,3.7-.57,5.17-.85,3.24-3.87,5.11,1.06,6.58.04.3-.01.64,0,.96.04,1.16-.23,3.09.05,4.03.24.81,2.18,1.4,2.83,1.73.32.16.63.34.96.48-.04,1.36,1.34,1.94,2.4,2.4.63.94,1.14,1.07,1.44,2.4.06.28-.11.83.01.95.13.13.69-.07.95.01.65.21,1.84,1.2,2.4.96l-.96.96c-1.11-.15-2.51.6-2.88.48,1.03.33,3.03,3.75,1.77,4.8-.79.66-2.05.17-2.96.05.03,1.45-.16,1.95.75,2.76.67.6,1.77.86,2.59,1.18-.42.1-.7.38-1.08.52.51-.18,3.61.33,3.95.67,1.29,1.29-1.41,1.43-2.05,2.12-1.2,1.28-1.9,2.14-3.86,2.16-.56,0,1.37,1.29,1.2,1.11.41.44.61.77.91,1.36.42.81.54,2.3,1.18,2.94v2.4s.96,0,.96,0c.01.95-.06,1.93,0,2.88-1.91-.29-.62,1.89-.49,2.65.31,1.83-.5,2.92,2.41,2.63.07.1.77.26.48.96-.02.05-.33.07-.43.29-.47,1.03.83.57.91.67.13.17-.35,2.1.73,2.39,1.06.29,3.58-1.77,5.02-1.43l.48.96c-.23.11-.44.87-1.92,1.44-.66.25-1.42,0-1.44,1.2v.24c.48.01.96-.01,1.44,0,.48.01.96,0,1.44,0v.96s2.61-.03,2.62,0c.12.31.19.63.21.96-1.42.54-1.57,2.52-2.87,3.31.86-.52,5.15,1.22,6.39,1.27.97.03,4.17-.15,4.69-1.21l1.92,1.92c-.14.1.06,2.9-.48,3.36-.36.31-.87-.75-.96.96-.02.37.08,1.35,0,1.44-.03.04-.57-.09-.97.22-.61.46-.39,1.11-.47,1.23-1.02,1.25-3.31,2.59-4.81,3.17-.41.16-1.28.11-1.6.32-.1.06-1.27,1.38-.78,1.3,2.84-.42,5.93,1.59,8.4,1.91,1.84.24,4.54.1,5.99,0,.48-.03.96-.03,1.44,0,1.91.12,1.73.15,1.91,1.92.03.31-.05.67,0,.96h-.96c.13.98.31,2.26,1.44,1.92.06.29-.06.67,0,.96.15.74,1.21,2.64,2.1,2.37.24-.07.23-.41.3-.45.12-.07.38.07.48,0l.69.03.27.45c-.13.13.13,1.31,0,1.44-.09.09-.75-.13-.93.03-.29.25,1.17,2.84,1.32,3.67.18,1.01.08,2.02.09,3.03,2.57.42,1.64-.59,1.92-.96.25-.34,3.84-1.22,3.84.72,0,1.34-2.09,1.35-3.16,1.66-.45.14-.64.48-.68.5-.57.17-1.89-.41-1.44.72.29.72,1.69,1.02,2.4,1.2.16.04.45-.06.48,0,.11.19-.11.87,0,.96.15.12,1.05-.09,1.44,0,.31.07.64.37.96.48-.26,1.07.75,1.15,1.48,1.64,2.83,1.94,5.7,3.98,8.7,5.67,1.83,1.03,3.83,1.8,5.2,3.43,1.41,1.68,2.79,2.75,4.54,4.13,1.35,1.06,1.3,1.58,3.11,2.41.32.15.66.39.96.48-.16,1.43.77,1.13,1.44,1.44,1.81.83,5.85,7.28,8.16,8.64.55.33,1.37,3.72,2.88,3.36h.48s.03-.01.07-.02c-.04.01-.07.02-.07.02-.38,1.74.77,3.05.96,4.8.19,1.79.68.65.96.96.13.15-.13,1.31,0,1.44.08.08,1.45-.02,1.92,0v1.44c.86.24.9-.47.96-.48.01-.14.02-.26.03-.36,0,.1-.02.22-.03.36,1.86-.41,5.95.58,7.22,2.15.44.55.41,1.17.46,1.21,0,0,1.2,2.4,1.2,2.41.2.41,8.67-3.59,10.87-3.93,1.86-.29,3.73-.01,5.56.31-.09.23-.05.59-.18.83.15-.28,3.05-.65,3.49-.71.99-.14,1.56-.12,2.57.13.05.35.07,1.15,0,1.44-.01.06-.72.11-.48.96l2.88.48c.1.13,1.6.53,2.4,1.92.11.18-.1.85.46,1.23,1.26.84,5.26-1.23,7.01-1.34,3.04-.18,3.33,2.56,5.87,3.21,3.42.86,6.93,1.1,10.39,1.71.78.14,3.79,1.25,4.09.95.28-.29.61-2.05.99-2.61.47-.7.77-1.25,1.54-1.68,1.34-.74,3.2-.56,4.67-.51,0,1.61-.2,3.24-.12,4.85.02.46-.18,1.19.17,1.55.08.09,1.38.31,1.38.31l-.06-.74c.98-2.26,4.74-3.7,6.73-4.73,2.98-1.54,6.55-3.67,9.94-4.12,1.99-.26,3.36-.16,3.08,2.16-.26,2.12-4.42,4.06-6.2,5.32-.75.53-1.74.54-1.48,1.64,2.32-.37,4.67-.63,6.86-1.53.49-.2.83-.77,1.11-.84.66-.16.96.74,1.44.89,1.41.43,1.42-.89,2.1-1.64.44-.49,2.49-2.41,2.89-2.63.73-.4,3.41-1.54,4.32-1.92.89-.37,4.1-1.03,5.04-.99,1.74.07,3.24,1.6,4.31,1.5.79-.07,1.02-.78,1.5-.92.79-.24,2.79.13,3.01-.11.11-.12.06-.61.29-.89,1.98-2.37,4.4-2.8,5.51.45,1.06.31,1.43-1.15,2.21-1.38,1.96-.57,2.91.37,2.59,2.34,1.43-.33,2.75.65,4.07.5,1.93-.22,5.36-3.31,6.98-4.57.36-.28.91-.2.94-.24l.48.48c-.55.33-1.35,3.45-.96,3.84,2.03.35,3.51-.76,5.05-1.91,1.55-1.16,3.88-3.93,5.33-4.74,1.32-.74,3.71-.71,4.52-1.24.92-.61,1.33-3.34,3.08-3.64,2.01-.34,1.03,1.24,1.21,2.89h2.4c.04.99-.81,1.48-1.21,2.39-2.57,5.84,2.29,5.6,6.18,3.3,2.26-1.33,5.6-5,7.49-5.95.83-.42,1.71-.12,2.57-.3,1.36-.29,4.12-3.25,5.36-4.24.56.82.09,2.18.22,3.13.44,3.19,5.53-1.73,6.25-.74.08.11-.07,2.31,1.2,1.92.9-.28,4.33-4.97,5.31-5.25,1.85-.54.87.96,1.21,1.37.07.09,1.46.62,1.9.3.56-.41.97-3.02,2.13-4.12,6.59-6.23,18.84-10.54,23.39-17.88,1.29-2.07.96-.83,2.76-2.03.65-.44,1.8-2.09,1.93-2.15.19-.08.72.09,1.09-.09,4.89-2.43,7.15-6.46,7.07-11.91-.9.65-1.06,1.97-1.69,2.87.63-.89.79-2.21,1.69-2.87,0-.16.02-.32,0-.48l.4-.31c.2-.7.42-1.38.56-2.09.11-.56-.09-1.32,0-1.92,0-.04.46-.09.51-.72.09-1.05-.5-1.13-.51-1.2-.16-.77-.52-2.7-.48-3.36.03-.49.69-1.9.96-2.4.15-.29.44-.92.48-.96.38-.41.26.84.96-.96.55-1.41,2.87-3.21,3.28-5.12.21-.97-.06-1.93.07-2.81.07-.51.71-1.99.97-3.11.17-.72.58-.99.48-2.4-.02-.32.05-.67,0-.96l.4-.34c.16-.52.09-1.05.08-1.58-.01-.32.02-.64,0-.96l.43-1.35c.33-1.04.25-2.15-.17-3.16-1.41-3.33.89-4.4.7-5.81-.07-.52-.08-2.98.03-3.09.26-.25,1.5-.15,2.31-1.29.44-.62,2.94-7.08,2.94-7.62,0-.97-.76-3.19-.95-4.33ZM214.8,127.62c-.08-.06-.59.03-.94-.24-.62-.46-1.1-1.18-1.7-1.68l-.72,1.92c-.11-3.06-2.81-2.02-4.99-2.86-1.24.91-1.37,2.4-1.25,3.82l-2.88-1.44c-.27-1.25-.25-1.54-.74-2.87-.34-.91-.07-2.36-1.68-1.23-.34.24-.59,2.07-1.42,1.21-.11-.11.07-2-.01-2.63-.08-.62-.44-1.14-.49-1.91-.16-2.48.54-7.65-.02-9.58-.24-.81-1.32-.93-2.07-.71-1.12.33-1.51,2.05-1.74,3.03-.12.52-.92.32-.95.28-.05-.07-.22-1.1-.54-1.62-1.28-2.05-4.15-4.77-4.28-7.25-.03-.56-.06-1.13.17-1.57-.03-.1-.06-.2-.05-.29.08-.63.23-1.21.47-1.8.06-.15.15-.29.21-.43-.11-.03-.21-.04-.3-.01-1.28-2.17-1.74-.93-3.84-.96.06-1.83-.1-3.69,0-5.53.03-.51.46-.98.47-1.19,4.23-1.07,5.19,2.67,8.3,3.94.97.4,3.23,1.05,4.17.86,1.91-.26.65,1.57.54,2.25-.19,1.2,5.16,4.94,6.18,6.14,1.64,1.93,2.27,4.49,4.34,6.24.27.23.77.18.89.29.15.14,0,1.42.14,2.02.42,1.88,1.69,3.41,2.31,5.13.81,2.25,1.13,4.36,2.16,6.72.22.51,1.27,1.64.24,1.92Z"/>
  <g>
    <path class="cls-2" d="M4.39,13.73v-3.46H1.23v-1.34h3.16v-3.47h1.39v3.47h3.17v1.34h-3.17v3.46h-1.39Z"/>
    <path class="cls-2" d="M14.02,15.76c-.77,0-1.44-.23-1.99-.7-.56-.46-.99-1.14-1.29-2.03-.3-.89-.45-1.98-.45-3.27s.15-2.37.45-3.25c.3-.88.73-1.54,1.29-1.98.56-.45,1.22-.67,1.99-.67s1.42.22,1.97.67c.55.45.98,1.11,1.28,1.98.3.88.45,1.96.45,3.25s-.15,2.38-.45,3.27c-.3.89-.73,1.57-1.28,2.03-.55.46-1.21.7-1.97.7ZM14.02,14.29c.39,0,.73-.15,1.03-.45.3-.3.54-.78.7-1.44.17-.66.25-1.54.25-2.64s-.08-1.97-.25-2.62c-.17-.65-.4-1.11-.7-1.4-.3-.29-.65-.43-1.03-.43s-.73.14-1.03.43c-.3.29-.54.75-.71,1.4s-.26,1.52-.26,2.62.09,1.98.26,2.64.41,1.14.71,1.44c.3.3.65.45,1.03.45Z"/>
    <path class="cls-2" d="M22.64,15.76c-.59,0-1.12-.08-1.59-.22-.47-.15-.88-.35-1.24-.59-.35-.25-.67-.5-.94-.77l.86-1.2c.22.22.46.43.72.62.26.19.55.34.88.46s.7.18,1.1.18c.43,0,.81-.09,1.16-.28.34-.19.62-.46.81-.81.2-.35.3-.77.3-1.25,0-.73-.2-1.29-.6-1.7-.4-.41-.93-.61-1.59-.61-.37,0-.68.06-.94.17-.26.11-.56.28-.89.5l-.89-.58.34-5.6h5.83v1.57h-4.27l-.27,3.01c.25-.13.5-.23.75-.3.25-.07.53-.1.83-.1.65,0,1.24.12,1.77.38s.95.64,1.27,1.17.47,1.2.47,2.02-.18,1.54-.55,2.13c-.37.59-.84,1.04-1.43,1.34-.59.31-1.22.46-1.9.46Z"/>
  </g>
</svg>