<?xml version="1.0" encoding="UTF-8"?>
<svg id="a4" xmlns="http://www.w3.org/2000/svg" viewBox="0 0 600 500">
  <defs>
    <style>
      .a4 {
        fill: #5d4c39;
      }

      .cls-2 {
        fill: #c9caca;
      }
    </style>
  </defs>
  <path class="a4" d="M160.65,359.36c.12-.12-.12-1.09,0-1.44h-.25c-.49-1.17-.13-2.57-.23-3.84h.96c-.15-3.62-.27-2.21-1.85-4.62-1.89-2.89-2.65-9.04,1.37-10.25v-.96s-.49-4.07-.49-4.07c-1.32-2.9,1.01-7.27,2.48-10.01.45-.84,3.52-4.68,4.25-4.63.23.02.58.42.97.46-.39-.03-.75-.44-.97-.46.76-2.87,1.08-6.4,2.15-9.12,1.66-4.22,8.23-12.36,12.07-14.8,1.23-.79,2.64-1.26,3.92-1.97,1.3-.72,2.08-1.85,3.46-2.42.65-.27,1.24-.71,1.91-.95-.26-2.37,1.42-4.24,2.17-6.23.88-2.33,1.45-4.93,2.38-7.21,1.09-2.66,4.09-8.15,4.09-8.15,0,0,.72-.47.96-.96h0c.08-.67.36-1.25.48-1.92.17-.96,1.44-3.84,1.44-3.84.32-.4,6.65-18.24,8.16-19.67.06-.46-.09-1.02,0-1.44l-.96-.96c-.86.23-1.72-.56-2.62-.51-1.2.08-3.26,1.77-5.27,1.96-3.5.34-5.96-.48-2.43-3.39,2.27-1.87,5.4-3.3,7.71-5.24.53-1.26.34-2.37-.75-3.16-.39-.28-.92-.19-.96-.23-1.3.25-1.33-.29-1.92-.96-1.25-1.43-.97-2.18-1.01-4.03-.43-.25-1.76-1.68-1.87-1.73-.38-.16-1.75.16-1.92,0-.46-.45.66-1.68,1.44-1.44v-.48c-.3-.09-2.29-.89-2.38-.98-.76-.69,1.72-3.72.94-4.29-.16-.12-1.69.12-1.92-.74-.17-.66,1.37-1.8.91-3.3-.27-.89-2.38-1.81-2.38-2.93,0-1.16,1.67-2.67,1.88-3.43,1.41-5.08,3.65-9.98,4.86-15.05.1-.4-.06-.99,0-1.44l.58-2.04c.06-.23.36-.29.38-.35.17-.64.32-1.28.48-1.92.37.13.63.06.82-.13-.19.19-.44.26-.82.13.2-.78.3-1.72.48-2.4,1.82-6.75,5.58-12.52,9.6-18.23.24.05.45.02.63-.07-.18.09-.39.13-.63.07.46-.78,1.72-5.08,1.92-5.28.03-.03.77-.05.96,0l.42-.29c-.27-1.52.63-2.38,1.02-3.55.16-.47.35-1.03.48-1.44.05-.15.04-.93,0-.96-.32-.3-.86.76-.96-.96-.13-2.34-.54-.98-1.22-1.89-.24-.32-2.04-4.3-2.14-4.83-.07-.38.17-1.19-.07-1.39-.2-.17-1.29.22-.89-.76.13-.32.81-.58.9-1.03.09-.41-.62-1.66-.44-2.83.15-.96,1.28-1.3.94-2.34l-4.77-5.32c-.26-1.07.53-.52.86-.82.27-.26.05-.8.1-.86-.45-.48-.74-1.43-1.09-1.82-.14-.16-.64-.04-.74-.17-.18-.22-.19-1.14-.47-1.72-.26-.53-.88-.99-1-1.4-.24-.83.04-1.74-.07-2.57-.01-.09-.64-.36-.48-1.67.22-1.87,2.15-4.3,1.94-5.78-.11-.76-2.29-3.73-1.94-4.07.58-.55,3.4,1.74,4.56,1.92.78.12,2.33.41,2.17-.73-.09-.64-.68-1.75-1.03-2.33-2.35-3.78-2.89-7.72-4.48-11.84-1.33-3.45-4.28-6.48-3.62-10.54l2.4.48c.38-.83-.49-2.05-.48-2.4-1.76.39-3.1-1.19-4.06-2.42-2.13-2.73-.44-2.05-.26-3.34.14-1-1.3-2.17-.96-3.36v-.96c.24-.28-.63-1.41,1.92-.96-.05-.02.03-.32,0-.48-.03-.14,0-.33,0-.48.18-3,2.52-2.5,4.8-1.92.5.13,1.3.32,1.92.48.9.24,1.9.97,2.88.96.65,0,1.14-.44,1.68-.47,2.82-.18,6.81.65,9.35,1.91.7.35,1.94,1.37,2.89,1.92,4.1,2.42,7.44,5.66,11.01,8.8,4.19,3.7,6.52,8.56,10.1,12.78.37.44,1.38,1.01,1.93,1.67,1.36,1.64,1.58,3.68,4.01,3.19,3.58,3.39,6.33,7.54,9.89,10.98.05-.05.73.07,1.2-.46.45-.5.53-1.61.82-1.86.59-.5.41.51.85-1.04.79-2.8,4.72-13.22,6.23-15.12.79-1,2.07-1.86,2.9-2.86,1.6-1.94,3.13-4.42,4.78-6.26,3.81-4.24,9.69-5.46,14.74-7.81,2.74-1.28,6.24-3.73,8.76-4.67,1.38-.51,9.47-2.18,10.81-2.18.77,0,1.34.48,1.93.51,1.97.12,6.14-.59,7.2,1.43.6,1.15-.27,2.87-.99,3.84-1.07,1.45-8.37,6.65-10.31,7.92-1.19.78-3.13,1.27-4.08,2.15-.89.81-1.77,2.66-2.61,3.63-.84.96-3.18,2.75-3.62,3.58-.53,1.01-.89,3.43-1.43,4.81-1.37,3.5-3.38,6.04-2.64,10.07h.48c.45-.07,1.05.1,1.44,0,.03,0,.05-.35.27-.45,1.02-.46.55.54.69.93h0c.1.28.86,1.16.96,1.44.44-.2.49-.86.96-.96h0c.69-.15,2.05-.02,2.88,0l.31-.4c.7-.22,1.38-.41,2.09-.56.15-.03.32.03.48,0-.35-1.4,1.69-1.13,2.4-1.44-.01.36-.05.76.09,1.1.23.55,1.25,1.84,1.35,2.26.73-.32,1.47-1.24,2.24-1.39.86-.17,1.18.37,1.59.43.76.1,1.24-.38,1.67-.97,1.16-1.6,5.09-8.73,5.45-10.38.36-1.64-.31-4.99,1.13-6.33.25-.23.78,0,.86-.07.05-.04-.09-.8.47-1.21.37-.27.92-.18.97-.22,1.38-1.29,3.09-4.86,4.31-6.49,1.9-2.52,6.06-5.2,7.71-7.65,1.54-2.29,1.89-2,3.34-3.62.17-.19.42-.4.48-.48.89-1.15-.09-.81,1.92-1.92,3.18-1.76,6.69-3.16,10.06-4.65,2.99-1.33,5.88-2.93,8.96-4.06,1.43-.52,9.57-2.56,9.72-3.32,2.43-.95,5.12-.82,7.68-.99,2.19-.14,4.18-.52,6.27-.31.63.06,1.27.18,1.93.37,1.41.41,2.85-.27,4.16.52,1.45.87,1.74,2.65,1.17,4.15-1.81,4.75-8.61,6.11-12.25,8.95-1.08.85-2.26,1.57-3.35,2.4-.85.72-1.34,1.9-2.27,2.47-.51.31-1.2.14-1.69.47-.3.2-.08.62-.35.86-.24.21-1.42,1.27-1.72,1.28-.01,0-.02,0-.03,0-1.32.13-1.65,1.32-2.11,2.34,0,.02-.02.03-.02.05-.77,1.57-1.4,2.67-3.08,3.31-.01-.08-.02-.17-.03-.26,0,.11,0,.22,0,.32-.13,1.92-.76,1.52-.96,1.92l-.96.96c-1.33.6-2.45,2.53-2.94,3.81-.45,1.17.42,2.33-.64,3.41-1.2,1.22-1.61-.3-2.65,2.86-.22.68-.47.9-.48.96-.06.28.05.66,0,.96-.31,1.81-.57,3.61-.96,5.28-.14.59-.35.98-.48,1.44-.5,1.78-.53.58-.96.96-.07.07-.37,1.54-.48,1.92,1.26.65.03,2.31-.01,3.15-.03.57.49.65.49.69.04.34.03.66-.01.97.04-.31.05-.64.01-.97.78-.32,1.14-1.28,1.45.22.14.68.85,4.37,1.03,4.53.57.49,1.34-.64.4,1.97,2.9-.96,2.63,3.2,3.83,4.09,1.32.98,3.7-3.06,5.29-2.65-.46,2.1.45,3.31.95,5.06.2.71-.27.82.97.69l1.44-4.8,1.2.96c1.08-.73.94-2.29,1.65-3.15.84-1.02,3.83-2.44,5.07-3.56,3.23-2.92,3.35-4.93,5.1-8.34.57-1.1,6.13-9.39,6.65-9.67.47-.25,1.14-.13,1.36-.3.17-.12.29-1.26,1.02-1.62.79-.39,1.62-.06,2.42-.45.66-.32,5.19-6.51,6.22-7.71.32-.38.84-.54.97-.69,4.32-4.98,9.35-11.14,14.62-15.36.64-.51,3.07-1.66,3.13-1.91.32,0,.64,0,.96,0,.81,0,1.65.16,2.41-.23.92-.46,3.48-3.45,4.8-4.32,6.45-4.26,19.49-6.18,25.67-.74.74.66,1.29,1.95,1.65,2.19.88.61,3.46-.35,3.86.94.24.76-.65,1-1.18,1.22-1.75.71-5.77,1.33-7.7,1.42-.78.04-1.36.41-.71.96.09.07,1.71.04,2.15-.01,2.01-.23,5.35-1.61,7.19-1.44,2.9.27,3.26,1.45,1.21,3.36.75-.27,1.61.54,2.09.43.3-.06,1.07-.87,1.73-1.16.75-.33,2.78-.61,2.89-.71.23-.21-.07-.91-.51-1.19-.82-.53-1.18,0-.93-1.69,1.13-.28,2.11.52,3.12.52,1.92,0,4.42-1.82,6.49-.77.23.12,1.33,1.28,1.39,1.52.05.16-.52,2.67-.45,2.57.37-.48,1.37.78,1.75.89,1.61.48,4.56-.58,5.94.77.79.77.29,1.53.52,2.36.2.73,1.34.76,1.66,1.22.49.72-.22,2.05.69,2.43.26-.08.67.07.96,0v.48s4.32,0,4.32,0c.06.06.64-.16.88.08.25.25.01.71.08.88l-.42.28-.06.68c-.1.09-.55,1.97-.48,2.4.16,0,.32.02.48,0,.98-.14,1.9-.35,2.88-.48,1.9-.25,3.7-.78,5.76-.48.08.08,1.07-.19,1.94.7,2.16,2.22.17,3.33-1.77,4.5-2.97,1.79-6.38,2.93-8.8,5.59-.17,1.51,1.09.23,1.68.22,1.73-.02,1.1,1.96.62,3.04-.68,1.52-3.43,5.16-3.87,5.77-.19.27-.71,1.58-.77,2.06-.32,2.77.2.73,1.05,1.53.45.42-.55,2.35-.06,3.5.95-1.47,2.62-2.69,3.28-3.14.73-.51,1.46-.86,2.38-.73.88.88-4.39,11.23-5.04,12.95-.95,2.49-.27,2.29-.23,4.09.03,1.32-2.55,2.93.48,2.64.84.58-1.96,5.07-2.48,5.92-1.85,3.06-4.69,6.48-6.27,9.57-1.51,2.95-2.91,9.05-4.47,11.37-.66.99-2.04,1.89-2.85,2.91-1.47,1.85-2.51,4.26-3.88,6.2-2.64,3.73-6.62,8.03-10.05,11.07-1.59,1.41-5.09,3.47-6.25,4.79-.79.9-.52,2.32-.93,2.91-.41.6-1.34.3-1.64.52-.61.46-4.57,7.44-4.87,8.56-.41,1.57.03,2.62-.06,3.05-.04.21-.41.27-.42.31-.03.22-.05.81,0,.96.02.06.36.07.45.27.46,1.04-.61.55-.93.69-.15.07-.33.89-.48.96-.25,1.72,1.22,3.78-.48,5.06-.37.28-.79.14-.96.22-.32.15-.44.46-.48.48l-.24,1.92s1.36,0,1.63,0c.67,0-.98,1.86-1.04,2.09-.13.59.24,1.35.52,1.84.66,1.14,3.65,2.35,3.49,3.35-.22,1.34-3.07,1.18-3.4,1.84-.03.06-.9.93-.96.96.17.24.32.83.48.96.38.31,1.3.4,1.41.51.2.21-.1,1.24.03,1.41.23.28.88-.78.96.96.03.79-.08,1.64,0,2.4.04.32.36,1.59.48,2.4.05.31-.05.66,0,.96.02.1.92.97.48,1.92-1.09.23-1.36-.79-1.92-1.44-.22-.25-.65-.17-.96-.96l-2.4-.96v3.84c.31.04.68-.06.96,0,1.4.29,1.79.79,1.44,2.4l.64.07c.21.06.23.36.32.41.23.12.69-.11,1.21.47,1.16,1.31.8,2.41-.48,3.4-.59.45-.88.31-1.21.46-.23.1-.6.82-1.44.48-.02.44-.06,1.02,0,1.44,1.17-.33,1.23.89,1.44,1.92.03.15-.03.33,0,.48,0,.01,0,.03,0,.05.31,1.61.81,5.53,3.08,5.89-1.17-.18-3.09,1.8-4.05-.18h-.48c.31.74.88,2.58.96,3.36.02.15.02.33,0,.48-.18,1.62-1.61,2.78-1.51,4.5l-.4.3c.1.81-.12,1.68.08,2.57.63,2.54,1.66,4.33,3.2,6.2,1.16,1.41,1.32,3.45,2.27,5.01.7,1.15,1.94,1.97,2.52,3.17-.82.84-2.13.77-3.22.93.16.17,7.03,5.57,7.14,5.64,0,0,.48.48.48.48,1.51,1.29,2.94,3.09,4.52,4.28-.54.18-1.05.28-1.54.34,0,0,0,0,0,0-.11.04-3.08.91-3.78,1.05-3.92.82-5.7-1.01-8.81-1.37.61,2.71,3.33,4.18,4.32,6.72.02.04.62.03.46.66-.14.56-.79.61-.93.78-.19.22-.36.9-.48.96v.96s.13.36.48.48c.91.32.87-.61.96.96.02.29.06.73,0,.96-.23.94-1.07,1.07-1.92.96-.03.06-.9.93-.96.96v1.92c.72,2.42,2.83,4.02,2.4,6.72,0,.06-.3.5-.48.96-.37.95-.43,1.94-1.92,1.92.14-.22.22-.57.35-.91-.13.34-.21.69-.35.91-.46.72-1.18,1.25-1.44,1.92-.68,1.74-.5.53-.96.96-.09.08.06.67,0,.96-.22,1.03-.59,1.97-.54,3.07l-.42.29c.05.3-.06.66,0,.96.15.83.35,1.52.48,2.4.22,1.53.92,2.86-.47,4.08-.58.51-1.31.5-1.92.72l-.25-.47.25.47s-.04.51-.72.51c-.63,0-.68-.49-.72-.51-.22-.09-.67.06-.96,0v.48c1.21.57,2.65,4.64,2.88,4.8.16.11,2.44,5.43-1.77,6.14-1.11.19-2.18.02-3.29.09-1.35.08-.26,1.04-1.18,1.45.1.35-.1.82.23,1.43.46.84,2.16,1.52,2.19,1.72l-.06,5.2c-.21.74-1.41.73-2.14,1.22-2.31,1.56-4.16,4.96-4.54,7.7-.05.34.09.77-.05,1.14l-.43.3c.08.4-.01.98,0,1.44-1.09-.09-1.5.6-1.48,1.51-.02-.92.39-1.6,1.48-1.51.02.64-.01,1.28,0,1.92-.48-.01-.96.02-1.44,0-.32-.01-.64.02-.96,0-.29.67-1.23.92-1.92.96-.11.39-.1.37-.48.48-.21,2.51-1.18,1.95-3.36,1.92.06-.17,0-.44-.02-.69,0,.25.07.52.02.69-.3.94-1.24,1.77-.96,2.88,0,.03.32-.12.48.48.07.28-.07.69,0,.96.14.51.31,1.36.48,1.92h-.48c.05.47-.06.97,0,1.44-.8-.21-1.03-.89-1.44-1.44-.07-.09-.5-.12-.48-.48v-.48c-.15.02-.33,0-.48,0-1.07-.06-.9-.46-.96-.48-.24-.09-.68.08-.96,0-.65-.18,1.71,11.31,1.16,11.51-1.42.51-2.35-.9-3.33-1.62-.49-.36-.9-.95-1.61-.81-.18.03-1.23.85-1.02,1l.4.31c.27.64.34,1.49.56,2.09.97,2.63,2.92,4.5,3.36,7.2-.47-.07-1.24-.08-1.7,0-.6.09-.66.48-.7.49-.94.09-2.9-.51-3.39.71-.12.29.35.92.36,1.25,0,.31-.38.42-.39.77-.06,1.38.63,2.83.69,4.03.06,1.29.59.31-.61.92-.08.04-1.38.89-1.44.96-.26.32.64,1.4-1.92.96,0,.16.02.32,0,.48-.07.74.23,2.1-.74,2.4-.49.15-.66-.46-.7-.48-3.4-1.43-1.74,7.02-2.41,7.67-.01.01-.03.02-.06.03-1.54.44-3.05,1.1-4.62,1.4-2.1.4-2.97,1.04-4.63,2.57-3.24,2.97-6.28,6.15-9.63,9-.54.46-1.17.4-1.21.46-.08.1.17.7-.06.88-.45.37-3.02.62-3.78.56,0,.16.01.32,0,.48-.11,1.68-.62.7-.96.96-.05.04.08.86-.46,1.22-.51.35-1.41.17-1.46.22-.49.46.21,1.41-1.23.88-1.07-.18-1.06-1.39-1.31-2.18-.23-.73-.2-1.54-1.18-1.38-.02.42-.57,1.03-.61,1.27-.34,2.56-.87,5.82-3.36,7.18-.12.07-.45-.07-.48,0-1.17.1-.95.06-.96-.96,0-.3-.05-.7,0-.96l-.43-.3s-.05-1.01-.05-1.13c-.12-2.58-4.33-1.42-5.76-.97-.06.06-.41-.06-.65.08-2.09,1.19-4.84,4.25-5.11,6.64-.2,1.8-.71.65-.96.96-.12.15.07,1.43,0,1.92-.22,1.45-1.05,2.66-1.49,4.04-.51,1.59.11,2.68,0,4.12-1.72.49-1.27-.17-1.87-.95-.04-.05-.67,0-1.21-.46-.8-.68-2.28-2.45-2.63-3.38-.09-.24.12-.82,0-.95-.13-.14-2.42.06-3.11-.02-.54-.06-1.04-.4-1.68-.47-.77-.09-2.44.19-2.88,0-.03-.01-.12-.08-.25-.19.13.11.22.18.25.19.47,2-1.95,2.48-3.19,1.03l-.65-.07c0,.42-.34,1.87-.48,2.4l-.48.48c-.21.8.5,1.99-1.15,1.39-.55-.2-.61-.74-1.73-.91l-.24-.48-.24.48c-.44,0-1.07-.08-1.44,0l-.3-.43-1.14-.05c-.14-.13-1.18.19-1.4-.03-.1-.1.02-1-.5-1.67-.54-.7-1.35-.6-1.47-.69-.65,1.14-1.03,1.14-2.4.96-1.25-.17-1.89-.77-2.88-1.44h0c-.35-.24-.45-.46-.48-.48h0c-.76-.51-1.81-1.57-2.88-1.44l.24,3.36c-1.83-.43-2.67-1.8-4.55-1.92-1.06-.07-3.27.2-3.84-.96h-.96c-.32,1.3-1.79.96-2.88.96-.04.31-.14.53-.48.48.52.25.45,1.81.48,2.4.04.8-.02,1.6,0,2.4-.48.02-.96,0-1.44,0-.66,0-3.19.11-3.34-.03-.16-.15.05-.69-.02-.93-.73-.56-1.69-.35-2.41-.71-1.15-.58-1.78-3.18-3.58-.72-1.56,2.14-1.89,4.98-5.02,6.01-.77.25-1.49.1-2.11.29-.5.15-.73.84-1.51.91-1.32.13-3.32-2.33-4.57-3.13-1.9-1.21-4.44-2.34-6.7-2.17h-.48c.03.68-.13,1.44.07,2.09.19.63,1.16.83.89,1.75-2.16.3-1.11-.38-1.51-1.6-.19-.58-1-1.25-1.37-1.76-.39-.54-.27-.44-.48-.96-.14-.34-.13-.34-.48-.48-.03-.31.05-.66,0-.96h-1.92c.03.16-.03.33,0,.48.03.14.01.33,0,.48-.06.75.27,1.17-.72.96-.48-.1-.15-.46-.24-.96-.13-.67-.45-.43-.96-.48-.02-.32.03-.64,0-.96-1.27.1-2.67-.26-3.84.23v.25c-.32-.06-1.84-.06-1.92,0-.1.08.35,1.39-.7.93-.22-.09-.23-.44-.26-.45-.26-.07-.65.04-.96,0-1.4-.19-1.8.58-2.38-1.21l-2.9-2.63c0,.82,1.96,4.16,2.4,4.32-.29,2.23-2.1,2.26-3.77,1.37-.83-2.41-2.55-4.31-3.9-6.4-.12-.18-.45-.17-.49-.24-.22-.45.52-1.1-.72-.97-1.39.15-2.14,1.76-3.6,1.45-.4-1.28-2.59-4.21-3.36-5.76l-.43.28-.05,2.12c-.35.35-2.81-1.75-2.88-1.92h-1.44c-.04-.08-1.07-.76-1.45-1.19-.45-.52,3,5.05,2.91,6.21-.14,1.63-.85,2.81-2.64,2.69-1.76-.12-3.47-2.79-4.8-3.87-1.96-1.59-5.5-4.08-7.93-4.31-.46-.04-.97,0-1.44,0-3.81,0-7.29,1.76-10.76.55-1.8-.63-3.66-1.52-5.51-1.98-2.32-.57-4.52-.44-6.78-1.14-2.06-.63-4.25-1.11-6.22-1.98-2.14-.95-3.98-2.45-6.08-3.45-1.2-.57-1.25-.65-1.7-1.22-.59-.76-.89-1.48-1.69-2.04-.86-.6-1.68-.21-1.58-1.58,0-.01-.02-.02-.03-.03-.21-.17-4.42-1.29-5.22-1.52-1.88-.54-2.38-.86-3.38-2.54-.94-1.58-2.36-3.95-1.83-5.8.11-.4.68-.73.89-1.26.09-.22-.07-.67,0-.96h-1.44c-.09-.81.18-1.86-.04-2.6-.16-.52-1.55-.91-1.88-1.72-1.6.04-1.63-2.05-2.4-3.36-1-1.7-2.41-3.23-3.14-5.26-.7-1.95-1.54-4.94-.46-6.73.19-.31,1.84-2.36,2.14-2.66.75-.77,2.1-.71,2.42-1.42.43-.96-1.12-.56-1.44-1.68-.07-.26.05-.66,0-.96-.96.22-3.02-.64-3.6-1.45-.26-.36-.16-.83-.23-.95-.05-.08-.56-.13-.87-.8-.33-.71-.58-1.76-.57-2.56-.14-.07-.92-.65-.99-.77-.5-.86-2.24-5.7-2.36-6.67-.15-1.2.27-3.87.45-5.24.07-.53.89-.18.98-.27Z"/>
  <g>
    <path class="cls-2" d="M3.04,11.7v-1.36h4.13v1.36H3.04Z"/>
    <path class="cls-2" d="M12.35,15.76c-.77,0-1.44-.23-1.99-.7-.56-.46-.99-1.14-1.29-2.03-.3-.89-.45-1.98-.45-3.27s.15-2.37.45-3.25c.3-.87.73-1.54,1.29-1.98.56-.45,1.22-.67,1.99-.67s1.42.22,1.97.67c.55.45.98,1.11,1.28,1.98.3.88.45,1.96.45,3.25s-.15,2.38-.45,3.27c-.3.89-.73,1.57-1.28,2.03-.55.46-1.21.7-1.97.7ZM12.35,14.29c.39,0,.73-.15,1.03-.45.3-.3.54-.78.7-1.44.17-.66.25-1.54.25-2.64s-.08-1.97-.25-2.62c-.17-.65-.4-1.11-.7-1.4-.3-.29-.65-.43-1.03-.43s-.73.14-1.03.43c-.3.29-.54.75-.71,1.4-.17.65-.26,1.52-.26,2.62s.09,1.98.26,2.64.41,1.14.71,1.44c.3.3.65.45,1.03.45Z"/>
    <path class="cls-2" d="M20.98,15.76c-.6,0-1.14-.07-1.6-.22-.46-.15-.87-.35-1.23-.6-.35-.25-.66-.52-.92-.81l.88-1.18c.34.34.74.64,1.17.9s.95.38,1.55.38c.44,0,.82-.07,1.14-.22.32-.15.58-.36.76-.64.18-.28.27-.61.27-.99,0-.43-.1-.79-.3-1.1-.2-.3-.55-.54-1.05-.71-.5-.17-1.17-.26-2.04-.26v-1.38c.76,0,1.36-.09,1.79-.26.43-.18.75-.41.94-.7.19-.29.29-.62.29-.98,0-.51-.16-.91-.47-1.21-.31-.29-.75-.44-1.3-.44-.44,0-.85.1-1.23.31-.38.21-.74.48-1.07.81l-.94-1.15c.46-.42.96-.76,1.5-1.03.54-.27,1.14-.41,1.8-.41s1.3.12,1.83.35c.53.23.95.57,1.25,1.02.3.44.45.98.45,1.61,0,.66-.18,1.21-.54,1.66-.36.44-.84.78-1.45,1.02v.08c.44.11.84.29,1.2.54s.64.58.85.97c.21.39.31.85.31,1.37,0,.69-.17,1.29-.52,1.78-.35.49-.82.87-1.4,1.13-.58.26-1.22.39-1.92.39Z"/>
  </g>
</svg>