<?xml version="1.0" encoding="UTF-8"?>
<svg id="a4" xmlns="http://www.w3.org/2000/svg" viewBox="0 0 600 500">
  <defs>
    <style>
      .a4 {
        fill: #5d4c39;
      }

      .cls-2 {
        fill: #c9caca;
      }
    </style>
  </defs>
  <path class="a4" d="M169.12,96.24c.93.62-.02,1.24.06,1.86.34,2.66,6.38,4.28,6.65,6.3.13.98.08,2.81-.02,3.84-.04.43-.59,3-.69,3.15-.49.76-1.9.34-2.82.54-2.11.45-4.11,3.34-1.43,4.63,2.98,1.44,3.82-.26,5.91,3.45.32.57,1.88,3.16,1.92,3.36,1.11,5.94,2.43,4.79,5.76,8.86,3.4,4.16,8.45,16.85,7.68,22.08-.13.86-1.02,1.17-.92,1.82.36,2.37,2.04,5.68,2.33,8.25.27,2.36-.21,4.63-.47,6.94.53.57,2.4-1.77,2.89-2.15.6-.46,1.58-.48,1.91-1.21.45.41,2.43.39,1.92,2.4-.22.05-.32.04-.42.28-.25.56-1.41,3.17-1.45,3.4-.02.14,0,2.58.03,2.71.05.23.4.29.4.32.03.95,0,1.92,0,2.88.02,1.88.14,3.46-.48,5.27l.42.31c.2.51-.03,1.16.06,1.61h-.48c.1.72,0,1.63,0,2.4.05,4.62-2.03,6.5-3.61,10.54-.58,1.49-.8,2.9-1.19,4.32-.02.06-.27.04-.48.96-.06.28.06.66,0,.96,0,.04-.43.11-.49.69-.33,3.47.37,6.09,2,9.06,1.23,2.24,4.18,6.08,4.72,8.47.21.92.34,2.74.48,3.84.06.46-.04.97,0,1.44-.23.08-.41.25-.48.48-.03.09-.02.46,0,.48l-7.65,4.58c-.6.48-3.14,2.87-3.38,3.34-.59,1.17,2.2.69,2.54.63,1.88-.37,3.33-1.7,4.89-2.3,1.33-.51.45,2.13.71,2.39,2.27.31,3.87-.31,5.76-1.44l-1.91,3.12c-.74.65-2.47,2.76-2.56,3.25-.57,3.15-.29,3.94.16,7.06-1.44-.11-1.21-.23-1.66.96-.62,1.63-.97,2.65-.64,4.46.29,1.63,1.66,2.58,1.82,4.17l-1.92-.48c.29,2.06-1.5,2.82-2.41,4.07-2.15,2.96-3.65,6.37-3.37,10.1.1,1.35.3,3.49.49,4.79.12.86,1,1.17.99,1.9,0,.27-.78,2.54-.96,2.84-.26.43-.7.21-.87.36-.29.26-.53,1.36-.59,1.84l-3.68-.9c-.67-.09-2.33,2.62-2.48,3.13-.16.53-.03,1.17-.17,1.76-.47,2.03-4.39,2.95-4.68,3.95-.42,1.45,1.63,2.82,2.86,1.66.25.88-.44.97-.73,1.43-1.27,2.02,3.44,1.29,3.61,1.45.21,1.15-1.17,1.46-1.44,2.4l1.92.72c-.69,1.22-3.08,2.05-3.61,3.11-.42.84-.12,1.71-.3,2.57-.37,1.71-1.83,1.76-1.37,4.88.26,1.8,1.43.28.08,2.94-1.8,3.55.44,6.95,3.77,3.52v.48c-.07.02-.77.76-.96.96-.13.13-.25.13-.48.48-.84,1.31-1.07,2.83-1.44,4.32-.01.06-.37-.11-.48.96-.17,1.6-.21,5.16,0,6.71-.57.94-.99,1.95-1.44,2.88-.14.29-.27.4-.48.96-1.03,2.75-.27,4.32,0,6.96.17,1.77.02,3.92.56,5.68.08.26,2.87,3.94,3.28,4.39.95,1.04,1.93,1.28,2.89,2.15-.09.09-.41,1.84-.72,2.39-.15.26-.89,1.09-1.2,1.44-.4.46-1.63.95-1.86,1.74-.23.79-.17,3.79-.07,4.76.06.58.48.65.49.69.42,2.71,1.65,6.31.96,8.63-.84,2.85-.29,2.85,2.4,3.84.83.3.8.34,1.92.48.16.02.32,0,.48,0,.28,0,.37,0,.48,0,.47,0,1.02-.07,1.44,0l.48,1.92c-3.39.69-3.75,1.93-3.35,5.5.32,2.88,3.27,8.7,5.26,10.8.13.14.03.25.48.48.12.06.33-.05.48,0-.29,1.21.45.82.93,1.21.98.8,1.99,1.41,2.91,2.15.34.28,1.11.77,1.22.94.41.61.95,3.7.48,4.36-.48.67-2.22.13-1.7,1.17.49.99,4.41,1.9,5.62,2.53,1.13.59,2.84,1.6,3.97,2.27,3.81,2.24,6.04,7.71,6.26,11.96l-1.01.53c-.3,2.37.27,3.32,2.67,3.57,2.92.31,3.63-2.99,4.07-5.28l1.67,1.44c.26,2.28.21,1.56,1.68,2.39,1.04.59.79.83,2.4.96.95.07,1.93-.05,2.88,0,.04,1,.35,1.85.48,2.88.22,1.8.68.64.96.96.19.22-.43,1.39.48,2.4.05.06-.02.31.28.43.24.09.47.02.68.05.15.02.32,0,.48,0l.28.43c1.17.12,1.79.31,2.6-.43.39-.36.47-.1.48-.96h.48c.11.63-.12.56.48.96,1.53,1.02,3.71,1.02,5.49.98l.25-.05c.12-.29-.06-.72.02-.93.04-.1.3-.19.48-.96h1.44c1.42,1.24,2.87,2.15,4.8,2.4.17-1-.98-1.71-.96-2.63.01-.69.75-1.67.52-2.61,1.82-.93,1.71-.07,2.98.55.67.32,1.51.29,2.04.84.98,1.03.46,2.49.76,3.55.36,1.28,3.3,2.93,4.74,2.7.2-1.19-.71-3.28.96-2.88.96,2.36,3.44,7.47,4.79,2.62.1-.35-.1-1.08.73-.7,1.5.7,4.84,5.66,6.26,6.21.27.11,1.12.21,1.17-.21.21-1.62-.94-3.12-1.85-4.38l.17-3.05c2.13,2.08,2.88,5.62,3.5,8.49.15.68.13,3.42.84,3.51,2.45.34,3.98-1.53,4.05-3.85l1.92.48c.27.27-1.26,2.33-.02,3.13.57.37,1.91.39,2.44.01,1.41-1,.8-6.67.93-8.42.68-.11.63.8.84,1.32.96,2.39,1.85,4.79,2.99,7.1,1.31-.21,2.94-.06,2.89-1.71,3.37,3.36,2.75-.59,3.58-3.37.75-2.51,2.04-4.66,2.65-7.18.81-.13.54,1.18.47,1.67-.12.87-.93,1.7-.26,2.67.28.41,3.76,1.99,4.58,2.37.03.01-.12.36.48.48.43.08,1.02-.09,1.44,0,.06.01.03.27.96.48.42.09,1.02-.09,1.44,0,.06.01,0,.29.96.48.29.06.68-.06.96,0,.06.01-.12.39.96.48.3.02.67.03.96,0l.31.4c1.2.28,2.36.69,3.53,1.04.58.17,3.69.83,3.84.96h.96c.06-.08,1.55-.34,1.89-.51l.03-2.37,2.4.48c-.28-.85.33-1.65.39-2.25.06-.65-.64-1.36-.37-2.28.23-.77,1.37-.68,1.42-.74.14-.16-.14-2.44,1.44,0,.17.02.36-.04.48,0,1.05.39,2.44,2.87,2.64,2.87l1.2-1.92c.42.37,1.03.33,1.44.48h.96c.61-.22,3.16-.8,3.34-.98.18-.19-.06-1.42.02-1.9,1.5.18,2.31,1.4,4.01.89,1.06-.32,2.03-.78,3.44-.88,1.19-.09,2.4.04,3.59,0,.16-4.23-.03-8.34-.96-12.47.66.71,2.65.32,2.85.51.09.08.91,2.08.93,2.2.11.7-.9,2-.9,2.8,0,.53.47,1.15.51,1.91.08,1.46-.9,2.97-.51,4.56,2.21.09,2.19.33,2.88-1.44h.96c-.29.8.35.82.48.96.03.03-.07.47.24.48.26-.09.19-.45.24-.48.16-.12.49-.09.73-.47.25-.4.15-.69.23-.97.05-.18-.07-.45.03-.69l.45-.27c3.01.62,1.48-3.34,1.92-3.84.79-.88,1.15.94,1.31,1.32.35.83.22,1.68,1.56,1.56.02-.04.41-.03.49-.69.16-1.28-.3-3.18.03-4.3.06-.19,1.86-1.6,2.11-1.72.82-.39.63.35.73.7.29,1.07.47,2.83,1.91,2.65v-9.11c1.48.89,1.77,3.26,2.4,4.8l1.92-.96c.63,1.52.73,4.28,2.88,3.84.58-2.38.53-4.75.48-7.19,1.13.47.56,1.34,1.91,1.69,2.09.54,2.06-2.96,1.92-4.32-.08-.75-1.46-2.93.49-2.65.3,1.04.33,2.37,1.2,3.36,1.68,1.94,3.46.17,3.12-2.4-.34.05-.44-.17-.48-.48-.08-.61.05-1.29,0-1.92-.05-.07.16-.58-.11-.85-.19-.19-.76-.01-.87-.4-.07-.25.09-.55.02-.67-.53-.91-1.34-1.36-.96-2.88h1.43c.14.19.3,2.45.48,2.88.08.19,1.15,1.54,1.44,1.92.19.25.39.37.48.48.43.53.55.58.96.96.12.11.36,0,.48.48h.96s.59.04.94-.24c1.99-1.59,1.34-2.19.98-4.56-.1-.66-.35-1.26-.48-1.92.86.22.72,1.49.96,1.92.26.47,1.03,1.37,1.44,1.92h.48c.27-.19.68-.28.96-.48.19-.14.34.02.48-.48.04-.14-.02-.32,0-.48,1.09-.33,3.24-.7,2.88-1.92,1.68-.43,3.1-1.22,4.8-1.92.89-.36,1.44-.46,2.4-.96,1.67-.87,2.42-1.97,3.84-3.36.36-.35.52-.29.96-.96.49-.73.9-1.4.96-2.4.59.52.81.64,1.23,1.46l3.56-.02h.96c.09.53.44.54.96.48,0-.32-.01-.64,0-.96.04-.92-.13-2.03,0-2.88,0-.06.27-.06.48-.96.18-.77.3-1.71.48-2.4.01-.04.51-.07.5-.72,0-.63-.5-.68-.5-.72-.05-.28.02-.64,0-.96-.02-.32.01-.64,0-.96.32-.02.65.04.96,0,.22-.03.49.07.7-.01l.26-.47c.09-.92-.13-1.99,0-2.88,0-.04.5-.09.51-.7,0-.92-.49-.69-.51-.74-.47-1.86.48-1.23.96-1.44l1.44,1.44c-.06-1.43.09-2.89,0-4.32-.03-.47.07-1.01,0-1.44l.4-.35c.17-.52.08-1.05.08-1.57,0-.47.05-.99,0-1.44.94-.7.34-2.26.48-3.36.04-.34.35-1.37.48-1.92.01-.06.39.12.48-.96.02-.3.03-.66,0-.96l.4-.31c.19-.71.44-1.37.56-2.09.05-.29-.03-.64,0-.96,1.03.33,1.68-1.43,1.92-2.4.58-.21.45-.47.48-.48,1.08-.49.78-.45,1.44-.96.09-.07.33.06.48,0,.88-.35,3.2-.42,3.32-.54.2-.19-.04-.81.04-.9.08-.09,1.36.35.96-.72-.15-.41-.9-.61-.96-.72-.3-.52-1.1-2.86-.96-3.36.02-.08.47-.28.48-1.44,0-.3.05-.7,0-.96h.96c.61,1.38,1.61,3.15,3.34,2.86-.06-1.32,2.12-2.86,2.36-3.64.79-2.59-3.44-6.55-4.25-9.03.37-.89,2.14-1.29,2.34-1.99.19-.66-.05-1.51.12-2.28.22-1.01,1.41-2.41,1.36-3.67,2.02.72,4.15.84,5.05-1.42,2.46-6.21.76-9.39-.64-15.21-.28-1.15-.26-2.72-.57-3.99l.91-.07.07-.88.94.47c.69,2.07,1.04,4.85,2.88,6.23-.42-2.41-1.34-4.36-.98-6.92,1.87-.99,3.17-2.39,3.38-4.59,1.82,1.5,3.9,3.07,6.23,1.67,3.72-2.23-.36-8.58-.96-11.74l-5.97.97c-.27-.04-.74-1.39-.77-1.71-.13-1.45,3.96-7.29,5.08-8.84.59-.81,3.42-3.83,3.52-4.15.42-1.38-.67-2.65-.42-4.02v-.48c.98.43,1.73,1.16,2.88.96.16-.78-.26-1.15-.96-1.44l-8.67-12.71c-.03-.4.87-3.9,1.01-4.05.47-.47,3.28,1.06,4.07-1.44.93-2.92-.98-5.93-.7-6.91.29-1.01,1.37-1,1.88-1.26.76-.39,1.53-.91,2.4-.96v-.96s-2.4,0-2.4,0c.01-.45-.09-1.08,0-1.44.01-.06.32-.61.48-.96.04-.08.38.07.48,0,.08-.05.34.04.46-.26.09-.22,0-.48.02-.7.05-.44.02-.99,0-1.44-.02-.32.02-.64,0-.96h-.96c.11-1.04-.19-1.73-.96-2.4-.93-.8-1.1-.29-1.92-.48-.15-.03-.33.03-.48,0-.06-.01-.37-.26-.96-.48-.14-.05-.33.05-.48,0-.24-.08-.99-.66-1.92-.96-.14-.05-.34.05-.48,0-2.18-2.34-6.77-1.59-4.8-5.76,1.43.26,1.55,1,2.4-.48.28-.49.42-1.39.48-1.44.42-.39.42.83.96-.96.23-.76.73-1.03.96-1.44,1.13.1,2.31-1.24,3.19-1.37.49-.07,1.68.76,2.08.41,1.23-1.04-1.34-.92-1.41-.98l-.51-2.85c.1-.08.02-1.38,1.44-1.92.25-.09.86.1.96,0,.11-.11-.11-.74,0-.96.13-.26,1.07-.42,1.44-.48.44-.07.97.05,1.44,0,.19-1.71-.8-2.59-.96-4.32-.04-.44-.04-1,0-1.44h.94c.44-1.67.44-2.64,0-4.3h-.94c-.04-.17.04-.35,0-.49-.42-1.46-1.29-1.67-.48-3.36.1-.04.38-.91.48-.96.21-.1.83.12.95-.01.13-.14-.08-.72,0-.95.27-.69.65-.94.96-1.92h.94s.5-3.36.5-3.36c1.68-.96,2-2.11,0-2.88-.22-.08-.66.06-.96,0v-.96s.96,0,.96,0c.03-.16-.05-.46,0-.48-.11-.93.49-1.54,1.44-1.44.14-.33.33-.63.48-.96.91-2.02,2.77-3.05,4.53-4.23,1.76-1.18,3.72-3.03,5.85-3.41.44-.08,1.43.23,1.79.01.14-.09.35-.66.27-.62-.14-.26-.13-.48.03-.64v.75c.83.03,1.89.11,2.67.01.69-.08.64-.46.69-.49.66-.39.9-.93.96-.96.19-.09.66.08.96,0-.91-2.31-.09-1.99,1.6-2.97.73-.42,1.55-.1,1.28-1.34.14-.04.32.04.48,0,1.02-.26,2.25-.23,1.92-1.44.28-.04.66-.02.96,0,1.61.11.67.9,1.22.98l1.66-.02v-.96c.3.06.73-.08.96,0,.04.01.04.36.26.45,1.05.46.59-.83.7-.93.11-.11.71.1.96,0,.81-.31.81-.85.96-.96,1.87-1.38,4.52-2.89,5.28-5.27,2.42-1.81,4.96-6.45,6.33-9.25.56-1.15,2-3.95,2.23-4.97.28-1.27-.26-2.93.3-4.01.82-1.58,3.18-3.36,4.31-4.8,2.32-2.95,5.39-7.62,5.91-11.35.67-4.78,1.74-8.59,3.69-13.09.91-2.11,1.83-2,2.43-2.86.35-.5.17-1.4.22-1.45.08-.08.71.16.9-.04.22-.22-.05-1.41.13-2.05.16-.58,1.52-2.03,1.94-2.85,1.91-3.65,3.85-9.44,4.21-13.53.15-1.65-.43-4.83.49-5.98.39-.48,1.36-.45.96-1.92h-1.44c.28-1.31-.41-2.52-.52-3.8l-2.34-.54c-.1-1.5.06-3.02-.03-4.52-.04-.58-.51-1.15-.51-1.93,0-2.12,1.69-6.47,1.95-9.12.09-.87-.03-1.76,0-2.63-.49.09-1.16-.32-1.44.3-.32.69-1.91,3.68-2.87,2.58-.14-.16-.7-2.14-1.22-2.86-.4-.56-.9-1.12-1.67-.97,0,1.01.08,2.02-.09,3.03-.08.47-.8,2.15-1.35,1.29-.08-.12.06-.91-.46-1.7-.2-.31-.69-.44-.9-1.02-.55-1.5-.43-4.74-2.73-4.5-.79.08-1.02.77-1.5.91-.6.18-2.15.18-2.75,0-.34-.1-2.12-1.87-2.18-2.15-.1-.48.79-1.73.44-2.58-1.95.24-1.16-.19-1.51-1.11-.56-1.46-1.26-.4-2.1-.34-1.35.09-2.72-.04-4.07.01-.52-1.29,1.19-4.87-.24-5.28-.97-.27-2.73,1.54-3.93,1.84-.56.14-1.06.05-1.59.08-.79.04-1.6-.03-2.4,0-.4-1.57.62-3.12.49-4.54-.06-.65-.74-2.96-1.68-2.65-1.49.49-2.16,6.12-3.15,7.64-2.27-.02-4.1.69-6.44.5-4.95-.4-7.25-.89-12.24.73-.75.24-1.7.24-1.92,1.19-.15.03-.32-.03-.48,0-1.1.19-2.74.06-2.4,1.44-.45.2-.66.33-.96.48-.46.23-.45.46-.48.48-1.26.7-3.22,1.24-3.84,2.88-.32,0-.64,0-.96,0-.16,0-.32,0-.48,0-.66-1.13-3.85-.07-4.29-.5-.79-.79.59-2.43-2.62-1.84-.4.07-.26.42-.28.43-.15.05-.34-.05-.48,0-.6.23-.45.46-.48.48-.71.43-.81.5-1.44.96-.29.21-.4.42-.48.48-.7.54-1.13.74-1.92,1.44-.2.18-.33.34-.48.48-2.82,2.64-2.65,2.62-4.56,5.75-1.39,2.28-12.76,6.91-15.75,8.71-6.12,3.67-8.32,7.96-12.31,13.35-.56.1-2.13-.19-2.35.05-.42.44-.1,1.74-1.95,1.41l-.02.94c-.17.01-.35-.04-.48,0-.49.13-.34.26-.48.48-.49.74-.97,1.62-1.44,2.4-1.83.52-4.92,2.04-4.8,4.32-.69.63-1.32,2.04-2.4,2.4.01-1.39,0-4.11-.71-5.29-.32-.55-1.57-.61-1.69-.46-.09.11-.4,1.86-.48,1.92l-.27.45-.69.03c-.03.13.01.31,0,.48-.13,1.68-.5,2.89-1.04,4.49l-.4.31c.13.43-.4,1.15-.47,1.69-.09.71.13,1.59,0,2.15l-.48.48c-.11.04-.31-.02-.48,0-.77.09-1.62-.06-2.4,0,.06-.22,0-.66,0-.96-.02-1.61-.34-.67-.96-.96-.03-.01-.19-.28-.48-.48l-.48-.48c-.2-.29-.47-.45-.48-.48-.09-.2.14-.78-.02-.93-.15-.14-3.49-.12-4.01.03-.6.17-.65.82-.77.9-.5.34-.88.38-1.44.48-.15.03-.32-.02-.48,0-1.29.18-1.97.12-2.35,1.78-.12.51.42.58.43.62.19,1.2-.15,1.28-.48,1.92l-1.44.48v-2.4s-3.84.96-3.84.96c.15-.33.32-.64.48-.96.16-.32.31-.64.48-.96.27-.06.42-.2.48-.48.03-.14-.02-.32,0-.48.02-.16-.03-.34,0-.48.03-.16-.04-.34,0-.48h-.48c-1.83.43-2.94.52-4.77-.02,0-1.63-.15-2.77-1.7-3.33-.33.3-.6.5-.72.96-.07.28.07.68,0,.96h-1.44c-.16,0-.32.01-.48,0,0-.84-1.2-.81-1.38-1.03-.21-.26.11-1.02-.12-1.31-.18-.23-.82.01-.89-.06-.14-.14.54-1.34-1.42-.98l-.02-1.42h-1.44s-.96,1.44-.96,1.44c-.01-2.31.41-4.37.48-6.71.02-.54-.08-1.09.05-1.63l.43-.29c-.51-3.58,3.19-10.67,4.58-14.37.77-2.05,3.32-7.76,3.58-9.13,1.5-.11,2.72-1.88,2.88-3.36.27-.02.63.13.85-.08.38-.5,1.85-3.19,2.02-3.27.2-.1.81.12.94-.02.14-.15-.07-.7.01-.94.73-2.07,5.04-5.8,6.73-7.42,1.38-1.31,2.11-3.14,3.31-4.6,1.51-1.85,4.97-5.07,3.33-7.77-.21-.34-.4-.32-.41-.35-.63-1.24-.32-1.89-.55-3.04-.05-.25-.39-.28-.41-.32-.08-.22.1-.64-.02-.93-3.78-.62-6.95,1.22-10.39,2.27-7.57,2.31-12.58,3.31-19.31,8.03-.92.64-2.71,1.77-3.39,2.38-.57.51-.42,1.14-.47,1.2-.56.6-1.26,1.21-1.92,1.92l-.48.48c-.15.16-.32.31-.48.48l-.48.48c-.16.16-.32.32-.48.48l-.48.48c-.56.54-.43.89-.48.96-.24.3-2.45,1.35-3.13,1.91-3.24,2.66-5.82,6.44-8.85,9.37-4.46,4.29-5.72,4.89-8.17,10.78-.15.35-.95,2.22-1.03,2.33-.37.45-.52.02-1.37,1.51-.14.24-2.04.71-2.34,1.74-.32,1.09.2,2.59-.13,3.71-.49,1.69-3.41,2.88-2.81,5.1-.49.1-.85.47-.96.96-.13-.01-2.29.43-2.4.48-.17-.67-.49-.98-.96-1.44-1.18-1.15-1.65-1.26-2.88,0-.09.1-.31,0-.48.48-1.32.46-2.63.53-4.03.53l-.28.43c-.16,0-.32,0-.48,0-.97-.02-2.24.16-3.09.03-.49-.08.34-1.47-1.87-.91-1.94.49-3.63,3.62-5.81,3.3-.33-.05-.32-1.41-1.69-1.72-.56-.13-1.62.56-1.91.24-.19-.21-.27-1.58-1.28-1.87l-3.54.45c-.05-.4.31-1.43.48-1.92.23-.67.68-1.36.96-2.4.28-1.04.3-1.96.48-2.88.43-2.13.6-1.93.48-4.32.28-.13.85.1,1.21-.46,2.51-3.86,6.09-8.36,9.32-11.79.86-.91,2.68-1.74,3.63-2.61,3.67-3.36,14.82-13.23,14.24-18.39-.3-2.62-1.41-1.28-3.05-1.75-.65-.18-1.43-1.39-2.46-1.39-1.04,0-2.52,1.42-3.46,1.83-5.02,2.2-13.71,5.25-18.95,6.73-.77.22-.9.46-.96.48-.26.08-.71-.08-.96,0-.61.2-.45.47-.48.48-.14.05-.33-.05-.48,0-.58.18-.45.47-.48.48-.15.03-.33-.04-.48,0-3.9.98-2.52,1.02-5.29,3.11-1.33,1-1.14.65-2.37,1.94-3.21,3.38-6.86,4.92-10.1,8.61-2.79,3.18-4.91,6.93-7.45,10.3-.71.94-2.97,3.09-3.35,3.84-.46.93-.15,2.7-.71,3.85l-.24.48h-.72c-.97.99-.74,2.69-1.84,3.67-.28,1.24-.29,3.04-.61,4.19-.19.67-1.37.88-1.9,1.47-.47.54-.31.87-.45,1.22-.01.03-.35.04-.44.32-.15.46.43.6.44.64.07.42.08,1.51,0,1.92-.01.06-.29-.02-.48.96-.48.03-.96-.02-1.44,0-.06-.36-.46-.44-.48-.48-.18-.41.42-1.1-.93-1,.53-.89.61-1.5-.51-1.88.13,1.34-.06,2.57-.48,3.84-.19.58,0,.42-.48.96l-.48.48c-.15.06-.36-.06-.48,0-.24.13-.62.3-.96.48-.37.2-.45.47-.48.48-.43.11-1.38.02-1.92,0-.45-.02-1.08.09-1.44,0-.06-.01-.15-.73-.96-.48-.06.29.09.77,0,.96-.04.08-1.2.86-1.44.96-.22.09-.67-.06-.96,0,.04-.18.05-.82,0-.96-.01-.03-.45-.47-.48-.48-.13-.05-.87-.04-.96,0-1.27-3.92-1.95-8.05-3.74-11.84-3.46-7.3-8.98-10.95-14.02-16.68-3.32-3.78-4.29-8.1-7.66-12.01-.5-.58-1.92-2.1-1.93-.54.05.67-.59.08-.72-.16-1.13-2.12-1.63-6.26-2.73-8.78-.5-1.14-1.03-2.16-2.3-1.78-.46,1.77-.44,3.25-.48,5.04-.01.55.31,1.32-.48,1.2-.28-1.37-2.75-3.99-4.06-3.85-.49.05-1.01.56-1.41.47-.61-.13-.92-1.66-1.72-2.14-1.37-.82-2.64-.25-3.27-2.49-.38-1.37-.28-3.53-.61-4.67-.54-1.93-1.76.15-1.88.2-.97.43-2.07-.84-2.88-1.44-.07-.05-.14-.47-.47-.71-.77-.56-3.76-2.17-4.57-2.17-1.52,0-4.38,2.02-5.98,2.42-.31,1.29.61,1.8,1.42,2.62v.48c-.16.6-3.38,1.15-3.39,2.88,0,1.09,2,1.6,1.47,3.12-1.41-.1-2.79.8-3.59,1.93-1.49,2.12.26,2.23.23,3.58-.01.48-.43.95-.49,1.46-.14,1.19,1.76,4.9,2.48,6.14.84,1.45,6.16,8.47,6.16,9.19v7.43c-1.91.28-3.76-1.2-5.52-1.43-1.36-.17-4.27.06-4.56,1.66-.34,1.89,1.34,1.2,2.43,1.91ZM469.69,189.5c-.25.01-.5.02-.75.03.25-.02.5-.03.75-.03ZM471.68,189.71s.02,0,.03,0c.03.01.05.02.08.03-.03-.02-.07-.03-.11-.04Z"/>
  <g>
    <path class="cls-2" d="M3.04,11.7v-1.36h4.13v1.36H3.04Z"/>
    <path class="cls-2" d="M12.35,15.76c-.77,0-1.44-.23-1.99-.7-.56-.46-.99-1.14-1.29-2.03-.3-.89-.45-1.98-.45-3.27s.15-2.37.45-3.25c.3-.87.73-1.54,1.29-1.98.56-.45,1.22-.67,1.99-.67s1.42.22,1.97.67c.55.45.98,1.11,1.28,1.98.3.88.45,1.96.45,3.25s-.15,2.38-.45,3.27c-.3.89-.73,1.57-1.28,2.03-.55.46-1.21.7-1.97.7ZM12.35,14.29c.39,0,.73-.15,1.03-.45.3-.3.54-.78.7-1.44.17-.66.25-1.54.25-2.64s-.08-1.97-.25-2.62c-.17-.65-.4-1.11-.7-1.4-.3-.29-.65-.43-1.03-.43s-.73.14-1.03.43c-.3.29-.54.75-.71,1.4s-.26,1.52-.26,2.62.09,1.98.26,2.64c.17.66.41,1.14.71,1.44.3.3.65.45,1.03.45Z"/>
    <path class="cls-2" d="M17.48,15.54v-1.07c1.07-1.08,1.99-2.03,2.76-2.87s1.35-1.59,1.76-2.27c.41-.68.61-1.31.61-1.91,0-.43-.07-.79-.21-1.1s-.35-.55-.64-.72c-.29-.17-.65-.26-1.09-.26s-.86.13-1.23.39c-.38.26-.72.57-1.03.92l-1.02-1.02c.49-.55,1.01-.99,1.56-1.3.55-.31,1.2-.46,1.96-.46.7,0,1.31.14,1.83.43.52.29.92.69,1.21,1.21.29.52.43,1.12.43,1.82s-.19,1.4-.57,2.11c-.38.71-.89,1.46-1.54,2.22-.65.77-1.37,1.58-2.17,2.43.3-.03.62-.06.96-.09s.65-.04.93-.04h2.94v1.58h-7.44Z"/>
  </g>
</svg>