<?xml version="1.0" encoding="UTF-8"?>
<svg id="a4" xmlns="http://www.w3.org/2000/svg" viewBox="0 0 600 500">
  <defs>
    <style>
      .a4 {
        fill: #5d4c39;
      }

      .cls-2 {
        fill: #c9caca;
      }
    </style>
  </defs>
  <path class="a4" d="M526.83,79.92c-1.26-.49-2.6,1.62-3.55,1.41-.43-.09-.8-.92-1.25-1.17-2.16-1.2-2.87-.32-4.8-.24-.15-1.26,1.44-1.57,1.45-2.63.02-2.51-5.4-.29-6.96-.72-2.58.9-5.25,1.02-7.93,1.43v-1.44s.12-.51.47-.7c3.24-1.77,7.15-3.52,7.68-7.7.23-1.85-.68-.97-.96-1.19-.31-.24,1.29-4.01-3.38-2.66-1.8.52-4.46,2.93-5.97,3.14-1.2.16-3.03.04-4.32,0-.94-.03-1.94.5-1.68-.96.06-.03-.04-.32,0-.48.83.47,1.71-1.52,1.87-2.25.11-.53-.42-.58-.43-.62-.07-.72-.13-2.25,0-2.88l-.43-.28-.05-.68c-2.01-.1-1.06.24-1.9,1.21-1.18,1.36-5.86,6.02-7.46,6-.17,0-1.59-.46-1.66-.52-.48-.47,1.31-4.46-2.93-3.12-1.43.45-3.57,2.27-4.61,2.59-1.21.36-4.4.91-5.7,1.04-1.45.15-3.17-.97-4.22-.88-1,.09-1.99,1.09-3.45.9-.93-.12-1.62-1.29-2.87-1.46-5.75-.78-11,1.15-15.36,4.79-3.03,2.52-5.12,6.09-8.15,8.64-.61-.2-.1-1.03,0-1.45.39-1.75,1.25-4.83,1.25-6.47,0-.64-.36-1.63-.53-2.36-.11-.48-.86-.37-1.19-.27-1.38.42-4.05,7.98-4.79,9.59-.94,2.04-3.16,7.78-4.32,9.11-.24.27-4.11,2.73-4.39,2.81-.99.28-2.07-.21-3.06.29-.88.45-2.9,3.42-3.64,3.58-.59.13-1.49-.89-2.36-.95-2.53-.2-4.02,4.29-5.11,5.94-.91,1.39-3.12,4.82-4.24,5.59-1.19.82-2.57,1.72-3.85,2.63-.6.43-1.87.72-2.17,1.19-.38.58-.12,1.42-.31,2.09-.8,2.79-2.79,6.31-4.7,8.49l-2.14.03c-.08-.87-1.27-1.49-1.69-.98-.12.14-.37,1.51-.49,1.92-.18.59-.5.61-.48,1.92-.31-.04-.68.06-.96,0-.16-.03-.33.04-.48,0-.03,0,.11-.37-.48-.48-.15-.03-.32.02-.48,0l-.24-.48h-.48l-.24.48c-.16.03-.33-.03-.48,0l-.48.48c-.16.08-.66-.16-.88.06-.15.14-.13.61-.32.89-.25.35-.69.45-.71.49-.73.05-1.58.29-1.92.96-.06.11.05.32,0,.48-.33,0-.38.4-.48.48-.93.73-.78,1.02-1.44,1.92h-.48c.08-.6-.09-1.33,0-1.92l-.47-.25c-.03-.31-.03-.63,0-.94l.47-.25c-.09-.59-.09-1.8,0-2.4l-.43-.28-.05-2.11c-.18-.19-.2-.27-.48-.48-1-2.31-1.99-.95-3.12-.97-.47,0-.91-.46-1.37-.4-2.18.28-2.11,2.46-2.71,3.77-.34.73-.93.9-.96.96-1.61.25-2.68,1.72-4.32.48-.04-.13.01-.31,0-.48-.13-1.47.19-3.17,0-4.59-.08-.64-.47-.65-.49-.69-.08-.22.03-.57-.23-.95-.38-.54-.77-.65-1.21-.97-.04-.03,0-.4-.27-.47h-.42c-.27.07-.22.43-.27.47-.52.39-1.73.93-1.92,1.44-.52.07-.86-.07-1.21-.47-.91-1.04-.19-2.81-1.67-2.41-.17-.63-.35-1.27-.48-1.92-.06-.29.09-.87,0-.96-.13-.13-2.3.23-2.88-.48.17-.78.02-1.65.04-2.44,0-.29-.06-.59-.1-.87-.06-.4-.01-.81-.08-1.21-.09-.52-.02-1.11.02-1.64.04-.54.06-1.07.15-1.6.08-.49.19-.99.22-1.48.07-1.16.3-2.34.54-3.48.08-.36.14-.73.25-1.08.12-.38.3-.75.4-1.14.25-.94.33-1.92.56-2.86.1-.39.29-.71.46-1.06.14-.28.21-.55.4-.8.43-.6,1.03-1.1,1.4-1.74,1.61-2.82,2.16-4.87,2.94-7.85.35-1.31.5-2.76,1.07-3.98.26-.55.19-1.23.32-1.82.24-1.1.61-2.22,1.01-3.25.39-1.01.9-2,1.26-3.04.09-.26.02-.49-.02-.76-.02-.13-.04-.26-.05-.4-.01-.2,0-.4,0-.6.02-.45.15-.83.37-1.22.47-.82.47-1.88.2-2.77-.16-.51-.58-.87-.81-1.34-.33-.68-.59-1.79-1.23-2.42-3.5-.48-9.81,2.51-12.66,4.6-1.92,1.41-3.64,3.35-5.3,5.01-2.68,2.7-5.07,4.28-7.93,6.7-4.05,3.43-6.85,7.31-10.05,11.54-.37.49-1.19,2.23-1.29,2.31-.29.23-1.22-.07-1.64.52-.39.56-.1,1.44-.29,2.1-.25.86-1.11,1.77-1.28,2.56-.23,1.07.13,2.28-.14,3.22-.2.68-1.47,1.26-1.86,2.22-3.28.14-1.27,2.98-3.84,3.36-.04-.04-.4.06-.96-.48-.05-.05.05-.39-.24-.48-.29,0-.2.43-.24.48-.15.17-.13.31-.48.48l-.25-.48c-.79,0-3.2,1.85-3.59,1.44l-.06-1.63-.42-.29c.07-.55.03-1.33,0-1.92-.02-.38.07-.77-.05-1.14l-.43-.3c.06-.3.06-1.14,0-1.44-.23-1.07-1.56-1.27-2.43-.73-.3.18-.34.65-.45.73-.23.19-.66.32-.96.48-1.32-.38-2.7-.7-4.09-.49-.66.1-2.15,1.58-2.63.97-.13-.17-.13-2.55-1.22-2.86-1.18-.33-1.22.44-1.66.94-1.09,1.25-1.29,2.7-2.4,3.84-.37-.02-.37.23-.48.48-.31.68-.29,1.84-.48,2.4-.01.03-.3-.14-.48.48-.08.26.08.69,0,.96-.02.06-.39-.11-.48.96-.02.3-.03.67,0,.96-.73,1.7-2.72,1.36-3.6,2.39-.63.74-.92,2.39-1.2,3.36l-1.19-2.4c-1.28-1.46-4.28-1.06-4.56.96-.02.16.03.32,0,.48-.32,1.86-.47,4.06-2.88,3.84-.06-.73-.45-1.32-.5-2.14-.1-1.75-.08-3.86.25-5.53h.25c-.18-.48.07-.4-.48-.96-.61-.61-.91-.44-.96-.48-.07-.06,0-1.53,0-1.92,0-.31-.03-.65,0-.96-.55-.1-.9.04-1.03.25.14-.21.48-.36,1.03-.25.2-2.11.54-4.22.99-6.29.19-.87.51-1.72.67-2.58.06-.31.07-.65.23-.93.2-.35.26-.77.49-1.1.24-.34.26-.78.36-1.18.24-.94.56-1.86.87-2.77.1-.3.05-.61.12-.92.06-.24.25-.44.33-.69.04-.13.08-.26.14-.39.13-.3.29-.57.44-.86.42-.8.58-1.7.91-2.54.07-.19.15-.38.22-.57.48-1.23.99-2.45,1.48-3.68.22-.55.45-1.1.63-1.66.08-.25.26-.38.36-.62.07-.17.11-.36.2-.53.08-.15.21-.21.3-.34.1-.15.11-.36.23-.52.29-.39.25-1.11.16-1.57l.43-.3c.12-.38.04-.76.05-1.14.03-.75.08-1.67,0-2.4,0-.03-.35-.1-.38-.33-.06-.36.34-.76.17-1.11-.46-.92-1.71-.72-2.18-1.43-.2.05-.74.04-.96,0-.32-.06-.69-.44-1.2-.48-3.67-.31-9.1,4.16-11.28,6.95-1.02,1.3-2.02,3.02-2.87,4.09-.06.07-1.17-.13-1.44.96-1.17-.11-2.02.41-2.88.96-1.99,1.27-2.07,3.06-2.4,3.36-.35.32-.77-.79-.96.96-.03.31.05.67,0,.96,0,.04-.38.09-.49.7-.1.52.05,1.14,0,1.69-.12.13-1.86,2.71-1.92,2.88-1.65.03-2.45.32-2.88,1.92-.11.4-.01,1.7-.48,1.92-.19.09-.77-.13-.93.03-.17.16.06.74-.03.93-.79,1.67-1.66,1.91-2.4,4.32-1.15,3.73-3.08,8.2-3.84,11.99-.14.68-.41,1.27-.48,1.92.37-.03.65-.05.85-.06-.2,0-.48.02-.85.06.13-.01-.23,1.12-.27,1.21-.12.35-.23.7-.34,1.05-.06.21-.1.43-.18.64s-.24.36-.3.57c-.05.15-.05.23-.23.29-.05.02-.61.08-.61.08.06.29-.05.66,0,.96l-2.33,4.15c-.12.21-.04.43-.07.64-.03.27-.05.71,0,.96l-.41.3-.07,1.14h-.48c.04-1.15.3-1.66-.96-1.44.06-.47.08-1.48,0-1.92l.43-.3c.13-.37.04-.76.05-1.14.02-.47.03-.97,0-1.44-.96.17-1.41-.64-1.92-.96-.54-.33-2.04-1.34-2.4-1.44-.26-.07-.66.05-.96,0,.08.25-.07.68,0,.96-.66.91-.61,1.17-1.92.96-.01-.03-.28-.17-.48-.48-.24-.37-.46-.45-.48-.48-.54-.91-.92-1.95-1.44-2.88-.17-.31-.45-.43-.48-.48-.37-.67.46-.8-1.44-1.44-.58-2.41-3.03-4.28-4.54-6.25-1.73-2.27-8.91-13.32-10.63-13.83-1.23-.36-3.8.65-4.02.42-.58-.61-.97-5.71-1.98-7.37-1.21-1.99-3.09-1.04-3.29-1.26-.11-.12.14-2.41-.94-3.14-.39-.27-1.8-.34-1.93-.2-.25.27-.18,2.38-1.21,1.91-1.19-.54-4.71-5.02-6.23-6.24-1.78-1.43-4.27-2.31-5.99-3.6-2.93-2.19-2.27-3.99-6.73-5.02l-.96-3.56c.04-.47-.93-.35-1.19-.28-.62.18-.9,1.88-1.27,2.57-.33.62-.93,2.03-1.85,1.75-2.75-2.49-2.16-2.65-3.59-5.76-.23-.5-1.61-3.18-1.75-3.29-.31-.25-1.07.06-1.37-.06-.14-.05-1.54-2.42-2.4-1.44-.65.74-.45,3.7-.48,4.8-.7-.46-2.5-1.26-3.36-1.44l-.33-.41c-.35-.19-.83,0-1.11-.07-.15-.04-.32.03-.48,0-.1-.02-.97-.96-1.88-.45-.66,1.54-.76,2.78-2.6,2.29-1.25-.33-3.94-1.45-5.09-2.11-.85-.49-5.2-4.18-5.78-3.57-.54,2.07.85,3.03.96,4.79l-1.65-.47c-1,1.29-2.13,3.82-1.65,5.45.17.57.94.84,1.15,1.24.7,1.33-.63,4.78-.75,6.47-.16,2.19.48,3.92.5,6.01-3.48-.15-9.55.59-8.09,5.45.13.42.68.66.82,1.1.17.53,0,1.18.17,1.74.8,2.68,3.68,4.73,5.4,7.07.87,1.18,3.9,5.75,3.58,6.88-.3,1.05-2.31,1.49-3.1,2.2-1.52,1.35-1.74,4.79-1.66,6.73-1.24-.42-1.64-1.8-2.39-2.65-.42-.47-2.89-3.15-3.37-2.63-.14,2.62-.04,4.79.6,7.32.52,2.07,1.68,4,2.19,5.96.19.75-.04,1.54.16,2.24.42,1.52,3.13,3.24,3.77,4.87.45,1.17-1.62.39-1.9,1.46-.21.8,1.02,3.36,1.5,4.22,2.14,3.78,9.06,9.48,12.63,12.31.88.7,4.8,3.12,5.05,3.59.68,1.29-2.62.47-2.88.72.04.68-.12,1.43.07,2.09.59,2.07,7.96,8.01,10.03,9.64,1.38,1.09,3.34,1.81,4.52,3.15,2.45,2.8,3.79,8.14,5.98,11.29.33,1-1.48.72-1.84,1.92-.68,2.28,4.82,5.11,6.43,5.01,1.45-.09,1.11-2.95,3.43-3.33,1.35-.22,5.17,4.16,5.92,5.47l4.33,4.07c-.11.38.1,1.02,0,1.44-.01.06-.28.02-.48.96-.12.58.17,1.17-.23,1.93-.8,1.52-3.76.84-3.13,3.82.08.41,1.67,2.23,1.44,2.4-2.15-.15-1.96.89-1.9,2.64.01.38.34.75.33.98,0,.1-.61,1.16-.83,1.66-.04.09-.62.02-.41,1.09.31,1.63,1.62,2.41,1.81,3.04.32,1.05-.5,2.35-.82,3.4-.58,1.94-.47,1.48-1.29,3.02-.33.63-1.28,2.99-1.23,3.59.13,1.65,1.96,1.42,2.68,2.15,1.22,1.25.93,2.29,1.2,3.59.43,2.03,1.77,5.7,1.21,7.47-.47,1.48-2.69,3.36-2.68,4.04.04,1.98,2.03,4.68.55,7.14.57,1.07,2.85,3.86,2.86,4.86,0,1.18-2.67,2.4-2.41,3.32.09.32,2.21,2.51,2.62,3.15.36.56.73,1.57,1.2,2.39.69,1.2,1.31,1.68.96,3.36-1.34.37-.81-.76-1.43-1.21-1.64-1.17-1.37,2.1-1.54,2.8-.25,1.02-.84,3.16-1.24,4.03-.66,1.45-2.77,2.26-2.94,2.81-.6,2.03,1.18,2.66,1.4,4.27.19,1.43.28,2.87.47,4.33.32,2.39-1.22,1.32-1.82,3.44-.77,2.71-.45,4.28-2.08,7.03-.9,1.52-2.96,2.95-2.1,4.64,1.08,2.12,3.47-.17,3.61-.01-.3.84-.82,4.44-.48,4.79.08.09.78.27.94-.34.3-1.12.77-.51,1.94-.62.24,1.4-.84,2.64-.42,4.01.15.48.87.72.93,1.5.04.48-.4,4.95-.51,5.75-.19,1.39-1.58,2.28-1.84,3.44-.3,1.37.05,3.05-.08,4.48.65.14,1.11-.45,1.7-.51.75-.07,1.4.55,1.84.46.66-.14,2.45-2.12,3.66-1.87.65.62-2.38,2.87-2.67,3.36-.11.19-.51,2.98-1.07,4.17-.62,1.29-3.94,5.69-3.97,6.14-.08,1.16,1.17,2.24.03,3.59.68.58,3.45-1.17,3.84.24.35,1.28-2.13,2.87-2.36,3.9-.08.34,2.18,5.19,2.35,6.66.44,3.82-.05,6.26-2.87,8.86-.16.03-.46-.04-.48,0-.07.17.17.62-.09.87-.25.24-.75.02-.86.09-.25.14.29,1.39.71,1.4.06,0,.6-.41,1.21-.44,2.28-.11,3.6.58,5.75.98.06.31,0,.63.01.94-1.14-.27-2.07.65-2.88.96l1.44.96h.48c-.07.27.07.68,0,.96-.48,1.95-.95,3.98-1.54,5.9-.38,1.22-1.65,3.34-1.75,4.5-.07.71.77,1.42.89,2.31.33,2.37-.77,3.53,1.44,5.51,1.32,1.19,1.67.04,1.92,0,.16-.02.33.03.48,0,.82-.18,1.05.35,1.92-.48.64-.62.75-1.24,1.92-1.44.52,1.17.6,1.77.48,3.36-.09,1.13-1.16,6.01-1.67,6.73-.78,1.11-4.17.73-3.61,3.34l2.4-.96c.47,1.52.18,4.19.55,5.45.15.52,1.07.93.89,1.75l.96-.24-.48-4.08c1.21.02,2.3.19,3.36-.48l.03,4.77c2.93.42,3.95,3.69,4.29,6.26.21.24,2.34-.84,2.4-.96l.43.28.05.68c-.56.6-.65,1.08-.96,1.44-.34.39-1.15.5-1.44,1.44-.04.12,0,.32,0,.48,0,.32,0,.64,0,.96,1.04.29,1.63-.49,2.4-.75.45-.15.45.27.48.27-.06.3.08.73,0,.96-.16.47-.29.79-.48,1.44-.17.59-.69,1.14-.48,1.92h-.96s0,.24,0,.24c1.74.96,2.33,2.04,2.41,4.07,2.55-.31,4.88.48,7.18,1.45.33.14.63.34.96.48l.06.66c1.02.76,1.15,2.51,2.34,2.22.04.14-.04.33,0,.48.59,2.42.3,3.4,2.88,1.44l.96,2.88-.23.4c-.67-.89-2.18-1.34-1.69-.16.08.2.45.18.48.24.9,1.63.66.95,1.69,1.9,1.72,1.6.93,1.77,1.18,3.65.09.64.48.65.49.69.12.42.55,1.76.48,1.92-.62,1.45-.18.71,0,1.44.06.26.06,1.19,0,1.44-.01.05-.73.1-.48.96,2.52.45,1.63-.58,2.65-1.91.7-.93,1.64-.73,1.9-1.92.41.57,1.25.37,1.72.69.8.55-.16,2.07,1.41,1.71.05.29-.02.64,0,.96.02.32-.01.64,0,.96,1.03.18,1.01-.05,1.44-.48.84-.83.41-1.67.48-2.88,1.41,1.43,3.11,3,4.8,3.84.23.11.94.43.96.48.14.29-.28,1.04.26.98l3.29-.56.29-.42c.19.11.7-.08,1.2.47,1.5,1.66,2.91,4.72,4.32,6.24.83.89,2.64,1.25,3.79.92.77-.22,1.21-2.65,1.76-3.27.11-.13,1.26-.1,1.64-.04,1.62.27,4.07,2.77,5.52,3.84.55.4.81.61,1.44.96.31.17.64.32.96.48.04.02.01.54.61.41.79-.17,1.76-.41,2.27-.89,1.26-1.19-1.09-1.98.96-2.88,1.39.2,2.05.62,3.36.96l.48-1.44c.16.94.66,2.09,1.21,2.86.38.53,3.67,3.89,4.06,4.1,2.32,1.21,4.7.92,7.2,3.35.43.42,1.18,2.11,1.68,2.11.21,0,1.85-1.1,2.49-1.31,1.05-.34,2.32.25,2.98-1.34-.18-1.35.45-2.54.56-3.75.23-2.58-.92-2.95.36-5.88.26-.6.92-1.03,1.06-1.57h.96c-.21,1.92-.26,3.87-.48,5.75-.12,1.09-.32,2.43-.49,3.59-.11.78-1.34,3.19-.95,3.6.59.62,1.99-1.49,2.4-1.92,1.25-1.31,1.52-1.77,2.53-3.24.09-.14.53-.17.83-.59.94.03.82,1.25.96,1.44.35.46,1.35-.74,1.76-.89.42-.15.88,0,1.11-.07-.12-.53.45-1.1.48-1.44h2.88c.06-.26-.01-.65,0-.96.02-.59-.1-3.15.96-1.92.08.1.35,1.54.48,1.92.28.79,1.09.27,1.42.5.29.21-.38,6.03.5,7.17,3.08-.49,2.17-4.92,3.84-6.71.06-.06,0-.33.28-.43.24-.08.46-.02.68-.05.76-.09,1.62.06,2.4,0,.34-.19.45-.47.48-.48l.24-.48h.72s0,.96,0,.96c.03.02.04.23.48.48l4.8.48c.16-.92-.62-1.99-.48-2.4.01-.03.45-.47.48-.48.23-.08.66.06.96,0,1-.2,2.05-.34,3.06-.56l.3-.4c.21.04.76.05.96,0,.54-.13.37-.34.48-.48.02-.02.37.06.45-.28.15-.57-.74-3.82-.92-4.78-.1-.53.11-1.37-.01-1.65l.4-.3c.16-1.38.65-2.69,1.04-4.01.02-.06.35.09.48-.96.07-.59-.02-1.29,0-1.92.03-1.13-.38-1.65.96-1.44.04.47-.02.96,0,1.44.04.78-.21,1.75.23,2.41.58.88,1.15.07,1.46.09.97.05.67,2.05.71,2.78.03.61-.11,1.38,0,1.92.09.45.43.41.48.48,1,1.29,2.35,1.62,3.84.72.4-.24.95-1.16,1.19-1.15,1.06.02,2.64,2.94,4.75,2.3.67-1.02,5.39-3.98,5.55-4.55.21-.73-.54-1.46-.48-2.33.05-.66.73-3.07.98-3.86.64-1.99,1.29-.61,2.86,0,.75.29,1.6.64,2.41.71.25-.26-1.71-5,.78-5.72,1.05-.3,1.7.75,2.41.86.46.07,1.14-.45,1.85-.46.84,0,1.53.56,2.4.56,1.04,0,2-.65,2.98-.9.49-.12,1.5-.04,1.57-.11.23-.24-.38-3.68,2.89-2.39-.7-2.61,2.26-2.04,1.92-4.32l2.16,2.39c.86-.39.55-1.53.79-1.84.16-.21,1.98-1.01,2.58-1.98.58-.93-.2-1.4-.25-2.18-.08-1.19.03-2.4,0-3.59.48.17,1.17.78,1.46,1.18.16.21.9,1.57.94,1.7l.96,1.44s-.02.32,0,.48l.96-.48c-.03-.3-.03-.66,0-.96.05-.59.31-1.32.48-1.92.15-.54.17-.88.48-1.44,1.29-.84.93-.48.96.72.02.81-.14,4.38.02,4.54.07.07,1.8.6,1.9.5-.47-1.66.58-2.59.96-3.84.04-.13-.02-.31,0-.48.84.17,3.18,1.12,3.36,0,.38-2.28-1.32-4.52,0-6.71l.25-.46c.47-.06.94-.07,1.41,0l.26.45c.66.12.36.71.48.96.19.38.35.7.72.96.41-.25.52-.61.72-.96.02-.03.34-.02.41-.3.1-.37.61-2.91.55-3.06l.41-.33c.21-.51,0-1.12.07-1.59.27-1.6.25-2.81.01-4.57-.12-.86-1-1.16-.99-1.89,0-.69.83-1.69.5-2.65,1.02.79,2.09,2.63,2.67,2.85,1.05.4,1.52-.49,1.65-1.41.95.03,2.51.19,3.36.48,1.18.4,2.64,1.82,4.06,1.42.93-.27.74-1.6.74-2.38,0-.48,0-.96,0-1.44.11-.09.09-.51.44-.48-.2.82,1.95,2.92,2.43,2.4-.4-1.61-.92-3.22-1.44-4.79-.56-1.73-1.29-2.31-.97-4.57.13-.94.69-.94.99-1.4.52-.79.38-1.58.46-1.7.79-1.26,1.41,1.86,1.46,2.15.09.57-.32.94.66.69.48-.12.98-.68,1.72-.44.38-1.33-.81-2.04-1.2-2.87-1.1-2.34,1.83-1.93,3.35-.96l.97-1.44c.8.81,1.31,1.71,2.64,1.44,0-1.3-.67-2.2-.48-3.6.14-1.06,1.2-1.89.96-3.12,1.27.55,1.41,2.34,2.16,3.36.39.53,1.49.68,1.68.48.1-.11-.07-1.59,0-2.15.62-4.17.33-6.07,0-10.09-.09-1.08.05-6.48,1.67-5.98.96.29,1.68,2.7,2.22,3.54.35.54.68,1.13,1.15.3.68-1.21-.1-3.57.31-4.97.16-.55,1.1-1.19,1.29-2.06,1.02-4.63.87-8.03.55-12.86-.03-.5-.47-.97-.48-1.46-.02-1.17,1.62-2.63,1.87-3.41.47-1.51-1.89-4.74-1.86-6.41,1.66-.8,2.65.04,4.32,0-.07-1.5-.98-2.49.24-3.84.4-.44,1.06-.51,1.45-.95.7-.8,1.2-2.67,2.16-3.59,2.13-2.05,4.77-.16,4.3-4.79-.21-2.1-1.02-4.45-1.43-6.48-.15-.73-.36-1.34-.48-1.92-.03-.15.02-.32,0-.48.16.02.33-.03.48,0,.67.13,1.4.97,2.15.98,1.9.03.8-2.13.34-3.23-1.2-2.88-4.77-7.32-3.87-10.39.08-.28,1.07-1.6,1.37-1.75.32-.15,2.08-.88,2.25-.91.91-.18,1.84.89,2.55.19-1.59-2.28-4.86-3.51-6.48-5.54-.28-.35-.2-.9-.24-.94l.96-.72c-.33-.36-.86-.71-.96-1.2-.21-1.07-.24-2.14-.48-3.36-.03-.15.03-.33,0-.48-.06-.28.04-.65,0-.96l-.48.48-.47-.25c-.64-1.6-1.28-4.05-1.93-5.51,1.06-.47,1.23-.71.48-1.68-.7-.9-4.41-4.84-3.84-5.51.75.3,1.31.82,2.15.96.93.16,1.25.23,1.21-.73-.05-1.41-1.1-2.3-1.05-3.75-1.33-1.32-1.88-2.87-2.7-4.49-.34-.66-1.1-1.5.39-.62-.39-.41-.49-.63-.73-.93.23.3.34.52.73.93.93.99,2.81,1.57,3.27,2.01.26.25.86,1.74,1.31,2.29.89,1.1,2.03,2.09,3.58,1.94.34-3.29-.25-5.67-1.82-8.51-.21-.38-.55-.55-.58-.6h0c-.23-.42-.46-.45-.48-.48-.49-.8-.31-1.31-.48-1.92,1.63-.2,3.58.86,5.06.98.84.06,1.51-.54,2.37-.54.85,0,3.19,1.29,3.6-.2.24-.88-.26-1.15-.72-1.68-2.39-2.8-6.38-5.02-9.84-6.23.06-.29.07-1.17,0-1.44.85-.64,1.11-.46,1.92,0l-.48-.96v-.48c-.06-.09-.29-.14-.48-.48l-.43-.28-.05-.68c-.05-.12-.05-.83,0-.96.01-.03.26,0,.48-.48.32-.69.28-.64.48-1.44,0-.03.36-.07.42-.31.11-.43-.88-1.31-.18-1.61.42.42.99.58,1.45.95.57.44,3.52,4.38,4.07,2.17.22-.9-1.33-2.04-1.68-2.64-1.11-1.93-.36-4.47-4.08-3.83-.03-.18-.43-.94-.48-.96-.16-.08-.67.16-.89-.06-.14-.14-.7-1.76-.56-1.86.19-.14,1.22.16,1.44,0,.1-.08-.05-1.46,0-1.91.04-.31-.06-.68,0-.96,0-.03.18.03.48-.48.07-.12-.08-.44,0-.48v-.96s.96,0,.96,0c.18-.48.41-.85.96-.96.01.05.37.1.4.33.13.84-.38,2.3.8,2.07,1.13-.64.77-3.79,1.21-4.3.12-.14,2.7.09,3.51-.09.93-.2,1.86-1.21,2.96-1.36,2.3-.32,4.12.08,6.74-.47.98-.2,1.94.53,1.66-.97l.98-.26c.22-1.58-.48-1.72-.98-2.62-1.42.31-1.72-1.64-1.99-1.85-.25-.19-.93-.01-1.38-.29-.82-.5-.32-2.27-.54-3.3-.21-.96-1.24-1.55-1.37-2.47-.14-1.04.29-.63.97-.72-.07-.93-.05-1.09.96-.96.02-.04.32.02.48,0-.12-1-.04-1.08.96-.96.04-.08,1.17-.81,1.44-.96l3.35-5.04,1.93-1.19c.32-1.31.39-.83.96-1.44.1-.11.23-.17.48-.48.08-.1-.07-.37,0-.48.02-.03.24-.14.48-.48.19-.27.29-.67.48-.96.04-.06.56-.36.96-.96.29-.43.69-1.02.96-1.44l2.57-1.04.31-.4c.32,0,.64,0,.96,0,1.09.03,4.57.27,4.8-.96.11-.58.1-2.04-.06-2.58-.2-.71-1.6-1.36-1.83-2.01-.35-.97.29-1.49,1.25-1.58,1.14-.1,3.9,1.91,4.74,2.79.92.96,1.46,2.88,3.1,2.89.38-3.17-.91-5.94-3.11-8.16l-3.61-2.63c.94-1.46,1.89-.13,3.01-.3,2.39-.37,10.74-4.92,12.59-6.64.36-.34.83-.66.71-1.21-.29-.98-2.45-.34-1.92-1.44.17-.35,3.8-3.93,4.33-4.3,1.17-.82,2.99-1.03,3.84-1.91,2.34-2.4,6.99-13.27,7.66-13.68.08-.05,2.05.01.96-.96-.47-.41-2.69,1.11-3.36.24,1.56-1.42,1.96-3.86,3.13-5.5,1.44-2.02,3.5-3.69,4.95-6.08.6-.98,3.45-6.36,2.95-6.88l-2.88.48c-.51-.51,1.26-5.25,1.67-6.24,1.27-3.04,3.43-4.97,3.15-8.41-.14-1.73-.88-3.56-.5-5.49-1.15-.32-1.83.64-2.7.9-2.44.73-.31-1.35.04-1.88,2.72-4.08,6.05-12.14,6.49-17.01.29-3.26-.51-6.66.49-9.82Z"/>
  <g>
    <path class="cls-2" d="M3.04,11.7v-1.36h4.13v1.36H3.04Z"/>
    <path class="cls-2" d="M12.35,15.76c-.77,0-1.44-.23-1.99-.7-.56-.46-.99-1.14-1.29-2.03-.3-.89-.45-1.98-.45-3.27s.15-2.37.45-3.25c.3-.87.73-1.54,1.29-1.98.56-.45,1.22-.67,1.99-.67s1.42.22,1.97.67c.55.45.98,1.11,1.28,1.98.3.87.45,1.96.45,3.25s-.15,2.38-.45,3.27c-.3.89-.73,1.57-1.28,2.03-.55.46-1.21.7-1.97.7ZM12.35,14.29c.39,0,.73-.15,1.03-.45.3-.3.54-.78.7-1.44.17-.66.25-1.54.25-2.64s-.08-1.97-.25-2.62c-.17-.65-.4-1.11-.7-1.4-.3-.29-.65-.43-1.03-.43s-.73.14-1.03.43c-.3.29-.54.75-.71,1.4-.17.65-.26,1.52-.26,2.62s.09,1.98.26,2.64c.17.66.41,1.14.71,1.44.3.3.65.45,1.03.45Z"/>
    <path class="cls-2" d="M18.12,15.54v-1.52h2.53v-7.87h-2.06v-1.17c.54-.11,1.01-.23,1.42-.38.4-.14.77-.32,1.1-.52h1.36v9.94h2.24v1.52h-6.58Z"/>
  </g>
</svg>