<?xml version="1.0" encoding="UTF-8"?>
<svg id="a4" xmlns="http://www.w3.org/2000/svg" viewBox="0 0 600 500">
  <defs>
    <style>
      .a4 {
        fill: #5d4c39;
      }

      .cls-2 {
        fill: #c9caca;
      }
    </style>
  </defs>
  <g>
    <path class="a4" d="M313.55,137.16c.16-.31.26-.48.07-.05-.02.02-.03.04-.05.07,0,0-.01-.01-.02-.02Z"/>
    <path class="a4" d="M121.86,160.67c1.44,3.72,4.17,6.99,6.65,10.05-.91.14-3.09-1.77-3.61-.22-.7,2.07,2.89,7.59,4.08,9.41.5.76,2.02,2.35,2.27,2.95.45,1.12.4,3.48.78,4.7.25.8,2.1,3.7,2.77,4.27,1.92,1.62,7.35,2.92,8.2,4.85.36.8,1.96,7.28,1.69,7.57l-2.7-1.28c-2.06,1.95.7,5.06,1.97,6.84,1.3,1.84,3.97,4.51,4.92,6.3.17.31.36.49.25.92l-6.39-1.82-.39.64c1.11,1.84,2.18,1.13,3.66,1.56,1.37.4,2.82,2.63,3.06,3.99.2,1.15-.37,3.13-.07,3.72.26.53,4.43,2.66,6.08,3.84.52-.17,1.03-.36,1.54-.54,0,0,0,.01,0,.02-.09.61.24,1.23.25,1.86.02,1.09-.03,2.18-.02,3.26.12.52,1.84.34,2.25.39.33.04.69.15.35.47-.43-.02-.78.17-1.12.41-1.1.78-5.97,4.18-6.12,5.15-.05.34.38.68.4,1.12.02.44-.39,1.01-.18,1.51,1.32.65,2.44,0,3.73-.21.1.47-.45.62-.46,1.05-.05,1.45,5.04,4.16,6.1,5.18.37.9-1.83-.08-2.01-.11-.75-.1-1.57.04-2.33-.01-.2,0-.16.5-.12.59.14.31,5.53,2.43,6.34,2.23l-.45,1.24,1.37,1.49c.12.68-5.03,3.22-5.52,4.77-.7,2.21,1.41,2.51,1.31,3.4-.12,1.07-3.45,4.71-2.06,5.95,1.06.94,2.68-1.44,3.11-1.35.83.77-.9,1.44-1.06,2.23-.14.7.61.09.94.12.37.44-1.75,3.67-2.16,4.3-.56.88-2.22,2.63-2.43,3.45-.41,1.58.92,2.02.83,2.47-.16.79-3.31-.69-3.54.28-.35,1.5,2.05,3.01,1.19,4.54,1.67.14,3.61,1.46,4.78,2.63.16.16.48.2.39.55-.21.41-.91.41-1.11.66-.13.16-.06.54-.3.75-.22.19-4.05,1.98-4.36,2-.78.05-1.74-.85-1.52.48.66.15,4.94.5,4.93,1.06-2.05,2.48-6.63,3.93-.23,4.82.16.71-.92,1.1-.11,1.64,1.83-.85,3.39-1.74,5.51-1.41-.05.78-.98,1.03-1.14,1.82-.13.64.19,1.1.2,1.7l-2.47.71c-.12,1.2-1.36,2.05-1.65,3.05-.22.74-.14,2.19-.69,2.83-.36.42-1.84.03-2.23,1.06,0,.35,4.19,1.56,4.82,1.76.24.08.44-.16.35.36-.09.53-.87.93-.89,1.68-.02.54.6.82.3,1.48-.37.83-4.68,2.95-5.01,4.59.09,1.19,3.25.03,3.94-.24,1.06-.41,1.99-1.13,3.05-1.52,1.12,1.9-1.29,3.11-.85,5.18.46,2.17,2.67.4,2.96.7.3,1.85-.52,3.26-1.07,4.92-.15.45-.03.97-.23,1.42-.37.84-1.86,1.36-2.44,2.03-.16,1.04,3.74,2.58,4.46,3.3.03,1.38-1.15,2.94-1.18,4.21-.01.61.42.92.45,1.39.07.95-1.15,3.28.24,3.4l.64-1.65c1.74-.45,3.26.06,5,0,.12.55-.07.38-.3.53-.51.32-1.15.47-1.69.88-3.79,2.83-4.93,7.79-8.34,10.93l1.17-.12v2.69s.71.25.71.25c.04,1.42-2.33,4.4-.71,5.42.16.1,1.41-.21,2.13-.03.69.17,3.15,2.15,3.4,2.73.2.46-.09.74-.13,1.16,1.37.2,2.37-1.08,3.76-.94.14.61-.18.41-.44.6-1.15.85-4.4,2.84-4.84,4.1-.45,1.28,2.87-.42,3.18-.58,1.71-.89,3.84-2.85,5.39-3.54.33-.15.66-.01.71.24.22,1.14-4.68,3.87-4.46,5.51.46.16,1.24-1.04,1.53-.48.04,1.61.87,2.75,1.93,3.88.11.75-1.93.88-1.82,1.65.09.62.5.13.7,0,.38-.24,1.5-1.16,1.89-.95.75.41.71,3.57,1.3,3.67,1.38.23,1.72-2.93,2.81-1.89.3,1.2,3.1,4.16,3.18,5.07.08.93-1.4,1.37-1.41,2.09.14,1.06,1.5,2.4,1.63,3.31.22,1.53-1.39,3.76.59,4.56.44-.11.94-2.66,1.76-2.82,0,.88,1.13,1.74,1.18,2.48.05.74-1.01,2.31-.91,2.98.18,1.13,2.13,2.05,2.2,3.48l1.06-.02c-.12,1.89.79,1.95,2.11.94-.18,1.15.76,1.16,1.18,1.75.52.73,2.04,3.74,2.58,4,.61.3,1.66.02,2.41.17,1.3.26,2.96,2.07,3.65,3.16.43.67,1.52,4.07,2.14,2.29.46-1.31-.01-2.97,1.07-4.09,1.58,1.1-.74,4.2,0,5.4.13.22,4.25,2.29,4.51,2.31.32.02.57-.41.9-.42.66-.03,1.17.97,2.23-.24-.33,2.12.43,2.85,2,3.99.07.03.35-.55.35-.59v-6.81c0-.52.92-.93,1.41-.82.76,3.06,1.54,6.14,1.88,9.28.07.62-.2,2.3.22,2.6,6.47.16,12.56,2.45,18.57,4.57.27-2.23,1.06-4.74,3.76-3.29-.03-1.02-.13-1.92.51-2.77.58-.17,1.01-.1,1.13.54.35,1.88-.07,5.04-.47,6.93h.68c.19.21-.36,2.32.87,3.03,1.56.9,2.41-.61,3-.43,1.11,2.03,5.36,2.73,6.73.81.46-.64.39-1.1.65-1.71.1-.24-.04-.39.37-.26l1.69.9c.07,2.01,1.41,3.68,2.35,5.41.47.11,1.82-2.19,2.47-2.48.51-.22,1.03.22,1.16.13.26-.19.69-2.53,2.49-1.42.22.13,1.04,1.4,1.04,1.54v3.41s2.96-.69,2.96-.69c.89-1.49.85-3.07,2.52-4.06,4.41-2.62,5.89,3.82,9.9,3.32.43-.05,2.84-.67,2.37-1.39-.2-.31-2.62-1.93-3.18-2.46-.47-.44-3.1-2.84-1.07-2.71.61.04,3.15,1.5,4.07,1.82,1.21.43,2.86.57,3.76.94.66.27,1.33,1.51,1.87,1.67.69.2,3.48-.44,4.42-.44,1.54,0,3.3,3.23,4.33,4.36,1.55,1.7,3.9,3.96,3.77-.12l2.35-.11.62-1.79,3.37-.69c.19.84-.27,1.71-.26,2.47.02,1.89,3.84,4.32,5.67,2.59.73-.69.8-1.83,2.27-1.97.5-.05.72.82,1.38.91,1.44.2,2.63-1.24,3.35-2.28.43-.63,1.13-2.42,1.67-2.56.82-.24,1.34.31,2.24.39.97.08,2.05-.16,3.03-.29,5.37-.67,10.61-2.28,15.89-3.37l.13-.59c-4.19-2.53-4.56-7.6,1.4-4.22h.35c-.01-.48.14-.98.64-1.13,2.49-.77,4.85,2.67,6.29,4.19.62.66,1.72.93,1.78,2.1,1.07,0,.63-1.38.7-2.11.21-.24,2.1,1.62,2.71.72.74-1.09-.67-2.88-.99-3.89,1.99-2.55,2.44,2.05,3.77,2.7.5-.08,1.03-2.58,1.09-3.16.27-2.67-.75-5.04-.36-7.64.26-.46.64.17.82.36.69.76,3.04,4.57,3.29,4.69.31.15.7.2,1.02.08.09-.03,1.28-1.21,1.31-1.3.21-.6-1.03-2.16-1.43-2.74-.83-1.18-1.82-2.26-2.77-3.34l.36-.57c1.77.07,3.15,1.05,3.97,2.59.12.22-.07.58,0,.7.18.25.92.31,1.29.58.51.37.89,1.38,1.53,1.76.5.08.28-.09.37-.32,1.06-2.63,1.26-4.68,3.49-6.85,3.11-3.03,6.3-1.13,5.41,2.94l1.76.47c.61-.44-.11-1-.09-1.74.03-1.31.73-2.69.7-4.26-.05-2.02-.79-4.41-.95-6.45,2.68.3,2.05,3.71,3.41,5.4.58.01.29-2.58.35-3.05,1.11-.12,1.44,1.43,2.58,1.41-.15-1.24-1.87-2.57-.84-3.78.84-.99,1.97-.15,2.96.02-1.05-1.28-5.76-3.59-5.37-5.46.1-.48.74-.93.69-1.56.31-.09.62-.04.91.1,1.44.7,3.87,3.49,5.57,4.53.4.24.69.62,1.25.51-.29-1.01-.03-2.73-.28-3.59-.22-.76-1.21-.58-1.12-1.34l1.85.21c.4-.71.17-.98-.11-1.63,2.95-2.46,4.99-5.35,9.17-5.64.77-.05,2.14.22,2.61.15.3-.05.47-.61.92-.62.63,0,1.29,1.31,3.05,1.18,4.06-.29-1.12-2.94-1.28-3.65.81-1.41,3.41-.81,4.67-.2.97.47,1.92,1.69,2.96,1.75.72.04.13-.55.24-.98.09-.37.66-.8.61-1.35l1.61.2c1.02-1.17-4.32-5.66-5.16-6.47-.32-.31-1.07-.33-.59-.81,1.38-.11,2.31,2.32,3.77,2.58.34.06.67.15.57-.34-1.52-1.83-3.88-3.81-4.81-6-1.09-2.57-.54-3.84,2.46-3.06.41-2.34,1.7-4.73,4-5.64.26-.38-2.74-2.98-3.15-3.54-.58-.77-1.34-2.07-1.31-3.04.4-.45,5.77,4.98,7.53,2.48,1.72-2.43-3.08-4.53-3.88-6.02-.69-1.3-1.07-4.03-1.78-5.5.01-.18,2.99.58,3.42.59,3.56.13,3.47-4.38,2.23-6.71-.28-.52-1.06-1.17-1.12-1.67-.05-.48.37-1.11.39-1.64.02-.38-.19-.75-.22-1.15-.02-.3.25-.69.2-.92-.15-.69-2.03-1.03-2.66-.84-.6-1.95,3.02-.22,3.61-.74.55-1.87,1.18-3.85,2.61-5.26.13-.59-2.07-1.05-2.58-1.05.05-1.26,2.22-.2,2.71-1.17.8-1.58-2.75-2.42-3.34-3.12-1.12-1.33,1.96-3.48,2.63-4.65.16-.29.08-.86.13-.92.26-.27,3.27.83,3.06-2.25-.2-2.93-3.76-2.46-5.19-4.34,1.64-.17,3.71.23,5.29,0,.06,0,.62-.29.59-.35l-1.31-.82c.64-2-1.58-2.55-2.63-3.69-.24-.26-.42-.15-.29-.77,1.61-.2,2.32,1.91,3.68,2.78,1.59,1.01,4.05,1.02,4.98-.81,1.81-3.56-3.76-7.96-5.49-10.68-.21-1.29.53-2.47.3-3.8-.2-1.19-1.87-2.97-2.04-3.63-.12-.47.4-.73.45-1.13.03-.33-.49-1.15.12-1.28.23-.05,2.25,2.27,3.19.78.39-.62.03-3.46-.18-4.27-.27-1.05-1.62-2.59-2.23-3.64-1.06-1.84-1.63-2.81-3.13-4.39-.38-.4-2.05-1.76-2.13-1.88-.26-.43.1-.9.02-1.41-.21-1.29-1.46-1.69-1.02-3.59.04-.18,1.67-3.02,1.87-3.3.89-1.23,2.55-.89,4.03-1.61.41-.2,1.49-.93,1.81-1.24,1.45-1.41.67-2.39,3.51-1.07l.25-1.4c1.7.23,3.36-.34,2.7-2.37-.52-1.62-4.65-2.95-6.24-3.28-.32-.36,1.22-1.34,1.36-1.81.99-3.27-3.51-3.07-3.94-3.95l3.67-2.67c2.66-.55,2.41-2.51,1.97-4.73.35-.33,5.36,2.47,5.86-.6.45-2.8-1.91-2.75-3.14-4.35-.53-.69-.79-1.79-1.22-2.54-.52-.93-2.04-3-1.96-3.88.07-.86.84-1.63.17-2.67-.59-.59-2.21.49-2.06-.52,2.41.17,6.32.65,5.89-2.95-.27-2.24-4.41.35-4.01-1.63.02-.08.95-.5,1.3-.82.78-.7,1.37-1.6,1.3-2.69l-.96-.72c.06-.29,1.39-1,1.72-1.12.56-.21.96.15,1.33-.29-.86-.24-1.34-.74-1.57-1.39-.37-.1-.73-.22-1.09-.32.4-1.01,2.14-1.2,2.75-2.6.19-.43.39-.83.6-1.23.12-.06.24-.1.36-.13.77-.19,1.79.69,2.05.37.04-.05-.07-.75.35-1.23.97-1.14,3.54-2.19,4.82-3.48,1.11-1.12,2.08-2.61,3-4.2,3.65-1.74,7.42-3.48,10.44-7.16,2.47-3.01,3.74-7.27,5.23-11.05.8.03,1.71.13,2.41-.25-.49-1.17,1.14-1.35,1.87-2.06,2.29-2.22,3.77-5.36,5.76-7.82,2.7-3.35,5.62-5,8.07-9.07,4.85-8.07,7.48-20.48,6.74-30.22-.09-1.25-.72-2.52-.7-3.81.02-1.03,1.1-3.87,1.64-5.86-.4.09-.81.17-1.21.26l1.21-7.39c-.9-2.05-.49-5.3-3.19-5.97-.14-.19,1.15-2.97.22-4.58-.56-.98-1.92-.74-2.23-1.21-.2-.31-.15-1.13-.42-1.7-.28-.59-1.73-2.81-2.21-3.08-.89-.5-2.47-.11-3.34-.95-.44-1.82,2.06-2.31,2.52-3.01.2-.3.87-2.22.42-2.52l-4.17.51-2.36-2.98c-1.68,1.03-3.66,1.63-5.65,1.56,1.03-3.75-4-5.1-6.88-4.76l.26-3.97c-2.88.13-4.52,3.4-7.28,4.23-.84.25.27-.77-.38-1.2-6.01-.37-11.75,3.72-15.54,8.05-.82.21-1.04-.96-1.78-1.01-1.23-.08-2.07,1.11-2.73,1.27-.52.12-.82-.41-1.28-.49-2.52-.46-2.13,3.37-3.69,4.5l-.13-.79c-.34-.37-2.21.96-2.57,1.01-.53.08-1.1-1.22-2.27-.49-.66.41-2.42,5.98-3.31,7.34-.42.65-2.22,2.61-1.79.86.22-.88,1.76-2.96,2.23-4.12.37-.92,1.74-4.09-.31-3.5-1.49.43-6.04,9.18-8.12,10.94-1.84,1.56-2.16.32-3.17.79-1.37.63-4.12,4.1-5.04,4.5-.88.38-2.49.38-3.53.97-1.76.99-4.16,3.96-5.07,5.78-.47.94-1.18,3.63-1.69,4.13-.56.55-1.27.24-1.76.62-.38.29-.39,1.24-.9,1.5-.51.26-1-.28-1.58-.03-.55.24-2.32,3.09-3.2,3.47-.52.22-.99-.23-1.32-.03-.4.24-3.23,6.48-4.89,7.83-1,.81-1.72.14-2.92.25-.53.05-1.17.48-1.32.47-.5-.04-1.45-1.99-2.33-1.76-.14.04-.47.42-.9.91-.16.91-.32,1.83-.48,2.75-.04-.2-.05-.42,0-.68-.77.87-1.89,2.13-2.65,1.99-.35-1.89-1.03-4.89-3.53-4.46l.22,1.5-.57.37c-1.76-.41,1.85-6.94-.76-7.71-3.04-.89-3.85,5.31-4.17,7.24-.3.54-1.23-.81-1.34-1.01-.96-1.71,1.74-1.02,1.58-2.69,0,.01-.01.03-.02.04-.07-.62-.46-2.24-.62-2.97-.29-1.34-1.06-2.28-.78-3.81-1.45.33-3.62-.77-3.28-3.01.43-2.79.49-5.21.47-8.09-.03-5.44-.82-9.13-2.36-14.16-.85-2.79-.42-1.95-.49-4.57-.08-2.96-1.99-11.37-3.31-13.86-.6-1.12-1.63-1.46-2.12-2.59-.62-1.43-2.19-5.31-2.87-6.72-.41-.84-2.7-3.24-3.45-3.56-1.32-.56-1.22.33-1.99.58-1.54.5-2.2-.2-3.83,1.36-2.34,2.25-4.18,6.46-5.18,9.35-.13.39-.55.43-.76,1.31-.24,1.03.08,1.03.06,1.9-.03,1.17-2.55,6.24-3.06,7.68-.76,2.15-1.65,6.08-1.59,8.21.05,1.77-.35,4.5-.35,4.5-.44.71-.94,1.39-1.26,2.19-.42,1.01-.81,3.92-1.05,4.89-.25.98-.16,2.51-.52,3.4-.31.76-1.2.93-1.42,2.3-.44,2.75,1.32,2.5-.87,5.57-.39.54-1.14.77-1.36,1.51-.18.58.18,1.68.01,2.6-.09.48-.33.79-.57,1.1,0,0,0,.01,0,.02,0,.02-.02.04-.03.06,0,0,0,0-.01-.01-.03.04-.06.07-.09.11.02-.05.05-.09.07-.13-.05-.05-.1-.1-.15-.16-.69.98-2.37,2.7-3.21,2.56-.77-2.03-.58-5.92-2.96-6.94-2.21-.96-1.93.73-3.76.82-.07-1.19,1.61-1.52,1.41-2.82-.13-.13-3.04.37-3.64.35-.19,0-.51-.35-.93-.38-1.69-.1-2.09,1.56-2.68,2.74-.1.19-.07.72-.49.33-.17-.16-.92-2.89-1.14-3.45-.56-1.45-2.11-5.96-3.7-6.19-1.32-.18-2.04,1.99-2.8,2.82-1.91,2.12-4.68,2.72-7.42,2.68l-.45,2.95c-1.34-.21-1.74.94-2.99,1.36-3.01,1.01-4.65-1.02-5.41-3.65-.17-.6.11-1.68-1.12-1.71-1.19-.03-1.75,3.74-2.06,4.52-.59,1.5-2.09,2.54-3.52,1.87v-2.14c-.21-.12-.42-.29-.62-.5-1.57-1.67-1.28,1.22-1.7-.82-1.07-.37-1.54-2.41-2.19-5.44-.16-.75.86-1.56.87-2.08.02-.75-.75-1.5-.87-2.09-.16-.76.07-1.57-.05-2.18-.06-.33-.74-.33-.9-.98-.18-.73.07-1.66-.1-2.48-.13-.62-.81-1.24-.88-2.12-.07-.92.39-1.31.46-2.01.35-3.61-.42-3.53-1.28-6.2-1.58-4.92-2.06-10.73-3.98-15.95-.24-.66-.85-1.16-1.05-1.89-.34-1.28-1.28-2.91-1.76-4.38-.41-1.26-1.98-4.42-2.62-5.73-1.03-2.1-3.42-2.75-5.26-2.95-.61.39-.76,1.18-1.34,1.69-.67.6-1.51.59-2.07,1.21-2.88,3.25-4.4,9.85-5.92,14.03-.64,1.75-2.12,3.81-2.51,5.29-.22.84-.78,5.04-.82,5.96-.02.52-.66,4.14-1.1,5.82-.84,3.17-1.52,8.41-1.71,11.76-.07,1.26.24,6.09-.23,6.65-.22.27-.84.32-.91.46-.15.3.02,1.52-.06,2.1-.17,1.3-.25,2.94-1.3,3.36-1.4.57-2.45-.62-2.86,2.11-.44.58-2.51-.14-4.14-.23-.33.82-.62,1.65-.88,2.49-.27.03-.5.1-.69.21-.89.5-1.04,1.38-1.01,2.38-.47-.15-.98-.91-1.62-.71.26,1.06-.29,1.9-.46,2.8-.03.16-.01.5-.01.85-.05-.14-.1-.26-.13-.31-.03-.04-.5-.54-.73-.78-.12.37-.24.74-.35,1.11-2.69-3.47-5.96-7.3-7.11-11.44-1.04-3.74-1.61-11.35-4.39-14.14-.22-.22-.24-.37-.64-.28l.13,5.74c-1.14-.6-1.16-1.77-1.85-2.85-1.82-2.86-6.69-9.01-9.62-10.47-.41-.2-2.43-.97-2.73-.75-.54,1.02.33,1.99.91,2.83.25.36,1.54,1.31.5,1.32-5.22-3.93-10.5-7.69-16.14-11-2.79-1.64-5.86-3.43-8.78-4.79-1.49-.7-3.65-1.18-4.89-1.9-1.19-.69-1.76-2.1-3.46-3.06-3.22-1.82-12.81-4.99-15.8-2.22-1.24,1.15-.08,2.33-2.75,1.72-1.3-.3-2.5-1.52-3.98-1.15-.63.21-.77,1.31-.69,1.9.16,1.24,2.35,2.02.62,2.99-1.65.93-3.73-.69-4.8-1.92-.35-.41-1.02-2.12-1.69-1.96-1.96,3.65-3.75,7.03-4.49,11.17-.49,2.75-.14,10.13-4.78,6.57-.46,3.1,2.51,7.14.74,10.01-.51.83-1.57.92-1.53,1.84,2.98,10.35,5.18,21,8.43,31.27.66,2.07,2.5,5.67,2.8,7.38.03.15.07.43-.13.39-1.44-.92-3.09-4.37-4.55-4.84-3.28-1.06-1.81,3.48-1.18,5.1ZM418.32,320.9h.94s0,.47,0,.47c-.44.06-.81,0-.94-.47ZM414.33,319.25c.13-.13,3.11.93,3.46,1.12.28.15.39,0,.3.52-1.39.01-3.76.23-3.76-1.64ZM164.35,353.45l-.48,1.72-.92.02.71-2.11.7.37ZM158.02,307.38l1.4-.59c.31.3-.92,1.53-1.4.59ZM170.15,362.28c.69-.48,3.06-2.2,2.67-.16l-.25.47-4.69,2c-.31-.3,1.96-2.09,2.27-2.31ZM166,337.11c-.11.19-.6,1.16-.7.94-.08-.53.1-1,.7-.94ZM165.66,328.4c2.44.11,4.97.62,7.39.95-.35.94-1.18.24-1.53.23-1.87-.06-3.76,0-5.64,0-.31,0-1.28-.74-1.76-.71-.58-.61,1.27-.49,1.54-.48Z"/>
  </g>
  <g>
    <path class="cls-2" d="M3.04,11.7v-1.36h4.13v1.36H3.04Z"/>
    <path class="cls-2" d="M9.21,15.54v-1.52h2.53v-7.87h-2.06v-1.17c.54-.11,1.01-.23,1.42-.38.4-.14.77-.32,1.1-.52h1.36v9.94h2.24v1.52h-6.58Z"/>
    <path class="cls-2" d="M21.26,15.76c-.77,0-1.44-.23-1.99-.7-.56-.46-.99-1.14-1.29-2.03-.3-.89-.45-1.98-.45-3.27s.15-2.37.45-3.25c.3-.87.73-1.54,1.29-1.98.56-.45,1.22-.67,1.99-.67s1.42.22,1.97.67c.55.45.98,1.11,1.28,1.98.3.87.45,1.96.45,3.25s-.15,2.38-.45,3.27c-.3.89-.73,1.57-1.28,2.03-.55.46-1.21.7-1.97.7ZM21.26,14.29c.39,0,.73-.15,1.03-.45.3-.3.54-.78.7-1.44.17-.66.25-1.54.25-2.64s-.08-1.97-.25-2.62c-.17-.65-.4-1.11-.7-1.4-.3-.29-.65-.43-1.03-.43s-.73.14-1.03.43c-.3.29-.54.75-.71,1.4-.17.65-.26,1.52-.26,2.62s.09,1.98.26,2.64.41,1.14.71,1.44c.3.3.65.45,1.03.45Z"/>
  </g>
</svg>