<?xml version="1.0" encoding="UTF-8"?>
<svg id="a4" xmlns="http://www.w3.org/2000/svg" viewBox="0 0 600 500">
  <defs>
    <style>
      .a4 {
        fill: #5d4c39;
      }

      .cls-2 {
        fill: #c9caca;
      }
    </style>
  </defs>
  <path class="a4" d="M453.82,339.93c-.55-.77-2.14-.13-2.24-.72-.58-3.29,2.92-7.54,1.87-12.04-.23-.98-1.31-1.66-1.34-2.51-.04-1.16,1.22-2.69,1.41-3.93.76-5-1.55-11.22-3.77-15.63-1.88-3.74-4.47-7.45-7.85-10.13-1.16-.92-2.82-1.58-4.15-2.66-4.95-4.05-6.53-11.57-10.94-16.77-9-10.63-21.41-18.77-31.62-28.17-1.9-1.75-5.45-5.5-6.19-7.91-1.2-3.93-3.49-9.18-4.28-12.73-.94-4.25-.85-7.75-2.4-12.18-2.8-7.98-4.7-14.45-10.45-21.15-2.61-3.04-6.18-5.23-9.02-7.99-1.99-1.94-3.62-4.84-5.82-6.82-4.49-4.02-10.2-6.65-15.3-9.73-1.37-.83-.2-1.06-2.4-1.45.12-.15.4-.46.32-.74-.14-.48-1.02-.74-.95-1.39-.33-.22-.59-.5-.97-.73-.12-.07-.21-.13-.28-.19-.51-.37-.31-.53-.41-.91-.03-.1-.07-.21-.16-.35-.24-.38-1.15-.44-1.09-1.22-.48-.34-.64-.48-.97-.97-.43-.09-.73-.35-.96-.68-.47-.68-.65-1.68-.92-2.37-.02-.06-.04-.12-.07-.17-.11-.23-.63-.16-.47-.66-.08,0-.16,0-.24,0-.48,0-.9.04-1.32.1-.27-.17-.42-.48-.33-1.07.09.01.18.02.19,0,.03-.04,0-.35,0-.49-2.68.6-4.79.7-7.42-.23-2.23-.79-3.06-2.03-4.75-3.27-1.22-.9-1.12-.22-1.81-.13-.05,0-.1,0-.16,0-.04,0-.07,0-.11,0-.59-.12-1.15-.83-1.06-1.46-.08-.05-.15-.19-.24-.24-.32-.18-.5-.29-.61-.39-.1-.18-.21-.34-.32-.5-.06-.11-.13-.26-.28-.46-.58-.82-1.36-.62-2.23-.6-.07-.03-.13-.07-.2-.1v-1.12c-2.65.16-5.64-1.27-7.65-2.92-.38-.31-2.24-2.48-2.56-2.18-.04.13-.1.25-.17.36-.23.39-.58.75-.84,1.17-.43.7-.48,1.87-1.42,1.62-.08-.36.05-.62.14-.95.31-1.04,1.86-2.59,1.53-3.71-.33-1.13-1.42-1.15-2.31-.56,0,0,.02-.01.03-.02-.63.16-1.17.41-1.22.32-.07-.11,0-.58-.09-1.02,0-.08,0-.17-.02-.25-.16-.93-1.8-1.68-2.67-1.1-.18.21-.4.31-.65.64-.03.03-.05.05-.08.09-1.02,1.43-.81.79-1.5,1.17-.05.03-.09.05-.15.09-.03.02-.07.08-.11.15-.16.29-.43.95-1.03,1.44-.14.12-.29.23-.48.32-.72.36-1.42.5-2.1.49-.04,0-.09,0-.13,0-3.08-.15-5.63-3.64-6.65-6.34,0,0,0,.02-.02.03-.25-.89-.78-2.91-.83-3.28-.2-1.3.09-2.78-.02-4.11l-1.94,1.46c-.59-2.2.26-7.4-3.05-6.73-2.35.48-3.88,2.31-4.97,4.29-.98-.54-.5-2.62-1.5-2.89-1.82-.5-3.73,3.02-4.57,2.41l-.98-4.37c-2.08-.33-2.49,1.75-2.43,3.4-1.34.35-1.38-1.67-2.25-1.91-.69-.19-1.59.6-2.29.41-2.25-3.38-4.93-6.45-7.32-9.72-3.26-4.44-5.05-7.61-9.51-11.4-1.85-1.57-5.05-4.27-7.3-3.64-.26.07-.67-.05-.97,0,.05-.35-.44-5.57-.54-6.51-.16-1.57-.45-4.83-2.38-4.19.23-1.87.93-4.68.51-6.49-.06-.27-2.19-1.05-2.95-2-1.8-2.26-1.84-8.3-1.34-11.08.26-1.46,2.37-3.95,2.28-4.42-.25-1.21-3.54-2.48-4.7-2.65-1.34-.2-4.64.91-5.46-.09-.18-.22.15-1.45-1.19-1.47-3.01-.04-8.41,7.75-10.72,9.73-.71-1.24-.65-2.98-2.46-1.49-1.87,1.53-2.63,6.72-3.72,8.91-.35.71-1.76,2.02-1.83,2.3-2.84-.29-5.75-1.61-8.56-1.89-4.53-.45-9.96.92-14.53,1.41-4,.43-13.45.54-16.65,2.28-.63.34-2.74,2.94-3.05,3.06-.65.25-.56,1.39,0,1.46-.09.76-.59,2.17-.46,2.62.19.65,1.33.58,1.45,1.1.16.72-.3,1.96.07,2.51.13.19,3.55,2.64,3.82,2.74,1.27.48,2.98.42,4.46.89.48.15,6.95,2.21,5.72,3.27-4.16-.67-7.84,1.79-11.92,1.97-3.49.15-4.18-.9-8.02,1.17-3.43,1.85-1.32,2.58.24,4.66.43.57.57,1.36,1.02,1.89,1.79,2.09,6.7,3.06,9.43,3.69,1.02.24,5.8.59,5.84,1.44.01.22-1.65,2.98-1.96,3.87-2.44,6.91-3.06,10.73-3.92,17.96-.26,2.19-1.26,3.79-1.66,5.63-.6,2.77-1,8.21-2.12,10.43-.28.56-1.69.1-2.49.51-.61.3-.79,1.27-1.24,1.68-.9.81-3.19,2.19-3.52,3.29-.37,1.26,0,3.32-.09,4.77-.11,2-.54,4.59-.49,6.56h-2.43c.05-1.04-.48-2.31-.85-3.29-.23-.62.23-1.3-.84-1.08l-6.58,11.45c1.24,4.04.95,8.55,1.58,12.49.21,1.29,1.22,2.32,1.34,2.79.17.64-.14,1.72,0,2.43-1.71.06-4.42-4.63-5.58-4.37-.65.14-1.43,5.07-1.96,6.31-.89,2.12-4.38,7.38-4.61,9.24-.12.93.33,5.63.49,6.81-2.56,1.33-2.69-1.16-4.37-1.46-.09-.54-.21-2.14-.55-2.37-.34-.23-1.74-.04-2.37-.06-.32-.01-.65,0-.97,0-2.62.08-.97.18-.95,1.67,0,.29-.78.18-.97.63-.35.83-1.01,6.55-1.02,7.68-.01,1.65,1.81,3.53,1.95,5.39.15,1.91-1.36,4.01-1.42,5.83-.06,1.91,1.73,7.87,1.43,8.95-.28,1-1.26.52-.49,2.92-.62.17-2.16-.58-1.9.67.33,1.6,1.7,3.81,2.25,5.55.49,1.55,3.4,8.02-.77,6.72,1.44.45,2.71,5.39,3.43,6.65.5.87,3.17,4.23,2.82,4.7-.91.13-2.12.49-2.43,1.46,1.86-.17,4.99-.26,5.36,2.18.16,1.08-.4.63-1.08.86-1.69.57-3.48.71-5.14,1.21-.66.2-1.28-.17-1.07.86,1.91.69,4.76,5.08,6.16,5.5,2.09.62,4.36-.52,6.47-.39.62,2.81-1.45,1.96-3.28,2.81-.37.17-.93.08-.61.83.21.48,1.62,1.53,2.15,2.23,2.98,4.02,5.92,9.06,6.6,14.06,1.1.17,2.1-.43,3.15-.49,1.79-.11,4.32-.63,3.65,1.46-1.52.14-5.79.8-6.23,2.28-.85,2.88,2.08,4.01,2.87,6.44l4.33-1.91c.17.84-.43,1.21-.96,1.71-2.47,2.33-2.43.98-.02,4.38l.73.25,3.16-.51c.58,1.93-2.88,3.09-2.81,4.5.03.66.58,1.49.38,2.3l3.88-1.94-3.4,4.61c-.01.6,3.55-.44,3.41,1.46l-3.33,1.77-.1,3.53c1.72,1.03,3.55.88,5.37.29.17.17-.48,2.95-.74,3.39-.7,1.2-3.11.99-3.04,2.58.15,3.49,2.6,2.33,3.67,4.59.52,1.08.38,2.21.73,3.16.93,2.56,4.24,6.62,4.24,9.85v8.02c1.12.25,1.87-.64,2.78-.87,2.14-.56,1.29.29,1.87,1.31,1.39,2.45,4.3,1.2,4.59,1.51.16.17-.29,2.07.23,2.93.11.18,3.3,2.3,3.51,2.35,1,.26,2.57-.86,3.73-.77.93.07,1.81.9,2.96.83,1.05-.07,1.64-1.09,2.7-.97l-.02,1.92c-1.01.02-5.66,1.02-5.81,1.74-.13.59,5.84,8.67,6.24,10.3.21.99-.89,1.73.04,2.84.35.42,2.8,2.01,3.3,2.08,1.31.2,2.69-1,4.52-.16,1.75.81,2.52,4.94,4.39,5.86,1.02.5,2.7-1.86,4.4.42,1.33,1.78-.67,2.44-.52,4.16,3.27-.27,4.39,3.03,4.38,5.83,1.08.28,1.35-1.09,2.28-1.36,4.21-1.25,8.58,2.25,11.05,5.29,1.5,1.84,6.05,10.37,7.08,10.91,1.26.65,3.84,0,5.49.34.34.07,3.61,1.69,3.75,1.84.11.12.07.96.7,1.49.42.36,1.18.38,1.25.45.12.12.18,1.36,1,2.16.49.48,4.89,3.56,5.45,3.78.94.37,2.15.24,2.78.62.44.27.67,1.23,1.21,1.71,1.33,1.17,8.16,6.04,9.51,6.56,1.79.69,3.46-1.63,5.32-1.71.67.64-2.48,2.48-1.73,3.89.23.44,6.81,4.82,7.35,4.87,1.99.2,3.25-2.48,4.85-2.43.83.03,1.42.99,2.16,1.25,2.93,1.02,3.92-2.24,4.19-2.26,1.23-.13,2.06,1.35,3.41,1.49,4.44.46,7.58-7.49,11.12-9.75,2.97-1.9,7.13.85,5.07,4.58-.9,1.63-3.2,1.84-3.33,3.71,1.72-.75,4.84-.55,6.31-1.22,1-.46,4.03-4.46,5.59-4.13,1.94.41-.51,4.1-.23,4.37,1.6-.57,4.83.75,5.97.43,1.38-.39,2.37-3.61,4.24-2.63,2.48,1.3-.68,3.4-.43,4.76,1,5.35,4.85-.17,6.99-.12,1.35.03,2.22,2.32,5.61,1.23,2.02-.65,5.52-5.4,7.02-6.1.99-.46.65,1.37,1.18,2.21.19.3,1,1.06,1.31,1.12,1.16-.24,8.07-2.8,8.4-2.33.18.25-.04,1.3.48,1.7,2.39,1.86,4.44-4.37,5.61-5.65,1.76-1.93,5.28-2.89,6.8-5.36.8-1.3.47-2.55,2.47-3.37,1.37-.56.2,1.65.2,2.19-.02,2.45,1.69,1.84,3.11,2.19.43.11.29.88.65.96,1.29.31,2.9-.46,4.28-.51,3.6-.15,8.54-.43,11.93.02.75.1,2.06.33,2.92.49,1.43.26,4.49,1.47,5.63,1.45,2.14-.05.26-2.72.18-4.13-.06-1.02.23-2.83.63-3.75.86-1.96,4.83-2.82,4.28-5.44-.08-.38-1.35-.08-.99-1,.11-.27,3.87-4.02,4.13-4.13,1.57-.68-.15,2.29-.27,2.65-.68,2.11-1.86,8.56,1.98,7.36,2.27-.71,5.26-7.52,4.84-9.75-.16-.86-1.85-2.13-.19-2.64,3.6-1.1-.66,3.66,2.62,1.89-.61,2.92-1.3,5.71-.97,8.75,1.66.34,2.86-1.77,3.49-3.07,1.36-2.77,1.69-8.43,5.25-8.6-1.89,5.83,2.28,1.07,3.88-.74,2.21-2.5,3.2-4.61,4.78-7.37,1.26-2.19,3.16-4.08,3.02-6.71-.06-1.11-.94-1.91-.06-2.96,1.89-2.27,3.1.38,5.89-.44,1.42-.42,9.43-5.4,9.97-6.59.34-.75-.5-1.49-.05-2.41.45-.9,2.79-3.07,3.59-4.23,2.15-3.13,7.01-10.54,7.36-14.07.11-1.1-.44-1.65-.48-2.13-.11-1.55-.39-3.09-.49-4.37-.14-1.9,1.34-2.19,2.16-3.43,1.37-2.08,4.41-10.13,2.98-12.16ZM297.79,140.18c-.16.11-.32.21-.5.31.18-.1.35-.2.5-.31Z"/>
  <g>
    <path class="cls-2" d="M4.39,13.73v-3.46H1.23v-1.34h3.16v-3.47h1.39v3.47h3.17v1.34h-3.17v3.46h-1.39Z"/>
    <path class="cls-2" d="M14.02,15.76c-.77,0-1.44-.23-1.99-.7-.56-.46-.99-1.14-1.29-2.03-.3-.89-.45-1.98-.45-3.27s.15-2.37.45-3.25c.3-.88.73-1.54,1.29-1.98.56-.45,1.22-.67,1.99-.67s1.42.22,1.97.67c.55.45.98,1.11,1.28,1.98.3.88.45,1.96.45,3.25s-.15,2.38-.45,3.27c-.3.89-.73,1.57-1.28,2.03-.55.46-1.21.7-1.97.7ZM14.02,14.29c.39,0,.73-.15,1.03-.45.3-.3.54-.78.7-1.44.17-.66.25-1.54.25-2.64s-.08-1.97-.25-2.62c-.17-.65-.4-1.11-.7-1.4-.3-.29-.65-.43-1.03-.43s-.73.14-1.03.43c-.3.29-.54.75-.71,1.4s-.26,1.52-.26,2.62.09,1.98.26,2.64.41,1.14.71,1.44c.3.3.65.45,1.03.45Z"/>
    <path class="cls-2" d="M21.47,15.54c.05-1.03.14-1.99.27-2.86.13-.88.32-1.7.56-2.48.25-.78.56-1.54.94-2.28.38-.74.84-1.5,1.38-2.26h-5.39v-1.57h7.39v1.14c-.66.84-1.19,1.65-1.6,2.41-.41.76-.73,1.54-.97,2.34-.23.79-.41,1.64-.52,2.54s-.18,1.91-.23,3.03h-1.84Z"/>
  </g>
</svg>