<?xml version="1.0" encoding="UTF-8"?>
<svg id="a4" xmlns="http://www.w3.org/2000/svg" viewBox="0 0 600 500">
  <defs>
    <style>
      .a4 {
        fill: #5d4c39;
      }

      .cls-2 {
        fill: #c9caca;
      }
    </style>
  </defs>
  <g>
    <path class="a4" d="M464.09,208.28l.45.27c.05-.21,1.31-2.38,1.44-2.41l-.24-.48c-1.22.7-2.04.99-1.66,2.62Z"/>
    <path class="a4" d="M491.99,114.7c0-.34,0-.68-.01-1.02.02-.09.02-.19.03-.28.15-1.39-.87-2.58-1.96-3.35-.4-.28-.92-.19-.96-.23h-.8s-.16,0-.16,0v-.96c0-.68-.12-1.29-.33-1.86-.2-.57-.49-1.11-.8-1.62-1.06-1.72-2.5-3.25-2.67-5.46,0-.01-.05-.68-.05-.68-.32-.02-.7-.04-1.07-.04-.37,0-.73.02-1.03.11-.77.23-1.97,1.58-2.68,2.09-.1.07-.2.13-.28.16-.23.1-.43.16-.61.19-.18.03-.33.04-.47.02-.83-.1-1.05-.97-1.99-1.16-.17-.03-.33-.04-.48-.02-.46.05-.86.26-1.33.33-.22.03-.43.05-.63.06-1.14.05-2.17-.22-3.3-.34-.31-.03-.62-.06-.94-.05-1.14,0-2.29-.03-3.44-.03-1.15,0-2.3.03-3.41.16v-.04h0c-.87.18-1.99.24-2.93.55-.56.18-1.06.46-1.4.89-.16.02-.32-.02-.48,0-.58.06-.45.48-.48.48-.61.11-1.33-.1-2.07.09-1.09.28-2.47.8-3.46,1.35l.73-2.16c.09-.75.02-.84-.74-.74-1.81.25-2.66,2.38-4.55,2.41-.08-1.12-1.22-1.64-1-2.86-5.14-.84-11.8,4.43-14.04,8.79-.61,1.18-.94,3.12-1.58,4.19-.63,1.05-2.64,2.59-3.37,3.86l.24-3.37c-3.21.03-5.4,4.11-6.5,6.73-.96,2.28-1.37,5.34-2.71,7.4-2.32,3.57-3.3,11.7-5.53,16.39-.74,1.56-.41.82-1.06,1.55-.87,1-.76,2.54-2.54,2.79-.21.5-.33,1.35-.49,1.92h-.95s0,0,0,0c.37-2.29-.27-1.56-1.21-2.39-1.2-1.05-1.35-1.17-2.64-1.95-.03-.02-.46-.45-.48-.48-.28-.49-.33-2.14-1.23-2.39-1.15-.32-1.47.81-1.95.92-.91.22-2.16-1.93-2.12-2.86-1.42-.64-2.12,1.32-2.4,1.44-.23.1-1.03-.02-1.44,0-.47.03-.97.02-1.44,0-.1-3.08-.36-13.04-.44-16.09,0-.31.06-.7,0-.96l.43-.3c.03-.09.05-.19.06-.28.02-.19,0-.38,0-.57,0-.1,0-.19,0-.29h0c.09-2.22.37-4.1.96-6.26,0,0,.02,0,.05,0,.03,0,.07.01.12,0h0c.07-.01.14-.08.2-.19.02-.04.04-.06.06-.11l.05-1.15h0s0,0,0,0c2.84-4.68,4.05-9.1,4.95-13.97.15-.81.29-1.63.43-2.47.14-.84.27-1.69.41-2.57.1-.62.24-1.26.41-1.89.16-.64.34-1.28.51-1.93.48-1.84.87-3.71.54-5.58-.06-.33-.13-.66-.24-.98-.08-.23-.18-.43-.3-.6-.32-.46-.74-.77-1.04-1.16-.04-.05-.08-.09-.12-.14-.11-.17-.18-.37-.24-.58s-.12-.43-.22-.65c-.06-.15-.14-.31-.25-.46-.17-.24-.36-.43-.57-.58-.62-.45-1.31-.55-1.37-.61h0s-.01-.05-.02-.12c0-.19-.02-.57-.22-.83-.39-.49-.9-1-1.48-1.39-.58-.38-1.23-.63-1.87-.58h0c-.07,0-.19.04-.32.09-.88.3-3.01,1.35-4.64,2.2-.34.18-.66.35-.94.5-.42.22-.75.41-.94.52-.84.49-1.6,1.05-2.3,1.64-2.94,2.46-4.88,5.68-6.78,8.93-.21.37-.43.73-.64,1.1-.86,1.47-1.73,2.92-2.71,4.3-.32.45-.67.9-1.03,1.35-1.27,1.6-2.74,3.19-4.23,4.77-.88.94-1.77,1.87-2.62,2.81-.95,1.04-1.86,2.09-2.68,3.13-.35.44-1.22,1.69-1.26,2.15-.07.84.47,1.3.51,1.68.03.28.03.65,0,.94,0,0,0,.02,0,.02-.13-.02-.27.01-.42.05-.23.07-.46.17-.69.27-.22.09-.44.18-.61.18-.07,0-.13,0-.19-.03h0c-.15.13-.29.29-.42.47-.13.19-.24.4-.33.61-.18.44-.27.91-.21,1.32-.77.4-1.4,4.31-1.98,4.76-.04.03-.04.28,0,.66.04.38.1.9.18,1.47.05.38.1.79.16,1.19.08.61.15,1.22.2,1.76s.07.99.06,1.29c-.01.2-.05.33-.1.36-.09.06-.17.13-.23.21-.38.5-.26,1.41-.23,2.12,0,.12,0,.23,0,.34h0c-2.52-.03-.71-4.2-2.68-4.78-1.83-.54-1.52-4.52-2.24-4.39-.15.03-1.58-.04-2.36.03-.56.05-2-.09-2.13.04-.86.85.71,2.29-2.66,1.89-.63-.07-1.49-3-2.25-3-1.57,0-3.72,3.55-5.44,3.51-1.03-2.04-1.81-3.95-1.71-4.84-2.57-.15-2.05,5.87-2.6,5.75-.06-.01-2.1-7.18-2.85-6.94-.2.87-1,2.69-1.07,3.61-.59.08-.89-.07-1.03-.38,0-.3,0-.59.02-.87.03-.65.1-1.24.17-1.63.61-3.43,1.45-6.86,2.19-10.3.25-1.15.48-2.29.69-3.44h0s0,0,0,0c.38-2.08.47-2.96.48-4.37,0-.47,0-1,0-1.65,0-.29.11-.71.26-1.16.25-.75.6-1.61.69-2.22.64-4.31.73-8.56-.1-12.88-.17-.88-1.59-6.35-1.85-6.58-.04-.04-.13-.05-.25-.06-.23,0-.57.03-.89.01-.16,0-.31-.02-.44-.06-.25-.08-.43-.28-.65-.47-.22-.19-.47-.38-.86-.44-.21-.03-.42-.04-.64-.04-.22,0-.45.02-.68.03-.23.01-.46.03-.68.04-.22,0-.45,0-.66-.02-.04,0-.12-.37-.33-.4h0s0,0,0,0c-1.64-.26-2.93.23-4.49.63-.47.45-.96.89-1.45,1.31-1.49,1.27-3.05,2.48-4.32,3.99-.15.18-.32.37-.49.58-.69.82-1.54,1.84-2.44,2.94-.22.28-.45.56-.68.84-.69.85-1.38,1.74-2.05,2.62-.89,1.17-1.72,2.33-2.39,3.37-.5.78-.91,1.49-1.18,2.09-.89,1.97-1.43,4.29-2.41,6.26-.46.92-1.47,2.18-2.1,3.22-.21.35-.38.67-.47.94-.13.38-.22,1.18-.32,1.9-.1.68-.22,1.3-.41,1.46-.05.05-.14.06-.26.06-.12,0-.26-.02-.42-.02h0c-.06,0-.12,0-.19,0-.1,0-.21.02-.33.04-.1.02-.2.05-.3.09-.19.07-.39.18-.59.35-.08.06-.15.13-.23.21-.08.08-.15.16-.23.26-.08.1-.15.2-.23.32-1.44,2.15-2.15,5.31-2.95,8.17-.08.29-.16.57-.24.85-.41,1.39-.86,2.67-1.45,3.68-.17.28-.33.8-.51,1.47-.34,1.34-.7,3.3-1.04,5.17-.4,2.18-.79,4.26-1.14,5.11-.61.23-2.17-.89-2.41.24-.12.61,1.5,2.62,1.21,3.61l-3.61-.96h0c-.92-6.19-5.11-17.86-7.9-25.16-.2-.52-.39-1.02-.58-1.49-.18-.47-.36-.92-.52-1.34-.17-.42-.31-.82-.45-1.19-.14-.38-.26-.73-.39-1.08-.65-1.84-1.16-3.3-2.41-5.28-.16-.25-.31-.49-.49-.75-1.13-1.66-2.37-3.23-3.67-4.74-.65-.75-1.33-1.49-2.01-2.21-3.44-3.61-7.28-6.83-11.15-9.91-2.2-1.75-3.7-3.93-5.2-6.01-.9-1.25-1.79-2.46-2.84-3.53-.45-.46-1.59-.85-2.49-1.2-.3-.12-.57-.23-.78-.35-.09-.05-.04-.75-.96-.48v1.93s.96,0,.96,0c.08.3.25.71.45,1.16.3.68.66,1.43.91,2.02.03.06.06.13.08.19,0,0,0,0,0,0,0,0,0,0,0,0h-.48c-2.32-.59-4.75-3.17-7.42-2.37-.78.23-.63,1.22-.78,1.4-.45.54-6.84-3.94-8.82-3.31-.09.03-1.6.95-1.66,1.02-.25.26-.03.8-.09.85-.03.02-.07.03-.12.03-.08,0-.18-.01-.29-.01-.06,0-.12,0-.19.02-.01,0-.02,0-.04,0-.02,0-.03.01-.05.02-.02,0-.04.01-.06.02-.28.14-.47.57-.22,1.85-.4-.03-.79-.06-1.17-.07-2.67-.07-4.98.5-7.01,2.47h0c-.1-.1-2.47-.97-2.65-.98-2.94-.23-2.08,3.8-2.16,5.8-.73-.32-1.45-.62-2.17-.97-.5-.08-.11.84-.24.97-.15.14-1.43-.54-.9,1.13.07.23.41.29.42.32.26,1.56-.03,4.04,0,5.78.01.71-.08,1.42.05,2.12l.43.28c-.2,1.16-.26,2.59-.48,3.85-.05.27-.93,1.41-.48,2.41v3.37c-.46.95.46,2.22.48,2.41.08.61-.11,1.35,0,1.93.18,1,.47.91.48.96.1.39-.07,1,0,1.44-.55-.19-.39-1.49-1.92-.96-.21,2.67.89,5.25.49,7.96-.12.85-1.28,1.99-1.45,3.37-.17,1.39.6,3.21.43,3.77-.18.62-1.41,1.34-1.32,2.39.58,6.87,4.75,12.06,9,17.01.6,3.48.9,7.04,1.53,10.51.81,4.48,2.28,6.62,1.43,11.33-.05.29.04.65,0,.96-.04,0-.12.52-.69.5-1.34-.05-3.29-1.61-5.08-.98-.61,2.55,1.97,4.17,3.85,5.3v.48c-.34-.06-.68-.11-1.01-.12-1-.05-1.94.11-2.55.51-.61.4-.89,1.05-.57,1.96.11.3.28.64.54,1,.27.4,2.03,2.62,2.24,2.82.41.4,1.7.59,2.5.58.11,0,.22,0,.31-.02.73,2.46,1.46,4.63,1.93,7.22.05.29-.04.65,0,.96h0c-.29.02-.55.23-.77.54-.17.23-.31.52-.44.82-.22.5-.38,1.05-.51,1.44-.1.32-.17.54-.21.56-.19.13-1.12-.19-1.39.04-.36.3-2.05,7.33-2.46,8.63-.23.72-.44,2.28-.54,2.37-.15.13-.64-.12-.92.33-1.71,2.72-2.8,7.76-2.38,10.79l-.41.3c-.32,1.17-.38,2.37-.56,3.55-.09.6.06,1.31,0,1.93,0,.08-.39.28-.48,1.44-.15,2.06-.18,3.67-.48,5.78-.09.6.11,1.35,0,1.93-.06.3-.15.53-.26.74-.32.63-.71,1.03-.22,2.15h0s0,0,0,0l.19-.18.03-.03-.22.21c.03.06,0,.38-.08.82-.02.11-.04.23-.06.36-.04.25-.1.53-.15.83-.25,1.31-.58,2.86-.67,3.29-.02.08-.04.11-.07.14-.1.08-.24-.03-.17.23.03.11.11.29.24.59h0c.2.44-.06,1.16-.52,1.99-1.01,1.83-3,4.24-3.23,5.56-.24,1.41.05,2.83-.11,4.23-.47,4.2-2.61,9.33-7.22,10.11-2.07,4.1-4,8.22-5.78,12.39-1.19,2.78-2.31,5.58-3.35,8.42-1.57,4.26-2.98,8.59-4.21,13.03-.63,2.27-1.23,4.51-1.76,6.75-.7,2.99-1.27,6-1.57,9.08-.07.77-.13,1.55-.17,2.33-.02.32-.03.97-.04,1.82-.05,3.67-.04,11.02.28,11.47.21.29.62.39.99.58.09.05.18.1.27.16.25.18.45.45.48.92.02.3-.02.56-.1.81-.04.12-.09.24-.14.36-.21.46-.51.87-.66,1.35-.04.12-.07.24-.09.38-.03.22-.04.44-.04.66,0,.55.07,1.12.05,1.66,0,.11,0,.22-.01.33l.2.15.2.15.56,2.11h0c.1-.02.22-.03.34-.03.24,0,.49.02.74.04.12,0,.24,0,.36,0,.17.97.6,1.56.49,2.63-.02.24-.42,2.01-.49,2.18h0c.46.03.86-.25,1.28-.4.14-.05.28-.09.43-.1.64-.03.65.48.69.5.31.12.85-.1,1.23.46.35.51.17.97.22,1.47h.96s0,.72,0,.72v.24s.04.15.04.31c0,.31-.05.77-.06,1.15,0,.19,0,.36.02.47l-.05.68-.43.29c.18.45-1.12,3.41-1.51,4.03-.5.77-2.21,2.08-2.3,2.53-.02.1,0,.21.03.32.1.34.38.71.4,1.08.08,1.23-.17,2.7-.01,3.81.06.44.69.08,1.01.56.81,1.25,1.04,2.55.81,3.85-.14.78-.45,1.55-.89,2.3-.21.35-.47.63-.73.89-.78.77-1.58,1.33-1.1,3,.03.1.07.19.11.27.23.4.64.5,1.09.48.82-.04,1.78-.51,2.06-.5.03,0,.05,0,.07.02-.17.58-.3,1.15-.41,1.73-.32,1.73-.43,3.48-.56,5.24-.04.58-.59,1.27-.31,1.74.05.08.13.16.24.23.17.1.42.18.78.23,1.82.25,1.93-.91,3.06-1.33.16-.06.34-.1.56-.13,0,.08,0,.15,0,.23,0,.08,0,.16,0,.24-.05.98-.25,2.1.64,2.04.15-.01.33-.05.54-.14.17-.06.36-.24.58-.49.22-.24.45-.55.7-.87.25-.32.5-.65.75-.93.17-.19.34-.36.5-.49.16-.13.32-.23.48-.28.23-.07.44-.02.63.2.04.05.2.51.37,1.08.29.95.63,2.19.59,2.29,0,.02-.24-.05-.38.16-.05.07-.08.17-.1.32-.04.39-.01.8.01,1.22.01.21.02.41.02.61,0,.2,0,.39-.04.58,0,0,0,0-.02,0-.01,0-.03,0-.04,0-.11,0-.33.02-.42.48-.09.43.08,1,0,1.44-.07.38-.11.62-.13.79-.01.08-.02.15-.02.2,0,.11,0,.17.02.25s.05.18.08.35c.02.09.03.2.05.33.03.26.04.54.04.82,0,.84-.11,1.73-.04,2.55.11.03.22.05.32.05.67-.02.94-.83,1.61-1.01h0c.85-.22,2.39-.22,3.37-.48-.21,3.05.36,11.14,1.05,14.11.11.47.23.91.37,1.32.43,1.23,1.07,2.18,2.36,2.75h0s0,0,0,0c.03-.36.11-1.89.3-3.33.19-1.44.49-2.8.96-2.82-1.04.04,1.43,6.02,2.75,6.64h0s0,0,0,0c.28-.99.07-2.62-.1-4.29-.05-.48-.1-.95-.14-1.42-.12-1.63-.08-3.11.63-3.82.86-.86,1.33,1.27,1.44,1.93.07.45-.09,1.02,0,1.44.3,1.45.95,3.12,1.45,4.57.4,1.15.73.96,1.44,1.69-.01,0-.02.06-.03.12-.01.07-.02.15-.03.27-.01.18-.02.42-.02.67,0,0,0,.01,0,.02-.01.95.03,2.2.11,2.27.1.09,1.34.46,1.89.48.08,0,.14,0,.19-.01,1.46-.42,2.97-4.25,3.19-5.74.18-.03.32-.04.44-.05.83-.04.38.42.52,1.18.05.28.28.37.51.38.11,0,.22,0,.31-.02.08-.02.14-.04.15-.05.12-.16.41-1.2.86-1.79.33-.44.5-.65.8-.81.18-.1.41-.18.75-.29.16.18,2.44-.72,2.89,1.93.06.38.04,1.04,0,1.44-.21,2.3-1.58,3.55-1.44,6.26.02.32-.01.64,0,.96h0c.32.02.64,0,.96,0s.65-.02.96,0h0c.24.02.48,0,.72,0,.12,0,.24,0,.36,0s.24-.01.36,0c.03,0,0,.09.1.2.02.03.06.05.1.08.09.05.22.11.41.15.1.02.21.04.35.06.93.11,1.65,0,2.32-.17.89-.23,1.67-.58,2.66-.73.25-.04.51-.06.79-.07.32,0,.64,0,.96,0,0,0,.03.01.05.01.05,0,.14,0,.24,0,.25,0,.58.06.66.47.13.05.25.07.37.08,1.68.11,2.75-3.32,3.94-3.47.09-.01.17,0,.26.02.18.05.32.57.46,1.33.1.57.2,1.29.31,2.06.32,2.31.7,5.09,1.45,5.95,1.75,2.02,4.05,2.38,6.33,2.58.35.03.7.06,1.05.09.17.01.35.03.52.04.16.01.34.04.56.06.85.11,2.08.31,3.17.51.27.05.53.1.78.16.49.1.91.2,1.2.29.2.06.38.19.57.36.12.11.25.24.37.38.06.07.12.14.18.21.37.43.74.9,1.16,1.17.28.18.57.27.9.2l.26-.95c.08-.03.17-.04.25-.03.08,0,.17.03.25.07.5.21.97.86,1.18.94.05.02.12.03.19.03.15,0,.34-.02.52-.03.09,0,.17,0,.25,0,.33.03.65.04.96.04,4.77.03,8.77-2.6,13.25-3.9.54-.16-.57-1.07-.26-1.43.87.69,1.64.92,2.35.95.99.04,1.85-.31,2.66-.29.11,0,.23.01.34.03.34.06.67.21,1,.51.45.4.77.91,1.01,1.47,1.04,2.43.59,5.95,2.96,7.42.01,0,.03.02.04.02.07.02.15.01.23-.03.23-.12.46-.51.68-1.07.15-.37.29-.81.43-1.3.21-.73.4-1.55.57-2.38.17-.82.32-1.64.43-2.34.15-.94.24-1.69.25-2.01,0,.22,0,.44.02.66.04.43.12.86.25,1.27.13.41.3.8.51,1.17.32.55.75,1.06,1.26,1.49.01.01.03.02.04.03h0s0,0,0,0c.95-1.8.99-3.78,1.77-5.7,1.1,1.7,2.93,4.72,4.88,5.88.66.39,3.24.82,3.35.95.18.05.33.06.46.04.89-.11.61-1.59.51-2.22-.16-1.05-1.61-1.87-1.45-3.12.02-.02.08-.03.16-.02s.19.03.31.06c.37.09.89.28,1.36.46.16.06.31.12.45.18.28.12.5.22.61.28,1.59.88.83,2.23.96,3.85h-.96s0,0,0,0c.01.32,0,.64,0,.96,0,.03.36.09.42.31.15.62-.42,1.71-.38,2.44h0c2.22.09,5.11-1.95,4.57-4.87.53,2.85,3.01,4.24,5.55,4.21.36,0,.73-.04,1.09-.1-.75-2.22-.69-7.75,2.72-7.69.49,0,1.04.13,1.67.39.21.09,1.11,1.95,1.48,2.41,1.14,1.39,2.73,2.61,4.47,3.41.35.16.7.3,1.06.43.71.25,1.44.42,2.16.5.17.02.35.03.52.04.18,0,.35.01.53.02,1.07.01,2.21-.1,3.31-.11,1.29-.01,2.53.11,3.6.73.15.09.3.19.45.29.24-.02.48,0,.72,0,.24.01.48.02.72,0-.02-.1-.01-.16-.02-.24-.05-.56.12-.74.41-.76.25-.02.59.05.93.06.11,0,.23,0,.34-.03,1.84-.36,5.67-.03,6.7-1.87,1.06-1.89.47-5.68.31-7.82.57.23.9.51,1.12.84.36.56.43,1.26.8,2.12.14.32.31.66.48.96,2.32,2.32,4.63,4.28,7.31,5.93.38.24.75.49,1.15.71h0c.05-.03.1-.08.15-.11.49-.34.85-.79,1.11-1.32.04-.08.09-.16.12-.25.07-.19-.04-1.87-.22-3.97-.08-.95-.18-1.99-.28-3.01.03.02.06.03.1.05.05.02.11.04.19.05h0s0,0,0,0c.06-.29-.09-.74,0-.96h-.37c-.03-.3-.06-.59-.09-.87s-.06-.56-.09-.83c-.16-1.48-.3-2.66-.37-3.13,0-.04-.01-.1-.02-.13,1.35.16,2.42.91,3.44,1.74.58.48,1.15.98,1.74,1.43.73.55,1.51,1.01,2.39,1.2.35.07.7.12,1.02.13,2.3.1,4.05-1.12,6.41-1.92,2.38-.81,5.98-.69,8.49-1.69.36-.14.7-.31,1-.5.28-.18.84-.07,1.47.14,1.05.35,2.3.98,2.77,1.1h0c-.03-.23-.04-.46-.05-.69-.1-3.46,1.91-7,5.27-8.41,0,0,0,0,0,0-.13.05-1.58.91-1.65.98-.27.26-.28,1.05-.57,1.35,1.49-.66,3.13,1.62,4.03,1.41.31-.07.64-.64,1.12-.83.91-.36,4.19-.92,4.42-1.11.09-.07.56-1.55.53-1.87-.16-.04-.3-.06-.41-.06,0,0,0,0,0,0,.11,0,.24.02.41.06h0c-.01-.14-.06-.29-.12-.43-.06-.15-.15-.29-.25-.44-.6-.87-1.69-1.73-1.55-2.26.68-.89,1.88-.96,2.67-1.67.88-.8,1.45-2.2,2.3-3.29.37-.48.8-.9,1.34-1.19.4-.21.86-.34,1.4-.36.05-.29-.01-.58-.14-.87-.09-.2-.2-.39-.33-.59-.74-1.08-2.02-2.16-1.88-3.04.08-.5.41-.94.79-1.35s.81-.77,1.11-1.12c.49-.58.38-1.35,1-1.32.21,0,.5.11.91.33,1.1.59,1.89,2.83,3.5,2.72.11,0,.22-.03.33-.06.07-1.18-.12-2.42.01-3.6.02-.14.04-.3.08-.48.03-.17.08-.36.12-.55.28-1.15.74-2.56.76-3.33,0-.1-.01-.21-.04-.31-.03-.1-.06-.2-.11-.3-.18-.4-.5-.79-.69-1.19-.09-.2-.16-.4-.16-.61,0-.32.11-.56.25-.78.44-.65,1.41-.92,2.31-.96.4-.02.78,0,1.09.05.78.12,1.18.9,1.68.99.07.01.15,0,.22-.01l2.42-2.89-.24,5.3c.31.13.6.18.88.15.56-.05,1.07-.38,1.53-.83.12-.11.23-.23.34-.36.99-1.13,1.76-2.66,2.36-2.78.41-.08.92.41,1.4.43.36.02.69.03,1.01.02,2.18-.03,3.23-.68,3.56-3.38.34.01.65.13.94.3.29.17.57.38.87.57s.59.38.92.5.7.16,1.12.07c.03-.17.04-.34.04-.5,0-.41-.09-.79-.2-1.2-.02-.08-.04-.16-.06-.24-1.14-4.53-4.14-6.56-6.13-10.24-.09-.16-.23-.48-.41-.9-.06-.14-.12-.29-.19-.45-.72-1.74-1.76-4.48-1.74-5.13,0-.06.01-.1.03-.12.12-.04.22-.05.32-.05.49,0,.77.46,1.05.75.11.12.23.21.36.24.08.02.16.02.23.01.51-.07.77-.75,1.22-.89.23-.07.46-.11.67-.1,1.3.02,2.31,1.27,3.32,2.09.08.07.17.13.25.2.08.06.17.12.26.17h0s0,0,0,0c.11-1.23-.71-2.1-.96-3.17-.08-.36-.1-.74,0-1.16l2.89,1.44h0s0,0,0,0c.63-1.71.51-3.49.48-5.3.09-.02.18-.03.27-.03.94,0,1.38,1.16,1.86,1.87.04.06.09.13.13.18.09.11.18.2.28.27.05.03.1.05.15.07.17.05.36.07.54.07.38,0,.78-.05,1.17-.04.2,0,.39.03.58.08.32.09,1.64,1.25,2.1,1.39.06.02.11.02.14-.01.16-1.51,1.34-3.55.91-5-.06-.19-.43-.63-.9-1.15-.31-.35-.67-.74-1.01-1.11s-.65-.73-.88-1.03c-.12-.15-.21-.28-.28-.39-1.45-2.43-.18-5.09-1.22-7.69.1-.02.2-.04.28-.04.58-.03.74.41,1.16.76.54.45,1.45,1.25,2.23,1.99.16.15.31.29.45.43.28.27.52.52.7.72h0c.06.07-.05.61.22.97.93,1.25,3.86.77,4.11-.25.16-.66-1.87-3.09-2.42-3.84-.5-.68-.28-1.47-1.43-1.21-.17-1.46-1.68-2.8-.73-4.37.19-.31.71-.4.73-.45,1.47-.07,3.32,1.19,4.34,2.15,1.03.97.67,2.1,2.39,1.7.28-3.18-1.07-6.42-2.68-9.12-.42-.7-.65-1.74-1.65-1.48.07-.32-.03-.73,0-1.16,0,0,0,0,0-.01,0-.14.03-.29.08-.43.1-.3.34-.64.61-1.02.41-.56.89-1.2,1.1-1.83.02-.07.05-.14.07-.21.08-.35.13-.71.16-1.09s.04-.76.04-1.16c-.04-2.38-.71-5.04-1.31-7.08-.42-1.46-5.3-14.07-.67-14.46.31-.03.66,0,1.06.09.67.15,1.17.59,1.61,1.14.26.33.5.71.74,1.09.64,1.02,1.26,2.08,2.3,2.52h0s0,0,0,0c-.05-.27-.09-.54-.14-.8-.24-1.34-.4-2.68-.4-4.04,0-.54.02-1.09.07-1.64,0-.07.02-.15.03-.25.03-.19.08-.42.14-.68.39-1.68,1.28-4.57,1.23-4.81-.08-.38-.97-1.02-1.45-1.54-.07-.08-.13-.15-.18-.22-.84-1.18-1.48-2.35-1.95-3.56-.79-2.01-1.14-4.11-1.2-6.53.13.01.27.02.4.02.97,0,2.1-.26,2.73-.98.24-.28,1.24-3.15,1.59-4.45.03-.1.05-.19.07-.27.04-.16.06-.28.05-.33,0-.08-.02-.16-.05-.24-.44-1.19-3.31-2.28-3.77-4.65-.28-1.43,1.78-2.13,1.9-3.79.05-.68-.87-3.34-1.22-4.09-.24-.52-1.05-1.73-1.65-2.52-.1-.13-.19-.25-.28-.36-.09-.1-.16-.19-.23-.26-.14-.14-.31-.27-.49-.39-.56-.35-1.23-.63-1.45-1.04-.07-.14-.1-.26-.08-.35.05-.33.59-.4,1.18-.41.34,0,.69.02.98.02.22,0,.4,0,.51-.04,1.62-.48,1.08-2.32,1.34-3.48.31-1.39,1.92-2.66-.07-4.41-.35-.3-5.42-2.2-4.33-3.13.02-.02.06-.03.1-.04.14-.02.37,0,.66.06.19.04.41.09.64.15.81.21,1.8.51,2.49.68.3.07.54.12.68.12h0c.19,0,.39-.02.59-.05.4-.07.83-.2,1.25-.37,1.06-.43,2.11-1.1,2.84-1.62-.27-1.35-.81-2.97-1.7-4.07,1.45-.4,3.43-.69,4.73-1.56,2.56-1.75,1.1-3.27,1.91-4.86.62-1.22,3.14-2.32,3.54-4.16.2-.92.12-3.86-.4-4.5-.04-.05-.11-.08-.2-.09-.6-.07-2.08.78-2.21,1.05-.26.55-.24,1.02-.73,1.05-.16.01-.38-.03-.68-.13-.31-2.9,1.85-4.08,2.31-6.25.03-.14.05-.29.07-.45,0,0,0-.01,0-.03,0-.1.03-.39.04-.55,0-.06,0-.11,0-.11l.43-.28c-.02-.06-.03-.13-.03-.21,0-.19.05-.41.04-.6,0-.05,0-.11-.01-.16,0-.02-.14-.03-.25-.11-.06-.04-.11-.1-.14-.18-.03-.08-.04-.19-.02-.33.06-.32.17-.64.3-.96.4-.96,1-1.93,1.15-2.93l.3-.23.1-.08c0-.08,0-.16,0-.24,0-.16,0-.32,0-.48,0-.08,0-.16,0-.24,0-.09,0-.18,0-.27-.02-.45-.03-.91.06-1.36l.43-.29c-.08-.44.06-.99,0-1.44-.02-.16,0-.32,0-.48h-.96c-.2.49-1.31,1.77-1.71,1.9-.09.03-.17.05-.25.07-.08.02-.16.04-.24.05-.08.01-.15.01-.22.01-.34-.02-.56-.22-.46-.83.17-1.11,1.94-1.98,2.89-2.17l.38-.39.1-.1c.01-.08.03-.17.06-.26.07-.27.17-.58.31-.9.54-1.29,1.53-2.77,2.52-2.69,1.33.1,10.8-16.15,10.59-18.72,0-.03,0-.04,0-.06h0c-.17,0-.32,0-.46,0-2.08-.02-.75-.87.46-1.93.48-.42,1.13-.79,1.48-1.19.45-.51.4-1.18.45-1.22l-.48-2.89c.07-.02.16-.02.25-.02.18,0,.37.04.52.05.08,0,.14,0,.19-.03,1.57-.72,7.89-10.41,9.98-15.01.08-.18.16-.36.23-.53.14-.33.25-.63.33-.88.15-.51.17-.84.02-.94-.02-.02-.06-.04-.1-.07-.04-.03-.09-.06-.13-.09-.09-.06-.16-.11-.16-.11l-.02-.23-.03-.45c-.01-.19-.16-.26-.39-.26-.85.01-2.84,1.07-3.57,1.53-.13.08-.22.15-.26.18.14-.81.31-1.62.5-2.42.1-.4.2-.8.3-1.21,1.38-5.22,3.5-10.37,3.98-15.82,0,0,.23-.17.34-.26.04-.03.06-.05.06-.05-.09-.68,0-1.44.02-2.17,0-.24,0-.48-.02-.72l-.42-.29-.02-.19-.05-.48c-.35-.55-.54-.4-.48-1.44.03-.56.18-.98.48-1.44-.32-.95.9-3.19,1.01-4.22.05-.42.14-1.22.29-2.15.31-2.04.85-4.67,1.59-5.19-.03-.15-.03-.33-.02-.52,0-.27.03-.55.02-.81,0-.04,0-.08,0-.12-.04-.67-.05-1.35-.05-2.04,0-1.71.09-3.43.07-5.13ZM246.11,78.59s.1.05.16.08h0c-.06-.03-.12-.06-.16-.08,0,0,0,0,0,0ZM208.72,229.26h0s.06,0,.06,0h-.06s0,0,0,0h0ZM398.42,406.91h0s.11-.02.17-.03c0,0,0,0,0,0-.06,0-.13.01-.17.03Z"/>
  </g>
  <g>
    <path class="cls-2" d="M3.04,11.7v-1.36h4.13v1.36H3.04Z"/>
    <path class="cls-2" d="M12.35,15.76c-.77,0-1.44-.23-1.99-.7-.56-.46-.99-1.14-1.29-2.03-.3-.89-.45-1.98-.45-3.27s.15-2.37.45-3.25c.3-.87.73-1.54,1.29-1.98.56-.45,1.22-.67,1.99-.67s1.42.22,1.97.67c.55.45.98,1.11,1.28,1.98.3.87.45,1.96.45,3.25s-.15,2.38-.45,3.27c-.3.89-.73,1.57-1.28,2.03-.55.46-1.21.7-1.97.7ZM12.35,14.29c.39,0,.73-.15,1.03-.45.3-.3.54-.78.7-1.44.17-.66.25-1.54.25-2.64s-.08-1.97-.25-2.62c-.17-.65-.4-1.11-.7-1.4-.3-.29-.65-.43-1.03-.43s-.73.14-1.03.43c-.3.29-.54.75-.71,1.4-.17.65-.26,1.52-.26,2.62s.09,1.98.26,2.64.41,1.14.71,1.44c.3.3.65.45,1.03.45Z"/>
    <path class="cls-2" d="M20.54,15.76c-.66,0-1.22-.13-1.7-.38-.47-.25-.87-.55-1.2-.89l.98-1.15c.21.27.48.48.81.64s.66.24,1.01.24c.5,0,.96-.15,1.38-.45.42-.3.75-.8,1-1.5.25-.7.38-1.65.38-2.85,0-.95-.09-1.73-.28-2.34-.19-.61-.45-1.07-.79-1.36-.34-.29-.74-.44-1.21-.44-.33,0-.64.09-.91.27-.27.18-.48.44-.64.78-.16.34-.23.76-.23,1.25s.07.87.21,1.2c.14.33.35.58.64.75.29.17.63.26,1.04.26.33,0,.7-.12,1.09-.35s.76-.62,1.1-1.17l.08,1.36c-.22.31-.48.58-.77.8-.3.22-.6.39-.91.51-.31.12-.61.18-.91.18-.65,0-1.21-.13-1.7-.39-.49-.26-.87-.65-1.14-1.18s-.41-1.18-.41-1.97.16-1.41.48-1.97c.32-.55.74-.99,1.26-1.3.52-.31,1.09-.46,1.7-.46.55,0,1.07.11,1.55.34.49.22.91.57,1.27,1.03.36.46.64,1.04.85,1.74.21.69.31,1.51.31,2.46,0,1.12-.12,2.08-.35,2.89-.23.81-.56,1.46-.97,1.97-.41.51-.88.88-1.39,1.12-.52.24-1.05.36-1.62.36Z"/>
  </g>
</svg>