<?xml version="1.0" encoding="UTF-8"?>
<svg id="a4" xmlns="http://www.w3.org/2000/svg" viewBox="0 0 600 500">
  <defs>
    <style>
      .a4 {
        fill: #5d4c39;
      }

      .cls-2 {
        fill: #c9caca;
      }
    </style>
  </defs>
  <path class="a4" d="M196.35,77.48c-.79-.04-1.6,0-2.4,0-.22-.94-1.07-1.07-1.92-.96-1.14-2.98-.49-6.24-1.95-9.08l-4.49-.49-.53-1.01c-2.82-.44-3.58,1.38-5.97,1.94-.24-1.14-.68-1.8-.41-3.04.24-1.06,2.5-3.31,2.32-3.91-.33-1.14-2.64-.54-2.86-.75-.31-.3-1.15-3.97-1.46-4.77.04-.03-.04-.58.24-.94,1.26-1.63,3.21-3.26,3.6-5.3h-1.92c-1.54,1.27-3.48,2.11-5.05,3.35-.82.65-2.18,2.56-2.87,2.89-1.25.59-.25-2.1-1.44-2.4-2.99.72-4.09,4.1-5.03,6.71-.92.05-.23-1.09-.72-1.92-.38-.64-.55-.51-.97,0-1.73,2.12-2.33,6.98-3.34,9.61-.46,1.19-1.46,2.1-1.7,3.34l-.95-3.61c-.04-3.3-.49-7.29-1.55-10.44-.18-.54-1.53-3.6-2.3-2.74l-.95,5.52c.61,5.72-2.21,10.3-2.88,15.83-.61,5.05-1.02,10.86-.5,15.83.21,1.94-.92,4.37-1.32,6.34-1.6,7.93-3.1,17.75-2.53,25.81.58,8.19,4.58,15.34,6.22,23.21-.26.08-.69-.05-.85.07-.27.2.72,6.37.94,6.62.12.12.61.08.88.3,2.33,1.97,3.74,6.77,4.7,9.71.18.55,1.03,1.81.12,2.04-.33-.43-2.01-1.35-2.64-1.44-3.61-.49-4.88,2.31-4.55,5.51.14,1.36,1.41,1.87-.73,2.64l-.47-2.41-1.2-.95c.15,1.84-1.73,3.65-1.92,5.04-.23,1.71-.12,4.92-.02,6.74.07,1.35,1.45,2.93-.94,3.1.27-1.38-.2-6.55-2.42-5.05-2.17,1.46-1.07,9.51-1.42,12.01-.24,1.71-1.93,3.26-1.44,5.52-.63.36-.29,1.53-1.44.72-1.26-.88.61-3.77-1.68-3.12-.88.25-1.35,3.41-1.21,4.31-.3.09-.73-.07-.95,0-.43.16-.43.45-.48.48-.93.61-1.3.7-1.44,1.92-.36,3.16,2.4,5.23,2.42,6.47.02,1.21-.9.99-1.46,1.21-.31-1.76-1.76-5.7-2.4-7.67-.05-.17.04-.42-.06-.67-.11-.27-.38-.24-.42-.28l-.48-.48c-.1-.06-.32.04-.48,0h-.48c-.17.04-.39-.06-.48,0l-.48.48c-.45.72-.42,1.14-.48,1.92-.1,1.26.05,2.57,0,3.84-.01.32.05.67,0,.96l.4.3c-.04,1.8,1.27,3.35,1.51,4.97.04.29,0,.65,0,.96-.46-.05-1,.07-1.44,0-1.12-.19-2.11-.75-3.34-.46-.85,2-.52,3.33.21,5.26.3.8,2.1,4.08,2.65,4.31.52,1.44.5,1.57,0,2.88-.46,1.19-.25,1.47-.48,2.4l.67.05.29.43c.28.04.45.19.48.48-.22.05-1.25.39-1.44.48-.9.43-1.38,2.16-1.45,3.14-.03.37,1,4.14,1.21,4.54.24.46,1.08.89,1.44,1.44.93,1.43,2.58,3.44.74,4.56-.92.56-1.33-.18-1.7-.19-.7-.02-1.49,4.79-1.78,5.81-.28.98-1.49,3.25-1.3,3.92,1.09,1.75,3.16.9,4.49,1.28,1.19.34.6,2.42.84,3.48.58,2.66,4.72,8.3,6.42,10.85.26.4.8.68.95.97.54,1.04.09,2.67.23,3.85-.36.38-3.64-2-5.53-.49-.71.56-.91,1.24-.65,2.11.56,1.9,5.18,4.32,5.64,5.88.47,1.6-.35,2.86-.44,4.24-.1,1.66.14,3.37,0,5.03-2.54.88-9.4,1.99-9.12,5.54.1,1.26,2.09,2.06,3.16,2.17,1.17.11,6.52-1.41,6.94-.97.11.91-.15,2.02,0,2.88.11.6.47.45.48.48.16.45.13.97.48,1.44,1.29,1.74,2.46.44,3.84-.48.61.56,2.17.72,2.88,2.4.48,1.14,1.02,1.21,1.35,2.73l1.53,2.07c.07.27-.05.66,0,.96l-.4.34c-.17.52-.07,1.05-.08,1.57,0,.45-.07,1.05,0,1.44.22,1.18,2.68.34,3.36,1.44.01.16,0,.32,0,.48-1.53.9-3.22,2.78-.48,2.4-.05.4-.05,1.04,0,1.44.18,1.39,1.07,1.67,1.93,2.63.54.6.54,1.41,1.43,1.69.15.05.33-.04.48,0l1.44.96-.48,1.92c2.04.03,3.72,2.58,5.76,2.88-.13.88.09,1.96,0,2.88-.14.05-.33-.04-.48,0-.6.18-.45.46-.48.48-.49.3-.97.63-1.44.96-.33.23-.45.45-.48.48-.44.32-1.03.63-1.44.96-.23.19-.36.38-.48.48-1.1.93-2.32,1.88-3.36,2.88-.06.06-.3.01-.42.28-.1.23-.01.48-.06.68-.04.16.06.44,0,.48-.16.1-1.42-.29-.96.72.78,1.69,5.59-.39,7.45-.26,2.11.15,4.28,1.06,6.24,1.45.47.09,1.59-.07,1.66.01.06.07-.15.61.08.85.25.28,3.32,1.9,4.25,2.73.66.58,1.16.82.47,1.69-1.85.82-3.16,1.54-4.94,2.49-1.7.91-4.98,1.51-5.16,3.99-.21,2.89,2.62,2.67,4.5,3.19.58.16,1.06.68,1.6.8,1.01.23,3.65-.35,4,.8.28.91-3.08,2.55-2.9,4.78.11,1.44,1.79,2.58,3.15,2.67,1.21.09,2.38-.98,3.58-.98.26,1.12-1.16,1.46-1.38,2.21-.37,1.27.5,2.32.4,2.78-.16.75-2.41,1.41-2.81,1.77-.2.18.03,1.39-.04,1.87,1.84.3,3.29-1.21,5.04-1.43,1.47-.19,3.27.04,4.81.01.6-.01,1.19-.38,1.43-.37.87.05,3.71,3.23,5.49,2.28.09.29-.08.74,0,.95,2.47,1.55,4.44-.9,6.38-2.03.48-.28,1.05-.24,1.29-.37.85.11-.28,1.51-.46,1.7-.78.81-2.04.97-2.33,1.27-.16.17-.16.59-.34.86-.26.38-.69.45-.71.49-.11.26.11,1.05-.08,1.58-.33.93-1.11,1.61-.88,2.73.37-.08.71-.12,1.03-.14-.32.02-.66.06-1.03.14.13.63,5.2,1.62,6.1,2.29.51.8,2.19.93,2.46,1.16.4.33-.55.75,1.03.86.13-1.51-2.32-1.81-3.22-2.29-.48-.25-.91-.52-1.33-.78.42.26.85.53,1.33.78.91.48,3.36.78,3.22,2.29.16.01.32,0,.48,0v.96c1.01.07,2.29.03,2.88-.96-.43.05-.92.06-1.42.05.5,0,1,0,1.42-.05.17-.02.41.05.48,0,.05-.03.08-.14.14-.27-.07.13-.1.24-.14.27l1.44,1.92c-2.51-.11-3.48-.01-2.16,2.4.42.77.52,1.56,1.68,1.44-.26-.69-1.48-2.96-.96-3.35h0c-.52.39.7,2.66.96,3.35.12.32.43.7.48.96l.48.24h0s-.48-.24-.48-.24c.03.15-.02.32,0,.48l.16-.08-.16.08c.05.46-.02.97,0,1.44.01.32,0,.64,0,.97-.05,2.91-.57,5.8-1.59,8.53-.46,1.23-1.38,2.09-.26,3.01.64.53,2.25.53,3.04.45,2.22-.21,4.03-1.58,6.02-2.44,4.25-1.83.46,3.78.45,5.07-.01,1.16,1.28,1.19,1.94,1.68.72.53,1.33.99,1.93,1.67.57.65,2.19,3.45,2.67,3.59.74.21,1.47-.55,2.33-.48,1.18.1,2.01.94,3.62.02.23-.25.51-.4.8-.53-.3.13-.57.28-.8.53l.48,1.92c2.39.03,4.03.45,5.76-1.44-.55,2.27.88,1.92,1.39,2.45.31.32-.38,1.67.53,1.87h0c.29.06.68-.07.96,0,0,0,0,0,0,0,1.73.42,1.78.95,2.4,2.4h0c.3.69.35,2,1.2,2.4.92.43.53-.69,1.01-.98.6-.37,1.51-.48,2.11-.93l.96,2.88c0,.32.03.65,0,.96.37.74,1.73,1.46,1.92,1.92.04.11-.01.31,0,.48.03.45.03.98,0,1.44-.02.32.01.64,0,.96l.05.67.43.28c.23-.2.35-.37.48-.48.59-.52.96-.51,1.44-1.44.06-.12-.06-.34,0-.48,2.52-1.2,2.38.87,3,2.53.3.81.15,1.56,1.32,1.31.04.36.07,1.14,0,1.44l.43.28.05.68c.08.05-.07.35,0,.48.29.52.46.45.48.48.07.11-.07.37,0,.48.52.75,1.37,1.12,1.85,1.49.36.27-.49,3.44.79,3.79.96.27,5.7-3.27,7.31-3.25.37-.05.44-.39.6-.58.17-.22.31-.66.48-.96l2.88-.48s0,.96,0,.96c-.06.13-.25,1.06-.32,1.27-.24.77-.81,1.09-.6,2,.21.83,7.16-3.71,7.78-3.66.51.04,5.32,1.26,5.54,1.44.14.12,0,.64.14.77.62.53,2.68-.03,2.81,2.02.13.05.33-.05.48,0,.57.59,1.2,3.05,1.48,3.33.13.14.65,0,.92.03.12.7.17,1.76.48,2.4,1.95-.26,3.59.68,5.54.5.95-.09,1.66-.61,2.61-.5l.24,1.44,1.9-2.89,3.61-1.9c.64.66-2.52,3.78-2.83,4.6-.25.66-.28,1.31.68,1.16,1.65-.27,1.88-2.14,2.62-2.65.58-.4,1.78-.43,2.41-.71.32-.14.66-.3.96-.48h0c.82-.48,1.34-1.4,1.44-1.44.67-.58,1.37-.9,1.44-.96.11-.1.73-2.49.96-2.88h0c.75-1.3,1.76-2.25,3.36-1.92-.18.78.1,1.99.01,2.86l2.6.48,3.21-7.37c.05-.45.84-.69.89-.77,3.14.46,1.56,4.49,1.92,6.71.53-.47,1.6-.36,1.85-.55.1-.08,1.04-1.9,1.03-2.33-.12,0-.66-.13-1.04-.39.38.26.92.4,1.04.39.19,0,.51-.38.79-.42,2.27-.28.29,5.23.18,6.42-.1,1.03.04,2.08,0,3.11,2.31.06,2.09-1.89,3.13-3.34.57-.8,2.76-2.36,2.14-.74-.32.83-1.36,1.71-1.68,2.64h1.2c.04-.06.27-.09.48-.48,1.03-1.92,1.43-3.53,2.87-5.52.91-1.26,4.14-6.15,4.33-6.94h.96c-.1.25.07,1.01-.1,1.57-.76,2.46-1.95,4.91-1.82,7.54.38.42,2.73-1.64,3.36-1.92.22-.1.72.09.96,0,0,0,.83-.42.96-.48l.96-.48c.19-.24.47-.45.48-.48.47.04.98-.06,1.44,0,.04,0,.09.51.61.41.73-.14,2.66-.71,3.4-.96.65-.22.57-.66.78-.89-.46.05-1-.07-1.44,0-.98-.41-.39-1.7-.25-2.41.34-1.72.84-3.43,1.33-5.13-.49,1.7-.99,3.41-1.33,5.13-.14.71-.73,1.99.25,2.41.44-.07.98.05,1.44,0,.15-.16.09-.25.48-.48.03-.02.08-.03.14-.03-.06,0-.11.01-.14.03-.39.23-.33.32-.48.48.16-.02.32.02.48,0,2.69-.29,5.8-.81,8.37-.98,2.78-.18,5.73.36,8.45-.2.29-.17.32-.5.45-.73h0c.77-1.39.44-2.72.62-4.16.19-1.58,1.02-3.11,1.92-4.39.78-1.11,3.31-2.69,3.67-3.8.01-.04.02-.07.03-.11.06-.26-.02-.65,0-.96.07-.87.45-1.22.98-1.49,0,.02-.02.03-.02.05h1.44s-.48,1.92-.48,1.92l1.92-.48c-.29-.29-.4-.6-.96-.48.56-.12.67.19.96.48.03.03.4-.06.47.26.2.88-2.79,4.29-1.91,5.98.89.19,1.14-.48,1.68-.96,1.13-.99,2.2-2.18,3.12-3.36.09.58,1.37.79,1.44.96.16.38-.28.67.48,1.44.98,1,1.36,0,2.59-.04,1.43-.04,4.14,1.35,5.14-.42-.03.06.25.48.29.55.21-.14.45-.35.61-.56.06-.07.35,0,.48-.48.04-.14-.02-.31,0-.48,4.2.41,7.8-2.74,11.99-2.88-.1.37.12,1.33,0,1.44v.96c.63.13.93-.21,1.44-.48,4.06-3.54,6.73-7.99,10.31-11.99.87,1.1-.37,2.26-.62,3.22-.31,1.16-1.44,6.51.62,5.9,1.97-.59,5.03-9.47,6.24-10.07.9-.44.68,1.04,1.18,1.7,1.06,1.4,2.01.08,2.9-.97,2.49-2.92,3.73-5.29,7.2-7.67,2.14-1.47,7.1-2.65,9-4.67,1.86-1.97,2.83-1.51,5.38-2.53,4.42-1.76,8.16-4.95,10.96-8.7,1.13-1.51,1.55-1.79,2.69-3.07.8-.9,2.92-6.35,2.65-7.18.41-.27.51-.68.96-.96.05-.3-.07-.7,0-.96.08-.28.14-.54.21-.8-.06.26-.13.52-.21.8,2.67-1.58-.44-5.76.05-7.38.18-.6,1.61-1.54,2.1-2.23,3.19-4.45,3.84-11.77,4.58-17.01.11-.8.77-1.75.78-2.4.01-.81-.69-2.71-.31-3.6.04-.1.26-.24.68-1.26.08-.2.13-.43.15-.65.22-3.52-.52-5.42-.28-6.41.06-.26.41-.29.42-.32.04-.12.04-.84,0-.96,1,.18,1.08-.6,1.44-.96,1.39-1.38,1.94-3.52,1.81-5.41-.03-.42-.06-.85-.1-1.29-.2-2.36-.5-4.85-.96-7.14-.74-3.68-2.28-5.41-4.12-8.72-.97-1.75-.74-.85-1.43-1.42-1.39-1.15-3.73-4.55-5.28-6.23-.92-1.01-.7-1.41-.96-2.4h0c-.04-.15.04-.34,0-.48-.2-.64-1.19-.56-1.39-1.25-.99-3.44-1.49-6.87-4.85-8.82-.2-.12-1.93-3.2-2.62-3.86-4.63-4.36-9.77-7.32-14.4-11.98-6.9-6.95-13.46-12.77-21.67-18.14-1.29-.84-2.33-.91-3.53-2.22-6.14-6.72-10.6-14.37-15.42-22-3.45-5.45-6.21-8.3-8.34-14.69-.93-2.79-8.24-14.59-9.11-16.31-.5-.99-5.66-11.21-6.87-13.27-2.44-4.17-2.64-6.24-6.54-9.77-1.43-1.29-11.14-9.23-12.08-9.51-3.98-1.17-4.82-2.41-7.84-5.35,0,0,0,0,0,0l-4.07-4.81c-1.12-.49-1.78-1.43-2.67-2.13-.56-.44-2.03-1.04-2.29-1.3-1.26-1.3.24-8.75-3.46-6.88l-2.62,3.13c-1.72-.77.26-7.14-1.44-7.67-1.14-.36-1.73,2.61-1.68,3.36-.39-.46-1.75-.88-1.87-1-.48-.47,1.03-2.84-1.97-1.65l-2.15,2.17c-2.92-2.01.77-3.85.72-6.23-2.16.33-1.52-.16-2.17-.93-2.36-2.84-2.18-.7-3.83-.49-1.04.14-2.21-.64-2.64-.5-.05-.3.08-.72,0-.96-.2-.61-.47-.45-.48-.48-.04-.15.04-.33,0-.48l-.48-2.4c-.97-.19-1.17.82-2.15.97-3.11.46-3.98-.91-3.61-3.85-1.5-.21-4.09,1.64-5.54,1.19-1.9-.6.6-2.02-.2-3.42-1.03.94-2.21.13-3.33-.15-1.12-.28-1.65.68-2.64.85-.34.06-1.94-.44-1.39-.61-.74.23-1.96,1.03-2.76.74-1.06-.38-1.45-3.61-1.79-4.7-.26-.82.25-1.96-1.18-1.6-.09-.73-.43-1.42-.52-2.17-.47.85-2.83,1.64-3.41.8,0-.01-.02-.03-.03-.04-.52-.84.5-2,.17-2.94-1.63,1.24-5.24,4.42-4.73,6.77-.15-.7-2.28.25-1.8-1.48-1.87.05-3.61-3.34-4.67-4.3-.35-.32-.92-.36-1.11-.58-.27-.31.2-1.13-1.05-.84h-.48s-.01.01-.02.02c0,0,.02-.01.02-.02.14-.46-.32-1.02-.48-1.44h-.96c-.99-.76-1.61-1.61-1.92-2.88-.36-1.48-.57-.43-.96-1.92l-.48-.48h-.48c.06-.24-2.05-3.3-2.4-3.6-1.01-.87-4.64-2.73-6.07-3.52-1.88-1.03-9.68-5.43-11.04-5.75-1.44-.33-3.52-.29-4.96-.56-.15-.03-.32.03-.48,0-.06-.01-.47-.28-.96-.48-.14-.06-.34.05-.48,0-.03-.01-.14-.24-.48-.48-.35-.24-.87-.67-1.19-.97-.64-.59-3.29-3.93-3.59-4.08-.77-.38-1.58-.08-2.41-.46-5.87-2.71-9.35-7.1-16.67-9.24-5.14-1.5-11.62-3.16-16.91-3.47h-.48Z"/>
  <g>
    <path class="cls-2" d="M4.39,13.73v-3.46H1.23v-1.34h3.16v-3.47h1.39v3.47h3.17v1.34h-3.17v3.46h-1.39Z"/>
    <path class="cls-2" d="M14.02,15.76c-.77,0-1.44-.23-1.99-.7-.56-.46-.99-1.14-1.29-2.03-.3-.89-.45-1.98-.45-3.27s.15-2.37.45-3.25c.3-.88.73-1.54,1.29-1.98.56-.45,1.22-.67,1.99-.67s1.42.22,1.97.67c.55.45.98,1.11,1.28,1.98.3.88.45,1.96.45,3.25s-.15,2.38-.45,3.27c-.3.89-.73,1.57-1.28,2.03-.55.46-1.21.7-1.97.7ZM14.02,14.29c.39,0,.73-.15,1.03-.45.3-.3.54-.78.7-1.44.17-.66.25-1.54.25-2.64s-.08-1.97-.25-2.62c-.17-.65-.4-1.11-.7-1.4-.3-.29-.65-.43-1.03-.43s-.73.14-1.03.43c-.3.29-.54.75-.71,1.4s-.26,1.52-.26,2.62.09,1.98.26,2.64.41,1.14.71,1.44c.3.3.65.45,1.03.45Z"/>
    <path class="cls-2" d="M23.25,15.76c-.55,0-1.07-.12-1.55-.34-.48-.23-.91-.57-1.27-1.03-.36-.46-.64-1.04-.85-1.74-.21-.7-.31-1.52-.31-2.47,0-1.13.12-2.09.35-2.89.23-.79.55-1.45.96-1.96.41-.51.87-.89,1.39-1.12.52-.24,1.07-.35,1.64-.35.65,0,1.21.12,1.68.37.47.25.87.54,1.2.9l-.98,1.12c-.21-.26-.47-.46-.8-.62-.32-.16-.66-.24-1.02-.24-.5,0-.96.15-1.38.45-.42.3-.75.8-1,1.5-.25.7-.38,1.65-.38,2.86,0,.95.09,1.73.28,2.34s.45,1.07.8,1.37.75.45,1.2.45c.33,0,.64-.09.91-.28.27-.19.49-.45.65-.8.16-.35.24-.76.24-1.24s-.08-.87-.23-1.19c-.15-.33-.37-.57-.65-.74-.28-.17-.62-.26-1.03-.26-.33,0-.7.11-1.09.34-.39.22-.76.61-1.1,1.17l-.08-1.34c.23-.31.49-.58.78-.8.29-.22.6-.4.91-.52.32-.12.62-.18.9-.18.65,0,1.21.13,1.7.39.49.26.87.65,1.14,1.18.27.52.41,1.18.41,1.97s-.16,1.41-.48,1.97c-.32.55-.73.99-1.25,1.3s-1.09.47-1.71.47Z"/>
  </g>
</svg>