<?xml version="1.0" encoding="UTF-8"?>
<svg id="a4" xmlns="http://www.w3.org/2000/svg" viewBox="0 0 600 500">
  <defs>
    <style>
      .a4 {
        fill: #5d4c39;
      }

      .cls-2 {
        fill: #c9caca;
      }
    </style>
  </defs>
  <path class="a4" d="M475.86,217.05c.46-1.21.76-2.18.71-3.23,0-.21-.03-.42-.07-.64-.08-.44-.22-.89-.43-1.39-.46-.11-.88-.1-1.3-.03-.28.04-.54.11-.81.19-.3.08-.61.17-.92.24-.1.02-.2.05-.31.06-.1.02-.21.02-.32.02,0,0-.02,0-.03,0-.36,0-.75-.06-1.1-.02,0-.31-.04-.67,0-.96.01-.06.03-.13.04-.19.15-.72.47-1.43.79-2.15.37-.84.7-1.7.68-2.63l.07-.05.34-.25c-.05-.29.01-.64,0-.96-.01-.32-.01-.63,0-.95h0c.01-.65.04-1.29.04-1.93,0-.02,0-.03,0-.05,0-.3,0-.6-.03-.9-.04-.47-.05-.81-.15-1.16-.06-.23-.15-.47-.33-.75l-.48-.48c-.08-.06-.31.04-.48,0h-.48c-.16.04-.38-.06-.48,0l-.48.48s-.31.01-.42.28c-.05.13-.05.25-.05.37,0,.06,0,.11,0,.16,0,.05,0,.1-.02.14-.62,1.92-2,5.68-2.36,7.51-.01.05-.03.12-.04.17-.07-.03-.14-.05-.22-.06-.47-.1-1.05-.09-1.2-.75-.02-.11-.04-.24-.03-.39,0-.08.01-.16.03-.24.03-.13.09-.26.16-.41.14-.3.36-.62.6-.99.05-.08.11-.16.16-.25.1-.16.21-.32.31-.48.15-.24.3-.5.44-.77.49-.94.87-2.05.72-3.34-.07-.61-.2-.94-.42-1.19,0,0,0,0-.01-.01-.07-.07-.15-.14-.24-.21-.15-.12-.34-.23-.56-.38-.07-.04-.13-.08-.21-.13-.05-.03-.05-.32-.48-.48-.22-.08-.65.09-.95,0,.14-.9-.33-4.05-1.21-4.31-2.28-.65-.42,2.23-1.68,3.12-1.15.81-.81-.36-1.44-.72.06-.28.09-.55.09-.81,0-.03,0-.05,0-.08,0-.4-.08-.77-.19-1.13-.25-.86-.69-1.64-1.01-2.4-.15-.36-.27-.72-.33-1.09-.11-.78-.08-2.09-.05-3.58,0-.31.01-.62.02-.94.03-1.85,0-3.85-.3-5.34-.21-1-.55-1.78-1.09-2.14-.28-.19-.53-.27-.75-.27-.79,0-1.26,1.03-1.51,2.21-.11.51-.17,1.04-.2,1.53-.01.16-.02.32-.02.48h0c0,.3,0,.56.02.78,0,.03,0,.05,0,.07.01.09.02.18.04.25-1.04-.07-1.37-.42-1.4-.89,0,0,0,0,0,0,0-.12,0-.25.03-.39.03-.19.09-.39.15-.6.12-.39.25-.81.27-1.21.1-1.82.21-5.03-.02-6.74-.12-.87-.9-1.9-1.43-3-.11-.22-.2-.44-.28-.67-.16-.45-.25-.91-.21-1.37l-1.2.95-.16.79-.32,1.62c-.94-.34-1.22-.63-1.23-.96,0,0,0,0,0-.01,0-.07.01-.15.03-.23.02-.06.03-.11.06-.18.01-.03.02-.06.04-.09.1-.24.23-.51.31-.83.02-.09.04-.18.05-.28,0-.03,0-.05.01-.08.04-.4.06-.79.05-1.17-.06-2.29-1.07-4.15-3.35-4.37-.19-.02-.39-.02-.6-.02-.21,0-.42.02-.65.05-.08.01-.17.03-.28.07s-.22.08-.35.13c-.75.32-1.76.92-2.01,1.24-.9-.22-.06-1.49.12-2.04.96-2.94,2.37-7.74,4.7-9.71.26-.22.76-.18.88-.3.23-.25,1.22-6.42.94-6.62-.17-.12-.59,0-.85-.07,1.64-7.86,5.64-15.02,6.22-23.21.57-8.06-.93-17.88-2.53-25.81-.4-1.96-1.53-4.39-1.32-6.34.52-4.97.11-10.78-.5-15.83-.67-5.52-3.49-10.11-2.88-15.83l-.95-5.52c-.77-.86-2.11,2.2-2.3,2.74-1.06,3.15-1.51,7.14-1.55,10.44l-.95,3.61c-.23-1.24-1.24-2.15-1.7-3.34-1.01-2.63-1.61-7.49-3.34-9.61-.42-.51-.59-.64-.97,0-.49.83.2,1.97-.72,1.92-.95-2.61-2.05-5.99-5.03-6.71-1.19.3-.19,2.99-1.44,2.4-.69-.33-2.05-2.24-2.87-2.89-1.57-1.24-3.5-2.08-5.05-3.35h-1.92c.39,2.03,2.34,3.66,3.6,5.3.28.36.2.91.24.94-.2.5-.6,2.13-.95,3.34-.1.37-.2.69-.29.95-.06.17-.11.3-.16.39-.02.04-.04.08-.06.09-.08.08-.46.04-.91.03-.15,0-.31,0-.47,0-.65.02-1.31.15-1.47.72-.06.21.18.62.52,1.11.64.91,1.65,2.11,1.8,2.8.03.16.06.3.07.44.08.84-.18,1.42-.38,2.2-.03.13-.07.26-.1.41-.71-.17-1.27-.45-1.79-.74-.47-.27-.91-.54-1.37-.77-.18-.09-.36-.17-.56-.24-.62-.23-1.32-.34-2.26-.2l-.53,1.01-4.49.49c-.18.36-.33.72-.46,1.08-.37,1.1-.52,2.25-.64,3.41-.08.77-.15,1.55-.27,2.32-.12.77-.3,1.53-.58,2.28-.11-.01-.21-.02-.32-.03-.31-.01-.62.01-.88.12-.35.14-.61.4-.72.87-.8,0-1.61-.04-2.4,0h-.48c-.66.04-1.34.1-2.03.18-.6.07-1.21.15-1.83.25-4.38.66-9.1,1.9-13.05,3.05-7.32,2.14-10.79,6.53-16.67,9.24-.42.2-.84.21-1.25.23-.2,0-.39.02-.58.05-.1.02-.2.04-.29.07-.1.03-.19.07-.29.11,0,0-.03.02-.04.03-.04.03-.1.08-.18.16,0,0,0,0,0,0-.72.75-2.82,3.37-3.38,3.89-.16.15-.37.33-.58.5-.21.17-.43.34-.6.46-.34.24-.45.46-.48.48h0s-.07.02-.12.02c0,0,0,0-.01,0-.08,0-.16-.03-.24-.03-.04,0-.08,0-.11.02-.49.2-.9.47-.96.48h0c-.08.01-.16,0-.24,0h0c-.08,0-.16-.01-.24,0-1.04.2-2.43.23-3.66.35-.46.05-.91.11-1.3.2-.34.08-1.08.41-2.03.89-.24.12-.49.25-.75.38-.78.4-1.66.86-2.54,1.34-.29.16-.59.32-.88.48-1.01.55-1.99,1.09-2.83,1.56-.22.12-.43.24-.63.35-.28.16-.53.3-.76.42-.14.08-.27.15-.38.21-.08.04-.17.09-.23.13-.1.06-.22.12-.34.19-.12.07-.26.14-.4.22-1.68.9-4.47,2.37-5.33,3.12-.08.07-.27.31-.51.62-.07.09-.14.19-.22.3-.27.37-.57.8-.84,1.21-.47.72-.86,1.36-.84,1.47h-.48l-.24.24-.24.24h0c-.24.93-.42.87-.6,1.05-.11.11-.22.31-.36.86-.3,1.27-.93,2.11-1.92,2.88h-.96c-.04.1-.1.22-.16.34-.06.12-.13.24-.19.37-.12.25-.2.51-.12.73h-.48c-1.26-.3-.78.52-1.05.84-.1.11-.29.18-.5.25-.21.08-.44.17-.62.33-.53.48-1.23,1.57-2.03,2.53-.3.36-.62.7-.94.99-.54.48-1.11.8-1.7.78.06.21.08.38.07.52,0,0,0,0,0,0-.03.36-.28.5-.58.57-.1.02-.21.03-.31.04-.14.01-.28.02-.41.03-.22.02-.42.07-.51.19-.02.03-.04.07-.05.11.35-1.62-1.25-3.63-2.81-5.13-.14-.14-.28-.27-.42-.4-.56-.51-1.09-.94-1.5-1.25-.08.23-.08.46-.04.71,0,.04.01.07.02.11.04.23.11.46.18.68.04.13.07.26.1.38.09.38.11.74-.08,1.05,0,.02-.02.03-.03.04-.15.21-.4.32-.71.35-.31.03-.67-.02-1.03-.11s-.72-.25-1.01-.43c-.15-.09-.28-.19-.39-.29-.11-.1-.2-.21-.26-.31h0c0,.08-.03.15-.04.22-.12.66-.39,1.29-.48,1.95-.18-.05-.33-.07-.45-.07-.12,0-.22.02-.3.05-.19.08-.26.27-.3.5-.05.33-.02.75-.13,1.11-.06.21-.13.49-.2.81-.05.21-.1.45-.15.69-.3,1.33-.71,2.94-1.44,3.2-.8.29-2.02-.51-2.76-.74t0,0s0,0,0,0c.17.05.13.13,0,.22-.06.04-.14.08-.24.12-.22.09-.5.17-.74.22-.17.03-.32.05-.4.04-.49-.08-.88-.37-1.27-.59-.1-.06-.2-.11-.3-.16-.31-.14-.65-.21-1.07-.1-1.01.25-2.05.92-3,.38-.11-.06-.22-.13-.32-.23h0c-.15.26-.18.52-.15.78.09.78.77,1.51.67,2.05-.05.24-.25.44-.72.59-.49.15-1.12.03-1.79-.17-.16-.05-.32-.1-.48-.16-.58-.21-1.17-.44-1.74-.62-.57-.18-1.1-.3-1.54-.24h0c.09.74.11,1.37.03,1.91-.23,1.6-1.31,2.29-3.64,1.94-.98-.15-1.18-1.16-2.15-.97l-.12.6-.36,1.8c-.04.15.04.33,0,.48,0,0,0,0-.01,0,0,0-.02,0-.04,0-.04,0-.11,0-.19.07s-.16.18-.24.41c-.08.24.05.66,0,.96-.43-.14-1.6.64-2.64.5-1.65-.22-1.47-2.35-3.83.49-.64.77,0,1.27-2.17.93-.05,2.38,3.64,4.22.72,6.23l-2.15-2.17c-3-1.19-1.49,1.17-1.97,1.65-.12.12-1.49.54-1.87,1,.05-.74-.54-3.72-1.68-3.36-1.71.54.28,6.9-1.44,7.67l-2.62-3.13c-3.7-1.87-2.2,5.58-3.46,6.88-.26.27-1.73.86-2.29,1.3-.89.7-1.54,1.64-2.67,2.13l-4.07,4.81h0c-3.02,2.94-3.86,4.18-7.84,5.35-.29.09-1.44.92-2.93,2.07-.59.46-1.24.97-1.91,1.5-3.01,2.39-6.43,5.22-7.24,5.94-1.62,1.46-2.6,2.68-3.36,3.89-.74,1.17-1.28,2.33-2,3.73-.11.22-.23.44-.35.68-.25.46-.52.95-.82,1.47-.38.64-1.14,2.09-2.03,3.79-.35.68-.73,1.41-1.11,2.14-.28.55-.56,1.09-.84,1.64-.28.55-.56,1.09-.82,1.61-.17.34-.34.67-.5.99-.32.63-.61,1.21-.86,1.69-.12.24-.23.46-.33.65-.19.38-.33.65-.39.77-.03.05-.06.12-.1.19-.57,1.05-2.36,4.02-4.21,7.18-.41.69-.81,1.39-1.21,2.08-.11.19-.21.37-.32.55-1.56,2.72-2.91,5.21-3.27,6.3-.4,1.2-.82,2.27-1.26,3.26-.15.33-.3.65-.45.96-.61,1.25-1.26,2.38-1.96,3.47-.69,1.1-1.43,2.16-2.21,3.3s-1.6,2.33-2.46,3.7c-4.74,7.5-9.14,15.02-15.13,21.66-.1.11-.19.22-.29.33-.23.26-.46.45-.68.63-.5.39-.98.63-1.48.87-.29.14-.59.27-.89.44-.15.09-.31.18-.47.28-.61.4-1.2.81-1.79,1.21-1.13.77-2.23,1.55-3.3,2.34-.47.35-.95.7-1.41,1.06-5.38,4.09-10.19,8.51-15.17,13.53-.03.03-.06.05-.08.08-4.03,4.04-8.44,6.8-12.56,10.33-.59.51-1.18,1.03-1.76,1.58-.69.65-2.42,3.74-2.62,3.86h0c-3.35,1.95-3.85,5.38-4.85,8.82-.2.69-1.19.61-1.39,1.25h0c-.02.07-.01.15,0,.24.01.08.02.17,0,.24h0c-.13.49-.14.84-.23,1.19-.02.09-.05.18-.09.27-.11.27-.3.56-.64.94-.77.84-1.74,2.11-2.7,3.32-.24.3-.48.6-.71.88-.23.28-.46.56-.68.81s-.43.49-.63.69c-.2.21-.39.39-.56.53-.42.35-.5.15-.72.34,0,0,0,0-.01.01,0,0,0,0,0,0-.14.13-.33.41-.69,1.06-.46.83-.9,1.56-1.31,2.24-.41.69-.8,1.33-1.16,1.98-.35.65-.67,1.32-.95,2.05-.05.12-.08.26-.13.38-.22.63-.42,1.3-.57,2.07-.24,1.21-.44,2.47-.6,3.74-.15,1.14-.26,2.29-.36,3.4-.04.43-.07.86-.1,1.29-.07.95.04,1.95.33,2.9.15.47.34.93.59,1.35.08.14.18.27.27.41.07.1.13.19.21.28.13.16.26.32.41.47.18.18.29.46.48.68.05.05.1.1.16.15.18.13.42.2.8.13-.02.06-.03.26-.03.46,0,0,0,.01,0,.02,0,.21.01.42.03.48h0s.09.03.19.07c.05.02.1.05.14.09.04.04.08.09.09.16.03.12.04.26.05.41.02,1.07-.53,2.91-.33,5.99,0,.11.05.22.07.33s.03.22.07.33c.1.26.19.46.27.61.04.08.08.15.11.21.03.06.06.11.09.15.02.03.04.05.05.08.01.02.03.04.04.05.02.02.03.04.04.06.03.03.04.06.06.08,0,0,0,.01,0,.02.14.33.13.81.07,1.32-.11.84-.38,1.78-.38,2.28,0,.65.67,1.6.78,2.4.09.65.18,1.34.28,2.05.38,2.84.82,6.04,1.64,9,.59,2.09,1.37,4.04,2.46,5.66.07.1.13.2.2.3.01.01.03.03.04.04.09.12.2.24.33.37.14.13.28.27.44.41.12.11.24.22.36.32.44.4.84.78.93,1.08.15.51-.05,1.26-.31,2.11-.16.51-.34,1.05-.48,1.59-.19.72-.32,1.44-.22,2.08.09.64.4,1.2,1.06,1.59-.08-.28-.14-.54-.21-.8.06.26.13.52.21.8.07.26-.05.66,0,.96.45.27.55.69.96.96-.02.05-.02.12-.02.21,0,.1.02.23.04.37.05.29.14.65.26,1.06.04.12.07.25.12.38.1.3.2.62.32.95.35.97.77,2.01,1.15,2.82.08.16.15.32.22.46.15.29.28.53.4.71.06.09.11.16.16.22.14.16.27.3.39.44.37.4.66.7.95,1.01.19.21.39.43.6.69s.45.56.74.94c.7.94,1.46,1.84,2.27,2.7,2.16,2.27,4.71,4.18,7.56,5.5.37.17.74.35,1.12.5.16.06.31.12.46.17.3.11.57.19.82.27.51.15.95.25,1.36.37.1.03.2.06.3.09.79.26,1.5.64,2.43,1.62,1.9,2.02,6.86,3.2,9,4.67.87.59,1.6,1.19,2.24,1.79.32.3.62.6.91.91.57.61,1.09,1.24,1.6,1.88.26.32.51.65.77.99.52.67,1.06,1.37,1.69,2.1.28.33.56.68.86.97.06.06.12.11.18.17.3.26.6.44.91.44.31,0,.63-.17.96-.61.06-.08.11-.18.16-.28.22-.51.24-1.21.53-1.43.06-.04.12-.07.21-.07.08,0,.18.03.29.08.2.1.45.43.73.9.09.15.18.31.28.49,1.23,2.24,2.99,6.51,4.44,8.1.14.15.27.28.4.37.13.1.26.17.38.2,1.02.31,1.26-.87,1.19-2.27-.02-.55-.1-1.14-.18-1.69-.07-.46-.15-.88-.23-1.23-.06-.29-.12-.54-.16-.7-.05-.18-.13-.37-.23-.56-.42-.83-1.1-1.76-.39-2.66,2.9,3.24,5.22,6.77,8.15,9.88.68.73,1.39,1.44,2.16,2.11.13.07.24.14.35.21.33.2.61.37,1.09.27v-.96h0s-.02-.04-.03-.08c0-.04,0-.09,0-.14,0-.12.02-.26.03-.42.03-.29.05-.62,0-.8,4.2.14,7.79,3.29,11.99,2.88.01.08,0,.17,0,.25,0,.08-.01.16,0,.23.13.47.42.41.48.48.16.22.4.42.61.56h0s.1-.16.18-.28c.06-.11.11-.2.11-.24,0,0,0-.02,0-.02.12.22.28.39.45.52,1.21.92,3.44-.13,4.69-.1.19,0,.35.04.51.08.6.16.98.49,1.43.38.19-.05.4-.17.65-.42.38-.38.46-.65.46-.87s-.06-.38.02-.57c.07-.17,1.35-.38,1.44-.96.22.28.45.56.68.84.75.89,1.58,1.76,2.44,2.52.07.06.13.12.19.18,0,0,0,0,0,0,0,0,.01.01.02.02.41.44.71.92,1.47.76.83-1.58-1.75-4.68-1.91-5.78-.01-.07-.01-.14,0-.19.04-.16.15-.22.25-.24.05-.01.1-.01.15-.01.04,0,.07,0,.08,0,.07-.07.13-.14.19-.2-.06.07-.12.13-.19.2l1.92.48-.48-1.92h1.44s-.02-.03-.02-.05c.11.06.21.12.31.19.02.02.05.03.07.05.08.06.16.14.22.22.02.03.05.05.07.08.06.09.11.19.16.3.02.04.04.06.05.1.05.16.09.34.11.55.01.16,0,.33-.01.5s-.02.33.01.46c0,.01,0,.02,0,.03,0,.03.01.06.02.08.05.17.17.35.31.54.78,1.04,2.69,2.32,3.35,3.26.51.72.99,1.52,1.35,2.37.28.66.49,1.34.58,2.03.14,1.15-.03,2.23.28,3.33.08.28.18.55.33.83h0c.13.23.16.57.45.73,2.72.57,5.66.02,8.45.2,2.58.17,5.68.69,8.37.98.16.02.32-.02.48,0-.08-.08-.1-.14-.15-.21.05.07.08.13.15.21.11.01.23.01.35.01,0,0,0,0,.01,0,.37,0,.75-.06,1.08-.01.37-.16.51-.43.55-.76h0c.02-.2,0-.42-.05-.63-.07-.37-.19-.74-.25-1.02-.1-.52-.22-1.05-.35-1.57,0,0,0,0,0,0,.13.52.25,1.05.35,1.57.14.71.73,1.99-.25,2.41-.44-.07-.98.05-1.44,0,.21.23.13.66.78.89.74.26,2.68.82,3.4.96.52.1.57-.41.61-.41.46-.06.97.04,1.44,0,0,0,.02.02.03.03.02.02.06.06.12.12.1.09.22.21.33.34l.36.18.6.3s.11.05.2.1c.29.14.75.38.75.38.24.09.74-.1.96,0,.59.26,2.69,2.09,3.26,1.97.04,0,.07-.02.09-.05.08-1.56-.31-3.07-.8-4.54-.33-1.01-.71-2-1.02-3-.17-.55,0-1.32-.1-1.57h.96c.18.79,3.42,5.68,4.33,6.94.8,1.11,1.28,2.1,1.72,3.09.36.79.69,1.58,1.15,2.43.19.36.4.42.46.47,0,0,.02,0,.02.01h.6s.6,0,.6,0c-.08-.23-.2-.46-.35-.69s-.32-.45-.49-.67c-.34-.44-.68-.87-.84-1.28-.16-.43-.13-.63.02-.69.09-.04.22-.02.37.04.18.07.38.18.59.32.11.08.23.16.34.25.2.15.38.32.54.48,0,0,0,0,0,0,.11.12.21.23.28.33.91,1.28.86,2.92,2.38,3.28.22.05.47.07.75.07h0c-.01-.26-.01-.52,0-.77,0-.52.04-1.04.03-1.56,0-.26-.01-.52-.04-.77-.01-.15-.06-.37-.12-.63-.06-.26-.14-.58-.22-.92s-.17-.71-.25-1.08c-.04-.19-.08-.38-.12-.57-.07-.36-.12-.71-.16-1.05-.02-.2-.04-.39-.04-.58,0-.33.02-.63.08-.88.03-.12.08-.24.13-.33.17-.29.44-.44.87-.39.03,0,.06.02.08.03.12.04.23.11.34.19.07.05.14.1.2.13s.12.06.16.06c0,0,0,0,0,0,0,0,0,0,0,0,0,0-.01,0-.01,0-.01.43.93,2.25,1.03,2.33.25.19,1.32.08,1.85.55.36-2.23-1.22-6.26,1.92-6.71h0c.04.07.66.26.84.61.03.05.04.1.05.16l3.21,7.37,1.85-.34.75-.14h0c-.07-.65.07-1.5.07-2.21,0-.02,0-.04,0-.06,0-.21-.01-.42-.05-.59,1.6-.33,2.61.62,3.36,1.92h0s.06.13.1.23c.27.72.76,2.56.86,2.65.07.06.74.36,1.4.92.01.01.03.02.04.04.01,0,.03.02.06.05,0,0,.01.02.02.03.15.18.47.65.93,1.04.14.12.28.23.44.32h0c.3.18.64.34.96.48.14.06.31.11.49.15.64.15,1.47.24,1.93.56.09.06.18.15.26.25.13.17.25.38.38.6.1.19.21.38.33.57.09.14.19.28.29.41.15.18.33.34.53.48.23.16.5.29.83.34.11.02.21.02.29.02,0,0,.02,0,.02,0,.18,0,.31-.06.39-.15.08-.08.12-.2.12-.34,0-.2-.05-.45-.15-.7-.06-.15-.22-.39-.43-.67-.07-.09-.15-.19-.23-.3-.12-.15-.25-.31-.38-.48-.98-1.21-2.2-2.71-1.79-3.15l3.61,1.9,1.9,2.89.05-.29.19-1.15c.72-.08,1.29.19,1.94.37.11.03.22.06.33.08.11.02.23.04.35.05.97.09,1.87-.1,2.77-.28.22-.05.45-.09.67-.13.68-.12,1.37-.19,2.1-.09.16-.34.26-.8.32-1.26.05-.35.09-.69.14-1,0-.05.01-.1.02-.14.1-.01.24,0,.38.01.23.02.46.04.54-.05h0c.27-.27.87-2.55,1.42-3.24.02-.03.04-.06.06-.09.15-.05.35.05.48,0h0c.07-1.02.61-1.39,1.22-1.58.61-.18,1.28-.18,1.59-.44.14-.12,0-.65.14-.77.07-.06.59-.22,1.28-.41.28-.08.58-.16.9-.24.73-.19,1.52-.39,2.15-.54.1-.02.2-.05.3-.07.45-.1.8-.18.91-.19.62-.05,7.58,4.49,7.78,3.66.12-.5,0-.83-.18-1.15-.14-.26-.31-.51-.42-.85-.01-.04-.03-.11-.05-.2-.03-.13-.07-.3-.11-.47-.02-.07-.03-.14-.05-.2-.03-.12-.05-.22-.07-.29-.01-.05-.03-.09-.04-.11,0,0,0-.06,0-.15,0-.14,0-.34,0-.51,0-.11,0-.21,0-.26v-.04l1.08.18,1.8.3s.05.11.08.16c.09.2.18.42.27.6.04.08.08.15.12.2.16.19.23.54.6.58.3,0,.72.12,1.19.32.32.13.66.3,1.03.48.3.15.61.32.92.49.17.1.34.19.52.29.55.31,1.09.61,1.59.88.78.42,1.45.75,1.85.8.09.01.16,0,.22,0,.96-.26.72-2.11.7-3.13,0-.09,0-.16,0-.24,0-.14.01-.26.04-.34.01-.04.03-.07.05-.08.12-.09.26-.18.42-.28.47-.29,1.04-.65,1.43-1.21.06-.08-.01-.25-.02-.37,0-.04,0-.08.02-.11,0-.01.06,0,.14-.05.08-.05.2-.16.34-.43.02-.03.02-.07.02-.12,0-.09-.04-.21-.04-.28,0-.04,0-.07.02-.08v-.05s.05-.63.05-.63l.43-.28c-.04-.15-.05-.42-.04-.7,0-.15,0-.3.02-.44,0-.11.02-.22.03-.3.28.06.47.06.63.02.5-.13.46-.71.69-1.33.34-.91.45-1.93.89-2.48.01-.02.02-.04.04-.05.37-.42.96-.52,2.07,0,.06.14-.06.36,0,.48.3.58.55.79.85,1,.18.12.37.24.59.44.13.11.24.28.48.48l.12-.08.31-.21.03-.38.02-.3c-.01-.32.02-.64,0-.96-.01-.23-.02-.47-.02-.72,0,0,0-.02,0-.02,0-.24,0-.48.02-.7,0-.08,0-.17-.01-.25,0,0,0,0,0-.01,0-.09-.01-.16.01-.22.14-.34.92-.82,1.46-1.34,0,0,.02-.02.03-.02.09-.09.18-.18.25-.27.07-.09.13-.18.18-.28-.03-.31,0-.64,0-.96l.96-2.88c.15.11.32.2.5.28.54.24,1.16.38,1.61.65.06.04.11.09.14.14.18.29.13.78.38.91.05.02.11.03.19.03.08,0,.17-.04.29-.09.48-.22.71-.74.87-1.28.03-.12.07-.23.1-.35.03-.11.06-.21.08-.31.05-.17.09-.33.15-.47h0c.62-1.45.66-1.98,2.4-2.4h0c.28-.07.67.06.96,0h0c.92-.2.22-1.54.53-1.86.51-.53,1.94-.18,1.39-2.45,1.73,1.88,3.36,1.47,5.76,1.44l.48-1.92c-.1-.11-.22-.2-.34-.28,0,0,0,0,0,0,.12.08.24.17.34.28,0,0,0,0,0,0,.8.46,1.41.48,1.97.37.28-.05.54-.14.81-.22.16-.04.31-.08.48-.12.12-.02.24-.05.36-.06.36-.03.69.08,1.01.21.46.18.89.39,1.33.27.06-.02.14-.08.23-.17.64-.64,1.95-2.85,2.44-3.42.59-.68,1.21-1.14,1.93-1.67.12-.09.26-.16.42-.23.47-.21,1.03-.37,1.32-.77.06-.09.12-.18.15-.3.04-.11.05-.24.05-.38,0-.24-.14-.64-.33-1.1-.06-.16-.13-.32-.21-.49-.1-.24-.21-.49-.32-.75-.8-1.9-1.51-3.94,1.3-2.73.87.38,1.71.85,2.56,1.28,1.1.56,2.21,1.05,3.46,1.16.2.02.44.03.72.04.27,0,.57,0,.86-.03.58-.06,1.14-.19,1.47-.45.64-.53.6-1.04.37-1.62-.17-.42-.44-.87-.63-1.39-.19-.51-.35-1.04-.51-1.56-.68-2.26-1.05-4.6-1.08-6.96,0-.33-.01-.65,0-.97.02-.47-.05-.98,0-1.44h0l-.16-.08.16.08c.02-.16-.03-.33,0-.48l-.48.24.48-.24c.01-.07.04-.14.08-.21.04-.08.09-.16.13-.24.07-.12.15-.25.21-.37.02-.04.05-.09.06-.13.1-.26.33-.74.55-1.26.13-.3.25-.61.35-.91.13-.38.21-.73.17-.96,0-.05-.04-.08-.06-.12-.02-.04-.03-.09-.06-.11h0c.32.24-.03,1.22-.41,2.09-.22.52-.46,1-.55,1.26,1.16.13,1.26-.67,1.68-1.44,1.32-2.41.35-2.51-2.16-2.4l1.44-1.92h0c.07.05.31-.02.48,0h0c.59.99,1.86,1.03,2.88.96v-.96h0c.16,0,.32.01.48,0h0c1.58-.12.63-.53,1.03-.86.27-.23,1.96-.36,2.46-1.16.91-.67,5.97-1.66,6.1-2.29-.37-.08-.71-.12-1.03-.14h0c.32.02.66.06,1.03.14h0c.13-.63-.06-1.11-.31-1.59-.06-.11-.12-.23-.18-.34-.05-.1-.11-.2-.16-.3-.08-.16-.16-.33-.23-.51-.05-.13-.07-.28-.08-.44-.02-.31.02-.63.03-.86,0-.12,0-.22-.03-.28h0s-.45-.11-.71-.49c-.04-.07-.08-.14-.11-.22-.05-.16-.09-.33-.14-.47-.03-.07-.06-.13-.1-.17-.07-.08-.21-.14-.38-.21-.17-.07-.38-.14-.61-.23-.45-.18-.96-.42-1.35-.82-.08-.08-.32-.37-.51-.7-.27-.44-.44-.94.05-1,.04.02.1.03.16.05.15.04.33.07.54.11.2.04.4.1.59.21.24.14.49.3.73.48.49.34.98.73,1.49,1.07.38.26.77.49,1.17.66.13.06.27.11.4.15.81.26,1.67.24,2.59-.34.02-.05.03-.12.02-.19,0-.15-.04-.34-.04-.51,0-.04,0-.08.01-.12s0-.08.01-.12c.53.28,1.15.2,1.78-.06.1-.04.2-.08.3-.13.11-.05.22-.1.32-.16,1.3-.71,2.56-1.9,3.09-1.92.25-.01.84.36,1.44.37,1.15.02,2.46-.1,3.66-.09.03,0,.05,0,.08,0,.37,0,.73.02,1.08.07,1.74.22,3.18,1.71,5.01,1.43.01,0,.02,0,.03,0,0-.06-.01-.13-.02-.21,0-.4.07-.99.05-1.36,0-.02,0-.03,0-.05,0-.05,0-.1-.02-.14,0,0,0,0,0,0-.01-.05-.03-.09-.06-.11h0c-.4-.36-2.65-1.02-2.81-1.77-.06-.29.26-.81.41-1.46.03-.13.06-.27.07-.41.03-.28.01-.59-.08-.9-.06-.19-.19-.35-.35-.51-.48-.47-1.23-.87-1.04-1.7.9,0,1.79.6,2.68.87.15.04.3.08.45.1s.3.03.45.02c1.19-.09,2.62-.97,3.04-2.15.06-.17.1-.34.11-.52.06-.7-.23-1.34-.65-1.91-.17-.23-.35-.45-.55-.66-.58-.63-1.21-1.17-1.52-1.62-.1-.15-.17-.28-.19-.41,0-.06,0-.12.01-.18.31-1.01,2.37-.69,3.55-.74.17,0,.32-.02.45-.05.54-.12,1.01-.64,1.6-.8,1.88-.52,4.71-.3,4.5-3.19-.03-.47-.18-.86-.4-1.21-.07-.12-.16-.23-.25-.33-.54-.63-1.35-1.07-2.18-1.44-.83-.37-1.69-.67-2.33-1.01-.89-.48-1.67-.89-2.45-1.3-.39-.2-.78-.4-1.19-.6-.41-.2-.84-.4-1.3-.6h0c-.69-.87-.19-1.11.47-1.69.94-.83,4-2.45,4.25-2.73.22-.25.01-.78.07-.85.03-.03.2-.03.42-.02,0,0,.01,0,.02,0,.15,0,.32.02.49.03.27.01.55.01.73-.02,1.96-.39,4.12-1.3,6.24-1.45.7-.05,1.81.21,2.97.47.19.04.39.09.58.13,1.55.33,3.08.56,3.71-.06.08-.08.14-.17.19-.27.12-.25.12-.42.07-.52-.03-.05-.07-.09-.13-.12-.22-.11-.6-.05-.79-.06-.05,0-.09,0-.1-.02-.06-.04.04-.32,0-.48-.04-.15,0-.32-.02-.5,0-.06-.02-.12-.04-.18-.12-.27-.36-.22-.42-.28-1.03-.99-2.25-1.95-3.36-2.88-.03-.02-.07-.07-.1-.1-.1-.1-.21-.23-.38-.38-.1-.08-.22-.16-.34-.25-.36-.24-.78-.47-1.1-.71-.03-.02-.1-.15-.27-.31-.06-.05-.13-.11-.21-.17-.39-.27-.79-.54-1.2-.8-.08-.05-.16-.11-.24-.16,0,0,0-.03,0-.06,0,0,0,0,0,0,0-.04,0-.1-.05-.17,0,0,0-.02-.02-.03,0,0,0,0,0,0-.06-.08-.18-.16-.41-.22-.15-.04-.34.05-.48,0-.09-.92.13-2,0-2.88.21-.03.42-.09.62-.17.23-.08.46-.19.69-.32.21-.12.42-.25.63-.39.28-.19.56-.4.84-.6.06-.05.13-.09.19-.14.38-.28.76-.54,1.15-.76.53-.29,1.06-.5,1.63-.51h0,0s-.44-1.76-.44-1.76l-.04-.16.99-.66.45-.3c.15-.04.33.04.48,0,.29-.09.47-.23.62-.41.32-.37.44-.87.81-1.28.86-.95,1.75-1.24,1.93-2.63,0-.05.01-.12.02-.17.01-.17.02-.35.02-.54,0-.13,0-.26-.01-.38s-.02-.24-.03-.34c.17.02.33.04.46.05.69.04.97-.13.99-.4.04-.54-.98-1.48-1.94-2.04,0-.16-.01-.32,0-.48.34-.55,1.12-.61,1.85-.69.36-.04.71-.08.99-.18.14-.05.25-.12.34-.21.09-.09.15-.21.18-.36.04-.2.04-.44.03-.7,0-.25-.03-.52-.03-.74,0-.43.05-.86-.01-1.28-.02-.1-.03-.2-.06-.3h0s-.23-.19-.23-.19l-.18-.15c.01-.08.02-.16.01-.24,0-.08-.01-.17-.02-.25-.02-.17-.03-.33,0-.47l.35-.48,1.18-1.59c.08-.38.18-.67.28-.9.05-.12.11-.22.16-.32.28-.49.6-.79.9-1.5.49-1.15,1.37-1.58,2.07-1.93.32-.16.61-.3.8-.47.48.32.94.69,1.39.96.64.38,1.25.56,1.88.11.19-.14.38-.32.57-.59.09-.12.15-.24.2-.36.1-.24.14-.49.19-.73.03-.12.05-.24.09-.35,0-.02.12.02.23-.04.07-.04.14-.1.2-.24.02-.05.04-.12.05-.19.08-.44.05-.95.01-1.46-.03-.49-.07-.98-.01-1.42.42-.44,5.77,1.08,6.94.97.54-.05,1.3-.28,1.95-.65.16-.09.31-.19.45-.31.42-.33.72-.74.76-1.21.04-.44-.04-.85-.21-1.22-.02-.05-.06-.1-.09-.16-.08-.15-.17-.3-.28-.44-1.28-1.65-4.42-2.54-6.74-3.19-.24-.07-.46-.13-.68-.19-.43-.12-.82-.24-1.13-.35-.14-1.65.09-3.34,0-4.99,0-.02,0-.03,0-.04-.03-.43-.13-.85-.24-1.28-.2-.78-.43-1.58-.3-2.47.02-.16.05-.32.1-.49.45-1.55,5.08-3.98,5.64-5.88.13-.44.15-.82.04-1.17,0,0,0,0,0,0-.11-.35-.33-.66-.69-.94-.24-.19-.5-.32-.77-.4-.68-.2-1.44-.1-2.15.09-1.01.28-1.92.74-2.36.82-.12.02-.21.02-.25-.03.14-1.18-.31-2.81.23-3.85.14-.27.61-.54.89-.89.02-.03.05-.05.06-.07.05-.08.12-.18.18-.27,1.79-2.65,5.68-8,6.24-10.58.06-.27.06-.59.06-.94,0-.17,0-.35,0-.53,0-.36,0-.72.06-1.03.06-.31.16-.58.36-.77.1-.09.22-.16.37-.2.25-.07.53-.1.82-.11,1.26-.04,2.79.25,3.68-1.17.08-.27-.08-.8-.3-1.4-.09-.25-.2-.51-.31-.78-.16-.39-.32-.77-.46-1.11-.05-.12-.09-.24-.13-.35-.03-.1-.07-.2-.1-.28-.3-1.02-1.08-5.83-1.78-5.81-.37,0-.78.75-1.7.19-.92-.56-.97-1.35-.67-2.17.04-.1.08-.21.13-.31.19-.41.45-.83.71-1.23.13-.2.26-.39.39-.58.06-.09.12-.19.18-.27.04-.06.11-.12.16-.18.4-.46,1.06-.85,1.28-1.26h0s0-.01,0-.02c.14-.29.6-1.89.91-3.12.18-.7.3-1.27.29-1.41,0-.12-.03-.26-.05-.4-.15-.96-.59-2.27-1.34-2.69-.02-.01-.04-.04-.07-.05h0c-.18-.09-1.22-.43-1.44-.48.03-.28.2-.44.48-.48l.29-.43.67-.05c-.23-.92-.02-1.21-.48-2.4-.5-1.31-.52-1.44,0-2.88.54-.23,2.34-3.51,2.65-4.31ZM254.34,428.68c.14.49.28.98.42,1.46h0c-.14-.49-.28-.98-.42-1.46ZM226.35,420.65s0,0,0,0c0,0,0,0,0,0h0ZM253.5,435.73s-.08-.02-.13-.03c0,0,0,0,0,0,.05,0,.1.01.13.03.1.06.17.11.22.15-.05-.04-.12-.09-.22-.15ZM255.19,431.75c-.1-.38-.2-.76-.3-1.15,0,0,0,0,0,0,.11.39.21.77.31,1.16,0,0,0,0,0,0ZM279.55,437.15s.05-.01.07-.02c0,0,0,0,0,0-.03,0-.05.02-.08.02,0,0,0,0,0,0ZM279.89,437.05s0,0,0,0c-.04.01-.07.03-.11.04,0,0,0,0,0,0,.03-.01.07-.02.1-.04ZM280.19,436.92s0,0,0,0c-.04.02-.08.04-.12.06,0,0,0,0,0,0,.04-.02.08-.04.12-.06ZM280.37,436.82h0s.05-.03.07-.04c-.02.02-.05.03-.07.04ZM374.43,413.33c-.11-.07-.23-.13-.35-.18h0c.12.05.24.11.35.18h0ZM396.31,382.71c.04.07.06.13.09.18,0,0,0,0,0,0-.02-.05-.05-.11-.09-.18ZM403.52,380.69c-.74.39-2.49.66-3.05,1.56.15-.24.38-.43.65-.59.09-.05.18-.1.27-.15.13-.06.26-.12.4-.18.09-.04.18-.07.28-.11.56-.2,1.11-.36,1.45-.54.26-.14.51-.28.75-.43t0,0c-.24.15-.49.29-.75.43ZM404.85,379.9c-.08.05-.16.1-.24.15,0,0,0,0,0,0,.08-.05.16-.1.24-.15Z"/>
  <g>
    <path class="cls-2" d="M3.04,11.7v-1.36h4.13v1.36H3.04Z"/>
    <path class="cls-2" d="M12.35,15.76c-.77,0-1.44-.23-1.99-.7-.56-.46-.99-1.14-1.29-2.03-.3-.89-.45-1.98-.45-3.27s.15-2.37.45-3.25c.3-.87.73-1.54,1.29-1.98.56-.45,1.22-.67,1.99-.67s1.42.22,1.97.67c.55.45.98,1.11,1.28,1.98.3.88.45,1.96.45,3.25s-.15,2.38-.45,3.27c-.3.89-.73,1.57-1.28,2.03-.55.46-1.21.7-1.97.7ZM12.35,14.29c.39,0,.73-.15,1.03-.45.3-.3.54-.78.7-1.44.17-.66.25-1.54.25-2.64s-.08-1.97-.25-2.62c-.17-.65-.4-1.11-.7-1.4-.3-.29-.65-.43-1.03-.43s-.73.14-1.03.43c-.3.29-.54.75-.71,1.4s-.26,1.52-.26,2.62.09,1.98.26,2.64c.17.66.41,1.14.71,1.44.3.3.65.45,1.03.45Z"/>
    <path class="cls-2" d="M21.59,15.76c-.55,0-1.07-.12-1.55-.34s-.91-.57-1.27-1.03c-.36-.46-.64-1.04-.85-1.74-.21-.7-.31-1.52-.31-2.47,0-1.13.12-2.09.35-2.89s.55-1.45.96-1.96c.41-.51.87-.89,1.39-1.12.52-.23,1.07-.35,1.64-.35.65,0,1.21.12,1.68.37.47.25.87.54,1.2.9l-.98,1.12c-.21-.26-.47-.46-.8-.62-.32-.16-.66-.24-1.02-.24-.5,0-.96.15-1.38.45s-.75.8-1,1.5c-.25.7-.38,1.65-.38,2.86,0,.95.09,1.73.28,2.34s.45,1.07.8,1.37.75.45,1.2.45c.33,0,.64-.09.91-.28.27-.19.49-.45.65-.8.16-.35.24-.76.24-1.24s-.08-.87-.23-1.19c-.15-.33-.37-.57-.65-.74-.28-.17-.62-.26-1.03-.26-.33,0-.7.11-1.09.34s-.76.61-1.1,1.17l-.08-1.34c.23-.31.49-.58.78-.8.29-.22.6-.4.91-.52.32-.12.62-.18.9-.18.65,0,1.21.13,1.7.39.49.26.87.65,1.14,1.18.27.52.41,1.18.41,1.97s-.16,1.41-.48,1.97c-.32.55-.73.99-1.25,1.3s-1.09.47-1.71.47Z"/>
  </g>
</svg>