<?xml version="1.0" encoding="UTF-8"?>
<svg id="a4" xmlns="http://www.w3.org/2000/svg" viewBox="0 0 600 500">
  <defs>
    <style>
      .a4 {
        fill: #5d4c39;
      }

      .cls-2 {
        fill: #c9caca;
      }
    </style>
  </defs>
  <g>
    <path class="a4" d="M420.66,324.62c.32-.45.33-7.8.28-11.47-.01-.85-.03-1.5-.04-1.82-.31-6.25-1.83-12.12-3.51-18.16-3.28-11.85-7.83-22.91-13.35-33.84-.58-.1-1.12-.26-1.62-.49-3.51-1.56-5.19-5.95-5.61-9.62-.16-1.4.14-2.82-.11-4.23-.17-.96-1.27-2.5-2.24-3.97-.12-.18-.24-.37-.36-.55-.23-.36-.45-.71-.63-1.05-.46-.83-.72-1.55-.52-1.99h0c.17-.38.24-.56.25-.66.02-.16-.09-.09-.18-.16-.03-.03-.06-.06-.07-.14-.05-.24-.17-.82-.31-1.52-.06-.28-.12-.57-.18-.87-.03-.15-.06-.3-.09-.45-.23-1.2-.44-2.33-.38-2.45l-.23-.22.04.04.19.18s0,0,0,0h0c.57-1.3-.06-1.63-.37-2.48-.04-.12-.08-.26-.11-.4-.11-.57.09-1.32,0-1.93-.3-2.11-.33-3.72-.48-5.78-.09-1.17-.47-1.36-.48-1.45-.06-.62.09-1.33,0-1.93-.17-1.18-.24-2.38-.56-3.55l-.41-.3c.42-3.03-.67-8.07-2.38-10.79-.28-.45-.77-.2-.92-.33-.1-.08-.32-1.64-.54-2.37-.41-1.3-2.1-8.33-2.46-8.63-.27-.23-1.21.09-1.39-.04-.04-.03-.11-.25-.21-.56-.17-.55-.43-1.4-.79-2.02-.1-.18-.21-.33-.33-.46-.18-.19-.38-.31-.6-.33h0c.04-.31-.05-.67,0-.96.46-2.59,1.2-4.76,1.93-7.22.09,0,.19.02.31.02.8.01,2.09-.19,2.5-.58.1-.1.59-.7,1.09-1.33s1.01-1.28,1.15-1.48c.5-.73.7-1.34.67-1.83-.02-.37-.18-.67-.42-.92-.49-.49-1.36-.73-2.34-.75-.32,0-.66.01-1,.05-.17.02-.34.05-.51.08v-.48c1.88-1.12,4.47-2.75,3.85-5.3-1.79-.63-3.74.93-5.08.98-.57.02-.65-.49-.69-.5-.04-.31.05-.67,0-.96-.85-4.71.62-6.85,1.43-11.33.63-3.47.93-7.03,1.53-10.51,4.25-4.95,8.42-10.14,9-17.01.09-1.05-1.14-1.77-1.32-2.39-.16-.56.6-2.38.43-3.77-.17-1.38-1.32-2.51-1.45-3.37-.4-2.71.7-5.28.49-7.96-1.53-.53-1.38.77-1.92.96.07-.45-.1-1.05,0-1.44.01-.06.3.04.48-.96.11-.57-.08-1.32,0-1.93.03-.19.95-1.45.48-2.41v-3.37c.45-1-.43-2.13-.48-2.41-.22-1.26-.28-2.69-.48-3.85l.43-.28c.13-.71.04-1.42.05-2.12.03-1.74-.26-4.21,0-5.78,0-.03.34-.09.42-.32.53-1.67-.75-.99-.9-1.13-.13-.13.26-1.05-.24-.97-.72.34-1.44.65-2.17.97-.08-2,.78-6.03-2.16-5.8-.18.01-2.56.88-2.65.98h0c-2.04-1.97-4.34-2.54-7.01-2.47-.38,0-.77.03-1.17.07.25-1.27.06-1.71-.22-1.85-.02,0-.04-.01-.06-.02-.02,0-.03-.01-.05-.02-.01,0-.02,0-.04,0-.06-.01-.12-.02-.19-.02-.11,0-.21.02-.29.01-.05,0-.09-.01-.12-.03-.05-.05.16-.59-.09-.85-.07-.07-1.57-.99-1.66-1.02-1.98-.64-8.37,3.85-8.82,3.31-.15-.18,0-1.16-.78-1.4-2.67-.8-5.1,1.78-7.42,2.37h-.48s0,0,0,0c0,0,0,0,0,0,.35-.84,1.03-2.19,1.34-3.04.04-.12.08-.23.11-.33h.96s0-1.92,0-1.92c-.92-.27-.88.43-.96.48-.16.08-.36.17-.57.26-.92.38-2.21.79-2.7,1.29-1.04,1.07-1.94,2.28-2.84,3.53-1.5,2.08-3,4.26-5.2,6.01-3.87,3.08-7.71,6.31-11.15,9.91-2.06,2.16-3.99,4.46-5.69,6.95-1.63,2.38-2.17,3.96-2.9,6.03-.24.69-.51,1.43-.84,2.27-.33.84-.7,1.79-1.1,2.83-2.79,7.3-6.98,18.97-7.9,25.16h0s-3.61.96-3.61.96c-.29-.98,1.33-3,1.21-3.61-.23-1.14-1.8-.01-2.41-.24-.35-.86-.73-2.93-1.14-5.11-.34-1.87-.7-3.83-1.04-5.17-.17-.67-.34-1.19-.51-1.47-.59-1-1.04-2.28-1.45-3.67-.08-.28-.16-.56-.24-.85-.8-2.86-1.51-6.02-2.95-8.17-.08-.12-.15-.22-.23-.32-.15-.19-.31-.34-.46-.47-.2-.17-.4-.27-.59-.35-.1-.04-.2-.07-.3-.09-.12-.02-.23-.04-.33-.04-.06,0-.13,0-.19,0h0c-.16,0-.31.02-.42.02-.12,0-.21-.01-.26-.06-.19-.17-.3-.79-.41-1.46-.11-.73-.2-1.52-.32-1.9-.09-.28-.26-.6-.47-.94-.63-1.04-1.65-2.3-2.1-3.22-.83-1.67-1.36-3.59-2.04-5.34-.12-.31-.23-.62-.37-.92-.13-.29-.3-.61-.49-.94-.12-.22-.26-.45-.41-.69-1.17-1.9-2.98-4.29-4.73-6.45-.23-.28-.46-.57-.68-.84-.33-.4-.64-.78-.95-1.15-.36-.44-.71-.85-1.03-1.24-.35-.41-.67-.8-.95-1.13-1.7-2-3.9-3.48-5.78-5.29-1.56-.41-2.85-.89-4.49-.63h0c-.21.03-.29.4-.33.4-.64.07-1.35-.04-2.02-.05-.22,0-.44,0-.64.04-.79.12-1.01.74-1.51.9-.51.16-1.4-.04-1.57.11-.26.22-1.68,5.69-1.85,6.58-.83,4.32-.75,8.57-.1,12.88.11.73.59,1.82.82,2.66.08.28.13.53.13.72,0,.33,0,.62,0,.89,0,1.91.04,2.69.49,5.13h0c.21,1.15.44,2.29.69,3.44.74,3.44,1.58,6.87,2.19,10.3.07.39.13.97.17,1.63,0,.16.02.33.02.5,0,.12,0,.25,0,.37-.14.31-.44.46-1.03.38-.07-.93-.87-2.75-1.07-3.61-.75-.24-2.79,6.93-2.85,6.94-.55.12-.03-5.9-2.6-5.75.11.89-.67,2.79-1.71,4.84-1.72.04-3.87-3.51-5.44-3.51-.76,0-1.62,2.93-2.25,3-3.37.39-1.81-1.04-2.66-1.89-.13-.13-1.57.01-2.13-.04-.78-.07-2.21,0-2.36-.03-.72-.13-.41,3.85-2.24,4.39-1.97.58-.16,4.75-2.68,4.78h0c0-.1,0-.22,0-.34,0-.12.01-.24.02-.37.03-.63.06-1.34-.25-1.75-.06-.08-.14-.15-.23-.21-.06-.04-.09-.17-.1-.36-.04-.6.1-1.83.26-3.05.05-.41.11-.81.16-1.19.07-.57.14-1.09.18-1.47.04-.38.04-.63,0-.66-.58-.44-1.22-4.36-1.98-4.76.08-.54-.12-1.19-.43-1.72-.04-.07-.07-.15-.12-.21-.13-.19-.27-.35-.42-.47h0c-.06.02-.12.03-.19.03-.18,0-.39-.09-.61-.18-.23-.1-.47-.21-.69-.27-.15-.04-.29-.07-.42-.05-.01-.15-.02-.32-.02-.48s0-.33.02-.48c.05-.39.58-.85.51-1.68-.04-.46-.91-1.71-1.26-2.15-.82-1.05-1.73-2.09-2.68-3.13-.85-.94-1.74-1.87-2.62-2.81-1.25-1.32-2.47-2.65-3.58-3.98-.6-.71-1.17-1.43-1.68-2.15-.85-1.21-1.63-2.47-2.38-3.75-2.05-3.47-3.96-7.05-6.91-9.84-.93-.88-1.97-1.68-3.14-2.38-.93-.55-5.49-2.92-6.66-3.26-.08-.02-.14-.04-.19-.04-.16-.01-.32,0-.48.02-.32.04-.64.15-.94.31s-.6.35-.87.57c-.41.33-.77.71-1.06,1.08-.21.26-.22.64-.22.83,0,.06,0,.11-.02.12-.08.08-1.28.23-1.95,1.18-.43.62-.41,1.23-.71,1.7-.3.47-.8.79-1.16,1.31-.12.17-.22.37-.3.6-.07.22-.13.44-.18.66-.74,3.28.9,6.61,1.4,9.73.21,1.31.41,2.58.62,3.81.92,5.36,2.08,10.12,5.16,15.2h0l.05,1.15c.03.09.06.14.1.18,0,.01.02.04.02.04,0,0,.02,0,.02.01.04.03.08.06.12.06h0s.09,0,.12,0c.02,0,.04,0,.05,0,.6,2.16.88,4.04.96,6.26h0c0,.09,0,.19,0,.29s0,.19-.01.29c0,.19,0,.38.07.57l.43.3c-.06.27,0,.65,0,.96-.08,3.05-.34,13-.44,16.09-.47.02-.97.03-1.44,0-.42-.03-1.22.1-1.44,0-.29-.13-.99-2.08-2.4-1.44.04.93-1.21,3.08-2.12,2.86-.48-.11-.8-1.25-1.95-.92-.89.25-.95,1.9-1.23,2.39-.02.03-.45.46-.48.48-1.28.78-1.44.9-2.64,1.95-.94.83-1.58.1-1.21,2.39h-.95c-.17-.58-.29-1.42-.49-1.93-1.77-.25-1.66-1.79-2.54-2.79-.64-.73-.32,0-1.06-1.55-2.23-4.69-3.21-12.82-5.53-16.39-1.34-2.06-1.74-5.12-2.71-7.4-1.11-2.62-3.3-6.71-6.5-6.73l.24,3.37c-.73-1.27-2.74-2.81-3.37-3.85-.65-1.08-.98-3.02-1.58-4.19-2.24-4.36-8.9-9.62-14.04-8.79.22,1.22-.91,1.75-1,2.86-1.89-.02-2.74-2.15-4.55-2.41-.75-.11-.83,0-.74.74l.73,2.16c-.99-.55-2.37-1.07-3.46-1.35-.74-.19-1.46.02-2.07-.09-.03,0,.1-.42-.48-.48-.16-.02-.32.02-.48,0-.34-.44-.84-.71-1.4-.89-.94-.31-2.06-.37-2.93-.55v.04c-2.23-.26-4.58-.12-6.85-.13-.22,0-.43,0-.63.02-1.25.09-2.36.43-3.6.37-.21,0-.42-.03-.63-.06-.47-.07-.88-.29-1.33-.33-.15-.01-.31-.01-.48.02-.93.18-1.16,1.06-1.99,1.16-.28.03-.62-.02-1.08-.21-.08-.03-.17-.09-.28-.17-.72-.52-1.91-1.86-2.68-2.09-.3-.09-.66-.11-1.03-.11s-.74.03-1.07.04c0,0-.05.67-.05.68-.23,3.09-2.97,4.86-3.65,7.67-.1.4-.15.83-.15,1.28v.96h-.96s-.56-.05-.96.23c-1.16.82-2.27,2.11-1.93,3.62-.12,2.71.17,5.49,0,8.19-.02.35.03.76.03,1.11,0,.12,0,.23-.03.33,1.08.76,1.72,5.99,1.88,7.34.03.26.13.59.25.96.38,1.11,1,2.55.76,3.26.15.23.26.45.34.69.08.23.12.48.14.76.06,1.04-.13.9-.48,1.45l-.06.68-.42.29c-.09.93.12,1.99,0,2.89,0,0,.1.08.2.15.1.08.2.15.2.15.55,6.29,3.29,12.18,4.55,18.24.08.4.16.81.23,1.21-.23-.22-2.82-1.7-3.83-1.72-.23,0-.38.07-.39.26l-.05.68s-.3.2-.4.26c-.04.03-.07.07-.08.12-.09.27.08.87.43,1.71.07.17.15.34.23.53,2.1,4.59,8.41,14.28,9.98,15.01.05.02.11.03.19.03.15,0,.34-.04.52-.04.09,0,.17,0,.25.02l-.48,2.89s.02.06.03.13c.03.23.08.7.42,1.09.34.39.99.76,1.48,1.19,1.22,1.06,2.54,1.91.46,1.93-.14,0-.29,0-.46,0h0s0,.03,0,.06c-.07.88,1,3.38,2.49,6.28.27.53.56,1.07.85,1.61.15.27.3.55.45.82.3.55.61,1.1.93,1.65.16.27.31.54.47.81,2.37,4.05,4.78,7.59,5.4,7.55,1.33-.1,2.65,2.57,2.89,3.85l.48.48c.95.18,2.72,1.05,2.89,2.17.09.6-.12.81-.46.83-.07,0-.14,0-.22-.01-.15-.02-.32-.06-.49-.12-.4-.13-1.51-1.41-1.71-1.9h-.96c0,.16.02.33,0,.48-.06.46.08,1.01,0,1.44l.43.29c.11.54.07,1.09.05,1.63-.01.32.02.64,0,.96l.4.31c.19,1.17.97,2.29,1.33,3.41.05.16.09.32.13.48.11.56-.4.58-.41.61-.08.28.09.73,0,.96l.43.28s0,0,0,.03c0,.13.05.65.05.66.01.15.04.3.07.45.33,1.59,1.59,2.65,2.11,4.25.19.58.28,1.23.2,2-.15.05-.28.09-.39.11-.11.02-.21.03-.29.02-.49-.03-.47-.5-.73-1.05-.11-.24-1.22-.89-1.91-1.03-.23-.05-.41-.04-.5.07-.53.64-.6,3.57-.4,4.5.4,1.84,2.92,2.94,3.54,4.16.81,1.59-.66,3.1,1.91,4.86,1.29.87,3.28,1.16,4.73,1.56-.89,1.1-1.43,2.72-1.7,4.07.73.52,1.78,1.2,2.84,1.62.64.26,1.27.42,1.84.42.79,0,4.21-1.28,4.57-.96,1.08.93-3.99,2.82-4.33,3.13-1.99,1.75-.38,3.02-.07,4.41.03.14.05.3.06.46.09,1.13-.15,2.6,1.27,3.02.04.01.08.02.13.02.1.01.23.01.37.01.29,0,.64-.02.98-.02.59,0,1.13.07,1.18.41.02.1,0,.21-.08.35-.25.48-1.14.78-1.72,1.22-.08.06-.16.13-.23.2-.25.27-.71.88-1.15,1.51-.43.63-.85,1.28-1.01,1.63-.35.75-1.27,3.4-1.22,4.09.12,1.66,2.18,2.36,1.9,3.79-.46,2.38-3.33,3.47-3.77,4.65-.03.08-.05.16-.05.24,0,.06.01.17.05.33.26,1.12,1.4,4.42,1.66,4.73.62.72,1.76.99,2.73.98.14,0,.27,0,.4-.02-.1,3.88-.92,6.93-3.15,10.09-.3.42-1.01.96-1.39,1.38-.13.14-.21.27-.24.38,0,.02,0,.05,0,.1.1.72,1.3,4.57,1.4,5.63.2,2.21-.03,4.35-.47,6.49,2.07-.88,2.5-4.26,4.65-4.75.2-.04.39-.08.56-.09.18-.02.34-.02.49,0,4.63.39-.24,13-.67,14.46-.59,2.04-1.26,4.7-1.31,7.08-.01.79.04,1.55.19,2.25.18.84.94,1.69,1.42,2.4.16.24.29.46.35.65.05.14.07.29.08.43,0,0,0,0,0,0,.02.42-.07.84,0,1.16-1-.26-1.23.78-1.65,1.48-1.61,2.7-2.96,5.94-2.68,9.12,1.72.4,1.36-.73,2.39-1.7,1.03-.96,2.87-2.22,4.34-2.15.02.05.54.14.73.45.95,1.56-.57,2.91-.73,4.37-1.15-.26-.93.53-1.43,1.21-.55.75-2.58,3.18-2.42,3.84.25,1.02,3.19,1.5,4.11.25.27-.36.16-.9.22-.97.69-.78,2.51-2.41,3.37-3.13.43-.35.58-.79,1.16-.76.08,0,.18.02.28.04-.19.49-.31.98-.37,1.47-.28,2.12.34,4.25-.84,6.22-.52.87-2.91,3.18-3.06,3.68-.43,1.45.75,3.49.91,5,.02.03.07.03.14.01.45-.13,1.77-1.3,2.1-1.39.75-.21,1.6.08,2.29-.11.37-.11.64-.63.96-1.17.36-.61.78-1.23,1.47-1.22.09,0,.18,0,.27.03-.02,1.13-.07,2.25.05,3.34.07.66.2,1.31.44,1.95l2.89-1.44c.39,1.7-1.11,2.7-.96,4.33,1.2-.74,2.32-2.44,3.83-2.46.22,0,.44.03.67.1.45.14.71.82,1.22.89.07.01.15,0,.23,0,.53-.11.8-1.24,1.74-.94.32.34-1.85,5.73-2.31,6.59-1.99,3.68-4.98,5.71-6.13,10.24-.17.66-.33,1.25-.22,1.94,1.68.34,2.48-1.39,3.85-1.44.33,2.7,1.38,3.35,3.56,3.38.16,0,.32,0,.49,0,.17,0,.34,0,.52-.02.48-.02.99-.52,1.4-.43.54.11,1.21,1.33,2.04,2.39s1.84,1.96,3.07,1.42l-.24-5.29,2.42,2.89c.08.02.15.02.22.01.5-.08.9-.87,1.68-.99.31-.05.69-.07,1.09-.05,1.2.05,2.56.48,2.56,1.74,0,.62-.57,1.2-.85,1.79-.09.2-.15.4-.15.61.02,1.03.83,3.2.96,4.35.13,1.18-.06,2.42.01,3.6.12.03.23.05.33.06,1.61.12,2.4-2.13,3.5-2.72.42-.22.71-.32.91-.33.62-.03.51.75,1,1.32.37.43.96.9,1.38,1.43.26.32.45.66.51,1.03.21,1.27-2.61,2.98-2.36,4.5,1.62.06,2.52,1.13,3.27,2.31.58.92,1.08,1.9,1.77,2.53.78.71,1.99.78,2.67,1.67.14.53-.96,1.38-1.55,2.25-.2.29-.34.59-.37.87.16-.04.3-.06.41-.06h0c-.11,0-.24.02-.41.06-.03.33.44,1.8.53,1.87.24.19,3.51.76,4.42,1.11.48.19.81.75,1.12.83.9.21,2.54-2.07,4.03-1.41-.29-.31-.3-1.09-.57-1.35-.07-.07-1.52-.93-1.65-.98,0,0,0,0,0,0,3.58,1.5,5.63,5.42,5.22,9.1.74-.19,3.5-1.71,4.24-1.24,2.46,1.56,6.78,1.27,9.5,2.19,2.36.8,4.11,2.02,6.41,1.92.33-.01.67-.06,1.02-.13,2.83-.59,4.49-3.99,7.57-4.36-.07.37-.22,1.65-.39,3.26-.06.54-.12,1.12-.18,1.71h-.37c.02.05.03.12.03.2,0,.08,0,.16-.02.25-.02.18-.04.36-.01.51h0c.08-.01.14-.03.19-.05.03-.01.07-.03.1-.04-.08.82-.16,1.64-.23,2.43-.2,2.16-.33,4.01-.29,4.46,0,.04,0,.07.02.09.28.7.73,1.27,1.38,1.68,3.21-1.79,5.81-3.99,8.46-6.64.17-.3.34-.64.48-.96.6-1.37.39-2.35,1.92-2.96-.16,2.14-.75,5.93.31,7.82.9,1.61,3.95,1.56,5.93,1.76.28.03.54.06.77.11.11.02.23.03.34.03.34,0,.68-.08.93-.06.34.03.52.23.39,1,.47.05.97-.04,1.44,0,1.16-.87,2.58-1.04,4.05-1.03,1.1,0,2.23.12,3.31.11.18,0,.36,0,.53-.02.18,0,.35-.02.52-.04.36-.04.72-.1,1.08-.19,2.53-.59,5.01-2.21,6.61-4.16.37-.46,1.27-2.32,1.48-2.41.63-.26,1.19-.38,1.67-.39,3.41-.06,3.46,5.47,2.72,7.69.36.06.72.1,1.09.1,2.54.03,5.02-1.36,5.55-4.21-.54,2.92,2.34,4.96,4.57,4.87h0c.02-.45-.19-1.05-.32-1.58-.08-.32-.12-.62-.07-.85.05-.22.42-.29.42-.31,0-.32-.01-.64,0-.96h-.96c.14-1.63-.62-2.98.96-3.85.22-.12.9-.41,1.54-.65.16-.06.32-.11.47-.16.3-.1.56-.17.72-.18.08,0,.14,0,.16.02.15,1.25-1.3,2.07-1.45,3.12-.09.63-.38,2.11.51,2.22.13.02.28,0,.46-.04.11-.13,2.7-.56,3.35-.95,1.47-.87,2.86-2.79,3.93-4.41.36-.54.68-1.05.95-1.48.78,1.92.81,3.9,1.77,5.7.01-.01.03-.02.04-.03.69-.57,1.21-1.28,1.55-2.06.34-.78.51-1.64.49-2.52.02,1.27,1.39,9.48,2.59,9.12.01,0,.03,0,.04-.02,1.28-.8,1.74-2.18,2.05-3.67.4-1.92.57-4,1.92-5.22.99-.89,1.99-.45,3.18-.3.26.04.54.06.82.04.71-.03,1.48-.25,2.35-.95.31.36-.8,1.28-.26,1.43,4.48,1.31,8.48,3.94,13.25,3.9.32,0,.64-.02.96-.04.08,0,.16,0,.25,0,.18,0,.37.03.52.03.08,0,.14,0,.19-.03.14-.05.4-.36.7-.62s.65-.48.98-.35l.26.96c.33.07.62-.02.9-.2.83-.54,1.5-1.88,2.28-2.12.29-.09.71-.19,1.2-.29,1.47-.31,3.57-.64,4.51-.73,2.76-.25,5.75-.22,7.9-2.71.67-.77,1.04-3.05,1.34-5.17.3-2.12.52-4.07.87-4.17.43-.13.84.23,1.27.75.84,1.05,1.73,2.78,2.93,2.7.12,0,.24-.03.37-.08.08-.41.41-.47.66-.48.1,0,.19,0,.24,0,.03,0,.05,0,.05-.01.32,0,.64,0,.96,0,1.96.04,3.02.97,4.91,1.01.27,0,.56,0,.87-.04,1.08-.13.9-.48.96-.48.24-.03.48-.02.72,0,.24.01.49.02.72,0,.32-.03.64-.02.96,0s.65.02.96,0c.01-.32-.02-.64,0-.96.13-2.71-1.23-3.96-1.44-6.26-.04-.41-.06-1.07,0-1.44.45-2.64,2.72-1.75,2.89-1.93.91.29,1.02.39,1.55,1.1.45.59.74,1.63.86,1.79.02.02.23.08.46.07.23-.01.46-.1.51-.38.09-.54-.11-.93.07-1.1.11-.1.35-.12.89-.04.01.09.03.2.06.31.35,1.65,1.77,5.04,3.14,5.44.04.01.11.02.19.01.55-.02,1.8-.39,1.89-.48.01-.01.03-.08.04-.17.04-.34.07-1.11.07-1.81,0-.7-.03-1.32-.09-1.37.71-.73,1.04-.54,1.44-1.69.5-1.45,1.16-3.11,1.45-4.57.09-.43-.07-1,0-1.44.08-.49.36-1.81.87-2.08.04-.02.09-.04.13-.04.13-.02.28.04.45.2.71.71.75,2.19.63,3.82-.05.7-.14,1.42-.21,2.13-.15,1.41-.26,2.73-.03,3.58h0c1.33-.62,3.8-6.6,2.75-6.64.47.02.77,1.37.96,2.82.19,1.44.27,2.97.3,3.33h0c1.29-.57,1.93-1.52,2.36-2.75.14-.41.26-.85.37-1.32.65-2.78,1.19-10.08,1.08-13.49,0-.23-.02-.44-.03-.63.98.26,2.52.26,3.37.48h0c.67.17.94.99,1.61,1.01.1,0,.2-.01.32-.04.07-.82-.04-1.71-.04-2.55,0-.28,0-.56.04-.82.13-1.08.27-.4,0-1.93-.06-.33.02-.74.03-1.1,0-.12,0-.24-.03-.34-.12-.61-.48-.45-.48-.48-.12-.73.08-1.64,0-2.41-.02-.15-.05-.25-.1-.32-.14-.21-.37-.14-.38-.16-.05-.14.64-2.51.89-3.19.04-.1.06-.16.08-.18.98-1.17,2.75,2.52,3.64,2.86.32.12.56.16.74.13.72-.12.44-1.32.43-2.27,0-.08,0-.16,0-.23,1.48.16,1.55,1.38,2.94,1.49.2.02.42,0,.68-.03.24-.03.43-.08.58-.13.15-.06.26-.12.34-.2.04-.04.07-.08.1-.12.28-.46-.26-1.16-.31-1.74-.13-1.76-.24-3.51-.56-5.24-.11-.58-.24-1.15-.41-1.73.03-.03.09-.03.19,0,.38.08,1.22.45,1.94.49.55.03,1.03-.13,1.21-.75.48-1.67-.32-2.23-1.1-3-.26-.26-.52-.54-.73-.89-.45-.75-.75-1.53-.89-2.3-.23-1.29,0-2.6.81-3.85.32-.48.95-.11,1.01-.56.08-.56.06-1.2.02-1.86s-.08-1.33-.04-1.95c.03-.49.52-.99.43-1.4-.09-.45-1.8-1.76-2.3-2.53-.4-.61-1.69-3.58-1.51-4.03l-.43-.29-.05-.68c.09-.45-.13-1.76,0-1.93v-.96s.96,0,.96,0c.05-.5-.13-.96.22-1.47.38-.55.92-.33,1.23-.46.04-.02.06-.53.69-.5.15,0,.29.04.43.09.42.15.82.43,1.28.4-.07-.17-.46-1.94-.49-2.18-.05-.53.03-.95.14-1.35s.26-.79.35-1.28c.11,0,.24,0,.36,0,.25-.01.5-.04.74-.04.12,0,.23,0,.34.03h0l.56-2.11.41-.3c-.07-.65.03-1.33.04-1.99,0-.22,0-.44-.04-.66-.13-.91-.85-1.53-.98-2.47-.02-.13-.02-.27-.01-.42.02-.31.12-.54.25-.71.4-.51,1.18-.51,1.49-.95ZM201.41,406.88h0c.06,0,.12.01.17.03h0s-.11-.02-.17-.03ZM391.28,229.26l.03.15-.03-.15h-.06s.06,0,.06,0ZM353.89,78.59s-.1.05-.16.08h0c.06-.03.12-.06.16-.08h0Z"/>
    <path class="a4" d="M134.25,205.66l-.24.48c.14.03,1.4,2.2,1.44,2.41l.45-.27c.38-1.63-.44-1.92-1.66-2.62Z"/>
  </g>
  <g>
    <path class="cls-2" d="M4.39,13.73v-3.46H1.23v-1.34h3.16v-3.47h1.39v3.47h3.17v1.34h-3.17v3.46h-1.39Z"/>
    <path class="cls-2" d="M14.02,15.76c-.77,0-1.44-.23-1.99-.7-.56-.46-.99-1.14-1.29-2.03-.3-.89-.45-1.98-.45-3.27s.15-2.37.45-3.25c.3-.88.73-1.54,1.29-1.98.56-.45,1.22-.67,1.99-.67s1.42.22,1.97.67c.55.45.98,1.11,1.28,1.98.3.88.45,1.96.45,3.25s-.15,2.38-.45,3.27c-.3.89-.73,1.57-1.28,2.03-.55.46-1.21.7-1.97.7ZM14.02,14.29c.39,0,.73-.15,1.03-.45.3-.3.54-.78.7-1.44.17-.66.25-1.54.25-2.64s-.08-1.97-.25-2.62c-.17-.65-.4-1.11-.7-1.4-.3-.29-.65-.43-1.03-.43s-.73.14-1.03.43c-.3.29-.54.75-.71,1.4s-.26,1.52-.26,2.62.09,1.98.26,2.64.41,1.14.71,1.44c.3.3.65.45,1.03.45Z"/>
    <path class="cls-2" d="M22.21,15.76c-.66,0-1.22-.13-1.7-.38-.47-.25-.87-.55-1.2-.89l.98-1.15c.21.27.48.48.81.64.33.16.66.24,1.01.24.5,0,.96-.15,1.38-.45s.75-.8,1-1.5.38-1.65.38-2.85c0-.95-.09-1.73-.28-2.34s-.45-1.07-.79-1.36c-.34-.29-.74-.44-1.21-.44-.33,0-.64.09-.91.27-.27.18-.48.44-.64.78s-.23.76-.23,1.25.07.87.21,1.2c.14.33.35.58.64.75.29.17.63.26,1.04.26.33,0,.7-.12,1.09-.35s.76-.62,1.1-1.17l.08,1.36c-.22.31-.48.58-.77.8-.3.22-.6.39-.91.51s-.61.18-.91.18c-.65,0-1.21-.13-1.7-.39-.49-.26-.87-.65-1.14-1.18s-.41-1.18-.41-1.97.16-1.41.48-1.97c.32-.55.74-.99,1.26-1.3.52-.31,1.09-.46,1.7-.46.55,0,1.07.11,1.55.34.49.22.91.57,1.27,1.03s.64,1.04.85,1.74c.21.69.31,1.51.31,2.46,0,1.12-.12,2.08-.35,2.89s-.56,1.46-.97,1.97c-.41.51-.88.88-1.39,1.12-.52.24-1.05.36-1.62.36Z"/>
  </g>
</svg>