<?xml version="1.0" encoding="UTF-8"?>
<svg id="a4" xmlns="http://www.w3.org/2000/svg" viewBox="0 0 600 500">
  <defs>
    <style>
      .a4 {
        fill: #5d4c39;
      }

      .cls-2 {
        fill: #c9caca;
      }
    </style>
  </defs>
  <path class="a4" d="M430.28,317.61c-.31-2.05.75-4.12.32-6.15-.6-2.8-.05-5.38-.45-8.17-.36-2.49-1.3-5.33-1.45-7.96-.15-2.61-1.03-2.74-1.21-5.57,0-.09-.02-.2-.03-.31-.02-.23-.05-.44-.08-.61,0,0,0,0,0,0-.03-.17-.52-1.08-.65-1.2-.04-.03-.07-.07-.1-.11,0,0,0,0,0-.01-.03-.05-.08-.1-.09-.17h0c-.37-1.58-6.62-11.71-8.33-13.82-1.61-1.99-16.3-19.53-24.71-27.37-5.13-4.79-4.8-9.77-6.4-16.27-.53-2.18-2.04-5.47-2.25-7.41-.14-1.3-.06-2.97-.03-4.63.03-1.67.02-3.33-.32-4.63-.16-.62-.82-1.99-1.79-3.76-.14-.25-.28-.51-.43-.78-.6-1.07-1.28-2.26-2.02-3.51-.55-.93-1.13-1.89-1.72-2.85-1.38-2.24-2.82-4.5-4.12-6.42-.19-.27-.37-.54-.55-.8-1.61-2.33-2.94-4.04-3.55-4.37-1.15-.63-1.68-.92-2-1.17-.27-.21-.4-.38-.62-.7-.09-.13-.2-.27-.33-.46-.21-.27-.48-.62-.88-1.07-2.05-2.34-4.48-4.31-7.21-5.82-.76-.42-1.96-.57-2.47-.94-.56-.41.07-1.16-.19-1.67-.2-.39-2.7-2.16-3.3-2.52-.61-.36-1.24-.74-1.87-1.12-3.15-1.91-6.43-4.04-9.51-6.24-1.23-.88-2.42-1.77-3.56-2.66-.34-.26-.53-.67-.77-1.06-.12-.19-.25-.38-.41-.53-.17-.15-.36-.28-.62-.35-.08-2.66,2.29-3.95,2.78-6.63.52-2.82-.66-1.83-.85-2.05-.14-.17.1-1.46,0-1.93-.59-.64-3.03,2.48-3.62,2.89-1.13.25-.8-.98-.62-1.59.87-2.98,4.48-7.04,5.56-10.35.25-.77.8-2.52.58-3.19-.22-.66-1.16-.62-1.33-.85-.53-.73,1.73-5.79,2.1-7.15.25-.93.62-4.58.78-4.76.13-.15,1.2-.08,1.89-.76.41-.4,2.94-5.48,3.3-6.35,1.08-2.69,2.63-11.11.74-13.2-.31-.34-1.08-.38-1.19-.82-.25-1.02.27-2.49-.08-3.68-.27-.91-1.93-1.73-2.44-2.87-.91-2.06-.62-5.09-1.46-7.22-.38-.96-1.02-1.43-.84.12-.04-.05-.88.21-.98-.3-.38-1.95-.18-4.92-.59-7.05-.55-2.85-2.01-4.67-2.66-6.99-.75-2.67-.69-7.97-1.82-10.23-1.08-2.16-2.21.43-3.14-.23-1.55-1.25-.12-4.37-2.16-4.63-2.45-.31-3.94,3.04-5.54,4.37-.82.68-2.55,1.55-3.61,1.46-1.47-.12-1.49-1.77-2.17-2.2-2.39-1.5-3.57,2.92-5.08,3.63-1.04.48-.56-1.6-1.67-2.17-3.55-1.82-4.55,2.94-4.84,5.55-1.49.37-.87-1.25-1.41-2.1-.48-.75-1.55-.78-2.3-.45-1.82.8-6.04,7.84-7,9.93-.23.5-.35,1.67-.42,1.73-.36.32-2.73-.3-3.83.27-.64.33-.83,1.4-1.47,1.9-1.47,1.17-4.42,1.71-5.52,2.68-1.28,1.12-7.64,10.61-8.68,12.54-2.98,5.5-4.47,11.45-6.28,17.38-.25.81.11,1.72-1.19,1.44-.19-.48-.41-.96-.65-1.46-1.68-3.45-4.34-7.25-5.03-10.95-.17-.91-.22-1.6-.26-2.21-.05-.73-.09-1.35-.32-2.1-.19-.62-.5-1.32-1.06-2.25-.71-1.18-1.48-2.2-2.29-3.1-.61-.68-1.23-1.31-1.87-1.9-.85-.8-1.71-1.54-2.57-2.31-.21-.19-.43-.38-.64-.58-.85-.78-1.68-1.61-2.46-2.54-.16-.19-.3-.37-.44-.56-.82-1.1-1.31-2.12-2.35-3.24-.17-.19-.36-.38-.57-.57-.3-.28-.71-.61-1.22-.97-.67-.48-1.5-1.02-2.45-1.59-1.54-.94-3.4-1.97-5.35-3-1.04-.55-2.1-1.09-3.17-1.62-.45-.23-.91-.45-1.36-.66-1.07-.52-2.13-1.01-3.13-1.46-.29-.13-.57-.25-.85-.38-1.11-.49-2.15-.92-3.07-1.26-.23-.09-.45-.17-.67-.25-.43-.15-.82-.28-1.18-.39-.36-.11-.67-.19-.95-.24-.18-.04-.37-.07-.55-.1-.3-.05-.6-.1-.9-.13-.17-.02-.34-.03-.5-.04-.67-.03-1.33.04-1.92.31-.18.08-.88.69-1.61,1.39-.73.69-1.51,1.48-1.86,1.92-.1.12-.16.22-.18.28-.15.45-.24.99-.27,1.55,0,.11-.02.22-.02.34-.02.91.1,1.86.39,2.63.07.19.15.37.24.54.12.21.33.38.52.51.19.13.36.21.38.26h0c.42.91.74,1.98,1.1,3.05.24.72.5,1.43.81,2.11.32.67.69,1.3,1.16,1.83.24.27.5.51.79.73-.07.35-.05.65.03.91.12.4.37.73.64,1.04.18.21.37.41.54.62.08.1.16.21.23.32.25.4.47.81.7,1.22.23.41.47.81.75,1.2.15.2.29.36.43.48,0,0,0,0,0,0,.13.12.26.22.36.31.07.06.13.11.17.17.24.3.47.64.71.98.24.34.48.67.73.94.34.37.6.68.86.96.17.19.34.37.52.56.14.14.29.28.46.43.17.15.36.3.57.47.63.48,1.25,1.05,1.93,1.45-.04.1-.06.19-.08.29-.03.15-.05.3-.04.44,0,.12.03.23.06.34.11.44.35.83.48,1.14.03.08.05.15.07.21.1.54.21,1.04.32,1.52.22.96.45,1.83.71,2.66.25.83.53,1.62.83,2.44.3.81.62,1.65.98,2.56.18.46.36.93.55,1.43.12.3.33.65.53.99.2.34.38.67.43.94.13.68-.04,1.65,0,2.41l-1.68-3.38c-1.59-1.62-4.22.92-4.85,2.42-.2.47-.17,1.36-.23,1.44-.24.32-3.86-.97-4.61-.93-.68.04-1.06.73-1.49.81-.61.12-1.37-.53-2.24-.3-.9.24-1.73,2.05-2.75,2.35.18-1.07-1.23-2.06-1.34-2.72-.17-1.06,1.4-2.61-.85-3.07-.38-.08-1.87-.1-2.16,0,.35-.77.45-1.51.43-2.25-.01-.59-.1-1.18-.2-1.77-.02-.15-.05-.3-.07-.45-.05-.3-.1-.6-.13-.9-.07-.61-.11-1.22-.03-1.86-.02-.02-.06-.03-.1-.03-.22,0-.69.26-1.1.38-.16.05-.31.07-.44.05-.03,0-.06-.02-.09-.04-.07-.05-.16-.13-.27-.24-.11-.11-.23-.26-.37-.43-.65-.8-1.62-2.19-2.64-3.73-.12-.17-.23-.35-.35-.53-.18-.27-.36-.54-.53-.81-.16-.24-.31-.47-.46-.71-.44-.67-.86-1.32-1.26-1.94-.1-.16-.21-.32-.31-.47-.25-.39-.49-.75-.7-1.09-.08-.13-.16-.25-.24-.37-.38-.59-.68-1.04-.86-1.29-1.41-1.99-2.88-3.94-4.35-5.88-1.1-1.46-2.2-2.92-3.29-4.38-.61-.82-1.21-1.66-1.8-2.49-.54-.75-1.08-1.49-1.6-2.25-1.11-.79-2.19-1.52-3.27-2.19-.54-.34-1.08-.66-1.62-.96-2.72-1.52-5.54-2.65-8.94-3.27-.61-.11-2.34-.36-4.03-.56-.24-.03-.48-.06-.72-.08-1.47-.16-2.79-.27-3.14-.2-.13.03-.24.05-.35.09-.42.13-.65.29-.77.49-.03.05-.05.1-.07.15-.04.1-.05.21-.04.32,0,.17.04.34.09.51.07.29.17.58.14.85-.1,1-.14,1.91-.11,2.76.02.42.05.83.11,1.23.03.2.07.39.11.58.06.25.13.5.2.75.14.43.31.86.52,1.27.06.12.13.25.2.37.47.82,1.11,1.62,1.95,2.45.03.03.07.07.11.11.04.04.07.07.11.11.1.11.22.24.34.38.03.04.06.07.1.11.13.15.27.31.41.49,1.04,1.25,2.48,3.13,3.67,4.8.34.48.66.93.95,1.36.43.63.78,1.18,1,1.58.07.13.13.25.18.35.14.31.24.64.32.97.02.08.04.17.06.26.07.33.14.67.19,1.02.04.27.07.54.09.81.11,1.08.18,2.17.4,3.11,1.03,4.28,2.74,8.36,3.62,12.67.32.62,1.6.17,1.89,1.1.43,1.38-.06,4.8.11,6.64.14,1.56.49,3.31.82,4.96.11.55.22,1.09.33,1.61h0c.02.12.06.28.11.44.01.04.02.08.04.13.05.17.1.35.17.54.05.15.1.3.15.46.14.42.28.85.4,1.23.12.39.21.73.26.96.02.12.03.21.02.26-.12.66-.64.93-1.23,1.08-.29.08-.6.13-.88.19-.28.06-.53.12-.72.23-1.17.68.23,2.47.38,3.51.03.18.04.36.05.54.03.53,0,1.03.06,1.5-2.97.56-4.26-1.49-5.06,2.41l-2.9-3.37c-2.41,1.18-1.16,5.76-1.9,6.77-.26.34-1.53.63-2.22,1.16-2.25,1.73-2.02,4.51-5.49,4.62-.47.02-1.26-3.83-1.77-4.56-.41-.58-1.42-.71-1.44-1.06-.04-.57.54-1.26.43-1.81-.09-.46-1.03-.95-1.36-2.23-.62-2.38.34-2.66-3.38-2.41v-.96c-.3-.07-.74.08-.96,0-.14-.05-.34.05-.48,0l-.48-.48c-.6-.55-1.06-1.72-1.61-2.25-1.99-1.93-4.5-3.23-5.63-5.94-.16-.38-.46-.91-.48-.96-.09-.25.08-.7,0-.96-.19-.6-.47-.91-.48-.96-.19-.63-.3-1.29-.48-1.93-.54-1.84-.55-.55-.96-.96-.09-.09-.33-1.86-.48-2.41-.5-1.77-.43-.55-.96-.96-.29-.22-2.68-4.97-3.66-6.23-2.06-2.66-5.36-4.88-6.47-7.75-.16-.42-.4-.74-.48-.96-.38-.98-.46-1.08-.96-1.93-.08-.13.15-.63-.05-.9-1.96.18-3.46-.62-5.26-1.03-.42-.09-1.01.09-1.45,0-.07-.19.15-.63-.06-.88-.15-.17-2.22-.79-2.83-1.05-.03-.01-.07-.02-.11-.02-.08,0-.17.03-.25.03-.04,0-.08,0-.12-.02h0s-.06-.33-.48-.48c-.14-.05-.34.05-.48,0-.05-.02-.31-.3-.96-.48-.07-.02-.16-.01-.24,0-.08,0-.17.02-.24,0-1.45-1.71-5.22-2.08-6.75-.48-.03.03-.07.05-.12.08-.14.07-.34.14-.36.41-.02.18.08.49.23.8.1.21.21.42.32.61.17.28.33.49.41.52.02.25-.02.46-.1.64-.12.27-.34.48-.59.68-.12.1-.25.2-.38.29-.13.1-.26.2-.38.31-.27.15-.52.3-.76.45-.24.15-.46.31-.67.47-.42.32-.78.66-1.1,1.01-1.91,2.09-2.2,4.67-3.25,7.71,0,.03-.12.26-.23.49-.06.12-.11.23-.16.32-.02.04-.04.08-.06.11-.02.03-.03.05-.03.05-.05.06-.65-.24-.95.35-.99,1.91-1.25,4.81-1.95,6.88l-1.44-2.89c-.47,2.61-.93,5.24-1.59,7.82-.47,1.83-1.98,5.12-2.19,6.51-.19,1.23.87,2.99.74,4.17-.09.88-1.1,2.16-1.28,3.47-.65,4.81,1.67,8.83,1.45,13-.09,1.77-1.15,2.35-1.03,4.31.52,8.28,9.06,14.06,10.07,21.33.12.83-.41,1.53-.43,2.32-.02,1.18.79,1.75.91,2.5.13.83-.44,1.81-.45,2.79-.01,2.62,2.11,5.66,3.9,7.47,1.07,1.65,1.75,5.29,4.34,3.86.39.36,1.02.62,1.45.96.01.3.05.71,0,.96,0,.03-.42.19-.48.48-.07.32-.14.65-.22.97-.08.33-.16.65-.26.96-.9-.06-2.75,1.7-2.89,2.41-.31,1.54,1.06,1.82,1.93,2.89.14.17.28.31.4.43s.24.22.35.32l.22.22c.28.31.32,1.18.57,1.37.08.06.17.09.26.11.09.01.18,0,.26,0,.08,0,.16-.02.22-.03.06,0,.11,0,.14,0,.2.13.28.4.29.75.03,1.06-.54,2.83-.28,3.58.51.02.98-.15,1.45-.32.16-.06.31-.11.47-.16l2.41.96s.04.13.07.23c.07.21.18.5.28.79.05.14.09.29.13.42.07.28-.07.69,0,.96.2.74,1.52.24,2.17.97,1.34,1.5,1.03,4.9,1.27,5.24.09.13,1.64.48,2.36,1.26,2.02,2.18,2.15,5.32,1.18,7.96-1.04,2.83-2.06,2.64-2.65,6.28-.05.29-1.42,1.14.48.96.02.44.07,1.04,0,1.45,0,.05-.82.64-.48.96.11.11.85-.11.96,0,.05.05,0,1.11,0,1.45,0,.43-.09.15,0,.96.07.61.52,1.38.48,1.93,0,.12-.79.81-.48,1.44l3.38.97c0,.32,0,.64,0,.96,0,.33-.01.56,0,.96,0,.32-.03.65,0,.96.11,1.2-.53,2.23.96,1.93-.02.32.04.66,0,.96-.07.47-1.47,1.67.48,1.45,0,.47.04.98,0,1.45,0,.05-.41.46-.48.96-.06.46.08,1.02,0,1.45-1.17-.37-1.44,1.84-1.58,2.52-.2.94-.53,1.79-.34,2.79l2.41-.48c-.47.95.47,2.28.48,2.41.19,1.66-.11,3.59,0,5.3-.81,1.01-.78,2.9,0,3.86-.14,2.16.25,3.47.48,5.3.05.42.03,1.01,0,1.45-.14,1.83.15.73.48,1.45.07.15.03,1.13,0,1.45-.06.6-.34,2.43-.48,2.89-.16.54-.42,1.14-.75,1.76-.33.62-.72,1.25-1.14,1.86-.42.61-.88,1.21-1.34,1.74-.46.53-.92,1.01-1.35,1.39-.55.48-2.64,1.49-2.69,1.76-.28,1.7,2.24,5.33,2.45,7.4.09.89.13,2.08-.25,2.89-.57,1.25-5.02,4.7-6.28,6.26-2.79,3.48.62,5.24,3.8,3.32,1.01-.61,1.82-2.17,3.19-2.11-.76,1.75-1.66,3.42-2.68,5.03-.92,1.44-6.39,7.46-5.03,8.72,3.48.98,4.29-2.59,7.24-2.41l-4.54,6.31c-.34.57-1.34,2.1-1.25,2.6.15.87.76.52,1.28.34,1.94-.66,5.15-4.23,6.69-5.86.88-.94,1.42-3.2,3.13-1.94.02.04.05.08.09.11.13.11.34.23.39.37,1.15,2.83-1.88,6.56-2.9,9.39-.71,1.97-2.1,6.63-1.19,8.45,1.06,2.12,3.08-.52,3.61,0-.33,1.78-1.14,2.18.48,3.37.14.1.27.44.48.48.81.17,1.99-.09,2.89,0,.3.03.8-.08.96,0,.08.04.83,1.19.96,1.45.13.26-.01.79.48.96-.06.29.04.66,0,.96l.4.32c.13.37.07.75.08,1.13.02.48,0,.97,0,1.45,0,.32,0,.64,0,.96v1.93h-.96c-.08.61.1,1.35,0,1.93-.29,1.67-.74,3.06,0,4.82.11.25.97.48.93.71-.24,1.32-.53.95-.44,2.67.07,1.45.17,1.67.48,2.89.07.29-.09.77,0,.96.82,1.72,1.99,1.88,3.18,1.78.34-.03.68-.08,1.02-.12.17-.02.34-.04.5-.05.17-.01.33-.02.49-.01.16,0,.32.02.47.05.31.06.59.17.86.37.27.2.51.48.72.88-.27,1.58-1.72,1.74-1.46,3.59.4,2.87,3.96,1.26,5.8.75,2.47.61,1.03,1.19,1.03,2.67,0,1.76,1.28,2.12,2.83,2.16-1.26.68-1.32,3.69-1.45,3.85-.06.08-1.55-.31-.94,1.18.43,1.05,2.91.75,1.42,3.64l3.38-.96c-.02.27-.06.77,0,.96.46,1.45,5.54,1.11,7,.96,1.75-.17,3.64-.9,5.32-1.44,1.64-.52,2.77-1.91,4.57-.97.07.11.76.46.96.48-.07,1.76,1.52,3.35,1.48,5.08-.02,1.13-1.47,2.32-.95,3.06.09.14,1.88.91,2.58,2,.49.76.76,2.35,1.2,2.66,1.38.98,4.57-1.1,3.88,1.66-.03.03-.06.05-.08.08-.28.25-.48.47-.67.67-.07.07-.14.14-.21.21-.81.74-1.18,1.06-1.93,1.93-.19.22-.36.42-.53.6-.49.56-.9,1.04-1.4,1.81-.07.11-.14.21-.2.31-.11.19-.2.34-.27.48-.17.35-.26.62-.5,1.14-.23.5-1.11.84-.96,1.93.01.1,0,.21.02.29.01.04.03.08.06.11.03.03.08.06.16.07h0c.46-.05.97-.14,1.47-.27.33-.09.66-.2.97-.34.46-.21.87-.48,1.17-.84.15,0,.32-.01.49-.02.17,0,.33,0,.47.02h0c.17.03.36-.05.48,0l.07.07c.09.11.23.3.41.41,1.34.8.94-.21,2.27-.86.86-.42,1.82-.52,2.81-1.05.71-.38,2.23-1.88,2.42-1.93.56-.13,1.56,1.31,2.14,1.91.45.47,1.09.83,1.45,1.45-.01.05-.02.1-.02.17,0,.12,0,.27.01.43.01.15.03.31.04.44,0,.1.01.19,0,.27,0,.07-.01.12-.04.15-.1.11-.49.91-.48.96.09.57-.03,1.31,0,1.93,0,.16,0,.32,0,.48,0,0-.14.84,0,.96.05.04-.26,1.41.72.96.54-.25,3.2-3.16,3.62-3.85h0c.25-.28.43-.87.83-.95,3.5-.75,7.69-.63,11.13.33,1.75.5,3.56,1.78,4.93,2.07.08.02.16,0,.24,0,.08,0,.16-.01.24,0-.3,1.53,1.78,1.75,1.93,1.93.08.09-.15.73.05.89.78.63,4.93-2.2,6.04-2.75.8-.4,2.37-.7,2.78-.98.16-.11.77-2.28.77-2.46h.48c-.06.07-.46,1.78-.41,1.86.04.07.5.03.69.24,1.24,1.33,3.32,3.1,4.77.77.18-.29,1.17-3.03,1.23-3.35h.96s.06.09.1.13c.08.08.19.16.28.23.04.04.08.08.1.12.36.61.86,1.26,1.32,1.85.34.45.67.86.9,1.21.08.12.14.22.2.32.07.13.05.39.06.67,0,.1,0,.19.02.29.02.2.07.39.18.56.11.17.27.3.53.38.39.12,1.05,0,1.65-.15.24-.06.47-.13.67-.2.1-.03.19-.07.27-.1.3-.11.45-.47.48-.48.08-.03.16-.06.24-.1.16-.08.32-.19.48-.28.08-.04.16-.08.24-.1.11-.03.26-.02.41,0,.11.01.22.02.33.03.02,0,.04,0,.06,0,.06,0,.12,0,.17-.01,5.2-1.4,10.21-1.73,15.26-.63,1.07.23,2.14.51,3.22.88,1.04.35,1.76.93,2.13,1.72.28.58.37,1.28.22,2.1-.12.71-.15,1.34-.07,1.89,0,.03-.02.05-.02.08,0,.15.05.26.11.35.09.36.24.68.45.96.24.32.56.59.96.8.49.25,1.09.43,1.84.52h0c3.79.47,7.63.1,11.38-.53,3.13-.53,6.7-2.07,9.84-1.88,1.29.08,2.77-.22,3.99.11.92.25,1.97,1.49,2.81,2.03.51.33,1.3.2,1.4.27.09.07.11.21.14.39.01.09.03.19.06.28.01.05.03.1.05.15.04.1.1.19.18.28.29.31.89.51,2.2.33.22-.03.37-.14.49-.24.11-.1.19-.21.25-.23.38-.14.69-.25,1-.4.3-.14.59-.31.93-.57-.01.21,0,.42.01.62.13,1.41.99,2.46,2.6,2.31.53-.05.19-.85.28-1,.05-.08.36.07.48,0,.07-.04.13-.06.2-.09.13-.05.27-.08.46-.18.09-.05.19-.12.31-.21.12-.1.39-.37.48-.48,1.58.75,1.97-1.9,2.65-1.9.15,0,1.3,1.26,2.65,1.42-.04.31.05.67,0,.96-.05.3-.12.6-.19.89-.51.94-.76,1.77-.58,2.32.05.15.13.29.25.4.57.53,3.85-1.02,4.45-1.49.96-.78,1.63-1.92,2.36-2.88-.47.61-.52,1.87-.38,3.14.11,1.07.36,2.15.61,2.87,0,.21.02.39.03.54.08,1.07,1.72,5.29,2.63,2.4.04-.14-.03-.32,0-.48.09-.44-.1-1.04,0-1.45.25-1.03.94-3.87,1.93-3.38.03-.15-.02-.32,0-.48.8,0,1.61,0,2.43,0,1.59,0,2.99.46,4.53.02.26.02.66.01.76-.02v-.23c4.34-1.47,8.04-4.33,12.54-5.55,1.42-.39,1.56.37,3.38-.96.16-.12.32-.33.48-.48.16-.16.35-.3.48-.48.16-.04.37.06.48,0,.51-.26.77-.37.96-.96.04-.11,0-.32,0-.48,3.14-.15,5.59.96,5.79-2.89,1.45.29.78-.63.96-.96.12-.21.37-.33.48-.48.74-.29,2.93-2.38,3.38-1.93.02.58.48,7.93-.24,8.2,2.16-.8,3-3.4,4.11-5.65.29-.44.57-.92.85-1.21.39-.4.74-1.04,1.18-1.62.63-.83,1.45-1.52,2.82-1.2.2.05,1.62.89,1.75,1.05.99-.86,1.03-3.65.88-4.94.65,2.25,1.3-.57,1.44-1.34.54-2.91,1.67-5.61,3.75-7.72-2.08.32-3.86.02-4.02-2.47-.07-1.07,4.65.24,4.94.23,1.26-.03,1.08-.33,1.72-1.59.45-.89.95-1.76,1.55-2.56,0,.03-.01.06-.02.1,0,0,0,0,0,0-.25,1.2.24,5.36,1.28,8.29.76,2.15,1.81,3.63,3.07,2.78.95-1.98,1.28-10.62,2.42-11.57.83-.69.81.16,1,.67.33.88.32,2.06,1.12,2.74,2.26,1.92,2.31-2.26,3.15-3.57.3-.47,1.17-.63,1.7-1.3,2.31-2.9,2.75-12.37,5.32-13.49.96-.42.85,1.57,2,1.88,2.54.68,2.12-5.38,2.85-7.16.15-.36.39-.75.69-1.17.3-.42.65-.86,1.02-1.3.18-.22.37-.44.55-.66.33-.39.64-.77.92-1.14.1-.13.19-.25.27-.37.08-.11.17-.23.24-.34,2-3.09,3.97-6.2,5.75-9.42,1.19-2.16,2.19-4.38,3.12-6.64,1.15-2.79,2.2-5.63,3.37-8.43,1.05-2.52.84-5.38,1.44-8.02.47-2.04.36-3.71.82-5.76.37-1.64.3-3.51.35-5.19.11-4.15.27-8.33-.35-12.47Z"/>
  <g>
    <path class="cls-2" d="M4.39,13.73v-3.46H1.23v-1.34h3.16v-3.47h1.39v3.47h3.17v1.34h-3.17v3.46h-1.39Z"/>
    <path class="cls-2" d="M14.02,15.76c-.77,0-1.44-.23-1.99-.7-.56-.46-.99-1.14-1.29-2.03-.3-.89-.45-1.98-.45-3.27s.15-2.37.45-3.25c.3-.88.73-1.54,1.29-1.98.56-.45,1.22-.67,1.99-.67s1.42.22,1.97.67c.55.45.98,1.11,1.28,1.98.3.88.45,1.96.45,3.25s-.15,2.38-.45,3.27c-.3.89-.73,1.57-1.28,2.03-.55.46-1.21.7-1.97.7ZM14.02,14.29c.39,0,.73-.15,1.03-.45.3-.3.54-.78.7-1.44.17-.66.25-1.54.25-2.64s-.08-1.97-.25-2.62c-.17-.65-.4-1.11-.7-1.4-.3-.29-.65-.43-1.03-.43s-.73.14-1.03.43c-.3.29-.54.75-.71,1.4s-.26,1.52-.26,2.62.09,1.98.26,2.64.41,1.14.71,1.44c.3.3.65.45,1.03.45Z"/>
    <path class="cls-2" d="M22.92,15.76c-.72,0-1.36-.14-1.92-.41s-1.01-.65-1.34-1.12-.49-1.02-.49-1.62c0-.49.1-.92.3-1.3s.45-.71.77-1c.31-.29.64-.52.99-.7v-.06c-.42-.31-.78-.68-1.08-1.12-.3-.44-.45-.96-.45-1.55s.14-1.14.43-1.59c.29-.45.68-.8,1.17-1.05.49-.25,1.06-.37,1.7-.37.67,0,1.24.13,1.72.39.48.26.85.62,1.12,1.08.27.46.4.99.4,1.6,0,.39-.08.76-.23,1.1-.16.34-.35.65-.58.91-.23.27-.46.49-.7.67v.06c.34.2.66.44.96.7s.53.58.71.95c.18.37.27.81.27,1.32,0,.58-.15,1.1-.46,1.57s-.74.84-1.3,1.12c-.56.28-1.21.42-1.96.42ZM22.97,14.42c.39,0,.73-.08,1.02-.22.3-.15.53-.36.7-.63.17-.27.25-.59.25-.97,0-.33-.07-.62-.22-.86-.15-.24-.35-.45-.61-.63-.26-.18-.56-.35-.9-.5s-.71-.31-1.1-.46c-.4.27-.72.59-.97.98-.25.38-.38.82-.38,1.3,0,.39.1.74.29,1.04.19.3.46.53.79.71.33.17.71.26,1.12.26ZM23.69,9.16c.33-.32.59-.66.76-1.01.17-.35.26-.72.26-1.1,0-.35-.07-.67-.2-.94-.14-.28-.34-.5-.6-.66s-.59-.24-.96-.24c-.47,0-.86.15-1.17.44-.31.29-.47.7-.47,1.22,0,.42.11.76.34,1.03.22.27.52.51.88.7s.75.38,1.18.55Z"/>
  </g>
</svg>