<?xml version="1.0" encoding="UTF-8"?>
<svg id="a4" xmlns="http://www.w3.org/2000/svg" viewBox="0 0 600 500">
  <defs>
    <style>
      .a4 {
        fill: #5d4c39;
      }

      .cls-2 {
        fill: #c9caca;
      }
    </style>
  </defs>
  <path class="a4" d="M480.53,247.5c.34-1.05.97-2.28,1.49-3.43.22-.5.42-.98.57-1.43,0-.02.01-.03.02-.05.02-.06.03-.11.04-.16.05-.16.09-.32.13-.46,0-.02,0-.02,0-.04.21-1.19-1.28-.47-1.9-.64.77-2.39-.21-1.91-.49-2.92h0c-.3-1.08,1.49-7.03,1.43-8.95-.06-1.82-1.56-3.92-1.42-5.83.14-1.83,1.9-3.68,1.95-5.31,0-.03,0-.05,0-.08h0c0-1.13-.67-6.85-1.02-7.68-.19-.45-.97-.34-.97-.63.02-1.49,1.66-1.59-.95-1.67h0c-.32,0-.65-.01-.97,0h0c-.62.02-2.03-.17-2.37.06-.34.24-.46,1.83-.55,2.37-.21.04-.4.11-.57.2-.15.08-.29.19-.41.3-.02.02-.04.03-.06.05-.21.19-.41.4-.61.6-.07.07-.14.13-.21.19-.14.12-.29.23-.45.32-.15.08-.31.13-.49.16-.12.02-.24.03-.37.02-.34-.02-.73-.14-1.21-.39.16-1.18.6-5.87.49-6.81h0c-.24-1.86-3.72-7.12-4.61-9.24-.52-1.24-1.31-6.17-1.96-6.31h0c-.36-.08-.86.31-1.44.89,0,0-.02.02-.03.03-.48.48-1.01,1.09-1.55,1.66-.91.96-1.83,1.83-2.57,1.8.14-.71-.17-1.79,0-2.43,0-.02.02-.06.04-.09.2-.5,1.11-1.48,1.31-2.7.64-3.94.34-8.45,1.58-12.49l-6.58-11.45c-.4-.08-.59-.04-.68.08-.15.2-.02.61-.16,1-.17.46-.37.98-.54,1.5-.19.61-.34,1.23-.31,1.79h0s-2.43,0-2.43,0h0c.05-1.97-.37-4.56-.49-6.56-.08-1.45.28-3.51-.09-4.77-.33-1.1-2.62-2.48-3.52-3.29-.45-.4-.64-1.37-1.24-1.68-.1-.05-.21-.09-.33-.12-.81-.19-1.92.09-2.17-.39-1.12-2.22-1.52-7.66-2.12-10.43-.4-1.84-1.4-3.44-1.66-5.63-.86-7.23-1.48-11.05-3.92-17.96-.31-.89-1.97-3.65-1.96-3.87,0-.12.11-.23.29-.33.63-.37,2.21-.62,3.56-.81.12-.02.25-.03.37-.05.21-.03.42-.06.61-.08.45-.06.82-.11,1.03-.16,1.37-.32,3.28-.72,5.07-1.3.65-.21,1.28-.45,1.87-.71.22-.1.44-.2.65-.31.75-.39,1.4-.85,1.84-1.37.32-.37.48-.86.69-1.32.09-.2.2-.4.33-.57.28-.37.57-.7.85-.99,1.29-1.38,2.22-2.15-.61-3.67-3.84-2.07-4.53-1.02-8.03-1.17-4.08-.17-7.76-2.64-11.92-1.97-.31-.26-.13-.59.31-.93.33-.26.81-.52,1.35-.78,0,0,0,0,0,0,1.62-.77,3.79-1.47,4.06-1.55,1.49-.46,3.19-.41,4.46-.89,0,0,0,0,0,0h0s.01,0,.02,0c.35-.16,3.67-2.54,3.8-2.73h0c.37-.54,2.4-1.5,2.56-2.22.12-.52,1.3-1.19,1.49-1.84.13-.45-2.34-3.38-2.98-3.63-.02,0-.05-.02-.08-.05-.45-.36-2.14-2.39-2.83-2.92-.05-.04-.09-.07-.13-.09-.95-.52-2.46-.89-4.2-1.17-3.1-.86-8.38-1.12-10.41-1.35-7.6-.88-16.26-2.69-23.74-.91-.34.08-1.29.4-2.14.68-.42-.46-.88-.99-1.06-1.36-1.09-2.19-1.86-7.38-3.72-8.91-.91-.75-1.35-.68-1.65-.28-.3.4-.46,1.15-.82,1.77-2.3-1.98-7.71-9.76-10.72-9.73-.17,0-.31.02-.43.06-.84.25-.61,1.22-.76,1.41-.01.01-.02.02-.04.03-.01-.02-.03-.04-.04-.06l-.44.33c-.81.26-2.18.01-3.36-.14-.13-.02-.27-.03-.39-.05-.06,0-.12-.01-.17-.02-.17-.02-.34-.03-.49-.03-.03,0-.06,0-.09,0-.16,0-.31,0-.44.02,0,0,0,0,0,0-.91.14-3.16.96-4.18,1.89-.27.25-.46.5-.51.76-.01.05.01.14.05.24-.04.1-.09.2-.13.33-.26.91.61,1.17,1.04,1.78.91,1.31,1.31,2.9,1.36,4.49.03.9-.04,1.88-.01,2.91.03.98-.07,2.14-.28,3.21h0c-.06.25-.13.49-.2.72,0,.01,0,.03-.01.04-.07.21-.14.41-.22.6-.01.03-.02.06-.04.09-.07.17-.15.33-.24.48-.02.04-.04.08-.06.12-.1.18-.21.34-.32.48,0,0,0,.01-.01.01-.15.19-.37.37-.6.55-.94.7-2.3,1.24-2.35,1.46-.05.22-.08.45-.1.69-.05.03-.1.06-.16.09-.22,1.92.16,3.79.51,5.65h0c-.93-.15-1.43.69-1.72,1.73-.68,2.04-1.08,5.86-1.01,7.9,0,.11.05.26.1.43h0c0,.06,0,.11-.01.16,0,.04,0,.08,0,.12,0,.05,0,.09,0,.13,0,.04,0,.07,0,.1,0,.03,0,.06,0,.08,0,.05,0,.09,0,.1h0c-.31-.05-.71.07-.97,0-2.25-.63-5.45,2.06-7.3,3.64-4.46,3.79-6.25,6.96-9.51,11.4-1.1,1.51-2.27,2.97-3.43,4.44-1.35,1.72-2.69,3.45-3.9,5.28-.7.19-1.6-.6-2.29-.41,0,0,0,0,0,0h0c-.76.21-.89,1.78-1.81,1.93-.13.02-.28.02-.45-.03.06-1.65-.34-3.73-2.43-3.4h0s0,0,0,0l-.98,4.37c-.79.57-2.52-2.48-4.23-2.46-.11,0-.23.02-.34.05-.13.04-.24.11-.32.2-.03.03-.05.08-.08.12-.05.07-.09.13-.13.21-.03.07-.05.14-.07.21-.02.07-.05.14-.07.21-.04.17-.08.35-.12.53-.12.57-.26,1.15-.71,1.4-1.09-1.97-2.62-3.81-4.97-4.29-.21-.04-.4-.06-.57-.06-.07,0-.13.02-.2.03-.1.01-.2.01-.29.04-.11.03-.2.08-.29.13-.04.02-.08.03-.11.05-.21.13-.38.32-.52.54-.02.03-.05.06-.07.1-.11.18-.19.39-.26.61-.16.46-.26,1-.33,1.57-.04.32-.07.64-.09.97-.08,1.04-.12,2.06-.31,2.77l-1.94-1.46h0s0,0,0,0c-.12,1.33.18,2.81-.02,4.11,0,.04-.02.12-.04.2,0,0,0,.01,0,.02-.02.09-.05.2-.07.32,0,0,0,0,0,0-.06.25-.14.56-.22.89,0,0,0,.01,0,.02-.17.66-.36,1.38-.49,1.83,0,0,0-.02-.02-.03-1.01,2.7-3.57,6.19-6.65,6.34-.04,0-.09,0-.13,0-.68.01-1.38-.13-2.1-.49-.18-.09-.33-.2-.48-.32-.6-.5-.87-1.15-1.03-1.44-.04-.07-.08-.13-.11-.15-.06-.04-.1-.06-.15-.09-.69-.39-.48.25-1.5-1.17-.03-.04-.05-.06-.08-.09-.26-.32-.47-.42-.65-.64-.87-.58-2.51.16-2.67,1.1-.01.08-.02.17-.02.25-.1.44-.02.91-.09,1.02-.06.09-.6-.16-1.22-.32,0,0,.02.01.03.02-.9-.59-1.98-.57-2.31.56-.33,1.13,1.22,2.67,1.53,3.71.1.33.22.59.14.95-.93.25-.99-.92-1.42-1.62-.26-.43-.62-.78-.84-1.17-.07-.12-.13-.24-.17-.36-.31-.3-2.17,1.87-2.56,2.18-2.01,1.65-5,3.07-7.65,2.92v1.12c-.06.03-.13.07-.2.1-.87-.01-1.65-.21-2.23.6-.14.2-.22.34-.28.46-.11.15-.22.32-.32.5-.12.09-.29.21-.61.39-.09.05-.16.19-.24.24.09.63-.47,1.34-1.06,1.46-.04,0-.07,0-.11,0-.05,0-.1.01-.16,0-.7-.09-.6-.77-1.81.13-1.68,1.24-2.52,2.48-4.75,3.27-2.63.93-4.74.83-7.42.23,0,.14-.03.44,0,.49.01.02.1.01.19,0,.09.59-.05.9-.33,1.07-.43-.06-.85-.1-1.32-.1-.08,0-.16,0-.24,0,.16.5-.37.43-.47.66-.02.05-.04.12-.07.17-.27.69-.45,1.69-.92,2.37-.23.34-.53.6-.96.68-.34.49-.5.63-.97.97.07.78-.84.84-1.09,1.22-.09.14-.13.25-.16.35-.11.38.09.54-.41.91-.08.06-.17.12-.28.19-.38.23-.65.51-.97.73.07.65-.81.92-.95,1.39-.08.28.2.59.32.74,0,0-.01,0-.02,0-1.87.34-1.28.56-1.95,1.14-.01,0-.02.02-.03.03-.03.03-.07.05-.1.08-.03.02-.05.04-.07.06-.03.02-.08.05-.12.08-.04.02-.07.05-.11.07-.38.23-.77.45-1.15.68-4.8,2.8-9.99,5.33-14.15,9.05-.52.47-1,.98-1.47,1.53-1.52,1.76-2.83,3.81-4.35,5.29-2.02,1.97-4.42,3.65-6.57,5.56-.87.77-1.7,1.57-2.45,2.44-5.75,6.7-7.65,13.17-10.45,21.15-1.55,4.43-1.46,7.93-2.4,12.18-.07.31-.16.64-.25.97-.94,3.5-2.93,8.17-4.03,11.76-.33,1.07-1.21,2.4-2.25,3.71-1.31,1.63-2.88,3.23-3.94,4.2-1.39,1.28-2.83,2.54-4.29,3.78-.99.84-1.99,1.68-2.99,2.51-.48.4-.97.8-1.45,1.2-2.25,1.84-4.52,3.67-6.78,5.52-.53.43-1.05.87-1.58,1.3-.86.71-1.7,1.43-2.55,2.15-.43.36-.85.73-1.27,1.1-3.83,3.33-7.49,6.81-10.7,10.61-3.38,3.99-5.1,9.35-7.96,13.46-.86,1.24-1.83,2.37-2.98,3.31-1.32,1.08-2.98,1.74-4.15,2.66-1.59,1.27-3.01,2.77-4.26,4.39-1.4,1.81-2.6,3.77-3.59,5.75-2.22,4.41-4.52,10.62-3.77,15.63.19,1.24,1.45,2.77,1.41,3.93-.03.85-1.11,1.53-1.34,2.51-1.05,4.5,2.45,8.75,1.87,12.04-.01.07-.05.13-.1.17-.38.28-1.66-.13-2.14.55-.09.12-.16.27-.21.43-.86,2.55,1.9,9.77,3.19,11.72.82,1.24,2.3,1.52,2.16,3.43,0,.09-.02.19-.03.28-.65.85-1.07,2.85-.52,3.82l.08.04c0,.08-.02.16-.02.24-.03.48-.58,1.03-.48,2.13.35,3.54,5.21,10.95,7.36,14.07.8,1.16,3.14,3.32,3.59,4.23.17.34.16.66.09.97,0,0,0,0,0,0-.11.5-.36.97-.14,1.44.54,1.18,8.54,6.17,9.97,6.59.35.1.67.15.98.16.21,0,.4,0,.59-.03,1.76-.21,2.84-1.48,4.33.31.84,1.01.06,1.79-.05,2.85,0,.04-.01.07-.02.11h0c-.14,2.63,1.76,4.52,3.02,6.71,1.58,2.76,2.57,4.87,4.78,7.37.05.06.1.12.16.18,1.15,1.3,3.29,3.69,3.99,3.34.33-.17.33-.95-.26-2.78,3.56.16,3.9,5.83,5.25,8.59.64,1.3,1.83,3.41,3.49,3.07.01-.1.01-.2.02-.3.26-2.92-.4-5.62-.99-8.45.99.54,1.29.47,1.33.15.06-.47-.46-1.49-.18-1.96.16-.26.57-.35,1.47-.08,1.66.51-.02,1.77-.19,2.64-.42,2.23,2.57,9.04,4.84,9.75.24.08.46.12.66.14.03,0,.06,0,.09,0,.16,0,.32,0,.46-.02,2.18-.43,1.49-4.92.9-7.03-.05-.16-.09-.31-.13-.44-.03-.09-.16-.34-.31-.66-.35-.72-.81-1.76-.53-2.03.1-.09.27-.09.57.04.27.12,4.03,3.86,4.13,4.13.09.23.08.39,0,.49-.21.32-.94.22-1,.51-.03.16-.05.32-.05.47-.02,2.26,3.52,3.13,4.33,4.97.4.92.69,2.73.63,3.75-.08,1.41-1.97,4.08.18,4.13.9.02,3.01-.73,4.56-1.18.4-.12.78-.22,1.08-.27.64-.12,1.54-.27,2.26-.39.24-.04.46-.07.65-.1.87-.12,1.83-.18,2.85-.22,2.98-.1,6.4.09,9.08.2,1.38.06,2.99.82,4.28.51,0,0,0,0,0,0h0c.32-.08.25-.68.52-.9.04-.03.08-.05.13-.07,0,0,0,0,0,0,.62-.15,1.29-.12,1.86-.24.02,0,.04-.01.06-.02.06-.01.11-.03.17-.05.53-.17.92-.55,1-1.46.01-.13.02-.27.02-.43,0-.1-.04-.26-.1-.45-.17-.57-.5-1.4-.31-1.71.08-.14.27-.17.61-.03,2,.81,1.67,2.07,2.47,3.37,1.52,2.46,5.03,3.43,6.8,5.36,1.17,1.28,3.22,7.51,5.61,5.65.06-.05.12-.11.16-.18.21-.33.21-.81.24-1.16.01-.16.03-.29.08-.36.33-.47,7.24,2.09,8.4,2.33.06-.01.14-.05.22-.11.37-.23.94-.77,1.1-1.02.4-.63.3-1.82.65-2.18,0,0,0,0,0,0,.06-.06.12-.09.21-.1.09,0,.19.01.31.07,1.51.7,5,5.45,7.02,6.1.64.2,1.18.29,1.66.29.2,0,.39-.02.57-.04.33-.05.62-.13.88-.24.27-.11.52-.24.74-.38.56-.35,1.01-.72,1.5-.83.08-.02.16-.03.25-.03.13,0,.28.01.42.05.07.02.15.04.22.07,1.59.56,3.73,2.85,5.14,2.23.01,0,.03-.02.04-.02.12-.06.23-.13.34-.24,0,0,.02-.02.02-.03.11-.11.21-.25.31-.42,0,0,0,0,0,0,.09-.16.17-.35.25-.56.03-.08.06-.17.08-.26.06-.21.12-.44.17-.71.02-.09.02-.17.01-.26-.11-1.18-2.1-2.78-1.12-3.98.01-.01.03-.03.04-.04.07-.08.14-.16.24-.23.11-.09.25-.17.4-.25,1.87-.98,2.86,2.24,4.24,2.63,1.14.32,4.37-.99,5.97-.43,0,0,0,0,0,0,0,0,0,0,0,0,.23-.23-1.4-2.79-.87-3.9.11-.23.31-.4.64-.47,1.56-.33,4.58,3.67,5.59,4.13,1.47.67,4.59.47,6.31,1.22h0s0,0,0,0c-.13-1.87-2.43-2.07-3.33-3.71-1.16-2.1-.35-3.89,1.11-4.71.04-.02.08-.04.12-.06.13-.07.26-.13.39-.18,1.06-.4,2.34-.34,3.45.37,3.53,2.26,6.67,10.21,11.12,9.75,1.35-.14,2.18-1.62,3.41-1.49.24.03,1.1,2.75,3.5,2.42.22-.03.44-.08.69-.16.25-.09.49-.26.72-.45.24-.2.49-.41.74-.56.04-.02.07-.05.11-.07.18-.1.38-.16.58-.17,1.59-.05,2.84,2.61,4.82,2.43,0,0,.02,0,.02,0,.54-.06,7.12-4.43,7.35-4.87.65-1.23-1.68-2.8-1.82-3.6-.02-.11,0-.21.09-.29,1.85.07,3.53,2.4,5.32,1.71.51-.19,1.78-1,3.24-1.99.27-.18.54-.37.82-.56.36-.25.73-.51,1.1-.76,1.9-1.34,3.73-2.7,4.35-3.25.48-.42.71-1.21,1.05-1.58.05-.05.1-.1.16-.13.63-.38,1.84-.25,2.78-.62.1-.04.33-.17.62-.36.06-.04.13-.09.2-.13.12-.08.25-.16.39-.26.27-.18.56-.37.86-.58.14-.09.27-.19.41-.28.17-.12.35-.24.52-.36.98-.69,1.92-1.37,2.3-1.69.06-.05.11-.09.14-.12.82-.8.88-2.04,1-2.16.07-.07.82-.09,1.25-.45.62-.53.59-1.38.7-1.49h0s.03-.02.06-.04c.48-.3,3.37-1.73,3.69-1.79,1.65-.35,4.23.31,5.49-.34.06-.03.14-.1.23-.19,1.15-1.17,4.26-6.81,6.03-9.55.32-.49.6-.9.81-1.17.46-.56.98-1.15,1.56-1.71,0,0,.01-.01.02-.02,2.53-2.46,6.06-4.59,9.48-3.57.69.21,1.02,1.03,1.59,1.31.19.09.41.13.68.06,0-.7.07-1.43.22-2.13.31-1.39.96-2.66,2.08-3.29.57-.32,1.25-.48,2.07-.41h0s0,0,0,0c.15-1.73-1.85-2.39-.52-4.16.06-.09.13-.15.19-.23,1.51-1.73,3-.01,3.98-.13.08,0,.15-.03.22-.06,1.75-.86,2.54-4.55,4.07-5.67.1-.07.21-.14.32-.19,1.82-.84,3.21.36,4.52.16.43-.07,2.32-1.26,3.05-1.85.08-.07.14-.12.19-.17.02-.02.05-.05.07-.06h0s0,0,0,0c.92-1.08-.13-1.83.03-2.79,0-.02,0-.03,0-.05.02-.07.06-.18.1-.28.85-2.09,6.26-9.46,6.14-10.02-.16-.72-4.8-1.71-5.81-1.74l-.02-1.92c1.06-.12,1.64.9,2.7.97.29.02.56-.02.82-.09.46-.12.88-.34,1.3-.51.11-.05.22-.09.33-.12.17-.05.34-.1.51-.11.29-.02.6.03.93.12.98.26,2.05.84,2.8.65.05-.01.27-.14.57-.34.59-.37,1.5-.97,2.15-1.42.43-.3.75-.53.79-.59.13-.22.2-.51.23-.82.08-.82-.09-1.78-.02-2.04,0-.02,0-.06.02-.07.29-.3,3.2.94,4.59-1.51.06-.1.09-.19.13-.29.18-.52.09-.96.36-1.13.19-.12.58-.11,1.38.1.91.24,1.65,1.13,2.78.87h0s0,0,0,0v-8.02c0-2.82,2.52-6.28,3.78-8.81,0,0,0-.01,0-.02.11-.22.2-.42.29-.62.06-.14.12-.27.16-.4.05-.14.09-.29.13-.44.16-.72.17-1.52.44-2.31.05-.14.1-.27.17-.41.52-1.1,1.36-1.39,2.11-1.8.8-.43,1.49-1,1.57-2.8.07-1.58-2.34-1.38-3.04-2.58-.24-.41-.82-2.85-.76-3.32,0-.03.01-.06.02-.07,1.83.59,3.65.74,5.37-.29h0l-.1-3.53-3.33-1.77c-.04-.47.16-.77.47-.94.94-.54,2.94-.06,2.93-.51h0s-3.4-4.61-3.4-4.61l3.88,1.94h0s0,0,0,0c-.2-.81.34-1.64.38-2.3.07-1.41-3.38-2.57-2.81-4.5l3.16.51h0l.53-.18.2-.07h0s0,0,0,0c.52-.73.92-1.23,1.21-1.6.1-.12.18-.23.26-.33.07-.1.14-.18.19-.26.02-.02.04-.05.05-.07.38-.64-.18-.66-1.72-2.12-.46-.44-.98-.78-.99-1.42,0-.09,0-.19.03-.29l4.33,1.91c.69-2.13,3.02-3.26,3.02-5.44,0-.31-.05-.64-.15-1.01-.3-1.02-2.42-1.65-4.2-1.99-.81-.15-1.56-.25-2.03-.29-.08-.26-.12-.48-.11-.67,0-.19.06-.34.15-.46,0,0,0,0,0,0,.51-.73,2.27-.42,3.61-.33,1.06.07,2.06.66,3.16.49.68-5.01,3.62-10.04,6.6-14.06.39-.53,1.28-1.25,1.8-1.78.17-.18.3-.33.35-.45.33-.75-.23-.66-.61-.83-1.6-.74-3.39-.18-3.39-1.91,0-.25.03-.54.11-.89,1.58-.1,3.25.52,4.87.57.54.02,1.07-.03,1.6-.18,1.41-.42,4.26-4.82,6.16-5.5,0-.02,0-.03,0-.04.18-.97-.43-.62-1.08-.81-1.66-.5-3.46-.64-5.14-1.21-.67-.22-1.22.2-1.09-.8,0-.02,0-.03,0-.06,0-.06.03-.11.04-.16.23-1.05.98-1.59,1.92-1.86,1.09-.31,2.42-.25,3.4-.16h0c-.31-.97-1.52-1.33-2.43-1.46-.02-.03-.03-.07-.03-.12,0-.23.23-.68.56-1.21.74-1.19,1.97-2.8,2.29-3.37.69-1.22,1.6-3.65,2.39-4.93v-.68c.33-.54.68-.93,1.03-1.04-.42.13-.75.16-1.03.15v-.64c-.25.17-.59.24-.87.25-.23-.3-.32-.74-.3-1.26.38-1.67,1.23-4.58,1.43-5.23Z"/>
  <g>
    <path class="cls-2" d="M3.04,11.7v-1.36h4.13v1.36H3.04Z"/>
    <path class="cls-2" d="M12.35,15.76c-.77,0-1.44-.23-1.99-.7-.56-.46-.99-1.14-1.29-2.03-.3-.89-.45-1.98-.45-3.27s.15-2.37.45-3.25c.3-.87.73-1.54,1.29-1.98.56-.45,1.22-.67,1.99-.67s1.42.22,1.97.67c.55.45.98,1.11,1.28,1.98.3.88.45,1.96.45,3.25s-.15,2.38-.45,3.27c-.3.89-.73,1.57-1.28,2.03-.55.46-1.21.7-1.97.7ZM12.35,14.29c.39,0,.73-.15,1.03-.45.3-.3.54-.78.7-1.44.17-.66.25-1.54.25-2.64s-.08-1.97-.25-2.62c-.17-.65-.4-1.11-.7-1.4-.3-.29-.65-.43-1.03-.43s-.73.14-1.03.43c-.3.29-.54.75-.71,1.4s-.26,1.52-.26,2.62.09,1.98.26,2.64c.17.66.41,1.14.71,1.44.3.3.65.45,1.03.45Z"/>
    <path class="cls-2" d="M19.8,15.54c.05-1.03.14-1.99.27-2.86.13-.88.32-1.7.56-2.48.25-.78.56-1.54.94-2.28.38-.74.84-1.5,1.38-2.26h-5.39v-1.57h7.39v1.14c-.66.84-1.19,1.65-1.6,2.41-.41.76-.73,1.54-.97,2.34-.23.79-.41,1.64-.52,2.54s-.18,1.91-.23,3.03h-1.84Z"/>
  </g>
</svg>