<?xml version="1.0" encoding="UTF-8"?>
<svg id="a2" xmlns="http://www.w3.org/2000/svg" viewBox="0 0 600 500">
  <defs>
    <style>
      .a2 {
        fill: #e1dad3;
      }

      .cls-2 {
        fill: #c9caca;
      }

      .cls-3 {
        fill: #746d61;
      }
    </style>
  </defs>
  <g>
    <path class="cls-3" d="M161.94,256.56c.3-.16.59-.33.84-.55-.25.22-.54.39-.84.55Z"/>
    <path class="cls-3" d="M164.7,254.57c-.14.06-.26.11-.36.15.11-.05.23-.1.36-.15.09-.04.17-.06.23-.08-.06.02-.13.04-.23.08Z"/>
    <g>
      <path class="a2" d="M194.72,149.07c.51-2.89,1.73-5.86,1.42-8.89-.72.04-2.31-.1-2.79-.57-.18-.17-.2-.76-.54-1.12-1.03-1.1-4.5-4.7-4.74-5.83-.17-.8.02-1.56-.09-2.31-.09-.63-.47-1.16-.5-1.92-.03-.65.39-3.13.58-3.78.4-1.34,2.1-1.41,3.29-1.27.25-.24-.86-2.42-.95-3.12-.17-1.36.2-2.99.02-4.27-.06-.4-1.17.17-1.46-2.67-1.15.26-.93-.53-1.42-1.2-.56-.76-1.1-1.45-1.69-2.18-.54-.66.05-1.25-1.68-.93.13,1.57-.09,3.22,0,4.8l-3.81-.03c-1.12-2.41-2.13-5.15-3.28-7.51-.28-.58-.78-.99-1.06-1.57-.95.11-1.34-.65-1.92-1.2-2.02-1.92-3.81-4.56-5.28-6.95-.07.1-2.11.9-2.22.92-1.28.22-4.67-6.22-6.42-7.38-1.09-.73-2.55-.9-3.82-1.21l.24,1.92c-1.88-1.52-2.99-3.71-4.79-5.28-5.59-4.88-13.05-8.94-18.8-13.81l-3.03-.57c0,.69-.08,1.39.08,2.08.27,1.17,2.76,3.57.17,3.19-2.66-.39-5.96-1.63-8.65-1.9-2.71-.27-5.88.35-8.53-.1-3.94-.67-9.15-3.45-12.8-5.18-.19-.09-.6-.04-.96-.22-2.14-1.03-6.94-4.34-8.88-4.12-.28.03-1.11.38-1.19.5-.05.08.03.31,0,.48-.07.44.05.97,0,1.44l6.73,6.46c.91.68,4.11,2.02,4.55,2.64.82,1.17-1.18,1.42-1.68,2.16.48.7,1.19.73,1.91.97.48.16,1.33.17.97.95-.23.48-2.56,1.67-3.13,1.7-1.54.1-4.92-1.27-6.71-1.45-2.75-.28-7.68.67-9.51.4-.57-.08-1.17-.85-2-.92-1.86-.14-3.06,2.12-3.8,1.93-.24-.07-.22-.44-.27-.46l-2.88-1.44c.05,2.86.44,5.49.46,8.38.04,5.02,2.25,12.22,4.89,16.72.58.99,2,2.31,2.32,2.95.42.83-.66.84-1.21.73-.99-.2-1.39-1.32-2.62-.97v8.87c0,.39,3.13,5.73,3.6,6.95.23.59,1.24,3.86,1.19,4.07-.38,1.61-2.58-.16-3.36-.71-.71.85,3.25,7.89,4.1,9.09,1.08,1.54,2.99,3.14,3.99,4.64,1.08,1.61,1.97,4.41,2.94,5.93,1.84,2.87,4.6,5.11,5.76,8.63,0,0,.01,0,.02.01,1.15,3.5,1.13,2.7,3.82,4.53,1.87,1.27,2.03,3.48,4.3,2.64,0,0,0,0,.01.01.56-.21,2.78,1.54,3.59,1.93.43.21,1.24.99,1.69.23-.53-.83-1.53-1.1-2.17-1.67-1.97-1.78-6.78-6.22-8.13-8.18-.5-.73-.86-1.46-.73-2.38l1.17.03c2.73,2.06,5.16,4.44,7.69,6.7,1.95,1.74,5.45,5.54,7.18,6.73.74.51,1.63.46,2.2,1.15.54.65.64,1.77,1.18,2.65,7.24,11.67,16.46,13.67,26.78,20.7,1.17.8,5.39,4.8,6.22,4.68.5-.55,3.05-.82,3.16-.94.15-.16-.09-1.63.77-1.87,1.09-.3,6.44,2.96,7.67,3.82.58.41,1.05,1.23,1.68,1.68,1.29.91,8.21,4.72,9.26,4.52,1.01-.2,1.62-1.51,3.21-.68.33.17,3.72,3.62,4.05,4.1.42.61.67,1.81.75,1.9.04.05,1.3.05,1.38-.05.15-.23-.16-.85.3-.92.97-.11,2,.87,3.31.47.69-.21.62-1.18.82-1.33.31-.23,1.22.07,1.64-.53.41-.58.1-1.45.29-2.11.26-.87,1.03-1.32.83-2.39-.07-.39-1.73-3.06-2.12-3.67-2.02-3.15-4.94-6.08-7.65-8.65-.42-.4-1.06-.5-1.45-.95-.25-.29-1.66-3.8-1.62-4.01,1.07-1.4,1.27-4.32,2.45-5.48.98-.97,3.87-2.15,5.15-3.24,2.23-1.9-.42-2.71-2.38-3.1-.85-.76,2.23-3.51,2.9-4.05,1.17-.95,5.04-3.8,6.22-4.33.9-.41,2.34-.6,3.35-.73.19-.16-2.65-3.59-2.81-4.14-.46-1.58.54-3.63.88-5.22.12-.58-.11-1.28.05-1.86.31-1.15,2.19-.61,2.35-.77.1-.09-.07-1.17.02-1.66ZM171.51,153.31l-12.29-5.46c-.35.38,1.33,2.84,1.7,3.34,2.05,2.77,4.76,5.33,6.94,7.92.6.71,3.12,3.85,3.28,4.39.71,2.45-.46,6.95-.88,9.53-.13,1.25.13,2.59-.01,3.82-.16,1.39-.88,2.5-2.15,1.2-.76-.78-3.83-5.6-4.33-6.7-.66-1.44-2.29-6.08-2.54-7.54-.24-1.41.24-4.64-.31-5.45-.4-.59-1.83-.72-2.43-1.41-1.2-1.39-.12-3.58-3.59-2.88-.16-1.61.66-8.23-1.24-8.61-.47-.1-1.06.6-1.64.46l-1.45-8.15c-.38.04-1.35-.08-1.42,0-.12.14-.91,3.16-.96,3.61-.15,1.34-.26,5.79-.01,6.94.01.06.72.09.48.96h-1.44c-.06-.3.08-.74,0-.96-.52-1.39-1.82-1.33-1.92-1.44-.04-.04.03-.41-.48-.96-1.58-1.71-2.87-3.69-4.4-5.43-.53-.61-.78-1.42-1.84-1.28-2.13-5.04-3.48-8.84-7.42-12.96-2.58-2.7-6.03-1.53-8.11-2.84-.44-.28-.39-.84-.77-1.21-.33-.32-1.16-.42-1.45-.97-.68-1.29,2.62-.47,2.88-.72.13-.64-.42-1.1-.48-1.68-.15-1.54.12-5.18.54-6.65.14-.5,2.47-2.75,2.99-2.66,1.37.24,5.23,2.88,7.01,3.58.47.18.93.21,1.41.26l.52,2.36c.98,1.12,2.71-4.03,2.87-4.58.1-.35-.1-1.08.73-.7,1.27.59,4.24,5.31,5.75,6.72,2.02.92,4.35,4.07,6.25,4.78.61.23.89-.09.72-.72l-6.71-8.64c-.18-.62.1-.95.71-.71,1.37.53,2.92,1.8,4.23,2.49,6.85,3.6,11.58,5.96,16.38,12.4.67.89,4.45,6.47,4.54,6.99.14.84-1.14,1.21-1.35,1.92-.24.84.14,3.29-.08,3.52-.06.06-1.49.49-1.6.47-.38-.08-.84-.84-1.28-1.15-.47-.33-2.55-2.02-2.86-1.7-.12,1.03.92,1.68.98,2.65.05.79-.48,1.49-.53,2.36-.11,1.95-.43,4.5,1,5.76.52.46,5.73,3.84,6.04,4.03.81.49.79.45,2.26.65.71.63-1.36,1.49-2.27,1.04Z"/>
      <path class="a2" d="M461.84,105.65c-1.47-.3-2.18.93-2.88,1.92-1.22.5-1.25,2.56-2.88,2.4.3-2.37-.4-5.01-2.41-6.46-.76-.55-1.81-.63-2.38-1.48-.18-.68,3.98-7.18,4.78-8.13,1.22-1.45,3.74-3.08,4.24-4.87.15-.55.01-1.2.19-1.73.67-2.04,1.96-3.22.79-5.31-1.35-2.41-5.14-2.5-7.61-2.71-.11-2.31.15-4.67.02-6.98-.08-1.52-1.11-3.41-.27-5.03.21-.41,1-.7,1.17-1.24.27-.88-1.15-5.14-1.89-5.71-.58-.45-1.22.15-.94-1.42.22-1.25.71-1.64-.02-3.12-2.37-.24-4.06,2.08-6.06,3.27-.92.55-5.87,3.02-6.38,2.45-.06-.06-.11-.72-.48-1.19-2.33-2.96-4.91.85-7.69,1.21l-.96-2.88c0-.16,0-.32,0-.48-1.22-1.07-1.43,1.11-2.88.96-.21,1.11.42,2.04.5,3.1.21,2.64-.72,2.28-1.95,3.85-3.48,4.46-9.82,11.51-11.5,16.56l-.92.03c-.38,1.6-1.37,2.75-1.96,4.29-.16.42-.63.99-.48,1.44l-8.09,9.42c-3.37,7.24-6.11,14.86-6.87,22.86l-2.78,8.24,1.93-.46c.75-.31,4.15-2.56,3.31-.04-.18.55-3.54,3.52-4.3,4.33-.87.93-1.99,3.18-3.35,3.61-.36,1.7-2.13,2.93-1.92,4.8l3.36-.48c1.02,1.03-4.28,8.53-3.36,10.55,1.9-.31,3.71.26,2.64,2.4-1.11,2.22-.12,1.5-.22,3.1-.09,1.41-1.86,3.87-1.46,5.29.04.14.71.96.95.48,1.17-.14,1.19-1.34,1.92-2.15.79-.88,1.62-.28,1.89-.51.1-.08.96-2.24.99-2.37.09-.36-.02-.99,0-1.44.02-.32-.02-.64,0-.96h.96c.11-2.97.07-2.98,1.92-5.27.01-.89,1.03-4.3,1.48-4.76.13-.14.65,0,.92-.03.18-.66.3-1.64.48-2.4-.83-.4-.47-1.85-.48-2.64-.01-1.5-.78-5.51,1.44-5.51.05-.64.35-1.24.48-1.92.06-.28-.05-.65,0-.96h.96c-.34-1.18,1.64-3.03,1.42-4.04-.16-.73-1.95-.74-1.92-1.95.02-1.15,2.68-6.66,1.94-7.44-1.25-.42-1.59.69-2.16.96-.55.26-.97-.17-.72-.72.34-.72,2.1-1.82,2.63-2.65l4.59-3.57c2.09-3.78-3.61-2.55-6.02-2.66-.74-.03-.81.2-.72-.72,1.21-1.26,2.22-3.05,3.35-4.33,2.73-3.09,6.14-6.04,10.33-6.45,1.54-.15,3.92.31,5.21-.07.74-.22,4.53-3.46,5.89-4.18.72-.38,2.17-1.31,2.09.17-.05,1.01-.65,1.82-.52,2.86l.98.49c-1.03.97-2.57,1.72-3.61,2.63-.57.5-1.33,1.07-1.19,1.93,2.22-.47,4.41-1.18,6.71-.96.59,2.53-2.76,4.11-3.33,6.03-.26.88.13.59.6.76,1.54.58,2.12,0,1.73,2.04-1.56,1.01-2.67,2.44-4.03,3.65-.43.38-1.24.57-1.47.92-.39.58-.1,1.44-.3,2.1-.9,3.07-4.03,5.14-5.61,7.82.17,2.08-.85,4.08-.56,6.15.06.45,1.5.25,1.93.74-.06.03.04.32,0,.48l-.43.28-.05.68c-.04.15.04.33,0,.48h-.96s0,.96,0,.96c-.06.03.04.32,0,.48-.83-.24-2.72,2.39-2.81,2.7-.16.55.03,1.24-.15,1.77-.67,1.99-2.14,3.94-2.32,6.08-.44.32-.45.71-.59.82-.42.33-2.42,1.98-2.58,2.01-.49.1-1.36-.71-2.1-.44-1.08,3.6-3.46,6.75-5.05,10.06-3.07,6.39-2.47,7.52-8.39,12.48-1,1.07,0,1.85,0,2.64,0,.77-.87,2.02-.48,3.11.72-.27,3.83,1.02,4.11,1.41.51.74.7,5.03,1.25,6.42.18.47.54.72.88,1.06l4.32-1.7c.12-.8-.65-.44-1.2-.48-.61-.04-1.26.11-1.86-.06-.92-.27-1.89-1.9-.79-2.59,1.79-1.13,4.86-.58,6.95-.72.48-.03,3.17-1.07,2.63.71-.16.53-1.5,1.27-.94,2.66,1.71-.57,3.44-1.17,5.28-.96.04-.04.64-.31.96-.48l.28-.43.68-.05c.18-.09.62-.02.97-.21,1.51-.82,2.48-1.43,3.32-2.96.24-.97-2.41-1.92-1.84-3.23l5.79-11.26c3.8-2.43,9.37-6.09,12.39-9.43.63-.7,2.57-3.54,2.39-4.3l-2.87-1.46c1.72-1.47,3.79-2.65,5.52-4.07,2.27-1.86,5.12-4.26,7.19-6.23,1.93-1.84,6.74-7.1,5.95-9.81-.29-1.01-2.02-.55-1.89-.99.45-1.43,3.58-4.08,4.27-5.82-.97-2.12,1.08-4.26,1.75-6.4.86-2.72,1.31-5.81,1.18-8.65ZM401.17,120.03l-.24-.24.72-.72.24.24-.72.72Z"/>
      <path class="a2" d="M372.22,370.69c.19-.62,1.06-.72.91-1.98l-.98-.54c-.22-1.54-3.07-10.16-2.33-10.7.17-.12.62,0,.88-.06.12-.44-.45-.42-.46-.45-1.09-.38-1.6.69-2.23.88-.67.21-2.75.53-3.52.55-.29,0-.74.06-.96,0-.19-.05-1.14-1.43-.96.48-.8.01-1.6-.02-2.4,0,.05-.39-.12-.46-.48-.48v.48c-.32,0-.64.02-.96,0-.47-.04-1,.07-1.44,0-2.19,2.61-2.24,6.55-1.94,9.85.16,1.72,1.12,2.04,1.38,2.93.18.62.16,2.63.59,3.01.21.19,1.31-.19,1.92.24.43.3.27,1.19.71,1.25,2.76.41,2.89-1.7,3.87-1.91.53-.11,3.25,1.24,4.27,1.4,1.01.15,2.82-.38,3.37.47.3.48.23,1.73.94,1.94,1.79.51,1.23-1.47,1.2-2.88-.99-.87-1.73-3.34-1.38-4.49Z"/>
      <path class="a2" d="M371.64,381.46s-.87-.51-.93-.52c-.35-.11-1.25.16-1.42-.02-.31-.34.68-1.94-1.19-1.39-.44.13-.79.97-1.21,1.18-.61.31-1.33.15-1.94.46-.8.41-5.26-.46-6.4.04-.61.18-3.66.15-4.4-.26-1.65-.92-5.73-.14-8.15-.03-2.93.14-5.67.88-8.62,1.45-1.33.26-3.35.14-4.72.56-.58.17-1.87,1.78-2.46,2.34-1.06,1.02-.83.51-1.69,1.91l3.36-.96.06,5.45,3.78,3.66c.12-.52-.02-1.32.1-2.05.05-.33.27-2.17,1.1-1.78.49.23,1.44,3.44,1.59,4.18.11.53.15,1.04.09,1.57l.65.07c.46.2.78.79,1.27.89,1.21.25,2.94.35,3.14-.99l4.53-.45v2.88c1.86.25,4.02-.98,4.32-2.88,1.33.06,1.98,1.57,3.59,1.47,1.76-.12.99-2.18,1.2-2.42.45-.52,3.02.48,3.59.48.63,0,1.26-.64,2.16-.48l.3-.43,1.14-.05c.36-1.69.73-.96,1.34-1.54,1.13-1.09,3.17-5.04,2.98-6.62-.03-.28-.49-.68-.49-1.2,0-1.5,1.81-3.14,3.36-2.64,0-.32.02-.64,0-.96-.02-.28.1-.79-.03-.92Z"/>
      <path class="a2" d="M329.77,376.2c.94-.02,2.18-.22,3.06-.06.09-1.28,1.24-3.24,2.59-2.84.75.22,3.84,3.89,4.6,4.76.65-.07,4.05-.84,4.27-1.01.33-.26.44-2.23.76-2.84.48-.92,2.53-2.62,2.9-3.34.49-.95.16-2.48.24-3.6.03-.5.48-.99.49-1.46.01-.8-1.07-1.29-.98-1.67-2.7-2.47-6.84-6.05-10.55-6.71-.49-.09-1.38-.04-1.92,0-.31.03-.65-.04-.96,0-.06,0-.15.35-.96.48-.16.03-.32-.03-.48,0-.17.96-.87.77-1.44.96-1.08.35-2.24.57-3.29,1.03-.62,2.52-3.7,5.76-3.43,8.31.08.78,1.35,4.67.95,5.04-1.38.2-3.2.94-4.54,1-1.97.09-2.45-1.27-4.56.69-1.07.99-1.35,2.81-.48,4.07.11.06.32-.05.48,0,.35.11.7.55,1.14.45.55-.13,1.61-1.83,3.66-2.36,2.09-.54,4.73-1.2,6.71-.48l-.72,2.4,2.46-2.82Z"/>
      <path class="a2" d="M263.07,218.33c-2.24-3.22-4.94-7.02-6.9-10.36-1.11-1.9-1.88-4.26-3.02-6.09-.37-.6-2.37-3.21-2.8-3.43-1.38-.7-2.08.14-3.14.24-3.38.33-5.96-1.2-9.08-1.45-.75-.06-2.42-.11-2.66.74-.24.86,6.2,9.17,7.43,10.32,6.77,3.59,11.68,9.81,18,14.13.92.63,5.48,3.39,6.22,2.65.02-.69.1-1.28-.23-1.93-.62-1.22-2.89-3.45-3.83-4.8Z"/>
      <path class="a2" d="M231.69,275.61c-1.2-1.71-2.14-3.87-2.45-5.94,1.1-.18,1.43,1.29,2.64.96.24-.07.87-.76.69-1.16-1.29-1.92-1.85-4.18-2.92-6.2-3.15-5.96-6.76-11.31-8.94-17.91l-1.53-2.06v4.07c1.18,6.55,2.11,12.43,4.89,18.62.41.92,3.46,5.35,2.78,6.09-.84.16-1.19-.42-1.66-.98-1.2-1.42-3.9-5.63-4.68-7.31-1.14-2.45-1.6-5.9-2.52-8.51-1.83-1.36-1.83,1.27-1.68,2.64.44,3.95,4.95,13.25,7.43,16.55,1.47,1.94,3.93,4.02,5.49,6.02.89.46,5.02-.15,5.26-1,.82-2.91-1.76-2.39-2.79-3.86ZM228.99,269.19c-.31,0-.31-.48,0-.48s.31.48,0,.48Z"/>
      <path class="a2" d="M391.31,196.48c-1.32-2.34-1.84-6.76-3.08-8.83-.34-.56-.64-.56-.97,0-.49.84-.04,1.72-.3,2.58-.18.61-1.14.95-1.32,1.56-.24.8.06,1.82-.14,2.74-.42,1.96-2.94,5.63-3.66,7.85-.69,2.13-.34,3.67-.59,5.65-.25,2-2.77,6.19-3.9,8.09-1.88,3.14-4.29,6.04-6.13,9.22.05,1.21,1.05,1.33,2.06,1.1.26-.06,4.4-2.37,4.63-2.57.89-.76,1.82-3.68,2.63-4.57.31-.35,1.78-1.24,2.03-1.53.45-.5.53-1.61,1.57-1.82,1.69-2.16,4.15-4.16,5.69-6.54.98-1.52,1.35-4.05,1.98-5.93.09-.27.12-.5.48-.48.07-.13-.07-.44,0-.48l-1.44-3.12,2.4-.24c.3-1.61-.81-1.95-1.94-2.69Z"/>
      <path class="a2" d="M402.85,249.52h-1.43c-1.27,4.75-1.25,11.77-7.19,12.97v1.42c1.58-.24,5.79,2.26,6.7.96.07-.1-.06-.41.09-.64,1.06-1.67.65-1.49.87-3.2.18-1.34.39-2.68.54-4.03l.42-.29c-.1-1.06.02-2.26,0-3.36-.03-1.27.02-2.56,0-3.84Z"/>
    </g>
  </g>
  <g>
    <path class="cls-2" d="M4.39,13.73v-3.46H1.23v-1.34h3.16v-3.47h1.39v3.47h3.17v1.34h-3.17v3.46h-1.39Z"/>
    <path class="cls-2" d="M14.02,15.76c-.77,0-1.44-.23-1.99-.7-.56-.46-.99-1.14-1.29-2.03-.3-.89-.45-1.98-.45-3.27s.15-2.37.45-3.25c.3-.87.73-1.54,1.29-1.98.56-.45,1.22-.67,1.99-.67s1.42.22,1.97.67c.55.45.98,1.11,1.28,1.98.3.88.45,1.96.45,3.25s-.15,2.38-.45,3.27c-.3.89-.73,1.57-1.28,2.03-.55.46-1.21.7-1.97.7ZM14.02,14.29c.39,0,.73-.15,1.03-.45.3-.3.54-.78.7-1.44.17-.66.25-1.54.25-2.64s-.08-1.97-.25-2.62c-.17-.65-.4-1.11-.7-1.4-.3-.29-.65-.43-1.03-.43s-.73.14-1.03.43c-.3.29-.54.75-.71,1.4s-.26,1.52-.26,2.62.09,1.98.26,2.64c.17.66.41,1.14.71,1.44.3.3.65.45,1.03.45Z"/>
    <path class="cls-2" d="M19.78,15.54v-1.52h2.53v-7.87h-2.06v-1.17c.54-.11,1.01-.23,1.42-.38.4-.14.77-.32,1.1-.52h1.36v9.94h2.24v1.52h-6.58Z"/>
  </g>
</svg>