<?xml version="1.0" encoding="UTF-8"?>
<svg id="a2" xmlns="http://www.w3.org/2000/svg" viewBox="0 0 600 500">
  <defs>
    <style>
      .a2 {
        fill: #e1dad3;
      }

      .cls-2 {
        fill: #c9caca;
      }
    </style>
  </defs>
  <g>
    <path class="a2" d="M216.72,159.76c.58-3.73.22-7.35.48-11.03-1.55.26-.82-.79-.94-1.69-.22-1.56-.89-3.51-.99-4.81-.08-1.05.83-2.7.96-3.83.87-7.59.7-15.95-2.29-23.11-.93-2.22-4.05-8.19-6.99-7.29-.59.18-.82,1.16-1.74.9-.02-.7-.41-1.19-.48-1.92-.11-1.16.11-2.33-.09-3.51-.36-2.09-2.84-7.02-4.22-8.74-.58-.72-3.28-2.9-3.37-3.11-6.95-.87-8.87-9.05-12.74-13.89-1.19-1.49-3.3-2.9-4.29-4.35-.35-.51-1.57-3.28-1.69-3.83-.81,0-1.65.16-2.41-.23-.92-.46-3.48-3.45-4.8-4.32-6.45-4.26-19.49-6.18-25.67-.74-.74.66-1.29,1.95-1.65,2.19-.88.61-3.46-.35-3.86.94-.24.76.65,1,1.18,1.22,1.75.71,5.77,1.33,7.7,1.42.78.04,1.36.41.71.96-.09.07-1.71.04-2.15-.01-2.01-.23-5.35-1.61-7.19-1.44-2.9.27-3.26,1.45-1.21,3.36-.75-.27-1.61.54-2.09.43-.3-.06-1.07-.87-1.73-1.16-.75-.33-2.78-.61-2.89-.71-.23-.21.07-.91.51-1.19.82-.53,1.18,0,.93-1.69-1.13-.28-2.11.52-3.12.52-1.92,0-4.42-1.82-6.49-.77-.23.12-1.33,1.28-1.39,1.52-.05.16.52,2.67.45,2.57-.37-.48-1.37.78-1.75.89-1.61.48-4.56-.58-5.94.77-.79.77-.29,1.53-.52,2.36-.2.73-1.34.76-1.66,1.22-.49.72.22,2.05-.69,2.43,1.16.34,5.72,3.1,6.24,2.88l.7.48.26-.48c1.97.54,3.16.01,2.34,3.07-.16.6-.85.69-.9.77-1.4,2.47.13,7.78-.09,10.23-.33,3.64.15,2.62,1.3,5.6.53,1.38,1.53,3.25-.27,3.63l.02,2.13c-.67.5-1.9-1.25-1.43,2.64.98,7.94,1.15,16.26,3.93,23.9,4.09,11.22,13.16,19.41,20.54,28.4,1.06,1.29,2.13,3.5,3.11,4.58.5.55,1.15.42,1.19.47.23.28.05,3.23,1.92,2.88-.18.64,1.46,3.82,1.89,4.1.69.45,3.24.35,4.35.93,1.09.57,4.21,4,5.5,5.05,1.52,1.23,3.91,3.1,5.53,3.83,1.51.68,2.44,1.57,3.71,2.77.54.51.9.61,1.09,1.55,1.55.16,2.88,1.48,3.85,2.63,4.15,4.97,7.4,12.2,11.5,16.81,1.5,1.69,2.9,2.31,4.55,4.08,1.11,1.19,1.34.62,2.17,2.38.15.32.47.45.48.48h1.44c.34-1.79.69-2.76.96-4.8.13-.98.41-1.89.48-2.88h.48c.36,1.03.42,1.82.48,2.88.14,2.38-.1,4.81,0,7.2,2.25-2.55,1.2-4.29,1.42-7.46.14-2.06.79-3.86.49-6.21-.36-2.79-2.78-4.76-3.35-7.44l1.93.71,4.07,5.05c.82-.6-.31-2.08-.2-2.58.39-1.85,2.84-1.12,3.97-.23l2.23,1.85c.68-1.99-3-5.37-2.82-6.4.32-1.86,1.8-1.41,2.59-2.22.35-.36.75-1.44,1.19-1.93-.95-.75-.87-2.3-.96-2.4-.2-.21-1.41.72-.97-2.19.09-.59.48-.65.49-.69.1-.43-.12-1.05.07-1.6.26-.78,2.84-2.53,2.33-3.68-.01-.03-.39.1-.48-.26-.16-.6.47-.66.48-.7,1.37-3.63,2.8-9.39,3.37-13.19.18-1.21,1.2-5.14.95-6.01,0-.03-.37.11-.48-.27-.15-.51.47-.64.48-.69ZM118.9,82.69c.04-.07.1-.13.22-.17-.13.04-.18.1-.22.17ZM119.3,82.5c.27.01.39.26.45.4-.06-.14-.18-.39-.45-.4ZM158.54,100.71c.99-.98,1.93-1.11,3.1-.03,1.78,1.63,1.81,3.08,2.3,5.35-.29.3-2.73-.62-3.23-.86-1.78-.87-4.25-1.86-2.83-3.72.22-.29.43-.54.64-.75ZM194.26,149.07c-.18.39-.02,1.01-.08,1.1-.26.35-2.09-.96-2.4.24-.07.29.89,4.8,1.07,5.64.29,1.32,1.31,3.85,1.35,4.91.05,1.47-1.66,1.01-1.92,1.21-.07.05-.08,1.3-.02,1.67.16,1,3.1,4.35,2.41,5.03l-3.84-.48c-.52.48,2.7,3.45,1.7,4.82-.48.67-2.14.57-1.71,2.37l-3.81-.5c.33-3.02-2.79-5.6-3.3-7.97-.2-.95.08-1.93-.09-2.79-.51-2.63-1.43-7.19-2.49-9.51-.56-1.23-1.71-2.46-3.09-2.68-.55-.09-1.7.68-2.1,1.13-.75.83-1.02,3.48-2.12,3.12-4.12-3.25-7.29-6.92-12.99-6.72-1.02.03-1.63.78-2.62.02v1.45c-1.8.31-1.18-.32-1.68-.94-.69-.85-4.69-6.1-4.07-6.74,1.26.06,2.49,1.67,3.67,1.85.48.07,1.3-.51,2.31-.42,2.8.25,6.46,1.7,9.59,1.95,1.93.15,2.98-.73,4.43-1.85.48-.37.86.13.63-1.29-.15-.94-4.13-.62-5.03-.73-3.64-.44-8.72-2.4-11.29-5.03l1.44-.72-.48-1.92c2.57.14,4.93-.45,2.17-2.89-1.72-1.53-3.07-2.48-5.53-4.55l2.4-.72c.1-.58-.05-2.2-.48-2.4-.21-.1-.81.12-.95,0-.96-.85,1.53-2.38,1.81-2.89.63-1.16.54-3.64-.32-4.67-.03-.03-.05-.06-.08-.09-1.91-.72-1.94.92-2.13.95-.26.04-.75.06-.96,0-.7-.21-2.08-5.11-2.16-6.24.21-.26,4.73,3.72,5.29,4.07.33.2,2.25,1.18,2.39,1.21.64.13,2.91.11,3.38-.22.53-.36,1.03-1.57.88-2.2-.25-1.03-.91-.9-1.75-1.48-1.3-.89-2.52-2.47-3.44-3.75-.19-.26,2.73,1.84,5.09,1.15,1.2-.35.93,1.15,1.6,1.7,1.27,1.03,2.79,1.86,3.86,3.11.46.54.41,1.17.46,1.21.1.08.7-.17.88.06.09.12.47,1.89.56,2.34.06.32-.08.78,0,1.18.24,1.26.33,1.91,1.68,1.71.27-.04,1.24-2.66,1.96-2.86.7-.2,1.26.39,1.89.45,2.3.23,3.87-.28,5.99-.95,1.14,3.16,1.68,6.63,2.99,9.73,1.44,3.43,2.45.91,3.9,1.35.48.14.75.96,1.51.94.55-.01,1.04-.65,1.69-.5.09,1.49-.14,3.08.01,4.55.24,2.35,1.64,5.13,1.9,7.22.14,1.09-.12,2.25.02,3.34.1.82,1.01,2.35.9,2.82-.07.3-.61.66-.83,1.13ZM200.43,165.49c-.06.06-1.82.27-1.75-.36l-1.18-4.93c1.9-.43,3.5,4.71,2.93,5.28Z"/>
    <path class="a2" d="M440.33,359.62c-.07-.53-.89-.18-.98-.27l-3.13,1.44c-1.69,0-1.62-1.46-2.63-1.92-.51-.23-1.43-.3-2.06-.58-.71-.31-1.28-1.08-2.09-1.26-1.92-.44-3.03.26-4.48,1.36.14,1.31.62,4.97.4,5.92-.13.55-.68,1.04-.81,1.59-.41,1.79.39,4.15.88,5.92.01.04.34.04.49.7.11.5-.06,1.15-.01,1.7.69.14,1.83.3,2.4.48.37-1.04.69-1.82,1.36-2.73.19-.26.27-1.49,1.04-.63.44.5-.88,4.36.96,6.24.1.1.45.47.48.48.96.22,3.02-.64,3.6-1.45.26-.36.16-.83.23-.95.05-.08.56-.13.87-.8.33-.71.58-1.76.57-2.56.14-.07.92-.65.99-.77.5-.86,2.24-5.7,2.36-6.67.15-1.2-.27-3.87-.45-5.24Z"/>
    <path class="a2" d="M439.35,357.91h.25c.49-1.17.13-2.57.23-3.84h-.96c-.02.54.08,1.09-.05,1.63l-.43.29c.05.04.15.84.38,1.31.17.35.57.57.58.61Z"/>
    <path class="a2" d="M382.73,154.49c-.16-.47-.35-1.03-.48-1.44-.05-.15-.04-.93,0-.96.32-.3.86.76.96-.96.13-2.34.54-.98,1.22-1.89.24-.32,2.04-4.3,2.14-4.83.07-.38-.17-1.19.07-1.39.2-.17,1.29.22.89-.76-.13-.32-.81-.58-.9-1.03-.09-.41.62-1.66.44-2.83-.15-.96-1.28-1.3-.94-2.34l4.77-5.32c.26-1.07-.53-.52-.86-.82-.28-.26-.05-.8-.1-.86.45-.48.74-1.43,1.09-1.82.14-.16.64-.04.74-.17.18-.22.19-1.14.47-1.72.26-.53.88-.99,1-1.4.24-.83-.04-1.74.07-2.57.01-.09.64-.36.48-1.67-.22-1.87-2.15-4.3-1.94-5.78.11-.76,2.29-3.73,1.94-4.07-.58-.55-3.4,1.74-4.56,1.92-.79.12-2.33.41-2.17-.73.09-.64.68-1.75,1.03-2.33,2.35-3.78,2.89-7.72,4.48-11.84,1.33-3.45,4.28-6.48,3.62-10.54l-2.4.48c-.38-.83.49-2.05.48-2.4,0-.23-.55-.68-.44-1.14.11-.48.91-.8,1.17-1.26.31-.55.19-1.38.23-1.43-3.63,0-1.5-3.65-.02-5.05.51-.48,1.33-.69,1.4-.77.22-.26-.11-1.05.11-1.33.17-.21.71.03.9-.05.05-.02-.03-.32,0-.48.03-.14,0-.33,0-.48l-.48.48c-2.91.52-5.84,4.62-8.86,4.32-1.51-.15-4.02-1.55-5.27-1.46-.7.05-5.63,1.93-4.58,2.9.36.33,3.13-.89,4.06-.98,2.93-.27-.29,2.02-1.19,2.65-1.67,1.16-3.97,1.7-4.78,3.86-.35.93.35.61.71.71,2.15.62,2.49-.25,4.34-.47.62-.07,3.92-.15,4.07-.01.2.19.06,1.28-.49,1.67-2.72,1.96-5.53,3.83-8.48,5.44-.22.12-1.56.44-.62,1.04.19.12.9-.24.98.27.55,3.63-3.15,8.33-3.95,11.88-2.93,2.94.2,8.13.56,12.09.35,3.92-.24,8.26.01,12.22.29.3,5.65-2.9,2.17,4.81-1.22,2.7-3.69,4.39,1.19,5.75.17-2.53.11-5.97,1.06-8.3.23-.56.83-.83.89-1.54.12-1.31-1.53-3.1-1.47-4.56l3.76,1.99,1.99,4.48-2.4.24c-.27.91.71,1.12.89,1.74.85,2.94-1.45,3.1-1.79,4.31-.25.9.33,2.24-.53,2.83l-2.4-.25c-.26.49-2.21,1.26-2.41,2.63-.18,1.23,1.62.9,1.93,1.21.39.38-1.09,2.48,0,3.36.48-.17,2.25.74,2.38,1.22.32,1.15-.97,1.51-.97,2.37,0,.92.8,1.29.99,1.68h2.88c-.08.7.26,1.29.96,1.44Z"/>
    <path class="a2" d="M298.23,234.91c-1.58-2.26-3.13-4.56-4.67-6.85-2.79-4.18-5.29-6.81-8.72-10.47-.7-.74-1.14-1.99-2.13-2.67-1.17-.8-2.71-1.04-4.09-.94l-.48-2.87c5.01-.22.87-3.01-1.78-3.74-5.01-1.37-10.59-2.58-15.65-1.46-2.13.47-3.19,2.71-2.72,4.72,1.12.26,1.45-1.15,2.22-1.38,2.85-.83,7.42,3.06,9.05,5.23.43.57.6,1.63.81,1.84.94.93,7.79,4.18,9.69,5.43,5.01,3.3,7.25,5.55,9.69,10.96.16.35.19.92.23.96.3.33,1.55-.54,2.4-.27,1.48.47,4.17,4.37,5.01,4.11.78-.25,1.58-1.72,1.17-2.57Z"/>
    <path class="a2" d="M398.57,377.11c.18,1.36-.14,2.55-.48,3.84h2.4c-.6-1.44-.08-2.47-.48-3.84.03,0,.08-.36.31-.42.47-.12.89.4,1.12.42-.05.3.08.72,0,.96l.43.28.05,2.12h.96c.11-.52,2.6-1.18,3.36-1.44.03-.01.05-.38.29-.42.57-.11,1.66.94,2.59-.06v-.96c1.73.23,2.83-.3,4.32-.48.47-2.81,1.81-1.34,3.1-1.41,2.96-.16,4.4-5.46,4.08-7.94-.18-1.42-1.27-2.72-1.43-4.09-2.89.61-2.07-1.68-3.11-2.88-.26-.3-2.72-2.06-3.1-2.18-2.02-.67-2.83.89-3.58.72-.7-.16-1.08-1.72-2.69-1.89,0,0-2-1.04-3.84-.48-.14-.03-.32,0-.48,0-.02-.27-.47-.43-.48-.48v.48c-.07.03-.23.43-.59.59-.59.26-1.29.32-1.8.62-1.6.93-2.42,3.07-3.36,4.55.69-1.09,4.66,4.46,3.81,6.37-.39.88-.95.87-1.59,1.4-1.21,1-1.05,2.2-1.98,3.41-.38.49-.6.4-1.02.77-.1.09-.8.3-.89.35-.12.07-.05.64-.14.69-.86.52-2.06.37-3,.68-.22.07-.52-.08-.74,0-.3.1-.38.59-.54.63-.86.22-1.49-.04-2.3-.23-1.16-.28-1.22-.27-2.4-.14-1.24.13-2.33-.18-3.61.23-2.7.88-.65,1.82-.52,2.48.1.5-.77,1.32.06,2.1.61-.17,1.69.12,2.56-.08,1.1-.24,2.36-1.59,3.02-1.77,1.21-.34,3.33-.23,4.66-.62.76-.23,1.26-1.05,2.71-1.36,0,0,4.05-.45,4.32-.48ZM405.28,360.79c.1-.08,1.81-.53,2.14-.5.61.04,2.47.7,2.63,1.25.09.33.09,1.59.03,1.65-.43.41-3.53-.12-4.32-.72-.54-.4-.66-1.53-.48-1.68Z"/>
    <path class="a2" d="M204.48,210.61c-.63,1.02-.04,4.49-.24,6-.13.96-.8,1.92-.94,2.89-.09.62.1,2.56,0,2.63-.11.08-.7-.16-.89.05-.28.31-1.57,6.32-2.36,7.99-.42.89-.79.69-1.55,1.08-.09.45.07,1.01-.08,1.59-.39,1.53-2.15,2.06-1.84,3.69.26-.07.66.05.96,0-.05-.14.7-.71.96-.96,3.35-3.23,4.17-9.15,5.28-13.43,0-.03.31-.1.38-.36.42-1.58.37-3.29,2.5-3,.03-.25.43-.68.47-1.19.09-1.19.22-4.25-.06-5.21-.2-.69-1.76-3.08-2.58-1.76Z"/>
    <path class="a2" d="M232.51,251.51s-.02,0-.02,0c-.99-.35-.47,4.73-.35,5.79.11.91,1.78,7.67,2.37,6.7.31-.51-1.03-4.58-1.16-5.32-.42-2.39-.7-4.69-.84-7.15Z"/>
    <path class="a2" d="M404.32,395.34c-.8-.14-2.27,1.24-2.4,1.92-.12.62-.02,1.69,0,2.4.02.99-.4,1.69.96,1.44.03-1.53,1.1-3.07,1.44-4.32.11-.39-.09-1.02,0-1.44Z"/>
    <path class="a2" d="M394.75,394.13c-.63-.44-2.94-2.3-2.9-.47.05,2.39,1.33,1.42,2.88,1.68v1.44c.88.15,1.76,1.25,2.4-.48-.24-.06-1.75-.93-1.92-.96,1.4-.8,0-.89-.46-1.21Z"/>
    <path class="a2" d="M297.81,239.89c1.44.21,2.13-.42,1.92-1.92-.89-.31-2.35,1.48-1.92,1.92Z"/>
    <path class="a2" d="M255.96,262.11c-.73-.16-1.09-.81-1.27-.88-.73-.29-1.99-.54-2.88-.96-.16-.08-.53.02-.95-.23-2.16-1.3-1.12-2.9-1.52-4.73-.77-3.49-2.34-4.36-1.84-8.95.01-.12,1-1.14.44-2.13l-.44-.27c-.16.03-.33-.03-.48,0-.06.62.09,1.33,0,1.92-.02.16.03.32,0,.48-.02.1-.89,1.01-.49,1.92h-1.91c.04-.95-.07-1.93,0-2.88.01-.16-.01-.32,0-.48-3.02-.76-2.16,2.14-2.42,2.37-.13.11-.94-.06-1.43.24-.96.59-.24,4.7-.46,6.02-.94-.06-.39-1.93-.48-2.64-.08-.63-1.54-.47-1.92.96-.57,2.16-.1,3.6.58,5.65,1.03,3.11,2.35,6.36,3.49,9.47.46,1.26,1.66,2.46,1.14,3.86-2.03-.4-5.48-6.34-5.65-5.58-.51,2.23,5.01,7.76,1.11,8.24,1.53,2.3,5.04,1.57,7.01,3.3.7.62.75,1.82,2.22,2.1.81.16,1.42-.17,1.57-1.01.26.08,1.6.24,1.62.16.34-.37-2.78-3.5-2.06-5.34,1.62.58,2.93,2.43,4.64,2.8.51.11,2.91.18,3.04.08.92-.76-.71-1.02-.96-1.18-2.17-1.34-4.6-3.34-6.24-5.29-1.04-1.23-3.24-3.81-.94-4.33.02-1.26-2.1-2.3-1.21-3.6.91.57,1.19,1.81,1.9,2.43.38.33,1.05.39,1.15.52.34.43,2.1,2.5,3.78,2.8,1.79.32-1.15-1.61-.83-1.91,1.22.08,4.85.18,5.26-1.22.56-1.9-1.54-1.51-2.55-1.74Z"/>
    <path class="a2" d="M371.7,146.81c.08.26-.11.82,0,.95.14.15,2.23-.07,2.87.01-.57-.97-1.86-1.04-2.88-.96Z"/>
    <path class="a2" d="M418.96,407.81c-.58-.12-1.03.39-1.2.96.45-.06.97.04,1.44,0v-.96s-.24,0-.24,0Z"/>
    <path class="a2" d="M429.02,381.9c-.28-.4-.19-.92-.23-.95-.15-.15-2.25.13-2.88,0-.54-.11-.81-.75-1.92-.96v-.96c-1.6.43-2.88-.64-4.19-.89-.52-.1-.57.41-.61.41-.48.03-2.33-.1-2.4,0-.15.2.44,1.29-.96.96-.45-.62-.57-1.2-1.44-.96-.11,2.16.76,1.4,1.39,1.97.1.09.12,1.81.05,1.87-.16.13-1.43-.09-1.92,0-2.67.48-5.19.23-8.16,0-.31-.02-.68.06-.96,0l-.3.43c-.38.12-.76.05-1.14.05-2.12.02-1.06-.29-1.5-.89-.17-.23-.72.01-.9-.07-1.54.38-3.02-.39-4.32-.48,1.16,2.3.84,4.29,1.17,6.74,1.48,1.09,3.06,2.06,4.56,3.11.99.69.98,1.46,2.42,1.66.45.06.97-.04,1.44,0,.03.43.63.96.48,1.92h.07c2.01-.02,3.61.65,2.65,2.91-.45,1.07-1.27,1.4-1.35,2.74-.08,1.33.5,2.76,1.03,3.94.52,1.16.96.69,1.44.96.74-1.82.03-7.42,0-7.68-.11-.91.07-1.94,0-2.88,2.25-.26,5.1.29,6.24,2.4-.38-1.61,1.1-.68,1.4-.99.14-.15-.14-1.49.76-1.89.97-.44,1.22,1.84,1.2,2.4,2.53.48,1.72-.75,1.92-.96-.6-2.15-1.21-2.68,1.44-2.4l3.75-2.49c.15-.46.39-.9.57-1.35h2.4c.12-1.23,1.19-2.11.95-4.07-.26-2.1-1.25-2.32-2.17-3.61Z"/>
    <path class="a2" d="M413.92,401.57c.05,1.35-.07,2.73,0,4.08.05.93-.06.76.96.72.35-2,2.04-4.38-.96-4.8Z"/>
    <path class="a2" d="M419.44,396.78c-1.67-.23-2,.97-.24.96.16,0,.35.03.48,0v-.96c-.08,0-.16.01-.24,0Z"/>
  </g>
  <g>
    <path class="cls-2" d="M4.39,13.73v-3.46H1.23v-1.34h3.16v-3.47h1.39v3.47h3.17v1.34h-3.17v3.46h-1.39Z"/>
    <path class="cls-2" d="M14.02,15.76c-.77,0-1.44-.23-1.99-.7-.56-.46-.99-1.14-1.29-2.03-.3-.89-.45-1.98-.45-3.27s.15-2.37.45-3.25c.3-.87.73-1.54,1.29-1.98.56-.45,1.22-.67,1.99-.67s1.42.22,1.97.67c.55.45.98,1.11,1.28,1.98.3.88.45,1.96.45,3.25s-.15,2.38-.45,3.27c-.3.89-.73,1.57-1.28,2.03-.55.46-1.21.7-1.97.7ZM14.02,14.29c.39,0,.73-.15,1.03-.45.3-.3.54-.78.7-1.44.17-.66.25-1.54.25-2.64s-.08-1.97-.25-2.62c-.17-.65-.4-1.11-.7-1.4-.3-.29-.65-.43-1.03-.43s-.73.14-1.03.43c-.3.29-.54.75-.71,1.4s-.26,1.52-.26,2.62.09,1.98.26,2.64c.17.66.41,1.14.71,1.44.3.3.65.45,1.03.45Z"/>
    <path class="cls-2" d="M22.64,15.76c-.6,0-1.14-.08-1.6-.22-.46-.15-.87-.35-1.23-.6-.35-.25-.66-.52-.92-.81l.88-1.18c.34.34.74.64,1.17.9s.95.38,1.55.38c.44,0,.82-.07,1.14-.22.32-.15.58-.36.76-.64.18-.28.27-.61.27-.99,0-.43-.1-.79-.3-1.1-.2-.3-.55-.54-1.05-.71-.5-.17-1.17-.26-2.04-.26v-1.38c.76,0,1.36-.09,1.79-.26.43-.18.75-.41.94-.7.19-.29.29-.62.29-.98,0-.51-.16-.91-.47-1.21-.31-.29-.75-.44-1.3-.44-.44,0-.85.1-1.23.31-.38.21-.74.48-1.07.81l-.94-1.15c.46-.42.96-.76,1.5-1.03.54-.27,1.14-.41,1.8-.41s1.3.12,1.83.35c.53.23.95.57,1.25,1.02.3.44.45.98.45,1.61,0,.66-.18,1.21-.54,1.66-.36.44-.84.78-1.45,1.02v.08c.44.11.84.29,1.2.54s.64.58.85.97c.21.39.31.85.31,1.37,0,.69-.17,1.29-.52,1.78-.35.49-.82.87-1.4,1.13-.58.26-1.22.39-1.92.39Z"/>
  </g>
</svg>