<?xml version="1.0" encoding="UTF-8"?>
<svg id="a2" xmlns="http://www.w3.org/2000/svg" viewBox="0 0 600 500">
  <defs>
    <style>
      .a2 {
        fill: #e1dad3;
      }

      .cls-2 {
        fill: #c9caca;
      }
    </style>
  </defs>
  <g>
    <path class="a2" d="M151.32,355.51c1.93.22,1.88,2.24,3.54,3.03,1.71.81,4.66,1.3,6.56,1.95,1.33,1.43,1.48,3.39,2.09,4.86.24.57,2.09,3.08,2.4,3.77.34.75.4,2.8.49,2.92-.02.02-.05.02-.08.04-.04.23-.13.46-.34.69-.13.15-.31.26-.49.33-.78.15-1.69.6-2.44.18-1.87-1.23-3.4-3.02-4.75-4.76-.25-.48-.53-.72-.74-1.17-.13-.25-.35-.32-.49-.66-.13-.38-.46-1.12-.71-1.57-.23-.4-.48-.44-.63-.69-.17-.27-.27-.97-.6-1.27-.23-.24-.36-.42-.45-.64-.31-.35-.44-.84-.68-1.24-.26-.26-.51-.48-.75-.63-.7-.43-1.6-.59-2.4-.76,0-.08.02-.16.02-.24l-.08-.04c-.55-.97-.13-2.97.52-3.82,0-.09.02-.19.03-.28Z"/>
    <path class="a2" d="M158.52,345.56l.08.38c-.1,0-.19.01-.27.03-.08.18-.15.37-.16.57-.09,1.71.18,3.45-.26,5.11-.04.07-.24.13-.53.19-.05.23-.08.4-.1.43-.25.42-.82,0-1.22-.01-.49-.01-.98-.02-1.47,0-.52.01-1.07.3-1.45.27-.73-.06-2.05-2.97-2.35-3.73-1.28-3.26-1.8-5.8-1.43-8.93,0-.03,0-.08,0-.11,0-.07.02-.21.06-.4.08-.53.18-1.08.31-1.66.1-.45.27-1.15.55-1.75.27-.93.51-1.69.6-1.75.22-.15,1.29-.11,1.61.01,1.3.47.99,4.1,1.52,5.29.69,1.55,2.36,1.18,3.16,1.7.13.08,1.41,2.54,1.45,2.68.08.27.04,1.11,0,1.46,0,.07-.04.16-.09.25Z"/>
    <path class="a2" d="M243.95,214.46c.61-1.2,3.92-5.73,5.01-2.99.08.19-.06.58,0,.82-.44.07-.35.49-.41.82-.58,3.41-3.5,7.8-5.39,10.81-.28.45-1.07.78-1.17,1.08-1.1,0-1.37.35-1.2-.99.25-2.02,2.21-7.7,3.16-9.55Z"/>
    <path class="a2" d="M364.22,165.1c-.72,4.48.53,7.04,2.13,10.99.38.94.99,2.24,1.21,3.16.36,1.49-.11,2.98,1.01,4.7.38.58,1.1.88,1.18,1.62,1.15.74,2.4,1.96,3.4,2.43.2.09.82.41.89.42.49.08.93-.56,1.3.31.05.12-.05.44,0,.49.05.05.34-.03.48,0,.09.25-.24.45-.24.48-.03.4.33.77.44,1.15.08.3.02.99.05,1.03.13.17.44-.49.48.67.02.66.03,1.31-.09,1.96-1.39-.07-.38,4.38-.08,5.5.36,1.32,1.82,4.09,3.65,2.92,1.1-.7,1.87-3.74,2.42-4.94.19-.41.38-.81.57-1.22.03-.07.06-.16.09-.25.14-.02.31-.02.55.03.02-.18.03-.46.03-.8.04,0,.09,0,.14.01.1-1.01-.07-2.13,0-3.16,2.01-.41,2.34,2.41,2.19,3.89.49,1.24.66.81.96.06h.09c.04-.19.14-.57.27-1.01.08-.05.19-.06.38-.02.19-.66.22-1.88.61-2.42.32-.44,1-.41,1.09-.49.2-.2.24-1.07,1.21-.97,0-.15.01-.29.04-.44.08-.01.18-.02.28,0-.08-.3-.1-.61-.1-.93.02-.16.03-.33.02-.5.11-1.14.5-2.3.48-3.19-.04-2.28-.96-4.89-.9-7.3,0-.12,0-.21,0-.31.44-.13.86.06,1.14.51.76.12.47-.31.42-.78-.05-.42-.09-.82-.11-1.19.02-.66.12-1.53.36-2.23.42-.46,1.24-.25,2.73,1.04.03-.03.41,0,.6-.24.11-.14.1-.32.11-.43.03,0,.06,0,.09,0,.01-.04.02-.08.03-.12.12-.06.29-.11.38-.17-.03-.02,0-.35,0-.49,0-.08,0-.16,0-.24.74.01.62-.33.73-.85.38-1.79.24-3.64.23-5.47.1-1.02.2-2.05.29-3.08l.45-3.24c1.07-.37,1.37,1.71,2.17,1.21.14-.09.29-1.47.44-2.89.25-1.11.52-2.26.6-3.37.09-.13.18-.27.2-.43,0-.05-.07-.27-.18-.57,0-.14,0-.28-.02-.41-.15-1.39-2.48-5.61-2.92-7.6.75.4,2.47,2.75,3.11,2.65.03.07-.03.18,0,.24.53,1.13,1.19,1.91,1.8,2.94.2.34,1.03,2.32,1.14,2.39.13.09.49-.01.7.02.05-.47.07-.94.07-1.41,0-1.42-.16-2.86-.34-4.27-.45-3.43-1.17-7.79-1.99-11.14-.06-.24-.13-.5-.21-.76-.51-2.02-1.1-4.01-1.79-5.98l-.04-4.58c-1.31-5.41-2.9-10.97-2.91-16.57.14,0,.28-.02.4,0,1.04.17,1,1.52,1.94,1.7.01-.16.09-.46.16-.77.2.25.35.46.4.56.9-.39.2-1.6.07-2.26-1.49-7.65-2.22-16.14-3.96-23.5-.92-3.9-2.6-8-4.64-11.92-.02-.17-.04-.34-.06-.5h-.21c-.09-.17-.18-.34-.28-.51,0-.04.01-.15,0-.22h-.12c-1.95-3.58-4.18-6.98-6.4-9.91-.54-.71-.84-1.94-1.91-1.73-.01.01-.02.02-.04.03-.01-.02-.03-.04-.04-.06l-.44.33c-1.24.39-3.81-.39-4.96-.22-1.16.17-4.45,1.44-4.7,2.65-.01.05.01.14.05.24-.04.1-.09.2-.13.33-.26.91.61,1.17,1.04,1.78.91,1.31,1.31,2.9,1.36,4.49.03.9-.04,1.88-.01,2.91.03.98-.07,2.14-.28,3.21-.25,1.03-.61,1.93-1.1,2.54-.76.96-2.89,1.73-2.95,2-.05.22-.08.45-.1.69-.05.03-.1.06-.16.09-.22,1.92.16,3.79.51,5.65-.93-.15-1.43.68-1.72,1.72-.68,2.04-1.08,5.87-1.01,7.9,0,.11.05.26.1.43-.02.37-.04.63-.03.69.01.11.06.23.1.36-.07.09-.2.13-.42.09.05.04.46.99.48,1.1.1.56-.04,1.23,0,1.82.05.6.12.32.39.58.14.13.08.38.1.39.12.08.73-.06.97,0,0,.48.01.97,0,1.46-.03,1.23-.34.55-.49.73-.09.11,0,2.45,0,2.92,0,.39.03,1.49,0,2.46-.02.37-.05.74-.07,1.11-.04.29-.1.5-.18.57-.46.37-.4-.11-.49-.37-.05-.15-.24-.8-.24-.85h-.49s-.22.14-.22.35c.01,1.2.92,2.04.95,2.45.06.69-.39,2.76-.49,3.52-.1.71-.11,1.48-.24,2.19l.2.17.04.8c.21.09.22.47.24.49.06.04.48-.12.51.15l-.51,1.55c.02.22.03.52,0,.73.61,1.17.04,2.61,0,3.89-.01.32,0,.65,0,.97-.13,5.56,1.12,6.47,2.43,11.18.04.13-.03.34,0,.49.26.08.48.25.67.44.05.31.1.54.13.57.02.02.13,0,.27-.02.37.76.4,1.75.02,2.4-.28,0-.61-.05-.98-.03-.11-.08-.21-.16-.29-.18-.8-.22-.97.78-1.21,1.22-.64-.27-.58-1.29-.72-1.45-.34-.38-2.6-1.27-2.92-.97.02.06.03.11.05.17-.13.05-.25.18-.32.42-.42,1.33.72,2.25.65,2.84-.04.35-.49.7-.62,1.08-.28.85-.92,5.23-.55,5.64.05.05.43-.05.49,0,.15.14-.24.46-.24.48,0,1.66.51,2.7,0,4.62-.16.59-.59,2.08-1.21,1.94-.14.32-.22.93-.24.97-.18.73.62.4.87.71.27.33-.69,2.39-.81,3.12ZM383.42,182.33c-1.26.46-3.3-.04-4.62.14l.13-2.22c.02-.13.05-.26.05-.39,0-.1,0-.21-.01-.31l.13-2.23c.17-.28.33-.61.37-1.1.07-.87-.02-1.39-.21-1.73l.05-.94c-2.22-1.26-4.53-2.34-4.87-4.87.01-.04.02-.08.04-.11.72-1.43,2.73,1.32,3.04.97-.2-.67-.46-1.39-.72-2.13h.07c.3-.27-1.03-5.41-.31-8.12.04-.06.08-.12.13-.18.94-1.18,1.81-.33,2.05-.5.04-.03.19-.71.32-1.07.46-.22.79-.71.72-1.99-.05-1-.76-1.84-.84-2.57.57-.37,2.02-1.07,2.24-.92l1.25,2.88c.37.27,2.73-.45,3.22-.73.41-.24,2.79-2.88,3.02-3.3.67-1.26.4-4.03.54-4.2.27-.32.47-.04.49.36.04.81-.03,1.62,0,2.43.07,2.02-.1,3.13-.24,5.1-.06.89.01,1.8.01,2.71-.1.19-.29.63-.42.87-.05.09.04.35.02.58-.24.17-.57.38-.87.56-.69.15-1.63.24-2.07.32-.02.08-.03.18-.03.3-.29.11-.39.41-.18,1.37.09.44.93,1.72.92,2.22h-.71c-.02.11,0,.22,0,.33-.28.08-.49.28-.28.92.22.67,1.67.43,1.68,1.24.01.92-1.74,2.61-1.91,3.72-.13.82.38,1.07.44,1.62,0,.03,0,.05-.01.08-.33,1.01-1.21,1.2-1.67,2.15-.63.37-1.2.61-1.23.72,0,.6.45.97.62,1.54.13.46.01,1.19.21,1.49.24.35,1.82.46,2.04,1.12.44,1.31-.51.99-1.18,1.66-.74.74-1,1.58-1.38,2.22Z"/>
    <path class="a2" d="M286.16,273.04c.66,0,1.95-1.47,1.6-1.95-.19-.25-.99-.36-.87-.84.06-.25,3.23-2.07,3.78-3.06.19-.35-.14-.43-.14-.47,0-.15-.03-.35,0-.49.17-.9,1.99-1.34,2.85-1.89,3.42-2.14,7.41-7.71,5.95-11.9-.14-.41-.82-1.11-.77-1.37.05-.23.7-.68.92-1.04.66-1.09.45-1.83.28-3,2,.03,1.76,3.16,2.42,4.26.23.39,1.43,1.43,1.83.84.58-.86.16-3.91-.24-4.86-.2-.46-.77-.9-.81-1.13-.03-.15.17-.8.33-.82,1.15-.13,2.72,2.75,2.8,3.77.08,1.16-.6,2.38-.93,3.46-.1.33,0,.75-.12,1.09-.68,2.03-2.27,3.94-1.88,6.26h.98c-.12.53-.66,3.15.36,2.91.32-.07,1.78-4.62,1.95-5.34.22-.9.57-4.44,1.08-4.75,1.43-.87,1.96,1.98,1.96,2.93,0,1.99-.87,5.38-1.33,7.42-.16.71-.46,1.26-.62,1.93.41.1.49-.16.73-.36.78-.65,1.96-2.42,3.03-2.32,2.24.2-.98,4.69-1.58,5.48-2.99,3.9-6.72,6.27-10.32,9.36-.66.57-2.71,2.95-3.2,3.12-.18.06-.38.03-.57.03-.02-.82-.28-1.55-1.22-1.46l.5-1.32c-1.15-.5-.99-1.54-.13-2.32,1.9-1.72,4.94-2.77,5.71-5.59l-2.41,1.6c-1.84,2.1-4.13,3.02-6.42,4.27-.48.26-2.36,2.13-2.83,1.66-.31-1.1.87-1.27.97-2.19-.22-.21-1.26.63-1.64.69-.63.11-1.69-.3-2.49.04-.07-.84.23-1.64.49-2.43.02-.07-.02-.17,0-.24Z"/>
    <path class="a2" d="M294.83,284.99c1.13-.82,2.55-1.5,3.71-2.37,2.96-2.21,5.98-5.35,8.28-8.25.81-1.03,5.27-7.77,5.75-7.85.26-.05.54.23.81.21.44.58-2.59,5.02-2.96,5.9-1.21,2.87-1.21,4.64-3.25,7.44-.54.74-3.87,4.24-4.48,4.53-.43.21-.72-.1-1.05-.07-.12.01-2.05.66-2.35.78-.99.36-1.29,1.74-2.66,1.35v-.98s-2.19,0-2.19,0c-.09-.43.12-.48.4-.69Z"/>
    <path class="a2" d="M315.56,256.52c.31.73-.34,3.87-1.33,3.64-1.22-.28-.08-3.98,1.33-3.64Z"/>
    <path class="a2" d="M309.97,254.58c-.02-1.52-.33-4.21,1.7-4.37.27.28-.71,3.45-1.03,3.94-.19.3-.2.52-.66.43Z"/>
  </g>
  <g>
    <path class="cls-2" d="M3.04,11.7v-1.36h4.13v1.36H3.04Z"/>
    <path class="cls-2" d="M12.35,15.76c-.77,0-1.44-.23-1.99-.7-.56-.46-.99-1.14-1.29-2.03-.3-.89-.45-1.98-.45-3.27s.15-2.37.45-3.25c.3-.87.73-1.54,1.29-1.98.56-.45,1.22-.67,1.99-.67s1.42.22,1.97.67c.55.45.98,1.11,1.28,1.98.3.88.45,1.96.45,3.25s-.15,2.38-.45,3.27c-.3.89-.73,1.57-1.28,2.03-.55.46-1.21.7-1.97.7ZM12.35,14.29c.39,0,.73-.15,1.03-.45.3-.3.54-.78.7-1.44.17-.66.25-1.54.25-2.64s-.08-1.97-.25-2.62c-.17-.65-.4-1.11-.7-1.4-.3-.29-.65-.43-1.03-.43s-.73.14-1.03.43c-.3.29-.54.75-.71,1.4-.17.65-.26,1.52-.26,2.62s.09,1.98.26,2.64.41,1.14.71,1.44c.3.3.65.45,1.03.45Z"/>
    <path class="cls-2" d="M19.81,15.54c.05-1.03.14-1.99.27-2.86.13-.87.32-1.7.56-2.48s.56-1.54.94-2.28c.38-.74.84-1.5,1.38-2.26h-5.39v-1.57h7.39v1.14c-.66.84-1.19,1.65-1.6,2.41-.41.76-.73,1.54-.97,2.34-.23.79-.41,1.64-.52,2.54s-.18,1.91-.23,3.03h-1.84Z"/>
  </g>
</svg>