<?xml version="1.0" encoding="UTF-8"?>
<svg id="a2" xmlns="http://www.w3.org/2000/svg" viewBox="0 0 600 500">
  <defs>
    <style>
      .a2 {
        fill: #e1dad3;
      }

      .cls-2 {
        fill: #c9caca;
      }
    </style>
  </defs>
  <g>
    <path class="a2" d="M526.83,79.92c-1.26-.49-2.6,1.62-3.55,1.41-.42-.09-.8-.92-1.25-1.17-2.16-1.2-2.87-.32-4.8-.24-5.48.21-10.66-.09-16.07,1.45-.64-.07-1.14-.46-1.68-.75-.38-.2-1.34-.09-.97-.94.35-.79,1.62-.69,2.39-.97,1.39-.5,1.33-.47,2.89-.71v-1.44c-.27.11-1.04-.1-1.58.08-.64.21-1.39.93-1.94.82-.41-.08-1.61-.44-1.27-1.14,2.72-1.81,5.92-3.36,8.4-5.51,1.35-1.16,2.3-2.66,3.59-3.85-.31-.24,1.29-4.01-3.38-2.66-1.8.52-4.46,2.93-5.97,3.14-1.2.16-3.03.04-4.32,0-.94-.03-1.94.5-1.68-.96-.4.19-1.43-.43-.96,1.2.3,1.05,2.6.69,3.6.72.55.01,1.32-.31,1.2.48-3.35.73-7.17,4.16-10.41,4.7-3.6.61-8.6.08-12.37.58l-8.17,1.9,1.65-4.5c-1.18-2.25-3.64-.75-5.22.44-1.61,1.21-4.08,4.83-5.78,5.01-1.21.13-3.06-.14-3.84,1.2-.21.37.53.22.96.24.23,1.02-.8,1.17-1.48,1.64-3.96,2.73-7,4.81-10.29,8.42-.4.43-.76.81-.71,1.45l-.48-1.44c-2.45.49-4.16,1.16-5.77,3.11-1.7,2.06-2.19,5.59-5.49,5.07-.41-.07-.16-.66-.36-.87-.27-.28-.79-.05-.86-.11-.59,1.37-1.62,3.3-2.46,4.49-1.06,1.5-2.7,4.22-4.73,4.14-.69,1.28-1.54,2.42-2.17,3.83-.59,1.34-2.12,6.56-2.7,7.13-.95.93-2.28.6-3.03-.42-1.93-2.62.09-6.65.23-9.58l-4.73,5.58c-.95,1.09-.26,2.66-.58,3.73-.23.78-1.21.62-1.39.78-.22.19.54,1.41.49,2.11-.07,1-1.84,5.17-1.46,5.54,1.58-.12,2.43-.16,3.3,1.26,3.26,5.36-1.95,15.45-8.58,15.52l1.93,10.54c2.09-.26,5.01,2.08,5.2,4.17.15,1.69-2.31,3.36-3.04,4.48-.26.4-.23,1-.49,1.43-.44.72-2.47,2.07,0,2.41,2.79.39,3.94.51,6.26,2.38.63.51,4.87,4.69,5.03,5.05.34.76-.27.64-.63.8-1.17.51-2.47,1.01-3.14,2.14-.13.22,0,.54-.07.66l3.84-.72c-1.1,1.07-3.01,1.58-4.1,2.62-1.06,1.01-1.77,3.04-3.1,3.86-.4,1.24-1.27,2.85-1.43,4.08-.43,3.26,1.7,10.08,3.25,13.04,1.11,2.11,3.49,5.69,6.09,5.41,3.5-.37,5.36-2.38,8.4-3.6,3.59-1.44,8.34-2.03,11.54-3.33,1.43-.58,6.25-4.63,7.44-2.67.29.48.11,1.18.28,1.39.2.26,3.35,1.15,3.96.96,1.2-.38,4.58-3.85,5.59-4.97,2.68-2.97,2.73-1.96,6.24-3.36,6.8-2.72,16.03-9.79,20.08-15.9,1.05-1.58,2.09-3.19,2.53-4.66.22-.71,6.23-5.06,7.38-6.06,2.17-1.88,4.71-4.84,6.96-6.47.41-.3,2.62-1.47,2.87-1.21.02.69.1,1.27-.23,1.93-.41.82-6.94,7.04-8.16,8.15-.77.7-2,1.13-2.65,2.15.34.66,1.3.05,1.77-.15,1.14-.47,1.96-1.31,3-1.79.6-.28,1.34-.13,1.95-.45,1.14-.59,3.8-3.87,5.5-4.6.37-.62.74-1.24,1.12-1.86.73-1.22,1.46-2.43,2.19-3.65.72-1.2,1.43-2.39,2.15-3.59.24-.4.48-.8.72-1.19.31-.52.44-1.14.93-1.55.79-.65,1.25-1.79,1.65-2.69.4-.91.77-1.86,1.35-2.68,1.44-2.02,3.5-3.69,4.95-6.08.6-.98,3.45-6.36,2.95-6.88l-2.88.48c-.51-.51,1.26-5.25,1.67-6.24,1.27-3.04,3.43-4.97,3.15-8.41-.14-1.73-.88-3.56-.5-5.49-1.15-.32-1.83.64-2.7.9-2.44.73-.31-1.35.04-1.88,2.72-4.08,6.05-12.14,6.49-17.01.29-3.26-.51-6.66.49-9.82ZM477.62,121.61c-.8.7-.4,1.59-1.98,1.86-1.12.19-2.19-.04-3.27.1-7.09.9-9.43,11.88-12.32,16.94-.79,1.38-1.77,2.16-2.8,3.19h1.44c.15.14-1,2.89-1.22,3.34-.48.99-1.87,3.44-2.62,4.1-.67.59-.88.91-1.92.71-.26-.25.63-1.83.86-2.25.85-1.54,2.04-2.9,2.91-4.28.34-.53.49-1.55.54-1.62-1.06,1.06-2.97,3.01-4.07,3.85-3.01,2.3-1.11-2.53-1.19-3.58-.04-.49-.46-.97-.49-1.47-.1-1.49.39-4.32-.96-5.27-.64-.45-.76-.25-1.21.24-1.37,1.52-1.36,6.06-1.68,8.15-1.78-1.29-3.02.51-3.29,2.26-.13.84.38,1.25.41,1.83.06,1.35-.02,2.71,0,4.06-.65.23-1.53-.5-1.92-.27-1.53.93-1.69,3.36-1.97,3.57-.19.14-.89.03-1.38.29-2.45,1.31-1,6.66-1.52,9.04-.72,3.28-4.25,7.89-6.39,10.41-.24.29-.18.77-.29.9-.04.05-1.35.09-1.4.03-.08-.11-.52-2.37-.5-2.62.05-.61.57-1.11.52-1.92-.14-1.99-1.75-5.32-1.94-7.23-.2-1.99,2.5-5.61,3.83-7.19,1.89-2.23,5.14-3.96,6.49-5.5.96-1.1,1.95-4.28,2.64-5.76.02-.05,1.16-.37.24-.96-.8.34-2.18.55-2.83.94-.42.25-.22.7-.38.86-.4.41-1.66.52-1.82,1.56-.2.1-1.29.17-1.44.48-.09.19.14.77-.02.92-.2.19-3.28-.16-5.24,1.25-2.93,2.1-1.44,3.23-5.28.46-.67-.48-.51-.95-.49-1.67,1.08-.29,2.06.57,3.01.42,1.53-.24,3.88-2.19,5.14-1.85l3.36-3.36c.46-.02.9.18.96-.24.27-1.89-.7-.96-.96-1.2-.12-.11-.96-2.94-.96-3.11,0-.34.43-2.27.56-2.8.24-.99,1.29-1.84.88-3.2-1.37.21-3.85,3.21-5.04,2.88-1.28-.36.05-2.4-.3-3.54-.21-.7-1.41-1.01-1.41-1.97,0-.51,1.76-3.38,2.2-4.07,1.37-2.13,3.85-5.57,5.5-7.45,2.84-3.25,11.66-7.32,15.87-9.55,3.35-1.78,1.51.39.19,2.11-.42.54-.99.93-1.4,1.48-.83,1.1-3.24,4.04-3.62,5.02-.25.67.09.81.72.72,1.14-.16,4.53-2.69,5.52-3.59,2.45-2.24,4.2-5.49,6.47-7.92,1.1-.21.58.47.82,1.1.36.96,1.19,4.57,2.54,4.18.8-.24,1.06-2.2,1.24-2.36.16-.14,3.16-.46,4.14-.89,1.19-.53,3.38-2.85,3.77-2.97.32-.09,2.29,1.29,2.62,1.65,1.5,1.64,1.71,4.61,1.42,6.73-.14,1.03-1.03,1.61-.96,2.64h2.64c.98,1-.41.9-.98,1.41ZM480.77,119.24c-.33-.35,1.63-4.23,2.4-3.36.66.76-1.67,4.13-2.4,3.36Z"/>
    <path class="a2" d="M271.09,383.71c-.43-.37-.28-.98-.78-1.2-.6-.26-3.56-.96-4.24-.98-1.51-.07-4.75,1.41-5.08-.89-1.89,1.06-3.06-.44-4.55-.53-2.17-.14-3.78,1.75-6.45.26-.6-.33-.66-1.06-1.67-1.21-1.73-.25-2.83.68-4.34.97-.73.14-1.57-.15-2.33.07-.41.12-.68.7-1.09.83-1.52.47-2.2-.39-3.39-.81-.48-.17-1.34.06-1.54-.15-.18-.2,0-1.06-1.25-1.36-.7.48-.76,1.11-.74,1.9h-2.38c.06.8-.08,1.64,0,2.41,1.69.5,2.51-1.4,4.06-.94.76.22.68,1.37.74,1.42.21.17,1.25-.45.96.72l-.48.24c.3,1.07-.56,2.06-.41,3.01.22,1.41,1.56,2.51,1.78,3.54.37,1.73-.49,2.98,1.51,4.26.86.55,1.45-.47,2.2-.71.93-.3.57.37.92.91.81,1.27,1.9-.61,3.12-.46l.5,2.38h2.87c.04-.27-.07-.89,0-.95-.49-1.54.92-3.24,1.41-1.65.16.5-.08,1.18.03,1.65.14.66.53.98.96,1.44l.65.06c.21.07.22.36.31.42.43.26,2.15,1.22,2.4.96v-2.88c.25-.25,5.06.36,5.23.56.16.19-.12.99.32.92.4-.06.72-.38,1.03-.42.54-.07.87.37,1.1.38.63.04,1.39-1.74,2.4-1.44-.02-.92.89-2.42.96-4.32.01-.32,0-.64,0-.96,1.47-.22.74.32.96.96.01.04.4.07.49.69.1.71-.12,1.52,0,2.18l2.17-1.42c2.75-1.99,2.16-4.68,2.15-7.69l3.36.96c-.88-1.5-2.61-2.06-3.85-3.12Z"/>
    <path class="a2" d="M356.98,198.37c-3.06.49-6.21,2.32-9.35,1.91-1.17-.15-2.6-1.36-3.62-.73-1.55.97-6.02,7.39-6.62,9.21-1.11,3.35-1.31,2.79-3.18,5.45-1.2,1.71-1.85,3.62-2.91,5.24-.74,1.12-5.78,5.97-4.55,7.2,3.02-.03,5.75-2.39,8.18-4.05,1.56-1.07,3.89-2.39,5.27-3.84.9-.94,1.64-3.23,2.38-3.86.91-.78,5.26-3.64,6.38-4.18.59-.28,1.7-.34,1.76-.41.18-.2-.15-1.07.08-1.34.1-.11.75-.17,1.16-.52.87-.76,3.84-3.56,4.3-4.34.99-1.65.69-3.89.72-5.75Z"/>
    <path class="a2" d="M378.56,251.35c-2.09,3.16-4.03,6.44-6.49,9.34-.3.35-1.23,1.43-1.66.98-.37-.39,4.21-8.45,4.23-9.92,0-1.21,1.09-6.28.57-6.86-.77-.86-2.51,2.58-2.41,3.58.07.79.69,1.2.43,2.34-.71,3.18-8.25,11.51-11.32,12.68-1.98.76-6.16.69-5.9,3.22.04.41,1.38-.08.97,1.2h.96c1-.67,1.21-.29,2.08-.56.98-.3,5.49-2.86,6.08-2.31.38,1.43-2.08,2.15-2.33,2.47-.21.28.08.99-.54,1.62-.78.78-2.41,1.27-3.37,1.67-.38,1.43,1.39,1.07,2.15.95,1.51-.23,4.81-2.45,5.22-2.35.57.15.73,1.21,1.74.44.34.36-1.49,2.65.25,2.41,1.2-.17,3.47-1.68,4.55-2.41,2.12-1.44,4.21-3.13,5.28-5.52-.43-.24-1.35.44-1.7.7-1.22.96-2.53,2.39-3.82,3.37-.58.21-.99-.16-.72-.72.8-1.66,3.35-3.6,4.23-5.36.98-1.95,2.75-7.4,2.97-9.51.1-.95-.48-2.15-1.45-1.44Z"/>
    <path class="a2" d="M284.99,377.01c-1.45-1.48-.69-2.69-3.82-1.7-.05-.1-1.09-.46-1.42-.74-.52-.44-1.27-1.46-1.76-1.6-1.01-.29-2.45.08-3.54-.06.3-1.83.72-3.61.47-5.51-.22-1.68-1.88-4.18-1.91-5.52-1.3.09-2.39-.7-3.61-.95-.71-.14-1.93.38-2.15-.49-.13-.53-.01-1.18-.76-1.4-.69-.2-4.39-.18-5.24-.05-1.75.26-4.2,3.7-6.47,3.37-.12.95.47,1.53.49,2.16.01.72-1.28,2.61-1.44,3.84-.38,2.97-.08,8.48,3.32,9.61,2.21.73,2.38-.41,3.71-.7.64-.14,3.88.23,4.61.53.47.19.76.69,1.12.8,1.41.45,2.42-.52,2.58-1.86.26-2.27.16-1.67-1.19-1.91-1.45-.25-1.55-1.85-.97-1.93,3.21-.41,2.67,1.5,3.6,3.84.5.14.79.68,1.29.86,4.42,1.64,2.78-.77,3.96-1.61.39-.27,1.86-.31,1.95-.21.17.18-.56,3.59,1.73,4.27,1.23.37,1.4-.35,1.63-.44.52-.2.72-.37.96-.48.92-.98.02-1.35,0-1.44-.08-.42.06-.98,0-1.44.28.04.79-.11.92.03.09.09.92,2.08,1,2.37.23.84-.56,1.92,1.17,1.41.66-.19,1.4-1.69,1.71-1.89-.47-.66-1.24-.47-1.94-1.18Z"/>
    <path class="a2" d="M278.77,383.47c-.31.14-2.03.16-2.35.53-.32.37-.53,2.51-.05,3.08l1.92.7c-.24-.92.96-3.02.48-4.32Z"/>
    <path class="a2" d="M206.8,159.52l1.44,1.44c.94-1.71.04-2.64-.03-4.07-.05-1.08.51-1.77.52-2.41.01-.77-.8-1.38-.92-1.98-.3-1.54,1.49-2.7,2.83-1.61,1.07-3.3-3.73-7.19-3.38-9.84.08-.61.29-.82.74-1.19l3.11,1.44-1.92-5.27c-1.08-.21-7.04-5.98-7.46-7.17-.26-.74-.73-2.13.51-1.95,1.51.22,2.62,1.71,4.07,1.93-.51-1.13-.29-2.54-.55-3.52-.36-1.34-1.37-2.95-1.74-4.49-2.45-10.04-4.07-22.58-12.32-29.88-.39-.34-.97-.46-1.22-.7-.8-.76.09-2-1.43-1.69-.04-.29.07-.89,0-.96-.43-.4-.4.83-.96-.96-.15-.47-2.18-4.63-2.4-4.8l-.05-.68-.43-.28c.1-.25-.51-2.05-.72-2.39-1.08-1.79-4.03-3.03-5.05-4.54-2.43-3.57-.53-2.89-4.79-5.76-1.32-.89-4.28-8.06-2.87-9.84-.14-.05-1.54-2.42-2.4-1.44-.65.74-.45,3.7-.48,4.8.75.49,2.23,1.82,2.37,2.67.15.86-.82,1.35-1.6,1.11-.28-.08-4.41-2.9-4.86-3.3-.78-.69-1.4-1.23-1.19-2.4-.1-.02-.97-.96-1.88-.45-.66,1.54-.76,2.78-2.6,2.29-1.25-.33-3.94-1.45-5.09-2.11-.85-.49-5.2-4.18-5.78-3.57-.54,2.07.85,3.03.96,4.79l-1.65-.47c-1,1.29-2.13,3.82-1.65,5.45.17.57.94.84,1.15,1.24.7,1.33-.63,4.78-.75,6.47-.16,2.19.48,3.92.5,6.01-3.48-.15-9.55.59-8.09,5.45.13.42.68.66.82,1.1.17.53,0,1.18.17,1.74.8,2.68,3.68,4.73,5.4,7.07.87,1.18,3.9,5.75,3.58,6.88-.3,1.05-2.31,1.49-3.1,2.2-1.52,1.35-1.74,4.79-1.66,6.73-1.24-.42-1.64-1.8-2.39-2.65-.42-.47-2.89-3.15-3.37-2.63-.14,2.62-.04,4.79.6,7.32.52,2.07,1.68,4,2.19,5.96.19.75-.04,1.54.16,2.24.42,1.52,3.13,3.24,3.77,4.87.45,1.17-1.62.39-1.9,1.46-.21.8,1.02,3.36,1.5,4.22,2.14,3.78,9.06,9.48,12.63,12.31.88.7,4.8,3.12,5.05,3.59.68,1.29-2.62.47-2.88.72.04.68-.12,1.43.07,2.09.59,2.07,7.96,8.01,10.03,9.64,1.38,1.09,3.34,1.81,4.52,3.15,2.45,2.8,3.79,8.14,5.98,11.29.33,1-1.48.72-1.84,1.92-.68,2.28,4.82,5.11,6.43,5.01,1.45-.09,1.11-2.95,3.43-3.33,1.35-.22,5.17,4.16,5.92,5.47l4.33,4.07c.13-.46.32-.97.48-1.44-2.25-.12-2.21-2.79-1.84-4.48.24-1.1,1.84-2.32,1.84-2.48,0-.35-2.65-1.38-.73-3.61.53-.62,1.34-.31,1.62-.53.15-.11.11-.61.32-.86.76-.91,1.83-1.95,3.11-1.95.07-.77-.11-1.66,0-2.4,0-.04.52-.1.51-.7-.02-1.25-1.6-1.34-2.42-1.95-2.97-2.22-3.37-5.77-4.55-8.88-.64-1.67-1.99-2.94-2.76-4.44-1.06-2.07-1.66-4.01-2.88-6.24-.23-.42-.34-1.23-.39-1.29-.04-.05-1.3-.06-1.37.05-.24.35.32,1.33-1.22.87-1.17-.36-5.21-7.57-5.08-8.82.05-.48.54-.99.45-1.41-.18-.89-5.05-4.34-4.28-6.53,3.83.48,1.14-1.89.95-3.6-.13-1.13.66-2.1.46-2.81-.31-1.09-3.04-2.58-3.82-3.4-.36-.37-1.92-2.67-2.14-3.14-.53-1.14.07-2.34-.47-3.37-.49-.94-4.13-2.73-4.98-4.13-1.76-2.89.27-1.64,1.38-2.31,1.68-1.02-1.24-2.96-1.87-3.92-4.27-6.54,5.59-1.56,6.17-2.09.45-.41-.61-1.35-.98-1.66-1.16-.98-2.65-1.89-3.82-2.9v-.24s.98-.25.98-.25l-.98-3.59c3.45-.27,6.9,5.1,9.82,4.8,1.07-.11,2.17-1,3.37-1,3.39,0,9.74,6.21,11.76,8.9.54.72,2.09,2.75,2.39,3.37.64,1.33-1.38.27-1.68.24-1.43-.12-6.04-.54-6.02,1.2.03,1.93,3.25,3.43,4.59,4.54.51.43.9,1.03,1.42,1.46.63.52,3.98,2.81,4.08,3.12.08.26.19,1.19-.23,1.19-2.81-2.62-6.43-4.94-4.46,1.1.36,1.11,1.81,3.05,1.83,3.93,0,.24-2.59.92-2.43,2.88.17,2.05,4.15,4.57,3.86,7.19-.53,4.83-.39,8.01,1.82,12.58.65,1.34,2.87,3.09,2.94,3.3.24.8-.07,1.92.05,2.82.11.81,1.01,2.35.91,2.82-.1.46-1.09.83-.89,1.45.11.33.65.59.85,1.1.17.44.05,1.01.33,1.58.38.78,1.29,1.76,1.91,2.4,1.01-1.5-1.37-3.56.72-4.32Z"/>
    <path class="a2" d="M232.71,366.92c.36,2.43.66,5.01,1.97,7.14.9,1.46.8.15,1.69-.11.62-.18,2.56-.19,3.25-.09.36.05.52,1.59,1.53,1.88.55.16,1.76.16,2.35.07.81-.12,1.04-.77,1.49-.9,1.01-.29,1.8.29,2.83-.53,1.51-1.2.33-2.4.23-3.62-.11-1.41.16-2.95-.02-4.3-.25-1.9-.67-1.52-.46-3.87.06-.7-1.42-3.99-1.91-4.32-.77-.53-2.97-.09-4.09-.22-.93-.11-1.78-.85-2.17-.95-2.12-.53-3.54,1.74-4.81,2.65-.38.27-.83.16-.95.23-1.82,1.11-1.68,3.67-2.4,5.27,1.42-.05,1.29.63,1.44,1.68Z"/>
    <path class="a2" d="M181.38,124.52c-.56.51,2.78,4.26,3.36,2.16.48-1.75-2-2.54-3.36-2.16Z"/>
    <path class="a2" d="M218.87,208.6c-2.16-3.99-4.02-9.39-4.86-13.85-.29-1.57-.5-3.42-.5-5.02-1.09-.16-.76-.01-1.04.62-.29.66-.69,1.27-.97,1.92-.62,1.44-1.39,5.35-2.06,6.09-1.1,1.21-2.49-.72-2.16-1.92.01-.05.37-.1.4-.33.12-.81.65-3.78.53-4.19-.13-.45-.66-.75-1.17-.75-.36,0-.21.75-.71,1.2-.47.42-1.58.69-1.93,1.44-.58,1.26,2.07.24,2.4,1.44.05.38-.25.92-.48,1.2-.12.15-.73.17-.9.77-.14.5-.15,1.59-.06,2.11.23,1.29,2.09,3.85,2.8,5.11.31,4.33,5.48,7.45,8.48,10.23,1.04.97,4.01,3.46,3.59,4.8,1.3.17,2.18,1.88,3.13.01.29-.56.29-1.09.25-1.7-.25-4.38-2.9-5.76-4.75-9.17Z"/>
    <path class="a2" d="M232.23,374.63c-.17-.75-1.38-.68-1.43-.75l-.28.43-.68.05c-.18,1.21-.84,2.17-.96,3.36l2.87-.49.48-2.6Z"/>
  </g>
  <g>
    <path class="cls-2" d="M3.04,11.7v-1.36h4.13v1.36H3.04Z"/>
    <path class="cls-2" d="M12.35,15.76c-.77,0-1.44-.23-1.99-.7-.56-.46-.99-1.14-1.29-2.03-.3-.89-.45-1.98-.45-3.27s.15-2.37.45-3.25c.3-.87.73-1.54,1.29-1.98.56-.45,1.22-.67,1.99-.67s1.42.22,1.97.67c.55.45.98,1.11,1.28,1.98.3.87.45,1.96.45,3.25s-.15,2.38-.45,3.27c-.3.89-.73,1.57-1.28,2.03-.55.46-1.21.7-1.97.7ZM12.35,14.29c.39,0,.73-.15,1.03-.45.3-.3.54-.78.7-1.44.17-.66.25-1.54.25-2.64s-.08-1.97-.25-2.62c-.17-.65-.4-1.11-.7-1.4-.3-.29-.65-.43-1.03-.43s-.73.14-1.03.43c-.3.29-.54.75-.71,1.4-.17.65-.26,1.52-.26,2.62s.09,1.98.26,2.64c.17.66.41,1.14.71,1.44.3.3.65.45,1.03.45Z"/>
    <path class="cls-2" d="M18.12,15.54v-1.52h2.53v-7.87h-2.06v-1.17c.54-.11,1.01-.23,1.42-.38.4-.14.77-.32,1.1-.52h1.36v9.94h2.24v1.52h-6.58Z"/>
  </g>
</svg>