<?xml version="1.0" encoding="UTF-8"?>
<svg id="a2" xmlns="http://www.w3.org/2000/svg" viewBox="0 0 600 500">
  <defs>
    <style>
      .a2 {
        fill: #e1dad3;
      }

      .cls-2 {
        fill: #c9caca;
      }
    </style>
  </defs>
  <g>
    <path class="a2" d="M295.64,273.13c-1.16-1.02-3.24-2.48-4.57-3.35-.68-.45-2.79-.77-2.88-2.16.33-.44,2.74.66,2.85.76.13.13,0,.65.03.92l2.4.48c-.16-1.54.89-2.98.43-4.51-.16-.54-4.27-2.75-5.18-3.22-.13-.29-.03-.6-.04-.9-.03-.48,0-.96,0-1.44,0-.32,0-.64,0-.96v-.96h-.48s-.27-.02-.4-.34c-.15-.36,0-.95-.1-1.08-.17-.22-2.13.18-2.35-.04-.47-.48-.35-2.34-.5-2.86-.2-.66-2.55-2.54-1.92-3.84l-.4-.35-.08-1.09c-.07-.03-.17-.73-.77-.9-.61-.17-1.99.05-2.11-.06-.97.14-1.1,0-.96-.96-.78-.22-.36-1.37-.48-1.92-.01-.06-.74-.31-.48-.96h-.96c-.3.96-.81.85-.96,2.88-.08,1.13.49,2.22-.96,1.92v.96s-.96,0-.96,0c-.22-1.61-.69-2.77-.41-4.48.04-.24.39-.28.4-.32.07-.19-.17-.61.09-.87.16-.16.77.03.89-.38.07-.25-.09-.54-.02-.67h-.48l-.96-.48c-.14.7-.57.38-.96.48.08,1.21-1.46,2.58-1.45,3.6.01,1.65,2.01,3.92,2.33,5.36.33,1.5-.07,3.4.08,4.96-1.64-.75-1.63-4.83-2.41-5.76-.05-.05-1.38-.06-1.43,0-.1.13.11,1.12-.05,1.63-.22.74-1.03.59-1.3.86-1.26,1.22.34,7.44.97,9.17,1.31,3.59,4.54,7.82,7.08,10.67,2.19,2.46,5.08,5.99,8.64,5.51-.26-1.55-.4-1.63-1.44-2.88l1.92-.72c-1.17-1.61-3.24-2.15-3.84-4.08l7.35,1.52c2.46,1.33,5.07,2.96,8,2.79.14-.85-.62-1.43-1.19-1.93Z"/>
    <path class="a2" d="M465.83,360.54c-.56-1.88-.22-3.67-1.79-4.94-.38-.31-.96-.38-1.12-.54-.34-.35-.45-1.67-.59-1.81-.14-.14-3.41-.09-4.04-.01-1.91.22-4.7,1.45-6.01,2.87-.1.1-.5.89-.48.96.01.05.34.11.42.34.26.78-2.48,3.96-3.06,5.41-.7,1.75-.63,3.32-1.2,5.05,0,1.9,2.13,2.06,2.4,2.63h.96c.03-.07,1.16-.87,1.26-.91,2.27-.71,2.53,2.16,3.34,2.32.41.09.93-.43,1.42-.48.78-.07,1.29.44,1.9.49,3.18.26,4.46-.18,6.48-2.62,3.43-4.16,1.32-4.67.11-8.77Z"/>
    <path class="a2" d="M320.03,201.22c-2-.44-3.34.38-4.73.41-.8.02-1.54-.95-2.41-.99-.72-.04-1.27.47-1.82.42-.59-.05-7.82-2.02-8.48-2.32v1.44c1.11.81,4.11,3.5,4.82,4.54.7,1.03,1,2.67,2.37,3.39.37.2,4.22,1.25,4.56,1.22.79-.07,1.02-.78,1.5-.93,1.38-.42,3.16.53,4.26,1.37,3.06,2.32,7.34,8.62,8.96,12.15.9,1.96,1.33,4.31,2.54,6.1l-.34-3.02-.86-2.26c2.1.46,2.43-.66,2.42-2.64-.01-4.71-8.09-17.83-12.82-18.88Z"/>
    <path class="a2" d="M459.26,379.62c-.73-.16-.67-2.98-2.42-.45-.22.32-.19.79-.28.91-.04.05-1.35.09-1.39.03-.1-.14.12-.95-.22-1.46-.26-.39-.9-.43-1.23-.71-.51-.43-.32-1.59-1.19-1.2-.83.37-.64,2.14-1.67,2.65-.81.4-2.33.13-2.41.23-.06.08.11.72-.07,1.11-.33.74-1.23,1.53-1.59,2.27-2.19,4.49-.36,9.5,5.02,9.58.67,0,1.38-.05,1.92-.48.22-.18.43-1.24,1.2-.96l.24.48c2.72-1.27,3.8-2.89,5.04-5.75,1.02-2.35,1.49-4.22.71-6.73l-1.65.48Z"/>
    <path class="a2" d="M263.97,253.46c-1.76.55-.14,6.27,1.68,6.72l-.46-5.54c.01-.61-.63-1.37-1.21-1.18Z"/>
    <path class="a2" d="M198.01,199.62c-1.86.37-2.23,1.06-3.82,1.7-.63.26-1.34.12-1.95.45-.97.52-.27,1.74.74,1.71,1.02-.03,4.85-2.77,5.51-3.86-.15.03-.33-.03-.48,0Z"/>
    <path class="a2" d="M204.47,135.79c-1.14-2.85-1.52-5.68-2.15-8.65-.27-1.25-.25-1.54-.74-2.87-.34-.91-.07-2.36-1.68-1.23-.34.24-.59,2.07-1.42,1.21-.11-.11.07-2-.01-2.63-.08-.62-.44-1.14-.49-1.91-.16-2.48.54-7.65-.02-9.58-.24-.81-1.32-.93-2.07-.71-1.12.33-1.51,2.06-1.74,3.03-.12.52-.92.32-.95.28-.05-.07-.22-1.1-.54-1.62-1.28-2.05-4.15-4.77-4.28-7.25-.03-.56-.06-1.13.17-1.57-.03-.1-.06-.2-.05-.29.08-.63.23-1.21.47-1.8.06-.15.15-.29.21-.43-.11-.03-.21-.04-.3-.01-1.28-2.17-1.74-.93-3.84-.96.06-1.83-.1-3.69,0-5.53.03-.51.46-.98.47-1.19.06-1.02.19-4.73-.21-5.31-.43-.62-2.36-.68-3.15-1.17-.76-.48-.9-1.39-1.42-1.94-.52-.55-1.29-.7-1.7-1.18-.91-1.04-.81-2.88-1.2-3.84-1.11-2.77-2.83-4.12-3.84-6.72-.37-.96-1.12-1.72-.97-2.87h-2.38c.88-3.63-3.31-1.93-3.8-2.46-.25-.27-.28-1.52-1.3-1.82-2.46-.72-3.93,1.56-5.47,2.58-.42.28-1.07.2-1.46.46-.65.44-.58,2.59-1.66,3.14-.94.48-.71-.79-.72-1.2-.01-.52-.12-1.9,0-2.16-2.61-.15-1.19-3.64-.48-5.28l-2.4-2.64c-.36-.34-1.27-.13-1.42-.25-.54-.43,1.27-7.62-1.93-7.66-.31,1.52-.91,4.44-1.9,5.54-1.29,1.42-2.24,1.2-3.86.7-.08-.02-.54-.89-1.44-.48h-.96s0,.96,0,.96c-.84,1.23-1.06,3.73-1.44,5.28-.1.4.08,1.02-.08,1.59-.64,2.37-2.6,4.94-2.8,7.53l-.72-2.88c-.72.41-1.89,3.63-1.64,3.81,1.31-.22,1.03,1.08.91,2.18-.28,2.54-2.14,9.37-3.09,11.78-1.12,2.82-3.24.56-3.61.95.56,4.12.43,8.43,1.51,12.41,4.03,2.13,3.44-1.26,4.7-2.11.39-.27,1.84-.32,1.94-.22.16.17.04,3.82,0,4.55-.28,4.07-1.54,8.26-.95,12.49.18,1.3,1.45,3.64,1.82,5.38.3,1.42.3,3.28.6,4.68.72,3.4,2.03,6.57,3.09,9.86l1.21.47c-.08-3.61-.12-7.41,1.54-10.7,2.19-4.33,3.59-2.17,3.25,1.81-.05.58-.45,1.14-.49,1.91-.25,4.78.35,9.19,1.96,13.68h2.36c.13-1.41.31-3.16,1.94-2.14.14.09.48.45.48.48v10.08c0,.32,2.77,5.3,3.19,5.45.45.16,1.04,0,1.62.3,1.25.63,2.74,3.57,3.24,4.91,1.54,4.11,2.46,8.56,4.16,12.64.22.52,2.44,4.39,2.65,4.54,1.55,1.13.81-1.65.98-2.87.28-2.03,1.33-4.07,1.93-6h1.42c1.55,6.76,2.84,13.64,5.28,20.15,1.6-.19,1.58-1.8,2.82.3.16.27.99,1.99,1.02,2.1h.48s.29,0,.41-.31c.21-.6.42-3.47,1.75-3.05.6.19,1.98,3.03,2.11,3.69.15.78-.47,1.11-.19,1.59,1.3-.43,3.21-1.55,4.38-1.86.64-.17,1.44.09,1.61.66.16.55-1.23,1.79-1.67,2.17-.77.65-4.44,2.66-4.57,3.11-.37,1.28,1.84,1.27,2.63,1.19.81-.09,8.12-2.06,8.41-2.39.05-.06-.05-.6.22-.96.71-.93,3.24-1.26,3.13-2.88-.44-.41-2.56,1.55-3.21,1.83-.31.13-3.13,1.09-2.55-.15.76-1.63,5.02-2.66,6.7-3.85.89-.64,3.97-3.34,2.42-4.31-1.68-1.05-4.43,2.05-6.01,2.64-.86.33-.89-.55-.69-1.17.14-.43,1.22-1.17,1.63-1.73,3.12-4.2,6.08-8.81,7.83-13.76.84-2.36,2.32-5.27-1.34-5.42-.24-1.56,1.97-5.57,1.44-6.72-.03-.06-.55-.16-.74-.45-.54-.84,2.27-5.53,2.57-7.08.19-.95.48-2.83.56-3.76.42-4.78-3.77-9.76-5.51-14.14ZM191.77,192.42c.21-1.15.71-2.15.48-3.36,1.29.13,1.82,1.41,3.36.96.44,1.35-3.46,2.78-3.84,2.4ZM197.76,163.62c-.99.48-.67-.92-.72-.96-.26-.18-1.51,0-1.93.23-1.7.89-1.44,5.01-1.44,6.72l-1.91,10.33c-1.02.04-.91.22-.96-.72-.09-1.85-.3-6.44-1.18-7.94-1.14-1.93-1.45.93-1.7,1.69-1.07,3.18-2.09-.64-2.85-1.45-.96-1.03-2.76-2.18-3.61-3.58-.27-.44-.97-2.64-.72-2.87,1.19-.33,2.09-.6,3.36-.48v-.96c-1.28-.25-1.72-1.95-2.17-2.87-.16-.32-1.16-1.04-.69-1.44.12-.1,1.39.24.94-.73-.21-.46-3.98-3.18-4.82-3.84-.33-.26-.85-.19-.93-.26-.27-.24.52-1.13.43-1.6-.09-.45-.78-.72-.91-1.03-.46-1.11,1.34-.28.95-1.43-4.51-4.97-8.05-10.43-10.8-16.55-.67-1.49-2.31-4.75-2.54-6.1-.3-1.78-.4-4.68-.56-6.64-.21-2.66.54-5.77.95-8.39,1.76.7.75,3.62,2.4,4.32-.57-1.23,1.34-5.66,2.64-5.28.64.19,1.58,2.89,1.67,3.61.56,4.33.67,8.87,1.45,13.19.31,1.72,1.26,5.38,2.01,6.87,2.04,4.06,5.08.3,2.07-2.55l-1.68,1.92c-.13-2.18-2.02-7.89,2.1-6.66l3.17,2.82c1.56,3.8,3.36,7.58,5.38,11.17.51.91.25,2.46,1.81,2.26.42-1.11-.67-2.76-.44-3.53.11-.4,1.13-1.4,1.61-1.25.24.08,3.25,3.09,3.64,3.58,2.57,3.21,1.53,6.34,2.49,9.99.38,1.45.69,3.02,2.3,3.22.46.06.97-.05,1.44,0-.67,1.56,1.48,3.21,1.47,4.08,0,.25-1.46,3-1.71,3.12Z"/>
  </g>
  <g>
    <path class="cls-2" d="M4.39,13.73v-3.46H1.23v-1.34h3.16v-3.47h1.39v3.47h3.17v1.34h-3.17v3.46h-1.39Z"/>
    <path class="cls-2" d="M14.02,15.76c-.77,0-1.44-.23-1.99-.7-.56-.46-.99-1.14-1.29-2.03-.3-.89-.45-1.98-.45-3.27s.15-2.37.45-3.25c.3-.87.73-1.54,1.29-1.98.56-.45,1.22-.67,1.99-.67s1.42.22,1.97.67c.55.45.98,1.11,1.28,1.98.3.88.45,1.96.45,3.25s-.15,2.38-.45,3.27c-.3.89-.73,1.57-1.28,2.03-.55.46-1.21.7-1.97.7ZM14.02,14.29c.39,0,.73-.15,1.03-.45.3-.3.54-.78.7-1.44.17-.66.25-1.54.25-2.64s-.08-1.97-.25-2.62c-.17-.65-.4-1.11-.7-1.4-.3-.29-.65-.43-1.03-.43s-.73.14-1.03.43c-.3.29-.54.75-.71,1.4s-.26,1.52-.26,2.62.09,1.98.26,2.64c.17.66.41,1.14.71,1.44.3.3.65.45,1.03.45Z"/>
    <path class="cls-2" d="M22.64,15.76c-.59,0-1.12-.08-1.59-.22-.47-.15-.88-.35-1.24-.59-.35-.25-.67-.5-.94-.77l.86-1.2c.22.22.46.43.72.62.26.19.55.34.88.46s.7.18,1.1.18c.43,0,.81-.09,1.16-.28s.62-.46.81-.81c.2-.35.3-.77.3-1.25,0-.73-.2-1.29-.6-1.7-.4-.41-.93-.61-1.59-.61-.37,0-.68.06-.94.17-.26.11-.56.28-.89.5l-.89-.58.34-5.6h5.83v1.57h-4.27l-.27,3.01c.25-.13.5-.23.75-.3s.53-.1.83-.1c.65,0,1.24.12,1.77.38.53.25.95.64,1.27,1.17.31.53.47,1.2.47,2.02s-.18,1.54-.55,2.13c-.37.59-.84,1.03-1.43,1.34-.59.31-1.22.46-1.9.46Z"/>
  </g>
</svg>