<?xml version="1.0" encoding="UTF-8"?>
<svg id="a2" xmlns="http://www.w3.org/2000/svg" viewBox="0 0 600 500">
  <defs>
    <style>
      .a2 {
        fill: #e1dad3;
      }

      .cls-2 {
        fill: #c9caca;
      }
    </style>
  </defs>
  <g>
    <path class="a2" d="M398.5,135.68c.48-2.1,1.23-6.32,3.23-7.32,1.69-.84,2.59.76,3.28-2.48.64-3.04,2.62-14.5,4.49-16.37.4-.4,2.25-.68,3.04-1.52,1.85-1.96,2.94-6.18,4.82-8.61.59-.77,3.38-3.69,4.06-4.09,1.04-.61,3.05-.93,4.32-1.44,3.85-1.55,7.27-2.95,11.18-4.17,1.5-.46,9.13-5.55,10.3-6.73.44-.44.79-1.92,1.83-2.24.41-.12,1.77-.39,1.62.42-.78-.08-1.18.61-1.79.87-.92.4-1.19-.51-1.09,1.29.04.63-.19.92.7.7,1.56-.4,3.16-1.71,4.56-2.16,3.08-1,15.82-5.39,17.54-7.41,2.39-2.81,2.96-5.81,7.09-7.78,1.03-.49,2.44-.52,3.22-1.34,2.71.12,6.29.31,8.76-.6.81-.3,1.56-.14,1.31-1.32.53-.03,1.03.06,1.59-.08,1.2-.3,2.96-2.11,3.93-1.84,1.43.4-.28,3.98.24,5.28,1.35-.05,2.72.08,4.07-.01.83-.06,1.53-1.11,2.1.34.36.92-.43,1.35,1.51,1.11.35.84-.54,2.1-.44,2.58.06.28,1.84,2.06,2.18,2.15.6.18,2.15.17,2.75,0,.48-.14.71-.83,1.5-.91,2.29-.24,2.18,2.99,2.73,4.5.21.58.7.71.9,1.02.52.79.38,1.58.46,1.7.55.87,1.27-.81,1.35-1.29.17-1.01.08-2.02.09-3.03.77-.15,1.26.41,1.67.97.52.72,1.07,2.7,1.22,2.86.95,1.1,2.55-1.89,2.87-2.58.28-.62.96-.21,1.44-.3-.03.87.08,1.76,0,2.63-.26,2.65-1.95,7-1.95,9.12,0,.77.47,1.34.51,1.93.09,1.5-.07,3.02.03,4.52l2.34.54c.11,1.27.79,2.49.52,3.8h1.44c.4,1.47-.57,1.43-.96,1.92-.92,1.15-.34,4.33-.49,5.98-.36,4.09-2.31,9.88-4.21,13.53-.43.82-1.78,2.27-1.94,2.85-.18.64.09,1.83-.13,2.05-.19.19-.82-.04-.9.04-.49-1.27-1.32.31-1.68.48-.56.26-.94-.13-.72-.72.37-.97,1.37-2.06,1.84-2.95,1.59-3,5.22-9.91,4.17-13.13-.24-.73-.76-1.61-1.7-1.42-.92,3.59-2.91,6.78-4.57,10.06-1.44.96-1.65,3.28-3.59,2.89l.72-3.35c-1.41.84-1.95,2.84-2.88,3.84-.68.73-1.58.08-1.2,1.91h1.44c.58,1.76-.61,2.95-.88,4.15-.34,1.52.06,3.55-.09,5.19-.87,9.74-6.86,20.29-14.62,26.15-.49,2.57-2.85,5.17-3.59,7.45-.37,1.15,1.3.24.94,1.42-1.27,1.49-2.09,3.3-3.35,4.81-2,2.4-4.61,4.01-6.97,5.98-1.91,1.59-2.52,3.75-5.69,2.83-.42-.12-2.13-1.88-2.22-2.34-.11-.56.08-1.31,0-1.92-.39.03-.82-.07-1.2,0-2.1.35-1.75.92-1.68,2.88-.49.27-.46.76-.58.84-.87.52-4.39,2.26-4.7,3-2.6-1.01-4.71-.36-7.05.87-4.15,2.18-7.46,5.48-10.7,8.72-2.21,2.21-4.06,4.84-6.99,5.73-.72.22-.8-.03-.68.99-.83.1-.46-.54-.27-.99.59-1.37,2.39-4.54,0-5.24-.93-.27-3.86,3.72-4.46,4.62-1.15,1.74-2.37,3.95-2.96,5.92-2.67-.9-3.79-.78-5.49,1.46-1.6,2.1-1.93,4.06-1.7,6.69-1.32-.06-1.81.47-1.92.48-2.89.27-4.9.17-7.17-1.7-3.7-3.05-5.59-12.4-2.18-16.05.42-.45,1.17-.36,1.22-.74.14-1.01-.17-2.27-.02-3.32.15-1.04,1.14-2.27,1.35-3.45.31-1.79.48-4.92-1.82-3.5.37-1.86-.53-1.28-1.62-1.98-1.52-.98-2.03-1.92-1.74-3.78.09-.57,1.23-3.34,1.68-3.35l.96.94c.67-.5.82-1.37,1.42-1.93.66-.61,1.85-.76,2.11-1.01.62-.62,2.17-5.03,3.02-6.33,1.18-1.81,2.44-1.96,2.81.41.39,2.49,1.07,4.53.97,6.72-.08,1.76-.12,3.35.47,5.02.72.13,1.07-.16,1.36-.8,1.58-3.43,1.88-7.34,3.18-10.73.82-2.14,3.02-3.09,4.83-1.44,1.5,1.37,1.1,2.82,1.18,4.58.04.94-.05.75.96.72.77-1.25.04-2.22.1-3.03.22-3.02,1.44-10.88,3.95-12.82,1.25-.97,1.64-.19,2.77-2.51,1.02-2.09,1.46-4.57,3.98-5.57,2.49,1.62.31,2.82-.19,4.58-.42,1.49.38.93,1.16,1.58,1.63,1.37,1.4,5.45,2.2,6.2.24.22,1.42.65,1.87.32.52-.38.59-1.64,1.01-2.35,1.17-2.03,2.64-3.33,3.55-6.04,1.34-3.96,1.02-8.87,3.82-12,.8,0,2,5.67,1.68,6.71l3.04-1.51c1.28-.92,2.65-1.46,3.11-3.13.38-1.4,1.24-3.68,1.43-4.8.2-1.22-.14-2.69.15-3.68.31-1.07,2.05-1.53,2.36-2.04,1.48-2.37,2.8-6.06,3.33-8.82h1.92c-.11-.09-.08-2.42,0-2.87.05-.28,1.5-1.67-.48-1.44-.04-.95.03-1.92,0-2.88-1.46-.35-3.66.02-5.29.23-.72.37-2.68,3.75-3.56,4.59-.27.25-1.89,1.49-2.18,1.65-.61.34-2.04.51-2.33.79-.3.3-.42,1.68-.56,1.85-.05.05-1.37.06-1.42,0-.75-.92.15-4.04.47-5.27,0-.03.33.12.48-.48.03-.13,0-.32,0-.48l2.4-5.27c-.68-.74-2.56,2.76-2.8,3.19-.13.23-.01.53-.08.65-.64,1.12-2.69,4.82-3.6,5.27-.85.42-.79-.51-.64-1.12.25-1.03.9-2.91,1.36-3.67.45-.73,1.29-1.17.96-2.4-1.04-.3-1.08.48-1.44,1.44-.56,1.48-.22.51-1.21,1.42-2.86,2.64-5.46,5.56-9.82,5.3.13,1.4,1.34,2.28.96,3.84l-2.88-.24c.93.53,4.22,3.55,2.14,4.07-.65.16-1.23-.44-1.82-.38-.41.04-.84.45-1.51.41-.93-.05-2.59-1.35-3.87-1.47-1.18-.11-1.98.53-3.1.49l5.05,2.87c.97,1.1,2.14,2.03,3.11,3.13.47.54,1.15.79.96,1.68-.91.2-1.48-.14-2.25-.39-1.24-.4-8.88-3.82-9.26-3.45-.17.91.72,1.45.88,2.23.34,1.61.44,3.03,1.12,4.63.29.69,1.07.87.87,1.77-5.33.82-10.82.54-15.96,2.5-3.88,1.48-4.62,3.72-4.18,7.8.14,1.28.56,2.03,1.92,1.68.09-1.44-.23-2.92.22-4.34.42-1.35,1.82-4.24,3.62-3.81v6.95c0,.14-.56,2.25-.7,2.66-1.36,4-5.21,8.48-9.85,7.65.2,2.91-2.4,4.96-3.26,7.53-.44,1.3-.75,2.31-.1,3.49.45,2.61-2.43,1.97-3.39,2.61-.3.2-.64,2.16-1.4,1.23-.1-.12-1.07-2.77-.96-2.88,3.51.29,4.93-.15,2.63-3.34-.53-.73-2.46-2.17-2.61-2.69-.14-.49,1.11-1.59,1.34-2.44.18-.67-.09-1.53.3-2.1.31-.46,1.44-.5,1.66-1.22.31-1.05-.09-2.83.02-4.01-.82-.53-5.52-.79-5.72-.99-.1-.1.06-1.07-.1-1.58-.67-2.19-2.91-2.68-3.27-3.45-.38-.82.44-.65.63-.79,1.1-.82,2.61-1.12,2.25-2.8-2.78.03-4.11.62-3.86-2.66.21-2.77,1.39-7.55,2.05-10.42Z"/>
    <path class="a2" d="M169.12,96.24c.93.62-.02,1.24.06,1.86.34,2.66,6.38,4.28,6.65,6.3.13.98.08,2.81-.02,3.84-.04.43-.59,3-.69,3.15-.49.76-1.9.34-2.82.54-2.11.45-4.11,3.34-1.43,4.63,2.98,1.44,3.82-.26,5.91,3.45,1.08-.21,3.6,2.62,2.88,3.36h-.96c1.11,5.94,2.43,4.79,5.76,8.86,3.4,4.16,8.45,16.85,7.68,22.08-.13.86-1.02,1.17-.92,1.82.36,2.37,2.04,5.68,2.33,8.25.27,2.36-.21,4.63-.47,6.94.53.57,2.4-1.77,2.89-2.15.6-.46,1.58-.48,1.91-1.21.45.41,2.43.39,1.92,2.4-.22.05-.32.04-.42.28-.25.56-1.41,3.17-1.45,3.4-.02.14,0,2.58.03,2.71.05.23.4.29.4.32l.42-.28c.09-1.12,1.16-1.64,1.5-2.11.48-.66.98-1.32,1.44-1.92,1.14-1.52,2.79-3.55,3.78-5.1.36-.56.47-1.57.54-1.62.57-1.11.26-2.58.54-3.54.13-.46,2.66-3.45,3.22-4.45,1.02-1.82,2.09-3.94,1.45-6.09-.14-.47-.78-.69-.9-1.49-.43-2.92-.29-6.28,0-9.13.99-9.84-1.05-18.58-2.38-28.29-1.15-8.41-4.41-22.15-9.19-29.18-.27-.4-1.93-2.65-2.1-2.7-1.17-.37-.86,2.01-2.15,1.44.2-.82-.81-1.29-.91-1.74-.09-.41.38-.91.42-1.39.32-4.06-4.29-7.73-7.19-10.06l1.44-.24c.08-.62-.09-1.33,0-1.91l-.48-.24v-.48l.48-.24c-.18-.4-.35-.68-.48-.96-1.81.41-1.45-.8-2.18-1.9l-2.14-7.69c-.07-.05-.14-.47-.47-.71-.77-.56-3.76-2.17-4.57-2.17-1.52,0-4.38,2.02-5.98,2.42-.31,1.29.61,1.8,1.42,2.62v.48c-.16.6-3.38,1.15-3.39,2.88,0,1.09,2,1.6,1.47,3.12-1.42-.1-2.79.8-3.59,1.93-1.49,2.12.26,2.23.23,3.58-.01.48-.43.95-.49,1.46-.14,1.19,1.76,4.9,2.48,6.14.84,1.45,6.16,8.47,6.16,9.19v7.43c-1.91.28-3.76-1.2-5.52-1.43-1.36-.17-4.27.06-4.56,1.66-.34,1.89,1.34,1.2,2.43,1.91ZM199.32,127.66c1.36-1.21,3.62,3.78,3.36,4.79-1.7-1.04-2.28-3.21-3.36-4.79ZM182.53,110.4l3.84.48-1.53-3.27c-4.07-2.1-.92-3.71,2.51-2.75,1.8.51,2.8,2.17,4.29,3.14.32-1.14-.7-1.88-.88-2.71-.19-.85.02-1.64-.29-2.59-.6-1.86-3.89-4.35-4.09-5.05-.15-.52,1.56-2.06,1.5-3.01.51-.17,2.01-.87,2.31-.53.08.09.01.6.26.92,2.08,2.56,3.94,6.07,5.28,9.13.67,1.52,4.17,10.88,3.59,11.52l-1.92-.96c-.6,2.2,1.06,3.19,1.7,4.78.5,1.24.37,2.96,1.18,4.1l-1.44-.24.48,3.36-3.36-1.92c-.87.96,5.27,11.26,5.77,13.19.21,1.45-1.9,5.56-3.18,5.94-3.4,1.01-1.64-4.34-2.12-4.73-.13-.11-.94.08-1.44-.24-.93-.59-1.17-3.58-1.52-4.72-.79-2.58-.89-3.09-1.36-5.84-.37-2.16-.87-4.35-1.45-6.46l-2.38-.02c-.34-.97.49-1.95.5-2.65.02-1.37-5.8-5.39-6.19-6.76-.19-.65-.02-1.42-.06-2.1Z"/>
    <path class="a2" d="M190.94,380.85c-.93-.09-2.28-.83-3.13-.96l.48,1.92c.84-.17,1.94-.1,2.88-.48.07,1.11-1.12,1.66-1.36,2.71-.61,2.74.87,5.72,3.03,7.37,2.93,2.23,3.38-.9,4.09-.97.51-.09.42.42.48.48.58.62,3.08,3.83,2.4,4.32h-1.44c-.15.52.31,1.32.72,1.44.33.1,1.07.21,1.19-.28.25-1.08.48-2.37,1.45-3.07-.1-.23.1-.74,0-.96-.25-.56-1.37-1.51-.96-1.92.69-.69,1.8,1.39,1.92,1.44.38.16,1.38-.11,1.92,0,.24.87-.47.9-.48.96-.12.5.04,1.32,0,1.92-.02.28.05.92,0,.96,1.47,1.35,2.2-.51,3.11-.5.62.01,1.53.47,2.65.5-.36-.75.45-1.33.48-1.44.2-.76-.53-1.72.96-1.44l.27-.98,1.65.02c.03.31-.04.65,0,.96.13,1.06.27,5.11.48,5.27.08.06.61-.15.85.07.28.24.53,1.38.59,1.84.56.1.86-.92.96-.96l.04-3.08,1.43-1.02-.5-3.09c.97-.08,1.49.81,2.24,1.35.2.15.57,0,.64.08l.22-.5c1.43-.29,1.16-1.25,1.7-1.9.86-1.03,2.06-.59,2.66-2.85.57-2.13-.68-6.08,3.09-5.3.05.01.1.73.96.48v-1.92c.73-.22,1.26.3,1.78.38.94.16,1.82.57,1.58-.86-.94.07-1.95-.1-2.88,0-.31.03-.64-.03-.96,0-.03,0,.05.41-.48.48-.16.02-.32-.02-.48,0l-.28-.43c-.7-.13-1.41-.04-2.12-.05-.48-.01-.96.01-1.44,0-1.08-.03-2.33.13-3.36,0v.48l-.48.48c-.58.54-.56.31-.96.48h-3.36c-.16,0-.32,0-.48,0-.16,0-.32,0-.48,0v-.48c-.15-.03-.32.02-.48,0-.77-.12-1.13.29-.96-.96-.9-.36-1.36.46-1.44.48-.2.05-.74.04-.96,0-.77-.14-1.5-.34-2.4-.48.26,1.44-.74.95-1.67.96-1.79,0-4.12,0-5.04-1.92-.32.02-.64-.01-.96,0v1.92c-1.31.68-3-.98-3.51-.9-.37.06-2.13.52-2.28.63-.51.34-.34,2.06-1.41.98l.48-2.16c-.98.08-1.52.59-2.62.48ZM223.31,382.28c.09.76-.12,1.67,0,2.4-.46-.12-.91-.47-.96-.96-.04-.38.32-1.46.48-1.92.34-.05.44.17.48.48ZM195.48,386.6h1.92s-.48,2.88-.48,2.88c-.89-.08-1.81-2.51-1.44-2.88Z"/>
    <path class="a2" d="M180.53,366.63c.71-1.34.41-2.68.56-4.01.12-1.03.13-1.82.96-2.64l-.48-.24c.3-.35,1.05-1.18,1.2-1.44.31-.56.63-2.31.72-2.39.42-.4,2.65-.62,3.37-.25,1.98,1.02.98,2.81,1.65,4.1.27.53,1.63,1.98,2.17,2.38.25.19.66.3.96.48.45.06,1.04-.1,1.44,0,.52.13.71.41,1.92.48.01,1.2-.39,1.7-.48,2.4-.08.61.08,1.31,0,1.92-.1.8-.67,1.65-.48,2.4h-.48c.04.31-.04.65,0,.96.07.61-.05,1.29,0,1.92-.04.02-.14.4-.48.48-.15.03-.32-.02-.48,0-.14.02-.33.01-.48,0,.19-3.07-2.06-1.08-4-1.52-1.36-.31-2.02-1.71-3.19-2.32-.02.06-.64.13-.43,1.11.09.43,1.71,2.66,1.87,2.73-1.31,1.3-.63,1.79-.48,3.36-2.03.54-3-.82-4.8-.96.69-2.32-.54-5.92-.96-8.63l.4-.31Z"/>
    <path class="a2" d="M185.41,379.88c-1.12-.14-1.09-.17-1.92-.48l1.63.05.29.43Z"/>
    <path class="a2" d="M185.89,379.88h.48c-.11,0-.2,0-.48,0Z"/>
    <path class="a2" d="M318.19,217c.34-1.63-.62-2.88,1.79-3.05.8-.06,1.35.51,1.91.53.75.02,4.63-4.13,5.52-5.04,1.2-1.23,2.81-2.69,3.84-3.84.64-.71,1.1-2.03,1.68-2.64,2.44-2.59,6.89-1.76,10.06-2.41,1.34-.27,2.69-1.12,3.86-1.42.64-.17.94.09.71.71-.48,1.28-2.03,2.13-2.4,2.88-.42.85,1.14.98,1.64,1.2.51.23.32.92.28.95-.06.04-.86-.02-1.42.25-1.69.82-6.49,4.33-7.71,5.73-.38.43-.39,1.05-.5,1.17-.24.26-2.19-.13-2.36.04-.12.13-.04,2.42-.57,3.52-.32.67-.79.69-.87.8l-1.63.05-.29.43c-.24.07-2.1,1.59-2.88,1.92-.41.17-1.18.29-1.66.5l-.49-.98c-1.09,1.55-1.61,2.81-3.14,4.05-.67.54-3.59,2.05-3.74,2.25-.24.31-.52,2.06-1.26,2.81-1.23,1.24-1.04.33-2.63,2.65-.28.41-2.48,2.6-2.9,2.14-.07-.84-.02-1.6.21-2.42,1.1-3.92,4.23-9.28,4.97-12.77Z"/>
    <path class="a2" d="M366.71,266.45c.85-.54,2.15-.08,3.4-1.4,1.29-1.37,2.22-4.7,2.95-5.45.21-.22,1.82-1.07,2.31-1.04.41.44-1.56,6.8-2.01,7.82-.79,1.77-2.85,3.97-4.21,5.38-.44.45-2.87,3.17-3.37,2.63-.02-1.64,1.11-3.2,1.92-4.56l-1.92.24c-.12-.99.07-3.06.94-3.62Z"/>
    <path class="a2" d="M227.31,377.08c-.54-.16-1.16-.02-1.75-.16-.24-.05-.3-.39-.34-.4-.23-.04-.77-.05-.96,0-.7.19-1.28,1.31-2.4.96l.48,2.4c-1.17-.15-2.6.07-3.84,0-.16,0-.32.02-.48,0-.17-.02-.38.05-.48,0-.03-.01-.47-.45-.48-.48-.05-.14.05-.33,0-.48-1.8-.9-2.98-.77-4.8-.96-.37-.04-.81-.57-1.66-.5-.5.05-.96.44-1.47.49-1.91.17-3.32.36-4.56-1.18-1.74-2.16-1.86-5.38-.95-7.92.18-.5.67-.8.87-1.29.93-2.38.59-3.59,3.31-4.86.39-.18.83,0,1.1-.08l.26.48c.52.21.66-.47.7-.48,2.62-.97,4.34-1.18,7.2-.96.08,0,.37.42,1.44.48.15,0,.33.02.48,0l2.63,2.89c1.49,2.72,1.45,5.67.73,8.62.85-.18,2.75.26,3.36,0v.48c.04.31-.05.67,0,.96.96.39,1.59-.37,1.92-.48.67-.22,3.02,1.62,3.36-1.44,1.06-.12,1.63,1.13,2.71,1.36.96.21,2.41-.18,3.07.29.66.47.39,1.64.45,1.71h-.96s-.25-.37-.25-.37c-.19.06-.19.36-.23.37-.35.13-.71-.1-1.21.47-.47.53-.62,1.78-.74,1.91-.47.49-4.51-.75-5.39-1.03-.44-.14-.73-.67-1.13-.79Z"/>
    <path class="a2" d="M303.01,234.43c.07-.32,1.78-3.93,1.95-4.07.53-.45.53.52.85-1.04.44-2.1,3.8-7.31,5.06-9.59.16-.29.41-1.82,1.18-.96.37.41-2.94,5.98-3.26,7.05-.66,1.23-1.93,2.79-2.49,3.98-.87,1.87-1.56,4.55-2.3,6.58-.28.77.32,1.32-1.06,1.09.06-1-.14-2.05.08-3.04Z"/>
    <path class="a2" d="M211.31,397.15c.06.16.83.65.48,1.44-1.65.02-2.19.47-1.92-1.44h1.44Z"/>
    <path class="a2" d="M312.29,217.81c.31,0,.31.48,0,.48s-.31-.48,0-.48Z"/>
    <path class="a2" d="M352.6,262.42c.74-1.06-.34-2.03-.22-2.6.2-.93,3.79-3.07,4.2-4.93.16-.73.22-2.04.01-2.73-.13-.44-.79-.77-.8-1.02-.04-1.22,1.6-1.34,1.79-1.97.69-2.29-.78-6.43.52-8.83.23-.04.76-.05.96,0,1.79.45,2.23,6.82,2.4,8.63,1.85-.46,1.25-5.06,1.44-5.27.59-.13,1.23.21,1.39.77.26.89.17,5.5.03,6.66-.34,2.98-2.17,6.02-1.43,9.36.82.2.95-.32,1.44-.72,1.41-1.16,2.55-2.71,2.88-4.55.85-.11.51,1.1.39,1.59-.29,1.2-.9,2.74-1.35,3.93l2.39-.96c-1.06,1.67-1.68,4.39-2.64,5.99-.83,1.39-5.42,4.81-6.97,5.5-1.32.59-2.82.63-3.99,1.28-1.53.86-2.82,3.32-4.86,3.77-.59-.54.64-1.89.98-2.38,1.45-2.09,2.95-4.09,4.48-6.07l.3-3.06-1.68,1.44c.51-1.9-1.45-.96-.96-2.88-.8-.19-1.22.51-1.89.75-.65.24-1.65.69-1.47-.51.57-1.06,2.12-.42,2.65-1.18Z"/>
    <path class="a2" d="M203.1,216.42c.11.12.41,2.72.53,3.3-1.15-1.41-2.42-2.79-3.62-4.29-1.73-2.18-3.8-2.37-6.44-2.91l.47-5.26c1.2-3.22,2.58-6.37,4.22-9.44,1.13-2.11,2.76-3.28,2.97-5.9,2.68-.04,1.56.89,1.45,2.17-.48,5.45-3.59,10.47-1.7,16.07.28.83,1.18,1.76,1.24,2.63.06.94-.8,1.82-.48,2.84.21.68,1.19.61,1.36.8Z"/>
    <path class="a2" d="M204.12,379.88v.48c-.43-.1-1.08.15-1.58-.08l-.34-.4c.63,0,1.31-.06,1.92,0Z"/>
    <path class="a2" d="M206.04,380.36l-.26.46c-1.16.46-1.56-.44-1.66-.46.16,0,.32-.01.48,0,.47.03.99-.06,1.44,0Z"/>
  </g>
  <g>
    <path class="cls-2" d="M3.04,11.7v-1.36h4.13v1.36H3.04Z"/>
    <path class="cls-2" d="M12.35,15.76c-.77,0-1.44-.23-1.99-.7-.56-.46-.99-1.14-1.29-2.03-.3-.89-.45-1.98-.45-3.27s.15-2.37.45-3.25c.3-.87.73-1.54,1.29-1.98.56-.45,1.22-.67,1.99-.67s1.42.22,1.97.67c.55.45.98,1.11,1.28,1.98.3.87.45,1.96.45,3.25s-.15,2.38-.45,3.27c-.3.89-.73,1.57-1.28,2.03-.55.46-1.21.7-1.97.7ZM12.35,14.29c.39,0,.73-.15,1.03-.45.3-.3.54-.78.7-1.44.17-.66.25-1.54.25-2.64s-.08-1.97-.25-2.62c-.17-.65-.4-1.11-.7-1.4-.3-.29-.65-.43-1.03-.43s-.73.14-1.03.43c-.3.29-.54.75-.71,1.4-.17.65-.26,1.52-.26,2.62s.09,1.98.26,2.64c.17.66.41,1.14.71,1.44.3.3.65.45,1.03.45Z"/>
    <path class="cls-2" d="M17.48,15.54v-1.07c1.07-1.08,1.99-2.03,2.76-2.87.77-.84,1.35-1.59,1.76-2.27.41-.68.61-1.31.61-1.91,0-.43-.07-.79-.21-1.1s-.35-.55-.64-.72c-.29-.17-.65-.26-1.09-.26s-.86.13-1.23.39-.72.57-1.03.92l-1.02-1.02c.49-.55,1.01-.99,1.56-1.3.55-.31,1.2-.46,1.96-.46.7,0,1.31.14,1.83.43.52.29.92.69,1.21,1.21.29.52.43,1.12.43,1.82s-.19,1.4-.57,2.11c-.38.71-.89,1.46-1.54,2.22-.65.77-1.37,1.58-2.17,2.43.3-.03.62-.06.96-.09s.65-.04.93-.04h2.94v1.58h-7.44Z"/>
  </g>
</svg>