<?xml version="1.0" encoding="UTF-8"?>
<svg id="a2" xmlns="http://www.w3.org/2000/svg" viewBox="0 0 600 500">
  <defs>
    <style>
      .a2 {
        fill: #e1dad3;
      }

      .cls-2 {
        fill: #c9caca;
      }
    </style>
  </defs>
  <g>
    <path class="a2" d="M193.04,109.63c-.27-1.34-.54-2.81-1.92-3.36-.19-.07-.66.15-.89-.06-1.24-1.17-1.5-4.6-1.99-6.18-1.58-5.09-3.23-11.02-7.7-14.62-2.41-1.94-4.76-2.16-6.32-5.2-.6-1.17-.94-3.1-1.58-4.18-.65-1.08-2.68-2.47-3.61-3.59-2.65-3.21-4.65-7.19-7.9-9.86-.85-.7-6.89-4.62-7.45-3.83.44,1.02-1.12,2.04-.95,2.6.22.75,2.2,1.48,1.91,2.68-2.11.27-5.36,1.33-7.36.88-1.58-.35-4.31-2.72-4.9-4.22-.17-.44-.7-2.32-.7-2.66,0-.83.98-2.08.98-2.89,0-.82-1.16-1.23-.98-2.15-1.42-.02-2.03,1.45-2.64,2.4-.33,0-.23-.87-1.01-1.39-1.09-.73-2.46-.31-3.55-1.01-.89,1.71-1.25,5.91-2.15,7.22-1.1,1.6-3.61.45-4.34-.97-.29-.57-.03-1.29-.47-1.44-1.55,1.68-1.62,4.16-2.39,6.27-.19.53-.71.87-.73.93-2.96,8.15-2.91,13.03-3.85,21.35-.84,7.44-4.94,14.1-3.83,22.09.14.99.86,1.56.98,2.86.72,7.78-1,13.07,2,21.04,1.96,5.19,5.93,9.25,9.03,13.53,3.63,5.02,5.39,11.79,8.05,17.39,2.61,5.48,6.05,10.85,8.5,16.46.39.74,1.57.74,1.19-.23-1.02-2.66-3.55-5.26-4.32-8.16.32-.71,1.22.34,1.66.24,1.05-.26.29-2.37,1.46-1.91.78.3,6.33,5.5,6.48,6,.38,1.25-1.78,1.12-1.9,1.22-.73.58.65,6.06,1.9,4.78.25-.25-1.48-2.78.72-2.88l5.14,7.1c2.95,1.35,4.36,2.26,6.62,4.42.17.17.31.31.48.48l.48.48c.15.17.65.31.97.7,1.02,1.2,3.35,5.22,4.31,5.81.77.48,1.8-.81,2.91-.05.51.35,1.13,2.38,1.42,3.14l.48.48c.04.15-.04.33,0,.48,1.5.53,1.52,2.98,2.14,3.86.61.86,5.13.94,3.4,4.31-.34.66-5.06,2.91-4.09,3.82.37.35,2.72-1.31,3.6-1.44,1.75-.25,3.59.68,4.72.42,3.71-.85,8.19-3.77,10.64-6.66.57-.67.92-.86.72-1.92-.75-.11-1.29.39-1.89.75-1.97,1.17-3.78,2.7-5.82,3.78-.4.21-1.56,1.06-1.89.75-.45-.43.62-1.36.98-1.66,1.44-1.21,3.82-2.2,3.34-4.58-1.56-.36-1.93.99-2.88,1.68-.24.17-1.16.75-1.44.48l1.47-5.28c-.05-1.01-1.27-1.42-1.71-2.17-.31-.53-1.12-2.98-1.2-3.61-.24-1.86.93-1.01,1.94-1.94-.02-1.61-.31-3.19-.48-4.79-.06-.54.03-1.05-.49-1.42l1.39.2.07-.89c.45-.68,5.38,3.5,7.21,2.16.39-.29.33-1.01.49-1.18.1-.1,2.4-.14,2.83-.05l.08-.63.4-.33c-.27-.54.42-1.57.47-2.17.15-1.71-.1-3.51.03-5.23-.04-.28-2.83-1.55-2.9-1.71-1.7,1.14-3.46.22-5.05,0-2.06-.27-3.15.14-5.03-1.45l-.72,1.92-3.6-8.64-1.04.62-.87,3.22c.33-1.16-.37-2.19-.47-3.13-.35-3.18-.23-6.43-.47-9.61-.08-1.06-.7-1.99-.5-3.1l-2.4,1.92c.07,1.4.26,2.98-1.44,2.88v-2.4s-.11-.4-.69-.48c-1.38-.19-2.46-.24-2.59,1.28-.07.8,1.43,2.88-.55,2.57l-.96-3.84c-.15.94-.53,1.85-.86,2.74-.15.41.1,1.55-.82,1.1-1.14-.56-1.65-4.21-2.39-5.3-.38-.57-1.1-.37-1.22-.46-1.31-.99-2.62-2.16-3.28-3.7-.2-.47-.46-1.42-1.04-.62-.07.09-.42,1.82-.47,2.17-.12.85.15,1.89,0,2.63-.04.2-.92,1.93-1.44,1.92-.48-2.73-.77-6.07-1.66-8.66-.74-2.17-.66-1.6-2.18-1.9-1.89,5.68-.4,7.54-.83,7.34-.86-.42-.84-2.89-.69-4.43.18-1.81.2-1.82.55-3.39.3-1.3.62-2.19.5-3.62-.27-3.19-1.43-2.41-3.38-.7l1.44-8.16c-.66-.77-3.08,3.09-2.88,3.84-1.26.1-.8.07-.94-.73-.68-3.79-.68-8.11-.52-12.01.03-.77.46-1.35.49-1.91.08-1.3.21-3.6.02-4.78-.11-.72-1.77.66-1.45-1.45.08-.52.47-1.73.72-2.16.59-.98,2.41-1.6,2.59-2.21.58-1.95-1.34-4.7-.69-5.97.34-.67,1.97-1.51,2.17-.67.13.57.78,2.82,1.03,3.02.2.15.89.04,1.37.29.46.24.81,1.02,1.21,1.21.84.39.63-.37.73-.7.51-1.75.33-1.91,2.39-1.7.2,1.3-.57,2.32-.51,3.61.02.38.49,2.44.59,2.56.11.14.75.12,1.12.54.28.32.31.94.71,1.22.39.27,1.02.2,1.45.47.46.29.76,1,1.26,1.15,1.5.45,2.42-1.07,3.79-.94.96.09,1.14,1.19,2.16.99.05-1.51-.07-3.05,0-4.56.05-.93-.06-.76.96-.72.25,1.92,2.4,3.77,2.8,5.6.45,2.07-.73,2.02,1.01,3.29,1.62,1.18,2.02,4.63,2.91,6.47l.96-2.4c-.4.83,1.34,3.08.96,3.36-.38.28-1.97-.71-1.42,1.17.09.3,3.62,3.84,4.29,4.59.41.45,1.62.78,1.44,1.68.01.74-1.75-.09-1.44-1.2-1.2-.34-1.71.84-2.63.97-1.03.15-2.26-.11-3.36,0-.81.08-1.66.73-2.65.47.68,2.3-1.05,1.81-1.44,2.64-.36.75.29.64.63.8,2.67,1.21,6.23,2.99,8.97,3.76.25.07.65-.07.95,0v2.39c1.84,1.33,3.3,4.09,3.85,6.24.42,1.64-.04,4.88,1.92,4.8v-5.76c.05-.02.16-.73.96-.48-.14.85.8,1.6.9,2.23.08.57-.68,1.28-.37,2.27.04.13,1.48,2.04,1.64,2.21.53.54,1.97,1.01,2.12,1.74.17.84-2.11,5.34-1.88,6.17.28,1.03,1.81.58,2.39.73.81-1.12,2.92-1.34,3.84-2.16.4-.36.46-.95.72-1.2.45-.44,1.07-.55,1.44-.96,1.21-1.36,3.42-8.45,3.59-10.33.14-1.57-.12-3.21.02-4.78.2-2.22,1.22-5,1.42-7.22.73-8.11-1.36-16.77-5.51-23.75-.29-.49-5.56-7.03-6-7.2Z"/>
    <path class="a2" d="M347.14,128.33l-1.48-9.32c.63-6.19-1.22-14.34,1.08-20.08,1.98-4.93,3.27-7.31,2.8-13.08-.09-1.17-.61-4.16-1.7-4.54-1.03-.36-1.07,1.28-1.2,1.44-.22.27-1.23-.21-1.39-.77-.27-.9-.23-8.34-.06-9.56.18-1.26,2.03-2.08,2.65-3.11,1.56-2.59-.23-4.7-1.1-7.06-.58-1.57.11-3.1-2.05-2.33-1.29.46-7.71,4.42-8.07,5.37-.09.23-.04.45-.06.66-.1.93-.04,2.09.1,3.02.72,4.7,4.2,10.35,3.73,14.97-.2,1.92-1.13,4.3-1.42,6.26-.69,4.71-.46,9.58-.49,14.39l3.32,7.13-3.72,8.79-2.03,9.99c.08,1.49,1.32.99,2.13,1.27,1.51.52.39,1.7.31,2.59-.07.79.07,1.59-.02,2.38-.1.95-.88,1.44-.25,2.66.2.38,4.48,3.68,4.89,3.79.69.2,1.55-.52,1.61-.44.85-.82,1.9-1.44,2.63-2.41.47-.62,3.61-6.57,3.64-6.96.06-.95-.78-2.88-.72-4.09l-3.13-.95Z"/>
    <path class="a2" d="M303.21,211.38c-.6-.51-4.91-3.36-5.22-3.31-1.24.21-1.65,1.16-1.75,2.36-.25.27-1.57-.5-1.91-.73-1.91-1.33-3.82-3.35-5.79-4.77-1.05-.75-4.64-3.31-5.56-3.56-.38-.1-.76-.06-1.14-.06l.03,2.14-1.01.52c.25,1.49.73,3.36,1.95,4.3,2.62,1.99,6.63,3.81,9.57,5.79,6.59,4.44,14.27,9.73,18.49,16.55,1.13,1.82,1.22,4.23,3.13,5.27-.01-2.94-.24-6.41-1.06-9.26-1.27-4.43-6.23-12.25-9.73-15.23Z"/>
    <path class="a2" d="M293.36,253.15c-.29.32-.49,1.15-.95,1.69-.91,1.06-3.8,2.22-3.37,3.83.17.62.79.74,1.46.5.28-.1,4.12-2.26,4.3-2.42.55-.48,3.3-5.14,3.28-5.69-.01-.29-.39-.61-.4-.79-1.36-.13-3.36,1.85-4.32,2.88Z"/>
    <path class="a2" d="M260.72,258.91c-1.11-4.39-3.57-8.22-5.52-12.48-.36-.79-.9-1.43-.72-2.4-1.08-.53-2.53-3.44-3.83-4.09-.65-.32-1.44-.11-1.95-.45-.4-.26-.59-1.24-1.16-1.72-.45-.38-1.42-.75-1.7-.46-.13.13-.05,2.98,0,3.59.1,1.14.94,3.32.96,4.34.02,1.03-1.2,1.82-1.38,2.46-.19.7-.97,4.13-1.03,4.75-.12,1.26.67,2.18.51,3.35-.11.81-.77,1.03-.92,1.5-.48,1.57.69,2.86.9,4.26.31,2.06-.71-.13-1.18.22-.53-.15-5-8.26-5.15-8.25-.34.03,2.31,6.64,2.49,7.13.56,1.52,1.71,4.07,3.18,4.92.88.51,1.24.41,2.09.55.46.07.96-.14,1.46.21.53.38,2.41,3.33,2.86,4.11.25.43.35.87.96.96.18.21.29.3.48.48.17.16.32.32.48.48.49.48,1.01,1.04,1.44,1.44,1.38,1.28,3.28,3.07,4.81,4.07.56.37,1.19.8,1.91.73.24-.71-.34-1.29-.39-1.77-.06-.65.64-1.28.34-2.25-.53-1.7-4.12-5.62-5.22-7.96-.21-.46-.41-.9-.5-1.4-.05-.6.87.55,1.39.24.31-.18.14-.85.23-1.12.26-.15-.66-.61.26-.91.07.02,1.38.57,1.42.32,1.34.01,2.28.66,3.21-.5.71-1.01-.39-1.82-.66-2.76-.16-.57.02-1.19-.08-1.58Z"/>
    <path class="a2" d="M253.5,275.96c-.44-.56-.41-1.17-.46-1.21-.09-.07-.94.13-1.45-.22-.42-.28-1.86-2.7-2.39-3.38-.64-.82-1.26-2.21-2.4-2.16,0,.04-.35.09-.43.33-.19.57,2.62,6.94,3.31,7.59,1.65,1.54,6.56,5.34,8.47,6.41,1.76.98,4.46,2.05,2.09-.65-1.99-2.26-4.96-4.44-6.74-6.71Z"/>
    <path class="a2" d="M267.19,259.88c-1.73-1.61-7.06-7.38-7.91-9.13.42,2.67,2.12,5.11,2.88,7.68.07.24-.14.78.03.92.15.12.9,0,1.41.28.55.29,4.69,3.32,4.8,3.61.98.11,1.92.21,1.41-1.17-.33-.92-1.97-1.57-2.62-2.18Z"/>
    <path class="a2" d="M453.18,363.3c-.39-.46-2.92-3.03-3.16-3.1-.05-.01-.1-.02-.16,0-.84.13-2.15,2.47-2.26,3.09-.11.64,2.62,3.59-.19,3.62h0c.2-1.36-1.05-2.33-1.92-3.36-.29-.35-.39-.98-.96-.99-.07,0-.15,0-.24.03-.33.08-.22.47-.24.48-.39.13-.67.17-.87.13-.62-.11-.6-.85-1.02-1.35-1.07-1.28-3.01-.96-4.35-1.18-.61-.1-1.39-.35-2.4-.48-.12-.02-.25-.02-.37-.02-.24,0-.49.02-.73.03-.11,0-.23,0-.34-.01-.3-.03-.57-.06-.85-.08-.08,0-.17-.02-.25-.02-.06,0-.12-.01-.18-.02,0,0,0,0,0,0-.16.32-.25.67-.25,1.02-.33.23-.65.49-.94.73-1.66,1.28-2.45,3.43-2.87,5.47-.56.98-.82,2.45-1.09,3.55-.11.61-.84.94-1.3,1.51-.14.16-.32.33-.5.45-.49.32-1.26-.18-1.66,0-.41.25-.75.69-1.12,1.08-.72.08-1.28.49-1.65,1.05,0,.02,0,.05,0,.07-.16.08-.14.54-.75.5-.09,0-.18-.02-.29-.05-.06-.01-.09-.06-.12-.11-.01,0-.02,0-.04,0-.31-.03-.49-.15-.78-.52-1.04-1.03-3.65-1.08-3.97.67-.1.8-.09,1.85.29,2.63.16.02.22.09.41.36.22.33.45.47.71.57.83.24,1.78.26,2.42-.33.42-.55.5-1.13.87-1.6.22-.26.31-.29.66.03.02.02.04.02.06.04.3.09.63.34.74.48.06.22-.07.52.27.5.12.01.27.02.43.01,1.03-.02,2.81-.34,4.06-.3.22,0,.42.03.6.06.43.21.65.67,1.18.69.62.05,1.32.07,2.05.06,2.24-.04,4.8-.42,6.49-1.24.15-.05.26-.07.34-.06.29,0,.3.28.57.84.23.52,1.29,2.26,1.36,2.42-.06.02-.15.03-.23.04-.02,0-.03,0-.05,0-.48.07-1.2.1-1.83.26,0,.08-.02.16-.02.24,0,.04.01.07.01.11-.08.04-.17.07-.25.11-.21,0-.45,0-.46.02-.04.06-.03.13,0,.19-.22.1-.44.2-.66.31-.68.07-.84.22-1.49.46-.17.06-.31.18-.48.24-.04.62-.76.93-1.49,1.14-.07-.04-.14-.08-.2-.12-.02.04-.03.11-.03.18-.34.09-.66.16-.92.24-.07.02-.16-.02-.24,0-.02.17-.05.31-.1.43-.08.02-.16.05-.24.05-.15,0-.3-.02-.46-.11-.58-.29-.57-.38-.93-.73-.12-.11-.26-.19-.4-.28-.03-.02-.05-.04-.08-.05-.12-.07-.24-.13-.37-.19-.09-.04-.19-.08-.29-.11-.1-.03-.19-.07-.3-.1-.22-.06-.45-.09-.68-.11-.03,0-.05,0-.08,0-.24-.01-.48-.01-.72.01-.01,0-.02,0-.03,0,0,0,0,0,0,0-.44.25-1.64-.6-2.07-.31-.28.15-.56.3-.84.44-.14-.11-.29-.2-.45-.28-.04.01-.08.03-.12.04-.05,0-.12,0-.2,0-.4,0-1.05-.07-1.4-.07-.05,0-.1,0-.14,0-.17,0-.34.05-.5.09-.3.2-.56.46-.75.74-.24.09-.48.22-.71.35-.15,0-.42-.03-.44,0-.06.07-.01.17-.04.29-.15.1-.3.19-.46.29-.12.06-.25.1-.39.14-.02,0-.05,0-.07,0,0,.01,0,.02,0,.03-.5.13-1.06.18-1.5.43-.27.17-.5.38-.68.6-.05.04-.08.08-.09.12-.15.19-.27.39-.35.57-.02.04-.04.12-.06.17h0c.05,0,.12,0,.2,0,.01,0,.02,0,.03,0,0,.31.04.67,0,.96,0,0-.02,0-.03,0-.03,0-.06,0-.09,0-.05,0-.09,0-.14,0-.08,0-.15,0-.18.02-.06.35-.12.72-.2,1.02-.02.27-.1.9.29.5.21-.2.33-.58.47-.91,1.27-2.98,4.29-1.89,5.72.26.08.18.16.35.23.54.03,0,.05-.01.08-.02.1.2.19.41.26.62.62,1.86,1.4-.13,2.38-.23,1.11-.03,2.02,1.1,3.12,1.24.04.02.09.04.13.05.08.03.15.07.21.11.18.12.28.29.14.55-.17.24-.4.52-.65.78.04.04.08.08.11.12.03.05.04.1.06.15-.31.28-.64.56-.82.93.16-.02.31-.02.44,0,.33.09.52.48.44.8,0,.02-.01.04-.02.06.3.02.55.21.64.71.11.39.08.83.09,1.25-.04.19-.09.37-.15.53.08,0,.15,0,.22.01.06.21.15.39.33.55.38.3.8.81,1.06,1.34.18.26.49.6.77.29.07-.13.17-.24.29-.36.01-.01.02-.03.03-.04.01-.13.03-.23.06-.25,0,0,.05-.01.08-.02,0-.01,0-.03.02-.04.1-.12,1.27-.65,2.29-1.08-.02-.15-.03-.28,0-.31.11-.09,1.63-.46,2.65-.85,0,0,0-.01.01-.02.02-.03.05-.07.07-.11.14-.3.34-.63.57-.94.05-.06.08-.12.13-.18.23-.39.51-.72.87-.83.08-.02.14-.03.22-.04.09-.14.17-.26.26-.36.67.31.87,1,1.7,1.58.47.33,1.22.4,1.57.95.04-.02.2-.01.24,0v-.72s.14,0,.14,0c.15.05.31.09.47.1,0,0,0,0,0,0,.01,0,.02,0,.03,0,.13,0,.28,0,.43-.03.1-.01.2-.03.31-.05.03,0,.05-.01.08-.02.16,0,.31,0,.47,0,.01-.05.01-.1.01-.14.42-.12.85-.27,1.26-.42,0,0,0-.01.01-.02.17-.23.33-.47.55-.56,2.94-.77,5.68-4.92,4.69-7.87l-.02-.08c-.01-.32.22-.55.01-.95-.24-.65-.68-1.18-1.24-1.59-.72-.89-.98-1.44-1.65-1.2-.07-.05-.16-.1-.26-.15-.11.04-.33-.03-.48,0-.25.49-.52.36-.67.54-.08.09-.01.32-.08.38-.11.09-.33.06-.49.04-.01-.13-.02-.26-.03-.39-.02,0-.04,0-.06,0-.08,0-.15,0-.23,0-.15,0-.29,0-.43-.02-.02,0-.04,0-.06,0,.58-1.2-1.44-2.42-1.44-2.64,0-.12.34-.43.76-.79,0,0,0-.02,0-.02-.16-.24.27-1.23.61-1.42.05.02.37.01.39.02.08.07.16.14.24.21,0,0,0,0,0,0,0,0,.01.01.02.02.15-.17.27-.34.31-.48.27-.91.29-2.5.55-3.53.6-.5,1.1-1.26,1.44-1.44.21-.11,1.45-.45,1.82-.48.05,0,.09,0,.1,0-.12.87.78,1.58.91,2.24.28,1.41-1.21,2.15-1.39,3.27-.09.56.1.74.4.72.53-.03,1.42-.67,1.78-.95.9-.7,3.38-2.94,3.84-3.84.32-.62,1.07-5.02,1.18-6.02.21-1.85-.74-2.94-1.9-4.32Z"/>
    <path class="a2" d="M425.55,394.44c.07-.12.17-.21.29-.28.01-.04.03-.09.04-.13.1-.36.2-.74.32-1.1-.43,0-.85.02-1.28,0-.07-.07-.15-.12-.25-.14-.38-.08-.78-.06-1.14.08-.01,0-.02,0-.03,0,0,0-.02.02-.03.03-.09.04-.19.08-.27.13-.1.06-.2.14-.29.21-.15.12-.28.28-.39.44-.09.13-.1.33-.06.48.04.13.14.27.26.35,0,.02,0,.03,0,.05.05.15.14.29.29.37.41.24.82.47,1.23.71.14.08.32.11.48.06.14-.04.3-.15.37-.29.08-.14.11-.32.06-.48.08-.07.16-.14.22-.23.06-.09.12-.17.18-.26Z"/>
  </g>
  <g>
    <path class="cls-2" d="M4.39,13.73v-3.46H1.23v-1.34h3.16v-3.47h1.39v3.47h3.17v1.34h-3.17v3.46h-1.39Z"/>
    <path class="cls-2" d="M14.02,15.76c-.77,0-1.44-.23-1.99-.7-.56-.46-.99-1.14-1.29-2.03-.3-.89-.45-1.98-.45-3.27s.15-2.37.45-3.25c.3-.87.73-1.54,1.29-1.98.56-.45,1.22-.67,1.99-.67s1.42.22,1.97.67c.55.45.98,1.11,1.28,1.98.3.88.45,1.96.45,3.25s-.15,2.38-.45,3.27c-.3.89-.73,1.57-1.28,2.03-.55.46-1.21.7-1.97.7ZM14.02,14.29c.39,0,.73-.15,1.03-.45.3-.3.54-.78.7-1.44.17-.66.25-1.54.25-2.64s-.08-1.97-.25-2.62c-.17-.65-.4-1.11-.7-1.4-.3-.29-.65-.43-1.03-.43s-.73.14-1.03.43c-.3.29-.54.75-.71,1.4s-.26,1.52-.26,2.62.09,1.98.26,2.64c.17.66.41,1.14.71,1.44.3.3.65.45,1.03.45Z"/>
    <path class="cls-2" d="M23.75,15.54v-7.36c0-.32.01-.71.03-1.16.02-.45.04-.83.05-1.14h-.06c-.15.28-.29.56-.45.84-.15.28-.31.57-.48.87l-2.25,3.49h6.3v1.44h-8.13v-1.25l4.58-7.18h2.09v11.46h-1.69Z"/>
  </g>
</svg>