<?xml version="1.0" encoding="UTF-8"?>
<svg id="a2" xmlns="http://www.w3.org/2000/svg" viewBox="0 0 600 500">
  <defs>
    <style>
      .a2 {
        fill: #e1dad3;
      }

      .cls-2 {
        fill: #c9caca;
      }
    </style>
  </defs>
  <g>
    <path class="a2" d="M448.68,355.51c-1.93.22-1.88,2.24-3.54,3.03-1.71.81-4.66,1.3-6.56,1.95-1.33,1.43-1.48,3.39-2.09,4.86-.24.57-2.09,3.08-2.4,3.77-.34.75-.4,2.8-.49,2.92.02.02.05.02.08.04.04.23.13.46.34.69.13.15.31.26.49.33.78.15,1.69.6,2.44.18,1.87-1.23,3.4-3.02,4.75-4.76.25-.48.53-.72.74-1.17.13-.25.35-.32.49-.66.13-.38.46-1.12.71-1.57.23-.4.48-.44.63-.69.17-.27.27-.97.6-1.27.23-.24.36-.42.45-.64.31-.35.44-.84.68-1.24.26-.26.51-.48.75-.63.7-.43,1.6-.59,2.4-.76,0-.08-.02-.16-.02-.24l.08-.04c.55-.97.13-2.97-.52-3.82,0-.09-.02-.19-.03-.28Z"/>
    <path class="a2" d="M441.48,345.56l-.08.38c.1,0,.19.01.27.03.08.18.15.37.16.57.09,1.71-.18,3.45.26,5.11.04.07.24.13.53.19.05.23.08.4.1.43.25.42.82,0,1.22-.01.49-.01.98-.02,1.47,0,.52.01,1.07.3,1.45.27.73-.06,2.05-2.97,2.35-3.73,1.28-3.26,1.8-5.8,1.43-8.93,0-.03,0-.08,0-.11,0-.07-.02-.21-.06-.4-.08-.53-.18-1.08-.31-1.66-.1-.45-.27-1.15-.55-1.75-.27-.93-.51-1.69-.6-1.75-.22-.15-1.29-.11-1.61.01-1.3.47-.99,4.1-1.52,5.29-.69,1.55-2.36,1.18-3.16,1.7-.13.08-1.41,2.54-1.45,2.68-.08.27-.04,1.11,0,1.46,0,.07.04.16.09.25Z"/>
    <path class="a2" d="M356.05,214.46c-.61-1.2-3.92-5.73-5.01-2.99-.08.19.06.58,0,.82.44.07.35.49.41.82.58,3.41,3.5,7.8,5.39,10.81.28.45,1.07.78,1.17,1.08,1.1,0,1.37.35,1.2-.99-.25-2.02-2.21-7.7-3.16-9.55Z"/>
    <path class="a2" d="M234.98,161.99c.25-.31,1.05.02.87-.71-.03-.04-.11-.65-.24-.97-.63.13-1.06-1.36-1.21-1.94-.51-1.92,0-2.96,0-4.62,0-.03-.39-.35-.24-.48.06-.05.44.05.49,0,.36-.41-.28-4.79-.55-5.64-.12-.38-.57-.73-.62-1.08-.07-.59,1.07-1.51.65-2.84-.08-.24-.19-.37-.32-.42.02-.06.03-.11.05-.17-.32-.3-2.57.59-2.92.97-.14.16-.08,1.18-.72,1.45-.24-.44-.41-1.43-1.21-1.22-.08.02-.18.1-.29.18-.36-.02-.69.02-.98.03-.38-.65-.35-1.64.02-2.4.14.01.26.03.27.02.03-.03.07-.26.13-.57.19-.2.41-.36.67-.44.03-.14-.04-.35,0-.49,1.31-4.71,2.56-5.61,2.43-11.18,0-.32.01-.65,0-.97-.04-1.27-.61-2.72,0-3.89-.03-.21-.02-.51,0-.73l-.51-1.55c.03-.27.44-.11.51-.15.03-.02.03-.39.24-.49l.04-.8.2-.17c-.14-.71-.14-1.48-.24-2.19-.1-.76-.55-2.83-.49-3.52.03-.41.94-1.25.95-2.45,0-.21-.22-.33-.22-.35h-.49s-.19.7-.24.85c-.08.26-.03.74-.49.37-.08-.07-.14-.28-.18-.57-.02-.37-.05-.74-.07-1.11-.02-.97.01-2.06,0-2.46,0-.47.09-2.8,0-2.92-.15-.18-.45.5-.49-.73-.01-.48,0-.97,0-1.46.24-.06.86.08.97,0,.02-.01-.04-.26.1-.39.27-.26.34.01.39-.58.05-.58-.09-1.25,0-1.82.02-.11.43-1.06.48-1.1-.22.04-.34,0-.42-.09.05-.13.09-.25.1-.36,0-.07,0-.32-.03-.69.05-.17.09-.33.1-.43.07-2.03-.33-5.86-1.01-7.9-.29-1.04-.79-1.88-1.72-1.72.36-1.87.73-3.73.51-5.65-.05-.03-.1-.06-.16-.09-.02-.24-.05-.47-.1-.69-.06-.27-2.19-1.05-2.95-2-.49-.61-.84-1.51-1.1-2.54-.21-1.07-.31-2.23-.28-3.21.03-1.03-.04-2.01-.01-2.91.05-1.59.46-3.18,1.36-4.49.43-.61,1.3-.87,1.04-1.78-.04-.13-.08-.23-.13-.33.04-.1.06-.19.05-.24-.25-1.21-3.54-2.48-4.7-2.65-1.14-.17-3.71.61-4.96.22l-.44-.33s-.03.04-.04.06c-.01-.01-.03-.02-.04-.03-1.06-.22-1.37,1.02-1.91,1.73-2.22,2.93-4.45,6.33-6.4,9.91h-.12c-.01.07,0,.18,0,.22-.09.17-.18.34-.28.51h-.21c-.01.17-.03.34-.06.5-2.04,3.92-3.71,8.02-4.64,11.92-1.74,7.37-2.47,15.85-3.96,23.5-.13.66-.82,1.87.07,2.26.05-.11.2-.32.4-.56.07.31.15.61.16.77.94-.18.9-1.53,1.94-1.7.12-.02.26-.01.4,0,0,5.6-1.6,11.16-2.91,16.57l-.04,4.58c-.7,1.97-1.28,3.97-1.79,5.98-.08.27-.15.52-.21.76-.81,3.35-1.53,7.7-1.99,11.14-.19,1.41-.35,2.85-.34,4.27,0,.47.03.94.07,1.41.21-.03.57.06.7-.02.11-.07.94-2.05,1.14-2.39.61-1.03,1.27-1.81,1.8-2.94.03-.06-.03-.17,0-.24.64.1,2.37-2.25,3.11-2.65-.44,1.99-2.77,6.22-2.92,7.6-.01.13-.01.27-.02.41-.12.3-.19.52-.18.57.02.16.11.3.2.43.09,1.11.35,2.26.6,3.37.15,1.42.3,2.81.44,2.89.8.5,1.1-1.58,2.17-1.21l.45,3.24c.09,1.03.19,2.05.29,3.08-.01,1.83-.15,3.68.23,5.47.11.52,0,.86.73.85,0,.08,0,.16,0,.24,0,.14.03.46,0,.49.09.06.26.12.38.17.01.04.02.08.03.12.03.01.06,0,.09,0,.02.1,0,.29.11.43.19.25.57.21.6.24,1.49-1.29,2.31-1.5,2.73-1.04.24.7.34,1.57.36,2.23-.02.37-.06.77-.11,1.19-.05.47-.34.9.42.78.29-.44.71-.63,1.14-.51,0,.1,0,.19,0,.31.06,2.41-.86,5.02-.9,7.3-.02.89.38,2.05.48,3.19,0,.17,0,.34.02.5,0,.32-.02.63-.1.93.11-.02.2-.02.28,0,.02.15.04.29.04.44.97-.1,1.01.77,1.21.97.08.08.76.06,1.09.49.4.54.43,1.76.61,2.42.19-.04.31-.03.38.02.13.45.24.83.27,1.01h.09c.3.75.47,1.18.96-.06-.16-1.47.17-4.3,2.19-3.89.07,1.03-.1,2.15,0,3.16.05-.01.09-.01.14-.01,0,.34.01.62.03.8.24-.05.41-.05.55-.03.03.09.06.18.09.25.19.41.38.81.57,1.22.55,1.2,1.32,4.24,2.42,4.94,1.83,1.17,3.29-1.6,3.65-2.92.3-1.12,1.31-5.57-.08-5.5-.12-.65-.11-1.3-.09-1.96.04-1.16.36-.5.48-.67.03-.04-.03-.73.05-1.03.1-.38.47-.75.44-1.15,0-.03-.33-.24-.24-.48.14-.03.43.04.48,0,.05-.05-.05-.37,0-.49.37-.87.81-.23,1.3-.31.07-.01.69-.33.89-.42,1-.47,2.26-1.69,3.4-2.43.08-.74.8-1.03,1.18-1.62,1.12-1.72.65-3.21,1.01-4.7.22-.92.84-2.22,1.21-3.16,1.59-3.96,2.85-6.52,2.13-10.99-.12-.72-1.07-2.78-.81-3.12ZM215.19,180.1c-.67-.67-1.62-.35-1.18-1.66.22-.66,1.8-.76,2.04-1.12.2-.3.08-1.03.21-1.49.17-.57.63-.95.62-1.54-.03-.11-.6-.35-1.23-.72-.46-.94-1.34-1.14-1.67-2.15,0-.03,0-.05-.01-.08.06-.56.57-.8.44-1.62-.17-1.1-1.92-2.8-1.91-3.72.01-.81,1.46-.56,1.68-1.24.2-.64,0-.84-.28-.92,0-.11,0-.22,0-.33h-.71c-.01-.5.83-1.79.92-2.22.2-.95.11-1.25-.18-1.37,0-.11,0-.22-.03-.3-.44-.08-1.38-.16-2.07-.32-.3-.18-.63-.39-.87-.56-.02-.23.07-.5.02-.58-.13-.24-.32-.67-.42-.87,0-.9.08-1.81.01-2.71-.14-1.97-.32-3.08-.24-5.1.03-.81-.04-1.63,0-2.43.02-.4.21-.68.49-.36.14.16-.13,2.94.54,4.2.23.42,2.61,3.06,3.02,3.3.49.29,2.84,1,3.22.73l1.25-2.88c.22-.15,1.67.55,2.24.92-.08.72-.79,1.57-.84,2.57-.07,1.28.26,1.77.72,1.99.12.36.27,1.04.32,1.07.24.17,1.11-.68,2.05.5.05.06.08.12.13.18.72,2.71-.61,7.85-.31,8.12h.07c-.27.75-.53,1.47-.72,2.13.31.35,2.31-2.4,3.04-.97.02.03.02.07.04.11-.34,2.53-2.65,3.61-4.87,4.87l.05.94c-.19.34-.27.86-.21,1.73.04.49.21.82.37,1.1l.13,2.23c0,.1-.02.21-.01.31,0,.13.03.26.05.39l.13,2.22c-1.31-.18-3.36.31-4.62-.14-.38-.65-.64-1.48-1.38-2.22Z"/>
    <path class="a2" d="M313.84,273.04c-.66,0-1.95-1.47-1.6-1.95.19-.25.99-.36.87-.84-.06-.25-3.23-2.07-3.78-3.06-.19-.35.14-.43.14-.47,0-.15.03-.35,0-.49-.17-.9-1.99-1.34-2.85-1.89-3.42-2.14-7.41-7.71-5.95-11.9.14-.41.82-1.11.77-1.37-.05-.23-.7-.68-.92-1.04-.66-1.09-.45-1.83-.28-3-2,.03-1.76,3.16-2.42,4.26-.23.39-1.43,1.43-1.83.84-.58-.86-.16-3.91.24-4.86.2-.46.77-.9.81-1.13.03-.15-.17-.8-.33-.82-1.15-.13-2.72,2.75-2.8,3.77-.08,1.16.6,2.38.93,3.46.1.33,0,.75.12,1.09.68,2.03,2.27,3.94,1.88,6.26h-.98c.12.53.66,3.15-.36,2.91-.32-.07-1.78-4.62-1.95-5.34-.22-.9-.57-4.44-1.08-4.75-1.43-.87-1.96,1.98-1.96,2.93,0,1.99.87,5.38,1.33,7.42.16.71.46,1.26.62,1.93-.41.1-.49-.16-.73-.36-.78-.65-1.96-2.42-3.03-2.32-2.24.2.98,4.69,1.58,5.48,2.99,3.9,6.72,6.27,10.32,9.36.66.57,2.71,2.95,3.2,3.12.18.06.38.03.57.03.02-.82.28-1.55,1.22-1.46l-.5-1.32c1.15-.5.99-1.54.13-2.32-1.9-1.72-4.94-2.77-5.71-5.59l2.41,1.6c1.84,2.1,4.13,3.02,6.42,4.27.48.26,2.36,2.13,2.83,1.66.31-1.1-.87-1.27-.97-2.19.22-.21,1.26.63,1.64.69.63.11,1.69-.3,2.49.04.07-.84-.23-1.64-.49-2.43-.02-.07.02-.17,0-.24Z"/>
    <path class="a2" d="M305.17,284.99c-1.13-.82-2.55-1.5-3.71-2.37-2.96-2.21-5.98-5.35-8.28-8.25-.81-1.03-5.27-7.77-5.75-7.85-.26-.05-.54.23-.81.21-.44.58,2.59,5.02,2.96,5.9,1.21,2.87,1.21,4.64,3.25,7.44.54.74,3.87,4.24,4.48,4.53.43.21.72-.1,1.05-.07.12.01,2.05.66,2.35.78.99.36,1.29,1.74,2.66,1.35v-.98s2.19,0,2.19,0c.09-.43-.12-.48-.4-.69Z"/>
    <path class="a2" d="M284.44,256.52c-.31.73.34,3.87,1.33,3.64,1.22-.28.08-3.98-1.33-3.64Z"/>
    <path class="a2" d="M290.03,254.58c.02-1.52.33-4.21-1.7-4.37-.27.28.71,3.45,1.03,3.94.19.3.2.52.66.43Z"/>
  </g>
  <g>
    <path class="cls-2" d="M4.39,13.73v-3.46H1.23v-1.34h3.16v-3.47h1.39v3.47h3.17v1.34h-3.17v3.46h-1.39Z"/>
    <path class="cls-2" d="M14.02,15.76c-.77,0-1.44-.23-1.99-.7-.56-.46-.99-1.14-1.29-2.03-.3-.89-.45-1.98-.45-3.27s.15-2.37.45-3.25c.3-.87.73-1.54,1.29-1.98.56-.45,1.22-.67,1.99-.67s1.42.22,1.97.67c.55.45.98,1.11,1.28,1.98.3.88.45,1.96.45,3.25s-.15,2.38-.45,3.27c-.3.89-.73,1.57-1.28,2.03-.55.46-1.21.7-1.97.7ZM14.02,14.29c.39,0,.73-.15,1.03-.45.3-.3.54-.78.7-1.44.17-.66.25-1.54.25-2.64s-.08-1.97-.25-2.62c-.17-.65-.4-1.11-.7-1.4-.3-.29-.65-.43-1.03-.43s-.73.14-1.03.43c-.3.29-.54.75-.71,1.4-.17.64-.26,1.52-.26,2.62s.09,1.98.26,2.64c.17.66.41,1.14.71,1.44.3.3.65.45,1.03.45Z"/>
    <path class="cls-2" d="M21.47,15.54c.05-1.03.14-1.99.27-2.86.13-.87.32-1.7.56-2.48s.56-1.54.94-2.28c.38-.74.84-1.5,1.38-2.26h-5.39v-1.57h7.39v1.14c-.66.84-1.19,1.65-1.6,2.41-.41.76-.73,1.54-.97,2.34-.23.79-.41,1.64-.52,2.54s-.18,1.91-.23,3.03h-1.84Z"/>
  </g>
</svg>