<?xml version="1.0" encoding="UTF-8"?>
<svg id="a2" xmlns="http://www.w3.org/2000/svg" viewBox="0 0 600 500">
  <defs>
    <style>
      .a2 {
        fill: #e1dad3;
      }

      .cls-2 {
        fill: #c9caca;
      }
    </style>
  </defs>
  <g>
    <path class="a2" d="M383.75,160.45c-.11.38-.47.25-.48.27-.25.87.77,4.8.95,6.01.57,3.79,1.99,9.55,3.37,13.19.01.04.64.1.48.7-.1.36-.47.24-.48.26-.51,1.15,2.08,2.9,2.33,3.68.18.55-.03,1.17.07,1.6,0,.04.4.11.49.69.45,2.91-.77,1.98-.97,2.19-.09.1-.01,1.65-.96,2.4.44.49.84,1.57,1.19,1.93.8.81,2.28.36,2.59,2.22.18,1.03-3.5,4.41-2.82,6.4l2.23-1.85c1.13-.89,3.58-1.62,3.97.23.11.5-1.02,1.98-.2,2.58l4.07-5.05,1.93-.71c-.57,2.68-2.99,4.65-3.35,7.44-.3,2.35.35,4.15.49,6.21.22,3.17-.83,4.91,1.42,7.46.1-2.38-.14-4.82,0-7.2.06-1.06.12-1.85.48-2.88h.48c.07.99.35,1.89.48,2.88.27,2.04.62,3.01.96,4.8h1.44s.33-.16.48-.48c.83-1.76,1.07-1.19,2.17-2.38,1.65-1.78,3.05-2.39,4.55-4.08,4.09-4.61,7.35-11.84,11.5-16.81.96-1.15,2.3-2.47,3.85-2.63.2-.94.56-1.04,1.09-1.55,1.27-1.19,2.2-2.09,3.71-2.77,1.61-.73,4.01-2.59,5.53-3.83,1.29-1.05,4.41-4.49,5.5-5.05,1.11-.58,3.66-.48,4.35-.93.44-.28,2.07-3.46,1.89-4.1,1.86.35,1.69-2.6,1.92-2.88.04-.05.69.08,1.19-.47.98-1.08,2.05-3.28,3.11-4.58,7.38-8.99,16.45-17.18,20.54-28.4,2.78-7.64,2.95-15.96,3.93-23.9.48-3.88-.75-2.13-1.43-2.64l.02-2.13c-1.81-.38-.81-2.24-.27-3.63,1.15-2.98,1.63-1.96,1.3-5.6-.22-2.45,1.31-7.75-.09-10.23-.05-.08-.74-.17-.9-.77-.82-3.06.37-2.53,2.34-3.07l.26.48.7-.48c.51.22,5.08-2.54,6.24-2.88-.91-.38-.2-1.71-.69-2.43-.32-.46-1.45-.49-1.66-1.22-.23-.83.27-1.59-.52-2.36-1.38-1.36-4.33-.29-5.94-.77-.38-.11-1.38-1.37-1.75-.89-.07.09.49-2.41.45-2.57-.07-.24-1.16-1.4-1.39-1.52-2.07-1.05-4.57.77-6.49.77-1.01,0-1.98-.8-3.12-.52-.25,1.69.11,1.15.93,1.69.43.28.74.98.51,1.19-.11.1-2.14.38-2.89.71-.66.29-1.44,1.1-1.73,1.16-.48.1-1.34-.7-2.09-.43,2.05-1.92,1.68-3.09-1.21-3.36-1.85-.17-5.19,1.2-7.19,1.44-.44.05-2.06.08-2.15.01-.65-.55-.07-.92.71-.96,1.93-.09,5.95-.72,7.7-1.42.53-.21,1.42-.46,1.18-1.22-.41-1.29-2.98-.32-3.86-.94-.35-.25-.9-1.54-1.65-2.19-6.17-5.44-19.21-3.52-25.67.74-1.32.87-3.88,3.86-4.8,4.32-.76.38-1.61.23-2.41.23-.12.55-1.34,3.32-1.69,3.83-.99,1.45-3.1,2.86-4.29,4.35-3.86,4.84-5.78,13.02-12.74,13.89-.09.21-2.79,2.39-3.37,3.11-1.37,1.72-3.86,6.65-4.22,8.74-.2,1.18.02,2.34-.09,3.51-.07.73-.46,1.22-.48,1.92-.92.25-1.16-.72-1.74-.9-2.94-.91-6.06,5.07-6.99,7.29-2.99,7.16-3.17,15.52-2.29,23.11.13,1.12,1.04,2.78.96,3.83-.1,1.3-.78,3.25-.99,4.81-.13.9.61,1.95-.94,1.69.26,3.68-.1,7.3.48,11.03,0,.04.62.17.48.69ZM480.88,82.52c.13.04.18.1.22.17-.04-.07-.1-.13-.22-.17ZM480.24,82.9c.06-.14.18-.39.45-.4-.27.01-.39.26-.45.4ZM442.1,101.45c1.43,1.86-1.05,2.85-2.83,3.72-.5.24-2.94,1.15-3.23.86.5-2.27.52-3.72,2.3-5.35,1.18-1.08,2.12-.95,3.1.03.21.21.43.46.64.75ZM404.91,147.94c-.11-.48.8-2,.9-2.82.14-1.09-.12-2.26.02-3.34.27-2.08,1.66-4.87,1.9-7.22.15-1.47-.08-3.06.01-4.55.64-.15,1.14.49,1.69.5.76.01,1.03-.8,1.51-.94,1.45-.43,2.45,2.08,3.9-1.35,1.31-3.1,1.84-6.57,2.99-9.73,2.12.67,3.69,1.18,5.99.95.62-.06,1.19-.65,1.89-.45.73.2,1.69,2.82,1.96,2.86,1.35.2,1.43-.45,1.68-1.71.08-.4-.06-.85,0-1.18.09-.45.46-2.23.56-2.34.18-.22.78.02.88-.06.05-.04,0-.67.46-1.21,1.07-1.25,2.59-2.08,3.86-3.11.68-.55.4-2.05,1.6-1.7,2.36.69,5.28-1.41,5.09-1.15-.93,1.28-2.14,2.86-3.44,3.75-.84.57-1.5.44-1.75,1.48-.15.63.35,1.84.88,2.2.47.32,2.75.35,3.38.22.14-.03,2.06-1.01,2.39-1.21.56-.34,5.07-4.32,5.29-4.07-.08,1.13-1.46,6.02-2.16,6.24-.21.06-.71.05-.96,0-.19-.03-.22-1.67-2.13-.95-.03.03-.05.06-.08.09-.87,1.03-.95,3.5-.32,4.67.28.51,2.77,2.04,1.81,2.89-.14.13-.74-.09-.95,0-.43.2-.58,1.82-.48,2.4l2.4.72c-2.45,2.07-3.8,3.03-5.53,4.55-2.76,2.44-.4,3.03,2.17,2.89l-.48,1.92,1.44.72c-2.57,2.63-7.65,4.59-11.29,5.03-.89.11-4.88-.21-5.03.73-.23,1.42.14.91.63,1.29,1.46,1.13,2.5,2,4.43,1.85,3.13-.24,6.8-1.7,9.59-1.95,1.01-.09,1.83.49,2.31.42,1.18-.18,2.41-1.8,3.67-1.85.62.64-3.38,5.9-4.07,6.74-.51.62.12,1.25-1.68.94v-1.45c-.99.76-1.6.02-2.62-.02-5.7-.2-8.87,3.48-12.99,6.72-1.1.35-1.37-2.3-2.12-3.12-.41-.45-1.55-1.22-2.1-1.13-1.38.23-2.54,1.46-3.09,2.68-1.06,2.32-1.98,6.88-2.49,9.51-.17.86.12,1.84-.09,2.79-.51,2.37-3.63,4.96-3.3,7.97l-3.81.5c.43-1.8-1.23-1.71-1.71-2.37-1-1.37,2.22-4.34,1.7-4.82l-3.84.48c-.7-.68,2.25-4.03,2.41-5.03.06-.37.04-1.62-.02-1.67-.26-.2-1.97.25-1.92-1.21.03-1.07,1.06-3.59,1.35-4.91.18-.85,1.14-5.36,1.07-5.64-.31-1.2-2.14.11-2.4-.24-.06-.09.09-.7-.08-1.1-.21-.47-.76-.83-.83-1.13ZM402.51,160.21l-1.18,4.93c.07.63-1.69.42-1.75.36-.57-.58,1.04-5.71,2.93-5.28Z"/>
    <path class="a2" d="M159.67,359.62c.07-.53.89-.18.98-.27l3.13,1.44c1.69,0,1.62-1.46,2.63-1.92.51-.23,1.43-.3,2.06-.58.71-.31,1.28-1.08,2.09-1.26,1.92-.44,3.03.26,4.48,1.36-.14,1.31-.63,4.97-.4,5.92.13.55.68,1.04.81,1.59.41,1.79-.39,4.15-.88,5.92-.01.04-.34.04-.49.7-.11.5.06,1.15.01,1.7-.69.14-1.83.3-2.4.48-.37-1.04-.69-1.82-1.36-2.73-.19-.26-.27-1.49-1.04-.63-.44.5.88,4.36-.96,6.24-.1.1-.45.47-.48.48-.96.22-3.02-.64-3.6-1.45-.26-.36-.16-.83-.23-.95-.05-.08-.56-.13-.87-.8-.33-.71-.58-1.76-.57-2.56-.14-.07-.92-.65-.99-.77-.5-.86-2.24-5.7-2.36-6.67-.15-1.2.27-3.87.45-5.24Z"/>
    <path class="a2" d="M160.65,357.91h-.25c-.49-1.17-.13-2.57-.23-3.84h.96c.02.54-.08,1.09.05,1.63l.43.29c-.05.04-.15.84-.38,1.31-.17.35-.57.57-.58.61Z"/>
    <path class="a2" d="M217.27,154.49c.16-.47.35-1.03.48-1.44.05-.15.04-.93,0-.96-.32-.3-.86.76-.96-.96-.13-2.34-.54-.98-1.22-1.89-.24-.32-2.04-4.3-2.14-4.83-.07-.38.17-1.19-.07-1.39-.2-.17-1.29.22-.89-.76.13-.32.81-.58.9-1.03.09-.41-.62-1.66-.44-2.83.15-.96,1.28-1.3.94-2.34l-4.77-5.32c-.26-1.07.53-.52.86-.82.28-.26.05-.8.1-.86-.45-.48-.74-1.43-1.09-1.82-.14-.16-.64-.04-.74-.17-.18-.22-.19-1.14-.47-1.72-.26-.53-.88-.99-1-1.4-.24-.83.04-1.74-.07-2.57-.01-.09-.64-.36-.48-1.67.22-1.87,2.15-4.3,1.94-5.78-.11-.76-2.29-3.73-1.94-4.07.58-.55,3.4,1.74,4.56,1.92.79.12,2.33.41,2.17-.73-.09-.64-.68-1.75-1.03-2.33-2.35-3.78-2.89-7.72-4.48-11.84-1.33-3.45-4.28-6.48-3.62-10.54l2.4.48c.38-.83-.49-2.05-.48-2.4,0-.23.55-.68.44-1.14-.11-.48-.91-.8-1.17-1.26-.31-.55-.19-1.38-.23-1.43,3.63,0,1.5-3.65.02-5.05-.51-.48-1.33-.69-1.4-.77-.22-.26.11-1.05-.11-1.33-.17-.21-.71.03-.9-.05-.05-.02.03-.32,0-.48-.03-.14,0-.33,0-.48l.48.48c2.91.52,5.84,4.62,8.86,4.32,1.51-.15,4.02-1.55,5.27-1.46.7.05,5.63,1.93,4.58,2.9-.36.33-3.13-.89-4.06-.98-2.93-.27.29,2.02,1.19,2.65,1.67,1.16,3.97,1.7,4.78,3.86.35.93-.35.61-.71.71-2.15.62-2.49-.25-4.34-.47-.62-.07-3.92-.15-4.07-.01-.2.19-.06,1.28.49,1.67,2.72,1.96,5.53,3.83,8.48,5.44.22.12,1.56.44.62,1.04-.19.12-.9-.24-.98.27-.55,3.63,3.15,8.33,3.95,11.88,2.93,2.94-.2,8.13-.56,12.09-.35,3.92.24,8.26-.01,12.22-.29.3-5.65-2.9-2.17,4.81,1.22,2.7,3.69,4.39-1.19,5.75-.17-2.53-.11-5.97-1.06-8.3-.23-.56-.83-.83-.89-1.54-.12-1.31,1.53-3.1,1.47-4.56l-3.76,1.99-1.99,4.48,2.4.24c.27.91-.71,1.12-.89,1.74-.85,2.94,1.45,3.1,1.79,4.31.25.9-.33,2.24.53,2.83l2.4-.25c.26.49,2.21,1.26,2.41,2.63.18,1.23-1.62.9-1.93,1.21-.39.38,1.09,2.48,0,3.36-.48-.17-2.25.74-2.38,1.22-.32,1.15.97,1.51.97,2.37,0,.92-.8,1.29-.99,1.68h-.96s-.48,0-.48,0h-1.44c.08.7-.26,1.29-.96,1.44Z"/>
    <path class="a2" d="M301.77,234.91c1.58-2.26,3.13-4.56,4.67-6.85,2.79-4.18,5.29-6.81,8.72-10.47.7-.74,1.14-1.99,2.13-2.67,1.17-.8,2.71-1.04,4.09-.94l.48-2.87c-5.01-.22-.87-3.01,1.78-3.74,5.01-1.37,10.59-2.58,15.65-1.46,2.13.47,3.19,2.71,2.72,4.72-1.12.26-1.45-1.15-2.22-1.38-2.85-.83-7.42,3.06-9.05,5.23-.43.57-.6,1.63-.81,1.84-.94.93-7.79,4.18-9.69,5.43-5.01,3.3-7.25,5.55-9.69,10.96-.16.35-.19.92-.23.96-.3.33-1.55-.54-2.4-.27-1.48.47-4.17,4.37-5.01,4.11-.78-.25-1.58-1.72-1.17-2.57Z"/>
    <path class="a2" d="M205.75,377.58c1.46.31,1.95,1.14,2.71,1.36,1.32.4,3.45.29,4.66.62.66.18,1.92,1.53,3.02,1.77.87.19,1.95-.1,2.56.08.83-.78-.05-1.59.06-2.1.13-.66,2.19-1.6-.52-2.48-1.28-.41-2.37-.1-3.61-.23-1.18-.13-1.24-.14-2.4.14-.81.19-1.45.45-2.3.23-.16-.04-.24-.54-.54-.63-.22-.07-.52.08-.74,0-.94-.31-2.14-.16-3-.68-.09-.05-.02-.62-.14-.69-.09-.05-.79-.26-.89-.35-.43-.37-.65-.28-1.02-.77-.93-1.21-.77-2.4-1.98-3.41-.64-.53-1.2-.52-1.59-1.4-.85-1.91,3.11-7.46,3.81-6.37-.94-1.48-1.76-3.63-3.36-4.55-.52-.3-1.21-.35-1.8-.62-.36-.16-.52-.55-.59-.59v-.48s-.46.21-.48.48c-.16,0-.34-.03-.48,0-1.84-.56-3.84.48-3.84.48-1.6.17-1.98,1.74-2.69,1.89-.75.17-1.56-1.39-3.58-.72-.38.12-2.83,1.88-3.1,2.18-1.05,1.2-.22,3.49-3.11,2.88-.16,1.36-1.25,2.67-1.43,4.09-.32,2.48,1.12,7.77,4.08,7.94,1.29.07,2.63-1.4,3.1,1.41,1.48.18,2.58.71,4.32.48v.96c.93,1,2.02-.06,2.59.06.24.05.26.41.29.42.76.26,3.25.92,3.36,1.44h.96s.05-2.12.05-2.12l.43-.28c-.08-.24.05-.66,0-.96.24-.02.66-.54,1.12-.42.23.06.29.42.31.42-.4,1.37.12,2.4-.48,3.84h2.4c-.34-1.29-.66-2.47-.48-3.84.27.03,4.32.48,4.32.48ZM194.24,362.47c-.79.59-3.89,1.12-4.32.72-.06-.06-.06-1.31.03-1.65.15-.55,2.02-1.21,2.63-1.25.33-.02,2.04.42,2.14.5.18.15.06,1.27-.48,1.68Z"/>
    <path class="a2" d="M395.52,210.61c.63,1.02.04,4.49.24,6,.13.96.8,1.92.94,2.89.09.62-.1,2.56,0,2.63.11.08.7-.16.89.05.28.31,1.57,6.32,2.36,7.99.42.89.79.69,1.55,1.08.09.45-.07,1.01.08,1.59.39,1.53,2.15,2.06,1.84,3.69-.26-.07-.66.05-.96,0,.05-.14-.7-.71-.96-.96-3.35-3.23-4.17-9.15-5.28-13.43,0-.03-.31-.1-.38-.36-.42-1.58-.37-3.29-2.5-3-.03-.25-.43-.68-.47-1.19-.09-1.19-.22-4.25.06-5.21.2-.69,1.76-3.08,2.58-1.76Z"/>
    <path class="a2" d="M367.49,251.51s.02,0,.02,0c.99-.35.47,4.73.35,5.79-.11.91-1.78,7.67-2.37,6.7-.31-.51,1.03-4.58,1.16-5.32.42-2.39.7-4.69.84-7.15Z"/>
    <path class="a2" d="M195.68,395.34c.8-.14,2.27,1.24,2.4,1.92.12.62.02,1.69,0,2.4-.02.99.4,1.69-.96,1.44-.03-1.53-1.1-3.07-1.44-4.32-.11-.39.09-1.02,0-1.44Z"/>
    <path class="a2" d="M205.25,394.13c.63-.44,2.94-2.3,2.9-.47-.05,2.39-1.33,1.42-2.88,1.68v1.44c-.88.15-1.76,1.25-2.4-.48.24-.06,1.75-.93,1.92-.96-1.4-.8,0-.89.46-1.21Z"/>
    <path class="a2" d="M302.19,239.89c-1.44.21-2.13-.42-1.92-1.92.89-.31,2.35,1.48,1.92,1.92Z"/>
    <path class="a2" d="M344.04,262.11c.73-.16,1.09-.81,1.27-.88.73-.29,1.99-.54,2.88-.96.16-.08.53.02.95-.23,2.16-1.3,1.12-2.9,1.52-4.73.77-3.49,2.34-4.36,1.84-8.95-.01-.12-1-1.14-.44-2.13l.44-.27c.16.03.33-.03.48,0,.06.62-.09,1.33,0,1.92.02.16-.03.32,0,.48.02.1.89,1.01.49,1.92h1.91c-.04-.95.07-1.93,0-2.88-.01-.16.01-.32,0-.48,3.02-.76,2.16,2.14,2.42,2.37.13.11.94-.06,1.43.24.96.59.24,4.7.46,6.02.94-.06.39-1.93.48-2.64.08-.63,1.54-.47,1.92.96.57,2.16.1,3.6-.58,5.65-1.03,3.11-2.35,6.36-3.49,9.47-.46,1.26-1.66,2.46-1.14,3.86,2.03-.4,5.48-6.34,5.65-5.58.51,2.23-5.01,7.76-1.11,8.24-1.53,2.3-5.04,1.57-7.01,3.3-.7.62-.75,1.82-2.22,2.1-.81.16-1.42-.17-1.57-1.01-.26.08-1.6.24-1.62.16-.34-.37,2.78-3.5,2.06-5.34-1.62.58-2.93,2.43-4.64,2.8-.51.11-2.91.18-3.04.08-.92-.76.71-1.02.96-1.18,2.17-1.34,4.6-3.34,6.24-5.29,1.04-1.23,3.24-3.81.94-4.33-.02-1.26,2.1-2.3,1.21-3.6-.91.57-1.19,1.81-1.9,2.43-.38.33-1.05.39-1.15.52-.34.43-2.1,2.5-3.78,2.8-1.79.32,1.15-1.61.83-1.91-1.22.08-4.85.18-5.26-1.22-.56-1.9,1.54-1.51,2.55-1.74Z"/>
    <path class="a2" d="M228.3,146.81c-.08.26.11.82,0,.95-.14.15-2.23-.07-2.87.01.57-.97,1.86-1.04,2.88-.96Z"/>
    <path class="a2" d="M181.04,407.81c.58-.12,1.03.39,1.2.96-.45-.06-.97.04-1.44,0v-.96s.24,0,.24,0Z"/>
    <path class="a2" d="M170.98,381.9c.28-.4.19-.92.23-.95.15-.15,2.25.13,2.88,0,.54-.11.81-.75,1.92-.96v-.96c1.6.43,2.88-.64,4.19-.89.52-.1.57.41.61.41.48.03,2.33-.1,2.4,0,.15.2-.44,1.29.96.96.45-.62.57-1.2,1.44-.96.11,2.16-.76,1.4-1.39,1.97-.1.09-.12,1.81-.05,1.87.16.13,1.43-.09,1.92,0,2.67.48,5.19.23,8.16,0,.31-.02.68.06.96,0l.3.43c.38.12.76.05,1.14.05,2.12.02,1.06-.29,1.5-.89.17-.23.72.01.9-.07,1.54.38,3.02-.39,4.32-.48-1.16,2.3-.84,4.29-1.17,6.74-1.48,1.09-3.06,2.06-4.56,3.11-.99.69-.98,1.46-2.42,1.66-.45.06-.97-.04-1.44,0-.03.43-.63.96-.48,1.92h-.07c-2.01-.02-3.61.65-2.65,2.91.45,1.07,1.27,1.4,1.35,2.74.08,1.33-.5,2.76-1.03,3.94-.52,1.16-.96.69-1.44.96-.74-1.82-.03-7.42,0-7.68.11-.91-.07-1.94,0-2.88-2.25-.26-5.1.29-6.24,2.4.38-1.61-1.1-.68-1.4-.99-.14-.15.14-1.49-.76-1.89-.97-.44-1.22,1.84-1.2,2.4-2.53.48-1.72-.75-1.92-.96.6-2.15,1.21-2.68-1.44-2.4l-3.75-2.49c-.15-.46-.39-.9-.57-1.35h-2.4c-.12-1.23-1.19-2.11-.95-4.07.26-2.1,1.25-2.32,2.17-3.61Z"/>
    <path class="a2" d="M186.08,401.57c-.05,1.35.07,2.73,0,4.08-.05.93.06.76-.96.72-.35-2-2.04-4.38.96-4.8Z"/>
    <path class="a2" d="M180.56,396.78c1.67-.23,2,.97.24.96-.16,0-.35.03-.48,0v-.96c.08,0,.16.01.24,0Z"/>
  </g>
  <g>
    <path class="cls-2" d="M3.04,11.7v-1.36h4.13v1.36H3.04Z"/>
    <path class="cls-2" d="M12.35,15.76c-.77,0-1.44-.23-1.99-.7-.56-.46-.99-1.14-1.29-2.03-.3-.89-.45-1.98-.45-3.27s.15-2.37.45-3.25c.3-.87.73-1.54,1.29-1.98.56-.45,1.22-.67,1.99-.67s1.42.22,1.97.67c.55.45.98,1.11,1.28,1.98.3.88.45,1.96.45,3.25s-.15,2.38-.45,3.27c-.3.89-.73,1.57-1.28,2.03-.55.46-1.21.7-1.97.7ZM12.35,14.29c.39,0,.73-.15,1.03-.45.3-.3.54-.78.7-1.44.17-.66.25-1.54.25-2.64s-.08-1.97-.25-2.62c-.17-.65-.4-1.11-.7-1.4-.3-.29-.65-.43-1.03-.43s-.73.14-1.03.43c-.3.29-.54.75-.71,1.4-.17.65-.26,1.52-.26,2.62s.09,1.98.26,2.64.41,1.14.71,1.44c.3.3.65.45,1.03.45Z"/>
    <path class="cls-2" d="M20.98,15.76c-.6,0-1.14-.07-1.6-.22-.46-.15-.87-.35-1.23-.6-.35-.25-.66-.52-.92-.81l.88-1.18c.34.34.74.64,1.17.9s.95.38,1.55.38c.44,0,.82-.07,1.14-.22.32-.15.58-.36.76-.64.18-.28.27-.61.27-.99,0-.43-.1-.79-.3-1.1-.2-.3-.55-.54-1.05-.71-.5-.17-1.17-.26-2.04-.26v-1.38c.76,0,1.36-.09,1.79-.26.43-.18.75-.41.94-.7.19-.29.29-.62.29-.98,0-.51-.16-.91-.47-1.21-.31-.29-.75-.44-1.3-.44-.44,0-.85.1-1.23.31-.38.21-.74.48-1.07.81l-.94-1.15c.46-.42.96-.76,1.5-1.03.54-.27,1.14-.41,1.8-.41s1.3.12,1.83.35c.53.23.95.57,1.25,1.02.3.44.45.98.45,1.61,0,.66-.18,1.21-.54,1.66-.36.44-.84.78-1.45,1.02v.08c.44.11.84.29,1.2.54s.64.58.85.97c.21.39.31.85.31,1.37,0,.69-.17,1.29-.52,1.78-.35.49-.82.87-1.4,1.13-.58.26-1.22.39-1.92.39Z"/>
  </g>
</svg>