<?xml version="1.0" encoding="UTF-8"?>
<svg id="a2" xmlns="http://www.w3.org/2000/svg" viewBox="0 0 600 500">
  <defs>
    <style>
      .a2 {
        fill: #e1dad3;
      }

      .cls-2 {
        fill: #c9caca;
      }
    </style>
  </defs>
  <g>
    <path class="a2" d="M176.68,55.42c.32.81,1.15,4.47,1.46,4.77.22.21,2.53-.4,2.86.75.17.6-2.09,2.85-2.32,3.91-.28,1.24.17,1.91.41,3.04,2.4-.56,3.16-2.38,5.97-1.94l.53,1.01,4.49.49c1.46,2.84.81,6.1,1.95,9.08v.96c-.46.95-1.33,6.34-.96,6.72,1.96.34,3.46-.56,5.28-.96-.04,2.73-.78,5.36-.48,8.15.89.33,1.27-.86,1.67-.87,1.77-.04,6.62,6.87,7.68,8.54l.24-3.6c0-.42.94-.31,1.18-.22,1.3.49,2.33,3.99,2.91,5.27.16.35.7.43.71.47.22.53.28,3.43.57,4.47.63,2.26,1.51,1.35,2.8,2,1.23.62,1.94,2.68,2.87,3.61.04.15-.05.34,0,.48.2.6.47.45.48.48.73,2,1.02,3.25,1.44,5.28.2.96.47.9.48.96.05.3-.06.66,0,.96.14.73-.22,1.35.72,1.92.98-.54.55-1.31.72-1.92.16-.55.19-.87.48-1.44.02-.03.29-.27.48-.48.58-.64.49-1.24,1.92-.96.14,2.91-.37,5.79-.96,8.63l2.4.48c-.17-2.29,2.94-6.56,3.76-2.56.4,1.94.17,5.53.62,7.05.21.7,1.41,1.02,1.4,1.97,0,.81-.99,2.05-.98,2.88.01,1.87.19,2.58,0,4.81-.5,6.14,2.85,8.34,3.82,13.43.74,3.88.76,10.11.49,14.14-.01.2-.59-.15,0,1.44.15.4.39,1.27.48,1.44-4.97.71-2.62,5.18-2.86,8.41-.23,3.11-1.14,8.93-2.95,11.43-.54.74-1.19.76-1.63,1.25-1.07,1.22-1.68,3.45-.48,4.8.65.73,1.97.82,2.13.98s-.05,1.54.04,2.12c.09.63.44,1.14.49,1.91.12,1.79-.13,3.73-.02,5.54-.98-.17-.78-1.01-1-1.64-.92-2.75-2.01-6.87-5.71-4.34-3.28,2.24-3.43,7.34-2.19,10.79.39,1.08,2.69,4.58,2.69,5.02,0,.62-.59,1.01-.94,1.5-.15.22.01.58-.05.65-.32.35-2.31.38-2.88.48-.67.12-.84.61-2.07.4-4.06-.67-6.06-4.36-7.62-7.74-.72-1.56-.93-3.35-1.89-4.82s-3.02-2.81-3.77-4.38c-.59-1.23,2.4-.55,3.08-.75,1.66-.49-.46-3.2-1.16-4.05-2.24-2.76-5.92-4.77-8.16-7.67-.69-1.36,2.14-.25,2.62-.22,2.74.18,5.44.15,7.94-.99.06-.55.05-.94-.22-1.45-.76-1.43-7.09-2.67-9.03-3.45-1.77-.71-9.08-4.84-9.43-6.42-.08-.35,1.08-2.13.96-3.81-.09-1.19-1.53-5.87-1.45-6.18.12-.46,1.2-1.03,1.42-.75.13.16.05,1.43.96,1.44.33-1.47-.38-2.73-.5-4.06-.14-1.54.69-3.92-.94-4.58.16.91-.3,3.03-1.25,3.31-.67.19-2.43.23-2.85-.41-.88-1.33.33-7.78-.27-9.8-.16-.55-.8-.89-1.39-.77l-1.34,3.22-1.06,6.37c-1.71-4.65.94-8.86.96-13.43-2.71-.46-3.85,2.14-5.75,3.36.35-1.46-.42-2.76-.5-4.06-.23-3.68.7-7.45.97-11.06.13-1.74.08-3.38-.47-5.03-1.5-.37-2.75,1.56-3.26,2.74-.95,2.18-1.84,7.08-2.04,9.47-.1,1.23.08,2.59.02,3.86-.05.93.06.76-.96.72-.41-1.49-1.22-3.15-1.99-4.48-2.5-4.28-3.31-4.86-4.23-10.15-.22-1.23-.21-5.16-.96-5.76-1.4-1.12-2.39-.54-3.26-2.97-.81-2.26-.84-5.63-1.07-8.04-.05-.5-.43-.97-.46-1.46-.56-7.55,1.29-15.11,1.9-22.54.12-1.42-.12-2.93-.01-4.33.1-1.31.84-2.59.5-4.06l2.4.48c.86-3.04,1.2-6.19,2.03-9.24,1.85-6.73,5.41-13.59,9.98-18.81,1.03-1.17.84-.75,1.42-1.21ZM197.79,94.27c-1.43-.37-1.06,1.14-.87,2.07.11.5,1.4,4.24,2.3,3.21.58-.66-1.71-4.16-1.44-5.28ZM206.9,145.58c-.19.04-.38-.06-.46.25-.72,3.44,1.53,6.05,1.42,9.34-.89-.33-1.34-1.58-1.68-2.39-1.03-2.41-3.31-9.44-3.5-11.85-.04-.54.4-1.12.41-1.81.04-5.17-.62-9.86-2.65-14.65-.2-.46-2.23-4.87-3.13-3.83-.44,3.51,1.78,6.63,1.92,10.07-2.63-2.64-3.25-1.04-2.87,2.15.42,3.45,2.17,7.91,2.85,11.54,2.12,11.32,2.03,22.61,10.8,31.41.41.41,1.07.5,1.45.95.68.79,2.03,4.21,2.61,4.58s3.39.82,4.11.71c1.64-.24,2.5-2.55,2.65-4.07.35-3.61-.64-9.75-1.58-13.33-.41-1.55-1.89-6.15-3.23-6.84-.99-.51-3.1-.01-3.34-.26-.08-.09-.64-1.71-.89-2.22-1.14-2.3-1.95-4.92-2.49-7.34-.1-.45.11-1.11-.01-1.65-.85-3.78-1.7-7.55-2.61-11.31l-1.21-.46c.02.55-.06,1.11.01,1.67.39,3.2,1.56,6.44,2.39,9.36-.31.04-.68-.06-.96,0ZM179.56,125.44s-1.01-.18-.96.24l1.45,5.99c4.53.15,1.49-3.04-.02-5.03-.4-.53-.42-1.15-.47-1.21ZM193.95,138.87c-.3-2.14,2.69-4.46.72-6.24-1.61-.54-1.71,4.89-1.68,5.52,0,0,.21.72.96.72Z"/>
    <path class="a2" d="M193.95,77.48h-1.92v-.96c.85-.11,1.7.02,1.92.96Z"/>
    <path class="a2" d="M292.29,244.86l-.86,4.18-.1,2.06c.5-.09,1.18.31,1.44-.28.49-1.15.79-4.1,2.17-4.51.8-.24,1.05.88,1.19.96.04.69-.12,1.45.06,2.11.17.6.85.69.9.77.61,1.08.28,2.55.49,3.59.38,1.86,1.06,4.95,2.39,6.24l5.06,3.58c.36.45.16.99.21,1.46.05.4-.14,1.21.04,1.39.11.11.61.07.89.29.91.73,4.89,3.01,2.42,4.07-.05-.05-.95.12-1.45-.22-.4-.27-.55-1.03-.94-1.47-2.16-2.43-4.53-4.81-6.72-7.19-.39-.43-2.4-2.66-2.89-2.15.09.92.7,2.11,1.21,2.87,2.79,4.07,7.12,7.72,10.3,11.52.7.84,1.86,1.4,2.63,2.41.6.8.92,2.04,1.69,2.86-1.75.31-3.18-.89-4.65-1.36-.41-.13-.84,0-1.1-.08,0-.31.06-.62-.02-.93l-1.41-.51c-.15,1.24.54,1.21,1.44,1.44,0,.32,0,.64,0,.96-.96.13-1.58-.03-2.4-.48-.44-.24-1.97-1.96-2.4-1.44.26,2.31-3.61,1.52-3.33,3.09.31,1.78,4.58,3.63,6.21,4.11.65,1.45,2.84,1.98,4.32,2.4.34,1.49-1.27,1.03-2.07.87-3.04-.63-5.35-2.42-7.77-4.23-.48,0-.12.77-.25.95-.38.54-1.57-.92-1.93-1.17-7.59-5.29-13.55-16.98-12.45-26.4.29-2.47,1.58-1.42,1.9-1.69.11-.09-.21-2.83,1.21-2.38,1.12.35.67,4.34,1.68,5.04.26.47.88-.32.94-.5.89-3.11-1.44-5.74-1.45-8.13,0-1.37,1.2-2.2,1-3.6,1.4-.16.76-.74,2.4-.48Z"/>
    <path class="a2" d="M457.8,370.99c.05.74-.07,1.31-.48,1.92-.05.08-.51.14-.71.47-1.88,3.13-1.51,10.57-5.36,11.45-1.82.42-3.29-1.83-4.4-3.14-.64-.75-.56-1.39-2.01-1.11.2-.44.2-1.74.58-2.54.44-.93,1.51-2.01,1.74-3.05.29-1.33.22-4.93.08-6.4h.96c.46,0,1.01.06,1.44,0,.31-.04.53-.14.48-.48,1.59-1.99,1.92-1.7,4.32-.73,1.66.67,3.23,1.61,3.35,3.6Z"/>
    <path class="a2" d="M240,171c.3-.12,1.02.08,1.44,0-.67-2.49-1.05-6.15,2.4-6.23-.18,1.35.29,3.25-.07,4.49-.43,1.5-2.09,2.77-2.35,5.32-.43,4.26,1.44,5.53,1.94,8.89-1.25.17-1.44-.13-2.01-1.11-1.52-2.59-2.75-6.71-2.32-9.69.06-.38.88-1.63.97-1.67Z"/>
    <path class="a2" d="M251.04,184.91c.06.55-.14,1.6,0,1.92-.46.3-.88.44-1.44.48.29-1.71-.22-1.17-.93-1.69-2-1.45-.15-2.32-.51-3.59,1.29.14,2.73,1.64,2.88,2.88Z"/>
    <path class="a2" d="M160.85,83.72c-.5-.09-1.18.31-1.44-.29-.44-1.01-.61-1.97-.48-3.07,2.38-.31,1.96,1.59,1.92,3.36Z"/>
    <path class="a2" d="M224.17,221.84l-.29.42c-.21.12-.49,0-.67.06-.35.04-.43-.17-.48-.48s.05-.66,0-.96c.91-.33,1.35.92,1.44.96Z"/>
    <path class="a2" d="M448.2,368.59h-.96c-.02-.16.03-.33,0-.48l.68.05.28.43Z"/>
    <path class="a2" d="M354.18,222.8c-.58-.3-1.46-1.19-1.43.24.05,2.01-.84,3.09-2.91,2.41-2.11-.68-1.15-1.86-1.42-3.37-.57-3.11-5.53-10.49-7.9-12.72-.85-.8-4.34-2.66-4.56-3.11-.44-.89.64-.69,1.1-.81.58-.15,1.08-.54,1.78-.39-.07-1.1-2.14-1.23-2.37-1.47-.17-.17.03-1.39-.03-1.89.98.13,2.05.68,2.87,1.21,2.1,1.37,12.18,9.24,12.41,11.09.05.42-.35.83-.31,1.28.14,1.62,2.13,5.75,2.78,7.52Z"/>
    <path class="a2" d="M465.01,351.1c-.07-.54-.71-.13-.98-.26-.09-.04-.87-1.4-.96-1.44l-.05-.68-.43-.28c.17-.78.09-2.93,0-3.84-.02-.23.07-.49-.02-.7l-.46-.26c-.32,0-.64,0-.96,0v-.96s-4.32.48-4.32.48c-.02.16.03.34,0,.48-.1.46-1.07,1.84-.96,1.92.67-.2.82.41.96.48.14.08.59-.07.96.22,2.02,1.52.59,10.27-1.19,11.8-.37.32-.96.36-1.13.53-.29.3-.3,1.15-.54,1.55-.31.52-1.38.37-1.47,1.25l-2.88.48c-2.86-.87-1.44-.14-1.92.48,1.76.37,2.44,2.7,4.32,2.4l.48-.48c.02-.11.03-.44,0-.48.14-.8.89-.92,1.6-1.05l.32-.39c.53.1,1.32,0,1.92,0,.55,0,1.19.1,1.7.01.66-.11.66-.48.7-.49.47-.14,1.57-.27,1.85-.55.16-.16,1.82-3.73,1.91-4.09.14-.55.05-1.05.08-1.59h.96c.02-.32-.02-.64,0-.96.02-.44.06-1.03,0-1.44.66-.34.59-1.45.5-2.14Z"/>
    <path class="a2" d="M453,364.75l.48-.48c-.09.41-.02.41-.48.48Z"/>
    <path class="a2" d="M449.64,368.59c0-.33.39-.37.48-.48.05.34-.17.44-.48.48Z"/>
  </g>
  <g>
    <path class="cls-2" d="M4.39,13.73v-3.46H1.23v-1.34h3.16v-3.47h1.39v3.47h3.17v1.34h-3.17v3.46h-1.39Z"/>
    <path class="cls-2" d="M14.02,15.76c-.77,0-1.44-.23-1.99-.7-.56-.46-.99-1.14-1.29-2.03-.3-.89-.45-1.98-.45-3.27s.15-2.37.45-3.25c.3-.87.73-1.54,1.29-1.98.56-.45,1.22-.67,1.99-.67s1.42.22,1.97.67c.55.45.98,1.11,1.28,1.98.3.88.45,1.96.45,3.25s-.15,2.38-.45,3.27c-.3.89-.73,1.57-1.28,2.03-.55.46-1.21.7-1.97.7ZM14.02,14.29c.39,0,.73-.15,1.03-.45.3-.3.54-.78.7-1.44.17-.66.25-1.54.25-2.64s-.08-1.97-.25-2.62c-.17-.65-.4-1.11-.7-1.4-.3-.29-.65-.43-1.03-.43s-.73.14-1.03.43c-.3.29-.54.75-.71,1.4-.17.64-.26,1.52-.26,2.62s.09,1.98.26,2.64c.17.66.41,1.14.71,1.44.3.3.65.45,1.03.45Z"/>
    <path class="cls-2" d="M23.25,15.76c-.55,0-1.07-.11-1.55-.34s-.91-.57-1.27-1.03c-.36-.46-.64-1.04-.85-1.74-.21-.7-.31-1.52-.31-2.47,0-1.13.12-2.09.35-2.89.23-.79.55-1.45.96-1.96.41-.51.87-.88,1.39-1.12.52-.23,1.07-.35,1.64-.35.65,0,1.21.12,1.68.37.47.25.87.54,1.2.9l-.98,1.12c-.21-.26-.47-.46-.8-.62-.32-.16-.66-.24-1.02-.24-.5,0-.96.15-1.38.45s-.75.8-1,1.5c-.25.7-.38,1.65-.38,2.86,0,.95.09,1.73.28,2.34.19.61.45,1.07.8,1.37.34.3.75.45,1.2.45.33,0,.64-.09.91-.28.27-.19.49-.45.65-.8.16-.35.24-.76.24-1.24s-.08-.87-.23-1.19c-.15-.33-.37-.57-.65-.74-.28-.17-.62-.26-1.03-.26-.33,0-.7.11-1.09.34-.39.22-.76.61-1.1,1.17l-.08-1.34c.23-.31.49-.58.78-.8.29-.22.6-.4.91-.52.32-.12.62-.18.9-.18.65,0,1.21.13,1.7.39.49.26.87.65,1.14,1.18.27.52.41,1.18.41,1.97s-.16,1.41-.48,1.97c-.32.55-.73.99-1.25,1.3s-1.09.47-1.71.47Z"/>
  </g>
</svg>