<?xml version="1.0" encoding="UTF-8"?>
<svg id="a2" xmlns="http://www.w3.org/2000/svg" viewBox="0 0 600 500">
  <defs>
    <style>
      .a2 {
        fill: #e1dad3;
      }

      .cls-2 {
        fill: #c9caca;
      }
    </style>
  </defs>
  <g>
    <path class="a2" d="M201.5,135.68c-.48-2.1-1.23-6.32-3.23-7.32-1.69-.84-2.59.76-3.28-2.48-.64-3.04-2.62-14.5-4.49-16.37-.4-.4-2.25-.68-3.04-1.52-1.85-1.96-2.94-6.18-4.82-8.61-.59-.77-3.38-3.69-4.06-4.09-1.04-.61-3.05-.93-4.32-1.44-3.85-1.55-7.27-2.95-11.18-4.17-1.5-.46-9.13-5.55-10.3-6.73-.44-.44-.79-1.92-1.83-2.24-.41-.12-1.77-.39-1.62.42.78-.08,1.18.61,1.79.87.92.4,1.19-.51,1.09,1.29-.04.63.19.92-.7.7-1.56-.4-3.16-1.71-4.56-2.16-3.08-1-15.82-5.39-17.54-7.41-2.39-2.81-2.96-5.81-7.09-7.78-1.03-.49-2.44-.52-3.22-1.34-2.71.12-6.29.31-8.76-.6-.81-.3-1.56-.14-1.31-1.32-.53-.03-1.03.06-1.59-.08-1.2-.3-2.96-2.11-3.93-1.84-1.43.4.28,3.98-.24,5.28-1.35-.05-2.72.08-4.07-.01-.83-.06-1.53-1.11-2.1.34-.36.92.43,1.35-1.51,1.11-.35.84.54,2.1.44,2.58-.06.28-1.84,2.06-2.18,2.15-.6.18-2.15.17-2.75,0-.48-.14-.71-.83-1.5-.91-2.29-.24-2.18,2.99-2.73,4.5-.21.58-.7.71-.9,1.02-.52.79-.38,1.58-.46,1.7-.55.87-1.27-.81-1.35-1.29-.17-1.01-.08-2.02-.09-3.03-.77-.15-1.26.41-1.67.97-.52.72-1.07,2.7-1.22,2.86-.95,1.1-2.55-1.89-2.87-2.58-.28-.62-.96-.21-1.44-.3.03.87-.08,1.76,0,2.63.26,2.65,1.95,7,1.95,9.12,0,.77-.47,1.34-.51,1.93-.09,1.5.07,3.02-.03,4.52l-2.34.54c-.11,1.27-.79,2.49-.52,3.8h-1.44c-.4,1.47.57,1.43.96,1.92.92,1.15.34,4.33.49,5.98.36,4.09,2.31,9.88,4.21,13.53.43.82,1.78,2.27,1.94,2.85.18.64-.09,1.83.13,2.05.19.19.82-.04.9.04.49-1.27,1.32.31,1.68.48.56.26.94-.13.72-.72-.37-.97-1.37-2.06-1.84-2.95-1.59-3-5.22-9.91-4.17-13.13.24-.73.76-1.61,1.7-1.42.92,3.59,2.91,6.78,4.57,10.06,1.44.96,1.65,3.28,3.59,2.89l-.72-3.35c1.41.84,1.95,2.84,2.88,3.84.68.73,1.58.08,1.2,1.91h-1.44c-.58,1.76.61,2.95.88,4.15.34,1.52-.06,3.55.09,5.19.87,9.74,6.86,20.29,14.62,26.15.49,2.57,2.85,5.17,3.59,7.45.37,1.15-1.3.24-.94,1.42,1.27,1.49,2.09,3.3,3.35,4.81,2,2.4,4.61,4.01,6.97,5.98,1.91,1.59,2.52,3.75,5.69,2.83.42-.12,2.13-1.88,2.22-2.34.11-.56-.08-1.31,0-1.92.39.03.82-.07,1.2,0,2.1.35,1.75.92,1.68,2.88.49.27.46.76.58.84.87.52,4.39,2.26,4.7,3,2.6-1.01,4.71-.36,7.05.87,4.15,2.18,7.46,5.48,10.7,8.72,2.21,2.21,4.06,4.84,6.99,5.73.72.22.8-.03.68.99.83.1.46-.54.27-.99-.59-1.37-2.39-4.54,0-5.24.93-.27,3.86,3.72,4.46,4.62,1.15,1.74,2.37,3.95,2.96,5.92,2.67-.9,3.79-.78,5.49,1.46,1.6,2.1,1.93,4.06,1.7,6.69,1.32-.06,1.81.47,1.92.48,2.89.27,4.9.17,7.17-1.7,3.7-3.05,5.59-12.4,2.18-16.05-.42-.45-1.17-.36-1.22-.74-.14-1.01.17-2.27.02-3.32-.15-1.04-1.14-2.27-1.35-3.45-.31-1.79-.48-4.92,1.82-3.5-.37-1.86.53-1.28,1.62-1.98,1.52-.98,2.03-1.92,1.74-3.78-.09-.57-1.23-3.34-1.68-3.35l-.96.94c-.67-.5-.82-1.37-1.42-1.93-.66-.61-1.85-.76-2.11-1.01-.62-.62-2.17-5.03-3.02-6.33-1.18-1.81-2.44-1.96-2.81.41-.39,2.49-1.07,4.53-.97,6.72.08,1.76.12,3.35-.47,5.02-.72.13-1.07-.16-1.36-.8-1.58-3.43-1.88-7.34-3.18-10.73-.82-2.14-3.02-3.09-4.83-1.44-1.5,1.37-1.1,2.82-1.18,4.58-.04.94.05.75-.96.72-.77-1.25-.04-2.22-.1-3.03-.22-3.02-1.44-10.88-3.95-12.82-1.25-.97-1.64-.19-2.77-2.51-1.02-2.09-1.46-4.57-3.98-5.57-2.49,1.62-.31,2.82.19,4.58.42,1.49-.38.93-1.16,1.58-1.63,1.37-1.4,5.45-2.2,6.2-.24.22-1.42.65-1.87.32-.52-.38-.59-1.64-1.01-2.35-1.17-2.03-2.64-3.33-3.55-6.04-1.34-3.96-1.02-8.87-3.82-12-.8,0-2,5.67-1.68,6.71l-3.04-1.51c-1.28-.92-2.65-1.46-3.11-3.13-.38-1.4-1.24-3.68-1.43-4.8-.2-1.22.14-2.69-.15-3.68-.31-1.07-2.05-1.53-2.36-2.04-1.48-2.37-2.8-6.06-3.33-8.82h-1.92c.11-.09.08-2.42,0-2.88-.05-.28-1.5-1.67.48-1.44.04-.95-.03-1.92,0-2.88,1.46-.35,3.66.02,5.29.23.72.37,2.68,3.75,3.56,4.59.27.25,1.89,1.49,2.18,1.65.61.34,2.04.51,2.33.79.3.3.42,1.68.56,1.85.05.05,1.37.06,1.42,0,.75-.92-.15-4.04-.47-5.27,0-.03-.33.12-.48-.48-.03-.13,0-.32,0-.48l-2.4-5.27c.68-.74,2.56,2.76,2.8,3.19.13.23.01.53.08.65.64,1.12,2.69,4.82,3.6,5.27.85.42.79-.51.64-1.12-.25-1.03-.9-2.91-1.36-3.67-.45-.73-1.29-1.17-.96-2.4,1.04-.3,1.08.48,1.44,1.44.56,1.48.22.51,1.21,1.42,2.86,2.64,5.46,5.56,9.82,5.3-.13,1.4-1.34,2.28-.96,3.84l2.88-.24c-.93.53-4.22,3.55-2.14,4.07.65.16,1.23-.44,1.82-.38.41.04.84.45,1.51.41.93-.05,2.59-1.35,3.87-1.47,1.18-.11,1.98.53,3.1.49l-5.05,2.87c-.97,1.1-2.14,2.03-3.11,3.13-.47.54-1.15.79-.96,1.68.91.2,1.48-.14,2.25-.39,1.24-.4,8.88-3.82,9.26-3.45.17.91-.72,1.45-.88,2.23-.34,1.61-.44,3.03-1.12,4.63-.29.69-1.07.87-.87,1.77,5.33.82,10.82.54,15.96,2.5,3.88,1.48,4.62,3.72,4.18,7.8-.14,1.28-.56,2.03-1.92,1.68-.09-1.44.23-2.92-.22-4.34-.42-1.35-1.82-4.24-3.62-3.81v6.95c0,.14.56,2.25.7,2.66,1.36,4,5.21,8.48,9.85,7.65-.2,2.91,2.4,4.96,3.26,7.53.44,1.3.75,2.31.1,3.49-.45,2.61,2.43,1.97,3.39,2.61.3.2.64,2.16,1.4,1.23.1-.12,1.07-2.77.96-2.88-3.51.29-4.93-.15-2.63-3.34.53-.73,2.46-2.17,2.61-2.69.14-.49-1.11-1.59-1.34-2.44-.18-.67.09-1.53-.3-2.1-.31-.46-1.44-.5-1.66-1.22-.31-1.05.09-2.83-.02-4.01.82-.53,5.52-.79,5.72-.99.1-.1-.06-1.07.1-1.58.67-2.19,2.91-2.68,3.27-3.45.38-.82-.44-.65-.63-.79-1.1-.82-2.61-1.12-2.25-2.8,2.78.03,4.11.62,3.86-2.66-.21-2.77-1.39-7.55-2.05-10.42Z"/>
    <path class="a2" d="M433.31,94.32c-.29-1.6-3.21-1.83-4.56-1.66-1.76.23-3.62,1.71-5.52,1.43v-7.43c0-.71,5.32-7.74,6.16-9.19.72-1.24,2.61-4.95,2.48-6.14-.06-.51-.48-.98-.49-1.46-.03-1.35,1.72-1.46.23-3.58-.8-1.14-2.17-2.03-3.59-1.93-.53-1.51,1.47-2.02,1.47-3.12,0-1.72-3.22-2.28-3.39-2.88v-.48c.82-.82,1.74-1.32,1.42-2.62-1.6-.4-4.46-2.42-5.98-2.42-.8,0-3.8,1.61-4.57,2.17-.33.24-.4.65-.47.71l-2.14,7.69c-.73,1.1-.37,2.31-2.18,1.9-.13.28-.3.56-.48.96l.48.24v.48l-.48.24c.1.59-.08,1.3,0,1.91l1.44.24c-2.9,2.33-7.5,6-7.19,10.06.04.48.51.97.42,1.39-.1.46-1.12.93-.91,1.74-1.29.57-.99-1.8-2.15-1.44-.16.05-1.82,2.3-2.1,2.7-4.77,7.03-8.04,20.77-9.19,29.18-1.33,9.71-3.38,18.45-2.38,28.29.29,2.85.44,6.21,0,9.13-.12.81-.76,1.03-.9,1.49-.65,2.16.43,4.27,1.45,6.09.56,1,3.09,3.99,3.22,4.45.27.96-.03,2.43.54,3.54.07.05.18,1.06.54,1.62.98,1.54,2.64,3.58,3.78,5.1.45.6.96,1.25,1.44,1.92.34.47,1.41.99,1.5,2.11l.42.28s.35-.09.4-.32c.03-.14.05-2.58.03-2.71-.04-.23-1.2-2.84-1.45-3.4-.11-.24-.2-.24-.42-.28-.51-2,1.47-1.99,1.92-2.4.33.73,1.3.75,1.91,1.21.49.38,2.36,2.72,2.89,2.15-.26-2.31-.74-4.58-.47-6.94.3-2.56,1.98-5.88,2.33-8.25.1-.65-.79-.97-.92-1.82-.77-5.23,4.28-17.92,7.68-22.08,3.33-4.07,4.66-2.93,5.76-8.86h-.96c-.72-.74,1.8-3.56,2.88-3.36,2.09-3.7,2.92-2.01,5.91-3.45,2.68-1.29.68-4.18-1.43-4.63-.92-.2-2.34.22-2.82-.54-.09-.15-.65-2.72-.69-3.15-.1-1.02-.16-2.86-.02-3.84.28-2.02,6.32-3.63,6.65-6.3.08-.62-.87-1.24.06-1.86,1.08-.72,2.77-.02,2.43-1.91ZM397.32,132.45c-.27-1.01,2-6,3.36-4.79-1.08,1.58-1.66,3.76-3.36,4.79ZM417.41,112.49c-.39,1.37-6.22,5.4-6.19,6.76.01.69.84,1.67.5,2.65l-2.38.02c-.58,2.11-1.09,4.3-1.45,6.46-.46,2.75-.57,3.25-1.36,5.84-.35,1.14-.59,4.14-1.52,4.72-.49.31-1.3.13-1.44.24-.49.38,1.27,5.74-2.12,4.73-1.28-.38-3.38-4.49-3.18-5.94.49-1.93,6.64-12.24,5.77-13.19l-3.36,1.92.48-3.36-1.44.24c.81-1.14.68-2.86,1.18-4.1.64-1.59,2.3-2.57,1.7-4.78l-1.92.96c-.58-.63,2.92-9.99,3.59-11.52,1.34-3.06,3.21-6.57,5.28-9.13.25-.31.19-.83.26-.92.29-.34,1.8.36,2.31.53-.06.95,1.65,2.49,1.5,3.01-.2.7-3.49,3.19-4.09,5.05-.31.95-.1,1.74-.29,2.59-.19.83-1.2,1.58-.88,2.71,1.49-.97,2.49-2.63,4.29-3.14,3.43-.96,6.58.64,2.51,2.75l-1.53,3.27,3.84-.48c-.05.68.13,1.45-.06,2.1Z"/>
    <path class="a2" d="M406.44,380.36l.48,2.16c-1.07,1.07-.9-.65-1.41-.98-.16-.1-1.92-.57-2.28-.63-.5-.08-2.19,1.57-3.51.9v-1.92c-.32-.01-.64.02-.96,0-.92,1.92-3.25,1.92-5.04,1.92-.94,0-1.94.48-1.67-.96-.9.14-1.63.34-2.4.48-.22.04-.76.05-.96,0-.08-.02-.53-.84-1.44-.48.17,1.25-.19.84-.96.96-.16.02-.33-.03-.48,0v.48c-.16,0-.32,0-.48,0-.16,0-.32,0-.48,0h-3.36c-.4-.17-.38.06-.96-.48l-.48-.48v-.48c-1.03.13-2.27-.03-3.36,0-.48.01-.96-.01-1.44,0-.7.02-1.41-.08-2.12.05l-.28.43c-.16-.02-.32.02-.48,0-.52-.07-.45-.48-.48-.48-.31-.03-.65.03-.96,0-.93-.1-1.94.07-2.88,0-.24,1.43.64,1.02,1.58.86.52-.09,1.05-.61,1.77-.38v1.92c.85.25.91-.47.96-.48,3.77-.78,2.52,3.17,3.09,5.3.6,2.26,1.81,1.82,2.66,2.85.54.65.28,1.61,1.7,1.9l.22.5c.07-.07.44.07.64-.08.74-.55,1.27-1.44,2.24-1.35l-.5,3.09,1.43,1.02.04,3.08c.1.04.4,1.06.96.96.06-.47.31-1.6.59-1.84.25-.22.77-.01.85-.07.21-.16.35-4.22.48-5.27.04-.31-.03-.65,0-.96l1.65-.02.27.98c1.49-.28.76.68.96,1.44.03.11.84.69.48,1.44,1.12-.03,2.03-.49,2.65-.5.91-.02,1.64,1.85,3.11.5-.05-.04.02-.68,0-.96-.04-.6.12-1.42,0-1.92-.01-.06-.72-.09-.48-.96.54-.11,1.54.16,1.92,0,.12-.05,1.23-2.13,1.92-1.44.41.41-.7,1.36-.96,1.92-.1.22.1.73,0,.96.97.71,1.2,1.99,1.45,3.07.11.49.86.38,1.19.28.41-.12.87-.92.72-1.44h-1.44c-.68-.49,1.82-3.7,2.4-4.32.05-.06-.03-.57.48-.48.71.07,1.16,3.2,4.09.97,2.15-1.64,3.64-4.63,3.03-7.37-.24-1.06-1.43-1.61-1.36-2.71.93.38,2.04.31,2.88.48l.48-1.92c-.86.14-2.21.87-3.13.96-1.11.11-1.64-.4-2.62-.48ZM377.17,381.8c.16.46.52,1.54.48,1.92-.05.49-.5.84-.96.96.12-.73-.09-1.64,0-2.4.04-.31.14-.53.48-.48ZM403.08,389.47l-.48-2.88h1.92c.37.37-.55,2.79-1.44,2.88Z"/>
    <path class="a2" d="M419.47,366.63c-.71-1.34-.41-2.68-.56-4.01-.12-1.03-.13-1.82-.96-2.64l.48-.24c-.3-.35-1.05-1.18-1.2-1.44-.31-.56-.63-2.31-.72-2.39-.42-.4-2.65-.62-3.37-.25-1.98,1.02-.98,2.81-1.65,4.1-.27.53-1.63,1.98-2.17,2.38-.25.19-.66.3-.96.48-.45.06-1.04-.1-1.44,0-.52.12-.71.41-1.92.48-.01,1.2.39,1.7.48,2.4.08.61-.08,1.31,0,1.92.1.8.67,1.65.48,2.4h.48c-.04.31.04.65,0,.96-.07.61.05,1.29,0,1.92.04.02.14.4.48.48.15.03.32-.02.48,0,.14.02.33.01.48,0-.19-3.07,2.06-1.08,4-1.52,1.36-.31,2.02-1.71,3.19-2.32.02.06.64.13.43,1.11-.09.43-1.71,2.66-1.87,2.73,1.31,1.3.63,1.79.48,3.36,2.03.54,3-.82,4.8-.96-.69-2.32.54-5.92.96-8.63l-.4-.31Z"/>
    <path class="a2" d="M414.59,379.88c1.12-.14,1.09-.17,1.92-.48l-1.63.05-.29.43Z"/>
    <path class="a2" d="M414.11,379.88h-.48c.11,0,.2,0,.48,0Z"/>
    <path class="a2" d="M281.81,217c-.34-1.63.62-2.88-1.79-3.05-.8-.06-1.35.51-1.91.53-.75.02-4.63-4.13-5.52-5.04-1.2-1.23-2.81-2.69-3.84-3.84-.64-.71-1.1-2.03-1.68-2.64-2.44-2.59-6.89-1.76-10.06-2.41-1.34-.27-2.69-1.12-3.86-1.42-.64-.17-.94.09-.71.71.48,1.28,2.03,2.13,2.4,2.88.42.85-1.14.98-1.64,1.2-.51.23-.32.92-.28.95.06.04.86-.02,1.42.25,1.69.82,6.49,4.33,7.71,5.73.38.43.39,1.05.5,1.17.24.26,2.19-.13,2.36.04.12.13.04,2.42.57,3.52.32.67.79.69.87.8l1.63.05.29.43c.24.07,2.1,1.59,2.88,1.92.41.17,1.18.29,1.66.5l.49-.98c1.09,1.55,1.61,2.81,3.14,4.05.67.54,3.59,2.05,3.74,2.25.24.31.52,2.06,1.26,2.81,1.23,1.24,1.04.33,2.63,2.65.28.41,2.48,2.6,2.9,2.14.07-.84.02-1.6-.21-2.42-1.1-3.92-4.23-9.28-4.97-12.77Z"/>
    <path class="a2" d="M233.29,266.45c-.85-.54-2.15-.08-3.4-1.4-1.29-1.37-2.22-4.7-2.95-5.45-.21-.22-1.82-1.07-2.31-1.04-.41.44,1.56,6.8,2.01,7.82.79,1.77,2.85,3.97,4.21,5.38.44.45,2.87,3.17,3.37,2.63.02-1.64-1.11-3.2-1.92-4.56l1.92.24c.12-.99-.07-3.06-.94-3.62Z"/>
    <path class="a2" d="M372.69,377.08c.54-.16,1.16-.02,1.75-.16.24-.05.3-.39.34-.4.23-.04.77-.05.96,0,.7.19,1.28,1.31,2.4.96l-.48,2.4c1.17-.15,2.6.07,3.84,0,.16,0,.32.02.48,0,.17-.02.38.05.48,0,.03-.01.47-.45.48-.48.05-.14-.05-.33,0-.48,1.8-.9,2.98-.77,4.8-.96.37-.04.81-.57,1.66-.5.5.05.96.44,1.47.49,1.91.17,3.32.36,4.56-1.18,1.74-2.16,1.86-5.38.95-7.92-.18-.5-.67-.8-.87-1.29-.93-2.38-.59-3.59-3.31-4.86-.39-.18-.83,0-1.1-.08l-.26.48c-.52.21-.66-.47-.7-.48-2.62-.97-4.34-1.18-7.2-.96-.08,0-.37.42-1.44.48-.15,0-.33.02-.48,0l-2.63,2.89c-1.49,2.72-1.45,5.67-.73,8.62-.85-.18-2.75.26-3.36,0v.48c-.04.31.05.67,0,.96-.96.39-1.59-.37-1.92-.48-.67-.22-3.02,1.62-3.36-1.44-1.06-.12-1.63,1.13-2.71,1.36-.96.21-2.41-.18-3.07.29-.66.47-.39,1.64-.45,1.71h.96l.25-.37c.19.06.19.36.23.37.35.13.71-.1,1.21.47.47.53.62,1.78.74,1.91.47.49,4.51-.75,5.39-1.03.44-.14.73-.67,1.13-.79Z"/>
    <path class="a2" d="M296.99,234.43c-.07-.32-1.78-3.93-1.95-4.07-.53-.45-.53.52-.85-1.04-.44-2.1-3.8-7.31-5.06-9.59-.16-.29-.41-1.82-1.18-.96-.37.41,2.94,5.98,3.26,7.05.66,1.23,1.93,2.79,2.49,3.98.87,1.87,1.56,4.55,2.3,6.58.28.77-.32,1.32,1.06,1.09-.06-1,.14-2.05-.08-3.04Z"/>
    <path class="a2" d="M388.69,397.15c-.06.16-.83.65-.48,1.44,1.65.02,2.19.47,1.92-1.44h-1.44Z"/>
    <path class="a2" d="M287.71,217.81c-.31,0-.31.48,0,.48s.31-.48,0-.48Z"/>
    <path class="a2" d="M247.4,262.42c-.74-1.06.34-2.03.22-2.6-.2-.93-3.79-3.07-4.2-4.93-.16-.73-.22-2.04-.01-2.73.13-.44.79-.77.8-1.02.04-1.22-1.6-1.34-1.79-1.97-.69-2.29.78-6.43-.52-8.83-.23-.04-.76-.05-.96,0-1.79.45-2.23,6.82-2.4,8.63-1.85-.46-1.25-5.06-1.44-5.27-.59-.13-1.23.21-1.39.77-.26.89-.17,5.5-.03,6.66.34,2.98,2.17,6.02,1.43,9.36-.82.2-.95-.32-1.44-.72-1.41-1.16-2.55-2.71-2.88-4.55-.85-.11-.51,1.1-.39,1.59.29,1.2.9,2.74,1.35,3.93l-2.39-.96c1.06,1.67,1.68,4.39,2.64,5.99.83,1.39,5.42,4.81,6.97,5.5,1.32.59,2.82.63,3.99,1.28,1.53.86,2.82,3.32,4.86,3.77.59-.54-.64-1.89-.98-2.38-1.45-2.09-2.95-4.09-4.48-6.07l-.3-3.06,1.68,1.44c-.51-1.9,1.45-.96.96-2.88.8-.19,1.22.51,1.89.75.65.24,1.65.69,1.47-.51-.57-1.06-2.12-.42-2.65-1.18Z"/>
    <path class="a2" d="M396.9,216.42c-.11.12-.41,2.72-.53,3.3,1.15-1.41,2.42-2.79,3.62-4.29,1.73-2.18,3.8-2.37,6.44-2.91l-.47-5.26c-1.2-3.22-2.58-6.37-4.22-9.44-1.13-2.11-2.76-3.28-2.97-5.9-2.68-.04-1.56.89-1.45,2.17.48,5.45,3.59,10.47,1.7,16.07-.28.83-1.18,1.76-1.24,2.63-.06.94.8,1.82.48,2.84-.21.68-1.19.61-1.36.8Z"/>
    <path class="a2" d="M395.88,379.88v.48c.43-.1,1.08.15,1.58-.08l.34-.4c-.63,0-1.31-.06-1.92,0Z"/>
    <path class="a2" d="M393.96,380.36l.26.46c1.16.46,1.56-.44,1.66-.46-.16,0-.32-.01-.48,0-.47.03-.99-.06-1.44,0Z"/>
  </g>
  <g>
    <path class="cls-2" d="M4.39,13.73v-3.46H1.23v-1.34h3.16v-3.47h1.39v3.47h3.17v1.34h-3.17v3.46h-1.39Z"/>
    <path class="cls-2" d="M14.02,15.76c-.77,0-1.44-.23-1.99-.7-.56-.46-.99-1.14-1.29-2.03-.3-.89-.45-1.98-.45-3.27s.15-2.37.45-3.25c.3-.87.73-1.54,1.29-1.98.56-.45,1.22-.67,1.99-.67s1.42.22,1.97.67c.55.45.98,1.11,1.28,1.98.3.88.45,1.96.45,3.25s-.15,2.38-.45,3.27c-.3.89-.73,1.57-1.28,2.03-.55.46-1.21.7-1.97.7ZM14.02,14.29c.39,0,.73-.15,1.03-.45.3-.3.54-.78.7-1.44.17-.66.25-1.54.25-2.64s-.08-1.97-.25-2.62c-.17-.65-.4-1.11-.7-1.4-.3-.29-.65-.43-1.03-.43s-.73.14-1.03.43c-.3.29-.54.75-.71,1.4s-.26,1.52-.26,2.62.09,1.98.26,2.64c.17.66.41,1.14.71,1.44.3.3.65.45,1.03.45Z"/>
    <path class="cls-2" d="M19.14,15.54v-1.07c1.07-1.08,1.99-2.04,2.76-2.87s1.35-1.59,1.76-2.27c.41-.68.61-1.31.61-1.91,0-.43-.07-.79-.21-1.1s-.35-.55-.64-.72c-.29-.17-.65-.26-1.09-.26s-.86.13-1.23.39-.72.57-1.03.92l-1.02-1.02c.49-.55,1.01-.99,1.56-1.3.55-.31,1.2-.46,1.96-.46.7,0,1.31.14,1.83.43.52.29.92.69,1.21,1.21.29.52.43,1.12.43,1.82s-.19,1.4-.57,2.11c-.38.71-.89,1.46-1.54,2.22-.65.77-1.37,1.58-2.17,2.43.3-.03.62-.06.96-.09.34-.03.65-.04.93-.04h2.94v1.58h-7.44Z"/>
  </g>
</svg>