<?xml version="1.0" encoding="UTF-8"?>
<svg id="a2" xmlns="http://www.w3.org/2000/svg" viewBox="0 0 600 500">
  <defs>
    <style>
      .a2 {
        fill: #e1dad3;
      }

      .cls-2 {
        fill: #c9caca;
      }
    </style>
  </defs>
  <g>
    <path class="a2" d="M424.74,56.63c4.57,5.22,8.13,12.08,9.98,18.81.84,3.05,1.18,6.2,2.03,9.24l2.4-.48c-.34,1.47.4,2.74.5,4.06.11,1.4-.13,2.9-.01,4.33.61,7.44,2.46,14.99,1.9,22.54-.04.49-.41.96-.46,1.46-.23,2.41-.26,5.78-1.07,8.04-.87,2.43-1.87,1.85-3.26,2.97-.75.6-.74,4.52-.96,5.76-.92,5.29-1.74,5.87-4.23,10.15-.78,1.33-1.59,2.99-1.99,4.48-1.02.04-.91.22-.96-.72-.06-1.27.12-2.63.02-3.86-.2-2.39-1.09-7.29-2.04-9.47-.51-1.18-1.76-3.11-3.26-2.74-.55,1.65-.6,3.29-.47,5.03.27,3.61,1.2,7.38.97,11.06-.08,1.29-.85,2.59-.5,4.06-1.9-1.21-3.05-3.82-5.75-3.36.02,4.56,2.67,8.78.96,13.43l-1.06-6.37-1.34-3.22c-.59-.13-1.23.21-1.39.77-.6,2.02.61,8.48-.27,9.8-.42.64-2.18.6-2.85.41-.95-.28-1.41-2.4-1.25-3.31-1.63.66-.8,3.04-.94,4.58-.12,1.33-.83,2.58-.5,4.06.91,0,.83-1.28.96-1.44.22-.28,1.3.29,1.42.75.08.31-1.36,4.99-1.45,6.18-.12,1.67,1.03,3.45.96,3.81-.35,1.58-7.66,5.71-9.43,6.42-1.94.77-8.26,2.01-9.03,3.45-.27.51-.28.9-.22,1.45,2.49,1.14,5.19,1.17,7.94.99.47-.03,3.31-1.14,2.62.22-2.25,2.9-5.93,4.91-8.16,7.67-.69.85-2.81,3.56-1.16,4.05.69.2,3.67-.48,3.08.75-.75,1.57-2.85,2.96-3.77,4.38-.96,1.47-1.17,3.26-1.89,4.82-1.57,3.38-3.57,7.07-7.62,7.74-1.23.2-1.39-.29-2.07-.4-.56-.1-2.56-.13-2.88-.48-.06-.07.1-.44-.05-.65-.35-.49-.94-.88-.94-1.5,0-.44,2.3-3.94,2.69-5.02,1.24-3.45,1.09-8.56-2.19-10.79-3.7-2.53-4.79,1.59-5.71,4.34-.21.64-.01,1.47-1,1.64.11-1.81-.15-3.74-.02-5.54.05-.76.4-1.28.49-1.91.09-.58-.13-1.96.04-2.12s1.48-.25,2.13-.98c1.2-1.35.59-3.58-.48-4.8-.43-.49-1.09-.51-1.63-1.25-1.81-2.51-2.72-8.32-2.95-11.43-.24-3.23,2.11-7.7-2.86-8.41.09-.17.33-1.04.48-1.44.59-1.59.01-1.23,0-1.44-.27-4.03-.25-10.26.49-14.14.97-5.08,4.32-7.29,3.82-13.43-.18-2.23,0-2.93,0-4.81,0-.83-.97-2.08-.98-2.88-.01-.95,1.2-1.27,1.4-1.97.45-1.53.22-5.12.62-7.05.82-4,3.93.27,3.76,2.56l2.4-.48c-.59-2.84-1.1-5.73-.96-8.63,1.42-.28,1.34.32,1.92.96.19.21.46.45.48.48.29.57.32.89.48,1.44.17.6-.26,1.38.72,1.92.94-.56.58-1.19.72-1.92.06-.3-.05-.66,0-.96.01-.06.28,0,.48-.96.42-2.03.71-3.28,1.44-5.28.01-.03.27.12.48-.48.05-.14-.04-.33,0-.48.93-.93,1.64-2.99,2.87-3.61,1.29-.65,2.17.26,2.8-2,.29-1.04.35-3.94.57-4.47.02-.04.55-.12.71-.47.58-1.28,1.61-4.78,2.91-5.27.24-.09,1.18-.2,1.18.22l.24,3.6c1.07-1.67,5.91-8.59,7.68-8.54.4.01.78,1.19,1.67.87.3-2.79-.44-5.42-.48-8.15,1.82.4,3.31,1.3,5.28.96.37-.38-.5-5.77-.96-6.72v-.96c1.14-2.98.49-6.24,1.95-9.08l4.49-.49.53-1.01c2.82-.44,3.58,1.38,5.97,1.94.24-1.14.68-1.8.41-3.04-.24-1.06-2.5-3.31-2.32-3.91.33-1.14,2.64-.54,2.86-.75.31-.3,1.15-3.97,1.46-4.77.58.46.39.04,1.42,1.21ZM400.77,99.54c.9,1.03,2.2-2.71,2.3-3.21.2-.93.56-2.44-.87-2.07.27,1.12-2.02,4.61-1.44,5.28ZM392.14,145.58c.83-2.92,1.99-6.16,2.39-9.36.07-.55,0-1.12.01-1.67l-1.21.46c-.91,3.76-1.76,7.54-2.61,11.31-.12.54.09,1.2-.01,1.65-.54,2.42-1.35,5.04-2.49,7.34-.25.51-.81,2.14-.89,2.22-.24.24-2.35-.26-3.34.26-1.33.69-2.82,5.29-3.23,6.84-.94,3.59-1.93,9.72-1.58,13.33.15,1.52,1.01,3.83,2.65,4.07.73.11,3.55-.35,4.11-.71s1.93-3.79,2.61-4.58c.39-.45,1.05-.54,1.45-.95,8.77-8.79,8.68-20.09,10.8-31.41.68-3.63,2.43-8.09,2.85-11.54.39-3.19-.24-4.78-2.87-2.15.14-3.45,2.36-6.56,1.92-10.07-.9-1.04-2.93,3.37-3.13,3.83-2.04,4.79-2.69,9.48-2.65,14.65,0,.69.45,1.27.41,1.81-.19,2.41-2.47,9.43-3.5,11.85-.35.81-.79,2.06-1.68,2.39-.1-3.29,2.14-5.9,1.42-9.34-.08-.31-.27-.21-.46-.25-.28-.06-.65.04-.96,0ZM419.98,126.65c-1.52,1.99-4.55,5.18-.02,5.03l1.45-5.99c.05-.42-.93-.28-.96-.24-.04.06-.06.67-.47,1.21ZM407.01,138.16c.03-.63-.07-6.06-1.68-5.52-1.97,1.78,1.02,4.09.72,6.24.75,0,.96-.72.96-.72Z"/>
    <path class="a2" d="M406.05,77.48h1.92s0-.96,0-.96c-.85-.11-1.7.02-1.92.96Z"/>
    <path class="a2" d="M307.71,244.86l.86,4.18.1,2.06c-.5-.09-1.18.31-1.44-.28-.49-1.15-.79-4.1-2.17-4.51-.8-.24-1.05.88-1.19.96-.04.69.12,1.45-.06,2.11-.17.6-.85.69-.9.77-.61,1.08-.28,2.55-.49,3.59-.38,1.86-1.06,4.95-2.39,6.24l-5.06,3.58c-.36.45-.16.99-.21,1.46-.05.4.14,1.21-.04,1.39-.11.11-.61.07-.89.29-.91.73-4.89,3.01-2.42,4.07.05-.05.95.12,1.45-.22.4-.27.55-1.03.94-1.47,2.16-2.43,4.53-4.81,6.72-7.19.39-.43,2.4-2.66,2.89-2.15-.09.92-.7,2.11-1.21,2.87-2.79,4.07-7.12,7.72-10.3,11.52-.7.84-1.86,1.4-2.63,2.41-.6.8-.92,2.04-1.69,2.86,1.75.31,3.18-.89,4.65-1.36.41-.13.84,0,1.1-.08,0-.31-.06-.62.02-.93l1.41-.51c.15,1.24-.54,1.21-1.44,1.44,0,.32,0,.64,0,.96.96.13,1.58-.03,2.4-.48.44-.24,1.97-1.96,2.4-1.44-.26,2.31,3.61,1.52,3.33,3.09-.31,1.78-4.58,3.63-6.21,4.11-.65,1.45-2.84,1.98-4.32,2.4-.34,1.49,1.27,1.03,2.07.87,3.04-.63,5.35-2.42,7.77-4.23.48,0,.12.77.25.95.38.54,1.57-.92,1.93-1.17,7.59-5.29,13.55-16.98,12.45-26.4-.29-2.47-1.58-1.42-1.9-1.69-.11-.09.21-2.83-1.21-2.38-1.12.35-.67,4.34-1.68,5.04-.26.47-.88-.32-.94-.5-.89-3.11,1.44-5.74,1.45-8.13,0-1.37-1.2-2.2-1-3.6-1.4-.16-.76-.74-2.4-.48Z"/>
    <path class="a2" d="M142.2,370.99c-.05.74.07,1.31.48,1.92.05.08.51.14.71.47,1.88,3.13,1.51,10.57,5.36,11.45,1.82.42,3.29-1.83,4.4-3.14.64-.75.56-1.39,2.01-1.11-.2-.44-.2-1.74-.58-2.54-.44-.93-1.51-2.01-1.74-3.05-.29-1.33-.22-4.93-.08-6.4h-.96c-.46,0-1.01.06-1.44,0-.31-.04-.53-.14-.48-.48-1.59-1.99-1.92-1.7-4.32-.73-1.66.67-3.23,1.61-3.35,3.6Z"/>
    <path class="a2" d="M360,171c-.3-.12-1.02.08-1.44,0,.67-2.49,1.05-6.15-2.4-6.23.18,1.35-.29,3.25.07,4.49.43,1.5,2.09,2.77,2.35,5.32.43,4.26-1.44,5.53-1.94,8.89,1.25.17,1.44-.13,2.01-1.11,1.52-2.59,2.75-6.71,2.32-9.69-.06-.38-.88-1.63-.97-1.67Z"/>
    <path class="a2" d="M348.96,184.91c-.06.55.14,1.6,0,1.92.46.3.88.44,1.44.48-.29-1.71.22-1.17.93-1.69,2-1.45.15-2.32.51-3.59-1.29.14-2.73,1.64-2.88,2.88Z"/>
    <path class="a2" d="M439.15,83.72c.5-.09,1.18.31,1.44-.29.44-1.01.61-1.97.48-3.07-2.38-.31-1.96,1.59-1.92,3.36Z"/>
    <path class="a2" d="M375.83,221.84l.29.42c.21.12.49,0,.67.06.35.04.43-.17.48-.48s-.05-.66,0-.96c-.91-.33-1.35.92-1.44.96Z"/>
    <path class="a2" d="M151.8,368.59h.96c.02-.16-.03-.33,0-.48l-.68.05-.28.43Z"/>
    <path class="a2" d="M245.82,222.8c.58-.3,1.46-1.19,1.43.24-.05,2.01.84,3.09,2.91,2.41s1.15-1.86,1.42-3.37c.57-3.11,5.53-10.49,7.9-12.72.85-.8,4.34-2.66,4.56-3.11.44-.89-.64-.69-1.1-.81-.58-.15-1.08-.54-1.78-.39.07-1.1,2.14-1.23,2.37-1.47.17-.17-.03-1.39.03-1.89-.98.13-2.05.68-2.87,1.21-2.1,1.37-12.18,9.24-12.41,11.09-.05.42.35.83.31,1.28-.14,1.62-2.13,5.75-2.78,7.52Z"/>
    <path class="a2" d="M134.99,351.1c.07-.54.71-.13.98-.26.09-.04.87-1.4.96-1.44l.05-.68.43-.28c-.17-.78-.09-2.93,0-3.84.02-.23-.07-.49.02-.7l.46-.26c.32,0,.64,0,.96,0v-.96s4.32.48,4.32.48c.02.16-.03.34,0,.48.1.46,1.07,1.84.96,1.92-.67-.2-.82.41-.96.48-.14.08-.59-.07-.96.22-2.02,1.52-.59,10.27,1.19,11.8.37.32.96.36,1.13.53.29.3.3,1.15.54,1.55.31.52,1.38.37,1.47,1.25l2.88.48c2.86-.87,1.44-.14,1.92.48-1.76.37-2.44,2.7-4.32,2.4l-.48-.48c-.02-.11-.03-.44,0-.48-.14-.8-.89-.92-1.6-1.05l-.32-.39c-.53.1-1.32,0-1.92,0-.55,0-1.19.1-1.7.01-.66-.11-.66-.48-.7-.49-.47-.14-1.57-.27-1.85-.55-.16-.16-1.82-3.73-1.91-4.09-.14-.55-.05-1.05-.08-1.59h-.96c-.02-.32.02-.64,0-.96-.02-.44-.06-1.03,0-1.44-.66-.34-.59-1.45-.5-2.14Z"/>
    <path class="a2" d="M147,364.75l-.48-.48c.09.41.02.41.48.48Z"/>
    <path class="a2" d="M150.36,368.59c0-.33-.39-.37-.48-.48-.05.34.17.44.48.48Z"/>
  </g>
  <g>
    <path class="cls-2" d="M3.04,11.7v-1.36h4.13v1.36H3.04Z"/>
    <path class="cls-2" d="M12.35,15.76c-.77,0-1.44-.23-1.99-.7-.56-.46-.99-1.14-1.29-2.03-.3-.89-.45-1.98-.45-3.27s.15-2.37.45-3.25c.3-.87.73-1.54,1.29-1.98.56-.45,1.22-.67,1.99-.67s1.42.22,1.97.67c.55.45.98,1.11,1.28,1.98.3.88.45,1.96.45,3.25s-.15,2.38-.45,3.27c-.3.89-.73,1.57-1.28,2.03-.55.46-1.21.7-1.97.7ZM12.35,14.29c.39,0,.73-.15,1.03-.45.3-.3.54-.78.7-1.44.17-.66.25-1.54.25-2.64s-.08-1.97-.25-2.62c-.17-.65-.4-1.11-.7-1.4-.3-.29-.65-.43-1.03-.43s-.73.14-1.03.43c-.3.29-.54.75-.71,1.4-.17.65-.26,1.52-.26,2.62s.09,1.98.26,2.64.41,1.14.71,1.44c.3.3.65.45,1.03.45Z"/>
    <path class="cls-2" d="M21.59,15.76c-.55,0-1.07-.11-1.55-.34-.48-.23-.91-.57-1.27-1.03-.36-.46-.64-1.04-.85-1.74-.21-.7-.31-1.52-.31-2.47,0-1.13.12-2.09.35-2.89.23-.79.55-1.45.96-1.96.41-.51.87-.89,1.39-1.12.52-.23,1.07-.35,1.64-.35.65,0,1.21.12,1.68.37.47.25.87.54,1.2.9l-.98,1.12c-.21-.26-.47-.46-.8-.62-.32-.16-.66-.24-1.02-.24-.5,0-.96.15-1.38.45-.42.3-.75.8-1,1.5s-.38,1.65-.38,2.86c0,.95.09,1.73.28,2.34.19.61.45,1.07.8,1.37.34.3.75.45,1.2.45.33,0,.64-.09.91-.28.27-.19.49-.45.65-.8.16-.35.24-.76.24-1.24s-.08-.87-.23-1.19c-.15-.33-.37-.57-.65-.74-.28-.17-.62-.26-1.03-.26-.33,0-.7.11-1.09.34-.39.22-.76.61-1.1,1.17l-.08-1.34c.23-.31.49-.58.78-.8.29-.22.6-.4.91-.52.32-.12.62-.18.9-.18.65,0,1.21.13,1.7.39.49.26.87.65,1.14,1.18.27.52.41,1.18.41,1.97s-.16,1.41-.48,1.97c-.32.55-.73.99-1.25,1.3s-1.09.47-1.71.47Z"/>
  </g>
</svg>