<?xml version="1.0" encoding="UTF-8"?>
<svg id="a2" xmlns="http://www.w3.org/2000/svg" viewBox="0 0 600 500">
  <defs>
    <style>
      .a2 {
        fill: #e1dad3;
      }

      .cls-2 {
        fill: #c9caca;
      }
    </style>
  </defs>
  <g>
    <path class="a2" d="M303.17,275.06c2.93.16,5.54-1.47,8-2.79l7.35-1.52c-.59,1.93-2.67,2.47-3.84,4.08l1.92.72c-1.04,1.25-1.18,1.33-1.44,2.88,3.57.48,6.46-3.05,8.64-5.51,2.54-2.86,5.77-7.09,7.08-10.67.64-1.73,2.24-7.95.97-9.17-.27-.26-1.08-.11-1.3-.86-.15-.51.05-1.5-.05-1.63-.04-.06-1.38-.05-1.43,0-.78.93-.77,5.01-2.41,5.76.15-1.57-.25-3.46.08-4.96.32-1.44,2.31-3.71,2.33-5.36,0-1.02-1.52-2.39-1.45-3.6-.39-.1-.82.22-.96-.48l-.96.48h-.48c.06.13-.09.42-.02.67.12.41.73.22.89.38.27.26.02.69.09.87.02.04.36.08.4.32.29,1.71-.19,2.87-.41,4.48h-.96s0-.96,0-.96c-1.45.3-.88-.79-.96-1.92-.15-2.03-.66-1.92-.96-2.88h-.96c.26.65-.47.9-.48.96-.12.55.3,1.7-.48,1.92.14.97,0,1.1-.96.96-.12.11-1.5-.11-2.11.06-.59.17-.7.87-.77.9l-.08,1.09-.4.35c.63,1.3-1.72,3.18-1.92,3.84-.15.52-.04,2.38-.5,2.86-.22.23-2.19-.17-2.35.04-.1.14.05.72-.1,1.08-.13.32-.39.32-.4.34h-.48s0,.48,0,.48v.48c0,.32,0,.64,0,.96,0,.48.03.96,0,1.44-.02.3.09.61-.04.9-.91.48-5.03,2.69-5.18,3.22-.45,1.54.59,2.97.43,4.51l2.4-.48c.03-.27-.1-.79.03-.92.11-.1,2.52-1.2,2.85-.76-.09,1.39-2.2,1.71-2.88,2.16-1.32.87-3.4,2.33-4.57,3.35-.57.5-1.33,1.08-1.19,1.93Z"/>
    <path class="a2" d="M134.17,360.54c.56-1.88.22-3.67,1.79-4.94.38-.31.96-.38,1.12-.54.34-.35.45-1.67.59-1.81.14-.14,3.41-.09,4.04-.01,1.91.22,4.7,1.45,6.01,2.87.1.1.5.89.48.96-.01.05-.34.11-.42.34-.26.78,2.48,3.96,3.06,5.41.7,1.75.63,3.32,1.2,5.05,0,1.9-2.13,2.06-2.4,2.63h-.96c-.03-.07-1.16-.87-1.26-.91-2.27-.71-2.53,2.16-3.34,2.32-.41.09-.93-.43-1.42-.48-.78-.07-1.29.44-1.9.49-3.18.26-4.46-.18-6.48-2.62-3.43-4.16-1.32-4.67-.11-8.77Z"/>
    <path class="a2" d="M279.97,201.22c2-.44,3.34.38,4.73.41.8.02,1.54-.95,2.41-.99.72-.04,1.27.47,1.82.42.59-.05,7.82-2.02,8.48-2.32v1.44c-1.11.81-4.11,3.5-4.82,4.54-.7,1.03-1,2.67-2.37,3.39-.37.2-4.22,1.25-4.56,1.22-.79-.07-1.02-.78-1.5-.93-1.38-.42-3.16.53-4.26,1.37-3.06,2.32-7.34,8.62-8.96,12.15-.9,1.96-1.33,4.31-2.54,6.1l.34-3.02.86-2.26c-2.1.46-2.43-.66-2.42-2.64.01-4.71,8.09-17.83,12.82-18.88Z"/>
    <path class="a2" d="M140.74,379.62c.73-.16.67-2.98,2.42-.45.22.32.19.79.28.91.04.05,1.35.09,1.39.03.1-.14-.12-.95.22-1.46.26-.39.9-.43,1.23-.71.51-.43.32-1.59,1.19-1.2.83.37.64,2.14,1.67,2.65.81.4,2.33.13,2.41.23.06.08-.11.72.07,1.11.33.74,1.23,1.53,1.59,2.27,2.19,4.49.36,9.5-5.02,9.58-.67,0-1.38-.05-1.92-.48-.22-.18-.43-1.24-1.2-.96l-.24.48c-2.72-1.27-3.8-2.89-5.04-5.75-1.02-2.35-1.49-4.22-.71-6.73l1.65.48Z"/>
    <path class="a2" d="M336.03,253.46c1.76.55.14,6.27-1.68,6.72l.46-5.54c-.01-.61.63-1.37,1.21-1.18Z"/>
    <path class="a2" d="M401.99,199.62c1.86.37,2.23,1.06,3.82,1.7.63.26,1.34.12,1.95.45.97.52.27,1.74-.74,1.71-1.02-.03-4.85-2.77-5.51-3.86.15.03.33-.03.48,0Z"/>
    <path class="a2" d="M390.01,149.93c.08.93.37,2.81.56,3.76.31,1.54,3.11,6.24,2.57,7.08-.19.3-.71.39-.74.45-.53,1.15,1.68,5.16,1.44,6.72-3.66.15-2.18,3.06-1.34,5.42,1.76,4.95,4.72,9.57,7.83,13.76.41.55,1.49,1.3,1.63,1.73.2.62.17,1.5-.69,1.17-1.57-.6-4.33-3.7-6.01-2.64-1.55.97,1.52,3.68,2.42,4.31,1.69,1.2,5.94,2.23,6.7,3.85.58,1.24-2.24.27-2.55.15-.65-.28-2.77-2.24-3.21-1.83-.1,1.63,2.43,1.95,3.13,2.88.27.36.17.9.22.96.29.33,7.6,2.3,8.41,2.39.79.09,3,.09,2.63-1.19-.13-.45-3.8-2.46-4.57-3.11-.44-.37-1.83-1.62-1.67-2.17.17-.57.97-.83,1.61-.66,1.18.3,3.09,1.43,4.38,1.86.28-.48-.34-.81-.19-1.59.13-.66,1.5-3.5,2.11-3.69,1.33-.42,1.54,2.46,1.75,3.05.11.31.39.29.41.31h.48c.03-.11.86-1.83,1.02-2.1,1.23-2.1,1.22-.49,2.82-.3,2.44-6.51,3.73-13.39,5.28-20.16h1.42c.6,1.95,1.65,3.99,1.93,6.01.17,1.22-.57,4,.98,2.87.21-.15,2.44-4.02,2.65-4.54,1.71-4.08,2.62-8.52,4.16-12.64.51-1.35,1.99-4.29,3.24-4.91.58-.29,1.17-.13,1.62-.3.41-.15,3.19-5.13,3.19-5.45v-10.08s.34-.4.48-.48c1.62-1.02,1.81.73,1.94,2.15h2.36c1.62-4.5,2.22-8.91,1.96-13.69-.04-.77-.44-1.33-.49-1.91-.34-3.98,1.06-6.15,3.25-1.81,1.66,3.29,1.62,7.09,1.54,10.7l1.21-.47c1.06-3.3,2.37-6.47,3.09-9.86.3-1.4.3-3.27.6-4.68.37-1.74,1.64-4.08,1.82-5.38.59-4.23-.67-8.42-.95-12.49-.05-.73-.17-4.39,0-4.55.1-.11,1.55-.05,1.94.22,1.27.86.67,4.24,4.7,2.11,1.08-3.98.95-8.29,1.51-12.41-.37-.39-2.49,1.88-3.61-.95-.96-2.42-2.81-9.25-3.09-11.78-.12-1.1-.4-2.4.91-2.18.25-.18-.92-3.4-1.64-3.81l-.72,2.88c-.21-2.59-2.16-5.16-2.8-7.53-.16-.57.02-1.19-.08-1.59-.38-1.55-.6-4.05-1.44-5.28v-.96s-.96,0-.96,0c-.9-.41-1.36.46-1.44.48-1.61.49-2.56.72-3.86-.7-.99-1.09-1.59-4.02-1.9-5.54-3.21.04-1.39,7.23-1.93,7.66-.15.12-1.06-.08-1.42.25l-2.4,2.64c.71,1.64,2.13,5.13-.48,5.28.12.26.01,1.64,0,2.16,0,.41.22,1.67-.72,1.2-1.08-.55-1.01-2.7-1.66-3.14-.38-.26-1.04-.19-1.46-.46-1.54-1.02-3.01-3.31-5.47-2.58-1.02.3-1.05,1.55-1.3,1.82-.49.53-4.67-1.17-3.8,2.44h-2.38c.15,1.16-.6,1.92-.97,2.88-1.01,2.6-2.72,3.95-3.84,6.72-.39.97-.29,2.8-1.2,3.84-.42.48-1.18.63-1.7,1.18-.52.55-.66,1.46-1.42,1.94-.78.49-2.71.55-3.15,1.17-.4.57-.28,4.29-.21,5.31.01.22.44.68.47,1.19.11,1.83-.05,3.69,0,5.53-2.09.03-2.55-1.21-3.84.96-.1-.02-.2-.02-.3.01.07.15.15.28.21.43.24.58.39,1.17.47,1.8.01.09-.01.19-.05.29.23.43.2,1.01.17,1.57-.13,2.48-3,5.2-4.28,7.25-.33.52-.49,1.55-.54,1.62-.03.04-.83.24-.95-.28-.23-.98-.62-2.71-1.74-3.03-.75-.22-1.83-.1-2.07.71-.56,1.93.14,7.1-.02,9.58-.05.77-.41,1.29-.49,1.91-.08.63.1,2.52-.01,2.63-.83.86-1.08-.97-1.42-1.21-1.61-1.13-1.34.32-1.68,1.23-.49,1.32-.47,1.62-.74,2.87-.63,2.96-1.01,5.79-2.15,8.65-1.75,4.38-5.94,9.37-5.51,14.14ZM404.39,190.02c1.53.45,2.07-.83,3.36-.96-.23,1.21.27,2.21.48,3.36-.38.38-4.28-1.05-3.84-2.4ZM400.53,160.5c0-.87,2.15-2.52,1.47-4.08.47-.05.97.06,1.44,0,1.61-.2,1.91-1.77,2.3-3.22.96-3.65-.08-6.78,2.49-9.99.39-.49,3.39-3.5,3.64-3.58.49-.15,1.5.85,1.61,1.25.22.77-.87,2.43-.44,3.53,1.56.2,1.3-1.36,1.81-2.26,2.02-3.59,3.82-7.37,5.38-11.17l3.17-2.82c4.12-1.23,2.24,4.48,2.1,6.66l-1.68-1.92c-3.01,2.85.03,6.61,2.07,2.55.75-1.49,1.7-5.15,2.01-6.87.77-4.32.89-8.86,1.45-13.19.09-.72,1.04-3.42,1.67-3.61,1.3-.38,3.21,4.05,2.64,5.28,1.65-.7.64-3.62,2.4-4.32.41,2.62,1.17,5.73.95,8.39-.16,1.96-.26,4.86-.56,6.64-.23,1.36-1.87,4.61-2.54,6.1-2.75,6.12-6.29,11.58-10.8,16.55-.38,1.15,1.41.32.95,1.43-.13.31-.82.58-.91,1.03-.09.47.7,1.36.43,1.6-.08.07-.6,0-.93.26-.83.66-4.61,3.38-4.82,3.84-.45.98.83.64.94.73.47.4-.53,1.12-.69,1.44-.45.92-.9,2.62-2.17,2.87v.96c1.27-.11,2.17.15,3.36.48.25.23-.45,2.44-.72,2.87-.86,1.41-2.66,2.55-3.61,3.58-.76.82-1.78,4.63-2.85,1.45-.26-.76-.56-3.62-1.7-1.69-.89,1.5-1.1,6.09-1.18,7.94-.05.94.06.76-.96.72l-1.91-10.33c0-1.71.27-5.84-1.44-6.72-.42-.22-1.67-.4-1.93-.23-.05.03.28,1.44-.72.96-.25-.12-1.71-2.87-1.71-3.12Z"/>
  </g>
  <g>
    <path class="cls-2" d="M3.04,11.7v-1.36h4.13v1.36H3.04Z"/>
    <path class="cls-2" d="M12.35,15.76c-.77,0-1.44-.23-1.99-.7-.56-.46-.99-1.14-1.29-2.03-.3-.89-.45-1.98-.45-3.27s.15-2.37.45-3.25c.3-.87.73-1.54,1.29-1.98.56-.45,1.22-.67,1.99-.67s1.42.22,1.97.67c.55.45.98,1.11,1.28,1.98.3.88.45,1.96.45,3.25s-.15,2.38-.45,3.27c-.3.89-.73,1.57-1.28,2.03-.55.46-1.21.7-1.97.7ZM12.35,14.29c.39,0,.73-.15,1.03-.45.3-.3.54-.78.7-1.44.17-.66.25-1.54.25-2.64s-.08-1.97-.25-2.62c-.17-.65-.4-1.11-.7-1.4-.3-.29-.65-.43-1.03-.43s-.73.14-1.03.43c-.3.29-.54.75-.71,1.4-.17.65-.26,1.52-.26,2.62s.09,1.98.26,2.64.41,1.14.71,1.44c.3.3.65.45,1.03.45Z"/>
    <path class="cls-2" d="M20.98,15.76c-.59,0-1.12-.07-1.59-.22-.47-.15-.88-.35-1.24-.59-.35-.25-.67-.5-.94-.77l.86-1.2c.22.22.46.43.72.62.26.19.55.34.88.46s.7.18,1.1.18c.43,0,.81-.09,1.16-.28.34-.19.62-.46.81-.81.2-.35.3-.77.3-1.25,0-.73-.2-1.29-.6-1.7-.4-.41-.93-.61-1.59-.61-.37,0-.68.06-.94.17-.26.11-.56.28-.89.5l-.89-.58.34-5.6h5.83v1.57h-4.27l-.27,3.01c.25-.13.5-.23.75-.3.25-.07.53-.1.83-.1.65,0,1.24.13,1.77.38.53.25.95.64,1.27,1.17.31.53.47,1.2.47,2.02s-.18,1.54-.55,2.13c-.37.59-.84,1.03-1.43,1.34-.59.31-1.22.46-1.9.46Z"/>
  </g>
</svg>